<?xml version="1.0" encoding="UTF-8"?>
<svg xmlns="http://www.w3.org/2000/svg" width="1920" height="1080" viewBox="0 0 1920 1080">
<defs>
    <linearGradient id="bg20" x1="0%" y1="0%" x2="0%" y2="100%">
      <stop offset="0%" stop-color="#1a0533"/>
      <stop offset="50%" stop-color="#000000"/>
      <stop offset="100%" stop-color="#1a0533"/>
    </linearGradient>
    <linearGradient id="sun20" x1="0%" y1="0%" x2="100%" y2="100%">
      <stop offset="0%" stop-color="#ff0066"/>
      <stop offset="100%" stop-color="#00ccff"/>
    </linearGradient>
    <radialGradient id="glow20" cx="50%" cy="70%" r="50%">
      <stop offset="0%" stop-color="#ff0066" stop-opacity="0.3"/>
      <stop offset="100%" stop-color="#1a0533" stop-opacity="0"/>
    </radialGradient>
  </defs><rect width="1920" height="1080" fill="url(#bg20)"/><circle cx="762.0040086242379" cy="439.0427503360069" r="686.1348714647197" fill="#ff0066" opacity="0.09274260353826513"/><circle cx="962.0040086242379" cy="339.0427503360069" r="438.3590890649611" fill="#00ccff" opacity="0.10821075627072965"/><circle cx="799.1658846147279" cy="438.17113386191687" r="94.3015101631874" fill="url(#sun20)" opacity="0.6741632440532938"/><circle cx="799.1658846147279" cy="438.17113386191687" r="89.3015101631874" fill="#1a0533" opacity="0.3"/><path d="M1072.2836479061014 936.8319291707203 Q1091.0575024017733 871.1046833128447 1094.8122733009077 805.377437454969" stroke="#000000" stroke-width="5.239933735048383" fill="none" stroke-linecap="round"/><path d="M1094.8122733009077 805.377437454969 Q1119.973068852437 785.377437454969 1141.0651128350444 805.377437454969" stroke="#000000" stroke-width="2.6201085524214687" fill="none" stroke-linecap="round" opacity="0.6"/><path d="M1094.8122733009077 805.377437454969 Q1137.017035312926 794.2752902859552 1142.1176123069304 823.1731431169413" stroke="#000000" stroke-width="3.7977866515977743" fill="none" stroke-linecap="round" opacity="0.6"/><path d="M1094.8122733009077 805.377437454969 Q1093.6140886483272 791.9866068718181 1084.755608030676 818.5957762886671" stroke="#000000" stroke-width="2.8808425927722925" fill="none" stroke-linecap="round" opacity="0.6"/><path d="M1094.8122733009077 805.377437454969 Q1086.444755542543 788.0807961288758 1057.388392441061 810.7841548027827" stroke="#000000" stroke-width="2.2845796775735403" fill="none" stroke-linecap="round" opacity="0.6"/><path d="M1094.8122733009077 805.377437454969 Q1095.8190001938965 783.1222593053412 1063.5927687623448 800.8670811557135" stroke="#000000" stroke-width="2.8676539712743025" fill="none" stroke-linecap="round" opacity="0.6"/><path d="M1094.8122733009077 805.377437454969 Q1104.5353733004715 775.2254488846097 1079.3647723457884 785.0734603142505" stroke="#000000" stroke-width="3.0844083235329967" fill="none" stroke-linecap="round" opacity="0.6"/><path d="M1563.050205326418 939.3959577752734 Q1558.4400632927288 889.0664548587674 1557.518034885991 838.7369519422615" stroke="#000000" stroke-width="5.955481805362618" fill="none" stroke-linecap="round"/><path d="M1557.518034885991 838.7369519422615 Q1578.9728179310853 818.7369519422615 1599.6321205067525 838.7369519422615" stroke="#000000" stroke-width="3.025972916052205" fill="none" stroke-linecap="round" opacity="0.6"/><path d="M1557.518034885991 838.7369519422615 Q1595.7629015948394 826.3677883134951 1598.0872944924897 853.9986246847287" stroke="#000000" stroke-width="3.946925447310071" fill="none" stroke-linecap="round" opacity="0.6"/><path d="M1557.518034885991 838.7369519422615 Q1567.301900644584 827.4273825562524 1544.2944743707658 856.1178131702433" stroke="#000000" stroke-width="2.5419772710981725" fill="none" stroke-linecap="round" opacity="0.6"/><path d="M1557.518034885991 838.7369519422615 Q1543.432789124436 820.9566325867036 1526.789939207714 843.1763132311457" stroke="#000000" stroke-width="3.425987472158388" fill="none" stroke-linecap="round" opacity="0.6"/><path d="M1557.518034885991 838.7369519422615 Q1538.2145304250234 814.4490156663179 1498.1580920584204 830.1610793903743" stroke="#000000" stroke-width="3.862934647096073" fill="none" stroke-linecap="round" opacity="0.6"/><path d="M1557.518034885991 838.7369519422615 Q1566.0191020524055 810.1805768681131 1544.498456385265 821.6242017939647" stroke="#000000" stroke-width="3.38304196749419" fill="none" stroke-linecap="round" opacity="0.6"/><path d="M1557.518034885991 838.7369519422615 Q1581.4608387232674 810.8384050627585 1599.5105745342833 822.9398581832554" stroke="#000000" stroke-width="3.0589940541095553" fill="none" stroke-linecap="round" opacity="0.6"/><path d="M466.28711085447276 934.9331678903972 Q479.06640751731265 861.7327103767852 481.62226684988065 788.5322528631734" stroke="#000000" stroke-width="7.9344458952393495" fill="none" stroke-linecap="round"/><path d="M481.62226684988065 788.5322528631734 Q510.40685985339974 768.5322528631734 526.036409635571 788.5322528631734" stroke="#000000" stroke-width="3.7505156220287352" fill="none" stroke-linecap="round" opacity="0.6"/><path d="M481.62226684988065 788.5322528631734 Q507.98225238474066 777.6048094035641 529.8564162504975 806.6773659439547" stroke="#000000" stroke-width="2.3189429287609977" fill="none" stroke-linecap="round" opacity="0.6"/><path d="M481.62226684988065 788.5322528631734 Q480.46109109473974 778.6087278675896 466.28966908579116 808.6852028720056" stroke="#000000" stroke-width="3.9625179287890244" fill="none" stroke-linecap="round" opacity="0.6"/><path d="M481.62226684988065 788.5322528631734 Q467.7701621558538 771.0304035720816 447.0391775238134 793.5285542809897" stroke="#000000" stroke-width="3.643885170492317" fill="none" stroke-linecap="round" opacity="0.6"/><path d="M481.62226684988065 788.5322528631734 Q462.6234358372955 765.0406342715153 433.28612875489443 781.5490156798571" stroke="#000000" stroke-width="3.9802011144301392" fill="none" stroke-linecap="round" opacity="0.6"/><line x1="0" y1="0" x2="0" y2="1080" stroke="#ff0066" stroke-opacity="0.03268861679422869" stroke-width="0.5"/><line x1="69" y1="0" x2="69" y2="1080" stroke="#ff0066" stroke-opacity="0.03268861679422869" stroke-width="0.5"/><line x1="138" y1="0" x2="138" y2="1080" stroke="#ff0066" stroke-opacity="0.03268861679422869" stroke-width="0.5"/><line x1="207" y1="0" x2="207" y2="1080" stroke="#ff0066" stroke-opacity="0.03268861679422869" stroke-width="0.5"/><line x1="276" y1="0" x2="276" y2="1080" stroke="#ff0066" stroke-opacity="0.03268861679422869" stroke-width="0.5"/><line x1="345" y1="0" x2="345" y2="1080" stroke="#ff0066" stroke-opacity="0.03268861679422869" stroke-width="0.5"/><line x1="414" y1="0" x2="414" y2="1080" stroke="#ff0066" stroke-opacity="0.03268861679422869" stroke-width="0.5"/><line x1="483" y1="0" x2="483" y2="1080" stroke="#ff0066" stroke-opacity="0.03268861679422869" stroke-width="0.5"/><line x1="552" y1="0" x2="552" y2="1080" stroke="#ff0066" stroke-opacity="0.03268861679422869" stroke-width="0.5"/><line x1="621" y1="0" x2="621" y2="1080" stroke="#ff0066" stroke-opacity="0.03268861679422869" stroke-width="0.5"/><line x1="690" y1="0" x2="690" y2="1080" stroke="#ff0066" stroke-opacity="0.03268861679422869" stroke-width="0.5"/><line x1="759" y1="0" x2="759" y2="1080" stroke="#ff0066" stroke-opacity="0.03268861679422869" stroke-width="0.5"/><line x1="828" y1="0" x2="828" y2="1080" stroke="#ff0066" stroke-opacity="0.03268861679422869" stroke-width="0.5"/><line x1="897" y1="0" x2="897" y2="1080" stroke="#ff0066" stroke-opacity="0.03268861679422869" stroke-width="0.5"/><line x1="966" y1="0" x2="966" y2="1080" stroke="#ff0066" stroke-opacity="0.03268861679422869" stroke-width="0.5"/><line x1="1035" y1="0" x2="1035" y2="1080" stroke="#ff0066" stroke-opacity="0.03268861679422869" stroke-width="0.5"/><line x1="1104" y1="0" x2="1104" y2="1080" stroke="#ff0066" stroke-opacity="0.03268861679422869" stroke-width="0.5"/><line x1="1173" y1="0" x2="1173" y2="1080" stroke="#ff0066" stroke-opacity="0.03268861679422869" stroke-width="0.5"/><line x1="1242" y1="0" x2="1242" y2="1080" stroke="#ff0066" stroke-opacity="0.03268861679422869" stroke-width="0.5"/><line x1="1311" y1="0" x2="1311" y2="1080" stroke="#ff0066" stroke-opacity="0.03268861679422869" stroke-width="0.5"/><line x1="1380" y1="0" x2="1380" y2="1080" stroke="#ff0066" stroke-opacity="0.03268861679422869" stroke-width="0.5"/><line x1="1449" y1="0" x2="1449" y2="1080" stroke="#ff0066" stroke-opacity="0.03268861679422869" stroke-width="0.5"/><line x1="1518" y1="0" x2="1518" y2="1080" stroke="#ff0066" stroke-opacity="0.03268861679422869" stroke-width="0.5"/><line x1="1587" y1="0" x2="1587" y2="1080" stroke="#ff0066" stroke-opacity="0.03268861679422869" stroke-width="0.5"/><line x1="1656" y1="0" x2="1656" y2="1080" stroke="#ff0066" stroke-opacity="0.03268861679422869" stroke-width="0.5"/><line x1="1725" y1="0" x2="1725" y2="1080" stroke="#ff0066" stroke-opacity="0.03268861679422869" stroke-width="0.5"/><line x1="1794" y1="0" x2="1794" y2="1080" stroke="#ff0066" stroke-opacity="0.03268861679422869" stroke-width="0.5"/><line x1="1863" y1="0" x2="1863" y2="1080" stroke="#ff0066" stroke-opacity="0.03268861679422869" stroke-width="0.5"/><line x1="0" y1="0" x2="1920" y2="0" stroke="#ff0066" stroke-opacity="0.03268861679422869" stroke-width="0.5"/><line x1="0" y1="69" x2="1920" y2="69" stroke="#ff0066" stroke-opacity="0.03268861679422869" stroke-width="0.5"/><line x1="0" y1="138" x2="1920" y2="138" stroke="#ff0066" stroke-opacity="0.03268861679422869" stroke-width="0.5"/><line x1="0" y1="207" x2="1920" y2="207" stroke="#ff0066" stroke-opacity="0.03268861679422869" stroke-width="0.5"/><line x1="0" y1="276" x2="1920" y2="276" stroke="#ff0066" stroke-opacity="0.03268861679422869" stroke-width="0.5"/><line x1="0" y1="345" x2="1920" y2="345" stroke="#ff0066" stroke-opacity="0.03268861679422869" stroke-width="0.5"/><line x1="0" y1="414" x2="1920" y2="414" stroke="#ff0066" stroke-opacity="0.03268861679422869" stroke-width="0.5"/><line x1="0" y1="483" x2="1920" y2="483" stroke="#ff0066" stroke-opacity="0.03268861679422869" stroke-width="0.5"/><line x1="0" y1="552" x2="1920" y2="552" stroke="#ff0066" stroke-opacity="0.03268861679422869" stroke-width="0.5"/><line x1="0" y1="621" x2="1920" y2="621" stroke="#ff0066" stroke-opacity="0.03268861679422869" stroke-width="0.5"/><line x1="0" y1="690" x2="1920" y2="690" stroke="#ff0066" stroke-opacity="0.03268861679422869" stroke-width="0.5"/><line x1="0" y1="759" x2="1920" y2="759" stroke="#ff0066" stroke-opacity="0.03268861679422869" stroke-width="0.5"/><line x1="0" y1="828" x2="1920" y2="828" stroke="#ff0066" stroke-opacity="0.03268861679422869" stroke-width="0.5"/><line x1="0" y1="897" x2="1920" y2="897" stroke="#ff0066" stroke-opacity="0.03268861679422869" stroke-width="0.5"/><line x1="0" y1="966" x2="1920" y2="966" stroke="#ff0066" stroke-opacity="0.03268861679422869" stroke-width="0.5"/><line x1="0" y1="1035" x2="1920" y2="1035" stroke="#ff0066" stroke-opacity="0.03268861679422869" stroke-width="0.5"/><rect x="0" y="1000" width="1920" height="80" fill="#00000d" opacity="0.8"/><line x1="0" y1="1040" x2="1920" y2="1040" stroke="#00ccff" stroke-opacity="0.15" stroke-width="2" stroke-dasharray="30,20"/><rect x="0" y="930" width="1920" height="150" fill="url(#glow20)"/><rect x="0" y="980" width="1920" height="100" fill="#00ccff" opacity="0.04"/><rect x="538.5341420533448" y="1056.2089975867907" width="75.29916003702654" height="2" fill="#ff0066" opacity="0.021739027416738457" rx="1"/><rect x="438.69860718927777" y="1003.8122733505006" width="64.75533092505191" height="2" fill="#ff0066" opacity="0.03244979968584371" rx="1"/><rect x="596.732531775891" y="1046.513356023122" width="94.12923697245523" height="2" fill="#ff0066" opacity="0.02220511099374972" rx="1"/><rect x="83.86540668175216" y="1006.6801291999128" width="63.030414321234076" height="2" fill="#ff0066" opacity="0.038768871216748116" rx="1"/><rect x="1189.147011020488" y="1053.4418485158685" width="43.246673872518976" height="2" fill="#ff0066" opacity="0.05568120671335636" rx="1"/><rect x="594.029035855557" y="1028.835793568016" width="50.829814968358214" height="2" fill="#ff0066" opacity="0.0347586534858585" rx="1"/><rect x="58.10994253915501" y="1022.7067007410122" width="35.89449304526078" height="2" fill="#ff0066" opacity="0.05527911343501861" rx="1"/><rect x="237.91684990700261" y="1029.946382453187" width="43.08544235375837" height="2" fill="#ff0066" opacity="0.042702651140909334" rx="1"/><rect x="1846.2589059598415" y="1031.8829227359693" width="71.89368914624063" height="2" fill="#ff0066" opacity="0.054720421283207935" rx="1"/><rect x="1133.1164125756166" y="1011.9689456773849" width="43.37477603540168" height="2" fill="#ff0066" opacity="0.055069050964682606" rx="1"/><rect x="83.33450855764897" y="1025.6650043105858" width="72.76979162655067" height="2" fill="#ff0066" opacity="0.03435359770766311" rx="1"/><rect x="1725.014619334837" y="1044.4696806148788" width="28.29057516723186" height="2" fill="#ff0066" opacity="0.02554794435518513" rx="1"/><rect x="796.9160911806198" y="1050.1356476149838" width="29.277791438921774" height="2" fill="#ff0066" opacity="0.029729719946563645" rx="1"/><rect x="1822.5869621109653" y="1032.5229896587607" width="90.18113496484727" height="2" fill="#ff0066" opacity="0.053248200647823554" rx="1"/><rect x="364.091762687101" y="1031.776544664003" width="99.7366110095141" height="2" fill="#ff0066" opacity="0.04218208272526555" rx="1"/><rect x="923.8990998929131" y="1048.1666642399894" width="68.9642423924441" height="2" fill="#ff0066" opacity="0.0520955917127653" rx="1"/><rect x="1882.7879489871646" y="1054.984284563685" width="72.71598618773649" height="2" fill="#ff0066" opacity="0.028788192702640825" rx="1"/><rect x="1759.0621724350058" y="1036.4456951982447" width="83.7374579356372" height="2" fill="#ff0066" opacity="0.02076232739741968" rx="1"/><rect x="310.88464833583794" y="1003.0945371983328" width="66.48315048461853" height="2" fill="#ff0066" opacity="0.04703568424727667" rx="1"/><rect x="1683.2018994733694" y="1026.3939865320906" width="94.80049544824298" height="2" fill="#ff0066" opacity="0.0537570289880403" rx="1"/><rect x="1496.1989382412748" y="1050.4763700232088" width="73.81116537698804" height="2" fill="#ff0066" opacity="0.0437061101439656" rx="1"/><rect x="678.694109627673" y="1031.938284885124" width="93.49338838213436" height="2" fill="#ff0066" opacity="0.05238580619739039" rx="1"/><rect x="1641.1605981833209" y="1054.8054646502262" width="111.3077893646685" height="2" fill="#ff0066" opacity="0.03390556389789692" rx="1"/><rect x="711.7022244799189" y="1059.058638680507" width="29.447863839903818" height="2" fill="#ff0066" opacity="0.056125574315927365" rx="1"/><rect x="548.3577509011044" y="1015.894284671148" width="30.15109888048635" height="2" fill="#ff0066" opacity="0.02793315953759783" rx="1"/><rect x="1510.917050147177" y="1046.1018224307572" width="103.90441538856933" height="2" fill="#ff0066" opacity="0.055814770906189165" rx="1"/><rect x="1551.0963981484754" y="1038.197013260377" width="80.33171698458766" height="2" fill="#ff0066" opacity="0.052683375839303104" rx="1"/><rect x="1082.9198605853412" y="1021.3483427700932" width="112.03665368073543" height="2" fill="#ff0066" opacity="0.043660394592131585" rx="1"/><rect x="93.2230420627685" y="1007.0185591995294" width="44.66906153705648" height="2" fill="#ff0066" opacity="0.03605704764278071" rx="1"/><rect x="194.69935883644487" y="1007.7374776470795" width="56.859639719328754" height="2" fill="#ff0066" opacity="0.05770922079629014" rx="1"/><text x="1900" y="1060" font-family="Arial, sans-serif" font-size="11" fill="#fff" opacity="0.08" text-anchor="end" letter-spacing="2">GTA 6 REWARDS · WALLPAPER 021</text>
</svg>