<?xml version="1.0" encoding="UTF-8"?>
<svg xmlns="http://www.w3.org/2000/svg" width="1920" height="1080" viewBox="0 0 1920 1080">
<defs>
    <linearGradient id="bg55" x1="0%" y1="0%" x2="0%" y2="100%">
      <stop offset="0%" stop-color="#2d1b1b"/>
      <stop offset="50%" stop-color="#000000"/>
      <stop offset="100%" stop-color="#2d1b1b"/>
    </linearGradient>
    <linearGradient id="sun55" x1="0%" y1="0%" x2="100%" y2="100%">
      <stop offset="0%" stop-color="#ff6b6b"/>
      <stop offset="100%" stop-color="#c0392b"/>
    </linearGradient>
    <radialGradient id="glow55" cx="50%" cy="70%" r="50%">
      <stop offset="0%" stop-color="#ff6b6b" stop-opacity="0.3"/>
      <stop offset="100%" stop-color="#2d1b1b" stop-opacity="0"/>
    </radialGradient>
  </defs><rect width="1920" height="1080" fill="url(#bg55)"/><circle cx="1348.3358775843717" cy="482.9290090787525" r="824.715834535825" fill="#ff6b6b" opacity="0.05622480041492377"/><circle cx="1548.3358775843717" cy="382.9290090787525" r="444.2112199599415" fill="#c0392b" opacity="0.0902547513228503"/><circle cx="911.5148773909349" cy="174.7787933155845" r="73.32759213944142" fill="url(#sun55)" opacity="0.7778125343559804"/><circle cx="911.5148773909349" cy="174.7787933155845" r="68.32759213944142" fill="#2d1b1b" opacity="0.3"/><circle cx="88.57289986884523" cy="278.3204660989159" r="1.164446073389716" fill="#fff" opacity="0.37816482581621147"/><circle cx="151.65026712968253" cy="70.98195538087327" r="0.706815056900218" fill="#fff" opacity="0.40020666518253434"/><circle cx="1634.5349875917973" cy="36.930031542882794" r="1.7561153997099297" fill="#fff" opacity="0.45121335029863135"/><circle cx="1316.9340923514528" cy="102.15495900580542" r="0.6668642370884457" fill="#fff" opacity="0.3133506566084341"/><circle cx="46.54282004724788" cy="314.7028629134183" r="1.4658912856750868" fill="#fff" opacity="0.44796931013650476"/><circle cx="59.33915020416937" cy="145.42845292422652" r="1.9075139302079365" fill="#fff" opacity="0.6007601886058134"/><circle cx="387.35044831115533" cy="310.8068260082059" r="1.383698437801492" fill="#fff" opacity="0.43012455874824074"/><circle cx="1913.117509333677" cy="196.90637629220876" r="1.4394961948132832" fill="#fff" opacity="0.7342352265804621"/><circle cx="921.4771469592763" cy="124.42048147237405" r="1.6366759348047608" fill="#fff" opacity="0.31443527627606765"/><circle cx="1846.8375129827386" cy="319.9092666804579" r="0.8723085598024327" fill="#fff" opacity="0.3903397296067187"/><circle cx="787.1572518691321" cy="171.62300447272673" r="1.9813648838273634" fill="#fff" opacity="0.4715370766519422"/><circle cx="725.2336766024198" cy="34.874705333932" r="0.5960931558152878" fill="#fff" opacity="0.5887383394848411"/><circle cx="1305.0258719979379" cy="197.16456529618347" r="1.0600134963309422" fill="#fff" opacity="0.2827282059664671"/><circle cx="703.9843186885082" cy="24.787611281682647" r="1.251213268435377" fill="#fff" opacity="0.6890296989793493"/><circle cx="350.64137273250185" cy="354.19977803952054" r="1.5278771559307065" fill="#fff" opacity="0.5636605522976398"/><circle cx="115.5622172624716" cy="184.50826671172592" r="1.5099629340716552" fill="#fff" opacity="0.6533517894924972"/><circle cx="1589.0680288497983" cy="78.61533984882182" r="0.8738749063047289" fill="#fff" opacity="0.3620173472357023"/><circle cx="837.3340954345963" cy="151.9785483572582" r="1.728943584074486" fill="#fff" opacity="0.7525829641038047"/><circle cx="340.3330779868022" cy="385.68976686934235" r="1.8599986352166158" fill="#fff" opacity="0.33649479265708826"/><circle cx="1398.3506699181978" cy="15.678865875974035" r="1.0097660340857146" fill="#fff" opacity="0.6499513892573191"/><circle cx="1436.500127053936" cy="280.4927532506391" r="1.768431900597278" fill="#fff" opacity="0.26175324080087087"/><circle cx="452.5465760688639" cy="239.3491633905445" r="1.6230855864992098" fill="#fff" opacity="0.553579963127519"/><circle cx="1437.2269797691206" cy="342.7429905512237" r="1.4775048574613185" fill="#fff" opacity="0.22760245358282757"/><circle cx="65.38672553035121" cy="261.61525324490276" r="1.022919470798904" fill="#fff" opacity="0.6781436564117074"/><circle cx="1672.243848087323" cy="230.24455475580052" r="0.6201791224582538" fill="#fff" opacity="0.34463515005648027"/><circle cx="70.76909245708238" cy="46.84083656939698" r="0.5357076838928525" fill="#fff" opacity="0.5960396935222763"/><circle cx="1624.3946925607497" cy="6.282163874777537" r="0.7373149078891881" fill="#fff" opacity="0.7915401729269744"/><circle cx="1469.636096551464" cy="169.77245627198658" r="0.7440498826895026" fill="#fff" opacity="0.7070579112291004"/><circle cx="1452.6191240950998" cy="420.6835912514207" r="1.1200439530937105" fill="#fff" opacity="0.3574343275179701"/><circle cx="1262.451223726955" cy="60.746761749672416" r="1.375962569116606" fill="#fff" opacity="0.5251598664850834"/><circle cx="1878.2988729975882" cy="412.9257015243465" r="1.4299293255735954" fill="#fff" opacity="0.6308448148497485"/><circle cx="622.7428799827451" cy="147.90037142203664" r="0.8860606522965386" fill="#fff" opacity="0.7659264792608858"/><circle cx="909.4740273685832" cy="69.30088634539882" r="1.8596056182541898" fill="#fff" opacity="0.6683054521838914"/><circle cx="261.76732203498653" cy="103.03108119010717" r="1.0240743605010385" fill="#fff" opacity="0.21668436937422594"/><circle cx="832.9591599556056" cy="134.02933440497827" r="1.103622645629482" fill="#fff" opacity="0.7493642275103749"/><circle cx="590.884999174365" cy="99.97372863161696" r="1.611910444128306" fill="#fff" opacity="0.426893223316151"/><circle cx="1707.9416213435916" cy="366.6686933112025" r="1.8211576785708679" fill="#fff" opacity="0.7708921987961261"/><circle cx="147.02800247516203" cy="362.26902174071154" r="1.4030824871508132" fill="#fff" opacity="0.23884499232257833"/><circle cx="806.3689141362834" cy="175.1073698026844" r="1.6097652552672115" fill="#fff" opacity="0.3279024391732883"/><circle cx="1060.0010005617517" cy="157.41629285305189" r="1.0360375652173621" fill="#fff" opacity="0.43943268010379577"/><circle cx="1812.4557387578432" cy="383.7656752131334" r="1.0922995190118205" fill="#fff" opacity="0.7756690039242777"/><circle cx="1023.8612122237358" cy="365.27516737516856" r="1.5041679408178126" fill="#fff" opacity="0.7680517623592289"/><circle cx="788.8381131339906" cy="37.34584471707834" r="1.2566840667875214" fill="#fff" opacity="0.49129449773842804"/><circle cx="769.7324298624258" cy="207.1099348103418" r="1.0472208317479166" fill="#fff" opacity="0.26143004467278486"/><circle cx="1601.420427486631" cy="23.87614308108486" r="1.0198354183276732" fill="#fff" opacity="0.5430582313200129"/><circle cx="295.87297938202346" cy="36.65711761374425" r="1.7624462316190932" fill="#fff" opacity="0.42398140756971703"/><circle cx="1014.9706929305036" cy="48.27210601425546" r="0.6544728791700846" fill="#fff" opacity="0.369501383176423"/><circle cx="299.4475664895604" cy="129.71711679588003" r="1.6721059810770922" fill="#fff" opacity="0.21188399209917616"/><circle cx="299.4556828540414" cy="84.7462680723393" r="1.0711612441975533" fill="#fff" opacity="0.6406639938337412"/><circle cx="1402.931509642613" cy="168.64728564970366" r="1.9748347197833551" fill="#fff" opacity="0.24663582254355676"/><rect x="28.7107700432443" y="736.755106071186" width="42.84244547431414" height="143.01974064275151" fill="#2d1b1b" opacity="0.5693185098863482" rx="2"/><rect x="47.54586367647766" y="746.755106071186" width="5.172258207847424" height="8.85767639681177" fill="#c0392b" opacity="0.5771371474436338" rx="1"/><rect x="36.835252307899125" y="751.1839442695918" width="5.172258207847424" height="8.85767639681177" fill="#ff6b6b" opacity="0.2885685737218169" rx="1"/><rect x="47.16223813643731" y="770.5917295116445" width="5.939509287928117" height="8.124485450360105" fill="#c0392b" opacity="0.32694457944644256" rx="1"/><rect x="36.45162676785878" y="774.6539722368245" width="5.939509287928117" height="8.124485450360105" fill="#ff6b6b" opacity="0.16347228972322128" rx="1"/><rect x="45.78066327999827" y="794.4283529521032" width="8.702659000806198" height="7.413883149953066" fill="#c0392b" opacity="0.1185872004410688" rx="1"/><rect x="35.07005191141974" y="798.1352945270797" width="8.702659000806198" height="7.413883149953066" fill="#ff6b6b" opacity="0.0592936002205344" rx="1"/><rect x="45.74613870977101" y="818.2649763925617" width="8.771708141260714" height="8.00159104494415" fill="#c0392b" opacity="0.11893338817612581" rx="1"/><rect x="35.03552734119248" y="822.2657719150338" width="8.771708141260714" height="8.00159104494415" fill="#ff6b6b" opacity="0.059466694088062905" rx="1"/><rect x="44.54435390782178" y="842.1015998330204" width="11.175277745159175" height="7.768020268941303" fill="#c0392b" opacity="0.21578809076822086" rx="1"/><rect x="33.83374253924325" y="845.985609967491" width="11.175277745159175" height="7.768020268941303" fill="#ff6b6b" opacity="0.10789404538411043" rx="1"/><rect x="45.51125048764777" y="865.9382232734789" width="9.241484585507187" height="9.3259257393251" fill="#c0392b" opacity="0.3904347137758589" rx="1"/><rect x="34.800639119069245" y="870.6011861431415" width="9.241484585507187" height="9.3259257393251" fill="#ff6b6b" opacity="0.19521735688792946" rx="1"/><rect x="109.2039853212109" y="520.5238491111724" width="36.97587303048369" height="359.2509976027652" fill="#130101" opacity="0.5079851605249535" rx="2"/><rect x="125.11263515669235" y="530.5238491111724" width="5.158573359520774" height="6.828842593549947" fill="#c0392b" opacity="0.45767019816154386" rx="1"/><rect x="115.86866689907143" y="533.9382704079474" width="5.158573359520774" height="6.828842593549947" fill="#ff6b6b" opacity="0.22883509908077193" rx="1"/><rect x="123.12416528546834" y="575.430223811518" width="9.135513101968801" height="8.213088525043123" fill="#c0392b" opacity="0.4385442837231197" rx="1"/><rect x="113.88019702784742" y="579.5367680740395" width="9.135513101968801" height="8.213088525043123" fill="#ff6b6b" opacity="0.21927214186155985" rx="1"/><rect x="122.39473746708957" y="620.3365985118637" width="10.594368738726333" height="8.25296660285745" fill="#c0392b" opacity="0.32247081208565986" rx="1"/><rect x="113.15076920946865" y="624.4630818132924" width="10.594368738726333" height="8.25296660285745" fill="#ff6b6b" opacity="0.16123540604282993" rx="1"/><rect x="121.82735623677452" y="665.2429732122093" width="11.72913119935643" height="8.776209455629859" fill="#c0392b" opacity="0.517965344716321" rx="1"/><rect x="112.5833879791536" y="669.6310779400243" width="11.72913119935643" height="8.776209455629859" fill="#ff6b6b" opacity="0.2589826723581605" rx="1"/><rect x="124.51522287488358" y="710.149347912555" width="6.353397923138318" height="7.607101019846066" fill="#c0392b" opacity="0.18445759876269324" rx="1"/><rect x="115.27125461726266" y="713.952898422478" width="6.353397923138318" height="7.607101019846066" fill="#ff6b6b" opacity="0.09222879938134662" rx="1"/><rect x="125.538813469652" y="755.0557226129006" width="4.3062167336014605" height="6.334747272621549" fill="#c0392b" opacity="0.553207408765612" rx="1"/><rect x="116.29484521203108" y="758.2230962492114" width="4.3062167336014605" height="6.334747272621549" fill="#ff6b6b" opacity="0.276603704382806" rx="1"/><rect x="124.4551234472813" y="799.9620973132462" width="6.473596778342872" height="9.996652802451665" fill="#c0392b" opacity="0.3028659387032655" rx="1"/><rect x="115.21115518966037" y="804.9604237144721" width="6.473596778342872" height="9.996652802451665" fill="#ff6b6b" opacity="0.15143296935163275" rx="1"/><rect x="123.46026209944884" y="844.8684720135919" width="8.463319474007776" height="7.848577624617279" fill="#c0392b" opacity="0.21678437833133724" rx="1"/><rect x="114.21629384182793" y="848.7927608259006" width="8.463319474007776" height="7.848577624617279" fill="#ff6b6b" opacity="0.10839218916566862" rx="1"/><rect x="181.6548334034571" y="548.8998327750945" width="46.25992093148174" height="330.87501393884304" fill="#2d1b1b" opacity="0.6941827584510163" rx="2"/><rect x="200.88614091472886" y="558.8998327750945" width="7.797305908938243" height="7.8681824062644" fill="#c0392b" opacity="0.23561771056512784" rx="1"/><rect x="189.3211606818584" y="562.8339239782267" width="7.797305908938243" height="7.8681824062644" fill="#ff6b6b" opacity="0.11780885528256392" rx="1"/><rect x="202.0984501702758" y="625.0748355628631" width="5.372687397844318" height="9.454301065638266" fill="#c0392b" opacity="0.1348592936142486" rx="1"/><rect x="190.53346993740536" y="629.8019860956822" width="5.372687397844318" height="9.454301065638266" fill="#ff6b6b" opacity="0.0674296468071243" rx="1"/><rect x="202.37832133329943" y="691.2498383506318" width="4.812945071797107" height="8.888925829643599" fill="#c0392b" opacity="0.2137763016423621" rx="1"/><rect x="190.81334110042897" y="695.6943012654535" width="4.812945071797107" height="8.888925829643599" fill="#ff6b6b" opacity="0.10688815082118105" rx="1"/><rect x="202.17793918254316" y="757.4248411384003" width="5.213709373309675" height="8.500872443081082" fill="#c0392b" opacity="0.43712836502518704" rx="1"/><rect x="190.6129589496727" y="761.6752773599409" width="5.213709373309675" height="8.500872443081082" fill="#ff6b6b" opacity="0.21856418251259352" rx="1"/><rect x="201.01813712263015" y="823.5998439261689" width="7.533313493135691" height="9.83177566710668" fill="#c0392b" opacity="0.5167518175478912" rx="1"/><rect x="189.4531568897597" y="828.5157317597223" width="7.533313493135691" height="9.83177566710668" fill="#ff6b6b" opacity="0.2583759087739456" rx="1"/><rect x="264.8993826447246" y="715.73220745561" width="44.43720010445388" height="164.04263925832757" fill="#2d1b1b" opacity="0.5058287667356964" rx="2"/><rect x="284.0998280048097" y="725.73220745561" width="6.0363093842836815" height="6.860252677663288" fill="#c0392b" opacity="0.5586178958319635" rx="1"/><rect x="272.99052797869626" y="729.1623337944417" width="6.0363093842836815" height="6.860252677663288" fill="#ff6b6b" opacity="0.27930894791598176" rx="1"/><rect x="281.8502436656581" y="758.5407353072756" width="10.535478062586737" height="6.225846068054867" fill="#c0392b" opacity="0.34930870492228044" rx="1"/><rect x="270.7409436395447" y="761.653658341303" width="10.535478062586737" height="6.225846068054867" fill="#ff6b6b" opacity="0.17465435246114022" rx="1"/><rect x="283.12111141041476" y="791.3492631589411" width="7.99374257307354" height="9.087199134539626" fill="#c0392b" opacity="0.5871883953426006" rx="1"/><rect x="272.0118113843013" y="795.8928627262109" width="7.99374257307354" height="9.087199134539626" fill="#ff6b6b" opacity="0.2935941976713003" rx="1"/><rect x="285.0301986189589" y="824.1577910106066" width="4.175568155985225" height="8.227491681982645" fill="#c0392b" opacity="0.10855473836617423" rx="1"/><rect x="273.92089859284545" y="828.271536851598" width="4.175568155985225" height="8.227491681982645" fill="#ff6b6b" opacity="0.054277369183087114" rx="1"/><rect x="284.40003002625485" y="856.9663188622721" width="5.435905341393292" height="8.555327444000945" fill="#c0392b" opacity="0.10425895059114763" rx="1"/><rect x="273.2907300001414" y="861.2439825842727" width="5.435905341393292" height="8.555327444000945" fill="#ff6b6b" opacity="0.05212947529557382" rx="1"/><rect x="343.63982699035745" y="513.6335645601232" width="84.16147133665194" height="366.1412821538144" fill="#2d1b1b" opacity="0.6764785652925444" rx="2"/><rect x="383.5224314568485" y="523.6335645601232" width="4.396262403669828" height="9.26929997542624" fill="#c0392b" opacity="0.13580357624120162" rx="1"/><rect x="362.4820636226855" y="528.2682145478364" width="4.396262403669828" height="9.26929997542624" fill="#ff6b6b" opacity="0.06790178812060081" rx="1"/><rect x="383.4985067261248" y="569.40122482935" width="4.44411186511724" height="8.00023082783451" fill="#c0392b" opacity="0.3417642532945062" rx="1"/><rect x="362.45813889196177" y="573.4013402432672" width="4.44411186511724" height="8.00023082783451" fill="#ff6b6b" opacity="0.1708821266472531" rx="1"/><rect x="381.4247686181842" y="615.1688850985768" width="8.591588080998413" height="6.9572416210913195" fill="#c0392b" opacity="0.5405966324127737" rx="1"/><rect x="360.3844007840212" y="618.6475059091224" width="8.591588080998413" height="6.9572416210913195" fill="#ff6b6b" opacity="0.27029831620638683" rx="1"/><rect x="381.3061690803966" y="660.9365453678035" width="8.82878715657368" height="8.652996105759637" fill="#c0392b" opacity="0.48194473888304656" rx="1"/><rect x="360.2658012462336" y="665.2630434206834" width="8.82878715657368" height="8.652996105759637" fill="#ff6b6b" opacity="0.24097236944152328" rx="1"/><rect x="382.48065472033903" y="706.7042056370304" width="6.4798158766887655" height="8.444463244277161" fill="#c0392b" opacity="0.5083619864909821" rx="1"/><rect x="361.440286886176" y="710.926437259169" width="6.4798158766887655" height="8.444463244277161" fill="#ff6b6b" opacity="0.25418099324549104" rx="1"/><rect x="382.2460326916281" y="752.4718659062572" width="6.949059934110627" height="7.451942958275774" fill="#c0392b" opacity="0.27835954382977435" rx="1"/><rect x="361.2056648574651" y="756.1978373853951" width="6.949059934110627" height="7.451942958275774" fill="#ff6b6b" opacity="0.13917977191488717" rx="1"/><rect x="381.8368908595015" y="798.239526175484" width="7.767343598363768" height="9.236836196677022" fill="#c0392b" opacity="0.11338216429887857" rx="1"/><rect x="360.7965230253385" y="802.8579442738226" width="7.767343598363768" height="9.236836196677022" fill="#ff6b6b" opacity="0.056691082149439284" rx="1"/><rect x="380.8265231789253" y="844.0071864447109" width="9.788078959516268" height="9.853241636383636" fill="#c0392b" opacity="0.2594278597411299" rx="1"/><rect x="359.7861553447623" y="848.9338072629027" width="9.788078959516268" height="9.853241636383636" fill="#ff6b6b" opacity="0.12971392987056496" rx="1"/><rect x="417.6065617354845" y="570.9283954861872" width="54.28018619406041" height="308.8464512277503" fill="#130101" opacity="0.5884434032227014" rx="2"/><rect x="441.95083781756813" y="580.9283954861872" width="5.591634029893119" height="9.584231231264823" fill="#c0392b" opacity="0.23285332129636158" rx="1"/><rect x="428.380791269053" y="585.7205111018196" width="5.591634029893119" height="9.584231231264823" fill="#ff6b6b" opacity="0.11642666064818079" rx="1"/><rect x="441.4236099165231" y="625.0493170901516" width="6.646089831983225" height="6.99472690955613" fill="#c0392b" opacity="0.1496078159309942" rx="1"/><rect x="427.853563368008" y="628.5466805449297" width="6.646089831983225" height="6.99472690955613" fill="#ff6b6b" opacity="0.0748039079654971" rx="1"/><rect x="439.77331333609243" y="669.1702386941159" width="9.946682992844536" height="7.074539985757912" fill="#c0392b" opacity="0.4546965700468739" rx="1"/><rect x="426.2032667875773" y="672.7075086869949" width="9.946682992844536" height="7.074539985757912" fill="#ff6b6b" opacity="0.22734828502343696" rx="1"/><rect x="440.84584514171587" y="713.2911602980803" width="7.801619381597643" height="6.338395875026098" fill="#c0392b" opacity="0.10285202986627166" rx="1"/><rect x="427.27579859320076" y="716.4603582355934" width="7.801619381597643" height="6.338395875026098" fill="#ff6b6b" opacity="0.05142601493313583" rx="1"/><rect x="442.23623590509885" y="757.4120819020445" width="5.020837854831674" height="6.19629825283687" fill="#c0392b" opacity="0.1347913960075917" rx="1"/><rect x="428.66618935658374" y="760.510231028463" width="5.020837854831674" height="6.19629825283687" fill="#ff6b6b" opacity="0.06739569800379586" rx="1"/><rect x="439.04610021117855" y="801.533003506009" width="11.401109242672359" height="9.64431855633024" fill="#c0392b" opacity="0.5951334631757655" rx="1"/><rect x="425.47605366266345" y="806.3551627841741" width="11.401109242672359" height="9.64431855633024" fill="#ff6b6b" opacity="0.29756673158788277" rx="1"/><rect x="442.39806549593396" y="845.6539251099732" width="4.697178673161468" height="7.38855156427914" fill="#c0392b" opacity="0.5889548908660549" rx="1"/><rect x="428.82801894741885" y="849.3482008921128" width="4.697178673161468" height="7.38855156427914" fill="#ff6b6b" opacity="0.29447744543302745" rx="1"/><rect x="515.0914060381839" y="581.5574956316402" width="77.83794297087888" height="298.21735108229734" fill="#130101" opacity="0.4337162432339313" rx="2"/><rect x="548.0941728392289" y="591.5574956316402" width="11.83240936878892" height="6.511470359869178" fill="#c0392b" opacity="0.2350921057479205" rx="1"/><rect x="528.6346870965092" y="594.8132308115748" width="11.83240936878892" height="6.511470359869178" fill="#ff6b6b" opacity="0.11754605287396025" rx="1"/><rect x="550.0940140519895" y="641.2603874786898" width="7.832726943267678" height="8.130938869465826" fill="#c0392b" opacity="0.373945026629126" rx="1"/><rect x="530.6345283092697" y="645.3258569134227" width="7.832726943267678" height="8.130938869465826" fill="#ff6b6b" opacity="0.186972513314563" rx="1"/><rect x="548.7946213393844" y="690.9632793257393" width="10.431512368477767" height="7.50104340759596" fill="#c0392b" opacity="0.211423834835045" rx="1"/><rect x="529.3351355966647" y="694.7138010295373" width="10.431512368477767" height="7.50104340759596" fill="#ff6b6b" opacity="0.1057119174175225" rx="1"/><rect x="549.7618413004855" y="740.6661711727888" width="8.497072446275752" height="6.7534237030785125" fill="#c0392b" opacity="0.3149860511335978" rx="1"/><rect x="530.3023555577657" y="744.0428830243281" width="8.497072446275752" height="6.7534237030785125" fill="#ff6b6b" opacity="0.1574930255667989" rx="1"/><rect x="551.5819226941437" y="790.3690630198384" width="4.8569096589593475" height="6.742703866386484" fill="#c0392b" opacity="0.35163323100461463" rx="1"/><rect x="532.122436951424" y="793.7404149530317" width="4.8569096589593475" height="6.742703866386484" fill="#ff6b6b" opacity="0.17581661550230732" rx="1"/><rect x="548.7920536113338" y="840.0719548668881" width="10.436647824579069" height="6.6673633616108825" fill="#c0392b" opacity="0.5358977096704528" rx="1"/><rect x="529.3325678686141" y="843.4056365476935" width="10.436647824579069" height="6.6673633616108825" fill="#ff6b6b" opacity="0.2679488548352264" rx="1"/><rect x="614.1676178579204" y="763.4486953642798" width="63.00507219345427" height="116.32615134965772" fill="#2d1b1b" opacity="0.43053060740477656" rx="2"/><rect x="640.0618976016733" y="773.4486953642798" width="11.216512705948324" height="8.777875448292559" fill="#c0392b" opacity="0.20219598796735425" rx="1"/><rect x="624.3106295533098" y="777.8376330884262" width="11.216512705948324" height="8.777875448292559" fill="#ff6b6b" opacity="0.10109799398367712" rx="1"/><rect x="640.1517640973855" y="792.8363872558895" width="11.036779714523997" height="6.765632968574211" fill="#c0392b" opacity="0.47063316776664765" rx="1"/><rect x="624.400496049022" y="796.2192037401766" width="11.036779714523997" height="6.765632968574211" fill="#ff6b6b" opacity="0.23531658388332383" rx="1"/><rect x="639.9178761883508" y="812.2240791474991" width="11.50455553259341" height="6.910357332069045" fill="#c0392b" opacity="0.5823516249848417" rx="1"/><rect x="624.1666081399873" y="815.6792578135336" width="11.50455553259341" height="6.910357332069045" fill="#ff6b6b" opacity="0.29117581249242086" rx="1"/><rect x="642.1295793943469" y="831.6117710391087" width="7.081149120601162" height="8.57440585702993" fill="#c0392b" opacity="0.4027678859193735" rx="1"/><rect x="626.3783113459834" y="835.8989739676236" width="7.081149120601162" height="8.57440585702993" fill="#ff6b6b" opacity="0.20138394295968676" rx="1"/><rect x="642.5628281518325" y="850.9994629307183" width="6.21465160562998" height="9.232524243004743" fill="#c0392b" opacity="0.38402021033317324" rx="1"/><rect x="626.811560103469" y="855.6157250522207" width="6.21465160562998" height="9.232524243004743" fill="#ff6b6b" opacity="0.19201010516658662" rx="1"/><rect x="640.5429195778837" y="870.387154822328" width="10.254468753527494" height="8.728213106917266" fill="#c0392b" opacity="0.19369663861433434" rx="1"/><rect x="624.7916515295202" y="874.7512613757866" width="10.254468753527494" height="8.728213106917266" fill="#ff6b6b" opacity="0.09684831930716717" rx="1"/><rect x="681.8652927358523" y="605.1373216102685" width="64.83083479917394" height="274.6375251036691" fill="#130101" opacity="0.5693757781920433" rx="2"/><rect x="710.2778209767688" y="615.1373216102685" width="8.005778317341065" height="6.108106549854415" fill="#c0392b" opacity="0.5546655862253778" rx="1"/><rect x="694.0701122769752" y="618.1913748851957" width="8.005778317341065" height="6.108106549854415" fill="#ff6b6b" opacity="0.2773327931126889" rx="1"/><rect x="711.7650523285503" y="660.91024246088" width="5.0313156137781485" height="9.081233529160087" fill="#c0392b" opacity="0.1764649697990308" rx="1"/><rect x="695.5573436287567" y="665.45085922546" width="5.0313156137781485" height="9.081233529160087" fill="#ff6b6b" opacity="0.0882324848995154" rx="1"/><rect x="711.8982878166682" y="706.6831633114915" width="4.764844637542228" height="6.980460011628564" fill="#c0392b" opacity="0.3838322685062495" rx="1"/><rect x="695.6905791168747" y="710.1733933173058" width="4.764844637542228" height="6.980460011628564" fill="#ff6b6b" opacity="0.19191613425312476" rx="1"/><rect x="712.2600592615426" y="752.456084162103" width="4.041301747793635" height="9.906572694868448" fill="#c0392b" opacity="0.10226808816713004" rx="1"/><rect x="696.052350561749" y="757.4093705095372" width="4.041301747793635" height="9.906572694868448" fill="#ff6b6b" opacity="0.05113404408356502" rx="1"/><rect x="709.4158855836147" y="798.2290050127145" width="9.729649103649344" height="9.115392241421015" fill="#c0392b" opacity="0.2908063680610634" rx="1"/><rect x="693.2081768838211" y="802.786701133425" width="9.729649103649344" height="9.115392241421015" fill="#ff6b6b" opacity="0.1454031840305317" rx="1"/><rect x="712.0144775572935" y="844.001925863326" width="4.532465156291719" height="7.914905467516488" fill="#c0392b" opacity="0.5252032917982906" rx="1"/><rect x="695.8067688575" y="847.9593785970843" width="4.532465156291719" height="7.914905467516488" fill="#ff6b6b" opacity="0.2626016458991453" rx="1"/><rect x="764.498164315905" y="621.8447976563696" width="88.54641916662138" height="257.930049057568" fill="#2d1b1b" opacity="0.682353362716351" rx="2"/><rect x="805.4157095301812" y="631.8447976563696" width="6.711328738069005" height="8.682065979270746" fill="#c0392b" opacity="0.2909071514827449" rx="1"/><rect x="783.2791047385259" y="636.1858306460049" width="6.711328738069005" height="8.682065979270746" fill="#ff6b6b" opacity="0.14545357574137244" rx="1"/><rect x="806.078448846337" y="683.4308074678831" width="5.385850105757324" height="8.132968710300737" fill="#c0392b" opacity="0.39967133102465224" rx="1"/><rect x="783.9418440546817" y="687.4972918230335" width="5.385850105757324" height="8.132968710300737" fill="#ff6b6b" opacity="0.19983566551232612" rx="1"/><rect x="804.9168262044584" y="735.0168172793967" width="7.709095389514485" height="9.979785630474748" fill="#c0392b" opacity="0.30742129783784533" rx="1"/><rect x="782.7802214128031" y="740.0067100946341" width="7.709095389514485" height="9.979785630474748" fill="#ff6b6b" opacity="0.15371064891892267" rx="1"/><rect x="803.3733336745578" y="786.6028270909103" width="10.796080449315738" height="8.523878183803493" fill="#c0392b" opacity="0.13817131115081052" rx="1"/><rect x="781.2367288829025" y="790.864766182812" width="10.796080449315738" height="8.523878183803493" fill="#ff6b6b" opacity="0.06908565557540526" rx="1"/><rect x="804.2672891299276" y="838.188836902424" width="9.008169538576196" height="9.422734111413064" fill="#c0392b" opacity="0.37097996155987023" rx="1"/><rect x="782.1306843382723" y="842.9002039581305" width="9.008169538576196" height="9.422734111413064" fill="#ff6b6b" opacity="0.18548998077993512" rx="1"/><rect x="859.8442405258428" y="709.5142759404878" width="34.26612319058415" height="170.26057077344984" fill="#130101" opacity="0.49983722106549827" rx="2"/><rect x="873.2514200291736" y="719.5142759404878" width="7.4517641839226165" height="9.806868039026593" fill="#c0392b" opacity="0.3657072536567476" rx="1"/><rect x="864.6848892315274" y="724.417709960001" width="7.4517641839226165" height="9.806868039026593" fill="#ff6b6b" opacity="0.1828536268283738" rx="1"/><rect x="872.0496288625659" y="762.0794186338502" width="9.855346517138031" height="7.394873128597363" fill="#c0392b" opacity="0.3860462971232008" rx="1"/><rect x="863.4830980649198" y="765.7768551981488" width="9.855346517138031" height="7.394873128597363" fill="#ff6b6b" opacity="0.1930231485616004" rx="1"/><rect x="873.8938776393194" y="804.6445613272127" width="6.166848963631049" height="6.538723936429881" fill="#c0392b" opacity="0.27836203930861364" rx="1"/><rect x="865.3273468416733" y="807.9139232954277" width="6.166848963631049" height="6.538723936429881" fill="#ff6b6b" opacity="0.13918101965430682" rx="1"/><rect x="872.4684667675936" y="847.2097040205751" width="9.017670707082765" height="7.0308662860260505" fill="#c0392b" opacity="0.23803724260955053" rx="1"/><rect x="863.9019359699474" y="850.7251371635882" width="9.017670707082765" height="7.0308662860260505" fill="#ff6b6b" opacity="0.11901862130477527" rx="1"/><rect x="930.5473179489879" y="707.1161169808163" width="31.99753442825692" height="172.65872973312128" fill="#2d1b1b" opacity="0.566680170215359" rx="2"/><rect x="944.162270589739" y="717.1161169808163" width="4.767629146754655" height="6.166313384698311" fill="#c0392b" opacity="0.49025144870166004" rx="1"/><rect x="936.1628869826749" y="720.1992736731654" width="4.767629146754655" height="6.166313384698311" fill="#ff6b6b" opacity="0.24512572435083002" rx="1"/><rect x="941.979938248603" y="745.8925719363365" width="9.1322938290267" height="8.075900550483702" fill="#c0392b" opacity="0.43459460847885223" rx="1"/><rect x="933.9805546415389" y="749.9305222115784" width="9.1322938290267" height="8.075900550483702" fill="#ff6b6b" opacity="0.21729730423942611" rx="1"/><rect x="943.0065298133707" y="774.6690268918567" width="7.079110699491368" height="9.467222411061456" fill="#c0392b" opacity="0.3520793624576366" rx="1"/><rect x="935.0071462063065" y="779.4026380973874" width="7.079110699491368" height="9.467222411061456" fill="#ff6b6b" opacity="0.1760396812288183" rx="1"/><rect x="944.1721861828215" y="803.4454818473769" width="4.747797960589593" height="9.912462530637267" fill="#c0392b" opacity="0.2584276300059696" rx="1"/><rect x="936.1728025757574" y="808.4017131126955" width="4.747797960589593" height="9.912462530637267" fill="#ff6b6b" opacity="0.1292138150029848" rx="1"/><rect x="942.697734667586" y="832.2219368028972" width="7.696700991060748" height="7.029912743025905" fill="#c0392b" opacity="0.38557204310446325" rx="1"/><rect x="934.6983510605219" y="835.7368931744102" width="7.696700991060748" height="7.029912743025905" fill="#ff6b6b" opacity="0.19278602155223162" rx="1"/><rect x="943.3477555688511" y="860.9983917584174" width="6.3966591885305615" height="6.787521545958594" fill="#c0392b" opacity="0.27077861776826406" rx="1"/><rect x="935.3483719617869" y="864.3921525313966" width="6.3966591885305615" height="6.787521545958594" fill="#ff6b6b" opacity="0.13538930888413203" rx="1"/><rect x="1005.088868638086" y="569.2800810256228" width="53.00847845222067" height="310.4947656883147" fill="#130101" opacity="0.5119987163254989" rx="2"/><rect x="1027.9287884184298" y="579.2800810256228" width="7.328638891533165" height="8.904639011925235" fill="#c0392b" opacity="0.3209992338253649" rx="1"/><rect x="1014.6766688053744" y="583.7324005315854" width="7.328638891533165" height="8.904639011925235" fill="#ff6b6b" opacity="0.16049961691268244" rx="1"/><rect x="1027.1854422598417" y="623.6364761239536" width="8.815331208709472" height="6.898223109752458" fill="#c0392b" opacity="0.3865795364572153" rx="1"/><rect x="1013.9333226467863" y="627.0855876788298" width="8.815331208709472" height="6.898223109752458" fill="#ff6b6b" opacity="0.19328976822860766" rx="1"/><rect x="1028.5271686675626" y="667.9928712222842" width="6.131878393267253" height="9.669058139358894" fill="#c0392b" opacity="0.4921618679054458" rx="1"/><rect x="1015.2750490545075" y="672.8274002919636" width="6.131878393267253" height="9.669058139358894" fill="#ff6b6b" opacity="0.2460809339527229" rx="1"/><rect x="1026.0253175683683" y="712.3492663206149" width="11.13558059165617" height="8.1592256450465" fill="#c0392b" opacity="0.20225856900267736" rx="1"/><rect x="1012.773197955313" y="716.4288791431381" width="11.13558059165617" height="8.1592256450465" fill="#ff6b6b" opacity="0.10112928450133868" rx="1"/><rect x="1028.9755256285673" y="756.7056614189455" width="5.235164471258215" height="8.943287093877625" fill="#c0392b" opacity="0.4730192713842306" rx="1"/><rect x="1015.723406015512" y="761.1773049658843" width="5.235164471258215" height="8.943287093877625" fill="#ff6b6b" opacity="0.2365096356921153" rx="1"/><rect x="1027.8217735816613" y="801.0620565172762" width="7.542668565069947" height="8.93336155892661" fill="#c0392b" opacity="0.5327889313997675" rx="1"/><rect x="1014.5696539686061" y="805.5287372967396" width="7.542668565069947" height="8.93336155892661" fill="#ff6b6b" opacity="0.26639446569988373" rx="1"/><rect x="1027.0202227144387" y="845.418451615607" width="9.145770299515167" height="9.823873512405873" fill="#c0392b" opacity="0.5375455565605186" rx="1"/><rect x="1013.7681031013835" y="850.3303883718099" width="9.145770299515167" height="9.823873512405873" fill="#ff6b6b" opacity="0.2687727782802593" rx="1"/><rect x="1102.500272451409" y="615.6711063849906" width="66.00017555896196" height="264.10374032894697" fill="#130101" opacity="0.5624695624370291" rx="2"/><rect x="1130.3383357330993" y="625.6711063849906" width="10.324048995581467" height="9.177707442822332" fill="#c0392b" opacity="0.5024649539269658" rx="1"/><rect x="1113.8382918433588" y="630.2599601064018" width="10.324048995581467" height="9.177707442822332" fill="#ff6b6b" opacity="0.2512324769634829" rx="1"/><rect x="1130.31045738624" y="713.7056864946396" width="10.379805689300365" height="9.119005110841012" fill="#c0392b" opacity="0.21682017709054524" rx="1"/><rect x="1113.8104134964995" y="718.2651890500601" width="10.379805689300365" height="9.119005110841012" fill="#ff6b6b" opacity="0.10841008854527262" rx="1"/><rect x="1131.4961548601016" y="801.7402666042885" width="8.00841074157702" height="8.098065474559103" fill="#c0392b" opacity="0.47049674181512013" rx="1"/><rect x="1114.996110970361" y="805.789299341568" width="8.00841074157702" height="8.098065474559103" fill="#ff6b6b" opacity="0.23524837090756007" rx="1"/><rect x="1194.7893887642867" y="669.5280830304903" width="39.08297506838175" height="210.24676368344734" fill="#130101" opacity="0.4632577602200345" rx="2"/><rect x="1210.1332608896273" y="679.5280830304903" width="8.395230817700558" height="7.380052944966604" fill="#c0392b" opacity="0.5020111236958791" rx="1"/><rect x="1200.362517122532" y="683.2181095029736" width="8.395230817700558" height="7.380052944966604" fill="#ff6b6b" opacity="0.25100556184793954" rx="1"/><rect x="1208.466139097027" y="749.6103375916393" width="11.729474402901129" height="7.980914037204561" fill="#c0392b" opacity="0.20232618232311825" rx="1"/><rect x="1198.6953953299317" y="753.6007946102416" width="11.729474402901129" height="7.980914037204561" fill="#ff6b6b" opacity="0.10116309116155912" rx="1"/><rect x="1209.7384729260555" y="819.6925921527885" width="9.18480674484391" height="7.4305216775812495" fill="#c0392b" opacity="0.4669279466538988" rx="1"/><rect x="1199.96772915896" y="823.4078529915791" width="9.18480674484391" height="7.4305216775812495" fill="#ff6b6b" opacity="0.2334639733269494" rx="1"/><rect x="1277.5855902632463" y="709.5038758845776" width="71.21618674165015" height="170.27097082935995" fill="#2d1b1b" opacity="0.4880579852936925" rx="2"/><rect x="1310.4468669345044" y="719.5038758845776" width="5.493633399133951" height="6.221638477459" fill="#c0392b" opacity="0.43876084253163095" rx="1"/><rect x="1292.6428202490918" y="722.6146951233071" width="5.493633399133951" height="6.221638477459" fill="#ff6b6b" opacity="0.21938042126581547" rx="1"/><rect x="1311.1256200834268" y="740.7877472382476" width="4.136127101289138" height="7.151159889332755" fill="#c0392b" opacity="0.31989704161414345" rx="1"/><rect x="1293.3215733980142" y="744.363327182914" width="4.136127101289138" height="7.151159889332755" fill="#ff6b6b" opacity="0.15994852080707173" rx="1"/><rect x="1307.9496436116433" y="762.0716185919176" width="10.488080044856314" height="6.754378342245328" fill="#c0392b" opacity="0.5523922137339581" rx="1"/><rect x="1290.1455969262306" y="765.4488077630402" width="10.488080044856314" height="6.754378342245328" fill="#ff6b6b" opacity="0.27619610686697904" rx="1"/><rect x="1309.2456387998907" y="783.3554899455876" width="7.8960896683614905" height="7.480557610625531" fill="#c0392b" opacity="0.2861579418615806" rx="1"/><rect x="1291.441592114478" y="787.0957687509003" width="7.8960896683614905" height="7.480557610625531" fill="#ff6b6b" opacity="0.1430789709307903" rx="1"/><rect x="1310.880229018115" y="804.6393612992576" width="4.626909231913022" height="6.513190547123829" fill="#c0392b" opacity="0.45850993214606073" rx="1"/><rect x="1293.0761823327023" y="807.8959565728196" width="4.626909231913022" height="6.513190547123829" fill="#ff6b6b" opacity="0.22925496607303036" rx="1"/><rect x="1311.1902184565793" y="825.9232326529276" width="4.006930354984228" height="9.27389185020558" fill="#c0392b" opacity="0.2011745375816651" rx="1"/><rect x="1293.3861717711666" y="830.5601785780303" width="4.006930354984228" height="9.27389185020558" fill="#ff6b6b" opacity="0.10058726879083255" rx="1"/><rect x="1310.4883359590085" y="847.2071040065975" width="5.410695350126059" height="8.196894636889196" fill="#c0392b" opacity="0.28971880576333936" rx="1"/><rect x="1292.6842892735958" y="851.3055513250422" width="5.410695350126059" height="8.196894636889196" fill="#ff6b6b" opacity="0.14485940288166968" rx="1"/><rect x="1310.6424703312937" y="868.4909753602676" width="5.102426605555793" height="8.960146219227497" fill="#c0392b" opacity="0.19242184462314982" rx="1"/><rect x="1292.838423645881" y="872.9710484698813" width="5.102426605555793" height="8.960146219227497" fill="#ff6b6b" opacity="0.09621092231157491" rx="1"/><rect x="1360.6050906150554" y="529.6657880604421" width="50.70075941754057" height="350.10905865349554" fill="#2d1b1b" opacity="0.5518461288772165" rx="2"/><rect x="1380.550670641876" y="539.6657880604421" width="10.809599363899231" height="8.114224074900669" fill="#c0392b" opacity="0.14661773833134625" rx="1"/><rect x="1367.8754807874907" y="543.7229000978924" width="10.809599363899231" height="8.114224074900669" fill="#ff6b6b" opacity="0.07330886916567313" rx="1"/><rect x="1380.9105819524464" y="589.6813678680843" width="10.089776742758643" height="9.390495976291247" fill="#c0392b" opacity="0.3600738643109971" rx="1"/><rect x="1368.235392098061" y="594.3766158562299" width="10.089776742758643" height="9.390495976291247" fill="#ff6b6b" opacity="0.18003693215549854" rx="1"/><rect x="1382.7909459294672" y="639.6969476757265" width="6.329048788717261" height="6.620911408360328" fill="#c0392b" opacity="0.38586676350931326" rx="1"/><rect x="1370.115756075082" y="643.0074033799067" width="6.329048788717261" height="6.620911408360328" fill="#ff6b6b" opacity="0.19293338175465663" rx="1"/><rect x="1383.3242327097103" y="689.7125274833687" width="5.262475228231045" height="7.022634092956464" fill="#c0392b" opacity="0.41658559882002544" rx="1"/><rect x="1370.649042855325" y="693.2238445298469" width="5.262475228231045" height="7.022634092956464" fill="#ff6b6b" opacity="0.20829279941001272" rx="1"/><rect x="1380.478482146201" y="739.7281072910109" width="10.953976355249523" height="8.784536606349176" fill="#c0392b" opacity="0.19519742408189864" rx="1"/><rect x="1367.8032922918158" y="744.1203755941855" width="10.953976355249523" height="8.784536606349176" fill="#ff6b6b" opacity="0.09759871204094932" rx="1"/><rect x="1381.019675083038" y="789.7436870986531" width="9.871590481575483" height="8.663086007037919" fill="#c0392b" opacity="0.2261567629701823" rx="1"/><rect x="1368.3444852286527" y="794.0752301021721" width="9.871590481575483" height="8.663086007037919" fill="#ff6b6b" opacity="0.11307838148509115" rx="1"/><rect x="1380.6342050605008" y="839.7592669062954" width="10.642530526649796" height="8.896617241878207" fill="#c0392b" opacity="0.2776268728258151" rx="1"/><rect x="1367.9590152061155" y="844.2075755272344" width="10.642530526649796" height="8.896617241878207" fill="#ff6b6b" opacity="0.13881343641290755" rx="1"/><rect x="1428.502305191694" y="561.0173099816352" width="80.44769856390722" height="318.7575367323024" fill="#2d1b1b" opacity="0.4579769854103162" rx="2"/><rect x="1466.2937347227073" y="571.0173099816352" width="4.864839501880304" height="7.679576240871003" fill="#c0392b" opacity="0.3739788341042537" rx="1"/><rect x="1446.1818100817306" y="574.8570981020707" width="4.864839501880304" height="7.679576240871003" fill="#ff6b6b" opacity="0.18698941705212685" rx="1"/><rect x="1466.431526646918" y="616.5541009433927" width="4.58925565345894" height="8.87149633627187" fill="#c0392b" opacity="0.4524179935577367" rx="1"/><rect x="1446.3196020059413" y="620.9898491115285" width="4.58925565345894" height="8.87149633627187" fill="#ff6b6b" opacity="0.22620899677886835" rx="1"/><rect x="1463.1121496131052" y="662.0908919051502" width="11.2280097210845" height="7.723216867475588" fill="#c0392b" opacity="0.12031807601924942" rx="1"/><rect x="1443.0002249721285" y="665.9525003388881" width="11.2280097210845" height="7.723216867475588" fill="#ff6b6b" opacity="0.06015903800962471" rx="1"/><rect x="1464.0090744973727" y="707.6276828669077" width="9.434159952549766" height="6.366987479004774" fill="#c0392b" opacity="0.58061481164317" rx="1"/><rect x="1443.897149856396" y="710.8111766064101" width="9.434159952549766" height="6.366987479004774" fill="#ff6b6b" opacity="0.290307405821585" rx="1"/><rect x="1465.3583901726622" y="753.1644738286652" width="6.7355286019704135" height="6.178758826148408" fill="#c0392b" opacity="0.45372990215051223" rx="1"/><rect x="1445.2464655316855" y="756.2538532417394" width="6.7355286019704135" height="6.178758826148408" fill="#ff6b6b" opacity="0.22686495107525612" rx="1"/><rect x="1465.2080142951202" y="798.7012647904227" width="7.036280357054499" height="8.27430207148993" fill="#c0392b" opacity="0.4906199648954487" rx="1"/><rect x="1445.0960896541435" y="802.8384158261676" width="7.036280357054499" height="8.27430207148993" fill="#ff6b6b" opacity="0.24530998244772434" rx="1"/><rect x="1466.3445437298572" y="844.2380557521801" width="4.763221487580617" height="8.417211559232607" fill="#c0392b" opacity="0.3252544799645558" rx="1"/><rect x="1446.2326190888805" y="848.4466615317964" width="4.763221487580617" height="8.417211559232607" fill="#ff6b6b" opacity="0.1626272399822779" rx="1"/><rect x="1512.7711040856007" y="506.40336868967944" width="70.71425368094683" height="373.3714780242581" fill="#2d1b1b" opacity="0.5236195409725466" rx="2"/><rect x="1545.9255889238839" y="516.4033686896794" width="4.405284004380294" height="6.180279771839333" fill="#c0392b" opacity="0.1066172943931579" rx="1"/><rect x="1528.2470255036471" y="519.4935085755991" width="4.405284004380294" height="6.180279771839333" fill="#ff6b6b" opacity="0.05330864719657895" rx="1"/><rect x="1544.6811556463076" y="578.6319483603891" width="6.894150559532957" height="6.751905918296405" fill="#c0392b" opacity="0.13502155829570758" rx="1"/><rect x="1527.0025922260709" y="582.0079013195373" width="6.894150559532957" height="6.751905918296405" fill="#ff6b6b" opacity="0.06751077914785379" rx="1"/><rect x="1542.4868710530416" y="640.8605280310987" width="11.282719746065027" height="6.285481583393524" fill="#c0392b" opacity="0.30960514229014635" rx="1"/><rect x="1524.8083076328048" y="644.0032688227955" width="11.282719746065027" height="6.285481583393524" fill="#ff6b6b" opacity="0.15480257114507318" rx="1"/><rect x="1544.3626240268486" y="703.0891077018084" width="7.531213798451054" height="9.802807833953484" fill="#c0392b" opacity="0.5356736787445083" rx="1"/><rect x="1526.6840606066119" y="707.9905116187851" width="7.531213798451054" height="9.802807833953484" fill="#ff6b6b" opacity="0.26783683937225417" rx="1"/><rect x="1543.493987471608" y="765.3176873725181" width="9.26848690893233" height="6.277259619039777" fill="#c0392b" opacity="0.5444303830257687" rx="1"/><rect x="1525.8154240513713" y="768.456317182038" width="9.26848690893233" height="6.277259619039777" fill="#ff6b6b" opacity="0.27221519151288437" rx="1"/><rect x="1545.4369459192112" y="827.5462670432278" width="5.382570013725797" height="6.798174191452138" fill="#c0392b" opacity="0.34953425215779205" rx="1"/><rect x="1527.7583824989745" y="830.9453541389538" width="5.382570013725797" height="6.798174191452138" fill="#ff6b6b" opacity="0.17476712607889602" rx="1"/><rect x="1614.6735091557798" y="706.676088018966" width="33.25051815790369" height="173.09875869497162" fill="#2d1b1b" opacity="0.5942210666821853" rx="2"/><rect x="1626.1904674857267" y="716.676088018966" width="10.216601498009776" height="7.5905444597803395" fill="#c0392b" opacity="0.5046287530578274" rx="1"/><rect x="1617.8778379462508" y="720.4713602488562" width="10.216601498009776" height="7.5905444597803395" fill="#ff6b6b" opacity="0.2523143765289137" rx="1"/><rect x="1627.9599487380863" y="751.2958397579603" width="6.677638993290635" height="8.561047066599375" fill="#c0392b" opacity="0.13667037876711002" rx="1"/><rect x="1619.6473191986104" y="755.57636329126" width="6.677638993290635" height="8.561047066599375" fill="#ff6b6b" opacity="0.06833518938355501" rx="1"/><rect x="1627.55127670977" y="785.9155914969547" width="7.494983049923317" height="7.180818459293995" fill="#c0392b" opacity="0.4337751824487409" rx="1"/><rect x="1619.2386471702941" y="789.5060007266017" width="7.494983049923317" height="7.180818459293995" fill="#ff6b6b" opacity="0.21688759122437046" rx="1"/><rect x="1626.468626693456" y="820.535343235949" width="9.660283082551388" height="7.813662561078943" fill="#c0392b" opacity="0.48229711153132304" rx="1"/><rect x="1618.15599715398" y="824.4421745164884" width="9.660283082551388" height="7.813662561078943" fill="#ff6b6b" opacity="0.24114855576566152" rx="1"/><rect x="1627.7958941477707" y="855.1550949749433" width="7.005748173921776" height="9.575906840054296" fill="#c0392b" opacity="0.3468250783269352" rx="1"/><rect x="1619.4832646082948" y="859.9430483949704" width="7.005748173921776" height="9.575906840054296" fill="#ff6b6b" opacity="0.1734125391634676" rx="1"/><rect x="1680.2589632373945" y="655.0772500818309" width="76.15512193323931" height="224.6975966321066" fill="#2d1b1b" opacity="0.6161375189936109" rx="2"/><rect x="1713.1886723179848" y="665.0772500818309" width="10.29570377205864" height="6.619821852217387" fill="#c0392b" opacity="0.2458120963410037" rx="1"/><rect x="1694.1498918346751" y="668.3871610079397" width="10.29570377205864" height="6.619821852217387" fill="#ff6b6b" opacity="0.12290604817050185" rx="1"/><rect x="1713.4752236669165" y="710.0167694082522" width="9.722601074195142" height="6.516144506753456" fill="#c0392b" opacity="0.11022762304875712" rx="1"/><rect x="1694.4364431836068" y="713.274841661629" width="9.722601074195142" height="6.516144506753456" fill="#ff6b6b" opacity="0.05511381152437856" rx="1"/><rect x="1714.322090538344" y="754.9562887346735" width="8.02886733134018" height="9.526076065266057" fill="#c0392b" opacity="0.5708759391146889" rx="1"/><rect x="1695.2833100550342" y="759.7193267673066" width="8.02886733134018" height="9.526076065266057" fill="#ff6b6b" opacity="0.28543796955734446" rx="1"/><rect x="1712.487164169248" y="799.8958080610948" width="11.698720069531984" height="6.538633869154992" fill="#c0392b" opacity="0.5295040879932941" rx="1"/><rect x="1693.4483836859383" y="803.1651249956724" width="11.698720069531984" height="6.538633869154992" fill="#ff6b6b" opacity="0.26475204399664704" rx="1"/><rect x="1716.1915941383709" y="844.8353273875161" width="4.289860131286518" height="9.71986206521277" fill="#c0392b" opacity="0.56051477313985" rx="1"/><rect x="1697.1528136550612" y="849.6952584201225" width="4.289860131286518" height="9.71986206521277" fill="#ff6b6b" opacity="0.280257386569925" rx="1"/><rect x="1764.7059471854436" y="614.2690027165853" width="73.48562802734915" height="265.50584399735226" fill="#130101" opacity="0.5174383891787004" rx="2"/><rect x="1798.8004052222889" y="624.2690027165853" width="5.296711953658776" height="9.155124519754928" fill="#c0392b" opacity="0.41256880665024953" rx="1"/><rect x="1780.4289982154514" y="628.8465649764628" width="5.296711953658776" height="9.155124519754928" fill="#ff6b6b" opacity="0.20628440332512477" rx="1"/><rect x="1798.5923842827488" y="712.7709507157027" width="5.712753832739022" height="7.267949608449813" fill="#c0392b" opacity="0.5332815798542653" rx="1"/><rect x="1780.2209772759113" y="716.4049255199276" width="5.712753832739022" height="7.267949608449813" fill="#ff6b6b" opacity="0.26664078992713264" rx="1"/><rect x="1795.6743508889695" y="801.2728987148201" width="11.548820620297645" height="8.749695477716088" fill="#c0392b" opacity="0.4536178412273568" rx="1"/><rect x="1777.302943882132" y="805.6477464536782" width="11.548820620297645" height="8.749695477716088" fill="#ff6b6b" opacity="0.2268089206136784" rx="1"/><rect x="1851.4180137317528" y="798.1731904666343" width="52.601047927188" height="81.60165624730328" fill="#130101" opacity="0.6268614949488225" rx="2"/><rect x="1873.7715165858415" y="808.1731904666343" width="7.894042219010657" height="7.0536634067664075" fill="#c0392b" opacity="0.12282427403210297" rx="1"/><rect x="1860.6212546040445" y="811.7000221700175" width="7.894042219010657" height="7.0536634067664075" fill="#ff6b6b" opacity="0.061412137016051485" rx="1"/><rect x="1872.8558245570389" y="818.3733974975472" width="9.725426276616153" height="7.21159979729252" fill="#c0392b" opacity="0.540581978866966" rx="1"/><rect x="1859.7055625752419" y="821.9791973961935" width="9.725426276616153" height="7.21159979729252" fill="#ff6b6b" opacity="0.270290989433483" rx="1"/><rect x="1874.2561148696102" y="828.5736045284601" width="6.924845651473115" height="9.98483393061553" fill="#c0392b" opacity="0.3184755384732214" rx="1"/><rect x="1861.1058528878132" y="833.5660214937678" width="6.924845651473115" height="9.98483393061553" fill="#ff6b6b" opacity="0.1592377692366107" rx="1"/><rect x="1874.483957962418" y="838.773811559373" width="6.469159465858052" height="8.636257860492044" fill="#c0392b" opacity="0.371783708658019" rx="1"/><rect x="1861.3336959806209" y="843.0919404896191" width="6.469159465858052" height="8.636257860492044" fill="#ff6b6b" opacity="0.1858918543290095" rx="1"/><rect x="1874.8752800267225" y="848.9740185902859" width="5.6865153372489186" height="7.581367002236975" fill="#c0392b" opacity="0.29537799402498127" rx="1"/><rect x="1861.7250180449255" y="852.7647020914044" width="5.6865153372489186" height="7.581367002236975" fill="#ff6b6b" opacity="0.14768899701249064" rx="1"/><rect x="1875.1316928262522" y="859.1742256211988" width="5.173689738189264" height="6.541736474386821" fill="#c0392b" opacity="0.24259867908959246" rx="1"/><rect x="1861.9814308444552" y="862.4450938583923" width="5.173689738189264" height="6.541736474386821" fill="#ff6b6b" opacity="0.12129933954479623" rx="1"/><rect x="1874.407372159219" y="869.3744326521118" width="6.62233107225558" height="6.604635555437914" fill="#c0392b" opacity="0.4645439262885004" rx="1"/><rect x="1861.257110177422" y="872.6767504298307" width="6.62233107225558" height="6.604635555437914" fill="#ff6b6b" opacity="0.2322719631442502" rx="1"/><rect x="1874.4293402976284" y="879.5746396830247" width="6.578394795436969" height="6.69751130246965" fill="#c0392b" opacity="0.302463471377842" rx="1"/><rect x="1861.2790783158314" y="882.9233953342595" width="6.578394795436969" height="6.69751130246965" fill="#ff6b6b" opacity="0.151231735688921" rx="1"/><path d="M1814.717099791094 931.628680888477 Q1825.1322292920975 859.9489078530924 1827.2152551922982 788.2691348177077" stroke="#000000" stroke-width="4.052299663436669" fill="none" stroke-linecap="round"/><path d="M1827.2152551922982 788.2691348177077 Q1882.1467122466179 768.2691348177077 1899.1390632989674 788.2691348177077" stroke="#000000" stroke-width="3.3861641160645903" fill="none" stroke-linecap="round" opacity="0.6"/><path d="M1827.2152551922982 788.2691348177077 Q1852.509955049786 776.0289203576453 1868.4700716691962 803.7887058975829" stroke="#000000" stroke-width="2.1636191010856116" fill="none" stroke-linecap="round" opacity="0.6"/><path d="M1827.2152551922982 788.2691348177077 Q1836.779253591597 775.7924841932374 1815.7675525221525 803.3158335687671" stroke="#000000" stroke-width="3.1028340521973634" fill="none" stroke-linecap="round" opacity="0.6"/><path d="M1827.2152551922982 788.2691348177077 Q1815.3806018248483 772.0536150855371 1774.8248935186089 795.8380953533664" stroke="#000000" stroke-width="2.840098194042244" fill="none" stroke-linecap="round" opacity="0.6"/><path d="M1827.2152551922982 788.2691348177077 Q1822.4144607391243 765.11904527149 1783.607066233365 781.9689557252723" stroke="#000000" stroke-width="2.3102205736353576" fill="none" stroke-linecap="round" opacity="0.6"/><path d="M1827.2152551922982 788.2691348177077 Q1836.6923645753063 760.5911763303368 1815.5322957164256 772.9132178429658" stroke="#000000" stroke-width="2.433737039201366" fill="none" stroke-linecap="round" opacity="0.6"/><path d="M702.7836465981751 864.3498753580149 Q714.821962419623 801.9424571718422 717.2296255839126 739.5350389856694" stroke="#000000" stroke-width="5.831512678841015" fill="none" stroke-linecap="round"/><path d="M717.2296255839126 739.5350389856694 Q740.5123780466412 719.5350389856694 760.5203892799375 739.5350389856694" stroke="#000000" stroke-width="2.0680375076057476" fill="none" stroke-linecap="round" opacity="0.6"/><path d="M717.2296255839126 739.5350389856694 Q742.610222506438 727.122247704373 757.5669392443299 754.7094564230764" stroke="#000000" stroke-width="3.835618457718663" fill="none" stroke-linecap="round" opacity="0.6"/><path d="M717.2296255839126 739.5350389856694 Q716.1731013977613 726.2818968680783 706.9634503552622 753.0287547504871" stroke="#000000" stroke-width="2.9176415230421444" fill="none" stroke-linecap="round" opacity="0.6"/><path d="M717.2296255839126 739.5350389856694 Q696.1413704275576 724.1298502653992 653.6214660134403 748.724661545129" stroke="#000000" stroke-width="3.5682484189905805" fill="none" stroke-linecap="round" opacity="0.6"/><path d="M717.2296255839126 739.5350389856694 Q694.2674982829902 714.4923688040932 647.4215420645768 729.449698622517" stroke="#000000" stroke-width="2.9319339750641804" fill="none" stroke-linecap="round" opacity="0.6"/><path d="M717.2296255839126 739.5350389856694 Q716.8838429146504 714.5510145912485 709.6458186223933 729.5669901968276" stroke="#000000" stroke-width="2.1833519423807393" fill="none" stroke-linecap="round" opacity="0.6"/><path d="M307.3923505068273 819.0491032132528 Q319.2143953915719 697.0750932458498 321.5788043685208 575.1010832784468" stroke="#000000" stroke-width="4.397239798772437" fill="none" stroke-linecap="round"/><path d="M321.5788043685208 575.1010832784468 Q354.6039136155983 555.1010832784468 379.76225270139105 575.1010832784468" stroke="#000000" stroke-width="3.112753954509449" fill="none" stroke-linecap="round" opacity="0.6"/><path d="M321.5788043685208 575.1010832784468 Q364.1330736340877 564.2079444872701 369.99533417040067 593.3148056960933" stroke="#000000" stroke-width="2.7141873633289215" fill="none" stroke-linecap="round" opacity="0.6"/><path d="M321.5788043685208 575.1010832784468 Q320.1887621811561 562.9371366131099 309.65528411112075 590.773189947773" stroke="#000000" stroke-width="2.398780203982904" fill="none" stroke-linecap="round" opacity="0.6"/><path d="M321.5788043685208 575.1010832784468 Q314.84152190558996 558.8400928438373 269.81791527170867 582.5791024092276" stroke="#000000" stroke-width="3.141288569928447" fill="none" stroke-linecap="round" opacity="0.6"/><path d="M321.5788043685208 575.1010832784468 Q298.1596953009702 550.2048411160795 253.79779361548424 565.308598953712" stroke="#000000" stroke-width="2.121129214791844" fill="none" stroke-linecap="round" opacity="0.6"/><path d="M321.5788043685208 575.1010832784468 Q318.6312372277532 547.5405011394602 310.0744474630913 559.9799190004735" stroke="#000000" stroke-width="2.6423446863522626" fill="none" stroke-linecap="round" opacity="0.6"/><path d="M1360.7484308073176 975.8804546380137 Q1368.874917884561 914.0915534142617 1370.5002153000096 852.3026521905099" stroke="#000000" stroke-width="4.137184645081215" fill="none" stroke-linecap="round"/><path d="M1370.5002153000096 852.3026521905099 Q1421.836081030973 832.3026521905099 1445.12215966804 852.3026521905099" stroke="#000000" stroke-width="2.4304780565273196" fill="none" stroke-linecap="round" opacity="0.6"/><path d="M1370.5002153000096 852.3026521905099 Q1399.1039375077512 841.6787377897147 1420.3480736816716 871.0548233889193" stroke="#000000" stroke-width="3.19335253890449" fill="none" stroke-linecap="round" opacity="0.6"/><path d="M1370.5002153000096 852.3026521905099 Q1365.649875567131 843.1571371169186 1353.9837796178826 874.0116220433273" stroke="#000000" stroke-width="3.0467439445310145" fill="none" stroke-linecap="round" opacity="0.6"/><path d="M1370.5002153000096 852.3026521905099 Q1354.7998083088462 835.8001523432833 1322.082655955015 859.2976524960569" stroke="#000000" stroke-width="3.8508773878800864" fill="none" stroke-linecap="round" opacity="0.6"/><path d="M1370.5002153000096 852.3026521905099 Q1353.0286952392323 829.3165885719043 1329.1627153296054 846.3305249532988" stroke="#000000" stroke-width="3.368278093954613" fill="none" stroke-linecap="round" opacity="0.6"/><path d="M1370.5002153000096 852.3026521905099 Q1363.7349542948461 821.4763055339506 1354.026595461041 830.6499588773913" stroke="#000000" stroke-width="3.7511581568399346" fill="none" stroke-linecap="round" opacity="0.6"/><rect x="0" y="1000" width="1920" height="80" fill="#070000" opacity="0.8"/><line x1="0" y1="1040" x2="1920" y2="1040" stroke="#c0392b" stroke-opacity="0.15" stroke-width="2" stroke-dasharray="30,20"/><rect x="0" y="930" width="1920" height="150" fill="url(#glow55)"/><rect x="0" y="980" width="1920" height="100" fill="#c0392b" opacity="0.04"/><rect x="325.01200772938597" y="1015.7439297427759" width="72.59721997487294" height="2" fill="#ff6b6b" opacity="0.04400946380198222" rx="1"/><rect x="1556.4878948676605" y="1028.365332388404" width="65.93448171995917" height="2" fill="#ff6b6b" opacity="0.03170904368434778" rx="1"/><rect x="1517.5582399027323" y="1026.2003615233582" width="57.803909191350435" height="2" fill="#ff6b6b" opacity="0.049227670065413155" rx="1"/><rect x="131.79737675278386" y="1019.2062009263798" width="86.78998248344054" height="2" fill="#ff6b6b" opacity="0.027283991800454443" rx="1"/><rect x="1048.1485527214008" y="1027.5532195408719" width="40.58341806302393" height="2" fill="#ff6b6b" opacity="0.02612991722443372" rx="1"/><rect x="1791.9980777502055" y="1044.4843045632551" width="49.72561910974924" height="2" fill="#ff6b6b" opacity="0.02318046411573432" rx="1"/><rect x="1901.8214732366198" y="1019.1847717946359" width="108.89162745068121" height="2" fill="#ff6b6b" opacity="0.034529116650700825" rx="1"/><rect x="595.9742467002884" y="1035.7127890725883" width="91.32721181756985" height="2" fill="#ff6b6b" opacity="0.03572472935908584" rx="1"/><rect x="1864.4762675334875" y="1036.6826462924207" width="118.94997458880533" height="2" fill="#ff6b6b" opacity="0.03272240191062968" rx="1"/><rect x="1085.917571588866" y="1037.9514007405264" width="31.735400583533433" height="2" fill="#ff6b6b" opacity="0.04886741277502557" rx="1"/><rect x="1474.1746888016758" y="1000.7982692264017" width="66.9765455105753" height="2" fill="#ff6b6b" opacity="0.059025926189270314" rx="1"/><rect x="1143.1785842457737" y="1043.935930268824" width="79.23170355596386" height="2" fill="#ff6b6b" opacity="0.04484334467557337" rx="1"/><rect x="1180.7323603100917" y="1018.770336275634" width="55.711988512359554" height="2" fill="#ff6b6b" opacity="0.044427679857338705" rx="1"/><rect x="108.37409692545751" y="1054.8896911262743" width="40.284252781487126" height="2" fill="#ff6b6b" opacity="0.034711216346992" rx="1"/><rect x="1301.812494402242" y="1042.7203232894467" width="111.00236987951267" height="2" fill="#ff6b6b" opacity="0.0581424457482394" rx="1"/><rect x="468.60672276201814" y="1032.5506914715634" width="117.30120438553887" height="2" fill="#ff6b6b" opacity="0.05257786818607195" rx="1"/><rect x="76.809252369406" y="1023.2601852582908" width="22.97814034926196" height="2" fill="#ff6b6b" opacity="0.056761875114581056" rx="1"/><rect x="1367.8315010871347" y="1040.483140358814" width="23.60080835027639" height="2" fill="#ff6b6b" opacity="0.023961995934127366" rx="1"/><rect x="964.8604222398392" y="1010.2789617865996" width="107.46070270134618" height="2" fill="#ff6b6b" opacity="0.024243471502383117" rx="1"/><rect x="509.4082060152218" y="1003.2063474839568" width="94.59435932678039" height="2" fill="#ff6b6b" opacity="0.02557749335783941" rx="1"/><rect x="315.2747870225634" y="1051.7224036184425" width="25.56560168172363" height="2" fill="#ff6b6b" opacity="0.021167560788143323" rx="1"/><rect x="1868.2208458958708" y="1034.3137480677835" width="110.41203714218271" height="2" fill="#ff6b6b" opacity="0.02234722232500725" rx="1"/><rect x="1262.2496083337462" y="1002.6944818400532" width="74.9632941500664" height="2" fill="#ff6b6b" opacity="0.032329149304965776" rx="1"/><rect x="16.15154698867154" y="1033.869679266091" width="63.01543315942759" height="2" fill="#ff6b6b" opacity="0.027770088670721765" rx="1"/><rect x="1624.665250113389" y="1058.290515304145" width="24.620258697453014" height="2" fill="#ff6b6b" opacity="0.04295682992389352" rx="1"/><rect x="1717.0980320398457" y="1033.3102413344454" width="72.60117087806603" height="2" fill="#ff6b6b" opacity="0.0272570555301516" rx="1"/><rect x="326.77024580695905" y="1000.6467137300983" width="118.56033676736064" height="2" fill="#ff6b6b" opacity="0.027599177762772698" rx="1"/><rect x="1428.250304346031" y="1047.172861836658" width="111.3796040442259" height="2" fill="#ff6b6b" opacity="0.0259152511427913" rx="1"/><rect x="1705.2411835885703" y="1057.0936636852784" width="48.0781993707824" height="2" fill="#ff6b6b" opacity="0.021070699021469498" rx="1"/><rect x="1384.759117985321" y="1051.679667646922" width="116.50632417679445" height="2" fill="#ff6b6b" opacity="0.03522153934818263" rx="1"/><text x="1900" y="1060" font-family="Arial, sans-serif" font-size="11" fill="#fff" opacity="0.08" text-anchor="end" letter-spacing="2">GTA 6 REWARDS · WALLPAPER 056</text>
</svg>