<?xml version="1.0" encoding="UTF-8"?>
<svg xmlns="http://www.w3.org/2000/svg" width="1920" height="1080" viewBox="0 0 1920 1080">
<defs>
    <linearGradient id="bg32" x1="0%" y1="0%" x2="0%" y2="100%">
      <stop offset="0%" stop-color="#3a0ca3"/>
      <stop offset="50%" stop-color="#070070"/>
      <stop offset="100%" stop-color="#3a0ca3"/>
    </linearGradient>
    <linearGradient id="sun32" x1="0%" y1="0%" x2="100%" y2="100%">
      <stop offset="0%" stop-color="#f72585"/>
      <stop offset="100%" stop-color="#b5179e"/>
    </linearGradient>
    <radialGradient id="glow32" cx="50%" cy="70%" r="50%">
      <stop offset="0%" stop-color="#f72585" stop-opacity="0.3"/>
      <stop offset="100%" stop-color="#3a0ca3" stop-opacity="0"/>
    </radialGradient>
  </defs><rect width="1920" height="1080" fill="url(#bg32)"/><circle cx="1253.0560198596345" cy="301.87735066327207" r="858.8889374534806" fill="#f72585" opacity="0.10591895805111132"/><circle cx="1453.0560198596345" cy="201.87735066327207" r="492.4861262302115" fill="#b5179e" opacity="0.05072944648580846"/><circle cx="1237.3245803959026" cy="408.89405481491565" r="82.43812418133908" fill="url(#sun32)" opacity="0.6860329237035552"/><circle cx="1237.3245803959026" cy="408.89405481491565" r="77.43812418133908" fill="#3a0ca3" opacity="0.3"/><circle cx="1350.6016788051002" cy="225.50658457761318" r="0.951514404721445" fill="#fff" opacity="0.3552078700985778"/><circle cx="527.8985105193915" cy="283.39104913812855" r="1.383702608846059" fill="#fff" opacity="0.42487266609093005"/><circle cx="988.7853998757864" cy="78.95774495204857" r="1.857057271375567" fill="#fff" opacity="0.7206946073380984"/><circle cx="470.22733624797024" cy="112.81744412351806" r="1.20766989018481" fill="#fff" opacity="0.7910758452469193"/><circle cx="1473.0684501382216" cy="353.98920816974464" r="0.6858927879216832" fill="#fff" opacity="0.4661645364170346"/><circle cx="1744.7344435343366" cy="389.460467399438" r="1.482667125641058" fill="#fff" opacity="0.6951137937826835"/><circle cx="1473.033693179729" cy="22.260382281211292" r="0.5545647364469628" fill="#fff" opacity="0.3322501094388427"/><circle cx="882.0264751282582" cy="323.45107527157546" r="1.5035230598886318" fill="#fff" opacity="0.2441859065192253"/><circle cx="1344.4837263376648" cy="309.2472460542915" r="1.8591138939045169" fill="#fff" opacity="0.5835133426784336"/><circle cx="1294.9945779179675" cy="227.72629472700098" r="0.8634092302209253" fill="#fff" opacity="0.5446551844814456"/><circle cx="1354.1706270152167" cy="424.97164564416084" r="0.9390311633327583" fill="#fff" opacity="0.3147581510978653"/><circle cx="674.8028864047496" cy="50.49534048570678" r="1.750537470507095" fill="#fff" opacity="0.654391212401537"/><circle cx="370.5603214471043" cy="190.39757846258524" r="1.6551682292845027" fill="#fff" opacity="0.5661303286827473"/><circle cx="532.5408220040939" cy="54.51886372419979" r="1.2693935165343326" fill="#fff" opacity="0.3287111608145552"/><circle cx="1290.9951950635284" cy="309.8375489278318" r="1.3046867701468727" fill="#fff" opacity="0.5029376826488734"/><circle cx="1911.8164327721615" cy="56.05948351138725" r="0.8155573344127176" fill="#fff" opacity="0.7565587617355769"/><circle cx="843.4249692138808" cy="31.64133059597605" r="0.7989080447701058" fill="#fff" opacity="0.7041797485445114"/><circle cx="1172.0702257501125" cy="276.60094042229485" r="1.4663915944905932" fill="#fff" opacity="0.6630290938688044"/><circle cx="637.9950898881059" cy="248.54059985851418" r="0.6280446738535642" fill="#fff" opacity="0.21473829415969978"/><circle cx="469.81723095984603" cy="52.6386726546657" r="0.8243945935565035" fill="#fff" opacity="0.529413367325769"/><circle cx="1514.9786513100794" cy="70.27025716897805" r="1.2998608111636387" fill="#fff" opacity="0.27369721268156944"/><circle cx="80.78429685923837" cy="62.448163605865126" r="1.2463116788413169" fill="#fff" opacity="0.2309147776176489"/><circle cx="1074.4775987683045" cy="385.9984123487953" r="1.5952667067980548" fill="#fff" opacity="0.6035870107364811"/><circle cx="1248.785278044824" cy="385.5514498766399" r="1.375317631260333" fill="#fff" opacity="0.4139711653380588"/><circle cx="365.5232160644427" cy="176.27350409335307" r="1.5407082749392624" fill="#fff" opacity="0.5504877341795917"/><circle cx="682.5326819816913" cy="305.9806446810208" r="0.5835061876763371" fill="#fff" opacity="0.45287922896744665"/><circle cx="221.18839105153188" cy="21.187103350923188" r="0.9761921854168625" fill="#fff" opacity="0.7051829202811193"/><circle cx="1810.2415269357714" cy="320.49279801559" r="1.3544591401830453" fill="#fff" opacity="0.6893995504568795"/><circle cx="306.0053449091514" cy="262.3197106994502" r="0.7333685985611214" fill="#fff" opacity="0.38195114018906634"/><circle cx="1916.3656519344927" cy="259.5787190281737" r="1.1187898544871224" fill="#fff" opacity="0.6662633973328078"/><circle cx="1768.765350992038" cy="275.23826424852905" r="1.185101836962882" fill="#fff" opacity="0.29952744289755995"/><circle cx="555.4356454115909" cy="255.29162107764083" r="0.9016689308690068" fill="#fff" opacity="0.4679079581675837"/><circle cx="145.31878042624305" cy="303.03689088277446" r="1.5872700222738252" fill="#fff" opacity="0.5754229528772232"/><circle cx="1172.434916322221" cy="134.32520324884104" r="1.9802628311981127" fill="#fff" opacity="0.20047178785327632"/><circle cx="61.208990528529746" cy="28.007512847894688" r="1.216169501123058" fill="#fff" opacity="0.3345755384151301"/><circle cx="665.5363138079495" cy="259.2007073991002" r="1.4526142895809873" fill="#fff" opacity="0.4164383222387262"/><circle cx="245.62976410743542" cy="166.28169970733154" r="1.6562607946470989" fill="#fff" opacity="0.3452399515885022"/><circle cx="1446.483710894008" cy="280.7655651887799" r="1.9823350559413282" fill="#fff" opacity="0.4956536018977998"/><circle cx="1625.6944579690914" cy="201.28025429911915" r="0.7741065021311181" fill="#fff" opacity="0.6484247017298883"/><circle cx="478.26145570684724" cy="90.77819492173805" r="1.2242726096241439" fill="#fff" opacity="0.4404659747240287"/><circle cx="440.507800979658" cy="239.51393216091998" r="0.6983540299577531" fill="#fff" opacity="0.39922081409004073"/><circle cx="1134.631023373136" cy="346.17776280878525" r="0.5581575033855991" fill="#fff" opacity="0.2194967285309678"/><rect x="6.233191042261476" y="883.4989317770812" width="89.57875136276212" height="81.01518635661695" fill="#3a0ca3" opacity="0.5253254653013604" rx="2"/><rect x="45.72746403904805" y="893.4989317770812" width="10.590205369188965" height="7.8175157592207" fill="#b5179e" opacity="0.17910827910041166" rx="1"/><rect x="23.33277619835752" y="897.4076896566916" width="10.590205369188965" height="7.8175157592207" fill="#f72585" opacity="0.08955413955020583" rx="1"/><rect x="45.59328809766873" y="905.0725298280265" width="10.858557251947596" height="8.745389925023865" fill="#b5179e" opacity="0.49530491547084066" rx="1"/><rect x="23.198600256978207" y="909.4452247905384" width="10.858557251947596" height="8.745389925023865" fill="#f72585" opacity="0.24765245773542033" rx="1"/><rect x="48.15601107551623" y="916.6461278789718" width="5.7331112962526065" height="8.977570459008582" fill="#b5179e" opacity="0.5537012604888765" rx="1"/><rect x="25.7613232348257" y="921.1349131084761" width="5.7331112962526065" height="8.977570459008582" fill="#f72585" opacity="0.27685063024443823" rx="1"/><rect x="45.58017828794666" y="928.2197259299171" width="10.884776871391754" height="9.137930276602956" fill="#b5179e" opacity="0.5642366855322003" rx="1"/><rect x="23.18549044725613" y="932.7886910682186" width="10.884776871391754" height="9.137930276602956" fill="#f72585" opacity="0.28211834276610015" rx="1"/><rect x="46.08577636747755" y="939.7933239808624" width="9.873580712329964" height="9.847359786705896" fill="#b5179e" opacity="0.5761879593078485" rx="1"/><rect x="23.69108852678702" y="944.7170038742154" width="9.873580712329964" height="9.847359786705896" fill="#f72585" opacity="0.28809397965392425" rx="1"/><rect x="47.31983089035373" y="951.3669220318076" width="7.405471666577615" height="8.130464758288689" fill="#b5179e" opacity="0.4146747925352945" rx="1"/><rect x="24.9251430496632" y="955.432154410952" width="7.405471666577615" height="8.130464758288689" fill="#f72585" opacity="0.20733739626764724" rx="1"/><rect x="46.608629194462814" y="962.9405200827529" width="8.827875058359437" height="8.822781691984922" fill="#b5179e" opacity="0.271462134032385" rx="1"/><rect x="24.213941353772285" y="967.3519109287454" width="8.827875058359437" height="8.822781691984922" fill="#f72585" opacity="0.1357310670161925" rx="1"/><rect x="93.95411410736207" y="855.4679178412696" width="41.95449746957852" height="109.04620029242854" fill="#3a0ca3" opacity="0.6198749427031435" rx="2"/><rect x="112.57522323434088" y="865.4679178412696" width="4.712279215620896" height="7.485666510063611" fill="#b5179e" opacity="0.36144917978938884" rx="1"/><rect x="102.08659886694626" y="869.2107510963014" width="4.712279215620896" height="7.485666510063611" fill="#f72585" opacity="0.18072458989469442" rx="1"/><rect x="112.00356569579378" y="879.0986928778232" width="5.8555942927150975" height="6.056535927591971" fill="#b5179e" opacity="0.5986729928056413" rx="1"/><rect x="101.51494132839916" y="882.1269608416192" width="5.8555942927150975" height="6.056535927591971" fill="#f72585" opacity="0.2993364964028207" rx="1"/><rect x="112.3574387866947" y="892.7294679143768" width="5.147848110913264" height="8.315375414284732" fill="#b5179e" opacity="0.5446924824604514" rx="1"/><rect x="101.86881441930008" y="896.8871556215191" width="5.147848110913264" height="8.315375414284732" fill="#f72585" opacity="0.2723462412302257" rx="1"/><rect x="109.96578655317053" y="906.3602429509303" width="9.931152577961598" height="6.064275676399533" fill="#b5179e" opacity="0.29514981254356676" rx="1"/><rect x="99.47716218577591" y="909.3923807891301" width="9.931152577961598" height="6.064275676399533" fill="#f72585" opacity="0.14757490627178338" rx="1"/><rect x="111.93371448357402" y="919.9910179874838" width="5.99529671715463" height="7.406617766573703" fill="#b5179e" opacity="0.19885607778533737" rx="1"/><rect x="101.4450901161794" y="923.6943268707706" width="5.99529671715463" height="7.406617766573703" fill="#f72585" opacity="0.09942803889266869" rx="1"/><rect x="111.65971973316695" y="933.6217930240374" width="6.5432862179687445" height="7.396110649545703" fill="#b5179e" opacity="0.5896090048108271" rx="1"/><rect x="101.17109536577233" y="937.3198483488103" width="6.5432862179687445" height="7.396110649545703" fill="#f72585" opacity="0.29480450240541356" rx="1"/><rect x="111.98105290131626" y="947.252568060591" width="5.900619881670135" height="6.800333868898529" fill="#b5179e" opacity="0.488059356689467" rx="1"/><rect x="101.49242853392164" y="950.6527349950403" width="5.900619881670135" height="6.800333868898529" fill="#f72585" opacity="0.2440296783447335" rx="1"/><rect x="110.93203501071554" y="960.8833430971446" width="7.998655662871585" height="6.020283061084403" fill="#b5179e" opacity="0.3129745060142536" rx="1"/><rect x="100.44341064332092" y="963.8934846276868" width="7.998655662871585" height="6.020283061084403" fill="#f72585" opacity="0.1564872530071268" rx="1"/><rect x="203.92994154886492" y="703.2226081595809" width="77.44256855627582" height="261.2915099741173" fill="#200089" opacity="0.6194445467832137" rx="2"/><rect x="237.62034681957607" y="713.2226081595809" width="10.06175801485352" height="8.0055605568936" fill="#b5179e" opacity="0.5074742268788336" rx="1"/><rect x="218.2597046805071" y="717.2253884380277" width="10.06175801485352" height="8.0055605568936" fill="#f72585" opacity="0.2537371134394168" rx="1"/><rect x="240.47155304558297" y="745.8840469063456" width="4.359345562839728" height="9.817715751896081" fill="#b5179e" opacity="0.37164093097011586" rx="1"/><rect x="221.110910906514" y="750.7929047822936" width="4.359345562839728" height="9.817715751896081" fill="#f72585" opacity="0.18582046548505793" rx="1"/><rect x="240.28945077325355" y="778.5454856531102" width="4.723550107498548" height="9.607144595963682" fill="#b5179e" opacity="0.41193873898869815" rx="1"/><rect x="220.92880863418458" y="783.349057951092" width="4.723550107498548" height="9.607144595963682" fill="#f72585" opacity="0.20596936949434907" rx="1"/><rect x="238.05579208738456" y="811.2069243998749" width="9.190867479236534" height="8.590313533924128" fill="#b5179e" opacity="0.22114314144038205" rx="1"/><rect x="218.6951499483156" y="815.5020811668369" width="9.190867479236534" height="8.590313533924128" fill="#f72585" opacity="0.11057157072019103" rx="1"/><rect x="237.353897121267" y="843.8683631466395" width="10.594657411471628" height="6.98718313243873" fill="#b5179e" opacity="0.2748641494603046" rx="1"/><rect x="217.99325498219804" y="847.3619547128588" width="10.594657411471628" height="6.98718313243873" fill="#f72585" opacity="0.1374320747301523" rx="1"/><rect x="237.6020687078681" y="876.5298018934042" width="10.09831423826942" height="9.506675124984858" fill="#b5179e" opacity="0.4934970204470439" rx="1"/><rect x="218.24142656879914" y="881.2831394558966" width="10.09831423826942" height="9.506675124984858" fill="#f72585" opacity="0.24674851022352196" rx="1"/><rect x="240.62546336493966" y="909.1912406401689" width="4.051524924126343" height="7.894962370836866" fill="#b5179e" opacity="0.342205687272876" rx="1"/><rect x="221.2648212258707" y="913.1387218255873" width="4.051524924126343" height="7.894962370836866" fill="#f72585" opacity="0.171102843636438" rx="1"/><rect x="237.96199038499" y="941.8526793869335" width="9.378470884025672" height="6.638746780492074" fill="#b5179e" opacity="0.15406164705149403" rx="1"/><rect x="218.60134824592103" y="945.1720527771795" width="9.378470884025672" height="6.638746780492074" fill="#f72585" opacity="0.07703082352574701" rx="1"/><rect x="269.8556792189624" y="647.812507044946" width="63.025524190865816" height="316.7016110887522" fill="#3a0ca3" opacity="0.4735895121408602" rx="2"/><rect x="295.86236189406293" y="657.812507044946" width="11.0121588406647" height="6.487784627938593" fill="#b5179e" opacity="0.5831069901080586" rx="1"/><rect x="280.1059808463465" y="661.0563993589152" width="11.0121588406647" height="6.487784627938593" fill="#f72585" opacity="0.2915534950540293" rx="1"/><rect x="298.503133779149" y="763.3797107411967" width="5.730615070492638" height="7.740533839385149" fill="#b5179e" opacity="0.23400641610706374" rx="1"/><rect x="282.74675273143254" y="767.2499776608893" width="5.730615070492638" height="7.740533839385149" fill="#f72585" opacity="0.11700320805353187" rx="1"/><rect x="298.2350374848325" y="868.9469144374474" width="6.266807659125609" height="7.619663070333112" fill="#b5179e" opacity="0.4047215784445223" rx="1"/><rect x="282.47865643711606" y="872.756745972614" width="6.266807659125609" height="7.619663070333112" fill="#f72585" opacity="0.20236078922226114" rx="1"/><rect x="350.82533073800107" y="866.2199197374796" width="60.44185702000788" height="98.29419839621852" fill="#200089" opacity="0.6291756691944729" rx="2"/><rect x="378.00896401989314" y="876.2199197374796" width="6.074590456223719" height="9.571348657731747" fill="#b5179e" opacity="0.11481756498450824" rx="1"/><rect x="362.89849976489114" y="881.0055940663455" width="6.074590456223719" height="9.571348657731747" fill="#f72585" opacity="0.05740878249225412" rx="1"/><rect x="377.7840494802354" y="900.7934693365343" width="6.524419535539211" height="6.586286253432344" fill="#b5179e" opacity="0.5881720032981066" rx="1"/><rect x="362.6735852252334" y="904.0866124632504" width="6.524419535539211" height="6.586286253432344" fill="#f72585" opacity="0.2940860016490533" rx="1"/><rect x="375.0758823373701" y="925.3670189355888" width="11.940753821269784" height="6.876179795916234" fill="#b5179e" opacity="0.46378284470731923" rx="1"/><rect x="359.9654180823681" y="928.8051088335469" width="11.940753821269784" height="6.876179795916234" fill="#f72585" opacity="0.23189142235365962" rx="1"/><rect x="378.2678506934412" y="949.9405685346435" width="5.556817109127719" height="9.832797927743009" fill="#b5179e" opacity="0.4439569583497841" rx="1"/><rect x="363.1573864384392" y="954.856967498515" width="5.556817109127719" height="9.832797927743009" fill="#f72585" opacity="0.22197847917489205" rx="1"/><rect x="464.93181882752634" y="658.3972357000218" width="39.88409328970222" height="306.1168824336764" fill="#200089" opacity="0.5758870205785817" rx="2"/><rect x="482.5263861633412" y="668.3972357000218" width="4.69495861807255" height="9.847480250486983" fill="#b5179e" opacity="0.23690534272159108" rx="1"/><rect x="472.5553628409156" y="673.3209758252654" width="4.69495861807255" height="9.847480250486983" fill="#f72585" opacity="0.11845267136079554" rx="1"/><rect x="482.65567300020405" y="770.4361965112473" width="4.436384944346823" height="8.786250816375542" fill="#b5179e" opacity="0.26347794378257305" rx="1"/><rect x="472.68464967777845" y="774.8293219194351" width="4.436384944346823" height="8.786250816375542" fill="#f72585" opacity="0.13173897189128653" rx="1"/><rect x="482.15646431321454" y="872.4751573224728" width="5.434802318325919" height="7.098689203406379" fill="#b5179e" opacity="0.5055903672486521" rx="1"/><rect x="472.18544099078895" y="876.024501924176" width="5.434802318325919" height="7.098689203406379" fill="#f72585" opacity="0.25279518362432607" rx="1"/><rect x="536.8567144027365" y="714.8649199551123" width="59.68090898582733" height="249.6491981785859" fill="#200089" opacity="0.5093643056716222" rx="2"/><rect x="561.3461401106917" y="724.8649199551123" width="10.702057569916839" height="6.403823701758828" fill="#b5179e" opacity="0.26371161738962673" rx="1"/><rect x="546.425912864235" y="728.0668318059918" width="10.702057569916839" height="6.403823701758828" fill="#f72585" opacity="0.13185580869481336" rx="1"/><rect x="562.0355349620675" y="760.5290911234817" width="9.323267867165448" height="6.368660801176135" fill="#b5179e" opacity="0.28894748883064547" rx="1"/><rect x="547.1153077156107" y="763.7134215240699" width="9.323267867165448" height="6.368660801176135" fill="#f72585" opacity="0.14447374441532274" rx="1"/><rect x="564.0442251185777" y="796.1932622918512" width="5.305887554144926" height="6.869910119303947" fill="#b5179e" opacity="0.5927538473840696" rx="1"/><rect x="549.123997872121" y="799.6282173515032" width="5.305887554144926" height="6.869910119303947" fill="#f72585" opacity="0.2963769236920348" rx="1"/><rect x="563.3608100789761" y="831.8574334602206" width="6.6727176333481255" height="8.416404594298546" fill="#b5179e" opacity="0.4311437905838582" rx="1"/><rect x="548.4405828325193" y="836.0656357573698" width="6.6727176333481255" height="8.416404594298546" fill="#f72585" opacity="0.2155718952919291" rx="1"/><rect x="562.3064101469273" y="867.52160462859" width="8.78151749744581" height="8.913709786467653" fill="#b5179e" opacity="0.33196784761547293" rx="1"/><rect x="547.3861829004705" y="871.9784595218239" width="8.78151749744581" height="8.913709786467653" fill="#f72585" opacity="0.16598392380773647" rx="1"/><rect x="564.4628901794487" y="903.1857757969594" width="4.468557432402987" height="8.397167356311616" fill="#b5179e" opacity="0.5387950143867161" rx="1"/><rect x="549.5426629329919" y="907.3843594751153" width="4.468557432402987" height="8.397167356311616" fill="#f72585" opacity="0.26939750719335803" rx="1"/><rect x="563.4116999230628" y="938.8499469653289" width="6.570937945174737" height="6.355034468778184" fill="#b5179e" opacity="0.5274127884831775" rx="1"/><rect x="548.491472676606" y="942.027464199718" width="6.570937945174737" height="6.355034468778184" fill="#f72585" opacity="0.26370639424158876" rx="1"/><rect x="621.8276855197164" y="752.9009671888549" width="81.29926060123817" height="211.61315094484323" fill="#3a0ca3" opacity="0.5655439078960437" rx="2"/><rect x="658.4186305683445" y="762.9009671888549" width="8.117370503981917" height="8.034509655561882" fill="#b5179e" opacity="0.463148286557558" rx="1"/><rect x="638.093815418035" y="766.9182220166358" width="8.117370503981917" height="8.034509655561882" fill="#f72585" opacity="0.231574143278779" rx="1"/><rect x="659.257453562921" y="805.2235973778236" width="6.439724514828931" height="8.457008232003313" fill="#b5179e" opacity="0.4767675992280169" rx="1"/><rect x="638.9326384126115" y="809.4521014938252" width="6.439724514828931" height="8.457008232003313" fill="#f72585" opacity="0.23838379961400846" rx="1"/><rect x="659.3005272506334" y="847.5462275667921" width="6.353577139404038" height="9.464200897948864" fill="#b5179e" opacity="0.24309855693557733" rx="1"/><rect x="638.9757121003239" y="852.2783280157665" width="6.353577139404038" height="9.464200897948864" fill="#f72585" opacity="0.12154927846778867" rx="1"/><rect x="656.9745415446118" y="889.8688577557608" width="11.00554855144712" height="6.80575574208185" fill="#b5179e" opacity="0.5944723448703234" rx="1"/><rect x="636.6497263943023" y="893.2717356268017" width="11.00554855144712" height="6.80575574208185" fill="#f72585" opacity="0.2972361724351617" rx="1"/><rect x="659.5961592563714" y="932.1914879447295" width="5.762313127928021" height="6.255681115262136" fill="#b5179e" opacity="0.16204501482705702" rx="1"/><rect x="639.2713441060619" y="935.3193285023606" width="5.762313127928021" height="6.255681115262136" fill="#f72585" opacity="0.08102250741352851" rx="1"/><rect x="698.3465063462248" y="754.4488542956414" width="47.83306032368752" height="210.06526383805678" fill="#3a0ca3" opacity="0.5914159469053653" rx="2"/><rect x="716.4243640629504" y="764.4488542956414" width="11.677344890236236" height="8.768119499731837" fill="#b5179e" opacity="0.4885470706477173" rx="1"/><rect x="704.4660989820286" y="768.8329140455073" width="11.677344890236236" height="8.768119499731837" fill="#f72585" opacity="0.24427353532385865" rx="1"/><rect x="717.3874165855658" y="816.9651702551555" width="9.751239845005617" height="7.754361367261587" fill="#b5179e" opacity="0.238550933366304" rx="1"/><rect x="705.429151504644" y="820.8423509387862" width="9.751239845005617" height="7.754361367261587" fill="#f72585" opacity="0.119275466683152" rx="1"/><rect x="718.8697549697048" y="869.4814862146698" width="6.786563076727689" height="7.7246621124736645" fill="#b5179e" opacity="0.17929066803289828" rx="1"/><rect x="706.911489888783" y="873.3438172709066" width="6.786563076727689" height="7.7246621124736645" fill="#f72585" opacity="0.08964533401644914" rx="1"/><rect x="718.0610187923551" y="921.9978021741839" width="8.404035431426959" height="6.276842323196317" fill="#b5179e" opacity="0.2171225302659726" rx="1"/><rect x="706.1027537114333" y="925.136223335782" width="8.404035431426959" height="6.276842323196317" fill="#f72585" opacity="0.1085612651329863" rx="1"/><rect x="798.9393970592188" y="774.0025448435923" width="66.46958341274168" height="190.51157329010582" fill="#3a0ca3" opacity="0.5094198637198237" rx="2"/><rect x="830.0110034671088" y="784.0025448435923" width="4.32637059696167" height="8.596103410840989" fill="#b5179e" opacity="0.20217374798426724" rx="1"/><rect x="813.3936076139233" y="788.3005965490128" width="4.32637059696167" height="8.596103410840989" fill="#f72585" opacity="0.10108687399213362" rx="1"/><rect x="826.864665203781" y="811.218483885036" width="10.619047123617271" height="8.718536809719758" fill="#b5179e" opacity="0.21756093826088146" rx="1"/><rect x="810.2472693505955" y="815.5777522898959" width="10.619047123617271" height="8.718536809719758" fill="#f72585" opacity="0.10878046913044073" rx="1"/><rect x="829.8371789835396" y="838.4344229264797" width="4.67401956410008" height="8.137911499975694" fill="#b5179e" opacity="0.35475657655735426" rx="1"/><rect x="813.2197831303541" y="842.5033786764675" width="4.67401956410008" height="8.137911499975694" fill="#f72585" opacity="0.17737828827867713" rx="1"/><rect x="827.7771306049873" y="865.6503619679233" width="8.794116321204722" height="8.893374304960801" fill="#b5179e" opacity="0.4891775511179999" rx="1"/><rect x="811.1597347518018" y="870.0970491204038" width="8.794116321204722" height="8.893374304960801" fill="#f72585" opacity="0.24458877555899994" rx="1"/><rect x="826.215067348345" y="892.866301009367" width="11.918242834489384" height="9.441932930481139" fill="#b5179e" opacity="0.19836630583702736" rx="1"/><rect x="809.5976714951595" y="897.5872674746076" width="11.918242834489384" height="9.441932930481139" fill="#f72585" opacity="0.09918315291851368" rx="1"/><rect x="828.5577431744714" y="920.0822400508107" width="7.232891182236581" height="9.937041517332439" fill="#b5179e" opacity="0.22228557668213864" rx="1"/><rect x="811.9403473212859" y="925.050760809477" width="7.232891182236581" height="9.937041517332439" fill="#f72585" opacity="0.11114278834106932" rx="1"/><rect x="829.4975814378963" y="947.2981790922545" width="5.353214655386567" height="6.839744523363128" fill="#b5179e" opacity="0.5066226517098543" rx="1"/><rect x="812.8801855847108" y="950.7180513539361" width="5.353214655386567" height="6.839744523363128" fill="#f72585" opacity="0.25331132585492716" rx="1"/><rect x="876.916583123407" y="795.6775315677928" width="71.80483278394789" height="168.8365865659054" fill="#3a0ca3" opacity="0.578290864005287" rx="2"/><rect x="907.5045083134171" y="805.6775315677928" width="10.628982403927711" height="6.587202429908142" fill="#b5179e" opacity="0.22406156517659817" rx="1"/><rect x="889.5533001174301" y="808.9711327827468" width="10.628982403927711" height="6.587202429908142" fill="#f72585" opacity="0.11203078258829909" rx="1"/><rect x="910.409731123967" y="826.782104888531" width="4.8185367828278185" height="6.367069947618774" fill="#b5179e" opacity="0.5974203045706777" rx="1"/><rect x="892.4585229279801" y="829.9656398623404" width="4.8185367828278185" height="6.367069947618774" fill="#f72585" opacity="0.29871015228533887" rx="1"/><rect x="909.8020310450773" y="847.8866782092691" width="6.033936940607134" height="9.825339191552564" fill="#b5179e" opacity="0.42439952933331937" rx="1"/><rect x="891.8508228490904" y="852.7993478050454" width="6.033936940607134" height="9.825339191552564" fill="#f72585" opacity="0.21219976466665968" rx="1"/><rect x="907.7685241212488" y="868.9912515300074" width="10.100950788264385" height="9.310269671331689" fill="#b5179e" opacity="0.3858241334990189" rx="1"/><rect x="889.8173159252618" y="873.6463863656733" width="10.100950788264385" height="9.310269671331689" fill="#f72585" opacity="0.19291206674950945" rx="1"/><rect x="909.4017054113987" y="890.0958248507455" width="6.834588207964456" height="7.147707796922817" fill="#b5179e" opacity="0.48647936118917523" rx="1"/><rect x="891.4504972154117" y="893.6696787492069" width="6.834588207964456" height="7.147707796922817" fill="#f72585" opacity="0.24323968059458762" rx="1"/><rect x="908.7817085375925" y="911.2003981714837" width="8.074581955576917" height="7.567605945646671" fill="#b5179e" opacity="0.3351193425094521" rx="1"/><rect x="890.8305003416056" y="914.984201144307" width="8.074581955576917" height="7.567605945646671" fill="#f72585" opacity="0.16755967125472604" rx="1"/><rect x="910.3550579933303" y="932.3049714922219" width="4.927883044101271" height="8.703372180159988" fill="#b5179e" opacity="0.2393294511687312" rx="1"/><rect x="892.4038497973434" y="936.6566575823018" width="4.927883044101271" height="8.703372180159988" fill="#f72585" opacity="0.1196647255843656" rx="1"/><rect x="908.1263727227479" y="953.40954481296" width="9.385253585266241" height="6.63918463062476" fill="#b5179e" opacity="0.32926504810556423" rx="1"/><rect x="890.1751645267609" y="956.7291371282724" width="9.385253585266241" height="6.63918463062476" fill="#f72585" opacity="0.16463252405278211" rx="1"/><rect x="968.8628667171259" y="597.6875530201214" width="68.31472953276585" height="366.82656511357675" fill="#3a0ca3" opacity="0.5919752734694572" rx="2"/><rect x="1000.3717979340282" y="607.6875530201214" width="5.296867098961227" height="8.230785034184994" fill="#b5179e" opacity="0.4609855218932465" rx="1"/><rect x="983.2931155508368" y="611.8029455372139" width="5.296867098961227" height="8.230785034184994" fill="#f72585" opacity="0.23049276094662324" rx="1"/><rect x="1000.7949262978032" y="699.3941942985156" width="4.450610371411455" height="9.410785249297223" fill="#b5179e" opacity="0.14853439320543185" rx="1"/><rect x="983.7162439146117" y="704.0995869231642" width="4.450610371411455" height="9.410785249297223" fill="#f72585" opacity="0.07426719660271593" rx="1"/><rect x="997.4576469856448" y="791.1008355769097" width="11.125168995728057" height="7.627793552732978" fill="#b5179e" opacity="0.40023736350709516" rx="1"/><rect x="980.3789646024534" y="794.9147323532762" width="11.125168995728057" height="7.627793552732978" fill="#f72585" opacity="0.20011868175354758" rx="1"/><rect x="999.4985860862067" y="882.807476855304" width="7.043290794604292" height="7.3458253222857195" fill="#b5179e" opacity="0.1352814175503518" rx="1"/><rect x="982.4199037030153" y="886.4803895164468" width="7.043290794604292" height="7.3458253222857195" fill="#f72585" opacity="0.0676407087751759" rx="1"/><rect x="1056.838146771457" y="842.9467420542954" width="50.5959147588806" height="121.56737607940272" fill="#200089" opacity="0.47983484039544944" rx="2"/><rect x="1076.5835910405501" y="852.9467420542954" width="11.105026220694423" height="6.82619116195156" fill="#b5179e" opacity="0.1181669597556272" rx="1"/><rect x="1063.93461235083" y="856.3598376352712" width="11.105026220694423" height="6.82619116195156" fill="#f72585" opacity="0.0590834798778136" rx="1"/><rect x="1078.6300119486284" y="893.4692007474297" width="7.012184404538056" height="6.601323221018846" fill="#b5179e" opacity="0.13217988869458902" rx="1"/><rect x="1065.9810332589084" y="896.7698623579391" width="7.012184404538056" height="6.601323221018846" fill="#f72585" opacity="0.06608994434729451" rx="1"/><rect x="1078.752405094814" y="933.9916594405639" width="6.767398112166533" height="7.848503746522708" fill="#b5179e" opacity="0.5429795152840623" rx="1"/><rect x="1066.103426405094" y="937.9159113138253" width="6.767398112166533" height="7.848503746522708" fill="#f72585" opacity="0.27148975764203115" rx="1"/><rect x="1140.3920671702429" y="873.1815956121268" width="42.28452916543105" height="91.33252252157138" fill="#200089" opacity="0.4293049590730353" rx="2"/><rect x="1157.6542057195425" y="883.1815956121268" width="7.760252066832095" height="8.586867399184701" fill="#b5179e" opacity="0.2732053136623477" rx="1"/><rect x="1147.0830734281847" y="887.4750293117191" width="7.760252066832095" height="8.586867399184701" fill="#f72585" opacity="0.13660265683117384" rx="1"/><rect x="1159.138551175542" y="901.4481001164411" width="4.791561154832961" height="6.087931405773371" fill="#b5179e" opacity="0.48221003438397547" rx="1"/><rect x="1148.5674188841842" y="904.4920658193278" width="4.791561154832961" height="6.087931405773371" fill="#f72585" opacity="0.24110501719198774" rx="1"/><rect x="1156.3551679730863" y="919.7146046207554" width="10.358327559744549" height="6.3800423565274205" fill="#b5179e" opacity="0.4222059813146959" rx="1"/><rect x="1145.7840356817285" y="922.9046257990191" width="10.358327559744549" height="6.3800423565274205" fill="#f72585" opacity="0.21110299065734794" rx="1"/><rect x="1156.5118538786537" y="937.9811091250696" width="10.044955748609489" height="7.822744297288066" fill="#b5179e" opacity="0.4539380555399549" rx="1"/><rect x="1145.940721587296" y="941.8924812737135" width="10.044955748609489" height="7.822744297288066" fill="#f72585" opacity="0.22696902776997746" rx="1"/><rect x="1157.1150424512457" y="956.2476136293839" width="8.838578603425663" height="6.157827930561693" fill="#b5179e" opacity="0.5729775568640273" rx="1"/><rect x="1146.543910159888" y="959.3265275946648" width="8.838578603425663" height="6.157827930561693" fill="#f72585" opacity="0.28648877843201365" rx="1"/><rect x="1238.63526607726" y="763.7201167907846" width="65.75366915104763" height="200.7940013429136" fill="#200089" opacity="0.6536864937640928" rx="2"/><rect x="1265.804291575276" y="773.7201167907846" width="11.415618155015544" height="6.113297211963985" fill="#b5179e" opacity="0.5104583549570428" rx="1"/><rect x="1249.365874287514" y="776.7767653967666" width="11.415618155015544" height="6.113297211963985" fill="#f72585" opacity="0.2552291774785214" rx="1"/><rect x="1267.6575942994357" y="840.6514505717557" width="7.709012706696292" height="7.826557354495525" fill="#b5179e" opacity="0.3621744636590999" rx="1"/><rect x="1251.2191770116738" y="844.5647292490034" width="7.709012706696292" height="7.826557354495525" fill="#f72585" opacity="0.18108723182954994" rx="1"/><rect x="1269.2382180112631" y="907.582784352727" width="4.547765283041579" height="8.376779400365608" fill="#b5179e" opacity="0.22986429981651352" rx="1"/><rect x="1252.7998007235012" y="911.7711740529098" width="4.547765283041579" height="8.376779400365608" fill="#f72585" opacity="0.11493214990825676" rx="1"/><rect x="1333.7325491921522" y="725.260037806644" width="60.349582659627686" height="239.25408032705406" fill="#200089" opacity="0.4195043454457783" rx="2"/><rect x="1360.5596486103796" y="735.260037806644" width="6.6953838231729765" height="9.983401117842504" fill="#b5179e" opacity="0.32703536488745255" rx="1"/><rect x="1345.4722529454725" y="740.2517383655653" width="6.6953838231729765" height="9.983401117842504" fill="#f72585" opacity="0.16351768244372628" rx="1"/><rect x="1358.0235270718802" y="783.1108538720548" width="11.767626900171773" height="9.534018336686776" fill="#b5179e" opacity="0.15131560891198825" rx="1"/><rect x="1342.9361314069731" y="787.8778630403982" width="11.767626900171773" height="9.534018336686776" fill="#f72585" opacity="0.07565780445599413" rx="1"/><rect x="1359.6437242603665" y="830.9616699374657" width="8.527232523198993" height="6.838854286083685" fill="#b5179e" opacity="0.27218738251183816" rx="1"/><rect x="1344.5563285954595" y="834.3810970805075" width="8.527232523198993" height="6.838854286083685" fill="#f72585" opacity="0.13609369125591908" rx="1"/><rect x="1359.1254307947581" y="878.8124860028765" width="9.56381945441566" height="6.2214510236451055" fill="#b5179e" opacity="0.20433110725235454" rx="1"/><rect x="1344.038035129851" y="881.9232115146991" width="9.56381945441566" height="6.2214510236451055" fill="#f72585" opacity="0.10216555362617727" rx="1"/><rect x="1359.4239909038172" y="926.6633020682873" width="8.966699236297677" height="8.786393438183328" fill="#b5179e" opacity="0.30812414917352704" rx="1"/><rect x="1344.3365952389101" y="931.0564987873789" width="8.966699236297677" height="8.786393438183328" fill="#f72585" opacity="0.15406207458676352" rx="1"/><rect x="1410.667253776863" y="767.3343129030742" width="71.4501894734451" height="197.17980523062397" fill="#200089" opacity="0.5365375774531946" rx="2"/><rect x="1440.4060787825142" y="777.3343129030742" width="11.972539462142748" height="7.561041041640808" fill="#b5179e" opacity="0.25206780229976117" rx="1"/><rect x="1422.5435314141528" y="781.1148334238947" width="11.972539462142748" height="7.561041041640808" fill="#f72585" opacity="0.12603390114988058" rx="1"/><rect x="1441.4841813444104" y="816.770273949199" width="9.816334338350298" height="8.385176967453486" fill="#b5179e" opacity="0.2097058772830539" rx="1"/><rect x="1423.621633976049" y="820.9628624329257" width="9.816334338350298" height="8.385176967453486" fill="#f72585" opacity="0.10485293864152695" rx="1"/><rect x="1443.9350985759002" y="856.2062349953238" width="4.914499875370995" height="9.390356958701824" fill="#b5179e" opacity="0.26180568296969997" rx="1"/><rect x="1426.0725512075387" y="860.9014134746748" width="4.914499875370995" height="9.390356958701824" fill="#f72585" opacity="0.13090284148484999" rx="1"/><rect x="1442.8497042825775" y="895.6421960414486" width="7.0852884620161" height="8.507018665435496" fill="#b5179e" opacity="0.5286418811950464" rx="1"/><rect x="1424.987156914216" y="899.8957053741664" width="7.0852884620161" height="8.507018665435496" fill="#f72585" opacity="0.2643209405975232" rx="1"/><rect x="1443.49035450853" y="935.0781570875733" width="5.803988010111262" height="7.732904587344477" fill="#b5179e" opacity="0.5178295685951201" rx="1"/><rect x="1425.6278071401684" y="938.9446093812455" width="5.803988010111262" height="7.732904587344477" fill="#f72585" opacity="0.25891478429756004" rx="1"/><rect x="1508.6841895290634" y="774.671572988078" width="50.60753942481418" height="189.84254514562025" fill="#3a0ca3" opacity="0.6885149278884091" rx="2"/><rect x="1530.435164351562" y="784.671572988078" width="7.105589779816938" height="7.444956971668861" fill="#b5179e" opacity="0.1710867893814777" rx="1"/><rect x="1517.7832794953586" y="788.3940514739124" width="7.105589779816938" height="7.444956971668861" fill="#f72585" opacity="0.08554339469073885" rx="1"/><rect x="1531.5927665474594" y="832.132209274483" width="4.790385388021913" height="9.52621838905062" fill="#b5179e" opacity="0.2934970254529028" rx="1"/><rect x="1518.940881691256" y="836.8953184690083" width="4.790385388021913" height="9.52621838905062" fill="#f72585" opacity="0.1467485127264514" rx="1"/><rect x="1530.527027517193" y="879.5928455608881" width="6.921863448555084" height="9.284961861391775" fill="#b5179e" opacity="0.5548498463013326" rx="1"/><rect x="1517.8751426609895" y="884.235326491584" width="6.921863448555084" height="9.284961861391775" fill="#f72585" opacity="0.2774249231506663" rx="1"/><rect x="1530.8182094960302" y="927.0534818472931" width="6.339499490880291" height="7.548788078489897" fill="#b5179e" opacity="0.21747817907423672" rx="1"/><rect x="1518.1663246398268" y="930.8278758865381" width="6.339499490880291" height="7.548788078489897" fill="#f72585" opacity="0.10873908953711836" rx="1"/><rect x="1593.7223396442016" y="712.8381231713197" width="42.95207170139814" height="251.6759949623784" fill="#200089" opacity="0.574184975185009" rx="2"/><rect x="1610.8353259033902" y="722.8381231713197" width="8.726099183020672" height="7.435352189800551" fill="#b5179e" opacity="0.31620524027762126" rx="1"/><rect x="1600.0973079780408" y="726.55579926622" width="8.726099183020672" height="7.435352189800551" fill="#f72585" opacity="0.15810262013881063" rx="1"/><rect x="1612.4866034654467" y="806.7301214921125" width="5.423544058907671" height="9.690649135897553" fill="#b5179e" opacity="0.33776195832476064" rx="1"/><rect x="1601.7485855400973" y="811.5754460600613" width="5.423544058907671" height="9.690649135897553" fill="#f72585" opacity="0.16888097916238032" rx="1"/><rect x="1612.5885736360951" y="890.6221198129053" width="5.219603717611079" height="9.246288738969316" fill="#b5179e" opacity="0.4517790928836397" rx="1"/><rect x="1601.8505557107458" y="895.24526418239" width="5.219603717611079" height="9.246288738969316" fill="#f72585" opacity="0.22588954644181986" rx="1"/><rect x="1672.1390070874907" y="824.878690409213" width="42.65401295680879" height="139.63542772448514" fill="#3a0ca3" opacity="0.4627534234809581" rx="2"/><rect x="1688.5900026359911" y="834.878690409213" width="9.752021859807899" height="8.927506351593767" fill="#b5179e" opacity="0.27874516352981915" rx="1"/><rect x="1677.9264993967888" y="839.34244358501" width="9.752021859807899" height="8.927506351593767" fill="#f72585" opacity="0.13937258176490958" rx="1"/><rect x="1691.2245414873516" y="862.8057759541101" width="4.482944157086998" height="7.614254398647289" fill="#b5179e" opacity="0.4646997799781849" rx="1"/><rect x="1680.5610382481493" y="866.6129031534338" width="4.482944157086998" height="7.614254398647289" fill="#f72585" opacity="0.23234988998909245" rx="1"/><rect x="1690.4239764828164" y="890.7328614990071" width="6.084074166157301" height="9.660889302301428" fill="#b5179e" opacity="0.3260424233335169" rx="1"/><rect x="1679.7604732436141" y="895.5633061501578" width="6.084074166157301" height="9.660889302301428" fill="#f72585" opacity="0.16302121166675845" rx="1"/><rect x="1690.0023264250597" y="918.6599470439041" width="6.927374281670753" height="8.019922819458861" fill="#b5179e" opacity="0.13813082911961966" rx="1"/><rect x="1679.3388231858573" y="922.6699084536335" width="6.927374281670753" height="8.019922819458861" fill="#f72585" opacity="0.06906541455980983" rx="1"/><rect x="1691.3479652835274" y="946.5870325888012" width="4.236096564735308" height="9.920150288362091" fill="#b5179e" opacity="0.47011593775127924" rx="1"/><rect x="1680.684462044325" y="951.5471077329822" width="4.236096564735308" height="9.920150288362091" fill="#f72585" opacity="0.23505796887563962" rx="1"/><rect x="1753.3472108328042" y="586.0578937772796" width="40.60200775289023" height="378.45622435641855" fill="#3a0ca3" opacity="0.4898336737393014" rx="2"/><rect x="1769.0656708139993" y="596.0578937772796" width="9.165087790499694" height="6.068474117682426" fill="#b5179e" opacity="0.19625527206721138" rx="1"/><rect x="1758.9151688757768" y="599.0921308361208" width="9.165087790499694" height="6.068474117682426" fill="#f72585" opacity="0.09812763603360569" rx="1"/><rect x="1769.675024131089" y="671.7491386485633" width="7.946381156320307" height="9.970745362334593" fill="#b5179e" opacity="0.18060364694814285" rx="1"/><rect x="1759.5245221928665" y="676.7345113297306" width="7.946381156320307" height="9.970745362334593" fill="#f72585" opacity="0.09030182347407142" rx="1"/><rect x="1769.2104086155477" y="747.440383519847" width="8.875612187403163" height="9.432846463153336" fill="#b5179e" opacity="0.17810605540361862" rx="1"/><rect x="1759.0599066773252" y="752.1568067514237" width="8.875612187403163" height="9.432846463153336" fill="#f72585" opacity="0.08905302770180931" rx="1"/><rect x="1771.1107340372341" y="823.1316283911307" width="5.074961344030444" height="7.558856445727604" fill="#b5179e" opacity="0.15854364392779388" rx="1"/><rect x="1760.9602320990116" y="826.9110566139944" width="5.074961344030444" height="7.558856445727604" fill="#f72585" opacity="0.07927182196389694" rx="1"/><rect x="1770.8219697187155" y="898.8228732624144" width="5.652489981067481" height="9.846373300032312" fill="#b5179e" opacity="0.5234804480624107" rx="1"/><rect x="1760.671467780493" y="903.7460599124306" width="5.652489981067481" height="9.846373300032312" fill="#f72585" opacity="0.26174022403120534" rx="1"/><rect x="1850.5074574492614" y="617.6441752742148" width="66.45570187746912" height="346.8699428594834" fill="#3a0ca3" opacity="0.4372398043603729" rx="2"/><rect x="1881.3265517872078" y="627.6441752742148" width="4.817513201576078" height="9.685402050541109" fill="#b5179e" opacity="0.5089822408065624" rx="1"/><rect x="1864.7126263178407" y="632.4868762994854" width="4.817513201576078" height="9.685402050541109" fill="#f72585" opacity="0.2544911204032812" rx="1"/><rect x="1879.2764312318661" y="671.0029181316503" width="8.917754312259554" height="8.956497166062821" fill="#b5179e" opacity="0.19889561964638897" rx="1"/><rect x="1862.662505762499" y="675.4811667146816" width="8.917754312259554" height="8.956497166062821" fill="#f72585" opacity="0.09944780982319448" rx="1"/><rect x="1878.3068147691638" y="714.3616609890856" width="10.85698723766417" height="9.128496498597901" fill="#b5179e" opacity="0.5598197090578777" rx="1"/><rect x="1861.6928892997967" y="718.9259092383846" width="10.85698723766417" height="9.128496498597901" fill="#f72585" opacity="0.27990985452893885" rx="1"/><rect x="1877.7888085057425" y="757.7204038465211" width="11.89299976450694" height="9.04718948785383" fill="#b5179e" opacity="0.14663166335006983" rx="1"/><rect x="1861.1748830363754" y="762.243998590448" width="11.89299976450694" height="9.04718948785383" fill="#f72585" opacity="0.07331583167503491" rx="1"/><rect x="1879.424828627288" y="801.0791467039566" width="8.620959521415866" height="6.6825027364963905" fill="#b5179e" opacity="0.47386272914564764" rx="1"/><rect x="1862.8109031579208" y="804.4203980722048" width="8.620959521415866" height="6.6825027364963905" fill="#f72585" opacity="0.23693136457282382" rx="1"/><rect x="1878.4285138779344" y="844.437889561392" width="10.613589020123143" height="9.327044988825694" fill="#b5179e" opacity="0.5004345098278565" rx="1"/><rect x="1861.8145884085673" y="849.1014120558049" width="10.613589020123143" height="9.327044988825694" fill="#f72585" opacity="0.25021725491392827" rx="1"/><rect x="1878.9718035450562" y="887.7966324188274" width="9.527009685879342" height="7.716113659952794" fill="#b5179e" opacity="0.1441958968397686" rx="1"/><rect x="1862.357878075689" y="891.6546892488037" width="9.527009685879342" height="7.716113659952794" fill="#f72585" opacity="0.0720979484198843" rx="1"/><rect x="1878.187359319853" y="931.1553752762628" width="11.095898136286042" height="9.302329448820634" fill="#b5179e" opacity="0.2009941643804764" rx="1"/><rect x="1861.5734338504858" y="935.8065400006732" width="11.095898136286042" height="9.302329448820634" fill="#f72585" opacity="0.1004970821902382" rx="1"/><path d="M333.5835506798661 814.5911834935172 Q325.06449089969146 698.5567701162204 323.3606789436565 582.5223567389237" stroke="#000056" stroke-width="5.814102254299005" fill="none" stroke-linecap="round"/><path d="M323.3606789436565 582.5223567389237 Q364.5238819628777 562.5223567389237 392.23097851365594 582.5223567389237" stroke="#070070" stroke-width="2.6604437140422976" fill="none" stroke-linecap="round" opacity="0.6"/><path d="M323.3606789436565 582.5223567389237 Q346.0409994406403 567.9028273638683 351.96589323070197 593.2832979888129" stroke="#070070" stroke-width="2.150314690114538" fill="none" stroke-linecap="round" opacity="0.6"/><path d="M323.3606789436565 582.5223567389237 Q327.5205839379451 569.1726856789942 313.24138438952957 595.8230146190646" stroke="#070070" stroke-width="3.0258134130914263" fill="none" stroke-linecap="round" opacity="0.6"/><path d="M323.3606789436565 582.5223567389237 Q305.788972664468 565.3544249237475 284.1550110614004 588.1864931085713" stroke="#070070" stroke-width="3.521804426685396" fill="none" stroke-linecap="round" opacity="0.6"/><path d="M323.3606789436565 582.5223567389237 Q294.45303548120916 557.9426633106781 259.961802987032 573.3629698824325" stroke="#070070" stroke-width="2.471706653123653" fill="none" stroke-linecap="round" opacity="0.6"/><path d="M1552.756847355691 897.3360442084577 Q1558.6998884330271 839.3277627973183 1559.8884966484943 781.319481386179" stroke="#000056" stroke-width="5.973556715523255" fill="none" stroke-linecap="round"/><path d="M1559.8884966484943 781.319481386179 Q1588.018412733222 761.319481386179 1598.034535837368 781.319481386179" stroke="#070070" stroke-width="2.952152345085552" fill="none" stroke-linecap="round" opacity="0.6"/><path d="M1559.8884966484943 781.319481386179 Q1577.160857498883 765.4842263967266 1582.030318764445 789.6489714072744" stroke="#070070" stroke-width="2.033015250701694" fill="none" stroke-linecap="round" opacity="0.6"/><path d="M1559.8884966484943 781.319481386179 Q1566.2927867493356 772.7057152246185 1542.5629395051333 804.0919490630581" stroke="#070070" stroke-width="3.9853429952602237" fill="none" stroke-linecap="round" opacity="0.6"/><path d="M1559.8884966484943 781.319481386179 Q1533.6905362565212 766.0008454763456 1495.0821453259848 790.6822095665123" stroke="#070070" stroke-width="2.7731192365226147" fill="none" stroke-linecap="round" opacity="0.6"/><path d="M1559.8884966484943 781.319481386179 Q1545.9175102952186 758.512073384348 1521.0242114170926 775.7046653825171" stroke="#070070" stroke-width="3.7865902175629955" fill="none" stroke-linecap="round" opacity="0.6"/><path d="M1559.8884966484943 781.319481386179 Q1563.8491335522126 755.18531721371 1550.5546103604684 769.0511530412412" stroke="#070070" stroke-width="2.2370064841203874" fill="none" stroke-linecap="round" opacity="0.6"/><path d="M1559.8884966484943 781.319481386179 Q1596.3245229960844 754.955797675512 1593.7209527453028 768.5921139648451" stroke="#070070" stroke-width="3.6449446267553007" fill="none" stroke-linecap="round" opacity="0.6"/><path d="M949.5932183390468 813.7027439460397 Q943.8230129153987 689.8914275783792 942.6689718306691 566.0801112107188" stroke="#000056" stroke-width="4.006806713530516" fill="none" stroke-linecap="round"/><path d="M942.6689718306691 566.0801112107188 Q976.5887506621864 546.0801112107188 985.0544510313903 566.0801112107188" stroke="#070070" stroke-width="3.1270431403832144" fill="none" stroke-linecap="round" opacity="0.6"/><path d="M942.6689718306691 566.0801112107188 Q971.9770580096496 553.9871883676137 984.7068626070936 581.8942655245087" stroke="#070070" stroke-width="3.750485952885469" fill="none" stroke-linecap="round" opacity="0.6"/><path d="M942.6689718306691 566.0801112107188 Q939.7927702304505 556.5981719416837 926.6644469967888 587.1162326726487" stroke="#070070" stroke-width="3.414074327660276" fill="none" stroke-linecap="round" opacity="0.6"/><path d="M942.6689718306691 566.0801112107188 Q912.317446447531 551.0042078332474 874.502358527533 575.9283044557761" stroke="#070070" stroke-width="3.517628481033637" fill="none" stroke-linecap="round" opacity="0.6"/><path d="M942.6689718306691 566.0801112107188 Q926.8993555360444 541.128721361424 874.1245253984584 556.1773315121293" stroke="#070070" stroke-width="3.2241918461453616" fill="none" stroke-linecap="round" opacity="0.6"/><path d="M942.6689718306691 566.0801112107188 Q940.0952020732612 540.7957588264878 934.6281788434774 555.5114064422569" stroke="#070070" stroke-width="2.469319367424892" fill="none" stroke-linecap="round" opacity="0.6"/><path d="M560.4259936326243 900.6114592777126 Q574.634161739292 807.15622840383 577.4757953606256 713.7009975299475" stroke="#000056" stroke-width="4.345542275427269" fill="none" stroke-linecap="round"/><path d="M577.4757953606256 713.7009975299475 Q614.0268986153013 693.7009975299475 643.0181062596427 713.7009975299475" stroke="#070070" stroke-width="3.99722917284752" fill="none" stroke-linecap="round" opacity="0.6"/><path d="M577.4757953606256 713.7009975299475 Q603.3236646977338 700.5104044914881 613.677934333287 727.3198114530286" stroke="#070070" stroke-width="2.585470583426177" fill="none" stroke-linecap="round" opacity="0.6"/><path d="M577.4757953606256 713.7009975299475 Q580.6525252377861 701.9691025492608 564.8948552524209 730.2372075685741" stroke="#070070" stroke-width="2.733204822226708" fill="none" stroke-linecap="round" opacity="0.6"/><path d="M577.4757953606256 713.7009975299475 Q546.3283128309812 698.6416897310469 509.0794415642194 723.5823819321462" stroke="#070070" stroke-width="2.716444853394396" fill="none" stroke-linecap="round" opacity="0.6"/><path d="M577.4757953606256 713.7009975299475 Q558.3354765381616 689.6843061453087 521.8708246697576 705.6676147606698" stroke="#070070" stroke-width="2.0901719178283056" fill="none" stroke-linecap="round" opacity="0.6"/><path d="M577.4757953606256 713.7009975299475 Q576.0831490341545 683.1499814025797 561.4211248322459 692.5989652752118" stroke="#070070" stroke-width="2.2102259705332634" fill="none" stroke-linecap="round" opacity="0.6"/><path d="M767.8699656128581 892.6818993391194 Q762.8974748642411 797.0926228380046 761.9029767145178 701.5033463368898" stroke="#000056" stroke-width="4.00212776381572" fill="none" stroke-linecap="round"/><path d="M761.9029767145178 701.5033463368898 Q812.9584375256577 681.5033463368898 826.9713733645556 701.5033463368898" stroke="#070070" stroke-width="3.0522285306482178" fill="none" stroke-linecap="round" opacity="0.6"/><path d="M761.9029767145178 701.5033463368898 Q783.0255716701075 685.0275626285569 780.6394347763202 708.551778920224" stroke="#070070" stroke-width="3.512683056181456" fill="none" stroke-linecap="round" opacity="0.6"/><path d="M761.9029767145178 701.5033463368898 Q765.6454697403286 690.7307367027431 747.862365803474 719.9581270685966" stroke="#070070" stroke-width="3.842408837713862" fill="none" stroke-linecap="round" opacity="0.6"/><path d="M761.9029767145178 701.5033463368898 Q755.8658335658897 685.2118036425987 710.5650370906535 708.9202609483077" stroke="#070070" stroke-width="2.6624091399513206" fill="none" stroke-linecap="round" opacity="0.6"/><path d="M761.9029767145178 701.5033463368898 Q745.5401445985875 678.8304451165776 724.9007328818341 696.1575438962655" stroke="#070070" stroke-width="2.1635312224187726" fill="none" stroke-linecap="round" opacity="0.6"/><path d="M761.9029767145178 701.5033463368898 Q758.180282231286 673.7701357001413 750.1359442883687 686.0369250633927" stroke="#070070" stroke-width="2.7992812210692284" fill="none" stroke-linecap="round" opacity="0.6"/><path d="M761.9029767145178 701.5033463368898 Q792.1524182348779 672.7588178911024 808.3931682734559 684.0142894453148" stroke="#070070" stroke-width="2.8861034896425215" fill="none" stroke-linecap="round" opacity="0.6"/><rect x="0" y="1000" width="1920" height="80" fill="#14007d" opacity="0.8"/><line x1="0" y1="1040" x2="1920" y2="1040" stroke="#b5179e" stroke-opacity="0.15" stroke-width="2" stroke-dasharray="30,20"/><rect x="0" y="930" width="1920" height="150" fill="url(#glow32)"/><rect x="0" y="980" width="1920" height="100" fill="#b5179e" opacity="0.04"/><rect x="1239.616140266791" y="1007.6412938692703" width="43.383403481772035" height="2" fill="#f72585" opacity="0.02479687144160198" rx="1"/><rect x="2.7335733181642308" y="1014.1973143802484" width="33.09681127618458" height="2" fill="#f72585" opacity="0.031785580267148464" rx="1"/><rect x="539.593282467591" y="1038.299244721024" width="22.712596767282253" height="2" fill="#f72585" opacity="0.049374606942146695" rx="1"/><rect x="1154.2091683750527" y="1033.626985632262" width="105.3433895822017" height="2" fill="#f72585" opacity="0.023711691220223832" rx="1"/><rect x="1791.0289366243007" y="1022.6649448095507" width="103.1887978322778" height="2" fill="#f72585" opacity="0.025258125310125324" rx="1"/><rect x="851.4850645259687" y="1048.2771117818256" width="24.901471758471214" height="2" fill="#f72585" opacity="0.03981641510962891" rx="1"/><rect x="1006.5782343704668" y="1012.6154372172" width="94.87753410238716" height="2" fill="#f72585" opacity="0.04565298912712675" rx="1"/><rect x="713.0300668052002" y="1043.9258126411414" width="114.98371917171956" height="2" fill="#f72585" opacity="0.04173354997805635" rx="1"/><rect x="1473.0170925410969" y="1002.5839189213198" width="52.51224451989686" height="2" fill="#f72585" opacity="0.035151100776891944" rx="1"/><rect x="1079.7395090292532" y="1005.1932449418105" width="89.05093958346427" height="2" fill="#f72585" opacity="0.02138229524748919" rx="1"/><rect x="7.759754957575293" y="1057.1871726999962" width="91.58947130003699" height="2" fill="#f72585" opacity="0.022125101276236844" rx="1"/><rect x="420.5875281478715" y="1005.5431166443841" width="86.9585763632689" height="2" fill="#f72585" opacity="0.05960040840310986" rx="1"/><rect x="639.4825352727162" y="1019.3508157877602" width="104.66937697601257" height="2" fill="#f72585" opacity="0.02469214437638692" rx="1"/><rect x="1233.8545630764809" y="1002.1197031815815" width="27.346351190317968" height="2" fill="#f72585" opacity="0.05991115781476515" rx="1"/><rect x="542.249865211139" y="1057.41228863071" width="47.39010593560294" height="2" fill="#f72585" opacity="0.05488208380408634" rx="1"/><rect x="1136.0622197054472" y="1044.8148836253245" width="23.378342628334263" height="2" fill="#f72585" opacity="0.03631307083561855" rx="1"/><rect x="1128.6270500367104" y="1024.8802647471614" width="93.54087994283552" height="2" fill="#f72585" opacity="0.04280513802142934" rx="1"/><rect x="1706.9667523603343" y="1017.0920062617147" width="31.626490254799485" height="2" fill="#f72585" opacity="0.05510651653518586" rx="1"/><rect x="363.2697666537179" y="1048.3309832095008" width="99.09299225525301" height="2" fill="#f72585" opacity="0.027531261920819818" rx="1"/><rect x="863.227468930005" y="1046.02272579121" width="74.80251001538767" height="2" fill="#f72585" opacity="0.047453905424907315" rx="1"/><rect x="524.755080017437" y="1053.0837815331956" width="88.12390668041164" height="2" fill="#f72585" opacity="0.027200523504801215" rx="1"/><rect x="1343.1465798763434" y="1048.1966645382802" width="37.18459341609491" height="2" fill="#f72585" opacity="0.026418483398486507" rx="1"/><rect x="1586.1159091410498" y="1019.7948551829427" width="48.687894630406035" height="2" fill="#f72585" opacity="0.02063331721365296" rx="1"/><rect x="223.2797577006928" y="1057.5958536652838" width="51.0220985047105" height="2" fill="#f72585" opacity="0.0451927619486099" rx="1"/><rect x="889.2871979459393" y="1011.317888710489" width="113.59247376993123" height="2" fill="#f72585" opacity="0.050255067579041954" rx="1"/><rect x="1623.7720664645944" y="1015.5144719443085" width="42.16019745035102" height="2" fill="#f72585" opacity="0.029594684208183245" rx="1"/><rect x="1055.7174278273521" y="1059.28399017064" width="101.44335131660182" height="2" fill="#f72585" opacity="0.025229539704795356" rx="1"/><rect x="1679.17218038793" y="1042.5359566515629" width="111.33609251383136" height="2" fill="#f72585" opacity="0.053725442680000665" rx="1"/><rect x="1148.790799050776" y="1057.8994025843915" width="21.928817551100817" height="2" fill="#f72585" opacity="0.053212617932169845" rx="1"/><rect x="1222.8675706551567" y="1007.6104914088758" width="71.82392319008333" height="2" fill="#f72585" opacity="0.04455991923449559" rx="1"/><text x="1900" y="1060" font-family="Arial, sans-serif" font-size="11" fill="#fff" opacity="0.08" text-anchor="end" letter-spacing="2">GTA 6 REWARDS · WALLPAPER 033</text>
</svg>