<?xml version="1.0" encoding="UTF-8"?>
<svg xmlns="http://www.w3.org/2000/svg" width="1920" height="1080" viewBox="0 0 1920 1080">
<defs>
    <linearGradient id="bg37" x1="0%" y1="0%" x2="0%" y2="100%">
      <stop offset="0%" stop-color="#2d1600"/>
      <stop offset="50%" stop-color="#000000"/>
      <stop offset="100%" stop-color="#2d1600"/>
    </linearGradient>
    <linearGradient id="sun37" x1="0%" y1="0%" x2="100%" y2="100%">
      <stop offset="0%" stop-color="#ff8700"/>
      <stop offset="100%" stop-color="#ff5e00"/>
    </linearGradient>
    <radialGradient id="glow37" cx="50%" cy="70%" r="50%">
      <stop offset="0%" stop-color="#ff8700" stop-opacity="0.3"/>
      <stop offset="100%" stop-color="#2d1600" stop-opacity="0"/>
    </radialGradient>
  </defs><rect width="1920" height="1080" fill="url(#bg37)"/><circle cx="1496.510130631856" cy="210.52436409763163" r="821.8208255529918" fill="#ff8700" opacity="0.06979614724866025"/><circle cx="1696.510130631856" cy="110.52436409763163" r="517.653540409555" fill="#ff5e00" opacity="0.0641231972198289"/><circle cx="1066.8719411750492" cy="298.8945266811397" r="98.33589409439264" fill="url(#sun37)" opacity="0.779900621222309"/><circle cx="1066.8719411750492" cy="298.8945266811397" r="93.33589409439264" fill="#2d1600" opacity="0.3"/><pattern id="scan37" width="1920" height="4" patternUnits="userSpaceOnUse">
      <line x1="0" y1="0" x2="1920" y2="0" stroke="#000" stroke-opacity="0.05" stroke-width="1"/>
    </pattern>
    <rect width="1920" height="1080" fill="url(#scan37)"/><rect x="27.785352989515605" y="499.88009949444796" width="82.95951390940684" height="368.41392434863695" fill="#130000" opacity="0.5801611080021041" rx="2"/><rect x="66.82960463497545" y="509.88009949444796" width="4.8710106184871425" height="7.897922142850683" fill="#ff5e00" opacity="0.17798367635765666" rx="1"/><rect x="46.08972615762374" y="513.8290605658733" width="4.8710106184871425" height="7.897922142850683" fill="#ff8700" opacity="0.08899183817882833" rx="1"/><rect x="64.62605986223231" y="562.5106601156818" width="9.278100163973425" height="7.221130672195258" fill="#ff5e00" opacity="0.4768704229446292" rx="1"/><rect x="43.8861813848806" y="566.1212254517794" width="9.278100163973425" height="7.221130672195258" fill="#ff8700" opacity="0.2384352114723146" rx="1"/><rect x="66.01499908022" y="615.1412207369157" width="6.500221727998047" height="8.66291335939032" fill="#ff5e00" opacity="0.3369941399053191" rx="1"/><rect x="45.275120602868284" y="619.4726774166108" width="6.500221727998047" height="8.66291335939032" fill="#ff8700" opacity="0.16849706995265956" rx="1"/><rect x="64.94768625915694" y="667.7717813581495" width="8.634847370124152" height="9.88258109145858" fill="#ff5e00" opacity="0.2795801148236683" rx="1"/><rect x="44.207807781805236" y="672.7130719038788" width="8.634847370124152" height="9.88258109145858" fill="#ff8700" opacity="0.13979005741183415" rx="1"/><rect x="65.82551461989654" y="720.4023419793833" width="6.879190648644974" height="8.095496206100913" fill="#ff5e00" opacity="0.16468799234477058" rx="1"/><rect x="45.08563614254482" y="724.4500900824338" width="6.879190648644974" height="8.095496206100913" fill="#ff8700" opacity="0.08234399617238529" rx="1"/><rect x="63.635302363111464" y="773.0329026006173" width="11.259615162215105" height="9.656580394985289" fill="#ff5e00" opacity="0.164043266597214" rx="1"/><rect x="42.895423885759755" y="777.8611927981099" width="11.259615162215105" height="9.656580394985289" fill="#ff8700" opacity="0.082021633298607" rx="1"/><rect x="66.37831622533926" y="825.6634632218511" width="5.773587437759523" height="8.284355918477372" fill="#ff5e00" opacity="0.44838496040282416" rx="1"/><rect x="45.63843774798755" y="829.8056411810898" width="5.773587437759523" height="8.284355918477372" fill="#ff8700" opacity="0.22419248020141208" rx="1"/><rect x="122.43287763382142" y="735.1332880289139" width="81.2875545470248" height="133.1607358141711" fill="#130000" opacity="0.6006987343776735" rx="2"/><rect x="158.80948354811628" y="745.1332880289139" width="8.534342718435067" height="9.962917759074578" fill="#ff5e00" opacity="0.5520398011552262" rx="1"/><rect x="138.48759491136008" y="750.1147469084511" width="8.534342718435067" height="9.962917759074578" fill="#ff8700" opacity="0.2760199005776131" rx="1"/><rect x="160.87474717476283" y="789.5201999669708" width="4.403815465141976" height="7.188399376624357" fill="#ff5e00" opacity="0.25423668435640556" rx="1"/><rect x="140.55285853800663" y="793.114399655283" width="4.403815465141976" height="7.188399376624357" fill="#ff8700" opacity="0.12711834217820278" rx="1"/><rect x="157.5131717381331" y="833.9071119050279" width="11.12696633840142" height="8.03893737821815" fill="#ff5e00" opacity="0.3055424100732297" rx="1"/><rect x="137.1912831013769" y="837.926580594137" width="11.12696633840142" height="8.03893737821815" fill="#ff8700" opacity="0.15277120503661484" rx="1"/><rect x="249.48855718818692" y="640.750470801897" width="74.64516130384177" height="227.54355304118795" fill="#130000" opacity="0.5375388863118223" rx="2"/><rect x="282.34045163852636" y="650.750470801897" width="8.941372403162852" height="7.0226782879379295" fill="#ff5e00" opacity="0.15807029876347406" rx="1"/><rect x="263.67916131256595" y="654.2618099458659" width="8.941372403162852" height="7.0226782879379295" fill="#ff8700" opacity="0.07903514938173703" rx="1"/><rect x="284.4843359653568" y="679.1934149320455" width="4.653603749501892" height="8.939852993688511" fill="#ff5e00" opacity="0.3398212109086619" rx="1"/><rect x="265.8230456393964" y="683.6633414288897" width="4.653603749501892" height="8.939852993688511" fill="#ff8700" opacity="0.16991060545433095" rx="1"/><rect x="283.4593995284427" y="707.636359062194" width="6.703476623330143" height="9.330963236124013" fill="#ff5e00" opacity="0.4989864532833421" rx="1"/><rect x="264.7981092024823" y="712.301840680256" width="6.703476623330143" height="9.330963236124013" fill="#ff8700" opacity="0.24949322664167106" rx="1"/><rect x="281.1758840280063" y="736.0793031923424" width="11.270507624202992" height="7.8393910810908745" fill="#ff5e00" opacity="0.3458084560338893" rx="1"/><rect x="262.5145937020459" y="739.9989987328879" width="11.270507624202992" height="7.8393910810908745" fill="#ff8700" opacity="0.17290422801694466" rx="1"/><rect x="284.3496723071089" y="764.522247322491" width="4.922931065997791" height="7.21210089260994" fill="#ff5e00" opacity="0.26352619141422357" rx="1"/><rect x="265.6883819811485" y="768.128297768796" width="4.922931065997791" height="7.21210089260994" fill="#ff8700" opacity="0.13176309570711178" rx="1"/><rect x="281.40761090358893" y="792.9651914526395" width="10.807053873037699" height="7.440118868239251" fill="#ff5e00" opacity="0.2360120317284046" rx="1"/><rect x="262.7463205776285" y="796.6852508867591" width="10.807053873037699" height="7.440118868239251" fill="#ff8700" opacity="0.1180060158642023" rx="1"/><rect x="283.27464464452925" y="821.408135582788" width="7.072986391157142" height="6.033387236304904" fill="#ff5e00" opacity="0.5624955940438657" rx="1"/><rect x="264.61335431856884" y="824.4248292009404" width="7.072986391157142" height="6.033387236304904" fill="#ff8700" opacity="0.28124779702193287" rx="1"/><rect x="281.9583218304809" y="849.8510797129364" width="9.705632019253827" height="6.045991241942623" fill="#ff5e00" opacity="0.11977546676522481" rx="1"/><rect x="263.2970315045205" y="852.8740753339077" width="9.705632019253827" height="6.045991241942623" fill="#ff8700" opacity="0.059887733382612406" rx="1"/><rect x="346.85678973953634" y="726.9304367659918" width="52.82361636004029" height="141.3635870770932" fill="#130000" opacity="0.4378440725938054" rx="2"/><rect x="367.37929033310604" y="736.9304367659918" width="11.778615172900867" height="9.201974900253576" fill="#ff5e00" opacity="0.30532873254393433" rx="1"/><rect x="354.17338624309593" y="741.5314242161186" width="11.778615172900867" height="9.201974900253576" fill="#ff8700" opacity="0.15266436627196717" rx="1"/><rect x="367.5025668052264" y="765.2031541814104" width="11.532062228660113" height="7.025646903790917" fill="#ff5e00" opacity="0.1714683474673583" rx="1"/><rect x="354.2966627152163" y="768.7159776333058" width="11.532062228660113" height="7.025646903790917" fill="#ff8700" opacity="0.08573417373367916" rx="1"/><rect x="370.71950977102847" y="793.475871596829" width="5.098176297056064" height="7.1543159264033465" fill="#ff5e00" opacity="0.36579383312859426" rx="1"/><rect x="357.51360568101836" y="797.0530295600307" width="5.098176297056064" height="7.1543159264033465" fill="#ff8700" opacity="0.18289691656429713" rx="1"/><rect x="367.96494262967377" y="821.7485890122477" width="10.607310579765429" height="6.338084791865685" fill="#ff5e00" opacity="0.25142021518000873" rx="1"/><rect x="354.75903853966366" y="824.9176314081806" width="10.607310579765429" height="6.338084791865685" fill="#ff8700" opacity="0.12571010759000437" rx="1"/><rect x="368.2944163692404" y="850.0213064276663" width="9.948363100632179" height="8.687713795967333" fill="#ff5e00" opacity="0.37027167828527086" rx="1"/><rect x="355.0885122792303" y="854.36516332565" width="9.948363100632179" height="8.687713795967333" fill="#ff8700" opacity="0.18513583914263543" rx="1"/><rect x="464.28613204375984" y="566.4875805882009" width="52.99679935979582" height="301.80644325488396" fill="#130000" opacity="0.5922137340046963" rx="2"/><rect x="487.9155228126132" y="576.4875805882009" width="5.738017822089144" height="7.197742516453784" fill="#ff5e00" opacity="0.537814726479774" rx="1"/><rect x="474.66632297266426" y="580.0864518464277" width="5.738017822089144" height="7.197742516453784" fill="#ff8700" opacity="0.268907363239887" rx="1"/><rect x="488.70387380470146" y="636.8488692391777" width="4.161315837912568" height="7.263079714324111" fill="#ff5e00" opacity="0.13883570538340967" rx="1"/><rect x="475.45467396475254" y="640.4804090963397" width="4.161315837912568" height="7.263079714324111" fill="#ff8700" opacity="0.06941785269170483" rx="1"/><rect x="488.32310597862187" y="697.2101578901545" width="4.922851490071707" height="6.837656017587905" fill="#ff5e00" opacity="0.3662969806153087" rx="1"/><rect x="475.07390613867295" y="700.6289858989485" width="4.922851490071707" height="6.837656017587905" fill="#ff8700" opacity="0.18314849030765434" rx="1"/><rect x="486.944859463243" y="757.5714465411313" width="7.679344520829465" height="6.045090549635955" fill="#ff5e00" opacity="0.22216371323963713" rx="1"/><rect x="473.6956596232941" y="760.5939918159493" width="7.679344520829465" height="6.045090549635955" fill="#ff8700" opacity="0.11108185661981856" rx="1"/><rect x="487.5791399103075" y="817.9327351921081" width="6.410783626700468" height="7.372011944039728" fill="#ff5e00" opacity="0.43114522796383714" rx="1"/><rect x="474.3299400703586" y="821.618741164128" width="6.410783626700468" height="7.372011944039728" fill="#ff8700" opacity="0.21557261398191857" rx="1"/><rect x="566.9597693828307" y="569.943317659186" width="46.69079533235421" height="298.35070618389886" fill="#130000" opacity="0.43067314858331185" rx="2"/><rect x="587.6554274360312" y="579.943317659186" width="5.299479225952989" height="8.878472215234877" fill="#ff5e00" opacity="0.11235304924481387" rx="1"/><rect x="575.9827286029428" y="584.3825537668035" width="5.299479225952989" height="8.878472215234877" fill="#ff8700" opacity="0.05617652462240694" rx="1"/><rect x="586.2339321489525" y="639.6134588959658" width="8.14246980011055" height="9.268754463472579" fill="#ff5e00" opacity="0.5823556413134456" rx="1"/><rect x="574.561233315864" y="644.247836127702" width="8.14246980011055" height="9.268754463472579" fill="#ff8700" opacity="0.2911778206567228" rx="1"/><rect x="587.100459558447" y="699.2836001327456" width="6.409414981121527" height="7.909187785794304" fill="#ff5e00" opacity="0.4608424230154703" rx="1"/><rect x="575.4277607253586" y="703.2381940256428" width="6.409414981121527" height="7.909187785794304" fill="#ff8700" opacity="0.23042121150773515" rx="1"/><rect x="585.4385174653582" y="758.9537413695253" width="9.733299167299014" height="9.717135864244106" fill="#ff5e00" opacity="0.5357438008151352" rx="1"/><rect x="573.7658186322698" y="763.8123093016474" width="9.733299167299014" height="9.717135864244106" fill="#ff8700" opacity="0.2678719004075676" rx="1"/><rect x="587.4497495057177" y="818.6238826063052" width="5.7108350865800945" height="8.05755134161039" fill="#ff5e00" opacity="0.37284946380482276" rx="1"/><rect x="575.7770506726292" y="822.6526582771104" width="5.7108350865800945" height="8.05755134161039" fill="#ff8700" opacity="0.18642473190241138" rx="1"/><rect x="687.7719008661277" y="618.6062382461051" width="62.354420561425954" height="249.68778559697975" fill="#2d1600" opacity="0.5124931717786224" rx="2"/><rect x="714.0233245317414" y="628.6062382461051" width="9.851573230198486" height="6.871059728057836" fill="#ff5e00" opacity="0.24048342398379077" rx="1"/><rect x="698.4347193913849" y="632.0417681101341" width="9.851573230198486" height="6.871059728057836" fill="#ff8700" opacity="0.12024171199189539" rx="1"/><rect x="716.2819212654798" y="664.2759219028165" width="5.334379762721802" height="9.403648434999317" fill="#ff5e00" opacity="0.36246836997160414" rx="1"/><rect x="700.6933161251233" y="668.9777461203162" width="5.334379762721802" height="9.403648434999317" fill="#ff8700" opacity="0.18123418498580207" rx="1"/><rect x="713.2421853542893" y="699.945605559528" width="11.413851585102698" height="9.962973585343681" fill="#ff5e00" opacity="0.2116999363553943" rx="1"/><rect x="697.6535802139327" y="704.9270923521998" width="11.413851585102698" height="9.962973585343681" fill="#ff8700" opacity="0.10584996817769715" rx="1"/><rect x="716.9062075856856" y="735.6152892162393" width="4.085807122310113" height="6.457955014067226" fill="#ff5e00" opacity="0.4808121088381885" rx="1"/><rect x="701.317602445329" y="738.8442667232729" width="4.085807122310113" height="6.457955014067226" fill="#ff8700" opacity="0.24040605441909424" rx="1"/><rect x="713.5397358696304" y="771.2849728729507" width="10.818750554420696" height="6.892090567595346" fill="#ff5e00" opacity="0.5972580703900331" rx="1"/><rect x="697.9511307292738" y="774.7310181567484" width="10.818750554420696" height="6.892090567595346" fill="#ff8700" opacity="0.29862903519501655" rx="1"/><rect x="713.3162827706702" y="806.9546565296621" width="11.265656752340881" height="8.91591224514784" fill="#ff5e00" opacity="0.45840461702514546" rx="1"/><rect x="697.7276776303137" y="811.412612652236" width="11.265656752340881" height="8.91591224514784" fill="#ff8700" opacity="0.22920230851257273" rx="1"/><rect x="716.1752604197654" y="842.6243401863735" width="5.547701454150421" height="7.563862584895422" fill="#ff5e00" opacity="0.26459045842396806" rx="1"/><rect x="700.5866552794089" y="846.4062714788212" width="5.547701454150421" height="7.563862584895422" fill="#ff8700" opacity="0.13229522921198403" rx="1"/><rect x="816.1631666813424" y="583.1107812777885" width="53.832596336452426" height="285.1832425652964" fill="#2d1600" opacity="0.6848373432142747" rx="2"/><rect x="840.7347599262685" y="593.1107812777885" width="4.689409846600474" height="7.0154470384622565" fill="#ff5e00" opacity="0.29320864467723495" rx="1"/><rect x="827.2766108421553" y="596.6185047970197" width="4.689409846600474" height="7.0154470384622565" fill="#ff8700" opacity="0.14660432233861748" rx="1"/><rect x="839.6292196746517" y="633.8512445014023" width="6.900490349833968" height="9.201062050462017" fill="#ff5e00" opacity="0.5066055144431548" rx="1"/><rect x="826.1710705905385" y="638.4517755266334" width="6.900490349833968" height="9.201062050462017" fill="#ff8700" opacity="0.2533027572215774" rx="1"/><rect x="838.1996707588432" y="674.591707725016" width="9.759588181450866" height="8.87175833221333" fill="#ff5e00" opacity="0.40038034352482765" rx="1"/><rect x="824.74152167473" y="679.0275868911227" width="9.759588181450866" height="8.87175833221333" fill="#ff8700" opacity="0.20019017176241383" rx="1"/><rect x="838.748414402769" y="715.3321709486298" width="8.66210089359947" height="8.11587708772064" fill="#ff5e00" opacity="0.31312090573206564" rx="1"/><rect x="825.2902653186558" y="719.3901094924902" width="8.66210089359947" height="8.11587708772064" fill="#ff8700" opacity="0.15656045286603282" rx="1"/><rect x="838.7746441531401" y="756.0726341722436" width="8.609641392857219" height="9.176368292229336" fill="#ff5e00" opacity="0.28967588972059916" rx="1"/><rect x="825.3164950690269" y="760.6608183183583" width="8.609641392857219" height="9.176368292229336" fill="#ff8700" opacity="0.14483794486029958" rx="1"/><rect x="839.4393687798732" y="796.8130973958573" width="7.2801921393909" height="6.028759006417533" fill="#ff5e00" opacity="0.11255095331290527" rx="1"/><rect x="825.98121969576" y="799.827476899066" width="7.2801921393909" height="6.028759006417533" fill="#ff8700" opacity="0.05627547665645263" rx="1"/><rect x="840.4265714104814" y="837.5535606194711" width="5.305786878174587" height="9.887423367213323" fill="#ff5e00" opacity="0.451127499796247" rx="1"/><rect x="826.9684223263682" y="842.4972723030778" width="5.305786878174587" height="9.887423367213323" fill="#ff8700" opacity="0.2255637498981235" rx="1"/><rect x="931.0786266208344" y="764.6690732600794" width="85.86505909819739" height="103.62495058300554" fill="#2d1600" opacity="0.6889646213941659" rx="2"/><rect x="970.9369846423941" y="774.6690732600794" width="6.148343055077908" height="9.736093067502624" fill="#ff5e00" opacity="0.12294222475563694" rx="1"/><rect x="949.4707198678448" y="779.5371197938307" width="6.148343055077908" height="9.736093067502624" fill="#ff8700" opacity="0.06147111237781847" rx="1"/><rect x="969.9295691994321" y="791.939898357247" width="8.163173941002036" height="8.380993999163852" fill="#ff5e00" opacity="0.5438371658194431" rx="1"/><rect x="948.4633044248827" y="796.1303953568289" width="8.163173941002036" height="8.380993999163852" fill="#ff8700" opacity="0.27191858290972154" rx="1"/><rect x="970.616434395224" y="809.2107234544145" width="6.789443549418227" height="9.967643679112113" fill="#ff5e00" opacity="0.15726873841073102" rx="1"/><rect x="949.1501696206747" y="814.1945452939706" width="6.789443549418227" height="9.967643679112113" fill="#ff8700" opacity="0.07863436920536551" rx="1"/><rect x="968.8217295896778" y="826.4815485515821" width="10.378853160510504" height="7.478851434187696" fill="#ff5e00" opacity="0.532919162426358" rx="1"/><rect x="947.3554648151285" y="830.220974268676" width="10.378853160510504" height="7.478851434187696" fill="#ff8700" opacity="0.266459581213179" rx="1"/><rect x="970.886340020198" y="843.7523736487498" width="6.249632299470164" height="7.673155491629885" fill="#ff5e00" opacity="0.5123561579995687" rx="1"/><rect x="949.4200752456486" y="847.5889513945647" width="6.249632299470164" height="7.673155491629885" fill="#ff8700" opacity="0.25617807899978434" rx="1"/><rect x="971.5258299299809" y="861.0231987459173" width="4.97065247990439" height="7.089593732983245" fill="#ff5e00" opacity="0.41186317589875854" rx="1"/><rect x="950.0595651554315" y="864.5679956124089" width="4.97065247990439" height="7.089593732983245" fill="#ff8700" opacity="0.20593158794937927" rx="1"/><rect x="1027.1579643518567" y="606.5331891776373" width="32.86133524562729" height="261.76083466544765" fill="#130000" opacity="0.5564471128993778" rx="2"/><rect x="1037.9902556335996" y="616.5331891776373" width="11.196752682141204" height="6.205200842629466" fill="#ff5e00" opacity="0.19307745683311428" rx="1"/><rect x="1029.7749218221927" y="619.635789598952" width="11.196752682141204" height="6.205200842629466" fill="#ff8700" opacity="0.09653872841655714" rx="1"/><rect x="1039.6671686327707" y="681.9733978439992" width="7.842926683799114" height="8.38071308247296" fill="#ff5e00" opacity="0.11941252779667558" rx="1"/><rect x="1031.4518348213637" y="686.1637543852357" width="7.842926683799114" height="8.38071308247296" fill="#ff8700" opacity="0.05970626389833779" rx="1"/><rect x="1038.773178950365" y="747.4136065103611" width="9.630906048610552" height="7.919036814458444" fill="#ff5e00" opacity="0.1889368675623408" rx="1"/><rect x="1030.557845138958" y="751.3731249175903" width="9.630906048610552" height="7.919036814458444" fill="#ff8700" opacity="0.0944684337811704" rx="1"/><rect x="1039.5280432986394" y="812.853815176723" width="8.12117735206177" height="6.325425111764442" fill="#ff5e00" opacity="0.42585594019057604" rx="1"/><rect x="1031.3127094872325" y="816.0165277326051" width="8.12117735206177" height="6.325425111764442" fill="#ff8700" opacity="0.21292797009528802" rx="1"/><rect x="1147.0809827388919" y="587.6835076691777" width="64.04129517125928" height="280.6105161739072" fill="#2d1600" opacity="0.4979134769174069" rx="2"/><rect x="1175.5736786803634" y="597.6835076691777" width="7.0559032883159585" height="7.538353938036215" fill="#ff5e00" opacity="0.2911844452124053" rx="1"/><rect x="1159.5633548875487" y="601.4526846381958" width="7.0559032883159585" height="7.538353938036215" fill="#ff8700" opacity="0.14559222260620264" rx="1"/><rect x="1174.083940801463" y="691.2203463938134" width="10.03537904611681" height="7.439097246490209" fill="#ff5e00" opacity="0.14888703617008567" rx="1"/><rect x="1158.0736170086484" y="694.9398950170586" width="10.03537904611681" height="7.439097246490209" fill="#ff8700" opacity="0.07444351808504283" rx="1"/><rect x="1176.6175066399428" y="784.7571851184492" width="4.968247369157208" height="9.859365632724801" fill="#ff5e00" opacity="0.17698056022100628" rx="1"/><rect x="1160.6071828471281" y="789.6868679348116" width="4.968247369157208" height="9.859365632724801" fill="#ff8700" opacity="0.08849028011050314" rx="1"/><rect x="1251.5014709768589" y="757.7305558155595" width="43.86573580416518" height="110.56346802752546" fill="#2d1600" opacity="0.682890650742429" rx="2"/><rect x="1269.396966535225" y="767.7305558155595" width="8.074744687433062" height="8.769199231352935" fill="#ff5e00" opacity="0.21690243522564473" rx="1"/><rect x="1258.4305325841838" y="772.115155431236" width="8.074744687433062" height="8.769199231352935" fill="#ff8700" opacity="0.10845121761282236" rx="1"/><rect x="1269.2608298822913" y="804.5850451580679" width="8.347017993299993" height="9.964973959132324" fill="#ff5e00" opacity="0.1203649493680254" rx="1"/><rect x="1258.2943959312502" y="809.5675321376341" width="8.347017993299993" height="9.964973959132324" fill="#ff8700" opacity="0.0601824746840127" rx="1"/><rect x="1270.3331321392518" y="841.4395345005764" width="6.202413479379009" height="7.594933722539556" fill="#ff5e00" opacity="0.21333590818413906" rx="1"/><rect x="1259.3666981882106" y="845.2370013618462" width="6.202413479379009" height="7.594933722539556" fill="#ff8700" opacity="0.10666795409206953" rx="1"/><rect x="1376.8195936542052" y="517.2457270480799" width="42.504715726828366" height="351.04829679500506" fill="#130000" opacity="0.4466860179898064" rx="2"/><rect x="1392.6993563379392" y="527.2457270480799" width="10.745190359359885" height="8.578129322868335" fill="#ff5e00" opacity="0.38133720131156434" rx="1"/><rect x="1382.0731774062322" y="531.534791709514" width="10.745190359359885" height="8.578129322868335" fill="#ff8700" opacity="0.19066860065578217" rx="1"/><rect x="1395.8355139668183" y="577.3954837330806" width="4.472875101601908" height="9.671723885385255" fill="#ff5e00" opacity="0.3367430027194188" rx="1"/><rect x="1385.2093350351113" y="582.2313456757732" width="4.472875101601908" height="9.671723885385255" fill="#ff8700" opacity="0.1683715013597094" rx="1"/><rect x="1395.8854475000142" y="627.5452404180813" width="4.373008035210196" height="8.552405045962056" fill="#ff5e00" opacity="0.20131560477924432" rx="1"/><rect x="1385.259268568307" y="631.8214429410624" width="4.373008035210196" height="8.552405045962056" fill="#ff8700" opacity="0.10065780238962216" rx="1"/><rect x="1392.524831268826" y="677.694997103082" width="11.094240497586839" height="6.016454097818689" fill="#ff5e00" opacity="0.42820899175205474" rx="1"/><rect x="1381.8986523371188" y="680.7032241519913" width="11.094240497586839" height="6.016454097818689" fill="#ff8700" opacity="0.21410449587602737" rx="1"/><rect x="1393.5599214221725" y="727.8447537880827" width="9.024060190893724" height="6.390884012074881" fill="#ff5e00" opacity="0.2824443348875373" rx="1"/><rect x="1382.9337424904654" y="731.0401957941201" width="9.024060190893724" height="6.390884012074881" fill="#ff8700" opacity="0.14122216744376864" rx="1"/><rect x="1394.3214167815916" y="777.9945104730834" width="7.5010694720552" height="7.717059886482791" fill="#ff5e00" opacity="0.2043622687236318" rx="1"/><rect x="1383.6952378498845" y="781.8530404163248" width="7.5010694720552" height="7.717059886482791" fill="#ff8700" opacity="0.1021811343618159" rx="1"/><rect x="1393.6619197653285" y="828.1442671580842" width="8.820063504581356" height="9.686541028247806" fill="#ff5e00" opacity="0.3467676570515073" rx="1"/><rect x="1383.0357408336215" y="832.9875376722081" width="8.820063504581356" height="9.686541028247806" fill="#ff8700" opacity="0.17338382852575365" rx="1"/><rect x="1491.6826984173808" y="788.0958765601031" width="78.06054257044116" height="80.19814728298181" fill="#2d1600" opacity="0.40771957992290137" rx="2"/><rect x="1527.1076295976775" y="798.0958765601031" width="7.210680209847791" height="7.7744934320856105" fill="#ff5e00" opacity="0.33210718418287744" rx="1"/><rect x="1507.5924939550673" y="801.9831232761459" width="7.210680209847791" height="7.7744934320856105" fill="#ff8700" opacity="0.16605359209143872" rx="1"/><rect x="1526.393227226425" y="808.1206449704758" width="8.63948495235282" height="9.200823321752441" fill="#ff5e00" opacity="0.37957686904807963" rx="1"/><rect x="1506.878091583815" y="812.7210566313521" width="8.63948495235282" height="9.200823321752441" fill="#ff8700" opacity="0.18978843452403982" rx="1"/><rect x="1527.2733371114061" y="818.1454133808485" width="6.879265182390638" height="8.194034211848404" fill="#ff5e00" opacity="0.22509884629982962" rx="1"/><rect x="1507.758201468796" y="822.2424304867727" width="6.879265182390638" height="8.194034211848404" fill="#ff8700" opacity="0.11254942314991481" rx="1"/><rect x="1527.4120487958219" y="828.1701817912212" width="6.601841813559141" height="8.933288395156453" fill="#ff5e00" opacity="0.5527423520229623" rx="1"/><rect x="1507.8969131532117" y="832.6368259887995" width="6.601841813559141" height="8.933288395156453" fill="#ff8700" opacity="0.27637117601148115" rx="1"/><rect x="1525.8896106157658" y="838.194950201594" width="9.646718173671214" height="9.722168320725245" fill="#ff5e00" opacity="0.2189763276183457" rx="1"/><rect x="1506.3744749731557" y="843.0560343619566" width="9.646718173671214" height="9.722168320725245" fill="#ff8700" opacity="0.10948816380917285" rx="1"/><rect x="1525.8196328954814" y="848.2197186119668" width="9.786673614239943" height="6.682906291606582" fill="#ff5e00" opacity="0.24562639644034823" rx="1"/><rect x="1506.3044972528712" y="851.56117175777" width="9.786673614239943" height="6.682906291606582" fill="#ff8700" opacity="0.12281319822017411" rx="1"/><rect x="1526.259873754638" y="858.2444870223394" width="8.90619189592688" height="9.728779361520143" fill="#ff5e00" opacity="0.16381349814213197" rx="1"/><rect x="1506.7447381120278" y="863.1088767030994" width="8.90619189592688" height="9.728779361520143" fill="#ff8700" opacity="0.08190674907106599" rx="1"/><rect x="1527.3650149568832" y="868.2692554327122" width="6.6959094914365345" height="8.248165293188805" fill="#ff5e00" opacity="0.5773408602870398" rx="1"/><rect x="1507.849879314273" y="872.3933380793065" width="6.6959094914365345" height="8.248165293188805" fill="#ff8700" opacity="0.2886704301435199" rx="1"/><rect x="1605.3457317723298" y="536.8931883915544" width="87.49434102268293" height="331.4008354515305" fill="#130000" opacity="0.6866143577468149" rx="2"/><rect x="1643.543019212443" y="546.8931883915544" width="11.099766142456737" height="7.738848798381828" fill="#ff5e00" opacity="0.5352396197931933" rx="1"/><rect x="1621.6694339567723" y="550.7626127907454" width="11.099766142456737" height="7.738848798381828" fill="#ff8700" opacity="0.26761980989659667" rx="1"/><rect x="1644.125651106966" y="594.2361648846302" width="9.934502353410819" height="9.053461510467683" fill="#ff5e00" opacity="0.22958831075336514" rx="1"/><rect x="1622.2520658512954" y="598.762895639864" width="9.934502353410819" height="9.053461510467683" fill="#ff8700" opacity="0.11479415537668257" rx="1"/><rect x="1645.7184037018376" y="641.579141377706" width="6.748997163667576" height="6.688818394366843" fill="#ff5e00" opacity="0.5678203329601839" rx="1"/><rect x="1623.844818446167" y="644.9235505748894" width="6.748997163667576" height="6.688818394366843" fill="#ff8700" opacity="0.28391016648009193" rx="1"/><rect x="1644.2288073271577" y="688.9221178707818" width="9.728189913027034" height="8.527573406353493" fill="#ff5e00" opacity="0.2911812928019048" rx="1"/><rect x="1622.355222071487" y="693.1859045739585" width="9.728189913027034" height="8.527573406353493" fill="#ff8700" opacity="0.1455906464009524" rx="1"/><rect x="1644.7436309735622" y="736.2650943638575" width="8.69854262021802" height="7.0141402215264135" fill="#ff5e00" opacity="0.5260304807513092" rx="1"/><rect x="1622.8700457178916" y="739.7721644746207" width="8.69854262021802" height="7.0141402215264135" fill="#ff8700" opacity="0.2630152403756546" rx="1"/><rect x="1643.3353512320514" y="783.6080708569334" width="11.515102103239649" height="8.472386017086073" fill="#ff5e00" opacity="0.4393638712212825" rx="1"/><rect x="1621.4617659763808" y="787.8442638654765" width="11.515102103239649" height="8.472386017086073" fill="#ff8700" opacity="0.21968193561064125" rx="1"/><rect x="1643.7282931997272" y="830.9510473500092" width="10.729218167888284" height="6.493542337905043" fill="#ff5e00" opacity="0.46798289799317316" rx="1"/><rect x="1621.8547079440566" y="834.1978185189616" width="10.729218167888284" height="6.493542337905043" fill="#ff8700" opacity="0.23399144899658658" rx="1"/><rect x="1711.7653960273053" y="679.7305680182135" width="89.04322765745297" height="188.56345582487143" fill="#130000" opacity="0.637360158291962" rx="2"/><rect x="1750.5577858811143" y="689.7305680182135" width="11.458447949834738" height="6.665156707322494" fill="#ff5e00" opacity="0.31223754638625256" rx="1"/><rect x="1728.296978966751" y="693.0631463718747" width="11.458447949834738" height="6.665156707322494" fill="#ff8700" opacity="0.15611877319312628" rx="1"/><rect x="1752.422817143477" y="716.6682045646237" width="7.728385425109506" height="6.605755002378895" fill="#ff5e00" opacity="0.5127684572974146" rx="1"/><rect x="1730.1620102291138" y="719.9710820658131" width="7.728385425109506" height="6.605755002378895" fill="#ff8700" opacity="0.2563842286487073" rx="1"/><rect x="1751.6758874530613" y="743.6058411110339" width="9.22224480594095" height="6.419373292573582" fill="#ff5e00" opacity="0.3913658809362366" rx="1"/><rect x="1729.415080538698" y="746.8155277573206" width="9.22224480594095" height="6.419373292573582" fill="#ff8700" opacity="0.1956829404681183" rx="1"/><rect x="1752.3523414058964" y="770.5434776574441" width="7.869336900270856" height="8.318607889655652" fill="#ff5e00" opacity="0.5496302947983216" rx="1"/><rect x="1730.0915344915331" y="774.7027816022719" width="7.869336900270856" height="8.318607889655652" fill="#ff8700" opacity="0.2748151473991608" rx="1"/><rect x="1753.9954132905682" y="797.4811142038543" width="4.583193130926973" height="7.237872368944314" fill="#ff5e00" opacity="0.22059163537821538" rx="1"/><rect x="1731.734606376205" y="801.1000503883265" width="4.583193130926973" height="7.237872368944314" fill="#ff8700" opacity="0.11029581768910769" rx="1"/><rect x="1751.8459040016971" y="824.4187507502645" width="8.882211708669136" height="8.441996252732816" fill="#ff5e00" opacity="0.5598681869590348" rx="1"/><rect x="1729.585097087334" y="828.639748876631" width="8.882211708669136" height="8.441996252732816" fill="#ff8700" opacity="0.2799340934795174" rx="1"/><rect x="1753.144038844887" y="851.3563872966747" width="6.285942022289602" height="6.853310110246136" fill="#ff5e00" opacity="0.5046003034814728" rx="1"/><rect x="1730.8832319305238" y="854.7830423517978" width="6.285942022289602" height="6.853310110246136" fill="#ff8700" opacity="0.2523001517407364" rx="1"/><rect x="1827.8181467805566" y="723.4641362618338" width="51.86164645521474" height="144.82988758125106" fill="#130000" opacity="0.6750996206829091" rx="2"/><rect x="1847.874849605112" y="733.4641362618338" width="11.748240806103741" height="7.8353360467207" fill="#ff5e00" opacity="0.5060736719765871" rx="1"/><rect x="1834.9094379913086" y="737.3818042851941" width="11.748240806103741" height="7.8353360467207" fill="#ff8700" opacity="0.2530368359882936" rx="1"/><rect x="1851.3998328965156" y="769.6716081571466" width="4.698274223296501" height="8.363548963880993" fill="#ff5e00" opacity="0.4953719008470354" rx="1"/><rect x="1838.434421282712" y="773.853382639087" width="4.698274223296501" height="8.363548963880993" fill="#ff8700" opacity="0.2476859504235177" rx="1"/><rect x="1850.682547284682" y="805.8790800524594" width="6.132845446963991" height="9.519648015387274" fill="#ff5e00" opacity="0.5851021480246219" rx="1"/><rect x="1837.7171356708784" y="810.638904060153" width="6.132845446963991" height="9.519648015387274" fill="#ff8700" opacity="0.29255107401231095" rx="1"/><rect x="1850.9725465816382" y="842.0865519477721" width="5.552846853051532" height="9.497826240839862" fill="#ff5e00" opacity="0.4083771426017343" rx="1"/><rect x="1838.0071349678346" y="846.8354650681921" width="5.552846853051532" height="9.497826240839862" fill="#ff8700" opacity="0.20418857130086715" rx="1"/><path d="M1179.004254168599 876.1348117553011 Q1164.3673637286684 823.6555722888222 1161.4399856406822 771.1763328223434" stroke="#000000" stroke-width="5.949389523349095" fill="none" stroke-linecap="round"/><path d="M1161.4399856406822 771.1763328223434 Q1191.6639382947849 751.1763328223434 1204.6725627935193 771.1763328223434" stroke="#000000" stroke-width="3.974010999308436" fill="none" stroke-linecap="round" opacity="0.6"/><path d="M1161.4399856406822 771.1763328223434 Q1174.4596834038816 755.6435794125971 1185.1900541560358 780.1108260028509" stroke="#000000" stroke-width="3.433773422481905" fill="none" stroke-linecap="round" opacity="0.6"/><path d="M1161.4399856406822 771.1763328223434 Q1167.4383144537755 762.1874585333339 1144.6852017125275 793.1985842443244" stroke="#000000" stroke-width="3.3107980781492774" fill="none" stroke-linecap="round" opacity="0.6"/><path d="M1161.4399856406822 771.1763328223434 Q1154.3101625927688 754.063975326031 1121.4649760102886 776.9516178297187" stroke="#000000" stroke-width="3.3166345128129784" fill="none" stroke-linecap="round" opacity="0.6"/><path d="M1161.4399856406822 771.1763328223434 Q1149.9517057948003 749.0599364798784 1132.1417037156411 766.9435401374133" stroke="#000000" stroke-width="2.2063750825371535" fill="none" stroke-linecap="round" opacity="0.6"/><path d="M146.0039288145499 793.6490386476854 Q160.23853296885233 702.7485306264713 163.0854537997128 611.848022605257" stroke="#000000" stroke-width="4.191129341766035" fill="none" stroke-linecap="round"/><path d="M163.0854537997128 611.848022605257 Q212.82774050087383 591.848022605257 235.67308350365448 611.848022605257" stroke="#000000" stroke-width="3.332297057689237" fill="none" stroke-linecap="round" opacity="0.6"/><path d="M163.0854537997128 611.848022605257 Q200.8492097568557 599.5792046676556 204.18820019549887 627.3103867300543" stroke="#000000" stroke-width="3.1419006202234656" fill="none" stroke-linecap="round" opacity="0.6"/><path d="M163.0854537997128 611.848022605257 Q168.27767562851147 599.9569747448782 150.7466843996424 628.0659268844993" stroke="#000000" stroke-width="2.9212364416851746" fill="none" stroke-linecap="round" opacity="0.6"/><path d="M163.0854537997128 611.848022605257 Q141.00012623573244 596.6512417959716 96.59220432007612 621.4544609866861" stroke="#000000" stroke-width="3.488776230134251" fill="none" stroke-linecap="round" opacity="0.6"/><path d="M163.0854537997128 611.848022605257 Q154.95684886764633 588.528892770596 117.13715966854585 605.2097629359351" stroke="#000000" stroke-width="2.984484365439155" fill="none" stroke-linecap="round" opacity="0.6"/><path d="M163.0854537997128 611.848022605257 Q178.60468479311223 587.2621737657258 156.10751998529523 602.6763249261946" stroke="#000000" stroke-width="3.5239425221280993" fill="none" stroke-linecap="round" opacity="0.6"/><path d="M121.89869913316767 822.8490174568373 Q129.0996547390473 718.4563390953598 130.53984586022324 614.0636607338822" stroke="#000000" stroke-width="5.616717233698982" fill="none" stroke-linecap="round"/><path d="M130.53984586022324 614.0636607338822 Q176.29251126323186 594.0636607338822 208.1126813129784 614.0636607338822" stroke="#000000" stroke-width="2.6812535949706224" fill="none" stroke-linecap="round" opacity="0.6"/><path d="M130.53984586022324 614.0636607338822 Q157.3392916306157 603.2709016315116 179.49004319948455 632.478142529141" stroke="#000000" stroke-width="2.3198561534098947" fill="none" stroke-linecap="round" opacity="0.6"/><path d="M130.53984586022324 614.0636607338822 Q126.33110364553735 604.860816394723 114.11064371647944 635.6579720555637" stroke="#000000" stroke-width="2.593199434362631" fill="none" stroke-linecap="round" opacity="0.6"/><path d="M130.53984586022324 614.0636607338822 Q104.00361219779265 598.7486012008868 65.68398505087218 623.4335416678914" stroke="#000000" stroke-width="3.630770652934623" fill="none" stroke-linecap="round" opacity="0.6"/><path d="M130.53984586022324 614.0636607338822 Q115.16893597313005 590.38427815776 79.60440155693553 606.7048955816379" stroke="#000000" stroke-width="3.8881983645000027" fill="none" stroke-linecap="round" opacity="0.6"/><path d="M130.53984586022324 614.0636607338822 Q138.48067376363554 584.2824136475343 115.65647373451272 594.5011665611864" stroke="#000000" stroke-width="3.1257040666243303" fill="none" stroke-linecap="round" opacity="0.6"/><rect x="0" y="1000" width="1920" height="80" fill="#070000" opacity="0.8"/><line x1="0" y1="1040" x2="1920" y2="1040" stroke="#ff5e00" stroke-opacity="0.15" stroke-width="2" stroke-dasharray="30,20"/><rect x="0" y="930" width="1920" height="150" fill="url(#glow37)"/><rect x="0" y="980" width="1920" height="100" fill="#ff5e00" opacity="0.04"/><rect x="1430.7303360455508" y="1033.1071572222531" width="110.85507953792231" height="2" fill="#ff8700" opacity="0.04584290870135718" rx="1"/><rect x="965.2998588246526" y="1001.6558098796885" width="60.286538829162374" height="2" fill="#ff8700" opacity="0.038519005891522164" rx="1"/><rect x="506.4390341626571" y="1016.8780303552928" width="116.18813909967153" height="2" fill="#ff8700" opacity="0.050500442299642706" rx="1"/><rect x="831.3360082058553" y="1048.699847145169" width="65.47957264480172" height="2" fill="#ff8700" opacity="0.05553288767010274" rx="1"/><rect x="972.9261224746998" y="1043.1197338139452" width="45.55000226142583" height="2" fill="#ff8700" opacity="0.02973844343091791" rx="1"/><rect x="985.2557227819357" y="1027.3992307780775" width="77.64910314643035" height="2" fill="#ff8700" opacity="0.04568671296948724" rx="1"/><rect x="1874.817005832404" y="1046.1295177755248" width="43.54145199608557" height="2" fill="#ff8700" opacity="0.051344150116514456" rx="1"/><rect x="871.3650622012478" y="1052.4161404819265" width="72.53198492632526" height="2" fill="#ff8700" opacity="0.05299368624412308" rx="1"/><rect x="1131.7609385800922" y="1054.668481888871" width="27.179918328109178" height="2" fill="#ff8700" opacity="0.030804460991826946" rx="1"/><rect x="800.7357530670091" y="1039.5339543091911" width="46.91520122506544" height="2" fill="#ff8700" opacity="0.05892002176468261" rx="1"/><rect x="925.9374146829214" y="1024.4272244731958" width="68.59627190711821" height="2" fill="#ff8700" opacity="0.024457033603558557" rx="1"/><rect x="1567.4590229167275" y="1004.3372126399394" width="45.94479874846172" height="2" fill="#ff8700" opacity="0.048887882732992965" rx="1"/><rect x="4.105086476566522" y="1028.0435632234542" width="53.66489176025262" height="2" fill="#ff8700" opacity="0.05591780786307478" rx="1"/><rect x="46.341990988315544" y="1058.67111963189" width="60.640534889102106" height="2" fill="#ff8700" opacity="0.04231268095372075" rx="1"/><rect x="1373.4170815566129" y="1046.731221425983" width="106.34517078435634" height="2" fill="#ff8700" opacity="0.020420984383770494" rx="1"/><rect x="569.7179502085125" y="1055.4368421936958" width="42.10212220021107" height="2" fill="#ff8700" opacity="0.042421175656472604" rx="1"/><rect x="1335.0900139042851" y="1006.8447172983654" width="73.14879029829726" height="2" fill="#ff8700" opacity="0.020332256835031384" rx="1"/><rect x="176.54984150467203" y="1049.321989186416" width="32.013131732124165" height="2" fill="#ff8700" opacity="0.02690638228480387" rx="1"/><rect x="1228.896512228273" y="1038.8445876442931" width="91.46636556635293" height="2" fill="#ff8700" opacity="0.03452804508025945" rx="1"/><rect x="1538.111456841722" y="1037.5972706260154" width="91.487865893051" height="2" fill="#ff8700" opacity="0.039776383056253285" rx="1"/><rect x="1193.56099812164" y="1001.719205985246" width="99.60903837336438" height="2" fill="#ff8700" opacity="0.059359801653623534" rx="1"/><rect x="1726.0290446425856" y="1035.2325421746896" width="67.45396451266808" height="2" fill="#ff8700" opacity="0.04314802037159633" rx="1"/><rect x="681.0296163058443" y="1013.0421747018215" width="99.56682613109398" height="2" fill="#ff8700" opacity="0.037968228901263376" rx="1"/><rect x="201.56205345912883" y="1044.446767746575" width="21.16522719645063" height="2" fill="#ff8700" opacity="0.041230390384148434" rx="1"/><rect x="494.55033358525264" y="1033.5118983996827" width="60.63049437027203" height="2" fill="#ff8700" opacity="0.05219912010994719" rx="1"/><rect x="689.5454032834492" y="1048.4736753181726" width="92.13407179157578" height="2" fill="#ff8700" opacity="0.048221186210452856" rx="1"/><rect x="1750.3831502400299" y="1058.6615714427692" width="104.60463897432308" height="2" fill="#ff8700" opacity="0.04927990242589263" rx="1"/><rect x="1156.9322216224234" y="1048.4991331557974" width="22.195676207122318" height="2" fill="#ff8700" opacity="0.045317023616590776" rx="1"/><rect x="692.3029211285299" y="1043.2094037354013" width="58.021489986689176" height="2" fill="#ff8700" opacity="0.033518508824873366" rx="1"/><rect x="1145.2583440824549" y="1050.0517244101623" width="93.84069319205375" height="2" fill="#ff8700" opacity="0.059884023871245806" rx="1"/><text x="1900" y="1060" font-family="Arial, sans-serif" font-size="11" fill="#fff" opacity="0.08" text-anchor="end" letter-spacing="2">GTA 6 REWARDS · WALLPAPER 038</text>
</svg>