<?xml version="1.0" encoding="UTF-8"?>
<svg xmlns="http://www.w3.org/2000/svg" width="1920" height="1080" viewBox="0 0 1920 1080">
<defs>
    <linearGradient id="bg45" x1="0%" y1="0%" x2="0%" y2="100%">
      <stop offset="0%" stop-color="#10002b"/>
      <stop offset="50%" stop-color="#000000"/>
      <stop offset="100%" stop-color="#10002b"/>
    </linearGradient>
    <linearGradient id="sun45" x1="0%" y1="0%" x2="100%" y2="100%">
      <stop offset="0%" stop-color="#7b2cbf"/>
      <stop offset="100%" stop-color="#c77dff"/>
    </linearGradient>
    <radialGradient id="glow45" cx="50%" cy="70%" r="50%">
      <stop offset="0%" stop-color="#7b2cbf" stop-opacity="0.3"/>
      <stop offset="100%" stop-color="#10002b" stop-opacity="0"/>
    </radialGradient>
  </defs><rect width="1920" height="1080" fill="url(#bg45)"/><circle cx="1396.5576002133446" cy="514.6706842618694" r="712.4041033006283" fill="#7b2cbf" opacity="0.09594856024392615"/><circle cx="1596.5576002133446" cy="414.6706842618694" r="496.38620496177725" fill="#c77dff" opacity="0.05229543533229629"/><line x1="0" y1="980" x2="1920" y2="980" stroke="#c77dff" stroke-opacity="0.05" stroke-width="2"/><line x1="0" y1="935" x2="1920" y2="935" stroke="#c77dff" stroke-opacity="0.049" stroke-width="0.5"/><line x1="0" y1="890" x2="1920" y2="890" stroke="#c77dff" stroke-opacity="0.048" stroke-width="0.5"/><line x1="0" y1="845" x2="1920" y2="845" stroke="#c77dff" stroke-opacity="0.047" stroke-width="0.5"/><line x1="0" y1="800" x2="1920" y2="800" stroke="#c77dff" stroke-opacity="0.046" stroke-width="0.5"/><line x1="0" y1="755" x2="1920" y2="755" stroke="#c77dff" stroke-opacity="0.045" stroke-width="0.5"/><line x1="0" y1="710" x2="1920" y2="710" stroke="#c77dff" stroke-opacity="0.044" stroke-width="0.5"/><line x1="0" y1="665" x2="1920" y2="665" stroke="#c77dff" stroke-opacity="0.043" stroke-width="0.5"/><line x1="0" y1="620" x2="1920" y2="620" stroke="#c77dff" stroke-opacity="0.041999999999999996" stroke-width="0.5"/><line x1="0" y1="575" x2="1920" y2="575" stroke="#c77dff" stroke-opacity="0.041" stroke-width="0.5"/><line x1="0" y1="530" x2="1920" y2="530" stroke="#c77dff" stroke-opacity="0.04" stroke-width="0.5"/><line x1="0" y1="485" x2="1920" y2="485" stroke="#c77dff" stroke-opacity="0.039" stroke-width="0.5"/><line x1="0" y1="440" x2="1920" y2="440" stroke="#c77dff" stroke-opacity="0.038" stroke-width="0.5"/><line x1="0" y1="395" x2="1920" y2="395" stroke="#c77dff" stroke-opacity="0.037" stroke-width="0.5"/><line x1="0" y1="350" x2="1920" y2="350" stroke="#c77dff" stroke-opacity="0.036" stroke-width="0.5"/><line x1="0" y1="305" x2="1920" y2="305" stroke="#c77dff" stroke-opacity="0.034999999999999996" stroke-width="0.5"/><line x1="0" y1="260" x2="1920" y2="260" stroke="#c77dff" stroke-opacity="0.033999999999999996" stroke-width="0.5"/><line x1="0" y1="215" x2="1920" y2="215" stroke="#c77dff" stroke-opacity="0.033" stroke-width="0.5"/><line x1="0" y1="170" x2="1920" y2="170" stroke="#c77dff" stroke-opacity="0.032" stroke-width="0.5"/><line x1="0" y1="125" x2="1920" y2="125" stroke="#c77dff" stroke-opacity="0.031" stroke-width="0.5"/><line x1="560" y1="1080" x2="860" y2="580" stroke="#7b2cbf" stroke-opacity="0.04" stroke-width="1"/><line x1="640" y1="1080" x2="880" y2="590" stroke="#7b2cbf" stroke-opacity="0.04" stroke-width="1"/><line x1="720" y1="1080" x2="900" y2="600" stroke="#7b2cbf" stroke-opacity="0.04" stroke-width="1"/><line x1="800" y1="1080" x2="920" y2="610" stroke="#7b2cbf" stroke-opacity="0.04" stroke-width="1"/><line x1="880" y1="1080" x2="940" y2="620" stroke="#7b2cbf" stroke-opacity="0.04" stroke-width="1"/><line x1="960" y1="1080" x2="960" y2="630" stroke="#7b2cbf" stroke-opacity="0.04" stroke-width="1"/><line x1="1040" y1="1080" x2="980" y2="620" stroke="#7b2cbf" stroke-opacity="0.04" stroke-width="1"/><line x1="1120" y1="1080" x2="1000" y2="610" stroke="#7b2cbf" stroke-opacity="0.04" stroke-width="1"/><line x1="1200" y1="1080" x2="1020" y2="600" stroke="#7b2cbf" stroke-opacity="0.04" stroke-width="1"/><line x1="1280" y1="1080" x2="1040" y2="590" stroke="#7b2cbf" stroke-opacity="0.04" stroke-width="1"/><line x1="1360" y1="1080" x2="1060" y2="580" stroke="#7b2cbf" stroke-opacity="0.04" stroke-width="1"/><circle cx="981.1988581626673" cy="376.3187403153439" r="89.0758706045048" fill="url(#sun45)" opacity="0.7957918921941407"/><circle cx="981.1988581626673" cy="376.3187403153439" r="84.0758706045048" fill="#10002b" opacity="0.3"/><pattern id="scan45" width="1920" height="4" patternUnits="userSpaceOnUse">
      <line x1="0" y1="0" x2="1920" y2="0" stroke="#000" stroke-opacity="0.05" stroke-width="1"/>
    </pattern>
    <rect width="1920" height="1080" fill="url(#scan45)"/><circle cx="199.62209527371965" cy="235.35413748290253" r="1.9587144536102923" fill="#fff" opacity="0.5773154231666856"/><circle cx="1561.0541120825926" cy="110.19779317411542" r="1.8630668389059295" fill="#fff" opacity="0.43879760355660635"/><circle cx="1630.1811919431625" cy="359.8309844713265" r="1.7611775694557412" fill="#fff" opacity="0.4113930925287756"/><circle cx="556.8422373935678" cy="379.66241372275687" r="0.5715409978459451" fill="#fff" opacity="0.494690864601799"/><circle cx="329.14029173765806" cy="61.277769028506654" r="1.885615015492219" fill="#fff" opacity="0.40947442823310254"/><circle cx="47.474055301275584" cy="6.3216252378936915" r="1.0898735720175023" fill="#fff" opacity="0.24931201293350014"/><circle cx="1665.3232865932684" cy="270.01478604181085" r="1.7074267388571582" fill="#fff" opacity="0.5505001646816964"/><circle cx="425.15857468013616" cy="90.4023006619891" r="1.2560830375310228" fill="#fff" opacity="0.6816523099042597"/><circle cx="932.601489939867" cy="347.62018739330125" r="0.536547949429729" fill="#fff" opacity="0.6664589381931487"/><circle cx="744.8006618266927" cy="16.21457228442062" r="0.5688749494889925" fill="#fff" opacity="0.5862918997151525"/><circle cx="1786.5151771592245" cy="1.6973697919625252" r="1.109507050739952" fill="#fff" opacity="0.4298632082133235"/><circle cx="1086.4808444228213" cy="228.55434616016092" r="0.6432225008362957" fill="#fff" opacity="0.6346730888901915"/><circle cx="464.27246342978265" cy="45.200357838813304" r="1.4145251529790752" fill="#fff" opacity="0.5038042645677469"/><circle cx="745.867296779963" cy="367.5345475970615" r="1.1868240823240075" fill="#fff" opacity="0.4907241427550847"/><circle cx="1203.1830751717052" cy="293.90691555801476" r="0.9916645695901627" fill="#fff" opacity="0.45670529605278404"/><circle cx="630.3279931820762" cy="97.36962557615936" r="1.9580810761447254" fill="#fff" opacity="0.5087604351594952"/><circle cx="789.1588150312098" cy="103.53829811316409" r="1.354315836181472" fill="#fff" opacity="0.7676459307241361"/><circle cx="1237.5318184396094" cy="129.37662115725144" r="1.1818406057268942" fill="#fff" opacity="0.3348190121666572"/><circle cx="1728.468996539821" cy="168.40075208442303" r="1.7968440905206007" fill="#fff" opacity="0.38948977333248824"/><circle cx="710.8141303227316" cy="88.109559224944" r="0.8602675074618933" fill="#fff" opacity="0.36843654284450145"/><circle cx="1207.576561255282" cy="389.4801447218005" r="0.9281825613994577" fill="#fff" opacity="0.4748073852795193"/><circle cx="1486.3923913720978" cy="98.26601399534057" r="0.6248862641222976" fill="#fff" opacity="0.4286230331353431"/><circle cx="884.7809777233706" cy="17.58330002463965" r="0.9668763056320316" fill="#fff" opacity="0.21530593396520847"/><circle cx="214.2628951869586" cy="215.01140332012704" r="1.2592679728426197" fill="#fff" opacity="0.7462703473275225"/><circle cx="1372.603525540932" cy="120.88851088864926" r="0.9361792399865061" fill="#fff" opacity="0.7401025641104444"/><circle cx="223.58550449451093" cy="161.82122239140355" r="0.7588978653677967" fill="#fff" opacity="0.6626598387636848"/><circle cx="1757.1357929327376" cy="410.72106089692585" r="0.7535270302913913" fill="#fff" opacity="0.7347140084334449"/><circle cx="1039.330570641749" cy="91.90255192944375" r="1.0163459978104443" fill="#fff" opacity="0.4515835302070676"/><circle cx="616.5758976285756" cy="10.549895706248911" r="1.85616484455675" fill="#fff" opacity="0.5112114807849777"/><circle cx="953.5852738454904" cy="283.04002247635276" r="1.4856556240668648" fill="#fff" opacity="0.625770547014142"/><circle cx="11.562114807675155" cy="168.50653827388456" r="0.6423068994521878" fill="#fff" opacity="0.2505955850357645"/><circle cx="1248.3986970708702" cy="99.61373490924336" r="0.9891019046746897" fill="#fff" opacity="0.5979585313233451"/><circle cx="1750.55040653575" cy="349.78865843214766" r="1.2387530940442235" fill="#fff" opacity="0.4724808934779095"/><circle cx="487.40227651023366" cy="321.68243328521083" r="1.0802855789848338" fill="#fff" opacity="0.658175469855353"/><circle cx="1528.3468221706214" cy="431.4131568743412" r="1.895673486496246" fill="#fff" opacity="0.47864533636687445"/><circle cx="1304.5507481751383" cy="264.7272670438344" r="1.2310056838279138" fill="#fff" opacity="0.2945624803878745"/><circle cx="1014.4855756439468" cy="14.811965126267625" r="0.9352545672876887" fill="#fff" opacity="0.2239347751308081"/><circle cx="1380.1286024088338" cy="273.6547811854758" r="0.8995410708942313" fill="#fff" opacity="0.36741582331420286"/><circle cx="1041.0814603606896" cy="185.05698471727246" r="1.2248056295152767" fill="#fff" opacity="0.26473423281329084"/><circle cx="621.4667636112931" cy="115.89339173303297" r="0.5451256737683726" fill="#fff" opacity="0.4235505340210047"/><circle cx="1030.0410611345528" cy="321.1059323887122" r="1.9831339253539066" fill="#fff" opacity="0.39579289941950535"/><circle cx="1865.7434700303113" cy="191.5714147834972" r="1.115224269361986" fill="#fff" opacity="0.2762686848818019"/><circle cx="52.006689024159385" cy="408.95113627821" r="0.6789627543601586" fill="#fff" opacity="0.7210243157858551"/><circle cx="1108.5444244343191" cy="69.90125504646014" r="1.6866191643491897" fill="#fff" opacity="0.5310819740246706"/><circle cx="1419.3467513051226" cy="64.1269580610392" r="0.683786739405195" fill="#fff" opacity="0.21446900330820798"/><circle cx="406.4144022218917" cy="254.3917050171624" r="1.5694731376295614" fill="#fff" opacity="0.542297043172246"/><circle cx="1008.8660527134468" cy="227.2557493008803" r="1.0265410487834692" fill="#fff" opacity="0.5288378870880319"/><circle cx="1522.1219733921164" cy="109.35088980136227" r="1.4355208477786559" fill="#fff" opacity="0.5750416120456163"/><circle cx="256.7344044746678" cy="263.3761181662269" r="1.0307931983915142" fill="#fff" opacity="0.4592992594138019"/><circle cx="1431.0899541133758" cy="350.11533368707524" r="1.4190507824344212" fill="#fff" opacity="0.6873322526661987"/><rect x="10.684857075262082" y="633.3796579584897" width="33.18510698694389" height="300.5335276249176" fill="#000011" opacity="0.6734750763218559" rx="2"/><rect x="24.84330772884267" y="643.3796579584897" width="4.868205679782714" height="8.055347159983437" fill="#c77dff" opacity="0.14138403468331884" rx="1"/><rect x="16.5470309821067" y="647.4073315384815" width="4.868205679782714" height="8.055347159983437" fill="#7b2cbf" opacity="0.07069201734165942" rx="1"/><rect x="24.314129029240952" y="743.5575005001289" width="5.926563078986146" height="7.818503913893016" fill="#c77dff" opacity="0.5858005904792344" rx="1"/><rect x="16.017852282504982" y="747.4667524570754" width="5.926563078986146" height="7.818503913893016" fill="#7b2cbf" opacity="0.2929002952396172" rx="1"/><rect x="24.231989431947465" y="843.7353430417681" width="6.090842273573122" height="7.664608661472939" fill="#c77dff" opacity="0.5067083025366785" rx="1"/><rect x="15.935712685211495" y="847.5676473725047" width="6.090842273573122" height="7.664608661472939" fill="#7b2cbf" opacity="0.25335415126833927" rx="1"/><rect x="91.27832176892048" y="815.9133465648426" width="53.647971256554115" height="117.99983901856464" fill="#10002b" opacity="0.4040664769718578" rx="2"/><rect x="113.01264311326962" y="825.9133465648426" width="10.179328567855835" height="8.217069529513147" fill="#c77dff" opacity="0.3262745473362213" rx="1"/><rect x="99.60065029913109" y="830.0218813295992" width="10.179328567855835" height="8.217069529513147" fill="#7b2cbf" opacity="0.16313727366811065" rx="1"/><rect x="112.11235325623126" y="849.5133143685556" width="11.979908281932563" height="6.030754260725983" fill="#c77dff" opacity="0.38348127980331925" rx="1"/><rect x="98.70036044209273" y="852.5286914989185" width="11.979908281932563" height="6.030754260725983" fill="#7b2cbf" opacity="0.19174063990165963" rx="1"/><rect x="113.50986147078449" y="873.1132821722686" width="9.184891852826087" height="6.227550289646618" fill="#c77dff" opacity="0.5902257180051472" rx="1"/><rect x="100.09786865664596" y="876.2270573170919" width="9.184891852826087" height="6.227550289646618" fill="#7b2cbf" opacity="0.2951128590025736" rx="1"/><rect x="113.11048422709817" y="896.7132499759814" width="9.983646340198732" height="6.895088834896471" fill="#c77dff" opacity="0.21270723855418788" rx="1"/><rect x="99.69849141295964" y="900.1607943934297" width="9.983646340198732" height="6.895088834896471" fill="#7b2cbf" opacity="0.10635361927709394" rx="1"/><rect x="112.27783230256239" y="920.3132177796944" width="11.6489501892703" height="9.928111843748045" fill="#c77dff" opacity="0.16079155336152567" rx="1"/><rect x="98.86583948842386" y="925.2772737015683" width="11.6489501892703" height="9.928111843748045" fill="#7b2cbf" opacity="0.08039577668076284" rx="1"/><rect x="186.02765216399627" y="568.2820467320928" width="61.634871892546045" height="365.6311388513146" fill="#10002b" opacity="0.5024041195405657" rx="2"/><rect x="213.55466970953964" y="578.2820467320928" width="6.580836801459276" height="7.482343516657675" fill="#c77dff" opacity="0.38066772764564205" rx="1"/><rect x="198.14595173640313" y="582.0232184904216" width="6.580836801459276" height="7.482343516657675" fill="#7b2cbf" opacity="0.19033386382282103" rx="1"/><rect x="212.26006735611242" y="630.5150665679948" width="9.170041508313744" height="7.94081721872576" fill="#c77dff" opacity="0.26373783842747517" rx="1"/><rect x="196.8513493829759" y="634.4854751773577" width="9.170041508313744" height="7.94081721872576" fill="#7b2cbf" opacity="0.13186891921373758" rx="1"/><rect x="212.86605498145008" y="682.748086403897" width="7.958066257638407" height="6.331725991408277" fill="#c77dff" opacity="0.4604527131795074" rx="1"/><rect x="197.45733700831357" y="685.9139493996012" width="7.958066257638407" height="6.331725991408277" fill="#7b2cbf" opacity="0.2302263565897537" rx="1"/><rect x="214.77569600096336" y="734.981106239799" width="4.1387842186118435" height="9.682686498314768" fill="#c77dff" opacity="0.5294022656812803" rx="1"/><rect x="199.36697802782686" y="739.8224494889564" width="4.1387842186118435" height="9.682686498314768" fill="#7b2cbf" opacity="0.2647011328406402" rx="1"/><rect x="211.55023107038582" y="787.2141260757012" width="10.589714079766933" height="7.757093633002857" fill="#c77dff" opacity="0.3244233140313121" rx="1"/><rect x="196.14151309724932" y="791.0926728922026" width="10.589714079766933" height="7.757093633002857" fill="#7b2cbf" opacity="0.16221165701565604" rx="1"/><rect x="211.9339491093843" y="839.4471459116032" width="9.822278001769977" height="6.219439449771177" fill="#c77dff" opacity="0.5005516376114804" rx="1"/><rect x="196.52523113624778" y="842.5568656364889" width="9.822278001769977" height="6.219439449771177" fill="#7b2cbf" opacity="0.2502758188057402" rx="1"/><rect x="213.08400260053665" y="891.6801657475053" width="7.522171019465237" height="7.68906372172969" fill="#c77dff" opacity="0.35267141120337686" rx="1"/><rect x="197.67528462740015" y="895.5246976083702" width="7.522171019465237" height="7.68906372172969" fill="#7b2cbf" opacity="0.17633570560168843" rx="1"/><rect x="241.14757019820334" y="724.3039993276595" width="35.4950949469337" height="209.60918625574774" fill="#000011" opacity="0.4802062305110056" rx="2"/><rect x="255.2369176038161" y="734.3039993276595" width="7.316400135708134" height="6.1750903604959815" fill="#c77dff" opacity="0.5502503508586088" rx="1"/><rect x="246.3631438670827" y="737.3915445079075" width="7.316400135708134" height="6.1750903604959815" fill="#7b2cbf" opacity="0.2751251754293044" rx="1"/><rect x="256.35216289045104" y="804.1737280795754" width="5.08590956243824" height="8.181496858173398" fill="#c77dff" opacity="0.2939168003606416" rx="1"/><rect x="247.47838915371764" y="808.2644765086621" width="5.08590956243824" height="8.181496858173398" fill="#7b2cbf" opacity="0.1469584001803208" rx="1"/><rect x="255.45592456973526" y="874.0434568314913" width="6.878386203869802" height="8.809841015099046" fill="#c77dff" opacity="0.5921682064868902" rx="1"/><rect x="246.58215083300186" y="878.4483773390408" width="6.878386203869802" height="8.809841015099046" fill="#7b2cbf" opacity="0.2960841032434451" rx="1"/><rect x="330.7375057369325" y="740.2157679643053" width="88.26863765676241" height="193.69741761910203" fill="#10002b" opacity="0.5786113821153089" rx="2"/><rect x="371.71987505506723" y="750.2157679643053" width="6.303899020493008" height="6.826113785809398" fill="#c77dff" opacity="0.40252899283136456" rx="1"/><rect x="349.65271564087664" y="753.62882485721" width="6.303899020493008" height="6.826113785809398" fill="#7b2cbf" opacity="0.20126449641568228" rx="1"/><rect x="370.2889014746269" y="774.4279451666931" width="9.165846181373542" height="8.304872182734513" fill="#c77dff" opacity="0.3418769528721173" rx="1"/><rect x="348.2217420604363" y="778.5803812580604" width="9.165846181373542" height="8.304872182734513" fill="#7b2cbf" opacity="0.17093847643605864" rx="1"/><rect x="370.61459361613134" y="798.6401223690808" width="8.5144618983647" height="6.193701949946979" fill="#c77dff" opacity="0.1656637054788097" rx="1"/><rect x="348.54743420194075" y="801.7369733440543" width="8.5144618983647" height="6.193701949946979" fill="#7b2cbf" opacity="0.08283185273940485" rx="1"/><rect x="370.5593904651607" y="822.8522995714686" width="8.62486820030605" height="9.445444522296414" fill="#c77dff" opacity="0.3178095167544227" rx="1"/><rect x="348.4922310509701" y="827.5750218326168" width="8.62486820030605" height="9.445444522296414" fill="#7b2cbf" opacity="0.15890475837721135" rx="1"/><rect x="372.32481219417525" y="847.0644767738563" width="5.094024742276879" height="7.759704293161562" fill="#c77dff" opacity="0.4925159156537885" rx="1"/><rect x="350.25765277998465" y="850.9443289204371" width="5.094024742276879" height="7.759704293161562" fill="#7b2cbf" opacity="0.24625795782689425" rx="1"/><rect x="372.1531176285709" y="871.2766539762441" width="5.437413873485619" height="6.855994668057187" fill="#c77dff" opacity="0.4136444405684351" rx="1"/><rect x="350.0859582143803" y="874.7046513102728" width="5.437413873485619" height="6.855994668057187" fill="#7b2cbf" opacity="0.20682222028421754" rx="1"/><rect x="371.89995502189265" y="895.4888311786318" width="5.943739086842104" height="8.831515736605859" fill="#c77dff" opacity="0.12307290060517213" rx="1"/><rect x="349.83279560770205" y="899.9045890469347" width="5.943739086842104" height="8.831515736605859" fill="#7b2cbf" opacity="0.06153645030258607" rx="1"/><rect x="368.90876740215083" y="919.7010083810196" width="11.926114326325738" height="7.932863843145982" fill="#c77dff" opacity="0.5219403054849105" rx="1"/><rect x="346.84160798796023" y="923.6674403025926" width="11.926114326325738" height="7.932863843145982" fill="#7b2cbf" opacity="0.2609701527424553" rx="1"/><rect x="423.93921056854055" y="568.4373358773155" width="52.68096081043616" height="365.4758497060919" fill="#10002b" opacity="0.4261123687788175" rx="2"/><rect x="447.0907986834857" y="578.4373358773155" width="6.3777845805459155" height="8.03349633189698" fill="#c77dff" opacity="0.28872392170334327" rx="1"/><rect x="433.9205584808766" y="582.454084043264" width="6.3777845805459155" height="8.03349633189698" fill="#7b2cbf" opacity="0.14436196085167163" rx="1"/><rect x="447.476678208559" y="651.5325058185339" width="5.606025530399295" height="6.359785000877405" fill="#c77dff" opacity="0.10476747343893338" rx="1"/><rect x="434.30643800594993" y="654.7123983189725" width="5.606025530399295" height="6.359785000877405" fill="#7b2cbf" opacity="0.05238373671946669" rx="1"/><rect x="444.8779826932303" y="724.6276757597523" width="10.803416561056725" height="8.393864729999068" fill="#c77dff" opacity="0.2480730985403231" rx="1"/><rect x="431.70774249062123" y="728.8246081247518" width="10.803416561056725" height="8.393864729999068" fill="#7b2cbf" opacity="0.12403654927016156" rx="1"/><rect x="444.73475193365823" y="797.7228457009705" width="11.08987808020084" height="7.190883379706853" fill="#c77dff" opacity="0.2701764045679421" rx="1"/><rect x="431.56451173104915" y="801.3182873908239" width="11.08987808020084" height="7.190883379706853" fill="#7b2cbf" opacity="0.13508820228397106" rx="1"/><rect x="445.1542823384875" y="870.818015642189" width="10.25081727054222" height="7.778168581840156" fill="#c77dff" opacity="0.21628481713502778" rx="1"/><rect x="431.98404213587844" y="874.7070999331091" width="10.25081727054222" height="7.778168581840156" fill="#7b2cbf" opacity="0.10814240856751389" rx="1"/><rect x="501.78885103710667" y="596.3853121144663" width="62.118981101577866" height="337.52787346894104" fill="#10002b" opacity="0.5446669642684672" rx="2"/><rect x="528.7022353768587" y="606.3853121144663" width="8.292212422073868" height="6.629808485654603" fill="#c77dff" opacity="0.11450697938318062" rx="1"/><rect x="513.1724901014642" y="609.7002163572936" width="8.292212422073868" height="6.629808485654603" fill="#7b2cbf" opacity="0.05725348969159031" rx="1"/><rect x="528.9437802587504" y="673.8908868082544" width="7.80912265829023" height="9.67679903183058" fill="#c77dff" opacity="0.25100206636148553" rx="1"/><rect x="513.4140349833559" y="678.7292863241697" width="7.80912265829023" height="9.67679903183058" fill="#7b2cbf" opacity="0.12550103318074277" rx="1"/><rect x="527.8197103526488" y="741.3964615020427" width="10.057262470493388" height="9.246422819617768" fill="#c77dff" opacity="0.27494100336333294" rx="1"/><rect x="512.2899650772544" y="746.0196729118516" width="10.057262470493388" height="9.246422819617768" fill="#7b2cbf" opacity="0.13747050168166647" rx="1"/><rect x="527.8010334551336" y="808.9020361958309" width="10.094616265523857" height="9.0926667244855" fill="#c77dff" opacity="0.4420290528661639" rx="1"/><rect x="512.2712881797391" y="813.4483695580736" width="10.094616265523857" height="9.0926667244855" fill="#7b2cbf" opacity="0.22101452643308195" rx="1"/><rect x="528.3330559044455" y="876.407610889619" width="9.030571366900245" height="9.950898854981851" fill="#c77dff" opacity="0.28011518094691334" rx="1"/><rect x="512.803310629051" y="881.38306031711" width="9.030571366900245" height="9.950898854981851" fill="#7b2cbf" opacity="0.14005759047345667" rx="1"/><rect x="586.0439323973944" y="765.6957412175126" width="81.06823637873592" height="168.21744436589475" fill="#000011" opacity="0.5926874630368985" rx="2"/><rect x="621.5382687883774" y="775.6957412175126" width="10.079563596770065" height="8.008808497807198" fill="#c77dff" opacity="0.3373433744621797" rx="1"/><rect x="601.2712096936934" y="779.7001454664162" width="10.079563596770065" height="8.008808497807198" fill="#7b2cbf" opacity="0.16867168723108986" rx="1"/><rect x="620.8919590231711" y="809.3392300906916" width="11.372183127182579" height="9.705812243676235" fill="#c77dff" opacity="0.1820078940787371" rx="1"/><rect x="600.6248999284871" y="814.1921362125297" width="11.372183127182579" height="9.705812243676235" fill="#7b2cbf" opacity="0.09100394703936855" rx="1"/><rect x="621.4862218188323" y="842.9827189638705" width="10.183657535860235" height="6.468291429911808" fill="#c77dff" opacity="0.46968085050342623" rx="1"/><rect x="601.2191627241483" y="846.2168646788265" width="10.183657535860235" height="6.468291429911808" fill="#7b2cbf" opacity="0.23484042525171311" rx="1"/><rect x="622.1627632349642" y="876.6262078370495" width="8.8305747035962" height="9.188979976621685" fill="#c77dff" opacity="0.5138464651568435" rx="1"/><rect x="601.8957041402803" y="881.2206978253604" width="8.8305747035962" height="9.188979976621685" fill="#7b2cbf" opacity="0.25692323257842176" rx="1"/><rect x="623.0145113170181" y="910.2696967102283" width="7.127078539488623" height="8.607869621973455" fill="#c77dff" opacity="0.20746509211777364" rx="1"/><rect x="602.7474522223341" y="914.573631521215" width="7.127078539488623" height="8.607869621973455" fill="#7b2cbf" opacity="0.10373254605888682" rx="1"/><rect x="666.5634437549309" y="784.7902434493392" width="30.48171781014691" height="149.12294213406813" fill="#000011" opacity="0.48194642655596753" rx="2"/><rect x="677.6358594118235" y="794.7902434493392" width="8.33688649636155" height="8.326477357728052" fill="#c77dff" opacity="0.5341643232466105" rx="1"/><rect x="670.0154299592868" y="798.9534821282032" width="8.33688649636155" height="8.326477357728052" fill="#7b2cbf" opacity="0.2670821616233052" rx="1"/><rect x="678.3747829737548" y="824.6148318761528" width="6.859039372498877" height="8.889988452868998" fill="#c77dff" opacity="0.2886331541902929" rx="1"/><rect x="670.7543535212181" y="829.0598261025873" width="6.859039372498877" height="8.889988452868998" fill="#7b2cbf" opacity="0.14431657709514645" rx="1"/><rect x="679.1852073325275" y="854.4394203029665" width="5.23819065495352" height="7.68067068180085" fill="#c77dff" opacity="0.47436871576923145" rx="1"/><rect x="671.5647778799909" y="858.2797556438669" width="5.23819065495352" height="7.68067068180085" fill="#7b2cbf" opacity="0.23718435788461573" rx="1"/><rect x="676.1845079048501" y="884.26400872978" width="11.239589510308484" height="7.566626374043205" fill="#c77dff" opacity="0.11578147418698796" rx="1"/><rect x="668.5640784523134" y="888.0473219168016" width="11.239589510308484" height="7.566626374043205" fill="#7b2cbf" opacity="0.05789073709349398" rx="1"/><rect x="678.8439586599925" y="914.0885971565937" width="5.920688000023525" height="6.66587556727833" fill="#c77dff" opacity="0.4053858069017031" rx="1"/><rect x="671.2235292074558" y="917.4215349402328" width="5.920688000023525" height="6.66587556727833" fill="#7b2cbf" opacity="0.20269290345085156" rx="1"/><rect x="735.3242075339249" y="626.9866400810392" width="71.57257186751174" height="306.92654550236807" fill="#10002b" opacity="0.6969431859899646" rx="2"/><rect x="765.1292060786227" y="636.9866400810392" width="11.962574778115975" height="7.377747325547446" fill="#c77dff" opacity="0.39906534783054737" rx="1"/><rect x="747.2360631117448" y="640.675513743813" width="11.962574778115975" height="7.377747325547446" fill="#7b2cbf" opacity="0.19953267391527368" rx="1"/><rect x="765.4826366897864" y="688.1410643314339" width="11.255713555788555" height="7.407098374657123" fill="#c77dff" opacity="0.1735891243847062" rx="1"/><rect x="747.5894937229085" y="691.8446135187625" width="11.255713555788555" height="7.407098374657123" fill="#7b2cbf" opacity="0.0867945621923531" rx="1"/><rect x="768.2161915640384" y="739.2954885818286" width="5.7886038072846375" height="7.083795265546952" fill="#c77dff" opacity="0.3590748299283616" rx="1"/><rect x="750.3230485971604" y="742.8373862146021" width="5.7886038072846375" height="7.083795265546952" fill="#7b2cbf" opacity="0.1795374149641808" rx="1"/><rect x="766.5804907967291" y="790.4499128322233" width="9.060005341903308" height="6.424308303842393" fill="#c77dff" opacity="0.5059616226949639" rx="1"/><rect x="748.6873478298512" y="793.6620669841444" width="9.060005341903308" height="6.424308303842393" fill="#7b2cbf" opacity="0.25298081134748196" rx="1"/><rect x="767.6767805983957" y="841.6043370826179" width="6.867425738570146" height="9.381277006906755" fill="#c77dff" opacity="0.1438747910186357" rx="1"/><rect x="749.7836376315178" y="846.2949755860712" width="6.867425738570146" height="9.381277006906755" fill="#7b2cbf" opacity="0.07193739550931785" rx="1"/><rect x="766.8490001354014" y="892.7587613330127" width="8.522986664558525" height="9.020108720990855" fill="#c77dff" opacity="0.1742161673433651" rx="1"/><rect x="748.9558571685235" y="897.2688156935081" width="8.522986664558525" height="9.020108720990855" fill="#7b2cbf" opacity="0.08710808367168255" rx="1"/><rect x="821.2231399843523" y="600.5796102459029" width="32.92552647248971" height="333.3335753375044" fill="#000011" opacity="0.5100362242455678" rx="2"/><rect x="831.9033059023561" y="610.5796102459029" width="11.565194636482092" height="8.660829703011743" fill="#c77dff" opacity="0.3321314934483104" rx="1"/><rect x="823.6719242842337" y="614.9100250974088" width="11.565194636482092" height="8.660829703011743" fill="#7b2cbf" opacity="0.1660657467241552" rx="1"/><rect x="834.803239580198" y="652.2463071630909" width="5.765327280798305" height="6.4509168612889285" fill="#c77dff" opacity="0.40586348818751594" rx="1"/><rect x="826.5718579620756" y="655.4717655937354" width="5.765327280798305" height="6.4509168612889285" fill="#7b2cbf" opacity="0.20293174409375797" rx="1"/><rect x="833.0147456466254" y="693.913004080279" width="9.342315147943403" height="8.144970747210312" fill="#c77dff" opacity="0.11401300041796943" rx="1"/><rect x="824.783364028503" y="697.9854894538842" width="9.342315147943403" height="8.144970747210312" fill="#7b2cbf" opacity="0.05700650020898471" rx="1"/><rect x="835.1955421418407" y="735.5797009974671" width="4.980722157512959" height="8.871460386289158" fill="#c77dff" opacity="0.2341500863512396" rx="1"/><rect x="826.9641605237183" y="740.0154311906116" width="4.980722157512959" height="8.871460386289158" fill="#7b2cbf" opacity="0.1170750431756198" rx="1"/><rect x="832.7775680007827" y="777.2463979146551" width="9.81667043962904" height="7.089546179652574" fill="#c77dff" opacity="0.43089406737845715" rx="1"/><rect x="824.5461863826603" y="780.7911710044814" width="9.81667043962904" height="7.089546179652574" fill="#7b2cbf" opacity="0.21544703368922857" rx="1"/><rect x="835.2290025093195" y="818.9130948318432" width="4.913801422555419" height="9.175158859038529" fill="#c77dff" opacity="0.5827012169367404" rx="1"/><rect x="826.997620891197" y="823.5006742613624" width="4.913801422555419" height="9.175158859038529" fill="#7b2cbf" opacity="0.2913506084683702" rx="1"/><rect x="833.5637178464243" y="860.5797917490312" width="8.244370748345826" height="8.70812066893748" fill="#c77dff" opacity="0.1840960589898974" rx="1"/><rect x="825.3323362283019" y="864.9338520834999" width="8.244370748345826" height="8.70812066893748" fill="#7b2cbf" opacity="0.0920480294949487" rx="1"/><rect x="831.7986965768036" y="902.2464886662192" width="11.774413287587095" height="9.349082589929244" fill="#c77dff" opacity="0.2509793881911271" rx="1"/><rect x="823.5673149586812" y="906.9210299611838" width="11.774413287587095" height="9.349082589929244" fill="#7b2cbf" opacity="0.12548969409556354" rx="1"/><rect x="890.8009434446694" y="568.7369040489981" width="76.84857532075806" height="365.1762815344092" fill="#000011" opacity="0.44762738136286556" rx="2"/><rect x="925.5306679561107" y="578.7369040489981" width="7.38912629787557" height="6.015312838371683" fill="#c77dff" opacity="0.10441048340974621" rx="1"/><rect x="906.3185241259212" y="581.744560468184" width="7.38912629787557" height="6.015312838371683" fill="#7b2cbf" opacity="0.052205241704873104" rx="1"/><rect x="924.1371940521377" y="639.5996176380663" width="10.176074105821566" height="8.626882245444433" fill="#c77dff" opacity="0.4071440895570312" rx="1"/><rect x="904.9250502219481" y="643.9130587607885" width="10.176074105821566" height="8.626882245444433" fill="#7b2cbf" opacity="0.2035720447785156" rx="1"/><rect x="925.5761512090862" y="700.4623312271345" width="7.298159791924562" height="6.3268002142027955" fill="#c77dff" opacity="0.19630904837891205" rx="1"/><rect x="906.3640073788966" y="703.625731334236" width="7.298159791924562" height="6.3268002142027955" fill="#7b2cbf" opacity="0.09815452418945603" rx="1"/><rect x="925.5171697438967" y="761.3250448162028" width="7.416122722303523" height="9.760283540878511" fill="#c77dff" opacity="0.19768042680753406" rx="1"/><rect x="906.3050259137071" y="766.2051865866421" width="7.416122722303523" height="9.760283540878511" fill="#7b2cbf" opacity="0.09884021340376703" rx="1"/><rect x="923.7168708785243" y="822.1877584052709" width="11.016720453048293" height="7.022997074067359" fill="#c77dff" opacity="0.4801603996847198" rx="1"/><rect x="904.5047270483348" y="825.6992569423046" width="11.016720453048293" height="7.022997074067359" fill="#7b2cbf" opacity="0.2400801998423599" rx="1"/><rect x="923.5265519820448" y="883.0504719943391" width="11.397358246007318" height="6.090568607694136" fill="#c77dff" opacity="0.2758357347398614" rx="1"/><rect x="904.3144081518552" y="886.0957562981862" width="11.397358246007318" height="6.090568607694136" fill="#7b2cbf" opacity="0.1379178673699307" rx="1"/><rect x="978.3385597444927" y="634.1902523264731" width="67.4473877245205" height="299.7229332569342" fill="#000011" opacity="0.5623292295407339" rx="2"/><rect x="1008.667514714335" y="644.1902523264731" width="6.789477784836078" height="6.432293003525653" fill="#c77dff" opacity="0.4090706996873651" rx="1"/><rect x="991.8056677832049" y="647.406398828236" width="6.789477784836078" height="6.432293003525653" fill="#7b2cbf" opacity="0.20453534984368255" rx="1"/><rect x="1009.0782118700627" y="744.0978967454512" width="5.968083473380674" height="9.601327760052245" fill="#c77dff" opacity="0.17531627467258748" rx="1"/><rect x="992.2163649389325" y="748.8985606254773" width="5.968083473380674" height="9.601327760052245" fill="#7b2cbf" opacity="0.08765813733629374" rx="1"/><rect x="1009.2609900432315" y="844.0055411644292" width="5.602527127043001" height="8.247763701306601" fill="#c77dff" opacity="0.21461484155492272" rx="1"/><rect x="992.3991431121013" y="848.1294230150826" width="5.602527127043001" height="8.247763701306601" fill="#7b2cbf" opacity="0.10730742077746136" rx="1"/><rect x="1051.6307867694718" y="817.1210749463926" width="38.594535139527764" height="116.79211063701476" fill="#000011" opacity="0.5883379048175034" rx="2"/><rect x="1065.7260328020727" y="827.1210749463926" width="10.404043074325667" height="8.59263448756948" fill="#c77dff" opacity="0.40147718447294956" rx="1"/><rect x="1056.0773990171908" y="831.4173921901773" width="10.404043074325667" height="8.59263448756948" fill="#7b2cbf" opacity="0.20073859223647478" rx="1"/><rect x="1065.0391683634462" y="850.4794970737955" width="11.77777195157897" height="6.729049944488576" fill="#c77dff" opacity="0.20099124701251073" rx="1"/><rect x="1055.3905345785643" y="853.8440220460399" width="11.77777195157897" height="6.729049944488576" fill="#7b2cbf" opacity="0.10049562350625536" rx="1"/><rect x="1066.105152652856" y="873.8379192011985" width="9.64580337275886" height="6.13885601520046" fill="#c77dff" opacity="0.21702300750581152" rx="1"/><rect x="1056.4565188679742" y="876.9073472087987" width="9.64580337275886" height="6.13885601520046" fill="#7b2cbf" opacity="0.10851150375290576" rx="1"/><rect x="1068.4781239404058" y="897.1963413286014" width="4.8998607976594615" height="8.004156001378819" fill="#c77dff" opacity="0.11102646976034775" rx="1"/><rect x="1058.829490155524" y="901.1984193292908" width="4.8998607976594615" height="8.004156001378819" fill="#7b2cbf" opacity="0.05551323488017387" rx="1"/><rect x="1066.951886887185" y="920.5547634560044" width="7.952334904100824" height="8.100169846345711" fill="#c77dff" opacity="0.5719621621705504" rx="1"/><rect x="1057.3032531023032" y="924.6048483791773" width="7.952334904100824" height="8.100169846345711" fill="#7b2cbf" opacity="0.2859810810852752" rx="1"/><rect x="1126.2473667613806" y="575.221882719831" width="79.0617433444275" height="358.69130286357625" fill="#10002b" opacity="0.6302885187627488" rx="2"/><rect x="1160.614550885189" y="585.221882719831" width="10.327375096810837" height="8.30326328666491" fill="#c77dff" opacity="0.15844368298036132" rx="1"/><rect x="1140.849115049082" y="589.3735143631635" width="10.327375096810837" height="8.30326328666491" fill="#7b2cbf" opacity="0.07922184149018066" rx="1"/><rect x="1162.0408136991414" y="656.9601432925463" width="7.474849468906142" height="7.359821703601587" fill="#c77dff" opacity="0.1897233642380972" rx="1"/><rect x="1142.2753778630345" y="660.640054144347" width="7.474849468906142" height="7.359821703601587" fill="#7b2cbf" opacity="0.0948616821190486" rx="1"/><rect x="1161.001395278145" y="728.6984038652615" width="9.553686310898906" height="7.2091681084616965" fill="#c77dff" opacity="0.5038036948544448" rx="1"/><rect x="1141.2359594420382" y="732.3029879194924" width="9.553686310898906" height="7.2091681084616965" fill="#7b2cbf" opacity="0.2519018474272224" rx="1"/><rect x="1161.1894213143246" y="800.4366644379768" width="9.177634238539644" height="9.45243746122635" fill="#c77dff" opacity="0.5180982284988506" rx="1"/><rect x="1141.4239854782177" y="805.1628831685899" width="9.177634238539644" height="9.45243746122635" fill="#7b2cbf" opacity="0.2590491142494253" rx="1"/><rect x="1159.9642962675925" y="872.174925010692" width="11.627884332003976" height="7.905355049740839" fill="#c77dff" opacity="0.17472481941215806" rx="1"/><rect x="1140.1988604314856" y="876.1276025355625" width="11.627884332003976" height="7.905355049740839" fill="#7b2cbf" opacity="0.08736240970607903" rx="1"/><rect x="1219.7103556105192" y="621.1722928730705" width="34.01606134698169" height="312.7408927103367" fill="#10002b" opacity="0.5307571835887519" rx="2"/><rect x="1230.8155238106415" y="631.1722928730705" width="11.80572494673676" height="6.12143436356481" fill="#c77dff" opacity="0.16676877303206566" rx="1"/><rect x="1222.311508473896" y="634.2330100548529" width="11.80572494673676" height="6.12143436356481" fill="#7b2cbf" opacity="0.08338438651603283" rx="1"/><rect x="1233.2791968477607" y="693.7204714151379" width="6.878378872498493" height="7.861312243589506" fill="#c77dff" opacity="0.3147309585043069" rx="1"/><rect x="1224.7751815110153" y="697.6511275369327" width="6.878378872498493" height="7.861312243589506" fill="#7b2cbf" opacity="0.15736547925215344" rx="1"/><rect x="1233.3040624284893" y="756.2686499572052" width="6.828647711041534" height="9.564465653981191" fill="#c77dff" opacity="0.4273495954525074" rx="1"/><rect x="1224.8000470917439" y="761.0508827841958" width="6.828647711041534" height="9.564465653981191" fill="#7b2cbf" opacity="0.2136747977262537" rx="1"/><rect x="1234.2053149489698" y="818.8168284992726" width="5.0261426700805645" height="6.911585651550346" fill="#c77dff" opacity="0.5488657528881137" rx="1"/><rect x="1225.7012996122244" y="822.2726213250477" width="5.0261426700805645" height="6.911585651550346" fill="#7b2cbf" opacity="0.27443287644405684" rx="1"/><rect x="1234.5297461430378" y="881.3650070413399" width="4.377280281944499" height="7.83066827567077" fill="#c77dff" opacity="0.4248633114446102" rx="1"/><rect x="1226.0257308062924" y="885.2803411791754" width="4.377280281944499" height="7.83066827567077" fill="#7b2cbf" opacity="0.2124316557223051" rx="1"/><rect x="1302.2484283992667" y="795.7890717884966" width="30.309774801207187" height="138.12411379491076" fill="#10002b" opacity="0.6801701338449889" rx="2"/><rect x="1311.446739125635" y="805.7890717884966" width="11.913153348470376" height="8.074101821071027" fill="#c77dff" opacity="0.1914155042477454" rx="1"/><rect x="1303.8692954253331" y="809.8261226990321" width="11.913153348470376" height="8.074101821071027" fill="#7b2cbf" opacity="0.0957077521238727" rx="1"/><rect x="1315.3963463209561" y="833.4138945474788" width="4.0139389578285485" height="7.726458701707064" fill="#c77dff" opacity="0.5768849520424578" rx="1"/><rect x="1307.8189026206542" y="837.2771238983323" width="4.0139389578285485" height="7.726458701707064" fill="#7b2cbf" opacity="0.2884424760212289" rx="1"/><rect x="1314.747962645662" y="861.0387173064609" width="5.310706308416721" height="9.204569348880222" fill="#c77dff" opacity="0.24830409808743376" rx="1"/><rect x="1307.17051894536" y="865.6410019809009" width="5.310706308416721" height="9.204569348880222" fill="#7b2cbf" opacity="0.12415204904371688" rx="1"/><rect x="1313.5697546593308" y="888.663540065443" width="7.667122281078976" height="8.865752533745429" fill="#c77dff" opacity="0.2452560723166112" rx="1"/><rect x="1305.9923109590288" y="893.0964163323158" width="7.667122281078976" height="8.865752533745429" fill="#7b2cbf" opacity="0.1226280361583056" rx="1"/><rect x="1311.8238214512412" y="916.2883628244252" width="11.15898869725852" height="8.735885114114705" fill="#c77dff" opacity="0.551834942668638" rx="1"/><rect x="1304.2463777509392" y="920.6563053814826" width="11.15898869725852" height="8.735885114114705" fill="#7b2cbf" opacity="0.275917471334319" rx="1"/><rect x="1386.3086770303335" y="571.7712229168442" width="74.7404850005965" height="362.1419626665632" fill="#10002b" opacity="0.6125232100748744" rx="2"/><rect x="1421.346044673665" y="581.7712229168442" width="4.6657497139335025" height="6.289094534769909" fill="#c77dff" opacity="0.4773798506887117" rx="1"/><rect x="1402.660923423516" y="584.9157701842291" width="4.6657497139335025" height="6.289094534769909" fill="#7b2cbf" opacity="0.23868992534435585" rx="1"/><rect x="1419.9305396627008" y="633.5057890120675" width="7.4967597358619695" height="7.725726357131667" fill="#c77dff" opacity="0.5521594504947214" rx="1"/><rect x="1401.2454184125518" y="637.3686521906333" width="7.4967597358619695" height="7.725726357131667" fill="#7b2cbf" opacity="0.2760797252473607" rx="1"/><rect x="1420.2746332155714" y="685.2403551072908" width="6.808572630120574" height="6.0358898136848325" fill="#c77dff" opacity="0.23371265845692546" rx="1"/><rect x="1401.5895119654224" y="688.2583000141333" width="6.808572630120574" height="6.0358898136848325" fill="#7b2cbf" opacity="0.11685632922846273" rx="1"/><rect x="1418.331319362235" y="736.9749212025141" width="10.695200336793253" height="6.358456193552924" fill="#c77dff" opacity="0.36579301449605106" rx="1"/><rect x="1399.646198112086" y="740.1541492992906" width="10.695200336793253" height="6.358456193552924" fill="#7b2cbf" opacity="0.18289650724802553" rx="1"/><rect x="1419.8635012020504" y="788.7094872977375" width="7.630836657162485" height="6.416782651193622" fill="#c77dff" opacity="0.48243036260419303" rx="1"/><rect x="1401.1783799519014" y="791.9178786233343" width="7.630836657162485" height="6.416782651193622" fill="#7b2cbf" opacity="0.24121518130209652" rx="1"/><rect x="1419.8182550861543" y="840.4440533929608" width="7.721328888954904" height="6.179784767371553" fill="#c77dff" opacity="0.16481153624244305" rx="1"/><rect x="1401.1331338360053" y="843.5339457766465" width="7.721328888954904" height="6.179784767371553" fill="#7b2cbf" opacity="0.08240576812122152" rx="1"/><rect x="1421.4776437954226" y="892.178619488184" width="4.402551470418123" height="6.010113166647524" fill="#c77dff" opacity="0.489271445080934" rx="1"/><rect x="1402.7925225452736" y="895.1836760715078" width="4.402551470418123" height="6.010113166647524" fill="#7b2cbf" opacity="0.244635722540467" rx="1"/><rect x="1467.394615359929" y="575.8786100721635" width="35.50341114995615" height="358.0345755112438" fill="#000011" opacity="0.6985917361915559" rx="2"/><rect x="1480.695217751827" y="585.8786100721635" width="8.902206366160467" height="6.539204697250203" fill="#c77dff" opacity="0.34359486118042726" rx="1"/><rect x="1471.8193649643379" y="589.1482124207886" width="8.902206366160467" height="6.539204697250203" fill="#7b2cbf" opacity="0.17179743059021363" rx="1"/><rect x="1481.0963601628544" y="675.3872539499745" width="8.099921544105728" height="7.769703442642862" fill="#c77dff" opacity="0.2536864625880696" rx="1"/><rect x="1472.2205073753653" y="679.2721056712959" width="8.099921544105728" height="7.769703442642862" fill="#7b2cbf" opacity="0.1268432312940348" rx="1"/><rect x="1481.2963808580062" y="764.8958978277853" width="7.699880153802196" height="6.903115944215822" fill="#c77dff" opacity="0.15404458987853598" rx="1"/><rect x="1472.420528070517" y="768.3474557998933" width="7.699880153802196" height="6.903115944215822" fill="#7b2cbf" opacity="0.07702229493926799" rx="1"/><rect x="1482.4326112338883" y="854.4045417055963" width="5.4274194020376125" height="7.555332233560116" fill="#c77dff" opacity="0.5335342182157408" rx="1"/><rect x="1473.5567584463993" y="858.1822078223764" width="5.4274194020376125" height="7.555332233560116" fill="#7b2cbf" opacity="0.2667671091078704" rx="1"/><rect x="1543.7798342117528" y="827.6390865160243" width="50.46214932120921" height="106.274099067383" fill="#10002b" opacity="0.5684687746149648" rx="2"/><rect x="1566.9406244330903" y="837.6390865160243" width="4.140568878534382" height="7.753629900923379" fill="#c77dff" opacity="0.39261628964278295" rx="1"/><rect x="1554.3250871027878" y="841.5159014664861" width="4.140568878534382" height="7.753629900923379" fill="#7b2cbf" opacity="0.19630814482139147" rx="1"/><rect x="1564.7703952555944" y="850.9233488994472" width="8.48102723352635" height="6.977394066978571" fill="#c77dff" opacity="0.29146601324702287" rx="1"/><rect x="1552.154857925292" y="854.4120459329365" width="8.48102723352635" height="6.977394066978571" fill="#7b2cbf" opacity="0.14573300662351144" rx="1"/><rect x="1566.8551688971595" y="864.2076112828701" width="4.311479950396223" height="9.104567909404768" fill="#c77dff" opacity="0.28161217034366265" rx="1"/><rect x="1554.239631566857" y="868.7598952375724" width="4.311479950396223" height="9.104567909404768" fill="#7b2cbf" opacity="0.14080608517183132" rx="1"/><rect x="1563.6172806207599" y="877.491873666293" width="10.78725650319533" height="9.796664819074017" fill="#c77dff" opacity="0.40879872392602234" rx="1"/><rect x="1551.0017432904574" y="882.3902060758301" width="10.78725650319533" height="9.796664819074017" fill="#7b2cbf" opacity="0.20439936196301117" rx="1"/><rect x="1566.0172776554289" y="890.7761360497159" width="5.987262433857485" height="9.969971365288359" fill="#c77dff" opacity="0.3713994888522195" rx="1"/><rect x="1553.4017403251264" y="895.76112173236" width="5.987262433857485" height="9.969971365288359" fill="#7b2cbf" opacity="0.18569974442610976" rx="1"/><rect x="1563.3417533632235" y="904.0603984331387" width="11.338311018268184" height="9.016776063250559" fill="#c77dff" opacity="0.3483590453044416" rx="1"/><rect x="1550.726216032921" y="908.568786464764" width="11.338311018268184" height="9.016776063250559" fill="#7b2cbf" opacity="0.1741795226522208" rx="1"/><rect x="1565.7198984652573" y="917.3446608165616" width="6.582020814200403" height="9.01363686449212" fill="#c77dff" opacity="0.21382610283648273" rx="1"/><rect x="1553.1043611349548" y="921.8514792488077" width="6.582020814200403" height="9.01363686449212" fill="#7b2cbf" opacity="0.10691305141824137" rx="1"/><rect x="1563.6543281932024" y="930.6289231999845" width="10.713161358310181" height="7.234670477275428" fill="#c77dff" opacity="0.4706814601017818" rx="1"/><rect x="1551.0387908629" y="934.2462584386221" width="10.713161358310181" height="7.234670477275428" fill="#7b2cbf" opacity="0.2353407300508909" rx="1"/><rect x="1626.607692911431" y="816.3320447007036" width="71.45592543330415" height="117.58114088270375" fill="#000011" opacity="0.41659722195859006" rx="2"/><rect x="1657.8129443588696" y="826.3320447007036" width="9.045422538427037" height="9.837528735361417" fill="#c77dff" opacity="0.529128494213598" rx="1"/><rect x="1639.9489630005437" y="831.2508090683843" width="9.045422538427037" height="9.837528735361417" fill="#7b2cbf" opacity="0.264564247106799" rx="1"/><rect x="1658.2309047633853" y="841.0296873110416" width="8.20950172939559" height="7.721002294151345" fill="#c77dff" opacity="0.41008251961555386" rx="1"/><rect x="1640.3669234050594" y="844.8901884581172" width="8.20950172939559" height="7.721002294151345" fill="#7b2cbf" opacity="0.20504125980777693" rx="1"/><rect x="1658.3572792139269" y="855.7273299213796" width="7.956752828312282" height="7.574487726570686" fill="#c77dff" opacity="0.5409225842545095" rx="1"/><rect x="1640.493297855601" y="859.5145737846649" width="7.956752828312282" height="7.574487726570686" fill="#7b2cbf" opacity="0.2704612921272547" rx="1"/><rect x="1658.1384363815043" y="870.4249725317175" width="8.394438493157374" height="6.203071185434952" fill="#c77dff" opacity="0.3680944794016179" rx="1"/><rect x="1640.2744550231785" y="873.5265081244349" width="8.394438493157374" height="6.203071185434952" fill="#7b2cbf" opacity="0.18404723970080894" rx="1"/><rect x="1658.7991585321256" y="885.1226151420555" width="7.072994191915028" height="6.043062561201645" fill="#c77dff" opacity="0.5823862120933798" rx="1"/><rect x="1640.9351771737997" y="888.1441464226563" width="7.072994191915028" height="6.043062561201645" fill="#7b2cbf" opacity="0.2911931060466899" rx="1"/><rect x="1658.3398999952103" y="899.8202577523934" width="7.991511265745272" height="6.737497413702657" fill="#c77dff" opacity="0.47964472777201905" rx="1"/><rect x="1640.4759186368844" y="903.1890064592448" width="7.991511265745272" height="6.737497413702657" fill="#7b2cbf" opacity="0.23982236388600953" rx="1"/><rect x="1657.1542937658153" y="914.5179003627314" width="10.36272372453537" height="9.127666245942859" fill="#c77dff" opacity="0.4449208637105583" rx="1"/><rect x="1639.2903124074894" y="919.0817334857029" width="10.36272372453537" height="9.127666245942859" fill="#7b2cbf" opacity="0.22246043185527914" rx="1"/><rect x="1656.581633645478" y="929.2155429730694" width="11.508043965210216" height="6.572357281244443" fill="#c77dff" opacity="0.107734891727505" rx="1"/><rect x="1638.717652287152" y="932.5017216136916" width="11.508043965210216" height="6.572357281244443" fill="#7b2cbf" opacity="0.0538674458637525" rx="1"/><rect x="1683.8543231794272" y="707.9831563071308" width="87.76835820585683" height="225.93002927627649" fill="#000011" opacity="0.41005133842352115" rx="2"/><rect x="1721.9162391561354" y="717.9831563071308" width="11.6445262524403" height="8.441252410980233" fill="#c77dff" opacity="0.5321661579730376" rx="1"/><rect x="1699.9741496046713" y="722.2037825126209" width="11.6445262524403" height="8.441252410980233" fill="#7b2cbf" opacity="0.2660830789865188" rx="1"/><rect x="1723.9162172816964" y="755.6381611865102" width="7.644570001318252" height="8.372493562840972" fill="#c77dff" opacity="0.48146608925458656" rx="1"/><rect x="1701.9741277302323" y="759.8244079679306" width="7.644570001318252" height="8.372493562840972" fill="#7b2cbf" opacity="0.24073304462729328" rx="1"/><rect x="1721.9059712148517" y="793.2931660658896" width="11.66506213500748" height="9.41224882179225" fill="#c77dff" opacity="0.5192674311155611" rx="1"/><rect x="1699.9638816633876" y="797.9992904767857" width="11.66506213500748" height="9.41224882179225" fill="#7b2cbf" opacity="0.25963371555778053" rx="1"/><rect x="1724.876299021271" y="830.948170945269" width="5.724406522168873" height="8.583574598325317" fill="#c77dff" opacity="0.20959878182262154" rx="1"/><rect x="1702.934209469807" y="835.2399582444317" width="5.724406522168873" height="8.583574598325317" fill="#7b2cbf" opacity="0.10479939091131077" rx="1"/><rect x="1722.8559192884377" y="868.6031758246485" width="9.765165987835537" height="6.21723344740859" fill="#c77dff" opacity="0.37934759465962364" rx="1"/><rect x="1700.9138297369736" y="871.7117925483527" width="9.765165987835537" height="6.21723344740859" fill="#7b2cbf" opacity="0.18967379732981182" rx="1"/><rect x="1724.5341461770083" y="906.2581807040278" width="6.408712210694494" height="7.614937490228316" fill="#c77dff" opacity="0.37993400890378604" rx="1"/><rect x="1702.5920566255443" y="910.065649449142" width="6.408712210694494" height="7.614937490228316" fill="#7b2cbf" opacity="0.18996700445189302" rx="1"/><rect x="1772.8219309269502" y="588.7960067342026" width="35.17645436925265" height="345.1171788492047" fill="#000011" opacity="0.5810523546489543" rx="2"/><rect x="1784.4757702917502" y="598.7960067342026" width="11.868775639652455" height="8.957529042604735" fill="#c77dff" opacity="0.5386969052578082" rx="1"/><rect x="1775.681656699437" y="603.274771255505" width="11.868775639652455" height="8.957529042604735" fill="#7b2cbf" opacity="0.2693484526289041" rx="1"/><rect x="1784.845264947006" y="713.8350663506042" width="11.129786329141304" height="9.37232962049831" fill="#c77dff" opacity="0.36279099466344134" rx="1"/><rect x="1776.0511513546928" y="718.5212311608533" width="11.129786329141304" height="9.37232962049831" fill="#7b2cbf" opacity="0.18139549733172067" rx="1"/><rect x="1787.0929991039663" y="828.8741259670057" width="6.634318015220183" height="9.721567240478835" fill="#c77dff" opacity="0.5217642504772554" rx="1"/><rect x="1778.2988855116532" y="833.7349095872452" width="6.634318015220183" height="9.721567240478835" fill="#7b2cbf" opacity="0.2608821252386277" rx="1"/><rect x="1840.8427493532288" y="743.9287360743454" width="71.20788677158018" height="189.98444950906196" fill="#10002b" opacity="0.47617124036796654" rx="2"/><rect x="1874.1474882376258" y="753.9287360743454" width="4.5984090027861315" height="9.519304304271774" fill="#c77dff" opacity="0.46295225561199527" rx="1"/><rect x="1856.3455165447308" y="758.6883882264813" width="4.5984090027861315" height="9.519304304271774" fill="#7b2cbf" opacity="0.23147612780599763" rx="1"/><rect x="1874.0543629026631" y="777.6767922629781" width="4.784659672711198" height="6.177678200457636" fill="#c77dff" opacity="0.45700406968989504" rx="1"/><rect x="1856.2523912097681" y="780.7656313632069" width="4.784659672711198" height="6.177678200457636" fill="#7b2cbf" opacity="0.22850203484494752" rx="1"/><rect x="1874.0774937404965" y="801.4248484516108" width="4.7383979970445855" height="9.20051155500126" fill="#c77dff" opacity="0.3397185298008189" rx="1"/><rect x="1856.2755220476015" y="806.0251042291114" width="4.7383979970445855" height="9.20051155500126" fill="#7b2cbf" opacity="0.16985926490040945" rx="1"/><rect x="1873.3122995282317" y="825.1729046402436" width="6.268786421573903" height="8.460548566295893" fill="#c77dff" opacity="0.23355913435424658" rx="1"/><rect x="1855.5103278353367" y="829.4031789233916" width="6.268786421573903" height="8.460548566295893" fill="#7b2cbf" opacity="0.11677956717712329" rx="1"/><rect x="1873.7092428749215" y="848.9209608288763" width="5.474899728194554" height="7.190504100450898" fill="#c77dff" opacity="0.1635530591391849" rx="1"/><rect x="1855.9072711820265" y="852.5162128791018" width="5.474899728194554" height="7.190504100450898" fill="#7b2cbf" opacity="0.08177652956959244" rx="1"/><rect x="1870.6969238858894" y="872.6690170175091" width="11.4995377062586" height="9.060875856098923" fill="#c77dff" opacity="0.47248699690040363" rx="1"/><rect x="1852.8949521929944" y="877.1994549455585" width="11.4995377062586" height="9.060875856098923" fill="#7b2cbf" opacity="0.23624349845020182" rx="1"/><rect x="1873.6806415535232" y="896.4170732061418" width="5.532102370991396" height="6.560086569879224" fill="#c77dff" opacity="0.10791284733170478" rx="1"/><rect x="1855.8786698606282" y="899.6971164910815" width="5.532102370991396" height="6.560086569879224" fill="#7b2cbf" opacity="0.05395642366585239" rx="1"/><rect x="1871.7359677941388" y="920.1651293947746" width="9.42144988975987" height="6.45998106907587" fill="#c77dff" opacity="0.4764033183400527" rx="1"/><rect x="1853.9339961012438" y="923.3951199293125" width="9.42144988975987" height="6.45998106907587" fill="#7b2cbf" opacity="0.23820165917002634" rx="1"/><rect x="0" y="1000" width="1920" height="80" fill="#000005" opacity="0.8"/><line x1="0" y1="1040" x2="1920" y2="1040" stroke="#c77dff" stroke-opacity="0.15" stroke-width="2" stroke-dasharray="30,20"/><rect x="0" y="930" width="1920" height="150" fill="url(#glow45)"/><rect x="0" y="980" width="1920" height="100" fill="#c77dff" opacity="0.04"/><rect x="1484.5538188993357" y="1002.804791178276" width="58.36971508301089" height="2" fill="#7b2cbf" opacity="0.05046656505914092" rx="1"/><rect x="1802.29036686064" y="1009.0962833513264" width="95.30716584886126" height="2" fill="#7b2cbf" opacity="0.05153051597800351" rx="1"/><rect x="416.98147336416446" y="1047.722872418287" width="61.38899846966122" height="2" fill="#7b2cbf" opacity="0.04168330469673577" rx="1"/><rect x="269.9903923901707" y="1015.110566456595" width="76.22554171276873" height="2" fill="#7b2cbf" opacity="0.026953884690756418" rx="1"/><rect x="930.8754982731481" y="1058.786105429471" width="99.14849631002836" height="2" fill="#7b2cbf" opacity="0.02585148424977704" rx="1"/><rect x="1636.5852444704124" y="1014.0783084961768" width="38.8564833763187" height="2" fill="#7b2cbf" opacity="0.04598906356515108" rx="1"/><rect x="6.315152050534998" y="1008.4681731295931" width="71.774567354418" height="2" fill="#7b2cbf" opacity="0.04127564864728499" rx="1"/><rect x="1682.096013073366" y="1029.5479550700513" width="60.38051053424843" height="2" fill="#7b2cbf" opacity="0.030542344527911013" rx="1"/><rect x="109.38926744027745" y="1013.85706059026" width="109.53897787480125" height="2" fill="#7b2cbf" opacity="0.03722148972964415" rx="1"/><rect x="1779.7114763827324" y="1016.8964433849083" width="34.619161587818326" height="2" fill="#7b2cbf" opacity="0.041475622454070396" rx="1"/><rect x="491.0471120129915" y="1010.067526826185" width="34.505081860000516" height="2" fill="#7b2cbf" opacity="0.04412590913104962" rx="1"/><rect x="896.4523670674423" y="1040.0586909521508" width="96.2822200023295" height="2" fill="#7b2cbf" opacity="0.030950806488038694" rx="1"/><rect x="626.986856606553" y="1005.8184636025267" width="60.868264399671055" height="2" fill="#7b2cbf" opacity="0.04598711543390227" rx="1"/><rect x="1434.9390228453417" y="1049.165182553503" width="52.943430224653206" height="2" fill="#7b2cbf" opacity="0.05488367284528997" rx="1"/><rect x="793.9605471850281" y="1029.8952469206172" width="21.419889997090188" height="2" fill="#7b2cbf" opacity="0.038491339315309035" rx="1"/><rect x="496.1384355686927" y="1059.842338454873" width="38.638742626327726" height="2" fill="#7b2cbf" opacity="0.04782365021012343" rx="1"/><rect x="1057.2680557745668" y="1058.9808961234476" width="77.69077177571384" height="2" fill="#7b2cbf" opacity="0.04105655435031666" rx="1"/><rect x="1810.3789995355482" y="1058.0240504532178" width="43.56774674811581" height="2" fill="#7b2cbf" opacity="0.0573654882883107" rx="1"/><rect x="1241.0035906641288" y="1019.4920622556219" width="86.21353995665292" height="2" fill="#7b2cbf" opacity="0.058365205861247424" rx="1"/><rect x="880.9804775381881" y="1013.9753381847347" width="108.96152460690622" height="2" fill="#7b2cbf" opacity="0.05497190818073505" rx="1"/><rect x="188.73886410816078" y="1024.852664704633" width="87.90758060941184" height="2" fill="#7b2cbf" opacity="0.02608841392353373" rx="1"/><rect x="267.70889869604935" y="1046.2828898258235" width="67.99714354984395" height="2" fill="#7b2cbf" opacity="0.05992661689406416" rx="1"/><rect x="831.3206427244751" y="1051.5930674158951" width="118.19139349232228" height="2" fill="#7b2cbf" opacity="0.0452610461565808" rx="1"/><rect x="593.1712385903045" y="1035.5837237312421" width="21.49192893912362" height="2" fill="#7b2cbf" opacity="0.03650980647106418" rx="1"/><rect x="1097.776344972145" y="1026.5808344368313" width="105.73880365252002" height="2" fill="#7b2cbf" opacity="0.035359348462745396" rx="1"/><rect x="1678.1878141495838" y="1027.393858606786" width="37.95697827310231" height="2" fill="#7b2cbf" opacity="0.033563809574945785" rx="1"/><rect x="1725.9257478560148" y="1014.8641640960388" width="111.25559963082327" height="2" fill="#7b2cbf" opacity="0.033635336536363546" rx="1"/><rect x="1117.592966518736" y="1036.5168306223388" width="45.05026083091513" height="2" fill="#7b2cbf" opacity="0.055799644085531966" rx="1"/><rect x="1457.0851549918498" y="1050.2620315296253" width="77.40846601720165" height="2" fill="#7b2cbf" opacity="0.02376772056421445" rx="1"/><rect x="1365.9884743592675" y="1006.0824844581267" width="21.27731286950347" height="2" fill="#7b2cbf" opacity="0.02318010380565657" rx="1"/><text x="1900" y="1060" font-family="Arial, sans-serif" font-size="11" fill="#fff" opacity="0.08" text-anchor="end" letter-spacing="2">GTA 6 REWARDS · WALLPAPER 046</text>
</svg>