<?xml version="1.0" encoding="UTF-8"?>
<svg xmlns="http://www.w3.org/2000/svg" width="1920" height="1080" viewBox="0 0 1920 1080">
<defs>
    <linearGradient id="bg8" x1="0%" y1="0%" x2="0%" y2="100%">
      <stop offset="0%" stop-color="#352f44"/>
      <stop offset="50%" stop-color="#020011"/>
      <stop offset="100%" stop-color="#352f44"/>
    </linearGradient>
    <linearGradient id="sun8" x1="0%" y1="0%" x2="100%" y2="100%">
      <stop offset="0%" stop-color="#ff577f"/>
      <stop offset="100%" stop-color="#ff884b"/>
    </linearGradient>
    <radialGradient id="glow8" cx="50%" cy="70%" r="50%">
      <stop offset="0%" stop-color="#ff577f" stop-opacity="0.3"/>
      <stop offset="100%" stop-color="#352f44" stop-opacity="0"/>
    </radialGradient>
  </defs><rect width="1920" height="1080" fill="url(#bg8)"/><circle cx="1050.2307134564571" cy="320.26583285077146" r="808.7862862061677" fill="#ff577f" opacity="0.1085009101215985"/><circle cx="1250.2307134564571" cy="220.26583285077146" r="489.87980040020307" fill="#ff884b" opacity="0.11550076424737944"/><line x1="0" y1="980" x2="1920" y2="980" stroke="#ff884b" stroke-opacity="0.05" stroke-width="2"/><line x1="0" y1="935" x2="1920" y2="935" stroke="#ff884b" stroke-opacity="0.049" stroke-width="0.5"/><line x1="0" y1="890" x2="1920" y2="890" stroke="#ff884b" stroke-opacity="0.048" stroke-width="0.5"/><line x1="0" y1="845" x2="1920" y2="845" stroke="#ff884b" stroke-opacity="0.047" stroke-width="0.5"/><line x1="0" y1="800" x2="1920" y2="800" stroke="#ff884b" stroke-opacity="0.046" stroke-width="0.5"/><line x1="0" y1="755" x2="1920" y2="755" stroke="#ff884b" stroke-opacity="0.045" stroke-width="0.5"/><line x1="0" y1="710" x2="1920" y2="710" stroke="#ff884b" stroke-opacity="0.044" stroke-width="0.5"/><line x1="0" y1="665" x2="1920" y2="665" stroke="#ff884b" stroke-opacity="0.043" stroke-width="0.5"/><line x1="0" y1="620" x2="1920" y2="620" stroke="#ff884b" stroke-opacity="0.041999999999999996" stroke-width="0.5"/><line x1="0" y1="575" x2="1920" y2="575" stroke="#ff884b" stroke-opacity="0.041" stroke-width="0.5"/><line x1="0" y1="530" x2="1920" y2="530" stroke="#ff884b" stroke-opacity="0.04" stroke-width="0.5"/><line x1="0" y1="485" x2="1920" y2="485" stroke="#ff884b" stroke-opacity="0.039" stroke-width="0.5"/><line x1="0" y1="440" x2="1920" y2="440" stroke="#ff884b" stroke-opacity="0.038" stroke-width="0.5"/><line x1="0" y1="395" x2="1920" y2="395" stroke="#ff884b" stroke-opacity="0.037" stroke-width="0.5"/><line x1="0" y1="350" x2="1920" y2="350" stroke="#ff884b" stroke-opacity="0.036" stroke-width="0.5"/><line x1="0" y1="305" x2="1920" y2="305" stroke="#ff884b" stroke-opacity="0.034999999999999996" stroke-width="0.5"/><line x1="0" y1="260" x2="1920" y2="260" stroke="#ff884b" stroke-opacity="0.033999999999999996" stroke-width="0.5"/><line x1="0" y1="215" x2="1920" y2="215" stroke="#ff884b" stroke-opacity="0.033" stroke-width="0.5"/><line x1="0" y1="170" x2="1920" y2="170" stroke="#ff884b" stroke-opacity="0.032" stroke-width="0.5"/><line x1="0" y1="125" x2="1920" y2="125" stroke="#ff884b" stroke-opacity="0.031" stroke-width="0.5"/><line x1="560" y1="1080" x2="860" y2="580" stroke="#ff577f" stroke-opacity="0.04" stroke-width="1"/><line x1="640" y1="1080" x2="880" y2="590" stroke="#ff577f" stroke-opacity="0.04" stroke-width="1"/><line x1="720" y1="1080" x2="900" y2="600" stroke="#ff577f" stroke-opacity="0.04" stroke-width="1"/><line x1="800" y1="1080" x2="920" y2="610" stroke="#ff577f" stroke-opacity="0.04" stroke-width="1"/><line x1="880" y1="1080" x2="940" y2="620" stroke="#ff577f" stroke-opacity="0.04" stroke-width="1"/><line x1="960" y1="1080" x2="960" y2="630" stroke="#ff577f" stroke-opacity="0.04" stroke-width="1"/><line x1="1040" y1="1080" x2="980" y2="620" stroke="#ff577f" stroke-opacity="0.04" stroke-width="1"/><line x1="1120" y1="1080" x2="1000" y2="610" stroke="#ff577f" stroke-opacity="0.04" stroke-width="1"/><line x1="1200" y1="1080" x2="1020" y2="600" stroke="#ff577f" stroke-opacity="0.04" stroke-width="1"/><line x1="1280" y1="1080" x2="1040" y2="590" stroke="#ff577f" stroke-opacity="0.04" stroke-width="1"/><line x1="1360" y1="1080" x2="1060" y2="580" stroke="#ff577f" stroke-opacity="0.04" stroke-width="1"/><circle cx="907.9411993287366" cy="168.04141940503413" r="69.55258229969829" fill="url(#sun8)" opacity="0.7542551742527297"/><circle cx="907.9411993287366" cy="168.04141940503413" r="64.55258229969829" fill="#352f44" opacity="0.3"/><circle cx="423.0907792838036" cy="69.35657131796623" r="1.9320989602552956" fill="#fff" opacity="0.6160581966433809"/><circle cx="174.7119404782336" cy="55.212710996906445" r="0.5590756849989006" fill="#fff" opacity="0.5335918451039101"/><circle cx="852.6639789838027" cy="325.1744479400046" r="1.6612781107335532" fill="#fff" opacity="0.2238028524964589"/><circle cx="871.582006866015" cy="154.9214624899722" r="1.2506205351675443" fill="#fff" opacity="0.39261079034596"/><circle cx="995.6279520028336" cy="53.840655272323794" r="1.7913635338869327" fill="#fff" opacity="0.3943973038798192"/><circle cx="1407.579322785041" cy="388.65782057602377" r="1.267103344497062" fill="#fff" opacity="0.6109651627044578"/><circle cx="1448.489953169713" cy="280.47068819228343" r="0.9616779393892917" fill="#fff" opacity="0.3660045663281355"/><circle cx="199.85074241642158" cy="133.98350041498978" r="1.9998008135007233" fill="#fff" opacity="0.540927426223859"/><circle cx="774.5775892153796" cy="20.695532289495585" r="1.1635426449737378" fill="#fff" opacity="0.6735238654244513"/><circle cx="1915.8254773905094" cy="107.98336201440155" r="1.7907445170662237" fill="#fff" opacity="0.24395392631272644"/><circle cx="1049.9914404214342" cy="231.53760205757285" r="0.7675423410878383" fill="#fff" opacity="0.4432310503076834"/><circle cx="221.12163265727497" cy="46.29157591943899" r="1.991488960336775" fill="#fff" opacity="0.7030026097090456"/><circle cx="366.38618462867714" cy="9.781050147903397" r="1.938439530538963" fill="#fff" opacity="0.5639063102574802"/><circle cx="1525.0160277460272" cy="172.8394963659438" r="1.1676456976373788" fill="#fff" opacity="0.21845538630579958"/><circle cx="800.9120890872814" cy="129.61110288687308" r="1.5534738439725417" fill="#fff" opacity="0.20066682049088805"/><circle cx="1444.3022568906429" cy="161.73928469459975" r="0.884510930949941" fill="#fff" opacity="0.7898880876577199"/><circle cx="1703.1694533916118" cy="363.32890967543443" r="1.3825458681403069" fill="#fff" opacity="0.6020200777803595"/><circle cx="1832.9272256588858" cy="133.9958331785155" r="0.6420951100629976" fill="#fff" opacity="0.5507406659309614"/><circle cx="761.7907133982029" cy="145.4324421401677" r="1.8385943041272914" fill="#fff" opacity="0.3943107365617321"/><circle cx="1053.9395251343817" cy="122.90780973315886" r="1.5855498074287433" fill="#fff" opacity="0.5206564184093514"/><circle cx="774.0797439529746" cy="319.6114699653377" r="1.2779401160725252" fill="#fff" opacity="0.6293136953910146"/><circle cx="1585.8433850821675" cy="157.04873650824854" r="0.8990002767879051" fill="#fff" opacity="0.7867257477219043"/><circle cx="113.614435520399" cy="39.56264973235378" r="1.525662254780918" fill="#fff" opacity="0.390251068209822"/><circle cx="1798.1640015258836" cy="13.377607486531513" r="1.3685444943533616" fill="#fff" opacity="0.415513482879734"/><circle cx="1311.8933275416243" cy="51.70173295673489" r="0.7860559884659145" fill="#fff" opacity="0.35476923127536875"/><circle cx="1448.5288072024773" cy="325.10256390019845" r="0.6651586385362686" fill="#fff" opacity="0.5203892138135594"/><circle cx="845.4689220072396" cy="265.62582252026203" r="0.8998686042381145" fill="#fff" opacity="0.35857808751952325"/><circle cx="1027.502356112819" cy="112.95921633787434" r="0.6521062896708274" fill="#fff" opacity="0.4833065607778976"/><circle cx="405.29697338242477" cy="223.84550809111573" r="0.6511110790658535" fill="#fff" opacity="0.21683655302432286"/><circle cx="1417.3226093075523" cy="30.568739752883264" r="1.234406434286946" fill="#fff" opacity="0.7240388820702301"/><circle cx="1177.684818780442" cy="184.25180551974378" r="1.4444137547268565" fill="#fff" opacity="0.35675268181524067"/><circle cx="229.37078436589118" cy="300.8138190537723" r="1.3057145238401635" fill="#fff" opacity="0.750050093780749"/><circle cx="331.5416971620968" cy="129.9543586191615" r="1.766351478352759" fill="#fff" opacity="0.7309259963061023"/><circle cx="1080.5249559414863" cy="284.5110327034516" r="0.8096101198600629" fill="#fff" opacity="0.3237013974515026"/><circle cx="1217.9613275681534" cy="220.12045969723735" r="1.6783738051723627" fill="#fff" opacity="0.3337007568994772"/><circle cx="594.2342664194839" cy="411.77275404608173" r="0.892238726814333" fill="#fff" opacity="0.7412479187690764"/><circle cx="298.76489333314004" cy="90.89861581355767" r="0.5988582223883966" fill="#fff" opacity="0.47556389185496695"/><circle cx="452.87569339686905" cy="124.77603426128067" r="1.7801228052191722" fill="#fff" opacity="0.2025325370027061"/><circle cx="24.410361355266154" cy="253.8963052700032" r="1.315066125899336" fill="#fff" opacity="0.6272328394528555"/><circle cx="1707.0246670644322" cy="5.178771750344609" r="0.8518994539864126" fill="#fff" opacity="0.3776392072852792"/><circle cx="554.302259663656" cy="279.41765296631905" r="1.8493366340057311" fill="#fff" opacity="0.3467356147586218"/><circle cx="650.1417192840347" cy="390.54604620266383" r="1.6758539134580301" fill="#fff" opacity="0.21004358474399049"/><circle cx="753.1063120330466" cy="149.22472131001408" r="1.3555556694873507" fill="#fff" opacity="0.5909887177383035"/><circle cx="1229.81196134114" cy="391.75042711751314" r="1.3750416246184711" fill="#fff" opacity="0.2693996516683604"/><circle cx="352.1379868015968" cy="408.7149873880471" r="1.9370336447462984" fill="#fff" opacity="0.2811346914808114"/><circle cx="542.4377463530836" cy="259.01400825078923" r="1.8177734872600468" fill="#fff" opacity="0.5456963638182953"/><circle cx="1642.1648033806507" cy="293.27693516883926" r="1.0021606573141555" fill="#fff" opacity="0.4235058538670432"/><circle cx="1214.6155722287053" cy="81.13336169746084" r="1.6967695743536506" fill="#fff" opacity="0.6646009597146421"/><circle cx="1358.5258393172467" cy="411.32544577012897" r="0.8493460594558497" fill="#fff" opacity="0.7544539028206965"/><circle cx="312.256246430859" cy="155.16195625699172" r="1.799867606093145" fill="#fff" opacity="0.6187611660963765"/><circle cx="1541.2230119717362" cy="320.71180859597206" r="1.5083853079724092" fill="#fff" opacity="0.2313161380661922"/><circle cx="1036.6019272237556" cy="241.57209188900237" r="1.0948702480166383" fill="#fff" opacity="0.6919826317327056"/><circle cx="1389.3757289902717" cy="172.34962233816032" r="1.376872083842026" fill="#fff" opacity="0.7406078223000765"/><circle cx="116.20244088494276" cy="80.08856440710103" r="0.6366721730764657" fill="#fff" opacity="0.376017142361034"/><circle cx="429.8608353244748" cy="78.74070408538466" r="0.8919991318583487" fill="#fff" opacity="0.4613470748675398"/><circle cx="1319.3760232719071" cy="348.5810346260157" r="1.1672491159213823" fill="#fff" opacity="0.6161463695150209"/><circle cx="1899.919997150991" cy="132.07653177997017" r="0.5356450012269535" fill="#fff" opacity="0.6783717007558727"/><circle cx="1140.503032473033" cy="113.44405961442834" r="0.7178408341058159" fill="#fff" opacity="0.24804261309281986"/><circle cx="1261.4906768457708" cy="12.966197225490166" r="1.4431786743093231" fill="#fff" opacity="0.6872220130374707"/><circle cx="342.8713525139893" cy="293.11335880800925" r="1.6425249578064598" fill="#fff" opacity="0.5102698711935127"/><circle cx="1497.0230407028046" cy="426.2537961030039" r="1.3583357194108738" fill="#fff" opacity="0.3216725217461755"/><circle cx="621.6748113887559" cy="386.6758558681877" r="1.6475311172305447" fill="#fff" opacity="0.6796259232050799"/><circle cx="1404.8359661094928" cy="45.852241750306504" r="1.525407046784043" fill="#fff" opacity="0.2865033427920433"/><circle cx="1398.861670968789" cy="281.01922022016237" r="0.5881574513828749" fill="#fff" opacity="0.3744089689046165"/><rect x="25.995819665490608" y="560.1824805280618" width="56.014651336244924" height="360.6492638263501" fill="#1b152a" opacity="0.5331735572622096" rx="2"/><rect x="49.7077628948511" y="570.1824805280618" width="8.590764877523938" height="6.683379570181337" fill="#ff884b" opacity="0.14792441091219066" rx="1"/><rect x="35.70410006078987" y="573.5241703131525" width="8.590764877523938" height="6.683379570181337" fill="#ff577f" opacity="0.07396220545609533" rx="1"/><rect x="50.044380051792686" y="621.7038039318261" width="7.9175305636407645" height="7.679994514603166" fill="#ff884b" opacity="0.13510834545248848" rx="1"/><rect x="36.040717217731455" y="625.5438011891276" width="7.9175305636407645" height="7.679994514603166" fill="#ff577f" opacity="0.06755417272624424" rx="1"/><rect x="48.30190111540768" y="673.2251273355904" width="11.402488436410783" height="6.163614669852801" fill="#ff884b" opacity="0.44137097649308177" rx="1"/><rect x="34.29823828134645" y="676.3069346705169" width="11.402488436410783" height="6.163614669852801" fill="#ff577f" opacity="0.22068548824654088" rx="1"/><rect x="50.09743861833062" y="724.7464507393547" width="7.8114134305649" height="9.125810277444732" fill="#ff884b" opacity="0.25663745211359057" rx="1"/><rect x="36.09377578426939" y="729.3093558780771" width="7.8114134305649" height="9.125810277444732" fill="#ff577f" opacity="0.12831872605679528" rx="1"/><rect x="51.062036407194576" y="776.2677741431189" width="5.882217852836991" height="8.95160665897457" fill="#ff884b" opacity="0.1984635346332713" rx="1"/><rect x="37.058373573133345" y="780.7435774726061" width="5.882217852836991" height="8.95160665897457" fill="#ff577f" opacity="0.09923176731663565" rx="1"/><rect x="51.225876060367064" y="827.7890975468833" width="5.554538546492005" height="7.796020009973091" fill="#ff884b" opacity="0.506539624302308" rx="1"/><rect x="37.22221322630583" y="831.6871075518699" width="5.554538546492005" height="7.796020009973091" fill="#ff577f" opacity="0.253269812151154" rx="1"/><rect x="51.766643759041706" y="879.3104209506475" width="4.4730031491427225" height="9.747191495203225" fill="#ff884b" opacity="0.16479359047133327" rx="1"/><rect x="37.762980924980475" y="884.1840166982491" width="4.4730031491427225" height="9.747191495203225" fill="#ff577f" opacity="0.08239679523566663" rx="1"/><rect x="121.98879219405092" y="730.0825162395095" width="65.44327692488284" height="190.74922811490234" fill="#1b152a" opacity="0.478627417464421" rx="2"/><rect x="149.71522980665677" y="740.0825162395095" width="9.99040169967115" height="8.745223621545644" fill="#ff884b" opacity="0.10929927581672075" rx="1"/><rect x="133.35441057543605" y="744.4551280502823" width="9.99040169967115" height="8.745223621545644" fill="#ff577f" opacity="0.054649637908360374" rx="1"/><rect x="149.47750732686313" y="803.6655922778102" width="10.465846659258439" height="9.464943406978842" fill="#ff884b" opacity="0.538659252351769" rx="1"/><rect x="133.11668809564242" y="808.3980639812996" width="10.465846659258439" height="9.464943406978842" fill="#ff577f" opacity="0.2693296261758845" rx="1"/><rect x="149.53489132517365" y="867.248668316111" width="10.351078662637406" height="6.439173337174387" fill="#ff884b" opacity="0.2992154992649368" rx="1"/><rect x="133.17407209395293" y="870.4682549846982" width="10.351078662637406" height="6.439173337174387" fill="#ff577f" opacity="0.1496077496324684" rx="1"/><rect x="267.5109184713827" y="768.0502518704277" width="76.17944595082184" height="152.7814924839841" fill="#352f44" opacity="0.562666918747748" rx="2"/><rect x="299.8708504007363" y="778.0502518704277" width="11.459582092114626" height="9.531415136421895" fill="#ff884b" opacity="0.41464757521512163" rx="1"/><rect x="280.82598891303087" y="782.8159594386386" width="11.459582092114626" height="9.531415136421895" fill="#ff577f" opacity="0.20732378760756082" rx="1"/><rect x="302.35500528322416" y="816.2456249914237" width="6.491272327138873" height="8.553713639861371" fill="#ff884b" opacity="0.47952063253138233" rx="1"/><rect x="283.31014379551874" y="820.5224818113544" width="6.491272327138873" height="8.553713639861371" fill="#ff577f" opacity="0.23976031626569116" rx="1"/><rect x="302.52977598866676" y="854.4409981124197" width="6.141730916253694" height="9.418833756684055" fill="#ff884b" opacity="0.5869860613222667" rx="1"/><rect x="283.48491450096134" y="859.1504149907618" width="6.141730916253694" height="9.418833756684055" fill="#ff577f" opacity="0.29349303066113336" rx="1"/><rect x="299.9051356341003" y="892.6363712334157" width="11.391011625386543" height="7.787625362581486" fill="#ff884b" opacity="0.35003468169598717" rx="1"/><rect x="280.8602741463949" y="896.5301839147065" width="11.391011625386543" height="7.787625362581486" fill="#ff577f" opacity="0.17501734084799359" rx="1"/><rect x="385.29379195424116" y="650.4841132672699" width="56.84269541568185" height="270.34763108714196" fill="#352f44" opacity="0.4812575764677621" rx="2"/><rect x="408.4986613657089" y="660.4841132672699" width="10.4329565927463" height="6.571600668265392" fill="#ff884b" opacity="0.34891631194597955" rx="1"/><rect x="394.28798751178846" y="663.7699136014025" width="10.4329565927463" height="6.571600668265392" fill="#ff577f" opacity="0.17445815597298978" rx="1"/><rect x="409.37386936935917" y="750.5999902963172" width="8.682540585445832" height="7.83332547774383" fill="#ff884b" opacity="0.4942511208342042" rx="1"/><rect x="395.1631955154387" y="754.516653035189" width="8.682540585445832" height="7.83332547774383" fill="#ff577f" opacity="0.2471255604171021" rx="1"/><rect x="408.0117865961538" y="840.7158673253646" width="11.406706131856588" height="7.622243940276617" fill="#ff884b" opacity="0.15734810513848163" rx="1"/><rect x="393.80111274223333" y="844.5269892955029" width="11.406706131856588" height="7.622243940276617" fill="#ff577f" opacity="0.07867405256924082" rx="1"/><rect x="486.91895360055355" y="630.9971185706083" width="80.60885530677831" height="289.8346257838035" fill="#1b152a" opacity="0.6815898332236312" rx="2"/><rect x="522.909785274861" y="640.9971185706083" width="8.627191958163678" height="6.543907310008981" fill="#ff884b" opacity="0.42682732092841236" rx="1"/><rect x="502.75757144816635" y="644.2690722256128" width="8.627191958163678" height="6.543907310008981" fill="#ff577f" opacity="0.21341366046420618" rx="1"/><rect x="523.3013053998122" y="698.964043727369" width="7.844151708261146" height="6.171144788193318" fill="#ff884b" opacity="0.14289061868164937" rx="1"/><rect x="503.1490915731176" y="702.0496161214656" width="7.844151708261146" height="6.171144788193318" fill="#ff577f" opacity="0.07144530934082469" rx="1"/><rect x="524.7422364018258" y="756.9309688841297" width="4.962289704233941" height="7.13850472987129" fill="#ff884b" opacity="0.22689295320932124" rx="1"/><rect x="504.5900225751312" y="760.5002212490654" width="4.962289704233941" height="7.13850472987129" fill="#ff577f" opacity="0.11344647660466062" rx="1"/><rect x="522.9282672251409" y="814.8978940408904" width="8.59022805760387" height="9.436864497940258" fill="#ff884b" opacity="0.2597892770450072" rx="1"/><rect x="502.7760533984462" y="819.6163262898605" width="8.59022805760387" height="9.436864497940258" fill="#ff577f" opacity="0.1298946385225036" rx="1"/><rect x="522.9379536672351" y="872.8648191976512" width="8.570855173415238" height="9.327693558141519" fill="#ff884b" opacity="0.5245838968606162" rx="1"/><rect x="502.78573984054054" y="877.528665976722" width="8.570855173415238" height="9.327693558141519" fill="#ff577f" opacity="0.2622919484303081" rx="1"/><rect x="601.8187687317419" y="803.2340839279894" width="73.97398177626869" height="117.59766042642241" fill="#1b152a" opacity="0.4184871155811677" rx="2"/><rect x="634.73370858881" y="813.2340839279894" width="8.144102062132234" height="9.480237144855838" fill="#ff884b" opacity="0.3190179792742752" rx="1"/><rect x="616.2402131447429" y="817.9742025004174" width="8.144102062132234" height="9.480237144855838" fill="#ff577f" opacity="0.1595089896371376" rx="1"/><rect x="634.9308968060488" y="827.9337914812922" width="7.749725627654634" height="9.727809007216202" fill="#ff884b" opacity="0.5595149289722356" rx="1"/><rect x="616.4374013619818" y="832.7976959849003" width="7.749725627654634" height="9.727809007216202" fill="#ff577f" opacity="0.2797574644861178" rx="1"/><rect x="636.1394331248335" y="842.633499034595" width="5.332652990085225" height="7.783926030104963" fill="#ff884b" opacity="0.3833989079304503" rx="1"/><rect x="617.6459376807665" y="846.5254620496476" width="5.332652990085225" height="7.783926030104963" fill="#ff577f" opacity="0.19169945396522514" rx="1"/><rect x="634.7428737482388" y="857.3332065878978" width="8.125771743274706" height="6.250868753588495" fill="#ff884b" opacity="0.31018235867614447" rx="1"/><rect x="616.2493783041717" y="860.4586409646921" width="8.125771743274706" height="6.250868753588495" fill="#ff577f" opacity="0.15509117933807223" rx="1"/><rect x="635.6524112538091" y="872.0329141412006" width="6.306696732134254" height="6.478950981162244" fill="#ff884b" opacity="0.3682868533926753" rx="1"/><rect x="617.158915809742" y="875.2723896317817" width="6.306696732134254" height="6.478950981162244" fill="#ff577f" opacity="0.18414342669633765" rx="1"/><rect x="634.850291769451" y="886.7326216945035" width="7.910935700850313" height="7.307568778588336" fill="#ff884b" opacity="0.4448398629773501" rx="1"/><rect x="616.3567963253839" y="890.3864060837976" width="7.910935700850313" height="7.307568778588336" fill="#ff577f" opacity="0.22241993148867506" rx="1"/><rect x="635.0459271422694" y="901.4323292478063" width="7.519664955213588" height="7.913348783253075" fill="#ff884b" opacity="0.3310371018785604" rx="1"/><rect x="616.5524316982023" y="905.3890036394328" width="7.519664955213588" height="7.913348783253075" fill="#ff577f" opacity="0.1655185509392802" rx="1"/><rect x="634.5723681705008" y="916.132036801109" width="8.466782898750804" height="9.813766838008018" fill="#ff884b" opacity="0.2501587784500231" rx="1"/><rect x="616.0788727264337" y="921.038920220113" width="8.466782898750804" height="9.813766838008018" fill="#ff577f" opacity="0.12507938922501155" rx="1"/><rect x="735.0009777036032" y="554.1978323259851" width="31.681494880859155" height="366.6339120284267" fill="#352f44" opacity="0.5977828511730262" rx="2"/><rect x="746.0640475216936" y="564.1978323259851" width="9.555355244678296" height="6.060594797148508" fill="#ff884b" opacity="0.478107454599372" rx="1"/><rect x="738.1436738014788" y="567.2281297245594" width="9.555355244678296" height="6.060594797148508" fill="#ff577f" opacity="0.239053727299686" rx="1"/><rect x="745.7768130746616" y="655.8563103330919" width="10.129824138742364" height="9.372615507657784" fill="#ff884b" opacity="0.25621162221213145" rx="1"/><rect x="737.8564393544468" y="660.5426180869208" width="10.129824138742364" height="9.372615507657784" fill="#ff577f" opacity="0.12810581110606573" rx="1"/><rect x="745.0525463367935" y="747.5147883401985" width="11.578357614478644" height="6.964567374662629" fill="#ff884b" opacity="0.4282207747288562" rx="1"/><rect x="737.1321726165787" y="750.9970720275298" width="11.578357614478644" height="6.964567374662629" fill="#ff577f" opacity="0.2141103873644281" rx="1"/><rect x="746.3411881745191" y="839.1732663473051" width="9.001073939027515" height="8.178222993895929" fill="#ff884b" opacity="0.5014557882681153" rx="1"/><rect x="738.4208144543043" y="843.262377844253" width="9.001073939027515" height="8.178222993895929" fill="#ff577f" opacity="0.25072789413405766" rx="1"/><rect x="846.3467245214495" y="757.3667454899677" width="66.89221993947686" height="163.4649988644442" fill="#1b152a" opacity="0.40363406010522374" rx="2"/><rect x="874.7157748163947" y="767.3667454899677" width="10.154119349586338" height="6.678748962627433" fill="#ff884b" opacity="0.16269311580404014" rx="1"/><rect x="857.9927198315255" y="770.7061199712814" width="10.154119349586338" height="6.678748962627433" fill="#ff577f" opacity="0.08134655790202007" rx="1"/><rect x="877.1263702703003" y="808.2329952060787" width="5.332928441775247" height="6.0152116706630245" fill="#ff884b" opacity="0.5559423382058606" rx="1"/><rect x="860.4033152854311" y="811.2406010414103" width="5.332928441775247" height="6.0152116706630245" fill="#ff577f" opacity="0.2779711691029303" rx="1"/><rect x="877.2945212596782" y="849.0992449221898" width="4.996626463019435" height="8.174179817124777" fill="#ff884b" opacity="0.555955229805772" rx="1"/><rect x="860.5714662748089" y="853.1863348307521" width="4.996626463019435" height="8.174179817124777" fill="#ff577f" opacity="0.277977614902886" rx="1"/><rect x="875.7167341934323" y="889.9654946383008" width="8.15220059551117" height="8.937159513807194" fill="#ff884b" opacity="0.5625303667184269" rx="1"/><rect x="858.9936792085631" y="894.4340743952044" width="8.15220059551117" height="8.937159513807194" fill="#ff577f" opacity="0.28126518335921347" rx="1"/><rect x="962.9493777367634" y="773.3702789930092" width="86.6670168090302" height="147.4614653614027" fill="#352f44" opacity="0.5700095236231595" rx="2"/><rect x="1002.6037393798129" y="783.3702789930092" width="7.358293522931238" height="9.408982764791926" fill="#ff884b" opacity="0.10422329409146293" rx="1"/><rect x="980.9369851775554" y="788.0747703754051" width="7.358293522931238" height="9.408982764791926" fill="#ff577f" opacity="0.052111647045731464" rx="1"/><rect x="1001.5008922076087" y="812.8625720652897" width="9.563987867339511" height="8.475678835640586" fill="#ff884b" opacity="0.5378324013524298" rx="1"/><rect x="979.8341380053512" y="817.10041148311" width="9.563987867339511" height="8.475678835640586" fill="#ff577f" opacity="0.2689162006762149" rx="1"/><rect x="1002.6194613416724" y="842.3548651375702" width="7.3268495992121405" height="7.784384988663808" fill="#ff884b" opacity="0.4159859908781913" rx="1"/><rect x="980.9527071394149" y="846.2470576319021" width="7.3268495992121405" height="7.784384988663808" fill="#ff577f" opacity="0.20799299543909566" rx="1"/><rect x="1001.8347215221344" y="871.8471582098507" width="8.896329238288182" height="6.6488232846951165" fill="#ff884b" opacity="0.5483178494144971" rx="1"/><rect x="980.1679673198769" y="875.1715698521982" width="8.896329238288182" height="6.6488232846951165" fill="#ff577f" opacity="0.27415892470724856" rx="1"/><rect x="1003.6745072232267" y="901.3394512821313" width="5.216757836103616" height="8.374110065953365" fill="#ff884b" opacity="0.4975446974852925" rx="1"/><rect x="982.0077530209692" y="905.526506315108" width="5.216757836103616" height="8.374110065953365" fill="#ff577f" opacity="0.24877234874264625" rx="1"/><rect x="1090.9663366039672" y="810.3195231431907" width="45.12498222643626" height="110.51222121122112" fill="#352f44" opacity="0.6499071245663584" rx="2"/><rect x="1108.0304365845004" y="820.3195231431907" width="10.996782265369962" height="6.175469204824294" fill="#ff884b" opacity="0.11269428793170823" rx="1"/><rect x="1096.7491910278914" y="823.4072577456029" width="10.996782265369962" height="6.175469204824294" fill="#ff577f" opacity="0.056347143965854114" rx="1"/><rect x="1108.8607243261908" y="847.947578445996" width="9.336206781989013" height="7.6158099327273225" fill="#ff884b" opacity="0.3844511627416246" rx="1"/><rect x="1097.5794787695818" y="851.7554834123597" width="9.336206781989013" height="7.6158099327273225" fill="#ff577f" opacity="0.1922255813708123" rx="1"/><rect x="1110.2743626472713" y="875.5756337488012" width="6.508930139827759" height="6.247590358426699" fill="#ff884b" opacity="0.32788859781061497" rx="1"/><rect x="1098.9931170906623" y="878.6994289280146" width="6.508930139827759" height="6.247590358426699" fill="#ff577f" opacity="0.16394429890530748" rx="1"/><rect x="1110.4147461842315" y="903.2036890516066" width="6.228163065907584" height="7.923036768548897" fill="#ff884b" opacity="0.313639351006979" rx="1"/><rect x="1099.1335006276224" y="907.165207435881" width="6.228163065907584" height="7.923036768548897" fill="#ff577f" opacity="0.1568196755034895" rx="1"/><rect x="1221.79649585667" y="550.9613629083524" width="45.45373706506885" height="369.8703814460594" fill="#352f44" opacity="0.5116352672948584" rx="2"/><rect x="1238.7584108178874" y="560.9613629083524" width="11.529907142634016" height="7.603898826428665" fill="#ff884b" opacity="0.5899176913290093" rx="1"/><rect x="1227.3949765516202" y="564.7633123215667" width="11.529907142634016" height="7.603898826428665" fill="#ff577f" opacity="0.29495884566450464" rx="1"/><rect x="1240.7700530872146" y="684.2514900570388" width="7.506622603979572" height="6.436249155652767" fill="#ff884b" opacity="0.5818789034574011" rx="1"/><rect x="1229.4066188209474" y="687.4696146348653" width="7.506622603979572" height="6.436249155652767" fill="#ff577f" opacity="0.29093945172870056" rx="1"/><rect x="1240.9152313931647" y="807.5416172057253" width="7.216265992078992" height="9.187293432463727" fill="#ff884b" opacity="0.10274701486405614" rx="1"/><rect x="1229.5517971268976" y="812.1352639219572" width="7.216265992078992" height="9.187293432463727" fill="#ff577f" opacity="0.05137350743202807" rx="1"/><rect x="1337.6999487722526" y="770.918173336172" width="40.50558704661801" height="149.91357101823985" fill="#1b152a" opacity="0.4892520662604952" rx="2"/><rect x="1355.463864889104" y="780.918173336172" width="4.977754812915286" height="9.888501079727082" fill="#ff884b" opacity="0.3711481771597518" rx="1"/><rect x="1345.3374681274493" y="785.8624238760356" width="4.977754812915286" height="9.888501079727082" fill="#ff577f" opacity="0.1855740885798759" rx="1"/><rect x="1353.1468401584186" y="805.9037685058786" width="9.611804274286097" height="8.208784860141758" fill="#ff884b" opacity="0.38547580709808404" rx="1"/><rect x="1343.020443396764" y="810.0081609359495" width="9.611804274286097" height="8.208784860141758" fill="#ff577f" opacity="0.19273790354904202" rx="1"/><rect x="1353.0582312853212" y="830.8893636755853" width="9.789022020480832" height="9.343958455916484" fill="#ff884b" opacity="0.24195705581036328" rx="1"/><rect x="1342.9318345236666" y="835.5613429035435" width="9.789022020480832" height="9.343958455916484" fill="#ff577f" opacity="0.12097852790518164" rx="1"/><rect x="1353.5871013557976" y="855.874958845292" width="8.731281879528257" height="7.724000581010245" fill="#ff884b" opacity="0.5893650253045757" rx="1"/><rect x="1343.460704594143" y="859.7369591357971" width="8.731281879528257" height="7.724000581010245" fill="#ff577f" opacity="0.29468251265228784" rx="1"/><rect x="1353.3662345135506" y="880.8605540149986" width="9.173015564021892" height="9.138393156029842" fill="#ff884b" opacity="0.5324073809972981" rx="1"/><rect x="1343.239837751896" y="885.4297505930135" width="9.173015564021892" height="9.138393156029842" fill="#ff577f" opacity="0.26620369049864906" rx="1"/><rect x="1354.677055524587" y="905.8461491847052" width="6.551373541949172" height="8.873641688114414" fill="#ff884b" opacity="0.3445406553439192" rx="1"/><rect x="1344.5506587629325" y="910.2829700287624" width="6.551373541949172" height="8.873641688114414" fill="#ff577f" opacity="0.1722703276719596" rx="1"/><rect x="1467.1365440769905" y="576.9303817248275" width="70.43114095936323" height="343.90136262958436" fill="#1b152a" opacity="0.6081722891675709" rx="2"/><rect x="1498.961821098803" y="586.9303817248275" width="6.780586915738086" height="6.385398106739251" fill="#ff884b" opacity="0.4746801517844852" rx="1"/><rect x="1481.354035858962" y="590.1230807781972" width="6.780586915738086" height="6.385398106739251" fill="#ff577f" opacity="0.2373400758922426" rx="1"/><rect x="1499.0166034009346" y="701.5641692680223" width="6.6710223114749" height="8.238665674402998" fill="#ff884b" opacity="0.14372680944943028" rx="1"/><rect x="1481.4088181610937" y="705.6835021052237" width="6.6710223114749" height="8.238665674402998" fill="#ff577f" opacity="0.07186340472471514" rx="1"/><rect x="1496.4112768753926" y="816.1979568112171" width="11.881675362559426" height="8.63736010683639" fill="#ff884b" opacity="0.2859543495080328" rx="1"/><rect x="1478.8034916355516" y="820.5166368646353" width="11.881675362559426" height="8.63736010683639" fill="#ff577f" opacity="0.1429771747540164" rx="1"/><rect x="1576.0396360433754" y="717.4402517074346" width="86.10257907214168" height="203.39149264697718" fill="#1b152a" opacity="0.6839999150913209" rx="2"/><rect x="1613.8160366161767" y="727.4402517074346" width="10.549777926539484" height="7.559682693695576" fill="#ff884b" opacity="0.17522667364106204" rx="1"/><rect x="1592.290391848141" y="731.2200930542824" width="10.549777926539484" height="7.559682693695576" fill="#ff577f" opacity="0.08761333682053102" rx="1"/><rect x="1613.9497051292449" y="761.3388338152641" width="10.282440900402712" height="7.672323644550593" fill="#ff884b" opacity="0.3633436814098022" rx="1"/><rect x="1592.4240603612093" y="765.1749956375394" width="10.282440900402712" height="7.672323644550593" fill="#ff577f" opacity="0.1816718407049011" rx="1"/><rect x="1613.3942485103373" y="795.2374159230937" width="11.393354138218182" height="6.280878188153934" fill="#ff884b" opacity="0.16697592257218807" rx="1"/><rect x="1591.8686037423017" y="798.3778550171708" width="11.393354138218182" height="6.280878188153934" fill="#ff577f" opacity="0.08348796128609404" rx="1"/><rect x="1616.2763036101305" y="829.1359980309232" width="5.629243938631667" height="9.632217568259737" fill="#ff884b" opacity="0.21181481709047567" rx="1"/><rect x="1594.750658842095" y="833.9521068150531" width="5.629243938631667" height="9.632217568259737" fill="#ff577f" opacity="0.10590740854523784" rx="1"/><rect x="1617.070996884739" y="863.0345801387527" width="4.0398573894146494" height="8.874875643028616" fill="#ff884b" opacity="0.5159882197659436" rx="1"/><rect x="1595.5453521167035" y="867.4720179602671" width="4.0398573894146494" height="8.874875643028616" fill="#ff577f" opacity="0.2579941098829718" rx="1"/><rect x="1616.6742952944885" y="896.9331622465822" width="4.833260569915469" height="9.241812308142384" fill="#ff884b" opacity="0.5453168363415908" rx="1"/><rect x="1595.148650526453" y="901.5540684006535" width="4.833260569915469" height="9.241812308142384" fill="#ff577f" opacity="0.2726584181707954" rx="1"/><rect x="1692.679283347139" y="801.9380378075731" width="67.64652829096805" height="118.89370654683879" fill="#352f44" opacity="0.44194222170439135" rx="2"/><rect x="1723.8069247400406" y="811.9380378075731" width="5.391245505165133" height="9.328779711231771" fill="#ff884b" opacity="0.37551892254862906" rx="1"/><rect x="1706.8952926672987" y="816.602427663189" width="5.391245505165133" height="9.328779711231771" fill="#ff577f" opacity="0.18775946127431453" rx="1"/><rect x="1722.7330129658183" y="841.6614644442828" width="7.539069053609639" height="8.25344099343136" fill="#ff884b" opacity="0.16934215025262492" rx="1"/><rect x="1705.8213808930764" y="845.7881849409986" width="7.539069053609639" height="8.25344099343136" fill="#ff577f" opacity="0.08467107512631246" rx="1"/><rect x="1724.4382129333537" y="871.3848910809925" width="4.128669118538655" height="7.643822504590224" fill="#ff884b" opacity="0.15762693962492677" rx="1"/><rect x="1707.5265808606118" y="875.2068023332876" width="4.128669118538655" height="7.643822504590224" fill="#ff577f" opacity="0.07881346981246339" rx="1"/><rect x="1720.7127520082781" y="901.1083177177022" width="11.579590968689786" height="9.680781397894208" fill="#ff884b" opacity="0.32899917949200586" rx="1"/><rect x="1703.8011199355362" y="905.9487084166493" width="11.579590968689786" height="9.680781397894208" fill="#ff577f" opacity="0.16449958974600293" rx="1"/><rect x="1808.2098744037119" y="806.7163249260551" width="70.76621973439265" height="114.11541942835679" fill="#1b152a" opacity="0.6800245962757674" rx="2"/><rect x="1838.5236931796007" y="816.7163249260551" width="10.138582182614734" height="6.6734552897218276" fill="#ff884b" opacity="0.5816915731601631" rx="1"/><rect x="1820.8321382460026" y="820.0530525709161" width="10.138582182614734" height="6.6734552897218276" fill="#ff577f" opacity="0.29084578658008153" rx="1"/><rect x="1839.7523283084743" y="833.0185277015346" width="7.681311924867638" height="8.895034595135375" fill="#ff884b" opacity="0.422742476901678" rx="1"/><rect x="1822.0607733748761" y="837.4660449991023" width="7.681311924867638" height="8.895034595135375" fill="#ff577f" opacity="0.211371238450839" rx="1"/><rect x="1839.2756516487048" y="849.3207304770142" width="8.63466524440671" height="9.89009266716663" fill="#ff884b" opacity="0.45485201325613356" rx="1"/><rect x="1821.5840967151066" y="854.2657768105975" width="8.63466524440671" height="9.89009266716663" fill="#ff577f" opacity="0.22742600662806678" rx="1"/><rect x="1839.6010714500678" y="865.6229332524937" width="7.983825641680468" height="8.972794022171943" fill="#ff884b" opacity="0.2134710951273961" rx="1"/><rect x="1821.9095165164697" y="870.1093302635796" width="7.983825641680468" height="8.972794022171943" fill="#ff577f" opacity="0.10673554756369805" rx="1"/><rect x="1840.9650137699127" y="881.9251360279733" width="5.255941001990797" height="6.429389850336451" fill="#ff884b" opacity="0.4171455327694178" rx="1"/><rect x="1823.2734588363146" y="885.1398309531415" width="5.255941001990797" height="6.429389850336451" fill="#ff577f" opacity="0.2085727663847089" rx="1"/><rect x="1838.9860310200568" y="898.2273388034528" width="9.213906501702477" height="8.578132289130737" fill="#ff884b" opacity="0.5933567149549156" rx="1"/><rect x="1821.2944760864586" y="902.5164049480181" width="9.213906501702477" height="8.578132289130737" fill="#ff577f" opacity="0.2966783574774578" rx="1"/><rect x="1841.5115613468251" y="914.5295415789324" width="4.162845848166115" height="8.75662814144898" fill="#ff884b" opacity="0.18752638161823304" rx="1"/><rect x="1823.820006413227" y="918.9078556496569" width="4.162845848166115" height="8.75662814144898" fill="#ff577f" opacity="0.09376319080911652" rx="1"/><rect x="0" y="1000" width="1920" height="80" fill="#0f091e" opacity="0.8"/><line x1="0" y1="1040" x2="1920" y2="1040" stroke="#ff884b" stroke-opacity="0.15" stroke-width="2" stroke-dasharray="30,20"/><rect x="0" y="930" width="1920" height="150" fill="url(#glow8)"/><text x="1900" y="1060" font-family="Arial, sans-serif" font-size="11" fill="#fff" opacity="0.08" text-anchor="end" letter-spacing="2">GTA 6 REWARDS · WALLPAPER 009</text>
</svg>