<?xml version="1.0" encoding="UTF-8"?>
<svg xmlns="http://www.w3.org/2000/svg" width="1920" height="1080" viewBox="0 0 1920 1080">
<defs>
    <linearGradient id="bg38" x1="0%" y1="0%" x2="0%" y2="100%">
      <stop offset="0%" stop-color="#03045e"/>
      <stop offset="50%" stop-color="#00002b"/>
      <stop offset="100%" stop-color="#03045e"/>
    </linearGradient>
    <linearGradient id="sun38" x1="0%" y1="0%" x2="100%" y2="100%">
      <stop offset="0%" stop-color="#00f5d4"/>
      <stop offset="100%" stop-color="#00bbf9"/>
    </linearGradient>
    <radialGradient id="glow38" cx="50%" cy="70%" r="50%">
      <stop offset="0%" stop-color="#00f5d4" stop-opacity="0.3"/>
      <stop offset="100%" stop-color="#03045e" stop-opacity="0"/>
    </radialGradient>
  </defs><rect width="1920" height="1080" fill="url(#bg38)"/><circle cx="1317.9375470192026" cy="226.42422887180564" r="839.5721666374179" fill="#00f5d4" opacity="0.13164470027704833"/><circle cx="1517.9375470192026" cy="126.42422887180564" r="468.2203558898113" fill="#00bbf9" opacity="0.08548000751889312"/><circle cx="1447.5037400488518" cy="248.19335970054226" r="66.6754350640521" fill="url(#sun38)" opacity="0.7557321664541337"/><circle cx="1447.5037400488518" cy="248.19335970054226" r="61.675435064052095" fill="#03045e" opacity="0.3"/><rect x="14.191196219574472" y="798.1043644245026" width="83.4602715618583" height="112.73627253545827" fill="#03045e" opacity="0.6881305148797414" rx="2"/><rect x="50.203044229932836" y="808.1043644245026" width="11.436575541141577" height="7.783329733131297" fill="#00bbf9" opacity="0.23167237249009134" rx="1"/><rect x="29.337976339468263" y="811.9960292910682" width="11.436575541141577" height="7.783329733131297" fill="#00f5d4" opacity="0.11583618624504567" rx="1"/><rect x="51.41533712027952" y="826.8937431804123" width="9.011989760448223" height="8.004937983584808" fill="#00bbf9" opacity="0.3417272520814387" rx="1"/><rect x="30.55026922981494" y="830.8962121722047" width="9.011989760448223" height="8.004937983584808" fill="#00f5d4" opacity="0.17086362604071936" rx="1"/><rect x="52.72858191321804" y="845.683121936322" width="6.3855001745711775" height="8.862440189081813" fill="#00bbf9" opacity="0.5827568947763082" rx="1"/><rect x="31.863514022753463" y="850.1143420308629" width="6.3855001745711775" height="8.862440189081813" fill="#00f5d4" opacity="0.2913784473881541" rx="1"/><rect x="50.330928140164104" y="864.4725006922317" width="11.180807720679047" height="9.034556931591258" fill="#00bbf9" opacity="0.39238713248455603" rx="1"/><rect x="29.465860249699528" y="868.9897791580273" width="11.180807720679047" height="9.034556931591258" fill="#00f5d4" opacity="0.19619356624227802" rx="1"/><rect x="50.08017387778502" y="883.2618794481415" width="11.682316245437207" height="9.784549735436343" fill="#00bbf9" opacity="0.47835703961978593" rx="1"/><rect x="29.21510598732045" y="888.1541543158596" width="11.682316245437207" height="9.784549735436343" fill="#00f5d4" opacity="0.23917851980989296" rx="1"/><rect x="52.48428091441381" y="902.0512582040511" width="6.8741021721796365" height="8.153943145217827" fill="#00bbf9" opacity="0.3678358954768246" rx="1"/><rect x="31.619213023949236" y="906.1282297766601" width="6.8741021721796365" height="8.153943145217827" fill="#00f5d4" opacity="0.1839179477384123" rx="1"/><rect x="91.68369881249251" y="637.4619759240798" width="34.164268147238595" height="273.37866103588107" fill="#03045e" opacity="0.4659928023968807" rx="2"/><rect x="103.44764345622" y="647.4619759240798" width="10.636378859783612" height="8.413523397039045" fill="#00bbf9" opacity="0.31845318428670366" rx="1"/><rect x="94.90657641941036" y="651.6687376225992" width="10.636378859783612" height="8.413523397039045" fill="#00f5d4" opacity="0.15922659214335183" rx="1"/><rect x="105.21251228137365" y="702.137708131256" width="7.106641209476312" height="8.965440052320584" fill="#00bbf9" opacity="0.4571758631982784" rx="1"/><rect x="96.671445244564" y="706.6204281574163" width="7.106641209476312" height="8.965440052320584" fill="#00f5d4" opacity="0.2285879315991392" rx="1"/><rect x="103.02445899795511" y="756.8134403384322" width="11.482747776313392" height="7.7455929158594445" fill="#00bbf9" opacity="0.5889107694590722" rx="1"/><rect x="94.48339196114546" y="760.6862367963619" width="11.482747776313392" height="7.7455929158594445" fill="#00f5d4" opacity="0.2944553847295361" rx="1"/><rect x="103.21023975324256" y="811.4891725456084" width="11.111186265738493" height="7.284537222535475" fill="#00bbf9" opacity="0.3032387155814187" rx="1"/><rect x="94.66917271643291" y="815.1314411568761" width="11.111186265738493" height="7.284537222535475" fill="#00f5d4" opacity="0.15161935779070934" rx="1"/><rect x="103.28236717092061" y="866.1649047527847" width="10.966931430382406" height="7.114244391469807" fill="#00bbf9" opacity="0.18032830236021624" rx="1"/><rect x="94.74130013411096" y="869.7220269485196" width="10.966931430382406" height="7.114244391469807" fill="#00f5d4" opacity="0.09016415118010812" rx="1"/><rect x="206.79810383947785" y="701.1886325201925" width="30.07870950737938" height="209.65200443976838" fill="#000044" opacity="0.6948638793069086" rx="2"/><rect x="217.215244872213" y="711.1886325201925" width="9.244427441909078" height="6.377295838756789" fill="#00bbf9" opacity="0.5665162407249483" rx="1"/><rect x="209.69556749536815" y="714.3772804395709" width="9.244427441909078" height="6.377295838756789" fill="#00f5d4" opacity="0.28325812036247416" rx="1"/><rect x="219.1920610742558" y="746.1306332601539" width="5.2907950378234485" height="6.838305344068982" fill="#00bbf9" opacity="0.3148430924198691" rx="1"/><rect x="211.67238369741096" y="749.5497859321883" width="5.2907950378234485" height="6.838305344068982" fill="#00f5d4" opacity="0.15742154620993454" rx="1"/><rect x="216.2911104256898" y="781.0726340001153" width="11.092696334955445" height="7.384809886427785" fill="#00bbf9" opacity="0.36739987201695323" rx="1"/><rect x="208.77143304884495" y="784.7650389433292" width="11.092696334955445" height="7.384809886427785" fill="#00f5d4" opacity="0.18369993600847662" rx="1"/><rect x="216.44740385329786" y="816.0146347400766" width="10.780109479739355" height="8.078387865349274" fill="#00bbf9" opacity="0.12544659725982849" rx="1"/><rect x="208.92772647645302" y="820.0538286727513" width="10.780109479739355" height="8.078387865349274" fill="#00f5d4" opacity="0.06272329862991424" rx="1"/><rect x="215.95334093773843" y="850.9566354800381" width="11.76823531085817" height="9.22025647089357" fill="#00bbf9" opacity="0.4927839044231884" rx="1"/><rect x="208.4336635608936" y="855.566763715485" width="11.76823531085817" height="9.22025647089357" fill="#00f5d4" opacity="0.2463919522115942" rx="1"/><rect x="218.68822492106338" y="885.8986362199995" width="6.298467344208264" height="8.18324663354625" fill="#00bbf9" opacity="0.46016079442579316" rx="1"/><rect x="211.16854754421854" y="889.9902595367727" width="6.298467344208264" height="8.18324663354625" fill="#00f5d4" opacity="0.23008039721289658" rx="1"/><rect x="278.7918460582497" y="817.0965458306243" width="70.88312906699328" height="93.74409112933652" fill="#03045e" opacity="0.4080018733413895" rx="2"/><rect x="311.63551960827147" y="827.0965458306243" width="5.195781966949762" height="8.063027171898407" fill="#00bbf9" opacity="0.5313325709503453" rx="1"/><rect x="293.9147373415231" y="831.1280594165736" width="5.195781966949762" height="8.063027171898407" fill="#00f5d4" opacity="0.2656662854751726" rx="1"/><rect x="311.9583384659643" y="858.3445762070698" width="4.5501442515640855" height="6.690257930357535" fill="#00bbf9" opacity="0.4838234810120946" rx="1"/><rect x="294.23755619921593" y="861.6897051722486" width="4.5501442515640855" height="6.690257930357535" fill="#00f5d4" opacity="0.2419117405060473" rx="1"/><rect x="311.9177492982184" y="889.5926065835154" width="4.631322587055927" height="7.850134040659791" fill="#00bbf9" opacity="0.1264297701712767" rx="1"/><rect x="294.19696703147" y="893.5176736038453" width="4.631322587055927" height="7.850134040659791" fill="#00f5d4" opacity="0.06321488508563836" rx="1"/><rect x="385.0173980305344" y="749.5393310556047" width="65.11128270419111" height="161.30130590435613" fill="#000044" opacity="0.657469488204799" rx="2"/><rect x="412.1788451793421" y="759.5393310556047" width="10.788388406575748" height="6.683259598138569" fill="#00bbf9" opacity="0.14776554590737578" rx="1"/><rect x="395.9010245032943" y="762.8809608546741" width="10.788388406575748" height="6.683259598138569" fill="#00f5d4" opacity="0.07388277295368789" rx="1"/><rect x="412.9573323542951" y="791.799592236476" width="9.231414056669784" height="9.157664308128336" fill="#00bbf9" opacity="0.4052693638730025" rx="1"/><rect x="396.6795116782473" y="796.3784243905401" width="9.231414056669784" height="9.157664308128336" fill="#00f5d4" opacity="0.20263468193650125" rx="1"/><rect x="413.34761839860363" y="824.0598534173472" width="8.450841968052751" height="8.569853026086896" fill="#00bbf9" opacity="0.5515890349754107" rx="1"/><rect x="397.06979772255585" y="828.3447799303907" width="8.450841968052751" height="8.569853026086896" fill="#00f5d4" opacity="0.27579451748770534" rx="1"/><rect x="411.6750069912099" y="856.3201145982184" width="11.796064782840215" height="6.547131341078116" fill="#00bbf9" opacity="0.5028893313144541" rx="1"/><rect x="395.3971863151621" y="859.5936802687575" width="11.796064782840215" height="6.547131341078116" fill="#00f5d4" opacity="0.25144466565722706" rx="1"/><rect x="412.30654299642174" y="888.5803757790896" width="10.532992772416442" height="8.21981297019399" fill="#00bbf9" opacity="0.31125512877741246" rx="1"/><rect x="396.02872232037396" y="892.6902822641866" width="10.532992772416442" height="8.21981297019399" fill="#00f5d4" opacity="0.15562756438870623" rx="1"/><rect x="475.2658236927107" y="794.822619318688" width="49.56157638215497" height="116.01801764127288" fill="#03045e" opacity="0.467179316740292" rx="2"/><rect x="494.75675208894194" y="804.822619318688" width="10.579719589692475" height="8.193072123963635" fill="#00bbf9" opacity="0.3088336429346431" rx="1"/><rect x="482.3663579934032" y="808.9191553806698" width="10.579719589692475" height="8.193072123963635" fill="#00f5d4" opacity="0.15441682146732155" rx="1"/><rect x="495.1350384507243" y="828.0262228469426" width="9.82314686612765" height="8.921777258376073" fill="#00bbf9" opacity="0.34660742160552355" rx="1"/><rect x="482.7446443551856" y="832.4871114761306" width="9.82314686612765" height="8.921777258376073" fill="#00f5d4" opacity="0.17330371080276177" rx="1"/><rect x="494.70013596516304" y="851.2298263751971" width="10.692951837250252" height="7.674736062454697" fill="#00bbf9" opacity="0.509256060470188" rx="1"/><rect x="482.3097418696243" y="855.0671944064245" width="10.692951837250252" height="7.674736062454697" fill="#00f5d4" opacity="0.254628030235094" rx="1"/><rect x="494.8889076405478" y="874.4334299034517" width="10.315408486480687" height="6.6488996494209625" fill="#00bbf9" opacity="0.371937288872883" rx="1"/><rect x="482.4985135450091" y="877.7578797281622" width="10.315408486480687" height="6.6488996494209625" fill="#00f5d4" opacity="0.1859686444364415" rx="1"/><rect x="495.37515944750135" y="897.6370334317063" width="9.342904872573657" height="9.795783031684296" fill="#00bbf9" opacity="0.35713866885219203" rx="1"/><rect x="482.9847653519626" y="902.5349249475485" width="9.342904872573657" height="9.795783031684296" fill="#00f5d4" opacity="0.17856933442609602" rx="1"/><rect x="559.8228642124536" y="602.5678478653003" width="48.79002466769657" height="308.2727890946606" fill="#03045e" opacity="0.5450759210961582" rx="2"/><rect x="580.3878425720851" y="612.5678478653003" width="7.6600679484335865" height="7.491951838483091" fill="#00bbf9" opacity="0.48701082891482184" rx="1"/><rect x="568.1903364051609" y="616.3138237845419" width="7.6600679484335865" height="7.491951838483091" fill="#00f5d4" opacity="0.24350541445741092" rx="1"/><rect x="579.1604845900728" y="663.9466460477438" width="10.114783912458174" height="9.156883063529824" fill="#00bbf9" opacity="0.12055906353531384" rx="1"/><rect x="566.9629784231486" y="668.5250875795087" width="10.114783912458174" height="9.156883063529824" fill="#00f5d4" opacity="0.06027953176765692" rx="1"/><rect x="579.319679877263" y="715.3254442301873" width="9.796393338077793" height="8.40036784727135" fill="#00bbf9" opacity="0.33891955491595893" rx="1"/><rect x="567.1221737103388" y="719.5256281538229" width="9.796393338077793" height="8.40036784727135" fill="#00f5d4" opacity="0.16945977745797947" rx="1"/><rect x="579.8330344172538" y="766.7042424126306" width="8.769684258096312" height="9.651605383411889" fill="#00bbf9" opacity="0.3582291805320953" rx="1"/><rect x="567.6355282503296" y="771.5300451043365" width="8.769684258096312" height="9.651605383411889" fill="#00f5d4" opacity="0.17911459026604765" rx="1"/><rect x="581.8250108036536" y="818.0830405950741" width="4.785731485296444" height="9.332497276210342" fill="#00bbf9" opacity="0.5131411420910482" rx="1"/><rect x="569.6275046367294" y="822.7492892331792" width="4.785731485296444" height="9.332497276210342" fill="#00f5d4" opacity="0.2565705710455241" rx="1"/><rect x="579.9303290626603" y="869.4618387775175" width="8.575094967283098" height="6.803215379082415" fill="#00bbf9" opacity="0.2803598910757247" rx="1"/><rect x="567.7328228957361" y="872.8634464670587" width="8.575094967283098" height="6.803215379082415" fill="#00f5d4" opacity="0.14017994553786234" rx="1"/><rect x="666.3682356142365" y="671.0644347525817" width="77.28290592955493" height="239.7762022073791" fill="#03045e" opacity="0.4785420799112278" rx="2"/><rect x="699.2327631512268" y="681.0644347525817" width="11.553850855574442" height="9.739884788109894" fill="#00bbf9" opacity="0.33861347668306285" rx="1"/><rect x="679.912036668838" y="685.9343771466367" width="11.553850855574442" height="9.739884788109894" fill="#00f5d4" opacity="0.16930673834153143" rx="1"/><rect x="699.0137842395375" y="760.9898354883748" width="11.991808678952932" height="6.428645332443678" fill="#00bbf9" opacity="0.2689203932576162" rx="1"/><rect x="679.6930577571487" y="764.2041581545966" width="11.991808678952932" height="6.428645332443678" fill="#00f5d4" opacity="0.1344601966288081" rx="1"/><rect x="699.762106717276" y="840.9152362241678" width="10.495163723476036" height="7.914299012607499" fill="#00bbf9" opacity="0.22785097424123693" rx="1"/><rect x="680.4413802348872" y="844.8723857304715" width="10.495163723476036" height="7.914299012607499" fill="#00f5d4" opacity="0.11392548712061847" rx="1"/><rect x="740.5148892488331" y="533.8582116490832" width="38.520698982412156" height="376.9824253108777" fill="#000044" opacity="0.5523080936987671" rx="2"/><rect x="756.1295912911685" y="543.8582116490832" width="7.291294897741474" height="6.116832814206563" fill="#00bbf9" opacity="0.5635117389176767" rx="1"/><rect x="746.4994165455655" y="546.9166280561865" width="7.291294897741474" height="6.116832814206563" fill="#00f5d4" opacity="0.28175586945883835" rx="1"/><rect x="754.4378841872614" y="638.1038179768026" width="10.6747091055556" height="8.131048268203402" fill="#00bbf9" opacity="0.460073620886559" rx="1"/><rect x="744.8077094416584" y="642.1693421109043" width="10.6747091055556" height="8.131048268203402" fill="#00f5d4" opacity="0.2300368104432795" rx="1"/><rect x="756.3908783825292" y="732.349424304522" width="6.76872071502002" height="8.878651261068566" fill="#00bbf9" opacity="0.4545625242066017" rx="1"/><rect x="746.7607036369262" y="736.7887499350563" width="6.76872071502002" height="8.878651261068566" fill="#00f5d4" opacity="0.22728126210330085" rx="1"/><rect x="755.6209477011362" y="826.5950306322414" width="8.308582077806019" height="6.8594044765595825" fill="#00bbf9" opacity="0.437151088248275" rx="1"/><rect x="745.9907729555332" y="830.0247328705212" width="8.308582077806019" height="6.8594044765595825" fill="#00f5d4" opacity="0.2185755441241375" rx="1"/><rect x="836.3883014942891" y="692.2598408284271" width="34.87758107131291" height="218.58079613153376" fill="#03045e" opacity="0.44933648117569663" rx="2"/><rect x="847.9543814024715" y="702.2598408284271" width="11.745421254948113" height="6.000758266076622" fill="#00bbf9" opacity="0.20258958269902264" rx="1"/><rect x="839.2349861346432" y="705.2602199614654" width="11.745421254948113" height="6.000758266076622" fill="#00f5d4" opacity="0.10129479134951132" rx="1"/><rect x="849.0450142995958" y="745.9760000547338" width="9.564155460699498" height="8.031409782830488" fill="#00bbf9" opacity="0.17698537562437947" rx="1"/><rect x="840.3256190317675" y="749.9917049461491" width="9.564155460699498" height="8.031409782830488" fill="#00f5d4" opacity="0.08849268781218973" rx="1"/><rect x="848.8873251808012" y="789.6921592810405" width="9.879533698288615" height="9.00069437804648" fill="#00bbf9" opacity="0.25971431768492664" rx="1"/><rect x="840.1679299129729" y="794.1925064700638" width="9.879533698288615" height="9.00069437804648" fill="#00f5d4" opacity="0.12985715884246332" rx="1"/><rect x="850.7440630780336" y="833.4083185073473" width="6.166057903823922" height="9.532771033126108" fill="#00bbf9" opacity="0.1145702064071247" rx="1"/><rect x="842.0246678102053" y="838.1747040239104" width="6.166057903823922" height="9.532771033126108" fill="#00f5d4" opacity="0.05728510320356235" rx="1"/><rect x="849.9602877538492" y="877.1244777336541" width="7.733608552192712" height="8.352909981820943" fill="#00bbf9" opacity="0.13569672804691288" rx="1"/><rect x="841.2408924860209" y="881.3009327245645" width="7.733608552192712" height="8.352909981820943" fill="#00f5d4" opacity="0.06784836402345644" rx="1"/><rect x="937.493327974889" y="593.1913044054972" width="76.27115539886782" height="317.6493325544636" fill="#03045e" opacity="0.5034597492784867" rx="2"/><rect x="971.3992823514287" y="603.1913044054972" width="8.459246645788486" height="8.792178529033478" fill="#00bbf9" opacity="0.5356729917776941" rx="1"/><rect x="952.3314935017117" y="607.587393670014" width="8.459246645788486" height="8.792178529033478" fill="#00f5d4" opacity="0.26783649588884706" rx="1"/><rect x="971.7786727709779" y="682.6036375441131" width="7.700465806690153" height="9.326072313665895" fill="#00bbf9" opacity="0.24128695489868685" rx="1"/><rect x="952.7108839212609" y="687.2666737009461" width="7.700465806690153" height="9.326072313665895" fill="#00f5d4" opacity="0.12064347744934342" rx="1"/><rect x="972.8968669452597" y="762.0159706827291" width="5.464077458126488" height="6.341662813057579" fill="#00bbf9" opacity="0.38902756778733516" rx="1"/><rect x="953.8290780955427" y="765.1868020892579" width="5.464077458126488" height="6.341662813057579" fill="#00f5d4" opacity="0.19451378389366758" rx="1"/><rect x="971.4314141555896" y="841.428303821345" width="8.394983037466877" height="6.6395822140946015" fill="#00bbf9" opacity="0.2670474590889754" rx="1"/><rect x="952.3636253058726" y="844.7480949283923" width="8.394983037466877" height="6.6395822140946015" fill="#00f5d4" opacity="0.1335237295444877" rx="1"/><rect x="1016.7101842010984" y="667.3310168942742" width="66.97225943137246" height="243.50962006568668" fill="#000044" opacity="0.6546206876762726" rx="2"/><rect x="1045.9002697994104" y="677.3310168942742" width="8.592088234748712" height="8.280818526232807" fill="#00bbf9" opacity="0.26543558220505614" rx="1"/><rect x="1029.1572049415672" y="681.4714261573906" width="8.592088234748712" height="8.280818526232807" fill="#00f5d4" opacity="0.13271779110252807" rx="1"/><rect x="1047.5925784324613" y="758.5008902495031" width="5.207470968646805" height="6.146370447274849" fill="#00bbf9" opacity="0.1708024926881312" rx="1"/><rect x="1030.8495135746182" y="761.5740754731405" width="5.207470968646805" height="6.146370447274849" fill="#00f5d4" opacity="0.0854012463440656" rx="1"/><rect x="1047.0383769327732" y="839.670763604732" width="6.315873968022846" height="7.673952695372038" fill="#00bbf9" opacity="0.21043277303931135" rx="1"/><rect x="1030.29531207493" y="843.507739952418" width="6.315873968022846" height="7.673952695372038" fill="#00f5d4" opacity="0.10521638651965567" rx="1"/><rect x="1124.7373748934283" y="553.4545898329129" width="44.78467697156236" height="357.386047127048" fill="#000044" opacity="0.48573478771972817" rx="2"/><rect x="1143.1070578693264" y="563.4545898329129" width="8.04531101976645" height="8.18570914170372" fill="#00bbf9" opacity="0.16780634181755744" rx="1"/><rect x="1131.9108886264357" y="567.5474444037648" width="8.04531101976645" height="8.18570914170372" fill="#00f5d4" opacity="0.08390317090877872" rx="1"/><rect x="1144.806028099087" y="652.801101614675" width="4.647370560245442" height="6.390422832311695" fill="#00bbf9" opacity="0.483988132324067" rx="1"/><rect x="1133.6098588561963" y="655.9963130308308" width="4.647370560245442" height="6.390422832311695" fill="#00f5d4" opacity="0.2419940661620335" rx="1"/><rect x="1144.9761222129234" y="742.1476133964369" width="4.307182332572337" height="9.802514370484863" fill="#00bbf9" opacity="0.46995951257877977" rx="1"/><rect x="1133.7799529700328" y="747.0488705816794" width="4.307182332572337" height="9.802514370484863" fill="#00f5d4" opacity="0.23497975628938989" rx="1"/><rect x="1143.4614527048288" y="831.4941251781989" width="7.336521348761516" height="6.859245299561705" fill="#00bbf9" opacity="0.20307924125880916" rx="1"/><rect x="1132.2652834619382" y="834.9237478279798" width="7.336521348761516" height="6.859245299561705" fill="#00f5d4" opacity="0.10153962062940458" rx="1"/><rect x="1199.7136252292964" y="747.6658207708192" width="42.841779797533945" height="163.17481618914167" fill="#000044" opacity="0.4780268459296848" rx="2"/><rect x="1218.7472686133026" y="757.6658207708192" width="4.774493029521428" height="8.981757679717093" fill="#00bbf9" opacity="0.3835158773892363" rx="1"/><rect x="1208.036823663919" y="762.1566996106777" width="4.774493029521428" height="8.981757679717093" fill="#00f5d4" opacity="0.19175793869461816" rx="1"/><rect x="1216.6625014155586" y="780.9765087978394" width="8.944027425009764" height="7.4078015148192184" fill="#00bbf9" opacity="0.26058462710599056" rx="1"/><rect x="1205.952056466175" y="784.6804095552491" width="8.944027425009764" height="7.4078015148192184" fill="#00f5d4" opacity="0.13029231355299528" rx="1"/><rect x="1217.8752405882326" y="804.2871968248597" width="6.518549079661851" height="9.719292253190487" fill="#00bbf9" opacity="0.20697152561204776" rx="1"/><rect x="1207.164795638849" y="809.146842951455" width="6.518549079661851" height="9.719292253190487" fill="#00f5d4" opacity="0.10348576280602388" rx="1"/><rect x="1218.8120698219927" y="827.5978848518799" width="4.644890612141436" height="8.271216451719221" fill="#00bbf9" opacity="0.2235889399246287" rx="1"/><rect x="1208.1016248726091" y="831.7334930777396" width="4.644890612141436" height="8.271216451719221" fill="#00f5d4" opacity="0.11179446996231435" rx="1"/><rect x="1217.8227843452567" y="850.9085728789001" width="6.623461565613621" height="9.74450772808504" fill="#00bbf9" opacity="0.3012104343625741" rx="1"/><rect x="1207.112339395873" y="855.7808267429426" width="6.623461565613621" height="9.74450772808504" fill="#00f5d4" opacity="0.15060521718128705" rx="1"/><rect x="1218.291550637923" y="874.2192609059204" width="5.685928980281094" height="7.84843071965697" fill="#00bbf9" opacity="0.17842579346113507" rx="1"/><rect x="1207.5811056885393" y="878.1434762657489" width="5.685928980281094" height="7.84843071965697" fill="#00f5d4" opacity="0.08921289673056754" rx="1"/><rect x="1216.9023114968131" y="897.5299489329407" width="8.46440726250047" height="9.859804284726224" fill="#00bbf9" opacity="0.38314054496193783" rx="1"/><rect x="1206.1918665474295" y="902.4598510753037" width="8.46440726250047" height="9.859804284726224" fill="#00f5d4" opacity="0.19157027248096892" rx="1"/><rect x="1298.0802719011158" y="607.9119037389551" width="56.23676458984538" height="302.9287332210058" fill="#03045e" opacity="0.4228809368151429" rx="2"/><rect x="1323.0635309391803" y="617.9119037389551" width="6.270246513716469" height="9.249910763290224" fill="#00bbf9" opacity="0.11451089955272872" rx="1"/><rect x="1309.004339791719" y="622.5368591206002" width="6.270246513716469" height="9.249910763290224" fill="#00f5d4" opacity="0.05725544977636436" rx="1"/><rect x="1323.9070407941254" y="693.6440870442066" width="4.583226803825988" height="9.323855810641277" fill="#00bbf9" opacity="0.2499259049654766" rx="1"/><rect x="1309.8478496466641" y="698.3060149495273" width="4.583226803825988" height="9.323855810641277" fill="#00f5d4" opacity="0.1249629524827383" rx="1"/><rect x="1324.034459700583" y="769.376270349458" width="4.328388990910814" height="6.0107176145563646" fill="#00bbf9" opacity="0.3661405219151965" rx="1"/><rect x="1309.9752685531219" y="772.3816291567362" width="4.328388990910814" height="6.0107176145563646" fill="#00f5d4" opacity="0.18307026095759826" rx="1"/><rect x="1323.958256351519" y="845.1084536547094" width="4.480795689039118" height="6.542097456879471" fill="#00bbf9" opacity="0.49669144721624714" rx="1"/><rect x="1309.8990652040577" y="848.3795023831491" width="4.480795689039118" height="6.542097456879471" fill="#00f5d4" opacity="0.24834572360812357" rx="1"/><rect x="1387.6570618855635" y="826.1363217435164" width="72.79754558177608" height="84.70431521644451" fill="#03045e" opacity="0.4444895770038687" rx="2"/><rect x="1420.0366558580013" y="836.1363217435164" width="8.038357636900237" height="8.646594075170949" fill="#00bbf9" opacity="0.1472864458680354" rx="1"/><rect x="1401.8372694625573" y="840.4596187811019" width="8.038357636900237" height="8.646594075170949" fill="#00f5d4" opacity="0.0736432229340177" rx="1"/><rect x="1421.9758887424277" y="848.2369382030085" width="4.159891868047391" height="8.366087754807921" fill="#00bbf9" opacity="0.5774286771373425" rx="1"/><rect x="1403.7765023469838" y="852.4199820804125" width="4.159891868047391" height="8.366087754807921" fill="#00f5d4" opacity="0.28871433856867124" rx="1"/><rect x="1420.7493281569414" y="860.3375546625006" width="6.613013039020126" height="7.570132806331416" fill="#00bbf9" opacity="0.4930177628977731" rx="1"/><rect x="1402.5499417614974" y="864.1226210656663" width="6.613013039020126" height="7.570132806331416" fill="#00f5d4" opacity="0.24650888144888655" rx="1"/><rect x="1420.4612820399336" y="872.4381711219926" width="7.189105273035612" height="8.64294570094043" fill="#00bbf9" opacity="0.11999733376316665" rx="1"/><rect x="1402.2618956444896" y="876.7596439724628" width="7.189105273035612" height="8.64294570094043" fill="#00f5d4" opacity="0.059998666881583326" rx="1"/><rect x="1420.6728719891885" y="884.5387875814847" width="6.765925374526047" height="6.0940521294470065" fill="#00bbf9" opacity="0.34809586937727777" rx="1"/><rect x="1402.4734855937445" y="887.5858136462082" width="6.765925374526047" height="6.0940521294470065" fill="#00f5d4" opacity="0.17404793468863888" rx="1"/><rect x="1419.9282327879253" y="896.6394040409768" width="8.255203777052277" height="6.444845660693209" fill="#00bbf9" opacity="0.24511991691429166" rx="1"/><rect x="1401.7288463924813" y="899.8618268713235" width="8.255203777052277" height="6.444845660693209" fill="#00f5d4" opacity="0.12255995845714583" rx="1"/><rect x="1421.9354052807255" y="908.7400205004689" width="4.240858791452101" height="9.851755585486943" fill="#00bbf9" opacity="0.37011160162978607" rx="1"/><rect x="1403.7360188852815" y="913.6658982932123" width="4.240858791452101" height="9.851755585486943" fill="#00f5d4" opacity="0.18505580081489303" rx="1"/><rect x="1491.5755184018394" y="557.8697404260445" width="50.301824314590036" height="352.97089653391646" fill="#03045e" opacity="0.584102235637629" rx="2"/><rect x="1512.672592671645" y="567.8697404260445" width="8.107675774979331" height="7.048515767103181" fill="#00bbf9" opacity="0.5749054532672524" rx="1"/><rect x="1500.0971365929972" y="571.3939983095961" width="8.107675774979331" height="7.048515767103181" fill="#00f5d4" opacity="0.2874527266336262" rx="1"/><rect x="1512.8675175394021" y="618.2941542166039" width="7.717826039464638" height="6.11715187041954" fill="#00bbf9" opacity="0.4310679064204609" rx="1"/><rect x="1500.2920614607544" y="621.3527301518137" width="7.717826039464638" height="6.11715187041954" fill="#00f5d4" opacity="0.21553395321023044" rx="1"/><rect x="1513.1070068489478" y="668.7185680071634" width="7.238847420373663" height="9.626286420884142" fill="#00bbf9" opacity="0.5378074845154321" rx="1"/><rect x="1500.5315507703" y="673.5317112176054" width="7.238847420373663" height="9.626286420884142" fill="#00f5d4" opacity="0.26890374225771607" rx="1"/><rect x="1512.830472635199" y="719.142981797723" width="7.791915847871433" height="6.253656474932482" fill="#00bbf9" opacity="0.11067778840909662" rx="1"/><rect x="1500.2550165565513" y="722.2698100351893" width="7.791915847871433" height="6.253656474932482" fill="#00f5d4" opacity="0.05533889420454831" rx="1"/><rect x="1514.6369652445912" y="769.5673955882825" width="4.178930629086432" height="8.042209422691307" fill="#00bbf9" opacity="0.3688299219051445" rx="1"/><rect x="1502.0615091659436" y="773.5885002996281" width="4.178930629086432" height="8.042209422691307" fill="#00f5d4" opacity="0.18441496095257226" rx="1"/><rect x="1511.6167443197194" y="819.9918093788419" width="10.219372478830483" height="8.970187499879437" fill="#00bbf9" opacity="0.5978576162825007" rx="1"/><rect x="1499.0412882410717" y="824.4769031287816" width="10.219372478830483" height="8.970187499879437" fill="#00f5d4" opacity="0.29892880814125034" rx="1"/><rect x="1511.4704483847697" y="870.4162231694014" width="10.511964348729691" height="8.126886534999796" fill="#00bbf9" opacity="0.13534193081672813" rx="1"/><rect x="1498.894992306122" y="874.4796664369013" width="10.511964348729691" height="8.126886534999796" fill="#00f5d4" opacity="0.06767096540836406" rx="1"/><rect x="1560.326438160423" y="828.7524101158493" width="74.79998349323868" height="82.08822684411152" fill="#000044" opacity="0.6500480015878678" rx="2"/><rect x="1594.52229719711" y="838.7524101158493" width="6.408265419865089" height="7.006754045609094" fill="#00bbf9" opacity="0.1962374230372341" rx="1"/><rect x="1575.8223013238003" y="842.2557871386539" width="6.408265419865089" height="7.006754045609094" fill="#00f5d4" opacity="0.09811871151861705" rx="1"/><rect x="1593.541168808797" y="859.2744668268772" width="8.370522196490905" height="6.28319300158955" fill="#00bbf9" opacity="0.12496655483845774" rx="1"/><rect x="1574.8411729354873" y="862.416063327672" width="8.370522196490905" height="6.28319300158955" fill="#00f5d4" opacity="0.06248327741922887" rx="1"/><rect x="1594.5472352710565" y="879.796523537905" width="6.358389271972326" height="6.0499842446413785" fill="#00bbf9" opacity="0.2888380472522317" rx="1"/><rect x="1575.8472393977468" y="882.8215156602257" width="6.358389271972326" height="6.0499842446413785" fill="#00f5d4" opacity="0.14441902362611586" rx="1"/><rect x="1593.8928104349761" y="900.318580248933" width="7.6672389441326345" height="8.940496606505592" fill="#00bbf9" opacity="0.501630655257411" rx="1"/><rect x="1575.1928145616664" y="904.7888285521858" width="7.6672389441326345" height="8.940496606505592" fill="#00f5d4" opacity="0.2508153276287055" rx="1"/><rect x="1668.585573890183" y="689.234923242879" width="42.47675714839174" height="221.60571371708198" fill="#000044" opacity="0.6174701120279427" rx="2"/><rect x="1687.1909094432679" y="699.234923242879" width="5.266086042222121" height="9.430574687996547" fill="#00bbf9" opacity="0.5912121695213048" rx="1"/><rect x="1676.57172015617" y="703.9502105868772" width="5.266086042222121" height="9.430574687996547" fill="#00f5d4" opacity="0.2956060847606524" rx="1"/><rect x="1685.861620439683" y="726.9356374575142" width="7.924664049391789" height="6.728569873778282" fill="#00bbf9" opacity="0.2907486900898508" rx="1"/><rect x="1675.2424311525851" y="730.2999223944033" width="7.924664049391789" height="6.728569873778282" fill="#00f5d4" opacity="0.1453743450449254" rx="1"/><rect x="1685.9453853960351" y="754.6363516721494" width="7.757134136687297" height="8.470156634801569" fill="#00bbf9" opacity="0.4658238443000763" rx="1"/><rect x="1675.3261961089372" y="758.8714299895502" width="7.757134136687297" height="8.470156634801569" fill="#00f5d4" opacity="0.23291192215003814" rx="1"/><rect x="1684.7831877854012" y="782.3370658867847" width="10.081529357955215" height="6.501644916017923" fill="#00bbf9" opacity="0.11374104770686036" rx="1"/><rect x="1674.1639984983033" y="785.5878883447937" width="10.081529357955215" height="6.501644916017923" fill="#00f5d4" opacity="0.05687052385343018" rx="1"/><rect x="1684.0081560789026" y="810.0377801014199" width="11.631592770952636" height="9.572680861589657" fill="#00bbf9" opacity="0.10695114198768306" rx="1"/><rect x="1673.3889667918047" y="814.8241205322147" width="11.631592770952636" height="9.572680861589657" fill="#00f5d4" opacity="0.05347557099384153" rx="1"/><rect x="1685.1585591345329" y="837.7384943160552" width="9.330786659692132" height="6.5875934913259915" fill="#00bbf9" opacity="0.19325715703732732" rx="1"/><rect x="1674.539369847435" y="841.0322910617182" width="9.330786659692132" height="6.5875934913259915" fill="#00f5d4" opacity="0.09662857851866366" rx="1"/><rect x="1686.236154268118" y="865.4392085306904" width="7.175596392521541" height="8.865421142164948" fill="#00bbf9" opacity="0.5705020618789136" rx="1"/><rect x="1675.6169649810201" y="869.8719191017728" width="7.175596392521541" height="8.865421142164948" fill="#00f5d4" opacity="0.2852510309394568" rx="1"/><rect x="1686.3024218740045" y="893.1399227453257" width="7.043061180748758" height="7.683848214727791" fill="#00bbf9" opacity="0.3773770795383903" rx="1"/><rect x="1675.6832325869066" y="896.9818468526896" width="7.043061180748758" height="7.683848214727791" fill="#00f5d4" opacity="0.18868853976919514" rx="1"/><rect x="1765.430986349671" y="557.1139662892358" width="45.26150690281333" height="353.72667067072507" fill="#000044" opacity="0.6674911436549135" rx="2"/><rect x="1785.8795137308323" y="567.1139662892358" width="4.36445214049063" height="8.325187272933588" fill="#00bbf9" opacity="0.5743337044432605" rx="1"/><rect x="1774.564137005129" y="571.2765599257026" width="4.36445214049063" height="8.325187272933588" fill="#00f5d4" opacity="0.28716685222163024" rx="1"/><rect x="1784.396651832579" y="611.3298001230764" width="7.330175936997444" height="8.099468989786569" fill="#00bbf9" opacity="0.29067494109987163" rx="1"/><rect x="1773.0812751068756" y="615.3795346179697" width="7.330175936997444" height="8.099468989786569" fill="#00f5d4" opacity="0.14533747054993582" rx="1"/><rect x="1784.7670746187669" y="655.5456339569171" width="6.589330364621555" height="8.838102134605428" fill="#00bbf9" opacity="0.34826876976254134" rx="1"/><rect x="1773.4516978930635" y="659.9646850242198" width="6.589330364621555" height="8.838102134605428" fill="#00f5d4" opacity="0.17413438488127067" rx="1"/><rect x="1782.3235943193436" y="699.7614677907577" width="11.476290963468209" height="9.819461752618537" fill="#00bbf9" opacity="0.4311917151629906" rx="1"/><rect x="1771.0082175936402" y="704.671198667067" width="11.476290963468209" height="9.819461752618537" fill="#00f5d4" opacity="0.2155958575814953" rx="1"/><rect x="1785.5531901963943" y="743.9773016245983" width="5.017099209366622" height="8.001081289258106" fill="#00bbf9" opacity="0.2258146707261481" rx="1"/><rect x="1774.237813470691" y="747.9778422692274" width="5.017099209366622" height="8.001081289258106" fill="#00f5d4" opacity="0.11290733536307405" rx="1"/><rect x="1784.8491163191566" y="788.193135458439" width="6.425246963842131" height="9.232510448254764" fill="#00bbf9" opacity="0.3705458169268784" rx="1"/><rect x="1773.5337395934532" y="792.8093906825663" width="6.425246963842131" height="9.232510448254764" fill="#00f5d4" opacity="0.1852729084634392" rx="1"/><rect x="1782.945717104565" y="832.4089692922796" width="10.232045393025512" height="9.049542668985563" fill="#00bbf9" opacity="0.43938101570573196" rx="1"/><rect x="1771.6303403788615" y="836.9337406267724" width="10.232045393025512" height="9.049542668985563" fill="#00f5d4" opacity="0.21969050785286598" rx="1"/><rect x="1782.7146302273366" y="876.6248031261202" width="10.694219147482471" height="9.807274170175026" fill="#00bbf9" opacity="0.5341415685913855" rx="1"/><rect x="1771.3992535016332" y="881.5284402112078" width="10.694219147482471" height="9.807274170175026" fill="#00f5d4" opacity="0.26707078429569275" rx="1"/><rect x="1832.3280259613045" y="712.8877795564215" width="75.63900544905081" height="197.95285740353933" fill="#000044" opacity="0.4418581628803765" rx="2"/><rect x="1864.9053636308804" y="722.8877795564215" width="10.484330109899009" height="6.43945613513688" fill="#00bbf9" opacity="0.35751950446458525" rx="1"/><rect x="1845.9956122686178" y="726.1075076239899" width="10.484330109899009" height="6.43945613513688" fill="#00f5d4" opacity="0.17875975223229262" rx="1"/><rect x="1867.743584714005" y="762.4783510371294" width="4.8078879436496385" height="7.648351962130599" fill="#00bbf9" opacity="0.13621283977669962" rx="1"/><rect x="1848.8338333517424" y="766.3025270181947" width="4.8078879436496385" height="7.648351962130599" fill="#00f5d4" opacity="0.06810641988834981" rx="1"/><rect x="1866.5378521325188" y="802.0689225178372" width="7.2193531066224335" height="7.153976947337849" fill="#00bbf9" opacity="0.25214601290695043" rx="1"/><rect x="1847.6281007702562" y="805.6459109915062" width="7.2193531066224335" height="7.153976947337849" fill="#00f5d4" opacity="0.12607300645347522" rx="1"/><rect x="1867.557285115186" y="841.659493998545" width="5.180487141287999" height="7.32256461431332" fill="#00bbf9" opacity="0.43010097204942743" rx="1"/><rect x="1848.6475337529234" y="845.3207763057017" width="5.180487141287999" height="7.32256461431332" fill="#00f5d4" opacity="0.21505048602471372" rx="1"/><rect x="1864.3240788562778" y="881.250065479253" width="11.646899659104388" height="6.026097744709369" fill="#00bbf9" opacity="0.5899665347742771" rx="1"/><rect x="1845.4143274940152" y="884.2631143516077" width="11.646899659104388" height="6.026097744709369" fill="#00f5d4" opacity="0.29498326738713854" rx="1"/><path d="M491.6457184803778 898.4514908861489 Q503.3487566382039 780.1961547299745 505.6893642697691 661.9408185738001" stroke="#000011" stroke-width="7.040535753369456" fill="none" stroke-linecap="round"/><path d="M505.6893642697691 661.9408185738001 Q540.3154683586479 641.9408185738001 539.026491170988 661.9408185738001" stroke="#00002b" stroke-width="3.4906810758380873" fill="none" stroke-linecap="round" opacity="0.6"/><path d="M505.6893642697691 661.9408185738001 Q534.7399772615942 645.8647499449366 526.5509032583174 669.7886813160733" stroke="#00002b" stroke-width="2.223958684649309" fill="none" stroke-linecap="round" opacity="0.6"/><path d="M505.6893642697691 661.9408185738001 Q504.44582866149017 653.2289911643743 488.5130193925138 684.5171637549483" stroke="#00002b" stroke-width="2.8782540845866906" fill="none" stroke-linecap="round" opacity="0.6"/><path d="M505.6893642697691 661.9408185738001 Q502.3339175857213 644.6137358754613 468.68689781531776 667.2866531771224" stroke="#00002b" stroke-width="3.453458737920378" fill="none" stroke-linecap="round" opacity="0.6"/><path d="M505.6893642697691 661.9408185738001 Q480.8215189169171 636.947792054315 436.56852159400796 651.9547655348297" stroke="#00002b" stroke-width="3.5509720285308948" fill="none" stroke-linecap="round" opacity="0.6"/><path d="M505.6893642697691 661.9408185738001 Q505.69600506534607 631.3779813254068 489.61670644982917 640.8151440770134" stroke="#00002b" stroke-width="2.750390024564785" fill="none" stroke-linecap="round" opacity="0.6"/><path d="M505.6893642697691 661.9408185738001 Q537.6684015966734 634.8702980307432 543.2797107939972 647.7997774876864" stroke="#00002b" stroke-width="3.463994073091073" fill="none" stroke-linecap="round" opacity="0.6"/><path d="M1401.812607376327 847.2167658496687 Q1407.5970349525094 795.1145418908249 1408.753920467746 743.0123179319809" stroke="#000011" stroke-width="6.954265515076524" fill="none" stroke-linecap="round"/><path d="M1408.753920467746 743.0123179319809 Q1435.9007803380723 723.0123179319809 1440.6659856444844 743.0123179319809" stroke="#00002b" stroke-width="3.185241679005614" fill="none" stroke-linecap="round" opacity="0.6"/><path d="M1408.753920467746 743.0123179319809 Q1433.9306263934996 731.9639811267887 1456.3453416950613 760.9156443215966" stroke="#00002b" stroke-width="3.5345302400026775" fill="none" stroke-linecap="round" opacity="0.6"/><path d="M1408.753920467746 743.0123179319809 Q1407.649502179354 732.0441606167137 1395.0108594376882 761.0760033014465" stroke="#00002b" stroke-width="2.5874484769505095" fill="none" stroke-linecap="round" opacity="0.6"/><path d="M1408.753920467746 743.0123179319809 Q1388.3267249070996 726.1900022145356 1364.7637244392351 749.3676864970904" stroke="#00002b" stroke-width="2.0802915571444416" fill="none" stroke-linecap="round" opacity="0.6"/><path d="M1408.753920467746 743.0123179319809 Q1406.0107565098187 720.0438247686999 1367.6596566735348 737.0753316054189" stroke="#00002b" stroke-width="2.533857439768933" fill="none" stroke-linecap="round" opacity="0.6"/><path d="M1408.753920467746 743.0123179319809 Q1415.0467565662152 717.5593272174356 1400.4565234910458 732.1063365028904" stroke="#00002b" stroke-width="3.123944144026363" fill="none" stroke-linecap="round" opacity="0.6"/><path d="M1466.0838969485098 876.0958188623413 Q1484.8327423224302 775.4334355239835 1488.5825113972144 674.7710521856255" stroke="#000011" stroke-width="7.79078915896611" fill="none" stroke-linecap="round"/><path d="M1488.5825113972144 674.7710521856255 Q1510.9362705601231 654.7710521856255 1518.9240160698362 674.7710521856255" stroke="#00002b" stroke-width="2.6737112409141175" fill="none" stroke-linecap="round" opacity="0.6"/><path d="M1488.5825113972144 674.7710521856255 Q1512.6009297526246 661.2556680424921 1523.0579019503873 687.7402838993586" stroke="#00002b" stroke-width="3.784785436416228" fill="none" stroke-linecap="round" opacity="0.6"/><path d="M1488.5825113972144 674.7710521856255 Q1494.8867654068388 663.4395984970647 1475.392250543649 692.108144808504" stroke="#00002b" stroke-width="3.0380924439612063" fill="none" stroke-linecap="round" opacity="0.6"/><path d="M1488.5825113972144 674.7710521856255 Q1480.9158844583094 658.7124839861788 1434.0193949506838 682.6539157867321" stroke="#00002b" stroke-width="2.4182177061257457" fill="none" stroke-linecap="round" opacity="0.6"/><path d="M1488.5825113972144 674.7710521856255 Q1488.668484721667 652.1702342894025 1452.578151329912 669.5694163931795" stroke="#00002b" stroke-width="3.5269476048478268" fill="none" stroke-linecap="round" opacity="0.6"/><rect x="0" y="1000" width="1920" height="80" fill="#000038" opacity="0.8"/><line x1="0" y1="1040" x2="1920" y2="1040" stroke="#00bbf9" stroke-opacity="0.15" stroke-width="2" stroke-dasharray="30,20"/><rect x="0" y="930" width="1920" height="150" fill="url(#glow38)"/><text x="1900" y="1060" font-family="Arial, sans-serif" font-size="11" fill="#fff" opacity="0.08" text-anchor="end" letter-spacing="2">GTA 6 REWARDS · WALLPAPER 039</text>
</svg>