<?xml version="1.0" encoding="UTF-8"?>
<svg xmlns="http://www.w3.org/2000/svg" width="1920" height="1080" viewBox="0 0 1920 1080">
<defs>
    <linearGradient id="bg75" x1="0%" y1="0%" x2="0%" y2="100%">
      <stop offset="0%" stop-color="#2d1b1b"/>
      <stop offset="50%" stop-color="#000000"/>
      <stop offset="100%" stop-color="#2d1b1b"/>
    </linearGradient>
    <linearGradient id="sun75" x1="0%" y1="0%" x2="100%" y2="100%">
      <stop offset="0%" stop-color="#ff6b6b"/>
      <stop offset="100%" stop-color="#c0392b"/>
    </linearGradient>
    <radialGradient id="glow75" cx="50%" cy="70%" r="50%">
      <stop offset="0%" stop-color="#ff6b6b" stop-opacity="0.3"/>
      <stop offset="100%" stop-color="#2d1b1b" stop-opacity="0"/>
    </radialGradient>
  </defs><rect width="1920" height="1080" fill="url(#bg75)"/><circle cx="353.47078387939155" cy="546.7864291618547" r="600.0074316747504" fill="#ff6b6b" opacity="0.08928436055762795"/><circle cx="553.4707838793915" cy="446.7864291618547" r="523.0715541921257" fill="#c0392b" opacity="0.1296663732080875"/><line x1="0" y1="980" x2="1920" y2="980" stroke="#c0392b" stroke-opacity="0.05" stroke-width="2"/><line x1="0" y1="935" x2="1920" y2="935" stroke="#c0392b" stroke-opacity="0.049" stroke-width="0.5"/><line x1="0" y1="890" x2="1920" y2="890" stroke="#c0392b" stroke-opacity="0.048" stroke-width="0.5"/><line x1="0" y1="845" x2="1920" y2="845" stroke="#c0392b" stroke-opacity="0.047" stroke-width="0.5"/><line x1="0" y1="800" x2="1920" y2="800" stroke="#c0392b" stroke-opacity="0.046" stroke-width="0.5"/><line x1="0" y1="755" x2="1920" y2="755" stroke="#c0392b" stroke-opacity="0.045" stroke-width="0.5"/><line x1="0" y1="710" x2="1920" y2="710" stroke="#c0392b" stroke-opacity="0.044" stroke-width="0.5"/><line x1="0" y1="665" x2="1920" y2="665" stroke="#c0392b" stroke-opacity="0.043" stroke-width="0.5"/><line x1="0" y1="620" x2="1920" y2="620" stroke="#c0392b" stroke-opacity="0.041999999999999996" stroke-width="0.5"/><line x1="0" y1="575" x2="1920" y2="575" stroke="#c0392b" stroke-opacity="0.041" stroke-width="0.5"/><line x1="0" y1="530" x2="1920" y2="530" stroke="#c0392b" stroke-opacity="0.04" stroke-width="0.5"/><line x1="0" y1="485" x2="1920" y2="485" stroke="#c0392b" stroke-opacity="0.039" stroke-width="0.5"/><line x1="0" y1="440" x2="1920" y2="440" stroke="#c0392b" stroke-opacity="0.038" stroke-width="0.5"/><line x1="0" y1="395" x2="1920" y2="395" stroke="#c0392b" stroke-opacity="0.037" stroke-width="0.5"/><line x1="0" y1="350" x2="1920" y2="350" stroke="#c0392b" stroke-opacity="0.036" stroke-width="0.5"/><line x1="0" y1="305" x2="1920" y2="305" stroke="#c0392b" stroke-opacity="0.034999999999999996" stroke-width="0.5"/><line x1="0" y1="260" x2="1920" y2="260" stroke="#c0392b" stroke-opacity="0.033999999999999996" stroke-width="0.5"/><line x1="0" y1="215" x2="1920" y2="215" stroke="#c0392b" stroke-opacity="0.033" stroke-width="0.5"/><line x1="0" y1="170" x2="1920" y2="170" stroke="#c0392b" stroke-opacity="0.032" stroke-width="0.5"/><line x1="0" y1="125" x2="1920" y2="125" stroke="#c0392b" stroke-opacity="0.031" stroke-width="0.5"/><line x1="560" y1="1080" x2="860" y2="580" stroke="#ff6b6b" stroke-opacity="0.04" stroke-width="1"/><line x1="640" y1="1080" x2="880" y2="590" stroke="#ff6b6b" stroke-opacity="0.04" stroke-width="1"/><line x1="720" y1="1080" x2="900" y2="600" stroke="#ff6b6b" stroke-opacity="0.04" stroke-width="1"/><line x1="800" y1="1080" x2="920" y2="610" stroke="#ff6b6b" stroke-opacity="0.04" stroke-width="1"/><line x1="880" y1="1080" x2="940" y2="620" stroke="#ff6b6b" stroke-opacity="0.04" stroke-width="1"/><line x1="960" y1="1080" x2="960" y2="630" stroke="#ff6b6b" stroke-opacity="0.04" stroke-width="1"/><line x1="1040" y1="1080" x2="980" y2="620" stroke="#ff6b6b" stroke-opacity="0.04" stroke-width="1"/><line x1="1120" y1="1080" x2="1000" y2="610" stroke="#ff6b6b" stroke-opacity="0.04" stroke-width="1"/><line x1="1200" y1="1080" x2="1020" y2="600" stroke="#ff6b6b" stroke-opacity="0.04" stroke-width="1"/><line x1="1280" y1="1080" x2="1040" y2="590" stroke="#ff6b6b" stroke-opacity="0.04" stroke-width="1"/><line x1="1360" y1="1080" x2="1060" y2="580" stroke="#ff6b6b" stroke-opacity="0.04" stroke-width="1"/><circle cx="366.24248196981904" cy="191.26881366625167" r="97.29432007234877" fill="url(#sun75)" opacity="0.7181422128384333"/><circle cx="366.24248196981904" cy="191.26881366625167" r="92.29432007234877" fill="#2d1b1b" opacity="0.3"/><circle cx="1317.5465707568328" cy="406.7007263355657" r="1.1658181172483177" fill="#fff" opacity="0.6941382182049887"/><circle cx="1371.3454532835972" cy="83.31079074444966" r="1.5734477295944114" fill="#fff" opacity="0.5610439178443151"/><circle cx="1060.1727352524579" cy="373.3895782021316" r="0.947460874087983" fill="#fff" opacity="0.3496268854824889"/><circle cx="243.5732187897836" cy="46.17818033652804" r="0.7383308776743549" fill="#fff" opacity="0.7444144556635093"/><circle cx="1786.3528248356547" cy="5.853565213702052" r="0.9263229237232178" fill="#fff" opacity="0.3617075020823878"/><circle cx="114.2093521622497" cy="32.05491425098267" r="1.3813524971207027" fill="#fff" opacity="0.3448917167598595"/><circle cx="710.1505772932784" cy="209.10295588548829" r="1.9948976756992978" fill="#fff" opacity="0.533952087427944"/><circle cx="600.8912239877719" cy="158.7346690256928" r="1.4877559016430182" fill="#fff" opacity="0.49852759235038596"/><circle cx="715.6957212266735" cy="259.3169317737494" r="1.547304797462957" fill="#fff" opacity="0.2911028587937129"/><circle cx="225.79312523496176" cy="316.64927722063135" r="1.3225065464671948" fill="#fff" opacity="0.4517536036325045"/><circle cx="194.70498745206393" cy="196.62417353797335" r="1.342307464881406" fill="#fff" opacity="0.38342189304144636"/><circle cx="1824.3737312928713" cy="301.6709752375425" r="0.6271252611482342" fill="#fff" opacity="0.23708576719208757"/><circle cx="853.039796700012" cy="257.1855861621875" r="1.5517159727289611" fill="#fff" opacity="0.31120648447219434"/><circle cx="1402.4371145950715" cy="93.89805518786842" r="1.8016034280419357" fill="#fff" opacity="0.333280771722384"/><circle cx="1137.8642756906022" cy="100.0552839124704" r="0.8703262225888497" fill="#fff" opacity="0.6395001889298437"/><circle cx="290.5739325961503" cy="309.50097451114584" r="1.1967863936901062" fill="#fff" opacity="0.35244685387063"/><circle cx="1699.5018405698943" cy="336.8827338630526" r="1.3581521934499388" fill="#fff" opacity="0.35376396098960283"/><circle cx="1023.2216376958465" cy="252.95971308577802" r="0.7869728838063248" fill="#fff" opacity="0.5498189354198564"/><circle cx="1882.999787173001" cy="150.27430131432467" r="1.6728583927435936" fill="#fff" opacity="0.6387395461645768"/><circle cx="248.32334703028278" cy="301.777290693898" r="1.3966153588603751" fill="#fff" opacity="0.4484476096109598"/><circle cx="1656.8689235432234" cy="130.19957112944672" r="1.9806152664778325" fill="#fff" opacity="0.6166375410781795"/><circle cx="1321.0107188022255" cy="165.26917592931287" r="1.5011933189819553" fill="#fff" opacity="0.413024112538673"/><circle cx="1473.5531624112168" cy="325.4000270826276" r="1.290087670970263" fill="#fff" opacity="0.6506401196240075"/><circle cx="1001.7705334075193" cy="41.28384377651006" r="1.4972431375638682" fill="#fff" opacity="0.41089644870043185"/><circle cx="1280.5690918864145" cy="122.25435954571104" r="0.6246867063745593" fill="#fff" opacity="0.428587490792523"/><circle cx="1180.8888363607437" cy="91.07441842068788" r="0.95863137882171" fill="#fff" opacity="0.7545645608460914"/><circle cx="111.06624799572542" cy="354.10252207939106" r="1.9653808780632402" fill="#fff" opacity="0.5625687464053204"/><circle cx="310.11925317117" cy="431.641981925732" r="1.7767383704839133" fill="#fff" opacity="0.4407540177089987"/><circle cx="691.202612829209" cy="262.1686617299376" r="0.9824944245588254" fill="#fff" opacity="0.2002100919839484"/><circle cx="1261.2842048661048" cy="40.98768525407363" r="0.7182433557971948" fill="#fff" opacity="0.2729278229812458"/><circle cx="1701.4969914642852" cy="151.68182777792256" r="1.7960829840265407" fill="#fff" opacity="0.28083165466804794"/><circle cx="1535.3996451793703" cy="95.09923092999944" r="0.7186487423532291" fill="#fff" opacity="0.35883271870176137"/><circle cx="709.9984790547747" cy="214.53056253644883" r="0.6517599040297233" fill="#fff" opacity="0.27978196113365283"/><circle cx="1108.340710212556" cy="53.09171344830928" r="1.807991318010723" fill="#fff" opacity="0.517602161298879"/><circle cx="1172.7983954299239" cy="360.90914036168465" r="1.9113256642388472" fill="#fff" opacity="0.26554278388282815"/><circle cx="22.507097577328583" cy="270.53884475644185" r="0.7372490823588449" fill="#fff" opacity="0.2935439162639771"/><circle cx="187.310506000023" cy="203.0363643679387" r="1.1228335004120211" fill="#fff" opacity="0.5894570246779958"/><circle cx="507.93769431019615" cy="73.85029116129742" r="1.0508940226982566" fill="#fff" opacity="0.21717608380531336"/><circle cx="1830.4496642738695" cy="373.86049186202246" r="1.1179960281862868" fill="#fff" opacity="0.3682369153872684"/><circle cx="192.84175877292682" cy="113.25889415323243" r="1.2331592266525047" fill="#fff" opacity="0.247084340976338"/><circle cx="452.8874718707259" cy="306.42644391265384" r="1.6567755164943578" fill="#fff" opacity="0.434649725312984"/><circle cx="1847.3304560611327" cy="127.37474768594251" r="0.8842473675925862" fill="#fff" opacity="0.6447345713723298"/><circle cx="761.967047183301" cy="343.5677304956056" r="1.720650510215352" fill="#fff" opacity="0.6281132547250281"/><circle cx="1041.9992854637092" cy="100.48138168185982" r="1.0448044058971118" fill="#fff" opacity="0.3575335890887151"/><circle cx="453.66179074478845" cy="281.32343593084335" r="0.8894483772780394" fill="#fff" opacity="0.4398804890084733"/><circle cx="1109.2667661209746" cy="216.61591553888655" r="1.9890244342361167" fill="#fff" opacity="0.4903450336051977"/><circle cx="734.5231802981633" cy="414.64316605744955" r="0.9885551377638604" fill="#fff" opacity="0.6703594573937262"/><circle cx="1216.0784132629815" cy="255.41018611551496" r="1.9663117952799218" fill="#fff" opacity="0.21830950235442947"/><circle cx="1532.0398645689804" cy="28.12934200003029" r="1.006910656696863" fill="#fff" opacity="0.6382731960709843"/><circle cx="1654.222376284707" cy="181.39025002843474" r="1.6597756605268865" fill="#fff" opacity="0.3619699936737236"/><circle cx="1494.5730340980394" cy="16.779992070230655" r="1.1043432507674078" fill="#fff" opacity="0.7992115280589116"/><circle cx="1190.9309477896734" cy="320.576925300196" r="1.3258914711945438" fill="#fff" opacity="0.7479593939958045"/><circle cx="1339.8519764979958" cy="391.6371926683088" r="1.7734419569078466" fill="#fff" opacity="0.6483332681582153"/><circle cx="1892.3078991408245" cy="69.66606491190988" r="0.8407858480561492" fill="#fff" opacity="0.5834086775741094"/><circle cx="1085.3779692494725" cy="39.07809995652132" r="1.922174609131686" fill="#fff" opacity="0.35731205063809457"/><circle cx="808.0546994898596" cy="275.5269332722591" r="1.7862299527708045" fill="#fff" opacity="0.41183916051216407"/><circle cx="418.69597936484405" cy="93.11039017818644" r="0.8373674082889611" fill="#fff" opacity="0.5216139536168458"/><circle cx="336.2363926359071" cy="354.58933225334374" r="1.8711071610150642" fill="#fff" opacity="0.5733005027224544"/><circle cx="274.7983124001879" cy="58.00396703044044" r="1.0917196963195968" fill="#fff" opacity="0.6510630251958647"/><circle cx="343.2181961143432" cy="371.6744431675585" r="1.9773773980507108" fill="#fff" opacity="0.4607784922376225"/><circle cx="211.4352697626304" cy="430.38133145086033" r="1.1121950785425014" fill="#fff" opacity="0.6530491823919697"/><circle cx="739.9865946406467" cy="155.22957830019985" r="1.032637714415937" fill="#fff" opacity="0.7644919440533249"/><circle cx="1452.4479696556107" cy="373.4974061226233" r="1.171341042307052" fill="#fff" opacity="0.7762730717603752"/><circle cx="1372.2162105357777" cy="76.71507938502242" r="1.6901106304000388" fill="#fff" opacity="0.7909101468955424"/><circle cx="1873.6381615590394" cy="348.944971296225" r="1.015881893228712" fill="#fff" opacity="0.7152536246728276"/><circle cx="1610.4746236676524" cy="413.03513484751693" r="0.8619630218860608" fill="#fff" opacity="0.6837373062231897"/><circle cx="1419.7209154394736" cy="104.7817797010722" r="1.3001115484629087" fill="#fff" opacity="0.7480764743751094"/><circle cx="1142.790978667976" cy="242.35924955884906" r="0.7504368957016703" fill="#fff" opacity="0.26684579264066316"/><circle cx="557.6944713102873" cy="84.33675500478985" r="1.1046746764575772" fill="#fff" opacity="0.5264490439850951"/><circle cx="1764.0313392514436" cy="187.55333136663617" r="1.007186868695353" fill="#fff" opacity="0.5171679222763441"/><circle cx="912.7992150822652" cy="24.33194014624039" r="1.3207660421777438" fill="#fff" opacity="0.5534509955331337"/><circle cx="1265.2835197712488" cy="229.3824897272006" r="1.3276620916620971" fill="#fff" opacity="0.67897936889878"/><circle cx="1903.762569572721" cy="317.7036002086717" r="0.9563768452397494" fill="#fff" opacity="0.29668102890641457"/><circle cx="1642.6209255407148" cy="145.2123869064293" r="0.5632828408999562" fill="#fff" opacity="0.6929688917223757"/><circle cx="636.5535527459703" cy="37.61215578522816" r="1.1135286707695409" fill="#fff" opacity="0.3686799992734287"/><circle cx="1204.2160573425274" cy="268.14356464802836" r="1.0678448970587562" fill="#fff" opacity="0.47874957748659647"/><circle cx="1056.4314439372233" cy="405.2220787529885" r="0.8315513719179555" fill="#fff" opacity="0.23155058674317566"/><rect x="10.47686530288236" y="637.6777415135125" width="44.12047283587057" height="275.2315164253189" fill="#2d1b1b" opacity="0.5793491938336168" rx="2"/><rect x="28.494442670488368" y="647.6777415135125" width="8.085318100658553" height="7.818233208222835" fill="#c0392b" opacity="0.24840113526405794" rx="1"/><rect x="17.464324461520725" y="651.5868581176239" width="8.085318100658553" height="7.818233208222835" fill="#ff6b6b" opacity="0.12420056763202897" rx="1"/><rect x="29.601148699550226" y="716.4856206198422" width="5.871906042534836" height="8.244088526406346" fill="#c0392b" opacity="0.19872079922322203" rx="1"/><rect x="18.571030490582583" y="720.6076648830453" width="5.871906042534836" height="8.244088526406346" fill="#ff6b6b" opacity="0.09936039961161101" rx="1"/><rect x="28.260621863245177" y="785.293499726172" width="8.552959715144933" height="7.908693545011033" fill="#c0392b" opacity="0.12990535693939434" rx="1"/><rect x="17.230503654277534" y="789.2478464986775" width="8.552959715144933" height="7.908693545011033" fill="#ff6b6b" opacity="0.06495267846969717" rx="1"/><rect x="28.93367842024511" y="854.1013788325017" width="7.206846601145074" height="6.627478537295824" fill="#c0392b" opacity="0.2736039362553516" rx="1"/><rect x="17.903560211277465" y="857.4151181011497" width="7.206846601145074" height="6.627478537295824" fill="#ff6b6b" opacity="0.1368019681276758" rx="1"/><rect x="123.39368202104086" y="548.893564822826" width="78.36284902607157" height="364.0156931160055" fill="#2d1b1b" opacity="0.40928519070364655" rx="2"/><rect x="159.39132518097554" y="558.893564822826" width="6.3675627062021665" height="7.746334627677299" fill="#c0392b" opacity="0.3151483123225971" rx="1"/><rect x="139.80061292445765" y="562.7667321366646" width="6.3675627062021665" height="7.746334627677299" fill="#ff6b6b" opacity="0.15757415616129855" rx="1"/><rect x="159.73885611415346" y="631.6967034460271" width="5.672500839846325" height="7.512889826091214" fill="#c0392b" opacity="0.20464226666480356" rx="1"/><rect x="140.14814385763557" y="635.4531483590727" width="5.672500839846325" height="7.512889826091214" fill="#ff6b6b" opacity="0.10232113333240178" rx="1"/><rect x="157.11844903233424" y="704.4998420692282" width="10.913315003484794" height="7.311718596450919" fill="#c0392b" opacity="0.31366084767823593" rx="1"/><rect x="137.52773677581635" y="708.1557013674536" width="10.913315003484794" height="7.311718596450919" fill="#ff6b6b" opacity="0.15683042383911797" rx="1"/><rect x="158.45288649328353" y="777.3029806924292" width="8.244440081586234" height="9.32800692024827" fill="#c0392b" opacity="0.5169241150182029" rx="1"/><rect x="138.86217423676564" y="781.9669841525533" width="8.244440081586234" height="9.32800692024827" fill="#ff6b6b" opacity="0.25846205750910145" rx="1"/><rect x="159.23748369380772" y="850.1061193156304" width="6.675245680537831" height="9.176478126825875" fill="#c0392b" opacity="0.24637107894438579" rx="1"/><rect x="139.64677143728983" y="854.6943583790434" width="6.675245680537831" height="9.176478126825875" fill="#ff6b6b" opacity="0.12318553947219289" rx="1"/><rect x="251.2334006073031" y="801.0617786671644" width="54.564892469105516" height="111.84747927166696" fill="#2d1b1b" opacity="0.4720820075068814" rx="2"/><rect x="275.4394966462719" y="811.0617786671644" width="6.152700391167938" height="8.46878323761485" fill="#c0392b" opacity="0.5792003135614098" rx="1"/><rect x="261.7982735289955" y="815.2961702859718" width="6.152700391167938" height="8.46878323761485" fill="#ff6b6b" opacity="0.2896001567807049" rx="1"/><rect x="275.09776556447565" y="829.7030252124422" width="6.836162554760501" height="6.32724912844767" fill="#c0392b" opacity="0.10424836494593145" rx="1"/><rect x="261.45654244719924" y="832.866649776666" width="6.836162554760501" height="6.32724912844767" fill="#ff6b6b" opacity="0.05212418247296573" rx="1"/><rect x="275.08527625773223" y="848.3442717577201" width="6.861141168247243" height="6.585905941339654" fill="#c0392b" opacity="0.16640976855214912" rx="1"/><rect x="261.4440531404558" y="851.6372247283899" width="6.861141168247243" height="6.585905941339654" fill="#ff6b6b" opacity="0.08320488427607456" rx="1"/><rect x="275.8005982448348" y="866.9855183029979" width="5.430497194042079" height="8.26050119340897" fill="#c0392b" opacity="0.29870552844337783" rx="1"/><rect x="262.1593751275584" y="871.1157688997024" width="5.430497194042079" height="8.26050119340897" fill="#ff6b6b" opacity="0.14935276422168892" rx="1"/><rect x="275.63294543666603" y="885.6267648482757" width="5.765802810379723" height="9.695498466420801" fill="#c0392b" opacity="0.5132156100620552" rx="1"/><rect x="261.9917223193896" y="890.4745140814861" width="5.765802810379723" height="9.695498466420801" fill="#ff6b6b" opacity="0.2566078050310276" rx="1"/><rect x="273.62426484390727" y="904.2680113935535" width="9.783163995897203" height="8.285100848946046" fill="#c0392b" opacity="0.4251642381830989" rx="1"/><rect x="259.98304172663086" y="908.4105618180265" width="9.783163995897203" height="8.285100848946046" fill="#ff6b6b" opacity="0.21258211909154945" rx="1"/><rect x="374.8006146854722" y="731.0669474725302" width="45.2131661482186" height="181.84231046630123" fill="#2d1b1b" opacity="0.5983062832146665" rx="2"/><rect x="393.33280887974723" y="741.0669474725302" width="8.148777759668597" height="7.16725744147954" fill="#c0392b" opacity="0.16390843530276522" rx="1"/><rect x="382.02951734269254" y="744.6505761932699" width="8.148777759668597" height="7.16725744147954" fill="#ff6b6b" opacity="0.08195421765138261" rx="1"/><rect x="392.5169846409739" y="771.3739992169137" width="9.780426237215387" height="8.59059437517789" fill="#c0392b" opacity="0.380866873981633" rx="1"/><rect x="381.2136931039192" y="775.6692964045027" width="9.780426237215387" height="8.59059437517789" fill="#ff6b6b" opacity="0.1904334369908165" rx="1"/><rect x="392.28724130179904" y="801.6810509612973" width="10.239912915565053" height="6.571830555929763" fill="#c0392b" opacity="0.5509656070617414" rx="1"/><rect x="380.98394976474435" y="804.9669662392622" width="10.239912915565053" height="6.571830555929763" fill="#ff6b6b" opacity="0.2754828035308707" rx="1"/><rect x="393.9140190358539" y="831.9881027056808" width="6.986357447455255" height="8.605922602723801" fill="#c0392b" opacity="0.3722878525434732" rx="1"/><rect x="382.61072749879924" y="836.2910640070427" width="6.986357447455255" height="8.605922602723801" fill="#ff6b6b" opacity="0.1861439262717366" rx="1"/><rect x="393.7013552362801" y="862.2951544500643" width="7.411685046602899" height="6.98488843557073" fill="#c0392b" opacity="0.29752715486044234" rx="1"/><rect x="382.3980636992254" y="865.7875986678497" width="7.411685046602899" height="6.98488843557073" fill="#ff6b6b" opacity="0.14876357743022117" rx="1"/><rect x="395.22980108024313" y="892.6022061944478" width="4.354793358676786" height="9.408260973963948" fill="#c0392b" opacity="0.5294589822947651" rx="1"/><rect x="383.92650954318844" y="897.3063366814298" width="4.354793358676786" height="9.408260973963948" fill="#ff6b6b" opacity="0.26472949114738253" rx="1"/><rect x="484.9417529569337" y="702.8983865754908" width="88.17249179309525" height="210.0108713633406" fill="#130101" opacity="0.672582441911237" rx="2"/><rect x="523.1218273006663" y="712.8983865754908" width="11.812343105630099" height="6.836474922680407" fill="#c0392b" opacity="0.5607513685386515" rx="1"/><rect x="501.0787043523925" y="716.3166240368311" width="11.812343105630099" height="6.836474922680407" fill="#ff6b6b" opacity="0.28037568426932574" rx="1"/><rect x="523.1331501873519" y="754.9005608481589" width="11.789697332258731" height="8.484290809017674" fill="#c0392b" opacity="0.5517410125005388" rx="1"/><rect x="501.0900272390782" y="759.1427062526677" width="11.789697332258731" height="8.484290809017674" fill="#ff6b6b" opacity="0.2758705062502694" rx="1"/><rect x="524.0259138823081" y="796.9027351208271" width="10.00416994234644" height="7.840453876610951" fill="#c0392b" opacity="0.26866464870252293" rx="1"/><rect x="501.9827909340343" y="800.8229620591326" width="10.00416994234644" height="7.840453876610951" fill="#ff6b6b" opacity="0.13433232435126147" rx="1"/><rect x="524.4505417881185" y="838.9049093934951" width="9.154914130725645" height="9.030254917924818" fill="#c0392b" opacity="0.4370937584752901" rx="1"/><rect x="502.40741883984475" y="843.4200368524575" width="9.154914130725645" height="9.030254917924818" fill="#ff6b6b" opacity="0.21854687923764504" rx="1"/><rect x="525.6485522451458" y="880.9070836661633" width="6.758893216671165" height="6.884718844873067" fill="#c0392b" opacity="0.4962000934165437" rx="1"/><rect x="503.605429296872" y="884.3494430885999" width="6.758893216671165" height="6.884718844873067" fill="#ff6b6b" opacity="0.24810004670827185" rx="1"/><rect x="620.0451106345386" y="637.7872385056194" width="49.80400815135893" height="275.122019433212" fill="#2d1b1b" opacity="0.46000057960860447" rx="2"/><rect x="642.0778258473327" y="647.7872385056194" width="5.738577725770552" height="7.0536847210148546" fill="#c0392b" opacity="0.4011182851160686" rx="1"/><rect x="629.6268238094931" y="651.3140808661268" width="5.738577725770552" height="7.0536847210148546" fill="#ff6b6b" opacity="0.2005591425580343" rx="1"/><rect x="640.6695451679801" y="716.5677433639223" width="8.555139084475845" height="8.157537697385424" fill="#c0392b" opacity="0.36370783156336006" rx="1"/><rect x="628.2185431301405" y="720.646512212615" width="8.555139084475845" height="8.157537697385424" fill="#ff6b6b" opacity="0.18185391578168003" rx="1"/><rect x="639.8920018903193" y="785.3482482222254" width="10.110225639797335" height="7.382861195454109" fill="#c0392b" opacity="0.38146388027385436" rx="1"/><rect x="627.4409998524796" y="789.0396788199524" width="10.110225639797335" height="7.382861195454109" fill="#ff6b6b" opacity="0.19073194013692718" rx="1"/><rect x="641.4770501918338" y="854.1287530805284" width="6.9401290367683695" height="6.041620826358353" fill="#c0392b" opacity="0.5526804835658242" rx="1"/><rect x="629.0260481539941" y="857.1495634937077" width="6.9401290367683695" height="6.041620826358353" fill="#ff6b6b" opacity="0.2763402417829121" rx="1"/><rect x="721.1979090099218" y="639.8269388102524" width="87.99467333545785" height="273.08231912857906" fill="#2d1b1b" opacity="0.5473722211428388" rx="2"/><rect x="759.3977115518409" y="649.8269388102524" width="11.59506825161983" height="7.449098368512722" fill="#c0392b" opacity="0.4469845904845243" rx="1"/><rect x="737.3990432179763" y="653.5514879945088" width="11.59506825161983" height="7.449098368512722" fill="#ff6b6b" opacity="0.22349229524226216" rx="1"/><rect x="761.7606515909454" y="695.3406586650156" width="6.869188173410759" height="8.67084004233378" fill="#c0392b" opacity="0.4824823625344975" rx="1"/><rect x="739.7619832570808" y="699.6760786861824" width="6.869188173410759" height="8.67084004233378" fill="#ff6b6b" opacity="0.24124118126724875" rx="1"/><rect x="761.5238319259425" y="740.8543785197787" width="7.342827503416414" height="9.429257164576384" fill="#c0392b" opacity="0.12556280582807092" rx="1"/><rect x="739.525163592078" y="745.569007102067" width="7.342827503416414" height="9.429257164576384" fill="#ff6b6b" opacity="0.06278140291403546" rx="1"/><rect x="761.961688672882" y="786.3680983745419" width="6.467114009537528" height="7.485934243883457" fill="#c0392b" opacity="0.10470053765566567" rx="1"/><rect x="739.9630203390175" y="790.1110654964837" width="6.467114009537528" height="7.485934243883457" fill="#ff6b6b" opacity="0.052350268827832835" rx="1"/><rect x="762.2266181072282" y="831.881818229305" width="5.937255140845025" height="8.502511161030855" fill="#c0392b" opacity="0.19770918360392312" rx="1"/><rect x="740.2279497733637" y="836.1330738098205" width="5.937255140845025" height="8.502511161030855" fill="#ff6b6b" opacity="0.09885459180196156" rx="1"/><rect x="762.5121874714997" y="877.3955380840682" width="5.36611641230204" height="7.990878340320401" fill="#c0392b" opacity="0.28371702921197683" rx="1"/><rect x="740.5135191376352" y="881.3909772542285" width="5.36611641230204" height="7.990878340320401" fill="#ff6b6b" opacity="0.14185851460598842" rx="1"/><rect x="868.9724804970838" y="785.5176173233235" width="71.78176207043737" height="127.39164061550787" fill="#2d1b1b" opacity="0.4422240714408048" rx="2"/><rect x="899.1091087744825" y="795.5176173233235" width="11.508505515639788" height="9.757297408710535" fill="#c0392b" opacity="0.11169384748481537" rx="1"/><rect x="881.1636682568732" y="800.3962660276787" width="11.508505515639788" height="9.757297408710535" fill="#ff6b6b" opacity="0.055846923742407684" rx="1"/><rect x="900.0370137475052" y="827.3655274772004" width="9.652695569594552" height="6.51179098070408" fill="#c0392b" opacity="0.38890393599609474" rx="1"/><rect x="882.0915732298959" y="830.6214229675525" width="9.652695569594552" height="6.51179098070408" fill="#ff6b6b" opacity="0.19445196799804737" rx="1"/><rect x="899.7524759263621" y="859.2134376310775" width="10.221771211880672" height="9.675684379338213" fill="#c0392b" opacity="0.5491412236702492" rx="1"/><rect x="881.8070354087528" y="864.0512798207466" width="10.221771211880672" height="9.675684379338213" fill="#ff6b6b" opacity="0.2745706118351246" rx="1"/><rect x="902.3304793549074" y="891.0613477849545" width="5.065764354790041" height="7.290179260375486" fill="#c0392b" opacity="0.508069339326599" rx="1"/><rect x="884.3850388372981" y="894.7064374151422" width="5.065764354790041" height="7.290179260375486" fill="#ff6b6b" opacity="0.2540346696632995" rx="1"/><rect x="981.4807063204889" y="826.2943488024861" width="37.28851644026314" height="86.61490913634536" fill="#130101" opacity="0.4452634915349222" rx="2"/><rect x="995.2401301777548" y="836.2943488024861" width="9.76966872573124" height="8.716299645303819" fill="#c0392b" opacity="0.17196695324312128" rx="1"/><rect x="985.9180010676891" y="840.6524986251379" width="9.76966872573124" height="8.716299645303819" fill="#ff6b6b" opacity="0.08598347662156064" rx="1"/><rect x="996.7711913478026" y="865.1659851812678" width="6.707546385635516" height="9.9034045347719" fill="#c0392b" opacity="0.5731851569314452" rx="1"/><rect x="987.4490622377369" y="870.1176874486538" width="6.707546385635516" height="9.9034045347719" fill="#ff6b6b" opacity="0.2865925784657226" rx="1"/><rect x="995.9277953209652" y="894.0376215600496" width="8.394338439310513" height="8.856850692736183" fill="#c0392b" opacity="0.3147864896605691" rx="1"/><rect x="986.6056662108995" y="898.4660469064177" width="8.394338439310513" height="8.856850692736183" fill="#ff6b6b" opacity="0.15739324483028455" rx="1"/><rect x="1085.768735880444" y="577.7790597238995" width="69.10708726828616" height="335.1301982149319" fill="#2d1b1b" opacity="0.6865487600645397" rx="2"/><rect x="1115.6627780470678" y="587.7790597238995" width="9.319002935038647" height="7.213113509401007" fill="#c0392b" opacity="0.2793787650948807" rx="1"/><rect x="1098.3860062299962" y="591.3856164786" width="9.319002935038647" height="7.213113509401007" fill="#ff6b6b" opacity="0.13968938254744034" rx="1"/><rect x="1114.5019354334804" y="643.6340927597215" width="11.640688162213351" height="9.571451416139363" fill="#c0392b" opacity="0.5528763076413601" rx="1"/><rect x="1097.2251636164087" y="648.4198184677912" width="11.640688162213351" height="9.571451416139363" fill="#ff6b6b" opacity="0.27643815382068004" rx="1"/><rect x="1115.9968818344635" y="699.4891257955435" width="8.650795360247324" height="6.688486606974268" fill="#c0392b" opacity="0.29677934113349286" rx="1"/><rect x="1098.7201100173918" y="702.8333690990306" width="8.650795360247324" height="6.688486606974268" fill="#ff6b6b" opacity="0.14838967056674643" rx="1"/><rect x="1116.359915017467" y="755.3441588313655" width="7.924728994240223" height="9.877110624657272" fill="#c0392b" opacity="0.5010976734340884" rx="1"/><rect x="1099.0831432003954" y="760.2827141436941" width="7.924728994240223" height="9.877110624657272" fill="#ff6b6b" opacity="0.2505488367170442" rx="1"/><rect x="1115.0327623188573" y="811.1991918671874" width="10.579034391459784" height="6.2975503337331" fill="#c0392b" opacity="0.5699523285892681" rx="1"/><rect x="1097.7559905017856" y="814.347967034054" width="10.579034391459784" height="6.2975503337331" fill="#ff6b6b" opacity="0.28497616429463407" rx="1"/><rect x="1114.4774803303828" y="867.0542249030095" width="11.68959836840853" height="6.206107507507808" fill="#c0392b" opacity="0.4630705512741279" rx="1"/><rect x="1097.2007085133112" y="870.1572786567634" width="11.68959836840853" height="6.206107507507808" fill="#ff6b6b" opacity="0.23153527563706394" rx="1"/><rect x="1203.6410239021388" y="594.2687079180657" width="45.02394039533659" height="318.64055002076566" fill="#130101" opacity="0.4080695366738526" rx="2"/><rect x="1222.8976633581094" y="604.2687079180657" width="6.510661483395533" height="7.110267940235852" fill="#c0392b" opacity="0.14885686585885866" rx="1"/><rect x="1211.6416782592753" y="607.8238418881837" width="6.510661483395533" height="7.110267940235852" fill="#ff6b6b" opacity="0.07442843292942933" rx="1"/><rect x="1220.215727622438" y="649.7887864924609" width="11.874532954738134" height="9.49682509142366" fill="#c0392b" opacity="0.18302783909789935" rx="1"/><rect x="1208.9597425236038" y="654.5371990381727" width="11.874532954738134" height="9.49682509142366" fill="#ff6b6b" opacity="0.09151391954894968" rx="1"/><rect x="1222.3609942573496" y="695.3088650668559" width="7.5839996849149465" height="9.754580899084587" fill="#c0392b" opacity="0.47776620822906635" rx="1"/><rect x="1211.1050091585155" y="700.1861555163982" width="7.5839996849149465" height="9.754580899084587" fill="#ff6b6b" opacity="0.23888310411453317" rx="1"/><rect x="1221.9190183712444" y="740.828943641251" width="8.467951457125125" height="9.432628845663888" fill="#c0392b" opacity="0.36157484221308833" rx="1"/><rect x="1210.6630332724103" y="745.545258064083" width="8.467951457125125" height="9.432628845663888" fill="#ff6b6b" opacity="0.18078742110654417" rx="1"/><rect x="1220.444212100339" y="786.3490222156461" width="11.417563998936108" height="8.58113471944377" fill="#c0392b" opacity="0.4436740008983002" rx="1"/><rect x="1209.1882270015049" y="790.639589575368" width="11.417563998936108" height="8.58113471944377" fill="#ff6b6b" opacity="0.2218370004491501" rx="1"/><rect x="1222.424547178071" y="831.8691007900412" width="7.456893843472212" height="7.191558220701189" fill="#c0392b" opacity="0.42164260985367996" rx="1"/><rect x="1211.1685620792368" y="835.4648799003918" width="7.456893843472212" height="7.191558220701189" fill="#ff6b6b" opacity="0.21082130492683998" rx="1"/><rect x="1220.3255792761513" y="877.3891793644364" width="11.654829647311669" height="7.091048844412679" fill="#c0392b" opacity="0.3467737150720259" rx="1"/><rect x="1209.0695941773172" y="880.9347037866427" width="11.654829647311669" height="7.091048844412679" fill="#ff6b6b" opacity="0.17338685753601296" rx="1"/><rect x="1327.7120648342445" y="725.1375916821737" width="55.188229420499" height="187.77166625665774" fill="#2d1b1b" opacity="0.41926750150026465" rx="2"/><rect x="1350.2256654871687" y="735.1375916821737" width="10.161028114650637" height="9.187004481252982" fill="#c0392b" opacity="0.4437362785552945" rx="1"/><rect x="1336.428608132044" y="739.7310939228001" width="10.161028114650637" height="9.187004481252982" fill="#ff6b6b" opacity="0.22186813927764726" rx="1"/><rect x="1352.9562170007164" y="772.6919249335052" width="4.699925087555294" height="9.703358968650774" fill="#c0392b" opacity="0.18257717315167588" rx="1"/><rect x="1339.1591596455917" y="777.5436044178306" width="4.699925087555294" height="9.703358968650774" fill="#ff6b6b" opacity="0.09128858657583794" rx="1"/><rect x="1351.5859281803912" y="810.2462581848368" width="7.440502728205291" height="9.638628112999402" fill="#c0392b" opacity="0.5825689934619165" rx="1"/><rect x="1337.7888708252665" y="815.0655722413366" width="7.440502728205291" height="9.638628112999402" fill="#ff6b6b" opacity="0.29128449673095824" rx="1"/><rect x="1351.3147296487155" y="847.8005914361684" width="7.982899791557086" height="7.046129149628367" fill="#c0392b" opacity="0.5278856294527383" rx="1"/><rect x="1337.5176722935907" y="851.3236560109825" width="7.982899791557086" height="7.046129149628367" fill="#ff6b6b" opacity="0.26394281472636916" rx="1"/><rect x="1350.6717316479587" y="885.3549246874999" width="9.268895793070293" height="9.209640015663961" fill="#c0392b" opacity="0.5414983735050769" rx="1"/><rect x="1336.874674292834" y="889.9597446953319" width="9.268895793070293" height="9.209640015663961" fill="#ff6b6b" opacity="0.27074918675253845" rx="1"/><rect x="1455.533021396383" y="662.9353955418187" width="67.36069597708078" height="249.9738623970127" fill="#130101" opacity="0.5549316621513413" rx="2"/><rect x="1485.7850884983282" y="672.9353955418187" width="6.856561773190405" height="6.936347629161633" fill="#c0392b" opacity="0.1078543772706423" rx="1"/><rect x="1468.9449145040578" y="676.4035693563995" width="6.856561773190405" height="6.936347629161633" fill="#ff6b6b" opacity="0.05392718863532115" rx="1"/><rect x="1486.1657237366694" y="756.260016340823" width="6.095291296507998" height="6.569520664533954" fill="#c0392b" opacity="0.4347060815046323" rx="1"/><rect x="1469.325549742399" y="759.5447766730899" width="6.095291296507998" height="6.569520664533954" fill="#ff6b6b" opacity="0.21735304075231615" rx="1"/><rect x="1485.0943549461883" y="839.5846371398272" width="8.238028877470184" height="9.937520278603193" fill="#c0392b" opacity="0.3089900896439771" rx="1"/><rect x="1468.254180951918" y="844.5533972791288" width="8.238028877470184" height="9.937520278603193" fill="#ff6b6b" opacity="0.15449504482198856" rx="1"/><rect x="1560.765293624896" y="569.8861946398127" width="54.057564158937325" height="343.02306329901865" fill="#2d1b1b" opacity="0.600667165545902" rx="2"/><rect x="1585.020705398177" y="579.8861946398127" width="5.546740612375257" height="8.029661277781628" fill="#c0392b" opacity="0.14896888289343774" rx="1"/><rect x="1571.5063143584428" y="583.9010252787035" width="5.546740612375257" height="8.029661277781628" fill="#ff6b6b" opacity="0.07448444144671887" rx="1"/><rect x="1582.121003353298" y="622.7640775521901" width="11.34614470213329" height="9.029388241243872" fill="#c0392b" opacity="0.1677978132310784" rx="1"/><rect x="1568.6066123135638" y="627.278771672812" width="11.34614470213329" height="9.029388241243872" fill="#ff6b6b" opacity="0.0838989066155392" rx="1"/><rect x="1583.3482369897765" y="665.6419604645674" width="8.89167742917586" height="8.848954843089206" fill="#c0392b" opacity="0.16302040840103765" rx="1"/><rect x="1569.8338459500424" y="670.066437886112" width="8.89167742917586" height="8.848954843089206" fill="#ff6b6b" opacity="0.08151020420051883" rx="1"/><rect x="1582.9552342961438" y="708.5198433769447" width="9.677682816441562" height="8.965969105941703" fill="#c0392b" opacity="0.2016397068979311" rx="1"/><rect x="1569.4408432564096" y="713.0028279299155" width="9.677682816441562" height="8.965969105941703" fill="#ff6b6b" opacity="0.10081985344896555" rx="1"/><rect x="1583.7599892846215" y="751.397726289322" width="8.068172839486081" height="9.89044527613801" fill="#c0392b" opacity="0.18971117392408457" rx="1"/><rect x="1570.2455982448873" y="756.342948927391" width="8.068172839486081" height="9.89044527613801" fill="#ff6b6b" opacity="0.09485558696204228" rx="1"/><rect x="1583.2350346190472" y="794.2756092016994" width="9.118082170635017" height="8.29671028775552" fill="#c0392b" opacity="0.2752922900894872" rx="1"/><rect x="1569.720643579313" y="798.4239643455771" width="9.118082170635017" height="8.29671028775552" fill="#ff6b6b" opacity="0.1376461450447436" rx="1"/><rect x="1582.3551352930617" y="837.1534921140767" width="10.877880822605892" height="9.997243396005883" fill="#c0392b" opacity="0.29763886851669263" rx="1"/><rect x="1568.8407442533276" y="842.1521138120796" width="10.877880822605892" height="9.997243396005883" fill="#ff6b6b" opacity="0.14881943425834632" rx="1"/><rect x="1584.3404829025596" y="880.031375026454" width="6.907185603610051" height="9.48695726587599" fill="#c0392b" opacity="0.5673959622083689" rx="1"/><rect x="1570.8260918628255" y="884.7748536593921" width="6.907185603610051" height="9.48695726587599" fill="#ff6b6b" opacity="0.2836979811041844" rx="1"/><rect x="1699.2818091784795" y="669.3658337973444" width="59.17409466793157" height="243.54342414148695" fill="#130101" opacity="0.6189017911718464" rx="2"/><rect x="1725.8462677003924" y="679.3658337973444" width="6.04517762410575" height="9.174807692685818" fill="#c0392b" opacity="0.19654932680925108" rx="1"/><rect x="1711.0527440334097" y="683.9532376436873" width="6.04517762410575" height="9.174807692685818" fill="#ff6b6b" opacity="0.09827466340462554" rx="1"/><rect x="1723.7338137297738" y="714.1577515318426" width="10.270085565343052" height="8.300820267363642" fill="#c0392b" opacity="0.16135806733773977" rx="1"/><rect x="1708.940290062791" y="718.3081616655244" width="10.270085565343052" height="8.300820267363642" fill="#ff6b6b" opacity="0.08067903366886989" rx="1"/><rect x="1726.7471552243799" y="748.9496692663407" width="4.243402576130676" height="9.408575248766825" fill="#c0392b" opacity="0.19356946046314422" rx="1"/><rect x="1711.953631557397" y="753.6539568907241" width="4.243402576130676" height="9.408575248766825" fill="#ff6b6b" opacity="0.09678473023157211" rx="1"/><rect x="1725.254369380012" y="783.7415870008388" width="7.228974264866899" height="9.377105045918633" fill="#c0392b" opacity="0.49271400191185855" rx="1"/><rect x="1710.4608457130291" y="788.4301395237981" width="7.228974264866899" height="9.377105045918633" fill="#ff6b6b" opacity="0.24635700095592927" rx="1"/><rect x="1724.4070526117941" y="818.5335047353369" width="8.923607801302245" height="7.357892039548115" fill="#c0392b" opacity="0.3885601093965956" rx="1"/><rect x="1709.6135289448114" y="822.2124507551109" width="8.923607801302245" height="7.357892039548115" fill="#ff6b6b" opacity="0.1942800546982978" rx="1"/><rect x="1724.6623862869253" y="853.3254224698351" width="8.412940451040152" height="7.12295823663542" fill="#c0392b" opacity="0.29488057626757785" rx="1"/><rect x="1709.8688626199425" y="856.8869015881528" width="8.412940451040152" height="7.12295823663542" fill="#ff6b6b" opacity="0.14744028813378893" rx="1"/><rect x="1724.2783639624897" y="888.1173402043332" width="9.180985099910988" height="6.420440136552891" fill="#c0392b" opacity="0.5275098350894427" rx="1"/><rect x="1709.484840295507" y="891.3275602726097" width="9.180985099910988" height="6.420440136552891" fill="#ff6b6b" opacity="0.26375491754472136" rx="1"/><rect x="1802.505303787185" y="684.574774823751" width="84.35164442620047" height="228.3344831150804" fill="#2d1b1b" opacity="0.4640934370141694" rx="2"/><rect x="1838.9690865809025" y="694.574774823751" width="11.42407883876564" height="6.764417907401086" fill="#c0392b" opacity="0.3366938066521412" rx="1"/><rect x="1817.8811754743524" y="697.9569837774516" width="11.42407883876564" height="6.764417907401086" fill="#ff6b6b" opacity="0.1683469033260706" rx="1"/><rect x="1840.0121130982907" y="732.6305220095977" width="9.338025803989272" height="6.340526091014158" fill="#c0392b" opacity="0.26582732628235295" rx="1"/><rect x="1818.9242019917406" y="735.8007850551048" width="9.338025803989272" height="6.340526091014158" fill="#ff6b6b" opacity="0.13291366314117647" rx="1"/><rect x="1839.4097726960688" y="770.6862691954444" width="10.542706608432976" height="8.530340121716806" fill="#c0392b" opacity="0.2852830137790374" rx="1"/><rect x="1818.3218615895187" y="774.9514392563028" width="10.542706608432976" height="8.530340121716806" fill="#ff6b6b" opacity="0.1426415068895187" rx="1"/><rect x="1842.359624069035" y="808.7420163812913" width="4.6430038625008905" height="6.095441479258109" fill="#c0392b" opacity="0.40768684572719194" rx="1"/><rect x="1821.2717129624848" y="811.7897371209203" width="4.6430038625008905" height="6.095441479258109" fill="#ff6b6b" opacity="0.20384342286359597" rx="1"/><rect x="1841.5343906671121" y="846.797763567138" width="6.293470666346483" height="8.077556778229205" fill="#c0392b" opacity="0.4569968252808314" rx="1"/><rect x="1820.446479560562" y="850.8365419562525" width="6.293470666346483" height="8.077556778229205" fill="#ff6b6b" opacity="0.2284984126404157" rx="1"/><rect x="1839.6790712300406" y="884.8535107529847" width="10.004109540489527" height="8.670735925126527" fill="#c0392b" opacity="0.1283808470769741" rx="1"/><rect x="1818.5911601234905" y="889.188878715548" width="10.004109540489527" height="8.670735925126527" fill="#ff6b6b" opacity="0.06419042353848704" rx="1"/><rect x="0" y="1000" width="1920" height="80" fill="#070000" opacity="0.8"/><line x1="0" y1="1040" x2="1920" y2="1040" stroke="#c0392b" stroke-opacity="0.15" stroke-width="2" stroke-dasharray="30,20"/><rect x="0" y="930" width="1920" height="150" fill="url(#glow75)"/><text x="1900" y="1060" font-family="Arial, sans-serif" font-size="11" fill="#fff" opacity="0.08" text-anchor="end" letter-spacing="2">GTA 6 REWARDS · WALLPAPER 076</text>
</svg>