<?xml version="1.0" encoding="UTF-8"?>
<svg xmlns="http://www.w3.org/2000/svg" width="1920" height="1080" viewBox="0 0 1920 1080">
<defs>
    <linearGradient id="bg52" x1="0%" y1="0%" x2="0%" y2="100%">
      <stop offset="0%" stop-color="#3a0ca3"/>
      <stop offset="50%" stop-color="#070070"/>
      <stop offset="100%" stop-color="#3a0ca3"/>
    </linearGradient>
    <linearGradient id="sun52" x1="0%" y1="0%" x2="100%" y2="100%">
      <stop offset="0%" stop-color="#f72585"/>
      <stop offset="100%" stop-color="#b5179e"/>
    </linearGradient>
    <radialGradient id="glow52" cx="50%" cy="70%" r="50%">
      <stop offset="0%" stop-color="#f72585" stop-opacity="0.3"/>
      <stop offset="100%" stop-color="#3a0ca3" stop-opacity="0"/>
    </radialGradient>
  </defs><rect width="1920" height="1080" fill="url(#bg52)"/><circle cx="305.1736962062245" cy="373.3666553565689" r="848.56308024576" fill="#f72585" opacity="0.10482494173450976"/><circle cx="505.1736962062245" cy="273.3666553565689" r="503.0506646966214" fill="#b5179e" opacity="0.05626205206063158"/><line x1="0" y1="980" x2="1920" y2="980" stroke="#b5179e" stroke-opacity="0.05" stroke-width="2"/><line x1="0" y1="935" x2="1920" y2="935" stroke="#b5179e" stroke-opacity="0.049" stroke-width="0.5"/><line x1="0" y1="890" x2="1920" y2="890" stroke="#b5179e" stroke-opacity="0.048" stroke-width="0.5"/><line x1="0" y1="845" x2="1920" y2="845" stroke="#b5179e" stroke-opacity="0.047" stroke-width="0.5"/><line x1="0" y1="800" x2="1920" y2="800" stroke="#b5179e" stroke-opacity="0.046" stroke-width="0.5"/><line x1="0" y1="755" x2="1920" y2="755" stroke="#b5179e" stroke-opacity="0.045" stroke-width="0.5"/><line x1="0" y1="710" x2="1920" y2="710" stroke="#b5179e" stroke-opacity="0.044" stroke-width="0.5"/><line x1="0" y1="665" x2="1920" y2="665" stroke="#b5179e" stroke-opacity="0.043" stroke-width="0.5"/><line x1="0" y1="620" x2="1920" y2="620" stroke="#b5179e" stroke-opacity="0.041999999999999996" stroke-width="0.5"/><line x1="0" y1="575" x2="1920" y2="575" stroke="#b5179e" stroke-opacity="0.041" stroke-width="0.5"/><line x1="0" y1="530" x2="1920" y2="530" stroke="#b5179e" stroke-opacity="0.04" stroke-width="0.5"/><line x1="0" y1="485" x2="1920" y2="485" stroke="#b5179e" stroke-opacity="0.039" stroke-width="0.5"/><line x1="0" y1="440" x2="1920" y2="440" stroke="#b5179e" stroke-opacity="0.038" stroke-width="0.5"/><line x1="0" y1="395" x2="1920" y2="395" stroke="#b5179e" stroke-opacity="0.037" stroke-width="0.5"/><line x1="0" y1="350" x2="1920" y2="350" stroke="#b5179e" stroke-opacity="0.036" stroke-width="0.5"/><line x1="0" y1="305" x2="1920" y2="305" stroke="#b5179e" stroke-opacity="0.034999999999999996" stroke-width="0.5"/><line x1="0" y1="260" x2="1920" y2="260" stroke="#b5179e" stroke-opacity="0.033999999999999996" stroke-width="0.5"/><line x1="0" y1="215" x2="1920" y2="215" stroke="#b5179e" stroke-opacity="0.033" stroke-width="0.5"/><line x1="0" y1="170" x2="1920" y2="170" stroke="#b5179e" stroke-opacity="0.032" stroke-width="0.5"/><line x1="0" y1="125" x2="1920" y2="125" stroke="#b5179e" stroke-opacity="0.031" stroke-width="0.5"/><line x1="560" y1="1080" x2="860" y2="580" stroke="#f72585" stroke-opacity="0.04" stroke-width="1"/><line x1="640" y1="1080" x2="880" y2="590" stroke="#f72585" stroke-opacity="0.04" stroke-width="1"/><line x1="720" y1="1080" x2="900" y2="600" stroke="#f72585" stroke-opacity="0.04" stroke-width="1"/><line x1="800" y1="1080" x2="920" y2="610" stroke="#f72585" stroke-opacity="0.04" stroke-width="1"/><line x1="880" y1="1080" x2="940" y2="620" stroke="#f72585" stroke-opacity="0.04" stroke-width="1"/><line x1="960" y1="1080" x2="960" y2="630" stroke="#f72585" stroke-opacity="0.04" stroke-width="1"/><line x1="1040" y1="1080" x2="980" y2="620" stroke="#f72585" stroke-opacity="0.04" stroke-width="1"/><line x1="1120" y1="1080" x2="1000" y2="610" stroke="#f72585" stroke-opacity="0.04" stroke-width="1"/><line x1="1200" y1="1080" x2="1020" y2="600" stroke="#f72585" stroke-opacity="0.04" stroke-width="1"/><line x1="1280" y1="1080" x2="1040" y2="590" stroke="#f72585" stroke-opacity="0.04" stroke-width="1"/><line x1="1360" y1="1080" x2="1060" y2="580" stroke="#f72585" stroke-opacity="0.04" stroke-width="1"/><circle cx="1267.7162406425264" cy="345.238008279176" r="72.09488315789375" fill="url(#sun52)" opacity="0.8892366628370333"/><circle cx="1267.7162406425264" cy="345.238008279176" r="67.09488315789375" fill="#3a0ca3" opacity="0.3"/><pattern id="scan52" width="1920" height="4" patternUnits="userSpaceOnUse">
      <line x1="0" y1="0" x2="1920" y2="0" stroke="#000" stroke-opacity="0.05" stroke-width="1"/>
    </pattern>
    <rect width="1920" height="1080" fill="url(#scan52)"/><circle cx="671.2614750934907" cy="3.259681676342078" r="1.6555461486930834" fill="#fff" opacity="0.21121070315391074"/><circle cx="1112.07461919451" cy="73.93181103699183" r="1.1309967721186105" fill="#fff" opacity="0.7793172292363171"/><circle cx="1259.564185137759" cy="78.89584033910553" r="0.5170431901973307" fill="#fff" opacity="0.7476143428933839"/><circle cx="1443.8863066220392" cy="388.45312695681423" r="1.6374940420821062" fill="#fff" opacity="0.37262678993228515"/><circle cx="1195.3238969844122" cy="189.45663395837335" r="1.5700284450012325" fill="#fff" opacity="0.39976829555811555"/><circle cx="498.38571858089085" cy="422.52764049324384" r="0.5106613788545741" fill="#fff" opacity="0.22662617364586943"/><circle cx="599.0139999890267" cy="294.0617370880353" r="1.6830744805473543" fill="#fff" opacity="0.22426605630299684"/><circle cx="720.961980689541" cy="52.435914450426566" r="0.9026299799798592" fill="#fff" opacity="0.4196881614205633"/><circle cx="1441.6887955744028" cy="429.35205992622116" r="0.5203492174670913" fill="#fff" opacity="0.29664280575156277"/><circle cx="1220.9192730348834" cy="51.39075817991764" r="1.3256240807998982" fill="#fff" opacity="0.38790453695410504"/><circle cx="62.90143088970832" cy="304.45597602437624" r="0.9179657621816653" fill="#fff" opacity="0.6197275742468721"/><circle cx="900.9485044192868" cy="399.80107063795464" r="0.7210846411113359" fill="#fff" opacity="0.2752527891367797"/><circle cx="470.89881207582044" cy="361.82893983876073" r="0.9192915627312128" fill="#fff" opacity="0.7129087756650776"/><circle cx="1556.0907245325136" cy="230.87478801023093" r="1.355116209447178" fill="#fff" opacity="0.3620761955999947"/><circle cx="1134.6462686021455" cy="389.39636334157467" r="0.8507690338536094" fill="#fff" opacity="0.41647800412412683"/><circle cx="1161.825901689433" cy="168.1169536840443" r="0.6378424729075847" fill="#fff" opacity="0.46796740653644486"/><circle cx="1705.3811966873195" cy="392.47868629369856" r="1.5168857357969707" fill="#fff" opacity="0.3744318400450125"/><circle cx="1612.57872276301" cy="371.6482008033544" r="1.0878685788688875" fill="#fff" opacity="0.6153015331866456"/><circle cx="184.19415284511496" cy="318.48835767025327" r="1.6342831431269373" fill="#fff" opacity="0.2549190560483651"/><circle cx="1009.1809596980878" cy="26.19208837537842" r="1.4657977055678604" fill="#fff" opacity="0.506170059392734"/><circle cx="1389.7195725398415" cy="331.4712598946577" r="1.4029867584824065" fill="#fff" opacity="0.7390554397690705"/><circle cx="176.46193925674584" cy="66.11931126614085" r="1.7762613553265718" fill="#fff" opacity="0.6535516897806786"/><circle cx="821.1090255205307" cy="269.4318941117804" r="0.820319040170945" fill="#fff" opacity="0.5757056834119618"/><circle cx="45.701016347320056" cy="5.230979373033852" r="0.8887610308334141" fill="#fff" opacity="0.3556481602964104"/><circle cx="373.814676044" cy="337.77453449782325" r="0.5704291474703768" fill="#fff" opacity="0.2688288335848667"/><circle cx="1469.170642986235" cy="146.8460236906181" r="1.472964883775675" fill="#fff" opacity="0.761964907534878"/><circle cx="255.50999572861707" cy="313.0080152361207" r="0.9778389953956564" fill="#fff" opacity="0.5457122487820947"/><circle cx="1291.6474112895428" cy="393.1926663278585" r="1.2229679503298756" fill="#fff" opacity="0.32904580047564713"/><circle cx="199.16684572565526" cy="40.29569604813487" r="1.0910673589890514" fill="#fff" opacity="0.6943135739058055"/><circle cx="735.9670402333064" cy="204.26376296120316" r="1.8564506409122725" fill="#fff" opacity="0.2406154338364991"/><circle cx="1262.3896308202272" cy="237.94998902407244" r="0.8230586212182088" fill="#fff" opacity="0.2509996623385231"/><circle cx="1189.8941242485062" cy="79.71985658996735" r="0.6102965624561293" fill="#fff" opacity="0.7301720212051115"/><circle cx="1744.7072347590486" cy="57.11365341234804" r="1.5577860013716356" fill="#fff" opacity="0.30579799132090946"/><circle cx="856.6360636559865" cy="302.1751630078478" r="1.7108097860381961" fill="#fff" opacity="0.7591805055176795"/><circle cx="1279.152211397689" cy="88.53194005613494" r="1.9708647071316059" fill="#fff" opacity="0.23626343585463788"/><circle cx="816.0292542390594" cy="74.08057667549713" r="1.8395672492542228" fill="#fff" opacity="0.5671903509570263"/><circle cx="902.7459711448164" cy="172.1957925549233" r="0.630651232351235" fill="#fff" opacity="0.698541600745763"/><circle cx="1207.7580082248332" cy="268.439642301863" r="0.6133964451992411" fill="#fff" opacity="0.5033485730419281"/><circle cx="1087.9741178005875" cy="144.92716123557815" r="1.4329924994225132" fill="#fff" opacity="0.2537687733894607"/><circle cx="840.5965820421923" cy="268.33906881798504" r="1.2226597142225737" fill="#fff" opacity="0.20209415298935357"/><circle cx="1875.0629643991272" cy="228.77594011015628" r="0.7276999712287682" fill="#fff" opacity="0.2743874906269804"/><circle cx="948.5052906695066" cy="2.7912713221253993" r="0.87101548604458" fill="#fff" opacity="0.5174672443693195"/><circle cx="1174.4153973214366" cy="416.6118715332383" r="0.5183367909673454" fill="#fff" opacity="0.392533278277268"/><circle cx="1448.6123817061568" cy="376.2885516156183" r="1.725403485872178" fill="#fff" opacity="0.6892744505520152"/><circle cx="1562.8151213291137" cy="38.77717028716047" r="1.0766216427033353" fill="#fff" opacity="0.5389673536501283"/><circle cx="1382.8027513862594" cy="18.977126502193773" r="1.5248966265993418" fill="#fff" opacity="0.32240782992970385"/><circle cx="753.3367473150921" cy="148.77183913550616" r="1.1232920582693284" fill="#fff" opacity="0.2794328969156912"/><circle cx="1773.9638591962782" cy="416.1018021814762" r="0.7791817427564369" fill="#fff" opacity="0.5852533217019525"/><circle cx="27.543882883047658" cy="135.55521277141648" r="1.3243120807046798" fill="#fff" opacity="0.2025694180751614"/><circle cx="693.1303812687123" cy="22.01917890226915" r="0.9029740050674822" fill="#fff" opacity="0.2307841987420768"/><circle cx="738.0061444868348" cy="378.7536329950098" r="1.1083365940973946" fill="#fff" opacity="0.20780201601046186"/><circle cx="462.20180432829113" cy="149.50756658741915" r="1.0703643043689346" fill="#fff" opacity="0.2200379509525462"/><circle cx="1380.8666761454351" cy="419.0797797932941" r="1.2997194772585574" fill="#fff" opacity="0.5244528937443282"/><circle cx="586.8851125116659" cy="78.71135843887724" r="1.8813245364887" fill="#fff" opacity="0.6376624492550413"/><circle cx="634.3620248125777" cy="208.92739618591204" r="1.3749405629641704" fill="#fff" opacity="0.29462147920732884"/><circle cx="911.6588037348489" cy="257.2460063736062" r="1.3864448455596448" fill="#fff" opacity="0.7452329782641569"/><circle cx="693.3882251506178" cy="208.14129634577347" r="1.9348706572630607" fill="#fff" opacity="0.34803326692153547"/><circle cx="1787.3154776979507" cy="401.7757992152534" r="0.7726688894379579" fill="#fff" opacity="0.4794324100668152"/><circle cx="1905.395133640942" cy="244.37096888301215" r="1.7693546765412562" fill="#fff" opacity="0.7973269772709644"/><circle cx="1901.8794205742606" cy="74.88056097060455" r="1.1274328221630847" fill="#fff" opacity="0.6824413648067138"/><circle cx="1279.468256980057" cy="211.33496731597347" r="1.7674431737436547" fill="#fff" opacity="0.7259920387356522"/><circle cx="1550.2295859787216" cy="21.649956000421653" r="1.957952093323216" fill="#fff" opacity="0.5807872429445357"/><circle cx="455.51125119801407" cy="35.6196546227717" r="1.8954932867538867" fill="#fff" opacity="0.6753092078667389"/><circle cx="1682.360261176331" cy="414.9348675531649" r="1.1912710147889496" fill="#fff" opacity="0.3825278758962005"/><circle cx="691.8906580032526" cy="77.69648464342963" r="0.6167196347649954" fill="#fff" opacity="0.7324181800085161"/><circle cx="1307.8224709694791" cy="125.09382332421231" r="1.3481499126293115" fill="#fff" opacity="0.3163390086303323"/><circle cx="863.443809203674" cy="280.64908694304734" r="1.0039009653273738" fill="#fff" opacity="0.34361689941576146"/><circle cx="883.4084471136816" cy="138.61656681695408" r="0.9427115295414606" fill="#fff" opacity="0.4346450725185324"/><circle cx="701.4649953091204" cy="328.27996961965226" r="0.6345390202790823" fill="#fff" opacity="0.6159677316006198"/><circle cx="995.8855602973806" cy="124.97317833382942" r="1.1546681726245835" fill="#fff" opacity="0.7667424483147316"/><circle cx="724.8754291434017" cy="376.34158572748805" r="1.1945892384263197" fill="#fff" opacity="0.5572047043026436"/><circle cx="1641.8133311816057" cy="111.65038869521823" r="0.7400074004521611" fill="#fff" opacity="0.4240342303235164"/><circle cx="1795.290717751554" cy="298.04922913993926" r="1.4050336862925985" fill="#fff" opacity="0.5663229291714549"/><circle cx="38.523525604634436" cy="183.3346642459125" r="1.7678806933732427" fill="#fff" opacity="0.5383080464178482"/><circle cx="575.5305313913922" cy="408.7811604348899" r="1.1249732071591945" fill="#fff" opacity="0.2677170864464057"/><circle cx="715.9566885409776" cy="234.5138223866266" r="1.9912287748863988" fill="#fff" opacity="0.34124816380004586"/><rect x="13.57353865717853" y="726.9193517339694" width="58.69662132782317" height="159.80530319730875" fill="#200089" opacity="0.6234375352792996" rx="2"/><rect x="40.15943420984769" y="736.9193517339694" width="5.524830222484849" height="9.398173279920167" fill="#b5179e" opacity="0.32660621738215123" rx="1"/><rect x="25.485278877891897" y="741.6184383739295" width="5.524830222484849" height="9.398173279920167" fill="#f72585" opacity="0.16330310869107562" rx="1"/><rect x="39.55891382520993" y="768.8804123734311" width="6.7258709917603685" height="7.73950786370307" fill="#b5179e" opacity="0.30973595027107187" rx="1"/><rect x="24.88475849325414" y="772.7501663052826" width="6.7258709917603685" height="7.73950786370307" fill="#f72585" opacity="0.15486797513553593" rx="1"/><rect x="37.48697949724434" y="800.841473012893" width="10.869739647691542" height="6.485938723312211" fill="#b5179e" opacity="0.2851019589661392" rx="1"/><rect x="22.812824165288554" y="804.0844423745491" width="10.869739647691542" height="6.485938723312211" fill="#f72585" opacity="0.1425509794830696" rx="1"/><rect x="39.63283666517419" y="832.8025336523547" width="6.578025311831857" height="6.419798826896539" fill="#b5179e" opacity="0.4056929597644352" rx="1"/><rect x="24.958681333218394" y="836.012433065803" width="6.578025311831857" height="6.419798826896539" fill="#f72585" opacity="0.2028464798822176" rx="1"/><rect x="38.16997553668217" y="864.7635942918164" width="9.503747568815887" height="7.143276055609639" fill="#b5179e" opacity="0.5640040523288781" rx="1"/><rect x="23.495820204726378" y="868.3352323196212" width="9.503747568815887" height="7.143276055609639" fill="#f72585" opacity="0.28200202616443903" rx="1"/><rect x="129.34181313480758" y="783.4408474581877" width="88.52259039378785" height="103.28380747309043" fill="#3a0ca3" opacity="0.5441663889782891" rx="2"/><rect x="170.55036658690085" y="793.4408474581877" width="6.105483489601287" height="8.388355336708099" fill="#b5179e" opacity="0.2669080316012046" rx="1"/><rect x="148.4197189884539" y="797.6350251265418" width="6.105483489601287" height="8.388355336708099" fill="#f72585" opacity="0.1334540158006023" rx="1"/><rect x="168.4572917710657" y="827.8687832825511" width="10.291633121271532" height="8.931199340832233" fill="#b5179e" opacity="0.22504617686500916" rx="1"/><rect x="146.32664417261876" y="832.3343829529673" width="10.291633121271532" height="8.931199340832233" fill="#f72585" opacity="0.11252308843250458" rx="1"/><rect x="169.1260125912088" y="862.2967191069147" width="8.954191480985422" height="8.9043088226822" fill="#b5179e" opacity="0.3641236500963857" rx="1"/><rect x="146.99536499276184" y="866.7488735182558" width="8.954191480985422" height="8.9043088226822" fill="#f72585" opacity="0.18206182504819285" rx="1"/><rect x="258.96645460020903" y="693.5011967768662" width="40.57783146635113" height="193.22345815441187" fill="#3a0ca3" opacity="0.6233472637188033" rx="2"/><rect x="276.6152138602024" y="703.5011967768662" width="5.280312946364356" height="9.22808125504015" fill="#b5179e" opacity="0.2038888846765945" rx="1"/><rect x="266.47075599361466" y="708.1152374043863" width="5.280312946364356" height="9.22808125504015" fill="#f72585" opacity="0.10194444233829725" rx="1"/><rect x="276.83543486563383" y="731.1045479417822" width="4.839870935501501" height="6.3454403738364205" fill="#b5179e" opacity="0.3579265807890162" rx="1"/><rect x="266.6909769990461" y="734.2772681287005" width="4.839870935501501" height="6.3454403738364205" fill="#f72585" opacity="0.1789632903945081" rx="1"/><rect x="273.85197080086266" y="758.7078991066982" width="10.80679906504387" height="9.952191028732852" fill="#b5179e" opacity="0.38304738814082173" rx="1"/><rect x="263.7075129342749" y="763.6839946210646" width="10.80679906504387" height="9.952191028732852" fill="#f72585" opacity="0.19152369407041087" rx="1"/><rect x="274.5989776150321" y="786.3112502716142" width="9.312785436704939" height="9.884302945780638" fill="#b5179e" opacity="0.3612891588968432" rx="1"/><rect x="264.45451974844434" y="791.2534017445046" width="9.312785436704939" height="9.884302945780638" fill="#f72585" opacity="0.1806445794484216" rx="1"/><rect x="276.52397830447273" y="813.9146014365301" width="5.462784057823658" height="8.357294120443354" fill="#b5179e" opacity="0.5399201423954033" rx="1"/><rect x="266.379520437885" y="818.0932484967518" width="5.462784057823658" height="8.357294120443354" fill="#f72585" opacity="0.26996007119770166" rx="1"/><rect x="273.80069719506446" y="841.5179526014462" width="10.909346276640274" height="7.960596104608987" fill="#b5179e" opacity="0.4668358392004939" rx="1"/><rect x="263.6562393284767" y="845.4982506537507" width="10.909346276640274" height="7.960596104608987" fill="#f72585" opacity="0.23341791960024694" rx="1"/><rect x="275.4526521518018" y="869.1213037663621" width="7.605436363165602" height="6.647937749663353" fill="#b5179e" opacity="0.3496250644907414" rx="1"/><rect x="265.30819428521403" y="872.4452726411937" width="7.605436363165602" height="6.647937749663353" fill="#f72585" opacity="0.1748125322453707" rx="1"/><rect x="377.3345806280464" y="799.4811763287245" width="35.47767944761498" height="87.2434786025536" fill="#200089" opacity="0.5698970229760504" rx="2"/><rect x="389.3517237301803" y="809.4811763287245" width="11.443393243347153" height="6.346691170788065" fill="#b5179e" opacity="0.3037747798496333" rx="1"/><rect x="380.4823038682766" y="812.6545219141185" width="11.443393243347153" height="6.346691170788065" fill="#f72585" opacity="0.15188738992481665" rx="1"/><rect x="389.5112699443733" y="820.3866111540436" width="11.124300814961153" height="7.828709941783154" fill="#b5179e" opacity="0.42900851437100407" rx="1"/><rect x="380.64185008246955" y="824.3009661249353" width="11.124300814961153" height="7.828709941783154" fill="#f72585" opacity="0.21450425718550203" rx="1"/><rect x="389.9230235346879" y="831.2920459793629" width="10.30079363433197" height="8.19066700110926" fill="#b5179e" opacity="0.10882651831694565" rx="1"/><rect x="381.05360367278416" y="835.3873794799175" width="10.30079363433197" height="8.19066700110926" fill="#f72585" opacity="0.054413259158472824" rx="1"/><rect x="390.9801223594649" y="842.1974808046821" width="8.186595984778041" height="6.686915805723266" fill="#b5179e" opacity="0.24730420246424717" rx="1"/><rect x="382.11070249756114" y="845.5409387075437" width="8.186595984778041" height="6.686915805723266" fill="#f72585" opacity="0.12365210123212358" rx="1"/><rect x="390.9969215523444" y="853.1029156300012" width="8.15299759901897" height="9.945513581844398" fill="#b5179e" opacity="0.3931436087920199" rx="1"/><rect x="382.1275016904407" y="858.0756724209234" width="8.15299759901897" height="9.945513581844398" fill="#f72585" opacity="0.19657180439600996" rx="1"/><rect x="392.3613246477584" y="864.0083504553205" width="5.424191408190921" height="7.018779528564489" fill="#b5179e" opacity="0.3664843404820385" rx="1"/><rect x="383.4919047858547" y="867.5177402196027" width="5.424191408190921" height="7.018779528564489" fill="#f72585" opacity="0.18324217024101924" rx="1"/><rect x="390.496214913087" y="874.9137852806397" width="9.154410877533818" height="6.992475209988764" fill="#b5179e" opacity="0.567835495240948" rx="1"/><rect x="381.62679505118325" y="878.410022885634" width="9.154410877533818" height="6.992475209988764" fill="#f72585" opacity="0.283917747620474" rx="1"/><rect x="390.4357082460624" y="885.8192201059588" width="9.275424211582965" height="9.322868857375083" fill="#b5179e" opacity="0.4004513374297999" rx="1"/><rect x="381.56628838415867" y="890.4806545346464" width="9.275424211582965" height="9.322868857375083" fill="#f72585" opacity="0.20022566871489994" rx="1"/><rect x="486.5042219419275" y="590.6260660362025" width="86.87296665200799" height="296.09858889507564" fill="#3a0ca3" opacity="0.6553799502214837" rx="2"/><rect x="524.4220707168388" y="600.6260660362025" width="11.037269102185329" height="7.225345061445922" fill="#b5179e" opacity="0.33343306762013425" rx="1"/><rect x="502.70382905383684" y="604.2387385669255" width="11.037269102185329" height="7.225345061445922" fill="#f72585" opacity="0.16671653381006712" rx="1"/><rect x="524.9894062788201" y="674.6507132599713" width="9.90259797822279" height="6.529920139473378" fill="#b5179e" opacity="0.30615687226088645" rx="1"/><rect x="503.27116461581807" y="677.915673329708" width="9.90259797822279" height="6.529920139473378" fill="#f72585" opacity="0.15307843613044322" rx="1"/><rect x="526.348124976118" y="748.6753604837403" width="7.1851605836267485" height="8.062116412926027" fill="#b5179e" opacity="0.45448296120261844" rx="1"/><rect x="504.6298833131161" y="752.7064186902033" width="7.1851605836267485" height="8.062116412926027" fill="#f72585" opacity="0.22724148060130922" rx="1"/><rect x="525.9602748264931" y="822.7000077075093" width="7.960860882876641" height="7.581420254330482" fill="#b5179e" opacity="0.2217566158440329" rx="1"/><rect x="504.24203316349116" y="826.4907178346745" width="7.960860882876641" height="7.581420254330482" fill="#f72585" opacity="0.11087830792201644" rx="1"/><rect x="614.9245272727973" y="583.7583553473834" width="88.09629128270231" height="302.96629958389474" fill="#200089" opacity="0.5376245896652398" rx="2"/><rect x="653.325859883876" y="593.7583553473834" width="11.293626060544891" height="9.46120753592374" fill="#b5179e" opacity="0.5062944378019996" rx="1"/><rect x="631.3017870632003" y="598.4889591153452" width="11.293626060544891" height="9.46120753592374" fill="#f72585" opacity="0.2531472189009998" rx="1"/><rect x="654.0762329308959" y="694.7471218753483" width="9.792879966505076" height="8.267222548431537" fill="#b5179e" opacity="0.16252898801177018" rx="1"/><rect x="632.0521601102203" y="698.8807331495641" width="9.792879966505076" height="8.267222548431537" fill="#f72585" opacity="0.08126449400588509" rx="1"/><rect x="653.097488469467" y="795.7358884033132" width="11.750368889363102" height="7.261717643882548" fill="#b5179e" opacity="0.43306178283716124" rx="1"/><rect x="631.0734156487913" y="799.3667472252545" width="11.750368889363102" height="7.261717643882548" fill="#f72585" opacity="0.21653089141858062" rx="1"/><rect x="729.1711240515976" y="690.2206559409901" width="59.78316489369216" height="196.503998990288" fill="#3a0ca3" opacity="0.462272623545088" rx="2"/><rect x="754.2883666635696" y="700.2206559409901" width="9.548679669748218" height="6.39284667661247" fill="#b5179e" opacity="0.43073987342201636" rx="1"/><rect x="739.3425754401466" y="703.4170792792963" width="9.548679669748218" height="6.39284667661247" fill="#f72585" opacity="0.21536993671100818" rx="1"/><rect x="755.6117612986386" y="724.7836558147761" width="6.901890399610132" height="7.771587641390876" fill="#b5179e" opacity="0.3312538754733405" rx="1"/><rect x="740.6659700752156" y="728.6694496354716" width="6.901890399610132" height="7.771587641390876" fill="#f72585" opacity="0.16562693773667025" rx="1"/><rect x="754.7155351726607" y="749.3466556885621" width="8.694342651566105" height="6.242923348267312" fill="#b5179e" opacity="0.30453219085571637" rx="1"/><rect x="739.7697439492376" y="752.4681173626958" width="8.694342651566105" height="6.242923348267312" fill="#f72585" opacity="0.15226609542785818" rx="1"/><rect x="754.3542133135148" y="773.9096555623481" width="9.416986369857794" height="6.5479509319523235" fill="#b5179e" opacity="0.5772955489990524" rx="1"/><rect x="739.4084220900918" y="777.1836310283243" width="9.416986369857794" height="6.5479509319523235" fill="#f72585" opacity="0.2886477744995262" rx="1"/><rect x="756.6684567415315" y="798.4726554361341" width="4.788499513824586" height="6.536161590492391" fill="#b5179e" opacity="0.2190256855029207" rx="1"/><rect x="741.7226655181084" y="801.7407362313803" width="4.788499513824586" height="6.536161590492391" fill="#f72585" opacity="0.10951284275146035" rx="1"/><rect x="755.6423971333173" y="823.0356553099201" width="6.840618730252753" height="7.349327092373121" fill="#b5179e" opacity="0.17641269815536512" rx="1"/><rect x="740.6966059098943" y="826.7103188561067" width="6.840618730252753" height="7.349327092373121" fill="#f72585" opacity="0.08820634907768256" rx="1"/><rect x="755.6151575042435" y="847.5986551837061" width="6.895097988400398" height="9.926135444065121" fill="#b5179e" opacity="0.5409432154942637" rx="1"/><rect x="740.6693662808204" y="852.5617229057386" width="6.895097988400398" height="9.926135444065121" fill="#f72585" opacity="0.27047160774713186" rx="1"/><rect x="755.3386815465843" y="872.1616550574921" width="7.448049903718767" height="6.166913353876889" fill="#b5179e" opacity="0.45723947578976853" rx="1"/><rect x="740.3928903231613" y="875.2451117344306" width="7.448049903718767" height="6.166913353876889" fill="#f72585" opacity="0.22861973789488427" rx="1"/><rect x="862.2714808891228" y="722.1824057684705" width="44.53848879657185" height="164.54224916280765" fill="#3a0ca3" opacity="0.4530667936785768" rx="2"/><rect x="881.4187351019165" y="732.1824057684705" width="6.243980370984408" height="7.723666771716361" fill="#b5179e" opacity="0.4698595346347102" rx="1"/><rect x="870.2841129027736" y="736.0442391543287" width="6.243980370984408" height="7.723666771716361" fill="#f72585" opacity="0.2349297673173551" rx="1"/><rect x="882.3869021594028" y="752.7501869138215" width="4.307646256011829" height="7.259656230281027" fill="#b5179e" opacity="0.10310578767748219" rx="1"/><rect x="871.2522799602599" y="756.380015028962" width="4.307646256011829" height="7.259656230281027" fill="#f72585" opacity="0.05155289383874109" rx="1"/><rect x="879.958801278602" y="773.3179680591725" width="9.163848017613368" height="6.491710829663023" fill="#b5179e" opacity="0.1734623249325581" rx="1"/><rect x="868.8241790794591" y="776.563823474004" width="9.163848017613368" height="6.491710829663023" fill="#f72585" opacity="0.08673116246627904" rx="1"/><rect x="879.29762426631" y="793.8857492045233" width="10.486202042197391" height="9.381793225040145" fill="#b5179e" opacity="0.4720133099406989" rx="1"/><rect x="868.1630020671671" y="798.5766458170434" width="10.486202042197391" height="9.381793225040145" fill="#f72585" opacity="0.23600665497034945" rx="1"/><rect x="878.6014309575784" y="814.4535303498743" width="11.878588659660561" height="8.97764024487176" fill="#b5179e" opacity="0.332110129723351" rx="1"/><rect x="867.4668087584355" y="818.9423504723102" width="11.878588659660561" height="8.97764024487176" fill="#f72585" opacity="0.1660550648616755" rx="1"/><rect x="879.3857498789173" y="835.0213114952253" width="10.30995081698288" height="7.5815624318974" fill="#b5179e" opacity="0.48756969778043446" rx="1"/><rect x="868.2511276797744" y="838.812092711174" width="10.30995081698288" height="7.5815624318974" fill="#f72585" opacity="0.24378484889021723" rx="1"/><rect x="879.8890764468556" y="855.5890926405763" width="9.303297681106091" height="6.6905387716112985" fill="#b5179e" opacity="0.2708702030989505" rx="1"/><rect x="868.7544542477127" y="858.9343620263819" width="9.303297681106091" height="6.6905387716112985" fill="#f72585" opacity="0.13543510154947525" rx="1"/><rect x="882.4723007328511" y="876.1568737859272" width="4.136849109115277" height="8.68407310980467" fill="#b5179e" opacity="0.19124122748413153" rx="1"/><rect x="871.3376785337082" y="880.4989103408295" width="4.136849109115277" height="8.68407310980467" fill="#f72585" opacity="0.09562061374206576" rx="1"/><rect x="983.3662377841226" y="622.5131545501093" width="60.12875869640353" height="264.2115003811688" fill="#200089" opacity="0.6998068670508933" rx="2"/><rect x="1007.7435104941818" y="632.5131545501093" width="11.374213276285262" height="8.656208321139264" fill="#b5179e" opacity="0.4741368493936343" rx="1"/><rect x="992.7113208200809" y="636.841258710679" width="11.374213276285262" height="8.656208321139264" fill="#f72585" opacity="0.23706842469681716" rx="1"/><rect x="1008.4952536973858" y="676.5484046136374" width="9.870726869877132" height="8.43190607485173" fill="#b5179e" opacity="0.43069405828851604" rx="1"/><rect x="993.4630640232849" y="680.7643576510633" width="9.870726869877132" height="8.43190607485173" fill="#f72585" opacity="0.21534702914425802" rx="1"/><rect x="1007.615986546645" y="720.5836546771656" width="11.62926117135893" height="7.285883173645912" fill="#b5179e" opacity="0.2800434025190872" rx="1"/><rect x="992.5837968725441" y="724.2265962639885" width="11.62926117135893" height="7.285883173645912" fill="#f72585" opacity="0.1400217012595436" rx="1"/><rect x="1009.2277727868008" y="764.6189047406938" width="8.405688691047413" height="7.681922723930777" fill="#b5179e" opacity="0.5088847910540376" rx="1"/><rect x="994.1955831126999" y="768.4598661026591" width="8.405688691047413" height="7.681922723930777" fill="#f72585" opacity="0.2544423955270188" rx="1"/><rect x="1010.2841499492722" y="808.6541548042219" width="6.292934366104411" height="6.566174200867809" fill="#b5179e" opacity="0.14571777536666902" rx="1"/><rect x="995.2519602751713" y="811.9372419046558" width="6.292934366104411" height="6.566174200867809" fill="#f72585" opacity="0.07285888768333451" rx="1"/><rect x="1009.0825110902271" y="852.68940486775" width="8.696212084194695" height="8.414892872426401" fill="#b5179e" opacity="0.5589582740932141" rx="1"/><rect x="994.0503214161262" y="856.8968513039632" width="8.696212084194695" height="8.414892872426401" fill="#f72585" opacity="0.27947913704660704" rx="1"/><rect x="1080.7749989327917" y="577.529254806584" width="62.76082025206667" height="309.19540012469406" fill="#3a0ca3" opacity="0.4874237530835494" rx="2"/><rect x="1109.3938106411124" y="587.529254806584" width="5.523196835425495" height="7.6852849269484365" fill="#b5179e" opacity="0.4651579654228776" rx="1"/><rect x="1093.7036055780957" y="591.3718972700583" width="5.523196835425495" height="7.6852849269484365" fill="#f72585" opacity="0.2325789827114388" rx="1"/><rect x="1109.2018927354839" y="649.3683348315228" width="5.907032646682819" height="9.102843856230109" fill="#b5179e" opacity="0.2973410360974588" rx="1"/><rect x="1093.5116876724671" y="653.9197567596378" width="5.907032646682819" height="9.102843856230109" fill="#f72585" opacity="0.1486705180487294" rx="1"/><rect x="1106.9624344161625" y="711.2074148564617" width="10.385949285325117" height="8.611279648405333" fill="#b5179e" opacity="0.24557939864359318" rx="1"/><rect x="1091.2722293531458" y="715.5130546806644" width="10.385949285325117" height="8.611279648405333" fill="#f72585" opacity="0.12278969932179659" rx="1"/><rect x="1107.585159617147" y="773.0464948814005" width="9.140498883356457" height="6.947090722840999" fill="#b5179e" opacity="0.18645951028132335" rx="1"/><rect x="1091.8949545541302" y="776.520040242821" width="9.140498883356457" height="6.947090722840999" fill="#f72585" opacity="0.09322975514066167" rx="1"/><rect x="1106.4326556151345" y="834.8855749063393" width="11.445506887381317" height="7.921164972223613" fill="#b5179e" opacity="0.2173122712916956" rx="1"/><rect x="1090.7424505521178" y="838.8461573924511" width="11.445506887381317" height="7.921164972223613" fill="#f72585" opacity="0.1086561356458478" rx="1"/><rect x="1228.4622211611043" y="532.0676873745554" width="55.552328272152764" height="354.6569675567227" fill="#200089" opacity="0.542056862740325" rx="2"/><rect x="1252.3911156154682" y="542.0676873745554" width="7.6945393634248855" height="6.251905663928927" fill="#b5179e" opacity="0.48831263160992244" rx="1"/><rect x="1238.5030335474298" y="545.1936402065198" width="7.6945393634248855" height="6.251905663928927" fill="#f72585" opacity="0.24415631580496122" rx="1"/><rect x="1253.3368451712506" y="630.731929263736" width="5.8030802518602185" height="9.02013005665972" fill="#b5179e" opacity="0.44093952838818995" rx="1"/><rect x="1239.4487631032123" y="635.2419942920659" width="5.8030802518602185" height="9.02013005665972" fill="#f72585" opacity="0.22046976419409497" rx="1"/><rect x="1253.4650007380324" y="719.3961711529167" width="5.546769118296627" height="9.558273558402032" fill="#b5179e" opacity="0.13666921170350846" rx="1"/><rect x="1239.576918669994" y="724.1753079321178" width="5.546769118296627" height="9.558273558402032" fill="#f72585" opacity="0.06833460585175423" rx="1"/><rect x="1252.8240237622113" y="808.0604130420974" width="6.828723069939" height="7.11984988700595" fill="#b5179e" opacity="0.28620984970736546" rx="1"/><rect x="1238.935941694173" y="811.6203379856004" width="6.828723069939" height="7.11984988700595" fill="#f72585" opacity="0.14310492485368273" rx="1"/><rect x="1328.8947330855053" y="572.1267291512636" width="37.831260582392865" height="314.5979257800146" fill="#3a0ca3" opacity="0.5714631129921095" rx="2"/><rect x="1345.1650068099063" y="582.1267291512636" width="5.290713133590928" height="7.357936615440514" fill="#b5179e" opacity="0.5288950039606762" rx="1"/><rect x="1335.707191664308" y="585.8056974589839" width="5.290713133590928" height="7.357936615440514" fill="#f72585" opacity="0.2644475019803381" rx="1"/><rect x="1345.3726330642526" y="686.9927044112685" width="4.8754606248986585" height="9.838354304395233" fill="#b5179e" opacity="0.3095706412125311" rx="1"/><rect x="1335.9148179186543" y="691.9118815634661" width="4.8754606248986585" height="9.838354304395233" fill="#f72585" opacity="0.15478532060626554" rx="1"/><rect x="1344.2923962872692" y="791.8586796712733" width="7.035934178865499" height="8.851393589482502" fill="#b5179e" opacity="0.13913024068789795" rx="1"/><rect x="1334.834581141671" y="796.2843764660146" width="7.035934178865499" height="8.851393589482502" fill="#f72585" opacity="0.06956512034394897" rx="1"/><rect x="1467.1762985985672" y="550.3496525227906" width="43.21936397189725" height="336.3750024084875" fill="#200089" opacity="0.50610431530655" rx="2"/><rect x="1486.395035044615" y="560.3496525227906" width="4.781891079801575" height="9.935440656714011" fill="#b5179e" opacity="0.5500428308849322" rx="1"/><rect x="1475.5901940516408" y="565.3173728511476" width="4.781891079801575" height="9.935440656714011" fill="#f72585" opacity="0.2750214154424661" rx="1"/><rect x="1485.1198017122504" y="616.4121529242052" width="7.332357744530858" height="7.149009858525593" fill="#b5179e" opacity="0.2868184835619336" rx="1"/><rect x="1474.314960719276" y="619.986657853468" width="7.332357744530858" height="7.149009858525593" fill="#f72585" opacity="0.1434092417809668" rx="1"/><rect x="1484.4766040405902" y="672.4746533256198" width="8.618753087850928" height="7.477175243542804" fill="#b5179e" opacity="0.10743598828731012" rx="1"/><rect x="1473.671763047616" y="676.2132409473912" width="8.618753087850928" height="7.477175243542804" fill="#f72585" opacity="0.05371799414365506" rx="1"/><rect x="1483.448740264971" y="728.5371537270344" width="10.674480639089477" height="8.641174668129807" fill="#b5179e" opacity="0.20056388217503296" rx="1"/><rect x="1472.6438992719968" y="732.8577410610993" width="10.674480639089477" height="8.641174668129807" fill="#f72585" opacity="0.10028194108751648" rx="1"/><rect x="1485.78683501966" y="784.599654128449" width="5.9982911297116175" height="6.351669865742249" fill="#b5179e" opacity="0.34534798128189237" rx="1"/><rect x="1474.9819940266857" y="787.7754890613201" width="5.9982911297116175" height="6.351669865742249" fill="#f72585" opacity="0.17267399064094618" rx="1"/><rect x="1485.7118876587394" y="840.6621545298635" width="6.148185851552567" height="9.931191336347533" fill="#b5179e" opacity="0.27529579197878384" rx="1"/><rect x="1474.9070466657652" y="845.6277501980373" width="6.148185851552567" height="9.931191336347533" fill="#f72585" opacity="0.13764789598939192" rx="1"/><rect x="1563.8366019432053" y="791.9174838093849" width="85.74272639484674" height="94.80717112189326" fill="#200089" opacity="0.4853820838000118" rx="2"/><rect x="1603.693476560687" y="801.9174838093849" width="6.028977159883123" height="9.66942020963631" fill="#b5179e" opacity="0.533584358527694" rx="1"/><rect x="1582.2577949619754" y="806.752193914203" width="6.028977159883123" height="9.66942020963631" fill="#f72585" opacity="0.266792179263847" rx="1"/><rect x="1601.9898463606346" y="817.7186789963671" width="9.436237559988218" height="7.388343954782082" fill="#b5179e" opacity="0.5944395823391246" rx="1"/><rect x="1580.554164761923" y="821.4128509737582" width="9.436237559988218" height="7.388343954782082" fill="#f72585" opacity="0.2972197911695623" rx="1"/><rect x="1602.640336892484" y="833.5198741833493" width="8.135256496289571" height="8.19166296957798" fill="#b5179e" opacity="0.40740372028839866" rx="1"/><rect x="1581.2046552937722" y="837.6157056681383" width="8.135256496289571" height="8.19166296957798" fill="#f72585" opacity="0.20370186014419933" rx="1"/><rect x="1604.3669230317155" y="849.3210693703315" width="4.6820842178263895" height="8.92082296379861" fill="#b5179e" opacity="0.43846624925231237" rx="1"/><rect x="1582.9312414330038" y="853.7814808522309" width="4.6820842178263895" height="8.92082296379861" fill="#f72585" opacity="0.21923312462615618" rx="1"/><rect x="1602.8985354434462" y="865.1222645573137" width="7.6188593943647245" height="7.46963038702254" fill="#b5179e" opacity="0.5343243768518614" rx="1"/><rect x="1581.4628538447346" y="868.8570797508249" width="7.6188593943647245" height="7.46963038702254" fill="#f72585" opacity="0.2671621884259307" rx="1"/><rect x="1604.0402865710296" y="880.9234597442959" width="5.33535713919796" height="6.528641720425487" fill="#b5179e" opacity="0.5767696245053713" rx="1"/><rect x="1582.604604972318" y="884.1877806045086" width="5.33535713919796" height="6.528641720425487" fill="#f72585" opacity="0.28838481225268564" rx="1"/><rect x="1686.066619268634" y="538.4724759586325" width="65.01861249446371" height="348.2521789726457" fill="#200089" opacity="0.5103172135796206" rx="2"/><rect x="1712.6892060022078" y="548.4724759586325" width="11.773439027316272" height="7.865379822874763" fill="#b5179e" opacity="0.16978581463214612" rx="1"/><rect x="1696.4345528785918" y="552.4051658700698" width="11.773439027316272" height="7.865379822874763" fill="#f72585" opacity="0.08489290731607306" rx="1"/><rect x="1716.2105452034648" y="606.5145057874067" width="4.730760624802382" height="6.844813303287331" fill="#b5179e" opacity="0.502706420608495" rx="1"/><rect x="1699.9558920798488" y="609.9369124390504" width="4.730760624802382" height="6.844813303287331" fill="#f72585" opacity="0.2513532103042475" rx="1"/><rect x="1715.3876844184445" y="664.556535616181" width="6.3764821948428825" height="6.414182578309948" fill="#b5179e" opacity="0.40262435094980165" rx="1"/><rect x="1699.1330312948285" y="667.763626905336" width="6.3764821948428825" height="6.414182578309948" fill="#f72585" opacity="0.20131217547490082" rx="1"/><rect x="1712.7429769029243" y="722.5985654449553" width="11.665897225883299" height="8.991278528000992" fill="#b5179e" opacity="0.15184727908387952" rx="1"/><rect x="1696.4883237793083" y="727.0942047089558" width="11.665897225883299" height="8.991278528000992" fill="#f72585" opacity="0.07592363954193976" rx="1"/><rect x="1715.3006423605375" y="780.6405952737296" width="6.550566310656855" height="8.888114285396439" fill="#b5179e" opacity="0.24270111025373944" rx="1"/><rect x="1699.0459892369215" y="785.0846524164277" width="6.550566310656855" height="8.888114285396439" fill="#f72585" opacity="0.12135055512686972" rx="1"/><rect x="1714.2489959274533" y="838.6826251025038" width="8.653859176825232" height="7.712435721818459" fill="#b5179e" opacity="0.25384472165113425" rx="1"/><rect x="1697.9943428038373" y="842.5388429634131" width="8.653859176825232" height="7.712435721818459" fill="#f72585" opacity="0.12692236082556713" rx="1"/><rect x="1816.6433454623082" y="750.5335197668833" width="49.54204534635461" height="136.19113516439478" fill="#3a0ca3" opacity="0.46528971236322303" rx="2"/><rect x="1838.2909933089493" y="760.5335197668833" width="6.246749653072737" height="6.67924983629008" fill="#b5179e" opacity="0.5530997486908686" rx="1"/><rect x="1825.9054819723606" y="763.8731446850284" width="6.246749653072737" height="6.67924983629008" fill="#f72585" opacity="0.2765498743454343" rx="1"/><rect x="1837.1619565021626" y="794.581303557982" width="8.504823266646085" height="7.342283360972601" fill="#b5179e" opacity="0.22667815960633525" rx="1"/><rect x="1824.776445165574" y="798.2524452384682" width="8.504823266646085" height="7.342283360972601" fill="#f72585" opacity="0.11333907980316762" rx="1"/><rect x="1836.8031978308697" y="828.6290873490807" width="9.222340609231576" height="6.2688599844157835" fill="#b5179e" opacity="0.26218204893222596" rx="1"/><rect x="1824.417686494281" y="831.7635173412885" width="9.222340609231576" height="6.2688599844157835" fill="#f72585" opacity="0.13109102446611298" rx="1"/><rect x="1838.2743427812297" y="862.6768711401794" width="6.280050708511856" height="6.225659689918547" fill="#b5179e" opacity="0.11921890140958571" rx="1"/><rect x="1825.888831444641" y="865.7897009851387" width="6.280050708511856" height="6.225659689918547" fill="#f72585" opacity="0.05960945070479286" rx="1"/><rect x="0" y="1000" width="1920" height="80" fill="#14007d" opacity="0.8"/><line x1="0" y1="1040" x2="1920" y2="1040" stroke="#b5179e" stroke-opacity="0.15" stroke-width="2" stroke-dasharray="30,20"/><rect x="0" y="930" width="1920" height="150" fill="url(#glow52)"/><text x="1900" y="1060" font-family="Arial, sans-serif" font-size="11" fill="#fff" opacity="0.08" text-anchor="end" letter-spacing="2">GTA 6 REWARDS · WALLPAPER 053</text>
</svg>