<?xml version="1.0" encoding="UTF-8"?>
<svg xmlns="http://www.w3.org/2000/svg" width="1920" height="1080" viewBox="0 0 1920 1080">
<defs>
    <linearGradient id="bg60" x1="0%" y1="0%" x2="0%" y2="100%">
      <stop offset="0%" stop-color="#1a0533"/>
      <stop offset="50%" stop-color="#000000"/>
      <stop offset="100%" stop-color="#1a0533"/>
    </linearGradient>
    <linearGradient id="sun60" x1="0%" y1="0%" x2="100%" y2="100%">
      <stop offset="0%" stop-color="#ff0066"/>
      <stop offset="100%" stop-color="#00ccff"/>
    </linearGradient>
    <radialGradient id="glow60" cx="50%" cy="70%" r="50%">
      <stop offset="0%" stop-color="#ff0066" stop-opacity="0.3"/>
      <stop offset="100%" stop-color="#1a0533" stop-opacity="0"/>
    </radialGradient>
  </defs><rect width="1920" height="1080" fill="url(#bg60)"/><circle cx="533.2018781065013" cy="298.165049892423" r="786.8650538350607" fill="#ff0066" opacity="0.11174282842821974"/><circle cx="733.2018781065013" cy="198.16504989242299" r="552.8384864220485" fill="#00ccff" opacity="0.11835075856846543"/><line x1="0" y1="980" x2="1920" y2="980" stroke="#00ccff" stroke-opacity="0.05" stroke-width="2"/><line x1="0" y1="935" x2="1920" y2="935" stroke="#00ccff" stroke-opacity="0.049" stroke-width="0.5"/><line x1="0" y1="890" x2="1920" y2="890" stroke="#00ccff" stroke-opacity="0.048" stroke-width="0.5"/><line x1="0" y1="845" x2="1920" y2="845" stroke="#00ccff" stroke-opacity="0.047" stroke-width="0.5"/><line x1="0" y1="800" x2="1920" y2="800" stroke="#00ccff" stroke-opacity="0.046" stroke-width="0.5"/><line x1="0" y1="755" x2="1920" y2="755" stroke="#00ccff" stroke-opacity="0.045" stroke-width="0.5"/><line x1="0" y1="710" x2="1920" y2="710" stroke="#00ccff" stroke-opacity="0.044" stroke-width="0.5"/><line x1="0" y1="665" x2="1920" y2="665" stroke="#00ccff" stroke-opacity="0.043" stroke-width="0.5"/><line x1="0" y1="620" x2="1920" y2="620" stroke="#00ccff" stroke-opacity="0.041999999999999996" stroke-width="0.5"/><line x1="0" y1="575" x2="1920" y2="575" stroke="#00ccff" stroke-opacity="0.041" stroke-width="0.5"/><line x1="0" y1="530" x2="1920" y2="530" stroke="#00ccff" stroke-opacity="0.04" stroke-width="0.5"/><line x1="0" y1="485" x2="1920" y2="485" stroke="#00ccff" stroke-opacity="0.039" stroke-width="0.5"/><line x1="0" y1="440" x2="1920" y2="440" stroke="#00ccff" stroke-opacity="0.038" stroke-width="0.5"/><line x1="0" y1="395" x2="1920" y2="395" stroke="#00ccff" stroke-opacity="0.037" stroke-width="0.5"/><line x1="0" y1="350" x2="1920" y2="350" stroke="#00ccff" stroke-opacity="0.036" stroke-width="0.5"/><line x1="0" y1="305" x2="1920" y2="305" stroke="#00ccff" stroke-opacity="0.034999999999999996" stroke-width="0.5"/><line x1="0" y1="260" x2="1920" y2="260" stroke="#00ccff" stroke-opacity="0.033999999999999996" stroke-width="0.5"/><line x1="0" y1="215" x2="1920" y2="215" stroke="#00ccff" stroke-opacity="0.033" stroke-width="0.5"/><line x1="0" y1="170" x2="1920" y2="170" stroke="#00ccff" stroke-opacity="0.032" stroke-width="0.5"/><line x1="0" y1="125" x2="1920" y2="125" stroke="#00ccff" stroke-opacity="0.031" stroke-width="0.5"/><line x1="560" y1="1080" x2="860" y2="580" stroke="#ff0066" stroke-opacity="0.04" stroke-width="1"/><line x1="640" y1="1080" x2="880" y2="590" stroke="#ff0066" stroke-opacity="0.04" stroke-width="1"/><line x1="720" y1="1080" x2="900" y2="600" stroke="#ff0066" stroke-opacity="0.04" stroke-width="1"/><line x1="800" y1="1080" x2="920" y2="610" stroke="#ff0066" stroke-opacity="0.04" stroke-width="1"/><line x1="880" y1="1080" x2="940" y2="620" stroke="#ff0066" stroke-opacity="0.04" stroke-width="1"/><line x1="960" y1="1080" x2="960" y2="630" stroke="#ff0066" stroke-opacity="0.04" stroke-width="1"/><line x1="1040" y1="1080" x2="980" y2="620" stroke="#ff0066" stroke-opacity="0.04" stroke-width="1"/><line x1="1120" y1="1080" x2="1000" y2="610" stroke="#ff0066" stroke-opacity="0.04" stroke-width="1"/><line x1="1200" y1="1080" x2="1020" y2="600" stroke="#ff0066" stroke-opacity="0.04" stroke-width="1"/><line x1="1280" y1="1080" x2="1040" y2="590" stroke="#ff0066" stroke-opacity="0.04" stroke-width="1"/><line x1="1360" y1="1080" x2="1060" y2="580" stroke="#ff0066" stroke-opacity="0.04" stroke-width="1"/><circle cx="1301.4281579762296" cy="383.4240125104375" r="96.33148513648926" fill="url(#sun60)" opacity="0.6254750053690455"/><circle cx="1301.4281579762296" cy="383.4240125104375" r="91.33148513648926" fill="#1a0533" opacity="0.3"/><pattern id="scan60" width="1920" height="4" patternUnits="userSpaceOnUse">
      <line x1="0" y1="0" x2="1920" y2="0" stroke="#000" stroke-opacity="0.05" stroke-width="1"/>
    </pattern>
    <rect width="1920" height="1080" fill="url(#scan60)"/><circle cx="728.5551843253326" cy="357.9797561294352" r="1.6618903696448286" fill="#fff" opacity="0.4187891200228569"/><circle cx="1257.0946489221171" cy="186.18559587611483" r="1.4002561156871394" fill="#fff" opacity="0.6683121554712561"/><circle cx="1469.7065711463117" cy="339.7711879210014" r="1.349481544538746" fill="#fff" opacity="0.38602963722917005"/><circle cx="1322.185153523969" cy="80.86278108900011" r="1.1639587362678625" fill="#fff" opacity="0.3252729556814937"/><circle cx="1751.4850942398155" cy="417.1345097164471" r="0.9998321555321645" fill="#fff" opacity="0.2978815871984422"/><circle cx="1691.0724166992754" cy="263.95742028391857" r="1.8243865682334608" fill="#fff" opacity="0.7945283117691353"/><circle cx="429.2502188191866" cy="281.2680380216958" r="1.40877300242632" fill="#fff" opacity="0.2939286291352307"/><circle cx="312.5691730511769" cy="207.4056572055923" r="1.1559667728505951" fill="#fff" opacity="0.5572841310774173"/><circle cx="844.7918215870839" cy="172.0634001931323" r="0.7208383343463853" fill="#fff" opacity="0.2919054740788195"/><circle cx="576.168061181942" cy="2.064763494316666" r="1.5832307628782538" fill="#fff" opacity="0.3431205203158596"/><circle cx="384.359950661743" cy="165.6299243247206" r="0.6057916897362544" fill="#fff" opacity="0.7910086082739309"/><circle cx="1915.4184669245544" cy="161.22157406462858" r="1.7684174037464935" fill="#fff" opacity="0.2831568710233916"/><circle cx="748.7467769041533" cy="37.6089885322398" r="0.6952142207173664" fill="#fff" opacity="0.7786950191898958"/><circle cx="1360.7057251224076" cy="92.40365844508717" r="1.0916749886450532" fill="#fff" opacity="0.3057877536643734"/><circle cx="1557.5792231311973" cy="168.75901316682786" r="0.5280266112014713" fill="#fff" opacity="0.5260089444755598"/><circle cx="103.34790723941938" cy="305.1228996853165" r="0.995314582831998" fill="#fff" opacity="0.3571754268736521"/><circle cx="641.2037695947112" cy="139.2577368457005" r="1.568367755638521" fill="#fff" opacity="0.6317858736104764"/><circle cx="826.8503533738782" cy="5.541092356094413" r="1.7556601289556502" fill="#fff" opacity="0.5387890526882347"/><circle cx="1501.6774650434213" cy="195.30506532343688" r="1.3065262786826413" fill="#fff" opacity="0.693871928074833"/><circle cx="714.224479066726" cy="93.32151506406291" r="0.7160043413089598" fill="#fff" opacity="0.2527146163519273"/><circle cx="1269.075318870385" cy="219.29940671736827" r="1.373625288338779" fill="#fff" opacity="0.4651915578323397"/><circle cx="845.8665197076897" cy="243.74842609179868" r="0.6106978492137738" fill="#fff" opacity="0.6363046952142157"/><circle cx="1157.5292858196258" cy="229.2514156040855" r="1.0260876045855898" fill="#fff" opacity="0.7765982207322024"/><circle cx="1639.458460295447" cy="176.39326697224595" r="1.3168874942504072" fill="#fff" opacity="0.631399234717572"/><circle cx="1139.6863530249534" cy="157.48423374385672" r="1.9652539641748308" fill="#fff" opacity="0.6649086296243846"/><circle cx="900.9894112360173" cy="329.5919965006392" r="1.2235112380523958" fill="#fff" opacity="0.569167184822533"/><circle cx="1818.8683962586495" cy="252.64846804287484" r="1.1253237753699823" fill="#fff" opacity="0.31702807622892504"/><circle cx="194.89913691647797" cy="33.58340213857205" r="1.0507899418125837" fill="#fff" opacity="0.7948875905933994"/><circle cx="146.87812018834012" cy="20.41360151125435" r="0.9692244130347912" fill="#fff" opacity="0.4231763338724096"/><circle cx="278.55975738693024" cy="228.41504627196468" r="1.558388757300188" fill="#fff" opacity="0.45767581832075394"/><circle cx="83.58310328879932" cy="372.6784882146582" r="1.5859959908029986" fill="#fff" opacity="0.7586086329907664"/><circle cx="358.9375511647522" cy="60.89906659650129" r="0.6095480826007081" fill="#fff" opacity="0.632821768716169"/><circle cx="208.05671905354984" cy="234.36515250298314" r="1.884059062899104" fill="#fff" opacity="0.6901464737230321"/><circle cx="1837.9445037054702" cy="270.14765999423054" r="0.624325890239404" fill="#fff" opacity="0.20009637470359365"/><circle cx="542.3416334163261" cy="302.59714452517153" r="1.3721850157883448" fill="#fff" opacity="0.655011949468174"/><circle cx="1282.902483642777" cy="414.75667670712727" r="1.743393772454791" fill="#fff" opacity="0.7803134832485377"/><circle cx="1379.8145662480533" cy="94.2830538037892" r="1.0339236237420524" fill="#fff" opacity="0.4884807421566175"/><circle cx="492.2697062446433" cy="83.3622270979365" r="1.6288972775519122" fill="#fff" opacity="0.6751933160413042"/><circle cx="1115.5900640402897" cy="63.56364136179062" r="1.2170968204078023" fill="#fff" opacity="0.7815454849930352"/><circle cx="460.5830366491766" cy="142.20817517820004" r="1.278599905264238" fill="#fff" opacity="0.7081728453068465"/><circle cx="351.02013283200097" cy="347.47785976051307" r="1.734260967055862" fill="#fff" opacity="0.640993423862614"/><rect x="11.196622010599034" y="867.2430853515964" width="35.78652598098538" height="92.57634358773389" fill="#1a0533" opacity="0.49408361492540775" rx="2"/><rect x="26.235954432570363" y="877.2430853515964" width="5.7078611370427215" height="9.388106427012968" fill="#00ccff" opacity="0.5572364359528843" rx="1"/><rect x="17.28932293732402" y="881.9371385651028" width="5.7078611370427215" height="9.388106427012968" fill="#ff0066" opacity="0.27861821797644215" rx="1"/><rect x="23.18297770157991" y="890.4682772927013" width="11.813814599023623" height="6.2119743573041575" fill="#00ccff" opacity="0.4901444468391464" rx="1"/><rect x="14.236346206333568" y="893.5742644713533" width="11.813814599023623" height="6.2119743573041575" fill="#ff0066" opacity="0.2450722234195732" rx="1"/><rect x="23.231648757176387" y="903.6934692338061" width="11.716472487830668" height="8.27367141430119" fill="#00ccff" opacity="0.1302210928709761" rx="1"/><rect x="14.285017261930046" y="907.8303049409567" width="11.716472487830668" height="8.27367141430119" fill="#ff0066" opacity="0.06511054643548805" rx="1"/><rect x="26.18998396377777" y="916.9186611749109" width="5.799802074627904" height="8.89361128744055" fill="#00ccff" opacity="0.22804447455053323" rx="1"/><rect x="17.243352468531427" y="921.3654668186311" width="5.799802074627904" height="8.89361128744055" fill="#ff0066" opacity="0.11402223727526661" rx="1"/><rect x="24.407337103366693" y="930.1438531160157" width="9.365095795450056" height="6.457356669115218" fill="#00ccff" opacity="0.5500796216190978" rx="1"/><rect x="15.460705608120351" y="933.3725314505733" width="9.365095795450056" height="6.457356669115218" fill="#ff0066" opacity="0.2750398108095489" rx="1"/><rect x="26.722919647517358" y="943.3690450571206" width="4.733930707148726" height="8.852015766047877" fill="#00ccff" opacity="0.26002609607764193" rx="1"/><rect x="17.776288152271015" y="947.7950529401445" width="4.733930707148726" height="8.852015766047877" fill="#ff0066" opacity="0.13001304803882097" rx="1"/><rect x="24.317023573749935" y="956.5942369982255" width="9.545722854683577" height="8.648692119551983" fill="#00ccff" opacity="0.4610130700657641" rx="1"/><rect x="15.370392078503592" y="960.9185830580014" width="9.545722854683577" height="8.648692119551983" fill="#ff0066" opacity="0.23050653503288204" rx="1"/><rect x="132.6135532773597" y="616.5293363659944" width="82.19063990567594" height="343.29009257333587" fill="#1a0533" opacity="0.5817091362741099" rx="2"/><rect x="167.85045691319985" y="626.5293363659944" width="11.716832633995644" height="6.991147377759019" fill="#00ccff" opacity="0.39893379234684023" rx="1"/><rect x="147.30279693678085" y="630.0249100548739" width="11.716832633995644" height="6.991147377759019" fill="#ff0066" opacity="0.19946689617342012" rx="1"/><rect x="168.77749187354405" y="683.7443517948836" width="9.862762713307227" height="8.518769672726926" fill="#00ccff" opacity="0.44883697851301096" rx="1"/><rect x="148.22983189712505" y="688.0037366312471" width="9.862762713307227" height="8.518769672726926" fill="#ff0066" opacity="0.22441848925650548" rx="1"/><rect x="170.8115539084681" y="740.959367223773" width="5.7946386434591" height="6.789033563059995" fill="#00ccff" opacity="0.22977740776952763" rx="1"/><rect x="150.26389393204911" y="744.353884005303" width="5.7946386434591" height="6.789033563059995" fill="#ff0066" opacity="0.11488870388476381" rx="1"/><rect x="169.48603701183714" y="798.1743826526623" width="8.44567243672108" height="6.062762275352786" fill="#00ccff" opacity="0.49476448644296367" rx="1"/><rect x="148.93837703541814" y="801.2057637903387" width="8.44567243672108" height="6.062762275352786" fill="#ff0066" opacity="0.24738224322148183" rx="1"/><rect x="168.43430197272318" y="855.3893980815516" width="10.549142514948999" height="7.622514054556962" fill="#00ccff" opacity="0.5194527710600413" rx="1"/><rect x="147.88664199630418" y="859.20065510883" width="10.549142514948999" height="7.622514054556962" fill="#ff0066" opacity="0.25972638553002064" rx="1"/><rect x="169.03535940731769" y="912.604413510441" width="9.34702764575999" height="8.127144546743283" fill="#00ccff" opacity="0.3791960706885895" rx="1"/><rect x="148.4876994308987" y="916.6679857838126" width="9.34702764575999" height="8.127144546743283" fill="#ff0066" opacity="0.18959803534429476" rx="1"/><rect x="217.51331582374712" y="659.1831192046365" width="86.84511914775825" height="300.6363097346938" fill="#1a0533" opacity="0.4684187445017553" rx="2"/><rect x="257.9302042911132" y="669.1831192046365" width="6.011342213026095" height="9.155081484270069" fill="#00ccff" opacity="0.41430221589149496" rx="1"/><rect x="236.21892450417366" y="673.7606599467715" width="6.011342213026095" height="9.155081484270069" fill="#ff0066" opacity="0.20715110794574748" rx="1"/><rect x="258.2757903070365" y="769.3952224495343" width="5.320170181179459" height="9.805712701707545" fill="#00ccff" opacity="0.23389439127265813" rx="1"/><rect x="236.56451052009697" y="774.2980788003881" width="5.320170181179459" height="9.805712701707545" fill="#ff0066" opacity="0.11694719563632906" rx="1"/><rect x="256.24878743087146" y="869.6073256944323" width="9.37417593350964" height="6.699602005234826" fill="#00ccff" opacity="0.13645994107622186" rx="1"/><rect x="234.53750764393186" y="872.9571266970497" width="9.37417593350964" height="6.699602005234826" fill="#ff0066" opacity="0.06822997053811093" rx="1"/><rect x="332.34118605319907" y="718.7699952439335" width="66.25105124345306" height="241.04943369539674" fill="#1a0533" opacity="0.5794624123907328" rx="2"/><rect x="360.7207037065459" y="728.7699952439335" width="9.492015936759305" height="6.48869476013088" fill="#00ccff" opacity="0.5855041376979798" rx="1"/><rect x="344.15794089568266" y="732.0143426239989" width="9.492015936759305" height="6.48869476013088" fill="#ff0066" opacity="0.2927520688489899" rx="1"/><rect x="360.72827335114783" y="768.944900859833" width="9.476876647555473" height="9.68981419962128" fill="#00ccff" opacity="0.3599212079681273" rx="1"/><rect x="344.1655105402846" y="773.7898079596436" width="9.476876647555473" height="9.68981419962128" fill="#ff0066" opacity="0.17996060398406366" rx="1"/><rect x="362.8704110290554" y="809.1198064757324" width="5.192601291740453" height="7.71697316451859" fill="#00ccff" opacity="0.18246202768815262" rx="1"/><rect x="346.3076482181921" y="812.9782930579917" width="5.192601291740453" height="7.71697316451859" fill="#ff0066" opacity="0.09123101384407631" rx="1"/><rect x="362.8553142044357" y="849.2947120916319" width="5.22279494097987" height="6.441997214323375" fill="#00ccff" opacity="0.5747885094198372" rx="1"/><rect x="346.2925513935724" y="852.5157106987937" width="5.22279494097987" height="6.441997214323375" fill="#ff0066" opacity="0.2873942547099186" rx="1"/><rect x="363.0012687919665" y="889.4696177075314" width="4.930885765918271" height="7.868197632457176" fill="#00ccff" opacity="0.5613035655257533" rx="1"/><rect x="346.4385059811032" y="893.40371652376" width="4.930885765918271" height="7.868197632457176" fill="#ff0066" opacity="0.28065178276287667" rx="1"/><rect x="362.0059832071434" y="929.6445233234308" width="6.921456935564395" height="7.735831771450078" fill="#00ccff" opacity="0.17651182976004476" rx="1"/><rect x="345.44322039628014" y="933.5124392091558" width="6.921456935564395" height="7.735831771450078" fill="#ff0066" opacity="0.08825591488002238" rx="1"/><rect x="433.25957140728354" y="871.1500933326664" width="49.46857915247524" height="88.6693356066638" fill="#000019" opacity="0.5363649333679036" rx="2"/><rect x="455.4604547304242" y="881.1500933326664" width="5.0668125061939495" height="6.626765578199822" fill="#00ccff" opacity="0.20980692706299175" rx="1"/><rect x="443.0933099423054" y="884.4634761217663" width="5.0668125061939495" height="6.626765578199822" fill="#ff0066" opacity="0.10490346353149588" rx="1"/><rect x="452.7572358599299" y="895.9283159337771" width="10.473250247182616" height="9.220327737559641" fill="#00ccff" opacity="0.2536220852643303" rx="1"/><rect x="440.39009107181107" y="900.5384798025569" width="10.473250247182616" height="9.220327737559641" fill="#ff0066" opacity="0.12681104263216514" rx="1"/><rect x="454.51702053368024" y="910.7065385348877" width="6.953680899681915" height="6.2577555366460595" fill="#00ccff" opacity="0.25220635725469476" rx="1"/><rect x="442.1498757455614" y="913.8354163032108" width="6.953680899681915" height="6.2577555366460595" fill="#ff0066" opacity="0.12610317862734738" rx="1"/><rect x="452.84461645452416" y="925.4847611359983" width="10.298489057994097" height="8.75933602889053" fill="#00ccff" opacity="0.5707935105475582" rx="1"/><rect x="440.47747166640534" y="929.8644291504436" width="10.298489057994097" height="8.75933602889053" fill="#ff0066" opacity="0.2853967552737791" rx="1"/><rect x="455.47549717325614" y="940.2629837371089" width="5.036727620530112" height="9.457149398386747" fill="#00ccff" opacity="0.3512372299682436" rx="1"/><rect x="443.1083523851373" y="944.9915584363023" width="5.036727620530112" height="9.457149398386747" fill="#ff0066" opacity="0.1756186149841218" rx="1"/><rect x="454.33607477679294" y="955.0412063382196" width="7.315572413456527" height="8.304239537172075" fill="#00ccff" opacity="0.4017673353435861" rx="1"/><rect x="441.9689299886741" y="959.1933261068057" width="7.315572413456527" height="8.304239537172075" fill="#ff0066" opacity="0.20088366767179305" rx="1"/><rect x="551.5043978419864" y="670.1353957807029" width="41.89909927824026" height="289.68403315862736" fill="#000019" opacity="0.4370548886798916" rx="2"/><rect x="568.8711265762968" y="680.1353957807029" width="7.165641809619414" height="6.396885738800486" fill="#00ccff" opacity="0.5069799792270595" rx="1"/><rect x="558.3963517567366" y="683.3338386501031" width="7.165641809619414" height="6.396885738800486" fill="#ff0066" opacity="0.25348998961352975" rx="1"/><rect x="569.0711134700271" y="721.5188290890782" width="6.765668022158945" height="9.619009460233853" fill="#00ccff" opacity="0.19716178188034375" rx="1"/><rect x="558.5963386504669" y="726.3283338191951" width="6.765668022158945" height="9.619009460233853" fill="#ff0066" opacity="0.09858089094017188" rx="1"/><rect x="566.4834683019396" y="762.9022623974536" width="11.94095835833367" height="9.085704752962503" fill="#00ccff" opacity="0.3322790560387725" rx="1"/><rect x="556.0086934823795" y="767.4451147739348" width="11.94095835833367" height="9.085704752962503" fill="#ff0066" opacity="0.16613952801938625" rx="1"/><rect x="567.9200543656294" y="804.2856957058289" width="9.067786230954292" height="8.155045330094882" fill="#00ccff" opacity="0.3798083178419174" rx="1"/><rect x="557.4452795460693" y="808.3632183708763" width="9.067786230954292" height="8.155045330094882" fill="#ff0066" opacity="0.1899041589209587" rx="1"/><rect x="568.3844543870969" y="845.6691290142043" width="8.13898618801939" height="6.797818788513033" fill="#00ccff" opacity="0.35612899329423187" rx="1"/><rect x="557.9096795675367" y="849.0680384084608" width="8.13898618801939" height="6.797818788513033" fill="#ff0066" opacity="0.17806449664711593" rx="1"/><rect x="567.8998666831525" y="887.0525623225795" width="9.108161595908031" height="6.551139207685166" fill="#00ccff" opacity="0.16411181089098376" rx="1"/><rect x="557.4250918635923" y="890.3281319264221" width="9.108161595908031" height="6.551139207685166" fill="#ff0066" opacity="0.08205590544549188" rx="1"/><rect x="568.3643749736633" y="928.435995630955" width="8.179145014886545" height="7.423810518678234" fill="#00ccff" opacity="0.22429632796540305" rx="1"/><rect x="557.8896001541032" y="932.1479008902941" width="8.179145014886545" height="7.423810518678234" fill="#ff0066" opacity="0.11214816398270153" rx="1"/><rect x="654.1372612291335" y="694.3730002721709" width="59.21333513437149" height="265.44642866715935" fill="#1a0533" opacity="0.5744956364562958" rx="2"/><rect x="679.0686089331443" y="704.3730002721709" width="9.350639726349767" height="8.532929587767676" fill="#00ccff" opacity="0.4046460989407836" rx="1"/><rect x="664.2652751495515" y="708.6394650660548" width="9.350639726349767" height="8.532929587767676" fill="#ff0066" opacity="0.2023230494703918" rx="1"/><rect x="680.7228568125802" y="748.6140717166975" width="6.042143967478104" height="9.718809494683242" fill="#00ccff" opacity="0.4843496557987178" rx="1"/><rect x="665.9195230289873" y="753.4734764640391" width="6.042143967478104" height="9.718809494683242" fill="#ff0066" opacity="0.2421748278993589" rx="1"/><rect x="679.7823270365554" y="792.855143161224" width="7.923203519527615" height="8.551157535647777" fill="#00ccff" opacity="0.4362507916372853" rx="1"/><rect x="664.9789932529626" y="797.1307219290478" width="7.923203519527615" height="8.551157535647777" fill="#ff0066" opacity="0.21812539581864265" rx="1"/><rect x="678.4095468054081" y="837.0962146057506" width="10.668763981822124" height="6.535694259343598" fill="#00ccff" opacity="0.4959000716907671" rx="1"/><rect x="663.6062130218153" y="840.3640617354224" width="10.668763981822124" height="6.535694259343598" fill="#ff0066" opacity="0.24795003584538355" rx="1"/><rect x="678.6349197494878" y="881.3372860502772" width="10.218018093662806" height="7.088153417475557" fill="#00ccff" opacity="0.17092552913141568" rx="1"/><rect x="663.831585965895" y="884.8813627590149" width="10.218018093662806" height="7.088153417475557" fill="#ff0066" opacity="0.08546276456570784" rx="1"/><rect x="680.3138176094074" y="925.5783574948036" width="6.860222373823687" height="8.298181258677081" fill="#00ccff" opacity="0.40445846514880157" rx="1"/><rect x="665.5104838258145" y="929.7274481241421" width="6.860222373823687" height="8.298181258677081" fill="#ff0066" opacity="0.20222923257440079" rx="1"/><rect x="758.2895949688483" y="613.3494632349698" width="72.43985673469489" height="346.4699657043605" fill="#000019" opacity="0.5976340663846662" rx="2"/><rect x="788.569691377126" y="623.3494632349698" width="11.879663918139336" height="8.013076473496174" fill="#00ccff" opacity="0.29555092258275273" rx="1"/><rect x="770.4597271934523" y="627.3560014717178" width="11.879663918139336" height="8.013076473496174" fill="#ff0066" opacity="0.14777546129137636" rx="1"/><rect x="789.6982430244559" y="672.845172621307" width="9.622560623479671" height="8.015982247427102" fill="#00ccff" opacity="0.13810046602461964" rx="1"/><rect x="771.5882788407821" y="676.8531637450205" width="9.622560623479671" height="8.015982247427102" fill="#ff0066" opacity="0.06905023301230982" rx="1"/><rect x="790.853248208727" y="722.3408820076443" width="7.312550254937389" height="8.895886388350252" fill="#00ccff" opacity="0.3290230416061876" rx="1"/><rect x="772.7432840250533" y="726.7888252018193" width="7.312550254937389" height="8.895886388350252" fill="#ff0066" opacity="0.1645115208030938" rx="1"/><rect x="791.5208109683638" y="771.8365913939815" width="5.97742473566379" height="7.72481747663692" fill="#00ccff" opacity="0.5167535189578202" rx="1"/><rect x="773.4108467846901" y="775.6990001323" width="5.97742473566379" height="7.72481747663692" fill="#ff0066" opacity="0.2583767594789101" rx="1"/><rect x="788.8646285305415" y="821.3323007803186" width="11.289789611308322" height="8.446852846640827" fill="#00ccff" opacity="0.17250402997539008" rx="1"/><rect x="770.7546643468678" y="825.5557272036391" width="11.289789611308322" height="8.446852846640827" fill="#ff0066" opacity="0.08625201498769504" rx="1"/><rect x="790.3198285445849" y="870.8280101666559" width="8.379389583221496" height="6.427647171641618" fill="#00ccff" opacity="0.4702388055087623" rx="1"/><rect x="772.2098643609113" y="874.0418337524767" width="8.379389583221496" height="6.427647171641618" fill="#ff0066" opacity="0.23511940275438115" rx="1"/><rect x="791.8918005416383" y="920.3237195529931" width="5.235445589114783" height="6.1273668408690405" fill="#00ccff" opacity="0.5691634366682645" rx="1"/><rect x="773.7818363579646" y="923.3874029734276" width="5.235445589114783" height="6.1273668408690405" fill="#ff0066" opacity="0.28458171833413226" rx="1"/><rect x="854.3992970568125" y="592.0363317225213" width="42.321600004174186" height="367.783097216809" fill="#1a0533" opacity="0.5518767744423535" rx="2"/><rect x="870.6999904987633" y="602.0363317225213" width="9.720213120272433" height="8.269516032717544" fill="#00ccff" opacity="0.2786502798038186" rx="1"/><rect x="860.1195904977199" y="606.17108973888" width="9.720213120272433" height="8.269516032717544" fill="#ff0066" opacity="0.1393251399019093" rx="1"/><rect x="872.9673467534517" y="648.0092188746223" width="5.185500610895804" height="6.592503620449571" fill="#00ccff" opacity="0.5751656427921648" rx="1"/><rect x="862.3869467524082" y="651.3054706848471" width="5.185500610895804" height="6.592503620449571" fill="#ff0066" opacity="0.2875828213960824" rx="1"/><rect x="871.2830224903959" y="693.9821060267235" width="8.554149137007574" height="6.785868686806846" fill="#00ccff" opacity="0.2268272146412235" rx="1"/><rect x="860.7026224893524" y="697.375040370127" width="8.554149137007574" height="6.785868686806846" fill="#ff0066" opacity="0.11341360732061175" rx="1"/><rect x="872.4684951653396" y="739.9549931788247" width="6.183203787119874" height="8.904979019170856" fill="#00ccff" opacity="0.2905018064869805" rx="1"/><rect x="861.8880951642961" y="744.4074826884101" width="6.183203787119874" height="8.904979019170856" fill="#ff0066" opacity="0.14525090324349024" rx="1"/><rect x="870.0488758112882" y="785.9278803309257" width="11.022442495222773" height="9.432131042571768" fill="#00ccff" opacity="0.33760570335146173" rx="1"/><rect x="859.4684758102447" y="790.6439458522116" width="11.022442495222773" height="9.432131042571768" fill="#ff0066" opacity="0.16880285167573086" rx="1"/><rect x="871.003421979957" y="831.9007674830268" width="9.113350157885195" height="6.504408712616286" fill="#00ccff" opacity="0.2153426931973879" rx="1"/><rect x="860.4230219789135" y="835.152971839335" width="9.113350157885195" height="6.504408712616286" fill="#ff0066" opacity="0.10767134659869396" rx="1"/><rect x="872.6309398844909" y="877.873654635128" width="5.8583143488174105" height="8.74426450178592" fill="#00ccff" opacity="0.4065907948898596" rx="1"/><rect x="862.0505398834474" y="882.2457868860209" width="5.8583143488174105" height="8.74426450178592" fill="#ff0066" opacity="0.2032953974449298" rx="1"/><rect x="872.6423476826496" y="923.8465417872292" width="5.835498752499814" height="9.377347807254957" fill="#00ccff" opacity="0.1843291065153501" rx="1"/><rect x="862.0619476816062" y="928.5352156908566" width="5.835498752499814" height="9.377347807254957" fill="#ff0066" opacity="0.09216455325767504" rx="1"/><rect x="984.4460082693132" y="833.2684982412654" width="80.19279871373269" height="126.55093069806483" fill="#1a0533" opacity="0.4179823488504585" rx="2"/><rect x="1020.1770030467717" y="843.2684982412654" width="8.730809158815724" height="9.77115553891546" fill="#00ccff" opacity="0.45901891646418225" rx="1"/><rect x="1000.1288033683386" y="848.1540760107232" width="8.730809158815724" height="9.77115553891546" fill="#ff0066" opacity="0.22950945823209112" rx="1"/><rect x="1018.5974539023817" y="861.3472026267033" width="11.889907447595593" height="7.504216216854801" fill="#00ccff" opacity="0.2276147719769773" rx="1"/><rect x="998.5492542239487" y="865.0993107351306" width="11.889907447595593" height="7.504216216854801" fill="#ff0066" opacity="0.11380738598848865" rx="1"/><rect x="1021.9728304676182" y="879.4259070121411" width="5.139154317122687" height="6.4079393205251405" fill="#00ccff" opacity="0.48885826347136363" rx="1"/><rect x="1001.9246307891851" y="882.6298766724037" width="5.139154317122687" height="6.4079393205251405" fill="#ff0066" opacity="0.24442913173568181" rx="1"/><rect x="1021.576277630072" y="897.504611397579" width="5.932259992214911" height="6.432771471429795" fill="#00ccff" opacity="0.35058241834644754" rx="1"/><rect x="1001.5280779516389" y="900.7209971332938" width="5.932259992214911" height="6.432771471429795" fill="#ff0066" opacity="0.17529120917322377" rx="1"/><rect x="1020.5766313759555" y="915.5833157830168" width="7.931552500448086" height="8.382220290224584" fill="#00ccff" opacity="0.5726994396123801" rx="1"/><rect x="1000.5284316975224" y="919.7744259281291" width="7.931552500448086" height="8.382220290224584" fill="#ff0066" opacity="0.28634971980619006" rx="1"/><rect x="1020.8481982745807" y="933.6620201684545" width="7.388418703197599" height="6.422163248160427" fill="#00ccff" opacity="0.1336146107953076" rx="1"/><rect x="1000.7999985961476" y="936.8731017925347" width="7.388418703197599" height="6.422163248160427" fill="#ff0066" opacity="0.0668073053976538" rx="1"/><rect x="1018.603057331313" y="951.7407245538925" width="11.878700589732896" height="8.459596217251288" fill="#00ccff" opacity="0.3178927759448748" rx="1"/><rect x="998.55485765288" y="955.9705226625182" width="11.878700589732896" height="8.459596217251288" fill="#ff0066" opacity="0.1589463879724374" rx="1"/><rect x="1090.1133604254837" y="633.1764503459391" width="45.182072835783956" height="326.64297859339115" fill="#000019" opacity="0.6174340038368092" rx="2"/><rect x="1109.8881512202527" y="643.1764503459391" width="5.632491246245916" height="7.839437251407523" fill="#00ccff" opacity="0.5299411348602597" rx="1"/><rect x="1098.5926330113068" y="647.0961689716429" width="5.632491246245916" height="7.839437251407523" fill="#ff0066" opacity="0.26497056743012987" rx="1"/><rect x="1109.765068428769" y="697.6169467781709" width="5.87865682921341" height="8.48903839906888" fill="#00ccff" opacity="0.4644264014122138" rx="1"/><rect x="1098.469550219823" y="701.8614659777054" width="5.87865682921341" height="8.48903839906888" fill="#ff0066" opacity="0.2322132007061069" rx="1"/><rect x="1109.287911686182" y="752.0574432104028" width="6.832970314387458" height="6.3267580802381875" fill="#00ccff" opacity="0.5987488882613249" rx="1"/><rect x="1097.9923934772362" y="755.2208222505219" width="6.832970314387458" height="6.3267580802381875" fill="#ff0066" opacity="0.29937444413066244" rx="1"/><rect x="1109.9782537103113" y="806.4979396426347" width="5.452286266128599" height="7.198521336819632" fill="#00ccff" opacity="0.2839728357000213" rx="1"/><rect x="1098.6827355013654" y="810.0972003110445" width="5.452286266128599" height="7.198521336819632" fill="#ff0066" opacity="0.14198641785001065" rx="1"/><rect x="1107.2141510439603" y="860.9384360748666" width="10.980491598830673" height="6.828701531707472" fill="#00ccff" opacity="0.13876918613416356" rx="1"/><rect x="1095.9186328350145" y="864.3527868407203" width="10.980491598830673" height="6.828701531707472" fill="#ff0066" opacity="0.06938459306708178" rx="1"/><rect x="1106.9721676674606" y="915.3789325070984" width="11.464458351830128" height="8.190392951059712" fill="#00ccff" opacity="0.28188428999434323" rx="1"/><rect x="1095.6766494585147" y="919.4741289826283" width="11.464458351830128" height="8.190392951059712" fill="#ff0066" opacity="0.14094214499717161" rx="1"/><rect x="1180.052789151681" y="625.2586257702808" width="38.55418062036721" height="334.5608031690495" fill="#000019" opacity="0.47356220334152743" rx="2"/><rect x="1195.414843211513" y="635.2586257702808" width="7.830072500703407" height="7.4044594274378515" fill="#00ccff" opacity="0.5301152083627216" rx="1"/><rect x="1185.7762980564212" y="638.9608554839997" width="7.830072500703407" height="7.4044594274378515" fill="#ff0066" opacity="0.2650576041813608" rx="1"/><rect x="1195.8247892825925" y="718.8988265625431" width="7.010180358544499" height="7.410181611173363" fill="#00ccff" opacity="0.5339273264477792" rx="1"/><rect x="1186.1862441275007" y="722.6039173681298" width="7.010180358544499" height="7.410181611173363" fill="#ff0066" opacity="0.2669636632238896" rx="1"/><rect x="1193.4630650646202" y="802.5390273548055" width="11.733628794488876" height="8.364251813470444" fill="#00ccff" opacity="0.18050405585218782" rx="1"/><rect x="1183.8245199095284" y="806.7211532615407" width="11.733628794488876" height="8.364251813470444" fill="#ff0066" opacity="0.09025202792609391" rx="1"/><rect x="1195.8498291025987" y="886.179228147068" width="6.9601007185317805" height="9.74351339408744" fill="#00ccff" opacity="0.14219738872307291" rx="1"/><rect x="1186.211283947507" y="891.0509848441117" width="6.9601007185317805" height="9.74351339408744" fill="#ff0066" opacity="0.07109869436153646" rx="1"/><rect x="1286.9979317060202" y="742.7253352344793" width="82.69285533872733" height="217.0940937048509" fill="#000019" opacity="0.4127988404391331" rx="2"/><rect x="1325.2408623970675" y="752.7253352344793" width="6.206993956632678" height="7.056780665427628" fill="#00ccff" opacity="0.30491175707544005" rx="1"/><rect x="1304.5676485623856" y="756.2537255671931" width="6.206993956632678" height="7.056780665427628" fill="#ff0066" opacity="0.15245587853772002" rx="1"/><rect x="1326.3378845721804" y="783.7387771923152" width="4.012949606406724" height="6.931950290904369" fill="#00ccff" opacity="0.24565044924282714" rx="1"/><rect x="1305.6646707374985" y="787.2047523377673" width="4.012949606406724" height="6.931950290904369" fill="#ff0066" opacity="0.12282522462141357" rx="1"/><rect x="1324.1588100085871" y="814.752219150151" width="8.371098733593499" height="6.017223068516986" fill="#00ccff" opacity="0.13978185426438738" rx="1"/><rect x="1303.4855961739052" y="817.7608306844095" width="8.371098733593499" height="6.017223068516986" fill="#ff0066" opacity="0.06989092713219369" rx="1"/><rect x="1324.0235629968868" y="845.7656611079868" width="8.64159275699444" height="9.605147581455565" fill="#00ccff" opacity="0.48541762097399166" rx="1"/><rect x="1303.3503491622048" y="850.5682348987146" width="8.64159275699444" height="9.605147581455565" fill="#ff0066" opacity="0.24270881048699583" rx="1"/><rect x="1323.0317429835052" y="876.7791030658227" width="10.625232783757436" height="9.167659668989401" fill="#00ccff" opacity="0.13468046675778006" rx="1"/><rect x="1302.3585291488232" y="881.3629329003174" width="10.625232783757436" height="9.167659668989401" fill="#ff0066" opacity="0.06734023337889003" rx="1"/><rect x="1325.3358598673567" y="907.7925450236585" width="6.016999016054207" height="9.330898194418033" fill="#00ccff" opacity="0.2896543329790361" rx="1"/><rect x="1304.6626460326747" y="912.4579941208675" width="6.016999016054207" height="9.330898194418033" fill="#ff0066" opacity="0.14482716648951804" rx="1"/><rect x="1323.8049535762532" y="938.8059869814944" width="9.078811598261542" height="7.364408081715091" fill="#00ccff" opacity="0.15992935215121354" rx="1"/><rect x="1303.1317397415712" y="942.4881910223519" width="9.078811598261542" height="7.364408081715091" fill="#ff0066" opacity="0.07996467607560677" rx="1"/><rect x="1393.1260133798062" y="847.005366544939" width="83.58205343447207" height="112.8140623943913" fill="#000019" opacity="0.49517325325756645" rx="2"/><rect x="1431.0737994210967" y="857.005366544939" width="7.686481351891179" height="8.610555091549307" fill="#00ccff" opacity="0.5412743813454347" rx="1"/><rect x="1410.1782860624787" y="861.3106440907136" width="7.686481351891179" height="8.610555091549307" fill="#ff0066" opacity="0.27063719067271735" rx="1"/><rect x="1430.2753971385014" y="873.1216611727092" width="9.283285917081704" height="9.439907371867427" fill="#00ccff" opacity="0.2279400694481889" rx="1"/><rect x="1409.3798837798834" y="877.8416148586429" width="9.283285917081704" height="9.439907371867427" fill="#ff0066" opacity="0.11397003472409445" rx="1"/><rect x="1430.7489091548484" y="889.2379558004793" width="8.336261884387643" height="6.557848376351839" fill="#00ccff" opacity="0.16281787728956387" rx="1"/><rect x="1409.8533957962304" y="892.5168799886552" width="8.336261884387643" height="6.557848376351839" fill="#ff0066" opacity="0.08140893864478194" rx="1"/><rect x="1429.3460364421703" y="905.3542504282495" width="11.14200730974367" height="7.81072268770326" fill="#00ccff" opacity="0.1817594048757477" rx="1"/><rect x="1408.4505230835523" y="909.2596117721012" width="11.14200730974367" height="7.81072268770326" fill="#ff0066" opacity="0.09087970243787385" rx="1"/><rect x="1430.0791538020314" y="921.4705450560197" width="9.67577259002155" height="7.25213945127375" fill="#00ccff" opacity="0.2447787810221265" rx="1"/><rect x="1409.1836404434134" y="925.0966147816565" width="9.67577259002155" height="7.25213945127375" fill="#ff0066" opacity="0.12238939051106325" rx="1"/><rect x="1428.9355823178626" y="937.5868396837899" width="11.962915558359335" height="7.63376523871761" fill="#00ccff" opacity="0.2842509044064793" rx="1"/><rect x="1408.0400689592445" y="941.4037223031487" width="11.962915558359335" height="7.63376523871761" fill="#ff0066" opacity="0.14212545220323966" rx="1"/><rect x="1432.3784644867708" y="953.70313431156" width="5.077151220542647" height="8.02992056450572" fill="#00ccff" opacity="0.23203275276628155" rx="1"/><rect x="1411.4829511281528" y="957.7180945938129" width="5.077151220542647" height="8.02992056450572" fill="#ff0066" opacity="0.11601637638314077" rx="1"/><rect x="1518.2591990214444" y="795.4389276670848" width="73.71753644284735" height="164.38050127224543" fill="#000019" opacity="0.6903553230199859" rx="2"/><rect x="1550.112285051288" y="805.4389276670848" width="10.01136438315999" height="7.331906411175594" fill="#00ccff" opacity="0.38059242229922496" rx="1"/><rect x="1531.6829009405762" y="809.1048808726727" width="10.01136438315999" height="7.331906411175594" fill="#ff0066" opacity="0.19029621114961248" rx="1"/><rect x="1549.402351040021" y="838.3150279215339" width="11.431232405694022" height="6.457466191718696" fill="#00ccff" opacity="0.14926904734439894" rx="1"/><rect x="1530.9729669293092" y="841.5437610173932" width="11.431232405694022" height="6.457466191718696" fill="#ff0066" opacity="0.07463452367219947" rx="1"/><rect x="1552.054086936883" y="871.1911281759831" width="6.127760611969922" height="9.096709840720685" fill="#00ccff" opacity="0.31007537916537264" rx="1"/><rect x="1533.6247028261714" y="875.7394830963434" width="6.127760611969922" height="9.096709840720685" fill="#ff0066" opacity="0.15503768958268632" rx="1"/><rect x="1550.7030747001297" y="904.0672284304321" width="8.82978508547642" height="6.812640460397266" fill="#00ccff" opacity="0.31647496188908697" rx="1"/><rect x="1532.273690589418" y="907.4735486606307" width="8.82978508547642" height="6.812640460397266" fill="#ff0066" opacity="0.15823748094454348" rx="1"/><rect x="1552.8814771990014" y="936.9433286848812" width="4.4729800877331245" height="7.214298485129675" fill="#00ccff" opacity="0.43054345923721404" rx="1"/><rect x="1534.4520930882898" y="940.550477927446" width="4.4729800877331245" height="7.214298485129675" fill="#ff0066" opacity="0.21527172961860702" rx="1"/><rect x="1617.342534628078" y="808.2761290735276" width="66.51049130514974" height="151.5432998658026" fill="#000019" opacity="0.6275648546003655" rx="2"/><rect x="1647.3763565054107" y="818.2761290735276" width="6.442847550484084" height="8.521761037996448" fill="#00ccff" opacity="0.23820797487585993" rx="1"/><rect x="1630.7487336791235" y="822.5370095925258" width="6.442847550484084" height="8.521761037996448" fill="#ff0066" opacity="0.11910398743792996" rx="1"/><rect x="1645.4293349442141" y="837.2190415567529" width="10.336890672877638" height="9.545372869713551" fill="#00ccff" opacity="0.2720414620759062" rx="1"/><rect x="1628.8017121179269" y="841.9917279916097" width="10.336890672877638" height="9.545372869713551" fill="#ff0066" opacity="0.1360207310379531" rx="1"/><rect x="1644.934944485299" y="856.1619540399782" width="11.325671590707653" height="9.668906788264612" fill="#00ccff" opacity="0.11889400254443615" rx="1"/><rect x="1628.3073216590117" y="860.9964074341106" width="11.325671590707653" height="9.668906788264612" fill="#ff0066" opacity="0.059447001272218074" rx="1"/><rect x="1648.023782250244" y="875.1048665232036" width="5.147996060817501" height="8.007056293545071" fill="#00ccff" opacity="0.3719470154894392" rx="1"/><rect x="1631.3961594239568" y="879.1083946699761" width="5.147996060817501" height="8.007056293545071" fill="#ff0066" opacity="0.1859735077447196" rx="1"/><rect x="1647.5779997768295" y="894.0477790064289" width="6.039561007646741" height="7.553095878463494" fill="#00ccff" opacity="0.14458968435520997" rx="1"/><rect x="1630.9503769505422" y="897.8243269456606" width="6.039561007646741" height="7.553095878463494" fill="#ff0066" opacity="0.07229484217760498" rx="1"/><rect x="1645.8717790872026" y="912.9906914896542" width="9.452002386900597" height="6.962733919956427" fill="#00ccff" opacity="0.35592164771070745" rx="1"/><rect x="1629.2441562609154" y="916.4720584496324" width="9.452002386900597" height="6.962733919956427" fill="#ff0066" opacity="0.17796082385535372" rx="1"/><rect x="1647.3856603778866" y="931.9336039728796" width="6.424239805532675" height="8.979085890338544" fill="#00ccff" opacity="0.4983052870953235" rx="1"/><rect x="1630.7580375515993" y="936.4231469180489" width="6.424239805532675" height="8.979085890338544" fill="#ff0066" opacity="0.24915264354766176" rx="1"/><rect x="1645.7880361286896" y="950.8765164561049" width="9.619488303926655" height="9.669996670370455" fill="#00ccff" opacity="0.22314437623674618" rx="1"/><rect x="1629.1604133024023" y="955.7115147912901" width="9.619488303926655" height="9.669996670370455" fill="#ff0066" opacity="0.11157218811837309" rx="1"/><rect x="1728.9607265030406" y="605.0370041991205" width="79.01703383983511" height="354.7824247402098" fill="#000019" opacity="0.47830292444636646" rx="2"/><rect x="1763.0980748487864" y="615.0370041991205" width="10.742337148343758" height="9.01249686605588" fill="#00ccff" opacity="0.33157048812871115" rx="1"/><rect x="1743.3438163888275" y="619.5432526321484" width="10.742337148343758" height="9.01249686605588" fill="#ff0066" opacity="0.16578524406435557" rx="1"/><rect x="1762.5294639346025" y="674.1674083224888" width="11.879558976711603" height="7.209367738386934" fill="#00ccff" opacity="0.3046769181510147" rx="1"/><rect x="1742.7752054746436" y="677.7720921916822" width="11.879558976711603" height="7.209367738386934" fill="#ff0066" opacity="0.15233845907550736" rx="1"/><rect x="1764.7401283918273" y="733.2978124458571" width="7.458230062261743" height="6.9849398604093444" fill="#00ccff" opacity="0.3693886951937779" rx="1"/><rect x="1744.9858699318684" y="736.7902823760618" width="7.458230062261743" height="6.9849398604093444" fill="#ff0066" opacity="0.18469434759688896" rx="1"/><rect x="1763.075771526451" y="792.4282165692254" width="10.786943793014377" height="8.970833264982987" fill="#00ccff" opacity="0.3502246398362854" rx="1"/><rect x="1743.3215130664921" y="796.9136332017168" width="10.786943793014377" height="8.970833264982987" fill="#ff0066" opacity="0.1751123199181427" rx="1"/><rect x="1762.9346303595078" y="851.5586206925936" width="11.06922612690116" height="9.02256621118229" fill="#00ccff" opacity="0.20896714476611633" rx="1"/><rect x="1743.1803718995488" y="856.0699037981848" width="11.06922612690116" height="9.02256621118229" fill="#ff0066" opacity="0.10448357238305817" rx="1"/><rect x="1764.6957645997627" y="910.6890248159621" width="7.546957646391112" height="8.428947678401356" fill="#00ccff" opacity="0.31043310435731736" rx="1"/><rect x="1744.9415061398038" y="914.9034986551627" width="7.546957646391112" height="8.428947678401356" fill="#ff0066" opacity="0.15521655217865868" rx="1"/><rect x="1835.0265568995444" y="875.1001369382953" width="83.9709258670851" height="84.7192920010349" fill="#1a0533" opacity="0.6374258090596241" rx="2"/><rect x="1871.8577986608393" y="885.1001369382953" width="10.308442344495198" height="8.416317996200249" fill="#00ccff" opacity="0.5421926375809574" rx="1"/><rect x="1850.8650671940682" y="889.3082959363954" width="10.308442344495198" height="8.416317996200249" fill="#ff0066" opacity="0.2710963187904787" rx="1"/><rect x="1874.0012900040022" y="906.279959938554" width="6.021459658169528" height="8.048744960233742" fill="#00ccff" opacity="0.4499627929064358" rx="1"/><rect x="1853.008558537231" y="910.3043324186709" width="6.021459658169528" height="8.048744960233742" fill="#ff0066" opacity="0.2249813964532179" rx="1"/><rect x="1872.7807298348705" y="927.4597829388129" width="8.46257999643278" height="7.7686419267600035" fill="#00ccff" opacity="0.11817924343472795" rx="1"/><rect x="1851.7879983680994" y="931.3441039021928" width="8.46257999643278" height="7.7686419267600035" fill="#ff0066" opacity="0.059089621717363976" rx="1"/><rect x="1871.1732482924529" y="948.6396059390715" width="11.677543081268096" height="7.500391724868769" fill="#00ccff" opacity="0.4223179658694002" rx="1"/><rect x="1850.1805168256817" y="952.3898018015059" width="11.677543081268096" height="7.500391724868769" fill="#ff0066" opacity="0.2111589829347001" rx="1"/><path d="M1524.4952992174065 826.9898550880583 Q1506.7947208431538 771.2811367810427 1503.2546051683032 715.572418474027" stroke="#000000" stroke-width="6.287975958149874" fill="none" stroke-linecap="round"/><path d="M1503.2546051683032 715.572418474027 Q1539.42023978462 695.572418474027 1550.1228924389284 715.572418474027" stroke="#000000" stroke-width="2.9772642871777677" fill="none" stroke-linecap="round" opacity="0.6"/><path d="M1503.2546051683032 715.572418474027 Q1536.6144546133282 701.084775157633 1532.5609902696622 726.597131841239" stroke="#000000" stroke-width="2.1565293358072006" fill="none" stroke-linecap="round" opacity="0.6"/><path d="M1503.2546051683032 715.572418474027 Q1501.2757231063442 703.784401030311 1490.7590622997861 731.9963835865949" stroke="#000000" stroke-width="2.4250369412882806" fill="none" stroke-linecap="round" opacity="0.6"/><path d="M1503.2546051683032 715.572418474027 Q1475.2906208171753 699.6678300497879 1446.559873402721 723.7632416255486" stroke="#000000" stroke-width="3.3181887048571808" fill="none" stroke-linecap="round" opacity="0.6"/><path d="M1503.2546051683032 715.572418474027 Q1476.1727656632063 690.5289649023231 1433.435676806554 705.4855113306191" stroke="#000000" stroke-width="3.3674475875141674" fill="none" stroke-linecap="round" opacity="0.6"/><path d="M394.91531574980246 865.3730092023902 Q392.27888107585693 797.9583862116464 391.7515941410678 730.5437632209025" stroke="#000000" stroke-width="7.0100712475856" fill="none" stroke-linecap="round"/><path d="M391.7515941410678 730.5437632209025 Q440.32668954700387 710.5437632209025 454.2247126936504 730.5437632209025" stroke="#000000" stroke-width="3.191678145246505" fill="none" stroke-linecap="round" opacity="0.6"/><path d="M391.7515941410678 730.5437632209025 Q417.18315249249207 718.4410688356327 433.73753461852675 746.3383744503627" stroke="#000000" stroke-width="3.3427498073649478" fill="none" stroke-linecap="round" opacity="0.6"/><path d="M391.7515941410678 730.5437632209025 Q392.7102989392155 721.8574574865402 374.5364148918874 753.1711517521779" stroke="#000000" stroke-width="3.048025369422516" fill="none" stroke-linecap="round" opacity="0.6"/><path d="M391.7515941410678 730.5437632209025 Q358.09222742471593 715.5370682761702 322.62689556189366 740.5303733314379" stroke="#000000" stroke-width="2.112367055870678" fill="none" stroke-linecap="round" opacity="0.6"/><path d="M391.7515941410678 730.5437632209025 Q372.25330644644276 705.3602163131336 319.99328704694335 720.1766694053646" stroke="#000000" stroke-width="3.7502130548819466" fill="none" stroke-linecap="round" opacity="0.6"/><path d="M260.541087151631 846.5205598498044 Q273.3800485947588 722.1437896595205 275.9478408833844 597.7670194692367" stroke="#000000" stroke-width="6.7680284964777595" fill="none" stroke-linecap="round"/><path d="M275.9478408833844 597.7670194692367 Q323.0515183725048 577.7670194692367 341.07203356946627 597.7670194692367" stroke="#000000" stroke-width="2.0089032319395113" fill="none" stroke-linecap="round" opacity="0.6"/><path d="M275.9478408833844 597.7670194692367 Q302.1767401668253 584.622540434209 312.3951444599895 611.4780613991812" stroke="#000000" stroke-width="2.5286957669371497" fill="none" stroke-linecap="round" opacity="0.6"/><path d="M275.9478408833844 597.7670194692367 Q286.32077575522135 583.9489708962149 266.54124040202015 610.1309223231931" stroke="#000000" stroke-width="2.6464019521713262" fill="none" stroke-linecap="round" opacity="0.6"/><path d="M275.9478408833844 597.7670194692367 Q250.8487130087368 582.7716367916275 206.66654120604457 607.7762541140182" stroke="#000000" stroke-width="3.029174938571913" fill="none" stroke-linecap="round" opacity="0.6"/><path d="M275.9478408833844 597.7670194692367 Q274.75311847156803 574.7553661709737 234.25609079737828 591.7437128727106" stroke="#000000" stroke-width="2.9535763643108255" fill="none" stroke-linecap="round" opacity="0.6"/><path d="M275.9478408833844 597.7670194692367 Q276.0747056300419 572.6567986351274 268.17201049619734 587.546577801018" stroke="#000000" stroke-width="3.883271717439236" fill="none" stroke-linecap="round" opacity="0.6"/><path d="M315.1042664784716 875.9179174843985 Q322.5929833256158 781.991543639915 324.0907266950446 688.0651697954315" stroke="#000000" stroke-width="4.068753161483619" fill="none" stroke-linecap="round"/><path d="M324.0907266950446 688.0651697954315 Q342.6622141957428 668.0651697954315 356.40327294226813 688.0651697954315" stroke="#000000" stroke-width="3.7697567715704805" fill="none" stroke-linecap="round" opacity="0.6"/><path d="M324.0907266950446 688.0651697954315 Q336.84712342508914 671.859516387238 344.2633295961273 695.6538629790447" stroke="#000000" stroke-width="2.404305472598482" fill="none" stroke-linecap="round" opacity="0.6"/><path d="M324.0907266950446 688.0651697954315 Q331.85574908488445 672.5010925103763 317.3409239444767 696.9370152253211" stroke="#000000" stroke-width="3.607529741154874" fill="none" stroke-linecap="round" opacity="0.6"/><path d="M324.0907266950446 688.0651697954315 Q311.37969706889464 671.3356424331762 278.81601730050426 694.6061150709207" stroke="#000000" stroke-width="3.397971119591494" fill="none" stroke-linecap="round" opacity="0.6"/><path d="M324.0907266950446 688.0651697954315 Q307.51376002899605 664.1426941252992 269.79002898461704 680.2202184551669" stroke="#000000" stroke-width="3.917988128009715" fill="none" stroke-linecap="round" opacity="0.6"/><path d="M324.0907266950446 688.0651697954315 Q333.8877817128677 659.0262274931163 310.33686272242767 669.9872851908009" stroke="#000000" stroke-width="2.0031846947975422" fill="none" stroke-linecap="round" opacity="0.6"/><rect x="0" y="1000" width="1920" height="80" fill="#00000d" opacity="0.8"/><line x1="0" y1="1040" x2="1920" y2="1040" stroke="#00ccff" stroke-opacity="0.15" stroke-width="2" stroke-dasharray="30,20"/><rect x="0" y="930" width="1920" height="150" fill="url(#glow60)"/><text x="1900" y="1060" font-family="Arial, sans-serif" font-size="11" fill="#fff" opacity="0.08" text-anchor="end" letter-spacing="2">GTA 6 REWARDS · WALLPAPER 061</text>
</svg>