<?xml version="1.0" encoding="UTF-8"?>
<svg xmlns="http://www.w3.org/2000/svg" width="1920" height="1080" viewBox="0 0 1920 1080">
<defs>
    <linearGradient id="bg69" x1="0%" y1="0%" x2="0%" y2="100%">
      <stop offset="0%" stop-color="#6930c3"/>
      <stop offset="50%" stop-color="#360090"/>
      <stop offset="100%" stop-color="#6930c3"/>
    </linearGradient>
    <linearGradient id="sun69" x1="0%" y1="0%" x2="100%" y2="100%">
      <stop offset="0%" stop-color="#80ffdb"/>
      <stop offset="100%" stop-color="#64dfdf"/>
    </linearGradient>
    <radialGradient id="glow69" cx="50%" cy="70%" r="50%">
      <stop offset="0%" stop-color="#80ffdb" stop-opacity="0.3"/>
      <stop offset="100%" stop-color="#6930c3" stop-opacity="0"/>
    </radialGradient>
  </defs><rect width="1920" height="1080" fill="url(#bg69)"/><circle cx="673.0059148680898" cy="515.5045832310582" r="848.3079889668869" fill="#80ffdb" opacity="0.13804634788260944"/><circle cx="873.0059148680898" cy="415.5045832310582" r="497.55775460450855" fill="#64dfdf" opacity="0.10206131394302037"/><circle cx="1310.9135043367075" cy="433.91640011312353" r="67.09611033254679" fill="url(#sun69)" opacity="0.8967171401709124"/><circle cx="1310.9135043367075" cy="433.91640011312353" r="62.096110332546786" fill="#6930c3" opacity="0.3"/><path d="M656.349177066318 846.2739332453986 Q642.961025569346 772.670729353016 640.2833952699516 699.0675254606333" stroke="#1c0076" stroke-width="5.075172958214575" fill="none" stroke-linecap="round"/><path d="M640.2833952699516 699.0675254606333 Q686.921628326625 679.0675254606333 710.4014224085029 699.0675254606333" stroke="#360090" stroke-width="3.440041509792218" fill="none" stroke-linecap="round" opacity="0.6"/><path d="M640.2833952699516 699.0675254606333 Q669.4505839818271 687.3808053389873 684.4808584520774 715.6940852173414" stroke="#360090" stroke-width="3.2381796960807825" fill="none" stroke-linecap="round" opacity="0.6"/><path d="M640.2833952699516 699.0675254606333 Q647.1706046556527 686.1012248327336 629.5807553865916 713.134924204834" stroke="#360090" stroke-width="2.4537510723932066" fill="none" stroke-linecap="round" opacity="0.6"/><path d="M640.2833952699516 699.0675254606333 Q626.9791939423692 683.5693578554726 577.9623866588432 708.0711902503119" stroke="#360090" stroke-width="3.7727897003695343" fill="none" stroke-linecap="round" opacity="0.6"/><path d="M640.2833952699516 699.0675254606333 Q624.8783789959896 676.5268074051924 605.1110259047457 693.9860893497513" stroke="#360090" stroke-width="2.42840030519953" fill="none" stroke-linecap="round" opacity="0.6"/><path d="M640.2833952699516 699.0675254606333 Q637.0203821845869 672.7610487937302 630.687314299189 686.454572126827" stroke="#360090" stroke-width="2.2173031108028494" fill="none" stroke-linecap="round" opacity="0.6"/><path d="M1642.99629085767 845.4553232401272 Q1643.5514421722737 761.490218140299 1643.6624724351946 677.5251130404707" stroke="#1c0076" stroke-width="5.947250822081056" fill="none" stroke-linecap="round"/><path d="M1643.6624724351946 677.5251130404707 Q1691.0466332254107 657.5251130404707 1710.3512679665234 677.5251130404707" stroke="#360090" stroke-width="2.736641001593471" fill="none" stroke-linecap="round" opacity="0.6"/><path d="M1643.6624724351946 677.5251130404707 Q1675.1076325456017 663.357675823203 1674.671229823294 689.1902386059353" stroke="#360090" stroke-width="2.4889239292798853" fill="none" stroke-linecap="round" opacity="0.6"/><path d="M1643.6624724351946 677.5251130404707 Q1650.8962743126983 668.2642529047798 1627.32154847125 699.003392769089" stroke="#360090" stroke-width="3.1397998070204167" fill="none" stroke-linecap="round" opacity="0.6"/><path d="M1643.6624724351946 677.5251130404707 Q1633.5344378984744 660.2921149101124 1605.3575485240833 683.0591167797542" stroke="#360090" stroke-width="3.930101365766046" fill="none" stroke-linecap="round" opacity="0.6"/><path d="M1643.6624724351946 677.5251130404707 Q1640.875263180431 655.1570787585945 1610.8806467409754 672.7890444767182" stroke="#360090" stroke-width="3.8449131161544736" fill="none" stroke-linecap="round" opacity="0.6"/><path d="M1643.5544116151414 966.7392603742749 Q1629.8581234668052 859.4562554753982 1627.118865837138 752.1732505765216" stroke="#1c0076" stroke-width="7.741324664964649" fill="none" stroke-linecap="round"/><path d="M1627.118865837138 752.1732505765216 Q1670.6404388425035 732.1732505765216 1688.3925435567257 752.1732505765216" stroke="#360090" stroke-width="3.859236695770928" fill="none" stroke-linecap="round" opacity="0.6"/><path d="M1627.118865837138 752.1732505765216 Q1657.7506942970108 737.9468720671164 1657.8142624786642 763.7204935577112" stroke="#360090" stroke-width="2.9924528032989364" fill="none" stroke-linecap="round" opacity="0.6"/><path d="M1627.118865837138 752.1732505765216 Q1632.4359962892897 740.8809310579295 1613.8690575240992 769.5886115393373" stroke="#360090" stroke-width="2.9966523798640474" fill="none" stroke-linecap="round" opacity="0.6"/><path d="M1627.118865837138 752.1732505765216 Q1622.3036107092782 734.4596412257839 1595.467271809697 756.7460318750462" stroke="#360090" stroke-width="3.3560704149669203" fill="none" stroke-linecap="round" opacity="0.6"/><path d="M1627.118865837138 752.1732505765216 Q1603.8300598154437 728.1802484462919 1571.8418367705985 744.1872463160622" stroke="#360090" stroke-width="3.9378483802866766" fill="none" stroke-linecap="round" opacity="0.6"/><path d="M1627.118865837138 752.1732505765216 Q1631.3387861599886 726.8449906146383 1619.0112620627767 741.516730652755" stroke="#360090" stroke-width="3.6260806381763144" fill="none" stroke-linecap="round" opacity="0.6"/><path d="M23.33522424645145 804.4602252786187 Q36.5791271106757 739.456124834124 39.227907683520556 674.4520243896292" stroke="#1c0076" stroke-width="5.608452733980597" fill="none" stroke-linecap="round"/><path d="M39.227907683520556 674.4520243896292 Q67.88715351486745 654.4520243896292 87.0847521091543 674.4520243896292" stroke="#360090" stroke-width="3.1365559280702273" fill="none" stroke-linecap="round" opacity="0.6"/><path d="M39.227907683520556 674.4520243896292 Q62.45580852753195 662.2492781916877 80.68192377354615 690.0465319937463" stroke="#360090" stroke-width="3.95677898590378" fill="none" stroke-linecap="round" opacity="0.6"/><path d="M39.227907683520556 674.4520243896292 Q32.158937240055856 665.6022140183441 22.261520877074556 696.7524036470589" stroke="#360090" stroke-width="2.3756121435145876" fill="none" stroke-linecap="round" opacity="0.6"/><path d="M39.227907683520556 674.4520243896292 Q39.367310078684696 656.9017171966987 5.31564415746017 679.351410003768" stroke="#360090" stroke-width="3.8750048982619782" fill="none" stroke-linecap="round" opacity="0.6"/><path d="M39.227907683520556 674.4520243896292 Q32.60381653978759 652.4917820972709 12.091340599867245 670.5315398049125" stroke="#360090" stroke-width="3.7522498568874436" fill="none" stroke-linecap="round" opacity="0.6"/><path d="M190.85651506456932 808.2740307572004 Q188.93663381434433 686.4872304400167 188.55265756429935 564.7004301228328" stroke="#1c0076" stroke-width="7.977600480424613" fill="none" stroke-linecap="round"/><path d="M188.55265756429935 564.7004301228328 Q206.34347230204 544.7004301228328 221.76596143882864 564.7004301228328" stroke="#360090" stroke-width="2.4031652483165185" fill="none" stroke-linecap="round" opacity="0.6"/><path d="M188.55265756429935 564.7004301228328 Q218.09331680204753 552.3911150680457 229.44010147153782 580.0818000132585" stroke="#360090" stroke-width="3.0549996181053576" fill="none" stroke-linecap="round" opacity="0.6"/><path d="M188.55265756429935 564.7004301228328 Q189.83944194172454 551.0376479598779 178.90980011700333 577.374865796923" stroke="#360090" stroke-width="2.2313021724650874" fill="none" stroke-linecap="round" opacity="0.6"/><path d="M188.55265756429935 564.7004301228328 Q188.40253124152875 547.0013862692101 156.6994264274516 569.3023424155875" stroke="#360090" stroke-width="2.151672766579239" fill="none" stroke-linecap="round" opacity="0.6"/><path d="M188.55265756429935 564.7004301228328 Q168.8833030977847 540.9477689347855 136.60278255718706 557.1951077467381" stroke="#360090" stroke-width="2.8648341132478867" fill="none" stroke-linecap="round" opacity="0.6"/><path d="M188.55265756429935 564.7004301228328 Q198.99042852939093 535.8004671878545 175.01026781614593 546.9005042528761" stroke="#360090" stroke-width="3.7184129799060557" fill="none" stroke-linecap="round" opacity="0.6"/><line x1="0" y1="0" x2="0" y2="1080" stroke="#80ffdb" stroke-opacity="0.06574094091442902" stroke-width="0.5"/><line x1="54" y1="0" x2="54" y2="1080" stroke="#80ffdb" stroke-opacity="0.06574094091442902" stroke-width="0.5"/><line x1="108" y1="0" x2="108" y2="1080" stroke="#80ffdb" stroke-opacity="0.06574094091442902" stroke-width="0.5"/><line x1="162" y1="0" x2="162" y2="1080" stroke="#80ffdb" stroke-opacity="0.06574094091442902" stroke-width="0.5"/><line x1="216" y1="0" x2="216" y2="1080" stroke="#80ffdb" stroke-opacity="0.06574094091442902" stroke-width="0.5"/><line x1="270" y1="0" x2="270" y2="1080" stroke="#80ffdb" stroke-opacity="0.06574094091442902" stroke-width="0.5"/><line x1="324" y1="0" x2="324" y2="1080" stroke="#80ffdb" stroke-opacity="0.06574094091442902" stroke-width="0.5"/><line x1="378" y1="0" x2="378" y2="1080" stroke="#80ffdb" stroke-opacity="0.06574094091442902" stroke-width="0.5"/><line x1="432" y1="0" x2="432" y2="1080" stroke="#80ffdb" stroke-opacity="0.06574094091442902" stroke-width="0.5"/><line x1="486" y1="0" x2="486" y2="1080" stroke="#80ffdb" stroke-opacity="0.06574094091442902" stroke-width="0.5"/><line x1="540" y1="0" x2="540" y2="1080" stroke="#80ffdb" stroke-opacity="0.06574094091442902" stroke-width="0.5"/><line x1="594" y1="0" x2="594" y2="1080" stroke="#80ffdb" stroke-opacity="0.06574094091442902" stroke-width="0.5"/><line x1="648" y1="0" x2="648" y2="1080" stroke="#80ffdb" stroke-opacity="0.06574094091442902" stroke-width="0.5"/><line x1="702" y1="0" x2="702" y2="1080" stroke="#80ffdb" stroke-opacity="0.06574094091442902" stroke-width="0.5"/><line x1="756" y1="0" x2="756" y2="1080" stroke="#80ffdb" stroke-opacity="0.06574094091442902" stroke-width="0.5"/><line x1="810" y1="0" x2="810" y2="1080" stroke="#80ffdb" stroke-opacity="0.06574094091442902" stroke-width="0.5"/><line x1="864" y1="0" x2="864" y2="1080" stroke="#80ffdb" stroke-opacity="0.06574094091442902" stroke-width="0.5"/><line x1="918" y1="0" x2="918" y2="1080" stroke="#80ffdb" stroke-opacity="0.06574094091442902" stroke-width="0.5"/><line x1="972" y1="0" x2="972" y2="1080" stroke="#80ffdb" stroke-opacity="0.06574094091442902" stroke-width="0.5"/><line x1="1026" y1="0" x2="1026" y2="1080" stroke="#80ffdb" stroke-opacity="0.06574094091442902" stroke-width="0.5"/><line x1="1080" y1="0" x2="1080" y2="1080" stroke="#80ffdb" stroke-opacity="0.06574094091442902" stroke-width="0.5"/><line x1="1134" y1="0" x2="1134" y2="1080" stroke="#80ffdb" stroke-opacity="0.06574094091442902" stroke-width="0.5"/><line x1="1188" y1="0" x2="1188" y2="1080" stroke="#80ffdb" stroke-opacity="0.06574094091442902" stroke-width="0.5"/><line x1="1242" y1="0" x2="1242" y2="1080" stroke="#80ffdb" stroke-opacity="0.06574094091442902" stroke-width="0.5"/><line x1="1296" y1="0" x2="1296" y2="1080" stroke="#80ffdb" stroke-opacity="0.06574094091442902" stroke-width="0.5"/><line x1="1350" y1="0" x2="1350" y2="1080" stroke="#80ffdb" stroke-opacity="0.06574094091442902" stroke-width="0.5"/><line x1="1404" y1="0" x2="1404" y2="1080" stroke="#80ffdb" stroke-opacity="0.06574094091442902" stroke-width="0.5"/><line x1="1458" y1="0" x2="1458" y2="1080" stroke="#80ffdb" stroke-opacity="0.06574094091442902" stroke-width="0.5"/><line x1="1512" y1="0" x2="1512" y2="1080" stroke="#80ffdb" stroke-opacity="0.06574094091442902" stroke-width="0.5"/><line x1="1566" y1="0" x2="1566" y2="1080" stroke="#80ffdb" stroke-opacity="0.06574094091442902" stroke-width="0.5"/><line x1="1620" y1="0" x2="1620" y2="1080" stroke="#80ffdb" stroke-opacity="0.06574094091442902" stroke-width="0.5"/><line x1="1674" y1="0" x2="1674" y2="1080" stroke="#80ffdb" stroke-opacity="0.06574094091442902" stroke-width="0.5"/><line x1="1728" y1="0" x2="1728" y2="1080" stroke="#80ffdb" stroke-opacity="0.06574094091442902" stroke-width="0.5"/><line x1="1782" y1="0" x2="1782" y2="1080" stroke="#80ffdb" stroke-opacity="0.06574094091442902" stroke-width="0.5"/><line x1="1836" y1="0" x2="1836" y2="1080" stroke="#80ffdb" stroke-opacity="0.06574094091442902" stroke-width="0.5"/><line x1="1890" y1="0" x2="1890" y2="1080" stroke="#80ffdb" stroke-opacity="0.06574094091442902" stroke-width="0.5"/><line x1="0" y1="0" x2="1920" y2="0" stroke="#80ffdb" stroke-opacity="0.06574094091442902" stroke-width="0.5"/><line x1="0" y1="54" x2="1920" y2="54" stroke="#80ffdb" stroke-opacity="0.06574094091442902" stroke-width="0.5"/><line x1="0" y1="108" x2="1920" y2="108" stroke="#80ffdb" stroke-opacity="0.06574094091442902" stroke-width="0.5"/><line x1="0" y1="162" x2="1920" y2="162" stroke="#80ffdb" stroke-opacity="0.06574094091442902" stroke-width="0.5"/><line x1="0" y1="216" x2="1920" y2="216" stroke="#80ffdb" stroke-opacity="0.06574094091442902" stroke-width="0.5"/><line x1="0" y1="270" x2="1920" y2="270" stroke="#80ffdb" stroke-opacity="0.06574094091442902" stroke-width="0.5"/><line x1="0" y1="324" x2="1920" y2="324" stroke="#80ffdb" stroke-opacity="0.06574094091442902" stroke-width="0.5"/><line x1="0" y1="378" x2="1920" y2="378" stroke="#80ffdb" stroke-opacity="0.06574094091442902" stroke-width="0.5"/><line x1="0" y1="432" x2="1920" y2="432" stroke="#80ffdb" stroke-opacity="0.06574094091442902" stroke-width="0.5"/><line x1="0" y1="486" x2="1920" y2="486" stroke="#80ffdb" stroke-opacity="0.06574094091442902" stroke-width="0.5"/><line x1="0" y1="540" x2="1920" y2="540" stroke="#80ffdb" stroke-opacity="0.06574094091442902" stroke-width="0.5"/><line x1="0" y1="594" x2="1920" y2="594" stroke="#80ffdb" stroke-opacity="0.06574094091442902" stroke-width="0.5"/><line x1="0" y1="648" x2="1920" y2="648" stroke="#80ffdb" stroke-opacity="0.06574094091442902" stroke-width="0.5"/><line x1="0" y1="702" x2="1920" y2="702" stroke="#80ffdb" stroke-opacity="0.06574094091442902" stroke-width="0.5"/><line x1="0" y1="756" x2="1920" y2="756" stroke="#80ffdb" stroke-opacity="0.06574094091442902" stroke-width="0.5"/><line x1="0" y1="810" x2="1920" y2="810" stroke="#80ffdb" stroke-opacity="0.06574094091442902" stroke-width="0.5"/><line x1="0" y1="864" x2="1920" y2="864" stroke="#80ffdb" stroke-opacity="0.06574094091442902" stroke-width="0.5"/><line x1="0" y1="918" x2="1920" y2="918" stroke="#80ffdb" stroke-opacity="0.06574094091442902" stroke-width="0.5"/><line x1="0" y1="972" x2="1920" y2="972" stroke="#80ffdb" stroke-opacity="0.06574094091442902" stroke-width="0.5"/><line x1="0" y1="1026" x2="1920" y2="1026" stroke="#80ffdb" stroke-opacity="0.06574094091442902" stroke-width="0.5"/><rect x="0" y="1000" width="1920" height="80" fill="#430a9d" opacity="0.8"/><line x1="0" y1="1040" x2="1920" y2="1040" stroke="#64dfdf" stroke-opacity="0.15" stroke-width="2" stroke-dasharray="30,20"/><rect x="0" y="930" width="1920" height="150" fill="url(#glow69)"/><rect x="0" y="980" width="1920" height="100" fill="#64dfdf" opacity="0.04"/><rect x="892.4802967003734" y="1051.3577345878252" width="115.68444937367096" height="2" fill="#80ffdb" opacity="0.053020617587729496" rx="1"/><rect x="1506.6279954245847" y="1027.0238702807164" width="109.4300392571441" height="2" fill="#80ffdb" opacity="0.026201321037067408" rx="1"/><rect x="1034.610362889853" y="1041.7525382716565" width="96.0497857062262" height="2" fill="#80ffdb" opacity="0.029626995914063183" rx="1"/><rect x="500.68865743016096" y="1009.1449280896096" width="116.28532524134157" height="2" fill="#80ffdb" opacity="0.02906245530793966" rx="1"/><rect x="792.1039623376224" y="1039.2807755990143" width="36.402228739206265" height="2" fill="#80ffdb" opacity="0.049056336737483816" rx="1"/><rect x="5.708150715964882" y="1038.8029994486837" width="36.80621144287433" height="2" fill="#80ffdb" opacity="0.04152577614912898" rx="1"/><rect x="351.7089241071858" y="1015.8238646564595" width="40.76291612367214" height="2" fill="#80ffdb" opacity="0.04309404840299255" rx="1"/><rect x="1277.6308700436798" y="1049.6933377836117" width="75.19477907921997" height="2" fill="#80ffdb" opacity="0.035263813178814905" rx="1"/><rect x="506.12278205019487" y="1021.6879665343296" width="64.35285850063732" height="2" fill="#80ffdb" opacity="0.03497086370712399" rx="1"/><rect x="822.9993856379295" y="1016.1178541826358" width="32.39861192004723" height="2" fill="#80ffdb" opacity="0.036969036575632414" rx="1"/><rect x="505.5423390552267" y="1004.1987551665396" width="47.53894776747072" height="2" fill="#80ffdb" opacity="0.03127276242041792" rx="1"/><rect x="422.33970175086046" y="1049.8967461776679" width="49.10176714162849" height="2" fill="#80ffdb" opacity="0.04919261671351097" rx="1"/><rect x="526.284148368585" y="1054.0094292988092" width="119.13266627097798" height="2" fill="#80ffdb" opacity="0.027346829289418374" rx="1"/><rect x="1341.353894188384" y="1042.3882775898996" width="52.7175492496969" height="2" fill="#80ffdb" opacity="0.051026254871633425" rx="1"/><rect x="525.9682337674238" y="1058.080706460886" width="117.47203907404841" height="2" fill="#80ffdb" opacity="0.04018327837348526" rx="1"/><rect x="714.2670546644989" y="1023.6873200870323" width="93.59973806273186" height="2" fill="#80ffdb" opacity="0.032592532814618325" rx="1"/><rect x="1765.9462514161007" y="1015.1982625516127" width="73.26905063196762" height="2" fill="#80ffdb" opacity="0.04583490569746003" rx="1"/><rect x="666.2158840955738" y="1054.051016670198" width="44.40618484383593" height="2" fill="#80ffdb" opacity="0.059269694462248515" rx="1"/><rect x="298.80447737379103" y="1029.8507747915226" width="108.58522539692586" height="2" fill="#80ffdb" opacity="0.03094608596780945" rx="1"/><rect x="1917.4773868912546" y="1042.8478077060654" width="25.6351519435726" height="2" fill="#80ffdb" opacity="0.03488667336639172" rx="1"/><rect x="1053.4921492108824" y="1023.2224126726442" width="56.2293974813608" height="2" fill="#80ffdb" opacity="0.029896499572763337" rx="1"/><rect x="693.7965838736382" y="1051.4906026729127" width="79.40652295467595" height="2" fill="#80ffdb" opacity="0.029443570554592548" rx="1"/><rect x="1313.7394280810233" y="1023.8527037398546" width="118.45282426067926" height="2" fill="#80ffdb" opacity="0.02678390419268606" rx="1"/><rect x="1624.7946184186253" y="1037.7510310378277" width="101.91337030891175" height="2" fill="#80ffdb" opacity="0.028440614679930875" rx="1"/><rect x="1263.895546790188" y="1012.5175848120166" width="88.68175691195805" height="2" fill="#80ffdb" opacity="0.03389983515578784" rx="1"/><rect x="1812.6782221842273" y="1038.1823924272746" width="108.82338376455553" height="2" fill="#80ffdb" opacity="0.027295876081868977" rx="1"/><rect x="818.2085727570133" y="1026.3039644310027" width="118.51759416016694" height="2" fill="#80ffdb" opacity="0.04571459387096451" rx="1"/><rect x="1569.4855091649772" y="1018.5119097396991" width="117.68976473661367" height="2" fill="#80ffdb" opacity="0.04968537212109318" rx="1"/><rect x="283.46923119469295" y="1023.5008413911567" width="38.290192451861266" height="2" fill="#80ffdb" opacity="0.05753732740821721" rx="1"/><rect x="1018.3036724613755" y="1047.286739951765" width="53.60362149160439" height="2" fill="#80ffdb" opacity="0.03373679606563803" rx="1"/><text x="1900" y="1060" font-family="Arial, sans-serif" font-size="11" fill="#fff" opacity="0.08" text-anchor="end" letter-spacing="2">GTA 6 REWARDS · WALLPAPER 070</text>
</svg>