<?xml version="1.0" encoding="UTF-8"?>
<svg xmlns="http://www.w3.org/2000/svg" width="1920" height="1080" viewBox="0 0 1920 1080">
<defs>
    <linearGradient id="bg30" x1="0%" y1="0%" x2="0%" y2="100%">
      <stop offset="0%" stop-color="#2ec4b6"/>
      <stop offset="50%" stop-color="#009183"/>
      <stop offset="100%" stop-color="#2ec4b6"/>
    </linearGradient>
    <linearGradient id="sun30" x1="0%" y1="0%" x2="100%" y2="100%">
      <stop offset="0%" stop-color="#ff9f1c"/>
      <stop offset="100%" stop-color="#ffbf69"/>
    </linearGradient>
    <radialGradient id="glow30" cx="50%" cy="70%" r="50%">
      <stop offset="0%" stop-color="#ff9f1c" stop-opacity="0.3"/>
      <stop offset="100%" stop-color="#2ec4b6" stop-opacity="0"/>
    </radialGradient>
  </defs><rect width="1920" height="1080" fill="url(#bg30)"/><circle cx="1345.7856117388667" cy="371.8134966147629" r="654.521249387069" fill="#ff9f1c" opacity="0.06587002249804094"/><circle cx="1545.7856117388667" cy="271.8134966147629" r="486.84099616642135" fill="#ffbf69" opacity="0.11958628978337774"/><circle cx="1407.4077710293716" cy="260.79288840079516" r="77.71029041561073" fill="url(#sun30)" opacity="0.8475753798260296"/><circle cx="1407.4077710293716" cy="260.79288840079516" r="72.71029041561073" fill="#2ec4b6" opacity="0.3"/><path d="M1404.94237872887 821.4036821670373 Q1411.5553494336912 713.9772590282321 1412.8779435746553 606.5508358894267" stroke="#007769" stroke-width="5.948605696193083" fill="none" stroke-linecap="round"/><path d="M1412.8779435746553 606.5508358894267 Q1439.2176672639832 586.5508358894267 1453.0753124465875 606.5508358894267" stroke="#009183" stroke-width="3.8696760600129316" fill="none" stroke-linecap="round" opacity="0.6"/><path d="M1412.8779435746553 606.5508358894267 Q1443.353393918173 595.2565177282802 1459.1616075650722 623.9621995671338" stroke="#009183" stroke-width="2.6096658694114687" fill="none" stroke-linecap="round" opacity="0.6"/><path d="M1412.8779435746553 606.5508358894267 Q1414.2436717383898 597.3732123431485 1396.4103648882847 628.1955887968701" stroke="#009183" stroke-width="2.366564925379717" fill="none" stroke-linecap="round" opacity="0.6"/><path d="M1412.8779435746553 606.5508358894267 Q1403.614731775915 590.5883889757666 1356.9841744174455 614.6259420621066" stroke="#009183" stroke-width="3.9586109192945553" fill="none" stroke-linecap="round" opacity="0.6"/><path d="M1412.8779435746553 606.5508358894267 Q1403.477247271969 583.9175450431223 1376.4240450029945 601.284254196818" stroke="#009183" stroke-width="3.733259924159679" fill="none" stroke-linecap="round" opacity="0.6"/><path d="M1412.8779435746553 606.5508358894267 Q1425.868318274032 581.055707860751 1404.5164294847643 595.5605798320752" stroke="#009183" stroke-width="2.1362477294486593" fill="none" stroke-linecap="round" opacity="0.6"/><path d="M528.6180716493675 867.9806785117789 Q536.0693238945839 800.88798376403 537.5595743436272 733.795289016281" stroke="#007769" stroke-width="4.045450411747548" fill="none" stroke-linecap="round"/><path d="M537.5595743436272 733.795289016281 Q571.0915258238305 713.795289016281 567.875052415271 733.795289016281" stroke="#009183" stroke-width="3.4776805246895366" fill="none" stroke-linecap="round" opacity="0.6"/><path d="M537.5595743436272 733.795289016281 Q572.44341337136 723.0201129745665 586.6032518360105 752.2449369328519" stroke="#009183" stroke-width="2.6750829207420077" fill="none" stroke-linecap="round" opacity="0.6"/><path d="M537.5595743436272 733.795289016281 Q549.6356552820956 718.8632855649912 529.8479934071279 743.9312821137013" stroke="#009183" stroke-width="2.4664379438540056" fill="none" stroke-linecap="round" opacity="0.6"/><path d="M537.5595743436272 733.795289016281 Q518.5903853450782 716.8537271219318 495.220159900453 739.9121652275827" stroke="#009183" stroke-width="2.7104451569520043" fill="none" stroke-linecap="round" opacity="0.6"/><path d="M537.5595743436272 733.795289016281 Q530.8961046147335 710.2525906529914 488.51631465714314 726.7098922897019" stroke="#009183" stroke-width="2.584204415926757" fill="none" stroke-linecap="round" opacity="0.6"/><path d="M537.5595743436272 733.795289016281 Q549.8011366784567 705.4947550503241 524.9292895990709 717.1942210843673" stroke="#009183" stroke-width="3.736482370583453" fill="none" stroke-linecap="round" opacity="0.6"/><path d="M1091.840307966769 959.0390863500161 Q1087.5122778647376 875.6959275984428 1086.6466718443314 792.3527688468696" stroke="#007769" stroke-width="7.850522619637317" fill="none" stroke-linecap="round"/><path d="M1086.6466718443314 792.3527688468696 Q1116.4450167709604 772.3527688468696 1129.6638478924672 792.3527688468696" stroke="#009183" stroke-width="2.7174834508256716" fill="none" stroke-linecap="round" opacity="0.6"/><path d="M1086.6466718443314 792.3527688468696 Q1116.1145775828647 777.8619044062034 1115.9359318730944 803.3710399655371" stroke="#009183" stroke-width="2.637872592694562" fill="none" stroke-linecap="round" opacity="0.6"/><path d="M1086.6466718443314 792.3527688468696 Q1091.51406656137 777.1719622320823 1079.3136755643384 801.9911556172948" stroke="#009183" stroke-width="3.5728516605619465" fill="none" stroke-linecap="round" opacity="0.6"/><path d="M1086.6466718443314 792.3527688468696 Q1069.5968814014223 775.5329369329759 1042.6220913410243 798.713105019082" stroke="#009183" stroke-width="2.8628564176296014" fill="none" stroke-linecap="round" opacity="0.6"/><path d="M1086.6466718443314 792.3527688468696 Q1082.5266406034734 768.8999361503927 1038.8474653575388 785.4471034539157" stroke="#009183" stroke-width="3.0232083273639923" fill="none" stroke-linecap="round" opacity="0.6"/><path d="M1086.6466718443314 792.3527688468696 Q1102.090748052594 766.582252885854 1077.8661210978914 780.8117369248384" stroke="#009183" stroke-width="3.138051834222407" fill="none" stroke-linecap="round" opacity="0.6"/><path d="M1626.2479943843205 839.6175335486461 Q1618.2949552401656 777.993848088196 1616.7043474113345 716.3701626277459" stroke="#007769" stroke-width="7.8229485069920655" fill="none" stroke-linecap="round"/><path d="M1616.7043474113345 716.3701626277459 Q1656.5938086126914 696.3701626277459 1667.8561969273387 716.3701626277459" stroke="#009183" stroke-width="3.7899407348106475" fill="none" stroke-linecap="round" opacity="0.6"/><path d="M1616.7043474113345 716.3701626277459 Q1640.396447252631 705.1789060521323 1663.5359372142752 733.9876494765189" stroke="#009183" stroke-width="2.9047386797388874" fill="none" stroke-linecap="round" opacity="0.6"/><path d="M1616.7043474113345 716.3701626277459 Q1616.6278462135483 701.8976947371068 1608.2935265217102 727.4252268464677" stroke="#009183" stroke-width="3.4316351119036868" fill="none" stroke-linecap="round" opacity="0.6"/><path d="M1616.7043474113345 716.3701626277459 Q1602.2376156512753 700.1394144703269 1564.5248000767408 723.9086663129078" stroke="#009183" stroke-width="2.21462371484717" fill="none" stroke-linecap="round" opacity="0.6"/><path d="M1616.7043474113345 716.3701626277459 Q1589.8912453063174 691.8012032729928 1553.45406834324 707.2322439182396" stroke="#009183" stroke-width="3.0865822301913477" fill="none" stroke-linecap="round" opacity="0.6"/><path d="M593.4435404728733 875.059940846418 Q606.8457518114815 765.4837913381597 609.526194079203 655.9076418299013" stroke="#007769" stroke-width="6.91875505422213" fill="none" stroke-linecap="round"/><path d="M609.526194079203 655.9076418299013 Q647.0575898462109 635.9076418299013 676.9056930306613 655.9076418299013" stroke="#009183" stroke-width="2.0397077035251323" fill="none" stroke-linecap="round" opacity="0.6"/><path d="M609.526194079203 655.9076418299013 Q630.1328296238215 639.5933550484785 629.1212488183198 663.2790682670559" stroke="#009183" stroke-width="2.30331239483862" fill="none" stroke-linecap="round" opacity="0.6"/><path d="M609.526194079203 655.9076418299013 Q603.7410385619542 646.17598847522 593.9016399820698 676.4443351205387" stroke="#009183" stroke-width="3.4662835950651867" fill="none" stroke-linecap="round" opacity="0.6"/><path d="M609.526194079203 655.9076418299013 Q602.3495085834563 639.430735028619 560.754338017499 662.9538282273365" stroke="#009183" stroke-width="3.8810589038489987" fill="none" stroke-linecap="round" opacity="0.6"/><path d="M609.526194079203 655.9076418299013 Q589.0462295251278 632.9445488608729 568.5066877444001 649.9814558918446" stroke="#009183" stroke-width="2.3984181523319377" fill="none" stroke-linecap="round" opacity="0.6"/><path d="M609.526194079203 655.9076418299013 Q604.3740663639569 625.3260402485187 593.4249840155558 634.7444386671359" stroke="#009183" stroke-width="3.672142455743659" fill="none" stroke-linecap="round" opacity="0.6"/><path d="M609.526194079203 655.9076418299013 Q638.345671306086 627.0809187949089 656.4533722888149 638.2541957599165" stroke="#009183" stroke-width="2.661187437516914" fill="none" stroke-linecap="round" opacity="0.6"/><line x1="0" y1="0" x2="0" y2="1080" stroke="#ff9f1c" stroke-opacity="0.050524948560754984" stroke-width="0.5"/><line x1="74" y1="0" x2="74" y2="1080" stroke="#ff9f1c" stroke-opacity="0.050524948560754984" stroke-width="0.5"/><line x1="148" y1="0" x2="148" y2="1080" stroke="#ff9f1c" stroke-opacity="0.050524948560754984" stroke-width="0.5"/><line x1="222" y1="0" x2="222" y2="1080" stroke="#ff9f1c" stroke-opacity="0.050524948560754984" stroke-width="0.5"/><line x1="296" y1="0" x2="296" y2="1080" stroke="#ff9f1c" stroke-opacity="0.050524948560754984" stroke-width="0.5"/><line x1="370" y1="0" x2="370" y2="1080" stroke="#ff9f1c" stroke-opacity="0.050524948560754984" stroke-width="0.5"/><line x1="444" y1="0" x2="444" y2="1080" stroke="#ff9f1c" stroke-opacity="0.050524948560754984" stroke-width="0.5"/><line x1="518" y1="0" x2="518" y2="1080" stroke="#ff9f1c" stroke-opacity="0.050524948560754984" stroke-width="0.5"/><line x1="592" y1="0" x2="592" y2="1080" stroke="#ff9f1c" stroke-opacity="0.050524948560754984" stroke-width="0.5"/><line x1="666" y1="0" x2="666" y2="1080" stroke="#ff9f1c" stroke-opacity="0.050524948560754984" stroke-width="0.5"/><line x1="740" y1="0" x2="740" y2="1080" stroke="#ff9f1c" stroke-opacity="0.050524948560754984" stroke-width="0.5"/><line x1="814" y1="0" x2="814" y2="1080" stroke="#ff9f1c" stroke-opacity="0.050524948560754984" stroke-width="0.5"/><line x1="888" y1="0" x2="888" y2="1080" stroke="#ff9f1c" stroke-opacity="0.050524948560754984" stroke-width="0.5"/><line x1="962" y1="0" x2="962" y2="1080" stroke="#ff9f1c" stroke-opacity="0.050524948560754984" stroke-width="0.5"/><line x1="1036" y1="0" x2="1036" y2="1080" stroke="#ff9f1c" stroke-opacity="0.050524948560754984" stroke-width="0.5"/><line x1="1110" y1="0" x2="1110" y2="1080" stroke="#ff9f1c" stroke-opacity="0.050524948560754984" stroke-width="0.5"/><line x1="1184" y1="0" x2="1184" y2="1080" stroke="#ff9f1c" stroke-opacity="0.050524948560754984" stroke-width="0.5"/><line x1="1258" y1="0" x2="1258" y2="1080" stroke="#ff9f1c" stroke-opacity="0.050524948560754984" stroke-width="0.5"/><line x1="1332" y1="0" x2="1332" y2="1080" stroke="#ff9f1c" stroke-opacity="0.050524948560754984" stroke-width="0.5"/><line x1="1406" y1="0" x2="1406" y2="1080" stroke="#ff9f1c" stroke-opacity="0.050524948560754984" stroke-width="0.5"/><line x1="1480" y1="0" x2="1480" y2="1080" stroke="#ff9f1c" stroke-opacity="0.050524948560754984" stroke-width="0.5"/><line x1="1554" y1="0" x2="1554" y2="1080" stroke="#ff9f1c" stroke-opacity="0.050524948560754984" stroke-width="0.5"/><line x1="1628" y1="0" x2="1628" y2="1080" stroke="#ff9f1c" stroke-opacity="0.050524948560754984" stroke-width="0.5"/><line x1="1702" y1="0" x2="1702" y2="1080" stroke="#ff9f1c" stroke-opacity="0.050524948560754984" stroke-width="0.5"/><line x1="1776" y1="0" x2="1776" y2="1080" stroke="#ff9f1c" stroke-opacity="0.050524948560754984" stroke-width="0.5"/><line x1="1850" y1="0" x2="1850" y2="1080" stroke="#ff9f1c" stroke-opacity="0.050524948560754984" stroke-width="0.5"/><line x1="0" y1="0" x2="1920" y2="0" stroke="#ff9f1c" stroke-opacity="0.050524948560754984" stroke-width="0.5"/><line x1="0" y1="74" x2="1920" y2="74" stroke="#ff9f1c" stroke-opacity="0.050524948560754984" stroke-width="0.5"/><line x1="0" y1="148" x2="1920" y2="148" stroke="#ff9f1c" stroke-opacity="0.050524948560754984" stroke-width="0.5"/><line x1="0" y1="222" x2="1920" y2="222" stroke="#ff9f1c" stroke-opacity="0.050524948560754984" stroke-width="0.5"/><line x1="0" y1="296" x2="1920" y2="296" stroke="#ff9f1c" stroke-opacity="0.050524948560754984" stroke-width="0.5"/><line x1="0" y1="370" x2="1920" y2="370" stroke="#ff9f1c" stroke-opacity="0.050524948560754984" stroke-width="0.5"/><line x1="0" y1="444" x2="1920" y2="444" stroke="#ff9f1c" stroke-opacity="0.050524948560754984" stroke-width="0.5"/><line x1="0" y1="518" x2="1920" y2="518" stroke="#ff9f1c" stroke-opacity="0.050524948560754984" stroke-width="0.5"/><line x1="0" y1="592" x2="1920" y2="592" stroke="#ff9f1c" stroke-opacity="0.050524948560754984" stroke-width="0.5"/><line x1="0" y1="666" x2="1920" y2="666" stroke="#ff9f1c" stroke-opacity="0.050524948560754984" stroke-width="0.5"/><line x1="0" y1="740" x2="1920" y2="740" stroke="#ff9f1c" stroke-opacity="0.050524948560754984" stroke-width="0.5"/><line x1="0" y1="814" x2="1920" y2="814" stroke="#ff9f1c" stroke-opacity="0.050524948560754984" stroke-width="0.5"/><line x1="0" y1="888" x2="1920" y2="888" stroke="#ff9f1c" stroke-opacity="0.050524948560754984" stroke-width="0.5"/><line x1="0" y1="962" x2="1920" y2="962" stroke="#ff9f1c" stroke-opacity="0.050524948560754984" stroke-width="0.5"/><line x1="0" y1="1036" x2="1920" y2="1036" stroke="#ff9f1c" stroke-opacity="0.050524948560754984" stroke-width="0.5"/><rect x="0" y="1000" width="1920" height="80" fill="#089e90" opacity="0.8"/><line x1="0" y1="1040" x2="1920" y2="1040" stroke="#ffbf69" stroke-opacity="0.15" stroke-width="2" stroke-dasharray="30,20"/><rect x="0" y="930" width="1920" height="150" fill="url(#glow30)"/><text x="1900" y="1060" font-family="Arial, sans-serif" font-size="11" fill="#fff" opacity="0.08" text-anchor="end" letter-spacing="2">GTA 6 REWARDS · WALLPAPER 031</text>
</svg>