<?xml version="1.0" encoding="UTF-8"?>
<svg xmlns="http://www.w3.org/2000/svg" width="1920" height="1080" viewBox="0 0 1920 1080">
<defs>
    <linearGradient id="bg46" x1="0%" y1="0%" x2="0%" y2="100%">
      <stop offset="0%" stop-color="#264653"/>
      <stop offset="50%" stop-color="#001320"/>
      <stop offset="100%" stop-color="#264653"/>
    </linearGradient>
    <linearGradient id="sun46" x1="0%" y1="0%" x2="100%" y2="100%">
      <stop offset="0%" stop-color="#f4a261"/>
      <stop offset="100%" stop-color="#e76f51"/>
    </linearGradient>
    <radialGradient id="glow46" cx="50%" cy="70%" r="50%">
      <stop offset="0%" stop-color="#f4a261" stop-opacity="0.3"/>
      <stop offset="100%" stop-color="#264653" stop-opacity="0"/>
    </radialGradient>
  </defs><rect width="1920" height="1080" fill="url(#bg46)"/><circle cx="1398.296825284673" cy="376.8707267420531" r="838.2985194070028" fill="#f4a261" opacity="0.07250888622889969"/><circle cx="1598.296825284673" cy="276.8707267420531" r="454.6707686629777" fill="#e76f51" opacity="0.09919513863725475"/><line x1="0" y1="980" x2="1920" y2="980" stroke="#e76f51" stroke-opacity="0.05" stroke-width="2"/><line x1="0" y1="935" x2="1920" y2="935" stroke="#e76f51" stroke-opacity="0.049" stroke-width="0.5"/><line x1="0" y1="890" x2="1920" y2="890" stroke="#e76f51" stroke-opacity="0.048" stroke-width="0.5"/><line x1="0" y1="845" x2="1920" y2="845" stroke="#e76f51" stroke-opacity="0.047" stroke-width="0.5"/><line x1="0" y1="800" x2="1920" y2="800" stroke="#e76f51" stroke-opacity="0.046" stroke-width="0.5"/><line x1="0" y1="755" x2="1920" y2="755" stroke="#e76f51" stroke-opacity="0.045" stroke-width="0.5"/><line x1="0" y1="710" x2="1920" y2="710" stroke="#e76f51" stroke-opacity="0.044" stroke-width="0.5"/><line x1="0" y1="665" x2="1920" y2="665" stroke="#e76f51" stroke-opacity="0.043" stroke-width="0.5"/><line x1="0" y1="620" x2="1920" y2="620" stroke="#e76f51" stroke-opacity="0.041999999999999996" stroke-width="0.5"/><line x1="0" y1="575" x2="1920" y2="575" stroke="#e76f51" stroke-opacity="0.041" stroke-width="0.5"/><line x1="0" y1="530" x2="1920" y2="530" stroke="#e76f51" stroke-opacity="0.04" stroke-width="0.5"/><line x1="0" y1="485" x2="1920" y2="485" stroke="#e76f51" stroke-opacity="0.039" stroke-width="0.5"/><line x1="0" y1="440" x2="1920" y2="440" stroke="#e76f51" stroke-opacity="0.038" stroke-width="0.5"/><line x1="0" y1="395" x2="1920" y2="395" stroke="#e76f51" stroke-opacity="0.037" stroke-width="0.5"/><line x1="0" y1="350" x2="1920" y2="350" stroke="#e76f51" stroke-opacity="0.036" stroke-width="0.5"/><line x1="0" y1="305" x2="1920" y2="305" stroke="#e76f51" stroke-opacity="0.034999999999999996" stroke-width="0.5"/><line x1="0" y1="260" x2="1920" y2="260" stroke="#e76f51" stroke-opacity="0.033999999999999996" stroke-width="0.5"/><line x1="0" y1="215" x2="1920" y2="215" stroke="#e76f51" stroke-opacity="0.033" stroke-width="0.5"/><line x1="0" y1="170" x2="1920" y2="170" stroke="#e76f51" stroke-opacity="0.032" stroke-width="0.5"/><line x1="0" y1="125" x2="1920" y2="125" stroke="#e76f51" stroke-opacity="0.031" stroke-width="0.5"/><line x1="560" y1="1080" x2="860" y2="580" stroke="#f4a261" stroke-opacity="0.04" stroke-width="1"/><line x1="640" y1="1080" x2="880" y2="590" stroke="#f4a261" stroke-opacity="0.04" stroke-width="1"/><line x1="720" y1="1080" x2="900" y2="600" stroke="#f4a261" stroke-opacity="0.04" stroke-width="1"/><line x1="800" y1="1080" x2="920" y2="610" stroke="#f4a261" stroke-opacity="0.04" stroke-width="1"/><line x1="880" y1="1080" x2="940" y2="620" stroke="#f4a261" stroke-opacity="0.04" stroke-width="1"/><line x1="960" y1="1080" x2="960" y2="630" stroke="#f4a261" stroke-opacity="0.04" stroke-width="1"/><line x1="1040" y1="1080" x2="980" y2="620" stroke="#f4a261" stroke-opacity="0.04" stroke-width="1"/><line x1="1120" y1="1080" x2="1000" y2="610" stroke="#f4a261" stroke-opacity="0.04" stroke-width="1"/><line x1="1200" y1="1080" x2="1020" y2="600" stroke="#f4a261" stroke-opacity="0.04" stroke-width="1"/><line x1="1280" y1="1080" x2="1040" y2="590" stroke="#f4a261" stroke-opacity="0.04" stroke-width="1"/><line x1="1360" y1="1080" x2="1060" y2="580" stroke="#f4a261" stroke-opacity="0.04" stroke-width="1"/><circle cx="1221.190056046748" cy="373.1677721774131" r="60.208686795134255" fill="url(#sun46)" opacity="0.7466598188147553"/><circle cx="1221.190056046748" cy="373.1677721774131" r="55.208686795134255" fill="#264653" opacity="0.3"/><circle cx="1834.2333072224244" cy="90.372086382092" r="1.5376785501226966" fill="#fff" opacity="0.7347793723304707"/><circle cx="518.6180548087269" cy="17.813203424637486" r="0.9175721109885657" fill="#fff" opacity="0.394008024687415"/><circle cx="1899.251770819363" cy="265.3490871473563" r="0.991705760008587" fill="#fff" opacity="0.411704338158412"/><circle cx="1270.7485045471108" cy="175.17059275488617" r="0.6957051631053224" fill="#fff" opacity="0.46281939751068585"/><circle cx="963.8745629051408" cy="311.29995278439014" r="0.8014079058313295" fill="#fff" opacity="0.5796065521379017"/><circle cx="1711.6218883804097" cy="217.50704045815093" r="0.8526595951646239" fill="#fff" opacity="0.7976815890515414"/><circle cx="1629.9978513340461" cy="82.86479748852197" r="1.3825386097614043" fill="#fff" opacity="0.639299550615088"/><circle cx="1172.5189508247465" cy="177.13785365995435" r="1.0579107125657403" fill="#fff" opacity="0.7491806850650302"/><circle cx="1498.874796232878" cy="147.2170576870481" r="1.866106847968443" fill="#fff" opacity="0.256265399944099"/><circle cx="1198.6396755088679" cy="220.89057169409713" r="1.2766473894651624" fill="#fff" opacity="0.6697931782504993"/><circle cx="1525.6878142630885" cy="237.88914566065395" r="1.1039279037164356" fill="#fff" opacity="0.3124063259718023"/><circle cx="1428.4211422848564" cy="285.48783659876506" r="0.5401961773261885" fill="#fff" opacity="0.26030986198697004"/><circle cx="956.8109153948749" cy="152.36296811894584" r="1.844522605264681" fill="#fff" opacity="0.37231791051391466"/><circle cx="1031.314354481016" cy="288.5906862953191" r="1.0466631393755468" fill="#fff" opacity="0.6648387294413611"/><circle cx="958.222111388627" cy="156.8596082843979" r="1.6179473562207882" fill="#fff" opacity="0.692559859038461"/><circle cx="772.6986673783275" cy="178.43058332112398" r="1.4271471822697546" fill="#fff" opacity="0.4517923907497414"/><circle cx="1525.0543913815764" cy="279.65614945992274" r="1.0892061329421603" fill="#fff" opacity="0.7925998614618088"/><circle cx="1086.7097441402054" cy="418.41471842360096" r="0.7546639994845409" fill="#fff" opacity="0.5182800787310768"/><circle cx="257.59408062733576" cy="109.2776928537706" r="0.6808275699570839" fill="#fff" opacity="0.30266200380927466"/><circle cx="1599.2717929927799" cy="405.98464230959877" r="0.5849911340244559" fill="#fff" opacity="0.5494682650895483"/><circle cx="927.7115622832699" cy="346.51334246120257" r="0.670599042361276" fill="#fff" opacity="0.717398170641949"/><circle cx="393.0207065662883" cy="233.31314151205893" r="1.2561773954090145" fill="#fff" opacity="0.44225868807226854"/><circle cx="1102.2769097570042" cy="429.5553520241648" r="1.9889475742794918" fill="#fff" opacity="0.3184226092226856"/><circle cx="239.30561324565335" cy="242.30344318279614" r="1.42926108951896" fill="#fff" opacity="0.590607353157971"/><circle cx="1029.514640958401" cy="296.4313220028838" r="1.3558507732478553" fill="#fff" opacity="0.23169518379301188"/><circle cx="1062.2531651943582" cy="23.81891225087897" r="1.0163331839759677" fill="#fff" opacity="0.3171401238341677"/><circle cx="702.9674025026541" cy="355.86199935988105" r="1.066436765265287" fill="#fff" opacity="0.40208608792212003"/><circle cx="1281.2890772524497" cy="215.80900078448678" r="0.6836264672883847" fill="#fff" opacity="0.7976250234985782"/><circle cx="885.1435377274508" cy="395.24821452313296" r="1.9769996937776448" fill="#fff" opacity="0.7739602353363204"/><circle cx="729.9011288792595" cy="209.99996258737517" r="0.7303080052906433" fill="#fff" opacity="0.49230918048236266"/><circle cx="1184.9824380653404" cy="5.384147321196307" r="0.8495405489461358" fill="#fff" opacity="0.5739614121555261"/><circle cx="851.3868599132138" cy="343.9828791189899" r="0.9686845866890356" fill="#fff" opacity="0.6728168236726935"/><circle cx="473.4103288858687" cy="277.8347019864793" r="1.1715285419885835" fill="#fff" opacity="0.7840773837138146"/><circle cx="770.4904395645694" cy="89.160062076794" r="0.9378873412352724" fill="#fff" opacity="0.6918855157894747"/><circle cx="742.5561173498994" cy="316.63768766369617" r="1.8531904039795488" fill="#fff" opacity="0.4458296541696949"/><circle cx="1764.1752987737245" cy="176.9594477678089" r="1.2878854132229196" fill="#fff" opacity="0.49377945291199243"/><circle cx="1593.737870974871" cy="7.922264011558672" r="1.7947774243761732" fill="#fff" opacity="0.5200265147537055"/><circle cx="1906.2530261246145" cy="29.28847542341996" r="0.6235061711919275" fill="#fff" opacity="0.24827100975631528"/><circle cx="938.9735946755329" cy="225.3894423845665" r="1.5574399408785253" fill="#fff" opacity="0.2025182437623195"/><circle cx="1147.666382609789" cy="419.7011831821178" r="1.8265647636322688" fill="#fff" opacity="0.20487988661156967"/><circle cx="1013.42669585101" cy="184.74816009978488" r="0.8596494416379485" fill="#fff" opacity="0.4426469262322986"/><circle cx="1342.5902611162958" cy="347.9877721024649" r="1.3773612660303156" fill="#fff" opacity="0.5197064047026696"/><circle cx="1374.653804324254" cy="370.12813863952834" r="1.5924474376003368" fill="#fff" opacity="0.36017664860938137"/><circle cx="377.54902624933726" cy="118.88255657043368" r="0.6941126371254476" fill="#fff" opacity="0.20377458906820384"/><circle cx="1614.6600329165021" cy="351.94422650335923" r="1.8984928817717575" fill="#fff" opacity="0.7440926757976629"/><circle cx="60.96666903723187" cy="190.14900095345197" r="1.155888442917701" fill="#fff" opacity="0.7042729023621122"/><circle cx="890.770811347936" cy="203.85204904057366" r="1.0691305636589252" fill="#fff" opacity="0.2312300655597891"/><circle cx="1416.014396281916" cy="304.0119297504453" r="1.7016657104719584" fill="#fff" opacity="0.658466101172023"/><circle cx="526.7205853496494" cy="44.83685508296752" r="0.9501532926108114" fill="#fff" opacity="0.21289207423406004"/><circle cx="1277.4746438855013" cy="60.10236321298926" r="0.6856055949315442" fill="#fff" opacity="0.2784112340021905"/><circle cx="729.8733586282175" cy="390.01587345963713" r="1.9592333143714893" fill="#fff" opacity="0.4925193143758269"/><circle cx="116.57268675895703" cy="277.7854573330343" r="0.9381300427341205" fill="#fff" opacity="0.32077311936783914"/><circle cx="424.3029920254608" cy="398.802798341681" r="1.8646202116190969" fill="#fff" opacity="0.3446845743676379"/><circle cx="1796.6888339530417" cy="92.46081745914668" r="0.7237115543623714" fill="#fff" opacity="0.7326712190482465"/><circle cx="1731.670079336425" cy="380.9299599558418" r="1.6833162844840708" fill="#fff" opacity="0.6853111455881296"/><circle cx="475.50870012387367" cy="413.7665482009217" r="1.459983554077331" fill="#fff" opacity="0.4893522814124246"/><circle cx="1771.5756721449027" cy="298.46967465674265" r="1.279388525006219" fill="#fff" opacity="0.37344197653546973"/><circle cx="289.9057956714895" cy="13.501873961999518" r="1.34253195494938" fill="#fff" opacity="0.3517969009819899"/><circle cx="1098.638597833607" cy="326.10313320674544" r="1.732287818852879" fill="#fff" opacity="0.2748711190360764"/><circle cx="1839.1326825132437" cy="194.51142046286526" r="0.6515777020602436" fill="#fff" opacity="0.6637348065301159"/><circle cx="1418.1636691415133" cy="135.00845462246994" r="1.9835529670779484" fill="#fff" opacity="0.7954589937337346"/><circle cx="1645.9073986965016" cy="417.38081224294865" r="0.8154637323029954" fill="#fff" opacity="0.42543336623940464"/><circle cx="1875.166974653296" cy="299.7994688925798" r="1.1546314990042317" fill="#fff" opacity="0.534992822663624"/><circle cx="725.958664288269" cy="379.7561966580702" r="0.6075857247010772" fill="#fff" opacity="0.570015688652642"/><circle cx="1036.0235294131617" cy="67.99875902850152" r="1.1208518693737806" fill="#fff" opacity="0.723913209681379"/><circle cx="1711.1785603573496" cy="423.735131228281" r="1.25435711111742" fill="#fff" opacity="0.507139519394175"/><circle cx="878.1174237090437" cy="217.65878847838817" r="1.4757360157034678" fill="#fff" opacity="0.3975989683525635"/><circle cx="348.561990640257" cy="180.22574306750337" r="0.6116871634991111" fill="#fff" opacity="0.2498656236682706"/><circle cx="1035.1765892829692" cy="51.42604243835109" r="0.9770621574663236" fill="#fff" opacity="0.5709518020904977"/><circle cx="970.0437004142542" cy="421.15755347655096" r="0.9383517615353576" fill="#fff" opacity="0.4293061935876743"/><rect x="24.20544177391693" y="736.7348967787658" width="54.756104076457234" height="219.50332844152658" fill="#0c2c39" opacity="0.6767243504237208" rx="2"/><rect x="49.26925897977065" y="746.7348967787658" width="4.628469664749799" height="9.207365904750155" fill="#e76f51" opacity="0.35686737714728045" rx="1"/><rect x="35.58023296065634" y="751.3385797311408" width="4.628469664749799" height="9.207365904750155" fill="#f4a261" opacity="0.17843368857364023" rx="1"/><rect x="47.43251025547099" y="774.1728128339566" width="8.301967113349114" height="7.474268102430335" fill="#e76f51" opacity="0.10278980517824875" rx="1"/><rect x="33.74348423635668" y="777.9099468851718" width="8.301967113349114" height="7.474268102430335" fill="#f4a261" opacity="0.051394902589124374" rx="1"/><rect x="47.50347811693872" y="801.6107288891475" width="8.16003139041365" height="6.523437786037903" fill="#e76f51" opacity="0.524370630277407" rx="1"/><rect x="33.814452097824415" y="804.8724477821664" width="8.16003139041365" height="6.523437786037903" fill="#f4a261" opacity="0.2621853151387035" rx="1"/><rect x="47.8731372884645" y="829.0486449443383" width="7.420713047362099" height="7.559303461005749" fill="#e76f51" opacity="0.29080565839326145" rx="1"/><rect x="34.18411126935019" y="832.8282966748412" width="7.420713047362099" height="7.559303461005749" fill="#f4a261" opacity="0.14540282919663072" rx="1"/><rect x="47.925836309540514" y="856.486560999529" width="7.315315005210069" height="6.001741006970811" fill="#e76f51" opacity="0.3304622945912328" rx="1"/><rect x="34.236810290426206" y="859.4874315030145" width="7.315315005210069" height="6.001741006970811" fill="#f4a261" opacity="0.1652311472956164" rx="1"/><rect x="47.876639391965384" y="883.9244770547199" width="7.413708840360332" height="9.018203638265422" fill="#e76f51" opacity="0.18526896792120975" rx="1"/><rect x="34.187613372851075" y="888.4335788738526" width="7.413708840360332" height="9.018203638265422" fill="#f4a261" opacity="0.09263448396060488" rx="1"/><rect x="45.89153266066954" y="911.3623931099107" width="11.38392230295202" height="8.040742376363077" fill="#e76f51" opacity="0.38768276907216825" rx="1"/><rect x="32.20250664155523" y="915.3827642980923" width="11.38392230295202" height="8.040742376363077" fill="#f4a261" opacity="0.19384138453608413" rx="1"/><rect x="47.9749338130874" y="938.8003091651016" width="7.217119998116306" height="9.963162121354408" fill="#e76f51" opacity="0.12039431641353163" rx="1"/><rect x="34.28590779397309" y="943.7818902257787" width="7.217119998116306" height="9.963162121354408" fill="#f4a261" opacity="0.06019715820676581" rx="1"/><rect x="125.17533312905005" y="754.1612978801506" width="71.11384204149103" height="202.0769273401417" fill="#0c2c39" opacity="0.5300604825210898" rx="2"/><rect x="155.7205052605645" y="764.1612978801506" width="10.02349777846213" height="8.342147687995375" fill="#e76f51" opacity="0.5979809742649042" rx="1"/><rect x="137.94204475019174" y="768.3323717241483" width="10.02349777846213" height="8.342147687995375" fill="#f4a261" opacity="0.2989904871324521" rx="1"/><rect x="155.1951747700095" y="793.0294303573137" width="11.074158759572114" height="9.386781622512913" fill="#e76f51" opacity="0.5448043652681644" rx="1"/><rect x="137.41671425963673" y="797.7228211685701" width="11.074158759572114" height="9.386781622512913" fill="#f4a261" opacity="0.2724021826340822" rx="1"/><rect x="156.81024302630922" y="821.8975628344768" width="7.8440222469726635" height="6.3004844208016255" fill="#e76f51" opacity="0.4630718937756195" rx="1"/><rect x="139.03178251593647" y="825.0478050448777" width="7.8440222469726635" height="6.3004844208016255" fill="#f4a261" opacity="0.23153594688780976" rx="1"/><rect x="155.10662703451388" y="850.76569531164" width="11.251254230563354" height="6.670356020487462" fill="#e76f51" opacity="0.4656882808696684" rx="1"/><rect x="137.32816652414112" y="854.1008733218837" width="11.251254230563354" height="6.670356020487462" fill="#f4a261" opacity="0.2328441404348342" rx="1"/><rect x="155.4923386235005" y="879.633827788803" width="10.479831052590121" height="8.997563114156378" fill="#e76f51" opacity="0.5546939390606" rx="1"/><rect x="137.71387811312775" y="884.1326093458813" width="10.479831052590121" height="8.997563114156378" fill="#f4a261" opacity="0.2773469695303" rx="1"/><rect x="158.64411899392587" y="908.5019602659661" width="4.1762703117393585" height="8.829151447589776" fill="#e76f51" opacity="0.21104858587753228" rx="1"/><rect x="140.86565848355312" y="912.916535989761" width="4.1762703117393585" height="8.829151447589776" fill="#f4a261" opacity="0.10552429293876614" rx="1"/><rect x="155.29793271103358" y="937.3700927431292" width="10.868642877523937" height="7.625883579632706" fill="#e76f51" opacity="0.16840586477620664" rx="1"/><rect x="137.51947220066083" y="941.1830345329456" width="10.868642877523937" height="7.625883579632706" fill="#f4a261" opacity="0.08420293238810332" rx="1"/><rect x="250.35783028471232" y="839.7131476993005" width="33.465097114319235" height="116.52507752099193" fill="#264653" opacity="0.5813486999788668" rx="2"/><rect x="264.67224466932754" y="849.7131476993005" width="4.836268345088761" height="6.758551970300859" fill="#e76f51" opacity="0.30857730349725515" rx="1"/><rect x="256.30597039074775" y="853.092423684451" width="4.836268345088761" height="6.758551970300859" fill="#f4a261" opacity="0.15428865174862758" rx="1"/><rect x="263.2374925260054" y="888.5548402062979" width="7.70577263173316" height="7.341733478322098" fill="#e76f51" opacity="0.3493038332903068" rx="1"/><rect x="254.87121824742556" y="892.2257069454589" width="7.70577263173316" height="7.341733478322098" fill="#f4a261" opacity="0.1746519166451534" rx="1"/><rect x="264.01020861440577" y="927.3965327132952" width="6.160340454932381" height="6.393387258144418" fill="#e76f51" opacity="0.4587862931561625" rx="1"/><rect x="255.64393433582595" y="930.5932263423674" width="6.160340454932381" height="6.393387258144418" fill="#f4a261" opacity="0.22939314657808124" rx="1"/><rect x="365.62390262159147" y="705.6953886886349" width="72.11185181096937" height="250.54283653165746" fill="#264653" opacity="0.4804315179075188" rx="2"/><rect x="397.4523374215822" y="715.6953886886349" width="8.454982210987943" height="6.9045903442671035" fill="#e76f51" opacity="0.293396759497327" rx="1"/><rect x="379.4243744688398" y="719.1476838607684" width="8.454982210987943" height="6.9045903442671035" fill="#f4a261" opacity="0.1466983797486635" rx="1"/><rect x="396.4811892936661" y="751.4872224788717" width="10.397278466820083" height="6.1982070403635054" fill="#e76f51" opacity="0.12024658991029641" rx="1"/><rect x="378.4532263409237" y="754.5863259990534" width="10.397278466820083" height="6.1982070403635054" fill="#f4a261" opacity="0.060123294955148204" rx="1"/><rect x="396.3075235428539" y="787.2790562691084" width="10.744609968444475" height="7.206923941431317" fill="#e76f51" opacity="0.4448410159546977" rx="1"/><rect x="378.27956059011154" y="790.8825182398241" width="10.744609968444475" height="7.206923941431317" fill="#f4a261" opacity="0.22242050797734886" rx="1"/><rect x="395.70223845045604" y="823.0708900593453" width="11.95518015324026" height="7.752909761330325" fill="#e76f51" opacity="0.41926730515418276" rx="1"/><rect x="377.67427549771367" y="826.9473449400105" width="11.95518015324026" height="7.752909761330325" fill="#f4a261" opacity="0.20963365257709138" rx="1"/><rect x="395.92103930537615" y="858.862723849582" width="11.517578443399998" height="9.050443672353971" fill="#e76f51" opacity="0.11454078615981639" rx="1"/><rect x="377.8930763526338" y="863.3879456857591" width="11.517578443399998" height="9.050443672353971" fill="#f4a261" opacity="0.057270393079908194" rx="1"/><rect x="395.7882122115205" y="894.6545576398188" width="11.78323263111134" height="6.15155654124719" fill="#e76f51" opacity="0.2783122304310818" rx="1"/><rect x="377.7602492587781" y="897.7303359104424" width="11.78323263111134" height="6.15155654124719" fill="#f4a261" opacity="0.1391561152155409" rx="1"/><rect x="396.19789565801574" y="930.4463914300557" width="10.96386573812083" height="8.424049759848055" fill="#e76f51" opacity="0.2274005599849393" rx="1"/><rect x="378.16993270527337" y="934.6584163099797" width="10.96386573812083" height="8.424049759848055" fill="#f4a261" opacity="0.11370027999246965" rx="1"/><rect x="451.8437156923683" y="678.331937321539" width="82.50032566313173" height="277.90628789875336" fill="#0c2c39" opacity="0.5094525374959811" rx="2"/><rect x="489.5667519812861" y="688.331937321539" width="7.054253085296194" height="8.478181820939803" fill="#e76f51" opacity="0.46567849208733036" rx="1"/><rect x="468.9416705655031" y="692.571028232009" width="7.054253085296194" height="8.478181820939803" fill="#f4a261" opacity="0.23283924604366518" rx="1"/><rect x="487.18884958470915" y="743.9131949012897" width="11.810057878450039" height="7.9489303449981215" fill="#e76f51" opacity="0.34538676562844467" rx="1"/><rect x="466.5637681689262" y="747.8876600737888" width="11.810057878450039" height="7.9489303449981215" fill="#f4a261" opacity="0.17269338281422233" rx="1"/><rect x="488.6845200042437" y="799.4944524810404" width="8.818717039380855" height="8.276809965790438" fill="#e76f51" opacity="0.42373973513574803" rx="1"/><rect x="468.05943858846075" y="803.6328574639356" width="8.818717039380855" height="8.276809965790438" fill="#f4a261" opacity="0.21186986756787402" rx="1"/><rect x="490.85505197706055" y="855.075710060791" width="4.477653093747248" height="7.885657804525843" fill="#e76f51" opacity="0.47838474367241957" rx="1"/><rect x="470.2299705612776" y="859.018538963054" width="4.477653093747248" height="7.885657804525843" fill="#f4a261" opacity="0.23919237183620978" rx="1"/><rect x="487.78722137836445" y="910.6569676405418" width="10.613314291139439" height="8.985945299962989" fill="#e76f51" opacity="0.3488592040605981" rx="1"/><rect x="467.1621399625815" y="915.1499402905233" width="10.613314291139439" height="8.985945299962989" fill="#f4a261" opacity="0.17442960203029906" rx="1"/><rect x="573.1254256919784" y="855.1159851963437" width="55.22048894903168" height="101.12224002394878" fill="#0c2c39" opacity="0.5505669588108004" rx="2"/><rect x="595.815853618741" y="865.1159851963437" width="9.839633095506493" height="9.292100334375188" fill="#e76f51" opacity="0.3671513775752744" rx="1"/><rect x="582.0107313814831" y="869.7620353635313" width="9.839633095506493" height="9.292100334375188" fill="#f4a261" opacity="0.1835756887876372" rx="1"/><rect x="596.3300196452369" y="898.82339853766" width="8.81130104251469" height="9.398514577978876" fill="#e76f51" opacity="0.47005159104476957" rx="1"/><rect x="582.524897407979" y="903.5226558266494" width="8.81130104251469" height="9.398514577978876" fill="#f4a261" opacity="0.23502579552238478" rx="1"/><rect x="597.5531864763594" y="932.5308118789762" width="6.364967380269656" height="6.421026644394972" fill="#e76f51" opacity="0.1879753732792976" rx="1"/><rect x="583.7480642391015" y="935.7413252011737" width="6.364967380269656" height="6.421026644394972" fill="#f4a261" opacity="0.0939876866396488" rx="1"/><rect x="703.13087923758" y="748.8014831903395" width="55.04524911405641" height="207.436742029953" fill="#0c2c39" opacity="0.6793023618355631" rx="2"/><rect x="728.2365679771725" y="758.8014831903395" width="4.833871634871203" height="9.593118048178292" fill="#e76f51" opacity="0.37247203753154545" rx="1"/><rect x="714.4752556986584" y="763.5980422144286" width="4.833871634871203" height="9.593118048178292" fill="#f4a261" opacity="0.18623601876577273" rx="1"/><rect x="726.0703754227308" y="793.374273528665" width="9.166256743754786" height="7.852945792920176" fill="#e76f51" opacity="0.400844197813618" rx="1"/><rect x="712.3090631442167" y="797.300746425125" width="9.166256743754786" height="7.852945792920176" fill="#f4a261" opacity="0.200422098906809" rx="1"/><rect x="727.0523748882238" y="827.9470638669904" width="7.202257812768746" height="8.427891467331882" fill="#e76f51" opacity="0.29746874626666975" rx="1"/><rect x="713.2910626097097" y="832.1610096006564" width="7.202257812768746" height="8.427891467331882" fill="#f4a261" opacity="0.14873437313333487" rx="1"/><rect x="725.9136812134911" y="862.5198542053159" width="9.479645162234" height="7.353397304507298" fill="#e76f51" opacity="0.15943836156731434" rx="1"/><rect x="712.1523689349771" y="866.1965528575696" width="9.479645162234" height="7.353397304507298" fill="#f4a261" opacity="0.07971918078365717" rx="1"/><rect x="727.5720668771705" y="897.0926445436414" width="6.16287383487515" height="7.866515379833643" fill="#e76f51" opacity="0.408255321883656" rx="1"/><rect x="713.8107545986564" y="901.0259022335582" width="6.16287383487515" height="7.866515379833643" fill="#f4a261" opacity="0.204127660941828" rx="1"/><rect x="726.0910527191803" y="931.6654348819669" width="9.12490215085561" height="7.47402460255521" fill="#e76f51" opacity="0.18353986511555032" rx="1"/><rect x="712.3297404406662" y="935.4024471832445" width="9.12490215085561" height="7.47402460255521" fill="#f4a261" opacity="0.09176993255777516" rx="1"/><rect x="814.3498828714596" y="834.7265818120741" width="80.93620758758303" height="121.51164340821832" fill="#0c2c39" opacity="0.5848433941101756" rx="2"/><rect x="851.0684133307236" y="844.7265818120741" width="7.499146669055136" height="9.261586651965414" fill="#e76f51" opacity="0.258520182165904" rx="1"/><rect x="830.8343614338278" y="849.3573751380568" width="7.499146669055136" height="9.261586651965414" fill="#f4a261" opacity="0.129260091082952" rx="1"/><rect x="851.3991792095823" y="885.2304629481469" width="6.837614911337759" height="9.42337347646788" fill="#e76f51" opacity="0.16083419699241272" rx="1"/><rect x="831.1651273126864" y="889.9421496863808" width="6.837614911337759" height="9.42337347646788" fill="#f4a261" opacity="0.08041709849620636" rx="1"/><rect x="849.684217614281" y="925.7343440842196" width="10.267538101940309" height="8.097492818277676" fill="#e76f51" opacity="0.1222996359277283" rx="1"/><rect x="829.4501657173852" y="929.7830904933585" width="10.267538101940309" height="8.097492818277676" fill="#f4a261" opacity="0.06114981796386415" rx="1"/><rect x="913.477256217384" y="772.5170031009515" width="80.2421457856526" height="183.72122211934095" fill="#0c2c39" opacity="0.5686926252135758" rx="2"/><rect x="948.1883029242018" y="782.5170031009515" width="10.820052372016956" height="8.296505867106958" fill="#e76f51" opacity="0.5555056460563805" rx="1"/><rect x="928.1277664777887" y="786.665256034505" width="10.820052372016956" height="8.296505867106958" fill="#f4a261" opacity="0.27775282302819027" rx="1"/><rect x="948.2973271928023" y="808.762891975143" width="10.602003834816163" height="8.481854905020878" fill="#e76f51" opacity="0.4607151118015673" rx="1"/><rect x="928.2367907463891" y="813.0038194276534" width="10.602003834816163" height="8.481854905020878" fill="#f4a261" opacity="0.23035755590078366" rx="1"/><rect x="951.2815914676248" y="835.0087808493346" width="4.6334752851709435" height="8.201156773185627" fill="#e76f51" opacity="0.5224355701409363" rx="1"/><rect x="931.2210550212117" y="839.1093592359274" width="4.6334752851709435" height="8.201156773185627" fill="#f4a261" opacity="0.26121778507046817" rx="1"/><rect x="951.0708448635579" y="861.2546697235261" width="5.054968493304907" height="8.89059224233278" fill="#e76f51" opacity="0.2860906188809524" rx="1"/><rect x="931.0103084171448" y="865.6999658446925" width="5.054968493304907" height="8.89059224233278" fill="#f4a261" opacity="0.1430453094404762" rx="1"/><rect x="951.3738682969412" y="887.5005585977177" width="4.448921626538253" height="9.537111447084953" fill="#e76f51" opacity="0.5707404990845222" rx="1"/><rect x="931.313331850528" y="892.2691143212602" width="4.448921626538253" height="9.537111447084953" fill="#f4a261" opacity="0.2853702495422611" rx="1"/><rect x="948.0194510987538" y="913.7464474719093" width="11.15775602291286" height="9.990761470978791" fill="#e76f51" opacity="0.30200359569909135" rx="1"/><rect x="927.9589146523407" y="918.7418282073987" width="11.15775602291286" height="9.990761470978791" fill="#f4a261" opacity="0.15100179784954568" rx="1"/><rect x="949.8131389717602" y="939.9923363461008" width="7.570380276900339" height="7.740675056758494" fill="#e76f51" opacity="0.374282705335478" rx="1"/><rect x="929.752602525347" y="943.86267387448" width="7.570380276900339" height="7.740675056758494" fill="#f4a261" opacity="0.187141352667739" rx="1"/><rect x="1036.2979913261481" y="703.7266079461497" width="41.087117789100645" height="252.51161727414274" fill="#0c2c39" opacity="0.6572950647811626" rx="2"/><rect x="1053.6441091249335" y="713.7266079461497" width="6.394882191530169" height="7.969201292369794" fill="#e76f51" opacity="0.12032307663939966" rx="1"/><rect x="1043.3723296776582" y="717.7112085923345" width="6.394882191530169" height="7.969201292369794" fill="#f4a261" opacity="0.06016153831969983" rx="1"/><rect x="1053.9549781631108" y="745.2905601054175" width="5.773144115175387" height="9.269702033901051" fill="#e76f51" opacity="0.2944112143699106" rx="1"/><rect x="1043.6831987158355" y="749.925411122368" width="5.773144115175387" height="9.269702033901051" fill="#f4a261" opacity="0.1472056071849553" rx="1"/><rect x="1053.4004981933163" y="776.8545122646854" width="6.882104054764403" height="6.901445197151379" fill="#e76f51" opacity="0.32400259674154286" rx="1"/><rect x="1043.128718746041" y="780.305234863261" width="6.882104054764403" height="6.901445197151379" fill="#f4a261" opacity="0.16200129837077143" rx="1"/><rect x="1052.2348548046396" y="808.4184644239532" width="9.213390832118083" height="6.494557464610449" fill="#e76f51" opacity="0.23017483605774466" rx="1"/><rect x="1041.9630753573642" y="811.6657431562584" width="9.213390832118083" height="6.494557464610449" fill="#f4a261" opacity="0.11508741802887233" rx="1"/><rect x="1054.4261782391525" y="839.982416583221" width="4.830743963092273" height="9.615610859267322" fill="#e76f51" opacity="0.24746547039772046" rx="1"/><rect x="1044.1543987918772" y="844.7902220128547" width="4.830743963092273" height="9.615610859267322" fill="#f4a261" opacity="0.12373273519886023" rx="1"/><rect x="1051.1258614147375" y="871.5463687424889" width="11.431377611921956" height="6.409129497690389" fill="#e76f51" opacity="0.3463060316504692" rx="1"/><rect x="1040.8540819674622" y="874.7509334913341" width="11.431377611921956" height="6.409129497690389" fill="#f4a261" opacity="0.1731530158252346" rx="1"/><rect x="1051.243234729451" y="903.1103209017567" width="11.19663098249506" height="8.711821856608573" fill="#e76f51" opacity="0.4608802659113147" rx="1"/><rect x="1040.9714552821756" y="907.466231830061" width="11.19663098249506" height="8.711821856608573" fill="#f4a261" opacity="0.23044013295565735" rx="1"/><rect x="1054.5885370484527" y="934.6742730610246" width="4.506026344491641" height="6.743312714794491" fill="#e76f51" opacity="0.3233201234422904" rx="1"/><rect x="1044.3167576011774" y="938.0459294184218" width="4.506026344491641" height="6.743312714794491" fill="#f4a261" opacity="0.1616600617211452" rx="1"/><rect x="1146.657468158905" y="612.8339648393062" width="55.726717427774965" height="343.4042603809862" fill="#264653" opacity="0.46241582829095795" rx="2"/><rect x="1168.9417345351405" y="622.8339648393062" width="11.158184675303797" height="7.513785506019785" fill="#e76f51" opacity="0.3222786516003028" rx="1"/><rect x="1155.0100551781968" y="626.5908575923161" width="11.158184675303797" height="7.513785506019785" fill="#f4a261" opacity="0.1611393258001514" rx="1"/><rect x="1168.9150777845448" y="665.7594973869295" width="11.211498176495429" height="9.423877705685765" fill="#e76f51" opacity="0.11807790878649753" rx="1"/><rect x="1154.983398427601" y="670.4714362397724" width="11.211498176495429" height="9.423877705685765" fill="#f4a261" opacity="0.059038954393248765" rx="1"/><rect x="1170.7605228069613" y="708.6850299345527" width="7.5206081316621525" height="8.038750238259963" fill="#e76f51" opacity="0.29217853217669265" rx="1"/><rect x="1156.8288434500175" y="712.7044050536828" width="7.5206081316621525" height="8.038750238259963" fill="#f4a261" opacity="0.14608926608834633" rx="1"/><rect x="1172.4241278593952" y="751.610562482176" width="4.193398026794521" height="8.66179601444439" fill="#e76f51" opacity="0.36820413821102216" rx="1"/><rect x="1158.4924485024515" y="755.9414604893982" width="4.193398026794521" height="8.66179601444439" fill="#f4a261" opacity="0.18410206910551108" rx="1"/><rect x="1169.3425008613483" y="794.5360950297993" width="10.356652022888104" height="7.436435046940212" fill="#e76f51" opacity="0.32264209674267147" rx="1"/><rect x="1155.4108215044046" y="798.2543125532694" width="10.356652022888104" height="7.436435046940212" fill="#f4a261" opacity="0.16132104837133573" rx="1"/><rect x="1171.9884422135049" y="837.4616275774226" width="5.064769318575219" height="7.197694694902211" fill="#e76f51" opacity="0.3563359458596297" rx="1"/><rect x="1158.0567628565611" y="841.0604749248737" width="5.064769318575219" height="7.197694694902211" fill="#f4a261" opacity="0.17816797292981484" rx="1"/><rect x="1168.6365952607332" y="880.3871601250459" width="11.768463224118683" height="7.898458906891397" fill="#e76f51" opacity="0.11074594643682846" rx="1"/><rect x="1154.7049159037895" y="884.3363895784915" width="11.768463224118683" height="7.898458906891397" fill="#f4a261" opacity="0.05537297321841423" rx="1"/><rect x="1169.2830412942646" y="923.3126926726691" width="10.475571157055807" height="9.288423227911913" fill="#e76f51" opacity="0.5864679691350246" rx="1"/><rect x="1155.351361937321" y="927.956904286625" width="10.475571157055807" height="9.288423227911913" fill="#f4a261" opacity="0.2932339845675123" rx="1"/><rect x="1263.481101680892" y="707.8481620545145" width="75.05886474742061" height="248.39006316577786" fill="#264653" opacity="0.49289379399104366" rx="2"/><rect x="1295.2166590374468" y="717.8481620545145" width="11.587750034310798" height="9.776120033994346" fill="#e76f51" opacity="0.22940427861861054" rx="1"/><rect x="1276.4519428505916" y="722.7362220715117" width="11.587750034310798" height="9.776120033994346" fill="#f4a261" opacity="0.11470213930930527" rx="1"/><rect x="1296.8096028626453" y="800.6448497764405" width="8.401862383913683" height="6.094358622118449" fill="#e76f51" opacity="0.352318152983747" rx="1"/><rect x="1278.0448866757902" y="803.6920290874998" width="8.401862383913683" height="6.094358622118449" fill="#f4a261" opacity="0.1761590764918735" rx="1"/><rect x="1296.748228006472" y="883.4415374983664" width="8.524612096260444" height="6.088993424570419" fill="#e76f51" opacity="0.5835521586899535" rx="1"/><rect x="1277.9835118196168" y="886.4860342106516" width="8.524612096260444" height="6.088993424570419" fill="#f4a261" opacity="0.29177607934497674" rx="1"/><rect x="1371.9189886962808" y="837.8830040543999" width="65.80452721468279" height="118.35522116589249" fill="#264653" opacity="0.4819640543968333" rx="2"/><rect x="1402.7485805102042" y="847.8830040543999" width="4.145343586836323" height="6.562359775547487" fill="#e76f51" opacity="0.31454796176742483" rx="1"/><rect x="1386.2974487065335" y="851.1641839421736" width="4.145343586836323" height="6.562359775547487" fill="#f4a261" opacity="0.15727398088371242" rx="1"/><rect x="1401.5055137370962" y="862.6774067001364" width="6.631477133052302" height="7.617898480412061" fill="#e76f51" opacity="0.19787307786705743" rx="1"/><rect x="1385.0543819334255" y="866.4863559403425" width="6.631477133052302" height="7.617898480412061" fill="#f4a261" opacity="0.09893653893352872" rx="1"/><rect x="1401.4086600775854" y="877.471809345873" width="6.825184452073924" height="7.804215430702133" fill="#e76f51" opacity="0.10179117417470347" rx="1"/><rect x="1384.9575282739147" y="881.3739170612241" width="6.825184452073924" height="7.804215430702133" fill="#f4a261" opacity="0.050895587087351736" rx="1"/><rect x="1399.4002131974328" y="892.2662119916096" width="10.84207821237903" height="9.989259405059101" fill="#e76f51" opacity="0.4025180131202839" rx="1"/><rect x="1382.949081393762" y="897.2608416941391" width="10.84207821237903" height="9.989259405059101" fill="#f4a261" opacity="0.20125900656014195" rx="1"/><rect x="1401.406652862301" y="907.0606146373461" width="6.829198882642482" height="9.673561095184079" fill="#e76f51" opacity="0.5625244454859114" rx="1"/><rect x="1384.9555210586302" y="911.8973951849382" width="6.829198882642482" height="9.673561095184079" fill="#f4a261" opacity="0.2812622227429557" rx="1"/><rect x="1401.4079211401775" y="921.8550172830827" width="6.826662326889732" height="8.50716898276172" fill="#e76f51" opacity="0.32117623191354244" rx="1"/><rect x="1384.9567893365067" y="926.1086017744635" width="6.826662326889732" height="8.50716898276172" fill="#f4a261" opacity="0.16058811595677122" rx="1"/><rect x="1402.2201876102997" y="936.6494199288193" width="5.202129386645306" height="8.17557513857623" fill="#e76f51" opacity="0.46173412398475555" rx="1"/><rect x="1385.769055806629" y="940.7372074981074" width="5.202129386645306" height="8.17557513857623" fill="#f4a261" opacity="0.23086706199237778" rx="1"/><rect x="1402.4421088056274" y="951.4438225745557" width="4.758286995989803" height="6.966401289442182" fill="#e76f51" opacity="0.3191695968432281" rx="1"/><rect x="1385.9909770019567" y="954.9270232192769" width="4.758286995989803" height="6.966401289442182" fill="#f4a261" opacity="0.15958479842161405" rx="1"/><rect x="1493.2597772761385" y="732.4237433919739" width="83.47265254088506" height="223.81448182831855" fill="#0c2c39" opacity="0.62744139608169" rx="2"/><rect x="1529.7108503376855" y="742.4237433919739" width="10.570506417791012" height="6.635218047684808" fill="#e76f51" opacity="0.11114014489835598" rx="1"/><rect x="1508.8426872024643" y="745.7413524158162" width="10.570506417791012" height="6.635218047684808" fill="#f4a261" opacity="0.05557007244917799" rx="1"/><rect x="1529.9076592570418" y="798.3773638490535" width="10.176888579078225" height="9.009953496747173" fill="#e76f51" opacity="0.4576161829656028" rx="1"/><rect x="1509.0394961218205" y="802.8823405974271" width="10.176888579078225" height="9.009953496747173" fill="#f4a261" opacity="0.2288080914828014" rx="1"/><rect x="1530.8195080277087" y="854.3309843061331" width="8.353191037744562" height="6.17368226036748" fill="#e76f51" opacity="0.29566200922607955" rx="1"/><rect x="1509.9513448924874" y="857.4178254363169" width="8.353191037744562" height="6.17368226036748" fill="#f4a261" opacity="0.14783100461303977" rx="1"/><rect x="1529.7418985135716" y="910.2846047632128" width="10.508410066018907" height="6.094321883305517" fill="#e76f51" opacity="0.3203260225291192" rx="1"/><rect x="1508.8737353783504" y="913.3317657048656" width="10.508410066018907" height="6.094321883305517" fill="#f4a261" opacity="0.1601630112645596" rx="1"/><rect x="1605.1966245321548" y="634.0127829890728" width="66.37307621919854" height="322.22544223121963" fill="#264653" opacity="0.45053510436567834" rx="2"/><rect x="1633.0261145206227" y="644.0127829890728" width="10.714096242262539" height="9.961257390668909" fill="#e76f51" opacity="0.36549271814653017" rx="1"/><rect x="1616.432845465823" y="648.9934116844072" width="10.714096242262539" height="9.961257390668909" fill="#f4a261" opacity="0.18274635907326509" rx="1"/><rect x="1635.2295274981832" y="751.4212637328127" width="6.307270287141965" height="7.754469761102104" fill="#e76f51" opacity="0.5969997691216412" rx="1"/><rect x="1618.6362584433834" y="755.2984986133638" width="6.307270287141965" height="7.754469761102104" fill="#f4a261" opacity="0.2984998845608206" rx="1"/><rect x="1634.691564157999" y="858.8297444765525" width="7.38319696751032" height="7.933859024647125" fill="#e76f51" opacity="0.42106218506141146" rx="1"/><rect x="1618.0982951031992" y="862.796673988876" width="7.38319696751032" height="7.933859024647125" fill="#f4a261" opacity="0.21053109253070573" rx="1"/><rect x="1702.2971137827953" y="666.7895336208841" width="71.56961146312989" height="289.44869159940833" fill="#0c2c39" opacity="0.5324894934502639" rx="2"/><rect x="1732.9202596051432" y="676.7895336208841" width="10.323319818434147" height="9.408324992146419" fill="#e76f51" opacity="0.28727493872569754" rx="1"/><rect x="1715.0278567393607" y="681.4936961169573" width="10.323319818434147" height="9.408324992146419" fill="#f4a261" opacity="0.14363746936284877" rx="1"/><rect x="1732.9939765483127" y="749.1517065207362" width="10.175885932095323" height="9.58554113460368" fill="#e76f51" opacity="0.36174702198750974" rx="1"/><rect x="1715.1015736825302" y="753.9444770880381" width="10.175885932095323" height="9.58554113460368" fill="#f4a261" opacity="0.18087351099375487" rx="1"/><rect x="1732.6734535823748" y="821.5138794205882" width="10.816931863971272" height="7.803330529901043" fill="#e76f51" opacity="0.5423925093008188" rx="1"/><rect x="1714.7810507165923" y="825.4155446855387" width="10.816931863971272" height="7.803330529901043" fill="#f4a261" opacity="0.2711962546504094" rx="1"/><rect x="1734.7716373656344" y="893.8760523204403" width="6.620564297451769" height="9.572738350269557" fill="#e76f51" opacity="0.2196487640542092" rx="1"/><rect x="1716.879234499852" y="898.662421495575" width="6.620564297451769" height="9.572738350269557" fill="#f4a261" opacity="0.1098243820271046" rx="1"/><rect x="1826.8203483956913" y="586.0935221743057" width="52.260066406396234" height="370.1447030459867" fill="#0c2c39" opacity="0.5263403832973774" rx="2"/><rect x="1850.5011964015432" y="596.0935221743057" width="4.8983703946923765" height="7.836832001301653" fill="#e76f51" opacity="0.5538669541836406" rx="1"/><rect x="1837.4361797999443" y="600.0119381749565" width="4.8983703946923765" height="7.836832001301653" fill="#f4a261" opacity="0.2769334770918203" rx="1"/><rect x="1847.9726172720484" y="670.122462783503" width="9.9555286536821" height="9.104922661349391" fill="#e76f51" opacity="0.32360363992014984" rx="1"/><rect x="1834.9076006704495" y="674.6749241141777" width="9.9555286536821" height="9.104922661349391" fill="#f4a261" opacity="0.16180181996007492" rx="1"/><rect x="1850.271502558438" y="744.1514033927003" width="5.357758080902919" height="9.471081497024532" fill="#e76f51" opacity="0.18983192140931077" rx="1"/><rect x="1837.206485956839" y="748.8869441412126" width="5.357758080902919" height="9.471081497024532" fill="#f4a261" opacity="0.09491596070465538" rx="1"/><rect x="1847.4673615019924" y="818.1803440018978" width="10.96604019379384" height="9.194196208192547" fill="#e76f51" opacity="0.4243657722660261" rx="1"/><rect x="1834.4023449003935" y="822.777442105994" width="10.96604019379384" height="9.194196208192547" fill="#f4a261" opacity="0.21218288613301306" rx="1"/><rect x="1848.9546675579516" y="892.2092846110951" width="7.991428081875534" height="6.1262223311062485" fill="#e76f51" opacity="0.25217018841117855" rx="1"/><rect x="1835.8896509563526" y="895.2723957766482" width="7.991428081875534" height="6.1262223311062485" fill="#f4a261" opacity="0.12608509420558928" rx="1"/><rect x="0" y="1000" width="1920" height="80" fill="#00202d" opacity="0.8"/><line x1="0" y1="1040" x2="1920" y2="1040" stroke="#e76f51" stroke-opacity="0.15" stroke-width="2" stroke-dasharray="30,20"/><rect x="0" y="930" width="1920" height="150" fill="url(#glow46)"/><text x="1900" y="1060" font-family="Arial, sans-serif" font-size="11" fill="#fff" opacity="0.08" text-anchor="end" letter-spacing="2">GTA 6 REWARDS · WALLPAPER 047</text>
</svg>