<?xml version="1.0" encoding="UTF-8"?>
<svg xmlns="http://www.w3.org/2000/svg" width="1920" height="1080" viewBox="0 0 1920 1080">
<defs>
    <linearGradient id="bg88" x1="0%" y1="0%" x2="0%" y2="100%">
      <stop offset="0%" stop-color="#352f44"/>
      <stop offset="50%" stop-color="#020011"/>
      <stop offset="100%" stop-color="#352f44"/>
    </linearGradient>
    <linearGradient id="sun88" x1="0%" y1="0%" x2="100%" y2="100%">
      <stop offset="0%" stop-color="#ff577f"/>
      <stop offset="100%" stop-color="#ff884b"/>
    </linearGradient>
    <radialGradient id="glow88" cx="50%" cy="70%" r="50%">
      <stop offset="0%" stop-color="#ff577f" stop-opacity="0.3"/>
      <stop offset="100%" stop-color="#352f44" stop-opacity="0"/>
    </radialGradient>
  </defs><rect width="1920" height="1080" fill="url(#bg88)"/><circle cx="1123.1747890876547" cy="358.9236472172019" r="711.5257200811817" fill="#ff577f" opacity="0.08718333254502698"/><circle cx="1323.1747890876547" cy="258.9236472172019" r="437.13062969900915" fill="#ff884b" opacity="0.09159542939662826"/><circle cx="563.1305435353729" cy="235.27503516182188" r="74.4603180173925" fill="url(#sun88)" opacity="0.6343694471834156"/><circle cx="563.1305435353729" cy="235.27503516182188" r="69.4603180173925" fill="#352f44" opacity="0.3"/><pattern id="scan88" width="1920" height="4" patternUnits="userSpaceOnUse">
      <line x1="0" y1="0" x2="1920" y2="0" stroke="#000" stroke-opacity="0.05" stroke-width="1"/>
    </pattern>
    <rect width="1920" height="1080" fill="url(#scan88)"/><path d="M845.9816012266049 829.9286956270059 Q844.9167648854005 733.5425448158156 844.7037976171597 637.1563940046253" stroke="#000000" stroke-width="6.027748209896439" fill="none" stroke-linecap="round"/><path d="M844.7037976171597 637.1563940046253 Q867.6402439725678 617.1563940046253 886.5334053092015 637.1563940046253" stroke="#020011" stroke-width="3.962498242958099" fill="none" stroke-linecap="round" opacity="0.6"/><path d="M844.7037976171597 637.1563940046253 Q875.3933876172961 622.3268371443835 872.1924030350712 647.4972802841417" stroke="#020011" stroke-width="2.0008879932576997" fill="none" stroke-linecap="round" opacity="0.6"/><path d="M844.7037976171597 637.1563940046253 Q842.158607038018 626.4057305110564 830.6297929502832 655.6550670174873" stroke="#020011" stroke-width="3.5964715731322" fill="none" stroke-linecap="round" opacity="0.6"/><path d="M844.7037976171597 637.1563940046253 Q840.1993411190762 620.4531667918561 799.0650027350118 643.7499395790869" stroke="#020011" stroke-width="2.7853767384740937" fill="none" stroke-linecap="round" opacity="0.6"/><path d="M844.7037976171597 637.1563940046253 Q820.4581643135891 612.286583348142 777.2886907808695 627.4167726916587" stroke="#020011" stroke-width="2.8954034808313946" fill="none" stroke-linecap="round" opacity="0.6"/><path d="M465.1158093998944 947.6537344622551 Q479.18712303489144 837.5551715929888 482.00138576189084 727.4566087237225" stroke="#000000" stroke-width="5.557593081509134" fill="none" stroke-linecap="round"/><path d="M482.00138576189084 727.4566087237225 Q519.683075205349 707.4566087237225 529.1203017162904 727.4566087237225" stroke="#020011" stroke-width="3.749870281142618" fill="none" stroke-linecap="round" opacity="0.6"/><path d="M482.00138576189084 727.4566087237225 Q517.4248197144904 713.5352008976274 514.3181557656109 739.6137930715323" stroke="#020011" stroke-width="2.7907571021445925" fill="none" stroke-linecap="round" opacity="0.6"/><path d="M482.00138576189084 727.4566087237225 Q482.9342393108915 713.8875556244493 472.21590800028775 740.3185025251762" stroke="#020011" stroke-width="3.981373403217032" fill="none" stroke-linecap="round" opacity="0.6"/><path d="M482.00138576189084 727.4566087237225 Q447.6678553637761 712.4822496470315 412.4290463702861 737.5078905703406" stroke="#020011" stroke-width="3.685184395798758" fill="none" stroke-linecap="round" opacity="0.6"/><path d="M482.00138576189084 727.4566087237225 Q475.2549165816464 703.8707891593626 432.3611787642842 720.2849695950027" stroke="#020011" stroke-width="3.528119282221449" fill="none" stroke-linecap="round" opacity="0.6"/><path d="M482.00138576189084 727.4566087237225 Q483.2763606219248 702.9995929803152 475.219487370645 718.542577236908" stroke="#020011" stroke-width="2.305669874024035" fill="none" stroke-linecap="round" opacity="0.6"/><path d="M992.9084070848554 947.0165808794593 Q993.3897461959604 849.1150466548547 993.4860140181813 751.21351243025" stroke="#000000" stroke-width="7.502394848387315" fill="none" stroke-linecap="round"/><path d="M993.4860140181813 751.21351243025 Q1024.3680679396186 731.21351243025 1029.8437048280248 751.21351243025" stroke="#020011" stroke-width="3.546864050334986" fill="none" stroke-linecap="round" opacity="0.6"/><path d="M993.4860140181813 751.21351243025 Q1015.2390180714931 736.5833825054938 1022.0348705965998 761.9532525807374" stroke="#020011" stroke-width="3.424319271329865" fill="none" stroke-linecap="round" opacity="0.6"/><path d="M993.4860140181813 751.21351243025 Q987.6121810714963 739.3219548858217 981.1480201651663 767.4303973413932" stroke="#020011" stroke-width="2.7437007852698914" fill="none" stroke-linecap="round" opacity="0.6"/><path d="M993.4860140181813 751.21351243025 Q988.2575128506844 734.7104469120094 945.076285526282 758.2073813937687" stroke="#020011" stroke-width="3.8554124100728453" fill="none" stroke-linecap="round" opacity="0.6"/><path d="M993.4860140181813 751.21351243025 Q986.4393917117784 727.4463400602699 941.3352538125821 743.6791676902898" stroke="#020011" stroke-width="2.346916968083688" fill="none" stroke-linecap="round" opacity="0.6"/><line x1="0" y1="0" x2="0" y2="1080" stroke="#ff577f" stroke-opacity="0.05691340454549375" stroke-width="0.5"/><line x1="65" y1="0" x2="65" y2="1080" stroke="#ff577f" stroke-opacity="0.05691340454549375" stroke-width="0.5"/><line x1="130" y1="0" x2="130" y2="1080" stroke="#ff577f" stroke-opacity="0.05691340454549375" stroke-width="0.5"/><line x1="195" y1="0" x2="195" y2="1080" stroke="#ff577f" stroke-opacity="0.05691340454549375" stroke-width="0.5"/><line x1="260" y1="0" x2="260" y2="1080" stroke="#ff577f" stroke-opacity="0.05691340454549375" stroke-width="0.5"/><line x1="325" y1="0" x2="325" y2="1080" stroke="#ff577f" stroke-opacity="0.05691340454549375" stroke-width="0.5"/><line x1="390" y1="0" x2="390" y2="1080" stroke="#ff577f" stroke-opacity="0.05691340454549375" stroke-width="0.5"/><line x1="455" y1="0" x2="455" y2="1080" stroke="#ff577f" stroke-opacity="0.05691340454549375" stroke-width="0.5"/><line x1="520" y1="0" x2="520" y2="1080" stroke="#ff577f" stroke-opacity="0.05691340454549375" stroke-width="0.5"/><line x1="585" y1="0" x2="585" y2="1080" stroke="#ff577f" stroke-opacity="0.05691340454549375" stroke-width="0.5"/><line x1="650" y1="0" x2="650" y2="1080" stroke="#ff577f" stroke-opacity="0.05691340454549375" stroke-width="0.5"/><line x1="715" y1="0" x2="715" y2="1080" stroke="#ff577f" stroke-opacity="0.05691340454549375" stroke-width="0.5"/><line x1="780" y1="0" x2="780" y2="1080" stroke="#ff577f" stroke-opacity="0.05691340454549375" stroke-width="0.5"/><line x1="845" y1="0" x2="845" y2="1080" stroke="#ff577f" stroke-opacity="0.05691340454549375" stroke-width="0.5"/><line x1="910" y1="0" x2="910" y2="1080" stroke="#ff577f" stroke-opacity="0.05691340454549375" stroke-width="0.5"/><line x1="975" y1="0" x2="975" y2="1080" stroke="#ff577f" stroke-opacity="0.05691340454549375" stroke-width="0.5"/><line x1="1040" y1="0" x2="1040" y2="1080" stroke="#ff577f" stroke-opacity="0.05691340454549375" stroke-width="0.5"/><line x1="1105" y1="0" x2="1105" y2="1080" stroke="#ff577f" stroke-opacity="0.05691340454549375" stroke-width="0.5"/><line x1="1170" y1="0" x2="1170" y2="1080" stroke="#ff577f" stroke-opacity="0.05691340454549375" stroke-width="0.5"/><line x1="1235" y1="0" x2="1235" y2="1080" stroke="#ff577f" stroke-opacity="0.05691340454549375" stroke-width="0.5"/><line x1="1300" y1="0" x2="1300" y2="1080" stroke="#ff577f" stroke-opacity="0.05691340454549375" stroke-width="0.5"/><line x1="1365" y1="0" x2="1365" y2="1080" stroke="#ff577f" stroke-opacity="0.05691340454549375" stroke-width="0.5"/><line x1="1430" y1="0" x2="1430" y2="1080" stroke="#ff577f" stroke-opacity="0.05691340454549375" stroke-width="0.5"/><line x1="1495" y1="0" x2="1495" y2="1080" stroke="#ff577f" stroke-opacity="0.05691340454549375" stroke-width="0.5"/><line x1="1560" y1="0" x2="1560" y2="1080" stroke="#ff577f" stroke-opacity="0.05691340454549375" stroke-width="0.5"/><line x1="1625" y1="0" x2="1625" y2="1080" stroke="#ff577f" stroke-opacity="0.05691340454549375" stroke-width="0.5"/><line x1="1690" y1="0" x2="1690" y2="1080" stroke="#ff577f" stroke-opacity="0.05691340454549375" stroke-width="0.5"/><line x1="1755" y1="0" x2="1755" y2="1080" stroke="#ff577f" stroke-opacity="0.05691340454549375" stroke-width="0.5"/><line x1="1820" y1="0" x2="1820" y2="1080" stroke="#ff577f" stroke-opacity="0.05691340454549375" stroke-width="0.5"/><line x1="1885" y1="0" x2="1885" y2="1080" stroke="#ff577f" stroke-opacity="0.05691340454549375" stroke-width="0.5"/><line x1="0" y1="0" x2="1920" y2="0" stroke="#ff577f" stroke-opacity="0.05691340454549375" stroke-width="0.5"/><line x1="0" y1="65" x2="1920" y2="65" stroke="#ff577f" stroke-opacity="0.05691340454549375" stroke-width="0.5"/><line x1="0" y1="130" x2="1920" y2="130" stroke="#ff577f" stroke-opacity="0.05691340454549375" stroke-width="0.5"/><line x1="0" y1="195" x2="1920" y2="195" stroke="#ff577f" stroke-opacity="0.05691340454549375" stroke-width="0.5"/><line x1="0" y1="260" x2="1920" y2="260" stroke="#ff577f" stroke-opacity="0.05691340454549375" stroke-width="0.5"/><line x1="0" y1="325" x2="1920" y2="325" stroke="#ff577f" stroke-opacity="0.05691340454549375" stroke-width="0.5"/><line x1="0" y1="390" x2="1920" y2="390" stroke="#ff577f" stroke-opacity="0.05691340454549375" stroke-width="0.5"/><line x1="0" y1="455" x2="1920" y2="455" stroke="#ff577f" stroke-opacity="0.05691340454549375" stroke-width="0.5"/><line x1="0" y1="520" x2="1920" y2="520" stroke="#ff577f" stroke-opacity="0.05691340454549375" stroke-width="0.5"/><line x1="0" y1="585" x2="1920" y2="585" stroke="#ff577f" stroke-opacity="0.05691340454549375" stroke-width="0.5"/><line x1="0" y1="650" x2="1920" y2="650" stroke="#ff577f" stroke-opacity="0.05691340454549375" stroke-width="0.5"/><line x1="0" y1="715" x2="1920" y2="715" stroke="#ff577f" stroke-opacity="0.05691340454549375" stroke-width="0.5"/><line x1="0" y1="780" x2="1920" y2="780" stroke="#ff577f" stroke-opacity="0.05691340454549375" stroke-width="0.5"/><line x1="0" y1="845" x2="1920" y2="845" stroke="#ff577f" stroke-opacity="0.05691340454549375" stroke-width="0.5"/><line x1="0" y1="910" x2="1920" y2="910" stroke="#ff577f" stroke-opacity="0.05691340454549375" stroke-width="0.5"/><line x1="0" y1="975" x2="1920" y2="975" stroke="#ff577f" stroke-opacity="0.05691340454549375" stroke-width="0.5"/><line x1="0" y1="1040" x2="1920" y2="1040" stroke="#ff577f" stroke-opacity="0.05691340454549375" stroke-width="0.5"/><rect x="0" y="1000" width="1920" height="80" fill="#0f091e" opacity="0.8"/><line x1="0" y1="1040" x2="1920" y2="1040" stroke="#ff884b" stroke-opacity="0.15" stroke-width="2" stroke-dasharray="30,20"/><rect x="0" y="930" width="1920" height="150" fill="url(#glow88)"/><text x="1900" y="1060" font-family="Arial, sans-serif" font-size="11" fill="#fff" opacity="0.08" text-anchor="end" letter-spacing="2">GTA 6 REWARDS · WALLPAPER 089</text>
</svg>