<?xml version="1.0" encoding="UTF-8"?>
<svg xmlns="http://www.w3.org/2000/svg" width="1920" height="1080" viewBox="0 0 1920 1080">
<defs>
    <linearGradient id="bg44" x1="0%" y1="0%" x2="0%" y2="100%">
      <stop offset="0%" stop-color="#26547c"/>
      <stop offset="50%" stop-color="#002149"/>
      <stop offset="100%" stop-color="#26547c"/>
    </linearGradient>
    <linearGradient id="sun44" x1="0%" y1="0%" x2="100%" y2="100%">
      <stop offset="0%" stop-color="#ffd166"/>
      <stop offset="100%" stop-color="#ef476f"/>
    </linearGradient>
    <radialGradient id="glow44" cx="50%" cy="70%" r="50%">
      <stop offset="0%" stop-color="#ffd166" stop-opacity="0.3"/>
      <stop offset="100%" stop-color="#26547c" stop-opacity="0"/>
    </radialGradient>
  </defs><rect width="1920" height="1080" fill="url(#bg44)"/><circle cx="491.65757209799665" cy="233.25209162040895" r="840.2878993051797" fill="#ffd166" opacity="0.11363287106240934"/><circle cx="691.6575720979966" cy="133.25209162040895" r="499.10400367786735" fill="#ef476f" opacity="0.0920567374774387"/><circle cx="1025.8867723694739" cy="377.6478716236651" r="75.00955797150021" fill="url(#sun44)" opacity="0.6828707012540826"/><circle cx="1025.8867723694739" cy="377.6478716236651" r="70.00955797150021" fill="#26547c" opacity="0.3"/><path d="M1605.7825639112348 813.5073848798655 Q1602.4217063613287 762.8330383828918 1601.7495348513476 712.1586918859181" stroke="#00072f" stroke-width="6.4905579701276865" fill="none" stroke-linecap="round"/><path d="M1601.7495348513476 712.1586918859181 Q1639.5812975097406 692.1586918859181 1657.502584887087 712.1586918859181" stroke="#002149" stroke-width="2.6507209326724337" fill="none" stroke-linecap="round" opacity="0.6"/><path d="M1601.7495348513476 712.1586918859181 Q1619.4168721405258 696.1711066521534 1623.0814948595576 720.1835214183888" stroke="#002149" stroke-width="3.998961349948999" fill="none" stroke-linecap="round" opacity="0.6"/><path d="M1601.7495348513476 712.1586918859181 Q1601.6111844338614 703.796820215429 1584.040689215841 735.4349485449399" stroke="#002149" stroke-width="3.200719058327544" fill="none" stroke-linecap="round" opacity="0.6"/><path d="M1601.7495348513476 712.1586918859181 Q1592.6910361419325 694.7352834015858 1566.0805521012762 717.3118749172535" stroke="#002149" stroke-width="2.655946818798768" fill="none" stroke-linecap="round" opacity="0.6"/><path d="M1601.7495348513476 712.1586918859181 Q1604.6250763963203 690.1812801779076 1574.375283374572 708.2038684698972" stroke="#002149" stroke-width="2.771031377085259" fill="none" stroke-linecap="round" opacity="0.6"/><path d="M1601.7495348513476 712.1586918859181 Q1597.1125626762173 685.0091095376727 1590.8705647473341 697.8595271894272" stroke="#002149" stroke-width="3.242031655097853" fill="none" stroke-linecap="round" opacity="0.6"/><path d="M1352.4959688057415 804.0423920620332 Q1352.2485733153878 683.6466434722875 1352.199094217317 563.2508948825418" stroke="#00072f" stroke-width="5.893883607791244" fill="none" stroke-linecap="round"/><path d="M1352.199094217317 563.2508948825418 Q1393.467965745476 543.2508948825418 1405.1855815451559 563.2508948825418" stroke="#002149" stroke-width="2.5111889160497087" fill="none" stroke-linecap="round" opacity="0.6"/><path d="M1352.199094217317 563.2508948825418 Q1380.6446787848984 551.3819560027523 1395.427793328945 579.5130171229628" stroke="#002149" stroke-width="2.1130650942477085" fill="none" stroke-linecap="round" opacity="0.6"/><path d="M1352.199094217317 563.2508948825418 Q1351.7852683613507 549.2180511440158 1343.1193310349988 575.1852074054897" stroke="#002149" stroke-width="2.3773424719407554" fill="none" stroke-linecap="round" opacity="0.6"/><path d="M1352.199094217317 563.2508948825418 Q1331.9740083588006 546.2638418705855 1310.4894349679118 569.2767888586291" stroke="#002149" stroke-width="2.4769592123285307" fill="none" stroke-linecap="round" opacity="0.6"/><path d="M1352.199094217317 563.2508948825418 Q1320.581496493614 538.1039499212427 1280.9474852898638 552.9570049599434" stroke="#002149" stroke-width="3.6613203351528663" fill="none" stroke-linecap="round" opacity="0.6"/><path d="M1352.199094217317 563.2508948825418 Q1360.2224889345193 537.0789435256327 1342.8077100741973 550.9069921687234" stroke="#002149" stroke-width="3.46883442892433" fill="none" stroke-linecap="round" opacity="0.6"/><path d="M1352.199094217317 563.2508948825418 Q1381.2225342324205 538.9254492902006 1375.1952792503223 554.6000036978594" stroke="#002149" stroke-width="3.2310226385553884" fill="none" stroke-linecap="round" opacity="0.6"/><path d="M286.2361823688811 949.7237669419785 Q288.6539988752114 847.3445683886167 289.1375621764775 744.965369835255" stroke="#00072f" stroke-width="4.303013868700483" fill="none" stroke-linecap="round"/><path d="M289.1375621764775 744.965369835255 Q330.06211389299995 724.965369835255 363.2600806926517 744.965369835255" stroke="#002149" stroke-width="2.5719795684730586" fill="none" stroke-linecap="round" opacity="0.6"/><path d="M289.1375621764775 744.965369835255 Q327.5680168427431 733.5265678633815 334.6530795390333 762.087765891508" stroke="#002149" stroke-width="2.405166412798028" fill="none" stroke-linecap="round" opacity="0.6"/><path d="M289.1375621764775 744.965369835255 Q286.0286903878123 731.6168395722449 279.0165317593342 758.2683093092347" stroke="#002149" stroke-width="3.2920413211202346" fill="none" stroke-linecap="round" opacity="0.6"/><path d="M289.1375621764775 744.965369835255 Q288.01719003575715 727.0133247196316 260.78674793232716 749.061279604008" stroke="#002149" stroke-width="3.621941454154891" fill="none" stroke-linecap="round" opacity="0.6"/><path d="M289.1375621764775 744.965369835255 Q288.0635739364463 722.7800723392085 258.8854487870327 740.5947748431619" stroke="#002149" stroke-width="2.3385791644310996" fill="none" stroke-linecap="round" opacity="0.6"/><path d="M289.1375621764775 744.965369835255 Q284.28157156880786 714.737530397998 273.5746447853832 724.509690960741" stroke="#002149" stroke-width="2.2825370291905798" fill="none" stroke-linecap="round" opacity="0.6"/><path d="M480.62370892628655 912.2859580470915 Q472.053682220181 853.5545392552285 470.3396768789599 794.8231204633655" stroke="#00072f" stroke-width="5.839891387578074" fill="none" stroke-linecap="round"/><path d="M470.3396768789599 794.8231204633655 Q523.4308368804473 774.8231204633655 542.8290788733469 794.8231204633655" stroke="#002149" stroke-width="2.589512263561951" fill="none" stroke-linecap="round" opacity="0.6"/><path d="M470.3396768789599 794.8231204633655 Q502.4944927617907 782.3323961620945 510.2626604757441 809.8416718608233" stroke="#002149" stroke-width="3.589823384208098" fill="none" stroke-linecap="round" opacity="0.6"/><path d="M470.3396768789599 794.8231204633655 Q480.2536717286762 783.3903323200145 457.3036088789729 811.9575441766634" stroke="#002149" stroke-width="3.6038645742470083" fill="none" stroke-linecap="round" opacity="0.6"/><path d="M470.3396768789599 794.8231204633655 Q458.47798435309323 778.3235865063308 421.88105930434415 801.8240525492961" stroke="#002149" stroke-width="2.3144935793975585" fill="none" stroke-linecap="round" opacity="0.6"/><path d="M470.3396768789599 794.8231204633655 Q463.1759972883294 772.5919699553384 439.4527984196831 790.3608194473113" stroke="#002149" stroke-width="3.016850251941208" fill="none" stroke-linecap="round" opacity="0.6"/><path d="M470.3396768789599 794.8231204633655 Q481.791471203915 769.9009082517574 462.8499247665396 784.9786960401493" stroke="#002149" stroke-width="2.996649124425987" fill="none" stroke-linecap="round" opacity="0.6"/><path d="M1428.5931501138475 883.9033686518444 Q1441.2597085491896 796.4446645163569 1443.793020236258 708.9859603808694" stroke="#00072f" stroke-width="6.123963648016556" fill="none" stroke-linecap="round"/><path d="M1443.793020236258 708.9859603808694 Q1489.684555907428 688.9859603808694 1504.8678078732614 708.9859603808694" stroke="#002149" stroke-width="2.8701926234341677" fill="none" stroke-linecap="round" opacity="0.6"/><path d="M1443.793020236258 708.9859603808694 Q1474.1451657931277 696.7983619806164 1485.3275694299953 724.6107635803635" stroke="#002149" stroke-width="3.664351053457789" fill="none" stroke-linecap="round" opacity="0.6"/><path d="M1443.793020236258 708.9859603808694 Q1453.7210063005666 698.6192847751606 1429.134730705055 728.252609169452" stroke="#002149" stroke-width="3.541305105095102" fill="none" stroke-linecap="round" opacity="0.6"/><path d="M1443.793020236258 708.9859603808694 Q1439.7318494162462 691.6380223823048 1407.0792636294764 714.2900843837403" stroke="#002149" stroke-width="2.132267972019563" fill="none" stroke-linecap="round" opacity="0.6"/><path d="M1443.793020236258 708.9859603808694 Q1442.3825804267099 686.6333787751482 1411.2251132931738 704.2807971694269" stroke="#002149" stroke-width="3.60379119999795" fill="none" stroke-linecap="round" opacity="0.6"/><line x1="0" y1="0" x2="0" y2="1080" stroke="#ffd166" stroke-opacity="0.03827041639207639" stroke-width="0.5"/><line x1="64" y1="0" x2="64" y2="1080" stroke="#ffd166" stroke-opacity="0.03827041639207639" stroke-width="0.5"/><line x1="128" y1="0" x2="128" y2="1080" stroke="#ffd166" stroke-opacity="0.03827041639207639" stroke-width="0.5"/><line x1="192" y1="0" x2="192" y2="1080" stroke="#ffd166" stroke-opacity="0.03827041639207639" stroke-width="0.5"/><line x1="256" y1="0" x2="256" y2="1080" stroke="#ffd166" stroke-opacity="0.03827041639207639" stroke-width="0.5"/><line x1="320" y1="0" x2="320" y2="1080" stroke="#ffd166" stroke-opacity="0.03827041639207639" stroke-width="0.5"/><line x1="384" y1="0" x2="384" y2="1080" stroke="#ffd166" stroke-opacity="0.03827041639207639" stroke-width="0.5"/><line x1="448" y1="0" x2="448" y2="1080" stroke="#ffd166" stroke-opacity="0.03827041639207639" stroke-width="0.5"/><line x1="512" y1="0" x2="512" y2="1080" stroke="#ffd166" stroke-opacity="0.03827041639207639" stroke-width="0.5"/><line x1="576" y1="0" x2="576" y2="1080" stroke="#ffd166" stroke-opacity="0.03827041639207639" stroke-width="0.5"/><line x1="640" y1="0" x2="640" y2="1080" stroke="#ffd166" stroke-opacity="0.03827041639207639" stroke-width="0.5"/><line x1="704" y1="0" x2="704" y2="1080" stroke="#ffd166" stroke-opacity="0.03827041639207639" stroke-width="0.5"/><line x1="768" y1="0" x2="768" y2="1080" stroke="#ffd166" stroke-opacity="0.03827041639207639" stroke-width="0.5"/><line x1="832" y1="0" x2="832" y2="1080" stroke="#ffd166" stroke-opacity="0.03827041639207639" stroke-width="0.5"/><line x1="896" y1="0" x2="896" y2="1080" stroke="#ffd166" stroke-opacity="0.03827041639207639" stroke-width="0.5"/><line x1="960" y1="0" x2="960" y2="1080" stroke="#ffd166" stroke-opacity="0.03827041639207639" stroke-width="0.5"/><line x1="1024" y1="0" x2="1024" y2="1080" stroke="#ffd166" stroke-opacity="0.03827041639207639" stroke-width="0.5"/><line x1="1088" y1="0" x2="1088" y2="1080" stroke="#ffd166" stroke-opacity="0.03827041639207639" stroke-width="0.5"/><line x1="1152" y1="0" x2="1152" y2="1080" stroke="#ffd166" stroke-opacity="0.03827041639207639" stroke-width="0.5"/><line x1="1216" y1="0" x2="1216" y2="1080" stroke="#ffd166" stroke-opacity="0.03827041639207639" stroke-width="0.5"/><line x1="1280" y1="0" x2="1280" y2="1080" stroke="#ffd166" stroke-opacity="0.03827041639207639" stroke-width="0.5"/><line x1="1344" y1="0" x2="1344" y2="1080" stroke="#ffd166" stroke-opacity="0.03827041639207639" stroke-width="0.5"/><line x1="1408" y1="0" x2="1408" y2="1080" stroke="#ffd166" stroke-opacity="0.03827041639207639" stroke-width="0.5"/><line x1="1472" y1="0" x2="1472" y2="1080" stroke="#ffd166" stroke-opacity="0.03827041639207639" stroke-width="0.5"/><line x1="1536" y1="0" x2="1536" y2="1080" stroke="#ffd166" stroke-opacity="0.03827041639207639" stroke-width="0.5"/><line x1="1600" y1="0" x2="1600" y2="1080" stroke="#ffd166" stroke-opacity="0.03827041639207639" stroke-width="0.5"/><line x1="1664" y1="0" x2="1664" y2="1080" stroke="#ffd166" stroke-opacity="0.03827041639207639" stroke-width="0.5"/><line x1="1728" y1="0" x2="1728" y2="1080" stroke="#ffd166" stroke-opacity="0.03827041639207639" stroke-width="0.5"/><line x1="1792" y1="0" x2="1792" y2="1080" stroke="#ffd166" stroke-opacity="0.03827041639207639" stroke-width="0.5"/><line x1="1856" y1="0" x2="1856" y2="1080" stroke="#ffd166" stroke-opacity="0.03827041639207639" stroke-width="0.5"/><line x1="0" y1="0" x2="1920" y2="0" stroke="#ffd166" stroke-opacity="0.03827041639207639" stroke-width="0.5"/><line x1="0" y1="64" x2="1920" y2="64" stroke="#ffd166" stroke-opacity="0.03827041639207639" stroke-width="0.5"/><line x1="0" y1="128" x2="1920" y2="128" stroke="#ffd166" stroke-opacity="0.03827041639207639" stroke-width="0.5"/><line x1="0" y1="192" x2="1920" y2="192" stroke="#ffd166" stroke-opacity="0.03827041639207639" stroke-width="0.5"/><line x1="0" y1="256" x2="1920" y2="256" stroke="#ffd166" stroke-opacity="0.03827041639207639" stroke-width="0.5"/><line x1="0" y1="320" x2="1920" y2="320" stroke="#ffd166" stroke-opacity="0.03827041639207639" stroke-width="0.5"/><line x1="0" y1="384" x2="1920" y2="384" stroke="#ffd166" stroke-opacity="0.03827041639207639" stroke-width="0.5"/><line x1="0" y1="448" x2="1920" y2="448" stroke="#ffd166" stroke-opacity="0.03827041639207639" stroke-width="0.5"/><line x1="0" y1="512" x2="1920" y2="512" stroke="#ffd166" stroke-opacity="0.03827041639207639" stroke-width="0.5"/><line x1="0" y1="576" x2="1920" y2="576" stroke="#ffd166" stroke-opacity="0.03827041639207639" stroke-width="0.5"/><line x1="0" y1="640" x2="1920" y2="640" stroke="#ffd166" stroke-opacity="0.03827041639207639" stroke-width="0.5"/><line x1="0" y1="704" x2="1920" y2="704" stroke="#ffd166" stroke-opacity="0.03827041639207639" stroke-width="0.5"/><line x1="0" y1="768" x2="1920" y2="768" stroke="#ffd166" stroke-opacity="0.03827041639207639" stroke-width="0.5"/><line x1="0" y1="832" x2="1920" y2="832" stroke="#ffd166" stroke-opacity="0.03827041639207639" stroke-width="0.5"/><line x1="0" y1="896" x2="1920" y2="896" stroke="#ffd166" stroke-opacity="0.03827041639207639" stroke-width="0.5"/><line x1="0" y1="960" x2="1920" y2="960" stroke="#ffd166" stroke-opacity="0.03827041639207639" stroke-width="0.5"/><line x1="0" y1="1024" x2="1920" y2="1024" stroke="#ffd166" stroke-opacity="0.03827041639207639" stroke-width="0.5"/><rect x="0" y="1000" width="1920" height="80" fill="#002e56" opacity="0.8"/><line x1="0" y1="1040" x2="1920" y2="1040" stroke="#ef476f" stroke-opacity="0.15" stroke-width="2" stroke-dasharray="30,20"/><rect x="0" y="930" width="1920" height="150" fill="url(#glow44)"/><rect x="0" y="980" width="1920" height="100" fill="#ef476f" opacity="0.04"/><rect x="573.4931745970373" y="1054.7624723601068" width="27.489305433698302" height="2" fill="#ffd166" opacity="0.02595860237394427" rx="1"/><rect x="82.78571786423812" y="1021.7363088535462" width="42.460331144384185" height="2" fill="#ffd166" opacity="0.045078764694062703" rx="1"/><rect x="560.3577421420155" y="1050.2046495373838" width="98.85487880065453" height="2" fill="#ffd166" opacity="0.05155466372881892" rx="1"/><rect x="283.99568176921355" y="1004.9229406483757" width="25.262016180265235" height="2" fill="#ffd166" opacity="0.02356560456649531" rx="1"/><rect x="1879.8374345805119" y="1024.7850178845192" width="101.1411631016855" height="2" fill="#ffd166" opacity="0.04216332454750392" rx="1"/><rect x="540.0936333602513" y="1018.4823205737589" width="41.75464369863147" height="2" fill="#ffd166" opacity="0.034079069423973346" rx="1"/><rect x="1892.5730627711332" y="1009.8482755315137" width="53.188920568951616" height="2" fill="#ffd166" opacity="0.05338185354913162" rx="1"/><rect x="1241.8754400224134" y="1043.4480322160405" width="97.28793054755961" height="2" fill="#ffd166" opacity="0.057157454545879144" rx="1"/><rect x="734.3168455581919" y="1031.6207922090825" width="65.23841874795929" height="2" fill="#ffd166" opacity="0.04775434924004468" rx="1"/><rect x="1018.712847917041" y="1034.722587213554" width="64.54047168710746" height="2" fill="#ffd166" opacity="0.05743035989753678" rx="1"/><rect x="431.5605189910998" y="1049.795250759878" width="46.262358908136925" height="2" fill="#ffd166" opacity="0.03775099403638183" rx="1"/><rect x="1226.6138195867215" y="1006.9307849712043" width="101.37749598393624" height="2" fill="#ffd166" opacity="0.02461707116212162" rx="1"/><rect x="1029.4789716018083" y="1012.0209861481611" width="80.84281191249443" height="2" fill="#ffd166" opacity="0.036972666153910726" rx="1"/><rect x="238.5028464157374" y="1002.957370957117" width="86.68346488538279" height="2" fill="#ffd166" opacity="0.04280815290818181" rx="1"/><rect x="997.8487973748354" y="1014.5438787235282" width="98.33624367563432" height="2" fill="#ffd166" opacity="0.026967541213838278" rx="1"/><rect x="704.2042625099897" y="1026.0172708067153" width="65.64127063975698" height="2" fill="#ffd166" opacity="0.05160706920353861" rx="1"/><rect x="232.70109688693216" y="1051.0795233238207" width="101.43241251386524" height="2" fill="#ffd166" opacity="0.026213998488666023" rx="1"/><rect x="1029.1204912376404" y="1053.065674526865" width="117.37227742964689" height="2" fill="#ffd166" opacity="0.04490766323751483" rx="1"/><rect x="31.63155914089446" y="1017.9246141058218" width="82.21095939683983" height="2" fill="#ffd166" opacity="0.026196643618446924" rx="1"/><rect x="1707.6296719414252" y="1048.9276458017825" width="53.409687977612414" height="2" fill="#ffd166" opacity="0.055207725184785145" rx="1"/><rect x="406.63631389072077" y="1059.9549875175476" width="25.772661814878848" height="2" fill="#ffd166" opacity="0.05715177648634459" rx="1"/><rect x="398.28339511488645" y="1049.3222326667333" width="69.55822861510288" height="2" fill="#ffd166" opacity="0.02939686005222538" rx="1"/><rect x="949.4457692628367" y="1059.9305356899115" width="45.72976044046919" height="2" fill="#ffd166" opacity="0.029377580222063136" rx="1"/><rect x="1100.204171496491" y="1059.2803669812345" width="65.65933433958779" height="2" fill="#ffd166" opacity="0.05648959750227854" rx="1"/><rect x="1789.7649424964948" y="1026.7353640000185" width="77.3845332854857" height="2" fill="#ffd166" opacity="0.04058241514036954" rx="1"/><rect x="660.6968277740983" y="1001.572848679864" width="97.23047774686258" height="2" fill="#ffd166" opacity="0.03930359465519516" rx="1"/><rect x="1509.3408603010096" y="1032.504459617777" width="105.05546692410843" height="2" fill="#ffd166" opacity="0.04213802255274216" rx="1"/><rect x="1038.5796822045418" y="1021.2303343744088" width="55.778609205917135" height="2" fill="#ffd166" opacity="0.05318322639753652" rx="1"/><rect x="952.1930692326727" y="1032.083855981958" width="69.51812765782655" height="2" fill="#ffd166" opacity="0.04195527304475086" rx="1"/><rect x="399.7622051275713" y="1051.4389176507104" width="100.84241747410093" height="2" fill="#ffd166" opacity="0.05920294041726806" rx="1"/><text x="1900" y="1060" font-family="Arial, sans-serif" font-size="11" fill="#fff" opacity="0.08" text-anchor="end" letter-spacing="2">GTA 6 REWARDS · WALLPAPER 045</text>
</svg>