<?xml version="1.0" encoding="UTF-8"?>
<svg xmlns="http://www.w3.org/2000/svg" width="1920" height="1080" viewBox="0 0 1920 1080">
<defs>
    <linearGradient id="bg11" x1="0%" y1="0%" x2="0%" y2="100%">
      <stop offset="0%" stop-color="#3c096c"/>
      <stop offset="50%" stop-color="#090039"/>
      <stop offset="100%" stop-color="#3c096c"/>
    </linearGradient>
    <linearGradient id="sun11" x1="0%" y1="0%" x2="100%" y2="100%">
      <stop offset="0%" stop-color="#e0aaff"/>
      <stop offset="100%" stop-color="#c77dff"/>
    </linearGradient>
    <radialGradient id="glow11" cx="50%" cy="70%" r="50%">
      <stop offset="0%" stop-color="#e0aaff" stop-opacity="0.3"/>
      <stop offset="100%" stop-color="#3c096c" stop-opacity="0"/>
    </radialGradient>
  </defs><rect width="1920" height="1080" fill="url(#bg11)"/><circle cx="935.9356900295093" cy="443.2474257059506" r="777.0472908339108" fill="#e0aaff" opacity="0.13507766963100937"/><circle cx="1135.9356900295093" cy="343.2474257059506" r="507.6044595119554" fill="#c77dff" opacity="0.05640209291279365"/><circle cx="1029.283900728748" cy="285.0974672322854" r="81.22022047201642" fill="url(#sun11)" opacity="0.7440127410097077"/><circle cx="1029.283900728748" cy="285.0974672322854" r="76.22022047201642" fill="#3c096c" opacity="0.3"/><pattern id="scan11" width="1920" height="4" patternUnits="userSpaceOnUse">
      <line x1="0" y1="0" x2="1920" y2="0" stroke="#000" stroke-opacity="0.05" stroke-width="1"/>
    </pattern>
    <rect width="1920" height="1080" fill="url(#scan11)"/><rect x="20.445857618573555" y="745.9144896119633" width="39.648846865084224" height="133.55437198969406" fill="#220052" opacity="0.5187752758429328" rx="2"/><rect x="35.94024472239899" y="755.9144896119633" width="8.660072657433355" height="6.509925789318496" fill="#c77dff" opacity="0.3985409795768887" rx="1"/><rect x="26.028033006127934" y="759.1694525066225" width="8.660072657433355" height="6.509925789318496" fill="#e0aaff" opacity="0.19927048978844436" rx="1"/><rect x="35.964126048834096" y="782.6253640099021" width="8.612310004563142" height="7.673668506013618" fill="#c77dff" opacity="0.5221251861709462" rx="1"/><rect x="26.05191433256304" y="786.4621982629089" width="8.612310004563142" height="7.673668506013618" fill="#e0aaff" opacity="0.2610625930854731" rx="1"/><rect x="35.04874179979059" y="809.3362384078409" width="10.443078502650158" height="9.075218046800051" fill="#c77dff" opacity="0.2588054309037527" rx="1"/><rect x="25.13653008351953" y="813.873847431241" width="10.443078502650158" height="9.075218046800051" fill="#e0aaff" opacity="0.12940271545187634" rx="1"/><rect x="35.77785098198286" y="836.0471128057798" width="8.984860138265617" height="7.006716755453199" fill="#c77dff" opacity="0.1281167684654046" rx="1"/><rect x="25.865639265711803" y="839.5504711835064" width="8.984860138265617" height="7.006716755453199" fill="#e0aaff" opacity="0.0640583842327023" rx="1"/><rect x="35.3066393379836" y="862.7579872037186" width="9.927283426264134" height="9.910679403671686" fill="#c77dff" opacity="0.248418422124446" rx="1"/><rect x="25.394427621712545" y="867.7133269055545" width="9.927283426264134" height="9.910679403671686" fill="#e0aaff" opacity="0.124209211062223" rx="1"/><rect x="105.44863335804823" y="695.3046318016259" width="74.61308702933906" height="184.16422980003156" fill="#3c096c" opacity="0.5730015522271864" rx="2"/><rect x="140.18230341711208" y="705.3046318016259" width="5.145746911211346" height="9.398828453244368" fill="#c77dff" opacity="0.5101435181009918" rx="1"/><rect x="121.52903165977732" y="710.004046028248" width="5.145746911211346" height="9.398828453244368" fill="#e0aaff" opacity="0.2550717590504959" rx="1"/><rect x="139.21634302136476" y="728.3251605266298" width="7.0776677027059876" height="6.101665977412291" fill="#c77dff" opacity="0.13836015810686167" rx="1"/><rect x="120.56307126403" y="731.375993515336" width="7.0776677027059876" height="6.101665977412291" fill="#e0aaff" opacity="0.06918007905343083" rx="1"/><rect x="137.38993290710567" y="751.3456892516338" width="10.730487931224165" height="7.989035705567579" fill="#c77dff" opacity="0.3630552020303568" rx="1"/><rect x="118.73666114977091" y="755.3402071044176" width="10.730487931224165" height="7.989035705567579" fill="#e0aaff" opacity="0.1815276010151784" rx="1"/><rect x="139.67345372725666" y="774.3662179766377" width="6.163446290922222" height="8.008034129163258" fill="#c77dff" opacity="0.4671104898366869" rx="1"/><rect x="121.02018196992188" y="778.3702350412193" width="6.163446290922222" height="8.008034129163258" fill="#e0aaff" opacity="0.23355524491834345" rx="1"/><rect x="140.39957527133234" y="797.3867467016416" width="4.711203202770838" height="8.576394266117456" fill="#c77dff" opacity="0.12255091397616802" rx="1"/><rect x="121.74630351399757" y="801.6749438347003" width="4.711203202770838" height="8.576394266117456" fill="#e0aaff" opacity="0.06127545698808401" rx="1"/><rect x="138.97702340065504" y="820.4072754266456" width="7.556306944125403" height="8.539170480924465" fill="#c77dff" opacity="0.5921866196655171" rx="1"/><rect x="120.32375164332029" y="824.6768606671078" width="7.556306944125403" height="8.539170480924465" fill="#e0aaff" opacity="0.29609330983275856" rx="1"/><rect x="139.0424128652796" y="843.4278041516495" width="7.4255280148763045" height="7.8646933897083375" fill="#c77dff" opacity="0.2764564280576204" rx="1"/><rect x="120.38914110794484" y="847.3601508465036" width="7.4255280148763045" height="7.8646933897083375" fill="#e0aaff" opacity="0.1382282140288102" rx="1"/><rect x="140.56206272701388" y="866.4483328766535" width="4.386228291407746" height="8.933623622854618" fill="#c77dff" opacity="0.30971524813438656" rx="1"/><rect x="121.90879096967912" y="870.9151446880808" width="4.386228291407746" height="8.933623622854618" fill="#e0aaff" opacity="0.15485762406719328" rx="1"/><rect x="224.88910483089634" y="633.0300055404729" width="48.02294089878512" height="246.4388560611845" fill="#220052" opacity="0.6527202952310258" rx="2"/><rect x="246.42626935428765" y="643.0300055404729" width="4.948611852002473" height="8.520907134404617" fill="#c77dff" opacity="0.4118174908011727" rx="1"/><rect x="234.42053412959137" y="647.2904591076751" width="4.948611852002473" height="8.520907134404617" fill="#e0aaff" opacity="0.20590874540058635" rx="1"/><rect x="246.39865789840113" y="725.1762908942011" width="5.003834763775541" height="7.476706069306635" fill="#c77dff" opacity="0.2888095079196639" rx="1"/><rect x="234.39292267370485" y="728.9146439288544" width="5.003834763775541" height="7.476706069306635" fill="#e0aaff" opacity="0.14440475395983196" rx="1"/><rect x="243.15135891006273" y="807.3225762479292" width="11.498432740452333" height="9.411654113654897" fill="#c77dff" opacity="0.41494720508692484" rx="1"/><rect x="231.14562368536644" y="812.0284033047567" width="11.498432740452333" height="9.411654113654897" fill="#e0aaff" opacity="0.20747360254346242" rx="1"/><rect x="315.48418160790425" y="623.3214991803563" width="85.12677303401911" height="256.14736242130107" fill="#220052" opacity="0.4923571603122068" rx="2"/><rect x="356.01319238934724" y="633.3214991803563" width="4.0687514711331465" height="9.522837344445948" fill="#c77dff" opacity="0.25079797609960613" rx="1"/><rect x="334.73149913084245" y="638.0829178525793" width="4.0687514711331465" height="9.522837344445948" fill="#e0aaff" opacity="0.12539898804980307" rx="1"/><rect x="354.41500209439647" y="676.0127262505732" width="7.265132061034705" height="6.493968853841994" fill="#c77dff" opacity="0.1398806640971174" rx="1"/><rect x="333.1333088358917" y="679.2597106774942" width="7.265132061034705" height="6.493968853841994" fill="#e0aaff" opacity="0.0699403320485587" rx="1"/><rect x="353.0671661751942" y="718.70395332079" width="9.960803899439238" height="8.178068602964764" fill="#c77dff" opacity="0.35704336556537153" rx="1"/><rect x="331.7854729166894" y="722.7929876222723" width="9.960803899439238" height="8.178068602964764" fill="#e0aaff" opacity="0.17852168278268576" rx="1"/><rect x="355.6341174618396" y="761.3951803910069" width="4.826901326148515" height="8.238718131147026" fill="#c77dff" opacity="0.41101983618247784" rx="1"/><rect x="334.3524242033348" y="765.5145394565803" width="4.826901326148515" height="8.238718131147026" fill="#e0aaff" opacity="0.20550991809123892" rx="1"/><rect x="352.50993512042317" y="804.0864074612238" width="11.075266008981334" height="9.845473584683024" fill="#c77dff" opacity="0.399095068778632" rx="1"/><rect x="331.2282418619184" y="809.0091442535653" width="11.075266008981334" height="9.845473584683024" fill="#e0aaff" opacity="0.199547534389316" rx="1"/><rect x="353.63259449005636" y="846.7776345314405" width="8.829947269714891" height="8.292748406131926" fill="#c77dff" opacity="0.3435153279787664" rx="1"/><rect x="332.3509012315516" y="850.9240087345065" width="8.829947269714891" height="8.292748406131926" fill="#e0aaff" opacity="0.1717576639893832" rx="1"/><rect x="407.0435040393137" y="604.2256209892746" width="69.10446053349983" height="275.2432406123828" fill="#3c096c" opacity="0.6131614344458006" rx="2"/><rect x="439.0456997577796" y="614.2256209892746" width="5.100069096568056" height="8.587710976271822" fill="#c77dff" opacity="0.5860435444829155" rx="1"/><rect x="421.7695846244046" y="618.5194764774105" width="5.100069096568056" height="8.587710976271822" fill="#e0aaff" opacity="0.29302177224145776" rx="1"/><rect x="438.2218201300768" y="705.9733678600688" width="6.747828351973515" height="9.702062284504544" fill="#c77dff" opacity="0.2882622228442371" rx="1"/><rect x="420.94570499670186" y="710.8243990023211" width="6.747828351973515" height="9.702062284504544" fill="#e0aaff" opacity="0.14413111142211854" rx="1"/><rect x="436.5529886397081" y="797.7211147308632" width="10.085491332711069" height="8.615317739223903" fill="#c77dff" opacity="0.13566547344337812" rx="1"/><rect x="419.2768735063331" y="802.0287736004751" width="10.085491332711069" height="8.615317739223903" fill="#e0aaff" opacity="0.06783273672168906" rx="1"/><rect x="513.8629610953337" y="651.7545030456396" width="69.84071816314028" height="227.71435855601783" fill="#3c096c" opacity="0.4675654467818247" rx="2"/><rect x="545.5236540876421" y="661.7545030456396" width="6.519332178523609" height="6.368046724323194" fill="#c77dff" opacity="0.3769656166846318" rx="1"/><rect x="528.0634745468569" y="664.9385264078012" width="6.519332178523609" height="6.368046724323194" fill="#e0aaff" opacity="0.1884828083423159" rx="1"/><rect x="545.2596366472019" y="694.2851256964992" width="7.047367059403883" height="6.724274296482157" fill="#c77dff" opacity="0.5083125503753109" rx="1"/><rect x="527.7994571064168" y="697.6472628447403" width="7.047367059403883" height="6.724274296482157" fill="#e0aaff" opacity="0.25415627518765543" rx="1"/><rect x="543.0428762096816" y="726.815748347359" width="11.480887934444679" height="9.002422798192693" fill="#c77dff" opacity="0.10252107204928089" rx="1"/><rect x="525.5826966688965" y="731.3169597464553" width="11.480887934444679" height="9.002422798192693" fill="#e0aaff" opacity="0.051260536024640445" rx="1"/><rect x="545.051249574024" y="759.3463709982186" width="7.464141205759752" height="9.401570147695384" fill="#c77dff" opacity="0.38463669046401905" rx="1"/><rect x="527.5910700332389" y="764.0471560720663" width="7.464141205759752" height="9.401570147695384" fill="#e0aaff" opacity="0.19231834523200952" rx="1"/><rect x="543.9822632603575" y="791.8769936490784" width="9.602113833092645" height="8.514663422134394" fill="#c77dff" opacity="0.10040252204062476" rx="1"/><rect x="526.5220837195724" y="796.1343253601456" width="9.602113833092645" height="8.514663422134394" fill="#e0aaff" opacity="0.05020126102031238" rx="1"/><rect x="544.7990734912722" y="824.407616299938" width="7.968493371263261" height="7.96481937308908" fill="#c77dff" opacity="0.18156806698105488" rx="1"/><rect x="527.3388939504871" y="828.3900259864826" width="7.968493371263261" height="7.96481937308908" fill="#e0aaff" opacity="0.09078403349052744" rx="1"/><rect x="543.5539481525472" y="856.9382389507978" width="10.458744048713413" height="6.254790759704726" fill="#c77dff" opacity="0.1423884752770859" rx="1"/><rect x="526.093768611762" y="860.0656343306501" width="10.458744048713413" height="6.254790759704726" fill="#e0aaff" opacity="0.07119423763854295" rx="1"/><rect x="636.2423314801001" y="588.2875853540114" width="66.768460901633" height="291.181276247646" fill="#3c096c" opacity="0.6755921051315014" rx="2"/><rect x="667.4240707852884" y="598.2875853540114" width="4.404982291256307" height="6.673699184477725" fill="#c77dff" opacity="0.3980431105936978" rx="1"/><rect x="650.7319555598801" y="601.6244349462503" width="4.404982291256307" height="6.673699184477725" fill="#e0aaff" opacity="0.1990215552968489" rx="1"/><rect x="666.0468540453878" y="634.6852448849671" width="7.159415771057693" height="7.669297917203348" fill="#c77dff" opacity="0.3664717954505402" rx="1"/><rect x="649.3547388199795" y="638.5198938435688" width="7.159415771057693" height="7.669297917203348" fill="#e0aaff" opacity="0.1832358977252701" rx="1"/><rect x="667.4243254582406" y="671.0829044159229" width="4.404472945352195" height="6.24362674640576" fill="#c77dff" opacity="0.3312905456012326" rx="1"/><rect x="650.7322102328322" y="674.2047177891258" width="4.404472945352195" height="6.24362674640576" fill="#e0aaff" opacity="0.1656452728006163" rx="1"/><rect x="666.5446783660733" y="707.4805639468786" width="6.163767129686606" height="7.669018889234638" fill="#c77dff" opacity="0.4630371896696829" rx="1"/><rect x="649.852563140665" y="711.315073391496" width="6.163767129686606" height="7.669018889234638" fill="#e0aaff" opacity="0.23151859483484144" rx="1"/><rect x="665.9712794321939" y="743.8782234778344" width="7.310564997445458" height="7.352626575471979" fill="#c77dff" opacity="0.3943671311471535" rx="1"/><rect x="649.2791642067856" y="747.5545367655703" width="7.310564997445458" height="7.352626575471979" fill="#e0aaff" opacity="0.19718356557357675" rx="1"/><rect x="666.1363622622367" y="780.2758830087902" width="6.980399337359797" height="9.901223896979639" fill="#c77dff" opacity="0.24843055353230578" rx="1"/><rect x="649.4442470368284" y="785.22649495728" width="6.980399337359797" height="9.901223896979639" fill="#e0aaff" opacity="0.12421527676615289" rx="1"/><rect x="665.844267555611" y="816.6735425397459" width="7.564588750611197" height="6.980788109121097" fill="#c77dff" opacity="0.44201075063133866" rx="1"/><rect x="649.1521523302027" y="820.1639365943064" width="7.564588750611197" height="6.980788109121097" fill="#e0aaff" opacity="0.22100537531566933" rx="1"/><rect x="666.3576846851354" y="853.0712020707017" width="6.537754491562432" height="8.24978406779696" fill="#c77dff" opacity="0.42174980287015196" rx="1"/><rect x="649.6655694597271" y="857.1960941046002" width="6.537754491562432" height="8.24978406779696" fill="#e0aaff" opacity="0.21087490143507598" rx="1"/><rect x="707.4525794815958" y="750.0339608872388" width="37.84270762182835" height="129.4349007144186" fill="#3c096c" opacity="0.44070041187589537" rx="2"/><rect x="723.6004765493428" y="760.0339608872388" width="5.546913486334242" height="8.528318577103391" fill="#c77dff" opacity="0.5127928430477141" rx="1"/><rect x="714.1397996438857" y="764.2981201757905" width="5.546913486334242" height="8.528318577103391" fill="#e0aaff" opacity="0.25639642152385705" rx="1"/><rect x="721.4181804403803" y="778.5246609892986" width="9.911505704259385" height="9.249591775995118" fill="#c77dff" opacity="0.1499138683196888" rx="1"/><rect x="711.9575035349231" y="783.1494568772962" width="9.911505704259385" height="9.249591775995118" fill="#e0aaff" opacity="0.0749569341598444" rx="1"/><rect x="724.0197262600674" y="797.0153610913584" width="4.708414064885213" height="8.97635369537779" fill="#c77dff" opacity="0.2078756063030743" rx="1"/><rect x="714.5590493546102" y="801.5035379390473" width="4.708414064885213" height="8.97635369537779" fill="#e0aaff" opacity="0.10393780315153715" rx="1"/><rect x="723.9223475991199" y="815.5060611934182" width="4.903171386780024" height="7.370910909346051" fill="#c77dff" opacity="0.14855231860386028" rx="1"/><rect x="714.4616706936628" y="819.1915166480912" width="4.903171386780024" height="7.370910909346051" fill="#e0aaff" opacity="0.07427615930193014" rx="1"/><rect x="720.8400264127837" y="833.996761295478" width="11.06781375945262" height="8.555981391704638" fill="#c77dff" opacity="0.4603253799631086" rx="1"/><rect x="711.3793495073265" y="838.2747519913303" width="11.06781375945262" height="8.555981391704638" fill="#e0aaff" opacity="0.2301626899815543" rx="1"/><rect x="722.0625691255332" y="852.4874613975378" width="8.622728333953471" height="9.02548629488458" fill="#c77dff" opacity="0.4533321908566478" rx="1"/><rect x="712.601892220076" y="857.0002045449801" width="8.622728333953471" height="9.02548629488458" fill="#e0aaff" opacity="0.2266660954283239" rx="1"/><rect x="722.839009372676" y="870.9781614995976" width="7.069847839667892" height="9.055614497292698" fill="#c77dff" opacity="0.2133362660448384" rx="1"/><rect x="713.3783324672188" y="875.505968748244" width="7.069847839667892" height="9.055614497292698" fill="#e0aaff" opacity="0.1066681330224192" rx="1"/><rect x="814.5520738551061" y="611.8645781096686" width="38.31459048397713" height="267.6042834919887" fill="#220052" opacity="0.5690933424208996" rx="2"/><rect x="828.2463381917569" y="621.8645781096686" width="10.926061810675558" height="8.079077789112711" fill="#c77dff" opacity="0.5380520514533976" rx="1"/><rect x="818.6676905707626" y="625.904117004225" width="10.926061810675558" height="8.079077789112711" fill="#e0aaff" opacity="0.2690260257266988" rx="1"/><rect x="831.4852049147222" y="655.3151135461673" width="4.448328364744859" height="8.111796867594077" fill="#c77dff" opacity="0.48416815872401187" rx="1"/><rect x="821.9065572937279" y="659.3710119799642" width="4.448328364744859" height="8.111796867594077" fill="#e0aaff" opacity="0.24208407936200593" rx="1"/><rect x="830.6982225309599" y="688.7656489826658" width="6.022293132269358" height="9.931086976065089" fill="#c77dff" opacity="0.16944382052622825" rx="1"/><rect x="821.1195749099656" y="693.7311924706983" width="6.022293132269358" height="9.931086976065089" fill="#e0aaff" opacity="0.08472191026311413" rx="1"/><rect x="828.2092019872075" y="722.2161844191644" width="11.00033421977431" height="7.889466061696751" fill="#c77dff" opacity="0.5634943706829786" rx="1"/><rect x="818.6305543662132" y="726.1609174500128" width="11.00033421977431" height="7.889466061696751" fill="#e0aaff" opacity="0.2817471853414893" rx="1"/><rect x="827.747556533863" y="755.666719855663" width="11.923625126463275" height="7.555693667744215" fill="#c77dff" opacity="0.33130826168491234" rx="1"/><rect x="818.1689089128687" y="759.4445666895351" width="11.923625126463275" height="7.555693667744215" fill="#e0aaff" opacity="0.16565413084245617" rx="1"/><rect x="829.9666360875293" y="789.1172552921616" width="7.485466019130653" height="6.395290705467409" fill="#c77dff" opacity="0.19383833096219188" rx="1"/><rect x="820.387988466535" y="792.3149006448954" width="7.485466019130653" height="6.395290705467409" fill="#e0aaff" opacity="0.09691916548109594" rx="1"/><rect x="831.3303961503402" y="822.5677907286602" width="4.757945893508835" height="6.353489746421922" fill="#c77dff" opacity="0.5685023559649713" rx="1"/><rect x="821.751748529346" y="825.7445356018711" width="4.757945893508835" height="6.353489746421922" fill="#e0aaff" opacity="0.28425117798248567" rx="1"/><rect x="829.5084536165497" y="856.0183261651588" width="8.401830961090008" height="8.284838915403196" fill="#c77dff" opacity="0.21577508286940286" rx="1"/><rect x="819.9298059955554" y="860.1607456228604" width="8.401830961090008" height="8.284838915403196" fill="#e0aaff" opacity="0.10788754143470143" rx="1"/><rect x="937.5015353748737" y="548.6569416706117" width="34.63836135916374" height="330.81191993104574" fill="#220052" opacity="0.4189054162751198" rx="2"/><rect x="951.2946618058866" y="558.6569416706117" width="7.0521084971381605" height="6.560545946601906" fill="#c77dff" opacity="0.28604245728022476" rx="1"/><rect x="942.6350714660956" y="561.9372146439126" width="7.0521084971381605" height="6.560545946601906" fill="#e0aaff" opacity="0.14302122864011238" rx="1"/><rect x="952.2941257536091" y="624.8193256568209" width="5.053180601693033" height="9.588348136187612" fill="#c77dff" opacity="0.3894924320954579" rx="1"/><rect x="943.6345354138182" y="629.6134997249146" width="5.053180601693033" height="9.588348136187612" fill="#e0aaff" opacity="0.19474621604772896" rx="1"/><rect x="950.9770211669023" y="690.98170964303" width="7.687389775106541" height="9.972048833028424" fill="#c77dff" opacity="0.2740781644298877" rx="1"/><rect x="942.3174308271114" y="695.9677340595441" width="7.687389775106541" height="9.972048833028424" fill="#e0aaff" opacity="0.13703908221494385" rx="1"/><rect x="950.5441405351536" y="757.1440936292391" width="8.553151038604124" height="8.174357777036345" fill="#c77dff" opacity="0.2293749701300112" rx="1"/><rect x="941.8845501953626" y="761.2312725177574" width="8.553151038604124" height="8.174357777036345" fill="#e0aaff" opacity="0.1146874850650056" rx="1"/><rect x="950.8054216865389" y="823.3064776154483" width="8.030588735833437" height="9.781525318459963" fill="#c77dff" opacity="0.2508503160790657" rx="1"/><rect x="942.145831346748" y="828.1972402746783" width="8.030588735833437" height="9.781525318459963" fill="#e0aaff" opacity="0.12542515803953286" rx="1"/><rect x="1024.764193447166" y="761.2416144952275" width="54.41576431608195" height="118.22724710642994" fill="#220052" opacity="0.5897488378430132" rx="2"/><rect x="1049.6032431482417" y="771.2416144952275" width="4.737664913930386" height="8.965040205736887" fill="#c77dff" opacity="0.1798555861878804" rx="1"/><rect x="1035.9993020692211" y="775.7241345980959" width="4.737664913930386" height="8.965040205736887" fill="#e0aaff" opacity="0.0899277930939402" rx="1"/><rect x="1049.1199969651063" y="810.6506968640375" width="5.704157280201128" height="7.727811732731716" fill="#c77dff" opacity="0.49145808676058844" rx="1"/><rect x="1035.5160558860857" y="814.5146027304033" width="5.704157280201128" height="7.727811732731716" fill="#e0aaff" opacity="0.24572904338029422" rx="1"/><rect x="1047.56807407625" y="850.0597792328475" width="8.808003057913854" height="8.421030659792253" fill="#c77dff" opacity="0.43771751363242917" rx="1"/><rect x="1033.9641329972294" y="854.2702945627436" width="8.808003057913854" height="8.421030659792253" fill="#e0aaff" opacity="0.21885875681621458" rx="1"/><rect x="1122.9153790280247" y="522.8069480445251" width="75.46236932870522" height="356.6619135571322" fill="#220052" opacity="0.6131421765343151" rx="2"/><rect x="1158.12233417598" y="532.8069480445251" width="5.048459032794567" height="8.09146594584255" fill="#c77dff" opacity="0.44102547409502457" rx="1"/><rect x="1139.2567418438036" y="536.8526810174465" width="5.048459032794567" height="8.09146594584255" fill="#e0aaff" opacity="0.22051273704751229" rx="1"/><rect x="1158.2469869910606" y="651.6942525635692" width="4.799153402633768" height="9.68096997953974" fill="#c77dff" opacity="0.5559414314469187" rx="1"/><rect x="1139.3813946588841" y="656.534737553339" width="4.799153402633768" height="9.68096997953974" fill="#e0aaff" opacity="0.2779707157234593" rx="1"/><rect x="1158.1119161781407" y="770.5815570826132" width="5.069295028473552" height="9.587961057105092" fill="#c77dff" opacity="0.2916628192857985" rx="1"/><rect x="1139.2463238459643" y="775.3755376111658" width="5.069295028473552" height="9.587961057105092" fill="#e0aaff" opacity="0.14583140964289926" rx="1"/><rect x="1233.982880508327" y="564.3414054564995" width="64.22015650528952" height="315.1274561451579" fill="#3c096c" opacity="0.533089116921902" rx="2"/><rect x="1262.8111982925257" y="574.3414054564995" width="6.563520936892257" height="8.859384330655304" fill="#c77dff" opacity="0.45185574131362505" rx="1"/><rect x="1246.7561591662031" y="578.7710976218272" width="6.563520936892257" height="8.859384330655304" fill="#e0aaff" opacity="0.22592787065681252" rx="1"/><rect x="1263.8955531730442" y="653.123269492789" width="4.394811175855531" height="8.871894777489802" fill="#c77dff" opacity="0.16119687228025797" rx="1"/><rect x="1247.8405140467216" y="657.5592168815339" width="4.394811175855531" height="8.871894777489802" fill="#e0aaff" opacity="0.08059843614012899" rx="1"/><rect x="1262.3809810300681" y="731.9051335290785" width="7.423955461807539" height="9.026020798605405" fill="#c77dff" opacity="0.31492447685797803" rx="1"/><rect x="1246.3259419037456" y="736.4181439283813" width="7.423955461807539" height="9.026020798605405" fill="#e0aaff" opacity="0.15746223842898902" rx="1"/><rect x="1260.2963468345008" y="810.686997565368" width="11.593223852942051" height="8.964182625283529" fill="#c77dff" opacity="0.161231798623044" rx="1"/><rect x="1244.2413077081783" y="815.1690888780097" width="11.593223852942051" height="8.964182625283529" fill="#e0aaff" opacity="0.080615899311522" rx="1"/><rect x="1316.5415964496701" y="794.4845660926039" width="40.12128400852002" height="84.98429550905347" fill="#3c096c" opacity="0.47557072743670337" rx="2"/><rect x="1333.4340459822806" y="804.4845660926039" width="6.336384943299086" height="7.292139209176446" fill="#c77dff" opacity="0.45796193670433993" rx="1"/><rect x="1323.4037249801506" y="808.1306356971921" width="6.336384943299086" height="7.292139209176446" fill="#e0aaff" opacity="0.22898096835216997" rx="1"/><rect x="1331.5821954386781" y="818.6486153441128" width="10.040086030503755" height="8.44109178484443" fill="#c77dff" opacity="0.5870401908380539" rx="1"/><rect x="1321.5518744365481" y="822.8691612365351" width="10.040086030503755" height="8.44109178484443" fill="#e0aaff" opacity="0.29352009541902696" rx="1"/><rect x="1332.3932053879403" y="832.8126645956218" width="8.418066131979709" height="9.232320868231431" fill="#c77dff" opacity="0.37400375455012635" rx="1"/><rect x="1322.3628843858103" y="837.4288250297375" width="8.418066131979709" height="9.232320868231431" fill="#e0aaff" opacity="0.18700187727506318" rx="1"/><rect x="1333.0319664223243" y="846.9767138471307" width="7.1405440632115456" height="7.149469198926694" fill="#c77dff" opacity="0.5499914434156361" rx="1"/><rect x="1323.0016454201943" y="850.551448446594" width="7.1405440632115456" height="7.149469198926694" fill="#e0aaff" opacity="0.27499572170781805" rx="1"/><rect x="1334.2034708772844" y="861.1407630986396" width="4.797535153291546" height="8.183934524232507" fill="#c77dff" opacity="0.3204684514367181" rx="1"/><rect x="1324.1731498751544" y="865.2327303607558" width="4.797535153291546" height="8.183934524232507" fill="#e0aaff" opacity="0.16023422571835905" rx="1"/><rect x="1331.915505874282" y="875.3048123501485" width="9.3734651592964" height="8.11425317034923" fill="#c77dff" opacity="0.19503658886417669" rx="1"/><rect x="1321.885184872152" y="879.3619389353231" width="9.3734651592964" height="8.11425317034923" fill="#e0aaff" opacity="0.09751829443208834" rx="1"/><rect x="1434.8369609491251" y="709.461648589806" width="46.79180680699456" height="170.00721301185135" fill="#220052" opacity="0.6660668406556516" rx="2"/><rect x="1455.8386896556528" y="719.461648589806" width="4.788349393938749" height="8.282569862502294" fill="#c77dff" opacity="0.3242625146695093" rx="1"/><rect x="1444.1407379539044" y="723.6029335210571" width="4.788349393938749" height="8.282569862502294" fill="#e0aaff" opacity="0.16213125733475464" rx="1"/><rect x="1455.431689485469" y="753.4630911921763" width="5.602349734306882" height="6.255579656049512" fill="#c77dff" opacity="0.12962137992252162" rx="1"/><rect x="1443.7337377837205" y="756.5908810202011" width="5.602349734306882" height="6.255579656049512" fill="#e0aaff" opacity="0.06481068996126081" rx="1"/><rect x="1454.6682386224513" y="787.4645337945466" width="7.129251460342028" height="9.652258271270492" fill="#c77dff" opacity="0.3090927061413165" rx="1"/><rect x="1442.9702869207028" y="792.2906629301818" width="7.129251460342028" height="9.652258271270492" fill="#e0aaff" opacity="0.15454635307065825" rx="1"/><rect x="1452.6111726163176" y="821.4659763969169" width="11.24338347260919" height="7.37486310987148" fill="#c77dff" opacity="0.2732389216016137" rx="1"/><rect x="1440.9132209145691" y="825.1534079518526" width="11.24338347260919" height="7.37486310987148" fill="#e0aaff" opacity="0.13661946080080686" rx="1"/><rect x="1453.7965978524835" y="855.4674189992871" width="8.872533000277478" height="6.0275302259315575" fill="#c77dff" opacity="0.2846252843236144" rx="1"/><rect x="1442.098646150735" y="858.4811841122529" width="8.872533000277478" height="6.0275302259315575" fill="#e0aaff" opacity="0.1423126421618072" rx="1"/><rect x="1532.3658338681128" y="587.0265790114706" width="77.59886593269158" height="292.4422825901868" fill="#3c096c" opacity="0.6866152343541885" rx="2"/><rect x="1568.5084051490892" y="597.0265790114706" width="5.313723370738729" height="6.356451965951466" fill="#c77dff" opacity="0.16493482309508484" rx="1"/><rect x="1549.1086886659161" y="600.2048049944464" width="5.313723370738729" height="6.356451965951466" fill="#e0aaff" opacity="0.08246741154754242" rx="1"/><rect x="1568.2951879771992" y="645.7669594431684" width="5.740157714518755" height="9.400670456560485" fill="#c77dff" opacity="0.17766621852704934" rx="1"/><rect x="1548.8954714940262" y="650.4672946714486" width="5.740157714518755" height="9.400670456560485" fill="#e0aaff" opacity="0.08883310926352467" rx="1"/><rect x="1568.642204402152" y="694.5073398748663" width="5.0461248646132" height="6.263168035136342" fill="#c77dff" opacity="0.5182680209442666" rx="1"/><rect x="1549.242487918979" y="697.6389238924344" width="5.0461248646132" height="6.263168035136342" fill="#e0aaff" opacity="0.2591340104721333" rx="1"/><rect x="1566.1776152779642" y="743.247720306564" width="9.97530311298913" height="6.085424904731434" fill="#c77dff" opacity="0.2851800450089341" rx="1"/><rect x="1546.777898794791" y="746.2904327589297" width="9.97530311298913" height="6.085424904731434" fill="#e0aaff" opacity="0.14259002250446706" rx="1"/><rect x="1569.116418281818" y="791.9881007382618" width="4.09769710528145" height="6.905392739201289" fill="#c77dff" opacity="0.501599126030132" rx="1"/><rect x="1549.7167017986449" y="795.4407971078624" width="4.09769710528145" height="6.905392739201289" fill="#e0aaff" opacity="0.250799563015066" rx="1"/><rect x="1567.277319691895" y="840.7284811699597" width="7.775894285127496" height="6.020137312826733" fill="#c77dff" opacity="0.12199289156636059" rx="1"/><rect x="1547.877603208722" y="843.7385498263731" width="7.775894285127496" height="6.020137312826733" fill="#e0aaff" opacity="0.060996445783180295" rx="1"/><rect x="1617.7483447878526" y="649.1193216757661" width="52.66938770717694" height="230.34953992589132" fill="#220052" opacity="0.6602419525059504" rx="2"/><rect x="1641.103212776667" y="659.1193216757661" width="5.959651729548269" height="7.395867397402382" fill="#c77dff" opacity="0.1564426080222341" rx="1"/><rect x="1627.9358658498727" y="662.8172553744672" width="5.959651729548269" height="7.395867397402382" fill="#e0aaff" opacity="0.07822130401111704" rx="1"/><rect x="1641.4594009026582" y="687.9130141665024" width="5.2472754775656565" height="6.130321533449535" fill="#c77dff" opacity="0.3074791702226454" rx="1"/><rect x="1628.2920539758638" y="690.9781749332271" width="5.2472754775656565" height="6.130321533449535" fill="#e0aaff" opacity="0.1537395851113227" rx="1"/><rect x="1639.051552285967" y="716.7067066572389" width="10.062972710948198" height="9.090207563501366" fill="#c77dff" opacity="0.2976458662416893" rx="1"/><rect x="1625.8842053591727" y="721.2518104389895" width="10.062972710948198" height="9.090207563501366" fill="#e0aaff" opacity="0.14882293312084466" rx="1"/><rect x="1638.65229930027" y="745.5003991479753" width="10.86147868234233" height="7.879728959379655" fill="#c77dff" opacity="0.2555039211305566" rx="1"/><rect x="1625.4849523734756" y="749.4402636276651" width="10.86147868234233" height="7.879728959379655" fill="#e0aaff" opacity="0.1277519605652783" rx="1"/><rect x="1639.6015158488444" y="774.2940916387117" width="8.963045585193449" height="8.612432817605425" fill="#c77dff" opacity="0.43186117264718316" rx="1"/><rect x="1626.43416892205" y="778.6003080475144" width="8.963045585193449" height="8.612432817605425" fill="#e0aaff" opacity="0.21593058632359158" rx="1"/><rect x="1640.5081978905291" y="803.0877841294481" width="7.149681501823869" height="8.8127363815002" fill="#c77dff" opacity="0.3318016033926517" rx="1"/><rect x="1627.3408509637347" y="807.4941523201982" width="7.149681501823869" height="8.8127363815002" fill="#e0aaff" opacity="0.16590080169632584" rx="1"/><rect x="1640.4630825518802" y="831.8814766201846" width="7.239912179121728" height="7.685616669637527" fill="#c77dff" opacity="0.5828775067540998" rx="1"/><rect x="1627.2957356250859" y="835.7242849550033" width="7.239912179121728" height="7.685616669637527" fill="#e0aaff" opacity="0.2914387533770499" rx="1"/><rect x="1640.8572520837347" y="860.6751691109209" width="6.451573115412978" height="8.540279104965805" fill="#c77dff" opacity="0.1326879159623496" rx="1"/><rect x="1627.6899051569403" y="864.9453086634038" width="6.451573115412978" height="8.540279104965805" fill="#e0aaff" opacity="0.0663439579811748" rx="1"/><rect x="1736.9057171806644" y="610.4167780513914" width="37.60379199115648" height="269.05208355026605" fill="#220052" opacity="0.6419588717264028" rx="2"/><rect x="1752.9214326742558" y="620.4167780513914" width="5.572361003973605" height="9.846045867504097" fill="#c77dff" opacity="0.30647714547963745" rx="1"/><rect x="1743.5204846764668" y="625.3398009851434" width="5.572361003973605" height="9.846045867504097" fill="#e0aaff" opacity="0.15323857273981872" rx="1"/><rect x="1752.2794367300237" y="658.8527899871436" width="6.856352892438032" height="6.843205061937497" fill="#c77dff" opacity="0.10624398002546374" rx="1"/><rect x="1742.8784887322347" y="662.2743925181123" width="6.856352892438032" height="6.843205061937497" fill="#e0aaff" opacity="0.05312199001273187" rx="1"/><rect x="1750.178648840322" y="697.2888019228959" width="11.057928671841028" height="6.531487613108821" fill="#c77dff" opacity="0.3572113833756213" rx="1"/><rect x="1740.777700842533" y="700.5545457294503" width="11.057928671841028" height="6.531487613108821" fill="#e0aaff" opacity="0.17860569168781065" rx="1"/><rect x="1750.28097004135" y="735.7248138586482" width="10.853286269785205" height="9.53065357811997" fill="#c77dff" opacity="0.17530920290744612" rx="1"/><rect x="1740.880022043561" y="740.4901406477081" width="10.853286269785205" height="9.53065357811997" fill="#e0aaff" opacity="0.08765460145372306" rx="1"/><rect x="1750.0830411730697" y="774.1608257944006" width="11.249144006345688" height="7.597909514232983" fill="#c77dff" opacity="0.37766798943692537" rx="1"/><rect x="1740.6820931752807" y="777.959780551517" width="11.249144006345688" height="7.597909514232983" fill="#e0aaff" opacity="0.18883399471846268" rx="1"/><rect x="1752.2961891658533" y="812.5968377301529" width="6.8228480207787" height="7.400045223860081" fill="#c77dff" opacity="0.1479086347734343" rx="1"/><rect x="1742.8952411680643" y="816.2968603420829" width="6.8228480207787" height="7.400045223860081" fill="#e0aaff" opacity="0.07395431738671715" rx="1"/><rect x="1753.5932243499128" y="851.0328496659051" width="4.228777652659635" height="7.048553850745911" fill="#c77dff" opacity="0.13064702498508782" rx="1"/><rect x="1744.1922763521238" y="854.5571265912781" width="4.228777652659635" height="7.048553850745911" fill="#e0aaff" opacity="0.06532351249254391" rx="1"/><rect x="1827.8674554015984" y="659.8019751975783" width="66.63832650441637" height="219.66688640407912" fill="#220052" opacity="0.5566473278581741" rx="2"/><rect x="1856.1497974702822" y="669.8019751975783" width="10.07364236704857" height="9.724795996147392" fill="#c77dff" opacity="0.19604273075145734" rx="1"/><rect x="1839.490215844178" y="674.6643731956519" width="10.07364236704857" height="9.724795996147392" fill="#e0aaff" opacity="0.09802136537572867" rx="1"/><rect x="1857.44088010983" y="706.4131229315915" width="7.491477087953006" height="6.471320071367389" fill="#c77dff" opacity="0.44996928538893566" rx="1"/><rect x="1840.7812984837258" y="709.6487829672752" width="7.491477087953006" height="6.471320071367389" fill="#e0aaff" opacity="0.22498464269446783" rx="1"/><rect x="1857.9313348004753" y="743.0242706656046" width="6.510567706662828" height="6.631012587023669" fill="#c77dff" opacity="0.4202738789423075" rx="1"/><rect x="1841.271753174371" y="746.3397769591164" width="6.510567706662828" height="6.631012587023669" fill="#e0aaff" opacity="0.21013693947115375" rx="1"/><rect x="1858.1452971673295" y="779.6354183996178" width="6.082642972954233" height="6.647714014315911" fill="#c77dff" opacity="0.4294545858701353" rx="1"/><rect x="1841.4857155412253" y="782.9592754067758" width="6.082642972954233" height="6.647714014315911" fill="#e0aaff" opacity="0.21472729293506765" rx="1"/><rect x="1858.4029417974268" y="816.246566133631" width="5.567353712759761" height="6.953076146764931" fill="#c77dff" opacity="0.21667732268494494" rx="1"/><rect x="1841.7433601713226" y="819.7231042070134" width="5.567353712759761" height="6.953076146764931" fill="#e0aaff" opacity="0.10833866134247247" rx="1"/><rect x="1859.1378353179605" y="852.8577138676442" width="4.0975666716922" height="6.363246165300544" fill="#c77dff" opacity="0.12878582827485768" rx="1"/><rect x="1842.4782536918563" y="856.0393369502945" width="4.0975666716922" height="6.363246165300544" fill="#e0aaff" opacity="0.06439291413742884" rx="1"/><path d="M994.3513957491032 914.8646333755145 Q1003.1502881048132 792.1240019710092 1004.9100665759552 669.383370566504" stroke="#00001f" stroke-width="6.857625648113347" fill="none" stroke-linecap="round"/><path d="M1004.9100665759552 669.383370566504 Q1045.037940776683 649.383370566504 1068.3702259623376 669.383370566504" stroke="#090039" stroke-width="3.7855138480163912" fill="none" stroke-linecap="round" opacity="0.6"/><path d="M1004.9100665759552 669.383370566504 Q1029.6750428433184 657.3922877147884 1047.4893885727602 685.4012048630728" stroke="#090039" stroke-width="2.4836187368453526" fill="none" stroke-linecap="round" opacity="0.6"/><path d="M1004.9100665759552 669.383370566504 Q1001.3429300730974 655.8829878434469 995.0200983793172 682.3826051203897" stroke="#090039" stroke-width="3.7284314641096703" fill="none" stroke-linecap="round" opacity="0.6"/><path d="M1004.9100665759552 669.383370566504 Q985.644382703795 652.1685768807522 966.3531298732571 674.9537831950004" stroke="#090039" stroke-width="2.2973261750995473" fill="none" stroke-linecap="round" opacity="0.6"/><path d="M1004.9100665759552 669.383370566504 Q1004.0180683101587 647.3011621308417 976.0850641174474 665.2189536951795" stroke="#090039" stroke-width="3.4116957707823476" fill="none" stroke-linecap="round" opacity="0.6"/><path d="M1004.9100665759552 669.383370566504 Q1002.8554877218996 641.1544512689932 992.3887523696884 652.9255319714824" stroke="#090039" stroke-width="3.8635801383907857" fill="none" stroke-linecap="round" opacity="0.6"/><path d="M1004.9100665759552 669.383370566504 Q1026.7367848909837 642.0489528758467 1043.903419450939 654.7145351851893" stroke="#090039" stroke-width="2.656168259833047" fill="none" stroke-linecap="round" opacity="0.6"/><path d="M972.0220030127144 818.5908184662906 Q954.2597039356501 697.3390526481296 950.7072441202372 576.0872868299688" stroke="#00001f" stroke-width="5.105957587507078" fill="none" stroke-linecap="round"/><path d="M950.7072441202372 576.0872868299688 Q1001.2988277902591 556.0872868299688 1027.9924245770071 576.0872868299688" stroke="#090039" stroke-width="2.9364201233108576" fill="none" stroke-linecap="round" opacity="0.6"/><path d="M950.7072441202372 576.0872868299688 Q981.382515121405 563.3607450926313 989.3765068510388 590.634203355294" stroke="#090039" stroke-width="2.813614038008641" fill="none" stroke-linecap="round" opacity="0.6"/><path d="M950.7072441202372 576.0872868299688 Q963.7912756169922 563.8647448002546 938.8728839264946 591.6422027705403" stroke="#090039" stroke-width="2.288662519373154" fill="none" stroke-linecap="round" opacity="0.6"/><path d="M950.7072441202372 576.0872868299688 Q939.4997340302812 560.0020090260258 896.5138814419104 583.9167312220828" stroke="#090039" stroke-width="2.6399354316852834" fill="none" stroke-linecap="round" opacity="0.6"/><path d="M950.7072441202372 576.0872868299688 Q942.7566393625257 553.9576952751228 921.2262945895877 571.8281037202768" stroke="#090039" stroke-width="3.6692787356835974" fill="none" stroke-linecap="round" opacity="0.6"/><path d="M950.7072441202372 576.0872868299688 Q954.5360940747777 549.5935588082507 940.8262371507597 563.0998307865325" stroke="#090039" stroke-width="2.8731931701472946" fill="none" stroke-linecap="round" opacity="0.6"/><path d="M784.149892065709 834.5832586136141 Q777.1736644667512 776.5214100308998 775.7784189469596 718.4595614481856" stroke="#00001f" stroke-width="4.918963582468909" fill="none" stroke-linecap="round"/><path d="M775.7784189469596 718.4595614481856 Q794.9930211305601 698.4595614481856 813.7848952337598 718.4595614481856" stroke="#090039" stroke-width="3.1535672943931" fill="none" stroke-linecap="round" opacity="0.6"/><path d="M775.7784189469596 718.4595614481856 Q801.7194317979689 702.005852318687 794.6322362700363 725.5521431891884" stroke="#090039" stroke-width="3.385615992682431" fill="none" stroke-linecap="round" opacity="0.6"/><path d="M775.7784189469596 718.4595614481856 Q768.3788929451428 708.3343903075043 760.7526506278995 738.2092191668231" stroke="#090039" stroke-width="2.1425831360143106" fill="none" stroke-linecap="round" opacity="0.6"/><path d="M775.7784189469596 718.4595614481856 Q761.5202642082864 700.5462382160191 746.8915592393816 722.6329149838526" stroke="#090039" stroke-width="3.8680898868171707" fill="none" stroke-linecap="round" opacity="0.6"/><path d="M775.7784189469596 718.4595614481856 Q757.7058870544712 693.9799412981736 713.7649050135167 709.5003211481617" stroke="#090039" stroke-width="3.200039079692224" fill="none" stroke-linecap="round" opacity="0.6"/><path d="M775.7784189469596 718.4595614481856 Q771.9874079345143 692.1653373231112 766.2009817276444 705.8711131980368" stroke="#090039" stroke-width="2.7745077164784324" fill="none" stroke-linecap="round" opacity="0.6"/><rect x="0" y="1000" width="1920" height="80" fill="#160046" opacity="0.8"/><line x1="0" y1="1040" x2="1920" y2="1040" stroke="#c77dff" stroke-opacity="0.15" stroke-width="2" stroke-dasharray="30,20"/><rect x="0" y="930" width="1920" height="150" fill="url(#glow11)"/><text x="1900" y="1060" font-family="Arial, sans-serif" font-size="11" fill="#fff" opacity="0.08" text-anchor="end" letter-spacing="2">GTA 6 REWARDS · WALLPAPER 012</text>
</svg>