<?xml version="1.0" encoding="UTF-8"?>
<svg xmlns="http://www.w3.org/2000/svg" width="1920" height="1080" viewBox="0 0 1920 1080">
<defs>
    <linearGradient id="bg9" x1="0%" y1="0%" x2="0%" y2="100%">
      <stop offset="0%" stop-color="#6930c3"/>
      <stop offset="50%" stop-color="#360090"/>
      <stop offset="100%" stop-color="#6930c3"/>
    </linearGradient>
    <linearGradient id="sun9" x1="0%" y1="0%" x2="100%" y2="100%">
      <stop offset="0%" stop-color="#80ffdb"/>
      <stop offset="100%" stop-color="#64dfdf"/>
    </linearGradient>
    <radialGradient id="glow9" cx="50%" cy="70%" r="50%">
      <stop offset="0%" stop-color="#80ffdb" stop-opacity="0.3"/>
      <stop offset="100%" stop-color="#6930c3" stop-opacity="0"/>
    </radialGradient>
  </defs><rect width="1920" height="1080" fill="url(#bg9)"/><circle cx="1321.4529557669193" cy="256.7064426971382" r="846.5015152577547" fill="#80ffdb" opacity="0.12238044007038243"/><circle cx="1521.4529557669193" cy="156.7064426971382" r="537.7723220590904" fill="#64dfdf" opacity="0.0710174746860325"/><line x1="0" y1="980" x2="1920" y2="980" stroke="#64dfdf" stroke-opacity="0.05" stroke-width="2"/><line x1="0" y1="935" x2="1920" y2="935" stroke="#64dfdf" stroke-opacity="0.049" stroke-width="0.5"/><line x1="0" y1="890" x2="1920" y2="890" stroke="#64dfdf" stroke-opacity="0.048" stroke-width="0.5"/><line x1="0" y1="845" x2="1920" y2="845" stroke="#64dfdf" stroke-opacity="0.047" stroke-width="0.5"/><line x1="0" y1="800" x2="1920" y2="800" stroke="#64dfdf" stroke-opacity="0.046" stroke-width="0.5"/><line x1="0" y1="755" x2="1920" y2="755" stroke="#64dfdf" stroke-opacity="0.045" stroke-width="0.5"/><line x1="0" y1="710" x2="1920" y2="710" stroke="#64dfdf" stroke-opacity="0.044" stroke-width="0.5"/><line x1="0" y1="665" x2="1920" y2="665" stroke="#64dfdf" stroke-opacity="0.043" stroke-width="0.5"/><line x1="0" y1="620" x2="1920" y2="620" stroke="#64dfdf" stroke-opacity="0.041999999999999996" stroke-width="0.5"/><line x1="0" y1="575" x2="1920" y2="575" stroke="#64dfdf" stroke-opacity="0.041" stroke-width="0.5"/><line x1="0" y1="530" x2="1920" y2="530" stroke="#64dfdf" stroke-opacity="0.04" stroke-width="0.5"/><line x1="0" y1="485" x2="1920" y2="485" stroke="#64dfdf" stroke-opacity="0.039" stroke-width="0.5"/><line x1="0" y1="440" x2="1920" y2="440" stroke="#64dfdf" stroke-opacity="0.038" stroke-width="0.5"/><line x1="0" y1="395" x2="1920" y2="395" stroke="#64dfdf" stroke-opacity="0.037" stroke-width="0.5"/><line x1="0" y1="350" x2="1920" y2="350" stroke="#64dfdf" stroke-opacity="0.036" stroke-width="0.5"/><line x1="0" y1="305" x2="1920" y2="305" stroke="#64dfdf" stroke-opacity="0.034999999999999996" stroke-width="0.5"/><line x1="0" y1="260" x2="1920" y2="260" stroke="#64dfdf" stroke-opacity="0.033999999999999996" stroke-width="0.5"/><line x1="0" y1="215" x2="1920" y2="215" stroke="#64dfdf" stroke-opacity="0.033" stroke-width="0.5"/><line x1="0" y1="170" x2="1920" y2="170" stroke="#64dfdf" stroke-opacity="0.032" stroke-width="0.5"/><line x1="0" y1="125" x2="1920" y2="125" stroke="#64dfdf" stroke-opacity="0.031" stroke-width="0.5"/><line x1="560" y1="1080" x2="860" y2="580" stroke="#80ffdb" stroke-opacity="0.04" stroke-width="1"/><line x1="640" y1="1080" x2="880" y2="590" stroke="#80ffdb" stroke-opacity="0.04" stroke-width="1"/><line x1="720" y1="1080" x2="900" y2="600" stroke="#80ffdb" stroke-opacity="0.04" stroke-width="1"/><line x1="800" y1="1080" x2="920" y2="610" stroke="#80ffdb" stroke-opacity="0.04" stroke-width="1"/><line x1="880" y1="1080" x2="940" y2="620" stroke="#80ffdb" stroke-opacity="0.04" stroke-width="1"/><line x1="960" y1="1080" x2="960" y2="630" stroke="#80ffdb" stroke-opacity="0.04" stroke-width="1"/><line x1="1040" y1="1080" x2="980" y2="620" stroke="#80ffdb" stroke-opacity="0.04" stroke-width="1"/><line x1="1120" y1="1080" x2="1000" y2="610" stroke="#80ffdb" stroke-opacity="0.04" stroke-width="1"/><line x1="1200" y1="1080" x2="1020" y2="600" stroke="#80ffdb" stroke-opacity="0.04" stroke-width="1"/><line x1="1280" y1="1080" x2="1040" y2="590" stroke="#80ffdb" stroke-opacity="0.04" stroke-width="1"/><line x1="1360" y1="1080" x2="1060" y2="580" stroke="#80ffdb" stroke-opacity="0.04" stroke-width="1"/><circle cx="457.0339850515672" cy="339.68715611605137" r="96.77817013039677" fill="url(#sun9)" opacity="0.809404732009723"/><circle cx="457.0339850515672" cy="339.68715611605137" r="91.77817013039677" fill="#6930c3" opacity="0.3"/><pattern id="scan9" width="1920" height="4" patternUnits="userSpaceOnUse">
      <line x1="0" y1="0" x2="1920" y2="0" stroke="#000" stroke-opacity="0.05" stroke-width="1"/>
    </pattern>
    <rect width="1920" height="1080" fill="url(#scan9)"/><circle cx="1800.6081117411627" cy="123.99371251370613" r="1.595406962580841" fill="#fff" opacity="0.5851844538900033"/><circle cx="704.5185150356308" cy="231.35597439654077" r="1.8461574836043078" fill="#fff" opacity="0.7193353143798502"/><circle cx="874.2297231206273" cy="377.4330971076696" r="0.7847239730844098" fill="#fff" opacity="0.6063692168347465"/><circle cx="640.4360333086075" cy="20.776998353371628" r="1.814467825301566" fill="#fff" opacity="0.3227218288748343"/><circle cx="1010.6039489178462" cy="213.44725127272477" r="0.6121044568978493" fill="#fff" opacity="0.7005357190735022"/><circle cx="1351.1518436835966" cy="85.016703338599" r="0.6024971051613095" fill="#fff" opacity="0.49327977874625467"/><circle cx="594.6247513486596" cy="284.57123163262645" r="0.9382277680417122" fill="#fff" opacity="0.5320102292886028"/><circle cx="1837.572848777653" cy="245.32669021313234" r="0.7401879029907723" fill="#fff" opacity="0.5105235932186534"/><circle cx="624.6364261174193" cy="231.880651695626" r="1.6996207314542542" fill="#fff" opacity="0.5462399369446188"/><circle cx="1178.2915545763196" cy="230.48548082785808" r="1.4848971358698089" fill="#fff" opacity="0.4981010720827852"/><circle cx="345.12269862581104" cy="401.62447052486806" r="1.3953695436695985" fill="#fff" opacity="0.5846949967054406"/><circle cx="1061.7686634747706" cy="283.7303810333205" r="1.9737936570248087" fill="#fff" opacity="0.7504852092709591"/><circle cx="41.1519228017777" cy="316.1167310243745" r="0.6425627238681919" fill="#fff" opacity="0.5995114490388687"/><circle cx="1228.9908495426623" cy="421.1301727157855" r="1.6017741716005314" fill="#fff" opacity="0.7429107218382207"/><circle cx="1525.4832050775835" cy="100.33924163606466" r="1.5291816486346492" fill="#fff" opacity="0.7743008941817797"/><circle cx="235.60716485502365" cy="406.7669612408539" r="1.5281011462277037" fill="#fff" opacity="0.6759048474197986"/><circle cx="664.2009787317833" cy="332.2590366518728" r="0.9841545663038629" fill="#fff" opacity="0.6290193908449773"/><circle cx="1646.1725802082037" cy="29.987450006880668" r="1.3753292580077725" fill="#fff" opacity="0.534118474771762"/><circle cx="614.7398647607165" cy="230.88101599898212" r="0.9255725691154535" fill="#fff" opacity="0.4927783157426813"/><circle cx="357.3671213624457" cy="353.98271967144285" r="1.5388522764059838" fill="#fff" opacity="0.5428224039596558"/><circle cx="1811.29848134967" cy="363.4253489029187" r="0.5521554338168715" fill="#fff" opacity="0.32901997904503255"/><circle cx="1143.8732334654485" cy="296.0530182812486" r="0.7966470812206732" fill="#fff" opacity="0.35762957305592247"/><circle cx="1717.0108517531796" cy="277.5598836218845" r="0.5039794677877751" fill="#fff" opacity="0.47657257525170515"/><circle cx="174.6412378956194" cy="82.84485955602602" r="0.6676446055452443" fill="#fff" opacity="0.30595840390444695"/><circle cx="367.97059499844227" cy="124.69129311961385" r="1.7392853557223653" fill="#fff" opacity="0.2879938463419662"/><circle cx="1642.194973314692" cy="297.9542186916699" r="1.7487446180891117" fill="#fff" opacity="0.42729421202728857"/><circle cx="1820.1958340174042" cy="229.50301421934344" r="1.9296421545859526" fill="#fff" opacity="0.6968683208564456"/><circle cx="926.4408375989741" cy="109.20822260091273" r="1.881060909219333" fill="#fff" opacity="0.7650166218553243"/><circle cx="159.2848366869811" cy="155.17243547997728" r="1.0185281239725947" fill="#fff" opacity="0.7411473621942912"/><circle cx="836.455681369746" cy="180.8448784139112" r="1.727499632217805" fill="#fff" opacity="0.6428107448021907"/><circle cx="1060.4578263546475" cy="357.125423909427" r="0.6053882586083813" fill="#fff" opacity="0.2036318410662077"/><circle cx="1810.9060156091364" cy="378.6745790081738" r="1.8731833252527712" fill="#fff" opacity="0.696875118160824"/><circle cx="1696.362504012967" cy="336.478681236617" r="1.8039170425161526" fill="#fff" opacity="0.41409191224120834"/><circle cx="892.1362703135554" cy="351.4485604128448" r="0.7451164438959947" fill="#fff" opacity="0.43897417435398656"/><circle cx="1078.4003294534982" cy="225.46576936949646" r="1.8351091611746488" fill="#fff" opacity="0.22313014329949632"/><circle cx="979.3500926390639" cy="49.685221966748415" r="1.5820757230003542" fill="#fff" opacity="0.4418028006893123"/><circle cx="1275.3152818966923" cy="271.8635618723611" r="0.7836171630266162" fill="#fff" opacity="0.3713727076005593"/><circle cx="1271.9497577827306" cy="136.33371136531554" r="1.840029560807168" fill="#fff" opacity="0.26503161519417345"/><circle cx="1059.1713986776704" cy="300.3745580083631" r="0.5269965570250053" fill="#fff" opacity="0.2786500175200985"/><circle cx="323.49619306705335" cy="226.2086938252227" r="1.9005302772625652" fill="#fff" opacity="0.4769795409582973"/><circle cx="346.27494745568254" cy="201.7817838661796" r="0.8700425817794266" fill="#fff" opacity="0.6667433135366867"/><circle cx="1823.671233929617" cy="204.38554172133692" r="1.8616597349433368" fill="#fff" opacity="0.5654580271256757"/><circle cx="250.57922071092275" cy="36.23593140492121" r="0.803031305503806" fill="#fff" opacity="0.5799165193876057"/><circle cx="1347.3576726176211" cy="254.69715769558613" r="1.111531151135343" fill="#fff" opacity="0.5681846289355739"/><circle cx="1586.531793248498" cy="44.73507188929596" r="0.9848116802714793" fill="#fff" opacity="0.7897802104684013"/><circle cx="1655.6039262692452" cy="128.50515042629678" r="1.6381090408279815" fill="#fff" opacity="0.22983552222834797"/><circle cx="1146.76608708379" cy="73.48308806342145" r="1.4754054596357526" fill="#fff" opacity="0.3821579517755094"/><rect x="15.249567154154546" y="594.91420704753" width="85.67725583810295" height="312.62235325123703" fill="#4f16a9" opacity="0.4637247777226672" rx="2"/><rect x="52.79846628843771" y="604.91420704753" width="10.579457569536626" height="9.964448774225183" fill="#64dfdf" opacity="0.11983774500429578" rx="1"/><rect x="31.37915232891197" y="609.8964314346426" width="10.579457569536626" height="9.964448774225183" fill="#80ffdb" opacity="0.05991887250214789" rx="1"/><rect x="55.41798815653147" y="643.9920012039346" width="5.340413833349109" height="8.504630420940144" fill="#64dfdf" opacity="0.16165172521994722" rx="1"/><rect x="33.998674197005734" y="648.2443164144047" width="5.340413833349109" height="8.504630420940144" fill="#80ffdb" opacity="0.08082586260997361" rx="1"/><rect x="52.536283847767926" y="683.0697953603393" width="11.103822450876194" height="8.96887958212031" fill="#64dfdf" opacity="0.4994783634318687" rx="1"/><rect x="31.11696988824219" y="687.5542351513994" width="11.103822450876194" height="8.96887958212031" fill="#80ffdb" opacity="0.24973918171593434" rx="1"/><rect x="55.885489479379146" y="722.1475895167439" width="4.405411187653758" height="9.542279042196991" fill="#64dfdf" opacity="0.46675891579751827" rx="1"/><rect x="34.46617551985341" y="726.9187290378424" width="4.405411187653758" height="9.542279042196991" fill="#80ffdb" opacity="0.23337945789875914" rx="1"/><rect x="52.492075307176464" y="761.2253836731485" width="11.192239532059114" height="6.722493319940402" fill="#64dfdf" opacity="0.12155863948202661" rx="1"/><rect x="31.07276134765073" y="764.5866303331187" width="11.192239532059114" height="6.722493319940402" fill="#80ffdb" opacity="0.060779319741013305" rx="1"/><rect x="54.62846786380477" y="800.3031778295531" width="6.919454418802507" height="8.56676270872512" fill="#64dfdf" opacity="0.4835636661116881" rx="1"/><rect x="33.209153904279034" y="804.5865591839156" width="6.919454418802507" height="8.56676270872512" fill="#80ffdb" opacity="0.24178183305584405" rx="1"/><rect x="55.12327651077027" y="839.3809719859578" width="5.929837124871518" height="9.968315968282594" fill="#64dfdf" opacity="0.2648723641794344" rx="1"/><rect x="33.70396255124453" y="844.3651299700991" width="5.929837124871518" height="9.968315968282594" fill="#80ffdb" opacity="0.1324361820897172" rx="1"/><rect x="53.734190209939655" y="878.4587661423624" width="8.708009726532737" height="8.65570272846513" fill="#64dfdf" opacity="0.47068668598557983" rx="1"/><rect x="32.31487625041392" y="882.7866175065949" width="8.708009726532737" height="8.65570272846513" fill="#80ffdb" opacity="0.23534334299278992" rx="1"/><rect x="89.14895970629695" y="668.5435032631605" width="76.1830431004481" height="238.9930570356066" fill="#4f16a9" opacity="0.5031183665858392" rx="2"/><rect x="122.22562071146533" y="678.5435032631605" width="10.029721090111352" height="8.85237741536749" fill="#64dfdf" opacity="0.5492392218553552" rx="1"/><rect x="103.1798599363533" y="682.9696919708442" width="10.029721090111352" height="8.85237741536749" fill="#80ffdb" opacity="0.2746196109276776" rx="1"/><rect x="122.31916563891279" y="712.6853685539614" width="9.842631235216427" height="6.738717817873395" fill="#64dfdf" opacity="0.2860550226844044" rx="1"/><rect x="103.27340486380076" y="716.0547274628981" width="9.842631235216427" height="6.738717817873395" fill="#80ffdb" opacity="0.1430275113422022" rx="1"/><rect x="125.1206121910221" y="746.8272338447623" width="4.2397381309978055" height="7.2602824171214095" fill="#64dfdf" opacity="0.43781574197062656" rx="1"/><rect x="106.07485141591008" y="750.4573750533231" width="4.2397381309978055" height="7.2602824171214095" fill="#80ffdb" opacity="0.21890787098531328" rx="1"/><rect x="122.09259748573201" y="780.9690991355633" width="10.295767541577986" height="6.07746735310123" fill="#64dfdf" opacity="0.45061010097866183" rx="1"/><rect x="103.04683671061998" y="784.0078328121139" width="10.295767541577986" height="6.07746735310123" fill="#80ffdb" opacity="0.22530505048933092" rx="1"/><rect x="123.90206240087754" y="815.1109644263643" width="6.676837711286926" height="8.426137255138284" fill="#64dfdf" opacity="0.59474804755178" rx="1"/><rect x="104.85630162576551" y="819.3240330539334" width="6.676837711286926" height="8.426137255138284" fill="#80ffdb" opacity="0.29737402377589" rx="1"/><rect x="121.34221969455491" y="849.2528297171652" width="11.796523123932193" height="9.671416801323979" fill="#64dfdf" opacity="0.2794638879782203" rx="1"/><rect x="102.29645891944288" y="854.0885381178273" width="11.796523123932193" height="9.671416801323979" fill="#80ffdb" opacity="0.13973194398911015" rx="1"/><rect x="122.03834670802033" y="883.3946950079661" width="10.404269097001354" height="7.934024963978218" fill="#64dfdf" opacity="0.24480405269302521" rx="1"/><rect x="102.9925859329083" y="887.3617074899552" width="10.404269097001354" height="7.934024963978218" fill="#80ffdb" opacity="0.12240202634651261" rx="1"/><rect x="175.54770520869272" y="746.8603704466625" width="62.17044183802103" height="160.67618985210459" fill="#6930c3" opacity="0.6635663304160271" rx="2"/><rect x="201.57048566457973" y="756.8603704466625" width="10.12488092624696" height="8.007549002302706" fill="#64dfdf" opacity="0.24635555822084554" rx="1"/><rect x="186.0278752050745" y="760.8641449478139" width="10.12488092624696" height="8.007549002302706" fill="#80ffdb" opacity="0.12317777911042277" rx="1"/><rect x="203.82328429316627" y="783.6397354220132" width="5.6192836690739" height="8.610934479770002" fill="#64dfdf" opacity="0.26662240323299136" rx="1"/><rect x="188.280673833661" y="787.9452026618983" width="5.6192836690739" height="8.610934479770002" fill="#80ffdb" opacity="0.13331120161649568" rx="1"/><rect x="203.11297265387824" y="810.419100397364" width="7.039906947649994" height="9.740569544895685" fill="#64dfdf" opacity="0.17162641956741606" rx="1"/><rect x="187.570362194373" y="815.2893851698118" width="7.039906947649994" height="9.740569544895685" fill="#80ffdb" opacity="0.08581320978370803" rx="1"/><rect x="203.20261352458945" y="837.1984653727147" width="6.86062520622756" height="7.597719304635589" fill="#64dfdf" opacity="0.26941957365940783" rx="1"/><rect x="187.6600030650842" y="840.9973250250325" width="6.86062520622756" height="7.597719304635589" fill="#80ffdb" opacity="0.13470978682970391" rx="1"/><rect x="204.13801689603702" y="863.9778303480656" width="4.989818463332443" height="6.26943731779918" fill="#64dfdf" opacity="0.46151613303495487" rx="1"/><rect x="188.59540643653176" y="867.1125490069652" width="4.989818463332443" height="6.26943731779918" fill="#80ffdb" opacity="0.23075806651747743" rx="1"/><rect x="202.66047052510476" y="890.7571953234163" width="7.9449112051969655" height="8.139127007252334" fill="#64dfdf" opacity="0.37102976030926915" rx="1"/><rect x="187.1178600655995" y="894.8267588270425" width="7.9449112051969655" height="8.139127007252334" fill="#80ffdb" opacity="0.18551488015463458" rx="1"/><rect x="281.45066191370256" y="641.6557094644885" width="75.37780868014735" height="265.8808508342786" fill="#4f16a9" opacity="0.5235093339633917" rx="2"/><rect x="315.2177179012616" y="651.6557094644885" width="7.843696705029275" height="8.249840715492573" fill="#64dfdf" opacity="0.5038176516545512" rx="1"/><rect x="296.37326573122476" y="655.7806298222348" width="7.843696705029275" height="8.249840715492573" fill="#80ffdb" opacity="0.2519088258272756" rx="1"/><rect x="314.6448272674111" y="718.1259221730581" width="8.989477972730407" height="9.34481789156441" fill="#64dfdf" opacity="0.5904213618697648" rx="1"/><rect x="295.80037509737423" y="722.7983311188403" width="8.989477972730407" height="9.34481789156441" fill="#80ffdb" opacity="0.2952106809348824" rx="1"/><rect x="315.2001478908711" y="784.5961348816278" width="7.878836725810272" height="9.410208284717568" fill="#64dfdf" opacity="0.16977301290486313" rx="1"/><rect x="296.35569572083426" y="789.3012390239866" width="7.878836725810272" height="9.410208284717568" fill="#80ffdb" opacity="0.08488650645243156" rx="1"/><rect x="316.1898249142441" y="851.0663475901974" width="5.899482679064265" height="9.445266144221012" fill="#64dfdf" opacity="0.5231514461392424" rx="1"/><rect x="297.3453727442073" y="855.788980662308" width="5.899482679064265" height="9.445266144221012" fill="#80ffdb" opacity="0.2615757230696212" rx="1"/><rect x="362.22803444589977" y="803.5325225683704" width="42.6473714580404" height="104.00403773039673" fill="#6930c3" opacity="0.6308493994713876" rx="2"/><rect x="381.4464802201184" y="813.5325225683704" width="4.21047990960313" height="8.309613002070602" fill="#64dfdf" opacity="0.1693580218519452" rx="1"/><rect x="370.7846373556083" y="817.6873290694057" width="4.21047990960313" height="8.309613002070602" fill="#80ffdb" opacity="0.0846790109259726" rx="1"/><rect x="379.9210087568951" y="830.8665288567698" width="7.261422836049791" height="7.980740900612608" fill="#64dfdf" opacity="0.3400241365516614" rx="1"/><rect x="369.259165892385" y="834.8568993070761" width="7.261422836049791" height="7.980740900612608" fill="#80ffdb" opacity="0.1700120682758307" rx="1"/><rect x="377.5656376946342" y="848.2005351451693" width="11.972164960571604" height="7.190990503223378" fill="#64dfdf" opacity="0.3133911265324315" rx="1"/><rect x="366.90379483012407" y="851.796030396781" width="11.972164960571604" height="7.190990503223378" fill="#80ffdb" opacity="0.15669556326621575" rx="1"/><rect x="381.1380990211412" y="865.5345414335687" width="4.827242307557548" height="7.03105254122779" fill="#64dfdf" opacity="0.40757878995676966" rx="1"/><rect x="370.4762561566311" y="869.0500677041827" width="4.827242307557548" height="7.03105254122779" fill="#80ffdb" opacity="0.20378939497838483" rx="1"/><rect x="380.53401630902823" y="882.8685477219682" width="6.0354077317834385" height="7.072649116877617" fill="#64dfdf" opacity="0.5616676117204287" rx="1"/><rect x="369.8721734445181" y="886.404872280407" width="6.0354077317834385" height="7.072649116877617" fill="#80ffdb" opacity="0.28083380586021434" rx="1"/><rect x="379.0483090908549" y="900.2025540103676" width="9.006822168130153" height="9.351490950060889" fill="#64dfdf" opacity="0.3688374539764685" rx="1"/><rect x="368.3864662263448" y="904.8782994853981" width="9.006822168130153" height="9.351490950060889" fill="#80ffdb" opacity="0.18441872698823425" rx="1"/><rect x="458.529848958743" y="717.7307852352343" width="52.999342359369464" height="189.80577506353282" fill="#4f16a9" opacity="0.48680670405430876" rx="2"/><rect x="479.1612592444877" y="727.7307852352343" width="11.736521787880111" height="7.125229619705404" fill="#64dfdf" opacity="0.3419531526374522" rx="1"/><rect x="465.9114236546453" y="731.293400045087" width="11.736521787880111" height="7.125229619705404" fill="#80ffdb" opacity="0.1709765763187261" rx="1"/><rect x="479.63769850827026" y="790.9993769230786" width="10.783643260314978" height="8.030479770626519" fill="#64dfdf" opacity="0.2965091061304578" rx="1"/><rect x="466.38786291842786" y="795.0146168083918" width="10.783643260314978" height="8.030479770626519" fill="#80ffdb" opacity="0.1482545530652289" rx="1"/><rect x="481.5820841406642" y="854.2679686109228" width="6.894871995527035" height="9.91716338040241" fill="#64dfdf" opacity="0.26066052407507334" rx="1"/><rect x="468.3322485508218" y="859.226550301124" width="6.894871995527035" height="9.91716338040241" fill="#80ffdb" opacity="0.13033026203753667" rx="1"/><rect x="545.1402608039904" y="632.2421678649825" width="53.282844308596765" height="275.29439243378454" fill="#4f16a9" opacity="0.5423997275630011" rx="2"/><rect x="568.043422630977" y="642.2421678649825" width="7.476520654623518" height="6.619934856104649" fill="#64dfdf" opacity="0.4024230900459045" rx="1"/><rect x="554.7227115538278" y="645.5521352930349" width="7.476520654623518" height="6.619934856104649" fill="#80ffdb" opacity="0.20121154502295224" rx="1"/><rect x="566.3183546918974" y="697.3010463517395" width="10.926656532782747" height="7.255772318983397" fill="#64dfdf" opacity="0.27495850873528016" rx="1"/><rect x="552.9976436147482" y="700.9289325112312" width="10.926656532782747" height="7.255772318983397" fill="#80ffdb" opacity="0.13747925436764008" rx="1"/><rect x="569.3569456909937" y="752.3599248384963" width="4.849474534590141" height="9.419453062913252" fill="#64dfdf" opacity="0.38797721857856426" rx="1"/><rect x="556.0362346138445" y="757.069651369953" width="4.849474534590141" height="9.419453062913252" fill="#80ffdb" opacity="0.19398860928928213" rx="1"/><rect x="566.2949227137035" y="807.4188033252533" width="10.973520489170571" height="6.238782275523707" fill="#64dfdf" opacity="0.598556053265593" rx="1"/><rect x="552.9742116365543" y="810.5381944630152" width="10.973520489170571" height="6.238782275523707" fill="#80ffdb" opacity="0.2992780266327965" rx="1"/><rect x="566.8422056387066" y="862.4776818120101" width="9.878954639164487" height="7.253546098539035" fill="#64dfdf" opacity="0.33360770224444747" rx="1"/><rect x="553.5214945615573" y="866.1044548612797" width="9.878954639164487" height="7.253546098539035" fill="#80ffdb" opacity="0.16680385112222373" rx="1"/><rect x="621.729005967373" y="689.8003488289659" width="72.88142397135529" height="217.7362114698012" fill="#6930c3" opacity="0.6416187276694967" rx="2"/><rect x="653.491102441032" y="699.8003488289659" width="9.357231024037402" height="8.375033523509053" fill="#64dfdf" opacity="0.38082611965500424" rx="1"/><rect x="635.2707464481931" y="703.9878655907204" width="9.357231024037402" height="8.375033523509053" fill="#80ffdb" opacity="0.19041305982750212" rx="1"/><rect x="656.0594133487406" y="772.3790859855662" width="4.220609208620295" height="6.467063668292729" fill="#64dfdf" opacity="0.19797097407234157" rx="1"/><rect x="637.8390573559017" y="775.6126178197126" width="4.220609208620295" height="6.467063668292729" fill="#80ffdb" opacity="0.09898548703617079" rx="1"/><rect x="652.6558709783441" y="844.9578231421667" width="11.027693949413415" height="9.27201620006748" fill="#64dfdf" opacity="0.3160977252563689" rx="1"/><rect x="634.4355149855052" y="849.5938312422005" width="11.027693949413415" height="9.27201620006748" fill="#80ffdb" opacity="0.15804886262818446" rx="1"/><rect x="703.7026216760856" y="603.6354827237399" width="57.95754809117819" height="303.9010775750273" fill="#6930c3" opacity="0.6839038747558146" rx="2"/><rect x="729.529192765028" y="613.6354827237399" width="6.304405913293456" height="9.693835368308665" fill="#64dfdf" opacity="0.18321381629985148" rx="1"/><rect x="715.0398057422334" y="618.4824004078941" width="6.304405913293456" height="9.693835368308665" fill="#80ffdb" opacity="0.09160690814992574" rx="1"/><rect x="726.8456046731192" y="674.4156982387453" width="11.671582097111173" height="9.753257447796235" fill="#64dfdf" opacity="0.36649881544674257" rx="1"/><rect x="712.3562176503245" y="679.2923269626434" width="11.671582097111173" height="9.753257447796235" fill="#80ffdb" opacity="0.18324940772337128" rx="1"/><rect x="726.8667676412531" y="735.1959137537508" width="11.629256160843479" height="8.707583941218346" fill="#64dfdf" opacity="0.5960178692117375" rx="1"/><rect x="712.3773806184585" y="739.54970572436" width="11.629256160843479" height="8.707583941218346" fill="#80ffdb" opacity="0.29800893460586875" rx="1"/><rect x="727.2977090265704" y="795.9761292687563" width="10.767373390208784" height="7.662687500394576" fill="#64dfdf" opacity="0.5420626647635509" rx="1"/><rect x="712.8083220037757" y="799.8074730189536" width="10.767373390208784" height="7.662687500394576" fill="#80ffdb" opacity="0.27103133238177546" rx="1"/><rect x="727.1545841993533" y="856.7563447837617" width="11.053623044642997" height="7.599532775953303" fill="#64dfdf" opacity="0.45371489912590823" rx="1"/><rect x="712.6651971765586" y="860.5561111717384" width="11.053623044642997" height="7.599532775953303" fill="#80ffdb" opacity="0.22685744956295412" rx="1"/><rect x="798.5113964986231" y="745.0963779690435" width="73.61759874588289" height="162.44018232972365" fill="#4f16a9" opacity="0.46227107680455576" rx="2"/><rect x="831.8644441494783" y="755.0963779690435" width="6.911503444172326" height="7.1964553765013015" fill="#64dfdf" opacity="0.2490333696475796" rx="1"/><rect x="813.4600444630076" y="758.6946056572941" width="6.911503444172326" height="7.1964553765013015" fill="#80ffdb" opacity="0.1245166848237898" rx="1"/><rect x="832.3414083243591" y="795.7064235514744" width="5.9575750944105845" height="9.176315185422151" fill="#64dfdf" opacity="0.579475253256847" rx="1"/><rect x="813.9370086378884" y="800.2945811441855" width="5.9575750944105845" height="9.176315185422151" fill="#80ffdb" opacity="0.2897376266284235" rx="1"/><rect x="832.6709875222375" y="836.3164691339053" width="5.2984166986538135" height="9.210762682187083" fill="#64dfdf" opacity="0.38168764996381654" rx="1"/><rect x="814.2665878357668" y="840.9218504749989" width="5.2984166986538135" height="9.210762682187083" fill="#80ffdb" opacity="0.19084382498190827" rx="1"/><rect x="832.2582691506533" y="876.9265147163362" width="6.123853441822309" height="7.657619842714076" fill="#64dfdf" opacity="0.5682141548181452" rx="1"/><rect x="813.8538694641826" y="880.7553246376932" width="6.123853441822309" height="7.657619842714076" fill="#80ffdb" opacity="0.2841070774090726" rx="1"/><rect x="885.2647932952844" y="678.6450219058071" width="38.63232228174627" height="228.89153839296" fill="#4f16a9" opacity="0.668557274939622" rx="2"/><rect x="901.5790414239189" y="688.6450219058071" width="6.00382602447733" height="6.488556471767033" fill="#64dfdf" opacity="0.4861957879006388" rx="1"/><rect x="891.9209608534824" y="691.8893001416906" width="6.00382602447733" height="6.488556471767033" fill="#80ffdb" opacity="0.2430978939503194" rx="1"/><rect x="901.9545421635584" y="717.256464204927" width="5.252824545198312" height="6.197318394714342" fill="#64dfdf" opacity="0.5054826430290664" rx="1"/><rect x="892.2964615931219" y="720.3551234022842" width="5.252824545198312" height="6.197318394714342" fill="#80ffdb" opacity="0.2527413215145332" rx="1"/><rect x="901.2994188830445" y="745.8679065040471" width="6.5630711062259675" height="6.0585505124317836" fill="#64dfdf" opacity="0.44839576746998255" rx="1"/><rect x="891.641338312608" y="748.897181760263" width="6.5630711062259675" height="6.0585505124317836" fill="#80ffdb" opacity="0.22419788373499128" rx="1"/><rect x="901.3645699160514" y="774.4793488031671" width="6.432769040212214" height="9.140823058583965" fill="#64dfdf" opacity="0.20057755131287908" rx="1"/><rect x="891.706489345615" y="779.0497603324591" width="6.432769040212214" height="9.140823058583965" fill="#80ffdb" opacity="0.10028877565643954" rx="1"/><rect x="899.340128563466" y="803.0907911022871" width="10.48165174538308" height="7.284041044601249" fill="#64dfdf" opacity="0.27833016537556665" rx="1"/><rect x="889.6820479930295" y="806.7328116245877" width="10.48165174538308" height="7.284041044601249" fill="#80ffdb" opacity="0.13916508268778333" rx="1"/><rect x="900.5097126573537" y="831.702233401407" width="8.142483557607626" height="9.62884882363231" fill="#64dfdf" opacity="0.2315450060953258" rx="1"/><rect x="890.8516320869172" y="836.5166578132232" width="8.142483557607626" height="9.62884882363231" fill="#80ffdb" opacity="0.1157725030476629" rx="1"/><rect x="900.4807567991462" y="860.313675700527" width="8.200395274022686" height="6.26956845267433" fill="#64dfdf" opacity="0.37383523324360957" rx="1"/><rect x="890.8226762287097" y="863.4484599268642" width="8.200395274022686" height="6.26956845267433" fill="#80ffdb" opacity="0.18691761662180478" rx="1"/><rect x="902.2047838176104" y="888.9251179996471" width="4.752341237094333" height="7.9621863025152555" fill="#64dfdf" opacity="0.18579068365175994" rx="1"/><rect x="892.5467032471739" y="892.9062111509047" width="4.752341237094333" height="7.9621863025152555" fill="#80ffdb" opacity="0.09289534182587997" rx="1"/><rect x="983.3947548697224" y="733.3636303277136" width="67.86087096153312" height="174.17292997105346" fill="#6930c3" opacity="0.44246771492587117" rx="2"/><rect x="1011.3262328469023" y="743.3636303277136" width="11.997915007173528" height="8.60182195217391" fill="#64dfdf" opacity="0.35089712120846317" rx="1"/><rect x="994.361015106519" y="747.6645413038005" width="11.997915007173528" height="8.60182195217391" fill="#80ffdb" opacity="0.17544856060423158" rx="1"/><rect x="1014.1385579433149" y="772.3924519895559" width="6.373264814348254" height="9.31325614995166" fill="#64dfdf" opacity="0.518138062213114" rx="1"/><rect x="997.1733402029316" y="777.0490800645317" width="6.373264814348254" height="9.31325614995166" fill="#80ffdb" opacity="0.259069031106557" rx="1"/><rect x="1013.2048301795044" y="801.4212736513981" width="8.24072034196945" height="7.419669396574532" fill="#64dfdf" opacity="0.3482312694769891" rx="1"/><rect x="996.239612439121" y="805.1311083496854" width="8.24072034196945" height="7.419669396574532" fill="#80ffdb" opacity="0.17411563473849456" rx="1"/><rect x="1013.4730540510437" y="830.4500953132404" width="7.704272598890651" height="8.175209867343122" fill="#64dfdf" opacity="0.1978366440622687" rx="1"/><rect x="996.5078363106604" y="834.5377002469119" width="7.704272598890651" height="8.175209867343122" fill="#80ffdb" opacity="0.09891832203113435" rx="1"/><rect x="1012.8430110667466" y="859.4789169750826" width="8.964358567484737" height="7.8956709666866045" fill="#64dfdf" opacity="0.47617571451146523" rx="1"/><rect x="995.8777933263634" y="863.4267524584259" width="8.964358567484737" height="7.8956709666866045" fill="#80ffdb" opacity="0.23808785725573262" rx="1"/><rect x="1011.935141926849" y="888.5077386369248" width="10.780096847279951" height="8.663687959002258" fill="#64dfdf" opacity="0.5532433933236738" rx="1"/><rect x="994.9699241864657" y="892.839582616426" width="10.780096847279951" height="8.663687959002258" fill="#80ffdb" opacity="0.2766216966618369" rx="1"/><rect x="1072.8168745908501" y="768.5993754231836" width="76.61385349152" height="138.93718487558357" fill="#4f16a9" opacity="0.6769308233812756" rx="2"/><rect x="1108.614183968732" y="778.5993754231836" width="5.019234735756003" height="8.627377972618532" fill="#64dfdf" opacity="0.20116436427951892" rx="1"/><rect x="1089.460720595852" y="782.9130644094928" width="5.019234735756003" height="8.627377972618532" fill="#80ffdb" opacity="0.10058218213975946" rx="1"/><rect x="1107.7487772541508" y="824.9117703817114" width="6.750048164918564" height="7.436777782960976" fill="#64dfdf" opacity="0.5773825977410615" rx="1"/><rect x="1088.5953138812708" y="828.6301592731919" width="6.750048164918564" height="7.436777782960976" fill="#80ffdb" opacity="0.28869129887053074" rx="1"/><rect x="1106.8001536265058" y="871.2241653402393" width="8.647295420208781" height="6.609299989559059" fill="#64dfdf" opacity="0.1618402458638512" rx="1"/><rect x="1087.6466902536258" y="874.5288153350189" width="8.647295420208781" height="6.609299989559059" fill="#80ffdb" opacity="0.0809201229319256" rx="1"/><rect x="1147.2569472065413" y="788.374474572105" width="76.7423192334227" height="119.1620857266621" fill="#4f16a9" opacity="0.6424640104040653" rx="2"/><rect x="1182.009701965993" y="798.374474572105" width="7.236809714519607" height="7.924585158453459" fill="#64dfdf" opacity="0.11015615801097736" rx="1"/><rect x="1162.8241221576372" y="802.3367671513317" width="7.236809714519607" height="7.924585158453459" fill="#80ffdb" opacity="0.05507807900548868" rx="1"/><rect x="1180.4422385946566" y="822.2068917174374" width="10.371736457192277" height="8.832823237132473" fill="#64dfdf" opacity="0.33599098709784236" rx="1"/><rect x="1161.256658786301" y="826.6233033360037" width="10.371736457192277" height="8.832823237132473" fill="#80ffdb" opacity="0.16799549354892118" rx="1"/><rect x="1180.2431980755366" y="846.0393088627699" width="10.769817495432175" height="6.182658635122389" fill="#64dfdf" opacity="0.16536247315010114" rx="1"/><rect x="1161.057618267181" y="849.1306381803311" width="10.769817495432175" height="6.182658635122389" fill="#80ffdb" opacity="0.08268123657505057" rx="1"/><rect x="1182.9092662240253" y="869.8717260081023" width="5.437681198454854" height="7.404665255314825" fill="#64dfdf" opacity="0.5943718863638052" rx="1"/><rect x="1163.7236864156696" y="873.5740586357597" width="5.437681198454854" height="7.404665255314825" fill="#80ffdb" opacity="0.2971859431819026" rx="1"/><rect x="1180.676838783853" y="893.7041431534346" width="9.902536078799175" height="9.924743787368001" fill="#64dfdf" opacity="0.4613578130866769" rx="1"/><rect x="1161.4912589754974" y="898.6665150471187" width="9.902536078799175" height="9.924743787368001" fill="#80ffdb" opacity="0.23067890654333845" rx="1"/><rect x="1235.3254091089543" y="529.3110188397837" width="78.5139444257398" height="378.22554145898334" fill="#4f16a9" opacity="0.6628119223198881" rx="2"/><rect x="1269.6021668035667" y="539.3110188397837" width="9.960429036514935" height="7.325565727736234" fill="#64dfdf" opacity="0.3260512208393894" rx="1"/><rect x="1249.9736806971318" y="542.9738017036518" width="9.960429036514935" height="7.325565727736234" fill="#80ffdb" opacity="0.1630256104196947" rx="1"/><rect x="1270.2163656448643" y="633.8674042045295" width="8.732031353919774" height="6.631555316185475" fill="#64dfdf" opacity="0.369599225434847" rx="1"/><rect x="1250.5878795384294" y="637.1831818626223" width="8.732031353919774" height="6.631555316185475" fill="#80ffdb" opacity="0.1847996127174235" rx="1"/><rect x="1271.4906445522663" y="728.4237895692754" width="6.183473539115738" height="6.483847522289457" fill="#64dfdf" opacity="0.466590461196981" rx="1"/><rect x="1251.8621584458315" y="731.6657133304201" width="6.183473539115738" height="6.483847522289457" fill="#80ffdb" opacity="0.2332952305984905" rx="1"/><rect x="1272.0236566975893" y="822.9801749340213" width="5.117449248469772" height="7.5609123328609655" fill="#64dfdf" opacity="0.2623640442645093" rx="1"/><rect x="1252.3951705911545" y="826.7606311004517" width="5.117449248469772" height="7.5609123328609655" fill="#80ffdb" opacity="0.13118202213225466" rx="1"/><rect x="1312.1712056243427" y="624.2915696288208" width="42.07968098392703" height="283.2449906699464" fill="#6930c3" opacity="0.6393503659729265" rx="2"/><rect x="1329.752419050323" y="634.2915696288208" width="6.917254131966562" height="7.185407666765482" fill="#64dfdf" opacity="0.32107621846279977" rx="1"/><rect x="1319.232498804341" y="637.8842734622035" width="6.917254131966562" height="7.185407666765482" fill="#80ffdb" opacity="0.16053810923139988" rx="1"/><rect x="1327.7556456765226" y="705.1028172963073" width="10.910800879567581" height="8.058100652428832" fill="#64dfdf" opacity="0.5292313604218027" rx="1"/><rect x="1317.2357254305407" y="709.1318676225217" width="10.910800879567581" height="8.058100652428832" fill="#80ffdb" opacity="0.26461568021090137" rx="1"/><rect x="1330.5387955808108" y="775.914064963794" width="5.344501070991275" height="8.40067130103723" fill="#64dfdf" opacity="0.2787209359879421" rx="1"/><rect x="1320.0188753348289" y="780.1144006143126" width="5.344501070991275" height="8.40067130103723" fill="#80ffdb" opacity="0.13936046799397106" rx="1"/><rect x="1329.0741566627628" y="846.7253126312805" width="8.273778907087113" height="9.461329783187558" fill="#64dfdf" opacity="0.12559615893419743" rx="1"/><rect x="1318.554236416781" y="851.4559775228743" width="8.273778907087113" height="9.461329783187558" fill="#80ffdb" opacity="0.06279807946709871" rx="1"/><rect x="1418.0723875591448" y="587.1349242951569" width="83.30513062265355" height="320.4016360036101" fill="#4f16a9" opacity="0.4767275850700046" rx="2"/><rect x="1457.21504507058" y="597.1349242951569" width="5.01981559978328" height="8.981648691692774" fill="#64dfdf" opacity="0.5601964775845866" rx="1"/><rect x="1436.3887624149165" y="601.6257486410033" width="5.01981559978328" height="8.981648691692774" fill="#80ffdb" opacity="0.2800982387922933" rx="1"/><rect x="1456.5260221298358" y="637.1851287956082" width="6.397861481271186" height="8.058752751457215" fill="#64dfdf" opacity="0.33589069750995626" rx="1"/><rect x="1435.6997394741725" y="641.2145051713368" width="6.397861481271186" height="8.058752751457215" fill="#80ffdb" opacity="0.16794534875497813" rx="1"/><rect x="1456.7087645485997" y="677.2353332960595" width="6.032376643743454" height="6.43482739209077" fill="#64dfdf" opacity="0.5789923065060266" rx="1"/><rect x="1435.8824818929363" y="680.4527469921048" width="6.032376643743454" height="6.43482739209077" fill="#80ffdb" opacity="0.2894961532530133" rx="1"/><rect x="1454.7623190690888" y="717.2855377965107" width="9.925267602765295" height="6.955092880165925" fill="#64dfdf" opacity="0.20204087700742318" rx="1"/><rect x="1433.9360364134254" y="720.7630842365936" width="9.925267602765295" height="6.955092880165925" fill="#80ffdb" opacity="0.10102043850371159" rx="1"/><rect x="1455.0183010676665" y="757.3357422969619" width="9.413303605609876" height="9.266383859158118" fill="#64dfdf" opacity="0.15353233778232997" rx="1"/><rect x="1434.192018412003" y="761.968934226541" width="9.413303605609876" height="9.266383859158118" fill="#80ffdb" opacity="0.07676616889116498" rx="1"/><rect x="1456.5640281850135" y="797.3859467974132" width="6.321849370915873" height="7.059635370285165" fill="#64dfdf" opacity="0.3041176541717997" rx="1"/><rect x="1435.7377455293501" y="800.9157644825558" width="6.321849370915873" height="7.059635370285165" fill="#80ffdb" opacity="0.15205882708589985" rx="1"/><rect x="1456.1132685598463" y="837.4361512978645" width="7.223368621250467" height="8.696240480685663" fill="#64dfdf" opacity="0.1664850156909053" rx="1"/><rect x="1435.286985904183" y="841.7842715382073" width="7.223368621250467" height="8.696240480685663" fill="#80ffdb" opacity="0.08324250784545265" rx="1"/><rect x="1456.0267822118751" y="877.4863557983158" width="7.39634131719273" height="6.6025559857027964" fill="#64dfdf" opacity="0.3452152746834828" rx="1"/><rect x="1435.2004995562118" y="880.7876337911672" width="7.39634131719273" height="6.6025559857027964" fill="#80ffdb" opacity="0.1726076373417414" rx="1"/><rect x="1505.5228980086818" y="561.2383317577742" width="30.326927891077226" height="346.2982285409929" fill="#6930c3" opacity="0.6620561162619982" rx="2"/><rect x="1515.051840639431" y="571.2383317577742" width="11.269042629578394" height="9.578087617544943" fill="#64dfdf" opacity="0.4605816835445775" rx="1"/><rect x="1507.4701086666619" y="576.0273755665467" width="11.269042629578394" height="9.578087617544943" fill="#80ffdb" opacity="0.23029084177228876" rx="1"/><rect x="1517.6634965151484" y="628.954703181273" width="6.045730878143974" height="7.531082068926441" fill="#64dfdf" opacity="0.5439028509529081" rx="1"/><rect x="1510.0817645423792" y="632.7202442157362" width="6.045730878143974" height="7.531082068926441" fill="#80ffdb" opacity="0.27195142547645407" rx="1"/><rect x="1514.8802637222198" y="686.6710746047718" width="11.612196464001247" height="9.97887467313066" fill="#64dfdf" opacity="0.1992739257866689" rx="1"/><rect x="1507.2985317494506" y="691.6605119413371" width="11.612196464001247" height="9.97887467313066" fill="#80ffdb" opacity="0.09963696289333444" rx="1"/><rect x="1515.367014512251" y="744.3874460282707" width="10.638694883938575" height="6.236783279161151" fill="#64dfdf" opacity="0.26516141876698507" rx="1"/><rect x="1507.7852825394818" y="747.5058376678512" width="10.638694883938575" height="6.236783279161151" fill="#80ffdb" opacity="0.13258070938349253" rx="1"/><rect x="1515.2340730994806" y="802.1038174517695" width="10.904577709479392" height="7.297142968815086" fill="#64dfdf" opacity="0.21033480314312847" rx="1"/><rect x="1507.6523411267115" y="805.752388936177" width="10.904577709479392" height="7.297142968815086" fill="#80ffdb" opacity="0.10516740157156423" rx="1"/><rect x="1517.0921128068585" y="859.8201888752683" width="7.1884982947233365" height="9.853226163390378" fill="#64dfdf" opacity="0.15774117506987909" rx="1"/><rect x="1509.5103808340893" y="864.7468019569635" width="7.1884982947233365" height="9.853226163390378" fill="#80ffdb" opacity="0.07887058753493954" rx="1"/><rect x="1571.5336388289606" y="528.3179600090529" width="55.72259142196798" height="379.21860028971423" fill="#6930c3" opacity="0.6986392576709948" rx="2"/><rect x="1595.600686598413" y="538.3179600090529" width="7.588495883063528" height="7.450411609711687" fill="#64dfdf" opacity="0.15477775040892366" rx="1"/><rect x="1581.670038742921" y="542.0431658139087" width="7.588495883063528" height="7.450411609711687" fill="#80ffdb" opacity="0.07738887520446183" rx="1"/><rect x="1597.3824010037608" y="614.1616800669957" width="4.025067072367544" height="7.27372763428691" fill="#64dfdf" opacity="0.1060527237379115" rx="1"/><rect x="1583.4517531482688" y="617.7985438841391" width="4.025067072367544" height="7.27372763428691" fill="#80ffdb" opacity="0.05302636186895575" rx="1"/><rect x="1593.5912135181295" y="690.0054001249385" width="11.607442043630275" height="7.613205000202452" fill="#64dfdf" opacity="0.25378230324801576" rx="1"/><rect x="1579.6605656626375" y="693.8120026250398" width="11.607442043630275" height="7.613205000202452" fill="#80ffdb" opacity="0.12689115162400788" rx="1"/><rect x="1595.3548872571166" y="765.8491201828814" width="8.080094565656058" height="8.793433814959934" fill="#64dfdf" opacity="0.43376269504282683" rx="1"/><rect x="1581.4242394016246" y="770.2458370903613" width="8.080094565656058" height="8.793433814959934" fill="#80ffdb" opacity="0.21688134752141341" rx="1"/><rect x="1597.2161437535995" y="841.6928402408242" width="4.357581572690416" height="8.65591367302833" fill="#64dfdf" opacity="0.2994105311342074" rx="1"/><rect x="1583.2854958981075" y="846.0207970773384" width="4.357581572690416" height="8.65591367302833" fill="#80ffdb" opacity="0.1497052655671037" rx="1"/><rect x="1684.3297266910959" y="810.8013829707171" width="85.83118534084204" height="96.73517732804994" fill="#6930c3" opacity="0.565318380846949" rx="2"/><rect x="1724.549799511697" y="820.8013829707171" width="5.391039699639902" height="6.93727092373587" fill="#64dfdf" opacity="0.26803328068182647" rx="1"/><rect x="1703.0920031764865" y="824.2700184325851" width="5.391039699639902" height="6.93727092373587" fill="#80ffdb" opacity="0.13401664034091323" rx="1"/><rect x="1723.2379739044195" y="844.9851773027295" width="8.014690914194727" height="9.030617097166976" fill="#64dfdf" opacity="0.3605920184311904" rx="1"/><rect x="1701.780177569209" y="849.500485851313" width="8.014690914194727" height="9.030617097166976" fill="#80ffdb" opacity="0.1802960092155952" rx="1"/><rect x="1722.5791490637057" y="869.1689716347421" width="9.332340595622625" height="8.892382013353608" fill="#64dfdf" opacity="0.5476807876368242" rx="1"/><rect x="1701.1213527284951" y="873.6151626414189" width="9.332340595622625" height="8.892382013353608" fill="#80ffdb" opacity="0.2738403938184121" rx="1"/><rect x="1724.3684770292402" y="893.3527659667545" width="5.753684664553424" height="7.627828834026081" fill="#64dfdf" opacity="0.1315802230107552" rx="1"/><rect x="1702.9106806940297" y="897.1666803837676" width="5.753684664553424" height="7.627828834026081" fill="#80ffdb" opacity="0.0657901115053776" rx="1"/><rect x="1746.5211015550617" y="755.5765660609064" width="89.82776545449806" height="151.95999423786066" fill="#6930c3" opacity="0.5021268975227435" rx="2"/><rect x="1789.037197069824" y="765.5765660609064" width="4.79557442497359" height="9.361250785030716" fill="#64dfdf" opacity="0.24409396521376772" rx="1"/><rect x="1766.5802557061995" y="770.2571914534218" width="4.79557442497359" height="9.361250785030716" fill="#80ffdb" opacity="0.12204698260688386" rx="1"/><rect x="1789.064747206501" y="803.5665646203715" width="4.7404741516198206" height="8.986283042232106" fill="#64dfdf" opacity="0.10188223656776414" rx="1"/><rect x="1766.6078058428764" y="808.0597061414876" width="4.7404741516198206" height="8.986283042232106" fill="#80ffdb" opacity="0.05094111828388207" rx="1"/><rect x="1787.4352996733037" y="841.5565631798368" width="7.999369218014033" height="8.36498392987181" fill="#64dfdf" opacity="0.3257595172211899" rx="1"/><rect x="1764.9783583096792" y="845.7390551447727" width="7.999369218014033" height="8.36498392987181" fill="#80ffdb" opacity="0.16287975861059495" rx="1"/><rect x="1789.1422305643805" y="879.546561739302" width="4.585507435860463" height="7.7922063166723134" fill="#64dfdf" opacity="0.32068558591899593" rx="1"/><rect x="1766.685289200756" y="883.4426648976381" width="4.585507435860463" height="7.7922063166723134" fill="#80ffdb" opacity="0.16034279295949797" rx="1"/><rect x="1848.9725785043915" y="608.4330766481424" width="88.71129223581201" height="299.10348365062464" fill="#4f16a9" opacity="0.40305980781630146" rx="2"/><rect x="1889.347835891072" y="618.4330766481424" width="7.960777462450968" height="9.783064392344809" fill="#64dfdf" opacity="0.589568525573604" rx="1"/><rect x="1867.170012832119" y="623.3246088443149" width="7.960777462450968" height="9.783064392344809" fill="#80ffdb" opacity="0.294784262786802" rx="1"/><rect x="1887.4797577491638" y="661.1621457410888" width="11.696933746267327" height="7.153764034890049" fill="#64dfdf" opacity="0.24185950058555686" rx="1"/><rect x="1865.3019346902108" y="664.7390277585338" width="11.696933746267327" height="7.153764034890049" fill="#80ffdb" opacity="0.12092975029277843" rx="1"/><rect x="1890.4046698933435" y="703.8912148340352" width="5.847109457907991" height="8.32651515824872" fill="#64dfdf" opacity="0.16104271697370398" rx="1"/><rect x="1868.2268468343905" y="708.0544724131595" width="5.847109457907991" height="8.32651515824872" fill="#80ffdb" opacity="0.08052135848685199" rx="1"/><rect x="1887.358755730684" y="746.6202839269815" width="11.938937783227054" height="8.73364269983341" fill="#64dfdf" opacity="0.5440386294024155" rx="1"/><rect x="1865.180932671731" y="750.9871052768982" width="11.938937783227054" height="8.73364269983341" fill="#80ffdb" opacity="0.27201931470120777" rx="1"/><rect x="1890.4127962090063" y="789.349353019928" width="5.830856826582657" height="9.252409788605853" fill="#64dfdf" opacity="0.1783059203713913" rx="1"/><rect x="1868.2349731500533" y="793.9755579142309" width="5.830856826582657" height="9.252409788605853" fill="#80ffdb" opacity="0.08915296018569566" rx="1"/><rect x="1888.9401842942746" y="832.0784221128743" width="8.776080656046066" height="8.285759198080227" fill="#64dfdf" opacity="0.4968022077802574" rx="1"/><rect x="1866.7623612353216" y="836.2213017119144" width="8.776080656046066" height="8.285759198080227" fill="#80ffdb" opacity="0.2484011038901287" rx="1"/><rect x="1890.2281721153786" y="874.8074912058207" width="6.200105013838062" height="6.52485326317252" fill="#64dfdf" opacity="0.15642699893946457" rx="1"/><rect x="1868.0503490564256" y="878.0699178374069" width="6.200105013838062" height="6.52485326317252" fill="#80ffdb" opacity="0.07821349946973229" rx="1"/><rect x="0" y="1000" width="1920" height="80" fill="#430a9d" opacity="0.8"/><line x1="0" y1="1040" x2="1920" y2="1040" stroke="#64dfdf" stroke-opacity="0.15" stroke-width="2" stroke-dasharray="30,20"/><rect x="0" y="930" width="1920" height="150" fill="url(#glow9)"/><text x="1900" y="1060" font-family="Arial, sans-serif" font-size="11" fill="#fff" opacity="0.08" text-anchor="end" letter-spacing="2">GTA 6 REWARDS · WALLPAPER 010</text>
</svg>