<?xml version="1.0" encoding="UTF-8"?>
<svg xmlns="http://www.w3.org/2000/svg" width="1920" height="1080" viewBox="0 0 1920 1080">
<defs>
    <linearGradient id="bg95" x1="0%" y1="0%" x2="0%" y2="100%">
      <stop offset="0%" stop-color="#2d1b1b"/>
      <stop offset="50%" stop-color="#000000"/>
      <stop offset="100%" stop-color="#2d1b1b"/>
    </linearGradient>
    <linearGradient id="sun95" x1="0%" y1="0%" x2="100%" y2="100%">
      <stop offset="0%" stop-color="#ff6b6b"/>
      <stop offset="100%" stop-color="#c0392b"/>
    </linearGradient>
    <radialGradient id="glow95" cx="50%" cy="70%" r="50%">
      <stop offset="0%" stop-color="#ff6b6b" stop-opacity="0.3"/>
      <stop offset="100%" stop-color="#2d1b1b" stop-opacity="0"/>
    </radialGradient>
  </defs><rect width="1920" height="1080" fill="url(#bg95)"/><circle cx="1136.5398124876756" cy="317.5604079192412" r="890.843973027273" fill="#ff6b6b" opacity="0.07856396272046584"/><circle cx="1336.5398124876756" cy="217.5604079192412" r="592.217846073261" fill="#c0392b" opacity="0.1100311062438486"/><circle cx="1161.414794358754" cy="376.7320588060496" r="73.75881699234219" fill="url(#sun95)" opacity="0.8843033761680832"/><circle cx="1161.414794358754" cy="376.7320588060496" r="68.75881699234219" fill="#2d1b1b" opacity="0.3"/><rect x="28.537556784818314" y="727.7952575771593" width="31.7389061538826" height="204.26858442469234" fill="#130101" opacity="0.588795177309959" rx="2"/><rect x="40.01544423192168" y="737.7952575771593" width="8.783131259675866" height="6.395164562481261" fill="#c0392b" opacity="0.45740417029182523" rx="1"/><rect x="32.08071769345103" y="740.9928398584" width="8.783131259675866" height="6.395164562481261" fill="#ff6b6b" opacity="0.22870208514591261" rx="1"/><rect x="39.741470044185746" y="763.3288306302459" width="9.331079635147724" height="8.214028375738772" fill="#c0392b" opacity="0.16633628755024082" rx="1"/><rect x="31.8067435057151" y="767.4358448181152" width="9.331079635147724" height="8.214028375738772" fill="#ff6b6b" opacity="0.08316814377512041" rx="1"/><rect x="40.409384553183195" y="788.8624036833323" width="7.995250617152837" height="9.470235472421683" fill="#c0392b" opacity="0.5035036985072083" rx="1"/><rect x="32.474658014712546" y="793.5975214195432" width="7.995250617152837" height="9.470235472421683" fill="#ff6b6b" opacity="0.25175184925360417" rx="1"/><rect x="41.46871498703694" y="814.3959767364189" width="5.876589749445345" height="8.727786162571931" fill="#c0392b" opacity="0.24746146070478983" rx="1"/><rect x="33.53398844856629" y="818.7598698177048" width="5.876589749445345" height="8.727786162571931" fill="#ff6b6b" opacity="0.12373073035239492" rx="1"/><rect x="41.35872858119168" y="839.9295497895055" width="6.096562561135871" height="6.5256108382077915" fill="#c0392b" opacity="0.16830111240695722" rx="1"/><rect x="33.42400204272103" y="843.1923552086093" width="6.096562561135871" height="6.5256108382077915" fill="#ff6b6b" opacity="0.08415055620347861" rx="1"/><rect x="39.68766920983039" y="865.463122842592" width="9.43868130385845" height="9.333772824922058" fill="#c0392b" opacity="0.2214260506959227" rx="1"/><rect x="31.752942671359737" y="870.1300092550531" width="9.43868130385845" height="9.333772824922058" fill="#ff6b6b" opacity="0.11071302534796135" rx="1"/><rect x="39.61047204272134" y="890.9966958956786" width="9.593075638076542" height="7.313490591317763" fill="#c0392b" opacity="0.4312736884297975" rx="1"/><rect x="31.675745504250692" y="894.6534411913375" width="9.593075638076542" height="7.313490591317763" fill="#ff6b6b" opacity="0.21563684421489876" rx="1"/><rect x="42.055037196971256" y="916.5302689487651" width="4.703945329576718" height="6.990712614029346" fill="#c0392b" opacity="0.5357961711789938" rx="1"/><rect x="34.12031065850061" y="920.0256252557797" width="4.703945329576718" height="6.990712614029346" fill="#ff6b6b" opacity="0.2678980855894969" rx="1"/><rect x="95.72452788607323" y="844.6779508131273" width="39.593214972315636" height="87.3858911887244" fill="#130101" opacity="0.5190577591115277" rx="2"/><rect x="111.4454857731344" y="854.6779508131273" width="8.151299198193312" height="6.074713210592678" fill="#c0392b" opacity="0.3530359955860851" rx="1"/><rect x="101.5471820300555" y="857.7153074184237" width="8.151299198193312" height="6.074713210592678" fill="#ff6b6b" opacity="0.17651799779304256" rx="1"/><rect x="112.13899997787992" y="883.8065812093687" width="6.7642707887022455" height="7.688846758028689" fill="#c0392b" opacity="0.3364398363829683" rx="1"/><rect x="102.24069623480102" y="887.651004588383" width="6.7642707887022455" height="7.688846758028689" fill="#ff6b6b" opacity="0.16821991819148416" rx="1"/><rect x="112.27856350393932" y="912.9352116056102" width="6.4851437365834474" height="6.659615617399014" fill="#c0392b" opacity="0.26113271067411004" rx="1"/><rect x="102.38025976086043" y="916.2650194143097" width="6.4851437365834474" height="6.659615617399014" fill="#ff6b6b" opacity="0.13056635533705502" rx="1"/><rect x="177.78118093912053" y="820.3834269825331" width="89.26915213448675" height="111.68041501931856" fill="#2d1b1b" opacity="0.4915112095399553" rx="2"/><rect x="219.0629454674346" y="830.3834269825331" width="6.705623077858617" height="7.359566779192436" fill="#c0392b" opacity="0.26862184954076584" rx="1"/><rect x="196.7456574338129" y="834.0632103721293" width="6.705623077858617" height="7.359566779192436" fill="#ff6b6b" opacity="0.13431092477038292" rx="1"/><rect x="217.12170143381732" y="846.3377719852929" width="10.588111145093132" height="9.207592783311288" fill="#c0392b" opacity="0.35820499513256476" rx="1"/><rect x="194.80441340019564" y="850.9415683769486" width="10.588111145093132" height="9.207592783311288" fill="#ff6b6b" opacity="0.17910249756628238" rx="1"/><rect x="216.43742797370942" y="862.2921169880527" width="11.95665806530897" height="6.327810980455906" fill="#c0392b" opacity="0.2037634904737965" rx="1"/><rect x="194.12013994008774" y="865.4560224782807" width="11.95665806530897" height="6.327810980455906" fill="#ff6b6b" opacity="0.10188174523689825" rx="1"/><rect x="218.10144059618503" y="878.2464619908126" width="8.628632820357716" height="7.949118295206949" fill="#c0392b" opacity="0.21708179153899704" rx="1"/><rect x="195.78415256256335" y="882.2210211384161" width="8.628632820357716" height="7.949118295206949" fill="#ff6b6b" opacity="0.10854089576949852" rx="1"/><rect x="217.8226630219311" y="894.2008069935723" width="9.186187968865546" height="9.664912058893803" fill="#c0392b" opacity="0.1309070140428159" rx="1"/><rect x="195.50537498830943" y="899.0332630230192" width="9.186187968865546" height="9.664912058893803" fill="#ff6b6b" opacity="0.06545350702140795" rx="1"/><rect x="218.6972869820188" y="910.155151996332" width="7.436940048690173" height="6.67341464587334" fill="#c0392b" opacity="0.4773244984627991" rx="1"/><rect x="196.37999894839712" y="913.4918593192688" width="7.436940048690173" height="6.67341464587334" fill="#ff6b6b" opacity="0.23866224923139956" rx="1"/><rect x="218.53120912507438" y="926.1094969990919" width="7.769095762579026" height="7.442221089602034" fill="#c0392b" opacity="0.17656480920886733" rx="1"/><rect x="196.2139210914527" y="929.8306075438929" width="7.769095762579026" height="7.442221089602034" fill="#ff6b6b" opacity="0.08828240460443366" rx="1"/><rect x="242.15194818846695" y="600.0436848378843" width="51.435293602160016" height="332.02015716396744" fill="#130101" opacity="0.4287467680472757" rx="2"/><rect x="263.0249400357774" y="610.0436848378843" width="9.689309907539121" height="7.31590389677228" fill="#c0392b" opacity="0.4288784627404246" rx="1"/><rect x="250.1661166352374" y="613.7016367862703" width="9.689309907539121" height="7.31590389677228" fill="#ff6b6b" opacity="0.2144392313702123" rx="1"/><rect x="264.9744689958111" y="651.5462044833802" width="5.79025198747177" height="9.792085402596761" fill="#c0392b" opacity="0.3715499348173733" rx="1"/><rect x="252.11564559527105" y="656.4422471846785" width="5.79025198747177" height="9.792085402596761" fill="#ff6b6b" opacity="0.18577496740868665" rx="1"/><rect x="263.91831397240014" y="693.0487241288761" width="7.902562034293674" height="9.186628883515166" fill="#c0392b" opacity="0.5517508102468566" rx="1"/><rect x="251.0594905718601" y="697.6420385706336" width="7.902562034293674" height="9.186628883515166" fill="#ff6b6b" opacity="0.2758754051234283" rx="1"/><rect x="263.445214047666" y="734.5512437743721" width="8.848761883761911" height="6.696625614700984" fill="#c0392b" opacity="0.167164612833216" rx="1"/><rect x="250.58639064712597" y="737.8995565817225" width="8.848761883761911" height="6.696625614700984" fill="#ff6b6b" opacity="0.083582306416608" rx="1"/><rect x="264.7937971259919" y="776.053763419868" width="6.1515957271101875" height="9.35183447304923" fill="#c0392b" opacity="0.20591212674181725" rx="1"/><rect x="251.93497372545184" y="780.7296806563926" width="6.1515957271101875" height="9.35183447304923" fill="#ff6b6b" opacity="0.10295606337090862" rx="1"/><rect x="262.0949960455985" y="817.5562830653639" width="11.549197887896838" height="8.283833566653504" fill="#c0392b" opacity="0.29077914631710833" rx="1"/><rect x="249.2361726450585" y="821.6981998486907" width="11.549197887896838" height="8.283833566653504" fill="#ff6b6b" opacity="0.14538957315855416" rx="1"/><rect x="263.54460538796724" y="859.0588027108598" width="8.64997920315945" height="8.03613914131097" fill="#c0392b" opacity="0.14388866888915391" rx="1"/><rect x="250.68578198742722" y="863.0768722815153" width="8.64997920315945" height="8.03613914131097" fill="#ff6b6b" opacity="0.07194433444457696" rx="1"/><rect x="264.49001928686397" y="900.5613223563557" width="6.75915140536594" height="8.20526466290589" fill="#c0392b" opacity="0.4875440055009779" rx="1"/><rect x="251.63119588632398" y="904.6639546878087" width="6.75915140536594" height="8.20526466290589" fill="#ff6b6b" opacity="0.24377200275048894" rx="1"/><rect x="330.4996524356538" y="612.7610378811977" width="43.338744261613755" height="319.30280412065395" fill="#2d1b1b" opacity="0.4643804893978826" rx="2"/><rect x="348.2167096219996" y="622.7610378811977" width="7.904629888922123" height="9.776973004400958" fill="#c0392b" opacity="0.3187134397026881" rx="1"/><rect x="337.38202355659615" y="627.6495243833982" width="7.904629888922123" height="9.776973004400958" fill="#ff6b6b" opacity="0.15935671985134406" rx="1"/><rect x="346.64036083725296" y="686.6215987053284" width="11.05732745841549" height="8.292968829696292" fill="#c0392b" opacity="0.48356689931442187" rx="1"/><rect x="335.8056747718495" y="690.7680831201766" width="11.05732745841549" height="8.292968829696292" fill="#ff6b6b" opacity="0.24178344965721094" rx="1"/><rect x="347.50005404895643" y="750.4821595294593" width="9.337941035008509" height="9.209915601464434" fill="#c0392b" opacity="0.4897778277494428" rx="1"/><rect x="336.665367983553" y="755.0871173301915" width="9.337941035008509" height="9.209915601464434" fill="#ff6b6b" opacity="0.2448889138747214" rx="1"/><rect x="348.3907094540519" y="814.34272035359" width="7.55663022481758" height="9.66985910191896" fill="#c0392b" opacity="0.5164656608869475" rx="1"/><rect x="337.55602338864844" y="819.1776499045495" width="7.55663022481758" height="9.66985910191896" fill="#ff6b6b" opacity="0.2582328304434737" rx="1"/><rect x="348.77149466885527" y="878.2032811777208" width="6.79505979521085" height="8.1942278291551" fill="#c0392b" opacity="0.11541784138312047" rx="1"/><rect x="337.9368086034518" y="882.3003950922983" width="6.79505979521085" height="8.1942278291551" fill="#ff6b6b" opacity="0.057708920691560237" rx="1"/><rect x="404.965997968094" y="571.3122887120844" width="58.97230776701409" height="360.7515532897673" fill="#2d1b1b" opacity="0.6838003975068686" rx="2"/><rect x="430.0321630521287" y="581.3122887120844" width="8.839977598944674" height="9.34235841020531" fill="#c0392b" opacity="0.4547753252449388" rx="1"/><rect x="415.2890861103752" y="585.9834679171871" width="8.839977598944674" height="9.34235841020531" fill="#ff6b6b" opacity="0.2273876626224694" rx="1"/><rect x="430.37337552322384" y="632.8482248963369" width="8.15755265675428" height="6.712872200811485" fill="#c0392b" opacity="0.12099709155061215" rx="1"/><rect x="415.63029858147036" y="636.2046609967426" width="8.15755265675428" height="6.712872200811485" fill="#ff6b6b" opacity="0.06049854577530608" rx="1"/><rect x="429.2323048748617" y="684.3841610805894" width="10.439693953478638" height="7.224937466258401" fill="#c0392b" opacity="0.4305022442551568" rx="1"/><rect x="414.48922793310817" y="687.9966298137185" width="10.439693953478638" height="7.224937466258401" fill="#ff6b6b" opacity="0.2152511221275784" rx="1"/><rect x="431.0354294716463" y="735.9200972648418" width="6.8334447599093995" height="7.812354200941593" fill="#c0392b" opacity="0.3759497058056178" rx="1"/><rect x="416.2923525298928" y="739.8262743653127" width="6.8334447599093995" height="7.812354200941593" fill="#ff6b6b" opacity="0.1879748529028089" rx="1"/><rect x="432.1680838910788" y="787.4560334490943" width="4.568135921044306" height="7.768021302709361" fill="#c0392b" opacity="0.38365561558950123" rx="1"/><rect x="417.42500694932534" y="791.340044100449" width="4.568135921044306" height="7.768021302709361" fill="#ff6b6b" opacity="0.19182780779475062" rx="1"/><rect x="431.68636497265805" y="838.9919696333468" width="5.531573757885856" height="7.051005794911414" fill="#c0392b" opacity="0.19642006028360223" rx="1"/><rect x="416.94328803090457" y="842.5174725308025" width="5.531573757885856" height="7.051005794911414" fill="#ff6b6b" opacity="0.09821003014180112" rx="1"/><rect x="429.1469256254255" y="890.5279058175993" width="10.610452452350978" height="8.72971162915456" fill="#c0392b" opacity="0.4310198278238577" rx="1"/><rect x="414.40384868367204" y="894.8927616321765" width="10.610452452350978" height="8.72971162915456" fill="#ff6b6b" opacity="0.21550991391192886" rx="1"/><rect x="503.37063070465126" y="646.2213712735618" width="56.25178510003066" height="285.84247072828987" fill="#2d1b1b" opacity="0.6999920073663797" rx="2"/><rect x="528.0896378427487" y="656.2213712735618" width="6.8137708238358075" height="6.22906496567397" fill="#c0392b" opacity="0.15820010417564775" rx="1"/><rect x="514.0266915677411" y="659.3359037563988" width="6.8137708238358075" height="6.22906496567397" fill="#ff6b6b" opacity="0.07910005208782388" rx="1"/><rect x="526.1501776178252" y="727.6819889556342" width="10.692691273682911" height="7.022257771581006" fill="#c0392b" opacity="0.522911374462515" rx="1"/><rect x="512.0872313428175" y="731.1931178414247" width="10.692691273682911" height="7.022257771581006" fill="#ff6b6b" opacity="0.2614556872312575" rx="1"/><rect x="527.8254991320022" y="799.1426066377066" width="7.3420482453289555" height="6.577434132010079" fill="#c0392b" opacity="0.1382581173997042" rx="1"/><rect x="513.7625528569945" y="802.4313237037117" width="7.3420482453289555" height="6.577434132010079" fill="#ff6b6b" opacity="0.0691290586998521" rx="1"/><rect x="527.5385200862164" y="870.6032243197792" width="7.9160063369004074" height="6.991978544041509" fill="#c0392b" opacity="0.15976973452134285" rx="1"/><rect x="513.4755738112087" y="874.0992135918" width="7.9160063369004074" height="6.991978544041509" fill="#ff6b6b" opacity="0.07988486726067143" rx="1"/><rect x="560.0730215688407" y="747.3866162582735" width="31.66911826042205" height="184.6772257435781" fill="#2d1b1b" opacity="0.5638439753707135" rx="2"/><rect x="571.1130667398947" y="757.3866162582735" width="9.58902791831387" height="8.47773660777084" fill="#c0392b" opacity="0.1519536731419977" rx="1"/><rect x="563.1957871747893" y="761.6254845621589" width="9.58902791831387" height="8.47773660777084" fill="#ff6b6b" opacity="0.07597683657099885" rx="1"/><rect x="571.7076377306851" y="788.1661538822032" width="8.399885936733309" height="7.421805810514327" fill="#c0392b" opacity="0.34020139180128495" rx="1"/><rect x="563.7903581655796" y="791.8770567874603" width="8.399885936733309" height="7.421805810514327" fill="#ff6b6b" opacity="0.17010069590064247" rx="1"/><rect x="572.8932093614465" y="818.9456915061329" width="6.0287426752105215" height="9.507661558573055" fill="#c0392b" opacity="0.5786604345959286" rx="1"/><rect x="564.975929796341" y="823.6995222854194" width="6.0287426752105215" height="9.507661558573055" fill="#ff6b6b" opacity="0.2893302172979643" rx="1"/><rect x="572.5340350287813" y="849.7252291300626" width="6.747091340540697" height="8.244368719459597" fill="#c0392b" opacity="0.5186760547847199" rx="1"/><rect x="564.6167554636759" y="853.8474134897924" width="6.747091340540697" height="8.244368719459597" fill="#ff6b6b" opacity="0.25933802739235995" rx="1"/><rect x="572.4081724331268" y="880.5047667539923" width="6.99881653184975" height="8.117673287661205" fill="#c0392b" opacity="0.5578182329325514" rx="1"/><rect x="564.4908928680213" y="884.5636033978228" width="6.99881653184975" height="8.117673287661205" fill="#ff6b6b" opacity="0.2789091164662757" rx="1"/><rect x="573.6787980703355" y="911.2843043779219" width="4.457565257432304" height="8.946484107278867" fill="#c0392b" opacity="0.3321008325629171" rx="1"/><rect x="565.76151850523" y="915.7575464315613" width="4.457565257432304" height="8.946484107278867" fill="#ff6b6b" opacity="0.16605041628145856" rx="1"/><rect x="644.9505003529952" y="599.9647681019187" width="84.91373557944635" height="332.09907389993293" fill="#2d1b1b" opacity="0.5144024665733805" rx="2"/><rect x="682.8327704090236" y="609.9647681019187" width="9.149195467389468" height="6.336633014571069" fill="#c0392b" opacity="0.4398827067203547" rx="1"/><rect x="661.604336514162" y="613.1330846092043" width="9.149195467389468" height="6.336633014571069" fill="#ff6b6b" opacity="0.21994135336017734" rx="1"/><rect x="682.7149493535318" y="676.3845828819053" width="9.384837578373226" height="8.355042662088536" fill="#c0392b" opacity="0.36675606304005626" rx="1"/><rect x="661.4865154586702" y="680.5621042129496" width="9.384837578373226" height="8.355042662088536" fill="#ff6b6b" opacity="0.18337803152002813" rx="1"/><rect x="682.5831362883522" y="742.8043976618919" width="9.648463708732386" height="8.739405084107863" fill="#c0392b" opacity="0.4329760775279664" rx="1"/><rect x="661.3547023934906" y="747.1741002039458" width="9.648463708732386" height="8.739405084107863" fill="#ff6b6b" opacity="0.2164880387639832" rx="1"/><rect x="682.7554791010348" y="809.2242124418784" width="9.303778083367222" height="8.253893415968374" fill="#c0392b" opacity="0.12146572236005816" rx="1"/><rect x="661.5270452061732" y="813.3511591498626" width="9.303778083367222" height="8.253893415968374" fill="#ff6b6b" opacity="0.06073286118002908" rx="1"/><rect x="684.3738929334502" y="875.644027221865" width="6.066950418536306" height="9.027188836370406" fill="#c0392b" opacity="0.13060615843408885" rx="1"/><rect x="663.1454590385886" y="880.1576216400503" width="6.066950418536306" height="9.027188836370406" fill="#ff6b6b" opacity="0.06530307921704442" rx="1"/><rect x="725.0367048673883" y="627.4893375294025" width="86.57538806474194" height="304.5745044724491" fill="#2d1b1b" opacity="0.5289784986127584" rx="2"/><rect x="762.462887652559" y="637.4893375294025" width="11.723022494400624" height="6.163128385358287" fill="#c0392b" opacity="0.11571709092606723" rx="1"/><rect x="740.8190406363735" y="640.5709017220817" width="11.723022494400624" height="6.163128385358287" fill="#ff6b6b" opacity="0.057858545463033616" rx="1"/><rect x="764.7414455590167" y="688.2517549414774" width="7.165906681484987" height="8.079753402173463" fill="#c0392b" opacity="0.4278146925912738" rx="1"/><rect x="743.0975985428313" y="692.2916316425642" width="7.165906681484987" height="8.079753402173463" fill="#ff6b6b" opacity="0.2139073462956369" rx="1"/><rect x="765.7037285223379" y="739.0141723535522" width="5.241340754842698" height="8.455318439392215" fill="#c0392b" opacity="0.48307049483597986" rx="1"/><rect x="744.0598815061525" y="743.2418315732483" width="5.241340754842698" height="8.455318439392215" fill="#ff6b6b" opacity="0.24153524741798993" rx="1"/><rect x="763.9517498488891" y="789.776589765627" width="8.74529810174026" height="8.429746552004886" fill="#c0392b" opacity="0.19978574737901467" rx="1"/><rect x="742.3079028327037" y="793.9914630416295" width="8.74529810174026" height="8.429746552004886" fill="#ff6b6b" opacity="0.09989287368950733" rx="1"/><rect x="765.4282610957576" y="840.5390071777019" width="5.792275608003203" height="8.476476072910353" fill="#c0392b" opacity="0.38773619194695175" rx="1"/><rect x="743.7844140795722" y="844.7772452141571" width="5.792275608003203" height="8.476476072910353" fill="#ff6b6b" opacity="0.19386809597347587" rx="1"/><rect x="764.749406818242" y="891.3014245897768" width="7.1499841630342384" height="8.943520326852687" fill="#c0392b" opacity="0.10123612466297023" rx="1"/><rect x="743.1055598020566" y="895.7731847532032" width="7.1499841630342384" height="8.943520326852687" fill="#ff6b6b" opacity="0.050618062331485116" rx="1"/><rect x="812.1380876708166" y="581.6357375196264" width="88.08771278198988" height="350.42810448222514" fill="#2d1b1b" opacity="0.5358753755306536" rx="2"/><rect x="852.1186302372065" y="591.6357375196264" width="8.126627649210075" height="6.154864348507222" fill="#c0392b" opacity="0.5508364538082007" rx="1"/><rect x="830.096702041709" y="594.7131696938801" width="8.126627649210075" height="6.154864348507222" fill="#ff6b6b" opacity="0.27541822690410034" rx="1"/><rect x="851.5681454317105" y="650.0404215999973" width="9.227597260202188" height="8.495896427541947" fill="#c0392b" opacity="0.20823068106738635" rx="1"/><rect x="829.546217236213" y="654.2883698137683" width="9.227597260202188" height="8.495896427541947" fill="#ff6b6b" opacity="0.10411534053369317" rx="1"/><rect x="852.0993285600794" y="708.4451056803682" width="8.165231003464486" height="9.653123700910509" fill="#c0392b" opacity="0.16872580597845974" rx="1"/><rect x="830.0774003645819" y="713.2716675308235" width="8.165231003464486" height="9.653123700910509" fill="#ff6b6b" opacity="0.08436290298922987" rx="1"/><rect x="851.0646215761232" y="766.849789760739" width="10.234644971376902" height="8.641120952237658" fill="#c0392b" opacity="0.1772019758767453" rx="1"/><rect x="829.0426933806257" y="771.1703502368579" width="10.234644971376902" height="8.641120952237658" fill="#ff6b6b" opacity="0.08860098793837265" rx="1"/><rect x="850.4581651304519" y="825.2544738411099" width="11.447557862719417" height="7.140906851073007" fill="#c0392b" opacity="0.393029609670171" rx="1"/><rect x="828.4362369349544" y="828.8249272666463" width="11.447557862719417" height="7.140906851073007" fill="#ff6b6b" opacity="0.1965148048350855" rx="1"/><rect x="851.3578093751236" y="883.6591579214808" width="9.648269373375985" height="6.842210043417804" fill="#c0392b" opacity="0.17497931739198494" rx="1"/><rect x="829.3358811796261" y="887.0802629431896" width="9.648269373375985" height="6.842210043417804" fill="#ff6b6b" opacity="0.08748965869599247" rx="1"/><rect x="886.2610869729568" y="797.5658704171809" width="76.80383395096376" height="134.49797158467072" fill="#130101" opacity="0.5664276830541035" rx="2"/><rect x="922.6280905035389" y="807.5658704171809" width="4.069826889799402" height="9.733873370972898" fill="#c0392b" opacity="0.15321606028667095" rx="1"/><rect x="903.4271320157981" y="812.4328071026673" width="4.069826889799402" height="9.733873370972898" fill="#ff6b6b" opacity="0.07660803014333548" rx="1"/><rect x="919.2458348218925" y="829.9821990146261" width="10.834338253092564" height="9.72024978877051" fill="#c0392b" opacity="0.5000198936322751" rx="1"/><rect x="900.0448763341516" y="834.8423239090114" width="10.834338253092564" height="9.72024978877051" fill="#ff6b6b" opacity="0.25000994681613753" rx="1"/><rect x="922.4983165309528" y="852.3985276120711" width="4.329374834971823" height="8.029084116692907" fill="#c0392b" opacity="0.5794930082232442" rx="1"/><rect x="903.297358043212" y="856.4130696704176" width="4.329374834971823" height="8.029084116692907" fill="#ff6b6b" opacity="0.2897465041116221" rx="1"/><rect x="918.7271953131368" y="874.8148562095163" width="11.871617270603686" height="7.275443477853072" fill="#c0392b" opacity="0.336866597141341" rx="1"/><rect x="899.5262368253959" y="878.4525779484428" width="11.871617270603686" height="7.275443477853072" fill="#ff6b6b" opacity="0.1684332985706705" rx="1"/><rect x="918.7626709574281" y="897.2311848069614" width="11.800665982021174" height="8.548948577267339" fill="#c0392b" opacity="0.4458334839311041" rx="1"/><rect x="899.5617124696872" y="901.5056590955951" width="11.800665982021174" height="8.548948577267339" fill="#ff6b6b" opacity="0.22291674196555206" rx="1"/><rect x="919.1159971058639" y="919.6475134044065" width="11.094013685149609" height="6.447666973911148" fill="#c0392b" opacity="0.1199190982430985" rx="1"/><rect x="899.915038618123" y="922.871346891362" width="11.094013685149609" height="6.447666973911148" fill="#ff6b6b" opacity="0.05995954912154925" rx="1"/><rect x="978.5758234417475" y="821.3679680534099" width="67.63701105900971" height="110.69587394844179" fill="#2d1b1b" opacity="0.6184019814986741" rx="2"/><rect x="1008.2330285229797" y="831.3679680534099" width="8.32260089654536" height="6.892892903856209" fill="#c0392b" opacity="0.20140069075892697" rx="1"/><rect x="991.3237757582273" y="834.8144145053379" width="8.32260089654536" height="6.892892903856209" fill="#ff6b6b" opacity="0.10070034537946349" rx="1"/><rect x="1010.322920655674" y="845.2049522969651" width="4.142816631156676" height="7.118610451258395" fill="#c0392b" opacity="0.444576155963488" rx="1"/><rect x="993.4136678909216" y="848.7642575225942" width="4.142816631156676" height="7.118610451258395" fill="#ff6b6b" opacity="0.222288077981744" rx="1"/><rect x="1007.1647166554268" y="859.0419365405203" width="10.459224631651125" height="6.136907827140975" fill="#c0392b" opacity="0.18852712346439415" rx="1"/><rect x="990.2554638906744" y="862.1103904540907" width="10.459224631651125" height="6.136907827140975" fill="#ff6b6b" opacity="0.09426356173219708" rx="1"/><rect x="1009.6529751873232" y="872.8789207840755" width="5.482707567858209" height="6.270498286995688" fill="#c0392b" opacity="0.5054974748067319" rx="1"/><rect x="992.7437224225708" y="876.0141699275733" width="5.482707567858209" height="6.270498286995688" fill="#ff6b6b" opacity="0.25274873740336595" rx="1"/><rect x="1008.7902009835909" y="886.7159050276308" width="7.2082559753228574" height="6.917168787894111" fill="#c0392b" opacity="0.30017339142509114" rx="1"/><rect x="991.8809482188385" y="890.1744894215778" width="7.2082559753228574" height="6.917168787894111" fill="#ff6b6b" opacity="0.15008669571254557" rx="1"/><rect x="1009.3309068964633" y="900.552889271186" width="6.126844149578094" height="6.347190967841817" fill="#c0392b" opacity="0.5058788874898755" rx="1"/><rect x="992.4216541317109" y="903.726484755107" width="6.126844149578094" height="6.347190967841817" fill="#ff6b6b" opacity="0.25293944374493776" rx="1"/><rect x="1007.8309184352007" y="914.3898735147412" width="9.12682107210318" height="8.747323960705502" fill="#c0392b" opacity="0.4243135031834975" rx="1"/><rect x="990.9216656704483" y="918.763535495094" width="9.12682107210318" height="8.747323960705502" fill="#ff6b6b" opacity="0.21215675159174874" rx="1"/><rect x="1006.7104541137139" y="928.2268577582964" width="11.367749715076702" height="7.892278962277873" fill="#c0392b" opacity="0.2562763833571869" rx="1"/><rect x="989.8012013489615" y="932.1729972394354" width="11.367749715076702" height="7.892278962277873" fill="#ff6b6b" opacity="0.12813819167859344" rx="1"/><rect x="1041.627218837763" y="848.3434923687819" width="34.37785801113999" height="83.72034963306979" fill="#2d1b1b" opacity="0.5003602901707311" rx="2"/><rect x="1055.8120342955951" y="858.3434923687819" width="6.008227095475473" height="9.654231165455244" fill="#c0392b" opacity="0.39237212468692384" rx="1"/><rect x="1047.2175697928103" y="863.1706079515095" width="6.008227095475473" height="9.654231165455244" fill="#ff6b6b" opacity="0.19618606234346192" rx="1"/><rect x="1054.0131356606755" y="879.2735797770493" width="9.606024365314754" height="9.564557750607971" fill="#c0392b" opacity="0.35062831171104414" rx="1"/><rect x="1045.4186711578907" y="884.0558586523533" width="9.606024365314754" height="9.564557750607971" fill="#ff6b6b" opacity="0.17531415585552207" rx="1"/><rect x="1056.1154098667005" y="900.2036671853168" width="5.401475953264505" height="8.416589969400453" fill="#c0392b" opacity="0.5961495324960326" rx="1"/><rect x="1047.5209453639156" y="904.4119621700171" width="5.401475953264505" height="8.416589969400453" fill="#ff6b6b" opacity="0.2980747662480163" rx="1"/><rect x="1056.3157459030197" y="921.1337545935842" width="5.000803880626523" height="8.570053731689708" fill="#c0392b" opacity="0.2947672758704907" rx="1"/><rect x="1047.7212814002348" y="925.418781459429" width="5.000803880626523" height="8.570053731689708" fill="#ff6b6b" opacity="0.14738363793524534" rx="1"/><rect x="1128.923630129761" y="784.7623508504505" width="83.76975974388648" height="147.3014911514012" fill="#130101" opacity="0.5781354820304866" rx="2"/><rect x="1166.1526352858991" y="794.7623508504505" width="9.31174943161005" height="7.165810832093891" fill="#c0392b" opacity="0.2967121047658641" rx="1"/><rect x="1145.2101953499275" y="798.3452562664975" width="9.31174943161005" height="7.165810832093891" fill="#ff6b6b" opacity="0.14835605238293206" rx="1"/><rect x="1166.0757116566124" y="815.8054210149364" width="9.465596690183876" height="9.923598506470118" fill="#c0392b" opacity="0.3393747590806742" rx="1"/><rect x="1145.1332717206408" y="820.7672202681715" width="9.465596690183876" height="9.923598506470118" fill="#ff6b6b" opacity="0.1696873795403371" rx="1"/><rect x="1168.0160753659477" y="836.8484911794222" width="5.584869271513277" height="6.586003733003978" fill="#c0392b" opacity="0.40149415596423066" rx="1"/><rect x="1147.073635429976" y="840.1414930459242" width="5.584869271513277" height="6.586003733003978" fill="#ff6b6b" opacity="0.20074707798211533" rx="1"/><rect x="1166.3523904945125" y="857.8915613439082" width="8.912239014383461" height="7.7561318384846984" fill="#c0392b" opacity="0.525462635333059" rx="1"/><rect x="1145.409950558541" y="861.7696272631505" width="8.912239014383461" height="7.7561318384846984" fill="#ff6b6b" opacity="0.2627313176665295" rx="1"/><rect x="1168.1550592889905" y="878.9346315083941" width="5.306901425427501" height="7.798167319455689" fill="#c0392b" opacity="0.42981150313974625" rx="1"/><rect x="1147.212619353019" y="882.8337151681219" width="5.306901425427501" height="7.798167319455689" fill="#ff6b6b" opacity="0.21490575156987313" rx="1"/><rect x="1167.5335079530564" y="899.9777016728799" width="6.55000409729546" height="9.08288334102437" fill="#c0392b" opacity="0.218688402259417" rx="1"/><rect x="1146.5910680170848" y="904.5191433433921" width="6.55000409729546" height="9.08288334102437" fill="#ff6b6b" opacity="0.1093442011297085" rx="1"/><rect x="1168.044614558817" y="921.0207718373658" width="5.52779088577437" height="9.858497508768574" fill="#c0392b" opacity="0.43862150968951674" rx="1"/><rect x="1147.1021746228455" y="925.9500205917501" width="5.52779088577437" height="9.858497508768574" fill="#ff6b6b" opacity="0.21931075484475837" rx="1"/><rect x="1209.6685487380412" y="783.8362904577135" width="54.06197459065867" height="148.22755154413812" fill="#2d1b1b" opacity="0.5379654296296569" rx="2"/><rect x="1231.7322265884682" y="793.8362904577135" width="9.934618889804607" height="6.925972020469134" fill="#c0392b" opacity="0.19331828532584905" rx="1"/><rect x="1218.2167329408035" y="797.2992764679481" width="9.934618889804607" height="6.925972020469134" fill="#ff6b6b" opacity="0.09665914266292452" rx="1"/><rect x="1233.7239959530357" y="815.0116549640189" width="5.951080160669768" height="7.5667295152244" fill="#c0392b" opacity="0.5487461605921262" rx="1"/><rect x="1220.208502305371" y="818.7950197216311" width="5.951080160669768" height="7.5667295152244" fill="#ff6b6b" opacity="0.2743730802960631" rx="1"/><rect x="1231.2099539968676" y="836.1870194703245" width="10.979164073006055" height="9.100547762378246" fill="#c0392b" opacity="0.18662404494514317" rx="1"/><rect x="1217.694460349203" y="840.7372933515136" width="10.979164073006055" height="9.100547762378246" fill="#ff6b6b" opacity="0.09331202247257159" rx="1"/><rect x="1234.404653444282" y="857.3623839766299" width="4.589765178176985" height="8.786632441633063" fill="#c0392b" opacity="0.28581697209407975" rx="1"/><rect x="1220.8891597966174" y="861.7557001974465" width="4.589765178176985" height="8.786632441633063" fill="#ff6b6b" opacity="0.14290848604703987" rx="1"/><rect x="1231.9057171565728" y="878.5377484829353" width="9.587637753595514" height="9.19783219583282" fill="#c0392b" opacity="0.3258260754695689" rx="1"/><rect x="1218.390223508908" y="883.1366645808517" width="9.587637753595514" height="9.19783219583282" fill="#ff6b6b" opacity="0.16291303773478444" rx="1"/><rect x="1231.6190792635596" y="899.7131129892407" width="10.160913539622193" height="8.028123747098288" fill="#c0392b" opacity="0.3001121597597637" rx="1"/><rect x="1218.1035856158949" y="903.7271748627899" width="10.160913539622193" height="8.028123747098288" fill="#ff6b6b" opacity="0.15005607987988184" rx="1"/><rect x="1232.842020397038" y="920.8884774955462" width="7.715031272665372" height="8.804098331091017" fill="#c0392b" opacity="0.5421741821435686" rx="1"/><rect x="1219.3265267493732" y="925.2905266610917" width="7.715031272665372" height="8.804098331091017" fill="#ff6b6b" opacity="0.2710870910717843" rx="1"/><rect x="1309.3407485423006" y="803.1196582720428" width="85.93303356690635" height="128.94418372980883" fill="#2d1b1b" opacity="0.6160622903648909" rx="2"/><rect x="1349.5276247906797" y="813.1196582720428" width="5.559281070148405" height="8.985642818497876" fill="#c0392b" opacity="0.5149727757123701" rx="1"/><rect x="1328.0443663989531" y="817.6124796812917" width="5.559281070148405" height="8.985642818497876" fill="#ff6b6b" opacity="0.25748638785618505" rx="1"/><rect x="1349.6900205222635" y="856.1010528486457" width="5.234489606980814" height="8.997995881130452" fill="#c0392b" opacity="0.16593436411720103" rx="1"/><rect x="1328.2067621305368" y="860.600050789211" width="5.234489606980814" height="8.997995881130452" fill="#ff6b6b" opacity="0.08296718205860051" rx="1"/><rect x="1348.7951694968613" y="899.0824474252487" width="7.024191657785371" height="9.00272793951508" fill="#c0392b" opacity="0.49325752898428066" rx="1"/><rect x="1327.3119111051346" y="903.5838113950063" width="7.024191657785371" height="9.00272793951508" fill="#ff6b6b" opacity="0.24662876449214033" rx="1"/><rect x="1381.947441150422" y="556.6918523532087" width="53.53143651120631" height="375.37198964864297" fill="#2d1b1b" opacity="0.6829516184709388" rx="2"/><rect x="1402.901940768096" y="566.6918523532087" width="11.622437275858232" height="9.697719985548808" fill="#c0392b" opacity="0.14756100954198303" rx="1"/><rect x="1389.5190816402944" y="571.540712345983" width="11.622437275858232" height="9.697719985548808" fill="#ff6b6b" opacity="0.07378050477099152" rx="1"/><rect x="1404.7210152912235" y="660.5348497653695" width="7.984288229603388" height="9.115012964027704" fill="#c0392b" opacity="0.5345105202948932" rx="1"/><rect x="1391.338156163422" y="665.0923562473833" width="7.984288229603388" height="9.115012964027704" fill="#ff6b6b" opacity="0.2672552601474466" rx="1"/><rect x="1405.028385260149" y="754.3778471775302" width="7.3695482917524755" height="7.93933341511044" fill="#c0392b" opacity="0.3905050067441782" rx="1"/><rect x="1391.6455261323474" y="758.3475138850854" width="7.3695482917524755" height="7.93933341511044" fill="#ff6b6b" opacity="0.1952525033720891" rx="1"/><rect x="1403.2698888616333" y="848.2208445896908" width="10.886541088783773" height="7.899698947067303" fill="#c0392b" opacity="0.25611153786445773" rx="1"/><rect x="1389.8870297338317" y="852.1706940632245" width="10.886541088783773" height="7.899698947067303" fill="#ff6b6b" opacity="0.12805576893222886" rx="1"/><rect x="1449.5220114103338" y="751.1240440190593" width="33.72279717673613" height="180.93979798279233" fill="#130101" opacity="0.4312043929079558" rx="2"/><rect x="1461.478086216021" y="761.1240440190593" width="9.810647565361728" height="6.838250989289547" fill="#c0392b" opacity="0.2646632932044247" rx="1"/><rect x="1453.047386921837" y="764.543169513704" width="9.810647565361728" height="6.838250989289547" fill="#ff6b6b" opacity="0.13233164660221236" rx="1"/><rect x="1464.1445815146772" y="806.3589935147573" width="4.47765696804916" height="7.784611384799846" fill="#c0392b" opacity="0.17765130444375132" rx="1"/><rect x="1455.7138822204931" y="810.2512992071572" width="4.47765696804916" height="7.784611384799846" fill="#ff6b6b" opacity="0.08882565222187566" rx="1"/><rect x="1462.594980046059" y="851.5939430104554" width="7.576859905285961" height="9.494070501880271" fill="#c0392b" opacity="0.5718907409049316" rx="1"/><rect x="1454.164280751875" y="856.3409782613955" width="7.576859905285961" height="9.494070501880271" fill="#ff6b6b" opacity="0.2859453704524658" rx="1"/><rect x="1462.554633664795" y="896.8288925061536" width="7.657552667813738" height="6.823006665525726" fill="#c0392b" opacity="0.5615847942097077" rx="1"/><rect x="1454.1239343706109" y="900.2403958389165" width="7.657552667813738" height="6.823006665525726" fill="#ff6b6b" opacity="0.2807923971048539" rx="1"/><rect x="1524.395336500461" y="571.216493547246" width="58.52468563907889" height="360.84734845460565" fill="#2d1b1b" opacity="0.5327792543761384" rx="2"/><rect x="1547.9863152753067" y="581.216493547246" width="11.342728089388164" height="7.557998543967958" fill="#c0392b" opacity="0.5669030874424854" rx="1"/><rect x="1533.3551438655368" y="584.99549281923" width="11.342728089388164" height="7.557998543967958" fill="#ff6b6b" opacity="0.2834515437212427" rx="1"/><rect x="1549.6625288232842" y="641.3577182896803" width="7.990300993432827" height="7.408899541340977" fill="#c0392b" opacity="0.22793931926785488" rx="1"/><rect x="1535.0313574135143" y="645.0621680603508" width="7.990300993432827" height="7.408899541340977" fill="#ff6b6b" opacity="0.11396965963392744" rx="1"/><rect x="1548.9594755349588" y="701.4989430321145" width="9.39640757008372" height="9.156109784533296" fill="#c0392b" opacity="0.5710401385023818" rx="1"/><rect x="1534.3283041251889" y="706.0769979243812" width="9.39640757008372" height="9.156109784533296" fill="#ff6b6b" opacity="0.2855200692511909" rx="1"/><rect x="1549.7828803976959" y="761.6401677745489" width="7.749597844609431" height="8.115038136512748" fill="#c0392b" opacity="0.582410354302826" rx="1"/><rect x="1535.151708987926" y="765.6976868428053" width="7.749597844609431" height="8.115038136512748" fill="#ff6b6b" opacity="0.291205177151413" rx="1"/><rect x="1550.8655951511735" y="821.7813925169831" width="5.584168337654361" height="8.608705856513396" fill="#c0392b" opacity="0.5215523972924688" rx="1"/><rect x="1536.2344237414036" y="826.0857454452398" width="5.584168337654361" height="8.608705856513396" fill="#ff6b6b" opacity="0.2607761986462344" rx="1"/><rect x="1548.5879824737992" y="881.9226172594174" width="10.139393692402958" height="8.693880916269002" fill="#c0392b" opacity="0.5426300430071145" rx="1"/><rect x="1533.9568110640294" y="886.269557717552" width="10.139393692402958" height="8.693880916269002" fill="#ff6b6b" opacity="0.27131502150355724" rx="1"/><rect x="1625.7259378199758" y="783.000180528732" width="42.92873730718362" height="149.06366147311957" fill="#2d1b1b" opacity="0.4063637567931702" rx="2"/><rect x="1644.96396676357" y="793.000180528732" width="4.452679419995444" height="6.217917862398997" fill="#c0392b" opacity="0.22367992071054876" rx="1"/><rect x="1634.231782436774" y="796.1091394599315" width="4.452679419995444" height="6.217917862398997" fill="#ff6b6b" opacity="0.11183996035527438" rx="1"/><rect x="1643.102602362191" y="811.6331382128719" width="8.175408222753417" height="8.440441143335878" fill="#c0392b" opacity="0.5277810369217258" rx="1"/><rect x="1632.370418035395" y="815.8533587845399" width="8.175408222753417" height="8.440441143335878" fill="#ff6b6b" opacity="0.2638905184608629" rx="1"/><rect x="1641.6962626037878" y="830.266095897012" width="10.988087739559841" height="6.376797504810802" fill="#c0392b" opacity="0.5734767310958069" rx="1"/><rect x="1630.9640782769918" y="833.4544946494174" width="10.988087739559841" height="6.376797504810802" fill="#ff6b6b" opacity="0.28673836554790344" rx="1"/><rect x="1641.36299707749" y="848.8990535811519" width="11.654618792155436" height="7.75847805332357" fill="#c0392b" opacity="0.4550404506630824" rx="1"/><rect x="1630.630812750694" y="852.7782926078137" width="11.654618792155436" height="7.75847805332357" fill="#ff6b6b" opacity="0.2275202253315412" rx="1"/><rect x="1641.7200350222922" y="867.5320112652918" width="10.940542902550787" height="9.573662487690724" fill="#c0392b" opacity="0.11389016001808694" rx="1"/><rect x="1630.9878506954963" y="872.3188425091371" width="10.940542902550787" height="9.573662487690724" fill="#ff6b6b" opacity="0.05694508000904347" rx="1"/><rect x="1642.5390625171221" y="886.1649689494318" width="9.302487912891081" height="6.412422562114061" fill="#c0392b" opacity="0.22211741055876888" rx="1"/><rect x="1631.8068781903262" y="889.3711802304888" width="9.302487912891081" height="6.412422562114061" fill="#ff6b6b" opacity="0.11105870527938444" rx="1"/><rect x="1642.7844989899975" y="904.7979266335717" width="8.81161496714028" height="6.120064717745423" fill="#c0392b" opacity="0.42703905420541743" rx="1"/><rect x="1632.0523146632015" y="907.8579589924444" width="8.81161496714028" height="6.120064717745423" fill="#ff6b6b" opacity="0.21351952710270872" rx="1"/><rect x="1645.0883158501445" y="923.4308843177116" width="4.203981246846723" height="8.770808007281927" fill="#c0392b" opacity="0.15105789123360486" rx="1"/><rect x="1634.3561315233485" y="927.8162883213525" width="4.203981246846723" height="8.770808007281927" fill="#ff6b6b" opacity="0.07552894561680243" rx="1"/><rect x="1687.230267277274" y="802.0895655388222" width="47.3251047398255" height="129.9742764630295" fill="#130101" opacity="0.6719609006708397" rx="2"/><rect x="1705.6395125860906" y="812.0895655388222" width="10.506614122192053" height="8.922996863472042" fill="#c0392b" opacity="0.16515448891212103" rx="1"/><rect x="1693.8082364011343" y="816.5510639705582" width="10.506614122192053" height="8.922996863472042" fill="#ff6b6b" opacity="0.08257724445606052" rx="1"/><rect x="1708.887250041097" y="838.084420831428" width="4.011139212178797" height="6.780109261344212" fill="#c0392b" opacity="0.4562671633801114" rx="1"/><rect x="1697.0559738561408" y="841.4744754621001" width="4.011139212178797" height="6.780109261344212" fill="#ff6b6b" opacity="0.2281335816900557" rx="1"/><rect x="1706.9770341943895" y="864.079276124034" width="7.831570905594056" height="9.552721304714847" fill="#c0392b" opacity="0.33582227393887526" rx="1"/><rect x="1695.1457580094332" y="868.8556367763914" width="7.831570905594056" height="9.552721304714847" fill="#ff6b6b" opacity="0.16791113696943763" rx="1"/><rect x="1706.827516859357" y="890.0741314166398" width="8.130605575658986" height="8.392079079149308" fill="#c0392b" opacity="0.42001292782835964" rx="1"/><rect x="1694.9962406744007" y="894.2701709562144" width="8.130605575658986" height="8.392079079149308" fill="#ff6b6b" opacity="0.21000646391417982" rx="1"/><rect x="1704.9870349406233" y="916.0689867092458" width="11.811569413126346" height="8.40412552431322" fill="#c0392b" opacity="0.48987867065935364" rx="1"/><rect x="1693.155758755667" y="920.2710494714024" width="11.811569413126346" height="8.40412552431322" fill="#ff6b6b" opacity="0.24493933532967682" rx="1"/><rect x="1784.9850534985273" y="783.0642756850143" width="67.96941505697775" height="148.99956631683733" fill="#2d1b1b" opacity="0.5387829058195425" rx="2"/><rect x="1816.8259274661136" y="793.0642756850143" width="4.287667121805173" height="8.78216841322886" fill="#c0392b" opacity="0.35828979880509193" rx="1"/><rect x="1799.8335737018692" y="797.4553598916287" width="4.287667121805173" height="8.78216841322886" fill="#ff6b6b" opacity="0.17914489940254597" rx="1"/><rect x="1813.7726660279493" y="814.349928015991" width="10.39418999813362" height="9.92057967184125" fill="#c0392b" opacity="0.4998353689442937" rx="1"/><rect x="1796.780312263705" y="819.3102178519117" width="10.39418999813362" height="9.92057967184125" fill="#ff6b6b" opacity="0.24991768447214685" rx="1"/><rect x="1816.482387819207" y="835.6355803469678" width="4.974746415618515" height="6.773941070952905" fill="#c0392b" opacity="0.5401357377507109" rx="1"/><rect x="1799.4900340549625" y="839.0225508824443" width="4.974746415618515" height="6.773941070952905" fill="#ff6b6b" opacity="0.27006786887535544" rx="1"/><rect x="1813.4315994420162" y="856.9212326779445" width="11.076323169999831" height="9.961235697372173" fill="#c0392b" opacity="0.4349473090690904" rx="1"/><rect x="1796.4392456777719" y="861.9018505266306" width="11.076323169999831" height="9.961235697372173" fill="#ff6b6b" opacity="0.2174736545345452" rx="1"/><rect x="1813.5765324087292" y="878.2068850089214" width="10.786457236573671" height="6.206608795609001" fill="#c0392b" opacity="0.18642778652404152" rx="1"/><rect x="1796.5841786444848" y="881.310189406726" width="10.786457236573671" height="6.206608795609001" fill="#ff6b6b" opacity="0.09321389326202076" rx="1"/><rect x="1815.4954180779157" y="899.4925373398981" width="6.948685898200768" height="7.4885409245008" fill="#c0392b" opacity="0.40046031840621965" rx="1"/><rect x="1798.5030643136713" y="903.2368078021485" width="6.948685898200768" height="7.4885409245008" fill="#ff6b6b" opacity="0.20023015920310983" rx="1"/><rect x="1814.0335259356148" y="920.7781896708749" width="9.872470182802637" height="6.231685624511839" fill="#c0392b" opacity="0.47744642220843736" rx="1"/><rect x="1797.0411721713704" y="923.8940324831308" width="9.872470182802637" height="6.231685624511839" fill="#ff6b6b" opacity="0.23872321110421868" rx="1"/><rect x="1862.2502355096512" y="646.4865441658736" width="84.22182591497474" height="285.577297835978" fill="#130101" opacity="0.603809716925912" rx="2"/><rect x="1900.4892153240482" y="656.4865441658736" width="7.743866286180882" height="8.617108994772916" fill="#c0392b" opacity="0.39398413614695527" rx="1"/><rect x="1879.4337588453045" y="660.7950986632601" width="7.743866286180882" height="8.617108994772916" fill="#ff6b6b" opacity="0.19699206807347763" rx="1"/><rect x="1899.9713352231709" y="692.1837063953709" width="8.779626487935806" height="9.335949832418923" fill="#c0392b" opacity="0.1195217367772762" rx="1"/><rect x="1878.9158787444271" y="696.8516813115804" width="8.779626487935806" height="9.335949832418923" fill="#ff6b6b" opacity="0.0597608683886381" rx="1"/><rect x="1898.7784815290427" y="727.8808686248681" width="11.165333876191948" height="8.720240262970384" fill="#c0392b" opacity="0.3885997094653081" rx="1"/><rect x="1877.723025050299" y="732.2409887563533" width="11.165333876191948" height="8.720240262970384" fill="#ff6b6b" opacity="0.19429985473265404" rx="1"/><rect x="1899.7032606528846" y="763.5780308543654" width="9.315775628508018" height="7.14210137751468" fill="#c0392b" opacity="0.18505966690952416" rx="1"/><rect x="1878.647804174141" y="767.1490815431227" width="9.315775628508018" height="7.14210137751468" fill="#ff6b6b" opacity="0.09252983345476208" rx="1"/><rect x="1899.4903785401234" y="799.2751930838626" width="9.741539854030483" height="7.354230439605711" fill="#c0392b" opacity="0.4125592163560351" rx="1"/><rect x="1878.4349220613797" y="802.9523083036655" width="9.741539854030483" height="7.354230439605711" fill="#ff6b6b" opacity="0.20627960817801755" rx="1"/><rect x="1899.9917289616988" y="834.9723553133599" width="8.738839010880058" height="6.039996274756267" fill="#c0392b" opacity="0.5380986195611998" rx="1"/><rect x="1878.936272482955" y="837.992353450738" width="8.738839010880058" height="6.039996274756267" fill="#ff6b6b" opacity="0.2690493097805999" rx="1"/><rect x="1898.7295406553264" y="870.6695175428572" width="11.26321562362444" height="6.8267866067650695" fill="#c0392b" opacity="0.39309772148102007" rx="1"/><rect x="1877.6740841765827" y="874.0829108462398" width="11.26321562362444" height="6.8267866067650695" fill="#ff6b6b" opacity="0.19654886074051003" rx="1"/><rect x="1899.9802917672741" y="906.3666797723544" width="8.76171339972916" height="8.201267459942322" fill="#c0392b" opacity="0.5604984585802301" rx="1"/><rect x="1878.9248352885304" y="910.4673135023255" width="8.76171339972916" height="8.201267459942322" fill="#ff6b6b" opacity="0.28024922929011503" rx="1"/><path d="M1220.0183507660445 828.563808726278 Q1202.5543048564703 727.1437894034068 1199.0614956745553 625.7237700805356" stroke="#000000" stroke-width="6.243880169988582" fill="none" stroke-linecap="round"/><path d="M1199.0614956745553 625.7237700805356 Q1241.8997307081936 605.7237700805356 1274.5119673992765 625.7237700805356" stroke="#000000" stroke-width="2.062273966162995" fill="none" stroke-linecap="round" opacity="0.6"/><path d="M1199.0614956745553 625.7237700805356 Q1231.6429347703652 610.7825592873039 1225.956494156977 635.8413484940722" stroke="#000000" stroke-width="3.8108376916057516" fill="none" stroke-linecap="round" opacity="0.6"/><path d="M1199.0614956745553 625.7237700805356 Q1192.6104005903667 616.4838198767058 1182.6887546739626 647.2438696728759" stroke="#000000" stroke-width="3.0914106837220983" fill="none" stroke-linecap="round" opacity="0.6"/><path d="M1199.0614956745553 625.7237700805356 Q1172.4771977904268 609.773678024407 1142.9966923439074 633.8235859682783" stroke="#000000" stroke-width="3.9295328203424655" fill="none" stroke-linecap="round" opacity="0.6"/><path d="M1199.0614956745553 625.7237700805356 Q1183.3312842754922 600.8247910763907 1131.2425975181197 615.925812072246" stroke="#000000" stroke-width="3.1132560863888954" fill="none" stroke-linecap="round" opacity="0.6"/><path d="M1199.0614956745553 625.7237700805356 Q1203.1211648378364 599.3313113847494 1189.3345824570767 612.9388526889632" stroke="#000000" stroke-width="2.9509355749355013" fill="none" stroke-linecap="round" opacity="0.6"/><path d="M895.2874626813659 869.3505625634805 Q899.7093496936627 772.7181566408179 900.593727096122 676.0857507181554" stroke="#000000" stroke-width="5.672330209443422" fill="none" stroke-linecap="round"/><path d="M900.593727096122 676.0857507181554 Q953.5278166768903 656.0857507181554 969.526591740904 676.0857507181554" stroke="#000000" stroke-width="3.6046908520173027" fill="none" stroke-linecap="round" opacity="0.6"/><path d="M900.593727096122 676.0857507181554 Q922.2915721442033 663.6824751434292 940.9816309083147 691.2791995687031" stroke="#000000" stroke-width="2.797385614085334" fill="none" stroke-linecap="round" opacity="0.6"/><path d="M900.593727096122 676.0857507181554 Q900.9390028954067 662.6727088943005 890.5708589642157 689.2596670704455" stroke="#000000" stroke-width="2.3329688181013264" fill="none" stroke-linecap="round" opacity="0.6"/><path d="M900.593727096122 676.0857507181554 Q876.2751899503949 660.2052414276552 843.5656564210735 684.324732137155" stroke="#000000" stroke-width="3.400927528133832" fill="none" stroke-linecap="round" opacity="0.6"/><path d="M900.593727096122 676.0857507181554 Q884.7232548748212 650.9180793256282 829.0551923158737 665.7504079331012" stroke="#000000" stroke-width="2.619213543976474" fill="none" stroke-linecap="round" opacity="0.6"/><path d="M900.593727096122 676.0857507181554 Q902.0863439569171 647.9240324717023 888.1746675656957 659.7623142252492" stroke="#000000" stroke-width="3.2528429299716004" fill="none" stroke-linecap="round" opacity="0.6"/><rect x="0" y="1000" width="1920" height="80" fill="#070000" opacity="0.8"/><line x1="0" y1="1040" x2="1920" y2="1040" stroke="#c0392b" stroke-opacity="0.15" stroke-width="2" stroke-dasharray="30,20"/><rect x="0" y="930" width="1920" height="150" fill="url(#glow95)"/><text x="1900" y="1060" font-family="Arial, sans-serif" font-size="11" fill="#fff" opacity="0.08" text-anchor="end" letter-spacing="2">GTA 6 REWARDS · WALLPAPER 096</text>
</svg>