<?xml version="1.0" encoding="UTF-8"?>
<svg xmlns="http://www.w3.org/2000/svg" width="1920" height="1080" viewBox="0 0 1920 1080">
<defs>
    <linearGradient id="bg59" x1="0%" y1="0%" x2="0%" y2="100%">
      <stop offset="0%" stop-color="#00bbf9"/>
      <stop offset="50%" stop-color="#0088c6"/>
      <stop offset="100%" stop-color="#00bbf9"/>
    </linearGradient>
    <linearGradient id="sun59" x1="0%" y1="0%" x2="100%" y2="100%">
      <stop offset="0%" stop-color="#f15bb5"/>
      <stop offset="100%" stop-color="#fee440"/>
    </linearGradient>
    <radialGradient id="glow59" cx="50%" cy="70%" r="50%">
      <stop offset="0%" stop-color="#f15bb5" stop-opacity="0.3"/>
      <stop offset="100%" stop-color="#00bbf9" stop-opacity="0"/>
    </radialGradient>
  </defs><rect width="1920" height="1080" fill="url(#bg59)"/><circle cx="1036.5501790159733" cy="306.96024329097946" r="647.3997193731833" fill="#f15bb5" opacity="0.06354812123196854"/><circle cx="1236.5501790159733" cy="206.96024329097946" r="527.4164316075427" fill="#fee440" opacity="0.07155986741687169"/><circle cx="1460.3526273650007" cy="157.55437463697845" r="73.10320021889713" fill="url(#sun59)" opacity="0.6575435647409278"/><circle cx="1460.3526273650007" cy="157.55437463697845" r="68.10320021889713" fill="#00bbf9" opacity="0.3"/><pattern id="scan59" width="1920" height="4" patternUnits="userSpaceOnUse">
      <line x1="0" y1="0" x2="1920" y2="0" stroke="#000" stroke-opacity="0.05" stroke-width="1"/>
    </pattern>
    <rect width="1920" height="1080" fill="url(#scan59)"/><circle cx="1119.8818993195616" cy="224.581014864282" r="0.7637415080712506" fill="#fff" opacity="0.49780209741969644"/><circle cx="1094.0533136888532" cy="298.4246755043102" r="1.151016454363944" fill="#fff" opacity="0.52324628539459"/><circle cx="626.7646172611892" cy="26.936206950558397" r="0.9453908701998626" fill="#fff" opacity="0.4574261332995785"/><circle cx="1340.7496541879955" cy="199.11941950933993" r="1.2545945264293334" fill="#fff" opacity="0.7592064375894159"/><circle cx="1030.4860717967354" cy="337.6025923606014" r="1.4922365590446247" fill="#fff" opacity="0.6545009792909261"/><circle cx="937.5498893059673" cy="73.68483229206988" r="0.625996207614894" fill="#fff" opacity="0.3975058289238964"/><circle cx="246.40566146150366" cy="412.41108180498964" r="1.534811753438509" fill="#fff" opacity="0.5196591504662436"/><circle cx="484.92621537412657" cy="158.48345705086447" r="1.8055305599247875" fill="#fff" opacity="0.6567540217323122"/><circle cx="1572.433072694678" cy="5.543984816769134" r="1.3675395680748716" fill="#fff" opacity="0.33951971143007276"/><circle cx="1388.5428762688634" cy="77.10297790474793" r="1.1764817599152404" fill="#fff" opacity="0.536504651870696"/><circle cx="1452.8308603569938" cy="361.1157752296691" r="0.6435405884737941" fill="#fff" opacity="0.2721367234532108"/><circle cx="1167.2281867003132" cy="143.81044389675614" r="1.5779963869317426" fill="#fff" opacity="0.6794788877199122"/><circle cx="665.1925426780228" cy="381.4300200076378" r="1.3970061633496096" fill="#fff" opacity="0.29962034553746236"/><circle cx="599.4834107066233" cy="8.805830130541192" r="1.0785989975739734" fill="#fff" opacity="0.3213198526113573"/><circle cx="615.1133386732809" cy="250.36666076499193" r="1.4270238890142701" fill="#fff" opacity="0.4080373513531027"/><circle cx="1498.7025456639713" cy="301.6527456039686" r="0.8150827653741191" fill="#fff" opacity="0.2793103558661673"/><circle cx="1870.6889681403266" cy="164.3590933578925" r="0.9384805592565054" fill="#fff" opacity="0.3535340462237443"/><circle cx="949.6181025331882" cy="36.82704628371332" r="0.8128018033022065" fill="#fff" opacity="0.4860995240709976"/><circle cx="1188.5140003050942" cy="169.5675870351418" r="1.244199686158495" fill="#fff" opacity="0.3144998691777"/><circle cx="152.62199524618265" cy="1.4299637790373443" r="0.8692166747919323" fill="#fff" opacity="0.5988394808021467"/><circle cx="1501.5254021206697" cy="278.1431755698619" r="0.6438356960760047" fill="#fff" opacity="0.4612584618062848"/><circle cx="1297.3718819062626" cy="362.73909311991633" r="1.3895433585600796" fill="#fff" opacity="0.7101980314380949"/><circle cx="541.616574651938" cy="197.73000721021788" r="0.5753414522799061" fill="#fff" opacity="0.7823946014005678"/><circle cx="1521.4288963939596" cy="346.19299929826354" r="0.6377440606331788" fill="#fff" opacity="0.553830392741093"/><circle cx="62.21970500010524" cy="320.81485842932364" r="1.2698271989984966" fill="#fff" opacity="0.3780995127693982"/><circle cx="912.8452109435678" cy="199.42123430767592" r="1.4675589079194606" fill="#fff" opacity="0.569406038469031"/><circle cx="982.4676997266868" cy="103.86330801804161" r="1.8762163605718447" fill="#fff" opacity="0.29245510522566154"/><circle cx="217.755133560336" cy="378.94022804008335" r="1.9680746670272375" fill="#fff" opacity="0.5304874023260753"/><circle cx="1015.4453572014918" cy="250.50772708899055" r="1.3890688076822713" fill="#fff" opacity="0.5288927657829814"/><circle cx="1061.1703627792117" cy="33.71876380632603" r="0.556009316597136" fill="#fff" opacity="0.5223154617758271"/><circle cx="40.01968861558002" cy="318.2821967486018" r="1.2922335628634862" fill="#fff" opacity="0.3316080580306258"/><circle cx="155.7253481810273" cy="33.23486620961569" r="0.8038507357248689" fill="#fff" opacity="0.7312411551669336"/><circle cx="730.2580647380692" cy="296.30197378068743" r="0.8666286836067747" fill="#fff" opacity="0.7273841923864988"/><circle cx="276.15704527966614" cy="2.118578129009944" r="1.833791138682" fill="#fff" opacity="0.38117827157983053"/><circle cx="1044.596409891871" cy="334.6020049337768" r="1.8398338073957323" fill="#fff" opacity="0.634534193629989"/><circle cx="1238.3188035987127" cy="256.4514508360185" r="1.715479300640402" fill="#fff" opacity="0.7780264168460915"/><circle cx="927.4180539621548" cy="21.314320926860514" r="1.5876681661670253" fill="#fff" opacity="0.7528106170130917"/><circle cx="1471.3499261884367" cy="279.0169043855315" r="1.4459698208249105" fill="#fff" opacity="0.27506903421018947"/><circle cx="178.33354983905645" cy="382.0904063875997" r="0.6702393714036419" fill="#fff" opacity="0.5709626252229704"/><circle cx="272.3711904027432" cy="133.69826780392282" r="0.6782029079455423" fill="#fff" opacity="0.7021526844478567"/><circle cx="111.22905718889764" cy="60.71271616888994" r="1.8455685064768346" fill="#fff" opacity="0.4927732434339759"/><circle cx="1335.0811442861057" cy="383.7266037090976" r="0.9989767990771161" fill="#fff" opacity="0.40713210539127054"/><circle cx="1427.2523478016378" cy="382.30002061983106" r="1.2780341215613378" fill="#fff" opacity="0.7268659739584815"/><circle cx="856.9107531516139" cy="196.65525705475716" r="1.8988745384614156" fill="#fff" opacity="0.47164120000592463"/><circle cx="453.75300373270943" cy="151.78096343013016" r="1.9147507442195786" fill="#fff" opacity="0.5834827738775599"/><circle cx="613.3158057865957" cy="8.91652224793018" r="1.696324507867993" fill="#fff" opacity="0.24655491035584243"/><circle cx="1031.7493166941565" cy="258.2890513097609" r="1.7967631206374528" fill="#fff" opacity="0.7153112990118822"/><circle cx="227.16476758643165" cy="374.5996259540784" r="1.0353138853179555" fill="#fff" opacity="0.268845482140045"/><rect x="13.097492720255975" y="685.3597701958754" width="32.59452739325225" height="173.27817752335176" fill="#00bbf9" opacity="0.6120488857179994" rx="2"/><rect x="23.478708813078402" y="695.3597701958754" width="11.832095207607395" height="8.616310131413934" fill="#fee440" opacity="0.2636516232191705" rx="1"/><rect x="15.33007696476534" y="699.6679252615824" width="11.832095207607395" height="8.616310131413934" fill="#f15bb5" opacity="0.13182581160958526" rx="1"/><rect x="24.763078377061312" y="724.2394664497674" width="9.263356079641579" height="7.351381689624716" fill="#fee440" opacity="0.45517464539855124" rx="1"/><rect x="16.614446528748246" y="727.9151572945798" width="9.263356079641579" height="7.351381689624716" fill="#f15bb5" opacity="0.22758732269927562" rx="1"/><rect x="26.7625706381543" y="753.1191627036593" width="5.264371557455597" height="8.034414478120025" fill="#fee440" opacity="0.131383060508264" rx="1"/><rect x="18.61393878984124" y="757.1363699427193" width="5.264371557455597" height="8.034414478120025" fill="#f15bb5" opacity="0.065691530254132" rx="1"/><rect x="25.13177249630256" y="781.9988589575513" width="8.52596784115908" height="9.356275803259638" fill="#fee440" opacity="0.4816741489296952" rx="1"/><rect x="16.983140647989497" y="786.6769968591811" width="8.52596784115908" height="9.356275803259638" fill="#f15bb5" opacity="0.2408370744648476" rx="1"/><rect x="26.64227046064154" y="810.8785552114432" width="5.504971912481117" height="7.320362188229422" fill="#fee440" opacity="0.32447678952582104" rx="1"/><rect x="18.49363861232848" y="814.5387363055579" width="5.504971912481117" height="7.320362188229422" fill="#f15bb5" opacity="0.16223839476291052" rx="1"/><rect x="25.930757420819894" y="839.7582514653352" width="6.927997992124408" height="6.238261461313409" fill="#fee440" opacity="0.5509830514320598" rx="1"/><rect x="17.782125572506832" y="842.8773821959919" width="6.927997992124408" height="6.238261461313409" fill="#f15bb5" opacity="0.2754915257160299" rx="1"/><rect x="107.4089499580229" y="731.2389415761547" width="43.492143413399376" height="127.39900614307238" fill="#00bbf9" opacity="0.5605079888739875" rx="2"/><rect x="127.10456038268855" y="741.2389415761547" width="4.100922564068092" height="7.849598962312936" fill="#fee440" opacity="0.3257652372880292" rx="1"/><rect x="116.2315245293387" y="745.1637410573112" width="4.100922564068092" height="7.849598962312936" fill="#f15bb5" opacity="0.1628826186440146" rx="1"/><rect x="126.37759625245296" y="757.1638173440388" width="5.554850824539282" height="6.632333156799975" fill="#fee440" opacity="0.2480294628180632" rx="1"/><rect x="115.50456039910311" y="760.4799839224388" width="5.554850824539282" height="6.632333156799975" fill="#f15bb5" opacity="0.1240147314090316" rx="1"/><rect x="126.32291797719033" y="773.0886931119228" width="5.6642073750645405" height="9.869514435499328" fill="#fee440" opacity="0.18858676769039284" rx="1"/><rect x="115.44988212384048" y="778.0234503296724" width="5.6642073750645405" height="9.869514435499328" fill="#f15bb5" opacity="0.09429338384519642" rx="1"/><rect x="126.77119326865561" y="789.0135688798068" width="4.767656792133967" height="6.278582452861262" fill="#fee440" opacity="0.4569759361811392" rx="1"/><rect x="115.89815741530576" y="792.1528601062374" width="4.767656792133967" height="6.278582452861262" fill="#f15bb5" opacity="0.2284879680905696" rx="1"/><rect x="125.65024344405398" y="804.938444647691" width="7.009556441337232" height="6.41302459324082" fill="#fee440" opacity="0.34186307383744585" rx="1"/><rect x="114.77720759070414" y="808.1449569443114" width="7.009556441337232" height="6.41302459324082" fill="#f15bb5" opacity="0.17093153691872293" rx="1"/><rect x="125.30370400247716" y="820.863320415575" width="7.7026353244908705" height="6.885375798886031" fill="#fee440" opacity="0.5482361770812972" rx="1"/><rect x="114.43066814912731" y="824.3060083150181" width="7.7026353244908705" height="6.885375798886031" fill="#f15bb5" opacity="0.2741180885406486" rx="1"/><rect x="124.89372649181023" y="836.788196183459" width="8.52259034582474" height="6.86561022625901" fill="#fee440" opacity="0.40438329088603686" rx="1"/><rect x="114.02069063846038" y="840.2210012965885" width="8.52259034582474" height="6.86561022625901" fill="#f15bb5" opacity="0.20219164544301843" rx="1"/><rect x="126.45335898163108" y="852.7130719513431" width="5.403325366183027" height="6.32601822640887" fill="#fee440" opacity="0.3820691487942983" rx="1"/><rect x="115.58032312828124" y="855.8760810645475" width="5.403325366183027" height="6.32601822640887" fill="#f15bb5" opacity="0.19103457439714916" rx="1"/><rect x="219.82339273435608" y="665.0940124562695" width="83.11908066112527" height="193.54393526295758" fill="#00bbf9" opacity="0.4080617656717221" rx="2"/><rect x="256.9198278793878" y="675.0940124562695" width="8.926210371061742" height="7.653113705490975" fill="#fee440" opacity="0.3740620636087987" rx="1"/><rect x="236.14005771410652" y="678.920569309015" width="8.926210371061742" height="7.653113705490975" fill="#f15bb5" opacity="0.18703103180439934" rx="1"/><rect x="255.79398364638766" y="723.479996272009" width="11.177898837062042" height="7.761829979196617" fill="#fee440" opacity="0.5058831273358975" rx="1"/><rect x="235.01421348110637" y="727.3609112616073" width="11.177898837062042" height="7.761829979196617" fill="#f15bb5" opacity="0.25294156366794873" rx="1"/><rect x="258.83047128325103" y="771.8659800877483" width="5.104923563335306" height="6.328347597347653" fill="#fee440" opacity="0.38267396061743475" rx="1"/><rect x="238.05070111796974" y="775.0301538864221" width="5.104923563335306" height="6.328347597347653" fill="#f15bb5" opacity="0.19133698030871737" rx="1"/><rect x="257.4127889919124" y="820.2519639034876" width="7.94028814601253" height="9.713663653403907" fill="#fee440" opacity="0.4815338931469093" rx="1"/><rect x="236.63301882663114" y="825.1087957301896" width="7.94028814601253" height="9.713663653403907" fill="#f15bb5" opacity="0.24076694657345465" rx="1"/><rect x="313.38000976093576" y="681.9335891124638" width="70.99014367465631" height="176.70435860676326" fill="#00a1df" opacity="0.4423030946967898" rx="2"/><rect x="345.097144246124" y="691.9335891124638" width="7.5558747042799075" height="6.692957793523781" fill="#fee440" opacity="0.2190299098657048" rx="1"/><rect x="327.3496083274599" y="695.2800680092257" width="7.5558747042799075" height="6.692957793523781" fill="#f15bb5" opacity="0.1095149549328524" rx="1"/><rect x="344.00832565664507" y="727.2744608338164" width="9.733511883237751" height="6.519922750191745" fill="#fee440" opacity="0.14341712525193978" rx="1"/><rect x="326.260789737981" y="730.5344222089122" width="9.733511883237751" height="6.519922750191745" fill="#f15bb5" opacity="0.07170856262596989" rx="1"/><rect x="346.149870205007" y="762.6153325551691" width="5.450422786513908" height="6.205591758760995" fill="#fee440" opacity="0.18331055184437672" rx="1"/><rect x="328.4023342863429" y="765.7181284345496" width="5.450422786513908" height="6.205591758760995" fill="#f15bb5" opacity="0.09165527592218836" rx="1"/><rect x="345.91970931294367" y="797.9562042765217" width="5.910744570640555" height="6.77861076797792" fill="#fee440" opacity="0.1316524537121068" rx="1"/><rect x="328.1721733942796" y="801.3455096605106" width="5.910744570640555" height="6.77861076797792" fill="#f15bb5" opacity="0.0658262268560534" rx="1"/><rect x="344.1755126833859" y="833.2970759978743" width="9.399137829756164" height="6.052170951862859" fill="#fee440" opacity="0.5892424492838891" rx="1"/><rect x="326.4279767647218" y="836.3231614738057" width="9.399137829756164" height="6.052170951862859" fill="#f15bb5" opacity="0.29462122464194457" rx="1"/><rect x="395.8690298571878" y="687.6508388872378" width="30.32627065207955" height="170.98710883198936" fill="#00bbf9" opacity="0.6793164153535189" rx="2"/><rect x="407.4737702739597" y="697.6508388872378" width="7.116789818535743" height="8.843863315611115" fill="#fee440" opacity="0.3692649514109979" rx="1"/><rect x="399.8922026109398" y="702.0727705450433" width="7.116789818535743" height="8.843863315611115" fill="#f15bb5" opacity="0.18463247570549896" rx="1"/><rect x="407.36087777939645" y="719.0242274912365" width="7.342574807662185" height="7.361829723548571" fill="#fee440" opacity="0.36578041661199656" rx="1"/><rect x="399.77931011637656" y="722.7051423530108" width="7.342574807662185" height="7.361829723548571" fill="#f15bb5" opacity="0.18289020830599828" rx="1"/><rect x="406.8841963326289" y="740.3976160952351" width="8.295937701197326" height="7.261621408458245" fill="#fee440" opacity="0.27951705462288046" rx="1"/><rect x="399.302628669609" y="744.0284267994642" width="8.295937701197326" height="7.261621408458245" fill="#f15bb5" opacity="0.13975852731144023" rx="1"/><rect x="407.4370189775799" y="761.7710046992338" width="7.1902924112952995" height="6.843721204633759" fill="#fee440" opacity="0.46109513273953817" rx="1"/><rect x="399.85545131456" y="765.1928653015507" width="7.1902924112952995" height="6.843721204633759" fill="#f15bb5" opacity="0.23054756636976909" rx="1"/><rect x="406.67742128569574" y="783.1443933032325" width="8.709487795063641" height="8.487221108397287" fill="#fee440" opacity="0.1065417779857623" rx="1"/><rect x="399.09585362267586" y="787.3880038574312" width="8.709487795063641" height="8.487221108397287" fill="#f15bb5" opacity="0.05327088899288115" rx="1"/><rect x="408.69254793172996" y="804.5177819072312" width="4.679234502995208" height="8.935206350622513" fill="#fee440" opacity="0.4799172079609514" rx="1"/><rect x="401.1109802687101" y="808.9853850825425" width="4.679234502995208" height="8.935206350622513" fill="#f15bb5" opacity="0.2399586039804757" rx="1"/><rect x="406.44324848694805" y="825.8911705112298" width="9.177833392559046" height="9.527864435577733" fill="#fee440" opacity="0.31254561485549104" rx="1"/><rect x="398.86168082392817" y="830.6551027290187" width="9.177833392559046" height="9.527864435577733" fill="#f15bb5" opacity="0.15627280742774552" rx="1"/><rect x="406.09981351883613" y="847.2645591152285" width="9.864703328782856" height="7.760630863197295" fill="#fee440" opacity="0.28248449200356485" rx="1"/><rect x="398.51824585581625" y="851.1448745468272" width="9.864703328782856" height="7.760630863197295" fill="#f15bb5" opacity="0.14124224600178242" rx="1"/><rect x="483.4172484193503" y="481.57861202060684" width="69.98850875999511" height="377.05933569862026" fill="#00bbf9" opacity="0.6150985034450652" rx="2"/><rect x="514.7186601626963" y="491.57861202060684" width="7.385685273303111" height="8.001382958609932" fill="#fee440" opacity="0.31830171759200787" rx="1"/><rect x="497.2215329726975" y="495.5793034999118" width="7.385685273303111" height="8.001382958609932" fill="#f15bb5" opacity="0.15915085879600394" rx="1"/><rect x="512.7799015980632" y="538.7110289829344" width="11.263202402569167" height="8.622806291706581" fill="#fee440" opacity="0.5708437034792369" rx="1"/><rect x="495.2827744080645" y="543.0224321287877" width="11.263202402569167" height="8.622806291706581" fill="#f15bb5" opacity="0.2854218517396184" rx="1"/><rect x="515.6474029898288" y="585.8434459452619" width="5.528199619038077" height="7.3546662175456685" fill="#fee440" opacity="0.3773807326511901" rx="1"/><rect x="498.15027579983" y="589.5207790540347" width="5.528199619038077" height="7.3546662175456685" fill="#f15bb5" opacity="0.18869036632559505" rx="1"/><rect x="513.5733901529046" y="632.9758629075894" width="9.67622529288666" height="9.74703587772023" fill="#fee440" opacity="0.37474588010803467" rx="1"/><rect x="496.07626296290573" y="637.8493808464495" width="9.67622529288666" height="9.74703587772023" fill="#f15bb5" opacity="0.18737294005401733" rx="1"/><rect x="514.8364593684292" y="680.1082798699169" width="7.1500868618372095" height="8.188895518469833" fill="#fee440" opacity="0.5042104012109829" rx="1"/><rect x="497.3393321784305" y="684.2027276291518" width="7.1500868618372095" height="8.188895518469833" fill="#f15bb5" opacity="0.25210520060549146" rx="1"/><rect x="512.5861880950598" y="727.2406968322446" width="11.650629408576208" height="7.725455477304164" fill="#fee440" opacity="0.3010466601236367" rx="1"/><rect x="495.08906090506093" y="731.1034245708967" width="11.650629408576208" height="7.725455477304164" fill="#f15bb5" opacity="0.15052333006181834" rx="1"/><rect x="512.8293763682781" y="774.373113794572" width="11.164252862139664" height="7.30808385864554" fill="#fee440" opacity="0.1989472720769577" rx="1"/><rect x="495.33224917827926" y="778.0271557238947" width="11.164252862139664" height="7.30808385864554" fill="#f15bb5" opacity="0.09947363603847885" rx="1"/><rect x="514.0592730955825" y="821.5055307568996" width="8.704459407530832" height="6.962500852756785" fill="#fee440" opacity="0.41229363843153544" rx="1"/><rect x="496.56214590558363" y="824.986781183278" width="8.704459407530832" height="6.962500852756785" fill="#f15bb5" opacity="0.20614681921576772" rx="1"/><rect x="580.1901956228983" y="636.7369470970559" width="33.62120940434309" height="221.9010006221712" fill="#00bbf9" opacity="0.6449702021770576" rx="2"/><rect x="592.8431151723124" y="646.7369470970559" width="8.315370305514747" height="7.299702673521755" fill="#fee440" opacity="0.5614346627987536" rx="1"/><rect x="584.4378128212267" y="650.3867984338168" width="8.315370305514747" height="7.299702673521755" fill="#f15bb5" opacity="0.2807173313993768" rx="1"/><rect x="593.5206248118824" y="720.7039473044463" width="6.960351026374928" height="6.4343751995904315" fill="#fee440" opacity="0.11017475314675243" rx="1"/><rect x="585.1153224607966" y="723.9211349042415" width="6.960351026374928" height="6.4343751995904315" fill="#f15bb5" opacity="0.055087376573376215" rx="1"/><rect x="594.7811947692608" y="794.6709475118367" width="4.439211111618023" height="7.431397097518527" fill="#fee440" opacity="0.5859371808091963" rx="1"/><rect x="586.375892418175" y="798.386646060596" width="4.439211111618023" height="7.431397097518527" fill="#f15bb5" opacity="0.29296859040459816" rx="1"/><rect x="700.4406318861154" y="568.3166458663337" width="45.14206799565397" height="290.3213018528934" fill="#00a1df" opacity="0.4711390985807262" rx="2"/><rect x="718.3316556539692" y="578.3166458663337" width="9.360020459946249" height="9.226746117516129" fill="#fee440" opacity="0.20600160763273054" rx="1"/><rect x="707.0461386550558" y="582.9300189250918" width="9.360020459946249" height="9.226746117516129" fill="#f15bb5" opacity="0.10300080381636527" rx="1"/><rect x="717.0661651618001" y="614.6068085979454" width="11.891001444284573" height="9.758613226879065" fill="#fee440" opacity="0.468138808959196" rx="1"/><rect x="705.7806481628867" y="619.4861152113849" width="11.891001444284573" height="9.758613226879065" fill="#f15bb5" opacity="0.234069404479598" rx="1"/><rect x="718.2053475247708" y="650.8969713295571" width="9.612636718343161" height="6.646570983493368" fill="#fee440" opacity="0.46579831965868324" rx="1"/><rect x="706.9198305258574" y="654.2202568213038" width="9.612636718343161" height="6.646570983493368" fill="#f15bb5" opacity="0.23289915982934162" rx="1"/><rect x="717.8635748715287" y="687.1871340611688" width="10.296182024827269" height="8.366604712411437" fill="#fee440" opacity="0.5020226698839159" rx="1"/><rect x="706.5780578726153" y="691.3704364173744" width="10.296182024827269" height="8.366604712411437" fill="#f15bb5" opacity="0.25101133494195793" rx="1"/><rect x="717.5802456919522" y="723.4772967927804" width="10.862840383980153" height="8.840399499712605" fill="#fee440" opacity="0.11267611782827325" rx="1"/><rect x="706.2947286930388" y="727.8974965426368" width="10.862840383980153" height="8.840399499712605" fill="#f15bb5" opacity="0.056338058914136624" rx="1"/><rect x="717.1353647685924" y="759.767459524392" width="11.752602230699873" height="8.427968633926467" fill="#fee440" opacity="0.42792505350148424" rx="1"/><rect x="705.849847769679" y="763.9814438413553" width="11.752602230699873" height="8.427968633926467" fill="#f15bb5" opacity="0.21396252675074212" rx="1"/><rect x="718.2951532377151" y="796.0576222560037" width="9.433025292454527" height="7.479760637851376" fill="#fee440" opacity="0.2069577646225127" rx="1"/><rect x="707.0096362388017" y="799.7975025749294" width="9.433025292454527" height="7.479760637851376" fill="#f15bb5" opacity="0.10347888231125635" rx="1"/><rect x="717.098134552617" y="832.3477849876155" width="11.827062662650613" height="8.81867112284961" fill="#fee440" opacity="0.561449178043159" rx="1"/><rect x="705.8126175537036" y="836.7571205490402" width="11.827062662650613" height="8.81867112284961" fill="#f15bb5" opacity="0.2807245890215795" rx="1"/><rect x="774.2264020010425" y="703.3833346104677" width="87.71354192814638" height="155.25461310875943" fill="#00a1df" opacity="0.6777468920400709" rx="2"/><rect x="814.4105730912208" y="713.3833346104677" width="7.3451997477899305" height="8.066836623956178" fill="#fee440" opacity="0.4161218983158753" rx="1"/><rect x="792.4821876091842" y="717.4167529224458" width="7.3451997477899305" height="8.066836623956178" fill="#f15bb5" opacity="0.20806094915793766" rx="1"/><rect x="814.7260291482617" y="752.1969878876575" width="6.714287633708279" height="9.839943700432764" fill="#fee440" opacity="0.24638229672479964" rx="1"/><rect x="792.797643666225" y="757.1169597378739" width="6.714287633708279" height="9.839943700432764" fill="#f15bb5" opacity="0.12319114836239982" rx="1"/><rect x="812.2503378263792" y="791.0106411648475" width="11.665670277472973" height="6.307805535455189" fill="#fee440" opacity="0.25513796921706244" rx="1"/><rect x="790.3219523443425" y="794.164543932575" width="11.665670277472973" height="6.307805535455189" fill="#f15bb5" opacity="0.12756898460853122" rx="1"/><rect x="812.6865032701024" y="829.8242944420373" width="10.793339390026716" height="9.569653735395907" fill="#fee440" opacity="0.2070545446376909" rx="1"/><rect x="790.7581177880658" y="834.6091213097352" width="10.793339390026716" height="9.569653735395907" fill="#f15bb5" opacity="0.10352727231884545" rx="1"/><rect x="869.4868111259972" y="572.498992521432" width="47.2485634491892" height="286.1389551977951" fill="#00bbf9" opacity="0.6422963579516616" rx="2"/><rect x="891.0977166919266" y="582.498992521432" width="4.0267523173305095" height="7.238622097586892" fill="#fee440" opacity="0.41272048999385924" rx="1"/><rect x="879.2855758296292" y="586.1183035702254" width="4.0267523173305095" height="7.238622097586892" fill="#f15bb5" opacity="0.20636024499692962" rx="1"/><rect x="889.3158914424283" y="623.375986121117" width="7.590402816326916" height="8.842930883831096" fill="#fee440" opacity="0.138624208080262" rx="1"/><rect x="877.5037505801309" y="627.7974515630325" width="7.590402816326916" height="8.842930883831096" fill="#f15bb5" opacity="0.069312104040131" rx="1"/><rect x="890.2111932735917" y="664.252979720802" width="5.7997991540003095" height="6.195029091135373" fill="#fee440" opacity="0.5397420919127162" rx="1"/><rect x="878.3990524112943" y="667.3504942663698" width="5.7997991540003095" height="6.195029091135373" fill="#f15bb5" opacity="0.2698710459563581" rx="1"/><rect x="890.4554255370646" y="705.129973320487" width="5.311334627054476" height="8.936532258739819" fill="#fee440" opacity="0.38071341134624404" rx="1"/><rect x="878.6432846747672" y="709.5982394498569" width="5.311334627054476" height="8.936532258739819" fill="#f15bb5" opacity="0.19035670567312202" rx="1"/><rect x="890.5379220600096" y="746.0069669201721" width="5.146341581164473" height="8.836692353439679" fill="#fee440" opacity="0.2149953074322537" rx="1"/><rect x="878.7257811977122" y="750.425313096892" width="5.146341581164473" height="8.836692353439679" fill="#f15bb5" opacity="0.10749765371612685" rx="1"/><rect x="889.6600863101567" y="786.883960519857" width="6.902013080870271" height="7.683837740142792" fill="#fee440" opacity="0.43045718943012345" rx="1"/><rect x="877.8479454478593" y="790.7258793899284" width="6.902013080870271" height="7.683837740142792" fill="#f15bb5" opacity="0.21522859471506173" rx="1"/><rect x="888.5832935817501" y="827.760954119542" width="9.055598537683395" height="9.244953631247615" fill="#fee440" opacity="0.23065946745468757" rx="1"/><rect x="876.7711527194527" y="832.3834309351658" width="9.055598537683395" height="9.244953631247615" fill="#f15bb5" opacity="0.11532973372734379" rx="1"/><rect x="969.3488937056039" y="659.2131549164684" width="80.45186863058524" height="199.4247928027587" fill="#00bbf9" opacity="0.48981000261609675" rx="2"/><rect x="1004.2384133225397" y="669.2131549164684" width="10.672829396713718" height="8.468738148563713" fill="#fee440" opacity="0.33587134171646815" rx="1"/><rect x="984.1254461648933" y="673.4475239907503" width="10.672829396713718" height="8.468738148563713" fill="#f15bb5" opacity="0.16793567085823408" rx="1"/><rect x="1007.5206142846777" y="697.7024110311482" width="4.108427472437832" height="7.140385381211616" fill="#fee440" opacity="0.5757202282724251" rx="1"/><rect x="987.4076471270313" y="701.2726037217541" width="4.108427472437832" height="7.140385381211616" fill="#f15bb5" opacity="0.28786011413621254" rx="1"/><rect x="1005.9586231831831" y="726.191667145828" width="7.232409675426877" height="7.99102842854127" fill="#fee440" opacity="0.21003161655041194" rx="1"/><rect x="985.8456560255368" y="730.1871813600986" width="7.232409675426877" height="7.99102842854127" fill="#f15bb5" opacity="0.10501580827520597" rx="1"/><rect x="1006.6973372487579" y="754.6809232605078" width="5.754981544277394" height="8.522676021448028" fill="#fee440" opacity="0.38730070213491574" rx="1"/><rect x="986.5843700911115" y="758.9422612712318" width="5.754981544277394" height="8.522676021448028" fill="#f15bb5" opacity="0.19365035106745787" rx="1"/><rect x="1005.8137116918373" y="783.1701793751877" width="7.522232658118529" height="9.150598709273757" fill="#fee440" opacity="0.3677941227489603" rx="1"/><rect x="985.7007445341909" y="787.7454787298245" width="7.522232658118529" height="9.150598709273757" fill="#f15bb5" opacity="0.18389706137448014" rx="1"/><rect x="1006.1207747974249" y="811.6594354898675" width="6.90810644694327" height="9.915464057567405" fill="#fee440" opacity="0.3509959848250719" rx="1"/><rect x="986.0078076397785" y="816.6171675186512" width="6.90810644694327" height="9.915464057567405" fill="#f15bb5" opacity="0.17549799241253594" rx="1"/><rect x="1005.2236566590667" y="840.1486916045473" width="8.702342723659786" height="7.218235612199231" fill="#fee440" opacity="0.44656508891996116" rx="1"/><rect x="985.1106895014203" y="843.7578094106468" width="8.702342723659786" height="7.218235612199231" fill="#f15bb5" opacity="0.22328254445998058" rx="1"/><rect x="1082.0573507067882" y="610.4365207512017" width="34.42478658268805" height="248.20142696802537" fill="#00bbf9" opacity="0.666274699840293" rx="2"/><rect x="1095.746770915749" y="620.4365207512017" width="7.045946164765848" height="8.771297075499618" fill="#fee440" opacity="0.2952903235087382" rx="1"/><rect x="1087.1405742700772" y="624.8221692889515" width="7.045946164765848" height="8.771297075499618" fill="#f15bb5" opacity="0.1476451617543691" rx="1"/><rect x="1094.4099468270806" y="661.8034252458725" width="9.719594342103132" height="7.6374723449436654" fill="#fee440" opacity="0.42908761520615957" rx="1"/><rect x="1085.8037501814088" y="665.6221614183444" width="9.719594342103132" height="7.6374723449436654" fill="#f15bb5" opacity="0.21454380760307978" rx="1"/><rect x="1095.1707974188428" y="703.1703297405435" width="8.197893158578754" height="8.299558409093777" fill="#fee440" opacity="0.49329123121995744" rx="1"/><rect x="1086.564600773171" y="707.3201089450904" width="8.197893158578754" height="8.299558409093777" fill="#f15bb5" opacity="0.24664561560997872" rx="1"/><rect x="1093.6857308723697" y="744.5372342352143" width="11.168026251524694" height="8.709345897359157" fill="#fee440" opacity="0.10380808918359878" rx="1"/><rect x="1085.079534226698" y="748.8919071838939" width="11.168026251524694" height="8.709345897359157" fill="#f15bb5" opacity="0.05190404459179939" rx="1"/><rect x="1096.9801475680385" y="785.9041387298853" width="4.5791928601868435" height="9.653538817459145" fill="#fee440" opacity="0.20922427780675334" rx="1"/><rect x="1088.3739509223667" y="790.7309081386148" width="4.5791928601868435" height="9.653538817459145" fill="#f15bb5" opacity="0.10461213890337667" rx="1"/><rect x="1097.0264597428093" y="827.2710432245561" width="4.486568510645667" height="6.963498283401946" fill="#fee440" opacity="0.1483325233329862" rx="1"/><rect x="1088.4202630971374" y="830.7527923662572" width="4.486568510645667" height="6.963498283401946" fill="#f15bb5" opacity="0.0741662616664931" rx="1"/><rect x="1163.0381768413442" y="673.0896755058993" width="45.479876630818445" height="185.54827221332778" fill="#00bbf9" opacity="0.6110316245609503" rx="2"/><rect x="1183.756482253493" y="683.0896755058993" width="4.043265806521118" height="8.521517918100933" fill="#fee440" opacity="0.18937407659584984" rx="1"/><rect x="1172.3865130957884" y="687.3504344649498" width="4.043265806521118" height="8.521517918100933" fill="#f15bb5" opacity="0.09468703829792492" rx="1"/><rect x="1179.94390637403" y="720.1993299485649" width="11.668417565447376" height="9.739864080152444" fill="#fee440" opacity="0.46837708225203145" rx="1"/><rect x="1168.5739372163252" y="725.0692619886412" width="11.668417565447376" height="9.739864080152444" fill="#f15bb5" opacity="0.23418854112601573" rx="1"/><rect x="1183.7271660069766" y="757.3089843912304" width="4.1018982995538735" height="8.153516038822364" fill="#fee440" opacity="0.2999889807077099" rx="1"/><rect x="1172.357196849272" y="761.3857424106416" width="4.1018982995538735" height="8.153516038822364" fill="#f15bb5" opacity="0.14999449035385495" rx="1"/><rect x="1180.9641226371666" y="794.418638833896" width="9.627985039173623" height="9.381600077120028" fill="#fee440" opacity="0.42134542994232504" rx="1"/><rect x="1169.594153479462" y="799.109438872456" width="9.627985039173623" height="9.381600077120028" fill="#f15bb5" opacity="0.21067271497116252" rx="1"/><rect x="1181.6822045661236" y="831.5282932765615" width="8.191821181260007" height="9.411876234088997" fill="#fee440" opacity="0.4281592003368212" rx="1"/><rect x="1170.312235408419" y="836.234231393606" width="8.191821181260007" height="9.411876234088997" fill="#f15bb5" opacity="0.2140796001684106" rx="1"/><rect x="1255.5044539565" y="696.3676840291284" width="47.635892074936045" height="162.27026369009872" fill="#00bbf9" opacity="0.6938282886738489" rx="2"/><rect x="1274.7303535444037" y="706.3676840291284" width="9.184092899128817" height="7.58676873743226" fill="#fee440" opacity="0.18992129345189812" rx="1"/><rect x="1262.8213805256696" y="710.1610683978446" width="9.184092899128817" height="7.58676873743226" fill="#f15bb5" opacity="0.09496064672594906" rx="1"/><rect x="1275.9743043112046" y="738.8217367671482" width="6.696191365527033" height="9.087202180895769" fill="#fee440" opacity="0.5262493309626005" rx="1"/><rect x="1264.0653312924705" y="743.365337857596" width="6.696191365527033" height="9.087202180895769" fill="#f15bb5" opacity="0.26312466548130026" rx="1"/><rect x="1275.805569722505" y="771.275789505168" width="7.0336605429262065" height="8.805628714804916" fill="#fee440" opacity="0.4996368748833512" rx="1"/><rect x="1263.896596703771" y="775.6786038625704" width="7.0336605429262065" height="8.805628714804916" fill="#f15bb5" opacity="0.2498184374416756" rx="1"/><rect x="1276.6273624649336" y="803.7298422431877" width="5.390075058068632" height="9.80475567556097" fill="#fee440" opacity="0.5955705919991179" rx="1"/><rect x="1264.7183894461996" y="808.6322200809682" width="5.390075058068632" height="9.80475567556097" fill="#f15bb5" opacity="0.29778529599955894" rx="1"/><rect x="1277.2586905803205" y="836.1838949812075" width="4.127418827295168" height="6.424035416083418" fill="#fee440" opacity="0.27273816621693275" rx="1"/><rect x="1265.3497175615864" y="839.3959126892491" width="4.127418827295168" height="6.424035416083418" fill="#f15bb5" opacity="0.13636908310846638" rx="1"/><rect x="1363.2010568196888" y="536.2845044667564" width="42.63935021419063" height="322.3534432524707" fill="#00a1df" opacity="0.6420928550516471" rx="2"/><rect x="1382.0261340986533" y="546.2845044667564" width="4.9891956562616855" height="6.954327192379703" fill="#fee440" opacity="0.198264084686121" rx="1"/><rect x="1371.3662965451058" y="549.7616680629462" width="4.9891956562616855" height="6.954327192379703" fill="#f15bb5" opacity="0.0991320423430605" rx="1"/><rect x="1381.3136001923851" y="592.3349963599665" width="6.414263468797845" height="6.635246770604338" fill="#fee440" opacity="0.2824411683907828" rx="1"/><rect x="1370.6537626388376" y="595.6526197452686" width="6.414263468797845" height="6.635246770604338" fill="#f15bb5" opacity="0.1412205841953914" rx="1"/><rect x="1379.4652950848604" y="638.3854882531766" width="10.110873683847224" height="6.125610283605198" fill="#fee440" opacity="0.5111432564470785" rx="1"/><rect x="1368.8054575313129" y="641.4482933949793" width="10.110873683847224" height="6.125610283605198" fill="#f15bb5" opacity="0.25557162822353924" rx="1"/><rect x="1379.7582607950917" y="684.4359801463867" width="9.524942263384569" height="8.959309535790073" fill="#fee440" opacity="0.4947943320718581" rx="1"/><rect x="1369.0984232415442" y="688.9156349142817" width="9.524942263384569" height="8.959309535790073" fill="#f15bb5" opacity="0.24739716603592904" rx="1"/><rect x="1379.5491493718114" y="730.4864720395968" width="9.943165109945266" height="6.479767379462665" fill="#fee440" opacity="0.13336644394634442" rx="1"/><rect x="1368.8893118182639" y="733.7263557293281" width="9.943165109945266" height="6.479767379462665" fill="#f15bb5" opacity="0.06668322197317221" rx="1"/><rect x="1380.5445015210528" y="776.5369639328069" width="7.952460811462361" height="7.9330861666084" fill="#fee440" opacity="0.18668506776138327" rx="1"/><rect x="1369.8846639675053" y="780.503507016111" width="7.952460811462361" height="7.9330861666084" fill="#f15bb5" opacity="0.09334253388069164" rx="1"/><rect x="1380.695700075872" y="822.587455826017" width="7.650063701823834" height="6.048083253216018" fill="#fee440" opacity="0.1512481279557683" rx="1"/><rect x="1370.0358625223246" y="825.611497452625" width="7.650063701823834" height="6.048083253216018" fill="#f15bb5" opacity="0.07562406397788415" rx="1"/><rect x="1461.6195284066766" y="484.2945598029287" width="43.65798875541845" height="374.3433879162984" fill="#00bbf9" opacity="0.6104624772003067" rx="2"/><rect x="1479.668283402144" y="494.2945598029287" width="7.5604787644838165" height="9.174671273486378" fill="#fee440" opacity="0.5216979888551165" rx="1"/><rect x="1468.7537862132892" y="498.8818954396719" width="7.5604787644838165" height="9.174671273486378" fill="#f15bb5" opacity="0.26084899442755827" rx="1"/><rect x="1481.2137964130877" y="556.6851244556451" width="4.469452742596495" height="8.472151313552668" fill="#fee440" opacity="0.5785319764582748" rx="1"/><rect x="1470.299299224233" y="560.9212001124214" width="4.469452742596495" height="8.472151313552668" fill="#f15bb5" opacity="0.2892659882291374" rx="1"/><rect x="1478.105964189187" y="619.0756891083615" width="10.685117190397605" height="6.1725846184819435" fill="#fee440" opacity="0.43035469260773496" rx="1"/><rect x="1467.1914670003323" y="622.1619814176025" width="10.685117190397605" height="6.1725846184819435" fill="#f15bb5" opacity="0.21517734630386748" rx="1"/><rect x="1478.6606379597588" y="681.466253761078" width="9.575769649254106" height="7.554805254925696" fill="#fee440" opacity="0.5292913271182429" rx="1"/><rect x="1467.746140770904" y="685.2436563885408" width="9.575769649254106" height="7.554805254925696" fill="#f15bb5" opacity="0.26464566355912145" rx="1"/><rect x="1480.6198976751461" y="743.8568184137943" width="5.657250218479254" height="7.747059713524547" fill="#fee440" opacity="0.4977855747560471" rx="1"/><rect x="1469.7054004862914" y="747.7303482705565" width="5.657250218479254" height="7.747059713524547" fill="#f15bb5" opacity="0.24889278737802356" rx="1"/><rect x="1479.5330533228193" y="806.2473830665107" width="7.83093892313329" height="7.224293823638999" fill="#fee440" opacity="0.5945285668351056" rx="1"/><rect x="1468.6185561339646" y="809.8595299783302" width="7.83093892313329" height="7.224293823638999" fill="#f15bb5" opacity="0.2972642834175528" rx="1"/><rect x="1546.3489684197932" y="688.0669685285695" width="80.96361347729425" height="170.57097919065762" fill="#00a1df" opacity="0.48508316054592915" rx="2"/><rect x="1582.342777605481" y="698.0669685285695" width="8.975995105918496" height="7.401790034352287" fill="#fee440" opacity="0.28828835959739246" rx="1"/><rect x="1562.1018742361575" y="701.7678635457456" width="8.975995105918496" height="7.401790034352287" fill="#f15bb5" opacity="0.14414417979869623" rx="1"/><rect x="1583.6142866813143" y="754.923961592122" width="6.432976954251755" height="8.92010395389984" fill="#fee440" opacity="0.42696388017548337" rx="1"/><rect x="1563.373383311991" y="759.384013569072" width="6.432976954251755" height="8.92010395389984" fill="#f15bb5" opacity="0.21348194008774168" rx="1"/><rect x="1582.4494313005007" y="811.7809546556746" width="8.762687715879336" height="6.121758881053365" fill="#fee440" opacity="0.5211359976141564" rx="1"/><rect x="1562.2085279311773" y="814.8418340962013" width="8.762687715879336" height="6.121758881053365" fill="#f15bb5" opacity="0.2605679988070782" rx="1"/><rect x="1647.1688345766554" y="532.1288147084715" width="72.76150988013518" height="326.5091330107556" fill="#00a1df" opacity="0.6005599387224205" rx="2"/><rect x="1679.5911621001064" y="542.1288147084715" width="7.916854833233369" height="8.725087349937551" fill="#fee440" opacity="0.4039852884374525" rx="1"/><rect x="1661.4007846300726" y="546.4913583834402" width="7.916854833233369" height="8.725087349937551" fill="#f15bb5" opacity="0.20199264421872626" rx="1"/><rect x="1677.7490399053202" y="650.9651923787234" width="11.601099222805608" height="8.255612429756582" fill="#fee440" opacity="0.37840163972657215" rx="1"/><rect x="1659.5586624352864" y="655.0929985936017" width="11.601099222805608" height="8.255612429756582" fill="#f15bb5" opacity="0.18920081986328607" rx="1"/><rect x="1680.584958288722" y="759.8015700489752" width="5.929262456002007" height="7.654455342715247" fill="#fee440" opacity="0.2849088001029819" rx="1"/><rect x="1662.3945808186882" y="763.6287977203328" width="5.929262456002007" height="7.654455342715247" fill="#f15bb5" opacity="0.14245440005149096" rx="1"/><rect x="1746.3122524917853" y="577.1106825389692" width="54.14677431903472" height="281.5272651802579" fill="#00a1df" opacity="0.42806697160193397" rx="2"/><rect x="1767.428869155801" y="587.1106825389692" width="11.913540991003053" height="8.337880241297624" fill="#fee440" opacity="0.5116257539511718" rx="1"/><rect x="1753.8921755760425" y="591.279622659618" width="11.913540991003053" height="8.337880241297624" fill="#f15bb5" opacity="0.2558128769755859" rx="1"/><rect x="1770.4611581902627" y="622.3015906865014" width="5.848962922079712" height="9.094435775441685" fill="#fee440" opacity="0.29116471013779865" rx="1"/><rect x="1756.9244646105042" y="626.8488085742223" width="5.848962922079712" height="9.094435775441685" fill="#f15bb5" opacity="0.14558235506889933" rx="1"/><rect x="1771.2270270470128" y="657.4924988340337" width="4.317225208579848" height="6.522583052637657" fill="#fee440" opacity="0.12647356270497515" rx="1"/><rect x="1757.6903334672543" y="660.7537903603525" width="4.317225208579848" height="6.522583052637657" fill="#f15bb5" opacity="0.06323678135248757" rx="1"/><rect x="1769.0079973265547" y="692.6834069815659" width="8.755284649495799" height="8.928080518480408" fill="#fee440" opacity="0.35235575489987525" rx="1"/><rect x="1755.4713037467961" y="697.1474472408061" width="8.755284649495799" height="8.928080518480408" fill="#f15bb5" opacity="0.17617787744993763" rx="1"/><rect x="1767.8753908739602" y="727.8743151290981" width="11.020497554685104" height="8.25631783955179" fill="#fee440" opacity="0.3735727626768809" rx="1"/><rect x="1754.3386972942017" y="732.002474048874" width="11.020497554685104" height="8.25631783955179" fill="#f15bb5" opacity="0.18678638133844044" rx="1"/><rect x="1767.5685221773033" y="763.0652232766304" width="11.634234947998596" height="9.144090705351925" fill="#fee440" opacity="0.42917514031966575" rx="1"/><rect x="1754.0318285975447" y="767.6372686293064" width="11.634234947998596" height="9.144090705351925" fill="#f15bb5" opacity="0.21458757015983287" rx="1"/><rect x="1768.3463420512496" y="798.2561314241626" width="10.078595200106175" height="8.816020115002996" fill="#fee440" opacity="0.3767920620452594" rx="1"/><rect x="1754.809648471491" y="802.6641414816642" width="10.078595200106175" height="8.816020115002996" fill="#f15bb5" opacity="0.1883960310226297" rx="1"/><rect x="1768.9708044370568" y="833.4470395716949" width="8.829670428491585" height="7.91098330307542" fill="#fee440" opacity="0.296423591858806" rx="1"/><rect x="1755.4341108572983" y="837.4025312232326" width="8.829670428491585" height="7.91098330307542" fill="#f15bb5" opacity="0.148211795929403" rx="1"/><rect x="1828.709939201062" y="674.8299385362375" width="30.587571957285416" height="183.8080091829896" fill="#00a1df" opacity="0.6415294195389211" rx="2"/><rect x="1839.642995404695" y="684.8299385362375" width="8.721459550019693" height="8.016887385867744" fill="#fee440" opacity="0.20152293627651477" rx="1"/><rect x="1831.9961024153736" y="688.8383822291713" width="8.721459550019693" height="8.016887385867744" fill="#f15bb5" opacity="0.10076146813825738" rx="1"/><rect x="1839.225433914509" y="730.7819408319849" width="9.556582530391537" height="7.363279173468072" fill="#fee440" opacity="0.38435199446611856" rx="1"/><rect x="1831.5785409251876" y="734.463580418719" width="9.556582530391537" height="7.363279173468072" fill="#f15bb5" opacity="0.19217599723305928" rx="1"/><rect x="1841.9359555973058" y="776.7339431277322" width="4.135539164798227" height="6.2225714037713065" fill="#fee440" opacity="0.5606656357554406" rx="1"/><rect x="1834.2890626079843" y="779.8452288296179" width="4.135539164798227" height="6.2225714037713065" fill="#f15bb5" opacity="0.2803328178777203" rx="1"/><rect x="1841.1229643505353" y="822.6859454234797" width="5.76152165833896" height="7.40205504032831" fill="#fee440" opacity="0.1587079995448487" rx="1"/><rect x="1833.4760713612138" y="826.3869729436439" width="5.76152165833896" height="7.40205504032831" fill="#f15bb5" opacity="0.07935399977242436" rx="1"/><path d="M246.35621046795424 910.04953678 Q258.8753400926654 817.6063056377708 261.37916601760764 725.1630744955417" stroke="#006eac" stroke-width="6.794533141608008" fill="none" stroke-linecap="round"/><path d="M261.37916601760764 725.1630744955417 Q307.00519375782585 705.1630744955417 314.2438530000495 725.1630744955417" stroke="#0088c6" stroke-width="3.2078957090172673" fill="none" stroke-linecap="round" opacity="0.6"/><path d="M261.37916601760764 725.1630744955417 Q282.0588255021438 711.8881549814994 297.13298418856505 738.613235467457" stroke="#0088c6" stroke-width="2.352801514405944" fill="none" stroke-linecap="round" opacity="0.6"/><path d="M261.37916601760764 725.1630744955417 Q267.17417782113284 716.7719411504945 243.7148456238849 748.3808078054475" stroke="#0088c6" stroke-width="3.766370430534326" fill="none" stroke-linecap="round" opacity="0.6"/><path d="M261.37916601760764 725.1630744955417 Q249.0465195473068 709.7036651574638 198.52160826722235 734.2442558193859" stroke="#0088c6" stroke-width="2.7327809512458696" fill="none" stroke-linecap="round" opacity="0.6"/><path d="M261.37916601760764 725.1630744955417 Q241.3348117281986 700.5580209755074 197.6292182395281 715.9529674554731" stroke="#0088c6" stroke-width="2.001200757921022" fill="none" stroke-linecap="round" opacity="0.6"/><path d="M261.37916601760764 725.1630744955417 Q265.0760250716909 696.8086249722892 248.6668421122458 708.4541754490367" stroke="#0088c6" stroke-width="2.2814942734040073" fill="none" stroke-linecap="round" opacity="0.6"/><path d="M261.37916601760764 725.1630744955417 Q284.0987670681546 698.8466663589058 294.96028203285624 712.5302582222702" stroke="#0088c6" stroke-width="3.1198913234099495" fill="none" stroke-linecap="round" opacity="0.6"/><path d="M1545.3741291783224 878.4607246467986 Q1537.7255315421442 759.9885581724785 1536.1958120149084 641.5163916981585" stroke="#006eac" stroke-width="5.960277276570042" fill="none" stroke-linecap="round"/><path d="M1536.1958120149084 641.5163916981585 Q1562.2460857586111 621.5163916981585 1574.0541101535907 641.5163916981585" stroke="#0088c6" stroke-width="3.720725679239427" fill="none" stroke-linecap="round" opacity="0.6"/><path d="M1536.1958120149084 641.5163916981585 Q1563.412186449721 629.1604698994106 1576.8354716684723 656.8045481006626" stroke="#0088c6" stroke-width="3.052457794326464" fill="none" stroke-linecap="round" opacity="0.6"/><path d="M1536.1958120149084 641.5163916981585 Q1542.4406344131141 631.0121448966294 1521.7468540017726 660.5078980951002" stroke="#0088c6" stroke-width="2.8944711091216817" fill="none" stroke-linecap="round" opacity="0.6"/><path d="M1536.1958120149084 641.5163916981585 Q1521.8707829434852 623.6720759648332 1506.3536486548794 645.8277602315079" stroke="#0088c6" stroke-width="3.6018097921278818" fill="none" stroke-linecap="round" opacity="0.6"/><path d="M1536.1958120149084 641.5163916981585 Q1523.3553428665712 617.2663152893024 1477.3599813478606 633.0162388804462" stroke="#0088c6" stroke-width="2.3484303407250975" fill="none" stroke-linecap="round" opacity="0.6"/><path d="M1536.1958120149084 641.5163916981585 Q1540.4131004421952 616.5076769154032 1528.574435586606 631.498962132648" stroke="#0088c6" stroke-width="3.3139442553077694" fill="none" stroke-linecap="round" opacity="0.6"/><path d="M1536.1958120149084 641.5163916981585 Q1571.4066623560013 612.8107193137128 1582.4794257410674 624.1050469292671" stroke="#0088c6" stroke-width="3.663524913988897" fill="none" stroke-linecap="round" opacity="0.6"/><path d="M1507.6115757756893 971.1192486973291 Q1519.6140403159927 899.3387419845301 1522.0145332240534 827.558235271731" stroke="#006eac" stroke-width="4.929671216041239" fill="none" stroke-linecap="round"/><path d="M1522.0145332240534 827.558235271731 Q1550.9205767158232 807.558235271731 1570.8259628929259 827.558235271731" stroke="#0088c6" stroke-width="3.129209773877917" fill="none" stroke-linecap="round" opacity="0.6"/><path d="M1522.0145332240534 827.558235271731 Q1555.4415167400123 816.6931351374315 1570.5801302440639 845.8280350031318" stroke="#0088c6" stroke-width="2.4678005889215973" fill="none" stroke-linecap="round" opacity="0.6"/><path d="M1522.0145332240534 827.558235271731 Q1536.0796581170555 811.9485558227291 1515.3341197824116 836.3388763737271" stroke="#0088c6" stroke-width="2.164310944304874" fill="none" stroke-linecap="round" opacity="0.6"/><path d="M1522.0145332240534 827.558235271731 Q1499.8798913311423 812.7354355631996 1450.3440853602174 837.9126358546685" stroke="#0088c6" stroke-width="3.6595147903215874" fill="none" stroke-linecap="round" opacity="0.6"/><path d="M1522.0145332240534 827.558235271731 Q1508.5851909064556 803.0691230094785 1459.8696154628383 818.5800107472262" stroke="#0088c6" stroke-width="2.567805336454838" fill="none" stroke-linecap="round" opacity="0.6"/><path d="M1522.0145332240534 827.558235271731 Q1519.966663061425 802.7048007399464 1514.6294348223225 817.8513662081621" stroke="#0088c6" stroke-width="3.7934518702778623" fill="none" stroke-linecap="round" opacity="0.6"/><path d="M1522.0145332240534 827.558235271731 Q1549.5588342521523 801.3251190581711 1555.1528286248893 815.0920028446113" stroke="#0088c6" stroke-width="2.7829951496755228" fill="none" stroke-linecap="round" opacity="0.6"/><rect x="0" y="1000" width="1920" height="80" fill="#0095d3" opacity="0.8"/><line x1="0" y1="1040" x2="1920" y2="1040" stroke="#fee440" stroke-opacity="0.15" stroke-width="2" stroke-dasharray="30,20"/><rect x="0" y="930" width="1920" height="150" fill="url(#glow59)"/><rect x="0" y="980" width="1920" height="100" fill="#fee440" opacity="0.04"/><rect x="1241.6924834162212" y="1022.0275825173658" width="41.74231724854147" height="2" fill="#f15bb5" opacity="0.022928810772236626" rx="1"/><rect x="947.1895576238608" y="1049.3925457003975" width="111.25706348364638" height="2" fill="#f15bb5" opacity="0.05269295611248653" rx="1"/><rect x="377.22314545354413" y="1047.3375514958375" width="40.07652440110141" height="2" fill="#f15bb5" opacity="0.034665000386225296" rx="1"/><rect x="52.74848521983914" y="1033.3556502250385" width="34.04976451630932" height="2" fill="#f15bb5" opacity="0.0593562334495029" rx="1"/><rect x="998.4584692955153" y="1051.243058725084" width="93.57918714954964" height="2" fill="#f15bb5" opacity="0.04779836949608251" rx="1"/><rect x="578.2123385225917" y="1024.0655146734941" width="66.31185181120222" height="2" fill="#f15bb5" opacity="0.0594176265037194" rx="1"/><rect x="209.4029497097719" y="1044.687617333766" width="35.23080862016203" height="2" fill="#f15bb5" opacity="0.023287046254446508" rx="1"/><rect x="561.8412133869346" y="1053.6582306012647" width="54.944331793800075" height="2" fill="#f15bb5" opacity="0.041808484825726716" rx="1"/><rect x="710.2854360803694" y="1026.35152153353" width="77.53246465640433" height="2" fill="#f15bb5" opacity="0.02502542472561482" rx="1"/><rect x="370.9279378622137" y="1029.4777726124687" width="111.86034844998744" height="2" fill="#f15bb5" opacity="0.057632234794467746" rx="1"/><rect x="1648.8256108129456" y="1028.833381829046" width="30.9127783474775" height="2" fill="#f15bb5" opacity="0.04913305544041401" rx="1"/><rect x="526.6883764897213" y="1022.5843479350639" width="105.10579650409188" height="2" fill="#f15bb5" opacity="0.04962540830243971" rx="1"/><rect x="220.405210158882" y="1013.7909750253407" width="36.00999995507533" height="2" fill="#f15bb5" opacity="0.059694201620224444" rx="1"/><rect x="357.0202232238418" y="1029.1275946211833" width="54.587598181000814" height="2" fill="#f15bb5" opacity="0.03425455591973256" rx="1"/><rect x="1127.0851844193148" y="1056.2907310054384" width="23.1045739546196" height="2" fill="#f15bb5" opacity="0.03673162583651292" rx="1"/><rect x="1465.6100945606852" y="1027.3949350247613" width="60.67352766652441" height="2" fill="#f15bb5" opacity="0.049116327042951324" rx="1"/><rect x="1892.834251814716" y="1042.9776153766963" width="66.24006220750513" height="2" fill="#f15bb5" opacity="0.045952699004195796" rx="1"/><rect x="1723.6709332009011" y="1018.9968224379693" width="88.83128657211347" height="2" fill="#f15bb5" opacity="0.03435865934341183" rx="1"/><rect x="1231.0451185589297" y="1033.3330623370905" width="91.8754648398318" height="2" fill="#f15bb5" opacity="0.05421047350256948" rx="1"/><rect x="1155.0528947718099" y="1052.4205949605491" width="82.78810104420131" height="2" fill="#f15bb5" opacity="0.030039674781737774" rx="1"/><rect x="717.4220942141073" y="1034.4840947292942" width="63.10314646994303" height="2" fill="#f15bb5" opacity="0.020121720992057054" rx="1"/><rect x="1688.173868304159" y="1037.0412828673238" width="68.02420492005166" height="2" fill="#f15bb5" opacity="0.033912806383779456" rx="1"/><rect x="1558.3521611146516" y="1036.2859156719144" width="30.115882384152123" height="2" fill="#f15bb5" opacity="0.024397851229737946" rx="1"/><rect x="1771.652523691685" y="1057.3322717001038" width="106.33957600368643" height="2" fill="#f15bb5" opacity="0.05411635671605272" rx="1"/><rect x="1729.9119257484358" y="1055.6171820535365" width="76.92530126704958" height="2" fill="#f15bb5" opacity="0.02091598989463318" rx="1"/><rect x="1484.7730318188605" y="1049.098251911136" width="66.17991977049502" height="2" fill="#f15bb5" opacity="0.047106907048054716" rx="1"/><rect x="574.5020812597363" y="1017.2230775601284" width="29.748405080695733" height="2" fill="#f15bb5" opacity="0.026794002877267544" rx="1"/><rect x="1427.2914977714634" y="1004.0758901145485" width="95.39553932738386" height="2" fill="#f15bb5" opacity="0.04570578906352301" rx="1"/><rect x="440.34777904868776" y="1006.6742813835559" width="37.67192292438632" height="2" fill="#f15bb5" opacity="0.042076233136951045" rx="1"/><rect x="1860.7786564391058" y="1020.279449983565" width="110.90956137303951" height="2" fill="#f15bb5" opacity="0.026080837158039407" rx="1"/><text x="1900" y="1060" font-family="Arial, sans-serif" font-size="11" fill="#fff" opacity="0.08" text-anchor="end" letter-spacing="2">GTA 6 REWARDS · WALLPAPER 060</text>
</svg>