<?xml version="1.0" encoding="UTF-8"?>
<svg xmlns="http://www.w3.org/2000/svg" width="1920" height="1080" viewBox="0 0 1920 1080">
<defs>
    <linearGradient id="bg41" x1="0%" y1="0%" x2="0%" y2="100%">
      <stop offset="0%" stop-color="#004e89"/>
      <stop offset="50%" stop-color="#001b56"/>
      <stop offset="100%" stop-color="#004e89"/>
    </linearGradient>
    <linearGradient id="sun41" x1="0%" y1="0%" x2="100%" y2="100%">
      <stop offset="0%" stop-color="#ff6b35"/>
      <stop offset="100%" stop-color="#f7c59f"/>
    </linearGradient>
    <radialGradient id="glow41" cx="50%" cy="70%" r="50%">
      <stop offset="0%" stop-color="#ff6b35" stop-opacity="0.3"/>
      <stop offset="100%" stop-color="#004e89" stop-opacity="0"/>
    </radialGradient>
  </defs><rect width="1920" height="1080" fill="url(#bg41)"/><circle cx="910.6170308335259" cy="453.76463603548814" r="762.3563672095436" fill="#ff6b35" opacity="0.13519706332245773"/><circle cx="1110.6170308335259" cy="353.76463603548814" r="498.3787586675908" fill="#f7c59f" opacity="0.12313463501472367"/><circle cx="369.1066967484324" cy="362.8487543931344" r="77.7284408774526" fill="url(#sun41)" opacity="0.8494896366376172"/><circle cx="369.1066967484324" cy="362.8487543931344" r="72.7284408774526" fill="#004e89" opacity="0.3"/><path d="M1836.8151949152386 898.7327570092708 Q1827.3312026838146 832.7833378763831 1825.4344042375299 766.8339187434954" stroke="#00013c" stroke-width="6.853309998953089" fill="none" stroke-linecap="round"/><path d="M1825.4344042375299 766.8339187434954 Q1853.5005992805818 746.8339187434954 1870.929776385643 766.8339187434954" stroke="#001b56" stroke-width="3.0810053178763495" fill="none" stroke-linecap="round" opacity="0.6"/><path d="M1825.4344042375299 766.8339187434954 Q1843.7347455452411 752.5842104034202 1856.0057680848804 778.3345020633452" stroke="#001b56" stroke-width="2.9566293463475604" fill="none" stroke-linecap="round" opacity="0.6"/><path d="M1825.4344042375299 766.8339187434954 Q1838.9056145659229 751.4954457229348 1818.3413168125253 776.1569727023743" stroke="#001b56" stroke-width="2.359014735175067" fill="none" stroke-linecap="round" opacity="0.6"/><path d="M1825.4344042375299 766.8339187434954 Q1806.5664669099094 750.9454855590502 1768.516027797954 775.0570523746051" stroke="#001b56" stroke-width="2.996434795902212" fill="none" stroke-linecap="round" opacity="0.6"/><path d="M1825.4344042375299 766.8339187434954 Q1821.4004057522932 744.1747737734829 1788.6225947254056 761.5156288034703" stroke="#001b56" stroke-width="2.915347372860496" fill="none" stroke-linecap="round" opacity="0.6"/><path d="M1825.4344042375299 766.8339187434954 Q1824.9325940828912 741.1374352882892 1816.766503066715 755.4409518330831" stroke="#001b56" stroke-width="3.433741151223365" fill="none" stroke-linecap="round" opacity="0.6"/><path d="M507.48888564004767 804.5446246640163 Q496.77615049220066 701.051508495829 494.63360346263124 597.5583923276417" stroke="#00013c" stroke-width="4.151288526167927" fill="none" stroke-linecap="round"/><path d="M494.63360346263124 597.5583923276417 Q519.2649728046416 577.5583923276417 524.6876226632594 597.5583923276417" stroke="#001b56" stroke-width="2.3668239112866165" fill="none" stroke-linecap="round" opacity="0.6"/><path d="M494.63360346263124 597.5583923276417 Q513.8561589763682 581.8173781482144 517.2764558328595 606.0763639687872" stroke="#001b56" stroke-width="3.7525453199056313" fill="none" stroke-linecap="round" opacity="0.6"/><path d="M494.63360346263124 597.5583923276417 Q505.71095868891786 584.8071716984498 483.6036928714254 612.0559510692578" stroke="#001b56" stroke-width="2.1897338885324387" fill="none" stroke-linecap="round" opacity="0.6"/><path d="M494.63360346263124 597.5583923276417 Q486.57359868801586 581.347757746357 442.17561432000764 605.1371231650722" stroke="#001b56" stroke-width="3.8239781213514457" fill="none" stroke-linecap="round" opacity="0.6"/><path d="M494.63360346263124 597.5583923276417 Q465.09913043891 572.4704571750322 424.1988954041883 587.3825220224224" stroke="#001b56" stroke-width="3.2012788921597597" fill="none" stroke-linecap="round" opacity="0.6"/><path d="M1165.869255337368 922.866421431039 Q1182.7665521769707 853.2874157019628 1186.146011544891 783.7084099728866" stroke="#00013c" stroke-width="6.518766756755944" fill="none" stroke-linecap="round"/><path d="M1186.146011544891 783.7084099728866 Q1225.5844713457823 763.7084099728866 1226.4833726003958 783.7084099728866" stroke="#001b56" stroke-width="2.710475241465139" fill="none" stroke-linecap="round" opacity="0.6"/><path d="M1186.146011544891 783.7084099728866 Q1205.464320519767 768.0783341417718 1209.3786664523584 792.4482583106573" stroke="#001b56" stroke-width="3.2293219750815356" fill="none" stroke-linecap="round" opacity="0.6"/><path d="M1186.146011544891 783.7084099728866 Q1192.0804780801152 774.1342474096367 1170.2818158116193 804.5600848463869" stroke="#001b56" stroke-width="3.2190014787993864" fill="none" stroke-linecap="round" opacity="0.6"/><path d="M1186.146011544891 783.7084099728866 Q1190.2572566457648 765.8092687478581 1157.0628235621903 787.9101275228296" stroke="#001b56" stroke-width="2.545934434641603" fill="none" stroke-linecap="round" opacity="0.6"/><path d="M1186.146011544891 783.7084099728866 Q1189.598177413594 761.5502141268182 1156.269079195861 779.3920182807498" stroke="#001b56" stroke-width="3.2194535953969354" fill="none" stroke-linecap="round" opacity="0.6"/><line x1="0" y1="0" x2="0" y2="1080" stroke="#ff6b35" stroke-opacity="0.04135367559533419" stroke-width="0.5"/><line x1="63" y1="0" x2="63" y2="1080" stroke="#ff6b35" stroke-opacity="0.04135367559533419" stroke-width="0.5"/><line x1="126" y1="0" x2="126" y2="1080" stroke="#ff6b35" stroke-opacity="0.04135367559533419" stroke-width="0.5"/><line x1="189" y1="0" x2="189" y2="1080" stroke="#ff6b35" stroke-opacity="0.04135367559533419" stroke-width="0.5"/><line x1="252" y1="0" x2="252" y2="1080" stroke="#ff6b35" stroke-opacity="0.04135367559533419" stroke-width="0.5"/><line x1="315" y1="0" x2="315" y2="1080" stroke="#ff6b35" stroke-opacity="0.04135367559533419" stroke-width="0.5"/><line x1="378" y1="0" x2="378" y2="1080" stroke="#ff6b35" stroke-opacity="0.04135367559533419" stroke-width="0.5"/><line x1="441" y1="0" x2="441" y2="1080" stroke="#ff6b35" stroke-opacity="0.04135367559533419" stroke-width="0.5"/><line x1="504" y1="0" x2="504" y2="1080" stroke="#ff6b35" stroke-opacity="0.04135367559533419" stroke-width="0.5"/><line x1="567" y1="0" x2="567" y2="1080" stroke="#ff6b35" stroke-opacity="0.04135367559533419" stroke-width="0.5"/><line x1="630" y1="0" x2="630" y2="1080" stroke="#ff6b35" stroke-opacity="0.04135367559533419" stroke-width="0.5"/><line x1="693" y1="0" x2="693" y2="1080" stroke="#ff6b35" stroke-opacity="0.04135367559533419" stroke-width="0.5"/><line x1="756" y1="0" x2="756" y2="1080" stroke="#ff6b35" stroke-opacity="0.04135367559533419" stroke-width="0.5"/><line x1="819" y1="0" x2="819" y2="1080" stroke="#ff6b35" stroke-opacity="0.04135367559533419" stroke-width="0.5"/><line x1="882" y1="0" x2="882" y2="1080" stroke="#ff6b35" stroke-opacity="0.04135367559533419" stroke-width="0.5"/><line x1="945" y1="0" x2="945" y2="1080" stroke="#ff6b35" stroke-opacity="0.04135367559533419" stroke-width="0.5"/><line x1="1008" y1="0" x2="1008" y2="1080" stroke="#ff6b35" stroke-opacity="0.04135367559533419" stroke-width="0.5"/><line x1="1071" y1="0" x2="1071" y2="1080" stroke="#ff6b35" stroke-opacity="0.04135367559533419" stroke-width="0.5"/><line x1="1134" y1="0" x2="1134" y2="1080" stroke="#ff6b35" stroke-opacity="0.04135367559533419" stroke-width="0.5"/><line x1="1197" y1="0" x2="1197" y2="1080" stroke="#ff6b35" stroke-opacity="0.04135367559533419" stroke-width="0.5"/><line x1="1260" y1="0" x2="1260" y2="1080" stroke="#ff6b35" stroke-opacity="0.04135367559533419" stroke-width="0.5"/><line x1="1323" y1="0" x2="1323" y2="1080" stroke="#ff6b35" stroke-opacity="0.04135367559533419" stroke-width="0.5"/><line x1="1386" y1="0" x2="1386" y2="1080" stroke="#ff6b35" stroke-opacity="0.04135367559533419" stroke-width="0.5"/><line x1="1449" y1="0" x2="1449" y2="1080" stroke="#ff6b35" stroke-opacity="0.04135367559533419" stroke-width="0.5"/><line x1="1512" y1="0" x2="1512" y2="1080" stroke="#ff6b35" stroke-opacity="0.04135367559533419" stroke-width="0.5"/><line x1="1575" y1="0" x2="1575" y2="1080" stroke="#ff6b35" stroke-opacity="0.04135367559533419" stroke-width="0.5"/><line x1="1638" y1="0" x2="1638" y2="1080" stroke="#ff6b35" stroke-opacity="0.04135367559533419" stroke-width="0.5"/><line x1="1701" y1="0" x2="1701" y2="1080" stroke="#ff6b35" stroke-opacity="0.04135367559533419" stroke-width="0.5"/><line x1="1764" y1="0" x2="1764" y2="1080" stroke="#ff6b35" stroke-opacity="0.04135367559533419" stroke-width="0.5"/><line x1="1827" y1="0" x2="1827" y2="1080" stroke="#ff6b35" stroke-opacity="0.04135367559533419" stroke-width="0.5"/><line x1="1890" y1="0" x2="1890" y2="1080" stroke="#ff6b35" stroke-opacity="0.04135367559533419" stroke-width="0.5"/><line x1="0" y1="0" x2="1920" y2="0" stroke="#ff6b35" stroke-opacity="0.04135367559533419" stroke-width="0.5"/><line x1="0" y1="63" x2="1920" y2="63" stroke="#ff6b35" stroke-opacity="0.04135367559533419" stroke-width="0.5"/><line x1="0" y1="126" x2="1920" y2="126" stroke="#ff6b35" stroke-opacity="0.04135367559533419" stroke-width="0.5"/><line x1="0" y1="189" x2="1920" y2="189" stroke="#ff6b35" stroke-opacity="0.04135367559533419" stroke-width="0.5"/><line x1="0" y1="252" x2="1920" y2="252" stroke="#ff6b35" stroke-opacity="0.04135367559533419" stroke-width="0.5"/><line x1="0" y1="315" x2="1920" y2="315" stroke="#ff6b35" stroke-opacity="0.04135367559533419" stroke-width="0.5"/><line x1="0" y1="378" x2="1920" y2="378" stroke="#ff6b35" stroke-opacity="0.04135367559533419" stroke-width="0.5"/><line x1="0" y1="441" x2="1920" y2="441" stroke="#ff6b35" stroke-opacity="0.04135367559533419" stroke-width="0.5"/><line x1="0" y1="504" x2="1920" y2="504" stroke="#ff6b35" stroke-opacity="0.04135367559533419" stroke-width="0.5"/><line x1="0" y1="567" x2="1920" y2="567" stroke="#ff6b35" stroke-opacity="0.04135367559533419" stroke-width="0.5"/><line x1="0" y1="630" x2="1920" y2="630" stroke="#ff6b35" stroke-opacity="0.04135367559533419" stroke-width="0.5"/><line x1="0" y1="693" x2="1920" y2="693" stroke="#ff6b35" stroke-opacity="0.04135367559533419" stroke-width="0.5"/><line x1="0" y1="756" x2="1920" y2="756" stroke="#ff6b35" stroke-opacity="0.04135367559533419" stroke-width="0.5"/><line x1="0" y1="819" x2="1920" y2="819" stroke="#ff6b35" stroke-opacity="0.04135367559533419" stroke-width="0.5"/><line x1="0" y1="882" x2="1920" y2="882" stroke="#ff6b35" stroke-opacity="0.04135367559533419" stroke-width="0.5"/><line x1="0" y1="945" x2="1920" y2="945" stroke="#ff6b35" stroke-opacity="0.04135367559533419" stroke-width="0.5"/><line x1="0" y1="1008" x2="1920" y2="1008" stroke="#ff6b35" stroke-opacity="0.04135367559533419" stroke-width="0.5"/><line x1="0" y1="1071" x2="1920" y2="1071" stroke="#ff6b35" stroke-opacity="0.04135367559533419" stroke-width="0.5"/><rect x="0" y="1000" width="1920" height="80" fill="#002863" opacity="0.8"/><line x1="0" y1="1040" x2="1920" y2="1040" stroke="#f7c59f" stroke-opacity="0.15" stroke-width="2" stroke-dasharray="30,20"/><rect x="0" y="930" width="1920" height="150" fill="url(#glow41)"/><rect x="0" y="980" width="1920" height="100" fill="#f7c59f" opacity="0.04"/><rect x="1054.4609653424613" y="1051.2751170879405" width="38.17198945632484" height="2" fill="#ff6b35" opacity="0.03065409762101576" rx="1"/><rect x="612.7803170617624" y="1029.9409785424223" width="23.561966657536562" height="2" fill="#ff6b35" opacity="0.0590229327695032" rx="1"/><rect x="1685.1359733392335" y="1043.6737936510876" width="99.62688428341106" height="2" fill="#ff6b35" opacity="0.039183243359248915" rx="1"/><rect x="322.525803372852" y="1057.503325626604" width="42.15625430041837" height="2" fill="#ff6b35" opacity="0.030835564278726364" rx="1"/><rect x="1904.7010561788222" y="1032.213500051809" width="38.362920363052496" height="2" fill="#ff6b35" opacity="0.023725691708672253" rx="1"/><rect x="937.5164832867488" y="1028.8486651258656" width="102.90010809034577" height="2" fill="#ff6b35" opacity="0.029169822281498885" rx="1"/><rect x="1632.3161216900487" y="1008.2839901531777" width="57.40415674108177" height="2" fill="#ff6b35" opacity="0.028473182797542115" rx="1"/><rect x="634.0295538292336" y="1020.1021112920954" width="90.2279950888427" height="2" fill="#ff6b35" opacity="0.058327749035863144" rx="1"/><rect x="1549.3555792303187" y="1052.663980255058" width="83.85968696881545" height="2" fill="#ff6b35" opacity="0.04616445379009575" rx="1"/><rect x="1164.0628193048906" y="1050.6544811210256" width="28.636713146380316" height="2" fill="#ff6b35" opacity="0.02430736241031144" rx="1"/><rect x="1564.9704345234136" y="1008.9739759333837" width="111.41143862889415" height="2" fill="#ff6b35" opacity="0.05812757809602832" rx="1"/><rect x="1366.2083381615134" y="1015.5559118081712" width="40.48402166005317" height="2" fill="#ff6b35" opacity="0.0459700589408097" rx="1"/><rect x="1778.5074577896173" y="1025.776324701909" width="114.66915554242887" height="2" fill="#ff6b35" opacity="0.020718992827627573" rx="1"/><rect x="39.964899132020044" y="1005.6875080162863" width="20.843806867684194" height="2" fill="#ff6b35" opacity="0.0448126483580127" rx="1"/><rect x="652.39388659885" y="1051.213124294582" width="79.95165655853964" height="2" fill="#ff6b35" opacity="0.04021713749976297" rx="1"/><rect x="1111.5521592999696" y="1037.6349122583947" width="95.43507313249518" height="2" fill="#ff6b35" opacity="0.04824465978616957" rx="1"/><rect x="147.45450455403292" y="1039.3702167224535" width="78.63715483775296" height="2" fill="#ff6b35" opacity="0.02038127658897575" rx="1"/><rect x="515.6729441591708" y="1005.6868571195954" width="38.791668261120016" height="2" fill="#ff6b35" opacity="0.03997364038135243" rx="1"/><rect x="300.9232611164738" y="1015.0511191494417" width="71.0278688164027" height="2" fill="#ff6b35" opacity="0.029912767040057287" rx="1"/><rect x="1651.9982612999154" y="1039.5649406964808" width="105.1276915718633" height="2" fill="#ff6b35" opacity="0.030077392377443005" rx="1"/><rect x="74.32040201367819" y="1042.6625657879426" width="61.14592004128404" height="2" fill="#ff6b35" opacity="0.050911725347608267" rx="1"/><rect x="211.06985767629695" y="1044.438994104145" width="106.97164610190589" height="2" fill="#ff6b35" opacity="0.03970833915744637" rx="1"/><rect x="1364.2382954257164" y="1040.1140619442133" width="29.629368598020953" height="2" fill="#ff6b35" opacity="0.046133883461853" rx="1"/><rect x="1315.166108467422" y="1017.2458743390735" width="78.0856383214904" height="2" fill="#ff6b35" opacity="0.035066503513387054" rx="1"/><rect x="801.608880050855" y="1020.7057790180448" width="79.63687183326968" height="2" fill="#ff6b35" opacity="0.04788673288838163" rx="1"/><rect x="1721.8310799733342" y="1028.7592520259225" width="59.58677422245657" height="2" fill="#ff6b35" opacity="0.059023533165227515" rx="1"/><rect x="1587.0038365542432" y="1011.6571365882776" width="103.76803821506165" height="2" fill="#ff6b35" opacity="0.0386285600109558" rx="1"/><rect x="1711.2928197792016" y="1038.7369404124881" width="95.94949176440701" height="2" fill="#ff6b35" opacity="0.026555029835215543" rx="1"/><rect x="1884.7021691418956" y="1013.2508497948877" width="36.69489241128203" height="2" fill="#ff6b35" opacity="0.02400982172321757" rx="1"/><rect x="295.6805594953896" y="1022.886528983453" width="47.60320455478579" height="2" fill="#ff6b35" opacity="0.057922098058723406" rx="1"/><text x="1900" y="1060" font-family="Arial, sans-serif" font-size="11" fill="#fff" opacity="0.08" text-anchor="end" letter-spacing="2">GTA 6 REWARDS · WALLPAPER 042</text>
</svg>