<?xml version="1.0" encoding="UTF-8"?>
<svg xmlns="http://www.w3.org/2000/svg" width="1920" height="1080" viewBox="0 0 1920 1080">
<defs>
    <linearGradient id="bg58" x1="0%" y1="0%" x2="0%" y2="100%">
      <stop offset="0%" stop-color="#03045e"/>
      <stop offset="50%" stop-color="#00002b"/>
      <stop offset="100%" stop-color="#03045e"/>
    </linearGradient>
    <linearGradient id="sun58" x1="0%" y1="0%" x2="100%" y2="100%">
      <stop offset="0%" stop-color="#00f5d4"/>
      <stop offset="100%" stop-color="#00bbf9"/>
    </linearGradient>
    <radialGradient id="glow58" cx="50%" cy="70%" r="50%">
      <stop offset="0%" stop-color="#00f5d4" stop-opacity="0.3"/>
      <stop offset="100%" stop-color="#03045e" stop-opacity="0"/>
    </radialGradient>
  </defs><rect width="1920" height="1080" fill="url(#bg58)"/><circle cx="1079.1288512710316" cy="484.3552618018248" r="601.750037237478" fill="#00f5d4" opacity="0.13612062355645949"/><circle cx="1279.1288512710316" cy="384.3552618018248" r="499.08119325970324" fill="#00bbf9" opacity="0.08723021143051568"/><circle cx="1253.2002346946858" cy="278.92376415639274" r="96.11843894145414" fill="url(#sun58)" opacity="0.8953798640275792"/><circle cx="1253.2002346946858" cy="278.92376415639274" r="91.11843894145414" fill="#03045e" opacity="0.3"/><pattern id="scan58" width="1920" height="4" patternUnits="userSpaceOnUse">
      <line x1="0" y1="0" x2="1920" y2="0" stroke="#000" stroke-opacity="0.05" stroke-width="1"/>
    </pattern>
    <rect width="1920" height="1080" fill="url(#scan58)"/><circle cx="279.5655678863557" cy="147.7383784362437" r="0.99938119621933" fill="#fff" opacity="0.2386953064796271"/><circle cx="1587.3380344331586" cy="72.31514881372338" r="1.2551218564051954" fill="#fff" opacity="0.7700694862217803"/><circle cx="1034.4308949435201" cy="213.61902835350926" r="1.8890071811361722" fill="#fff" opacity="0.3369795881065027"/><circle cx="455.15003587472023" cy="198.5027010679484" r="1.6370006441457665" fill="#fff" opacity="0.4793435118811539"/><circle cx="1125.2060261008344" cy="169.87173776930936" r="1.9014641120800433" fill="#fff" opacity="0.7301620651805218"/><circle cx="1038.7393134270653" cy="226.2930235830818" r="1.4499898510868636" fill="#fff" opacity="0.2990905855081721"/><circle cx="309.0600170914689" cy="361.52512656001494" r="1.0286270778227196" fill="#fff" opacity="0.2787094681241339"/><circle cx="673.4910921830431" cy="89.62376565710264" r="1.6334061791732457" fill="#fff" opacity="0.5966008050824982"/><circle cx="1056.2630365268008" cy="340.80867555476925" r="1.8177596096223592" fill="#fff" opacity="0.33773947119194536"/><circle cx="413.8524302313692" cy="124.49611182056742" r="1.4739386199447184" fill="#fff" opacity="0.42257855469886646"/><circle cx="8.443887235700126" cy="249.49273923260455" r="0.8346102521369723" fill="#fff" opacity="0.39883792512091765"/><circle cx="831.1437193004283" cy="405.79663477973" r="1.0793598386410996" fill="#fff" opacity="0.452644946252146"/><circle cx="723.9816875951321" cy="127.144558328936" r="1.9444205032066488" fill="#fff" opacity="0.38591035422540976"/><circle cx="912.0289673544535" cy="153.57285765408838" r="1.561807551901277" fill="#fff" opacity="0.3372073340549151"/><circle cx="1724.4473415157868" cy="214.03833738482518" r="1.6971431519363873" fill="#fff" opacity="0.7356797563693671"/><circle cx="1743.3233597463284" cy="213.95254082743836" r="1.2235761670683456" fill="#fff" opacity="0.3870374741933862"/><circle cx="57.204789085594186" cy="268.60810718978945" r="1.5513247879108705" fill="#fff" opacity="0.39278090484272243"/><circle cx="912.6612346509148" cy="303.08789030441267" r="0.9772153315081297" fill="#fff" opacity="0.6475889884046253"/><circle cx="604.4046392953966" cy="57.69688249605169" r="1.9160345427030778" fill="#fff" opacity="0.3826247420587169"/><circle cx="883.0006275146735" cy="132.835757293933" r="1.1235559572520564" fill="#fff" opacity="0.40798822012915936"/><circle cx="223.25868403149272" cy="362.20155781372483" r="1.940750730326574" fill="#fff" opacity="0.5663482175130277"/><circle cx="1807.8969660140335" cy="333.04663286289355" r="0.9353654685978232" fill="#fff" opacity="0.5320778287789034"/><circle cx="1530.0907868729184" cy="130.04904740351463" r="1.9554439303361448" fill="#fff" opacity="0.34466272246666785"/><circle cx="1510.629096233898" cy="136.40767857628123" r="1.401032641390579" fill="#fff" opacity="0.6929707055662224"/><circle cx="894.7383353707237" cy="100.2617632793872" r="0.7343749591927917" fill="#fff" opacity="0.28643977653385133"/><circle cx="1283.234187067308" cy="365.4106121243468" r="1.1136985736930973" fill="#fff" opacity="0.38766275592792376"/><circle cx="124.12876862197388" cy="43.776366769284095" r="1.9528852084076231" fill="#fff" opacity="0.6150099417229672"/><circle cx="88.65987139024304" cy="282.9898687552172" r="1.1335392509665199" fill="#fff" opacity="0.7478925492958846"/><circle cx="446.8969194141442" cy="95.87149811533082" r="1.3421918721502162" fill="#fff" opacity="0.25112225842921115"/><circle cx="1341.4808860564328" cy="381.47213122562323" r="1.3125813121005383" fill="#fff" opacity="0.7343428626503663"/><circle cx="1844.327909928823" cy="143.5843829623387" r="1.7135990399898957" fill="#fff" opacity="0.6895214413501138"/><circle cx="376.4069295805895" cy="215.35766637869125" r="1.5822014599298595" fill="#fff" opacity="0.7765888788217188"/><circle cx="1716.1946077170303" cy="203.06870335970743" r="0.5514301278282493" fill="#fff" opacity="0.6933151337535388"/><circle cx="751.6426001749101" cy="382.1860907408842" r="0.7936850671641726" fill="#fff" opacity="0.6487229804156168"/><circle cx="1456.1436517946756" cy="333.1842674010397" r="0.695668667600413" fill="#fff" opacity="0.47187363493067064"/><circle cx="1755.562908909182" cy="210.8740401237444" r="0.7372371049684558" fill="#fff" opacity="0.2979047120311076"/><circle cx="561.9998079356736" cy="161.58826891742373" r="1.7535193618977254" fill="#fff" opacity="0.7382142592077643"/><circle cx="1498.492644033044" cy="302.07941458329543" r="0.5311217298803669" fill="#fff" opacity="0.37892907978476237"/><circle cx="285.14519340478466" cy="54.71145833439926" r="1.584476621724776" fill="#fff" opacity="0.7126306905207762"/><circle cx="639.0493603048495" cy="63.25198654440511" r="0.7151132611825861" fill="#fff" opacity="0.7637867764951165"/><rect x="10.311533052081133" y="589.1870369411043" width="61.51127862080729" height="245.82382253041115" fill="#03045e" opacity="0.4449239703931203" rx="2"/><rect x="37.87000977407908" y="599.1870369411043" width="6.394325176811387" height="7.385357699679527" fill="#00bbf9" opacity="0.3285719398009991" rx="1"/><rect x="22.492190118877264" y="602.8797157909441" width="6.394325176811387" height="7.385357699679527" fill="#00f5d4" opacity="0.16428596990049954" rx="1"/><rect x="36.98099708416988" y="634.3047258740202" width="8.172350556629791" height="9.125065425207154" fill="#00bbf9" opacity="0.47962149278717614" rx="1"/><rect x="21.60317742896806" y="638.8672585866237" width="8.172350556629791" height="9.125065425207154" fill="#00f5d4" opacity="0.23981074639358807" rx="1"/><rect x="36.51559522410752" y="669.4224148069361" width="9.103154276754509" height="7.839338539596493" fill="#00bbf9" opacity="0.11112153998369387" rx="1"/><rect x="21.137775568905703" y="673.3420840767343" width="9.103154276754509" height="7.839338539596493" fill="#00f5d4" opacity="0.055560769991846934" rx="1"/><rect x="38.039551536328986" y="704.5401037398519" width="6.055241652311581" height="9.41855062903337" fill="#00bbf9" opacity="0.5027772163745894" rx="1"/><rect x="22.661731881127167" y="709.2493790543687" width="6.055241652311581" height="9.41855062903337" fill="#00f5d4" opacity="0.2513886081872947" rx="1"/><rect x="38.05897651404584" y="739.6577926727679" width="6.016391696877869" height="7.241511067664603" fill="#00bbf9" opacity="0.3977134837530818" rx="1"/><rect x="22.681156858844023" y="743.2785482066001" width="6.016391696877869" height="7.241511067664603" fill="#00f5d4" opacity="0.1988567418765409" rx="1"/><rect x="37.86069776184407" y="774.7754816056837" width="6.412949201281403" height="8.512441526752069" fill="#00bbf9" opacity="0.13239551198957383" rx="1"/><rect x="22.482878106642254" y="779.0317023690598" width="6.412949201281403" height="8.512441526752069" fill="#00f5d4" opacity="0.06619775599478692" rx="1"/><rect x="37.03271014290692" y="809.8931705385996" width="8.068924439155712" height="9.000234565464835" fill="#00bbf9" opacity="0.11005050982582629" rx="1"/><rect x="21.654890487705103" y="814.393287821332" width="8.068924439155712" height="9.000234565464835" fill="#00f5d4" opacity="0.055025254912913144" rx="1"/><rect x="111.62429837740147" y="627.5121292163412" width="57.027420854900825" height="207.49873025517417" fill="#000044" opacity="0.5394487549875511" rx="2"/><rect x="135.2024843516907" y="637.5121292163412" width="9.871048906322347" height="8.739493741360375" fill="#00bbf9" opacity="0.42267368010307516" rx="1"/><rect x="120.9456291379655" y="641.8818760870214" width="9.871048906322347" height="8.739493741360375" fill="#00f5d4" opacity="0.21133684005153758" rx="1"/><rect x="136.159532585512" y="667.1548049670804" width="7.956952438679746" height="8.098300256323604" fill="#00bbf9" opacity="0.1018654239833973" rx="1"/><rect x="121.90267737178681" y="671.2039550952422" width="7.956952438679746" height="8.098300256323604" fill="#00f5d4" opacity="0.05093271199169865" rx="1"/><rect x="134.88259797826026" y="696.7974807178196" width="10.510821653183275" height="9.545052844925097" fill="#00bbf9" opacity="0.46791569422183454" rx="1"/><rect x="120.62574276453503" y="701.5700071402821" width="10.510821653183275" height="9.545052844925097" fill="#00f5d4" opacity="0.23395784711091727" rx="1"/><rect x="136.44003777711208" y="726.4401564685587" width="7.39594205547961" height="7.671850136870484" fill="#00bbf9" opacity="0.5034514782026995" rx="1"/><rect x="122.18318256338686" y="730.276081536994" width="7.39594205547961" height="7.671850136870484" fill="#00f5d4" opacity="0.25172573910134977" rx="1"/><rect x="137.6639635616273" y="756.0828322192979" width="4.94809048644921" height="9.089964944657396" fill="#00bbf9" opacity="0.35069281371559313" rx="1"/><rect x="123.40710834790207" y="760.6278146916266" width="4.94809048644921" height="9.089964944657396" fill="#00f5d4" opacity="0.17534640685779657" rx="1"/><rect x="136.07573698492178" y="785.725507970037" width="8.124543639860242" height="9.13009293915939" fill="#00bbf9" opacity="0.5478251712740924" rx="1"/><rect x="121.81888177119656" y="790.2905544396167" width="8.124543639860242" height="9.13009293915939" fill="#00f5d4" opacity="0.2739125856370462" rx="1"/><rect x="135.0085145822422" y="815.3681837207762" width="10.258988445219348" height="6.5992472145239" fill="#00bbf9" opacity="0.4478779116058438" rx="1"/><rect x="120.751659368517" y="818.6678073280382" width="10.258988445219348" height="6.5992472145239" fill="#00f5d4" opacity="0.2239389558029219" rx="1"/><rect x="170.0235213261436" y="593.6938685117508" width="84.0058242422542" height="241.3169909597647" fill="#000044" opacity="0.6344029583117" rx="2"/><rect x="209.06528876037035" y="603.6938685117508" width="5.922289373800692" height="8.8790941338239" fill="#00bbf9" opacity="0.30203092710627966" rx="1"/><rect x="188.0638326998068" y="608.1334155786627" width="5.922289373800692" height="8.8790941338239" fill="#00f5d4" opacity="0.15101546355313983" rx="1"/><rect x="207.43511926218795" y="684.132865498339" width="9.182628370165506" height="9.117290872874971" fill="#00bbf9" opacity="0.2126065923861709" rx="1"/><rect x="186.4336632016244" y="688.6915109347765" width="9.182628370165506" height="9.117290872874971" fill="#00f5d4" opacity="0.10630329619308546" rx="1"/><rect x="206.78785706318675" y="764.5718624849272" width="10.477152768167937" height="6.177286043804438" fill="#00bbf9" opacity="0.536524550182867" rx="1"/><rect x="185.7864010026232" y="767.6605055068295" width="10.477152768167937" height="6.177286043804438" fill="#00f5d4" opacity="0.2682622750914335" rx="1"/><rect x="261.93556329391856" y="611.0816336495526" width="80.97312169870668" height="223.92922582196286" fill="#000044" opacity="0.5045702189450549" rx="2"/><rect x="297.44315769412225" y="621.0816336495526" width="9.957932898299287" height="6.209818434019065" fill="#00bbf9" opacity="0.12268549637465867" rx="1"/><rect x="277.19987726944555" y="624.1865428665621" width="9.957932898299287" height="6.209818434019065" fill="#00f5d4" opacity="0.061342748187329335" rx="1"/><rect x="296.9405138480298" y="677.0639401050433" width="10.963220590484147" height="8.15441017275546" fill="#00bbf9" opacity="0.30581670832024344" rx="1"/><rect x="276.6972334233531" y="681.1411451914211" width="10.963220590484147" height="8.15441017275546" fill="#00f5d4" opacity="0.15290835416012172" rx="1"/><rect x="299.4586946957841" y="733.046246560534" width="5.92685889497559" height="8.947656357415871" fill="#00bbf9" opacity="0.46217475737495695" rx="1"/><rect x="279.2154142711074" y="737.5200747392419" width="5.92685889497559" height="8.947656357415871" fill="#00f5d4" opacity="0.23108737868747847" rx="1"/><rect x="298.19145901407444" y="789.0285530160247" width="8.461330258394902" height="6.968923852073244" fill="#00bbf9" opacity="0.5181163167623143" rx="1"/><rect x="277.94817858939774" y="792.5130149420613" width="8.461330258394902" height="6.968923852073244" fill="#00f5d4" opacity="0.25905815838115714" rx="1"/><rect x="340.48698633525765" y="736.5362300622594" width="81.62825042652624" height="98.47462940925607" fill="#03045e" opacity="0.6624516410200045" rx="2"/><rect x="377.2352164935504" y="746.5362300622594" width="8.131790109940756" height="7.115426394416817" fill="#00bbf9" opacity="0.41940179989193604" rx="1"/><rect x="356.8281538869188" y="750.0939432594678" width="8.131790109940756" height="7.115426394416817" fill="#00f5d4" opacity="0.20970089994596802" rx="1"/><rect x="376.1569223586005" y="779.3611065320114" width="10.288378379840491" height="9.731994451892561" fill="#00bbf9" opacity="0.5815846220547297" rx="1"/><rect x="355.7498597519689" y="784.2271037579577" width="10.288378379840491" height="9.731994451892561" fill="#00f5d4" opacity="0.29079231102736486" rx="1"/><rect x="377.12051235958097" y="812.1859830017635" width="8.361198377879616" height="9.08002441075631" fill="#00bbf9" opacity="0.2219850039626437" rx="1"/><rect x="356.7134497529494" y="816.7259952071416" width="8.361198377879616" height="9.08002441075631" fill="#00f5d4" opacity="0.11099250198132185" rx="1"/><rect x="436.4822248317735" y="592.6345109223934" width="76.73370916087501" height="242.37634854912207" fill="#000044" opacity="0.5390869882048777" rx="2"/><rect x="470.40047318132235" y="602.6345109223934" width="8.897212461777315" height="6.468294400830822" fill="#00bbf9" opacity="0.11344302797537369" rx="1"/><rect x="451.21704589110357" y="605.8686581228088" width="8.897212461777315" height="6.468294400830822" fill="#00f5d4" opacity="0.05672151398768684" rx="1"/><rect x="472.28960737367015" y="643.0305690139137" width="5.118944077081732" height="6.409148217274144" fill="#00bbf9" opacity="0.5000513846753285" rx="1"/><rect x="453.10618008345136" y="646.2351431225508" width="5.118944077081732" height="6.409148217274144" fill="#00f5d4" opacity="0.25002569233766425" rx="1"/><rect x="472.77126876243284" y="683.426627105434" width="4.155621299556368" height="9.239057493218933" fill="#00bbf9" opacity="0.13219091881350403" rx="1"/><rect x="453.58784147221405" y="688.0461558520435" width="4.155621299556368" height="9.239057493218933" fill="#00f5d4" opacity="0.06609545940675202" rx="1"/><rect x="471.5268399561362" y="723.8226851969544" width="6.644478912149667" height="9.833011112137001" fill="#00bbf9" opacity="0.3656095009915553" rx="1"/><rect x="452.3434126659174" y="728.7391907530229" width="6.644478912149667" height="9.833011112137001" fill="#00f5d4" opacity="0.18280475049577766" rx="1"/><rect x="469.8134805942228" y="764.2187432884748" width="10.07119763597641" height="8.911762246608678" fill="#00bbf9" opacity="0.41520918880477764" rx="1"/><rect x="450.63005330400404" y="768.6746244117792" width="10.07119763597641" height="8.911762246608678" fill="#00f5d4" opacity="0.20760459440238882" rx="1"/><rect x="470.41050218528017" y="804.614801379995" width="8.877154453861795" height="9.834962276703436" fill="#00bbf9" opacity="0.18210314753979984" rx="1"/><rect x="451.2270748950614" y="809.5322825183467" width="8.877154453861795" height="9.834962276703436" fill="#00f5d4" opacity="0.09105157376989992" rx="1"/><rect x="520.9640787752646" y="588.2937356103896" width="30.472263023367212" height="246.7171238611259" fill="#000044" opacity="0.43339544237437555" rx="2"/><rect x="533.6144790188828" y="598.2937356103896" width="5.171462536130907" height="9.832359387500295" fill="#00bbf9" opacity="0.10857904646745395" rx="1"/><rect x="525.996413263041" y="603.2099153041397" width="5.171462536130907" height="9.832359387500295" fill="#00f5d4" opacity="0.054289523233726975" rx="1"/><rect x="531.0390996913436" y="633.5390390191219" width="10.322221191209326" height="9.831827147824649" fill="#00bbf9" opacity="0.3498120185336592" rx="1"/><rect x="523.4210339355018" y="638.4549525930342" width="10.322221191209326" height="9.831827147824649" fill="#00f5d4" opacity="0.1749060092668296" rx="1"/><rect x="532.148270509372" y="668.7843424278542" width="8.103879555152702" height="6.991195409789494" fill="#00bbf9" opacity="0.2916566993323287" rx="1"/><rect x="524.5302047535301" y="672.279940132749" width="8.103879555152702" height="6.991195409789494" fill="#00f5d4" opacity="0.14582834966616434" rx="1"/><rect x="533.1717008756793" y="704.0296458365865" width="6.057018822537972" height="9.220316186365745" fill="#00bbf9" opacity="0.19366595339813875" rx="1"/><rect x="525.5536351198375" y="708.6398039297694" width="6.057018822537972" height="9.220316186365745" fill="#00f5d4" opacity="0.09683297669906937" rx="1"/><rect x="530.7088092535907" y="739.2749492453187" width="10.982802066715156" height="7.5428004994855264" fill="#00bbf9" opacity="0.31529133145587784" rx="1"/><rect x="523.0907434977489" y="743.0463494950615" width="10.982802066715156" height="7.5428004994855264" fill="#00f5d4" opacity="0.15764566572793892" rx="1"/><rect x="531.2891191076149" y="774.520252654051" width="9.822182358666831" height="7.057638916433239" fill="#00bbf9" opacity="0.17050860814529206" rx="1"/><rect x="523.671053351773" y="778.0490721122676" width="9.822182358666831" height="7.057638916433239" fill="#00f5d4" opacity="0.08525430407264603" rx="1"/><rect x="530.3854994808675" y="809.7655560627833" width="11.629421612161543" height="7.1318950655711575" fill="#00bbf9" opacity="0.13310428479060166" rx="1"/><rect x="522.7674337250256" y="813.3315035955688" width="11.629421612161543" height="7.1318950655711575" fill="#00f5d4" opacity="0.06655214239530083" rx="1"/><rect x="595.1754600608259" y="719.6296511263655" width="50.79374269135151" height="115.38120834514993" fill="#03045e" opacity="0.5976019921939825" rx="2"/><rect x="616.1532152516254" y="729.6296511263655" width="8.838232309752664" height="7.138329718526995" fill="#00bbf9" opacity="0.3360913791312118" rx="1"/><rect x="603.4547795787875" y="733.198815985629" width="8.838232309752664" height="7.138329718526995" fill="#00f5d4" opacity="0.1680456895656059" rx="1"/><rect x="616.7278216536049" y="768.0900539080822" width="7.689019505793466" height="7.262161574620325" fill="#00bbf9" opacity="0.5610979319459521" rx="1"/><rect x="604.029385980767" y="771.7211346953923" width="7.689019505793466" height="7.262161574620325" fill="#00f5d4" opacity="0.28054896597297607" rx="1"/><rect x="618.0805741355072" y="806.5504566897988" width="4.983514541989079" height="7.601348668709711" fill="#00bbf9" opacity="0.5969146419309347" rx="1"/><rect x="605.3821384626692" y="810.3511310241537" width="4.983514541989079" height="7.601348668709711" fill="#00f5d4" opacity="0.29845732096546734" rx="1"/><rect x="685.8509069732246" y="458.90953430414885" width="57.08845517763133" height="376.1013251673666" fill="#000044" opacity="0.5630284240150425" rx="2"/><rect x="709.1107770423866" y="468.90953430414885" width="10.568715039307417" height="9.092727238101123" fill="#00bbf9" opacity="0.3733300968011213" rx="1"/><rect x="694.8386632479787" y="473.4558979231994" width="10.568715039307417" height="9.092727238101123" fill="#00f5d4" opacity="0.18666504840056064" rx="1"/><rect x="712.2717182257583" y="562.9348655959905" width="4.246832672564041" height="9.657081568533807" fill="#00bbf9" opacity="0.3834355220625726" rx="1"/><rect x="697.9996044313503" y="567.7634063802574" width="4.246832672564041" height="9.657081568533807" fill="#00f5d4" opacity="0.1917177610312863" rx="1"/><rect x="710.0391723939978" y="656.9601968878321" width="8.71192433608508" height="9.862053615008959" fill="#00bbf9" opacity="0.37972021076821727" rx="1"/><rect x="695.7670585995899" y="661.8912236953366" width="8.71192433608508" height="9.862053615008959" fill="#00f5d4" opacity="0.18986010538410864" rx="1"/><rect x="709.5909133671499" y="750.9855281796738" width="9.608442389780759" height="8.955319953839137" fill="#00bbf9" opacity="0.17672039456123495" rx="1"/><rect x="695.318799572742" y="755.4631881565933" width="9.608442389780759" height="8.955319953839137" fill="#00f5d4" opacity="0.08836019728061748" rx="1"/><rect x="781.2143367541867" y="528.2698793169739" width="47.598501117340874" height="306.74098015454155" fill="#03045e" opacity="0.6104035059712836" rx="2"/><rect x="800.7013280908692" y="538.2698793169739" width="8.624518443975719" height="6.375838833017237" fill="#00bbf9" opacity="0.1702689323970743" rx="1"/><rect x="788.8017028115339" y="541.4577987334825" width="8.624518443975719" height="6.375838833017237" fill="#00f5d4" opacity="0.08513446619853715" rx="1"/><rect x="799.8993325776531" y="640.5168727018211" width="10.22850947040797" height="6.793707026353504" fill="#00bbf9" opacity="0.31038860518261524" rx="1"/><rect x="787.9997072983178" y="643.9137262149978" width="10.22850947040797" height="6.793707026353504" fill="#00f5d4" opacity="0.15519430259130762" rx="1"/><rect x="802.6265962962002" y="742.7638660866683" width="4.773982033313714" height="7.279897321313596" fill="#00bbf9" opacity="0.1277267645643388" rx="1"/><rect x="790.7269710168649" y="746.4038147473251" width="4.773982033313714" height="7.279897321313596" fill="#00f5d4" opacity="0.0638633822821694" rx="1"/><rect x="862.2871350927501" y="500.7052843460592" width="70.31553768094525" height="334.30557512545624" fill="#03045e" opacity="0.528133961378628" rx="2"/><rect x="892.8934463515184" y="510.7052843460592" width="9.102915163408714" height="8.864351116787724" fill="#00bbf9" opacity="0.5517042367839498" rx="1"/><rect x="875.3145619312821" y="515.1374599044531" width="9.102915163408714" height="8.864351116787724" fill="#00f5d4" opacity="0.2758521183919749" rx="1"/><rect x="893.5799593471895" y="558.4632236496958" width="7.729889172066443" height="7.885725703529484" fill="#00bbf9" opacity="0.4985923209457175" rx="1"/><rect x="876.0010749269533" y="562.4060865014605" width="7.729889172066443" height="7.885725703529484" fill="#00f5d4" opacity="0.24929616047285874" rx="1"/><rect x="891.7148334177498" y="606.2211629533324" width="11.460141030945849" height="8.099642026727004" fill="#00bbf9" opacity="0.15153189798619876" rx="1"/><rect x="874.1359489975135" y="610.2709839666959" width="11.460141030945849" height="8.099642026727004" fill="#00f5d4" opacity="0.07576594899309938" rx="1"/><rect x="893.7001134132288" y="653.9791022569691" width="7.489581039987872" height="8.90154439464713" fill="#00bbf9" opacity="0.12513436030716038" rx="1"/><rect x="876.1212289929925" y="658.4298744542926" width="7.489581039987872" height="8.90154439464713" fill="#00f5d4" opacity="0.06256718015358019" rx="1"/><rect x="892.7332426980934" y="701.7370415606056" width="9.423322470258764" height="8.298014855547347" fill="#00bbf9" opacity="0.4737401623217715" rx="1"/><rect x="875.1543582778571" y="705.8860489883792" width="9.423322470258764" height="8.298014855547347" fill="#00f5d4" opacity="0.23687008116088576" rx="1"/><rect x="892.650732965269" y="749.4949808642423" width="9.58834193590757" height="8.073788466414854" fill="#00bbf9" opacity="0.1418566882242115" rx="1"/><rect x="875.0718485450327" y="753.5318750974498" width="9.58834193590757" height="8.073788466414854" fill="#00f5d4" opacity="0.07092834411210575" rx="1"/><rect x="892.9890953033691" y="797.2529201678789" width="8.911617259707214" height="9.957182339382634" fill="#00bbf9" opacity="0.1981429626928044" rx="1"/><rect x="875.4102108831328" y="802.2315113375702" width="8.911617259707214" height="9.957182339382634" fill="#00f5d4" opacity="0.0990714813464022" rx="1"/><rect x="924.4210437394889" y="679.9766897177269" width="49.215616485852664" height="155.03416975378855" fill="#000044" opacity="0.5400043837353597" rx="2"/><rect x="943.3088445470618" y="689.9766897177269" width="11.44001487070695" height="7.930582495855768" fill="#00bbf9" opacity="0.3332230381977798" rx="1"/><rect x="931.0049404255985" y="693.9419809656548" width="11.44001487070695" height="7.930582495855768" fill="#00f5d4" opacity="0.1666115190988899" rx="1"/><rect x="943.4957507414197" y="728.7352321561741" width="11.066202481991194" height="7.39996528751216" fill="#00bbf9" opacity="0.17575801528891505" rx="1"/><rect x="931.1918466199564" y="732.4352147999302" width="11.066202481991194" height="7.39996528751216" fill="#00f5d4" opacity="0.08787900764445752" rx="1"/><rect x="945.2972765274269" y="767.4937745946212" width="7.463150909976836" height="8.822120508836145" fill="#00bbf9" opacity="0.14991275480713528" rx="1"/><rect x="932.9933724059637" y="771.9048348490393" width="7.463150909976836" height="8.822120508836145" fill="#00f5d4" opacity="0.07495637740356764" rx="1"/><rect x="945.5580340622523" y="806.2523170330683" width="6.941635840325997" height="7.353150010424002" fill="#00bbf9" opacity="0.10687259750135071" rx="1"/><rect x="933.2541299407891" y="809.9288920382803" width="6.941635840325997" height="7.353150010424002" fill="#00f5d4" opacity="0.053436298750675355" rx="1"/><rect x="1020.5466624045924" y="746.2775268466858" width="50.88974346427474" height="88.73333262482969" fill="#03045e" opacity="0.6938589479294277" rx="2"/><rect x="1040.1469798642856" y="756.2775268466858" width="11.689108544888233" height="8.034072305549419" fill="#00bbf9" opacity="0.28345487704115335" rx="1"/><rect x="1027.424543998217" y="760.2945629994605" width="11.689108544888233" height="8.034072305549419" fill="#00f5d4" opacity="0.14172743852057668" rx="1"/><rect x="1042.055580024651" y="768.9537172216615" width="7.871908224157968" height="9.618386896238286" fill="#00bbf9" opacity="0.1597930763754512" rx="1"/><rect x="1029.3331441585822" y="773.7629106697806" width="7.871908224157968" height="9.618386896238286" fill="#00f5d4" opacity="0.0798965381877256" rx="1"/><rect x="1042.484670084113" y="781.629907596637" width="7.013728105233453" height="8.924871646548825" fill="#00bbf9" opacity="0.14670308193813617" rx="1"/><rect x="1029.7622342180443" y="786.0923434199115" width="7.013728105233453" height="8.924871646548825" fill="#00f5d4" opacity="0.07335154096906808" rx="1"/><rect x="1043.6965184234612" y="794.3060979716128" width="4.590031426537323" height="6.207025314729433" fill="#00bbf9" opacity="0.3687996030479669" rx="1"/><rect x="1030.9740825573924" y="797.4096106289775" width="4.590031426537323" height="6.207025314729433" fill="#00f5d4" opacity="0.18439980152398344" rx="1"/><rect x="1043.1621120481968" y="806.9822883465885" width="5.658844177066079" height="6.0697546117170145" fill="#00bbf9" opacity="0.2330053598231183" rx="1"/><rect x="1030.439676182128" y="810.0171656524469" width="5.658844177066079" height="6.0697546117170145" fill="#00f5d4" opacity="0.11650267991155915" rx="1"/><rect x="1042.2638342437322" y="819.658478721564" width="7.455399785995343" height="9.252425453451561" fill="#00bbf9" opacity="0.2513856142180473" rx="1"/><rect x="1029.5413983776634" y="824.2846914482898" width="7.455399785995343" height="9.252425453451561" fill="#00f5d4" opacity="0.12569280710902364" rx="1"/><rect x="1040.9523997099798" y="832.3346690965398" width="10.078268853500083" height="9.274522152560419" fill="#00bbf9" opacity="0.21453825459222736" rx="1"/><rect x="1028.229963843911" y="836.97193017282" width="10.078268853500083" height="9.274522152560419" fill="#00f5d4" opacity="0.10726912729611368" rx="1"/><rect x="1095.7143174212206" y="612.6080767048076" width="54.80067314226196" height="222.40278276670787" fill="#03045e" opacity="0.6523005566914335" rx="2"/><rect x="1118.526296536652" y="622.6080767048076" width="9.176714911399575" height="7.144884186132085" fill="#00bbf9" opacity="0.48856641992194727" rx="1"/><rect x="1104.8261282510864" y="626.1805187978736" width="9.176714911399575" height="7.144884186132085" fill="#00f5d4" opacity="0.24428320996097364" rx="1"/><rect x="1119.1920339198743" y="659.6752071659255" width="7.845240144954351" height="7.059561216519112" fill="#00bbf9" opacity="0.28974486137501543" rx="1"/><rect x="1105.4918656343089" y="663.204987774185" width="7.845240144954351" height="7.059561216519112" fill="#00f5d4" opacity="0.14487243068750771" rx="1"/><rect x="1120.3697964853516" y="696.7423376270435" width="5.489715013999891" height="9.89542317760536" fill="#00bbf9" opacity="0.4555803503504908" rx="1"/><rect x="1106.669628199786" y="701.6900492158462" width="5.489715013999891" height="9.89542317760536" fill="#00f5d4" opacity="0.2277901751752454" rx="1"/><rect x="1120.7137723423318" y="733.8094680881615" width="4.801763300039285" height="6.151582931203671" fill="#00bbf9" opacity="0.4455063314981541" rx="1"/><rect x="1107.0136040567663" y="736.8852595537633" width="4.801763300039285" height="6.151582931203671" fill="#00f5d4" opacity="0.22275316574907705" rx="1"/><rect x="1117.165765756638" y="770.8765985492795" width="11.897776471427125" height="8.301338630332923" fill="#00bbf9" opacity="0.37609612403346604" rx="1"/><rect x="1103.4655974710724" y="775.027267864446" width="11.897776471427125" height="8.301338630332923" fill="#00f5d4" opacity="0.18804806201673302" rx="1"/><rect x="1119.8324930999017" y="807.9437290103974" width="6.564321784899645" height="9.22160225995388" fill="#00bbf9" opacity="0.11027082745224956" rx="1"/><rect x="1106.1323248143362" y="812.5545301403744" width="6.564321784899645" height="9.22160225995388" fill="#00f5d4" opacity="0.05513541372612478" rx="1"/><rect x="1178.6970300190962" y="553.0596643111342" width="69.63663471854213" height="281.9511951603813" fill="#000044" opacity="0.6223533667676042" rx="2"/><rect x="1208.116355339244" y="563.0596643111342" width="10.797984078246632" height="8.968435901908306" fill="#00bbf9" opacity="0.37055935975410026" rx="1"/><rect x="1190.7071966596084" y="567.5438822620883" width="10.797984078246632" height="8.968435901908306" fill="#00f5d4" opacity="0.18527967987705013" rx="1"/><rect x="1208.6178454545488" y="598.3035637061819" width="9.79500384763698" height="6.740026558921679" fill="#00bbf9" opacity="0.2419955308414054" rx="1"/><rect x="1191.2086867749133" y="601.6735769856427" width="9.79500384763698" height="6.740026558921679" fill="#00f5d4" opacity="0.1209977654207027" rx="1"/><rect x="1210.6342595515973" y="633.5474631012295" width="5.762175653540105" height="8.919807324865788" fill="#00bbf9" opacity="0.1684690039065827" rx="1"/><rect x="1193.2251008719618" y="638.0073667636624" width="5.762175653540105" height="8.919807324865788" fill="#00f5d4" opacity="0.08423450195329135" rx="1"/><rect x="1211.2744680438018" y="668.7913624962771" width="4.4817586691309135" height="7.198971253167598" fill="#00bbf9" opacity="0.5477725279163039" rx="1"/><rect x="1193.8653093641663" y="672.3908481228609" width="4.4817586691309135" height="7.198971253167598" fill="#00f5d4" opacity="0.27388626395815197" rx="1"/><rect x="1210.8968652523004" y="704.0352618913248" width="5.2369642521340785" height="8.81262705354314" fill="#00bbf9" opacity="0.5145432677852323" rx="1"/><rect x="1193.4877065726648" y="708.4415754180964" width="5.2369642521340785" height="8.81262705354314" fill="#00f5d4" opacity="0.25727163389261615" rx="1"/><rect x="1209.4957112395548" y="739.2791612863725" width="8.039272277625109" height="6.0556824952493615" fill="#00bbf9" opacity="0.30930362579163717" rx="1"/><rect x="1192.0865525599193" y="742.3070025339972" width="8.039272277625109" height="6.0556824952493615" fill="#00f5d4" opacity="0.15465181289581859" rx="1"/><rect x="1209.844794069998" y="774.5230606814201" width="7.34110661673851" height="7.50484839954992" fill="#00bbf9" opacity="0.42411724196842804" rx="1"/><rect x="1192.4356353903624" y="778.2754848811951" width="7.34110661673851" height="7.50484839954992" fill="#00f5d4" opacity="0.21205862098421402" rx="1"/><rect x="1209.8596199197955" y="809.7669600764677" width="7.311454917143903" height="8.992330490376878" fill="#00bbf9" opacity="0.5992774825075822" rx="1"/><rect x="1192.45046124016" y="814.2631253216562" width="7.311454917143903" height="8.992330490376878" fill="#00f5d4" opacity="0.2996387412537911" rx="1"/><rect x="1281.7927751237773" y="515.1160019950745" width="87.92402253903542" height="319.89485747644096" fill="#000044" opacity="0.6226830877882157" rx="2"/><rect x="1320.9716684603795" y="525.1160019950745" width="9.566235865830965" height="9.388113310418118" fill="#00bbf9" opacity="0.4041837450126614" rx="1"/><rect x="1298.9906628256208" y="529.8100586502835" width="9.566235865830965" height="9.388113310418118" fill="#00f5d4" opacity="0.2020918725063307" rx="1"/><rect x="1323.6034272048894" y="570.8152673488518" width="4.3027183768112955" height="7.108271086846541" fill="#00bbf9" opacity="0.13035585222075596" rx="1"/><rect x="1301.6224215701307" y="574.369402892275" width="4.3027183768112955" height="7.108271086846541" fill="#00f5d4" opacity="0.06517792611037798" rx="1"/><rect x="1320.4142067943064" y="616.514532702629" width="10.681159197977083" height="7.457178142261034" fill="#00bbf9" opacity="0.5162012318652591" rx="1"/><rect x="1298.4332011595477" y="620.2431217737595" width="10.681159197977083" height="7.457178142261034" fill="#00f5d4" opacity="0.25810061593262956" rx="1"/><rect x="1323.4950444452484" y="662.2137980564064" width="4.519483896093323" height="9.543815025953533" fill="#00bbf9" opacity="0.2914265852401561" rx="1"/><rect x="1301.5140388104896" y="666.9857055693832" width="4.519483896093323" height="9.543815025953533" fill="#00f5d4" opacity="0.14571329262007804" rx="1"/><rect x="1323.277605147611" y="707.9130634101837" width="4.9543624913679345" height="8.541011443953266" fill="#00bbf9" opacity="0.2691709778199836" rx="1"/><rect x="1301.2965995128523" y="712.1835691321603" width="4.9543624913679345" height="8.541011443953266" fill="#00f5d4" opacity="0.1345854889099918" rx="1"/><rect x="1322.4596072587588" y="753.6123287639609" width="6.590358269072687" height="7.605870406517263" fill="#00bbf9" opacity="0.5405303821993364" rx="1"/><rect x="1300.478601624" y="757.4152639672195" width="6.590358269072687" height="7.605870406517263" fill="#00f5d4" opacity="0.2702651910996682" rx="1"/><rect x="1321.353373291033" y="799.3115941177382" width="8.802826204524102" height="9.095300350127578" fill="#00bbf9" opacity="0.2972606309450373" rx="1"/><rect x="1299.3723676562743" y="803.859244292802" width="8.802826204524102" height="9.095300350127578" fill="#00f5d4" opacity="0.14863031547251865" rx="1"/><rect x="1337.9703276558184" y="534.0698896986595" width="81.09045127199275" height="300.94096977285596" fill="#03045e" opacity="0.5420818084017565" rx="2"/><rect x="1373.899027828377" y="544.0698896986595" width="9.233050926875567" height="8.124172484065447" fill="#00bbf9" opacity="0.3332601810882939" rx="1"/><rect x="1353.6264150103789" y="548.1319759406922" width="9.233050926875567" height="8.124172484065447" fill="#00f5d4" opacity="0.16663009054414696" rx="1"/><rect x="1373.9686185869255" y="581.6875109202665" width="9.093869409778591" height="9.661153509202682" fill="#00bbf9" opacity="0.3645614814862054" rx="1"/><rect x="1353.6960057689273" y="586.5180876748678" width="9.093869409778591" height="9.661153509202682" fill="#00f5d4" opacity="0.1822807407431027" rx="1"/><rect x="1372.7905362723313" y="619.3051321418735" width="11.450034038966995" height="6.0481325294934525" fill="#00bbf9" opacity="0.1490220136821787" rx="1"/><rect x="1352.5179234543332" y="622.3291984066202" width="11.450034038966995" height="6.0481325294934525" fill="#00f5d4" opacity="0.07451100684108936" rx="1"/><rect x="1373.4787912659003" y="656.9227533634805" width="10.073524051828665" height="9.05571982987591" fill="#00bbf9" opacity="0.5789190898833142" rx="1"/><rect x="1353.2061784479022" y="661.4506132784185" width="10.073524051828665" height="9.05571982987591" fill="#00f5d4" opacity="0.2894595449416571" rx="1"/><rect x="1374.326081605046" y="694.5403745850874" width="8.378943373537377" height="8.01130264764915" fill="#00bbf9" opacity="0.17150534274324436" rx="1"/><rect x="1354.053468787048" y="698.546025908912" width="8.378943373537377" height="8.01130264764915" fill="#00f5d4" opacity="0.08575267137162218" rx="1"/><rect x="1373.2099870574623" y="732.1579958066945" width="10.611132468704863" height="8.42863261942487" fill="#00bbf9" opacity="0.3879159990204303" rx="1"/><rect x="1352.9373742394641" y="736.372312116407" width="10.611132468704863" height="8.42863261942487" fill="#00f5d4" opacity="0.19395799951021514" rx="1"/><rect x="1375.1604116517897" y="769.7756170283014" width="6.710283280049982" height="8.183524914594257" fill="#00bbf9" opacity="0.477231426275622" rx="1"/><rect x="1354.8877988337915" y="773.8673794855986" width="6.710283280049982" height="8.183524914594257" fill="#00f5d4" opacity="0.238615713137811" rx="1"/><rect x="1373.375411538535" y="807.3932382499084" width="10.280283506559275" height="7.185588380597902" fill="#00bbf9" opacity="0.5991806948089927" rx="1"/><rect x="1353.1027987205368" y="810.9860324402074" width="10.280283506559275" height="7.185588380597902" fill="#00f5d4" opacity="0.29959034740449636" rx="1"/><rect x="1425.4116263161054" y="504.1184556680075" width="58.39369459738808" height="330.89240380350793" fill="#000044" opacity="0.4539072672961995" rx="2"/><rect x="1451.3454508638895" y="514.1184556680075" width="6.526045501820288" height="6.759001862434438" fill="#00bbf9" opacity="0.21817596238529682" rx="1"/><rect x="1436.7470272145424" y="517.4979565992247" width="6.526045501820288" height="6.759001862434438" fill="#00f5d4" opacity="0.10908798119264841" rx="1"/><rect x="1451.354736081974" y="569.2671896352589" width="6.507475065651228" height="6.972442669089055" fill="#00bbf9" opacity="0.5073535738064334" rx="1"/><rect x="1436.7563124326268" y="572.7534109698034" width="6.507475065651228" height="6.972442669089055" fill="#00f5d4" opacity="0.2536767869032167" rx="1"/><rect x="1451.6060434801134" y="624.4159236025101" width="6.004860269372552" height="9.95717080029593" fill="#00bbf9" opacity="0.19219918693234195" rx="1"/><rect x="1437.0076198307663" y="629.3945090026581" width="6.004860269372552" height="9.95717080029593" fill="#00f5d4" opacity="0.09609959346617097" rx="1"/><rect x="1451.126735429876" y="679.5646575697615" width="6.963476369847422" height="6.025734442292185" fill="#00bbf9" opacity="0.4859322550440981" rx="1"/><rect x="1436.5283117805288" y="682.5775247909075" width="6.963476369847422" height="6.025734442292185" fill="#00f5d4" opacity="0.24296612752204905" rx="1"/><rect x="1450.8864373840208" y="734.7133915370129" width="7.4440724615575915" height="7.350317820289712" fill="#00bbf9" opacity="0.4648360938217575" rx="1"/><rect x="1436.2880137346738" y="738.3885504471577" width="7.4440724615575915" height="7.350317820289712" fill="#00f5d4" opacity="0.23241804691087875" rx="1"/><rect x="1452.0042778149802" y="789.8621255042642" width="5.208391599638478" height="9.189563087930335" fill="#00bbf9" opacity="0.1499403763213056" rx="1"/><rect x="1437.4058541656332" y="794.4569070482294" width="5.208391599638478" height="9.189563087930335" fill="#00f5d4" opacity="0.0749701881606528" rx="1"/><rect x="1511.2812975048967" y="648.2199941408401" width="55.71147359574947" height="186.79086533067536" fill="#000044" opacity="0.5537576751908655" rx="2"/><rect x="1536.3575776405758" y="658.2199941408401" width="5.5589133243912165" height="9.665515591312552" fill="#00bbf9" opacity="0.21295227429665448" rx="1"/><rect x="1522.4297092416384" y="663.0527519364963" width="5.5589133243912165" height="9.665515591312552" fill="#00f5d4" opacity="0.10647613714832724" rx="1"/><rect x="1534.4685216346206" y="720.4836159177319" width="9.337025336301192" height="9.984661687161928" fill="#00bbf9" opacity="0.4869276551732159" rx="1"/><rect x="1520.5406532356833" y="725.4759467613128" width="9.337025336301192" height="9.984661687161928" fill="#00f5d4" opacity="0.24346382758660795" rx="1"/><rect x="1533.7887875385313" y="782.7472376946237" width="10.696493528479825" height="8.203382818541346" fill="#00bbf9" opacity="0.5338131452523668" rx="1"/><rect x="1519.860919139594" y="786.8489291038943" width="10.696493528479825" height="8.203382818541346" fill="#00f5d4" opacity="0.2669065726261834" rx="1"/><rect x="1616.06651210995" y="718.7508203132895" width="73.87065513615279" height="116.260039158226" fill="#000044" opacity="0.44490467050226984" rx="2"/><rect x="1647.009567519875" y="728.7508203132895" width="11.984544316303111" height="7.459916819226908" fill="#00bbf9" opacity="0.3526063597185086" rx="1"/><rect x="1628.5419037358367" y="732.480778722903" width="11.984544316303111" height="7.459916819226908" fill="#00f5d4" opacity="0.1763031798592543" rx="1"/><rect x="1648.595583674161" y="757.815830102846" width="8.812512007731133" height="7.084989538668886" fill="#00bbf9" opacity="0.4473442253534087" rx="1"/><rect x="1630.1279198901227" y="761.3583248721804" width="8.812512007731133" height="7.084989538668886" fill="#00f5d4" opacity="0.22367211267670434" rx="1"/><rect x="1648.6817080543" y="786.8808398924025" width="8.640263247452737" height="6.870496933551156" fill="#00bbf9" opacity="0.5042124708425748" rx="1"/><rect x="1630.2140442702619" y="790.316088359178" width="8.640263247452737" height="6.870496933551156" fill="#00f5d4" opacity="0.2521062354212874" rx="1"/><rect x="1648.3009096137848" y="815.945849681959" width="9.401860128483236" height="7.083689901298771" fill="#00bbf9" opacity="0.3458702447465319" rx="1"/><rect x="1629.8332458297466" y="819.4876946326084" width="9.401860128483236" height="7.083689901298771" fill="#00f5d4" opacity="0.17293512237326594" rx="1"/><rect x="1680.503007775573" y="699.3487816535282" width="73.53049305815495" height="135.6620778179872" fill="#000044" opacity="0.6399149794224452" rx="2"/><rect x="1714.517516091637" y="709.3487816535282" width="5.501476426027128" height="9.908265580401817" fill="#00bbf9" opacity="0.45269483024084356" rx="1"/><rect x="1696.1348928270982" y="714.3029144437292" width="5.501476426027128" height="9.908265580401817" fill="#00f5d4" opacity="0.22634741512042178" rx="1"/><rect x="1713.7505165915861" y="754.569474259524" width="7.035475426128944" height="6.036060429186574" fill="#00bbf9" opacity="0.32755960450218047" rx="1"/><rect x="1695.3678933270473" y="757.5875044741173" width="7.035475426128944" height="6.036060429186574" fill="#00f5d4" opacity="0.16377980225109023" rx="1"/><rect x="1713.268999452583" y="799.7901668655197" width="7.998509704135012" height="7.997074727433984" fill="#00bbf9" opacity="0.36704283251125436" rx="1"/><rect x="1694.8863761880443" y="803.7887042292367" width="7.998509704135012" height="7.997074727433984" fill="#00f5d4" opacity="0.18352141625562718" rx="1"/><rect x="1775.4984164561556" y="632.3218968073655" width="67.84612589465597" height="202.68896266414993" fill="#000044" opacity="0.6458962217080165" rx="2"/><rect x="1805.3193673723836" y="642.3218968073655" width="8.204224062199756" height="7.459816914391661" fill="#00bbf9" opacity="0.42295127977220137" rx="1"/><rect x="1788.3578358987197" y="646.0518052645614" width="8.204224062199756" height="7.459816914391661" fill="#00f5d4" opacity="0.21147563988610069" rx="1"/><rect x="1804.1347261161106" y="671.2774629022441" width="10.57350657474564" height="8.027137686970443" fill="#00bbf9" opacity="0.5829473230016761" rx="1"/><rect x="1787.1731946424468" y="675.2910317457294" width="10.57350657474564" height="8.027137686970443" fill="#00f5d4" opacity="0.29147366150083803" rx="1"/><rect x="1806.608067281797" y="700.2330289971227" width="5.626824243372964" height="7.514638299475107" fill="#00bbf9" opacity="0.4416491975871961" rx="1"/><rect x="1789.6465358081332" y="703.9903481468602" width="5.626824243372964" height="7.514638299475107" fill="#00f5d4" opacity="0.22082459879359806" rx="1"/><rect x="1803.5388317708896" y="729.1885950920012" width="11.765295265187811" height="6.6122111130068575" fill="#00bbf9" opacity="0.168702441190533" rx="1"/><rect x="1786.5773002972257" y="732.4947006485046" width="11.765295265187811" height="6.6122111130068575" fill="#00f5d4" opacity="0.0843512205952665" rx="1"/><rect x="1805.1738377641075" y="758.1441611868797" width="8.495283278751952" height="6.118394387913494" fill="#00bbf9" opacity="0.46089995150940954" rx="1"/><rect x="1788.2123062904436" y="761.2033583808364" width="8.495283278751952" height="6.118394387913494" fill="#00f5d4" opacity="0.23044997575470477" rx="1"/><rect x="1807.3045683060266" y="787.0997272817583" width="4.233822194913826" height="6.3512924612386366" fill="#00bbf9" opacity="0.2470443662598367" rx="1"/><rect x="1790.3430368323627" y="790.2753735123777" width="4.233822194913826" height="6.3512924612386366" fill="#00f5d4" opacity="0.12352218312991835" rx="1"/><rect x="1806.6328157300852" y="816.0552933766369" width="5.577327346796479" height="7.252289434255168" fill="#00bbf9" opacity="0.5818893915465776" rx="1"/><rect x="1789.6712842564214" y="819.6814380937644" width="5.577327346796479" height="7.252289434255168" fill="#00f5d4" opacity="0.2909446957732888" rx="1"/><rect x="1840.611623055849" y="731.3465039551598" width="85.88663541616094" height="103.66435551635557" fill="#000044" opacity="0.654326419172419" rx="2"/><rect x="1881.0098497149881" y="741.3465039551598" width="5.090182097882541" height="9.792149105992202" fill="#00bbf9" opacity="0.1680841836305531" rx="1"/><rect x="1859.538190860948" y="746.2425785081559" width="5.090182097882541" height="9.792149105992202" fill="#00f5d4" opacity="0.08404209181527655" rx="1"/><rect x="1880.2939666591196" y="756.1556976003535" width="6.5219482096196035" height="6.677114274510442" fill="#00bbf9" opacity="0.16284341834551735" rx="1"/><rect x="1858.8223078050794" y="759.4942547376087" width="6.5219482096196035" height="6.677114274510442" fill="#00f5d4" opacity="0.08142170917275868" rx="1"/><rect x="1878.6383363346981" y="770.9648912455472" width="9.833208858462331" height="6.816352226961486" fill="#00bbf9" opacity="0.16367176015946822" rx="1"/><rect x="1857.1666774806579" y="774.3730673590279" width="9.833208858462331" height="6.816352226961486" fill="#00f5d4" opacity="0.08183588007973411" rx="1"/><rect x="1879.8684129832795" y="785.7740848907408" width="7.373055561299681" height="8.815132100790537" fill="#00bbf9" opacity="0.5432313558513372" rx="1"/><rect x="1858.3967541292393" y="790.1816509411361" width="7.373055561299681" height="8.815132100790537" fill="#00f5d4" opacity="0.2716156779256686" rx="1"/><rect x="1879.8443740295672" y="800.5832785359345" width="7.42113346872412" height="6.409755619338191" fill="#00bbf9" opacity="0.13974873224267476" rx="1"/><rect x="1858.372715175527" y="803.7881563456036" width="7.42113346872412" height="6.409755619338191" fill="#00f5d4" opacity="0.06987436612133738" rx="1"/><rect x="1881.465252601589" y="815.3924721811281" width="4.179376324680488" height="7.699501955346088" fill="#00bbf9" opacity="0.3273665986087561" rx="1"/><rect x="1859.9935937475489" y="819.2422231588012" width="4.179376324680488" height="7.699501955346088" fill="#00f5d4" opacity="0.16368329930437805" rx="1"/><rect x="1879.2601466872727" y="830.2016658263218" width="8.589588153313283" height="9.912311560453919" fill="#00bbf9" opacity="0.4306448242698435" rx="1"/><rect x="1857.7884878332325" y="835.1578216065487" width="8.589588153313283" height="9.912311560453919" fill="#00f5d4" opacity="0.21532241213492176" rx="1"/><path d="M1402.3947137879195 919.1269652031192 Q1408.658752457392 860.1262053905814 1409.9115601912865 801.1254455780437" stroke="#000011" stroke-width="7.465466180691837" fill="none" stroke-linecap="round"/><path d="M1409.9115601912865 801.1254455780437 Q1451.396105748228 781.1254455780437 1460.5800727090286 801.1254455780437" stroke="#00002b" stroke-width="2.0352669749491072" fill="none" stroke-linecap="round" opacity="0.6"/><path d="M1409.9115601912865 801.1254455780437 Q1438.7324060109431 786.4182444766559 1438.0506686869487 811.7110433752681" stroke="#00002b" stroke-width="2.8859246431118635" fill="none" stroke-linecap="round" opacity="0.6"/><path d="M1409.9115601912865 801.1254455780437 Q1421.41658319027 789.7899617655761 1396.727431667606 818.4544779531085" stroke="#00002b" stroke-width="3.2912577142220125" fill="none" stroke-linecap="round" opacity="0.6"/><path d="M1409.9115601912865 801.1254455780437 Q1389.0430661365529 785.4828307235391 1349.590203606436 809.8402158690344" stroke="#00002b" stroke-width="3.5995387936941206" fill="none" stroke-linecap="round" opacity="0.6"/><path d="M1409.9115601912865 801.1254455780437 Q1392.6928521134278 776.7756359434837 1349.6950750100852 792.4258263089238" stroke="#00002b" stroke-width="2.598540999134663" fill="none" stroke-linecap="round" opacity="0.6"/><path d="M1225.4829367868329 938.974215751275 Q1233.068925685498 838.0214343750899 1234.5861234652311 737.0686529989048" stroke="#000011" stroke-width="7.441319970283965" fill="none" stroke-linecap="round"/><path d="M1234.5861234652311 737.0686529989048 Q1266.7285265519115 717.0686529989048 1294.110564896397 737.0686529989048" stroke="#00002b" stroke-width="2.444287417559951" fill="none" stroke-linecap="round" opacity="0.6"/><path d="M1234.5861234652311 737.0686529989048 Q1261.3048164851393 725.4535647821783 1279.1644169004787 753.8384765654519" stroke="#00002b" stroke-width="3.41743057487007" fill="none" stroke-linecap="round" opacity="0.6"/><path d="M1234.5861234652311 737.0686529989048 Q1230.5460178085357 725.910098916172 1221.1327745666333 754.7515448334392" stroke="#00002b" stroke-width="2.5807741662908286" fill="none" stroke-linecap="round" opacity="0.6"/><path d="M1234.5861234652311 737.0686529989048 Q1213.4455330929259 721.3867141032613 1174.8091482992104 745.7047752076179" stroke="#00002b" stroke-width="3.5729886362266234" fill="none" stroke-linecap="round" opacity="0.6"/><path d="M1234.5861234652311 737.0686529989048 Q1211.1012505873416 712.5378439983618 1171.8639779091648 728.0070349978189" stroke="#00002b" stroke-width="3.2542126651979544" fill="none" stroke-linecap="round" opacity="0.6"/><path d="M1234.5861234652311 737.0686529989048 Q1231.592348839406 705.7950268203522 1217.4319127454405 714.5214006417996" stroke="#00002b" stroke-width="2.102019449254037" fill="none" stroke-linecap="round" opacity="0.6"/><path d="M748.8562883690131 813.080204257993 Q729.6779491728354 723.2212666243364 725.8422813335998 633.3623289906798" stroke="#000011" stroke-width="4.443765221266952" fill="none" stroke-linecap="round"/><path d="M725.8422813335998 633.3623289906798 Q776.7341083748579 613.3623289906798 792.9306907343982 633.3623289906798" stroke="#00002b" stroke-width="2.5465995088560973" fill="none" stroke-linecap="round" opacity="0.6"/><path d="M725.8422813335998 633.3623289906798 Q742.4271955206038 618.5815573488221 753.5902528410588 643.8007857069643" stroke="#00002b" stroke-width="3.310850938621641" fill="none" stroke-linecap="round" opacity="0.6"/><path d="M725.8422813335998 633.3623289906798 Q737.6010969113973 623.4516086817347 710.4901996617308 653.5408883727896" stroke="#00002b" stroke-width="2.699919469817523" fill="none" stroke-linecap="round" opacity="0.6"/><path d="M725.8422813335998 633.3623289906798 Q719.6261649476573 615.6777263088658 693.7891341817372 637.9931236270518" stroke="#00002b" stroke-width="2.751828788954725" fill="none" stroke-linecap="round" opacity="0.6"/><path d="M725.8422813335998 633.3623289906798 Q702.6844186840423 609.128571647566 667.2323632611262 624.8948143044522" stroke="#00002b" stroke-width="3.530277352670738" fill="none" stroke-linecap="round" opacity="0.6"/><path d="M725.8422813335998 633.3623289906798 Q730.4913282989246 607.8051603515015 717.3863648137462 622.2479917123233" stroke="#00002b" stroke-width="3.2288591608472306" fill="none" stroke-linecap="round" opacity="0.6"/><path d="M725.8422813335998 633.3623289906798 Q758.4931985767472 607.8021706925189 755.4028032053129 622.242012394358" stroke="#00002b" stroke-width="3.873625216510525" fill="none" stroke-linecap="round" opacity="0.6"/><path d="M372.1986102434338 883.5687876175085 Q360.3142168606432 765.4520286632358 357.9373381840851 647.335269708963" stroke="#000011" stroke-width="4.012607689018503" fill="none" stroke-linecap="round"/><path d="M357.9373381840851 647.335269708963 Q408.01663403818776 627.335269708963 434.8504564945704 647.335269708963" stroke="#00002b" stroke-width="2.2859455622467086" fill="none" stroke-linecap="round" opacity="0.6"/><path d="M357.9373381840851 647.335269708963 Q387.4762570139165 631.117200237166 378.0439312163776 654.899130765369" stroke="#00002b" stroke-width="3.3015687696872207" fill="none" stroke-linecap="round" opacity="0.6"/><path d="M357.9373381840851 647.335269708963 Q365.1010898755901 632.5090840927742 350.06474237867974 657.6828984765854" stroke="#00002b" stroke-width="3.151281852077526" fill="none" stroke-linecap="round" opacity="0.6"/><path d="M357.9373381840851 647.335269708963 Q338.1790777851648 631.5031876024626 300.23886695069405 655.6711054959623" stroke="#00002b" stroke-width="3.961995855896267" fill="none" stroke-linecap="round" opacity="0.6"/><path d="M357.9373381840851 647.335269708963 Q348.9109247747016 624.1429459444809 313.74448083919503 640.9506221799987" stroke="#00002b" stroke-width="3.2156301306597026" fill="none" stroke-linecap="round" opacity="0.6"/><path d="M357.9373381840851 647.335269708963 Q361.41057515310615 622.7921589366733 351.0244356027071 638.2490481643838" stroke="#00002b" stroke-width="2.6359314067838553" fill="none" stroke-linecap="round" opacity="0.6"/><path d="M357.9373381840851 647.335269708963 Q377.3212560829844 622.8568152519778 381.7469932025351 638.3783607949925" stroke="#00002b" stroke-width="2.6192273401234365" fill="none" stroke-linecap="round" opacity="0.6"/><path d="M296.07924796083927 794.775650858594 Q304.86137828902844 685.8220880759931 306.61780435466625 576.8685252933922" stroke="#000011" stroke-width="7.57553849452537" fill="none" stroke-linecap="round"/><path d="M306.61780435466625 576.8685252933922 Q337.3894259520782 556.8685252933922 336.6874562238081 576.8685252933922" stroke="#00002b" stroke-width="2.1559725026963212" fill="none" stroke-linecap="round" opacity="0.6"/><path d="M306.61780435466625 576.8685252933922 Q346.905628806672 565.9477218398697 354.887255276325 595.0269183863471" stroke="#00002b" stroke-width="2.2959468696024143" fill="none" stroke-linecap="round" opacity="0.6"/><path d="M306.61780435466625 576.8685252933922 Q317.68525815478455 565.1292696825748 294.04806435175976 593.3900140717574" stroke="#00002b" stroke-width="2.91368685730586" fill="none" stroke-linecap="round" opacity="0.6"/><path d="M306.61780435466625 576.8685252933922 Q301.53120437710123 560.010729088579 263.1187816006923 583.1529328837656" stroke="#00002b" stroke-width="2.9140603316282063" fill="none" stroke-linecap="round" opacity="0.6"/><path d="M306.61780435466625 576.8685252933922 Q276.9808022908771 552.1234930221128 240.9300640964151 567.3784607508336" stroke="#00002b" stroke-width="2.24454308632867" fill="none" stroke-linecap="round" opacity="0.6"/><path d="M306.61780435466625 576.8685252933922 Q317.5485150742481 550.8336000373313 297.43492230047815 564.7986747812703" stroke="#00002b" stroke-width="2.99109850474426" fill="none" stroke-linecap="round" opacity="0.6"/><rect x="0" y="1000" width="1920" height="80" fill="#000038" opacity="0.8"/><line x1="0" y1="1040" x2="1920" y2="1040" stroke="#00bbf9" stroke-opacity="0.15" stroke-width="2" stroke-dasharray="30,20"/><rect x="0" y="930" width="1920" height="150" fill="url(#glow58)"/><rect x="0" y="980" width="1920" height="100" fill="#00bbf9" opacity="0.04"/><rect x="1688.6636964438167" y="1041.5208432314732" width="40.064452993698524" height="2" fill="#00f5d4" opacity="0.022760259239645735" rx="1"/><rect x="216.4446965363912" y="1045.3326471953962" width="77.97045635012222" height="2" fill="#00f5d4" opacity="0.05601308789011396" rx="1"/><rect x="518.6765224949169" y="1045.7117081772797" width="36.60250560767076" height="2" fill="#00f5d4" opacity="0.0447211530303399" rx="1"/><rect x="781.6199976535561" y="1002.1387470192599" width="66.0867549632878" height="2" fill="#00f5d4" opacity="0.04007839652245827" rx="1"/><rect x="297.4643268383723" y="1005.766873156132" width="41.612593722905174" height="2" fill="#00f5d4" opacity="0.04900548869487957" rx="1"/><rect x="211.05290119793565" y="1051.7450214716944" width="103.87890404180598" height="2" fill="#00f5d4" opacity="0.02270295236322632" rx="1"/><rect x="845.0276637554699" y="1016.2053109184385" width="45.30675021123764" height="2" fill="#00f5d4" opacity="0.05878033891291831" rx="1"/><rect x="1861.4529718322337" y="1024.4039788014265" width="47.321569488225876" height="2" fill="#00f5d4" opacity="0.02543765631630962" rx="1"/><rect x="1348.592131600853" y="1026.5795404106796" width="110.21468823547816" height="2" fill="#00f5d4" opacity="0.05255679125724286" rx="1"/><rect x="647.7013744431783" y="1027.8150192619803" width="56.538847241676145" height="2" fill="#00f5d4" opacity="0.04755059485965189" rx="1"/><rect x="1192.3840269242376" y="1030.611621376735" width="21.65000262242975" height="2" fill="#00f5d4" opacity="0.046866515760046086" rx="1"/><rect x="1199.1728012075582" y="1049.7871146420453" width="79.28657356633028" height="2" fill="#00f5d4" opacity="0.04160474477838835" rx="1"/><rect x="803.423980959557" y="1043.0505085138257" width="114.05973637338256" height="2" fill="#00f5d4" opacity="0.031288395908495505" rx="1"/><rect x="788.8973215569036" y="1002.1973045035725" width="60.189373944930125" height="2" fill="#00f5d4" opacity="0.02483229943663634" rx="1"/><rect x="1161.700815083855" y="1004.8825704131468" width="93.80391219020912" height="2" fill="#00f5d4" opacity="0.05252456216898853" rx="1"/><rect x="307.7410971344777" y="1004.2737984574106" width="116.0544225517787" height="2" fill="#00f5d4" opacity="0.05419814184172968" rx="1"/><rect x="1312.5148798601037" y="1054.2925646096219" width="97.72478609758541" height="2" fill="#00f5d4" opacity="0.03346751215249941" rx="1"/><rect x="1461.186244976983" y="1058.6695703907567" width="83.41100394805218" height="2" fill="#00f5d4" opacity="0.02184868576048144" rx="1"/><rect x="1160.3524739761726" y="1010.8289710550637" width="104.65686984934305" height="2" fill="#00f5d4" opacity="0.03232949883032812" rx="1"/><rect x="1247.7142219170264" y="1021.7496272646239" width="86.57816694736903" height="2" fill="#00f5d4" opacity="0.05887522565174737" rx="1"/><rect x="1910.47443777101" y="1058.65482096529" width="61.47514566813483" height="2" fill="#00f5d4" opacity="0.054214745963507976" rx="1"/><rect x="1027.689884544278" y="1058.3909909237154" width="109.1019387378129" height="2" fill="#00f5d4" opacity="0.05145820635172031" rx="1"/><rect x="1060.9939306464498" y="1039.884902792956" width="103.9566544359449" height="2" fill="#00f5d4" opacity="0.020319490544572355" rx="1"/><rect x="1108.5235349434715" y="1053.9790158425408" width="47.10493694224975" height="2" fill="#00f5d4" opacity="0.04930506638002234" rx="1"/><rect x="1421.2347694070158" y="1046.4805610446447" width="87.64495851650018" height="2" fill="#00f5d4" opacity="0.05167332914464021" rx="1"/><rect x="960.583684221046" y="1054.8950060631369" width="31.987089298662518" height="2" fill="#00f5d4" opacity="0.0514108826013773" rx="1"/><rect x="1768.2300920431107" y="1040.1334484340935" width="48.63902298934735" height="2" fill="#00f5d4" opacity="0.043027577163425174" rx="1"/><rect x="600.9364084808474" y="1038.4839763628515" width="97.81977520273527" height="2" fill="#00f5d4" opacity="0.030905724421820074" rx="1"/><rect x="1657.8528427467338" y="1024.745647694158" width="101.04916642910082" height="2" fill="#00f5d4" opacity="0.03290426356087073" rx="1"/><rect x="1452.4139722093041" y="1041.9254546151324" width="80.28397783177998" height="2" fill="#00f5d4" opacity="0.04919074004264333" rx="1"/><text x="1900" y="1060" font-family="Arial, sans-serif" font-size="11" fill="#fff" opacity="0.08" text-anchor="end" letter-spacing="2">GTA 6 REWARDS · WALLPAPER 059</text>
</svg>