<?xml version="1.0" encoding="UTF-8"?>
<svg xmlns="http://www.w3.org/2000/svg" width="1920" height="1080" viewBox="0 0 1920 1080">
<defs>
    <linearGradient id="bg36" x1="0%" y1="0%" x2="0%" y2="100%">
      <stop offset="0%" stop-color="#003d00"/>
      <stop offset="50%" stop-color="#000a00"/>
      <stop offset="100%" stop-color="#003d00"/>
    </linearGradient>
    <linearGradient id="sun36" x1="0%" y1="0%" x2="100%" y2="100%">
      <stop offset="0%" stop-color="#38b000"/>
      <stop offset="100%" stop-color="#008000"/>
    </linearGradient>
    <radialGradient id="glow36" cx="50%" cy="70%" r="50%">
      <stop offset="0%" stop-color="#38b000" stop-opacity="0.3"/>
      <stop offset="100%" stop-color="#003d00" stop-opacity="0"/>
    </radialGradient>
  </defs><rect width="1920" height="1080" fill="url(#bg36)"/><circle cx="1431.2120287518976" cy="301.92473570395373" r="648.891807172655" fill="#38b000" opacity="0.13151301105541946"/><circle cx="1631.2120287518976" cy="201.92473570395373" r="570.4618469743202" fill="#008000" opacity="0.0968063715209268"/><circle cx="1218.48138815688" cy="210.087436451597" r="98.5307924818552" fill="url(#sun36)" opacity="0.7560877098133991"/><circle cx="1218.48138815688" cy="210.087436451597" r="93.5307924818552" fill="#003d00" opacity="0.3"/><line x1="0" y1="0" x2="0" y2="1080" stroke="#38b000" stroke-opacity="0.06787621232631527" stroke-width="0.5"/><line x1="43" y1="0" x2="43" y2="1080" stroke="#38b000" stroke-opacity="0.06787621232631527" stroke-width="0.5"/><line x1="86" y1="0" x2="86" y2="1080" stroke="#38b000" stroke-opacity="0.06787621232631527" stroke-width="0.5"/><line x1="129" y1="0" x2="129" y2="1080" stroke="#38b000" stroke-opacity="0.06787621232631527" stroke-width="0.5"/><line x1="172" y1="0" x2="172" y2="1080" stroke="#38b000" stroke-opacity="0.06787621232631527" stroke-width="0.5"/><line x1="215" y1="0" x2="215" y2="1080" stroke="#38b000" stroke-opacity="0.06787621232631527" stroke-width="0.5"/><line x1="258" y1="0" x2="258" y2="1080" stroke="#38b000" stroke-opacity="0.06787621232631527" stroke-width="0.5"/><line x1="301" y1="0" x2="301" y2="1080" stroke="#38b000" stroke-opacity="0.06787621232631527" stroke-width="0.5"/><line x1="344" y1="0" x2="344" y2="1080" stroke="#38b000" stroke-opacity="0.06787621232631527" stroke-width="0.5"/><line x1="387" y1="0" x2="387" y2="1080" stroke="#38b000" stroke-opacity="0.06787621232631527" stroke-width="0.5"/><line x1="430" y1="0" x2="430" y2="1080" stroke="#38b000" stroke-opacity="0.06787621232631527" stroke-width="0.5"/><line x1="473" y1="0" x2="473" y2="1080" stroke="#38b000" stroke-opacity="0.06787621232631527" stroke-width="0.5"/><line x1="516" y1="0" x2="516" y2="1080" stroke="#38b000" stroke-opacity="0.06787621232631527" stroke-width="0.5"/><line x1="559" y1="0" x2="559" y2="1080" stroke="#38b000" stroke-opacity="0.06787621232631527" stroke-width="0.5"/><line x1="602" y1="0" x2="602" y2="1080" stroke="#38b000" stroke-opacity="0.06787621232631527" stroke-width="0.5"/><line x1="645" y1="0" x2="645" y2="1080" stroke="#38b000" stroke-opacity="0.06787621232631527" stroke-width="0.5"/><line x1="688" y1="0" x2="688" y2="1080" stroke="#38b000" stroke-opacity="0.06787621232631527" stroke-width="0.5"/><line x1="731" y1="0" x2="731" y2="1080" stroke="#38b000" stroke-opacity="0.06787621232631527" stroke-width="0.5"/><line x1="774" y1="0" x2="774" y2="1080" stroke="#38b000" stroke-opacity="0.06787621232631527" stroke-width="0.5"/><line x1="817" y1="0" x2="817" y2="1080" stroke="#38b000" stroke-opacity="0.06787621232631527" stroke-width="0.5"/><line x1="860" y1="0" x2="860" y2="1080" stroke="#38b000" stroke-opacity="0.06787621232631527" stroke-width="0.5"/><line x1="903" y1="0" x2="903" y2="1080" stroke="#38b000" stroke-opacity="0.06787621232631527" stroke-width="0.5"/><line x1="946" y1="0" x2="946" y2="1080" stroke="#38b000" stroke-opacity="0.06787621232631527" stroke-width="0.5"/><line x1="989" y1="0" x2="989" y2="1080" stroke="#38b000" stroke-opacity="0.06787621232631527" stroke-width="0.5"/><line x1="1032" y1="0" x2="1032" y2="1080" stroke="#38b000" stroke-opacity="0.06787621232631527" stroke-width="0.5"/><line x1="1075" y1="0" x2="1075" y2="1080" stroke="#38b000" stroke-opacity="0.06787621232631527" stroke-width="0.5"/><line x1="1118" y1="0" x2="1118" y2="1080" stroke="#38b000" stroke-opacity="0.06787621232631527" stroke-width="0.5"/><line x1="1161" y1="0" x2="1161" y2="1080" stroke="#38b000" stroke-opacity="0.06787621232631527" stroke-width="0.5"/><line x1="1204" y1="0" x2="1204" y2="1080" stroke="#38b000" stroke-opacity="0.06787621232631527" stroke-width="0.5"/><line x1="1247" y1="0" x2="1247" y2="1080" stroke="#38b000" stroke-opacity="0.06787621232631527" stroke-width="0.5"/><line x1="1290" y1="0" x2="1290" y2="1080" stroke="#38b000" stroke-opacity="0.06787621232631527" stroke-width="0.5"/><line x1="1333" y1="0" x2="1333" y2="1080" stroke="#38b000" stroke-opacity="0.06787621232631527" stroke-width="0.5"/><line x1="1376" y1="0" x2="1376" y2="1080" stroke="#38b000" stroke-opacity="0.06787621232631527" stroke-width="0.5"/><line x1="1419" y1="0" x2="1419" y2="1080" stroke="#38b000" stroke-opacity="0.06787621232631527" stroke-width="0.5"/><line x1="1462" y1="0" x2="1462" y2="1080" stroke="#38b000" stroke-opacity="0.06787621232631527" stroke-width="0.5"/><line x1="1505" y1="0" x2="1505" y2="1080" stroke="#38b000" stroke-opacity="0.06787621232631527" stroke-width="0.5"/><line x1="1548" y1="0" x2="1548" y2="1080" stroke="#38b000" stroke-opacity="0.06787621232631527" stroke-width="0.5"/><line x1="1591" y1="0" x2="1591" y2="1080" stroke="#38b000" stroke-opacity="0.06787621232631527" stroke-width="0.5"/><line x1="1634" y1="0" x2="1634" y2="1080" stroke="#38b000" stroke-opacity="0.06787621232631527" stroke-width="0.5"/><line x1="1677" y1="0" x2="1677" y2="1080" stroke="#38b000" stroke-opacity="0.06787621232631527" stroke-width="0.5"/><line x1="1720" y1="0" x2="1720" y2="1080" stroke="#38b000" stroke-opacity="0.06787621232631527" stroke-width="0.5"/><line x1="1763" y1="0" x2="1763" y2="1080" stroke="#38b000" stroke-opacity="0.06787621232631527" stroke-width="0.5"/><line x1="1806" y1="0" x2="1806" y2="1080" stroke="#38b000" stroke-opacity="0.06787621232631527" stroke-width="0.5"/><line x1="1849" y1="0" x2="1849" y2="1080" stroke="#38b000" stroke-opacity="0.06787621232631527" stroke-width="0.5"/><line x1="1892" y1="0" x2="1892" y2="1080" stroke="#38b000" stroke-opacity="0.06787621232631527" stroke-width="0.5"/><line x1="0" y1="0" x2="1920" y2="0" stroke="#38b000" stroke-opacity="0.06787621232631527" stroke-width="0.5"/><line x1="0" y1="43" x2="1920" y2="43" stroke="#38b000" stroke-opacity="0.06787621232631527" stroke-width="0.5"/><line x1="0" y1="86" x2="1920" y2="86" stroke="#38b000" stroke-opacity="0.06787621232631527" stroke-width="0.5"/><line x1="0" y1="129" x2="1920" y2="129" stroke="#38b000" stroke-opacity="0.06787621232631527" stroke-width="0.5"/><line x1="0" y1="172" x2="1920" y2="172" stroke="#38b000" stroke-opacity="0.06787621232631527" stroke-width="0.5"/><line x1="0" y1="215" x2="1920" y2="215" stroke="#38b000" stroke-opacity="0.06787621232631527" stroke-width="0.5"/><line x1="0" y1="258" x2="1920" y2="258" stroke="#38b000" stroke-opacity="0.06787621232631527" stroke-width="0.5"/><line x1="0" y1="301" x2="1920" y2="301" stroke="#38b000" stroke-opacity="0.06787621232631527" stroke-width="0.5"/><line x1="0" y1="344" x2="1920" y2="344" stroke="#38b000" stroke-opacity="0.06787621232631527" stroke-width="0.5"/><line x1="0" y1="387" x2="1920" y2="387" stroke="#38b000" stroke-opacity="0.06787621232631527" stroke-width="0.5"/><line x1="0" y1="430" x2="1920" y2="430" stroke="#38b000" stroke-opacity="0.06787621232631527" stroke-width="0.5"/><line x1="0" y1="473" x2="1920" y2="473" stroke="#38b000" stroke-opacity="0.06787621232631527" stroke-width="0.5"/><line x1="0" y1="516" x2="1920" y2="516" stroke="#38b000" stroke-opacity="0.06787621232631527" stroke-width="0.5"/><line x1="0" y1="559" x2="1920" y2="559" stroke="#38b000" stroke-opacity="0.06787621232631527" stroke-width="0.5"/><line x1="0" y1="602" x2="1920" y2="602" stroke="#38b000" stroke-opacity="0.06787621232631527" stroke-width="0.5"/><line x1="0" y1="645" x2="1920" y2="645" stroke="#38b000" stroke-opacity="0.06787621232631527" stroke-width="0.5"/><line x1="0" y1="688" x2="1920" y2="688" stroke="#38b000" stroke-opacity="0.06787621232631527" stroke-width="0.5"/><line x1="0" y1="731" x2="1920" y2="731" stroke="#38b000" stroke-opacity="0.06787621232631527" stroke-width="0.5"/><line x1="0" y1="774" x2="1920" y2="774" stroke="#38b000" stroke-opacity="0.06787621232631527" stroke-width="0.5"/><line x1="0" y1="817" x2="1920" y2="817" stroke="#38b000" stroke-opacity="0.06787621232631527" stroke-width="0.5"/><line x1="0" y1="860" x2="1920" y2="860" stroke="#38b000" stroke-opacity="0.06787621232631527" stroke-width="0.5"/><line x1="0" y1="903" x2="1920" y2="903" stroke="#38b000" stroke-opacity="0.06787621232631527" stroke-width="0.5"/><line x1="0" y1="946" x2="1920" y2="946" stroke="#38b000" stroke-opacity="0.06787621232631527" stroke-width="0.5"/><line x1="0" y1="989" x2="1920" y2="989" stroke="#38b000" stroke-opacity="0.06787621232631527" stroke-width="0.5"/><line x1="0" y1="1032" x2="1920" y2="1032" stroke="#38b000" stroke-opacity="0.06787621232631527" stroke-width="0.5"/><line x1="0" y1="1075" x2="1920" y2="1075" stroke="#38b000" stroke-opacity="0.06787621232631527" stroke-width="0.5"/><rect x="0" y="1000" width="1920" height="80" fill="#001700" opacity="0.8"/><line x1="0" y1="1040" x2="1920" y2="1040" stroke="#008000" stroke-opacity="0.15" stroke-width="2" stroke-dasharray="30,20"/><rect x="0" y="930" width="1920" height="150" fill="url(#glow36)"/><text x="1900" y="1060" font-family="Arial, sans-serif" font-size="11" fill="#fff" opacity="0.08" text-anchor="end" letter-spacing="2">GTA 6 REWARDS · WALLPAPER 037</text>
</svg>