<?xml version="1.0" encoding="UTF-8"?>
<svg xmlns="http://www.w3.org/2000/svg" width="1920" height="1080" viewBox="0 0 1920 1080">
<defs>
    <linearGradient id="bg28" x1="0%" y1="0%" x2="0%" y2="100%">
      <stop offset="0%" stop-color="#352f44"/>
      <stop offset="50%" stop-color="#020011"/>
      <stop offset="100%" stop-color="#352f44"/>
    </linearGradient>
    <linearGradient id="sun28" x1="0%" y1="0%" x2="100%" y2="100%">
      <stop offset="0%" stop-color="#ff577f"/>
      <stop offset="100%" stop-color="#ff884b"/>
    </linearGradient>
    <radialGradient id="glow28" cx="50%" cy="70%" r="50%">
      <stop offset="0%" stop-color="#ff577f" stop-opacity="0.3"/>
      <stop offset="100%" stop-color="#352f44" stop-opacity="0"/>
    </radialGradient>
  </defs><rect width="1920" height="1080" fill="url(#bg28)"/><circle cx="1147.6598632632895" cy="494.9766354390831" r="824.150522524526" fill="#ff577f" opacity="0.0775174876040587"/><circle cx="1347.6598632632895" cy="394.9766354390831" r="456.78793030250534" fill="#ff884b" opacity="0.08441731070038334"/><circle cx="1457.4438711529235" cy="280.2967314213274" r="63.28179524356541" fill="url(#sun28)" opacity="0.8762066379134092"/><circle cx="1457.4438711529235" cy="280.2967314213274" r="58.28179524356541" fill="#352f44" opacity="0.3"/><pattern id="scan28" width="1920" height="4" patternUnits="userSpaceOnUse">
      <line x1="0" y1="0" x2="1920" y2="0" stroke="#000" stroke-opacity="0.05" stroke-width="1"/>
    </pattern>
    <rect width="1920" height="1080" fill="url(#scan28)"/><circle cx="120.57825568145566" cy="140.76194232626864" r="1.8757206506272128" fill="#fff" opacity="0.725875926745561"/><circle cx="87.01106520532889" cy="94.95542664056538" r="1.948901217884594" fill="#fff" opacity="0.3052412408649086"/><circle cx="641.5802457932336" cy="119.65854672893381" r="1.129606207397209" fill="#fff" opacity="0.6956644018403404"/><circle cx="476.56565096149353" cy="372.9651379373309" r="0.9213853942745797" fill="#fff" opacity="0.655206507270971"/><circle cx="1166.7952830825923" cy="58.73577356215934" r="1.1146830537157792" fill="#fff" opacity="0.6123392551700443"/><circle cx="1352.8595493903522" cy="23.74634334252829" r="1.8545912396755515" fill="#fff" opacity="0.6826292916859102"/><circle cx="1722.7454159694596" cy="304.1813223138874" r="0.7361531600440278" fill="#fff" opacity="0.41929744962120835"/><circle cx="1543.5643815117805" cy="297.34441109591734" r="1.492726911905391" fill="#fff" opacity="0.6208198710393207"/><circle cx="1016.3825228196529" cy="115.54584996484822" r="1.1475605586654414" fill="#fff" opacity="0.281979657030194"/><circle cx="522.2669775509897" cy="318.0563557888512" r="0.9257759811416678" fill="#fff" opacity="0.5193802339768456"/><circle cx="788.1598374592512" cy="323.61761409873554" r="1.9016143636316094" fill="#fff" opacity="0.39663790576081676"/><circle cx="1028.9260073911694" cy="358.15199488544647" r="1.249324181990075" fill="#fff" opacity="0.7738466692096195"/><circle cx="191.51205499458874" cy="285.2912730903577" r="0.7460378029490908" fill="#fff" opacity="0.7764028022476479"/><circle cx="798.2842435311258" cy="26.125734380009987" r="1.3306103555556876" fill="#fff" opacity="0.6546250125986117"/><circle cx="606.1866685669372" cy="200.88536557389548" r="1.8846976046647639" fill="#fff" opacity="0.43037554799355"/><circle cx="1721.3994727566371" cy="411.0202065284877" r="0.6384269678123358" fill="#fff" opacity="0.5483841262637601"/><circle cx="1252.3832330043388" cy="61.11366249553712" r="1.3030424415606638" fill="#fff" opacity="0.7843645640612498"/><circle cx="101.41737925387392" cy="104.21317244512336" r="1.8192252905152797" fill="#fff" opacity="0.20068765063786126"/><circle cx="465.1690668950717" cy="327.8194667864171" r="1.3797803293866524" fill="#fff" opacity="0.6658132530902077"/><circle cx="671.7363016381246" cy="117.93601282079145" r="1.9755830250157935" fill="#fff" opacity="0.6751186981040795"/><circle cx="1696.3132953122986" cy="268.2887385739686" r="1.4992263024903896" fill="#fff" opacity="0.3342599193878146"/><circle cx="688.8379831725821" cy="79.37198601648491" r="1.8237685656230358" fill="#fff" opacity="0.4556852336636943"/><circle cx="1242.7857236477512" cy="112.16330413896668" r="1.6360119780609412" fill="#fff" opacity="0.6380087982951684"/><circle cx="819.4018629611008" cy="430.85165851163947" r="1.5276243151229862" fill="#fff" opacity="0.3916532452198801"/><circle cx="1205.8667120164882" cy="13.62877701540216" r="1.6873266860347536" fill="#fff" opacity="0.5169038762610647"/><circle cx="1070.3487170744568" cy="52.812694241482" r="1.245116889533847" fill="#fff" opacity="0.2976236643031295"/><circle cx="1836.0478542549647" cy="185.56313858031368" r="0.5775441993208472" fill="#fff" opacity="0.3403722521244483"/><circle cx="1220.6205549697904" cy="300.98081955615913" r="1.5373108391736894" fill="#fff" opacity="0.4916265459944556"/><circle cx="1645.1699083403614" cy="30.191750045444756" r="0.8913531378822758" fill="#fff" opacity="0.509997200618963"/><circle cx="1473.6110400114235" cy="96.55439664436373" r="0.6254490607244543" fill="#fff" opacity="0.6504515906447664"/><circle cx="1542.63725406086" cy="368.5511486010046" r="0.8974400979693606" fill="#fff" opacity="0.506817289001033"/><circle cx="297.7961335279504" cy="291.50917106948543" r="1.6155308930006649" fill="#fff" opacity="0.6037545621869513"/><circle cx="930.9244088015809" cy="156.63024732764583" r="0.7384518313311161" fill="#fff" opacity="0.7952361422579819"/><circle cx="1720.337525857691" cy="396.7582068361245" r="1.5974160268896762" fill="#fff" opacity="0.5072950950607878"/><circle cx="1798.992202849824" cy="173.80167833291964" r="0.741951707574062" fill="#fff" opacity="0.4708836490453416"/><circle cx="1261.539155985587" cy="301.4075699070021" r="0.8121405507698982" fill="#fff" opacity="0.3502395587391778"/><circle cx="480.4897813127585" cy="355.33428325209167" r="1.1542789606969523" fill="#fff" opacity="0.4235846061780082"/><circle cx="492.3137981845797" cy="114.27080216311634" r="0.8766351696980733" fill="#fff" opacity="0.5790838412891803"/><circle cx="1260.158381606489" cy="220.90431402551576" r="0.7003237590427334" fill="#fff" opacity="0.3487397451300034"/><circle cx="721.4686222564123" cy="256.246506866125" r="1.671936853479579" fill="#fff" opacity="0.3061511326362731"/><circle cx="1823.722149856324" cy="51.15604339986017" r="1.7552982612408927" fill="#fff" opacity="0.33052937498561324"/><circle cx="769.7031933371218" cy="145.03475047299517" r="0.8004099298968003" fill="#fff" opacity="0.42342214212366897"/><circle cx="683.6373037201439" cy="140.76228209509566" r="1.3114343897466163" fill="#fff" opacity="0.36669570230103465"/><circle cx="1171.3124422475958" cy="366.3554548170314" r="0.6917023353026487" fill="#fff" opacity="0.5458865332756859"/><circle cx="630.7559494652683" cy="201.10088653329314" r="1.1584742349010133" fill="#fff" opacity="0.6982457839646949"/><circle cx="1400.7038693411052" cy="269.18462216788544" r="0.5500538319000168" fill="#fff" opacity="0.2852439913165858"/><circle cx="1351.9479085672526" cy="88.85194988754857" r="0.8052888492367437" fill="#fff" opacity="0.43447870780585307"/><circle cx="980.646637161413" cy="205.11989722333846" r="1.0066547945622948" fill="#fff" opacity="0.20045722471560753"/><circle cx="876.7840363636576" cy="302.4850861910929" r="1.6949233770591494" fill="#fff" opacity="0.3970859724090169"/><circle cx="548.4331370676945" cy="386.61744137914326" r="1.8161034866506474" fill="#fff" opacity="0.3145488492479894"/><circle cx="412.50838423439035" cy="424.9689218609056" r="1.7892769540867948" fill="#fff" opacity="0.23985598213967307"/><circle cx="247.95883527210887" cy="284.3937995835193" r="0.9895938396196798" fill="#fff" opacity="0.5175403587328131"/><circle cx="1005.4249291972781" cy="418.1933768359463" r="1.677952249925107" fill="#fff" opacity="0.5915429948343762"/><circle cx="252.6761551789651" cy="197.9168406366177" r="1.646303800900072" fill="#fff" opacity="0.43777733092144533"/><circle cx="1442.017585225873" cy="421.76060864463466" r="1.1285567410822392" fill="#fff" opacity="0.6097381064225309"/><circle cx="1101.0820397318066" cy="53.791384366758024" r="1.032290314564549" fill="#fff" opacity="0.2126753261808016"/><circle cx="62.37594099305011" cy="39.562154764207584" r="1.9303631760250692" fill="#fff" opacity="0.22965583489966948"/><circle cx="1832.8087462281828" cy="41.17146297385251" r="1.72840682306057" fill="#fff" opacity="0.6253452880832705"/><circle cx="1109.3102415998724" cy="55.74948971898982" r="0.7083716744576515" fill="#fff" opacity="0.7273972057102707"/><circle cx="1511.6290161552906" cy="28.068750797786922" r="0.5391316274272119" fill="#fff" opacity="0.6444759619991471"/><circle cx="1405.9532693321707" cy="426.538048333148" r="0.5909499355105101" fill="#fff" opacity="0.5409426399369125"/><circle cx="1750.7985765838062" cy="85.40184277049309" r="1.266361903694077" fill="#fff" opacity="0.568716154752466"/><circle cx="651.4727225926408" cy="278.5540911645056" r="1.560208690599587" fill="#fff" opacity="0.7807163908567085"/><circle cx="1461.0477848772537" cy="169.49877640453604" r="0.5348069205728375" fill="#fff" opacity="0.356388505305254"/><circle cx="89.57152607142262" cy="45.60886829663275" r="0.7580689195911561" fill="#fff" opacity="0.2463476299416152"/><circle cx="1811.3901158914412" cy="4.325810072088104" r="0.7654962242267784" fill="#fff" opacity="0.6652647069807315"/><circle cx="614.3342915117588" cy="258.7386069080649" r="0.7209148185143515" fill="#fff" opacity="0.5096691420091477"/><circle cx="1350.204716788187" cy="272.2391383909246" r="0.6379759585573281" fill="#fff" opacity="0.5232067292377368"/><circle cx="198.26898609247735" cy="40.69023977422394" r="0.9464500298366068" fill="#fff" opacity="0.47628907833161976"/><circle cx="1376.6719623135104" cy="76.96380404684781" r="1.316765528478838" fill="#fff" opacity="0.36744240973318054"/><circle cx="730.3251548321743" cy="169.24359261459753" r="1.139582701641969" fill="#fff" opacity="0.3734857705825674"/><circle cx="1659.053615419905" cy="257.80813116622346" r="0.9285432029116301" fill="#fff" opacity="0.786869694615451"/><circle cx="1911.7851908485836" cy="193.0880753363222" r="1.1898140608542165" fill="#fff" opacity="0.5148240493412186"/><circle cx="1218.5906042015624" cy="177.0728535095865" r="1.7111356946898475" fill="#fff" opacity="0.31619417074047823"/><circle cx="1400.6278872770788" cy="364.14034784122845" r="1.1902858460532235" fill="#fff" opacity="0.6414715976085215"/><circle cx="767.1310764847162" cy="82.01109210076068" r="1.6146907259511507" fill="#fff" opacity="0.5270339514890299"/><circle cx="591.123715776746" cy="359.1511735336741" r="1.9121945878519198" fill="#fff" opacity="0.49889810432188636"/><circle cx="933.0930494454441" cy="143.78358506033746" r="1.3285900891825069" fill="#fff" opacity="0.6483113404010217"/><circle cx="147.31531846973004" cy="12.135982557231555" r="1.9221133196079436" fill="#fff" opacity="0.7694317397590336"/><circle cx="1181.7737458417596" cy="91.18545493371447" r="1.0725596393627486" fill="#fff" opacity="0.3198559685889296"/><circle cx="1636.2819881076648" cy="312.4122674112237" r="1.2447190997760555" fill="#fff" opacity="0.5860280861579878"/><circle cx="1237.2712109883482" cy="210.55610038772136" r="1.7662788984054418" fill="#fff" opacity="0.5245609331234733"/><circle cx="1088.0652771443279" cy="243.558309540981" r="1.937805615234609" fill="#fff" opacity="0.6197987417736553"/><rect x="0.2993895044316048" y="690.4043438123549" width="53.84327569134609" height="179.50269155658378" fill="#352f44" opacity="0.4578957422072757" rx="2"/><rect x="23.26400704641454" y="700.4043438123549" width="7.914040607380224" height="6.562204495203263" fill="#ff884b" opacity="0.1765135206925947" rx="1"/><rect x="9.803188123578018" y="703.6854460599566" width="7.914040607380224" height="6.562204495203263" fill="#ff577f" opacity="0.08825676034629736" rx="1"/><rect x="22.97900429600361" y="722.8421802569279" width="8.484046108202088" height="7.127725905070017" fill="#ff884b" opacity="0.3344010733613747" rx="1"/><rect x="9.518185373167086" y="726.406043209463" width="8.484046108202088" height="7.127725905070017" fill="#ff577f" opacity="0.16720053668068735" rx="1"/><rect x="22.675051656941662" y="745.2800167015008" width="9.09195138632598" height="6.575103691912979" fill="#ff884b" opacity="0.22583459392791488" rx="1"/><rect x="9.214232734105138" y="748.5675685474573" width="9.09195138632598" height="6.575103691912979" fill="#ff577f" opacity="0.11291729696395744" rx="1"/><rect x="21.89512227496484" y="767.7178531460738" width="10.65181015027962" height="9.98043321538261" fill="#ff884b" opacity="0.33936240764785613" rx="1"/><rect x="8.43430335212832" y="772.7080697537651" width="10.65181015027962" height="9.98043321538261" fill="#ff577f" opacity="0.16968120382392807" rx="1"/><rect x="23.35128178967891" y="790.1556895906468" width="7.73949112085148" height="6.180849152659264" fill="#ff884b" opacity="0.20457686383849405" rx="1"/><rect x="9.89046286684239" y="793.2461141669764" width="7.73949112085148" height="6.180849152659264" fill="#ff577f" opacity="0.10228843191924702" rx="1"/><rect x="22.7885151407189" y="812.5935260352198" width="8.865024418771505" height="6.171177815685788" fill="#ff884b" opacity="0.34119517177836856" rx="1"/><rect x="9.327696217882377" y="815.6791149430627" width="8.865024418771505" height="6.171177815685788" fill="#ff577f" opacity="0.17059758588918428" rx="1"/><rect x="22.09840821593497" y="835.0313624797927" width="10.245238268339364" height="8.374700702348422" fill="#ff884b" opacity="0.3882748440113558" rx="1"/><rect x="8.637589293098447" y="839.218712830967" width="10.245238268339364" height="8.374700702348422" fill="#ff577f" opacity="0.1941374220056779" rx="1"/><rect x="24.222170164627528" y="857.4691989243657" width="5.99771437095425" height="7.449195246549602" fill="#ff884b" opacity="0.2909579354550126" rx="1"/><rect x="10.761351241791004" y="861.1937965476405" width="5.99771437095425" height="7.449195246549602" fill="#ff577f" opacity="0.1454789677275063" rx="1"/><rect x="89.96962714706771" y="532.7806761564642" width="42.73656064941002" height="337.12635921247454" fill="#1b152a" opacity="0.5345973728538019" rx="2"/><rect x="106.50836772041124" y="542.7806761564642" width="9.659079502722966" height="9.384209172656808" fill="#ff884b" opacity="0.43396358411618596" rx="1"/><rect x="95.82422755805874" y="547.4727807427926" width="9.659079502722966" height="9.384209172656808" fill="#ff577f" opacity="0.21698179205809298" rx="1"/><rect x="109.1071749637153" y="598.9684026918767" width="4.461465016114866" height="9.010104159594071" fill="#ff884b" opacity="0.38569355858156773" rx="1"/><rect x="98.42303480136279" y="603.4734547716737" width="4.461465016114866" height="9.010104159594071" fill="#ff577f" opacity="0.19284677929078387" rx="1"/><rect x="107.72906422399195" y="655.1561292272891" width="7.217686495561545" height="8.247871138678834" fill="#ff884b" opacity="0.38210290888839005" rx="1"/><rect x="97.04492406163945" y="659.2800647966285" width="7.217686495561545" height="8.247871138678834" fill="#ff577f" opacity="0.19105145444419502" rx="1"/><rect x="108.21549646165582" y="711.3438557627014" width="6.2448220202338" height="6.3800873319572045" fill="#ff884b" opacity="0.49737556953853357" rx="1"/><rect x="97.53135629930331" y="714.53389942868" width="6.2448220202338" height="6.3800873319572045" fill="#ff577f" opacity="0.24868778476926678" rx="1"/><rect x="105.56589644322308" y="767.5315822981139" width="11.544022057099273" height="6.182229517070164" fill="#ff884b" opacity="0.37382792119724395" rx="1"/><rect x="94.88175628087058" y="770.622697056649" width="11.544022057099273" height="6.182229517070164" fill="#ff577f" opacity="0.18691396059862198" rx="1"/><rect x="107.2081861333475" y="823.7193088335264" width="8.259442676850465" height="6.4554977725389175" fill="#ff884b" opacity="0.47118240361362285" rx="1"/><rect x="96.52404597099499" y="826.9470577197958" width="8.259442676850465" height="6.4554977725389175" fill="#ff577f" opacity="0.23559120180681142" rx="1"/><rect x="184.73623755498235" y="570.3806457273618" width="42.45545470911438" height="299.526389641577" fill="#352f44" opacity="0.4764815626611192" rx="2"/><rect x="203.83311168216937" y="580.3806457273618" width="4.261706454740303" height="9.179303460563371" fill="#ff884b" opacity="0.2730527818838723" rx="1"/><rect x="193.2192480048908" y="584.9702974576435" width="4.261706454740303" height="9.179303460563371" fill="#ff577f" opacity="0.13652639094193614" rx="1"/><rect x="202.38428929713186" y="630.3017106676245" width="7.159351224815322" height="7.2327839185560086" fill="#ff884b" opacity="0.313051129880606" rx="1"/><rect x="191.77042561985328" y="633.9181026269025" width="7.159351224815322" height="7.2327839185560086" fill="#ff577f" opacity="0.156525564940303" rx="1"/><rect x="203.96223973039588" y="680.2227756078875" width="4.003450358287303" height="8.355445667718408" fill="#ff884b" opacity="0.16526540733530778" rx="1"/><rect x="193.3483760531173" y="684.4004984417467" width="4.003450358287303" height="8.355445667718408" fill="#ff577f" opacity="0.08263270366765389" rx="1"/><rect x="200.3060273587019" y="730.1438405481503" width="11.31587510167525" height="8.832141684096339" fill="#ff884b" opacity="0.3115270682171749" rx="1"/><rect x="189.69216368142332" y="734.5599113901984" width="11.31587510167525" height="8.832141684096339" fill="#ff577f" opacity="0.15576353410858745" rx="1"/><rect x="200.65224525184652" y="780.064905488413" width="10.623439315385987" height="8.195846557197125" fill="#ff884b" opacity="0.5053134450002837" rx="1"/><rect x="190.03838157456795" y="784.1628287670117" width="10.623439315385987" height="8.195846557197125" fill="#ff577f" opacity="0.2526567225001419" rx="1"/><rect x="200.30656027544907" y="829.985970428676" width="11.314809268180934" height="6.946871797774656" fill="#ff884b" opacity="0.27623714955435996" rx="1"/><rect x="189.6926965981705" y="833.4594063275633" width="11.314809268180934" height="6.946871797774656" fill="#ff577f" opacity="0.13811857477717998" rx="1"/><rect x="266.96838383492275" y="661.6215980522386" width="87.29733812094139" height="208.2854373167002" fill="#1b152a" opacity="0.5629765173334108" rx="2"/><rect x="308.2078006484564" y="671.6215980522386" width="4.8185044938741495" height="9.847290701197295" fill="#ff884b" opacity="0.5062653771616205" rx="1"/><rect x="286.383466118221" y="676.5452434028373" width="4.8185044938741495" height="9.847290701197295" fill="#ff577f" opacity="0.25313268858081023" rx="1"/><rect x="308.2262976051369" y="697.6572777168261" width="4.7815105805130464" height="8.17746407123689" fill="#ff884b" opacity="0.22153759310523458" rx="1"/><rect x="286.4019630749015" y="701.7460097524446" width="4.7815105805130464" height="8.17746407123689" fill="#ff577f" opacity="0.11076879655261729" rx="1"/><rect x="306.79307001824327" y="723.6929573814136" width="7.647965754300348" height="7.185927020661982" fill="#ff884b" opacity="0.32163376031015856" rx="1"/><rect x="284.9687354880079" y="727.2859208917446" width="7.647965754300348" height="7.185927020661982" fill="#ff577f" opacity="0.16081688015507928" rx="1"/><rect x="307.3566616401906" y="749.7286370460012" width="6.5207825104055885" height="8.990961367960777" fill="#ff884b" opacity="0.18397880163602037" rx="1"/><rect x="285.53232710995525" y="754.2241177299816" width="6.5207825104055885" height="8.990961367960777" fill="#ff577f" opacity="0.09198940081801019" rx="1"/><rect x="305.16560809550936" y="775.7643167105887" width="10.902889599768187" height="7.91664559252482" fill="#ff884b" opacity="0.15817311409818313" rx="1"/><rect x="283.341273565274" y="779.7226395068511" width="10.902889599768187" height="7.91664559252482" fill="#ff577f" opacity="0.07908655704909157" rx="1"/><rect x="305.0843791072453" y="801.7999963751762" width="11.06534757629627" height="8.331894666499434" fill="#ff884b" opacity="0.26835399697729245" rx="1"/><rect x="283.2600445770099" y="805.9659437084259" width="11.06534757629627" height="8.331894666499434" fill="#ff577f" opacity="0.13417699848864623" rx="1"/><rect x="306.2135585088314" y="827.8356760397637" width="8.806988773124058" height="7.346804648020027" fill="#ff884b" opacity="0.23645083891145208" rx="1"/><rect x="284.389223978596" y="831.5090783637737" width="8.806988773124058" height="7.346804648020027" fill="#ff577f" opacity="0.11822541945572604" rx="1"/><rect x="306.74942625866953" y="853.8713557043513" width="7.7352532734478014" height="6.837175896586193" fill="#ff884b" opacity="0.3786478111005034" rx="1"/><rect x="284.92509172843415" y="857.2899436526444" width="7.7352532734478014" height="6.837175896586193" fill="#ff577f" opacity="0.1893239055502517" rx="1"/><rect x="340.62405687305704" y="578.3957575863218" width="57.988281652328624" height="291.51127778261696" fill="#1b152a" opacity="0.6556922036352781" rx="2"/><rect x="366.8196786585775" y="588.3957575863218" width="5.597038081287648" height="7.347502320387285" fill="#ff884b" opacity="0.3466680206699921" rx="1"/><rect x="352.32260824549536" y="592.0695087465155" width="5.597038081287648" height="7.347502320387285" fill="#ff577f" opacity="0.17333401033499604" rx="1"/><rect x="364.88425876430335" y="636.9809705500913" width="9.467877869836027" height="9.031647220959805" fill="#ff884b" opacity="0.20527744647238344" rx="1"/><rect x="350.3871883512212" y="641.4967941605712" width="9.467877869836027" height="9.031647220959805" fill="#ff577f" opacity="0.10263872323619172" rx="1"/><rect x="363.6972170492395" y="685.5661835138608" width="11.841961299963753" height="6.6885903125369435" fill="#ff884b" opacity="0.25785080442620695" rx="1"/><rect x="349.20014663615734" y="688.9104786701292" width="11.841961299963753" height="6.6885903125369435" fill="#ff577f" opacity="0.12892540221310347" rx="1"/><rect x="365.59317168188124" y="734.1513964776302" width="8.050052034680277" height="6.637521362080593" fill="#ff884b" opacity="0.2391000174076995" rx="1"/><rect x="351.0961012687991" y="737.4701571586705" width="8.050052034680277" height="6.637521362080593" fill="#ff577f" opacity="0.11955000870384976" rx="1"/><rect x="365.4637848107293" y="782.7366094413998" width="8.308825776984175" height="8.375537495681908" fill="#ff884b" opacity="0.26722456730604743" rx="1"/><rect x="350.96671439764714" y="786.9243781892408" width="8.308825776984175" height="8.375537495681908" fill="#ff577f" opacity="0.13361228365302372" rx="1"/><rect x="363.9915201694219" y="831.3218224051693" width="11.253355059598888" height="6.979264858406797" fill="#ff884b" opacity="0.524883136624676" rx="1"/><rect x="349.49444975633975" y="834.8114548343727" width="11.253355059598888" height="6.979264858406797" fill="#ff577f" opacity="0.262441568312338" rx="1"/><rect x="424.6595650875614" y="580.8962952766792" width="58.29929696123565" height="289.01074009225954" fill="#352f44" opacity="0.6278679295507883" rx="2"/><rect x="450.70900519977073" y="590.8962952766792" width="6.200416736817084" height="9.88780075867842" fill="#ff884b" opacity="0.5201945875352701" rx="1"/><rect x="436.1341809594618" y="595.8401956560184" width="6.200416736817084" height="9.88780075867842" fill="#ff577f" opacity="0.2600972937676351" rx="1"/><rect x="449.2328685196659" y="627.0226377882117" width="9.152690097026689" height="6.333036777640935" fill="#ff884b" opacity="0.5891545682887441" rx="1"/><rect x="434.65804427935694" y="630.1891561770321" width="9.152690097026689" height="6.333036777640935" fill="#ff577f" opacity="0.29457728414437206" rx="1"/><rect x="451.762630726854" y="663.1489802997442" width="4.093165682650443" height="9.894300565098948" fill="#ff884b" opacity="0.37812012698923236" rx="1"/><rect x="437.18780648654507" y="668.0961305822937" width="4.093165682650443" height="9.894300565098948" fill="#ff577f" opacity="0.18906006349461618" rx="1"/><rect x="450.85870260229774" y="699.2753228112765" width="5.9010219317630455" height="7.531177577919135" fill="#ff884b" opacity="0.5325636643759356" rx="1"/><rect x="436.2838783619888" y="703.0409116002361" width="5.9010219317630455" height="7.531177577919135" fill="#ff577f" opacity="0.2662818321879678" rx="1"/><rect x="448.66770814910245" y="735.401665322809" width="10.283010838153542" height="8.553043143486846" fill="#ff884b" opacity="0.5320291664758765" rx="1"/><rect x="434.0928839087935" y="739.6781868945524" width="10.283010838153542" height="8.553043143486846" fill="#ff577f" opacity="0.26601458323793825" rx="1"/><rect x="449.4373339983722" y="771.5280078343415" width="8.743759139614124" height="6.846854053634884" fill="#ff884b" opacity="0.5525716926326444" rx="1"/><rect x="434.86250975806325" y="774.9514348611589" width="8.743759139614124" height="6.846854053634884" fill="#ff577f" opacity="0.2762858463163222" rx="1"/><rect x="450.32759598859764" y="807.6543503458738" width="6.963235159163185" height="7.8675436502945475" fill="#ff884b" opacity="0.31637766941366197" rx="1"/><rect x="435.7527717482887" y="811.588122171021" width="6.963235159163185" height="7.8675436502945475" fill="#ff577f" opacity="0.15818883470683098" rx="1"/><rect x="450.5570043058966" y="843.7806928574063" width="6.504418524565272" height="7.9448752920014964" fill="#ff884b" opacity="0.22365988633214962" rx="1"/><rect x="435.98218006558767" y="847.7531305034071" width="6.504418524565272" height="7.9448752920014964" fill="#ff577f" opacity="0.11182994316607481" rx="1"/><rect x="492.0185953988737" y="496.465602469739" width="52.45377150421351" height="373.44143289919975" fill="#1b152a" opacity="0.5145241453346154" rx="2"/><rect x="514.8189967940141" y="506.465602469739" width="6.852968713932896" height="7.4901424556714815" fill="#ff884b" opacity="0.4083574370966194" rx="1"/><rect x="501.70555391796063" y="510.21067369757475" width="6.852968713932896" height="7.4901424556714815" fill="#ff577f" opacity="0.2041787185483097" rx="1"/><rect x="512.623000209132" y="581.153889049579" width="11.244961883696952" height="6.303439933877308" fill="#ff884b" opacity="0.33186458152063764" rx="1"/><rect x="499.5095573330786" y="584.3056090165177" width="11.244961883696952" height="6.303439933877308" fill="#ff577f" opacity="0.16593229076031882" rx="1"/><rect x="515.9660862486265" y="655.8421756294189" width="4.5587898047079305" height="7.825437684968449" fill="#ff884b" opacity="0.34318912316653627" rx="1"/><rect x="502.85264337257314" y="659.7548944719031" width="4.5587898047079305" height="7.825437684968449" fill="#ff577f" opacity="0.17159456158326813" rx="1"/><rect x="512.472745000262" y="730.5304622092589" width="11.54547230143693" height="6.49820405256427" fill="#ff884b" opacity="0.3668412372625529" rx="1"/><rect x="499.3593021242086" y="733.779564235541" width="11.54547230143693" height="6.49820405256427" fill="#ff577f" opacity="0.18342061863127646" rx="1"/><rect x="515.3306419258776" y="805.2187487890988" width="5.829678450205754" height="6.326607525424707" fill="#ff884b" opacity="0.4903643315169878" rx="1"/><rect x="502.2171990498242" y="808.3820525518111" width="5.829678450205754" height="6.326607525424707" fill="#ff577f" opacity="0.2451821657584939" rx="1"/><rect x="563.7780292876479" y="721.9201010935755" width="88.29239687376943" height="147.98693427536332" fill="#352f44" opacity="0.5197624779585196" rx="2"/><rect x="602.6228669480473" y="731.9201010935755" width="10.602721552970522" height="6.948550503921823" fill="#ff884b" opacity="0.5356377364452085" rx="1"/><rect x="580.549767729605" y="735.3943763455363" width="10.602721552970522" height="6.948550503921823" fill="#ff577f" opacity="0.26781886822260426" rx="1"/><rect x="605.1585201737839" y="781.2490791853633" width="5.531415101497298" height="7.056123927481501" fill="#ff884b" opacity="0.13638675879602943" rx="1"/><rect x="583.0854209553416" y="784.777141149104" width="5.531415101497298" height="7.056123927481501" fill="#ff577f" opacity="0.06819337939801472" rx="1"/><rect x="603.719801133666" y="830.578057277151" width="8.408853181733017" height="7.1137153266728195" fill="#ff884b" opacity="0.5847024413721409" rx="1"/><rect x="581.6467019152237" y="834.1349149404873" width="8.408853181733017" height="7.1137153266728195" fill="#ff577f" opacity="0.29235122068607045" rx="1"/><rect x="653.430061024481" y="723.7028933418223" width="67.19418750079214" height="146.2041420271164" fill="#1b152a" opacity="0.5357187784592898" rx="2"/><rect x="681.9747023989854" y="733.7028933418223" width="10.104904751783447" height="6.039189814599042" fill="#ff884b" opacity="0.4006851032377885" rx="1"/><rect x="665.1761555237873" y="736.7224882491219" width="10.104904751783447" height="6.039189814599042" fill="#ff577f" opacity="0.20034255161889425" rx="1"/><rect x="681.153008389788" y="782.4376073508612" width="11.748292770178125" height="8.17130287135283" fill="#ff884b" opacity="0.2993782876989288" rx="1"/><rect x="664.35446151459" y="786.5232587865376" width="11.748292770178125" height="8.17130287135283" fill="#ff577f" opacity="0.1496891438494644" rx="1"/><rect x="682.4939130515545" y="831.1723213598999" width="9.066483446645197" height="7.560875842711161" fill="#ff884b" opacity="0.2535461505766833" rx="1"/><rect x="665.6953661763564" y="834.9527592812555" width="9.066483446645197" height="7.560875842711161" fill="#ff577f" opacity="0.12677307528834164" rx="1"/><rect x="733.3515457467529" y="726.3776971554332" width="47.8363453312396" height="143.52933821350553" fill="#352f44" opacity="0.5490815465685636" rx="2"/><rect x="751.3536744966063" y="736.3776971554332" width="11.832087831532604" height="6.508540698445528" fill="#ff884b" opacity="0.2883522217833326" rx="1"/><rect x="739.3945881637965" y="739.631967504656" width="11.832087831532604" height="6.508540698445528" fill="#ff577f" opacity="0.1441761108916663" rx="1"/><rect x="752.6739199649714" y="772.2600317088096" width="9.191596894802432" height="9.434107023159532" fill="#ff884b" opacity="0.5032206922777045" rx="1"/><rect x="740.7148336321616" y="776.9770852203894" width="9.191596894802432" height="9.434107023159532" fill="#ff577f" opacity="0.25161034613885225" rx="1"/><rect x="752.2602643261804" y="808.142366262186" width="10.018908172384581" height="7.678894902039062" fill="#ff884b" opacity="0.446843013969912" rx="1"/><rect x="740.3011779933705" y="811.9818137132055" width="10.018908172384581" height="7.678894902039062" fill="#ff577f" opacity="0.223421506984956" rx="1"/><rect x="751.3433066616634" y="844.0247008155624" width="11.852823501418538" height="7.727504190459732" fill="#ff884b" opacity="0.48220056411395795" rx="1"/><rect x="739.3842203288535" y="847.8884529107922" width="11.852823501418538" height="7.727504190459732" fill="#ff577f" opacity="0.24110028205697898" rx="1"/><rect x="801.3236997023513" y="788.3626094293694" width="53.51094212930438" height="81.54442593956935" fill="#1b152a" opacity="0.4161465301681651" rx="2"/><rect x="822.317484965389" y="798.3626094293694" width="11.523371603228938" height="7.811631656673651" fill="#ff884b" opacity="0.5319972169892856" rx="1"/><rect x="808.939749433063" y="802.2684252577062" width="11.523371603228938" height="7.811631656673651" fill="#ff577f" opacity="0.2659986084946428" rx="1"/><rect x="825.2918450483801" y="818.7487159142618" width="5.5746514372468585" height="7.118939256556085" fill="#ff884b" opacity="0.596737103442833" rx="1"/><rect x="811.914109516054" y="822.3081855425398" width="5.5746514372468585" height="7.118939256556085" fill="#ff577f" opacity="0.2983685517214165" rx="1"/><rect x="823.3318848564131" y="839.134822399154" width="9.49457182118077" height="6.2406453528070465" fill="#ff884b" opacity="0.1989275182594842" rx="1"/><rect x="809.9541493240871" y="842.2551450755575" width="9.49457182118077" height="6.2406453528070465" fill="#ff577f" opacity="0.0994637591297421" rx="1"/><rect x="822.1154364568915" y="859.5209288840464" width="11.9274686202238" height="8.32414806315772" fill="#ff884b" opacity="0.1208821863683132" rx="1"/><rect x="808.7377009245655" y="863.6830029156253" width="11.9274686202238" height="8.32414806315772" fill="#ff577f" opacity="0.0604410931841566" rx="1"/><rect x="901.1703798363848" y="666.5184455147289" width="63.193187819140306" height="203.38858985420984" fill="#1b152a" opacity="0.632494277700897" rx="2"/><rect x="930.6408508428468" y="676.5184455147289" width="4.25224580621632" height="9.260134142651253" fill="#ff884b" opacity="0.46790960779597746" rx="1"/><rect x="914.8425538880617" y="681.1485125860545" width="4.25224580621632" height="9.260134142651253" fill="#ff577f" opacity="0.23395480389798873" rx="1"/><rect x="929.5149490811199" y="710.4165438237638" width="6.504049329670158" height="7.574007646547167" fill="#ff884b" opacity="0.3902060014405767" rx="1"/><rect x="913.7166521263348" y="714.2035476470375" width="6.504049329670158" height="7.574007646547167" fill="#ff577f" opacity="0.19510300072028836" rx="1"/><rect x="927.9163003109667" y="744.3146421327989" width="9.701346869976573" height="7.87609284135422" fill="#ff884b" opacity="0.170661796971844" rx="1"/><rect x="912.1180033561816" y="748.252688553476" width="9.701346869976573" height="7.87609284135422" fill="#ff577f" opacity="0.085330898485922" rx="1"/><rect x="929.5655304981781" y="778.2127404418338" width="6.402886495553629" height="8.495244189746503" fill="#ff884b" opacity="0.5704909260548863" rx="1"/><rect x="913.767233543393" y="782.4603625367071" width="6.402886495553629" height="8.495244189746503" fill="#ff577f" opacity="0.28524546302744314" rx="1"/><rect x="929.7980232552621" y="812.1108387508688" width="5.937900981385703" height="7.3285211094954334" fill="#ff884b" opacity="0.5633045145225023" rx="1"/><rect x="913.999726300477" y="815.7750993056164" width="5.937900981385703" height="7.3285211094954334" fill="#ff577f" opacity="0.28165225726125115" rx="1"/><rect x="927.438898202134" y="846.0089370599037" width="10.656151087641751" height="7.688857019340819" fill="#ff884b" opacity="0.5113614129394669" rx="1"/><rect x="911.640601247349" y="849.8533655695741" width="10.656151087641751" height="7.688857019340819" fill="#ff577f" opacity="0.25568070646973345" rx="1"/><rect x="964.6925917348574" y="533.1942164183581" width="73.71958672621278" height="336.71281895058064" fill="#352f44" opacity="0.6752508538251861" rx="2"/><rect x="996.500524521689" y="543.1942164183581" width="10.103721152549545" height="7.47000546880765" fill="#ff884b" opacity="0.3298999967123149" rx="1"/><rect x="978.0706278401358" y="546.9292191527619" width="10.103721152549545" height="7.47000546880765" fill="#ff577f" opacity="0.16494999835615745" rx="1"/><rect x="997.3788678870487" y="627.3724211560033" width="8.347034421830212" height="8.351920813869667" fill="#ff884b" opacity="0.13774164350185117" rx="1"/><rect x="978.9489712054955" y="631.5483815629381" width="8.347034421830212" height="8.351920813869667" fill="#ff577f" opacity="0.06887082175092558" rx="1"/><rect x="996.2822677035076" y="711.5506258936484" width="10.540234788912404" height="8.50054298585759" fill="#ff884b" opacity="0.37647435601718593" rx="1"/><rect x="977.8523710219544" y="715.8008973865773" width="10.540234788912404" height="8.50054298585759" fill="#ff577f" opacity="0.18823717800859296" rx="1"/><rect x="997.3313738760378" y="795.7288306312936" width="8.442022443851927" height="7.998084767255486" fill="#ff884b" opacity="0.5908243642400076" rx="1"/><rect x="978.9014771944845" y="799.7278730149213" width="8.442022443851927" height="7.998084767255486" fill="#ff577f" opacity="0.2954121821200038" rx="1"/><rect x="1048.1940714568352" y="496.75793070270635" width="79.31424060587636" height="373.1491046662324" fill="#1b152a" opacity="0.6581676021120901" rx="2"/><rect x="1082.314577781436" y="506.75793070270635" width="11.073227956675279" height="7.589465527234009" fill="#ff884b" opacity="0.22551017678936716" rx="1"/><rect x="1062.4860176299667" y="510.55266346632334" width="11.073227956675279" height="7.589465527234009" fill="#ff577f" opacity="0.11275508839468358" rx="1"/><rect x="1084.7207830934135" y="581.3877516359528" width="6.260817332719643" height="7.1402635195153445" fill="#ff884b" opacity="0.23307443997661453" rx="1"/><rect x="1064.8922229419443" y="584.9578833957105" width="6.260817332719643" height="7.1402635195153445" fill="#ff577f" opacity="0.11653721998830727" rx="1"/><rect x="1085.4269351368835" y="656.0175725691993" width="4.848513245780141" height="8.627810016886286" fill="#ff884b" opacity="0.31342980307839574" rx="1"/><rect x="1065.5983749854142" y="660.3314775776424" width="4.848513245780141" height="8.627810016886286" fill="#ff577f" opacity="0.15671490153919787" rx="1"/><rect x="1084.2709185064937" y="730.6473935024458" width="7.160546506559603" height="7.570063131295625" fill="#ff884b" opacity="0.15521351344772" rx="1"/><rect x="1064.4423583550245" y="734.4324250680936" width="7.160546506559603" height="7.570063131295625" fill="#ff577f" opacity="0.07760675672386" rx="1"/><rect x="1083.5014605448819" y="805.2772144356923" width="8.699462429783182" height="6.0456074457721805" fill="#ff884b" opacity="0.589829208699481" rx="1"/><rect x="1063.6729003934126" y="808.3000181585784" width="8.699462429783182" height="6.0456074457721805" fill="#ff577f" opacity="0.2949146043497405" rx="1"/><rect x="1126.0213665468668" y="595.4550270679069" width="51.57218835353204" height="274.4520083010318" fill="#1b152a" opacity="0.4164925072613388" rx="2"/><rect x="1146.0342427848452" y="605.4550270679069" width="11.546435877575174" height="8.882749457583472" fill="#ff884b" opacity="0.17737197251463588" rx="1"/><rect x="1133.141195696462" y="609.8964017966987" width="11.546435877575174" height="8.882749457583472" fill="#ff577f" opacity="0.08868598625731794" rx="1"/><rect x="1148.579788381136" y="660.3454287281133" width="6.455344684993696" height="8.223422756936266" fill="#ff884b" opacity="0.3864301787424903" rx="1"/><rect x="1135.686741292753" y="664.4571401065815" width="6.455344684993696" height="8.223422756936266" fill="#ff577f" opacity="0.19321508937124515" rx="1"/><rect x="1146.107100986202" y="715.2358303883196" width="11.400719474861566" height="7.169630782019727" fill="#ff884b" opacity="0.5174879734445103" rx="1"/><rect x="1133.214053897819" y="718.8206457793295" width="11.400719474861566" height="7.169630782019727" fill="#ff577f" opacity="0.2587439867222551" rx="1"/><rect x="1149.6581414827747" y="770.126232048526" width="4.298638481716308" height="6.604432042828861" fill="#ff884b" opacity="0.48713523929173486" rx="1"/><rect x="1136.7650943943916" y="773.4284480699405" width="4.298638481716308" height="6.604432042828861" fill="#ff577f" opacity="0.24356761964586743" rx="1"/><rect x="1146.772917319502" y="825.0166337087323" width="10.069086808261716" height="6.5231184616040245" fill="#ff884b" opacity="0.4724168972979339" rx="1"/><rect x="1133.879870231119" y="828.2781929395344" width="10.069086808261716" height="6.5231184616040245" fill="#ff577f" opacity="0.23620844864896695" rx="1"/><rect x="1205.5850611197727" y="621.0233900046496" width="37.49020275834254" height="248.8836453642891" fill="#352f44" opacity="0.5647113755728843" rx="2"/><rect x="1220.1961683959692" y="631.0233900046496" width="8.267988205949774" height="7.093115126037299" fill="#ff884b" opacity="0.2862490086784235" rx="1"/><rect x="1210.8236177063834" y="634.5699475676682" width="8.267988205949774" height="7.093115126037299" fill="#ff577f" opacity="0.14312450433921176" rx="1"/><rect x="1220.5221918498917" y="672.5039975653644" width="7.61594129810481" height="7.490769128662247" fill="#ff884b" opacity="0.34255107407051866" rx="1"/><rect x="1211.149641160306" y="676.2493821296956" width="7.61594129810481" height="7.490769128662247" fill="#ff577f" opacity="0.17127553703525933" rx="1"/><rect x="1219.2179935100064" y="713.9846051260794" width="10.224337977875102" height="7.152239004418309" fill="#ff884b" opacity="0.29843351379931754" rx="1"/><rect x="1209.8454428204207" y="717.5607246282885" width="10.224337977875102" height="7.152239004418309" fill="#ff577f" opacity="0.14921675689965877" rx="1"/><rect x="1219.632178711852" y="755.4652126867942" width="9.395967574183821" height="7.501076641842042" fill="#ff884b" opacity="0.41728008338652556" rx="1"/><rect x="1210.2596280222663" y="759.2157510077152" width="9.395967574183821" height="7.501076641842042" fill="#ff577f" opacity="0.20864004169326278" rx="1"/><rect x="1221.8025913543074" y="796.945820247509" width="5.055142289273241" height="7.201601146068796" fill="#ff884b" opacity="0.18761548543991882" rx="1"/><rect x="1212.4300406647217" y="800.5466208205434" width="5.055142289273241" height="7.201601146068796" fill="#ff577f" opacity="0.09380774271995941" rx="1"/><rect x="1219.4422977726074" y="838.4264278082239" width="9.775729452673282" height="6.5684005833623" fill="#ff884b" opacity="0.5554859353125761" rx="1"/><rect x="1210.0697470830216" y="841.7106280999051" width="9.775729452673282" height="6.5684005833623" fill="#ff577f" opacity="0.27774296765628803" rx="1"/><rect x="1303.3075993026857" y="520.9898364779051" width="89.54141379789016" height="348.9171988910337" fill="#1b152a" opacity="0.6129301159905572" rx="2"/><rect x="1342.594672460946" y="530.9898364779051" width="10.967267481369728" height="8.449284971330615" fill="#ff884b" opacity="0.326315265108439" rx="1"/><rect x="1320.2093190114736" y="535.2144789635704" width="10.967267481369728" height="8.449284971330615" fill="#ff577f" opacity="0.1631576325542195" rx="1"/><rect x="1342.5259506068019" y="647.295569441583" width="11.104711189657614" height="9.304011835554618" fill="#ff884b" opacity="0.4118634185082892" rx="1"/><rect x="1320.1405971573295" y="651.9475753593603" width="11.104711189657614" height="9.304011835554618" fill="#ff577f" opacity="0.2059317092541446" rx="1"/><rect x="1343.2609956358235" y="763.6013024052609" width="9.63462113161446" height="6.134680159421331" fill="#ff884b" opacity="0.1610458806764907" rx="1"/><rect x="1320.8756421863511" y="766.6686424849715" width="9.63462113161446" height="6.134680159421331" fill="#ff577f" opacity="0.08052294033824535" rx="1"/><rect x="1376.213402402637" y="659.9760004458893" width="33.723481237823954" height="209.9310349230494" fill="#352f44" opacity="0.6484737629649401" rx="2"/><rect x="1389.251271557587" y="669.9760004458893" width="7.647742927923739" height="8.150946511456498" fill="#ff884b" opacity="0.5518547881049697" rx="1"/><rect x="1380.820401248131" y="674.0514737016176" width="7.647742927923739" height="8.150946511456498" fill="#ff577f" opacity="0.27592739405248484" rx="1"/><rect x="1390.1716012859652" y="704.9645062663975" width="5.807083471167619" height="9.403447317751928" fill="#ff884b" opacity="0.3412434263949384" rx="1"/><rect x="1381.7407309765092" y="709.6662299252735" width="5.807083471167619" height="9.403447317751928" fill="#ff577f" opacity="0.1706217131974692" rx="1"/><rect x="1390.6251367748773" y="739.9530120869058" width="4.9000124933430955" height="7.185160983629795" fill="#ff884b" opacity="0.4719222440551786" rx="1"/><rect x="1382.1942664654214" y="743.5455925787207" width="4.9000124933430955" height="7.185160983629795" fill="#ff577f" opacity="0.2359611220275893" rx="1"/><rect x="1390.4728140848392" y="774.941517907414" width="5.204657873419267" height="9.350282240507724" fill="#ff884b" opacity="0.10006039766596174" rx="1"/><rect x="1382.0419437753833" y="779.6166590276679" width="5.204657873419267" height="9.350282240507724" fill="#ff577f" opacity="0.05003019883298087" rx="1"/><rect x="1390.3348922849016" y="809.9300237279223" width="5.480501473294687" height="9.672611907979615" fill="#ff884b" opacity="0.5121528381742892" rx="1"/><rect x="1381.9040219754456" y="814.7663296819121" width="5.480501473294687" height="9.672611907979615" fill="#ff577f" opacity="0.2560764190871446" rx="1"/><rect x="1389.367853941016" y="844.9185295484305" width="7.414578161066067" height="6.472071814460697" fill="#ff884b" opacity="0.4475374639610614" rx="1"/><rect x="1380.93698363156" y="848.1545654556608" width="7.414578161066067" height="6.472071814460697" fill="#ff577f" opacity="0.2237687319805307" rx="1"/><rect x="1469.3123352945113" y="680.079013826344" width="82.02889035270292" height="189.82802154259477" fill="#352f44" opacity="0.5362086178586373" rx="2"/><rect x="1505.7172519724625" y="690.079013826344" width="9.219056996800717" height="8.055241336593227" fill="#ff884b" opacity="0.295246897101227" rx="1"/><rect x="1485.2100293842866" y="694.1066344946406" width="9.219056996800717" height="8.055241336593227" fill="#ff577f" opacity="0.1476234485506135" rx="1"/><rect x="1504.433030133935" y="717.1973026181432" width="11.78750067385554" height="6.936929164672486" fill="#ff884b" opacity="0.17370479138887135" rx="1"/><rect x="1483.9258075457592" y="720.6657672004794" width="11.78750067385554" height="6.936929164672486" fill="#ff577f" opacity="0.08685239569443567" rx="1"/><rect x="1504.9435668913518" y="744.3155914099425" width="10.766427159022173" height="6.525845219503586" fill="#ff884b" opacity="0.12250533109123478" rx="1"/><rect x="1484.436344303176" y="747.5785140196942" width="10.766427159022173" height="6.525845219503586" fill="#ff577f" opacity="0.06125266554561739" rx="1"/><rect x="1507.895943044428" y="771.4338802017417" width="4.8616748528698635" height="7.926331382693334" fill="#ff884b" opacity="0.2674861964228298" rx="1"/><rect x="1487.388720456252" y="775.3970458930884" width="4.8616748528698635" height="7.926331382693334" fill="#ff577f" opacity="0.1337430982114149" rx="1"/><rect x="1504.8804945600873" y="798.5521689935409" width="10.892571821550971" height="7.988793137015028" fill="#ff884b" opacity="0.561047385111695" rx="1"/><rect x="1484.3732719719114" y="802.5465655620485" width="10.892571821550971" height="7.988793137015028" fill="#ff577f" opacity="0.2805236925558475" rx="1"/><rect x="1506.8594789621093" y="825.6704577853402" width="6.934603017506795" height="8.56543053094424" fill="#ff884b" opacity="0.366070427085755" rx="1"/><rect x="1486.3522563739334" y="829.9531730508123" width="6.934603017506795" height="8.56543053094424" fill="#ff577f" opacity="0.1830352135428775" rx="1"/><rect x="1505.2458492490105" y="852.7887465771395" width="10.161862443704592" height="8.875785400829228" fill="#ff884b" opacity="0.32248607751039926" rx="1"/><rect x="1484.7386266608346" y="857.2266392775541" width="10.161862443704592" height="8.875785400829228" fill="#ff577f" opacity="0.16124303875519963" rx="1"/><rect x="1527.9638582393443" y="543.5474394922023" width="75.86123903884115" height="326.3595958767364" fill="#1b152a" opacity="0.6649196446325909" rx="2"/><rect x="1562.223187199613" y="553.5474394922023" width="7.342581118303952" height="8.60900783599564" fill="#ff884b" opacity="0.2577122171078139" rx="1"/><rect x="1543.2578774399026" y="557.8519434102002" width="7.342581118303952" height="8.60900783599564" fill="#ff577f" opacity="0.12885610855390695" rx="1"/><rect x="1560.51460695302" y="618.8193586675496" width="10.759741611489966" height="9.60119321560515" fill="#ff884b" opacity="0.22875365131272787" rx="1"/><rect x="1541.5492971933095" y="623.6199552753523" width="10.759741611489966" height="9.60119321560515" fill="#ff577f" opacity="0.11437682565636394" rx="1"/><rect x="1560.2864132014304" y="684.091277842897" width="11.216129114668846" height="8.78434935090699" fill="#ff884b" opacity="0.1886121202699403" rx="1"/><rect x="1541.32110344172" y="688.4834525183504" width="11.216129114668846" height="8.78434935090699" fill="#ff577f" opacity="0.09430606013497014" rx="1"/><rect x="1561.4834298832536" y="749.3631970182441" width="8.822095751022477" height="6.552569273056595" fill="#ff884b" opacity="0.20113398314014402" rx="1"/><rect x="1542.5181201235432" y="752.6394816547725" width="8.822095751022477" height="6.552569273056595" fill="#ff577f" opacity="0.10056699157007201" rx="1"/><rect x="1563.2425454343302" y="814.6351161935914" width="5.303864648869229" height="8.461680968865213" fill="#ff884b" opacity="0.30902482564771194" rx="1"/><rect x="1544.2772356746198" y="818.8659566780241" width="5.303864648869229" height="8.461680968865213" fill="#ff577f" opacity="0.15451241282385597" rx="1"/><rect x="1610.5280876300596" y="566.2934970963499" width="33.38897512838919" height="303.61353827258887" fill="#352f44" opacity="0.6958052718769305" rx="2"/><rect x="1624.5668616815394" y="576.2934970963499" width="5.311427025429771" height="9.06932314277378" fill="#ff884b" opacity="0.23249863419507133" rx="1"/><rect x="1616.2196178994423" y="580.8281586677368" width="5.311427025429771" height="9.06932314277378" fill="#ff577f" opacity="0.11624931709753566" rx="1"/><rect x="1622.3194510371702" y="614.2451893804235" width="9.806248314167895" height="7.22136628190553" fill="#ff884b" opacity="0.5517420900407578" rx="1"/><rect x="1613.972207255073" y="617.8558725213763" width="9.806248314167895" height="7.22136628190553" fill="#ff577f" opacity="0.2758710450203789" rx="1"/><rect x="1623.349139516789" y="652.1968816644971" width="7.7468713549307715" height="6.393009631054711" fill="#ff884b" opacity="0.27859770652805405" rx="1"/><rect x="1615.0018957346917" y="655.3933864800244" width="7.7468713549307715" height="6.393009631054711" fill="#ff577f" opacity="0.13929885326402702" rx="1"/><rect x="1622.9239831263953" y="690.1485739485707" width="8.597184135717615" height="9.916694683003401" fill="#ff884b" opacity="0.11612340589429332" rx="1"/><rect x="1614.5767393442982" y="695.1069212900725" width="8.597184135717615" height="9.916694683003401" fill="#ff577f" opacity="0.05806170294714666" rx="1"/><rect x="1624.5058738327366" y="728.1002662326443" width="5.4334027230351705" height="7.238362218541643" fill="#ff884b" opacity="0.14374595546250837" rx="1"/><rect x="1616.1586300506394" y="731.7194473419152" width="5.4334027230351705" height="7.238362218541643" fill="#ff577f" opacity="0.07187297773125419" rx="1"/><rect x="1623.8061976979502" y="766.051958516718" width="6.832754992608157" height="6.516103571401002" fill="#ff884b" opacity="0.5675757292349767" rx="1"/><rect x="1615.458953915853" y="769.3100103024184" width="6.832754992608157" height="6.516103571401002" fill="#ff577f" opacity="0.28378786461748834" rx="1"/><rect x="1624.1725813101914" y="804.0036508007915" width="6.099987768125717" height="8.798156911227423" fill="#ff884b" opacity="0.10934547849682753" rx="1"/><rect x="1615.8253375280942" y="808.4027292564052" width="6.099987768125717" height="8.798156911227423" fill="#ff577f" opacity="0.05467273924841377" rx="1"/><rect x="1625.200764481025" y="841.9553430848653" width="4.043621426458382" height="6.145396485958574" fill="#ff884b" opacity="0.3202581093228092" rx="1"/><rect x="1616.853520698928" y="845.0280413278446" width="4.043621426458382" height="6.145396485958574" fill="#ff577f" opacity="0.1601290546614046" rx="1"/><rect x="1703.458973435559" y="731.2750974742871" width="37.42451192518335" height="138.63193789465166" fill="#352f44" opacity="0.5511060399355148" rx="2"/><rect x="1718.5353012251517" y="741.2750974742871" width="7.27185634599809" height="9.080002147490159" fill="#ff884b" opacity="0.33617835907176563" rx="1"/><rect x="1709.179173243856" y="745.8150985480322" width="7.27185634599809" height="9.080002147490159" fill="#ff577f" opacity="0.16808917953588282" rx="1"/><rect x="1717.6519993018944" y="769.0014850532175" width="9.038460192512362" height="9.516176734938327" fill="#ff884b" opacity="0.27412475919679846" rx="1"/><rect x="1708.2958713205987" y="773.7595734206867" width="9.038460192512362" height="9.516176734938327" fill="#ff577f" opacity="0.13706237959839923" rx="1"/><rect x="1718.6372262965042" y="796.7278726321478" width="7.068006203292871" height="9.70880070508197" fill="#ff884b" opacity="0.45751266192121265" rx="1"/><rect x="1709.2810983152085" y="801.5822729846888" width="7.068006203292871" height="9.70880070508197" fill="#ff577f" opacity="0.22875633096060632" rx="1"/><rect x="1716.796379310497" y="824.4542602110781" width="10.749700175307154" height="6.26135504158711" fill="#ff884b" opacity="0.22370946982961834" rx="1"/><rect x="1707.4402513292014" y="827.5849377318717" width="10.749700175307154" height="6.26135504158711" fill="#ff577f" opacity="0.11185473491480917" rx="1"/><rect x="1719.3894070639249" y="852.1806477900085" width="5.563644668451428" height="7.013881773923962" fill="#ff884b" opacity="0.2858636753600705" rx="1"/><rect x="1710.0332790826292" y="855.6875886769704" width="5.563644668451428" height="7.013881773923962" fill="#ff577f" opacity="0.14293183768003526" rx="1"/><rect x="1760.3709479352392" y="633.375327902235" width="49.73692384076699" height="236.53170746670378" fill="#352f44" opacity="0.5725059792568222" rx="2"/><rect x="1782.0801885219012" y="643.375327902235" width="6.318442667442943" height="8.884930276983635" fill="#ff884b" opacity="0.5353463823058052" rx="1"/><rect x="1769.6459575617096" y="647.8177930407268" width="6.318442667442943" height="8.884930276983635" fill="#ff577f" opacity="0.2676731911529026" rx="1"/><rect x="1780.6107489414537" y="672.9417913355729" width="9.257321828337695" height="9.005955002039194" fill="#ff884b" opacity="0.5463615526785984" rx="1"/><rect x="1768.1765179812621" y="677.4447688365925" width="9.257321828337695" height="9.005955002039194" fill="#ff577f" opacity="0.2731807763392992" rx="1"/><rect x="1781.2290540203053" y="702.5082547689109" width="8.020711670634501" height="6.984204210570129" fill="#ff884b" opacity="0.2980165900192262" rx="1"/><rect x="1768.7948230601137" y="706.000356874196" width="8.020711670634501" height="6.984204210570129" fill="#ff577f" opacity="0.1490082950096131" rx="1"/><rect x="1780.6050768516968" y="732.0747182022488" width="9.268666007851404" height="8.156906411553944" fill="#ff884b" opacity="0.31721892436435883" rx="1"/><rect x="1768.1708458915052" y="736.1531714080259" width="9.268666007851404" height="8.156906411553944" fill="#ff577f" opacity="0.15860946218217942" rx="1"/><rect x="1783.127979523532" y="761.6411816355869" width="4.222860664181146" height="7.811121301215868" fill="#ff884b" opacity="0.5525631867471531" rx="1"/><rect x="1770.6937485633405" y="765.5467422861949" width="4.222860664181146" height="7.811121301215868" fill="#ff577f" opacity="0.27628159337357655" rx="1"/><rect x="1782.0072717263845" y="791.2076450689249" width="6.464276258476143" height="7.0207278144128455" fill="#ff884b" opacity="0.13862297046897537" rx="1"/><rect x="1769.573040766193" y="794.7180089761313" width="6.464276258476143" height="7.0207278144128455" fill="#ff577f" opacity="0.06931148523448769" rx="1"/><rect x="1780.9914294886382" y="820.7741085022628" width="8.495960733968754" height="6.051450908196031" fill="#ff884b" opacity="0.4180847316556807" rx="1"/><rect x="1768.5571985284466" y="823.7998339563609" width="8.495960733968754" height="6.051450908196031" fill="#ff577f" opacity="0.20904236582784036" rx="1"/><rect x="1782.0029823936063" y="850.3405719356008" width="6.472854924032664" height="7.256292271720314" fill="#ff884b" opacity="0.3602814258449435" rx="1"/><rect x="1769.5687514334147" y="853.9687180714609" width="6.472854924032664" height="7.256292271720314" fill="#ff577f" opacity="0.18014071292247175" rx="1"/><rect x="1846.7123099455405" y="692.447939676337" width="84.39357425421326" height="177.45909569260178" fill="#1b152a" opacity="0.41553390734259366" rx="2"/><rect x="1885.0254459320624" y="702.447939676337" width="7.767302281169059" height="9.332160370268896" fill="#ff884b" opacity="0.5598312231152857" rx="1"/><rect x="1863.9270523685093" y="707.1140198614714" width="7.767302281169059" height="9.332160370268896" fill="#ff577f" opacity="0.27991561155764283" rx="1"/><rect x="1883.0416606403983" y="761.6009715738709" width="11.734872864497564" height="7.50091603805798" fill="#ff884b" opacity="0.4630888091547156" rx="1"/><rect x="1861.9432670768451" y="765.3514295928999" width="11.734872864497564" height="7.50091603805798" fill="#ff577f" opacity="0.2315444045773578" rx="1"/><rect x="1883.3524360536485" y="820.7540034714049" width="11.113322037997033" height="7.567714678488605" fill="#ff884b" opacity="0.16013468840628273" rx="1"/><rect x="1862.2540424900953" y="824.5378608106491" width="11.113322037997033" height="7.567714678488605" fill="#ff577f" opacity="0.08006734420314136" rx="1"/><path d="M212.326441754663 878.678081086529 Q204.01285842620135 759.0508298212781 202.35014176050902 639.4235785560272" stroke="#000000" stroke-width="7.874692733370395" fill="none" stroke-linecap="round"/><path d="M202.35014176050902 639.4235785560272 Q243.4176555691328 619.4235785560272 266.4165250063912 639.4235785560272" stroke="#020011" stroke-width="2.9606741976367017" fill="none" stroke-linecap="round" opacity="0.6"/><path d="M202.35014176050902 639.4235785560272 Q225.24109635573993 626.4043557051496 239.4633684947986 653.3851328542719" stroke="#020011" stroke-width="2.4848015556309377" fill="none" stroke-linecap="round" opacity="0.6"/><path d="M202.35014176050902 639.4235785560272 Q209.87200390867093 630.1693629650027 185.99910730349524 660.9151473739782" stroke="#020011" stroke-width="3.595555360800483" fill="none" stroke-linecap="round" opacity="0.6"/><path d="M202.35014176050902 639.4235785560272 Q181.27829756421212 622.9604100462122 153.38809999090773 646.4972415363974" stroke="#020011" stroke-width="3.547769212524353" fill="none" stroke-linecap="round" opacity="0.6"/><path d="M202.35014176050902 639.4235785560272 Q193.13216408991457 615.48466612362 147.82190212638466 631.5457536912126" stroke="#020011" stroke-width="3.5276041281241" fill="none" stroke-linecap="round" opacity="0.6"/><path d="M202.35014176050902 639.4235785560272 Q203.99332718867797 613.5826065310932 193.46238343526485 627.7416345061591" stroke="#020011" stroke-width="2.8021861372520647" fill="none" stroke-linecap="round" opacity="0.6"/><path d="M202.35014176050902 639.4235785560272 Q212.62399440853795 615.769709145703 221.77589923507597 632.1158397353787" stroke="#020011" stroke-width="3.6973779657151034" fill="none" stroke-linecap="round" opacity="0.6"/><path d="M360.42865016507653 911.6388272986837 Q377.8027772712062 791.8050502524256 381.27760269243214 671.9712732061677" stroke="#000000" stroke-width="6.439390491330855" fill="none" stroke-linecap="round"/><path d="M381.27760269243214 671.9712732061677 Q423.742525825217 651.9712732061677 443.1815912768202 671.9712732061677" stroke="#020011" stroke-width="2.6353862766724516" fill="none" stroke-linecap="round" opacity="0.6"/><path d="M381.27760269243214 671.9712732061677 Q416.5533125256054 658.7354605485311 417.23933204543255 685.4996478908946" stroke="#020011" stroke-width="3.3963512553359267" fill="none" stroke-linecap="round" opacity="0.6"/><path d="M381.27760269243214 671.9712732061677 Q383.6632918879214 658.6244173741677 371.1540244222796 685.2775615421677" stroke="#020011" stroke-width="2.203191385186089" fill="none" stroke-linecap="round" opacity="0.6"/><path d="M381.27760269243214 671.9712732061677 Q360.015276154672 655.8440199841962 327.6653257052146 679.7167667622246" stroke="#020011" stroke-width="2.6181760133752077" fill="none" stroke-linecap="round" opacity="0.6"/><path d="M381.27760269243214 671.9712732061677 Q373.8856178711384 648.6341045871452 335.0795890833003 665.2969359681229" stroke="#020011" stroke-width="3.960448010349751" fill="none" stroke-linecap="round" opacity="0.6"/><path d="M479.27409823967 832.4601530871494 Q485.941241082256 710.3066829581062 487.27466965077315 588.153212829063" stroke="#000000" stroke-width="4.347497284493292" fill="none" stroke-linecap="round"/><path d="M487.27466965077315 588.153212829063 Q511.90094137538705 568.153212829063 522.9704203328514 588.153212829063" stroke="#020011" stroke-width="3.8591480687864004" fill="none" stroke-linecap="round" opacity="0.6"/><path d="M487.27466965077315 588.153212829063 Q510.5594304359115 574.7166390667635 522.1690547471643 601.280065304464" stroke="#020011" stroke-width="2.6401453466713765" fill="none" stroke-linecap="round" opacity="0.6"/><path d="M487.27466965077315 588.153212829063 Q496.5232517628876 577.5902698220424 472.91502514347 607.0273268150218" stroke="#020011" stroke-width="2.552335648926053" fill="none" stroke-linecap="round" opacity="0.6"/><path d="M487.27466965077315 588.153212829063 Q467.3956301462057 571.8697991532363 435.8241961550814 595.5863854774094" stroke="#020011" stroke-width="3.8947181603626158" fill="none" stroke-linecap="round" opacity="0.6"/><path d="M487.27466965077315 588.153212829063 Q470.1086533232087 564.022906295236 430.0968703714773 579.892599761409" stroke="#020011" stroke-width="3.0475650832633407" fill="none" stroke-linecap="round" opacity="0.6"/><path d="M489.43766232799686 881.2749378339562 Q482.04044563277637 765.5018555385764 480.56100229373226 649.7287732431964" stroke="#000000" stroke-width="5.939416525405695" fill="none" stroke-linecap="round"/><path d="M480.56100229373226 649.7287732431964 Q522.3467553270391 629.7287732431964 541.2795342028327 649.7287732431964" stroke="#020011" stroke-width="3.9586284262963174" fill="none" stroke-linecap="round" opacity="0.6"/><path d="M480.56100229373226 649.7287732431964 Q512.3808811927195 634.4576457005213 505.70200192130255 659.1865181578462" stroke="#020011" stroke-width="3.400381388934418" fill="none" stroke-linecap="round" opacity="0.6"/><path d="M480.56100229373226 649.7287732431964 Q481.0102007791084 635.4044176428652 471.9248103125098 661.0800620425338" stroke="#020011" stroke-width="3.1940436109886603" fill="none" stroke-linecap="round" opacity="0.6"/><path d="M480.56100229373226 649.7287732431964 Q466.58652990760817 632.0871812553627 447.91243763299315 654.4455892675289" stroke="#020011" stroke-width="3.405819328363477" fill="none" stroke-linecap="round" opacity="0.6"/><path d="M480.56100229373226 649.7287732431964 Q465.7078397829792 626.7332587343976 439.09266915197566 643.7377442255989" stroke="#020011" stroke-width="3.848869020549783" fill="none" stroke-linecap="round" opacity="0.6"/><path d="M1189.089355596595 811.4636396783087 Q1194.5950726267406 703.7516993188187 1195.6962160327696 596.0397589593288" stroke="#000000" stroke-width="6.896344529207877" fill="none" stroke-linecap="round"/><path d="M1195.6962160327696 596.0397589593288 Q1220.7615107581396 576.0397589593288 1229.6261004860573 596.0397589593288" stroke="#020011" stroke-width="2.8232668491134576" fill="none" stroke-linecap="round" opacity="0.6"/><path d="M1195.6962160327696 596.0397589593288 Q1229.7655483699768 581.4094449500835 1224.24409392798 606.7791309408382" stroke="#020011" stroke-width="3.8887753067279176" fill="none" stroke-linecap="round" opacity="0.6"/><path d="M1195.6962160327696 596.0397589593288 Q1204.0164326514782 580.884217266582 1188.324776062198 605.7286755738354" stroke="#020011" stroke-width="2.3572501275588875" fill="none" stroke-linecap="round" opacity="0.6"/><path d="M1195.6962160327696 596.0397589593288 Q1164.2296438793796 580.7768157445136 1130.1188842246738 605.5138725296983" stroke="#020011" stroke-width="3.161442309422754" fill="none" stroke-linecap="round" opacity="0.6"/><path d="M1195.6962160327696 596.0397589593288 Q1187.8276754433402 572.8305944084736 1151.2702236662876 589.6214298576184" stroke="#020011" stroke-width="2.539725332646567" fill="none" stroke-linecap="round" opacity="0.6"/><path d="M1195.6962160327696 596.0397589593288 Q1192.8167214446428 571.6123015318637 1188.959294259709 587.1848441043986" stroke="#020011" stroke-width="2.743751545144187" fill="none" stroke-linecap="round" opacity="0.6"/><rect x="0" y="1000" width="1920" height="80" fill="#0f091e" opacity="0.8"/><line x1="0" y1="1040" x2="1920" y2="1040" stroke="#ff884b" stroke-opacity="0.15" stroke-width="2" stroke-dasharray="30,20"/><rect x="0" y="930" width="1920" height="150" fill="url(#glow28)"/><text x="1900" y="1060" font-family="Arial, sans-serif" font-size="11" fill="#fff" opacity="0.08" text-anchor="end" letter-spacing="2">GTA 6 REWARDS · WALLPAPER 029</text>
</svg>