<?xml version="1.0" encoding="UTF-8"?>
<svg xmlns="http://www.w3.org/2000/svg" width="1920" height="1080" viewBox="0 0 1920 1080">
<defs>
    <linearGradient id="bg84" x1="0%" y1="0%" x2="0%" y2="100%">
      <stop offset="0%" stop-color="#26547c"/>
      <stop offset="50%" stop-color="#002149"/>
      <stop offset="100%" stop-color="#26547c"/>
    </linearGradient>
    <linearGradient id="sun84" x1="0%" y1="0%" x2="100%" y2="100%">
      <stop offset="0%" stop-color="#ffd166"/>
      <stop offset="100%" stop-color="#ef476f"/>
    </linearGradient>
    <radialGradient id="glow84" cx="50%" cy="70%" r="50%">
      <stop offset="0%" stop-color="#ffd166" stop-opacity="0.3"/>
      <stop offset="100%" stop-color="#26547c" stop-opacity="0"/>
    </radialGradient>
  </defs><rect width="1920" height="1080" fill="url(#bg84)"/><circle cx="987.9532678723226" cy="543.644489893607" r="769.7016480075432" fill="#ffd166" opacity="0.12896823866268814"/><circle cx="1187.9532678723226" cy="443.644489893607" r="408.2993615903657" fill="#ef476f" opacity="0.09019256179225459"/><circle cx="1097.0825400196672" cy="262.16127306971725" r="71.5733597827082" fill="url(#sun84)" opacity="0.8211368950133064"/><circle cx="1097.0825400196672" cy="262.16127306971725" r="66.5733597827082" fill="#26547c" opacity="0.3"/><pattern id="scan84" width="1920" height="4" patternUnits="userSpaceOnUse">
      <line x1="0" y1="0" x2="1920" y2="0" stroke="#000" stroke-opacity="0.05" stroke-width="1"/>
    </pattern>
    <rect width="1920" height="1080" fill="url(#scan84)"/><circle cx="1109.9360742769054" cy="224.15245633575887" r="0.5245755284616201" fill="#fff" opacity="0.30415284473080023"/><circle cx="1159.8036046046307" cy="225.5435391146558" r="1.0293424812912342" fill="#fff" opacity="0.593032428434359"/><circle cx="999.7788698318831" cy="53.430011150760116" r="1.8936825518947287" fill="#fff" opacity="0.7573798994900147"/><circle cx="245.91500317815576" cy="373.61256301161194" r="0.8804185411148747" fill="#fff" opacity="0.2951097711676522"/><circle cx="1734.0843589171034" cy="234.14072432977628" r="1.685220873957784" fill="#fff" opacity="0.3305730525242568"/><circle cx="1000.1930905227068" cy="64.99656187393623" r="0.7965628755736545" fill="#fff" opacity="0.5055891314767276"/><circle cx="764.4628507188668" cy="348.53731428378666" r="1.2526697962900322" fill="#fff" opacity="0.4215166438421041"/><circle cx="1890.2570016612897" cy="270.2731609228703" r="1.5711271441707217" fill="#fff" opacity="0.22821379369781675"/><circle cx="1425.9381342273994" cy="431.6109331100273" r="0.7057498340042656" fill="#fff" opacity="0.4896994244981789"/><circle cx="1609.4322993628289" cy="398.33267667105713" r="0.6696818354934644" fill="#fff" opacity="0.3510903168821452"/><circle cx="60.524256094480926" cy="430.815243098609" r="1.6144197240039753" fill="#fff" opacity="0.2732060514560915"/><circle cx="692.2254352393154" cy="363.5206045721473" r="0.8907845287795143" fill="#fff" opacity="0.7845424798746925"/><circle cx="1409.9587872926982" cy="70.27301857021475" r="0.638405830748008" fill="#fff" opacity="0.4465623104587575"/><circle cx="986.4030081840239" cy="148.484071535171" r="0.9473781970905555" fill="#fff" opacity="0.26448287336725806"/><circle cx="1022.460281490921" cy="396.25151666539057" r="0.9500777210225533" fill="#fff" opacity="0.37225309227878534"/><circle cx="417.57941687888916" cy="413.5819585764738" r="1.7676065974560582" fill="#fff" opacity="0.7519923764634859"/><circle cx="433.31227193430817" cy="8.168164307290727" r="1.0791955288916815" fill="#fff" opacity="0.6630713286025149"/><circle cx="177.44930331070194" cy="412.1777091017407" r="1.3211019078318733" fill="#fff" opacity="0.7320527277728666"/><circle cx="821.0550259475259" cy="290.69787462491024" r="1.2628064365738088" fill="#fff" opacity="0.706280440815324"/><circle cx="1526.5360034086125" cy="381.26147596101777" r="1.3909296900711325" fill="#fff" opacity="0.2507921508631651"/><circle cx="1615.212493765916" cy="330.44769383092586" r="1.7639392567248873" fill="#fff" opacity="0.361071235724043"/><circle cx="1808.663490388697" cy="128.91112197211737" r="0.8987082855074453" fill="#fff" opacity="0.7234434544396222"/><circle cx="936.8604216670758" cy="196.89786587769584" r="1.4940534448237281" fill="#fff" opacity="0.7840000795163213"/><circle cx="545.3561006266057" cy="50.94634256580527" r="1.5910904595141975" fill="#fff" opacity="0.5235744571600982"/><circle cx="715.8554865596479" cy="400.06281796099216" r="1.0171313353388411" fill="#fff" opacity="0.7161564101269833"/><circle cx="1784.9133047146986" cy="427.48350548639047" r="0.670390393741054" fill="#fff" opacity="0.49862781867818623"/><circle cx="1826.3216641327183" cy="256.9528732823564" r="1.7688516624665007" fill="#fff" opacity="0.24865600258313492"/><circle cx="1621.879823436467" cy="196.41312016649476" r="1.67584249625817" fill="#fff" opacity="0.47554060622945904"/><circle cx="1763.787553721058" cy="331.63190537216883" r="1.1175002386135748" fill="#fff" opacity="0.7227905247180699"/><circle cx="1715.1938335120662" cy="370.8417359559894" r="1.7171789190539108" fill="#fff" opacity="0.2621591677102631"/><circle cx="1628.5788009382268" cy="160.23864739021255" r="0.7907275901620108" fill="#fff" opacity="0.7578687790217504"/><circle cx="57.106377048675526" cy="142.0303247044865" r="1.7327169139712855" fill="#fff" opacity="0.7096163311297112"/><circle cx="658.8350586637005" cy="224.1824886613019" r="0.6890674637837958" fill="#fff" opacity="0.7645805891055102"/><circle cx="1918.687550425224" cy="389.8984334408069" r="0.9517412036544972" fill="#fff" opacity="0.7355881417485857"/><circle cx="280.2247095760481" cy="329.50719329936135" r="1.2690239168631434" fill="#fff" opacity="0.23076078082219717"/><circle cx="1213.3717469715914" cy="87.21090467442082" r="0.7152001808200033" fill="#fff" opacity="0.3821507015689627"/><circle cx="1048.8037377057606" cy="205.48546916932926" r="1.1426000072719995" fill="#fff" opacity="0.522094773808982"/><circle cx="833.345444992498" cy="77.06971355086884" r="0.98731266695245" fill="#fff" opacity="0.22249011821637166"/><circle cx="1006.6171456236897" cy="313.1201860218123" r="1.9010990313024023" fill="#fff" opacity="0.4874141194129861"/><circle cx="508.4682124546888" cy="263.05333868578384" r="1.399510090332364" fill="#fff" opacity="0.6510164016976525"/><circle cx="1364.7750899393052" cy="53.75263150915332" r="1.3989527880677377" fill="#fff" opacity="0.6331894246938614"/><circle cx="1068.88199533077" cy="378.99024959536973" r="1.7988682841646644" fill="#fff" opacity="0.3729612903140861"/><circle cx="714.8542416270018" cy="114.27212905191632" r="1.8029534082866632" fill="#fff" opacity="0.5342052668645525"/><circle cx="1812.3650943982334" cy="235.0632019254992" r="1.5713852131905466" fill="#fff" opacity="0.3469202485277597"/><circle cx="1137.2426513995142" cy="275.8427932569391" r="0.9570679170910893" fill="#fff" opacity="0.2224677645187983"/><circle cx="504.0647105556132" cy="269.04424503749334" r="0.6376122443791508" fill="#fff" opacity="0.2183849148960749"/><circle cx="279.67395908191656" cy="128.21413721894243" r="1.7847431466879191" fill="#fff" opacity="0.3095488608604178"/><circle cx="1305.8771488130737" cy="128.14888661730774" r="1.3219087477358777" fill="#fff" opacity="0.23282935741190552"/><circle cx="436.8033417586245" cy="174.12367105440322" r="1.5015512451067452" fill="#fff" opacity="0.6125205786462222"/><circle cx="50.25427893974219" cy="88.72942701557871" r="0.9297550231986109" fill="#fff" opacity="0.22891888833346752"/><circle cx="59.63483647900514" cy="51.03506809543703" r="1.4673464790609074" fill="#fff" opacity="0.43438006803262513"/><circle cx="63.09278057494498" cy="423.3169457072664" r="1.5590191871298056" fill="#fff" opacity="0.2405812729710204"/><circle cx="1522.8988417058483" cy="75.8505490710611" r="1.5298264719382457" fill="#fff" opacity="0.6676250016008562"/><circle cx="1792.5968903006512" cy="288.82220445219946" r="1.752330640389661" fill="#fff" opacity="0.40416509788580357"/><circle cx="871.7955782059105" cy="390.25888209935715" r="1.410521996885194" fill="#fff" opacity="0.3167406440052997"/><circle cx="199.34928019515922" cy="417.2800031940639" r="1.1273888510482826" fill="#fff" opacity="0.5895774325331621"/><circle cx="1473.839009896349" cy="320.75637262704697" r="1.5067503297484364" fill="#fff" opacity="0.22015783940911243"/><circle cx="1546.3497755551593" cy="316.9229411959934" r="1.0756999553590314" fill="#fff" opacity="0.5720156987598202"/><circle cx="1440.6452910976125" cy="182.502203261131" r="1.728492830816771" fill="#fff" opacity="0.41411084290922406"/><circle cx="314.17625121636695" cy="348.21708216430085" r="1.4094655421584532" fill="#fff" opacity="0.2703243796877387"/><circle cx="1434.051981008158" cy="154.95901841180375" r="1.6283671452264226" fill="#fff" opacity="0.22663752763220985"/><circle cx="1538.590786368258" cy="147.96872520539182" r="1.3754344962945755" fill="#fff" opacity="0.4391206109521726"/><circle cx="58.54746715597516" cy="21.810144731265062" r="1.0566746633398987" fill="#fff" opacity="0.4900840351102138"/><circle cx="1412.4310629378144" cy="169.233014619265" r="1.1287788024937684" fill="#fff" opacity="0.5906216598094026"/><circle cx="1064.0336924288501" cy="86.09049644835538" r="0.763003966599471" fill="#fff" opacity="0.22423885688750048"/><circle cx="1783.3288424888926" cy="292.3563041734407" r="1.3066952997601349" fill="#fff" opacity="0.3361090578921393"/><circle cx="1369.8032930702443" cy="350.88574863944336" r="0.7455938124902532" fill="#fff" opacity="0.7436659278216926"/><circle cx="1045.438566749319" cy="284.4224239504948" r="1.9925346079963573" fill="#fff" opacity="0.40397246456797525"/><circle cx="1315.554377444916" cy="364.75781713350625" r="1.6841352589391487" fill="#fff" opacity="0.5698536966391499"/><circle cx="390.64380759155466" cy="379.93040734062214" r="1.5642003875840922" fill="#fff" opacity="0.4901549796783726"/><circle cx="1692.322771794238" cy="263.2383664490745" r="1.2552095136500916" fill="#fff" opacity="0.4100091048073976"/><circle cx="1184.934334881821" cy="394.7646845566958" r="1.4213416945238928" fill="#fff" opacity="0.594557938304394"/><circle cx="628.2939770790501" cy="219.81557591534585" r="1.668059543279945" fill="#fff" opacity="0.5665327452510904"/><circle cx="1793.0419443252129" cy="343.3324656280066" r="0.7024346627766347" fill="#fff" opacity="0.3140993449636966"/><rect x="11.879994804477318" y="590.0381823978475" width="32.159874877464" height="286.1681678067353" fill="#0c3a62" opacity="0.4636753739471723" rx="2"/><rect x="24.592685739880586" y="600.0381823978475" width="6.734493006657458" height="7.7529449494911695" fill="#ef476f" opacity="0.46543187798593" rx="1"/><rect x="16.55271702051459" y="603.9146548725931" width="6.734493006657458" height="7.7529449494911695" fill="#ffd166" opacity="0.232715938992965" rx="1"/><rect x="23.32348113142035" y="635.8092033736895" width="9.272902223577933" height="9.557887601563216" fill="#ef476f" opacity="0.31944913017085036" rx="1"/><rect x="15.283512412054352" y="640.588147174471" width="9.272902223577933" height="9.557887601563216" fill="#ffd166" opacity="0.15972456508542518" rx="1"/><rect x="23.60360321975397" y="671.5802243495314" width="8.712658046910693" height="6.646936381386345" fill="#ef476f" opacity="0.5290487937231196" rx="1"/><rect x="15.563634500387971" y="674.9036925402245" width="8.712658046910693" height="6.646936381386345" fill="#ffd166" opacity="0.2645243968615598" rx="1"/><rect x="23.98241735738293" y="707.3512453253733" width="7.955029771652779" height="7.627698161086928" fill="#ef476f" opacity="0.5878588267573758" rx="1"/><rect x="15.942448638016929" y="711.1650944059168" width="7.955029771652779" height="7.627698161086928" fill="#ffd166" opacity="0.2939294133786879" rx="1"/><rect x="23.34688725796223" y="743.1222663012152" width="9.226089970494176" height="7.1083407684015905" fill="#ef476f" opacity="0.19260347022037103" rx="1"/><rect x="15.30691853859623" y="746.676436685416" width="9.226089970494176" height="7.1083407684015905" fill="#ffd166" opacity="0.09630173511018551" rx="1"/><rect x="24.207372876165287" y="778.8932872770571" width="7.505118734088056" height="7.545935107754994" fill="#ef476f" opacity="0.462700056834775" rx="1"/><rect x="16.16740415679929" y="782.6662548309346" width="7.505118734088056" height="7.545935107754994" fill="#ffd166" opacity="0.2313500284173875" rx="1"/><rect x="24.226361133443742" y="814.664308252899" width="7.46714221953115" height="8.96913524413694" fill="#ef476f" opacity="0.4732190173755444" rx="1"/><rect x="16.186392414077744" y="819.1488758749674" width="7.46714221953115" height="8.96913524413694" fill="#ffd166" opacity="0.2366095086877722" rx="1"/><rect x="24.135220749568013" y="850.435329228741" width="7.649422987282607" height="8.346178127998993" fill="#ef476f" opacity="0.5098231027391328" rx="1"/><rect x="16.095252030202015" y="854.6084182927405" width="7.649422987282607" height="8.346178127998993" fill="#ffd166" opacity="0.2549115513695664" rx="1"/><rect x="93.78431232543721" y="656.3040526714884" width="41.07752577659616" height="219.9022975330945" fill="#26547c" opacity="0.6906750935340941" rx="2"/><rect x="110.19443981512744" y="666.3040526714884" width="8.257270797215698" height="6.085784325396126" fill="#ef476f" opacity="0.12541261260058095" rx="1"/><rect x="99.9250583709784" y="669.3469448341865" width="8.257270797215698" height="6.085784325396126" fill="#ffd166" opacity="0.06270630630029048" rx="1"/><rect x="109.92612566955954" y="702.9544355936708" width="8.793899088351498" height="7.673044251667578" fill="#ef476f" opacity="0.14293657572542703" rx="1"/><rect x="99.6567442254105" y="706.7909577195046" width="8.793899088351498" height="7.673044251667578" fill="#ffd166" opacity="0.07146828786271352" rx="1"/><rect x="111.80854735165526" y="739.6048185158533" width="5.02905572416006" height="9.988513082263179" fill="#ef476f" opacity="0.5889956077069499" rx="1"/><rect x="101.53916590750623" y="744.5990750569848" width="5.02905572416006" height="9.988513082263179" fill="#ffd166" opacity="0.29449780385347496" rx="1"/><rect x="112.14817023951709" y="776.2552014380357" width="4.349809948436406" height="6.222414232842255" fill="#ef476f" opacity="0.4925339866877846" rx="1"/><rect x="101.87878879536805" y="779.3664085544568" width="4.349809948436406" height="6.222414232842255" fill="#ffd166" opacity="0.2462669933438923" rx="1"/><rect x="108.78815940991193" y="812.9055843602181" width="11.069831607646735" height="7.92804074239173" fill="#ef476f" opacity="0.41249294576991646" rx="1"/><rect x="98.5187779657629" y="816.8696047314139" width="11.069831607646735" height="7.92804074239173" fill="#ffd166" opacity="0.20624647288495823" rx="1"/><rect x="111.39032778707532" y="849.5559672824005" width="5.865494853319948" height="8.191874878991367" fill="#ef476f" opacity="0.4603200340551138" rx="1"/><rect x="101.12094634292629" y="853.6519047218961" width="5.865494853319948" height="8.191874878991367" fill="#ffd166" opacity="0.2301600170275569" rx="1"/><rect x="193.95448094643442" y="680.0407376559547" width="37.71656083122747" height="196.16561254862825" fill="#0c3a62" opacity="0.4002576765372087" rx="2"/><rect x="210.5695053081042" y="690.0407376559547" width="4.48651210788789" height="8.984028020637115" fill="#ef476f" opacity="0.5096160633279048" rx="1"/><rect x="201.14036510029732" y="694.5327516662733" width="4.48651210788789" height="8.984028020637115" fill="#ffd166" opacity="0.2548080316639524" rx="1"/><rect x="208.0563945757907" y="755.4292751721641" width="9.512733572514898" height="6.306198317628866" fill="#ef476f" opacity="0.2926028167811695" rx="1"/><rect x="198.62725436798382" y="758.5823743309786" width="9.512733572514898" height="6.306198317628866" fill="#ffd166" opacity="0.14630140839058475" rx="1"/><rect x="207.7821614366068" y="820.8178126883735" width="10.061199850882684" height="9.616645710453541" fill="#ef476f" opacity="0.10356366066345099" rx="1"/><rect x="198.35302122879992" y="825.6261355436002" width="10.061199850882684" height="9.616645710453541" fill="#ffd166" opacity="0.051781830331725495" rx="1"/><rect x="274.11602823519394" y="585.9121579411235" width="31.271504452748108" height="290.29419226345937" fill="#0c3a62" opacity="0.6929360600171928" rx="2"/><rect x="287.1656125214929" y="595.9121579411235" width="5.1723358801501655" height="9.507521711175219" fill="#ef476f" opacity="0.17026412362937446" rx="1"/><rect x="279.3477364083059" y="600.6659187967111" width="5.1723358801501655" height="9.507521711175219" fill="#ffd166" opacity="0.08513206181468723" rx="1"/><rect x="284.62532808004875" y="653.9709963938153" width="10.25290476303848" height="9.242089289064074" fill="#ef476f" opacity="0.36202075899625685" rx="1"/><rect x="276.8074519668617" y="658.5920410383474" width="10.25290476303848" height="9.242089289064074" fill="#ffd166" opacity="0.18101037949812843" rx="1"/><rect x="284.808994209688" y="712.0298348465072" width="9.885572503759892" height="8.654058905936326" fill="#ef476f" opacity="0.45577459827898414" rx="1"/><rect x="276.991118096501" y="716.3568642994754" width="9.885572503759892" height="8.654058905936326" fill="#ffd166" opacity="0.22788729913949207" rx="1"/><rect x="287.01787414762015" y="770.0886732991992" width="5.467812627895691" height="9.427031826094499" fill="#ef476f" opacity="0.295649304239929" rx="1"/><rect x="279.1999980344331" y="774.8021892122464" width="5.467812627895691" height="9.427031826094499" fill="#ffd166" opacity="0.1478246521199645" rx="1"/><rect x="286.1183429906547" y="828.147511751891" width="7.266874941826536" height="7.204861072172611" fill="#ef476f" opacity="0.323292231728158" rx="1"/><rect x="278.30046687746767" y="831.7499422879773" width="7.266874941826536" height="7.204861072172611" fill="#ffd166" opacity="0.161646115864079" rx="1"/><rect x="361.08119128000783" y="504.2966048476046" width="33.697758448239824" height="371.9097453569783" fill="#0c3a62" opacity="0.42708940685891766" rx="2"/><rect x="375.5786045747463" y="514.2966048476046" width="4.70293185876285" height="9.117104904520582" fill="#ef476f" opacity="0.29086574907201945" rx="1"/><rect x="367.1541649626863" y="518.8551572998649" width="4.70293185876285" height="9.117104904520582" fill="#ffd166" opacity="0.14543287453600973" rx="1"/><rect x="375.25981369464023" y="588.6785539190003" width="5.340513618975066" height="8.62922623069706" fill="#ef476f" opacity="0.45060045387377046" rx="1"/><rect x="366.83537408258024" y="592.9931670343487" width="5.340513618975066" height="8.62922623069706" fill="#ffd166" opacity="0.22530022693688523" rx="1"/><rect x="374.1269107406027" y="663.0605029903959" width="7.606319527050089" height="6.447717210382157" fill="#ef476f" opacity="0.4736324568450526" rx="1"/><rect x="365.7024711285427" y="666.2843615955869" width="7.606319527050089" height="6.447717210382157" fill="#ffd166" opacity="0.2368162284225263" rx="1"/><rect x="372.50051551842444" y="737.4424520617916" width="10.859109971406664" height="8.645235009176012" fill="#ef476f" opacity="0.5412177422645543" rx="1"/><rect x="364.07607590636445" y="741.7650695663797" width="10.859109971406664" height="8.645235009176012" fill="#ffd166" opacity="0.27060887113227716" rx="1"/><rect x="375.1497295008559" y="811.8244011331873" width="5.5606820065436615" height="9.696473699923715" fill="#ef476f" opacity="0.2965316250446559" rx="1"/><rect x="366.72528988879594" y="816.6726379831491" width="5.5606820065436615" height="9.696473699923715" fill="#ffd166" opacity="0.14826581252232796" rx="1"/><rect x="437.1440154444973" y="553.207457171103" width="80.68780554241683" height="322.99889303348" fill="#0c3a62" opacity="0.6588280251153811" rx="2"/><rect x="472.40128409315184" y="563.207457171103" width="10.173268245107788" height="9.925856212136768" fill="#ef476f" opacity="0.19502889008611182" rx="1"/><rect x="452.2293327075476" y="568.1703852771714" width="10.173268245107788" height="9.925856212136768" fill="#ffd166" opacity="0.09751444504305591" rx="1"/><rect x="473.8605549656673" y="627.807235777799" width="7.254726500076877" height="9.260474217883422" fill="#ef476f" opacity="0.3516300882565859" rx="1"/><rect x="453.68860358006305" y="632.4374728867407" width="7.254726500076877" height="9.260474217883422" fill="#ffd166" opacity="0.17581504412829296" rx="1"/><rect x="474.2602424953019" y="692.4070143844949" width="6.455351440807654" height="6.832362058766271" fill="#ef476f" opacity="0.3755550508796133" rx="1"/><rect x="454.08829110969765" y="695.823195413878" width="6.455351440807654" height="6.832362058766271" fill="#ffd166" opacity="0.18777752543980664" rx="1"/><rect x="473.65819759893907" y="757.006792991191" width="7.659441233533304" height="9.258482663719562" fill="#ef476f" opacity="0.3112072827786224" rx="1"/><rect x="453.4862462133348" y="761.6360343230508" width="7.659441233533304" height="9.258482663719562" fill="#ffd166" opacity="0.1556036413893112" rx="1"/><rect x="474.346775216618" y="821.606571597887" width="6.282285998175453" height="7.212514374687456" fill="#ef476f" opacity="0.3914257429753024" rx="1"/><rect x="454.1748238310138" y="825.2128287852307" width="6.282285998175453" height="7.212514374687456" fill="#ffd166" opacity="0.1957128714876512" rx="1"/><rect x="524.7026329011684" y="710.74242941354" width="64.80366189843129" height="165.46392079104294" fill="#26547c" opacity="0.5171892776194004" rx="2"/><rect x="552.0698106107253" y="720.74242941354" width="10.06930647931744" height="6.2325646114145785" fill="#ef476f" opacity="0.3712252173272952" rx="1"/><rect x="535.8688951361174" y="723.8587117192473" width="10.06930647931744" height="6.2325646114145785" fill="#ffd166" opacity="0.1856126086636476" rx="1"/><rect x="552.6097002119103" y="762.1084096113007" width="8.98952727694752" height="8.864679328832933" fill="#ef476f" opacity="0.19122214352042" rx="1"/><rect x="536.4087847373024" y="766.5407492757171" width="8.98952727694752" height="8.864679328832933" fill="#ffd166" opacity="0.09561107176021" rx="1"/><rect x="551.1627850739918" y="803.4743898090614" width="11.883357552784346" height="7.282501777001308" fill="#ef476f" opacity="0.45487214274585064" rx="1"/><rect x="534.9618695993839" y="807.1156406975621" width="11.883357552784346" height="7.282501777001308" fill="#ffd166" opacity="0.22743607137292532" rx="1"/><rect x="551.4057222998969" y="844.8403700068222" width="11.397483100974346" height="6.795682325213142" fill="#ef476f" opacity="0.1958192906332713" rx="1"/><rect x="535.204806825289" y="848.2382111694288" width="11.397483100974346" height="6.795682325213142" fill="#ffd166" opacity="0.09790964531663565" rx="1"/><rect x="624.3859046947009" y="725.8869490180833" width="58.88870111873576" height="150.3194011864996" fill="#26547c" opacity="0.42672554341301455" rx="2"/><rect x="651.650633973856" y="735.8869490180833" width="4.359242560425597" height="6.780726761738939" fill="#ef476f" opacity="0.34723235302307465" rx="1"/><rect x="636.928458694172" y="739.2773123989527" width="4.359242560425597" height="6.780726761738939" fill="#ffd166" opacity="0.17361617651153732" rx="1"/><rect x="651.6557254277596" y="785.9934160802499" width="4.349059652618379" height="7.077666287561335" fill="#ef476f" opacity="0.13701110941753983" rx="1"/><rect x="636.9335501480757" y="789.5322492240306" width="4.349059652618379" height="7.077666287561335" fill="#ffd166" opacity="0.06850555470876991" rx="1"/><rect x="649.7884226472852" y="836.0998831424164" width="8.083665213567127" height="7.850539040251295" fill="#ef476f" opacity="0.17118686709347808" rx="1"/><rect x="635.0662473676012" y="840.025152662542" width="8.083665213567127" height="7.850539040251295" fill="#ffd166" opacity="0.08559343354673904" rx="1"/><rect x="709.1700076995687" y="665.0343305815558" width="58.2364896284967" height="211.17201962302718" fill="#0c3a62" opacity="0.48197870414750155" rx="2"/><rect x="732.6437726822192" y="675.0343305815558" width="11.288959663195758" height="6.722406515088492" fill="#ef476f" opacity="0.4540522285862948" rx="1"/><rect x="718.084650275095" y="678.3955338391" width="11.288959663195758" height="6.722406515088492" fill="#ffd166" opacity="0.2270261142931474" rx="1"/><rect x="732.9425838153084" y="701.4308330344342" width="10.691337397017362" height="7.261384610380368" fill="#ef476f" opacity="0.33643424891318063" rx="1"/><rect x="718.3834614081842" y="705.0615253396244" width="10.691337397017362" height="7.261384610380368" fill="#ffd166" opacity="0.16821712445659032" rx="1"/><rect x="733.2324266668359" y="727.8273354873126" width="10.111651693962433" height="8.381479000295856" fill="#ef476f" opacity="0.30939693057662737" rx="1"/><rect x="718.6733042597117" y="732.0180749874605" width="10.111651693962433" height="8.381479000295856" fill="#ffd166" opacity="0.15469846528831369" rx="1"/><rect x="736.0511977531941" y="754.223837940191" width="4.474109521246075" height="7.386585057104608" fill="#ef476f" opacity="0.3820017715641302" rx="1"/><rect x="721.4920753460699" y="757.9171304687433" width="4.474109521246075" height="7.386585057104608" fill="#ffd166" opacity="0.1910008857820651" rx="1"/><rect x="733.40899902325" y="780.6203403930693" width="9.758506981134067" height="7.559943624204012" fill="#ef476f" opacity="0.2136632280223219" rx="1"/><rect x="718.8498766161258" y="784.4003122051713" width="9.758506981134067" height="7.559943624204012" fill="#ffd166" opacity="0.10683161401116095" rx="1"/><rect x="733.8693826667534" y="807.0168428459477" width="8.837739694127286" height="7.938708246205633" fill="#ef476f" opacity="0.555658386567528" rx="1"/><rect x="719.3102602596292" y="810.9861969690505" width="8.837739694127286" height="7.938708246205633" fill="#ffd166" opacity="0.277829193283764" rx="1"/><rect x="732.7466988340701" y="833.4133452988261" width="11.083107359493875" height="8.093209215927219" fill="#ef476f" opacity="0.45155308825232865" rx="1"/><rect x="718.187576426946" y="837.4599499067897" width="11.083107359493875" height="8.093209215927219" fill="#ffd166" opacity="0.22577654412616432" rx="1"/><rect x="735.8020052619622" y="859.8098477517045" width="4.972494503709603" height="8.646249059272522" fill="#ef476f" opacity="0.5047734932752265" rx="1"/><rect x="721.2428828548381" y="864.1329722813408" width="4.972494503709603" height="8.646249059272522" fill="#ffd166" opacity="0.25238674663761324" rx="1"/><rect x="804.2610850000347" y="557.8488549585103" width="54.816374514442025" height="318.35749524607263" fill="#26547c" opacity="0.5711863781025601" rx="2"/><rect x="826.9750770158923" y="567.8488549585103" width="9.388390482726598" height="7.245056044600219" fill="#ef476f" opacity="0.3864894262250721" rx="1"/><rect x="813.2709833872818" y="571.4713829808104" width="9.388390482726598" height="7.245056044600219" fill="#ffd166" opacity="0.19324471311253605" rx="1"/><rect x="827.8236893804715" y="613.3284971365207" width="7.691165753568328" height="8.723386547230973" fill="#ef476f" opacity="0.5145051287288092" rx="1"/><rect x="814.119595751861" y="617.6901904101362" width="7.691165753568328" height="8.723386547230973" fill="#ffd166" opacity="0.2572525643644046" rx="1"/><rect x="828.5338339721546" y="658.808139314531" width="6.270876570202148" height="6.384712972767817" fill="#ef476f" opacity="0.2160164465233722" rx="1"/><rect x="814.8297403435441" y="662.0004958009149" width="6.270876570202148" height="6.384712972767817" fill="#ffd166" opacity="0.1080082232616861" rx="1"/><rect x="828.821422826542" y="704.2877814925414" width="5.695698861427535" height="6.762287505148511" fill="#ef476f" opacity="0.4175381315680077" rx="1"/><rect x="815.1173291979314" y="707.6689252451157" width="5.695698861427535" height="6.762287505148511" fill="#ffd166" opacity="0.20876906578400384" rx="1"/><rect x="828.2876378613644" y="749.7674236705518" width="6.763268791782499" height="9.56780441840361" fill="#ef476f" opacity="0.3077798054571682" rx="1"/><rect x="814.5835442327539" y="754.5513258797536" width="6.763268791782499" height="9.56780441840361" fill="#ffd166" opacity="0.1538899027285841" rx="1"/><rect x="828.0001743564765" y="795.2470658485622" width="7.338195801558484" height="7.103772115219331" fill="#ef476f" opacity="0.564853958451388" rx="1"/><rect x="814.296080727866" y="798.7989519061719" width="7.338195801558484" height="7.103772115219331" fill="#ffd166" opacity="0.282426979225694" rx="1"/><rect x="827.896738225422" y="840.7267080265725" width="7.545068063667292" height="8.032531490091358" fill="#ef476f" opacity="0.2548139972507055" rx="1"/><rect x="814.1926445968115" y="844.7429737716182" width="7.545068063667292" height="8.032531490091358" fill="#ffd166" opacity="0.12740699862535276" rx="1"/><rect x="898.5229124284127" y="745.9324473156437" width="83.76749664399946" height="130.27390288893923" fill="#26547c" opacity="0.4786401432889142" rx="2"/><rect x="936.5318203777339" y="755.9324473156437" width="7.749680745357107" height="9.140358538166703" fill="#ef476f" opacity="0.33432275611775064" rx="1"/><rect x="915.589946216734" y="760.5026265847271" width="7.749680745357107" height="9.140358538166703" fill="#ffd166" opacity="0.16716137805887532" rx="1"/><rect x="936.6876649106548" y="799.3570816119568" width="7.437991679515222" height="8.134743624863853" fill="#ef476f" opacity="0.25783030485218167" rx="1"/><rect x="915.7457907496549" y="803.4244534243887" width="7.437991679515222" height="8.134743624863853" fill="#ffd166" opacity="0.12891515242609083" rx="1"/><rect x="936.7824752661317" y="842.7817159082698" width="7.248370968561706" height="8.735524818938115" fill="#ef476f" opacity="0.3096753613347363" rx="1"/><rect x="915.8406011051318" y="847.1494783177388" width="7.248370968561706" height="8.735524818938115" fill="#ffd166" opacity="0.15483768066736814" rx="1"/><rect x="982.0338785699647" y="698.5391597958605" width="57.38277676687175" height="177.66719040872232" fill="#0c3a62" opacity="0.6417868166095081" rx="2"/><rect x="1004.9697376037877" y="708.5391597958605" width="11.511058699225789" height="8.844631499341837" fill="#ef476f" opacity="0.18308760765546178" rx="1"/><rect x="990.6240434120698" y="712.9614755455315" width="11.511058699225789" height="8.844631499341837" fill="#ffd166" opacity="0.09154380382773089" rx="1"/><rect x="1008.4119027558276" y="730.7475585969509" width="4.626728395146022" height="8.86961688168105" fill="#ef476f" opacity="0.23682206269279638" rx="1"/><rect x="994.0662085641096" y="735.1823670377913" width="4.626728395146022" height="8.86961688168105" fill="#ffd166" opacity="0.11841103134639819" rx="1"/><rect x="1004.7378512410768" y="752.9559573980412" width="11.97483142464767" height="6.791222589274687" fill="#ef476f" opacity="0.4272742159495303" rx="1"/><rect x="990.3921570493588" y="756.3515686926785" width="11.97483142464767" height="6.791222589274687" fill="#ffd166" opacity="0.21363710797476515" rx="1"/><rect x="1007.2718402036166" y="775.1643561991314" width="6.9068534995678" height="9.528831951210469" fill="#ef476f" opacity="0.23150253278005462" rx="1"/><rect x="992.9261460118987" y="779.9287721747367" width="6.9068534995678" height="9.528831951210469" fill="#ffd166" opacity="0.11575126639002731" rx="1"/><rect x="1005.7497625012765" y="797.3727550002217" width="9.951008904248244" height="9.849545788916188" fill="#ef476f" opacity="0.2257555181220536" rx="1"/><rect x="991.4040683095585" y="802.2975278946798" width="9.951008904248244" height="9.849545788916188" fill="#ffd166" opacity="0.1128777590610268" rx="1"/><rect x="1006.400816625776" y="819.581153801312" width="8.648900655249342" height="8.446453005645065" fill="#ef476f" opacity="0.523685630300009" rx="1"/><rect x="992.055122434058" y="823.8043803041345" width="8.648900655249342" height="8.446453005645065" fill="#ffd166" opacity="0.2618428151500045" rx="1"/><rect x="1007.7879691805662" y="841.7895526024023" width="5.874595545668759" height="9.522167607099323" fill="#ef476f" opacity="0.3584760353803812" rx="1"/><rect x="993.4422749888482" y="846.550636405952" width="5.874595545668759" height="9.522167607099323" fill="#ffd166" opacity="0.1792380176901906" rx="1"/><rect x="1005.924941773276" y="863.9979514034926" width="9.600650360249134" height="9.126865173486728" fill="#ef476f" opacity="0.17181120456005708" rx="1"/><rect x="991.5792475815581" y="868.561383990236" width="9.600650360249134" height="9.126865173486728" fill="#ffd166" opacity="0.08590560228002854" rx="1"/><rect x="1062.6024048017387" y="567.3814443096942" width="65.35215256161806" height="308.8249058948888" fill="#26547c" opacity="0.6373756695625781" rx="2"/><rect x="1089.6663862146634" y="577.3814443096942" width="11.224189735768407" height="8.08178299900186" fill="#ef476f" opacity="0.34084603070301145" rx="1"/><rect x="1073.3283480742589" y="581.4223358091951" width="11.224189735768407" height="8.08178299900186" fill="#ffd166" opacity="0.17042301535150572" rx="1"/><rect x="1089.5793302185828" y="628.8522619588423" width="11.398301727929688" height="9.099673785990959" fill="#ef476f" opacity="0.35132776115819064" rx="1"/><rect x="1073.2412920781783" y="633.4020988518378" width="11.398301727929688" height="9.099673785990959" fill="#ffd166" opacity="0.17566388057909532" rx="1"/><rect x="1089.3476087465338" y="680.3230796079904" width="11.861744672027822" height="6.830212217017592" fill="#ef476f" opacity="0.2946434234722153" rx="1"/><rect x="1073.0095706061293" y="683.7381857164992" width="11.861744672027822" height="6.830212217017592" fill="#ffd166" opacity="0.14732171173610764" rx="1"/><rect x="1092.7209071064226" y="731.7938972571386" width="5.115147952250006" height="9.907236251958468" fill="#ef476f" opacity="0.3501388766686755" rx="1"/><rect x="1076.3828689660181" y="736.7475153831178" width="5.115147952250006" height="9.907236251958468" fill="#ffd166" opacity="0.17506943833433775" rx="1"/><rect x="1091.904519312252" y="783.2647149062867" width="6.747923540591245" height="8.274455185577846" fill="#ef476f" opacity="0.10741727138110839" rx="1"/><rect x="1075.5664811718475" y="787.4019424990756" width="6.747923540591245" height="8.274455185577846" fill="#ffd166" opacity="0.053708635690554195" rx="1"/><rect x="1092.6671818852158" y="834.7355325554348" width="5.222598394663678" height="7.374647496588214" fill="#ef476f" opacity="0.49843275931161657" rx="1"/><rect x="1076.3291437448113" y="838.422856303729" width="5.222598394663678" height="7.374647496588214" fill="#ffd166" opacity="0.24921637965580828" rx="1"/><rect x="1161.1928440525264" y="772.1444483548739" width="45.87493638877639" height="104.06190184970896" fill="#26547c" opacity="0.6050279360276246" rx="2"/><rect x="1180.5496100162122" y="782.1444483548739" width="7.1614044614046355" height="6.366531744684682" fill="#ef476f" opacity="0.5298955487156976" rx="1"/><rect x="1169.0808759190181" y="785.3277142272162" width="7.1614044614046355" height="6.366531744684682" fill="#ffd166" opacity="0.2649477743578488" rx="1"/><rect x="1180.5344096983715" y="799.4880986631588" width="7.191805097086309" height="8.758858261340963" fill="#ef476f" opacity="0.5461657742378688" rx="1"/><rect x="1169.0656756011774" y="803.8675277938293" width="7.191805097086309" height="8.758858261340963" fill="#ffd166" opacity="0.2730828871189344" rx="1"/><rect x="1180.0585226641722" y="816.8317489714436" width="8.143579165484658" height="8.437060247742817" fill="#ef476f" opacity="0.2477603772999161" rx="1"/><rect x="1168.589788566978" y="821.0502790953151" width="8.143579165484658" height="8.437060247742817" fill="#ffd166" opacity="0.12388018864995805" rx="1"/><rect x="1180.8538511892525" y="834.1753992797284" width="6.55292211532428" height="9.592053049149005" fill="#ef476f" opacity="0.1652906183538238" rx="1"/><rect x="1169.3851170920584" y="838.9714258043028" width="6.55292211532428" height="9.592053049149005" fill="#ffd166" opacity="0.0826453091769119" rx="1"/><rect x="1181.265112721804" y="851.5190495880132" width="5.730399050221406" height="9.024557646136861" fill="#ef476f" opacity="0.20497768353786733" rx="1"/><rect x="1169.7963786246098" y="856.0313284110816" width="5.730399050221406" height="9.024557646136861" fill="#ffd166" opacity="0.10248884176893366" rx="1"/><rect x="1178.9292454159738" y="868.8626998962981" width="10.402133661881585" height="8.993150807682692" fill="#ef476f" opacity="0.3768083188628797" rx="1"/><rect x="1167.4605113187797" y="873.3592753001394" width="10.402133661881585" height="8.993150807682692" fill="#ffd166" opacity="0.18840415943143984" rx="1"/><rect x="1251.245838186401" y="760.9843861453664" width="54.08039869835609" height="115.22196405921642" fill="#26547c" opacity="0.49725740328367274" rx="2"/><rect x="1273.335468762971" y="770.9843861453664" width="9.901137545216162" height="8.006320933347176" fill="#ef476f" opacity="0.24006489239168932" rx="1"/><rect x="1259.815369088382" y="774.98754661204" width="9.901137545216162" height="8.006320933347176" fill="#ffd166" opacity="0.12003244619584466" rx="1"/><rect x="1276.0068665073395" y="787.4446667252545" width="4.558342056478919" height="9.392450787916884" fill="#ef476f" opacity="0.1605793902791523" rx="1"/><rect x="1262.4867668327506" y="792.1408921192129" width="4.558342056478919" height="9.392450787916884" fill="#ffd166" opacity="0.08028969513957615" rx="1"/><rect x="1273.2696654334952" y="803.9049473051425" width="10.03274420416745" height="8.747271226427348" fill="#ef476f" opacity="0.5839308949848476" rx="1"/><rect x="1259.7495657589063" y="808.2785829183562" width="10.03274420416745" height="8.747271226427348" fill="#ffd166" opacity="0.2919654474924238" rx="1"/><rect x="1272.9889196449526" y="820.3652278850307" width="10.594235781252905" height="7.607050679066929" fill="#ef476f" opacity="0.3823128884849867" rx="1"/><rect x="1259.4688199703637" y="824.1687532245642" width="10.594235781252905" height="7.607050679066929" fill="#ffd166" opacity="0.19115644424249334" rx="1"/><rect x="1276.123223504186" y="836.8255084649187" width="4.325628062785982" height="8.839092375440313" fill="#ef476f" opacity="0.24965841841177513" rx="1"/><rect x="1262.603123829597" y="841.2450546526388" width="4.325628062785982" height="8.839092375440313" fill="#ffd166" opacity="0.12482920920588757" rx="1"/><rect x="1275.1791920977723" y="853.2857890448067" width="6.2136908756135245" height="7.838188349697317" fill="#ef476f" opacity="0.2734419230309878" rx="1"/><rect x="1261.6590924231834" y="857.2048832196554" width="6.2136908756135245" height="7.838188349697317" fill="#ffd166" opacity="0.1367209615154939" rx="1"/><rect x="1275.6367452992338" y="869.7460696246948" width="5.298584472690379" height="6.680876556011121" fill="#ef476f" opacity="0.27892646409546173" rx="1"/><rect x="1262.116645624645" y="873.0865079027003" width="5.298584472690379" height="6.680876556011121" fill="#ffd166" opacity="0.13946323204773087" rx="1"/><rect x="1327.9635481362316" y="764.6778025582148" width="73.32612859628307" height="111.52854764636805" fill="#0c3a62" opacity="0.5418400279343687" rx="2"/><rect x="1360.9406553728538" y="774.6778025582148" width="7.371914123038741" height="7.341540105021918" fill="#ef476f" opacity="0.20689241814121895" rx="1"/><rect x="1342.6091232237832" y="778.3485726107258" width="7.371914123038741" height="7.341540105021918" fill="#ffd166" opacity="0.10344620907060947" rx="1"/><rect x="1360.0759572429463" y="802.5599394698069" width="9.101310382853567" height="6.4726768472401135" fill="#ef476f" opacity="0.35999217148870044" rx="1"/><rect x="1341.7444250938756" y="805.7962778934269" width="9.101310382853567" height="6.4726768472401135" fill="#ffd166" opacity="0.17999608574435022" rx="1"/><rect x="1360.5765513188321" y="830.4420763813988" width="8.100122231082088" height="8.941901242114115" fill="#ef476f" opacity="0.329224799603509" rx="1"/><rect x="1342.2450191697615" y="834.9130270024559" width="8.100122231082088" height="8.941901242114115" fill="#ffd166" opacity="0.1646123998017545" rx="1"/><rect x="1360.1206817138925" y="858.3242132929909" width="9.011861440961216" height="8.917318989270674" fill="#ef476f" opacity="0.5558729274328502" rx="1"/><rect x="1341.7891495648219" y="862.7828727876262" width="9.011861440961216" height="8.917318989270674" fill="#ffd166" opacity="0.2779364637164251" rx="1"/><rect x="1412.5731984995457" y="565.3451908531938" width="49.293698496020795" height="310.8611593513892" fill="#0c3a62" opacity="0.4993631016461559" rx="2"/><rect x="1431.9172453321537" y="575.3451908531938" width="10.605604830804655" height="9.522041327208756" fill="#ef476f" opacity="0.1480070102605985" rx="1"/><rect x="1419.5938207081485" y="580.1062115167982" width="10.605604830804655" height="9.522041327208756" fill="#ffd166" opacity="0.07400350513029925" rx="1"/><rect x="1432.915458336707" y="637.5174227234717" width="8.609178821698105" height="6.399266043770887" fill="#ef476f" opacity="0.2657579517145078" rx="1"/><rect x="1420.5920337127018" y="640.7170557453571" width="8.609178821698105" height="6.399266043770887" fill="#ffd166" opacity="0.1328789758572539" rx="1"/><rect x="1431.5505372387454" y="699.6896545937494" width="11.339021017621043" height="7.25267280667384" fill="#ef476f" opacity="0.28461527691330185" rx="1"/><rect x="1419.2271126147402" y="703.3159909970864" width="11.339021017621043" height="7.25267280667384" fill="#ffd166" opacity="0.14230763845665093" rx="1"/><rect x="1433.79264585252" y="761.8618864640273" width="6.854803790071701" height="8.676108277094576" fill="#ef476f" opacity="0.46972985471825346" rx="1"/><rect x="1421.469221228515" y="766.1999406025745" width="6.854803790071701" height="8.676108277094576" fill="#ffd166" opacity="0.23486492735912673" rx="1"/><rect x="1432.175232402111" y="824.0341183343052" width="10.089630690889813" height="6.221125173433946" fill="#ef476f" opacity="0.218460313211768" rx="1"/><rect x="1419.851807778106" y="827.1446809210221" width="10.089630690889813" height="6.221125173433946" fill="#ffd166" opacity="0.109230156605884" rx="1"/><rect x="1497.1526543907964" y="571.6106524392056" width="35.96761649613446" height="304.5956977653773" fill="#0c3a62" opacity="0.6201807586057533" rx="2"/><rect x="1512.774656830049" y="581.6106524392056" width="4.7236116176293255" height="8.571726691576588" fill="#ef476f" opacity="0.33642307525417375" rx="1"/><rect x="1503.7827527060156" y="585.8965157849939" width="4.7236116176293255" height="8.571726691576588" fill="#ffd166" opacity="0.16821153762708688" rx="1"/><rect x="1511.6774596780506" y="632.3766020667686" width="6.9180059216259995" height="8.983850854212383" fill="#ef476f" opacity="0.138378088161903" rx="1"/><rect x="1502.6855555540171" y="636.8685274938747" width="6.9180059216259995" height="8.983850854212383" fill="#ffd166" opacity="0.0691890440809515" rx="1"/><rect x="1511.5912018086528" y="683.1425516943314" width="7.090521660421631" height="9.014187822820197" fill="#ef476f" opacity="0.32695208474224247" rx="1"/><rect x="1502.5992976846194" y="687.6496456057415" width="7.090521660421631" height="9.014187822820197" fill="#ffd166" opacity="0.16347604237112123" rx="1"/><rect x="1509.7830844353166" y="733.9085013218943" width="10.706756407093899" height="7.986628076524155" fill="#ef476f" opacity="0.16659349218630082" rx="1"/><rect x="1500.7911803112831" y="737.9018153601563" width="10.706756407093899" height="7.986628076524155" fill="#ffd166" opacity="0.08329674609315041" rx="1"/><rect x="1511.2043958681434" y="784.6744509494572" width="7.864133541440623" height="7.8799790027271905" fill="#ef476f" opacity="0.19095605278642758" rx="1"/><rect x="1502.21249174411" y="788.6144404508208" width="7.864133541440623" height="7.8799790027271905" fill="#ffd166" opacity="0.09547802639321379" rx="1"/><rect x="1509.366139875556" y="835.44040057702" width="11.540645526615123" height="9.495419150100886" fill="#ef476f" opacity="0.16596265199267368" rx="1"/><rect x="1500.3742357515225" y="840.1881101520704" width="11.540645526615123" height="9.495419150100886" fill="#ffd166" opacity="0.08298132599633684" rx="1"/><rect x="1576.5639217894739" y="512.4382461450152" width="32.2657525358409" height="363.7681040595677" fill="#0c3a62" opacity="0.5979861228722115" rx="2"/><rect x="1590.6551842634526" y="522.4382461450152" width="4.083227587883181" height="9.477164250676791" fill="#ef476f" opacity="0.2648312852868883" rx="1"/><rect x="1582.5887461294924" y="527.1768282703537" width="4.083227587883181" height="9.477164250676791" fill="#ffd166" opacity="0.13241564264344416" rx="1"/><rect x="1588.575074387319" y="574.4051181535249" width="8.243447340150235" height="8.210579867989425" fill="#ef476f" opacity="0.5796581371872821" rx="1"/><rect x="1580.5086362533589" y="578.5104080875196" width="8.243447340150235" height="8.210579867989425" fill="#ffd166" opacity="0.28982906859364105" rx="1"/><rect x="1589.1744977270491" y="626.3719901620345" width="7.0446006606902465" height="8.112956570953354" fill="#ef476f" opacity="0.31346669835352026" rx="1"/><rect x="1581.108059593089" y="630.4284684475112" width="7.0446006606902465" height="8.112956570953354" fill="#ffd166" opacity="0.15673334917676013" rx="1"/><rect x="1589.3387158455016" y="678.3388621705442" width="6.7161644237852105" height="9.310518673460585" fill="#ef476f" opacity="0.4556147851877881" rx="1"/><rect x="1581.2722777115414" y="682.9941215072745" width="6.7161644237852105" height="9.310518673460585" fill="#ffd166" opacity="0.22780739259389404" rx="1"/><rect x="1587.2426309280495" y="730.3057341790538" width="10.908334258689623" height="8.779840466282293" fill="#ef476f" opacity="0.4748422236821712" rx="1"/><rect x="1579.1761927940893" y="734.695654412195" width="10.908334258689623" height="8.779840466282293" fill="#ffd166" opacity="0.2374211118410856" rx="1"/><rect x="1588.2393052126206" y="782.2726061875635" width="8.914985689547608" height="8.198466287506387" fill="#ef476f" opacity="0.24525762064039186" rx="1"/><rect x="1580.1728670786604" y="786.3718393313167" width="8.914985689547608" height="8.198466287506387" fill="#ffd166" opacity="0.12262881032019593" rx="1"/><rect x="1589.833276335048" y="834.2394781960733" width="5.727043444692866" height="7.330139388639978" fill="#ef476f" opacity="0.2958332675732284" rx="1"/><rect x="1581.7668382010877" y="837.9045478903932" width="5.727043444692866" height="7.330139388639978" fill="#ffd166" opacity="0.1479166337866142" rx="1"/><rect x="1683.6078206259183" y="769.0725641020277" width="56.90526960578404" height="107.13378610255518" fill="#26547c" opacity="0.6037287552849689" rx="2"/><rect x="1709.7526427538362" y="779.0725641020277" width="4.615625349948095" height="8.484726588820276" fill="#ef476f" opacity="0.5017089388570071" rx="1"/><rect x="1695.5263253523904" y="783.3149273964378" width="4.615625349948095" height="8.484726588820276" fill="#ffd166" opacity="0.25085446942850353" rx="1"/><rect x="1707.2233925738299" y="800.4993213225388" width="9.674125709960732" height="6.243862349596774" fill="#ef476f" opacity="0.16937684038872292" rx="1"/><rect x="1692.997075172384" y="803.6212524973372" width="9.674125709960732" height="6.243862349596774" fill="#ffd166" opacity="0.08468842019436146" rx="1"/><rect x="1710.0090694133085" y="821.9260785430498" width="4.102772031003323" height="7.440152326934075" fill="#ef476f" opacity="0.1671688866725119" rx="1"/><rect x="1695.7827520118626" y="825.6461547065169" width="4.102772031003323" height="7.440152326934075" fill="#ffd166" opacity="0.08358444333625595" rx="1"/><rect x="1706.0620348624902" y="843.3528357635608" width="11.996841132640103" height="8.787762012981755" fill="#ef476f" opacity="0.38246333072485017" rx="1"/><rect x="1691.8357174610444" y="847.7467167700518" width="11.996841132640103" height="8.787762012981755" fill="#ffd166" opacity="0.19123166536242509" rx="1"/><rect x="1707.8583025334876" y="864.7795929840719" width="8.404305790645141" height="9.644544095649511" fill="#ef476f" opacity="0.41144734525853943" rx="1"/><rect x="1693.6319851320418" y="869.6018650318966" width="8.404305790645141" height="9.644544095649511" fill="#ffd166" opacity="0.20572367262926972" rx="1"/><rect x="1770.7335715687595" y="667.5676848198212" width="89.73922270344087" height="208.63866538476168" fill="#0c3a62" opacity="0.566742269780194" rx="2"/><rect x="1813.1160727312042" y="677.5676848198212" width="4.974220378551218" height="9.409159669515017" fill="#ef476f" opacity="0.31690607553275907" rx="1"/><rect x="1790.681267055344" y="682.2722646545787" width="4.974220378551218" height="9.409159669515017" fill="#ffd166" opacity="0.15845303776637953" rx="1"/><rect x="1811.201082924978" y="747.1139066147418" width="8.804199991003657" height="7.24016291956421" fill="#ef476f" opacity="0.3568116953495917" rx="1"/><rect x="1788.7662772491178" y="750.733988074524" width="8.804199991003657" height="7.24016291956421" fill="#ffd166" opacity="0.17840584767479584" rx="1"/><rect x="1811.771332015082" y="816.6601284096623" width="7.663701810795745" height="7.654737672222485" fill="#ef476f" opacity="0.20835100817688532" rx="1"/><rect x="1789.3365263392218" y="820.4874972457735" width="7.663701810795745" height="7.654737672222485" fill="#ffd166" opacity="0.10417550408844266" rx="1"/><rect x="1836.6970865393241" y="570.0377759453929" width="43.36222964184411" height="306.16857425919" fill="#0c3a62" opacity="0.4484579996085861" rx="2"/><rect x="1853.738090629438" y="580.0377759453929" width="9.280221461616508" height="9.46229480939505" fill="#ef476f" opacity="0.4976915976725732" rx="1"/><rect x="1842.897533218977" y="584.7689233500904" width="9.280221461616508" height="9.46229480939505" fill="#ffd166" opacity="0.2488457988362866" rx="1"/><rect x="1855.0298112938672" y="623.7761436967057" width="6.696780132757681" height="8.562673822641996" fill="#ef476f" opacity="0.45128339586110866" rx="1"/><rect x="1844.1892538834063" y="628.0574806080267" width="6.696780132757681" height="8.562673822641996" fill="#ffd166" opacity="0.22564169793055433" rx="1"/><rect x="1855.8998241622655" y="667.5145114480187" width="4.956754395961005" height="8.536097896875837" fill="#ef476f" opacity="0.5071293570816352" rx="1"/><rect x="1845.0592667518047" y="671.7825603964566" width="4.956754395961005" height="8.536097896875837" fill="#ffd166" opacity="0.2535646785408176" rx="1"/><rect x="1854.9660642035649" y="711.2528791993315" width="6.824274313362379" height="9.424297397822212" fill="#ef476f" opacity="0.1835683221424856" rx="1"/><rect x="1844.125506793104" y="715.9650278982425" width="6.824274313362379" height="9.424297397822212" fill="#ffd166" opacity="0.0917841610712428" rx="1"/><rect x="1853.370416421106" y="754.9912469506444" width="10.015569878280063" height="7.163518158989846" fill="#ef476f" opacity="0.592707279858344" rx="1"/><rect x="1842.5298590106452" y="758.5730060301393" width="10.015569878280063" height="7.163518158989846" fill="#ffd166" opacity="0.296353639929172" rx="1"/><rect x="1852.6913067870478" y="798.7296147019572" width="11.37378914639675" height="8.447447983186564" fill="#ef476f" opacity="0.36426391426107474" rx="1"/><rect x="1841.850749376587" y="802.9533386935504" width="11.37378914639675" height="8.447447983186564" fill="#ffd166" opacity="0.18213195713053737" rx="1"/><rect x="1855.362373697698" y="842.46798245327" width="6.03165532509602" height="7.865980627449691" fill="#ef476f" opacity="0.15540693214987567" rx="1"/><rect x="1844.5218162872372" y="846.4009727669949" width="6.03165532509602" height="7.865980627449691" fill="#ffd166" opacity="0.07770346607493783" rx="1"/><path d="M1482.948290156887 950.6089612959439 Q1482.584074666394 854.4253378534748 1482.5112315682952 758.2417144110058" stroke="#00072f" stroke-width="5.570238950096592" fill="none" stroke-linecap="round"/><path d="M1482.5112315682952 758.2417144110058 Q1508.186821536903 738.2417144110058 1518.9069664396593 758.2417144110058" stroke="#002149" stroke-width="3.443175379057223" fill="none" stroke-linecap="round" opacity="0.6"/><path d="M1482.5112315682952 758.2417144110058 Q1521.6542455673953 747.4443629853074 1531.43701386991 776.6470115596092" stroke="#002149" stroke-width="2.8269528641428225" fill="none" stroke-linecap="round" opacity="0.6"/><path d="M1482.5112315682952 758.2417144110058 Q1487.2843870221802 744.9154234433436 1472.3563613242306 771.5891324756813" stroke="#002149" stroke-width="3.33401528916648" fill="none" stroke-linecap="round" opacity="0.6"/><path d="M1482.5112315682952 758.2417144110058 Q1476.2607023832497 741.4134753770049 1438.6030348302277 764.585236343004" stroke="#002149" stroke-width="3.1918531053680583" fill="none" stroke-linecap="round" opacity="0.6"/><path d="M1482.5112315682952 758.2417144110058 Q1466.38833814596 734.7747691348738 1434.5166579240738 751.307823858742" stroke="#002149" stroke-width="2.157136077097882" fill="none" stroke-linecap="round" opacity="0.6"/><path d="M1482.5112315682952 758.2417144110058 Q1483.089450128918 733.0564784877862 1474.6212564839734 747.8712425645666" stroke="#002149" stroke-width="2.7229691787443517" fill="none" stroke-linecap="round" opacity="0.6"/><path d="M1482.5112315682952 758.2417144110058 Q1501.1108995081752 733.2489865556533 1509.055015585465 748.2562587003009" stroke="#002149" stroke-width="2.925986770756074" fill="none" stroke-linecap="round" opacity="0.6"/><path d="M581.2485839289726 955.1012904511534 Q591.8519247816531 889.6466088398934 593.9725929521892 824.1919272286332" stroke="#00072f" stroke-width="5.43710797872327" fill="none" stroke-linecap="round"/><path d="M593.9725929521892 824.1919272286332 Q633.8415410881494 804.1919272286332 654.2066502408605 824.1919272286332" stroke="#002149" stroke-width="2.3955092868757224" fill="none" stroke-linecap="round" opacity="0.6"/><path d="M593.9725929521892 824.1919272286332 Q620.5178153269832 811.379736776155 632.1865052088795 838.5675463236769" stroke="#002149" stroke-width="2.312874287905375" fill="none" stroke-linecap="round" opacity="0.6"/><path d="M593.9725929521892 824.1919272286332 Q593.5445198712869 809.5257142073253 585.8565791410315 834.8595011860176" stroke="#002149" stroke-width="3.6997059792512346" fill="none" stroke-linecap="round" opacity="0.6"/><path d="M593.9725929521892 824.1919272286332 Q587.0537813714925 807.941814935188 542.0611125694918 831.6917026417428" stroke="#002149" stroke-width="3.7556848418330038" fill="none" stroke-linecap="round" opacity="0.6"/><path d="M593.9725929521892 824.1919272286332 Q590.6740383370834 801.5478733214945 557.3696962064291 818.903819414356" stroke="#002149" stroke-width="3.503070697072677" fill="none" stroke-linecap="round" opacity="0.6"/><path d="M578.9598062492348 929.9462005100088 Q589.7566262375929 868.4950877140498 591.9159902352644 807.0439749180907" stroke="#00072f" stroke-width="5.225119170086719" fill="none" stroke-linecap="round"/><path d="M591.9159902352644 807.0439749180907 Q638.2543224832635 787.0439749180907 663.18084849305 807.0439749180907" stroke="#002149" stroke-width="2.377466073347597" fill="none" stroke-linecap="round" opacity="0.6"/><path d="M591.9159902352644 807.0439749180907 Q618.6312298497685 794.6672502245829 632.4450515222763 822.2905255310749" stroke="#002149" stroke-width="3.7446850556285787" fill="none" stroke-linecap="round" opacity="0.6"/><path d="M591.9159902352644 807.0439749180907 Q593.4508235930314 792.6264129158898 583.4216232740295 818.2088509136888" stroke="#002149" stroke-width="2.996045564533222" fill="none" stroke-linecap="round" opacity="0.6"/><path d="M591.9159902352644 807.0439749180907 Q583.9256342244894 789.657871350731 555.7305777632538 812.2717677833713" stroke="#002149" stroke-width="3.648013574920598" fill="none" stroke-linecap="round" opacity="0.6"/><path d="M591.9159902352644 807.0439749180907 Q578.8464989790855 783.9370643559387 548.9055485049618 800.8301537937865" stroke="#002149" stroke-width="3.517296234033372" fill="none" stroke-linecap="round" opacity="0.6"/><path d="M591.9159902352644 807.0439749180907 Q592.694952405442 779.2642305598721 580.0781510206845 791.4844862016535" stroke="#002149" stroke-width="2.8137963313641485" fill="none" stroke-linecap="round" opacity="0.6"/><path d="M1570.735468187075 869.7478022821592 Q1554.1034291624333 781.8041470907174 1550.777021357505 693.8604918992754" stroke="#00072f" stroke-width="4.170463780912213" fill="none" stroke-linecap="round"/><path d="M1550.777021357505 693.8604918992754 Q1573.5863998128536 673.8604918992754 1592.643146731575 693.8604918992754" stroke="#002149" stroke-width="2.677965338965404" fill="none" stroke-linecap="round" opacity="0.6"/><path d="M1550.777021357505 693.8604918992754 Q1574.50452534777 679.4508158394171 1580.497918540807 705.041139779559" stroke="#002149" stroke-width="3.80480515253842" fill="none" stroke-linecap="round" opacity="0.6"/><path d="M1550.777021357505 693.8604918992754 Q1548.2341561067406 682.5729310638925 1537.5199721218714 711.2853702285096" stroke="#002149" stroke-width="3.9010882680074053" fill="none" stroke-linecap="round" opacity="0.6"/><path d="M1550.777021357505 693.8604918992754 Q1520.1934501159099 678.6888986594004 1483.9350883658112 703.5173054195254" stroke="#002149" stroke-width="3.8320788130704497" fill="none" stroke-linecap="round" opacity="0.6"/><path d="M1550.777021357505 693.8604918992754 Q1533.080452238418 670.5465529285732 1504.9005868268503 687.2326139578709" stroke="#002149" stroke-width="2.585647054152947" fill="none" stroke-linecap="round" opacity="0.6"/><path d="M1550.777021357505 693.8604918992754 Q1546.5475501668075 664.3663800208997 1536.330560815043 674.8722681425239" stroke="#002149" stroke-width="3.2667647854580464" fill="none" stroke-linecap="round" opacity="0.6"/><rect x="0" y="1000" width="1920" height="80" fill="#002e56" opacity="0.8"/><line x1="0" y1="1040" x2="1920" y2="1040" stroke="#ef476f" stroke-opacity="0.15" stroke-width="2" stroke-dasharray="30,20"/><rect x="0" y="930" width="1920" height="150" fill="url(#glow84)"/><rect x="0" y="980" width="1920" height="100" fill="#ef476f" opacity="0.04"/><rect x="584.8979335895036" y="1000.9084091943009" width="25.920073251687008" height="2" fill="#ffd166" opacity="0.026229052973498836" rx="1"/><rect x="1552.5389576592806" y="1005.015445357425" width="35.17295078727718" height="2" fill="#ffd166" opacity="0.021270990614143895" rx="1"/><rect x="1610.336586462878" y="1026.895926172588" width="105.07337646677004" height="2" fill="#ffd166" opacity="0.023178446582327237" rx="1"/><rect x="598.4002251826226" y="1011.3279616765976" width="20.551666203083393" height="2" fill="#ffd166" opacity="0.04976299423486064" rx="1"/><rect x="1345.5904920551905" y="1058.298051403439" width="111.60068116420896" height="2" fill="#ffd166" opacity="0.022036312725869082" rx="1"/><rect x="167.16964204031268" y="1054.3080302547448" width="65.78157312837" height="2" fill="#ffd166" opacity="0.05550418903946508" rx="1"/><rect x="946.0465333578285" y="1058.2919445862742" width="119.23852789198014" height="2" fill="#ffd166" opacity="0.02641122720353567" rx="1"/><rect x="361.4468520231188" y="1016.4014660465534" width="77.46382485550453" height="2" fill="#ffd166" opacity="0.020227648168855264" rx="1"/><rect x="824.3804264497899" y="1046.9498301639571" width="58.63627890558827" height="2" fill="#ffd166" opacity="0.0505389102340068" rx="1"/><rect x="1039.096824172674" y="1043.9524285225086" width="81.5735398050336" height="2" fill="#ffd166" opacity="0.057480504344562186" rx="1"/><rect x="100.65636950094634" y="1039.1473653863993" width="116.04295377993094" height="2" fill="#ffd166" opacity="0.03749963086505878" rx="1"/><rect x="1598.9381454137476" y="1033.7812343318437" width="51.60016851769764" height="2" fill="#ffd166" opacity="0.05846308763103167" rx="1"/><rect x="1601.32045574517" y="1053.6067796576783" width="38.99903703457653" height="2" fill="#ffd166" opacity="0.04265788927270516" rx="1"/><rect x="293.11072117954274" y="1031.1390160469196" width="30.945078849546864" height="2" fill="#ffd166" opacity="0.03157960259625213" rx="1"/><rect x="815.473228733864" y="1005.5494500243918" width="63.78654294269778" height="2" fill="#ffd166" opacity="0.03705509383628496" rx="1"/><rect x="468.37755795297625" y="1048.812089322324" width="33.067711333992825" height="2" fill="#ffd166" opacity="0.046774354192142924" rx="1"/><rect x="308.7473873022821" y="1059.2704053547398" width="39.62472689794952" height="2" fill="#ffd166" opacity="0.03992956924716234" rx="1"/><rect x="1641.0498099869699" y="1029.741842446323" width="114.55152170140099" height="2" fill="#ffd166" opacity="0.04303969989135854" rx="1"/><rect x="716.7484158456206" y="1020.1038111979384" width="68.5502171908855" height="2" fill="#ffd166" opacity="0.04078709983750878" rx="1"/><rect x="151.1602096611541" y="1036.2064293297487" width="25.06388817566072" height="2" fill="#ffd166" opacity="0.04467180971630658" rx="1"/><rect x="910.8328518902028" y="1007.4520647915667" width="62.33402559588059" height="2" fill="#ffd166" opacity="0.030345470563123346" rx="1"/><rect x="576.6337726862714" y="1013.7972518694115" width="104.16667887572355" height="2" fill="#ffd166" opacity="0.024443792711115395" rx="1"/><rect x="479.0791709346415" y="1023.2184480045033" width="95.68231697093749" height="2" fill="#ffd166" opacity="0.03246698965608771" rx="1"/><rect x="373.7765900170842" y="1027.5872750737674" width="39.022379959705844" height="2" fill="#ffd166" opacity="0.04654501265532919" rx="1"/><rect x="476.0219153380072" y="1006.7837789763659" width="87.52873621124978" height="2" fill="#ffd166" opacity="0.056813601487505624" rx="1"/><rect x="1732.2424023906335" y="1046.680568160182" width="78.11067427464543" height="2" fill="#ffd166" opacity="0.023854755210656383" rx="1"/><rect x="1706.3742157319502" y="1043.877696325974" width="31.390629855774023" height="2" fill="#ffd166" opacity="0.035495374476419615" rx="1"/><rect x="1683.7415992663573" y="1013.8840878833747" width="107.09220199079537" height="2" fill="#ffd166" opacity="0.026177165323443982" rx="1"/><rect x="1583.751208405884" y="1018.6736632880461" width="92.36937344362246" height="2" fill="#ffd166" opacity="0.03076714192767794" rx="1"/><rect x="863.2906143887179" y="1035.9758700234759" width="68.00196512322918" height="2" fill="#ffd166" opacity="0.03285047663674934" rx="1"/><text x="1900" y="1060" font-family="Arial, sans-serif" font-size="11" fill="#fff" opacity="0.08" text-anchor="end" letter-spacing="2">GTA 6 REWARDS · WALLPAPER 085</text>
</svg>