<?xml version="1.0" encoding="UTF-8"?>
<svg xmlns="http://www.w3.org/2000/svg" width="1920" height="1080" viewBox="0 0 1920 1080">
<defs>
    <linearGradient id="bg54" x1="0%" y1="0%" x2="0%" y2="100%">
      <stop offset="0%" stop-color="#003566"/>
      <stop offset="50%" stop-color="#000233"/>
      <stop offset="100%" stop-color="#003566"/>
    </linearGradient>
    <linearGradient id="sun54" x1="0%" y1="0%" x2="100%" y2="100%">
      <stop offset="0%" stop-color="#ffd60a"/>
      <stop offset="100%" stop-color="#ffc300"/>
    </linearGradient>
    <radialGradient id="glow54" cx="50%" cy="70%" r="50%">
      <stop offset="0%" stop-color="#ffd60a" stop-opacity="0.3"/>
      <stop offset="100%" stop-color="#003566" stop-opacity="0"/>
    </radialGradient>
  </defs><rect width="1920" height="1080" fill="url(#bg54)"/><circle cx="1098.5315246504106" cy="328.9553968536098" r="747.5258515094234" fill="#ffd60a" opacity="0.08124549287167507"/><circle cx="1298.5315246504106" cy="228.95539685360978" r="538.7433047263751" fill="#ffc300" opacity="0.09466880363520906"/><line x1="0" y1="980" x2="1920" y2="980" stroke="#ffc300" stroke-opacity="0.05" stroke-width="2"/><line x1="0" y1="935" x2="1920" y2="935" stroke="#ffc300" stroke-opacity="0.049" stroke-width="0.5"/><line x1="0" y1="890" x2="1920" y2="890" stroke="#ffc300" stroke-opacity="0.048" stroke-width="0.5"/><line x1="0" y1="845" x2="1920" y2="845" stroke="#ffc300" stroke-opacity="0.047" stroke-width="0.5"/><line x1="0" y1="800" x2="1920" y2="800" stroke="#ffc300" stroke-opacity="0.046" stroke-width="0.5"/><line x1="0" y1="755" x2="1920" y2="755" stroke="#ffc300" stroke-opacity="0.045" stroke-width="0.5"/><line x1="0" y1="710" x2="1920" y2="710" stroke="#ffc300" stroke-opacity="0.044" stroke-width="0.5"/><line x1="0" y1="665" x2="1920" y2="665" stroke="#ffc300" stroke-opacity="0.043" stroke-width="0.5"/><line x1="0" y1="620" x2="1920" y2="620" stroke="#ffc300" stroke-opacity="0.041999999999999996" stroke-width="0.5"/><line x1="0" y1="575" x2="1920" y2="575" stroke="#ffc300" stroke-opacity="0.041" stroke-width="0.5"/><line x1="0" y1="530" x2="1920" y2="530" stroke="#ffc300" stroke-opacity="0.04" stroke-width="0.5"/><line x1="0" y1="485" x2="1920" y2="485" stroke="#ffc300" stroke-opacity="0.039" stroke-width="0.5"/><line x1="0" y1="440" x2="1920" y2="440" stroke="#ffc300" stroke-opacity="0.038" stroke-width="0.5"/><line x1="0" y1="395" x2="1920" y2="395" stroke="#ffc300" stroke-opacity="0.037" stroke-width="0.5"/><line x1="0" y1="350" x2="1920" y2="350" stroke="#ffc300" stroke-opacity="0.036" stroke-width="0.5"/><line x1="0" y1="305" x2="1920" y2="305" stroke="#ffc300" stroke-opacity="0.034999999999999996" stroke-width="0.5"/><line x1="0" y1="260" x2="1920" y2="260" stroke="#ffc300" stroke-opacity="0.033999999999999996" stroke-width="0.5"/><line x1="0" y1="215" x2="1920" y2="215" stroke="#ffc300" stroke-opacity="0.033" stroke-width="0.5"/><line x1="0" y1="170" x2="1920" y2="170" stroke="#ffc300" stroke-opacity="0.032" stroke-width="0.5"/><line x1="0" y1="125" x2="1920" y2="125" stroke="#ffc300" stroke-opacity="0.031" stroke-width="0.5"/><line x1="560" y1="1080" x2="860" y2="580" stroke="#ffd60a" stroke-opacity="0.04" stroke-width="1"/><line x1="640" y1="1080" x2="880" y2="590" stroke="#ffd60a" stroke-opacity="0.04" stroke-width="1"/><line x1="720" y1="1080" x2="900" y2="600" stroke="#ffd60a" stroke-opacity="0.04" stroke-width="1"/><line x1="800" y1="1080" x2="920" y2="610" stroke="#ffd60a" stroke-opacity="0.04" stroke-width="1"/><line x1="880" y1="1080" x2="940" y2="620" stroke="#ffd60a" stroke-opacity="0.04" stroke-width="1"/><line x1="960" y1="1080" x2="960" y2="630" stroke="#ffd60a" stroke-opacity="0.04" stroke-width="1"/><line x1="1040" y1="1080" x2="980" y2="620" stroke="#ffd60a" stroke-opacity="0.04" stroke-width="1"/><line x1="1120" y1="1080" x2="1000" y2="610" stroke="#ffd60a" stroke-opacity="0.04" stroke-width="1"/><line x1="1200" y1="1080" x2="1020" y2="600" stroke="#ffd60a" stroke-opacity="0.04" stroke-width="1"/><line x1="1280" y1="1080" x2="1040" y2="590" stroke="#ffd60a" stroke-opacity="0.04" stroke-width="1"/><line x1="1360" y1="1080" x2="1060" y2="580" stroke="#ffd60a" stroke-opacity="0.04" stroke-width="1"/><circle cx="1477.9206273094564" cy="279.4099095113133" r="89.87565956774067" fill="url(#sun54)" opacity="0.6308948766744916"/><circle cx="1477.9206273094564" cy="279.4099095113133" r="84.87565956774067" fill="#003566" opacity="0.3"/><pattern id="scan54" width="1920" height="4" patternUnits="userSpaceOnUse">
      <line x1="0" y1="0" x2="1920" y2="0" stroke="#000" stroke-opacity="0.05" stroke-width="1"/>
    </pattern>
    <rect width="1920" height="1080" fill="url(#scan54)"/><circle cx="768.921080410695" cy="87.5486893038146" r="1.8665603452517092" fill="#fff" opacity="0.6193051300987846"/><circle cx="1308.6186216838234" cy="271.9899583905912" r="1.7909771124345664" fill="#fff" opacity="0.4625408590451211"/><circle cx="1306.6207461121073" cy="132.96853026118328" r="0.9752984461317068" fill="#fff" opacity="0.732796746849268"/><circle cx="543.1296847535134" cy="61.32383244794883" r="1.125315014884182" fill="#fff" opacity="0.3664284627806461"/><circle cx="1563.2363658312793" cy="158.26420205418583" r="1.0701366546727105" fill="#fff" opacity="0.7390240946642646"/><circle cx="427.8634081286992" cy="269.17728253760777" r="1.3044016275797974" fill="#fff" opacity="0.696483826892563"/><circle cx="344.75267358700575" cy="46.16439354749499" r="0.9417192229166904" fill="#fff" opacity="0.7358519691358907"/><circle cx="841.9187926226107" cy="92.9669321954639" r="0.9992675554238417" fill="#fff" opacity="0.33048965482285475"/><circle cx="294.0214603333784" cy="62.54485026713108" r="0.7647195535862631" fill="#fff" opacity="0.6724882498552296"/><circle cx="458.82601361228757" cy="13.063173967661143" r="0.5037140150097464" fill="#fff" opacity="0.6536670423703423"/><circle cx="1115.6374220167374" cy="286.4155059788412" r="0.8096790540287455" fill="#fff" opacity="0.7456019397232685"/><circle cx="824.8977141512786" cy="322.1295774099719" r="0.6830406173092873" fill="#fff" opacity="0.7526421652065223"/><circle cx="1107.9300202028662" cy="300.86742829831024" r="0.6642132737124835" fill="#fff" opacity="0.333209962382263"/><circle cx="1096.1840118039827" cy="117.86367867278487" r="0.6289281002546028" fill="#fff" opacity="0.7475453005981505"/><circle cx="402.9754213436915" cy="352.75819301995404" r="1.7208312495427278" fill="#fff" opacity="0.3242157597849648"/><circle cx="1571.1307949505585" cy="106.45716530328085" r="1.0862769577853095" fill="#fff" opacity="0.341009520679016"/><circle cx="525.8851179214859" cy="56.96260484516681" r="1.7591574305573379" fill="#fff" opacity="0.6128768303461551"/><circle cx="894.6925120648679" cy="197.77292993054095" r="0.9976828322973295" fill="#fff" opacity="0.5008144978202913"/><circle cx="83.19033714085593" cy="216.15590083416456" r="1.2459071392067491" fill="#fff" opacity="0.42104095840385203"/><circle cx="887.1617274561808" cy="396.7500932209078" r="1.3743172514658228" fill="#fff" opacity="0.4877685184329209"/><circle cx="156.4030333227485" cy="408.53551491548666" r="0.5868287342802688" fill="#fff" opacity="0.7201942654140745"/><circle cx="1844.6585905376492" cy="417.88383546515456" r="1.9375877273123683" fill="#fff" opacity="0.36599173768563004"/><circle cx="1518.7081082721027" cy="406.5947677471197" r="1.0389514612124655" fill="#fff" opacity="0.7670595218816445"/><circle cx="1818.4732688727029" cy="214.76042972662495" r="1.656969010633642" fill="#fff" opacity="0.605137811881755"/><circle cx="1685.9562692991356" cy="260.478613362759" r="1.085688887998855" fill="#fff" opacity="0.3431688186580243"/><circle cx="313.6926677063323" cy="274.5703261090839" r="0.8834929767491978" fill="#fff" opacity="0.6071795412355987"/><circle cx="233.84629418930186" cy="349.09017650342787" r="0.5174728217575403" fill="#fff" opacity="0.5090184867170217"/><circle cx="1839.8083855025022" cy="68.10720824918413" r="1.366596957055525" fill="#fff" opacity="0.6274346505355636"/><circle cx="1536.2247552574204" cy="287.65244435138356" r="0.6778863615304899" fill="#fff" opacity="0.5961437126612625"/><circle cx="1818.0253945053614" cy="59.50105667754567" r="1.7464678515089833" fill="#fff" opacity="0.6339285241518935"/><circle cx="249.67985054703428" cy="306.63813246475485" r="0.7232748690813955" fill="#fff" opacity="0.4729734290561111"/><circle cx="815.1932423224657" cy="59.00712191942314" r="1.0308501125618001" fill="#fff" opacity="0.3170753535155848"/><circle cx="675.7099120402033" cy="369.0432897659585" r="1.6852084044798297" fill="#fff" opacity="0.5451084393880117"/><circle cx="1642.1165616163323" cy="194.27900882863418" r="0.9470665100838679" fill="#fff" opacity="0.40621529170456694"/><circle cx="1733.189480559246" cy="387.07643637505277" r="1.3321042729849237" fill="#fff" opacity="0.7467458063146903"/><circle cx="1155.6280417450769" cy="152.99476664350246" r="1.7358976897634326" fill="#fff" opacity="0.4119311218643401"/><circle cx="291.1842495880984" cy="298.16081905974096" r="1.9105405222881913" fill="#fff" opacity="0.5445302186870319"/><circle cx="61.898286953079115" cy="65.652224783239" r="1.7632281898435271" fill="#fff" opacity="0.7710210388458849"/><circle cx="1005.7731022792339" cy="348.6171073533169" r="0.9060445406721077" fill="#fff" opacity="0.7037958716284007"/><circle cx="1811.1467393979306" cy="30.443594082827587" r="1.433643919633153" fill="#fff" opacity="0.223188732802679"/><circle cx="632.6489301008752" cy="354.74887654994353" r="1.1646908598869785" fill="#fff" opacity="0.4099003665172263"/><circle cx="1471.137429073252" cy="286.04158897652326" r="0.7635752977252881" fill="#fff" opacity="0.45436234400942044"/><circle cx="666.1307713450237" cy="191.8083503320367" r="0.5114187414318833" fill="#fff" opacity="0.6759088731081944"/><circle cx="888.5448568147945" cy="344.59971695221026" r="0.967671554411685" fill="#fff" opacity="0.4326513568015423"/><circle cx="1870.2386636916171" cy="297.64919338972527" r="0.5037456825384278" fill="#fff" opacity="0.35680103100761795"/><circle cx="438.4072142370062" cy="201.23680774337538" r="1.5059788164230945" fill="#fff" opacity="0.38053722697788317"/><circle cx="377.1252501888958" cy="258.93450717323793" r="0.903572679358435" fill="#fff" opacity="0.5692714357211421"/><circle cx="632.6750221831434" cy="352.5409162865348" r="1.1699705400201423" fill="#fff" opacity="0.48561354202349055"/><circle cx="259.5292367645375" cy="21.877762348828316" r="0.9355006816181123" fill="#fff" opacity="0.48224422621592977"/><circle cx="1134.6402452547663" cy="253.9376274156239" r="1.4636677846926422" fill="#fff" opacity="0.7314814531550466"/><circle cx="1730.4990049755431" cy="318.69542202695635" r="1.9378636794718596" fill="#fff" opacity="0.4029381093575941"/><circle cx="1294.509215209286" cy="246.3464502222711" r="0.8209383077502572" fill="#fff" opacity="0.6403598352429363"/><circle cx="278.91163459953657" cy="77.0538391650314" r="1.676285519654929" fill="#fff" opacity="0.25554617327999934"/><circle cx="188.3906114540041" cy="260.49367524043043" r="1.6503864921746745" fill="#fff" opacity="0.6684758142261942"/><circle cx="1166.8830181394896" cy="202.00571013102441" r="1.4327122026432102" fill="#fff" opacity="0.7554289419565883"/><circle cx="1646.157875444311" cy="419.61289367908915" r="1.8347622422349552" fill="#fff" opacity="0.5587298543096357"/><circle cx="153.07901862847595" cy="230.13980406665704" r="1.7972686199464996" fill="#fff" opacity="0.691092973875602"/><circle cx="1709.7934193419742" cy="279.45396487960915" r="1.3525572720338956" fill="#fff" opacity="0.6004507396371221"/><circle cx="802.3241746803569" cy="263.57351882559567" r="1.4059236882966766" fill="#fff" opacity="0.5971096053247129"/><circle cx="1042.3843836231122" cy="79.46958707633185" r="0.5831679069863558" fill="#fff" opacity="0.5770227176083771"/><circle cx="501.37564313164347" cy="312.331691907796" r="1.603105833894365" fill="#fff" opacity="0.5305727253506363"/><circle cx="1023.9807028472378" cy="351.7686718329249" r="1.7537435952699147" fill="#fff" opacity="0.48582830133052274"/><circle cx="1208.6084253919796" cy="343.0962527671587" r="0.7811895291742844" fill="#fff" opacity="0.4447789250511627"/><circle cx="939.5884486240308" cy="163.34535544443534" r="1.4740364014809106" fill="#fff" opacity="0.2721774860453274"/><circle cx="1893.511896723302" cy="309.3563130547657" r="1.5652921430452942" fill="#fff" opacity="0.590805903121551"/><circle cx="1454.2509679901998" cy="118.61624268596438" r="0.5369303056590562" fill="#fff" opacity="0.5798566586291083"/><circle cx="1114.4057954462257" cy="219.14735513812568" r="1.3967518647892287" fill="#fff" opacity="0.5946005653111731"/><circle cx="1373.2506375231899" cy="27.28038291523242" r="1.0468187417245514" fill="#fff" opacity="0.7188341405519363"/><rect x="5.981810187451031" y="558.3229974979356" width="67.14509231903243" height="309.3469064471654" fill="#003566" opacity="0.5325367394444851" rx="2"/><rect x="34.42656629286394" y="568.3229974979356" width="10.255580108206622" height="6.330517314451401" fill="#ffc300" opacity="0.14364295491102222" rx="1"/><rect x="17.640293213105828" y="571.4882561551613" width="10.255580108206622" height="6.330517314451401" fill="#ffd60a" opacity="0.07182147745551111" rx="1"/><rect x="37.49150310375064" y="619.8808152391298" width="4.12570648643321" height="6.253628894745751" fill="#ffc300" opacity="0.5842150388248766" rx="1"/><rect x="20.705230023992534" y="623.0076296865027" width="4.12570648643321" height="6.253628894745751" fill="#ffd60a" opacity="0.2921075194124383" rx="1"/><rect x="36.76443384489148" y="671.4386329803241" width="5.579845004151539" height="8.28567940794995" fill="#ffc300" opacity="0.5448888529895081" rx="1"/><rect x="19.97816076513337" y="675.5814726842991" width="5.579845004151539" height="8.28567940794995" fill="#ffd60a" opacity="0.27244442649475403" rx="1"/><rect x="33.817829966735516" y="722.9964507215183" width="11.473052760463453" height="9.173814628080887" fill="#ffc300" opacity="0.4136978781115491" rx="1"/><rect x="17.031556886977413" y="727.5833580355587" width="11.473052760463453" height="9.173814628080887" fill="#ffd60a" opacity="0.20684893905577456" rx="1"/><rect x="37.17316105220773" y="774.5542684627126" width="4.762390589519029" height="7.497168096130986" fill="#ffc300" opacity="0.15574676186212963" rx="1"/><rect x="20.386887972449625" y="778.302852510778" width="4.762390589519029" height="7.497168096130986" fill="#ffd60a" opacity="0.07787338093106481" rx="1"/><rect x="37.276269595203054" y="826.1120862039068" width="4.55617350352839" height="9.500130719388865" fill="#ffc300" opacity="0.12321736619882691" rx="1"/><rect x="20.489996515444943" y="830.8621515636012" width="4.55617350352839" height="9.500130719388865" fill="#ffd60a" opacity="0.061608683099413454" rx="1"/><rect x="99.57151522384294" y="674.1391854067657" width="61.3413418064223" height="193.53071853833524" fill="#003566" opacity="0.4047257481619543" rx="2"/><rect x="124.43825442144606" y="684.1391854067657" width="11.607863411216034" height="7.029446285457687" fill="#ffc300" opacity="0.4285763674249352" rx="1"/><rect x="109.10291896984049" y="687.6539085494945" width="11.607863411216034" height="7.029446285457687" fill="#ffd60a" opacity="0.2142881837124676" rx="1"/><rect x="127.55506055116538" y="711.7864309122422" width="5.374251151777397" height="8.960632560532687" fill="#ffc300" opacity="0.34734325177207204" rx="1"/><rect x="112.21972509955981" y="716.2667471925085" width="5.374251151777397" height="8.960632560532687" fill="#ffd60a" opacity="0.17367162588603602" rx="1"/><rect x="127.11167526759945" y="739.4336764177186" width="6.261021718909271" height="6.178339304443994" fill="#ffc300" opacity="0.16380194659899033" rx="1"/><rect x="111.77633981599388" y="742.5228460699407" width="6.261021718909271" height="6.178339304443994" fill="#ffd60a" opacity="0.08190097329949517" rx="1"/><rect x="124.73515472554955" y="767.0809219231951" width="11.014062803009073" height="6.214473835242557" fill="#ffc300" opacity="0.5834542942660521" rx="1"/><rect x="109.39981927394398" y="770.1881588408164" width="11.014062803009073" height="6.214473835242557" fill="#ffd60a" opacity="0.29172714713302605" rx="1"/><rect x="126.979276108085" y="794.7281674286716" width="6.525820037938146" height="8.741660618861593" fill="#ffc300" opacity="0.41534018945306084" rx="1"/><rect x="111.64394065647943" y="799.0989977381023" width="6.525820037938146" height="8.741660618861593" fill="#ffd60a" opacity="0.20767009472653042" rx="1"/><rect x="127.80801063096337" y="822.375412934148" width="4.86835099218142" height="8.421298605953645" fill="#ffc300" opacity="0.3141856387523435" rx="1"/><rect x="112.4726751793578" y="826.5860622371248" width="4.86835099218142" height="8.421298605953645" fill="#ffd60a" opacity="0.15709281937617176" rx="1"/><rect x="125.54621736252359" y="850.0226584396245" width="9.391937529060975" height="8.900998864998343" fill="#ffc300" opacity="0.44471430404687173" rx="1"/><rect x="110.21088191091802" y="854.4731578721237" width="9.391937529060975" height="8.900998864998343" fill="#ffd60a" opacity="0.22235715202343587" rx="1"/><rect x="192.47549771854548" y="781.8941046208828" width="32.693187003650976" height="85.77579932421814" fill="#001b4c" opacity="0.5842269517910263" rx="2"/><rect x="203.9239076187191" y="791.8941046208828" width="9.7963672033037" height="6.248233432008008" fill="#ffc300" opacity="0.18282459680522434" rx="1"/><rect x="195.7506108678064" y="795.0182213368868" width="9.7963672033037" height="6.248233432008008" fill="#ffd60a" opacity="0.09141229840261217" rx="1"/><rect x="205.32884034708346" y="809.0492644857264" width="6.986501746575" height="8.46260059589115" fill="#ffc300" opacity="0.22745707613123978" rx="1"/><rect x="197.15554359617073" y="813.280564783672" width="6.986501746575" height="8.46260059589115" fill="#ffd60a" opacity="0.11372853806561989" rx="1"/><rect x="205.66007022295614" y="826.2044243505701" width="6.324041994829672" height="9.698232129145934" fill="#ffc300" opacity="0.5843003776586383" rx="1"/><rect x="197.4867734720434" y="831.0535404151431" width="6.324041994829672" height="9.698232129145934" fill="#ffd60a" opacity="0.29215018882931915" rx="1"/><rect x="206.47249516599635" y="843.3595842154136" width="4.699192108749224" height="7.058835412622158" fill="#ffc300" opacity="0.5510706419709769" rx="1"/><rect x="198.29919841508362" y="846.8890019217247" width="4.699192108749224" height="7.058835412622158" fill="#ffd60a" opacity="0.27553532098548844" rx="1"/><rect x="206.1232923644416" y="860.5147440802573" width="5.397597711858712" height="8.163497994226287" fill="#ffc300" opacity="0.4242196446108212" rx="1"/><rect x="197.94999561352887" y="864.5964930773704" width="5.397597711858712" height="8.163497994226287" fill="#ffd60a" opacity="0.2121098223054106" rx="1"/><rect x="289.65569797429623" y="544.7207200677881" width="35.97860688948506" height="322.94918387731286" fill="#001b4c" opacity="0.4186662873529518" rx="2"/><rect x="304.71197925594447" y="554.7207200677881" width="5.8660443261885185" height="6.519522926891112" fill="#ffc300" opacity="0.28257410246473136" rx="1"/><rect x="295.7173275335732" y="557.9804815312336" width="5.8660443261885185" height="6.519522926891112" fill="#ffd60a" opacity="0.14128705123236568" rx="1"/><rect x="302.4152107754292" y="608.5455840473402" width="10.459581287219091" height="6.402537148539568" fill="#ffc300" opacity="0.10718850933648379" rx="1"/><rect x="293.42055905305796" y="611.74685262161" width="10.459581287219091" height="6.402537148539568" fill="#ffd60a" opacity="0.05359425466824189" rx="1"/><rect x="305.22492870693674" y="662.3704480268924" width="4.840145424203981" height="9.85928046979459" fill="#ffc300" opacity="0.28806154448261057" rx="1"/><rect x="296.2302769845655" y="667.3000882617897" width="4.840145424203981" height="9.85928046979459" fill="#ffd60a" opacity="0.14403077224130528" rx="1"/><rect x="302.2351279187098" y="716.1953120064445" width="10.819747000657895" height="8.991687886182145" fill="#ffc300" opacity="0.23908462020081575" rx="1"/><rect x="293.24047619633853" y="720.6911559495355" width="10.819747000657895" height="8.991687886182145" fill="#ffd60a" opacity="0.11954231010040788" rx="1"/><rect x="303.86992322534087" y="770.0201759859966" width="7.550156387395727" height="7.380484695867748" fill="#ffc300" opacity="0.15845264137220863" rx="1"/><rect x="294.8752715029696" y="773.7104183339305" width="7.550156387395727" height="7.380484695867748" fill="#ffd60a" opacity="0.07922632068610432" rx="1"/><rect x="304.54116352823127" y="823.8450399655487" width="6.207675781615003" height="8.704424856860289" fill="#ffc300" opacity="0.22318598016239377" rx="1"/><rect x="295.54651180586" y="828.1972523939788" width="6.207675781615003" height="8.704424856860289" fill="#ffd60a" opacity="0.11159299008119689" rx="1"/><rect x="409.88974718374425" y="778.2550672717055" width="86.11332144497739" height="89.41483667339544" fill="#001b4c" opacity="0.4460275007519004" rx="2"/><rect x="447.5218075556964" y="788.2550672717055" width="10.84920070107309" height="8.997889695455761" fill="#ffc300" opacity="0.5383331861901873" rx="1"/><rect x="425.99347719445205" y="792.7540121194334" width="10.84920070107309" height="8.997889695455761" fill="#ffd60a" opacity="0.26916659309509366" rx="1"/><rect x="447.1987853250929" y="803.1575400506047" width="11.495245162280101" height="9.871673894084914" fill="#ffc300" opacity="0.24065560759991772" rx="1"/><rect x="425.67045496384856" y="808.0933769976472" width="11.495245162280101" height="9.871673894084914" fill="#ffd60a" opacity="0.12032780379995886" rx="1"/><rect x="447.6024610992992" y="818.060012829504" width="10.687893613867438" height="6.3041352723501936" fill="#ffc300" opacity="0.40142622273448536" rx="1"/><rect x="426.07413073805486" y="821.212080465679" width="10.687893613867438" height="6.3041352723501936" fill="#ffd60a" opacity="0.20071311136724268" rx="1"/><rect x="450.50922516023485" y="832.9624856084032" width="4.874365491996139" height="8.754731287889818" fill="#ffc300" opacity="0.386116047130459" rx="1"/><rect x="428.9808947989905" y="837.3398512523481" width="4.874365491996139" height="8.754731287889818" fill="#ffd60a" opacity="0.1930580235652295" rx="1"/><rect x="448.0545132483948" y="847.8649583873024" width="9.783789315676268" height="8.334261946923625" fill="#ffc300" opacity="0.43997100715990434" rx="1"/><rect x="426.52618288715047" y="852.0320893607642" width="9.783789315676268" height="8.334261946923625" fill="#ffd60a" opacity="0.21998550357995217" rx="1"/><rect x="450.390532900903" y="862.7674311662016" width="5.1117500106598595" height="9.909004691967043" fill="#ffc300" opacity="0.3686196212350902" rx="1"/><rect x="428.86220253965865" y="867.7219335121852" width="5.1117500106598595" height="9.909004691967043" fill="#ffd60a" opacity="0.1843098106175451" rx="1"/><rect x="493.7977838129266" y="696.1796845067711" width="67.65627487973688" height="171.49021943832986" fill="#003566" opacity="0.499302619299689" rx="2"/><rect x="524.7401615692629" y="706.1796845067711" width="5.771519367064237" height="9.801344934804678" fill="#ffc300" opacity="0.10172505329868875" rx="1"/><rect x="507.8260928493287" y="711.0803569741735" width="5.771519367064237" height="9.801344934804678" fill="#ffd60a" opacity="0.050862526649344375" rx="1"/><rect x="522.4114912951858" y="727.6159619365624" width="10.428859915218517" height="8.86957351278271" fill="#ffc300" opacity="0.24003213544842605" rx="1"/><rect x="505.49742257525156" y="732.0507486929537" width="10.428859915218517" height="8.86957351278271" fill="#ffd60a" opacity="0.12001606772421303" rx="1"/><rect x="522.2097434874647" y="749.0522393663535" width="10.832355530660681" height="8.892599572169734" fill="#ffc300" opacity="0.3770826185068774" rx="1"/><rect x="505.29567476753044" y="753.4985391524384" width="10.832355530660681" height="8.892599572169734" fill="#ffd60a" opacity="0.1885413092534387" rx="1"/><rect x="522.9561970522525" y="770.4885167961447" width="9.339448401084972" height="8.185769786635825" fill="#ffc300" opacity="0.1332775946085522" rx="1"/><rect x="506.0421283323183" y="774.5814016894626" width="9.339448401084972" height="8.185769786635825" fill="#ffd60a" opacity="0.0666387973042761" rx="1"/><rect x="523.1960649304549" y="791.924794225936" width="8.859712644680336" height="8.823499902808923" fill="#ffc300" opacity="0.5484178153677886" rx="1"/><rect x="506.2819962105206" y="796.3365441773404" width="8.859712644680336" height="8.823499902808923" fill="#ffd60a" opacity="0.2742089076838943" rx="1"/><rect x="525.4407793549916" y="813.3610716557273" width="4.370283795606877" height="7.593769199585954" fill="#ffc300" opacity="0.1866650252339116" rx="1"/><rect x="508.5267106350574" y="817.1579562555203" width="4.370283795606877" height="7.593769199585954" fill="#ffd60a" opacity="0.0933325126169558" rx="1"/><rect x="522.1962821928776" y="834.7973490855185" width="10.859278119834904" height="6.000620242208387" fill="#ffc300" opacity="0.15767366326359886" rx="1"/><rect x="505.28221347294334" y="837.7976592066227" width="10.859278119834904" height="6.000620242208387" fill="#ffd60a" opacity="0.07883683163179943" rx="1"/><rect x="524.8930363426667" y="856.2336265153097" width="5.465769820256571" height="7.19804533598899" fill="#ffc300" opacity="0.44305228242721695" rx="1"/><rect x="507.9789676227325" y="859.8326491833042" width="5.465769820256571" height="7.19804533598899" fill="#ffd60a" opacity="0.22152614121360847" rx="1"/><rect x="587.3530207172392" y="550.3396824585134" width="47.16817131665725" height="317.33022148658756" fill="#001b4c" opacity="0.41262449377976" rx="2"/><rect x="606.5594577764998" y="560.3396824585134" width="8.755297198136173" height="9.53160494555058" fill="#ffc300" opacity="0.32123183513088893" rx="1"/><rect x="594.7674149473355" y="565.1054849312886" width="8.755297198136173" height="9.53160494555058" fill="#ffd60a" opacity="0.16061591756544447" rx="1"/><rect x="605.2865676005107" y="639.6722378301603" width="11.301077550114384" height="9.260022343895404" fill="#ffc300" opacity="0.5218831609287027" rx="1"/><rect x="593.4945247713464" y="644.3022490021079" width="11.301077550114384" height="9.260022343895404" fill="#ffd60a" opacity="0.26094158046435134" rx="1"/><rect x="605.5089996802874" y="719.0047932018072" width="10.856213390560871" height="6.12857996116592" fill="#ffc300" opacity="0.17996465593575608" rx="1"/><rect x="593.7169568511231" y="722.0690831823902" width="10.856213390560871" height="6.12857996116592" fill="#ffd60a" opacity="0.08998232796787804" rx="1"/><rect x="608.7001969040605" y="798.337348573454" width="4.473818943014792" height="8.181373353624105" fill="#ffc300" opacity="0.5490584507465964" rx="1"/><rect x="596.9081540748962" y="802.4280352502661" width="4.473818943014792" height="8.181373353624105" fill="#ffd60a" opacity="0.2745292253732982" rx="1"/><rect x="696.5587486039285" y="531.2996390581363" width="37.828716493171804" height="336.37026488696466" fill="#003566" opacity="0.6286217947091493" rx="2"/><rect x="711.5557832598117" y="541.2996390581363" width="7.834647181405371" height="6.447645515307702" fill="#ffc300" opacity="0.2156839668088788" rx="1"/><rect x="702.0986041365187" y="544.5234618157901" width="7.834647181405371" height="6.447645515307702" fill="#ffd60a" opacity="0.1078419834044394" rx="1"/><rect x="709.6447544821177" y="608.5736920355292" width="11.656704736793579" height="6.851467966300311" fill="#ffc300" opacity="0.5003238652135068" rx="1"/><rect x="700.1875753588247" y="611.9994260186794" width="11.656704736793579" height="6.851467966300311" fill="#ffd60a" opacity="0.2501619326067534" rx="1"/><rect x="711.9455671917987" y="675.8477450129221" width="7.055079317431682" height="8.684698152049608" fill="#ffc300" opacity="0.5892214365511251" rx="1"/><rect x="702.4883880685056" y="680.1900940889469" width="7.055079317431682" height="8.684698152049608" fill="#ffd60a" opacity="0.29461071827556257" rx="1"/><rect x="711.1816620892337" y="743.1217979903151" width="8.582889522561544" height="7.1646604279905235" fill="#ffc300" opacity="0.19467872152912402" rx="1"/><rect x="701.7244829659406" y="746.7041282043105" width="8.582889522561544" height="7.1646604279905235" fill="#ffd60a" opacity="0.09733936076456201" rx="1"/><rect x="712.257203787858" y="810.395850967708" width="6.431806125312999" height="7.618077391203976" fill="#ffc300" opacity="0.11148153387743084" rx="1"/><rect x="702.800024664565" y="814.20488966331" width="6.431806125312999" height="7.618077391203976" fill="#ffd60a" opacity="0.05574076693871542" rx="1"/><rect x="789.7933166427057" y="620.2850882942521" width="54.4737888231114" height="247.38481565084888" fill="#001b4c" opacity="0.6985384102441693" rx="2"/><rect x="811.9596745136566" y="630.2850882942521" width="10.141073081209573" height="9.31058077218723" fill="#ffc300" opacity="0.40300650333590027" rx="1"/><rect x="798.3412273078789" y="634.9403786803457" width="10.141073081209573" height="9.31058077218723" fill="#ffd60a" opacity="0.20150325166795013" rx="1"/><rect x="814.1260852285488" y="679.7620514244219" width="5.808251651424973" height="6.8985608417770266" fill="#ffc300" opacity="0.3538425959073572" rx="1"/><rect x="800.5076380227711" y="683.2113318453104" width="5.808251651424973" height="6.8985608417770266" fill="#ffd60a" opacity="0.1769212979536786" rx="1"/><rect x="813.4851875455317" y="729.2390145545917" width="7.0900470174593035" height="7.565489194720399" fill="#ffc300" opacity="0.49394003208585546" rx="1"/><rect x="799.866740339754" y="733.0217591519519" width="7.0900470174593035" height="7.565489194720399" fill="#ffd60a" opacity="0.24697001604292773" rx="1"/><rect x="813.97083078068" y="778.7159776847614" width="6.118760547162676" height="6.757111686458138" fill="#ffc300" opacity="0.443242472699667" rx="1"/><rect x="800.3523835749022" y="782.0945335279904" width="6.118760547162676" height="6.757111686458138" fill="#ffd60a" opacity="0.2216212363498335" rx="1"/><rect x="812.5039237447791" y="828.1929408149313" width="9.05257461896459" height="9.65811757176605" fill="#ffc300" opacity="0.20182376499330246" rx="1"/><rect x="798.8854765390013" y="833.0219996008143" width="9.05257461896459" height="9.65811757176605" fill="#ffd60a" opacity="0.10091188249665123" rx="1"/><rect x="891.0656356418192" y="668.1548260311025" width="82.1471230341464" height="199.51507791399843" fill="#001b4c" opacity="0.5433870212508801" rx="2"/><rect x="927.0911253919106" y="678.1548260311025" width="10.096143533963744" height="7.80894429185636" fill="#ffc300" opacity="0.5914399003590084" rx="1"/><rect x="906.554344633374" y="682.0592981770307" width="10.096143533963744" height="7.80894429185636" fill="#ffd60a" opacity="0.2957199501795042" rx="1"/><rect x="926.7675910596195" y="718.0578416139022" width="10.743212198545972" height="7.924852403328952" fill="#ffc300" opacity="0.19101496452722116" rx="1"/><rect x="906.2308103010828" y="722.0202678155666" width="10.743212198545972" height="7.924852403328952" fill="#ffd60a" opacity="0.09550748226361058" rx="1"/><rect x="928.1855838324841" y="757.9608571967019" width="7.907226652816689" height="8.546800537627842" fill="#ffc300" opacity="0.16525977283373006" rx="1"/><rect x="907.6488030739474" y="762.2342574655158" width="7.907226652816689" height="8.546800537627842" fill="#ffd60a" opacity="0.08262988641686503" rx="1"/><rect x="927.3164231112032" y="797.8638727795015" width="9.645548095378455" height="8.033033767257127" fill="#ffc300" opacity="0.47455614187627937" rx="1"/><rect x="906.7796423526665" y="801.8803896631301" width="9.645548095378455" height="8.033033767257127" fill="#ffd60a" opacity="0.23727807093813968" rx="1"/><rect x="928.6694795805191" y="837.7668883623012" width="6.939435156746637" height="9.206019798108848" fill="#ffc300" opacity="0.22438549569910055" rx="1"/><rect x="908.1326988219824" y="842.3698982613556" width="6.939435156746637" height="9.206019798108848" fill="#ffd60a" opacity="0.11219274784955027" rx="1"/><rect x="972.1795274718152" y="774.7430523565838" width="30.81422046311531" height="92.92685158851717" fill="#001b4c" opacity="0.6148680641816157" rx="2"/><rect x="985.3279768783432" y="784.7430523565838" width="4.51732165005927" height="8.882198315784848" fill="#ffc300" opacity="0.38987771547163785" rx="1"/><rect x="977.6244217625643" y="789.1841515144762" width="4.51732165005927" height="8.882198315784848" fill="#ffd60a" opacity="0.19493885773581893" rx="1"/><rect x="983.0936831748331" y="807.9747652537131" width="8.985909057079327" height="7.188145957232487" fill="#ffc300" opacity="0.1663031692538185" rx="1"/><rect x="975.3901280590543" y="811.5688382323294" width="8.985909057079327" height="7.188145957232487" fill="#ffd60a" opacity="0.08315158462690925" rx="1"/><rect x="984.4054621237809" y="831.2064781508424" width="6.362351159183856" height="9.470273625913606" fill="#ffc300" opacity="0.2873031158901991" rx="1"/><rect x="976.7019070080021" y="835.9416149637992" width="6.362351159183856" height="9.470273625913606" fill="#ffd60a" opacity="0.14365155794509954" rx="1"/><rect x="985.220931464392" y="854.4381910479717" width="4.731412477961604" height="9.447480996010704" fill="#ffc300" opacity="0.4332018021804285" rx="1"/><rect x="977.5173763486132" y="859.161931545977" width="4.731412477961604" height="9.447480996010704" fill="#ffd60a" opacity="0.21660090109021424" rx="1"/><rect x="1074.5346385833188" y="554.7331029676677" width="42.837115589724185" height="312.9368009774333" fill="#003566" opacity="0.4639300431972207" rx="2"/><rect x="1090.9455876815937" y="564.7331029676677" width="10.015217393174584" height="9.47257967839776" fill="#ffc300" opacity="0.5085483277236457" rx="1"/><rect x="1080.2363087841625" y="569.4693928068666" width="10.015217393174584" height="9.47257967839776" fill="#ffd60a" opacity="0.25427416386182283" rx="1"/><rect x="1092.3455308464695" y="609.4383602501582" width="7.21533106342315" height="6.553104795644317" fill="#ffc300" opacity="0.41331849687577193" rx="1"/><rect x="1081.6362519490383" y="612.7149126479803" width="7.21533106342315" height="6.553104795644317" fill="#ffd60a" opacity="0.20665924843788597" rx="1"/><rect x="1090.0326954813283" y="654.1436175326487" width="11.84100179370516" height="8.98658463428416" fill="#ffc300" opacity="0.10629977090430907" rx="1"/><rect x="1079.3234165838971" y="658.6369098497908" width="11.84100179370516" height="8.98658463428416" fill="#ffd60a" opacity="0.05314988545215454" rx="1"/><rect x="1093.3146065646583" y="698.8488748151392" width="5.277179627045332" height="7.604555634223986" fill="#ffc300" opacity="0.40662588083805185" rx="1"/><rect x="1082.6053276672271" y="702.6511526322512" width="5.277179627045332" height="7.604555634223986" fill="#ffd60a" opacity="0.20331294041902592" rx="1"/><rect x="1090.2662398459545" y="743.5541320976296" width="11.373913064453266" height="7.483194930824264" fill="#ffc300" opacity="0.45790213799520907" rx="1"/><rect x="1079.5569609485233" y="747.2957295630417" width="11.373913064453266" height="7.483194930824264" fill="#ffd60a" opacity="0.22895106899760453" rx="1"/><rect x="1091.7720511315326" y="788.2593893801201" width="8.362290493296992" height="8.966537984778764" fill="#ffc300" opacity="0.5686522156625642" rx="1"/><rect x="1081.0627722341014" y="792.7426583725095" width="8.362290493296992" height="8.966537984778764" fill="#ffd60a" opacity="0.2843261078312821" rx="1"/><rect x="1092.1412012486583" y="832.9646466626106" width="7.623990259045733" height="6.322603680268537" fill="#ffc300" opacity="0.5042938824054538" rx="1"/><rect x="1081.431922351227" y="836.1259485027448" width="7.623990259045733" height="6.322603680268537" fill="#ffd60a" opacity="0.2521469412027269" rx="1"/><rect x="1165.7354474942515" y="562.0650062482024" width="62.70117731129312" height="305.60489769689855" fill="#003566" opacity="0.5648758576402617" rx="2"/><rect x="1194.9050016416948" y="572.0650062482024" width="4.362069016406794" height="6.035303458579654" fill="#ffc300" opacity="0.4398915711650373" rx="1"/><rect x="1179.2297073138714" y="575.0826579774922" width="4.362069016406794" height="6.035303458579654" fill="#ffd60a" opacity="0.21994578558251865" rx="1"/><rect x="1194.5475167477382" y="622.9991558643521" width="5.077038804319929" height="6.336363528002138" fill="#ffc300" opacity="0.3053669789352843" rx="1"/><rect x="1178.8722224199148" y="626.1673376283532" width="5.077038804319929" height="6.336363528002138" fill="#ffd60a" opacity="0.15268348946764215" rx="1"/><rect x="1191.7440440893974" y="673.9333054805019" width="10.683984121001322" height="8.06325362018851" fill="#ffc300" opacity="0.10943814346320885" rx="1"/><rect x="1176.068749761574" y="677.9649322905962" width="10.683984121001322" height="8.06325362018851" fill="#ffd60a" opacity="0.054719071731604424" rx="1"/><rect x="1191.3317658589995" y="724.8674550966516" width="11.508540581797376" height="6.137119819442071" fill="#ffc300" opacity="0.37049977152387137" rx="1"/><rect x="1175.656471531176" y="727.9360150063726" width="11.508540581797376" height="6.137119819442071" fill="#ffd60a" opacity="0.18524988576193568" rx="1"/><rect x="1194.4262318381634" y="775.8016047128015" width="5.319608623469158" height="6.844957903224267" fill="#ffc300" opacity="0.24635664600561297" rx="1"/><rect x="1178.75093751034" y="779.2240836644136" width="5.319608623469158" height="6.844957903224267" fill="#ffd60a" opacity="0.12317832300280648" rx="1"/><rect x="1192.5619975327425" y="826.7357543289512" width="9.048077234311048" height="9.356056732906973" fill="#ffc300" opacity="0.3589966075632248" rx="1"/><rect x="1176.886703204919" y="831.4137826954047" width="9.048077234311048" height="9.356056732906973" fill="#ffd60a" opacity="0.1794983037816124" rx="1"/><rect x="1274.9364297359568" y="617.9815675173843" width="58.241742357667945" height="249.6883364277166" fill="#001b4c" opacity="0.5863826482059393" rx="2"/><rect x="1301.7370110998716" y="627.9815675173843" width="4.6405796298386015" height="8.121776192011726" fill="#ffc300" opacity="0.27876993123878957" rx="1"/><rect x="1287.1765755104545" y="632.0424556133902" width="4.6405796298386015" height="8.121776192011726" fill="#ffd60a" opacity="0.13938496561939479" rx="1"/><rect x="1301.0351861580357" y="711.2110129932898" width="6.044229513510183" height="7.459964538332998" fill="#ffc300" opacity="0.531338583801719" rx="1"/><rect x="1286.4747505686187" y="714.9409952624563" width="6.044229513510183" height="7.459964538332998" fill="#ffd60a" opacity="0.2656692919008595" rx="1"/><rect x="1298.5946436048473" y="794.4404584691954" width="10.925314619886995" height="6.567245149185705" fill="#ffc300" opacity="0.2913233789827962" rx="1"/><rect x="1284.0342080154303" y="797.7240810437883" width="10.925314619886995" height="6.567245149185705" fill="#ffd60a" opacity="0.1456616894913981" rx="1"/><rect x="1346.1706526847954" y="631.91987432817" width="78.56951698860375" height="235.75002961693102" fill="#003566" opacity="0.4998410011641311" rx="2"/><rect x="1382.4808459075823" y="641.91987432817" width="5.9491305430301304" height="7.971017970231133" fill="#ffc300" opacity="0.252547691751399" rx="1"/><rect x="1362.8384666604313" y="645.9053833132855" width="5.9491305430301304" height="7.971017970231133" fill="#ffd60a" opacity="0.1262738458756995" rx="1"/><rect x="1379.7955243933936" y="700.8573817324027" width="11.31977357140737" height="7.4921451419340785" fill="#ffc300" opacity="0.4871764299429898" rx="1"/><rect x="1360.1531451462427" y="704.6034543033697" width="11.31977357140737" height="7.4921451419340785" fill="#ffd60a" opacity="0.2435882149714949" rx="1"/><rect x="1381.6107215440393" y="759.7948891366354" width="7.689379270116188" height="8.350638719822895" fill="#ffc300" opacity="0.3295526936020592" rx="1"/><rect x="1361.9683422968883" y="763.9702084965469" width="7.689379270116188" height="8.350638719822895" fill="#ffd60a" opacity="0.1647763468010296" rx="1"/><rect x="1379.7752722186913" y="818.7323965408682" width="11.360277920812432" height="6.251227418950579" fill="#ffc300" opacity="0.414255599005673" rx="1"/><rect x="1360.1328929715403" y="821.8580102503435" width="11.360277920812432" height="6.251227418950579" fill="#ffd60a" opacity="0.2071277995028365" rx="1"/><rect x="1449.2947221778554" y="634.9763990926967" width="64.38300633672229" height="232.69350485240423" fill="#003566" opacity="0.4288807837126965" rx="2"/><rect x="1478.6739870737479" y="644.9763990926967" width="5.62447654493723" height="6.384202837102162" fill="#ffc300" opacity="0.1299476847355132" rx="1"/><rect x="1462.5782354895673" y="648.1685005112478" width="5.62447654493723" height="6.384202837102162" fill="#ffd60a" opacity="0.0649738423677566" rx="1"/><rect x="1478.383762741318" y="703.1497753057978" width="6.204925209797203" height="7.452938232909175" fill="#ffc300" opacity="0.3943848989192361" rx="1"/><rect x="1462.2880111571374" y="706.8762444222524" width="6.204925209797203" height="7.452938232909175" fill="#ffd60a" opacity="0.19719244945961806" rx="1"/><rect x="1477.3107639742807" y="761.3231515188988" width="8.350922743871557" height="9.396962117263339" fill="#ffc300" opacity="0.5001353370026069" rx="1"/><rect x="1461.2150123901001" y="766.0216325775305" width="8.350922743871557" height="9.396962117263339" fill="#ffd60a" opacity="0.25006766850130346" rx="1"/><rect x="1479.4374153913086" y="819.4965277319999" width="4.097619909815867" height="9.690639253633712" fill="#ffc300" opacity="0.4658900592396711" rx="1"/><rect x="1463.341663807128" y="824.3418473588167" width="4.097619909815867" height="9.690639253633712" fill="#ffd60a" opacity="0.23294502961983554" rx="1"/><rect x="1549.2006101340987" y="699.7184752718822" width="72.72157752949781" height="167.9514286732188" fill="#001b4c" opacity="0.479155788821903" rx="2"/><rect x="1583.557002703323" y="709.7184752718822" width="4.008792391048929" height="9.34945176712923" fill="#ffc300" opacity="0.5466457628753608" rx="1"/><rect x="1565.3766083209487" y="714.3932011554468" width="4.008792391048929" height="9.34945176712923" fill="#ffd60a" opacity="0.2733228814376804" rx="1"/><rect x="1581.0102078039222" y="751.7063324401869" width="9.102382189850879" height="9.623264143155716" fill="#ffc300" opacity="0.45053309352382387" rx="1"/><rect x="1562.829813421548" y="756.5179645117647" width="9.102382189850879" height="9.623264143155716" fill="#ffd60a" opacity="0.22526654676191193" rx="1"/><rect x="1582.8398581747522" y="793.6941896084916" width="5.4430814481906316" height="7.036568631659394" fill="#ffc300" opacity="0.4163587788158001" rx="1"/><rect x="1564.659463792378" y="797.2124739243212" width="5.4430814481906316" height="7.036568631659394" fill="#ffd60a" opacity="0.20817938940790004" rx="1"/><rect x="1582.5123551584575" y="835.6820467767963" width="6.098087480780223" height="8.070779252348183" fill="#ffc300" opacity="0.2800397461466584" rx="1"/><rect x="1564.3319607760832" y="839.7174364029703" width="6.098087480780223" height="8.070779252348183" fill="#ffd60a" opacity="0.1400198730733292" rx="1"/><rect x="1652.0391166866848" y="586.8657016863268" width="75.14211946752437" height="280.8042022587741" fill="#001b4c" opacity="0.6866445073128316" rx="2"/><rect x="1686.9410800668275" y="596.8657016863268" width="5.338192707239229" height="7.07003915427952" fill="#ffc300" opacity="0.12071755240222383" rx="1"/><rect x="1668.1555501999462" y="600.4007212634666" width="5.338192707239229" height="7.07003915427952" fill="#ffd60a" opacity="0.060358776201111915" rx="1"/><rect x="1684.41077075233" y="631.9662269686736" width="10.398811336233935" height="8.302011292032434" fill="#ffc300" opacity="0.32368663123894637" rx="1"/><rect x="1665.6252408854489" y="636.1172326146898" width="10.398811336233935" height="8.302011292032434" fill="#ffd60a" opacity="0.16184331561947318" rx="1"/><rect x="1683.8371558158744" y="667.0667522510204" width="11.546041209144992" height="6.76788791752604" fill="#ffc300" opacity="0.37014469478049894" rx="1"/><rect x="1665.0516259489932" y="670.4506962097834" width="11.546041209144992" height="6.76788791752604" fill="#ffd60a" opacity="0.18507234739024947" rx="1"/><rect x="1687.5298402911355" y="702.1672775333672" width="4.160672258623101" height="9.663623917769552" fill="#ffc300" opacity="0.4894544880346988" rx="1"/><rect x="1668.7443104242543" y="706.999089492252" width="4.160672258623101" height="9.663623917769552" fill="#ffd60a" opacity="0.2447272440173494" rx="1"/><rect x="1684.9397300518908" y="737.2678028157138" width="9.340892737112217" height="9.253763484594822" fill="#ffc300" opacity="0.18148179577698043" rx="1"/><rect x="1666.1542001850096" y="741.8946845580112" width="9.340892737112217" height="9.253763484594822" fill="#ffd60a" opacity="0.09074089788849021" rx="1"/><rect x="1684.8844249322742" y="772.3683280980606" width="9.451502976345715" height="8.17029972238706" fill="#ffc300" opacity="0.4391136678026788" rx="1"/><rect x="1666.098895065393" y="776.4534779592541" width="9.451502976345715" height="8.17029972238706" fill="#ffd60a" opacity="0.2195568339013394" rx="1"/><rect x="1687.3189641093647" y="807.4688533804074" width="4.582424622164672" height="9.629785033788016" fill="#ffc300" opacity="0.17702947293339052" rx="1"/><rect x="1668.5334342424835" y="812.2837458973014" width="4.582424622164672" height="9.629785033788016" fill="#ffd60a" opacity="0.08851473646669526" rx="1"/><rect x="1685.8357041135514" y="842.5693786627542" width="7.54894461379129" height="8.05251513376192" fill="#ffc300" opacity="0.30581952044875815" rx="1"/><rect x="1667.0501742466702" y="846.5956362296351" width="7.54894461379129" height="8.05251513376192" fill="#ffd60a" opacity="0.15290976022437908" rx="1"/><rect x="1748.7953087382007" y="638.8864070267618" width="66.95041271321253" height="228.78349691833915" fill="#001b4c" opacity="0.4801386572840015" rx="2"/><rect x="1776.2854542223004" y="648.8864070267618" width="11.970121745013195" height="6.452338902385053" fill="#ffc300" opacity="0.33480516991922754" rx="1"/><rect x="1759.547851043997" y="652.1125764779543" width="11.970121745013195" height="6.452338902385053" fill="#ffd60a" opacity="0.16740258495961377" rx="1"/><rect x="1777.4164868580215" y="694.6431064104297" width="9.708056473570888" height="9.724468834634049" fill="#ffc300" opacity="0.37180768928299834" rx="1"/><rect x="1760.6788836797182" y="699.5053408277467" width="9.708056473570888" height="9.724468834634049" fill="#ffd60a" opacity="0.18590384464149917" rx="1"/><rect x="1779.7910896150374" y="740.3998057940975" width="4.958850959539146" height="7.472269319340649" fill="#ffc300" opacity="0.5969848586472182" rx="1"/><rect x="1763.0534864367341" y="744.1359404537678" width="4.958850959539146" height="7.472269319340649" fill="#ffd60a" opacity="0.2984924293236091" rx="1"/><rect x="1776.975767233869" y="786.1565051777653" width="10.589495721876037" height="7.031881403418231" fill="#ffc300" opacity="0.5190883162475862" rx="1"/><rect x="1760.2381640555657" y="789.6724458794745" width="10.589495721876037" height="7.031881403418231" fill="#ffd60a" opacity="0.2595441581237931" rx="1"/><rect x="1779.6986743483455" y="831.9132045614332" width="5.143681492922753" height="8.073527130781097" fill="#ffc300" opacity="0.1487006314910717" rx="1"/><rect x="1762.9610711700423" y="835.9499681268237" width="5.143681492922753" height="8.073527130781097" fill="#ffd60a" opacity="0.07435031574553586" rx="1"/><rect x="1846.3014342417712" y="520.1142925583092" width="39.57968518360976" height="347.5556113867917" fill="#003566" opacity="0.5321269060792697" rx="2"/><rect x="1861.171434627886" y="530.1142925583092" width="9.839684411380366" height="8.214656451301337" fill="#ffc300" opacity="0.24714083230289186" rx="1"/><rect x="1851.2765133319833" y="534.2216207839599" width="9.839684411380366" height="8.214656451301337" fill="#ffd60a" opacity="0.12357041615144593" rx="1"/><rect x="1862.4715933644845" y="645.9661630205732" width="7.239366938182936" height="7.850370912312151" fill="#ffc300" opacity="0.5205338682328663" rx="1"/><rect x="1852.576672068582" y="649.8913484767293" width="7.239366938182936" height="7.850370912312151" fill="#ffd60a" opacity="0.26026693411643315" rx="1"/><rect x="1863.2571620219987" y="761.818033482837" width="5.66822962315479" height="8.417008066181328" fill="#ffc300" opacity="0.3926982988819243" rx="1"/><rect x="1853.3622407260962" y="766.0265375159277" width="5.66822962315479" height="8.417008066181328" fill="#ffd60a" opacity="0.19634914944096216" rx="1"/><path d="M1356.3026581882273 963.8768757376533 Q1339.7884608059628 886.4334048904557 1336.48562132951 808.989934043258" stroke="#000019" stroke-width="5.9775099358469035" fill="none" stroke-linecap="round"/><path d="M1336.48562132951 808.989934043258 Q1372.5158744690743 788.989934043258 1376.70188980985 808.989934043258" stroke="#000233" stroke-width="2.7206217895077125" fill="none" stroke-linecap="round" opacity="0.6"/><path d="M1336.48562132951 808.989934043258 Q1365.5811160985063 796.7495319326542 1377.73944016432 824.5091298220503" stroke="#000233" stroke-width="2.8611978960365985" fill="none" stroke-linecap="round" opacity="0.6"/><path d="M1336.48562132951 808.989934043258 Q1352.2442090428838 793.7950940985852 1329.173978489319 818.6002541539124" stroke="#000233" stroke-width="3.6211494360168346" fill="none" stroke-linecap="round" opacity="0.6"/><path d="M1336.48562132951 808.989934043258 Q1314.0634080546865 793.4592534759529 1274.614705128793 817.9285729086479" stroke="#000233" stroke-width="3.468897234524809" fill="none" stroke-linecap="round" opacity="0.6"/><path d="M1336.48562132951 808.989934043258 Q1320.9048665520631 785.2409678938411 1284.5868985009122 801.4920017444241" stroke="#000233" stroke-width="2.331686542446652" fill="none" stroke-linecap="round" opacity="0.6"/><path d="M1336.48562132951 808.989934043258 Q1340.6365765301148 778.6812242902007 1320.799649792727 788.3725145371434" stroke="#000233" stroke-width="2.1846780972985265" fill="none" stroke-linecap="round" opacity="0.6"/><path d="M1336.48562132951 808.989934043258 Q1362.6989986794563 783.5066095293971 1365.6376572122476 798.0232850155361" stroke="#000233" stroke-width="2.2798275338206038" fill="none" stroke-linecap="round" opacity="0.6"/><path d="M1752.4367777613077 800.1467016758738 Q1750.052488616214 732.0315889972335 1749.5756307871955 663.9164763185931" stroke="#000019" stroke-width="5.3005539479899575" fill="none" stroke-linecap="round"/><path d="M1749.5756307871955 663.9164763185931 Q1785.9985343124713 643.9164763185931 1798.5424220698285 663.9164763185931" stroke="#000233" stroke-width="3.1507975261543875" fill="none" stroke-linecap="round" opacity="0.6"/><path d="M1749.5756307871955 663.9164763185931 Q1775.583511984912 650.899490529432 1786.700750836073 677.8825047402709" stroke="#000233" stroke-width="2.8163846765683" fill="none" stroke-linecap="round" opacity="0.6"/><path d="M1749.5756307871955 663.9164763185931 Q1751.7245001749823 649.2848525587627 1741.4069851545964 674.6532287989323" stroke="#000233" stroke-width="3.4999024866847095" fill="none" stroke-linecap="round" opacity="0.6"/><path d="M1749.5756307871955 663.9164763185931 Q1717.618636616611 649.104338485306 1677.757585509546 674.2922006520189" stroke="#000233" stroke-width="3.962932678396565" fill="none" stroke-linecap="round" opacity="0.6"/><path d="M1749.5756307871955 663.9164763185931 Q1721.8539753310106 639.8072267803386 1692.6893335202578 655.697977242084" stroke="#000233" stroke-width="2.160454742647813" fill="none" stroke-linecap="round" opacity="0.6"/><path d="M1749.5756307871955 663.9164763185931 Q1749.290881649627 635.8025372672595 1737.2292731867533 647.6885982159258" stroke="#000233" stroke-width="3.008521197598549" fill="none" stroke-linecap="round" opacity="0.6"/><path d="M140.61945635374158 904.2333908854596 Q124.78695962223853 796.5469671521678 121.62046027593792 688.860543418876" stroke="#000019" stroke-width="5.5056086996350455" fill="none" stroke-linecap="round"/><path d="M121.62046027593792 688.860543418876 Q163.47562943270327 668.860543418876 188.70227188493644 688.860543418876" stroke="#000233" stroke-width="2.375988388521594" fill="none" stroke-linecap="round" opacity="0.6"/><path d="M121.62046027593792 688.860543418876 Q149.11137531045551 675.7831887288144 158.42462971158753 702.7058340387528" stroke="#000233" stroke-width="2.849393254343745" fill="none" stroke-linecap="round" opacity="0.6"/><path d="M121.62046027593792 688.860543418876 Q120.63337073957034 675.3365018634101 111.76649190669313 701.8124603079444" stroke="#000233" stroke-width="3.2254321508168786" fill="none" stroke-linecap="round" opacity="0.6"/><path d="M121.62046027593792 688.860543418876 Q126.00442134079321 670.8905598240793 93.51797693728743 692.9205762292827" stroke="#000233" stroke-width="2.216668666856519" fill="none" stroke-linecap="round" opacity="0.6"/><path d="M121.62046027593792 688.860543418876 Q101.65583409777261 663.9398693816955 53.50122745085034 679.0191953445151" stroke="#000233" stroke-width="2.3725785409036506" fill="none" stroke-linecap="round" opacity="0.6"/><path d="M121.62046027593792 688.860543418876 Q116.68208402282679 661.9711808483539 111.13744661307511 675.0818182778318" stroke="#000233" stroke-width="3.8040410563824794" fill="none" stroke-linecap="round" opacity="0.6"/><path d="M1535.3106624482457 882.2344660717608 Q1525.349119162501 781.5413643854067 1523.356810505352 680.8482626990527" stroke="#000019" stroke-width="4.239357638228535" fill="none" stroke-linecap="round"/><path d="M1523.356810505352 680.8482626990527 Q1559.988668972158 660.8482626990527 1562.750039389066 680.8482626990527" stroke="#000233" stroke-width="3.7146982969051923" fill="none" stroke-linecap="round" opacity="0.6"/><path d="M1523.356810505352 680.8482626990527 Q1549.1197246619502 667.5228029937002 1558.8419322920504 694.1973432883478" stroke="#000233" stroke-width="2.215868359016224" fill="none" stroke-linecap="round" opacity="0.6"/><path d="M1523.356810505352 680.8482626990527 Q1526.8425411233413 668.3640008168375 1511.9206893012877 695.8797389346221" stroke="#000233" stroke-width="3.8939926600768215" fill="none" stroke-linecap="round" opacity="0.6"/><path d="M1523.356810505352 680.8482626990527 Q1492.1198179677044 666.034032895551 1451.5677253671122 691.2198030920495" stroke="#000233" stroke-width="3.045302276277287" fill="none" stroke-linecap="round" opacity="0.6"/><path d="M1523.356810505352 680.8482626990527 Q1505.6599599732074 657.9838472615775 1483.703344208089 675.1194318241022" stroke="#000233" stroke-width="2.696015550917018" fill="none" stroke-linecap="round" opacity="0.6"/><path d="M1523.356810505352 680.8482626990527 Q1526.2654504494947 651.9275511987661 1509.7828492596348 663.0068396984794" stroke="#000233" stroke-width="2.2115781219237434" fill="none" stroke-linecap="round" opacity="0.6"/><path d="M1523.356810505352 680.8482626990527 Q1561.9368434800926 652.1719259346655 1569.4844617225574 663.4955891702784" stroke="#000233" stroke-width="3.9145664688932165" fill="none" stroke-linecap="round" opacity="0.6"/><rect x="0" y="1000" width="1920" height="80" fill="#000f40" opacity="0.8"/><line x1="0" y1="1040" x2="1920" y2="1040" stroke="#ffc300" stroke-opacity="0.15" stroke-width="2" stroke-dasharray="30,20"/><rect x="0" y="930" width="1920" height="150" fill="url(#glow54)"/><text x="1900" y="1060" font-family="Arial, sans-serif" font-size="11" fill="#fff" opacity="0.08" text-anchor="end" letter-spacing="2">GTA 6 REWARDS · WALLPAPER 055</text>
</svg>