<?xml version="1.0" encoding="UTF-8"?>
<svg xmlns="http://www.w3.org/2000/svg" width="1920" height="1080" viewBox="0 0 1920 1080">
<defs>
    <linearGradient id="bg14" x1="0%" y1="0%" x2="0%" y2="100%">
      <stop offset="0%" stop-color="#003566"/>
      <stop offset="50%" stop-color="#000233"/>
      <stop offset="100%" stop-color="#003566"/>
    </linearGradient>
    <linearGradient id="sun14" x1="0%" y1="0%" x2="100%" y2="100%">
      <stop offset="0%" stop-color="#ffd60a"/>
      <stop offset="100%" stop-color="#ffc300"/>
    </linearGradient>
    <radialGradient id="glow14" cx="50%" cy="70%" r="50%">
      <stop offset="0%" stop-color="#ffd60a" stop-opacity="0.3"/>
      <stop offset="100%" stop-color="#003566" stop-opacity="0"/>
    </radialGradient>
  </defs><rect width="1920" height="1080" fill="url(#bg14)"/><circle cx="810.971592392533" cy="404.28000134515577" r="706.1548056560929" fill="#ffd60a" opacity="0.06942979733446376"/><circle cx="1010.971592392533" cy="304.28000134515577" r="485.10694333471054" fill="#ffc300" opacity="0.10377647104993847"/><circle cx="1422.2287522447828" cy="412.7468930004972" r="60.42826849977213" fill="url(#sun14)" opacity="0.7083626301047304"/><circle cx="1422.2287522447828" cy="412.7468930004972" r="55.42826849977213" fill="#003566" opacity="0.3"/><circle cx="20.528552238952496" cy="70.27929906320742" r="1.00523327407549" fill="#fff" opacity="0.4552649403119611"/><circle cx="1789.2018811100168" cy="29.368736001981596" r="1.4665289054313975" fill="#fff" opacity="0.35321496505132294"/><circle cx="1483.175229179481" cy="169.44828070175097" r="1.9280612082053117" fill="#fff" opacity="0.5901018041162989"/><circle cx="1752.2673099842546" cy="112.23230577638195" r="0.8311041083259285" fill="#fff" opacity="0.23030155436841343"/><circle cx="1245.0117859162883" cy="101.04311158625482" r="0.7315687982438991" fill="#fff" opacity="0.5526911586878568"/><circle cx="559.1907304337227" cy="22.256553394314032" r="1.9219807154550173" fill="#fff" opacity="0.539569757399049"/><circle cx="1495.3775761032891" cy="334.9527862740105" r="1.4948020793951122" fill="#fff" opacity="0.378903848021036"/><circle cx="917.0773862947424" cy="256.3983615041707" r="0.5003138415050492" fill="#fff" opacity="0.4400985189341238"/><circle cx="1418.1495634043006" cy="338.99359185690844" r="0.8283084296454463" fill="#fff" opacity="0.44078486129659805"/><circle cx="180.4035325768412" cy="258.39218030180604" r="0.5263538553906497" fill="#fff" opacity="0.43697828604769384"/><circle cx="948.9635268573098" cy="34.32895914891944" r="1.0493019507381371" fill="#fff" opacity="0.49245149500026636"/><circle cx="671.5237973703826" cy="346.240620544702" r="1.8383304358782087" fill="#fff" opacity="0.4393637942707547"/><circle cx="1039.561705980348" cy="264.34719970271624" r="1.2884853926460456" fill="#fff" opacity="0.6330500593485893"/><circle cx="515.6959503599666" cy="176.42548798034562" r="0.8853269556735938" fill="#fff" opacity="0.6644057742469958"/><circle cx="1915.5845104147643" cy="239.53123281140142" r="0.6123755702544877" fill="#fff" opacity="0.32377444489946927"/><circle cx="1050.8892088595053" cy="256.7657105477447" r="1.921815737947313" fill="#fff" opacity="0.524314661911762"/><circle cx="9.62205112204469" cy="407.416329977898" r="1.2804288449185968" fill="#fff" opacity="0.4905685311859866"/><circle cx="1851.5492145557769" cy="132.02623070497677" r="1.2254722799932287" fill="#fff" opacity="0.7407426245372608"/><circle cx="1649.637541856998" cy="275.2977898761858" r="0.7800995859503977" fill="#fff" opacity="0.3775664462190043"/><circle cx="1051.0191194179977" cy="371.6674753920332" r="1.4869576765892463" fill="#fff" opacity="0.42159291538912635"/><circle cx="1105.663227696359" cy="141.23274443979207" r="0.530718641712032" fill="#fff" opacity="0.36804037191160965"/><circle cx="856.1524113025871" cy="328.31290667697624" r="1.6180351639906956" fill="#fff" opacity="0.2553467303643345"/><circle cx="10.390468689238297" cy="285.18582465806645" r="1.822501281584264" fill="#fff" opacity="0.6703408234450827"/><circle cx="652.1478050975473" cy="427.7234775302288" r="1.3162988506528315" fill="#fff" opacity="0.5298573327087466"/><circle cx="1673.5676523469313" cy="78.26417307515261" r="0.8612697791217989" fill="#fff" opacity="0.7127399884426826"/><circle cx="927.9108513071925" cy="429.5254054957827" r="1.5266111833105356" fill="#fff" opacity="0.22569569787608826"/><circle cx="350.2551703970542" cy="300.96193130616143" r="1.7820590866687847" fill="#fff" opacity="0.6810419989472818"/><circle cx="981.1512782473935" cy="3.84793276056832" r="1.130922340469184" fill="#fff" opacity="0.46737256731543986"/><circle cx="1070.6011831272863" cy="0.09444839137011403" r="1.849720249965256" fill="#fff" opacity="0.4621939104195204"/><circle cx="1357.9596929433662" cy="377.05905437680406" r="1.9454655285099207" fill="#fff" opacity="0.30269507293186504"/><circle cx="453.1244249206792" cy="195.2978629887332" r="1.3940663295551357" fill="#fff" opacity="0.6980054032751372"/><circle cx="1809.537518594772" cy="81.31944729045952" r="1.5971799051848194" fill="#fff" opacity="0.6583529906017596"/><circle cx="1533.3689872020318" cy="29.007396380651606" r="0.8058057276778402" fill="#fff" opacity="0.6282290560259085"/><circle cx="306.60280249700946" cy="271.04570461042357" r="1.8202223255811778" fill="#fff" opacity="0.7157454308857549"/><circle cx="1325.7199008869288" cy="214.1073460630391" r="1.15744492322147" fill="#fff" opacity="0.6476362288109111"/><circle cx="179.59132928857377" cy="280.26791389479024" r="1.4489247032787942" fill="#fff" opacity="0.6680645405007677"/><circle cx="1746.345018853048" cy="239.19082156177396" r="1.1754190704495224" fill="#fff" opacity="0.6335598254654462"/><circle cx="1664.6728902460711" cy="395.9325251346297" r="1.3260652221101488" fill="#fff" opacity="0.25877208645892613"/><circle cx="1685.1189372886715" cy="267.5481367771393" r="0.9991718106901208" fill="#fff" opacity="0.5486762801531414"/><circle cx="1009.664378252268" cy="416.8947366254625" r="1.2576347125595517" fill="#fff" opacity="0.5095578684726632"/><circle cx="1386.7145127306494" cy="90.72731780883096" r="0.5217139306528759" fill="#fff" opacity="0.329233230168287"/><circle cx="92.21456947089511" cy="391.2515692317978" r="1.127019001666228" fill="#fff" opacity="0.5866728933962697"/><circle cx="590.3641754273242" cy="220.574267636187" r="0.9542635931759755" fill="#fff" opacity="0.24400821003224893"/><circle cx="89.61724611223146" cy="142.2054490815395" r="1.8804330075812603" fill="#fff" opacity="0.3066768368023161"/><circle cx="1385.0743325299293" cy="413.9983066502023" r="0.5410036570488018" fill="#fff" opacity="0.6283522725171299"/><circle cx="1674.5969080353614" cy="157.84025917151948" r="1.1547202067809925" fill="#fff" opacity="0.7500482735107765"/><circle cx="162.16352868875572" cy="72.0230354312861" r="0.6496968375634627" fill="#fff" opacity="0.6169378902336904"/><circle cx="1539.4146367021403" cy="205.84218962440318" r="1.2798010899638295" fill="#fff" opacity="0.4445340769469119"/><circle cx="1131.346485431154" cy="347.2789607186054" r="1.6649680319626274" fill="#fff" opacity="0.22882970153094032"/><circle cx="1000.436497861621" cy="186.22027341886897" r="1.6251984117844138" fill="#fff" opacity="0.201210120367168"/><circle cx="681.5896079041039" cy="180.27531079302435" r="1.5563207444633171" fill="#fff" opacity="0.21371719506888587"/><circle cx="548.3044893826135" cy="64.71985748054456" r="0.7610225283450034" fill="#fff" opacity="0.30441538828993575"/><circle cx="850.9049541249184" cy="424.1422516312781" r="1.6093720542521617" fill="#fff" opacity="0.4344818863632348"/><circle cx="893.4579480284494" cy="120.69766802915782" r="1.0095612847966984" fill="#fff" opacity="0.4777354849683436"/><circle cx="278.1814335934309" cy="258.8810392475876" r="1.0867605188597833" fill="#fff" opacity="0.5225489219470296"/><circle cx="697.7063912287603" cy="200.2309522051902" r="0.8970185765989633" fill="#fff" opacity="0.6902596271807001"/><circle cx="1533.8866656119671" cy="414.60626301882" r="1.2692801282436774" fill="#fff" opacity="0.7987136192616806"/><circle cx="1885.6698949555098" cy="206.01373043610104" r="1.3572204942715402" fill="#fff" opacity="0.3585892956607485"/><circle cx="741.7092474041762" cy="370.00379039021294" r="1.2147160386002427" fill="#fff" opacity="0.6636238248235602"/><circle cx="436.71985845005133" cy="366.93526247491485" r="1.1058380978894042" fill="#fff" opacity="0.22050986635044914"/><circle cx="201.4502393178293" cy="176.47897159691877" r="1.4647687162423433" fill="#fff" opacity="0.4170832679181088"/><circle cx="311.0737033912618" cy="198.38446312546367" r="0.6341651130081538" fill="#fff" opacity="0.37410136241794134"/><circle cx="1462.322750134003" cy="406.7450556062965" r="1.5099006006517215" fill="#fff" opacity="0.6956116884703775"/><circle cx="1445.4933566240345" cy="296.66624177076534" r="1.1748725455661473" fill="#fff" opacity="0.6682552445838823"/><circle cx="346.6993703755316" cy="193.6040465872744" r="0.8278387804347647" fill="#fff" opacity="0.7157923045837769"/><circle cx="284.62656325768364" cy="275.3407153122455" r="1.317138849016544" fill="#fff" opacity="0.38883879924864484"/><circle cx="1574.5535766274093" cy="42.63340143361906" r="1.4569410353333088" fill="#fff" opacity="0.5962569995308893"/><circle cx="602.3865318210763" cy="105.91809359423772" r="1.6763491306166045" fill="#fff" opacity="0.501670328970456"/><circle cx="1326.4710924137548" cy="203.36535845961546" r="1.0830116833287784" fill="#fff" opacity="0.34295628446688786"/><circle cx="1028.8589928459512" cy="427.6729018640874" r="0.8156210337336225" fill="#fff" opacity="0.41223887084336924"/><circle cx="1311.6972155942808" cy="211.7192418360429" r="1.9016202110568108" fill="#fff" opacity="0.3889654827744154"/><circle cx="1733.4860756559033" cy="317.01089988206763" r="0.98664116859125" fill="#fff" opacity="0.23049834301474"/><circle cx="51.53494344361474" cy="418.8443364917404" r="1.6935393320614331" fill="#fff" opacity="0.7500018746475694"/><circle cx="1288.295563759351" cy="326.82775128419223" r="0.6594834869400327" fill="#fff" opacity="0.7422750862180896"/><circle cx="1480.7821305563632" cy="59.09769555812182" r="1.4514733564461286" fill="#fff" opacity="0.20423664511280057"/><rect x="14.30974193017691" y="662.5490118080165" width="66.58403721092829" height="309.54128878878925" fill="#001b4c" opacity="0.6730013599323578" rx="2"/><rect x="44.81125340326952" y="672.5490118080165" width="5.5810142647430805" height="6.349021724506519" fill="#ffc300" opacity="0.4874763454979929" rx="1"/><rect x="28.16524410053744" y="675.7235226702697" width="5.5810142647430805" height="6.349021724506519" fill="#ffd60a" opacity="0.24373817274899645" rx="1"/><rect x="43.11224055898195" y="711.2416729066152" width="8.9790399533182" height="7.012181109053125" fill="#ffc300" opacity="0.47758579544666824" rx="1"/><rect x="26.46623125624988" y="714.7477634611417" width="8.9790399533182" height="7.012181109053125" fill="#ffd60a" opacity="0.23879289772333412" rx="1"/><rect x="44.546941921940764" y="749.9343340052138" width="6.109637227400587" height="7.58004398773891" fill="#ffc300" opacity="0.18049070301477116" rx="1"/><rect x="27.90093261920869" y="753.7243559990833" width="6.109637227400587" height="7.58004398773891" fill="#ffd60a" opacity="0.09024535150738558" rx="1"/><rect x="43.41510343049074" y="788.6269951038125" width="8.37331421030064" height="8.657119334362708" fill="#ffc300" opacity="0.10966186740194957" rx="1"/><rect x="26.76909412775866" y="792.9555547709939" width="8.37331421030064" height="8.657119334362708" fill="#ffd60a" opacity="0.054830933700974784" rx="1"/><rect x="44.396103487209444" y="827.3196562024111" width="6.411314096863222" height="7.9639189564538935" fill="#ffc300" opacity="0.4658297382914065" rx="1"/><rect x="27.75009418447737" y="831.3016156806381" width="6.411314096863222" height="7.9639189564538935" fill="#ffd60a" opacity="0.23291486914570325" rx="1"/><rect x="43.67934289171345" y="866.0123173010098" width="7.844835287855201" height="9.08371012729679" fill="#ffc300" opacity="0.15422149890899228" rx="1"/><rect x="27.033333588981378" y="870.5541723646583" width="7.844835287855201" height="9.08371012729679" fill="#ffd60a" opacity="0.07711074945449614" rx="1"/><rect x="44.87185272850838" y="904.7049783996085" width="5.459815614265347" height="9.900565047725236" fill="#ffc300" opacity="0.1111829059923028" rx="1"/><rect x="28.225843425776308" y="909.6552609234711" width="5.459815614265347" height="9.900565047725236" fill="#ffd60a" opacity="0.0555914529961514" rx="1"/><rect x="41.973977442126255" y="943.3976394982071" width="11.255566187029604" height="7.128469459975248" fill="#ffc300" opacity="0.20078708108067211" rx="1"/><rect x="25.32796813939418" y="946.9618742281948" width="11.255566187029604" height="7.128469459975248" fill="#ffd60a" opacity="0.10039354054033606" rx="1"/><rect x="141.25195819680857" y="839.7034216182548" width="76.87377656038706" height="132.3868789785511" fill="#003566" opacity="0.6804180358258118" rx="2"/><rect x="177.65771006854663" y="849.7034216182548" width="4.062272816910937" height="8.334904928304" fill="#ffc300" opacity="0.3009782860290674" rx="1"/><rect x="158.43926592844988" y="853.8708740824068" width="4.062272816910937" height="8.334904928304" fill="#ffd60a" opacity="0.1504891430145337" rx="1"/><rect x="174.06778256107768" y="866.2517814905736" width="11.242127831848833" height="8.67241844969625" fill="#ffc300" opacity="0.2324486870161371" rx="1"/><rect x="154.84933842098093" y="870.5879907154218" width="11.242127831848833" height="8.67241844969625" fill="#ffd60a" opacity="0.11622434350806855" rx="1"/><rect x="174.07112725429963" y="882.8001413628925" width="11.235438445404974" height="7.081766665233711" fill="#ffc300" opacity="0.32272563428215817" rx="1"/><rect x="154.85268311420288" y="886.3410246955094" width="11.235438445404974" height="7.081766665233711" fill="#ffd60a" opacity="0.16136281714107908" rx="1"/><rect x="174.8659407114298" y="899.3485012352114" width="9.645811531144616" height="8.575950011279422" fill="#ffc300" opacity="0.4554838631198471" rx="1"/><rect x="155.64749657133305" y="903.6364762408512" width="9.645811531144616" height="8.575950011279422" fill="#ffd60a" opacity="0.22774193155992356" rx="1"/><rect x="175.28251937690248" y="915.8968611075303" width="8.812654200199212" height="6.645374361575901" fill="#ffc300" opacity="0.448455158026995" rx="1"/><rect x="156.06407523680573" y="919.2195482883183" width="8.812654200199212" height="6.645374361575901" fill="#ffd60a" opacity="0.2242275790134975" rx="1"/><rect x="176.21812807890078" y="932.4452209798492" width="6.941436796202659" height="6.20475888722687" fill="#ffc300" opacity="0.5398996868263697" rx="1"/><rect x="156.99968393880403" y="935.5476004234627" width="6.941436796202659" height="6.20475888722687" fill="#ffd60a" opacity="0.26994984341318484" rx="1"/><rect x="176.76834196172848" y="948.9935808521681" width="5.841009030547228" height="6.976163061562963" fill="#ffc300" opacity="0.2660215696706487" rx="1"/><rect x="157.54989782163173" y="952.4816623829496" width="5.841009030547228" height="6.976163061562963" fill="#ffd60a" opacity="0.13301078483532436" rx="1"/><rect x="176.18273259074957" y="965.541940724487" width="7.012227772505076" height="9.954154583614821" fill="#ffc300" opacity="0.4046495982689433" rx="1"/><rect x="156.96428845065282" y="970.5190180162944" width="7.012227772505076" height="9.954154583614821" fill="#ffd60a" opacity="0.20232479913447166" rx="1"/><rect x="260.863676024802" y="872.1028436958098" width="40.05506670802251" height="99.98745690099602" fill="#003566" opacity="0.6295604092370627" rx="2"/><rect x="276.2016208416786" y="882.1028436958098" width="9.3791770742692" height="6.091028630754685" fill="#ffc300" opacity="0.36074281620344684" rx="1"/><rect x="266.18785416467296" y="885.1483580111872" width="9.3791770742692" height="6.091028630754685" fill="#ffd60a" opacity="0.18037140810172342" rx="1"/><rect x="277.8427348031762" y="894.6012758084344" width="6.096949151274037" height="7.031363941037879" fill="#ffc300" opacity="0.571950209925871" rx="1"/><rect x="267.82896812617054" y="898.1169577789533" width="6.096949151274037" height="7.031363941037879" fill="#ffd60a" opacity="0.2859751049629355" rx="1"/><rect x="277.2043106225795" y="907.0997079210589" width="7.373797512467438" height="6.58222082363959" fill="#ffc300" opacity="0.4356012079947631" rx="1"/><rect x="267.19054394557384" y="910.3908183328787" width="7.373797512467438" height="6.58222082363959" fill="#ffd60a" opacity="0.21780060399738155" rx="1"/><rect x="277.56120550878376" y="919.5981400336833" width="6.660007740058938" height="7.176188691793054" fill="#ffc300" opacity="0.47934420301563674" rx="1"/><rect x="267.5474388317781" y="923.1862343795798" width="6.660007740058938" height="7.176188691793054" fill="#ffd60a" opacity="0.23967210150781837" rx="1"/><rect x="276.13430790536444" y="932.0965721463078" width="9.513802946897643" height="8.665638249988117" fill="#ffc300" opacity="0.5340695048296055" rx="1"/><rect x="266.1205412283588" y="936.4293912713019" width="9.513802946897643" height="8.665638249988117" fill="#ffd60a" opacity="0.26703475241480273" rx="1"/><rect x="276.8188435337085" y="944.5950042589324" width="8.144731690209529" height="9.17516369167137" fill="#ffc300" opacity="0.524454864911841" rx="1"/><rect x="266.80507685670284" y="949.182586104768" width="8.144731690209529" height="9.17516369167137" fill="#ffd60a" opacity="0.2622274324559205" rx="1"/><rect x="276.5801665376826" y="957.0934363715569" width="8.62208568226129" height="9.4682562443121" fill="#ffc300" opacity="0.42639632998648946" rx="1"/><rect x="266.56639986067694" y="961.8275644937129" width="8.62208568226129" height="9.4682562443121" fill="#ffd60a" opacity="0.21319816499324473" rx="1"/><rect x="276.0351278700482" y="969.5918684841813" width="9.712163017530031" height="6.828124880983523" fill="#ffc300" opacity="0.5438035721992617" rx="1"/><rect x="266.0213611930426" y="973.0059309246731" width="9.712163017530031" height="6.828124880983523" fill="#ffd60a" opacity="0.27190178609963084" rx="1"/><rect x="369.50553932914175" y="698.9215334525614" width="48.51285340229814" height="273.1687671442444" fill="#003566" opacity="0.6642029475570197" rx="2"/><rect x="390.48803027521075" y="708.9215334525614" width="6.5478715101601255" height="9.262763822279583" fill="#ffc300" opacity="0.4570567936070862" rx="1"/><rect x="378.3598169246362" y="713.5529153637012" width="6.5478715101601255" height="9.262763822279583" fill="#ffd60a" opacity="0.2285283968035431" rx="1"/><rect x="388.3638089674906" y="799.9777891673095" width="10.796314125600343" height="7.542932441817348" fill="#ffc300" opacity="0.3937292175585705" rx="1"/><rect x="376.2355956169161" y="803.7492553882182" width="10.796314125600343" height="7.542932441817348" fill="#ffd60a" opacity="0.19686460877928524" rx="1"/><rect x="389.5365471445342" y="891.0340448820577" width="8.450837771513228" height="7.517441153879613" fill="#ffc300" opacity="0.17489393327266303" rx="1"/><rect x="377.4083337939597" y="894.7927654589976" width="8.450837771513228" height="7.517441153879613" fill="#ffd60a" opacity="0.08744696663633152" rx="1"/><rect x="501.62285597334215" y="852.9359784682598" width="56.111821314811664" height="119.15432212854603" fill="#003566" opacity="0.46990749029673345" rx="2"/><rect x="524.3171329035696" y="862.9359784682598" width="10.723267454356716" height="6.38644091235158" fill="#ffc300" opacity="0.31001159998355704" rx="1"/><rect x="510.28917757486676" y="866.1291989244356" width="10.723267454356716" height="6.38644091235158" fill="#ffd60a" opacity="0.15500579999177852" rx="1"/><rect x="527.256369071141" y="877.830268734328" width="4.844795119214057" height="7.3201938283909564" fill="#ffc300" opacity="0.1577623184206342" rx="1"/><rect x="513.2284137424381" y="881.4903656485235" width="4.844795119214057" height="7.3201938283909564" fill="#ffd60a" opacity="0.0788811592103171" rx="1"/><rect x="526.5298296826728" y="892.7245590003963" width="6.297873896150355" height="8.071071926986583" fill="#ffc300" opacity="0.2638615066567114" rx="1"/><rect x="512.5018743539699" y="896.7600949638896" width="6.297873896150355" height="8.071071926986583" fill="#ffd60a" opacity="0.1319307533283557" rx="1"/><rect x="527.3669380537157" y="907.6188492664646" width="4.623657154064546" height="8.57438942477442" fill="#ffc300" opacity="0.5488591599391911" rx="1"/><rect x="513.3389827250128" y="911.9060439788518" width="4.623657154064546" height="8.57438942477442" fill="#ffd60a" opacity="0.27442957996959555" rx="1"/><rect x="525.479832850974" y="922.5131395325328" width="8.397867559547972" height="6.748946741397713" fill="#ffc300" opacity="0.1538844086820922" rx="1"/><rect x="511.4518775222711" y="925.8876129032317" width="8.397867559547972" height="6.748946741397713" fill="#ffd60a" opacity="0.0769422043410461" rx="1"/><rect x="524.6800216328539" y="937.407429798601" width="9.997489995788198" height="7.873312042530932" fill="#ffc300" opacity="0.3157582479332942" rx="1"/><rect x="510.652066304151" y="941.3440858198665" width="9.997489995788198" height="7.873312042530932" fill="#ffd60a" opacity="0.1578791239666471" rx="1"/><rect x="524.5276568265464" y="952.3017200646693" width="10.302219608403327" height="9.434912483076312" fill="#ffc300" opacity="0.2648869534639844" rx="1"/><rect x="510.49970149784343" y="957.0191763062074" width="10.302219608403327" height="9.434912483076312" fill="#ffd60a" opacity="0.1324434767319922" rx="1"/><rect x="526.9843264222109" y="967.1960103307376" width="5.388880417074282" height="7.2704523609183855" fill="#ffc300" opacity="0.5987061523130877" rx="1"/><rect x="512.956371093508" y="970.8312365111968" width="5.388880417074282" height="7.2704523609183855" fill="#ffd60a" opacity="0.29935307615654383" rx="1"/><rect x="612.6447509258624" y="822.4777782038966" width="41.22831870131854" height="149.61252239290917" fill="#003566" opacity="0.5797085098875008" rx="2"/><rect x="629.6000056314748" y="832.4777782038966" width="7.317809290093791" height="7.546681883173688" fill="#ffc300" opacity="0.28262698296053035" rx="1"/><rect x="619.2929259561452" y="836.2511191454835" width="7.317809290093791" height="7.546681883173688" fill="#ffd60a" opacity="0.14131349148026517" rx="1"/><rect x="628.8999116373947" y="882.348619001533" width="8.717997278254014" height="6.507878163016373" fill="#ffc300" opacity="0.49328086210723987" rx="1"/><rect x="618.592831962065" y="885.6025580830412" width="8.717997278254014" height="6.507878163016373" fill="#ffd60a" opacity="0.24664043105361994" rx="1"/><rect x="631.192485487599" y="932.2194597991694" width="4.132849577845272" height="7.830647296698449" fill="#ffc300" opacity="0.3181047089905722" rx="1"/><rect x="620.8854058122694" y="936.1347834475187" width="4.132849577845272" height="7.830647296698449" fill="#ffd60a" opacity="0.1590523544952861" rx="1"/><rect x="734.3915070603582" y="830.8556330578531" width="57.15114973186309" height="141.2346675389527" fill="#001b4c" opacity="0.5091686624822134" rx="2"/><rect x="759.8552215585614" y="840.8556330578531" width="6.223720735456729" height="9.237093721338802" fill="#ffc300" opacity="0.3925943295221297" rx="1"/><rect x="745.5674341255956" y="845.4741799185225" width="6.223720735456729" height="9.237093721338802" fill="#ffd60a" opacity="0.19629716476106485" rx="1"/><rect x="757.6089940710481" y="869.1025665656437" width="10.716175710483494" height="7.222879403555504" fill="#ffc300" opacity="0.10213659857449509" rx="1"/><rect x="743.3212066380822" y="872.7140062674214" width="10.716175710483494" height="7.222879403555504" fill="#ffd60a" opacity="0.05106829928724754" rx="1"/><rect x="760.4014566404284" y="897.3495000734341" width="5.131250571722921" height="6.317681772708353" fill="#ffc300" opacity="0.2834555510858669" rx="1"/><rect x="746.1136692074625" y="900.5083409597883" width="5.131250571722921" height="6.317681772708353" fill="#ffd60a" opacity="0.14172777554293345" rx="1"/><rect x="760.6750042181637" y="925.5964335812247" width="4.584155416252128" height="8.93070497245777" fill="#ffc300" opacity="0.5553681795847063" rx="1"/><rect x="746.3872167851979" y="930.0617860674536" width="4.584155416252128" height="8.93070497245777" fill="#ffd60a" opacity="0.27768408979235315" rx="1"/><rect x="758.6989683266029" y="953.8433670890153" width="8.536227199373819" height="8.910972431979834" fill="#ffc300" opacity="0.3624621543247397" rx="1"/><rect x="744.411180893637" y="958.2988533050052" width="8.536227199373819" height="8.910972431979834" fill="#ffd60a" opacity="0.18123107716236986" rx="1"/><rect x="849.6712571893985" y="592.8371431871403" width="33.57351958834881" height="379.25315740966545" fill="#003566" opacity="0.4852284405113264" rx="2"/><rect x="864.2486226822363" y="602.8371431871403" width="4.418788602673167" height="9.117916417102776" fill="#ffc300" opacity="0.2931666057075296" rx="1"/><rect x="855.8552427851491" y="607.3961013956917" width="4.418788602673167" height="9.117916417102776" fill="#ffd60a" opacity="0.1465833028537648" rx="1"/><rect x="862.7690435517042" y="697.6504325395567" width="7.37794686373741" height="6.618654656367995" fill="#ffc300" opacity="0.5684089062429054" rx="1"/><rect x="854.375663654617" y="700.9597598677408" width="7.37794686373741" height="6.618654656367995" fill="#ffd60a" opacity="0.2842044531214527" rx="1"/><rect x="862.1828929407483" y="792.463721891973" width="8.550248085649276" height="6.226458848506785" fill="#ffc300" opacity="0.5573317681107045" rx="1"/><rect x="853.7895130436611" y="795.5769513162264" width="8.550248085649276" height="6.226458848506785" fill="#ffd60a" opacity="0.27866588405535225" rx="1"/><rect x="864.2837054117778" y="887.2770112443894" width="4.3486231435902" height="8.202513876883899" fill="#ffc300" opacity="0.45170343724351925" rx="1"/><rect x="855.8903255146906" y="891.3782681828313" width="4.3486231435902" height="8.202513876883899" fill="#ffd60a" opacity="0.22585171862175962" rx="1"/><rect x="960.2452424727951" y="853.2687158564265" width="77.06152905408794" height="118.82158474037925" fill="#003566" opacity="0.44347340277011355" rx="2"/><rect x="994.6126916063048" y="863.2687158564265" width="8.326630787068659" height="9.338470561275834" fill="#ffc300" opacity="0.29327660887345597" rx="1"/><rect x="975.3473093427829" y="867.9379511370645" width="8.326630787068659" height="9.338470561275834" fill="#ffd60a" opacity="0.14663830443672798" rx="1"/><rect x="993.2447168003406" y="892.9741120415214" width="11.06258039899696" height="8.174442470579976" fill="#ffc300" opacity="0.10365210627290702" rx="1"/><rect x="973.9793345368187" y="897.0613332768114" width="11.06258039899696" height="8.174442470579976" fill="#ffd60a" opacity="0.05182605313645351" rx="1"/><rect x="996.4288039210785" y="922.6795082266161" width="4.6944061575211595" height="8.909507856450395" fill="#ffc300" opacity="0.35626633322245127" rx="1"/><rect x="977.1634216575566" y="927.1342621548413" width="4.6944061575211595" height="8.909507856450395" fill="#ffd60a" opacity="0.17813316661122564" rx="1"/><rect x="994.0967973505838" y="952.384904411711" width="9.35841929851063" height="8.419500204366516" fill="#ffc300" opacity="0.324856998940198" rx="1"/><rect x="974.8314150870618" y="956.5946545138943" width="9.35841929851063" height="8.419500204366516" fill="#ffd60a" opacity="0.162428499470099" rx="1"/><rect x="1101.976021505421" y="660.0084568862823" width="32.97517006820421" height="312.0818437105236" fill="#003566" opacity="0.6497451711096207" rx="2"/><rect x="1115.924870664469" y="670.0084568862823" width="5.077471750107937" height="8.701035865280087" fill="#ffc300" opacity="0.5415232087349341" rx="1"/><rect x="1107.681078147418" y="674.3589748189223" width="5.077471750107937" height="8.701035865280087" fill="#ffd60a" opacity="0.27076160436746705" rx="1"/><rect x="1116.2301624755444" y="722.0220975047029" width="4.466888127957212" height="9.666008183654865" fill="#ffc300" opacity="0.4342324561286328" rx="1"/><rect x="1107.9863699584935" y="726.8551015965303" width="4.466888127957212" height="9.666008183654865" fill="#ffd60a" opacity="0.2171162280643164" rx="1"/><rect x="1115.0031327782203" y="774.0357381231235" width="6.920947522605059" height="9.096440090587464" fill="#ffc300" opacity="0.23076794627838954" rx="1"/><rect x="1106.7593402611694" y="778.5839581684172" width="6.920947522605059" height="9.096440090587464" fill="#ffd60a" opacity="0.11538397313919477" rx="1"/><rect x="1116.1591523376196" y="826.049378741544" width="4.6089084038066" height="8.792855236398255" fill="#ffc300" opacity="0.37634510672100474" rx="1"/><rect x="1107.9153598205687" y="830.4458063597432" width="4.6089084038066" height="8.792855236398255" fill="#ffd60a" opacity="0.18817255336050237" rx="1"/><rect x="1115.4236897324265" y="878.0630193599646" width="6.079833614192864" height="7.210723768270277" fill="#ffc300" opacity="0.4549306471494331" rx="1"/><rect x="1107.1798972153756" y="881.6683812440998" width="6.079833614192864" height="7.210723768270277" fill="#ffd60a" opacity="0.22746532357471655" rx="1"/><rect x="1116.0742920024957" y="930.0766599783852" width="4.778629074054451" height="7.016192106766671" fill="#ffc300" opacity="0.30552848773205854" rx="1"/><rect x="1107.8304994854448" y="933.5847560317686" width="4.778629074054451" height="7.016192106766671" fill="#ffd60a" opacity="0.15276424386602927" rx="1"/><rect x="1203.746964906749" y="609.8063102829751" width="35.85190746603811" height="362.28399031383077" fill="#003566" opacity="0.5057299491962721" rx="2"/><rect x="1218.7191119179406" y="619.8063102829751" width="5.907613443654872" height="8.5019003633647" fill="#ffc300" opacity="0.4997331121702988" rx="1"/><rect x="1209.756135051431" y="624.0572604646575" width="5.907613443654872" height="8.5019003633647" fill="#ffd60a" opacity="0.2498665560851494" rx="1"/><rect x="1218.161041739667" y="692.2631083457413" width="7.023753800202104" height="9.988600723442762" fill="#ffc300" opacity="0.19225294927420397" rx="1"/><rect x="1209.1980648731576" y="697.2574087074627" width="7.023753800202104" height="9.988600723442762" fill="#ffd60a" opacity="0.09612647463710199" rx="1"/><rect x="1219.3246181296008" y="764.7199064085074" width="4.696601020334429" height="8.744276327719977" fill="#ffc300" opacity="0.3208559456562754" rx="1"/><rect x="1210.3616412630913" y="769.0920445723674" width="4.696601020334429" height="8.744276327719977" fill="#ffd60a" opacity="0.1604279728281377" rx="1"/><rect x="1216.0519144011316" y="837.1767044712735" width="11.242008477272933" height="6.755051671703125" fill="#ffc300" opacity="0.2902266028780086" rx="1"/><rect x="1207.0889375346221" y="840.5542303071251" width="11.242008477272933" height="6.755051671703125" fill="#ffd60a" opacity="0.1451133014390043" rx="1"/><rect x="1218.5797511454625" y="909.6335025340397" width="6.186334988611362" height="8.014132597021323" fill="#ffc300" opacity="0.43835093091203625" rx="1"/><rect x="1209.616774278953" y="913.6405688325503" width="6.186334988611362" height="8.014132597021323" fill="#ffd60a" opacity="0.21917546545601813" rx="1"/><rect x="1325.0972582644545" y="810.0034156255432" width="64.36955676282979" height="162.08688497126263" fill="#003566" opacity="0.6880448682438687" rx="2"/><rect x="1353.8922295013658" y="820.0034156255432" width="6.77961428900706" height="8.630827183516423" fill="#ffc300" opacity="0.23232978110488733" rx="1"/><rect x="1337.7998403106585" y="824.3188292173014" width="6.77961428900706" height="8.630827183516423" fill="#ffd60a" opacity="0.11616489055244367" rx="1"/><rect x="1351.364079905293" y="874.0323772826307" width="11.835913481152597" height="7.891686625287795" fill="#ffc300" opacity="0.5512484333131575" rx="1"/><rect x="1335.2716907145857" y="877.9782205952746" width="11.835913481152597" height="7.891686625287795" fill="#ffd60a" opacity="0.27562421665657877" rx="1"/><rect x="1352.3096008848654" y="928.0613389397183" width="9.944871522007713" height="8.168589401563766" fill="#ffc300" opacity="0.49889563885491706" rx="1"/><rect x="1336.217211694158" y="932.1456336405003" width="9.944871522007713" height="8.168589401563766" fill="#ffd60a" opacity="0.24944781942745853" rx="1"/><rect x="1453.4363742460116" y="635.4602033471363" width="52.501082779490645" height="336.6300972496695" fill="#003566" opacity="0.6672957923652827" rx="2"/><rect x="1476.4052983302172" y="645.4602033471363" width="6.563234611079849" height="6.479486376158773" fill="#ffc300" opacity="0.5140555695430505" rx="1"/><rect x="1463.2800276353444" y="648.6999465352156" width="6.563234611079849" height="6.479486376158773" fill="#ffd60a" opacity="0.25702778477152527" rx="1"/><rect x="1477.358271160712" y="701.5652195554145" width="4.657288950089665" height="6.869648453050677" fill="#ffc300" opacity="0.544624847603176" rx="1"/><rect x="1464.2330004658393" y="705.0000437819399" width="4.657288950089665" height="6.869648453050677" fill="#ffd60a" opacity="0.272312423801588" rx="1"/><rect x="1476.1334741099583" y="757.6702357636927" width="7.106883051597253" height="6.5209321976920895" fill="#ffc300" opacity="0.13240178200239358" rx="1"/><rect x="1463.0082034150855" y="760.9307018625387" width="7.106883051597253" height="6.5209321976920895" fill="#ffd60a" opacity="0.06620089100119679" rx="1"/><rect x="1475.5940019843622" y="813.775251971971" width="8.185827302789741" height="7.959575136648392" fill="#ffc300" opacity="0.40311884307375156" rx="1"/><rect x="1462.4687312894894" y="817.7550395402952" width="8.185827302789741" height="7.959575136648392" fill="#ffd60a" opacity="0.20155942153687578" rx="1"/><rect x="1475.7225936513216" y="869.8802681802492" width="7.928643968871013" height="7.648502931382624" fill="#ffc300" opacity="0.3361760864118524" rx="1"/><rect x="1462.5973229564488" y="873.7045196459405" width="7.928643968871013" height="7.648502931382624" fill="#ffd60a" opacity="0.1680880432059262" rx="1"/><rect x="1476.3145251379617" y="925.9852843885276" width="6.744780995590794" height="7.6028927577666225" fill="#ffc300" opacity="0.422016300010033" rx="1"/><rect x="1463.1892544430889" y="929.7867307674109" width="6.744780995590794" height="7.6028927577666225" fill="#ffd60a" opacity="0.2110081500050165" rx="1"/><rect x="1568.2623638511316" y="890.008499249818" width="43.57074452880089" height="82.0818013469879" fill="#003566" opacity="0.6911378244615947" rx="2"/><rect x="1586.8679898935063" y="900.008499249818" width="6.359492444051312" height="8.265723441323667" fill="#ffc300" opacity="0.1815798589218361" rx="1"/><rect x="1575.9753037613061" y="904.1413609704798" width="6.359492444051312" height="8.265723441323667" fill="#ffd60a" opacity="0.09078992946091805" rx="1"/><rect x="1586.633680495814" y="920.528949586565" width="6.828111239436108" height="6.163809136525684" fill="#ffc300" opacity="0.5184436050519449" rx="1"/><rect x="1575.7409943636137" y="923.6108541548278" width="6.828111239436108" height="6.163809136525684" fill="#ffd60a" opacity="0.25922180252597243" rx="1"/><rect x="1584.6268389559414" y="941.049399923312" width="10.84179431918119" height="7.966478404115531" fill="#ffc300" opacity="0.3246631737157384" rx="1"/><rect x="1573.7341528237412" y="945.0326391253698" width="10.84179431918119" height="7.966478404115531" fill="#ffd60a" opacity="0.1623315868578692" rx="1"/><rect x="1584.8446006821107" y="961.569850260059" width="10.406270866842537" height="7.055202836416476" fill="#ffc300" opacity="0.14209603125743941" rx="1"/><rect x="1573.9519145499105" y="965.0974516782672" width="10.406270866842537" height="7.055202836416476" fill="#ffd60a" opacity="0.07104801562871971" rx="1"/><rect x="1697.1509205077662" y="612.4914790183518" width="82.0111404294174" height="359.59882157845396" fill="#003566" opacity="0.44579505269550607" rx="2"/><rect x="1732.7126486878176" y="622.4914790183518" width="10.887684069314897" height="9.482183434879916" fill="#ffc300" opacity="0.46401527418382826" rx="1"/><rect x="1712.2098635804632" y="627.2325707357918" width="10.887684069314897" height="9.482183434879916" fill="#ffd60a" opacity="0.23200763709191413" rx="1"/><rect x="1734.57292753029" y="673.8627392438452" width="7.167126384369825" height="6.197984116198025" fill="#ffc300" opacity="0.4169880548531627" rx="1"/><rect x="1714.0701424229355" y="676.9617313019443" width="7.167126384369825" height="6.197984116198025" fill="#ffd60a" opacity="0.20849402742658135" rx="1"/><rect x="1732.8949037194009" y="725.2339994693386" width="10.52317400614805" height="7.457075515169901" fill="#ffc300" opacity="0.25376026233512916" rx="1"/><rect x="1712.3921186120465" y="728.9625372269236" width="10.52317400614805" height="7.457075515169901" fill="#ffd60a" opacity="0.12688013116756458" rx="1"/><rect x="1732.2175321735485" y="776.6052596948321" width="11.877917097853011" height="6.3916986157167" fill="#ffc300" opacity="0.178234204109347" rx="1"/><rect x="1711.7147470661941" y="779.8011090026904" width="11.877917097853011" height="6.3916986157167" fill="#ffd60a" opacity="0.0891171020546735" rx="1"/><rect x="1735.770342704554" y="827.9765199203255" width="4.772296035842108" height="7.274557962379083" fill="#ffc300" opacity="0.514808845709732" rx="1"/><rect x="1715.2675575971996" y="831.613798901515" width="4.772296035842108" height="7.274557962379083" fill="#ffd60a" opacity="0.257404422854866" rx="1"/><rect x="1735.9399856848038" y="879.3477801458189" width="4.433010075342145" height="8.22363244793928" fill="#ffc300" opacity="0.5564666425475074" rx="1"/><rect x="1715.4372005774494" y="883.4595963697885" width="4.433010075342145" height="8.22363244793928" fill="#ffd60a" opacity="0.2782333212737537" rx="1"/><rect x="1735.7048483301667" y="930.7190403713123" width="4.903284784616736" height="8.100399724696857" fill="#ffc300" opacity="0.5829721394886663" rx="1"/><rect x="1715.2020632228123" y="934.7692402336608" width="4.903284784616736" height="8.100399724696857" fill="#ffd60a" opacity="0.29148606974433316" rx="1"/><rect x="1826.410716468564" y="844.5397387478827" width="50.46122872281383" height="127.55056184892322" fill="#003566" opacity="0.6944752827506688" rx="2"/><rect x="1849.3980448703278" y="854.5397387478827" width="4.486571919286291" height="9.759341790284807" fill="#ffc300" opacity="0.49157041113161726" rx="1"/><rect x="1836.7827376896244" y="859.4194096430251" width="4.486571919286291" height="9.759341790284807" fill="#ffd60a" opacity="0.24578520556580863" rx="1"/><rect x="1849.3017851319867" y="880.0498511176673" width="4.67909139596836" height="8.7082238194319" fill="#ffc300" opacity="0.583413842852091" rx="1"/><rect x="1836.6864779512832" y="884.4039630273833" width="4.67909139596836" height="8.7082238194319" fill="#ffd60a" opacity="0.2917069214260455" rx="1"/><rect x="1847.9897097989428" y="905.5599634874519" width="7.303242062056261" height="7.3800663280720045" fill="#ffc300" opacity="0.21784371503578587" rx="1"/><rect x="1835.3744026182394" y="909.2499966514879" width="7.303242062056261" height="7.3800663280720045" fill="#ffd60a" opacity="0.10892185751789293" rx="1"/><rect x="1847.5297058901122" y="931.0700758572366" width="8.223249879717653" height="6.175345664884743" fill="#ffc300" opacity="0.3472173876006197" rx="1"/><rect x="1834.9143987094087" y="934.157748689679" width="8.223249879717653" height="6.175345664884743" fill="#ffd60a" opacity="0.17360869380030985" rx="1"/><rect x="1846.8609631810946" y="956.5801882270213" width="9.560735297752714" height="7.723487597360156" fill="#ffc300" opacity="0.3550704309845042" rx="1"/><rect x="1834.2456560003911" y="960.4419320257014" width="9.560735297752714" height="7.723487597360156" fill="#ffd60a" opacity="0.1775352154922521" rx="1"/><path d="M1510.328605228646 802.258981229332 Q1519.0532055634665 746.1215128763861 1520.7981256304306 689.9840445234403" stroke="#000019" stroke-width="6.2423018622776265" fill="none" stroke-linecap="round"/><path d="M1520.7981256304306 689.9840445234403 Q1560.31004696626 669.9840445234403 1572.069937887618 689.9840445234403" stroke="#000233" stroke-width="3.5519557542987066" fill="none" stroke-linecap="round" opacity="0.6"/><path d="M1520.7981256304306 689.9840445234403 Q1543.6180654235877 678.3109155779861 1565.0678461548002 706.6377866325319" stroke="#000233" stroke-width="2.628864985571444" fill="none" stroke-linecap="round" opacity="0.6"/><path d="M1520.7981256304306 689.9840445234403 Q1518.2948650805217 675.006360461093 1513.156053369798 700.0286763987458" stroke="#000233" stroke-width="2.348567660513466" fill="none" stroke-linecap="round" opacity="0.6"/><path d="M1520.7981256304306 689.9840445234403 Q1498.0079091678692 675.0908502127809 1450.102183750076 700.1976559021216" stroke="#000233" stroke-width="3.6976793184172547" fill="none" stroke-linecap="round" opacity="0.6"/><path d="M1520.7981256304306 689.9840445234403 Q1515.502813447057 667.1396030312886 1481.4211681654238 684.295161539137" stroke="#000233" stroke-width="2.7201912497915774" fill="none" stroke-linecap="round" opacity="0.6"/><path d="M1520.7981256304306 689.9840445234403 Q1518.07662563356 664.6644564547454 1512.7037172096086 679.3448683860505" stroke="#000233" stroke-width="2.566916084049017" fill="none" stroke-linecap="round" opacity="0.6"/><path d="M736.6896720455702 922.9988039059097 Q732.4338347633447 819.5854249397726 731.5826673068997 716.1720459736354" stroke="#000019" stroke-width="6.852721435682085" fill="none" stroke-linecap="round"/><path d="M731.5826673068997 716.1720459736354 Q782.9489000199709 696.1720459736354 802.5015055608241 716.1720459736354" stroke="#000233" stroke-width="2.8565527556595747" fill="none" stroke-linecap="round" opacity="0.6"/><path d="M731.5826673068997 716.1720459736354 Q752.5808430346838 701.182006443073 758.2180683317615 726.1919669125106" stroke="#000233" stroke-width="3.498263607616132" fill="none" stroke-linecap="round" opacity="0.6"/><path d="M731.5826673068997 716.1720459736354 Q742.1075153361802 702.3750215888806 722.1440759336934 728.5779972041257" stroke="#000233" stroke-width="2.3197129048220146" fill="none" stroke-linecap="round" opacity="0.6"/><path d="M731.5826673068997 716.1720459736354 Q703.936817168034 700.4058919789651 672.9715218411698 724.6397379842948" stroke="#000233" stroke-width="2.612002520033159" fill="none" stroke-linecap="round" opacity="0.6"/><path d="M731.5826673068997 716.1720459736354 Q730.5221317554684 693.7390279115907 697.9012402130144 711.306009849546" stroke="#000233" stroke-width="3.877677370765637" fill="none" stroke-linecap="round" opacity="0.6"/><path d="M1158.2793293609934 925.1956556051028 Q1138.7569336031463 824.4065426928938 1134.852454451577 723.6174297806848" stroke="#000019" stroke-width="5.008269990097794" fill="none" stroke-linecap="round"/><path d="M1134.852454451577 723.6174297806848 Q1193.7857453114786 703.6174297806848 1212.95406255707 723.6174297806848" stroke="#000233" stroke-width="2.9813934459773344" fill="none" stroke-linecap="round" opacity="0.6"/><path d="M1134.852454451577 723.6174297806848 Q1154.6347690130983 710.5604299857062 1171.7648404683075 737.5034301907274" stroke="#000233" stroke-width="2.4881220852230026" fill="none" stroke-linecap="round" opacity="0.6"/><path d="M1134.852454451577 723.6174297806848 Q1147.1816062899263 711.9119326945063 1122.2313466956446 740.2064356083279" stroke="#000233" stroke-width="2.861633051853076" fill="none" stroke-linecap="round" opacity="0.6"/><path d="M1134.852454451577 723.6174297806848 Q1124.0944079828198 708.002890370215 1074.1424361316813 732.3883509597454" stroke="#000233" stroke-width="2.3483268363280985" fill="none" stroke-linecap="round" opacity="0.6"/><path d="M1134.852454451577 723.6174297806848 Q1108.7806198080673 698.489482182461 1063.8638350634878 713.3615345842372" stroke="#000233" stroke-width="2.9392013179462406" fill="none" stroke-linecap="round" opacity="0.6"/><path d="M1853.1462420367511 845.6342738460829 Q1836.3976766393514 758.6264005707638 1833.0479635598715 671.6185272954448" stroke="#000019" stroke-width="7.985968393270385" fill="none" stroke-linecap="round"/><path d="M1833.0479635598715 671.6185272954448 Q1856.2738902802284 651.6185272954448 1871.0625597571634 671.6185272954448" stroke="#000233" stroke-width="2.996239192084465" fill="none" stroke-linecap="round" opacity="0.6"/><path d="M1833.0479635598715 671.6185272954448 Q1863.5033690553876 656.6437323238277 1859.764412118628 681.6689373522107" stroke="#000233" stroke-width="2.1231811279717787" fill="none" stroke-linecap="round" opacity="0.6"/><path d="M1833.0479635598715 671.6185272954448 Q1832.6134077930528 656.8801255537774 1825.0417937776915 682.1417238121101" stroke="#000233" stroke-width="2.263667884809819" fill="none" stroke-linecap="round" opacity="0.6"/><path d="M1833.0479635598715 671.6185272954448 Q1827.309508392699 653.8983748389469 1801.4869488598379 676.178222382449" stroke="#000233" stroke-width="3.361926176436694" fill="none" stroke-linecap="round" opacity="0.6"/><path d="M1833.0479635598715 671.6185272954448 Q1820.9029683537408 647.3739459285994 1774.2882033748929 663.129364561754" stroke="#000233" stroke-width="3.3170261763308724" fill="none" stroke-linecap="round" opacity="0.6"/><path d="M600.4326543119812 825.1171376847469 Q590.5523321522754 763.9982531287237 588.5762677203343 702.8793685727006" stroke="#000019" stroke-width="6.1006810539636485" fill="none" stroke-linecap="round"/><path d="M588.5762677203343 702.8793685727006 Q623.4605138610258 682.8793685727006 638.2491055317803 702.8793685727006" stroke="#000233" stroke-width="3.9416200369460554" fill="none" stroke-linecap="round" opacity="0.6"/><path d="M588.5762677203343 702.8793685727006 Q604.5159555996255 687.3872718391442 612.5424870179664 711.8951751055878" stroke="#000233" stroke-width="2.5897210628235996" fill="none" stroke-linecap="round" opacity="0.6"/><path d="M588.5762677203343 702.8793685727006 Q598.4275134603733 692.5164247811153 573.9122997743227 722.1534809895301" stroke="#000233" stroke-width="2.128803171247431" fill="none" stroke-linecap="round" opacity="0.6"/><path d="M588.5762677203343 702.8793685727006 Q585.1114286290399 685.2587535502521 555.637308943212 707.6381385278034" stroke="#000233" stroke-width="3.5052549786645115" fill="none" stroke-linecap="round" opacity="0.6"/><path d="M588.5762677203343 702.8793685727006 Q579.0305132508298 678.8421012979591 532.6864551891209 694.8048340232176" stroke="#000233" stroke-width="3.511610808668568" fill="none" stroke-linecap="round" opacity="0.6"/><rect x="0" y="1000" width="1920" height="80" fill="#000f40" opacity="0.8"/><line x1="0" y1="1040" x2="1920" y2="1040" stroke="#ffc300" stroke-opacity="0.15" stroke-width="2" stroke-dasharray="30,20"/><rect x="0" y="930" width="1920" height="150" fill="url(#glow14)"/><rect x="0" y="980" width="1920" height="100" fill="#ffc300" opacity="0.04"/><rect x="1573.9994706897994" y="1043.8175864992238" width="43.32863892040417" height="2" fill="#ffd60a" opacity="0.04800243476126399" rx="1"/><rect x="1502.0795268337426" y="1025.2975765441772" width="101.06492515212506" height="2" fill="#ffd60a" opacity="0.03704033372389161" rx="1"/><rect x="1855.1644134370526" y="1042.3864257061823" width="40.71666352467534" height="2" fill="#ffd60a" opacity="0.04536068273367376" rx="1"/><rect x="368.0735819898717" y="1009.5124549301138" width="92.73679326119293" height="2" fill="#ffd60a" opacity="0.04606578903879639" rx="1"/><rect x="1337.7312968805738" y="1014.4481732031443" width="106.4757030239505" height="2" fill="#ffd60a" opacity="0.03243583873203859" rx="1"/><rect x="1238.1414849958712" y="1021.762633659356" width="68.11262114628047" height="2" fill="#ffd60a" opacity="0.05705877683056956" rx="1"/><rect x="1904.0973910652328" y="1007.5956718967286" width="105.5003223022214" height="2" fill="#ffd60a" opacity="0.022874916410743008" rx="1"/><rect x="252.9643196456517" y="1039.0294394267326" width="43.497054871054615" height="2" fill="#ffd60a" opacity="0.05756393247227276" rx="1"/><rect x="1695.8492065444239" y="1000.9213219492048" width="45.92869355015659" height="2" fill="#ffd60a" opacity="0.02612728076198308" rx="1"/><rect x="1107.134902586028" y="1041.7921225358248" width="82.98792100581059" height="2" fill="#ffd60a" opacity="0.03979563996656696" rx="1"/><rect x="723.796341587742" y="1009.0837253884141" width="57.026883158140556" height="2" fill="#ffd60a" opacity="0.042152590794058656" rx="1"/><rect x="37.5730405835372" y="1002.3928463697417" width="105.18044289322114" height="2" fill="#ffd60a" opacity="0.029590811526773224" rx="1"/><rect x="1320.2040524874358" y="1041.5737972598463" width="99.79914817954393" height="2" fill="#ffd60a" opacity="0.05521015817187963" rx="1"/><rect x="942.3186919797023" y="1002.3124251939153" width="36.97230847016263" height="2" fill="#ffd60a" opacity="0.042207824946895206" rx="1"/><rect x="132.62377205598722" y="1035.0406892679262" width="90.7597418852988" height="2" fill="#ffd60a" opacity="0.050409140696378696" rx="1"/><rect x="1753.6970758050907" y="1046.3822022607508" width="93.62754225582525" height="2" fill="#ffd60a" opacity="0.054788285362252095" rx="1"/><rect x="482.9947647086798" y="1057.529371063581" width="50.939332798807726" height="2" fill="#ffd60a" opacity="0.03901169055584159" rx="1"/><rect x="1874.4775347305642" y="1004.3663494904447" width="81.6021707797428" height="2" fill="#ffd60a" opacity="0.03629372416443511" rx="1"/><rect x="1737.3026074043714" y="1046.0882602320257" width="86.41762400195414" height="2" fill="#ffd60a" opacity="0.02016096874143951" rx="1"/><rect x="823.8573340009566" y="1015.9382943706444" width="98.61742227771725" height="2" fill="#ffd60a" opacity="0.020869360761919375" rx="1"/><rect x="1677.9191131326181" y="1004.0384800322444" width="81.9534379946891" height="2" fill="#ffd60a" opacity="0.04302783459029809" rx="1"/><rect x="793.5756980240288" y="1048.2365084598391" width="65.88409809998332" height="2" fill="#ffd60a" opacity="0.020729299830442596" rx="1"/><rect x="284.16119284093406" y="1036.4263113626341" width="42.01563311322025" height="2" fill="#ffd60a" opacity="0.03873536032129437" rx="1"/><rect x="276.09579614272707" y="1018.7889357467157" width="31.267719792962943" height="2" fill="#ffd60a" opacity="0.02364866253073529" rx="1"/><rect x="1171.469233010772" y="1009.3970141348888" width="114.4623389966931" height="2" fill="#ffd60a" opacity="0.03069103876377713" rx="1"/><rect x="327.0433322356649" y="1014.0150589342264" width="103.34019207007722" height="2" fill="#ffd60a" opacity="0.04035647875172004" rx="1"/><rect x="888.002053258941" y="1051.5487393577464" width="109.41805886323985" height="2" fill="#ffd60a" opacity="0.04986430118555769" rx="1"/><rect x="1195.8287620348458" y="1018.2770357230391" width="79.99239747412327" height="2" fill="#ffd60a" opacity="0.03664678720213631" rx="1"/><rect x="1582.0730771827682" y="1053.6113048795637" width="102.19456236860589" height="2" fill="#ffd60a" opacity="0.024812543831023513" rx="1"/><rect x="359.3053365590296" y="1016.9088748369619" width="34.69568589578748" height="2" fill="#ffd60a" opacity="0.023168166820697524" rx="1"/><text x="1900" y="1060" font-family="Arial, sans-serif" font-size="11" fill="#fff" opacity="0.08" text-anchor="end" letter-spacing="2">GTA 6 REWARDS · WALLPAPER 015</text>
</svg>