<?xml version="1.0" encoding="UTF-8"?>
<svg xmlns="http://www.w3.org/2000/svg" width="1920" height="1080" viewBox="0 0 1920 1080">
<defs>
    <linearGradient id="bg18" x1="0%" y1="0%" x2="0%" y2="100%">
      <stop offset="0%" stop-color="#03045e"/>
      <stop offset="50%" stop-color="#00002b"/>
      <stop offset="100%" stop-color="#03045e"/>
    </linearGradient>
    <linearGradient id="sun18" x1="0%" y1="0%" x2="100%" y2="100%">
      <stop offset="0%" stop-color="#00f5d4"/>
      <stop offset="100%" stop-color="#00bbf9"/>
    </linearGradient>
    <radialGradient id="glow18" cx="50%" cy="70%" r="50%">
      <stop offset="0%" stop-color="#00f5d4" stop-opacity="0.3"/>
      <stop offset="100%" stop-color="#03045e" stop-opacity="0"/>
    </radialGradient>
  </defs><rect width="1920" height="1080" fill="url(#bg18)"/><circle cx="1024.078407772835" cy="410.510406505901" r="659.6802118838951" fill="#00f5d4" opacity="0.13037807933994988"/><circle cx="1224.078407772835" cy="310.510406505901" r="506.4417557107382" fill="#00bbf9" opacity="0.1071458388252989"/><circle cx="469.52657163364967" cy="314.2700541215646" r="68.37282614977397" fill="url(#sun18)" opacity="0.7173820851411162"/><circle cx="469.52657163364967" cy="314.2700541215646" r="63.37282614977397" fill="#03045e" opacity="0.3"/><pattern id="scan18" width="1920" height="4" patternUnits="userSpaceOnUse">
      <line x1="0" y1="0" x2="1920" y2="0" stroke="#000" stroke-opacity="0.05" stroke-width="1"/>
    </pattern>
    <rect width="1920" height="1080" fill="url(#scan18)"/><circle cx="903.847566010395" cy="271.1414670159904" r="0.6322645489434396" fill="#fff" opacity="0.764728557775898"/><circle cx="1330.9743023037386" cy="378.42967337612754" r="1.2309410949775346" fill="#fff" opacity="0.26656067619718626"/><circle cx="1464.1976012718392" cy="106.83697454883647" r="1.8378803220898565" fill="#fff" opacity="0.31912717021050097"/><circle cx="1162.3338485980253" cy="85.16274891541404" r="0.8070156361924055" fill="#fff" opacity="0.684618541664588"/><circle cx="533.8354983678636" cy="132.28940258275006" r="1.0938890079487789" fill="#fff" opacity="0.7702362219733736"/><circle cx="464.3442411311772" cy="356.8298754219035" r="1.7587004243998556" fill="#fff" opacity="0.5626134089572852"/><circle cx="1712.8019763046882" cy="156.72855216561084" r="1.7919158747633723" fill="#fff" opacity="0.511236317900763"/><circle cx="198.59668229673912" cy="213.47126029559206" r="1.6303124979907442" fill="#fff" opacity="0.5265230135821093"/><circle cx="769.6781227294538" cy="129.58196061886426" r="1.7860438532163492" fill="#fff" opacity="0.7641609615562859"/><circle cx="217.98485135146996" cy="407.17195904421897" r="1.4573926075728127" fill="#fff" opacity="0.44112546621848026"/><circle cx="461.3595366062037" cy="87.62662179200598" r="0.690166061671955" fill="#fff" opacity="0.6165171695445937"/><circle cx="576.1095689088362" cy="36.1885348605431" r="1.557149163227796" fill="#fff" opacity="0.42008348675912327"/><circle cx="395.3926269140543" cy="395.2472334381303" r="0.8812065297693961" fill="#fff" opacity="0.6395025651993935"/><circle cx="1872.1317940838942" cy="309.40344516686247" r="1.1044587827297996" fill="#fff" opacity="0.7450467006641084"/><circle cx="1918.587789684205" cy="249.9381391503704" r="1.3073385993035833" fill="#fff" opacity="0.7498386862570976"/><circle cx="1836.9514135823006" cy="145.10368964846796" r="0.5818409759276176" fill="#fff" opacity="0.22540095048616662"/><circle cx="1373.608146033624" cy="288.9338676968901" r="1.8583803757462605" fill="#fff" opacity="0.7085217266596207"/><circle cx="1822.570422716106" cy="114.4659679724057" r="1.673135886474777" fill="#fff" opacity="0.5337545442706334"/><circle cx="619.0090599607232" cy="72.90288410915595" r="0.5795012532219992" fill="#fff" opacity="0.41986173345238476"/><circle cx="1696.050853230071" cy="103.18844525310874" r="1.1502374895266811" fill="#fff" opacity="0.6439369931919353"/><circle cx="156.49821598001247" cy="311.88755098541446" r="1.6179652774282651" fill="#fff" opacity="0.671323570998228"/><circle cx="671.5854524149526" cy="392.0759661887018" r="0.9325295148725923" fill="#fff" opacity="0.29701955860876933"/><circle cx="123.60691892998454" cy="124.07081579698036" r="0.5998386937658858" fill="#fff" opacity="0.34244064906203203"/><circle cx="465.4831897806104" cy="304.7976038234303" r="1.3475886097521494" fill="#fff" opacity="0.4747351884550264"/><circle cx="252.05354204682018" cy="191.1967223880805" r="0.8647755621617603" fill="#fff" opacity="0.6398435526154571"/><circle cx="1160.7138667722963" cy="325.7843433445749" r="1.9720544777745508" fill="#fff" opacity="0.5833266201390248"/><circle cx="1176.8748242912989" cy="292.5850956301636" r="1.3093010130825689" fill="#fff" opacity="0.7842442197688493"/><circle cx="258.5902020937275" cy="77.5730442548108" r="1.8939802041030442" fill="#fff" opacity="0.3437019515651516"/><circle cx="403.069401030212" cy="105.40936903502079" r="1.654171515524893" fill="#fff" opacity="0.42308859434516366"/><circle cx="730.8949177178774" cy="204.5862916886309" r="0.9623192346101439" fill="#fff" opacity="0.7243673741641379"/><circle cx="306.04630313488803" cy="169.5866260588138" r="1.8400834166305333" fill="#fff" opacity="0.4972148830763099"/><circle cx="78.83033441352433" cy="159.36396052301023" r="1.4546514566649336" fill="#fff" opacity="0.23673246997332492"/><circle cx="1017.9020518944369" cy="42.16613923249909" r="1.9395093966600274" fill="#fff" opacity="0.6843625899135048"/><circle cx="1755.0941003475093" cy="313.73167405504074" r="1.4434514657928263" fill="#fff" opacity="0.7756546279824466"/><circle cx="1155.8307148227073" cy="274.67710887330514" r="1.72781465138025" fill="#fff" opacity="0.2802986507025311"/><circle cx="1807.8079028166383" cy="266.5659993762537" r="1.6191604805922044" fill="#fff" opacity="0.36089030424153673"/><circle cx="1360.152350533789" cy="248.18460249346325" r="1.1048199062014046" fill="#fff" opacity="0.5298194078099493"/><circle cx="1530.4769632803454" cy="154.05720616366185" r="1.4945617559120437" fill="#fff" opacity="0.7271233439275817"/><circle cx="1666.2160759573374" cy="273.25952402531624" r="1.5817727447910637" fill="#fff" opacity="0.6996615399372907"/><circle cx="964.404311702681" cy="162.57221741289186" r="0.5483236160474652" fill="#fff" opacity="0.6542307964652383"/><circle cx="522.1547485613623" cy="62.3387639779455" r="0.7073413779044853" fill="#fff" opacity="0.7379970934563309"/><circle cx="462.4919746402865" cy="336.0546081997581" r="1.917056788438246" fill="#fff" opacity="0.20914992466781987"/><rect x="10.281019795285776" y="730.7731668303659" width="85.38683962900816" height="130.70993354327743" fill="#000044" opacity="0.5827096431243023" rx="2"/><rect x="47.689575174052635" y="740.7731668303659" width="10.569728871474446" height="6.510224324769858" fill="#00bbf9" opacity="0.2793391908703696" rx="1"/><rect x="26.342865266800594" y="744.0282789927508" width="10.569728871474446" height="6.510224324769858" fill="#00f5d4" opacity="0.1396695954351848" rx="1"/><rect x="50.400440618256205" y="784.343144678125" width="5.147997983067296" height="8.634291316995931" fill="#00bbf9" opacity="0.11774191426060673" rx="1"/><rect x="29.053730711004167" y="788.660290336623" width="5.147997983067296" height="8.634291316995931" fill="#00f5d4" opacity="0.05887095713030337" rx="1"/><rect x="48.92079519618321" y="827.9131225258842" width="8.107288827213292" height="6.654720905389339" fill="#00bbf9" opacity="0.3825144520687206" rx="1"/><rect x="27.574085288931172" y="831.2404829785788" width="8.107288827213292" height="6.654720905389339" fill="#00f5d4" opacity="0.1912572260343603" rx="1"/><rect x="94.77311857255613" y="731.1524704404065" width="66.66215457875796" height="130.33062993323676" fill="#03045e" opacity="0.5352412227390431" rx="2"/><rect x="122.21658133051876" y="741.1524704404065" width="11.775229062832713" height="9.902364667482294" fill="#00bbf9" opacity="0.4278591358866215" rx="1"/><rect x="105.55104268582926" y="746.1036527741477" width="11.775229062832713" height="9.902364667482294" fill="#00f5d4" opacity="0.21392956794331075" rx="1"/><rect x="125.8117728641018" y="757.4437991820612" width="4.584845995666656" height="7.349256239214274" fill="#00bbf9" opacity="0.49699732521478956" rx="1"/><rect x="109.14623421941229" y="761.1184273016684" width="4.584845995666656" height="7.349256239214274" fill="#00f5d4" opacity="0.24849866260739478" rx="1"/><rect x="126.06509233623528" y="773.7351279237157" width="4.078207051399678" height="9.782791415178867" fill="#00bbf9" opacity="0.14365607468496452" rx="1"/><rect x="109.39955369154578" y="778.6265236313052" width="4.078207051399678" height="9.782791415178867" fill="#00f5d4" opacity="0.07182803734248226" rx="1"/><rect x="125.96113964618343" y="790.0264566653703" width="4.286112431503393" height="7.08228656488524" fill="#00bbf9" opacity="0.5345693442585341" rx="1"/><rect x="109.29560100149392" y="793.5675999478129" width="4.286112431503393" height="7.08228656488524" fill="#00f5d4" opacity="0.26728467212926704" rx="1"/><rect x="126.01807087457361" y="806.317785407025" width="4.172249974723032" height="9.306642745460067" fill="#00bbf9" opacity="0.3036414909417838" rx="1"/><rect x="109.3525322298841" y="810.971106779755" width="4.172249974723032" height="9.306642745460067" fill="#00f5d4" opacity="0.1518207454708919" rx="1"/><rect x="122.13208108940576" y="822.6091141486795" width="11.944229545058736" height="9.421084846235132" fill="#00bbf9" opacity="0.5725124773039745" rx="1"/><rect x="105.46654244471625" y="827.319656571797" width="11.944229545058736" height="9.421084846235132" fill="#00f5d4" opacity="0.28625623865198724" rx="1"/><rect x="124.36689891704651" y="838.9004428903341" width="7.474593889777221" height="7.373800809815014" fill="#00bbf9" opacity="0.26177586877294257" rx="1"/><rect x="107.70136027235701" y="842.5873432952417" width="7.474593889777221" height="7.373800809815014" fill="#00f5d4" opacity="0.13088793438647128" rx="1"/><rect x="124.59945405877315" y="855.1917716319887" width="7.009483606323945" height="7.400742221949795" fill="#00bbf9" opacity="0.48130822181266464" rx="1"/><rect x="107.93391541408364" y="858.8921427429635" width="7.009483606323945" height="7.400742221949795" fill="#00f5d4" opacity="0.24065411090633232" rx="1"/><rect x="210.60406118844995" y="599.0658238993647" width="48.38612499143605" height="262.4172764742787" fill="#000044" opacity="0.5368625006724295" rx="2"/><rect x="229.9659765641059" y="609.0658238993647" width="9.662294240124126" height="9.05939150207196" fill="#00bbf9" opacity="0.4907327403758496" rx="1"/><rect x="217.8694453162469" y="613.5955196504007" width="9.662294240124126" height="9.05939150207196" fill="#00f5d4" opacity="0.2453663701879248" rx="1"/><rect x="229.9875027545632" y="674.6701430179344" width="9.619241859209549" height="9.523726786375914" fill="#00bbf9" opacity="0.2624149104259943" rx="1"/><rect x="217.8909715067042" y="679.4320064111223" width="9.619241859209549" height="9.523726786375914" fill="#00f5d4" opacity="0.13120745521299715" rx="1"/><rect x="232.10018383750494" y="740.274462136504" width="5.393879693326046" height="6.26257202501003" fill="#00bbf9" opacity="0.1484643429630586" rx="1"/><rect x="220.00365258964595" y="743.405748149009" width="5.393879693326046" height="6.26257202501003" fill="#00f5d4" opacity="0.0742321714815293" rx="1"/><rect x="229.64224179722683" y="805.8787812550737" width="10.309763773882242" height="7.307387763007402" fill="#00bbf9" opacity="0.4561747318264504" rx="1"/><rect x="217.54571054936784" y="809.5324751365774" width="10.309763773882242" height="7.307387763007402" fill="#00f5d4" opacity="0.2280873659132252" rx="1"/><rect x="278.5786127116149" y="646.3342566849511" width="49.369936347792375" height="215.14884368869215" fill="#000044" opacity="0.530755379803189" rx="2"/><rect x="300.2854591259134" y="656.3342566849511" width="5.956243519195413" height="7.786715221075974" fill="#00bbf9" opacity="0.10211586908020914" rx="1"/><rect x="287.9429750389653" y="660.2276142954892" width="5.956243519195413" height="7.786715221075974" fill="#00f5d4" opacity="0.05105793454010457" rx="1"/><rect x="300.3567137416019" y="710.1214676071241" width="5.813734287818367" height="6.948311263916155" fill="#00bbf9" opacity="0.39358214752133525" rx="1"/><rect x="288.0142296546538" y="713.5956232390822" width="5.813734287818367" height="6.948311263916155" fill="#00f5d4" opacity="0.19679107376066762" rx="1"/><rect x="300.2258725562327" y="763.9086785292972" width="6.075416658556884" height="8.586706630556543" fill="#00bbf9" opacity="0.5767880793606834" rx="1"/><rect x="287.88338846928457" y="768.2020318445755" width="6.075416658556884" height="8.586706630556543" fill="#00f5d4" opacity="0.2883940396803417" rx="1"/><rect x="300.8442481464477" y="817.6958894514703" width="4.838665478126766" height="8.940042493618103" fill="#00bbf9" opacity="0.17217166027337585" rx="1"/><rect x="288.5017640594996" y="822.1659106982794" width="4.838665478126766" height="8.940042493618103" fill="#00f5d4" opacity="0.08608583013668793" rx="1"/><rect x="393.08287617290057" y="745.2153293986842" width="31.424624598916765" height="116.26777097495919" fill="#000044" opacity="0.5366967087231336" rx="2"/><rect x="404.4825283569808" y="755.2153293986842" width="8.625320230756262" height="8.155946358609" fill="#00bbf9" opacity="0.5578924314020882" rx="1"/><rect x="396.6263722072516" y="759.2933025779887" width="8.625320230756262" height="8.155946358609" fill="#00f5d4" opacity="0.2789462157010441" rx="1"/><rect x="406.5756882202622" y="774.593291227844" width="4.4390005041935945" height="7.178016781149902" fill="#00bbf9" opacity="0.10039256515456191" rx="1"/><rect x="398.719532070533" y="778.1822996184189" width="4.4390005041935945" height="7.178016781149902" fill="#00f5d4" opacity="0.050196282577280954" rx="1"/><rect x="403.37521735940084" y="793.9712530570039" width="10.839942225916298" height="7.2631396942918975" fill="#00bbf9" opacity="0.45763545144759943" rx="1"/><rect x="395.51906120967163" y="797.6028229041498" width="10.839942225916298" height="7.2631396942918975" fill="#00f5d4" opacity="0.22881772572379971" rx="1"/><rect x="405.04464941965125" y="813.3492148861637" width="7.501078105415468" height="6.096552494004498" fill="#00bbf9" opacity="0.20491265556889415" rx="1"/><rect x="397.18849326992205" y="816.397491133166" width="7.501078105415468" height="6.096552494004498" fill="#00f5d4" opacity="0.10245632778444708" rx="1"/><rect x="405.2167929954267" y="832.7271767153236" width="7.156790953864528" height="6.290765523978221" fill="#00bbf9" opacity="0.5646289580186431" rx="1"/><rect x="397.3606368456975" y="835.8725594773127" width="7.156790953864528" height="6.290765523978221" fill="#00f5d4" opacity="0.28231447900932155" rx="1"/><rect x="403.14868339414045" y="852.1051385444835" width="11.29301015643706" height="9.949090461234816" fill="#00bbf9" opacity="0.5424055535212172" rx="1"/><rect x="395.29252724441125" y="857.0796837751009" width="11.29301015643706" height="9.949090461234816" fill="#00f5d4" opacity="0.2712027767606086" rx="1"/><rect x="470.1207704962113" y="533.0249996932748" width="46.13599329165555" height="328.4581006803685" fill="#000044" opacity="0.5488754819493917" rx="2"/><rect x="487.7844165820193" y="543.0249996932748" width="10.808701120039611" height="8.13597650689445" fill="#00bbf9" opacity="0.16262167987009085" rx="1"/><rect x="476.2504182591054" y="547.092987946722" width="10.808701120039611" height="8.13597650689445" fill="#00f5d4" opacity="0.08131083993504543" rx="1"/><rect x="488.92165148522474" y="597.7680164733363" width="8.534231313628664" height="8.844635529174617" fill="#00bbf9" opacity="0.29582612165152705" rx="1"/><rect x="477.38765316231087" y="602.1903342379236" width="8.534231313628664" height="8.844635529174617" fill="#00f5d4" opacity="0.14791306082576353" rx="1"/><rect x="487.8290955103602" y="652.5110332533976" width="10.719343263357725" height="7.090379002757924" fill="#00bbf9" opacity="0.43834893427285104" rx="1"/><rect x="476.29509718744634" y="656.0562227547766" width="10.719343263357725" height="7.090379002757924" fill="#00f5d4" opacity="0.21917446713642552" rx="1"/><rect x="489.8365340857452" y="707.2540500334591" width="6.70446611258771" height="7.2866843438909115" fill="#00bbf9" opacity="0.4828145453899202" rx="1"/><rect x="478.3025357628313" y="710.8973922054046" width="6.70446611258771" height="7.2866843438909115" fill="#00f5d4" opacity="0.2414072726949601" rx="1"/><rect x="488.99789014817827" y="761.9970668135205" width="8.381753987721577" height="9.023335424955778" fill="#00bbf9" opacity="0.47011187578786906" rx="1"/><rect x="477.4638918252644" y="766.5087345259984" width="8.381753987721577" height="9.023335424955778" fill="#00f5d4" opacity="0.23505593789393453" rx="1"/><rect x="490.8357931620591" y="816.7400835935819" width="4.7059479599599605" height="6.263284215764907" fill="#00bbf9" opacity="0.5341390239852805" rx="1"/><rect x="479.3017948391452" y="819.8717257014644" width="4.7059479599599605" height="6.263284215764907" fill="#00f5d4" opacity="0.26706951199264023" rx="1"/><rect x="567.5459239592916" y="614.2704950445961" width="39.599603142030446" height="247.2126053290471" fill="#03045e" opacity="0.5994094124295305" rx="2"/><rect x="585.0848717814775" y="624.2704950445961" width="4.521707497658605" height="6.847632293786768" fill="#00bbf9" opacity="0.18384899634026203" rx="1"/><rect x="575.1849709959699" y="627.6943111914895" width="4.521707497658605" height="6.847632293786768" fill="#00f5d4" opacity="0.09192449817013101" rx="1"/><rect x="585.1068083219745" y="665.4725959327707" width="4.477834416664632" height="9.366083650702164" fill="#00bbf9" opacity="0.15084140460259315" rx="1"/><rect x="575.2069075364669" y="670.1556377581218" width="4.477834416664632" height="9.366083650702164" fill="#00f5d4" opacity="0.07542070230129658" rx="1"/><rect x="584.6805313195556" y="706.6746968209452" width="5.33038842150252" height="9.610763626082512" fill="#00bbf9" opacity="0.193901398846391" rx="1"/><rect x="574.780630534048" y="711.4800786339864" width="5.33038842150252" height="9.610763626082512" fill="#00f5d4" opacity="0.0969506994231955" rx="1"/><rect x="581.6347480682538" y="747.8767977091197" width="11.421954924106121" height="8.375948468776407" fill="#00bbf9" opacity="0.14144029355175802" rx="1"/><rect x="571.7348472827462" y="752.0647719435079" width="11.421954924106121" height="8.375948468776407" fill="#00f5d4" opacity="0.07072014677587901" rx="1"/><rect x="583.9639872407257" y="789.0788985972943" width="6.7634765791621705" height="9.325811939157036" fill="#00bbf9" opacity="0.1139099770490802" rx="1"/><rect x="574.0640864552181" y="793.7418045668728" width="6.7634765791621705" height="9.325811939157036" fill="#00f5d4" opacity="0.0569549885245401" rx="1"/><rect x="584.2334968757228" y="830.2809994854688" width="6.2244573091679385" height="9.765013724510794" fill="#00bbf9" opacity="0.318540254449132" rx="1"/><rect x="574.3335960902152" y="835.1635063477241" width="6.2244573091679385" height="9.765013724510794" fill="#00f5d4" opacity="0.159270127224566" rx="1"/><rect x="658.8621648165542" y="656.1953261159815" width="41.11471477223437" height="205.28777425766174" fill="#03045e" opacity="0.5626273627305933" rx="2"/><rect x="677.3421657440118" y="666.1953261159815" width="4.154712917319199" height="8.94443570239107" fill="#00bbf9" opacity="0.11198811317141823" rx="1"/><rect x="667.0634870509533" y="670.667543967177" width="4.154712917319199" height="8.94443570239107" fill="#00f5d4" opacity="0.055994056585709114" rx="1"/><rect x="673.502193330904" y="707.2528809675139" width="11.834657743534692" height="8.131707780559479" fill="#00bbf9" opacity="0.5665696374062844" rx="1"/><rect x="663.2235146378455" y="711.3187348577936" width="11.834657743534692" height="8.131707780559479" fill="#00f5d4" opacity="0.2832848187031422" rx="1"/><rect x="674.8187469350684" y="748.3104358190462" width="9.201550535206113" height="6.218235411732047" fill="#00bbf9" opacity="0.489208004318459" rx="1"/><rect x="664.5400682420099" y="751.4195535249122" width="9.201550535206113" height="6.218235411732047" fill="#00f5d4" opacity="0.2446040021592295" rx="1"/><rect x="676.2338158570309" y="789.3679906705786" width="6.371412691281041" height="9.79365264992082" fill="#00bbf9" opacity="0.5081695010904618" rx="1"/><rect x="665.9551371639724" y="794.264816995539" width="6.371412691281041" height="9.79365264992082" fill="#00f5d4" opacity="0.2540847505452309" rx="1"/><rect x="673.9286315862389" y="830.425545522111" width="10.98178123286501" height="7.32319855534546" fill="#00bbf9" opacity="0.4182075308445393" rx="1"/><rect x="663.6499528931804" y="834.0871447997837" width="10.98178123286501" height="7.32319855534546" fill="#00f5d4" opacity="0.20910376542226966" rx="1"/><rect x="755.0226094688541" y="571.3948909359507" width="44.3773153178341" height="290.0882094376926" fill="#03045e" opacity="0.5364110676423672" rx="2"/><rect x="771.4955793388143" y="581.3948909359507" width="11.431375577913453" height="8.947170834743225" fill="#00bbf9" opacity="0.501566250925317" rx="1"/><rect x="760.4012505093558" y="585.8684763533223" width="11.431375577913453" height="8.947170834743225" fill="#00f5d4" opacity="0.2507831254626585" rx="1"/><rect x="772.9500317122404" y="629.7429258422328" width="8.522470831061359" height="6.62024012594955" fill="#00bbf9" opacity="0.5300290859374286" rx="1"/><rect x="761.8557028827819" y="633.0530459052076" width="8.522470831061359" height="6.62024012594955" fill="#00f5d4" opacity="0.2650145429687143" rx="1"/><rect x="771.7355890779339" y="678.0909607485149" width="10.951356099674328" height="9.910619720795802" fill="#00bbf9" opacity="0.13737247654641338" rx="1"/><rect x="760.6412602484754" y="683.0462706089128" width="10.951356099674328" height="9.910619720795802" fill="#00f5d4" opacity="0.06868623827320669" rx="1"/><rect x="773.3667588286688" y="726.438995654797" width="7.689016598204388" height="7.718715821793004" fill="#00bbf9" opacity="0.530498462387011" rx="1"/><rect x="762.2724299992103" y="730.2983535656936" width="7.689016598204388" height="7.718715821793004" fill="#00f5d4" opacity="0.2652492311935055" rx="1"/><rect x="772.9113017465446" y="774.7870305610791" width="8.599930762452988" height="8.165474939664238" fill="#00bbf9" opacity="0.23246345499820623" rx="1"/><rect x="761.8169729170861" y="778.8697680309111" width="8.599930762452988" height="8.165474939664238" fill="#00f5d4" opacity="0.11623172749910311" rx="1"/><rect x="774.1615373351254" y="823.1350654673612" width="6.099459585291207" height="7.45021795887738" fill="#00bbf9" opacity="0.43071881854690586" rx="1"/><rect x="763.0672085056669" y="826.8601744467999" width="6.099459585291207" height="7.45021795887738" fill="#00f5d4" opacity="0.21535940927345293" rx="1"/><rect x="844.7479011289121" y="512.2738557197792" width="30.793122891521342" height="349.2092446538641" fill="#000044" opacity="0.4607810971235813" rx="2"/><rect x="855.8103312839245" y="522.2738557197792" width="8.66826258149656" height="8.534208787263886" fill="#00bbf9" opacity="0.5761179861324183" rx="1"/><rect x="848.1120505610442" y="526.5409601134112" width="8.66826258149656" height="8.534208787263886" fill="#00f5d4" opacity="0.28805899306620913" rx="1"/><rect x="856.2709358958159" y="638.6769372710673" width="7.747053357713636" height="7.623596141492854" fill="#00bbf9" opacity="0.39868399335506466" rx="1"/><rect x="848.5726551729356" y="642.4887353418138" width="7.747053357713636" height="7.623596141492854" fill="#00f5d4" opacity="0.19934199667753233" rx="1"/><rect x="854.297923218894" y="755.0800188223553" width="11.693078711557453" height="8.749629065103278" fill="#00bbf9" opacity="0.47773320029436916" rx="1"/><rect x="846.5996424960136" y="759.454833354907" width="11.693078711557453" height="8.749629065103278" fill="#00f5d4" opacity="0.23886660014718458" rx="1"/><rect x="915.1730373706738" y="680.7232287434683" width="55.94817124911309" height="180.759871630175" fill="#03045e" opacity="0.5227667222783824" rx="2"/><rect x="939.0952380865235" y="690.7232287434683" width="8.10376981741371" height="7.853181515320479" fill="#00bbf9" opacity="0.2796149595593137" rx="1"/><rect x="925.1081952742452" y="694.6498195011286" width="8.10376981741371" height="7.853181515320479" fill="#00f5d4" opacity="0.13980747977965685" rx="1"/><rect x="940.6433399060043" y="716.546067547779" width="5.007566178452123" height="7.666916707918727" fill="#00bbf9" opacity="0.2095238708913149" rx="1"/><rect x="926.6562970937259" y="720.3795259017384" width="5.007566178452123" height="7.666916707918727" fill="#00f5d4" opacity="0.10476193544565746" rx="1"/><rect x="938.6106358073808" y="742.3689063520898" width="9.072974375698942" height="9.36486483909303" fill="#00bbf9" opacity="0.5401327516977054" rx="1"/><rect x="924.6235929951025" y="747.0513387716363" width="9.072974375698942" height="9.36486483909303" fill="#00f5d4" opacity="0.2700663758488527" rx="1"/><rect x="940.7344051898903" y="768.1917451564004" width="4.825435610680244" height="7.569910488456932" fill="#00bbf9" opacity="0.27020751912384466" rx="1"/><rect x="926.7473623776119" y="771.9767004006289" width="4.825435610680244" height="7.569910488456932" fill="#00f5d4" opacity="0.13510375956192233" rx="1"/><rect x="938.8870832190718" y="794.0145839607112" width="8.520079552317057" height="6.031462597668046" fill="#00bbf9" opacity="0.37444967401084717" rx="1"/><rect x="924.9000404067934" y="797.0303152595452" width="8.520079552317057" height="6.031462597668046" fill="#00f5d4" opacity="0.18722483700542358" rx="1"/><rect x="938.0899408063727" y="819.8374227650219" width="10.114364377715244" height="6.943076079930895" fill="#00bbf9" opacity="0.2621780596119766" rx="1"/><rect x="924.1028979940944" y="823.3089608049874" width="10.114364377715244" height="6.943076079930895" fill="#00f5d4" opacity="0.1310890298059883" rx="1"/><rect x="938.3072558544027" y="845.6602615693326" width="9.679734281655339" height="9.438787706065641" fill="#00bbf9" opacity="0.1355158905814206" rx="1"/><rect x="924.3202130421244" y="850.3796554223654" width="9.679734281655339" height="9.438787706065641" fill="#00f5d4" opacity="0.0677579452907103" rx="1"/><rect x="1016.034895228962" y="602.5606635265427" width="32.89683221441154" height="258.9224368471006" fill="#03045e" opacity="0.4071859086181936" rx="2"/><rect x="1026.8526551143723" y="612.5606635265427" width="11.261312443591027" height="7.201555008348439" fill="#00bbf9" opacity="0.10195505423516851" rx="1"/><rect x="1018.6284470607693" y="616.1614410307169" width="11.261312443591027" height="7.201555008348439" fill="#00f5d4" opacity="0.050977527117584256" rx="1"/><rect x="1027.8316678842473" y="644.9259681324303" width="9.303286903841254" height="8.491367551146858" fill="#00bbf9" opacity="0.33634980240286094" rx="1"/><rect x="1019.6074598306442" y="649.1716519080037" width="9.303286903841254" height="8.491367551146858" fill="#00f5d4" opacity="0.16817490120143047" rx="1"/><rect x="1026.8915702344466" y="677.2912727383178" width="11.183482203442484" height="8.766261492568596" fill="#00bbf9" opacity="0.4052948812966456" rx="1"/><rect x="1018.6673621808436" y="681.6744034846022" width="11.183482203442484" height="8.766261492568596" fill="#00f5d4" opacity="0.2026474406483228" rx="1"/><rect x="1029.398944451833" y="709.6565773442054" width="6.168733768670059" height="9.70881683372632" fill="#00bbf9" opacity="0.5193326277703356" rx="1"/><rect x="1021.1747363982298" y="714.5109857610686" width="6.168733768670059" height="9.70881683372632" fill="#00f5d4" opacity="0.2596663138851678" rx="1"/><rect x="1028.3362115808948" y="742.0218819500931" width="8.294199510545983" height="6.111776626694896" fill="#00bbf9" opacity="0.4819592286324965" rx="1"/><rect x="1020.1120035272919" y="745.0777702634405" width="8.294199510545983" height="6.111776626694896" fill="#00f5d4" opacity="0.24097961431624826" rx="1"/><rect x="1029.5075123826161" y="774.3871865559806" width="5.951597907103505" height="9.566509876299303" fill="#00bbf9" opacity="0.5864781314941305" rx="1"/><rect x="1021.2833043290132" y="779.1704414941303" width="5.951597907103505" height="9.566509876299303" fill="#00f5d4" opacity="0.29323906574706526" rx="1"/><rect x="1028.0515605854325" y="806.7524911618682" width="8.863501501470688" height="8.269764222733155" fill="#00bbf9" opacity="0.13002059739782024" rx="1"/><rect x="1019.8273525318295" y="810.8873732732347" width="8.863501501470688" height="8.269764222733155" fill="#00f5d4" opacity="0.06501029869891012" rx="1"/><rect x="1030.0245242524352" y="839.1177957677558" width="4.917574167465227" height="6.725012640637582" fill="#00bbf9" opacity="0.5578663562326381" rx="1"/><rect x="1021.8003161988322" y="842.4803020880745" width="4.917574167465227" height="6.725012640637582" fill="#00f5d4" opacity="0.27893317811631907" rx="1"/><rect x="1099.467592607461" y="732.007414575668" width="32.91945798856194" height="129.47568579797533" fill="#03045e" opacity="0.46806144883578216" rx="2"/><rect x="1110.9424334544155" y="742.007414575668" width="9.969776294652785" height="6.346625200553477" fill="#00bbf9" opacity="0.472969612333218" rx="1"/><rect x="1102.712568957275" y="745.1807271759448" width="9.969776294652785" height="6.346625200553477" fill="#00f5d4" opacity="0.236484806166609" rx="1"/><rect x="1111.6662649964205" y="774.3763360251619" width="8.522113210643202" height="8.515259164039804" fill="#00bbf9" opacity="0.4207680391661749" rx="1"/><rect x="1103.43640049928" y="778.6339656071818" width="8.522113210643202" height="8.515259164039804" fill="#00f5d4" opacity="0.21038401958308744" rx="1"/><rect x="1111.2108266310859" y="806.7452574746557" width="9.432989941312231" height="9.507553286735796" fill="#00bbf9" opacity="0.18974596743698835" rx="1"/><rect x="1102.9809621339452" y="811.4990341180236" width="9.432989941312231" height="9.507553286735796" fill="#00f5d4" opacity="0.09487298371849417" rx="1"/><rect x="1111.6270743352493" y="839.1141789241495" width="8.600494532985728" height="9.558236996540389" fill="#00bbf9" opacity="0.15499224843340748" rx="1"/><rect x="1103.3972098381087" y="843.8932974224198" width="8.600494532985728" height="9.558236996540389" fill="#00f5d4" opacity="0.07749612421670374" rx="1"/><rect x="1202.0625206636678" y="594.8141891497221" width="51.18921045241626" height="266.6689112239212" fill="#03045e" opacity="0.47529670758529025" rx="2"/><rect x="1225.1315433079951" y="604.8141891497221" width="5.051165163761742" height="9.763296315391385" fill="#00bbf9" opacity="0.33387672222076836" rx="1"/><rect x="1212.334240694891" y="609.6958373074178" width="5.051165163761742" height="9.763296315391385" fill="#00f5d4" opacity="0.16693836111038418" rx="1"/><rect x="1224.9623101953598" y="671.4814169557023" width="5.389631389032498" height="6.8032554036013915" fill="#00bbf9" opacity="0.4924597355985222" rx="1"/><rect x="1212.1650075822556" y="674.8830446575031" width="5.389631389032498" height="6.8032554036013915" fill="#00f5d4" opacity="0.2462298677992611" rx="1"/><rect x="1224.1778047869198" y="738.1486447616827" width="6.958642205912303" height="8.80798590434901" fill="#00bbf9" opacity="0.39323565803776395" rx="1"/><rect x="1211.3805021738156" y="742.5526377138572" width="6.958642205912303" height="8.80798590434901" fill="#00f5d4" opacity="0.19661782901888197" rx="1"/><rect x="1224.4650701007758" y="804.8158725676631" width="6.384111578200038" height="6.933724148416362" fill="#00bbf9" opacity="0.2510261792342705" rx="1"/><rect x="1211.6677674876717" y="808.2827346418712" width="6.384111578200038" height="6.933724148416362" fill="#00f5d4" opacity="0.12551308961713525" rx="1"/><rect x="1288.6800140744726" y="636.1594658894836" width="39.204969114904515" height="225.32363448415967" fill="#000044" opacity="0.578288446385015" rx="2"/><rect x="1304.4574991882446" y="646.1594658894836" width="7.649998887360562" height="8.448931291338273" fill="#00bbf9" opacity="0.5781960684289681" rx="1"/><rect x="1294.6562569095183" y="650.3839315351528" width="7.649998887360562" height="8.448931291338273" fill="#00f5d4" opacity="0.28909803421448405" rx="1"/><rect x="1304.4111820728078" y="691.2241927863156" width="7.742633118234257" height="8.042411268232952" fill="#00bbf9" opacity="0.15166991160988574" rx="1"/><rect x="1294.6099397940816" y="695.245398420432" width="7.742633118234257" height="8.042411268232952" fill="#00f5d4" opacity="0.07583495580494287" rx="1"/><rect x="1304.3339129489227" y="736.2889196831475" width="7.897171366004546" height="8.731119190978612" fill="#00bbf9" opacity="0.36244966854864025" rx="1"/><rect x="1294.5326706701965" y="740.6544792786368" width="7.897171366004546" height="8.731119190978612" fill="#00f5d4" opacity="0.18122483427432012" rx="1"/><rect x="1305.5111075789926" y="781.3536465799795" width="5.542782105864673" height="6.844615677568274" fill="#00bbf9" opacity="0.11719055534740691" rx="1"/><rect x="1295.7098653002663" y="784.7759544187636" width="5.542782105864673" height="6.844615677568274" fill="#00f5d4" opacity="0.058595277673703455" rx="1"/><rect x="1304.54008732446" y="826.4183734768113" width="7.484822614929831" height="7.104266458448085" fill="#00bbf9" opacity="0.4540659981905636" rx="1"/><rect x="1294.7388450457338" y="829.9705067060354" width="7.484822614929831" height="7.104266458448085" fill="#00f5d4" opacity="0.2270329990952818" rx="1"/><rect x="1380.68292232346" y="490.6565656165259" width="84.72416425466633" height="370.82653475711743" fill="#000044" opacity="0.48643152203560613" rx="2"/><rect x="1417.0809776122605" y="500.6565656165259" width="11.92805367706531" height="9.34762536253492" fill="#00bbf9" opacity="0.2521570610702404" rx="1"/><rect x="1395.8999365485938" y="505.33037829779335" width="11.92805367706531" height="9.34762536253492" fill="#00f5d4" opacity="0.1260785305351202" rx="1"/><rect x="1419.9818880221032" y="547.0098824611656" width="6.126232857379651" height="7.717591353160699" fill="#00bbf9" opacity="0.29211295868552123" rx="1"/><rect x="1398.8008469584365" y="550.868678137746" width="6.126232857379651" height="7.717591353160699" fill="#00f5d4" opacity="0.14605647934276061" rx="1"/><rect x="1420.1796740934872" y="593.3631993058052" width="5.73066071461203" height="6.425881095329737" fill="#00bbf9" opacity="0.1013243360447987" rx="1"/><rect x="1398.9986330298204" y="596.5761398534701" width="5.73066071461203" height="6.425881095329737" fill="#00f5d4" opacity="0.05066216802239935" rx="1"/><rect x="1420.4629147014928" y="639.7165161504449" width="5.164179498600816" height="9.112442650625585" fill="#00bbf9" opacity="0.5128682019451792" rx="1"/><rect x="1399.281873637826" y="644.2727374757577" width="5.164179498600816" height="9.112442650625585" fill="#00f5d4" opacity="0.2564341009725896" rx="1"/><rect x="1419.241334425874" y="686.0698329950847" width="7.607340049838493" height="6.517383054019274" fill="#00bbf9" opacity="0.5492696057886979" rx="1"/><rect x="1398.0602933622072" y="689.3285245220943" width="7.607340049838493" height="6.517383054019274" fill="#00f5d4" opacity="0.27463480289434894" rx="1"/><rect x="1419.5774672047382" y="732.4231498397243" width="6.935074492109724" height="7.156378380292184" fill="#00bbf9" opacity="0.13810823174149456" rx="1"/><rect x="1398.3964261410715" y="736.0013390298703" width="6.935074492109724" height="7.156378380292184" fill="#00f5d4" opacity="0.06905411587074728" rx="1"/><rect x="1417.2392353742675" y="778.776466684364" width="11.611538153051292" height="9.74935249047106" fill="#00bbf9" opacity="0.3463216484166499" rx="1"/><rect x="1396.0581943106008" y="783.6511429295995" width="11.611538153051292" height="9.74935249047106" fill="#00f5d4" opacity="0.17316082420832496" rx="1"/><rect x="1418.8110554400125" y="825.1297835290036" width="8.46789802156107" height="8.97775283897709" fill="#00bbf9" opacity="0.2483395550512568" rx="1"/><rect x="1397.6300143763458" y="829.6186599484921" width="8.46789802156107" height="8.97775283897709" fill="#00f5d4" opacity="0.1241697775256284" rx="1"/><rect x="1487.4197860215768" y="520.163657218256" width="40.00726805301552" height="341.31944315538726" fill="#03045e" opacity="0.6668671554575831" rx="2"/><rect x="1503.2934357572497" y="530.163657218256" width="8.259968581669956" height="7.675724929588783" fill="#00bbf9" opacity="0.4465011311570418" rx="1"/><rect x="1493.2916187439957" y="534.0015196830504" width="8.259968581669956" height="7.675724929588783" fill="#00f5d4" opacity="0.2232505655785209" rx="1"/><rect x="1503.3807985132912" y="578.9235776690257" width="8.085243069586634" height="7.893480432660663" fill="#00bbf9" opacity="0.40630132085790427" rx="1"/><rect x="1493.3789815000373" y="582.870317885356" width="8.085243069586634" height="7.893480432660663" fill="#00f5d4" opacity="0.20315066042895213" rx="1"/><rect x="1504.2142840041279" y="627.6834981197952" width="6.418272087913536" height="7.196301777194324" fill="#00bbf9" opacity="0.5397547772246774" rx="1"/><rect x="1494.212466990874" y="631.2816490083924" width="6.418272087913536" height="7.196301777194324" fill="#00f5d4" opacity="0.2698773886123387" rx="1"/><rect x="1502.7581255539155" y="676.4434185705649" width="9.330588988338269" height="9.938313637845757" fill="#00bbf9" opacity="0.5023913055198247" rx="1"/><rect x="1492.7563085406616" y="681.4125753894878" width="9.330588988338269" height="9.938313637845757" fill="#00f5d4" opacity="0.25119565275991235" rx="1"/><rect x="1503.3101283481533" y="725.2033390213345" width="8.226583399862651" height="6.25852209242492" fill="#00bbf9" opacity="0.38769731074285163" rx="1"/><rect x="1493.3083113348994" y="728.332600067547" width="8.226583399862651" height="6.25852209242492" fill="#00f5d4" opacity="0.19384865537142582" rx="1"/><rect x="1503.6759945166407" y="773.963259472104" width="7.494851062888012" height="7.238310255398581" fill="#00bbf9" opacity="0.11530351292232599" rx="1"/><rect x="1493.6741775033868" y="777.5824145998033" width="7.494851062888012" height="7.238310255398581" fill="#00f5d4" opacity="0.057651756461162995" rx="1"/><rect x="1502.79282435597" y="822.7231799228737" width="9.261191384229155" height="8.37270269505044" fill="#00bbf9" opacity="0.4189168494005959" rx="1"/><rect x="1492.791007342716" y="826.9095312703989" width="9.261191384229155" height="8.37270269505044" fill="#00f5d4" opacity="0.20945842470029796" rx="1"/><rect x="1562.6498084784268" y="610.0231783720719" width="37.886493789937" height="251.45992200157139" fill="#03045e" opacity="0.564177990580019" rx="2"/><rect x="1579.1326610969822" y="620.0231783720719" width="4.920788552826454" height="7.2892791892609745" fill="#00bbf9" opacity="0.40954830798077124" rx="1"/><rect x="1569.661037649498" y="623.6678179667024" width="4.920788552826454" height="7.2892791892609745" fill="#00f5d4" opacity="0.20477415399038562" rx="1"/><rect x="1576.4947352433464" y="661.9331653723339" width="10.19664026009772" height="9.471654791261921" fill="#00bbf9" opacity="0.26157883921674896" rx="1"/><rect x="1567.0231117958622" y="666.6689927679648" width="10.19664026009772" height="9.471654791261921" fill="#00f5d4" opacity="0.13078941960837448" rx="1"/><rect x="1577.7208198978515" y="703.8431523725957" width="7.744470951087882" height="8.27180430811639" fill="#00bbf9" opacity="0.3351423581678286" rx="1"/><rect x="1568.2491964503672" y="707.9790545266538" width="7.744470951087882" height="8.27180430811639" fill="#00f5d4" opacity="0.1675711790839143" rx="1"/><rect x="1578.508528889242" y="745.7531393728576" width="6.169052968306712" height="6.444442262976533" fill="#00bbf9" opacity="0.5195560625334168" rx="1"/><rect x="1569.0369054417577" y="748.9753605043459" width="6.169052968306712" height="6.444442262976533" fill="#00f5d4" opacity="0.2597780312667084" rx="1"/><rect x="1578.2363824714193" y="787.6631263731196" width="6.7133458039521585" height="6.669741760163974" fill="#00bbf9" opacity="0.5883806237458207" rx="1"/><rect x="1568.764759023935" y="790.9979972532016" width="6.7133458039521585" height="6.669741760163974" fill="#00f5d4" opacity="0.29419031187291034" rx="1"/><rect x="1578.9789402822116" y="829.5731133733814" width="5.22823018236743" height="8.326093548519093" fill="#00bbf9" opacity="0.4829136468430314" rx="1"/><rect x="1569.5073168347274" y="833.7361601476409" width="5.22823018236743" height="8.326093548519093" fill="#00f5d4" opacity="0.2414568234215157" rx="1"/><rect x="1663.856992644956" y="606.4139429494771" width="84.0736571545884" height="255.06915742416612" fill="#03045e" opacity="0.5236138524542595" rx="2"/><rect x="1703.109838834324" y="616.4139429494771" width="5.56796477585285" height="7.18771177092281" fill="#00bbf9" opacity="0.1912648901788669" rx="1"/><rect x="1682.0914245456768" y="620.0077988349385" width="5.56796477585285" height="7.18771177092281" fill="#00f5d4" opacity="0.09563244508943344" rx="1"/><rect x="1700.4715964967884" y="701.4369954241992" width="10.844449450924166" height="6.180474323262571" fill="#00bbf9" opacity="0.2133550050699513" rx="1"/><rect x="1679.4531822081412" y="704.5272325858305" width="10.844449450924166" height="6.180474323262571" fill="#00f5d4" opacity="0.10667750253497565" rx="1"/><rect x="1700.311201349472" y="786.4600478989212" width="11.165239745556665" height="9.6548824961425" fill="#00bbf9" opacity="0.20420095550459832" rx="1"/><rect x="1679.2927870608248" y="791.2874891469925" width="11.165239745556665" height="9.6548824961425" fill="#00f5d4" opacity="0.10210047775229916" rx="1"/><rect x="1746.6123502510695" y="505.8176431119949" width="49.15048936362157" height="355.6654572616484" fill="#000044" opacity="0.4929408777255893" rx="2"/><rect x="1765.7449374455432" y="515.8176431119949" width="10.88531497467433" height="6.619136495659858" fill="#00bbf9" opacity="0.28845823947071525" rx="1"/><rect x="1753.457315104638" y="519.1272113598249" width="10.88531497467433" height="6.619136495659858" fill="#00f5d4" opacity="0.14422911973535762" rx="1"/><rect x="1768.6117230227776" y="560.2758252697009" width="5.151743820205271" height="8.659567731120523" fill="#00bbf9" opacity="0.39949779466248536" rx="1"/><rect x="1756.3241006818723" y="564.6056091352611" width="5.151743820205271" height="8.659567731120523" fill="#00f5d4" opacity="0.19974889733124268" rx="1"/><rect x="1768.9125003724687" y="604.734007427407" width="4.550189120823096" height="6.604735538504258" fill="#00bbf9" opacity="0.48706996289246485" rx="1"/><rect x="1756.6248780315634" y="608.0363751966592" width="4.550189120823096" height="6.604735538504258" fill="#00f5d4" opacity="0.24353498144623242" rx="1"/><rect x="1765.628504056031" y="649.192189585113" width="11.118181753698313" height="9.07001943026437" fill="#00bbf9" opacity="0.4819921218981017" rx="1"/><rect x="1753.3408817151258" y="653.7271993002453" width="11.118181753698313" height="9.07001943026437" fill="#00f5d4" opacity="0.24099606094905085" rx="1"/><rect x="1769.1748582771056" y="693.6503717428191" width="4.025473311549396" height="6.697976543730585" fill="#00bbf9" opacity="0.3313908852477071" rx="1"/><rect x="1756.8872359362003" y="696.9993600146844" width="4.025473311549396" height="6.697976543730585" fill="#00f5d4" opacity="0.16569544262385355" rx="1"/><rect x="1766.5139374954026" y="738.1085539005252" width="9.347314874955295" height="9.791461969677233" fill="#00bbf9" opacity="0.30991246605057093" rx="1"/><rect x="1754.2263151544973" y="743.0042848853637" width="9.347314874955295" height="9.791461969677233" fill="#00f5d4" opacity="0.15495623302528547" rx="1"/><rect x="1766.3799924922196" y="782.5667360582312" width="9.615204881321453" height="7.782314180811475" fill="#00bbf9" opacity="0.5869811292707411" rx="1"/><rect x="1754.0923701513143" y="786.4578931486369" width="9.615204881321453" height="7.782314180811475" fill="#00f5d4" opacity="0.29349056463537054" rx="1"/><rect x="1766.8215143390116" y="827.0249182159373" width="8.732161187737287" height="6.760726568466222" fill="#00bbf9" opacity="0.15366302993001021" rx="1"/><rect x="1754.5338919981064" y="830.4052815001704" width="8.732161187737287" height="6.760726568466222" fill="#00f5d4" opacity="0.07683151496500511" rx="1"/><rect x="1837.2949785792755" y="547.3858002450751" width="64.64929406406574" height="314.09730012856824" fill="#03045e" opacity="0.44960673615560093" rx="2"/><rect x="1867.1006898777127" y="557.3858002450751" width="5.037871467191231" height="9.402341922605956" fill="#00bbf9" opacity="0.3823895511176413" rx="1"/><rect x="1850.9383663616964" y="562.086971206378" width="5.037871467191231" height="9.402341922605956" fill="#00f5d4" opacity="0.19119477555882064" rx="1"/><rect x="1866.3701027797263" y="596.6479627611461" width="6.499045663163775" height="9.981949254866212" fill="#00bbf9" opacity="0.19647181527606952" rx="1"/><rect x="1850.2077792637099" y="601.6389373885793" width="6.499045663163775" height="9.981949254866212" fill="#00f5d4" opacity="0.09823590763803476" rx="1"/><rect x="1865.0900109954653" y="635.9101252772172" width="9.059229231686153" height="7.041484911237258" fill="#00bbf9" opacity="0.41301051955973045" rx="1"/><rect x="1848.9276874794489" y="639.4308677328357" width="9.059229231686153" height="7.041484911237258" fill="#00f5d4" opacity="0.20650525977986522" rx="1"/><rect x="1864.1834420507998" y="675.1722877932882" width="10.872367121016692" height="7.012900293109217" fill="#00bbf9" opacity="0.5547448729758022" rx="1"/><rect x="1848.0211185347835" y="678.6787379398428" width="10.872367121016692" height="7.012900293109217" fill="#00f5d4" opacity="0.2773724364879011" rx="1"/><rect x="1866.354819345071" y="714.4344503093591" width="6.529612532474475" height="7.7194895739014004" fill="#00bbf9" opacity="0.11593199174756463" rx="1"/><rect x="1850.1924958290547" y="718.2941950963099" width="6.529612532474475" height="7.7194895739014004" fill="#00f5d4" opacity="0.05796599587378232" rx="1"/><rect x="1867.5500138467792" y="753.6966128254303" width="4.139223529058328" height="8.02505085198792" fill="#00bbf9" opacity="0.2824742113664919" rx="1"/><rect x="1851.3876903307628" y="757.7091382514243" width="4.139223529058328" height="8.02505085198792" fill="#00f5d4" opacity="0.14123710568324596" rx="1"/><rect x="1865.9836603353492" y="792.9587753415012" width="7.271930551918207" height="9.837187362796904" fill="#00bbf9" opacity="0.35440098316278335" rx="1"/><rect x="1849.8213368193328" y="797.8773690228996" width="7.271930551918207" height="9.837187362796904" fill="#00f5d4" opacity="0.17720049158139167" rx="1"/><rect x="1866.3410945476626" y="832.2209378575723" width="6.557062127291472" height="8.753720896959706" fill="#00bbf9" opacity="0.2826700855006161" rx="1"/><rect x="1850.1787710316462" y="836.5977983060521" width="6.557062127291472" height="8.753720896959706" fill="#00f5d4" opacity="0.14133504275030806" rx="1"/><path d="M1775.7251938841596 872.0257976027266 Q1776.385777377613 752.0368425238498 1776.517894076304 632.047887444973" stroke="#000011" stroke-width="7.818100504534808" fill="none" stroke-linecap="round"/><path d="M1776.517894076304 632.047887444973 Q1827.026060703682 612.047887444973 1842.6215405186222 632.047887444973" stroke="#00002b" stroke-width="3.181250570151315" fill="none" stroke-linecap="round" opacity="0.6"/><path d="M1776.517894076304 632.047887444973 Q1803.2292187557705 616.1625565159123 1798.3934879971816 640.2772255868517" stroke="#00002b" stroke-width="3.7852945159620823" fill="none" stroke-linecap="round" opacity="0.6"/><path d="M1776.517894076304 632.047887444973 Q1783.7238994281215 617.4357553738034 1768.3195894387604 642.8236233026339" stroke="#00002b" stroke-width="2.9340868952996297" fill="none" stroke-linecap="round" opacity="0.6"/><path d="M1776.517894076304 632.047887444973 Q1770.8668616822006 615.593249597908 1727.437758281855 639.138611750843" stroke="#00002b" stroke-width="2.6877161536104315" fill="none" stroke-linecap="round" opacity="0.6"/><path d="M1776.517894076304 632.047887444973 Q1751.181848411629 607.0161882376993 1706.8616869761727 621.9844890304257" stroke="#00002b" stroke-width="3.174213097238497" fill="none" stroke-linecap="round" opacity="0.6"/><path d="M1776.517894076304 632.047887444973 Q1784.9766795705239 606.9353746763544 1768.7385762284807 621.8228619077358" stroke="#00002b" stroke-width="2.028449877171882" fill="none" stroke-linecap="round" opacity="0.6"/><path d="M528.3674071469268 828.6438931079218 Q521.0595700845727 709.2785920154487 519.5980026721018 589.9132909229755" stroke="#000011" stroke-width="5.2706509216853075" fill="none" stroke-linecap="round"/><path d="M519.5980026721018 589.9132909229755 Q567.5166363470527 569.9132909229755 576.5240873094937 589.9132909229755" stroke="#00002b" stroke-width="2.188606230585977" fill="none" stroke-linecap="round" opacity="0.6"/><path d="M519.5980026721018 589.9132909229755 Q543.8398467846093 576.1813126861748 552.921873052683 602.4493344493741" stroke="#00002b" stroke-width="2.3570630970311033" fill="none" stroke-linecap="round" opacity="0.6"/><path d="M519.5980026721018 589.9132909229755 Q515.9343669001402 575.0684577736611 511.75378138502583 600.2236246243466" stroke="#00002b" stroke-width="3.6403546369728526" fill="none" stroke-linecap="round" opacity="0.6"/><path d="M519.5980026721018 589.9132909229755 Q494.2583059191681 574.9619089806799 449.70757987247123 600.0105270383842" stroke="#00002b" stroke-width="3.1749025776923876" fill="none" stroke-linecap="round" opacity="0.6"/><path d="M519.5980026721018 589.9132909229755 Q511.72859289244997 567.0376117965524 479.7886077674741 584.1619326701292" stroke="#00002b" stroke-width="3.833565495869509" fill="none" stroke-linecap="round" opacity="0.6"/><path d="M519.5980026721018 589.9132909229755 Q526.7488370286914 560.8603651146238 505.8228610728055 571.8074393062723" stroke="#00002b" stroke-width="2.294063202639591" fill="none" stroke-linecap="round" opacity="0.6"/><path d="M519.5980026721018 589.9132909229755 Q554.103213714944 564.4493263728273 548.6471115157026 578.9853618226789" stroke="#00002b" stroke-width="3.8551374505868035" fill="none" stroke-linecap="round" opacity="0.6"/><rect x="0" y="1000" width="1920" height="80" fill="#000038" opacity="0.8"/><line x1="0" y1="1040" x2="1920" y2="1040" stroke="#00bbf9" stroke-opacity="0.15" stroke-width="2" stroke-dasharray="30,20"/><rect x="0" y="930" width="1920" height="150" fill="url(#glow18)"/><rect x="0" y="980" width="1920" height="100" fill="#00bbf9" opacity="0.04"/><rect x="1017.5697548076441" y="1000.6618159917792" width="62.009125915823766" height="2" fill="#00f5d4" opacity="0.036251547042339" rx="1"/><rect x="187.47480560733817" y="1040.4851026461658" width="115.71933732268386" height="2" fill="#00f5d4" opacity="0.040679229260580436" rx="1"/><rect x="341.1813574333632" y="1042.8465113050413" width="82.497392171644" height="2" fill="#00f5d4" opacity="0.059802797799884067" rx="1"/><rect x="1011.641264197333" y="1042.9735773389632" width="95.68361651517534" height="2" fill="#00f5d4" opacity="0.026463127715155278" rx="1"/><rect x="1121.9165247310689" y="1009.2761003061374" width="72.72337495179926" height="2" fill="#00f5d4" opacity="0.028300751160900285" rx="1"/><rect x="1897.7895131655478" y="1016.8051097394911" width="56.36841623493666" height="2" fill="#00f5d4" opacity="0.0378895013075996" rx="1"/><rect x="1224.5303140451504" y="1002.8321719641872" width="80.12273995674279" height="2" fill="#00f5d4" opacity="0.023120516604539128" rx="1"/><rect x="1607.368041353153" y="1053.0980197463878" width="43.71316629548398" height="2" fill="#00f5d4" opacity="0.02687010375011482" rx="1"/><rect x="1233.8155749332664" y="1039.417638610913" width="35.7449048049154" height="2" fill="#00f5d4" opacity="0.04751859239943293" rx="1"/><rect x="1036.767795029275" y="1056.9201061541494" width="111.32406858059673" height="2" fill="#00f5d4" opacity="0.04456408414630314" rx="1"/><rect x="1510.5894326210462" y="1050.7509582933856" width="94.12032437839554" height="2" fill="#00f5d4" opacity="0.03633036937944832" rx="1"/><rect x="1900.8791390016859" y="1022.4809542257527" width="81.71081076881634" height="2" fill="#00f5d4" opacity="0.044340606514443784" rx="1"/><rect x="98.93341856518141" y="1042.2595263603748" width="101.57715466375862" height="2" fill="#00f5d4" opacity="0.05381833711495118" rx="1"/><rect x="632.6555658859795" y="1040.4132923531376" width="92.37309074783072" height="2" fill="#00f5d4" opacity="0.0530690459704653" rx="1"/><rect x="560.3862987273342" y="1004.265948344084" width="74.2866594284509" height="2" fill="#00f5d4" opacity="0.0550577127549466" rx="1"/><rect x="1290.1731140935265" y="1045.240546815386" width="85.63798279167105" height="2" fill="#00f5d4" opacity="0.04011774022600561" rx="1"/><rect x="927.594185687507" y="1057.3191994236129" width="119.54282441165829" height="2" fill="#00f5d4" opacity="0.04830338636140884" rx="1"/><rect x="1440.6501405315125" y="1018.1828054176137" width="39.25772438274178" height="2" fill="#00f5d4" opacity="0.029788119906975916" rx="1"/><rect x="716.2568800328897" y="1000.6132012886492" width="62.73419288050714" height="2" fill="#00f5d4" opacity="0.02996944885001738" rx="1"/><rect x="664.4015637096952" y="1055.8383144428576" width="95.03975706059481" height="2" fill="#00f5d4" opacity="0.0340624628621299" rx="1"/><rect x="526.9811431800438" y="1029.1976985263632" width="100.21244436507403" height="2" fill="#00f5d4" opacity="0.05735159669941095" rx="1"/><rect x="1038.3971686098719" y="1047.3280672047586" width="105.95047536910289" height="2" fill="#00f5d4" opacity="0.029665121009961035" rx="1"/><rect x="972.1930072484987" y="1027.8996318224583" width="102.1847312343737" height="2" fill="#00f5d4" opacity="0.026688256209410788" rx="1"/><rect x="356.1476729149343" y="1039.4651239084696" width="73.24929388082802" height="2" fill="#00f5d4" opacity="0.028201574359136068" rx="1"/><rect x="1767.0655251683354" y="1052.2478753682803" width="33.21664103614554" height="2" fill="#00f5d4" opacity="0.056285768085225896" rx="1"/><rect x="250.17850494249225" y="1031.8054710169802" width="42.28172708355862" height="2" fill="#00f5d4" opacity="0.05009336226389123" rx="1"/><rect x="1713.6712485071437" y="1039.3955388850056" width="65.54901766719972" height="2" fill="#00f5d4" opacity="0.020770441815436455" rx="1"/><rect x="1310.992639072005" y="1001.7617890848223" width="95.25115466566085" height="2" fill="#00f5d4" opacity="0.03000069110887141" rx="1"/><rect x="210.33476119170308" y="1044.5489616842356" width="83.72158193581774" height="2" fill="#00f5d4" opacity="0.03197688760514764" rx="1"/><rect x="167.00527940108563" y="1056.250976965821" width="81.76028085447854" height="2" fill="#00f5d4" opacity="0.04788257717804112" rx="1"/><text x="1900" y="1060" font-family="Arial, sans-serif" font-size="11" fill="#fff" opacity="0.08" text-anchor="end" letter-spacing="2">GTA 6 REWARDS · WALLPAPER 019</text>
</svg>