<?xml version="1.0" encoding="UTF-8"?>
<svg xmlns="http://www.w3.org/2000/svg" width="1920" height="1080" viewBox="0 0 1920 1080">
<defs>
    <linearGradient id="bg73" x1="0%" y1="0%" x2="0%" y2="100%">
      <stop offset="0%" stop-color="#4361ee"/>
      <stop offset="50%" stop-color="#102ebb"/>
      <stop offset="100%" stop-color="#4361ee"/>
    </linearGradient>
    <linearGradient id="sun73" x1="0%" y1="0%" x2="100%" y2="100%">
      <stop offset="0%" stop-color="#4cc9f0"/>
      <stop offset="100%" stop-color="#4895ef"/>
    </linearGradient>
    <radialGradient id="glow73" cx="50%" cy="70%" r="50%">
      <stop offset="0%" stop-color="#4cc9f0" stop-opacity="0.3"/>
      <stop offset="100%" stop-color="#4361ee" stop-opacity="0"/>
    </radialGradient>
  </defs><rect width="1920" height="1080" fill="url(#bg73)"/><circle cx="1365.0585863425067" cy="596.0016452698042" r="657.3601484432259" fill="#4cc9f0" opacity="0.1381674957201275"/><circle cx="1565.0585863425067" cy="496.00164526980416" r="412.57558558429025" fill="#4895ef" opacity="0.06812709747304374"/><circle cx="1443.61535085915" cy="242.8787586728294" r="64.84536113330287" fill="url(#sun73)" opacity="0.6374287183483663"/><circle cx="1443.61535085915" cy="242.8787586728294" r="59.84536113330287" fill="#4361ee" opacity="0.3"/><pattern id="scan73" width="1920" height="4" patternUnits="userSpaceOnUse">
      <line x1="0" y1="0" x2="1920" y2="0" stroke="#000" stroke-opacity="0.05" stroke-width="1"/>
    </pattern>
    <rect width="1920" height="1080" fill="url(#scan73)"/><rect x="18.129912716832457" y="821.687495492326" width="53.9288041982634" height="95.70687853165597" fill="#2947d4" opacity="0.41923079211712605" rx="2"/><rect x="39.37922578919195" y="831.687495492326" width="11.43017805354441" height="7.840203032326" fill="#4895ef" opacity="0.243492946434648" rx="1"/><rect x="25.897024739626104" y="835.6075970084889" width="11.43017805354441" height="7.840203032326" fill="#4cc9f0" opacity="0.121746473217324" rx="1"/><rect x="39.71354210160522" y="855.61421512524" width="10.76154542871787" height="8.311223922835483" fill="#4895ef" opacity="0.5304924327718309" rx="1"/><rect x="26.231341052039376" y="859.7698270866578" width="10.76154542871787" height="8.311223922835483" fill="#4cc9f0" opacity="0.26524621638591545" rx="1"/><rect x="42.80519869686225" y="879.540934758154" width="4.578232238203807" height="9.633253008041823" fill="#4895ef" opacity="0.36070528006197544" rx="1"/><rect x="29.322997647296404" y="884.3575612621748" width="4.578232238203807" height="9.633253008041823" fill="#4cc9f0" opacity="0.18035264003098772" rx="1"/><rect x="40.034771074316176" y="903.467654391068" width="10.119087483295958" height="7.8944148239433805" fill="#4895ef" opacity="0.5860077138259093" rx="1"/><rect x="26.55257002475033" y="907.4148618030397" width="10.119087483295958" height="7.8944148239433805" fill="#4cc9f0" opacity="0.29300385691295466" rx="1"/><rect x="128.3904456867961" y="627.3851037438459" width="61.470956777099275" height="290.0092702801361" fill="#4361ee" opacity="0.607684174205103" rx="2"/><rect x="155.38456822644167" y="637.3851037438459" width="7.482711697808167" height="9.147316244232309" fill="#4895ef" opacity="0.3105599978730455" rx="1"/><rect x="140.01682903216684" y="641.9587618659621" width="7.482711697808167" height="9.147316244232309" fill="#4cc9f0" opacity="0.15527999893652275" rx="1"/><rect x="155.85592792372196" y="734.0548605038913" width="6.539992303247562" height="8.988967086884418" fill="#4895ef" opacity="0.4870101558014308" rx="1"/><rect x="140.48818872944713" y="738.5493440473335" width="6.539992303247562" height="8.988967086884418" fill="#4cc9f0" opacity="0.2435050779007154" rx="1"/><rect x="153.2426100209136" y="830.7246172639366" width="11.766628108864332" height="6.7263917328618446" fill="#4895ef" opacity="0.13596425185351732" rx="1"/><rect x="137.87487082663876" y="834.0878131303675" width="11.766628108864332" height="6.7263917328618446" fill="#4cc9f0" opacity="0.06798212592675866" rx="1"/><rect x="230.50827427558474" y="580.2015421982393" width="70.91395946706504" height="337.1928318257427" fill="#2947d4" opacity="0.568239578108359" rx="2"/><rect x="261.40341305707807" y="590.2015421982393" width="9.123681904078387" height="7.4191986204635345" fill="#4895ef" opacity="0.2648565481102226" rx="1"/><rect x="243.6749231903118" y="593.911141508471" width="9.123681904078387" height="7.4191986204635345" fill="#4cc9f0" opacity="0.1324282740551113" rx="1"/><rect x="262.1580043629939" y="702.5991528068201" width="7.614499292246649" height="8.64608257791169" fill="#4895ef" opacity="0.4689650991859299" rx="1"/><rect x="244.42951449622768" y="706.922194095776" width="7.614499292246649" height="8.64608257791169" fill="#4cc9f0" opacity="0.23448254959296494" rx="1"/><rect x="262.94636801268734" y="814.9967634154011" width="6.0377719928598435" height="6.485423931033682" fill="#4895ef" opacity="0.5511696280565043" rx="1"/><rect x="245.21787814592108" y="818.239475380918" width="6.0377719928598435" height="6.485423931033682" fill="#4cc9f0" opacity="0.27558481402825213" rx="1"/><rect x="307.8072818959124" y="719.6838622376519" width="53.33248601838306" height="197.71051178633013" fill="#2947d4" opacity="0.4675617277313866" rx="2"/><rect x="329.6213084604616" y="729.6838622376519" width="9.704432889284668" height="6.873926334286557" fill="#4895ef" opacity="0.22459678915901965" rx="1"/><rect x="316.2881869558658" y="733.1208254047951" width="9.704432889284668" height="6.873926334286557" fill="#4cc9f0" opacity="0.11229839457950982" rx="1"/><rect x="332.4144175940202" y="779.1114901842344" width="4.1182146221674545" height="6.376789110800435" fill="#4895ef" opacity="0.3866342610881278" rx="1"/><rect x="319.0812960894244" y="782.2998847396346" width="4.1182146221674545" height="6.376789110800435" fill="#4cc9f0" opacity="0.1933171305440639" rx="1"/><rect x="329.2019316167551" y="828.5391181308169" width="10.543186576697785" height="7.206162246224974" fill="#4895ef" opacity="0.3688234637651647" rx="1"/><rect x="315.8688101121593" y="832.1421992539293" width="10.543186576697785" height="7.206162246224974" fill="#4cc9f0" opacity="0.18441173188258236" rx="1"/><rect x="330.99289580150094" y="877.9667460773994" width="6.961258207205976" height="6.366715328853278" fill="#4895ef" opacity="0.18122265922865427" rx="1"/><rect x="317.65977429690514" y="881.1501037418261" width="6.961258207205976" height="6.366715328853278" fill="#4cc9f0" opacity="0.09061132961432714" rx="1"/><rect x="418.55015351660614" y="726.7436607221011" width="85.13701922612661" height="190.6507133018809" fill="#4361ee" opacity="0.47801284165541014" rx="2"/><rect x="455.84439055945194" y="736.7436607221011" width="10.548545140435115" height="7.712630188491342" fill="#4895ef" opacity="0.5366134066219939" rx="1"/><rect x="434.56013575292025" y="740.5999758163468" width="10.548545140435115" height="7.712630188491342" fill="#4cc9f0" opacity="0.26830670331099693" rx="1"/><rect x="455.9186461591095" y="800.2938984893948" width="10.400033941119917" height="8.572868543344752" fill="#4895ef" opacity="0.3873798974993127" rx="1"/><rect x="434.63439135257784" y="804.5803327610672" width="10.400033941119917" height="8.572868543344752" fill="#4cc9f0" opacity="0.19368994874965634" rx="1"/><rect x="455.93151703709367" y="863.8441362566884" width="10.374292185151551" height="6.98600059025595" fill="#4895ef" opacity="0.3271629333792168" rx="1"/><rect x="434.647262230562" y="867.3371365518165" width="10.374292185151551" height="6.98600059025595" fill="#4cc9f0" opacity="0.1635814666896084" rx="1"/><rect x="529.8246640540054" y="607.1968325081275" width="68.63826187295798" height="310.19754151585454" fill="#4361ee" opacity="0.5218556027677506" rx="2"/><rect x="558.3953767860567" y="617.1968325081275" width="11.49683640885559" height="7.345522683427093" fill="#4895ef" opacity="0.3337790637355715" rx="1"/><rect x="541.2358113178171" y="620.8695938498411" width="11.49683640885559" height="7.345522683427093" fill="#4cc9f0" opacity="0.16688953186778574" rx="1"/><rect x="560.5964977117051" y="655.9715251976094" width="7.094594557558791" height="9.06921356149698" fill="#4895ef" opacity="0.5675017888582083" rx="1"/><rect x="543.4369322434655" y="660.5061319783579" width="7.094594557558791" height="9.06921356149698" fill="#4cc9f0" opacity="0.2837508944291042" rx="1"/><rect x="559.6465286787046" y="694.7462178870911" width="8.994532623559827" height="8.279802081705956" fill="#4895ef" opacity="0.4486753890404188" rx="1"/><rect x="542.4869632104651" y="698.8861189279442" width="8.994532623559827" height="8.279802081705956" fill="#4cc9f0" opacity="0.2243376945202094" rx="1"/><rect x="561.259684302978" y="733.520910576573" width="5.768221375012821" height="6.887491690201567" fill="#4895ef" opacity="0.5329733308248625" rx="1"/><rect x="544.1001188347385" y="736.9646564216738" width="5.768221375012821" height="6.887491690201567" fill="#4cc9f0" opacity="0.26648666541243127" rx="1"/><rect x="559.846669954984" y="772.2956032660547" width="8.594250071000832" height="8.062557613957338" fill="#4895ef" opacity="0.5814401249125227" rx="1"/><rect x="542.6871044867445" y="776.3268820730334" width="8.594250071000832" height="8.062557613957338" fill="#4cc9f0" opacity="0.29072006245626136" rx="1"/><rect x="561.0275338125283" y="811.0702959555366" width="6.232522355912375" height="9.921134225074466" fill="#4895ef" opacity="0.3906470234251225" rx="1"/><rect x="543.8679683442888" y="816.0308630680738" width="6.232522355912375" height="9.921134225074466" fill="#4cc9f0" opacity="0.19532351171256124" rx="1"/><rect x="558.7496698177572" y="849.8449886450185" width="10.78825034545461" height="7.279015939049193" fill="#4895ef" opacity="0.16030060259166654" rx="1"/><rect x="541.5901043495177" y="853.4844966145431" width="10.78825034545461" height="7.279015939049193" fill="#4cc9f0" opacity="0.08015030129583327" rx="1"/><rect x="561.0918850359525" y="888.6196813345002" width="6.1038199090640575" height="8.939844765453563" fill="#4895ef" opacity="0.11528023614438257" rx="1"/><rect x="543.932319567713" y="893.089603717227" width="6.1038199090640575" height="8.939844765453563" fill="#4cc9f0" opacity="0.057640118072191285" rx="1"/><rect x="625.8171186287412" y="672.1923494297528" width="30.0218537589586" height="245.2020245942292" fill="#4361ee" opacity="0.6745422575796354" rx="2"/><rect x="637.3873497079978" y="682.1923494297528" width="6.881391600445237" height="8.992227472130262" fill="#4895ef" opacity="0.42824176615761633" rx="1"/><rect x="629.8818862682582" y="686.6884631658179" width="6.881391600445237" height="8.992227472130262" fill="#4cc9f0" opacity="0.21412088307880817" rx="1"/><rect x="636.0758114593696" y="717.2212100860712" width="9.504468097701778" height="7.05501137791551" fill="#4895ef" opacity="0.5657510028839463" rx="1"/><rect x="628.5703480196299" y="720.7487157750289" width="9.504468097701778" height="7.05501137791551" fill="#4cc9f0" opacity="0.28287550144197315" rx="1"/><rect x="635.5554643110685" y="752.2500707423897" width="10.5451623943041" height="9.312861985366993" fill="#4895ef" opacity="0.3348656402283501" rx="1"/><rect x="628.0500008713288" y="756.9065017350731" width="10.5451623943041" height="9.312861985366993" fill="#4cc9f0" opacity="0.16743282011417504" rx="1"/><rect x="636.1403645711763" y="787.2789313987081" width="9.375361874088497" height="8.619854710674812" fill="#4895ef" opacity="0.15997007877099562" rx="1"/><rect x="628.6349011314367" y="791.5888587540455" width="9.375361874088497" height="8.619854710674812" fill="#4cc9f0" opacity="0.07998503938549781" rx="1"/><rect x="638.2986063558789" y="822.3077920550265" width="5.058878304683342" height="9.299115483485888" fill="#4895ef" opacity="0.31393340004466785" rx="1"/><rect x="630.7931429161392" y="826.9573497967694" width="5.058878304683342" height="9.299115483485888" fill="#4cc9f0" opacity="0.15696670002233393" rx="1"/><rect x="636.4840952099913" y="857.3366527113451" width="8.68790059645844" height="6.993243619099549" fill="#4895ef" opacity="0.1781947787800326" rx="1"/><rect x="628.9786317702517" y="860.8332745208949" width="8.68790059645844" height="6.993243619099549" fill="#4cc9f0" opacity="0.0890973893900163" rx="1"/><rect x="638.0738186157896" y="892.3655133676635" width="5.5084537848617074" height="9.07422587533347" fill="#4895ef" opacity="0.18386258654851995" rx="1"/><rect x="630.56835517605" y="896.9026263053303" width="5.5084537848617074" height="9.07422587533347" fill="#4cc9f0" opacity="0.09193129327425997" rx="1"/><rect x="721.2989349705496" y="573.5535675714616" width="79.37160776214944" height="343.8408064525204" fill="#2947d4" opacity="0.4674241943209023" rx="2"/><rect x="757.3545324320897" y="583.5535675714616" width="7.260412839069128" height="7.579832455511166" fill="#4895ef" opacity="0.32687567379951377" rx="1"/><rect x="737.5116304915523" y="587.3434837992172" width="7.260412839069128" height="7.579832455511166" fill="#4cc9f0" opacity="0.16343783689975688" rx="1"/><rect x="757.6340013112585" y="652.3217288619657" width="6.701475080731669" height="7.304804200610333" fill="#4895ef" opacity="0.5761968140900593" rx="1"/><rect x="737.7910993707211" y="655.9741309622708" width="6.701475080731669" height="7.304804200610333" fill="#4cc9f0" opacity="0.28809840704502965" rx="1"/><rect x="755.9909274894356" y="721.0898901524697" width="9.987622724377463" height="8.921627918938555" fill="#4895ef" opacity="0.11918386260959876" rx="1"/><rect x="736.1480255488982" y="725.550704111939" width="9.987622724377463" height="8.921627918938555" fill="#4cc9f0" opacity="0.05959193130479938" rx="1"/><rect x="756.4568943149176" y="789.8580514429739" width="9.05568907341354" height="9.546723996183538" fill="#4895ef" opacity="0.5343915722412969" rx="1"/><rect x="736.6139923743801" y="794.6314134410657" width="9.05568907341354" height="9.546723996183538" fill="#4cc9f0" opacity="0.2671957861206484" rx="1"/><rect x="756.8809230701819" y="858.6262127334779" width="8.20763156288481" height="9.723338029282944" fill="#4895ef" opacity="0.4948512406542085" rx="1"/><rect x="737.0380211296444" y="863.4878817481194" width="8.20763156288481" height="9.723338029282944" fill="#4cc9f0" opacity="0.24742562032710425" rx="1"/><rect x="821.5869267340033" y="551.2946919541096" width="36.11150464650977" height="366.0996820698724" fill="#2947d4" opacity="0.4918566548712218" rx="2"/><rect x="835.8764097865163" y="561.2946919541096" width="7.532538541483818" height="8.209337614991082" fill="#4895ef" opacity="0.29962523428248833" rx="1"/><rect x="826.8485336248889" y="565.3993607616051" width="7.532538541483818" height="8.209337614991082" fill="#4cc9f0" opacity="0.14981261714124416" rx="1"/><rect x="834.7256555878164" y="622.3113056324216" width="9.834046938883617" height="7.018817433393285" fill="#4895ef" opacity="0.5498188686440277" rx="1"/><rect x="825.697779426189" y="625.8207143491182" width="9.834046938883617" height="7.018817433393285" fill="#4cc9f0" opacity="0.27490943432201387" rx="1"/><rect x="837.3203256522365" y="683.3279193107337" width="4.644706810043358" height="9.09072549340565" fill="#4895ef" opacity="0.18110023047334986" rx="1"/><rect x="828.2924494906091" y="687.8732820574365" width="4.644706810043358" height="9.09072549340565" fill="#4cc9f0" opacity="0.09055011523667493" rx="1"/><rect x="834.7098636920134" y="744.3445329890458" width="9.865630730489649" height="7.5778671497427545" fill="#4895ef" opacity="0.2140563738565092" rx="1"/><rect x="825.681987530386" y="748.1334665639172" width="9.865630730489649" height="7.5778671497427545" fill="#4cc9f0" opacity="0.1070281869282546" rx="1"/><rect x="835.9355640306699" y="805.3611466673578" width="7.414230053176691" height="6.012301225218061" fill="#4895ef" opacity="0.5353072172811505" rx="1"/><rect x="826.9076878690424" y="808.3672972799669" width="7.414230053176691" height="6.012301225218061" fill="#4cc9f0" opacity="0.26765360864057525" rx="1"/><rect x="834.041170050657" y="866.3777603456699" width="11.203018013202357" height="9.118610552306894" fill="#4895ef" opacity="0.15937201868728085" rx="1"/><rect x="825.0132938890296" y="870.9370656218233" width="11.203018013202357" height="9.118610552306894" fill="#4cc9f0" opacity="0.07968600934364042" rx="1"/><rect x="910.4644318362308" y="828.1003022049788" width="38.88144598083604" height="89.29407181900322" fill="#4361ee" opacity="0.6268574870719709" rx="2"/><rect x="926.7357874375544" y="838.1003022049788" width="6.338734778188806" height="6.3632905204694925" fill="#4895ef" opacity="0.3910933083135386" rx="1"/><rect x="917.0154259423454" y="841.2819474652135" width="6.338734778188806" height="6.3632905204694925" fill="#4cc9f0" opacity="0.1955466541567693" rx="1"/><rect x="924.2699456556323" y="867.8649928113132" width="11.270418342033032" height="7.827574028127728" fill="#4895ef" opacity="0.1044700738518662" rx="1"/><rect x="914.5495841604233" y="871.778779825377" width="11.270418342033032" height="7.827574028127728" fill="#4cc9f0" opacity="0.0522350369259331" rx="1"/><rect x="926.7166244129382" y="897.6296834176476" width="6.377060827421271" height="7.691049578062037" fill="#4895ef" opacity="0.12583663678398277" rx="1"/><rect x="916.9962629177292" y="901.4752082066786" width="6.377060827421271" height="7.691049578062037" fill="#4cc9f0" opacity="0.06291831839199138" rx="1"/><rect x="1031.1266509335856" y="798.6352482225362" width="68.3770099651015" height="118.75912580144572" fill="#4361ee" opacity="0.5906748563262343" rx="2"/><rect x="1059.7646904032201" y="808.6352482225362" width="11.100931025832177" height="9.578314775502848" fill="#4895ef" opacity="0.2921767683681512" rx="1"/><rect x="1042.6704379119449" y="813.4244056102876" width="11.100931025832177" height="9.578314775502848" fill="#4cc9f0" opacity="0.1460883841840756" rx="1"/><rect x="1061.3435460438427" y="832.3870733828254" width="7.943219744587136" height="6.140390517222786" fill="#4895ef" opacity="0.43024080466251835" rx="1"/><rect x="1044.2492935525675" y="835.4572686414368" width="7.943219744587136" height="6.140390517222786" fill="#4cc9f0" opacity="0.21512040233125918" rx="1"/><rect x="1059.6699106780115" y="856.1388985431145" width="11.290490476249365" height="9.386557567721828" fill="#4895ef" opacity="0.4135057927140747" rx="1"/><rect x="1042.5756581867363" y="860.8321773269754" width="11.290490476249365" height="9.386557567721828" fill="#4cc9f0" opacity="0.20675289635703736" rx="1"/><rect x="1062.4557273751327" y="879.8907237034036" width="5.718857082007187" height="8.51037660578973" fill="#4895ef" opacity="0.38141138208597236" rx="1"/><rect x="1045.3614748838575" y="884.1459120062985" width="5.718857082007187" height="8.51037660578973" fill="#4cc9f0" opacity="0.19070569104298618" rx="1"/><rect x="1060.8823110057306" y="903.6425488636928" width="8.865689820811546" height="6.040889390753789" fill="#4895ef" opacity="0.19365267541577402" rx="1"/><rect x="1043.7880585144553" y="906.6629935590697" width="8.865689820811546" height="6.040889390753789" fill="#4cc9f0" opacity="0.09682633770788701" rx="1"/><rect x="1116.5881236629752" y="584.0931714126126" width="68.78822176223346" height="333.3012026113694" fill="#2947d4" opacity="0.49104201853998053" rx="2"/><rect x="1147.6772136526583" y="594.0931714126126" width="6.610041782867639" height="9.747238560520866" fill="#4895ef" opacity="0.25960561289908496" rx="1"/><rect x="1130.4801582121" y="598.966790692873" width="6.610041782867639" height="9.747238560520866" fill="#4cc9f0" opacity="0.12980280644954248" rx="1"/><rect x="1147.1453964919876" y="677.4184720654549" width="7.673676104208845" height="6.9023496100917345" fill="#4895ef" opacity="0.3789354643968249" rx="1"/><rect x="1129.9483410514292" y="680.8696468705008" width="7.673676104208845" height="6.9023496100917345" fill="#4cc9f0" opacity="0.18946773219841245" rx="1"/><rect x="1145.3574013142502" y="760.7437727182974" width="11.249666459683716" height="8.069451302771794" fill="#4895ef" opacity="0.13500153346336483" rx="1"/><rect x="1128.1603458736918" y="764.7784983696832" width="11.249666459683716" height="8.069451302771794" fill="#4cc9f0" opacity="0.06750076673168241" rx="1"/><rect x="1145.2715920191645" y="844.0690733711397" width="11.421285049855076" height="9.26710232330186" fill="#4895ef" opacity="0.34409952509312414" rx="1"/><rect x="1128.074536578606" y="848.7026245327907" width="11.421285049855076" height="9.26710232330186" fill="#4cc9f0" opacity="0.17204976254656207" rx="1"/><rect x="1240.111293597908" y="756.9263933708255" width="44.567939954476415" height="160.46798065315653" fill="#2947d4" opacity="0.567763175039497" rx="2"/><rect x="1256.5660257154898" y="766.9263933708255" width="11.658475719312783" height="9.783750007810013" fill="#4895ef" opacity="0.49884585989612296" rx="1"/><rect x="1245.4240407268705" y="771.8182683747306" width="11.658475719312783" height="9.783750007810013" fill="#4cc9f0" opacity="0.24942292994806148" rx="1"/><rect x="1259.5503014027393" y="793.6710568130183" width="5.6899243448139" height="8.646535659825089" fill="#4895ef" opacity="0.5570782083219565" rx="1"/><rect x="1248.40831641412" y="797.9943246429308" width="5.6899243448139" height="8.646535659825089" fill="#4cc9f0" opacity="0.27853910416097827" rx="1"/><rect x="1257.6305297784945" y="820.415720255211" width="9.529467593303291" height="6.568282871639422" fill="#4895ef" opacity="0.2226583946549004" rx="1"/><rect x="1246.4885447898753" y="823.6998616910307" width="9.529467593303291" height="6.568282871639422" fill="#4cc9f0" opacity="0.1113291973274502" rx="1"/><rect x="1259.8418041719121" y="847.1603836974037" width="5.106918806467885" height="9.476556070958393" fill="#4895ef" opacity="0.5451458428392992" rx="1"/><rect x="1248.699819183293" y="851.8986617328829" width="5.106918806467885" height="9.476556070958393" fill="#4cc9f0" opacity="0.2725729214196496" rx="1"/><rect x="1258.9726313862786" y="873.9050471395965" width="6.845264377734918" height="6.578145119496189" fill="#4895ef" opacity="0.26831017545617886" rx="1"/><rect x="1247.8306463976594" y="877.1941196993446" width="6.845264377734918" height="6.578145119496189" fill="#4cc9f0" opacity="0.13415508772808943" rx="1"/><rect x="1258.226712658625" y="900.6497105817893" width="8.337101833042013" height="9.509326311645406" fill="#4895ef" opacity="0.341392829162393" rx="1"/><rect x="1247.0847276700058" y="905.4043737376121" width="8.337101833042013" height="9.509326311645406" fill="#4cc9f0" opacity="0.1706964145811965" rx="1"/><rect x="1322.248340549569" y="590.5941181677846" width="60.8386250517421" height="326.8002558561974" fill="#4361ee" opacity="0.4594301179655432" rx="2"/><rect x="1346.8083678093342" y="600.5941181677846" width="11.7185705322117" height="8.229727652443044" fill="#4895ef" opacity="0.32851425496128256" rx="1"/><rect x="1331.5987115463988" y="604.7089819940061" width="11.7185705322117" height="8.229727652443044" fill="#4cc9f0" opacity="0.16425712748064128" rx="1"/><rect x="1349.6428227198926" y="709.5275367865171" width="6.0496607110951235" height="7.199132728669591" fill="#4895ef" opacity="0.20778277532844402" rx="1"/><rect x="1334.4331664569572" y="713.1271031508519" width="6.0496607110951235" height="7.199132728669591" fill="#4cc9f0" opacity="0.10389138766422201" rx="1"/><rect x="1347.8402671071844" y="818.4609554052495" width="9.654771936511334" height="7.750305282359548" fill="#4895ef" opacity="0.5968421004006738" rx="1"/><rect x="1332.630610844249" y="822.3361080464292" width="9.654771936511334" height="7.750305282359548" fill="#4cc9f0" opacity="0.2984210502003369" rx="1"/><rect x="1442.0884412237845" y="646.9486278009016" width="50.503370389459505" height="270.4457462230804" fill="#2947d4" opacity="0.6866438781811492" rx="2"/><rect x="1463.938411923736" y="656.9486278009016" width="6.803428989556485" height="7.30626199331746" fill="#4895ef" opacity="0.3277922441083454" rx="1"/><rect x="1451.3125693263712" y="660.6017587975604" width="6.803428989556485" height="7.30626199331746" fill="#4cc9f0" opacity="0.1638961220541727" rx="1"/><rect x="1463.5310615194533" y="747.0972098752617" width="7.618129798122246" height="6.422850577259169" fill="#4895ef" opacity="0.2838172754933632" rx="1"/><rect x="1450.9052189220884" y="750.3086351638913" width="7.618129798122246" height="6.422850577259169" fill="#4cc9f0" opacity="0.1419086377466816" rx="1"/><rect x="1462.4592710261102" y="837.2457919496219" width="9.7617107848082" height="8.2366648610301" fill="#4895ef" opacity="0.3589971518048545" rx="1"/><rect x="1449.8334284287453" y="841.3641243801369" width="9.7617107848082" height="8.2366648610301" fill="#4cc9f0" opacity="0.17949857590242724" rx="1"/><rect x="1544.3921802433533" y="543.4873190693295" width="79.79313839454974" height="373.90705495465244" fill="#2947d4" opacity="0.5497487074345697" rx="2"/><rect x="1580.257370686672" y="553.4873190693295" width="8.062757507912526" height="8.841578170387441" fill="#4895ef" opacity="0.3871902008278273" rx="1"/><rect x="1560.3090860880345" y="557.9081081545232" width="8.062757507912526" height="8.841578170387441" fill="#4cc9f0" opacity="0.19359510041391365" rx="1"/><rect x="1580.7679960240414" y="628.2687300602599" width="7.041506833173686" height="6.57675238898414" fill="#4895ef" opacity="0.27733340854228783" rx="1"/><rect x="1560.819711425404" y="631.5571062547521" width="7.041506833173686" height="6.57675238898414" fill="#4cc9f0" opacity="0.13866670427114391" rx="1"/><rect x="1581.0867283304767" y="703.0501410511904" width="6.404042220302867" height="9.492908757061908" fill="#4895ef" opacity="0.40657884415857937" rx="1"/><rect x="1561.1384437318393" y="707.7965954297214" width="6.404042220302867" height="9.492908757061908" fill="#4cc9f0" opacity="0.20328942207928968" rx="1"/><rect x="1578.5177065256203" y="777.831552042121" width="11.542085830015615" height="6.938129755886767" fill="#4895ef" opacity="0.21431484858373062" rx="1"/><rect x="1558.5694219269828" y="781.3006169200644" width="11.542085830015615" height="6.938129755886767" fill="#4cc9f0" opacity="0.10715742429186531" rx="1"/><rect x="1580.4091889584336" y="852.6129630330514" width="7.75912096438909" height="9.72444546216271" fill="#4895ef" opacity="0.557771515696722" rx="1"/><rect x="1560.4609043597961" y="857.4751857641328" width="7.75912096438909" height="9.72444546216271" fill="#4cc9f0" opacity="0.278885757848361" rx="1"/><rect x="1617.1701901921492" y="770.5928294501716" width="40.36770148444169" height="146.8015445738103" fill="#2947d4" opacity="0.6777255875472272" rx="2"/><rect x="1633.631773950728" y="780.5928294501716" width="7.444533967283679" height="9.65590419984793" fill="#4895ef" opacity="0.5502015487407803" rx="1"/><rect x="1623.5398485796177" y="785.4207815500956" width="7.444533967283679" height="9.65590419984793" fill="#4cc9f0" opacity="0.27510077437039016" rx="1"/><rect x="1632.3994660050632" y="801.5644786750016" width="9.909149858613766" height="9.548076559684258" fill="#4895ef" opacity="0.10141375197596238" rx="1"/><rect x="1622.3075406339528" y="806.3385169548437" width="9.909149858613766" height="9.548076559684258" fill="#4cc9f0" opacity="0.05070687598798119" rx="1"/><rect x="1634.3301787044716" y="822.5361278998317" width="6.047724459797079" height="7.797965945163268" fill="#4895ef" opacity="0.42230819094048544" rx="1"/><rect x="1624.2382533333612" y="826.4351108724134" width="6.047724459797079" height="7.797965945163268" fill="#4cc9f0" opacity="0.21115409547024272" rx="1"/><rect x="1631.5300152317482" y="843.5077771246617" width="11.648051405243589" height="8.99226363817981" fill="#4895ef" opacity="0.5631388083712987" rx="1"/><rect x="1621.4380898606378" y="848.0039089437516" width="11.648051405243589" height="8.99226363817981" fill="#4cc9f0" opacity="0.28156940418564935" rx="1"/><rect x="1632.8969658836972" y="864.4794263494917" width="8.914150101345534" height="7.8824362163158215" fill="#4895ef" opacity="0.5122122566709789" rx="1"/><rect x="1622.8050405125869" y="868.4206444576497" width="8.914150101345534" height="7.8824362163158215" fill="#4cc9f0" opacity="0.25610612833548946" rx="1"/><rect x="1632.7979408977574" y="885.4510755743219" width="9.11220007322547" height="6.641022624597191" fill="#4895ef" opacity="0.47338226471873524" rx="1"/><rect x="1622.706015526647" y="888.7715868866204" width="9.11220007322547" height="6.641022624597191" fill="#4cc9f0" opacity="0.23669113235936762" rx="1"/><rect x="1635.178153526594" y="906.4227247991519" width="4.3517748155518845" height="8.972134317963416" fill="#4895ef" opacity="0.2934594924546451" rx="1"/><rect x="1625.0862281554837" y="910.9087919581335" width="4.3517748155518845" height="8.972134317963416" fill="#4cc9f0" opacity="0.14672974622732254" rx="1"/><rect x="1738.2135622686908" y="835.4149346438737" width="80.51474394055893" height="81.97943938010825" fill="#2947d4" opacity="0.5553193679208214" rx="2"/><rect x="1775.697727828792" y="845.4149346438737" width="5.546412820356529" height="8.506580074901361" fill="#4895ef" opacity="0.14211321334403781" rx="1"/><rect x="1755.5690418436523" y="849.6682246813244" width="5.546412820356529" height="8.506580074901361" fill="#4cc9f0" opacity="0.07105660667201891" rx="1"/><rect x="1775.1053551280822" y="855.6623645663873" width="6.7311582217764006" height="6.4470173289177515" fill="#4895ef" opacity="0.4006109599491141" rx="1"/><rect x="1754.9766691429425" y="858.8858732308462" width="6.7311582217764006" height="6.4470173289177515" fill="#4cc9f0" opacity="0.20030547997455705" rx="1"/><rect x="1775.4844669648348" y="865.9097944889007" width="5.972934548271106" height="8.976661967806672" fill="#4895ef" opacity="0.3133908300226067" rx="1"/><rect x="1755.355780979695" y="870.398125472804" width="5.972934548271106" height="8.976661967806672" fill="#4cc9f0" opacity="0.15669541501130335" rx="1"/><rect x="1773.6037310827703" y="876.1572244114143" width="9.734406312400104" height="9.840701944157644" fill="#4895ef" opacity="0.12845651785108647" rx="1"/><rect x="1753.4750450976305" y="881.0775753834931" width="9.734406312400104" height="9.840701944157644" fill="#4cc9f0" opacity="0.06422825892554324" rx="1"/><rect x="1772.6870683932584" y="886.4046543339279" width="11.567731691423742" height="8.13816472937776" fill="#4895ef" opacity="0.5328462325345833" rx="1"/><rect x="1752.5583824081186" y="890.4737366986167" width="11.567731691423742" height="8.13816472937776" fill="#4cc9f0" opacity="0.26642311626729165" rx="1"/><rect x="1774.7613417807115" y="896.6520842564414" width="7.419184916517508" height="9.96979224029225" fill="#4895ef" opacity="0.2563714613803596" rx="1"/><rect x="1754.6326557955717" y="901.6369803765875" width="7.419184916517508" height="9.96979224029225" fill="#4cc9f0" opacity="0.1281857306901798" rx="1"/><rect x="1774.711123976201" y="906.8995141789549" width="7.5196205255388335" height="7.2142411864395815" fill="#4895ef" opacity="0.3520045928545307" rx="1"/><rect x="1754.5824379910612" y="910.5066347721746" width="7.5196205255388335" height="7.2142411864395815" fill="#4cc9f0" opacity="0.17600229642726534" rx="1"/><rect x="1772.7099919624588" y="917.1469441014684" width="11.52188455302312" height="9.661813272084531" fill="#4895ef" opacity="0.3384371464695868" rx="1"/><rect x="1752.581305977319" y="921.9778507375107" width="11.52188455302312" height="9.661813272084531" fill="#4cc9f0" opacity="0.1692185732347934" rx="1"/><rect x="1826.7960679511382" y="645.1341912139054" width="47.67354729996844" height="272.26018281007657" fill="#4361ee" opacity="0.6711223352633235" rx="2"/><rect x="1845.293467677438" y="655.1341912139054" width="10.67874784736865" height="7.021945578284083" fill="#4895ef" opacity="0.47030200121698484" rx="1"/><rect x="1833.3750808524458" y="658.6451640030474" width="10.67874784736865" height="7.021945578284083" fill="#4cc9f0" opacity="0.23515100060849242" rx="1"/><rect x="1848.382544971099" y="723.1992369164245" width="4.5005932600471645" height="9.494920845025899" fill="#4895ef" opacity="0.34715074413622515" rx="1"/><rect x="1836.4641581461067" y="727.9466973389375" width="4.5005932600471645" height="9.494920845025899" fill="#4cc9f0" opacity="0.17357537206811258" rx="1"/><rect x="1845.4551629529315" y="791.2642826189438" width="10.355357296381928" height="6.972333145554255" fill="#4895ef" opacity="0.2478926714388404" rx="1"/><rect x="1833.5367761279392" y="794.7504491917209" width="10.355357296381928" height="6.972333145554255" fill="#4cc9f0" opacity="0.1239463357194202" rx="1"/><rect x="1847.4150889634973" y="859.3293283214629" width="6.435505275250297" height="7.545085890578359" fill="#4895ef" opacity="0.2711389563677691" rx="1"/><rect x="1835.496702138505" y="863.101871266752" width="6.435505275250297" height="7.545085890578359" fill="#4cc9f0" opacity="0.13556947818388454" rx="1"/><path d="M328.7808180620849 878.3235028335647 Q314.9801910051564 813.0770196644769 312.2200655937707 747.8305364953892" stroke="#0014a1" stroke-width="4.343898516228399" fill="none" stroke-linecap="round"/><path d="M312.2200655937707 747.8305364953892 Q351.5736782794291 727.8305364953892 379.2081835207548 747.8305364953892" stroke="#102ebb" stroke-width="3.078178599262186" fill="none" stroke-linecap="round" opacity="0.6"/><path d="M312.2200655937707 747.8305364953892 Q334.73964247503 733.9496907563516 344.7524834976638 760.0688450173142" stroke="#102ebb" stroke-width="2.2873335607087553" fill="none" stroke-linecap="round" opacity="0.6"/><path d="M312.2200655937707 747.8305364953892 Q316.4424755288184 733.4223927771214 303.711367553551 759.0142490588537" stroke="#102ebb" stroke-width="3.264375461094169" fill="none" stroke-linecap="round" opacity="0.6"/><path d="M312.2200655937707 747.8305364953892 Q287.90913886531945 732.0938905182916 253.20042659563967 756.3572445411941" stroke="#102ebb" stroke-width="2.374028455087456" fill="none" stroke-linecap="round" opacity="0.6"/><path d="M312.2200655937707 747.8305364953892 Q305.3712212844805 723.9586684840938 258.6199537927107 740.0868004727982" stroke="#102ebb" stroke-width="2.447867836441814" fill="none" stroke-linecap="round" opacity="0.6"/><path d="M312.2200655937707 747.8305364953892 Q312.033610735375 718.5037014807751 298.02813740177584 729.176866466161" stroke="#102ebb" stroke-width="2.6753818962432865" fill="none" stroke-linecap="round" opacity="0.6"/><path d="M312.2200655937707 747.8305364953892 Q349.0217509043463 720.4262435260652 351.58490963727064 733.0219505567411" stroke="#102ebb" stroke-width="2.181374742226064" fill="none" stroke-linecap="round" opacity="0.6"/><path d="M1776.9269339407158 865.4316321400534 Q1777.8927358328115 747.5164948549393 1778.0858962112306 629.6013575698253" stroke="#0014a1" stroke-width="7.287615652030244" fill="none" stroke-linecap="round"/><path d="M1778.0858962112306 629.6013575698253 Q1812.9300909701105 609.6013575698253 1815.1037828631474 629.6013575698253" stroke="#102ebb" stroke-width="2.2011868199801974" fill="none" stroke-linecap="round" opacity="0.6"/><path d="M1778.0858962112306 629.6013575698253 Q1800.076322243604 613.5170922533069 1798.9038575979007 637.4328269367886" stroke="#102ebb" stroke-width="2.8462038260992157" fill="none" stroke-linecap="round" opacity="0.6"/><path d="M1778.0858962112306 629.6013575698253 Q1786.269089752062 619.9322909948634 1762.3661086204038 650.2632244199015" stroke="#102ebb" stroke-width="3.22499563480378" fill="none" stroke-linecap="round" opacity="0.6"/><path d="M1778.0858962112306 629.6013575698253 Q1766.6161387337527 613.9829584408931 1717.4293098111477 638.364559311961" stroke="#102ebb" stroke-width="3.92401207422931" fill="none" stroke-linecap="round" opacity="0.6"/><path d="M1778.0858962112306 629.6013575698253 Q1770.0933350586952 606.2397194808646 1731.5491400828341 622.8780813919038" stroke="#102ebb" stroke-width="2.6773285099019595" fill="none" stroke-linecap="round" opacity="0.6"/><path d="M1778.0858962112306 629.6013575698253 Q1775.9232851657723 601.2263829105663 1765.3423407835057 612.8514082513072" stroke="#102ebb" stroke-width="3.342982388879867" fill="none" stroke-linecap="round" opacity="0.6"/><path d="M1778.0858962112306 629.6013575698253 Q1818.9138290084989 600.7854707757546 1824.955463662372 611.9695839816839" stroke="#102ebb" stroke-width="2.545128176581377" fill="none" stroke-linecap="round" opacity="0.6"/><path d="M1709.4335768626615 856.7323732089094 Q1705.7370625170267 777.1715850574365 1704.9977596478998 697.6107969059634" stroke="#0014a1" stroke-width="5.53360256495271" fill="none" stroke-linecap="round"/><path d="M1704.9977596478998 697.6107969059634 Q1747.6860511730627 677.6107969059634 1756.719999595713 697.6107969059634" stroke="#102ebb" stroke-width="3.0956256005670006" fill="none" stroke-linecap="round" opacity="0.6"/><path d="M1704.9977596478998 697.6107969059634 Q1724.3851742416762 684.5606862820182 1741.9467718684343 711.5105756580729" stroke="#102ebb" stroke-width="2.6887622966172087" fill="none" stroke-linecap="round" opacity="0.6"/><path d="M1704.9977596478998 697.6107969059634 Q1703.3689706378009 684.9898455241482 1693.769628352511 712.3688941423329" stroke="#102ebb" stroke-width="2.280904618622946" fill="none" stroke-linecap="round" opacity="0.6"/><path d="M1704.9977596478998 697.6107969059634 Q1680.901865216965 682.345807808678 1639.4487499646316 707.0808187113927" stroke="#102ebb" stroke-width="3.0452365044144067" fill="none" stroke-linecap="round" opacity="0.6"/><path d="M1704.9977596478998 697.6107969059634 Q1671.3140358438202 672.7267245068849 1637.3852207205996 687.8426521078063" stroke="#102ebb" stroke-width="3.6440331022357646" fill="none" stroke-linecap="round" opacity="0.6"/><path d="M1704.9977596478998 697.6107969059634 Q1711.8998199682444 672.257065338018 1696.851397687766 686.9033337700728" stroke="#102ebb" stroke-width="3.3710933093379936" fill="none" stroke-linecap="round" opacity="0.6"/><path d="M1704.9977596478998 697.6107969059634 Q1731.0959587986536 672.8559233948247 1730.2769935987997 688.101049883686" stroke="#102ebb" stroke-width="2.9238533607972443" fill="none" stroke-linecap="round" opacity="0.6"/><path d="M602.5705461116904 857.5789955811526 Q586.5149945408373 784.5710114831038 583.3038842266667 711.5630273850549" stroke="#0014a1" stroke-width="7.352265703341054" fill="none" stroke-linecap="round"/><path d="M583.3038842266667 711.5630273850549 Q640.3919317911825 691.5630273850549 662.4386640061714 711.5630273850549" stroke="#102ebb" stroke-width="3.3193719418066023" fill="none" stroke-linecap="round" opacity="0.6"/><path d="M583.3038842266667 711.5630273850549 Q614.8157297362517 699.7882924219382 627.0334174494617 728.0135574588214" stroke="#102ebb" stroke-width="2.6598870061943045" fill="none" stroke-linecap="round" opacity="0.6"/><path d="M583.3038842266667 711.5630273850549 Q592.8726501437098 703.0118018702725 565.8831637865642 734.4605763554902" stroke="#102ebb" stroke-width="2.944744833033705" fill="none" stroke-linecap="round" opacity="0.6"/><path d="M583.3038842266667 711.5630273850549 Q579.2452965126611 694.6390631831757 540.7208565505302 717.7150989812966" stroke="#102ebb" stroke-width="3.5231064244925756" fill="none" stroke-linecap="round" opacity="0.6"/><path d="M583.3038842266667 711.5630273850549 Q583.4889969779122 689.4271928346203 553.7365099365614 707.2913582841858" stroke="#102ebb" stroke-width="2.6753419378482137" fill="none" stroke-linecap="round" opacity="0.6"/><path d="M715.0943833764397 939.6028543914675 Q732.6443690510105 864.2343504794953 736.1543661859247 788.8658465675232" stroke="#0014a1" stroke-width="5.305905190600526" fill="none" stroke-linecap="round"/><path d="M736.1543661859247 788.8658465675232 Q762.3525071137941 768.8658465675232 780.2215130930351 788.8658465675232" stroke="#102ebb" stroke-width="2.017468099020763" fill="none" stroke-linecap="round" opacity="0.6"/><path d="M736.1543661859247 788.8658465675232 Q762.2320647528051 776.8290986103925 778.490910140269 804.7923506532617" stroke="#102ebb" stroke-width="3.481954628015392" fill="none" stroke-linecap="round" opacity="0.6"/><path d="M736.1543661859247 788.8658465675232 Q734.2336398555386 773.9856382998323 728.3639724983501 799.1054300321415" stroke="#102ebb" stroke-width="3.7496273386640535" fill="none" stroke-linecap="round" opacity="0.6"/><path d="M736.1543661859247 788.8658465675232 Q733.8791799807183 771.6349569152915 697.8202536085219 794.4040672630596" stroke="#102ebb" stroke-width="2.3864486735282577" fill="none" stroke-linecap="round" opacity="0.6"/><path d="M736.1543661859247 788.8658465675232 Q707.6106223816474 764.3648358057369 673.8447318322459 779.8638250439504" stroke="#102ebb" stroke-width="2.3570112293486045" fill="none" stroke-linecap="round" opacity="0.6"/><path d="M736.1543661859247 788.8658465675232 Q737.3032951108024 760.3494309046791 723.1955908510031 771.833015241835" stroke="#102ebb" stroke-width="2.173324009909603" fill="none" stroke-linecap="round" opacity="0.6"/><rect x="0" y="1000" width="1920" height="80" fill="#1d3bc8" opacity="0.8"/><line x1="0" y1="1040" x2="1920" y2="1040" stroke="#4895ef" stroke-opacity="0.15" stroke-width="2" stroke-dasharray="30,20"/><rect x="0" y="930" width="1920" height="150" fill="url(#glow73)"/><text x="1900" y="1060" font-family="Arial, sans-serif" font-size="11" fill="#fff" opacity="0.08" text-anchor="end" letter-spacing="2">GTA 6 REWARDS · WALLPAPER 074</text>
</svg>