<?xml version="1.0" encoding="UTF-8"?>
<svg xmlns="http://www.w3.org/2000/svg" width="1920" height="1080" viewBox="0 0 1920 1080">
<defs>
    <linearGradient id="bg87" x1="0%" y1="0%" x2="0%" y2="100%">
      <stop offset="0%" stop-color="#03045e"/>
      <stop offset="50%" stop-color="#00002b"/>
      <stop offset="100%" stop-color="#03045e"/>
    </linearGradient>
    <linearGradient id="sun87" x1="0%" y1="0%" x2="100%" y2="100%">
      <stop offset="0%" stop-color="#00b4d8"/>
      <stop offset="100%" stop-color="#0077b6"/>
    </linearGradient>
    <radialGradient id="glow87" cx="50%" cy="70%" r="50%">
      <stop offset="0%" stop-color="#00b4d8" stop-opacity="0.3"/>
      <stop offset="100%" stop-color="#03045e" stop-opacity="0"/>
    </radialGradient>
  </defs><rect width="1920" height="1080" fill="url(#bg87)"/><circle cx="780.8555260488893" cy="364.41738991169666" r="799.7439063852057" fill="#00b4d8" opacity="0.05397122756204829"/><circle cx="980.8555260488893" cy="264.41738991169666" r="517.6238454220872" fill="#0077b6" opacity="0.08308751639749098"/><line x1="0" y1="980" x2="1920" y2="980" stroke="#0077b6" stroke-opacity="0.05" stroke-width="2"/><line x1="0" y1="935" x2="1920" y2="935" stroke="#0077b6" stroke-opacity="0.049" stroke-width="0.5"/><line x1="0" y1="890" x2="1920" y2="890" stroke="#0077b6" stroke-opacity="0.048" stroke-width="0.5"/><line x1="0" y1="845" x2="1920" y2="845" stroke="#0077b6" stroke-opacity="0.047" stroke-width="0.5"/><line x1="0" y1="800" x2="1920" y2="800" stroke="#0077b6" stroke-opacity="0.046" stroke-width="0.5"/><line x1="0" y1="755" x2="1920" y2="755" stroke="#0077b6" stroke-opacity="0.045" stroke-width="0.5"/><line x1="0" y1="710" x2="1920" y2="710" stroke="#0077b6" stroke-opacity="0.044" stroke-width="0.5"/><line x1="0" y1="665" x2="1920" y2="665" stroke="#0077b6" stroke-opacity="0.043" stroke-width="0.5"/><line x1="0" y1="620" x2="1920" y2="620" stroke="#0077b6" stroke-opacity="0.041999999999999996" stroke-width="0.5"/><line x1="0" y1="575" x2="1920" y2="575" stroke="#0077b6" stroke-opacity="0.041" stroke-width="0.5"/><line x1="0" y1="530" x2="1920" y2="530" stroke="#0077b6" stroke-opacity="0.04" stroke-width="0.5"/><line x1="0" y1="485" x2="1920" y2="485" stroke="#0077b6" stroke-opacity="0.039" stroke-width="0.5"/><line x1="0" y1="440" x2="1920" y2="440" stroke="#0077b6" stroke-opacity="0.038" stroke-width="0.5"/><line x1="0" y1="395" x2="1920" y2="395" stroke="#0077b6" stroke-opacity="0.037" stroke-width="0.5"/><line x1="0" y1="350" x2="1920" y2="350" stroke="#0077b6" stroke-opacity="0.036" stroke-width="0.5"/><line x1="0" y1="305" x2="1920" y2="305" stroke="#0077b6" stroke-opacity="0.034999999999999996" stroke-width="0.5"/><line x1="0" y1="260" x2="1920" y2="260" stroke="#0077b6" stroke-opacity="0.033999999999999996" stroke-width="0.5"/><line x1="0" y1="215" x2="1920" y2="215" stroke="#0077b6" stroke-opacity="0.033" stroke-width="0.5"/><line x1="0" y1="170" x2="1920" y2="170" stroke="#0077b6" stroke-opacity="0.032" stroke-width="0.5"/><line x1="0" y1="125" x2="1920" y2="125" stroke="#0077b6" stroke-opacity="0.031" stroke-width="0.5"/><line x1="560" y1="1080" x2="860" y2="580" stroke="#00b4d8" stroke-opacity="0.04" stroke-width="1"/><line x1="640" y1="1080" x2="880" y2="590" stroke="#00b4d8" stroke-opacity="0.04" stroke-width="1"/><line x1="720" y1="1080" x2="900" y2="600" stroke="#00b4d8" stroke-opacity="0.04" stroke-width="1"/><line x1="800" y1="1080" x2="920" y2="610" stroke="#00b4d8" stroke-opacity="0.04" stroke-width="1"/><line x1="880" y1="1080" x2="940" y2="620" stroke="#00b4d8" stroke-opacity="0.04" stroke-width="1"/><line x1="960" y1="1080" x2="960" y2="630" stroke="#00b4d8" stroke-opacity="0.04" stroke-width="1"/><line x1="1040" y1="1080" x2="980" y2="620" stroke="#00b4d8" stroke-opacity="0.04" stroke-width="1"/><line x1="1120" y1="1080" x2="1000" y2="610" stroke="#00b4d8" stroke-opacity="0.04" stroke-width="1"/><line x1="1200" y1="1080" x2="1020" y2="600" stroke="#00b4d8" stroke-opacity="0.04" stroke-width="1"/><line x1="1280" y1="1080" x2="1040" y2="590" stroke="#00b4d8" stroke-opacity="0.04" stroke-width="1"/><line x1="1360" y1="1080" x2="1060" y2="580" stroke="#00b4d8" stroke-opacity="0.04" stroke-width="1"/><circle cx="944.0665825838378" cy="252.3639729484832" r="77.92601907111845" fill="url(#sun87)" opacity="0.6935813483068676"/><circle cx="944.0665825838378" cy="252.3639729484832" r="72.92601907111845" fill="#03045e" opacity="0.3"/><circle cx="1741.6095976116158" cy="46.766317862730084" r="1.3421223362307348" fill="#fff" opacity="0.5801969007542815"/><circle cx="439.7113735507502" cy="305.44214056093296" r="1.7520225768098658" fill="#fff" opacity="0.6436032188226477"/><circle cx="1085.3146789514726" cy="243.67270099457184" r="1.1764264390050494" fill="#fff" opacity="0.747007877134487"/><circle cx="1391.6579374930957" cy="18.24923646502412" r="1.0350424614816536" fill="#fff" opacity="0.4735641590490854"/><circle cx="899.550082893006" cy="296.39355536000653" r="0.816404232828972" fill="#fff" opacity="0.21456365678798495"/><circle cx="1502.7645589929923" cy="1.9215056714419056" r="1.4451646709221333" fill="#fff" opacity="0.38784604957044266"/><circle cx="85.75078414886976" cy="31.81128672505992" r="1.963796186019619" fill="#fff" opacity="0.37745640160922345"/><circle cx="691.1216132461842" cy="257.2946226860617" r="1.7964117261107106" fill="#fff" opacity="0.7857794656385155"/><circle cx="876.1424148632544" cy="3.6014800638895204" r="1.2822837244678018" fill="#fff" opacity="0.2580537723046853"/><circle cx="928.5357331411298" cy="411.15198111048716" r="1.4188952618089727" fill="#fff" opacity="0.6712208165487323"/><circle cx="688.2697951906057" cy="79.17497551794513" r="1.4905192261772506" fill="#fff" opacity="0.34816853589102825"/><circle cx="254.48234802449176" cy="273.30522625178685" r="1.538605067189458" fill="#fff" opacity="0.5277760654985383"/><circle cx="527.594587627704" cy="251.76586108183625" r="1.9765392597710107" fill="#fff" opacity="0.7531202278922127"/><circle cx="1018.9278274166695" cy="224.4328482971603" r="0.6677428383072239" fill="#fff" opacity="0.4025868194649431"/><circle cx="1567.7552585973767" cy="430.89442844663154" r="1.3157474981424744" fill="#fff" opacity="0.6051161291555307"/><circle cx="331.63432322713413" cy="151.51866109099208" r="1.6897810546657492" fill="#fff" opacity="0.3369238646554118"/><circle cx="440.1555084716891" cy="220.55727808842371" r="1.7015607327226459" fill="#fff" opacity="0.2534517816858021"/><circle cx="1573.6110823540043" cy="239.90489332748226" r="1.159786242679643" fill="#fff" opacity="0.38295228210812254"/><circle cx="712.2363417018755" cy="46.562215067111474" r="1.895267132528887" fill="#fff" opacity="0.5448786071838994"/><circle cx="546.1854186435662" cy="339.0623977601208" r="1.729796308611938" fill="#fff" opacity="0.6759017356382454"/><circle cx="1292.3393027513146" cy="93.12043739788245" r="0.8033191718401664" fill="#fff" opacity="0.7181680742926355"/><circle cx="307.41755701308546" cy="408.17068406384686" r="1.0717725507150806" fill="#fff" opacity="0.24671713077619606"/><circle cx="62.77099238307472" cy="176.81022638846426" r="1.3292514594107057" fill="#fff" opacity="0.3860936530367689"/><circle cx="914.234711442663" cy="112.53237636772272" r="0.7823053976246866" fill="#fff" opacity="0.4024186608852862"/><circle cx="584.2336545754769" cy="66.01588424714652" r="1.3230445668620627" fill="#fff" opacity="0.5043767246660722"/><circle cx="1911.1433431485536" cy="7.443886803333622" r="1.3585031182408573" fill="#fff" opacity="0.7597334427665299"/><circle cx="1157.7711339010325" cy="197.6031246757142" r="1.5140762713304898" fill="#fff" opacity="0.5348522872046689"/><circle cx="221.73636590636715" cy="204.841880726824" r="1.4416569768082483" fill="#fff" opacity="0.7569386835109766"/><circle cx="520.1377774495952" cy="189.02500725095743" r="1.7970014583079612" fill="#fff" opacity="0.2701208269852495"/><circle cx="1799.6053276675766" cy="89.92584076382356" r="1.698651212430245" fill="#fff" opacity="0.42531233826310194"/><circle cx="1566.8302858543652" cy="159.76024040946743" r="1.6545632364355407" fill="#fff" opacity="0.45525241607223926"/><circle cx="1406.1726288791215" cy="120.44421215179473" r="1.8601784235472274" fill="#fff" opacity="0.39482628032444655"/><circle cx="1138.3104017047003" cy="220.8550866723189" r="0.8472621880581748" fill="#fff" opacity="0.6599041615286618"/><circle cx="955.8240766068511" cy="217.9293321729473" r="1.0249665351642685" fill="#fff" opacity="0.35564662291566995"/><circle cx="1555.0524789735332" cy="369.973423224402" r="1.551582716883063" fill="#fff" opacity="0.3930227212125954"/><circle cx="1333.8329890495709" cy="231.39879100196967" r="1.9145944706198281" fill="#fff" opacity="0.42917215591975766"/><circle cx="1902.4143160838667" cy="387.37994720120446" r="0.9725296499609318" fill="#fff" opacity="0.5379992287461643"/><circle cx="1144.728038726544" cy="14.026210687595004" r="1.576371376187627" fill="#fff" opacity="0.4518856570245432"/><circle cx="363.7307816100611" cy="59.28591511661324" r="0.9678947044228889" fill="#fff" opacity="0.7587114487678537"/><circle cx="1622.1627808413846" cy="190.74849770188996" r="1.6725005769805286" fill="#fff" opacity="0.3007961628261945"/><circle cx="1249.097146533685" cy="154.63410818451877" r="1.9582443940356011" fill="#fff" opacity="0.5325717116083418"/><circle cx="1045.9052501073818" cy="185.54605720041928" r="0.997268970589449" fill="#fff" opacity="0.26522726418106524"/><circle cx="134.79309576907966" cy="85.87237864124411" r="1.7758444265406217" fill="#fff" opacity="0.38729901066685535"/><circle cx="534.5363117508907" cy="83.444228966591" r="1.855784594979087" fill="#fff" opacity="0.331013736112745"/><circle cx="1786.4538296746216" cy="319.4300589597388" r="1.152772639797249" fill="#fff" opacity="0.4667072928665921"/><circle cx="273.5360232632458" cy="117.33863515158617" r="0.5620556450593415" fill="#fff" opacity="0.4434388308421333"/><circle cx="929.9813025374854" cy="106.13450400767255" r="1.713462393314918" fill="#fff" opacity="0.35138352689132646"/><circle cx="1844.2930756333035" cy="313.3986217475958" r="0.8959718895833875" fill="#fff" opacity="0.4947037248161397"/><circle cx="1043.057770077851" cy="63.16726803387685" r="1.192236049494761" fill="#fff" opacity="0.4631585342025288"/><circle cx="601.6204567164231" cy="163.3408462152213" r="1.5874077970132716" fill="#fff" opacity="0.6028366460005838"/><circle cx="1535.4013148544825" cy="193.55009475759" r="1.0253724532726622" fill="#fff" opacity="0.5248099100135291"/><circle cx="157.196693606022" cy="173.67079421078571" r="0.5138766912310098" fill="#fff" opacity="0.42643266260308044"/><circle cx="979.8354812757661" cy="314.0743469097825" r="1.8731844665885866" fill="#fff" opacity="0.279010254675292"/><circle cx="1342.6194426563147" cy="197.17481871069754" r="0.5566786164549828" fill="#fff" opacity="0.2747878333727801"/><circle cx="1447.6540391537487" cy="127.20108759384627" r="1.965932317535843" fill="#fff" opacity="0.21581627941127315"/><circle cx="793.8809472680746" cy="237.4417048165206" r="0.9395757607276495" fill="#fff" opacity="0.5653428402182978"/><circle cx="519.5778488832474" cy="299.1016066547254" r="1.4258759660706566" fill="#fff" opacity="0.26045672634161465"/><circle cx="876.6601156249317" cy="336.65965189055066" r="0.5616694649359373" fill="#fff" opacity="0.7530446380733151"/><circle cx="857.9105367273816" cy="414.53889987583716" r="1.8946038309704987" fill="#fff" opacity="0.5526823202503571"/><circle cx="1267.988606688564" cy="229.73713807522716" r="1.0253006413172234" fill="#fff" opacity="0.5819353458895198"/><circle cx="1504.814770274054" cy="164.20237533845994" r="1.2223711228515886" fill="#fff" opacity="0.5972457390272164"/><circle cx="1871.884586054805" cy="235.33955608944862" r="1.474521942780009" fill="#fff" opacity="0.22153801154846747"/><circle cx="1162.4562780285385" cy="302.44881290161254" r="1.5025522325892355" fill="#fff" opacity="0.6009632526433475"/><circle cx="1296.2625439502908" cy="326.01902010431957" r="1.1729162746744501" fill="#fff" opacity="0.5310819391000741"/><circle cx="797.3720313975057" cy="206.74754761875317" r="0.6560415747007452" fill="#fff" opacity="0.4735661123119216"/><circle cx="1747.3165225580606" cy="412.2708741566797" r="1.007869257593497" fill="#fff" opacity="0.39386199223666035"/><circle cx="47.78538198391566" cy="317.5871191466197" r="1.3364295746051775" fill="#fff" opacity="0.42836461291377537"/><circle cx="1771.2324852895067" cy="337.0666368084649" r="1.5295783166143992" fill="#fff" opacity="0.6073697014728956"/><circle cx="1441.4053821939522" cy="247.64398170813078" r="0.5920771652814181" fill="#fff" opacity="0.6738447077744278"/><circle cx="174.1110326755119" cy="341.4093812083382" r="1.5878824952728774" fill="#fff" opacity="0.4584304773850437"/><rect x="27.906309489138962" y="604.319166381452" width="37.316701679331416" height="241.66542311237785" fill="#000044" opacity="0.5396500996871968" rx="2"/><rect x="40.76005884300919" y="614.319166381452" width="11.609202971590964" height="9.681730511524187" fill="#0077b6" opacity="0.4407500515088323" rx="1"/><rect x="31.430883423176333" y="619.160031637214" width="11.609202971590964" height="9.681730511524187" fill="#00b4d8" opacity="0.22037502575441614" rx="1"/><rect x="43.570619295484065" y="662.6522510039275" width="5.9880820666412085" height="7.382745012962898" fill="#0077b6" opacity="0.3997647264971781" rx="1"/><rect x="34.24144387565121" y="666.343623510409" width="5.9880820666412085" height="7.382745012962898" fill="#00b4d8" opacity="0.19988236324858905" rx="1"/><rect x="43.17888858825408" y="710.9853356264031" width="6.771543481101176" height="6.179825016339269" fill="#0077b6" opacity="0.5193623187996825" rx="1"/><rect x="33.849713168421225" y="714.0752481345727" width="6.771543481101176" height="6.179825016339269" fill="#00b4d8" opacity="0.25968115939984127" rx="1"/><rect x="41.32479021007307" y="759.3184202488787" width="10.479740237463204" height="7.465864274992111" fill="#0077b6" opacity="0.3417380350506255" rx="1"/><rect x="31.99561479024021" y="763.0513523863748" width="10.479740237463204" height="7.465864274992111" fill="#00b4d8" opacity="0.17086901752531275" rx="1"/><rect x="43.26065960625668" y="807.6515048713543" width="6.6080014450959865" height="6.158489923029786" fill="#0077b6" opacity="0.1959083764105822" rx="1"/><rect x="33.931484186423816" y="810.7307498328692" width="6.6080014450959865" height="6.158489923029786" fill="#00b4d8" opacity="0.0979541882052911" rx="1"/><rect x="132.9489567417067" y="734.5225917837868" width="50.68630984068995" height="111.4619977100431" fill="#000044" opacity="0.5096511377509803" rx="2"/><rect x="155.86988914731654" y="744.5225917837868" width="4.844445029470242" height="6.574229351378565" fill="#0077b6" opacity="0.25648278201848335" rx="1"/><rect x="143.19831168714407" y="747.809706459476" width="4.844445029470242" height="6.574229351378565" fill="#00b4d8" opacity="0.12824139100924167" rx="1"/><rect x="154.74521139863535" y="763.0995914021273" width="7.093800526832649" height="6.3180461303140145" fill="#0077b6" opacity="0.5885006900849986" rx="1"/><rect x="142.07363393846288" y="766.2586144672844" width="7.093800526832649" height="6.3180461303140145" fill="#00b4d8" opacity="0.2942503450424993" rx="1"/><rect x="154.5165894044369" y="781.6765910204678" width="7.551044515229539" height="6.419240885511796" fill="#0077b6" opacity="0.4084407668347565" rx="1"/><rect x="141.84501194426443" y="784.8862114632236" width="7.551044515229539" height="6.419240885511796" fill="#00b4d8" opacity="0.20422038341737825" rx="1"/><rect x="153.34484041769636" y="800.2535906388083" width="9.894542488710616" height="9.146774973521655" fill="#0077b6" opacity="0.3981745735272241" rx="1"/><rect x="140.6732629575239" y="804.8269781255691" width="9.894542488710616" height="9.146774973521655" fill="#00b4d8" opacity="0.19908728676361204" rx="1"/><rect x="152.68172667820048" y="818.8305902571489" width="11.220769967702397" height="8.718595364764006" fill="#0077b6" opacity="0.20555228127761566" rx="1"/><rect x="140.010149218028" y="823.1898879395309" width="11.220769967702397" height="8.718595364764006" fill="#00b4d8" opacity="0.10277614063880783" rx="1"/><rect x="154.8170222057535" y="837.4075898754893" width="6.950178912596353" height="9.268188083373985" fill="#0077b6" opacity="0.38384268127471266" rx="1"/><rect x="142.14544474558102" y="842.0416839171763" width="6.950178912596353" height="9.268188083373985" fill="#00b4d8" opacity="0.19192134063735633" rx="1"/><rect x="264.9827896023595" y="493.5471461255911" width="41.388428879759374" height="352.43744336823875" fill="#03045e" opacity="0.4687390958119042" rx="2"/><rect x="282.4484227475358" y="503.5471461255911" width="6.457162589406865" height="6.8784873152334445" fill="#0077b6" opacity="0.4707455653629139" rx="1"/><rect x="272.10131552759594" y="506.9863897832078" width="6.457162589406865" height="6.8784873152334445" fill="#00b4d8" opacity="0.23537278268145695" rx="1"/><rect x="283.12806275024275" y="547.6018265466209" width="5.097882583992994" height="8.913938574240063" fill="#0077b6" opacity="0.28432763898380276" rx="1"/><rect x="272.7809555303029" y="552.058795833741" width="5.097882583992994" height="8.913938574240063" fill="#00b4d8" opacity="0.14216381949190138" rx="1"/><rect x="282.87627613820985" y="591.6565069676508" width="5.60145580805872" height="9.26741503348281" fill="#0077b6" opacity="0.37695704211410064" rx="1"/><rect x="272.52916891827" y="596.2902144843922" width="5.60145580805872" height="9.26741503348281" fill="#00b4d8" opacity="0.18847852105705032" rx="1"/><rect x="283.36518439286516" y="635.7111873886806" width="4.623639298748141" height="6.459467344093013" fill="#0077b6" opacity="0.41823103998746514" rx="1"/><rect x="273.0180771729253" y="638.9409210607271" width="4.623639298748141" height="6.459467344093013" fill="#00b4d8" opacity="0.20911551999373257" rx="1"/><rect x="283.2751720781148" y="679.7658678097105" width="4.803663928248842" height="9.322279916918436" fill="#0077b6" opacity="0.3286440143894041" rx="1"/><rect x="272.92806485817493" y="684.4270077681697" width="4.803663928248842" height="9.322279916918436" fill="#00b4d8" opacity="0.16432200719470205" rx="1"/><rect x="282.89644351971725" y="723.8205482307403" width="5.5611210450439525" height="7.238571248305629" fill="#0077b6" opacity="0.2248420724004605" rx="1"/><rect x="272.5493362997774" y="727.4398338548931" width="5.5611210450439525" height="7.238571248305629" fill="#00b4d8" opacity="0.11242103620023025" rx="1"/><rect x="282.72974868485005" y="767.8752286517702" width="5.894510714778329" height="7.804051335389738" fill="#0077b6" opacity="0.5055912333786468" rx="1"/><rect x="272.3826414649102" y="771.777254319465" width="5.894510714778329" height="7.804051335389738" fill="#00b4d8" opacity="0.2527956166893234" rx="1"/><rect x="282.0747605867393" y="811.9299090728" width="7.204486910999866" height="7.188747007676574" fill="#0077b6" opacity="0.3266488897676228" rx="1"/><rect x="271.7276533667994" y="815.5242825766383" width="7.204486910999866" height="7.188747007676574" fill="#00b4d8" opacity="0.1633244448838114" rx="1"/><rect x="378.61310620294256" y="516.5133030075843" width="30.945521649193374" height="329.4712864862455" fill="#03045e" opacity="0.5829094042030418" rx="2"/><rect x="388.1665471464317" y="526.5133030075843" width="11.838639762215" height="8.000589442905175" fill="#0077b6" opacity="0.34483373650462223" rx="1"/><rect x="380.43016673413337" y="530.513597729037" width="11.838639762215" height="8.000589442905175" fill="#00b4d8" opacity="0.17241686825231112" rx="1"/><rect x="391.29286749528086" y="573.5806296484766" width="5.585999064516741" height="6.155591237394975" fill="#0077b6" opacity="0.2872363592701117" rx="1"/><rect x="383.5564870829825" y="576.658425267174" width="5.585999064516741" height="6.155591237394975" fill="#00b4d8" opacity="0.14361817963505585" rx="1"/><rect x="390.7580341244484" y="620.6479562893687" width="6.655665806181651" height="6.274108549643799" fill="#0077b6" opacity="0.2448566280642656" rx="1"/><rect x="383.02165371215006" y="623.7850105641907" width="6.655665806181651" height="6.274108549643799" fill="#00b4d8" opacity="0.1224283140321328" rx="1"/><rect x="388.2134241767258" y="667.715282930261" width="11.744885701626746" height="7.841378688309662" fill="#0077b6" opacity="0.26877745305392364" rx="1"/><rect x="380.4770437644275" y="671.6359722744158" width="11.744885701626746" height="7.841378688309662" fill="#00b4d8" opacity="0.13438872652696182" rx="1"/><rect x="389.91727285760385" y="714.7826095711532" width="8.3371883398707" height="8.960269312132212" fill="#0077b6" opacity="0.39451266066043467" rx="1"/><rect x="382.1808924453055" y="719.2627442272193" width="8.3371883398707" height="8.960269312132212" fill="#00b4d8" opacity="0.19725633033021733" rx="1"/><rect x="391.14740668845997" y="761.8499362120453" width="5.8769206781585055" height="7.95504695688259" fill="#0077b6" opacity="0.35949160690873205" rx="1"/><rect x="383.41102627616164" y="765.8274596904866" width="5.8769206781585055" height="7.95504695688259" fill="#00b4d8" opacity="0.17974580345436603" rx="1"/><rect x="388.1678009338602" y="808.9172628529376" width="11.836132187358135" height="9.386243717602046" fill="#0077b6" opacity="0.392132324141481" rx="1"/><rect x="380.43142052156185" y="813.6103847117387" width="11.836132187358135" height="9.386243717602046" fill="#00b4d8" opacity="0.1960661620707405" rx="1"/><rect x="499.22081942651903" y="586.7216663986262" width="81.56798989315703" height="259.2629230952037" fill="#000044" opacity="0.532967045678051" rx="2"/><rect x="536.914478915258" y="596.7216663986262" width="6.180670915679231" height="6.7404929922755095" fill="#0077b6" opacity="0.35825498154346247" rx="1"/><rect x="516.5224814419687" y="600.0919128947639" width="6.180670915679231" height="6.7404929922755095" fill="#00b4d8" opacity="0.17912749077173123" rx="1"/><rect x="536.7647878690075" y="633.7592268407982" width="6.480053008180124" height="7.662507055714379" fill="#0077b6" opacity="0.29179762345547733" rx="1"/><rect x="516.3727903957182" y="637.5904803686553" width="6.480053008180124" height="7.662507055714379" fill="#00b4d8" opacity="0.14589881172773866" rx="1"/><rect x="537.0014324407097" y="670.7967872829702" width="6.006763864775832" height="8.115663800881165" fill="#0077b6" opacity="0.5850765758857776" rx="1"/><rect x="516.6094349674204" y="674.8546191834107" width="6.006763864775832" height="8.115663800881165" fill="#00b4d8" opacity="0.2925382879428888" rx="1"/><rect x="536.1495392585987" y="707.8343477251422" width="7.710550228997727" height="6.2780587636581755" fill="#0077b6" opacity="0.32604227723228796" rx="1"/><rect x="515.7575417853094" y="710.9733771069713" width="7.710550228997727" height="6.2780587636581755" fill="#00b4d8" opacity="0.16302113861614398" rx="1"/><rect x="534.8417461998392" y="744.871908167314" width="10.326136346516698" height="6.6999424250563475" fill="#0077b6" opacity="0.32106042788854344" rx="1"/><rect x="514.44974872655" y="748.2218793798422" width="10.326136346516698" height="6.6999424250563475" fill="#00b4d8" opacity="0.16053021394427172" rx="1"/><rect x="534.2888801682948" y="781.909468609486" width="11.431868409605666" height="8.934335130950048" fill="#0077b6" opacity="0.13141814168342814" rx="1"/><rect x="513.8968826950055" y="786.376636174961" width="11.431868409605666" height="8.934335130950048" fill="#00b4d8" opacity="0.06570907084171407" rx="1"/><rect x="537.8803851071001" y="818.947029051658" width="4.248858531994945" height="7.411713277318448" fill="#0077b6" opacity="0.10497007032506403" rx="1"/><rect x="517.4883876338108" y="822.6528856903172" width="4.248858531994945" height="7.411713277318448" fill="#00b4d8" opacity="0.052485035162532015" rx="1"/><rect x="621.2411193552523" y="709.7158694080347" width="73.83723217151994" height="136.2687200857952" fill="#03045e" opacity="0.4690943926035181" rx="2"/><rect x="655.5666237134874" y="719.7158694080347" width="5.186223455049615" height="6.291752114028612" fill="#0077b6" opacity="0.31252703776409085" rx="1"/><rect x="637.1073156706075" y="722.861745465049" width="5.186223455049615" height="6.291752114028612" fill="#00b4d8" opacity="0.15626351888204543" rx="1"/><rect x="655.7946137792418" y="736.7494594187591" width="4.730243323540837" height="6.075682131591179" fill="#0077b6" opacity="0.4656807130588406" rx="1"/><rect x="637.3353057363619" y="739.7873004845546" width="4.730243323540837" height="6.075682131591179" fill="#00b4d8" opacity="0.2328403565294203" rx="1"/><rect x="655.7709235797569" y="753.7830494294835" width="4.77762372251079" height="6.011326709764853" fill="#0077b6" opacity="0.5021640161290215" rx="1"/><rect x="637.311615536877" y="756.788712784366" width="4.77762372251079" height="6.011326709764853" fill="#00b4d8" opacity="0.25108200806451075" rx="1"/><rect x="654.0184420349585" y="770.8166394402078" width="8.282586812107494" height="6.310606732105512" fill="#0077b6" opacity="0.44641315074321186" rx="1"/><rect x="635.5591339920786" y="773.9719428062606" width="8.282586812107494" height="6.310606732105512" fill="#00b4d8" opacity="0.22320657537160593" rx="1"/><rect x="653.2705088621635" y="787.8502294509323" width="9.778453157697445" height="7.952952020324989" fill="#0077b6" opacity="0.3756985324145524" rx="1"/><rect x="634.8112008192836" y="791.8267054610948" width="9.778453157697445" height="7.952952020324989" fill="#00b4d8" opacity="0.1878492662072762" rx="1"/><rect x="655.9214720844574" y="804.8838194616567" width="4.476526713109698" height="9.16361524797129" fill="#0077b6" opacity="0.19362585157938905" rx="1"/><rect x="637.4621640415775" y="809.4656270856424" width="4.476526713109698" height="9.16361524797129" fill="#00b4d8" opacity="0.09681292578969453" rx="1"/><rect x="654.969393332016" y="821.9174094723811" width="6.380684217992398" height="8.27986452781592" fill="#0077b6" opacity="0.519449775344564" rx="1"/><rect x="636.5100852891361" y="826.0573417362891" width="6.380684217992398" height="8.27986452781592" fill="#00b4d8" opacity="0.259724887672282" rx="1"/><rect x="653.7442751789335" y="838.9509994831055" width="8.830920524157332" height="8.589292293086018" fill="#0077b6" opacity="0.32054150624213307" rx="1"/><rect x="635.2849671360536" y="843.2456456296485" width="8.830920524157332" height="8.589292293086018" fill="#00b4d8" opacity="0.16027075312106653" rx="1"/><rect x="745.8425073991162" y="538.6787545608074" width="71.30052380294086" height="307.3058349330224" fill="#000044" opacity="0.6173954996088044" rx="2"/><rect x="778.5869873197719" y="548.6787545608074" width="5.811563961629654" height="7.2474039805232096" fill="#0077b6" opacity="0.2157890125447393" rx="1"/><rect x="760.7618563690366" y="552.302456551069" width="5.811563961629654" height="7.2474039805232096" fill="#00b4d8" opacity="0.10789450627236966" rx="1"/><rect x="775.5371688079408" y="599.8963937163112" width="11.911200985291787" height="9.647193225949815" fill="#0077b6" opacity="0.5495454756425566" rx="1"/><rect x="757.7120378572056" y="604.7199903292861" width="11.911200985291787" height="9.647193225949815" fill="#00b4d8" opacity="0.2747727378212783" rx="1"/><rect x="775.8673475354135" y="651.1140328718149" width="11.25084353034637" height="7.386604634436454" fill="#0077b6" opacity="0.2641365408813899" rx="1"/><rect x="758.0422165846783" y="654.8073351890331" width="11.25084353034637" height="7.386604634436454" fill="#00b4d8" opacity="0.13206827044069494" rx="1"/><rect x="776.5468279187444" y="702.3316720273186" width="9.8918827636847" height="6.807804117167323" fill="#0077b6" opacity="0.22669309045343966" rx="1"/><rect x="758.7216969680092" y="705.7355740859023" width="9.8918827636847" height="6.807804117167323" fill="#00b4d8" opacity="0.11334654522671983" rx="1"/><rect x="777.4051882681449" y="753.5493111828224" width="8.175162064883663" height="7.438737483098809" fill="#0077b6" opacity="0.12870600077526317" rx="1"/><rect x="759.5800573174097" y="757.2686799243718" width="8.175162064883663" height="7.438737483098809" fill="#00b4d8" opacity="0.06435300038763159" rx="1"/><rect x="778.2694177984422" y="804.7669503383261" width="6.446703004289116" height="6.887345716563832" fill="#0077b6" opacity="0.3201569479005777" rx="1"/><rect x="760.444286847707" y="808.210623196608" width="6.446703004289116" height="6.887345716563832" fill="#00b4d8" opacity="0.16007847395028885" rx="1"/><rect x="863.6485427486823" y="544.4855653900852" width="74.36400954247546" height="301.49902410374466" fill="#03045e" opacity="0.5829108519672674" rx="2"/><rect x="896.163030291247" y="554.4855653900852" width="9.3350344573462" height="6.138841150360843" fill="#0077b6" opacity="0.5347294889005668" rx="1"/><rect x="877.572027905628" y="557.5549859652656" width="9.3350344573462" height="6.138841150360843" fill="#00b4d8" opacity="0.2673647444502834" rx="1"/><rect x="896.8181638349356" y="629.8603214160214" width="8.024767369968995" height="9.050363641011147" fill="#0077b6" opacity="0.4819755270103867" rx="1"/><rect x="878.2271614493167" y="634.385503236527" width="8.024767369968995" height="9.050363641011147" fill="#00b4d8" opacity="0.24098776350519335" rx="1"/><rect x="898.3312320418961" y="705.2350774419575" width="4.998630956047827" height="9.646939408883206" fill="#0077b6" opacity="0.36942095516003226" rx="1"/><rect x="879.7402296562772" y="710.0585471463991" width="4.998630956047827" height="9.646939408883206" fill="#00b4d8" opacity="0.18471047758001613" rx="1"/><rect x="896.8484841533584" y="780.6098334678936" width="7.964126733123354" height="9.370472413341158" fill="#0077b6" opacity="0.38835177928869424" rx="1"/><rect x="878.2574817677395" y="785.2950696745642" width="7.964126733123354" height="9.370472413341158" fill="#00b4d8" opacity="0.19417588964434712" rx="1"/><rect x="974.2590831043802" y="733.7483103349218" width="72.2830917458709" height="112.236279158908" fill="#000044" opacity="0.4188639430373125" rx="2"/><rect x="1005.9442251252347" y="743.7483103349218" width="8.912807704162041" height="6.023814843973102" fill="#0077b6" opacity="0.30886655575802235" rx="1"/><rect x="987.8734521887669" y="746.7602177569083" width="8.912807704162041" height="6.023814843973102" fill="#00b4d8" opacity="0.15443327787901118" rx="1"/><rect x="1008.1749678475725" y="766.1955661667034" width="4.451322259486495" height="8.668648967209423" fill="#0077b6" opacity="0.2902659654594646" rx="1"/><rect x="990.1041949111047" y="770.5298906503082" width="4.451322259486495" height="8.668648967209423" fill="#00b4d8" opacity="0.1451329827297323" rx="1"/><rect x="1006.7305897254802" y="788.642821998485" width="7.340078503671121" height="9.659523373390437" fill="#0077b6" opacity="0.35338884693416506" rx="1"/><rect x="988.6598167890124" y="793.4725836851802" width="7.340078503671121" height="9.659523373390437" fill="#00b4d8" opacity="0.17669442346708253" rx="1"/><rect x="1006.7353483256269" y="811.0900778302666" width="7.330561303377747" height="6.277901928005251" fill="#0077b6" opacity="0.27372020815352915" rx="1"/><rect x="988.6645753891592" y="814.2290287942693" width="7.330561303377747" height="6.277901928005251" fill="#00b4d8" opacity="0.13686010407676458" rx="1"/><rect x="1006.6034261001282" y="833.5373336620482" width="7.5944057543749" height="7.765486577005472" fill="#0077b6" opacity="0.32036713052549565" rx="1"/><rect x="988.5326531636605" y="837.420076950551" width="7.5944057543749" height="7.765486577005472" fill="#00b4d8" opacity="0.16018356526274782" rx="1"/><rect x="1083.9148150183994" y="567.8923703073273" width="33.6234237494933" height="278.0922191865026" fill="#03045e" opacity="0.48931896069304065" rx="2"/><rect x="1095.648546419723" y="577.8923703073273" width="10.155960946845813" height="8.822221016237098" fill="#0077b6" opacity="0.13810469096948036" rx="1"/><rect x="1087.2426904823499" y="582.3034808154458" width="10.155960946845813" height="8.822221016237098" fill="#00b4d8" opacity="0.06905234548474018" rx="1"/><rect x="1097.1493523549636" y="670.5897767028281" width="7.154349076364737" height="8.047591365419233" fill="#0077b6" opacity="0.12267231594833367" rx="1"/><rect x="1088.7434964175904" y="674.6135723855377" width="7.154349076364737" height="8.047591365419233" fill="#00b4d8" opacity="0.06133615797416683" rx="1"/><rect x="1096.1567656703194" y="763.287183098329" width="9.139522445653455" height="9.445055146572425" fill="#0077b6" opacity="0.4104001684837044" rx="1"/><rect x="1087.7509097329462" y="768.0097106716153" width="9.139522445653455" height="9.445055146572425" fill="#00b4d8" opacity="0.2052000842418522" rx="1"/><rect x="1217.4813778646014" y="644.4105105461576" width="34.23019370162631" height="201.57407894767218" fill="#000044" opacity="0.4432802884008923" rx="2"/><rect x="1229.596354611357" y="654.4105105461576" width="10.000240208115486" height="9.865343104085266" fill="#0077b6" opacity="0.1806778794109537" rx="1"/><rect x="1221.0388061859503" y="659.3431820982003" width="10.000240208115486" height="9.865343104085266" fill="#00b4d8" opacity="0.09033893970547685" rx="1"/><rect x="1228.6761121022694" y="683.2068075386823" width="11.840725226290694" height="6.452602570050536" fill="#0077b6" opacity="0.37191680152246653" rx="1"/><rect x="1220.1185636768628" y="686.4331088237075" width="11.840725226290694" height="6.452602570050536" fill="#00b4d8" opacity="0.18595840076123327" rx="1"/><rect x="1232.5790556584436" y="712.0031045312069" width="4.034838113941913" height="6.88472690826392" fill="#0077b6" opacity="0.3223472884442534" rx="1"/><rect x="1224.021507233037" y="715.4454679853388" width="4.034838113941913" height="6.88472690826392" fill="#00b4d8" opacity="0.1611736442221267" rx="1"/><rect x="1232.3084492514163" y="740.7994015237314" width="4.576050927996647" height="8.482989215870152" fill="#0077b6" opacity="0.5875849733333068" rx="1"/><rect x="1223.7509008260097" y="745.0408961316665" width="4.576050927996647" height="8.482989215870152" fill="#00b4d8" opacity="0.2937924866666534" rx="1"/><rect x="1231.076802416257" y="769.595698516256" width="7.039344598315504" height="9.113892593214729" fill="#0077b6" opacity="0.43549623222451106" rx="1"/><rect x="1222.5192539908503" y="774.1526448128634" width="7.039344598315504" height="9.113892593214729" fill="#00b4d8" opacity="0.21774811611225553" rx="1"/><rect x="1232.3835221937354" y="798.3919955087806" width="4.425905043358426" height="7.08559689975474" fill="#0077b6" opacity="0.3841146917278214" rx="1"/><rect x="1223.8259737683288" y="801.934793958658" width="4.425905043358426" height="7.08559689975474" fill="#00b4d8" opacity="0.1920573458639107" rx="1"/><rect x="1231.9670767120474" y="827.1882925013052" width="5.258796006734203" height="9.830629849766993" fill="#0077b6" opacity="0.1654274942505703" rx="1"/><rect x="1223.4095282866408" y="832.1036074261888" width="5.258796006734203" height="9.830629849766993" fill="#00b4d8" opacity="0.08271374712528515" rx="1"/><rect x="1338.489425836245" y="568.8105951572793" width="76.24850271880825" height="277.17399433655055" fill="#000044" opacity="0.5101843734062707" rx="2"/><rect x="1371.0624074717198" y="578.8105951572793" width="11.10253944785859" height="6.649490024114375" fill="#0077b6" opacity="0.15781384826586906" rx="1"/><rect x="1352.0002817920176" y="582.1353401693365" width="11.10253944785859" height="6.649490024114375" fill="#00b4d8" opacity="0.07890692413293453" rx="1"/><rect x="1373.4192510807" y="618.4068800625008" width="6.388852229898063" height="8.341690435619487" fill="#0077b6" opacity="0.14317474831900903" rx="1"/><rect x="1354.357125400998" y="622.5777252803106" width="6.388852229898063" height="8.341690435619487" fill="#00b4d8" opacity="0.07158737415950452" rx="1"/><rect x="1374.2483108307347" y="658.0031649677223" width="4.730732729828621" height="8.270335125334173" fill="#0077b6" opacity="0.4511081873092586" rx="1"/><rect x="1355.1861851510328" y="662.1383325303894" width="4.730732729828621" height="8.270335125334173" fill="#00b4d8" opacity="0.2255540936546293" rx="1"/><rect x="1372.8516221632835" y="697.5994498729439" width="7.524110064731005" height="8.254111473973401" fill="#0077b6" opacity="0.4927753765352013" rx="1"/><rect x="1353.7894964835816" y="701.7265056099305" width="7.524110064731005" height="8.254111473973401" fill="#00b4d8" opacity="0.24638768826760066" rx="1"/><rect x="1371.2924718470993" y="737.1957347781654" width="10.642410697099383" height="6.367600213821884" fill="#0077b6" opacity="0.14812259612328432" rx="1"/><rect x="1352.2303461673973" y="740.3795348850763" width="10.642410697099383" height="6.367600213821884" fill="#00b4d8" opacity="0.07406129806164216" rx="1"/><rect x="1373.4891270148773" y="776.7920196833868" width="6.249100361543032" height="8.197660873224415" fill="#0077b6" opacity="0.29440463178195164" rx="1"/><rect x="1354.4270013351754" y="780.890850119999" width="6.249100361543032" height="8.197660873224415" fill="#00b4d8" opacity="0.14720231589097582" rx="1"/><rect x="1371.0987933320223" y="816.3883045886083" width="11.02976772725344" height="8.961833586674611" fill="#0077b6" opacity="0.3856947050396573" rx="1"/><rect x="1352.0366676523204" y="820.8692213819456" width="11.02976772725344" height="8.961833586674611" fill="#00b4d8" opacity="0.19284735251982865" rx="1"/><rect x="1452.8664860718106" y="732.3423169046506" width="54.879723583552924" height="113.64227258917929" fill="#03045e" opacity="0.41266164782286197" rx="2"/><rect x="1476.5166217865226" y="742.3423169046506" width="7.579452154128685" height="9.439825011286844" fill="#0077b6" opacity="0.40883311592248106" rx="1"/><rect x="1462.7966908906344" y="747.062229410294" width="7.579452154128685" height="9.439825011286844" fill="#00b4d8" opacity="0.20441655796124053" rx="1"/><rect x="1476.8473799856954" y="761.2826956695138" width="6.917935755783212" height="6.871975799294183" fill="#0077b6" opacity="0.5447296555025339" rx="1"/><rect x="1463.1274490898072" y="764.7186835691609" width="6.917935755783212" height="6.871975799294183" fill="#00b4d8" opacity="0.27236482775126697" rx="1"/><rect x="1477.7467417024882" y="780.223074434377" width="5.119212322197671" height="8.522654890670129" fill="#0077b6" opacity="0.2599295765999541" rx="1"/><rect x="1464.0268108066" y="784.4844018797121" width="5.119212322197671" height="8.522654890670129" fill="#00b4d8" opacity="0.12996478829997704" rx="1"/><rect x="1474.3165052270786" y="799.1634531992403" width="11.979685273016731" height="6.269099004629324" fill="#0077b6" opacity="0.4455001037440961" rx="1"/><rect x="1460.5965743311904" y="802.298002701555" width="11.979685273016731" height="6.269099004629324" fill="#00b4d8" opacity="0.22275005187204805" rx="1"/><rect x="1476.0100032456708" y="818.1038319641035" width="8.592689235832703" height="7.190264608988135" fill="#0077b6" opacity="0.5878078612936213" rx="1"/><rect x="1462.2900723497826" y="821.6989642685976" width="8.592689235832703" height="7.190264608988135" fill="#00b4d8" opacity="0.29390393064681064" rx="1"/><rect x="1475.3218050115559" y="837.0442107289666" width="9.969085704062387" height="6.772483790473194" fill="#0077b6" opacity="0.4967580066287792" rx="1"/><rect x="1461.6018741156677" y="840.4304526242032" width="9.969085704062387" height="6.772483790473194" fill="#00b4d8" opacity="0.2483790033143896" rx="1"/><rect x="1569.509876607803" y="641.1235115237355" width="79.2194655186542" height="204.8610779700943" fill="#03045e" opacity="0.5368589850228418" rx="2"/><rect x="1606.9025582121458" y="651.1235115237355" width="4.434102309968812" height="9.14253740551475" fill="#0077b6" opacity="0.20002943130676387" rx="1"/><rect x="1587.0976918324823" y="655.6947802264929" width="4.434102309968812" height="9.14253740551475" fill="#00b4d8" opacity="0.10001471565338194" rx="1"/><rect x="1606.610061579293" y="685.2670245187512" width="5.019095575674227" height="9.638596244072215" fill="#0077b6" opacity="0.413122388863266" rx="1"/><rect x="1586.8051951996295" y="690.0863226407873" width="5.019095575674227" height="9.638596244072215" fill="#00b4d8" opacity="0.206561194431633" rx="1"/><rect x="1606.259526246986" y="719.4105375137669" width="5.720166240287983" height="6.83075752594293" fill="#0077b6" opacity="0.554594804778368" rx="1"/><rect x="1586.4546598673226" y="722.8259162767384" width="5.720166240287983" height="6.83075752594293" fill="#00b4d8" opacity="0.277297402389184" rx="1"/><rect x="1604.9135079341738" y="753.5540505087827" width="8.412202865912626" height="6.8210490310613645" fill="#0077b6" opacity="0.2235931061961672" rx="1"/><rect x="1585.1086415545103" y="756.9645750243134" width="8.412202865912626" height="6.8210490310613645" fill="#00b4d8" opacity="0.1117965530980836" rx="1"/><rect x="1604.5255270678376" y="787.6975635037984" width="9.188164598585145" height="6.504699477112084" fill="#0077b6" opacity="0.21746775571197918" rx="1"/><rect x="1584.7206606881741" y="790.9499132423545" width="9.188164598585145" height="6.504699477112084" fill="#00b4d8" opacity="0.10873387785598959" rx="1"/><rect x="1604.6414586728533" y="821.8410764988141" width="8.956301388553413" height="9.606153251511547" fill="#0077b6" opacity="0.2946727269549558" rx="1"/><rect x="1584.8365922931898" y="826.6441531245699" width="8.956301388553413" height="9.606153251511547" fill="#00b4d8" opacity="0.1473363634774779" rx="1"/><rect x="1690.9780851474447" y="522.5847497984265" width="86.48767872631728" height="323.39983969540333" fill="#03045e" opacity="0.6036680726808654" rx="2"/><rect x="1728.3862201570037" y="532.5847497984265" width="11.67140870719948" height="9.484365760228682" fill="#0077b6" opacity="0.15194670184327913" rx="1"/><rect x="1706.7643004754243" y="537.3269326785409" width="11.67140870719948" height="9.484365760228682" fill="#00b4d8" opacity="0.07597335092163957" rx="1"/><rect x="1728.3335045714243" y="586.4847230809937" width="11.776839878358142" height="7.440723808817734" fill="#0077b6" opacity="0.36489688543716836" rx="1"/><rect x="1706.711584889845" y="590.2050849854026" width="11.776839878358142" height="7.440723808817734" fill="#00b4d8" opacity="0.18244844271858418" rx="1"/><rect x="1729.673297356971" y="640.3846963635609" width="9.097254307264755" height="8.814537182174282" fill="#0077b6" opacity="0.2602895515179936" rx="1"/><rect x="1708.0513776753917" y="644.791964954648" width="9.097254307264755" height="8.814537182174282" fill="#00b4d8" opacity="0.1301447757589968" rx="1"/><rect x="1729.0203679567253" y="694.2846696461281" width="10.403113107756505" height="6.247955548634742" fill="#0077b6" opacity="0.5131378422987503" rx="1"/><rect x="1707.398448275146" y="697.4086474204455" width="10.403113107756505" height="6.247955548634742" fill="#00b4d8" opacity="0.25656892114937513" rx="1"/><rect x="1730.5817179059568" y="748.1846429286954" width="7.280413209293133" height="9.613404440603546" fill="#0077b6" opacity="0.5411954665419635" rx="1"/><rect x="1708.9597982243774" y="752.9913451489972" width="7.280413209293133" height="9.613404440603546" fill="#00b4d8" opacity="0.27059773327098174" rx="1"/><rect x="1730.0279221742014" y="802.0846162112626" width="8.388004672803916" height="6.4887292125468905" fill="#0077b6" opacity="0.13427314689249573" rx="1"/><rect x="1708.406002492622" y="805.328980817536" width="8.388004672803916" height="6.4887292125468905" fill="#00b4d8" opacity="0.06713657344624786" rx="1"/><rect x="1813.8557489760815" y="680.4981368199219" width="60.52912802680608" height="165.48645267390796" fill="#03045e" opacity="0.5714120977957295" rx="2"/><rect x="1840.9590534199865" y="690.4981368199219" width="6.322519138996144" height="9.01484513818632" fill="#0077b6" opacity="0.4963027506592457" rx="1"/><rect x="1825.8267714132849" y="695.005559389015" width="6.322519138996144" height="9.01484513818632" fill="#00b4d8" opacity="0.24815137532962284" rx="1"/><rect x="1838.304790954875" y="718.0792122655732" width="11.631044069219158" height="7.628521095409179" fill="#0077b6" opacity="0.10863599777422753" rx="1"/><rect x="1823.1725089481733" y="721.8934728132779" width="11.631044069219158" height="7.628521095409179" fill="#00b4d8" opacity="0.054317998887113764" rx="1"/><rect x="1839.8643762713448" y="745.6602877112246" width="8.511873436279565" height="9.642762799664112" fill="#0077b6" opacity="0.5003019933356675" rx="1"/><rect x="1824.7320942646431" y="750.4816691110566" width="8.511873436279565" height="9.642762799664112" fill="#00b4d8" opacity="0.25015099666783375" rx="1"/><rect x="1838.8110080211914" y="773.2413631568759" width="10.618609936586257" height="7.236959394355528" fill="#0077b6" opacity="0.11415590697763393" rx="1"/><rect x="1823.6787260144897" y="776.8598428540537" width="10.618609936586257" height="7.236959394355528" fill="#00b4d8" opacity="0.05707795348881697" rx="1"/><rect x="1838.888891573038" y="800.8224386025272" width="10.462842832892864" height="7.258869906249193" fill="#0077b6" opacity="0.5051856701041538" rx="1"/><rect x="1823.7566095663365" y="804.4518735556518" width="10.462842832892864" height="7.258869906249193" fill="#00b4d8" opacity="0.2525928350520769" rx="1"/><rect x="1839.3727725055937" y="828.4035140481785" width="9.495080967781853" height="7.659873473844462" fill="#0077b6" opacity="0.4736171091146807" rx="1"/><rect x="1824.240490498892" y="832.2334507851008" width="9.495080967781853" height="7.659873473844462" fill="#00b4d8" opacity="0.23680855455734034" rx="1"/><rect x="0" y="1000" width="1920" height="80" fill="#000038" opacity="0.8"/><line x1="0" y1="1040" x2="1920" y2="1040" stroke="#0077b6" stroke-opacity="0.15" stroke-width="2" stroke-dasharray="30,20"/><rect x="0" y="930" width="1920" height="150" fill="url(#glow87)"/><rect x="0" y="980" width="1920" height="100" fill="#0077b6" opacity="0.04"/><rect x="352.7201428340562" y="1037.5367484934482" width="83.0020395067991" height="2" fill="#00b4d8" opacity="0.05806257867209208" rx="1"/><rect x="814.8643154313006" y="1050.003301806283" width="73.5444878864904" height="2" fill="#00b4d8" opacity="0.04108204924992334" rx="1"/><rect x="153.860790467323" y="1022.6147686277085" width="112.10028080085765" height="2" fill="#00b4d8" opacity="0.04934668929999385" rx="1"/><rect x="1616.9449754843827" y="1011.547889572463" width="75.51200722239724" height="2" fill="#00b4d8" opacity="0.028645877467618763" rx="1"/><rect x="1447.7265361341942" y="1044.0106513313974" width="89.32279345796508" height="2" fill="#00b4d8" opacity="0.04173688491381167" rx="1"/><rect x="1231.8777602798953" y="1051.0705737562548" width="89.14507135961789" height="2" fill="#00b4d8" opacity="0.034692326415025704" rx="1"/><rect x="557.753345798178" y="1056.1319816988268" width="92.58206614586106" height="2" fill="#00b4d8" opacity="0.04284505220661989" rx="1"/><rect x="765.7639107400934" y="1014.10345396821" width="108.07493566723423" height="2" fill="#00b4d8" opacity="0.046390421731954075" rx="1"/><rect x="1500.6933044410994" y="1020.3273347067477" width="102.03607098712494" height="2" fill="#00b4d8" opacity="0.02727555615065516" rx="1"/><rect x="678.9342857987933" y="1028.3201691294835" width="25.361746718492768" height="2" fill="#00b4d8" opacity="0.03616744484197522" rx="1"/><rect x="4.390481562444587" y="1026.5666048989087" width="77.79078599479766" height="2" fill="#00b4d8" opacity="0.055531651935431095" rx="1"/><rect x="1416.5744218548234" y="1017.3696748254284" width="84.10098605884727" height="2" fill="#00b4d8" opacity="0.04856398078346717" rx="1"/><rect x="1776.1691960357523" y="1055.8431115038327" width="44.80334679707963" height="2" fill="#00b4d8" opacity="0.05935526253640541" rx="1"/><rect x="1095.7677995729653" y="1050.8665198299257" width="97.50628557463789" height="2" fill="#00b4d8" opacity="0.041837457973006524" rx="1"/><rect x="812.3254874749866" y="1020.0714144716205" width="35.111134018542046" height="2" fill="#00b4d8" opacity="0.039396705324621105" rx="1"/><rect x="291.182294704761" y="1041.81538416115" width="83.64064911930836" height="2" fill="#00b4d8" opacity="0.04416587074849891" rx="1"/><rect x="1581.5476123200608" y="1005.6528762275476" width="59.852765933576215" height="2" fill="#00b4d8" opacity="0.03475718917668732" rx="1"/><rect x="1415.3309363441847" y="1031.1693660521807" width="44.881717265788865" height="2" fill="#00b4d8" opacity="0.04097005229931559" rx="1"/><rect x="1398.5674308516475" y="1046.3559007286922" width="26.030433160725615" height="2" fill="#00b4d8" opacity="0.04946270312868588" rx="1"/><rect x="906.1865376555795" y="1029.8277096659476" width="24.952044623194272" height="2" fill="#00b4d8" opacity="0.05643124032682535" rx="1"/><rect x="1620.2245772677065" y="1041.008590972286" width="66.20356965954498" height="2" fill="#00b4d8" opacity="0.057930739949906884" rx="1"/><rect x="19.897068594558412" y="1007.8083494603187" width="81.92103318449134" height="2" fill="#00b4d8" opacity="0.04252811458486321" rx="1"/><rect x="1371.987224987705" y="1051.2957337199002" width="72.09599534331261" height="2" fill="#00b4d8" opacity="0.04099712434713662" rx="1"/><rect x="1038.8935654794084" y="1040.3211532347652" width="58.717183270192976" height="2" fill="#00b4d8" opacity="0.049163221854056055" rx="1"/><rect x="1618.6768756105278" y="1041.3713703307722" width="104.61306038885681" height="2" fill="#00b4d8" opacity="0.02140403732690123" rx="1"/><rect x="1910.3975978471335" y="1039.4882716237307" width="109.24796269024907" height="2" fill="#00b4d8" opacity="0.02671176747575211" rx="1"/><rect x="384.3939758242094" y="1029.8626226815074" width="73.34174226814456" height="2" fill="#00b4d8" opacity="0.023117143177221796" rx="1"/><rect x="86.82528020972975" y="1000.2242342802286" width="50.932330696594974" height="2" fill="#00b4d8" opacity="0.05324717420927416" rx="1"/><rect x="1079.4851341376745" y="1013.4865755665783" width="36.790049154495364" height="2" fill="#00b4d8" opacity="0.03649990180891471" rx="1"/><rect x="266.62888175496573" y="1032.0385626917796" width="48.19704961222528" height="2" fill="#00b4d8" opacity="0.05198207231983125" rx="1"/><text x="1900" y="1060" font-family="Arial, sans-serif" font-size="11" fill="#fff" opacity="0.08" text-anchor="end" letter-spacing="2">GTA 6 REWARDS · WALLPAPER 088</text>
</svg>