<?xml version="1.0" encoding="UTF-8"?>
<svg xmlns="http://www.w3.org/2000/svg" width="1920" height="1080" viewBox="0 0 1920 1080">
<defs>
    <linearGradient id="bg35" x1="0%" y1="0%" x2="0%" y2="100%">
      <stop offset="0%" stop-color="#2d1b1b"/>
      <stop offset="50%" stop-color="#000000"/>
      <stop offset="100%" stop-color="#2d1b1b"/>
    </linearGradient>
    <linearGradient id="sun35" x1="0%" y1="0%" x2="100%" y2="100%">
      <stop offset="0%" stop-color="#ff6b6b"/>
      <stop offset="100%" stop-color="#c0392b"/>
    </linearGradient>
    <radialGradient id="glow35" cx="50%" cy="70%" r="50%">
      <stop offset="0%" stop-color="#ff6b6b" stop-opacity="0.3"/>
      <stop offset="100%" stop-color="#2d1b1b" stop-opacity="0"/>
    </radialGradient>
  </defs><rect width="1920" height="1080" fill="url(#bg35)"/><circle cx="906.5402036082327" cy="488.79186527076916" r="864.443500983632" fill="#ff6b6b" opacity="0.08936472661778441"/><circle cx="1106.5402036082328" cy="388.79186527076916" r="456.85990817306094" fill="#c0392b" opacity="0.08055466004427399"/><line x1="0" y1="980" x2="1920" y2="980" stroke="#c0392b" stroke-opacity="0.05" stroke-width="2"/><line x1="0" y1="935" x2="1920" y2="935" stroke="#c0392b" stroke-opacity="0.049" stroke-width="0.5"/><line x1="0" y1="890" x2="1920" y2="890" stroke="#c0392b" stroke-opacity="0.048" stroke-width="0.5"/><line x1="0" y1="845" x2="1920" y2="845" stroke="#c0392b" stroke-opacity="0.047" stroke-width="0.5"/><line x1="0" y1="800" x2="1920" y2="800" stroke="#c0392b" stroke-opacity="0.046" stroke-width="0.5"/><line x1="0" y1="755" x2="1920" y2="755" stroke="#c0392b" stroke-opacity="0.045" stroke-width="0.5"/><line x1="0" y1="710" x2="1920" y2="710" stroke="#c0392b" stroke-opacity="0.044" stroke-width="0.5"/><line x1="0" y1="665" x2="1920" y2="665" stroke="#c0392b" stroke-opacity="0.043" stroke-width="0.5"/><line x1="0" y1="620" x2="1920" y2="620" stroke="#c0392b" stroke-opacity="0.041999999999999996" stroke-width="0.5"/><line x1="0" y1="575" x2="1920" y2="575" stroke="#c0392b" stroke-opacity="0.041" stroke-width="0.5"/><line x1="0" y1="530" x2="1920" y2="530" stroke="#c0392b" stroke-opacity="0.04" stroke-width="0.5"/><line x1="0" y1="485" x2="1920" y2="485" stroke="#c0392b" stroke-opacity="0.039" stroke-width="0.5"/><line x1="0" y1="440" x2="1920" y2="440" stroke="#c0392b" stroke-opacity="0.038" stroke-width="0.5"/><line x1="0" y1="395" x2="1920" y2="395" stroke="#c0392b" stroke-opacity="0.037" stroke-width="0.5"/><line x1="0" y1="350" x2="1920" y2="350" stroke="#c0392b" stroke-opacity="0.036" stroke-width="0.5"/><line x1="0" y1="305" x2="1920" y2="305" stroke="#c0392b" stroke-opacity="0.034999999999999996" stroke-width="0.5"/><line x1="0" y1="260" x2="1920" y2="260" stroke="#c0392b" stroke-opacity="0.033999999999999996" stroke-width="0.5"/><line x1="0" y1="215" x2="1920" y2="215" stroke="#c0392b" stroke-opacity="0.033" stroke-width="0.5"/><line x1="0" y1="170" x2="1920" y2="170" stroke="#c0392b" stroke-opacity="0.032" stroke-width="0.5"/><line x1="0" y1="125" x2="1920" y2="125" stroke="#c0392b" stroke-opacity="0.031" stroke-width="0.5"/><line x1="560" y1="1080" x2="860" y2="580" stroke="#ff6b6b" stroke-opacity="0.04" stroke-width="1"/><line x1="640" y1="1080" x2="880" y2="590" stroke="#ff6b6b" stroke-opacity="0.04" stroke-width="1"/><line x1="720" y1="1080" x2="900" y2="600" stroke="#ff6b6b" stroke-opacity="0.04" stroke-width="1"/><line x1="800" y1="1080" x2="920" y2="610" stroke="#ff6b6b" stroke-opacity="0.04" stroke-width="1"/><line x1="880" y1="1080" x2="940" y2="620" stroke="#ff6b6b" stroke-opacity="0.04" stroke-width="1"/><line x1="960" y1="1080" x2="960" y2="630" stroke="#ff6b6b" stroke-opacity="0.04" stroke-width="1"/><line x1="1040" y1="1080" x2="980" y2="620" stroke="#ff6b6b" stroke-opacity="0.04" stroke-width="1"/><line x1="1120" y1="1080" x2="1000" y2="610" stroke="#ff6b6b" stroke-opacity="0.04" stroke-width="1"/><line x1="1200" y1="1080" x2="1020" y2="600" stroke="#ff6b6b" stroke-opacity="0.04" stroke-width="1"/><line x1="1280" y1="1080" x2="1040" y2="590" stroke="#ff6b6b" stroke-opacity="0.04" stroke-width="1"/><line x1="1360" y1="1080" x2="1060" y2="580" stroke="#ff6b6b" stroke-opacity="0.04" stroke-width="1"/><circle cx="1335.8721728054509" cy="213.34791177961694" r="89.79701139726606" fill="url(#sun35)" opacity="0.7867906552243025"/><circle cx="1335.8721728054509" cy="213.34791177961694" r="84.79701139726606" fill="#2d1b1b" opacity="0.3"/><pattern id="scan35" width="1920" height="4" patternUnits="userSpaceOnUse">
      <line x1="0" y1="0" x2="1920" y2="0" stroke="#000" stroke-opacity="0.05" stroke-width="1"/>
    </pattern>
    <rect width="1920" height="1080" fill="url(#scan35)"/><circle cx="88.84659873527629" cy="220.11576368569297" r="0.8298492703656315" fill="#fff" opacity="0.6581079047308555"/><circle cx="436.38068999079536" cy="342.54218948784796" r="1.3985314283982224" fill="#fff" opacity="0.20861867866679532"/><circle cx="558.0932782399685" cy="417.833569895903" r="1.2021970875100692" fill="#fff" opacity="0.7337732708393068"/><circle cx="355.5768948131187" cy="290.8020868941215" r="0.8446798413863126" fill="#fff" opacity="0.7978199378116568"/><circle cx="438.5767030246967" cy="60.15231969117939" r="0.7631200084609725" fill="#fff" opacity="0.7716023456239147"/><circle cx="80.99166827299439" cy="49.27872095286816" r="1.2795443047721742" fill="#fff" opacity="0.5402666957444201"/><circle cx="1021.584795951281" cy="322.7067339054092" r="0.7519514385498947" fill="#fff" opacity="0.3947022157243225"/><circle cx="1788.510097830675" cy="68.51732360676799" r="1.3507725944162283" fill="#fff" opacity="0.2675450260908215"/><circle cx="1058.4377622088505" cy="246.51282067376022" r="0.8077827699733392" fill="#fff" opacity="0.7696161909423807"/><circle cx="63.211290404016914" cy="61.01496669208048" r="1.8355127253652346" fill="#fff" opacity="0.30661274681487416"/><circle cx="410.45204812904166" cy="89.17731454809599" r="1.2947100258420012" fill="#fff" opacity="0.621701275795163"/><circle cx="390.2821179642999" cy="69.25180715072244" r="0.5419708116776242" fill="#fff" opacity="0.577387657430346"/><circle cx="1905.95051139266" cy="23.454614085949636" r="1.9414921135039749" fill="#fff" opacity="0.7185938114110832"/><circle cx="1245.3817206540568" cy="368.22199880709456" r="0.7951286935236139" fill="#fff" opacity="0.5738056533443289"/><circle cx="45.29985756736711" cy="321.1087055581409" r="0.5023669474763719" fill="#fff" opacity="0.7887199217892997"/><circle cx="1630.0972696463805" cy="127.67979340620334" r="1.2298352013411549" fill="#fff" opacity="0.3756460738311629"/><circle cx="1390.0642140465939" cy="253.12487091057113" r="1.3416578439859808" fill="#fff" opacity="0.7401185509143673"/><circle cx="1765.3832932946698" cy="153.5861729107765" r="0.5869827276531101" fill="#fff" opacity="0.5593916627018227"/><circle cx="891.8173131933011" cy="209.8217781786392" r="0.7082651921567193" fill="#fff" opacity="0.6425155491201476"/><circle cx="791.3774645680975" cy="382.1370633463694" r="1.8378942863405436" fill="#fff" opacity="0.7768344085143959"/><circle cx="818.3356482205763" cy="423.9114100951495" r="0.8272920379711529" fill="#fff" opacity="0.5354342632776672"/><circle cx="564.8706312302664" cy="322.71181756321147" r="0.6140657670595836" fill="#fff" opacity="0.45486165607694107"/><circle cx="1199.8793053440468" cy="258.4145580722053" r="1.463793051886324" fill="#fff" opacity="0.3690108447263508"/><circle cx="1825.9588086386116" cy="412.86006709860175" r="1.9564594726442497" fill="#fff" opacity="0.38629337087885784"/><circle cx="1864.2746154834224" cy="228.38005259735044" r="1.904863934243299" fill="#fff" opacity="0.6208725494846871"/><circle cx="222.86045020047118" cy="30.035642966170712" r="1.091803703944153" fill="#fff" opacity="0.29341912215888016"/><circle cx="108.73503776936211" cy="149.15324161321698" r="1.5538515513888214" fill="#fff" opacity="0.24160102564878788"/><circle cx="1522.073143776989" cy="190.00298343924874" r="0.794330508982374" fill="#fff" opacity="0.31543261239198794"/><circle cx="618.9622169684066" cy="243.47900107956465" r="1.390385663344149" fill="#fff" opacity="0.6203863872262618"/><circle cx="755.1703979343107" cy="350.74115487531316" r="1.5210206313107677" fill="#fff" opacity="0.40809292630480903"/><circle cx="929.7219373960332" cy="229.42165014646523" r="1.9074618136294794" fill="#fff" opacity="0.34512731766913257"/><circle cx="759.7473864536144" cy="96.0553827546666" r="1.8328728274984454" fill="#fff" opacity="0.7078104312317004"/><circle cx="220.98398794908636" cy="97.21954873977684" r="1.5552033805416905" fill="#fff" opacity="0.5021282697799914"/><circle cx="880.9258494342039" cy="325.73385971173036" r="1.3662535840101198" fill="#fff" opacity="0.5254726444663183"/><circle cx="623.0280511041703" cy="251.95055078620805" r="0.7108516365314954" fill="#fff" opacity="0.35627817277709917"/><circle cx="1311.2359055949457" cy="252.64575874354827" r="1.291158035814566" fill="#fff" opacity="0.782156146732661"/><circle cx="766.9283993837723" cy="27.549960310466112" r="0.6719203083012067" fill="#fff" opacity="0.5815146577501471"/><circle cx="888.494809476774" cy="163.55881958537708" r="1.7907678030409775" fill="#fff" opacity="0.29846518391241905"/><circle cx="243.5688713760043" cy="408.74508016387585" r="1.653918538511246" fill="#fff" opacity="0.5786188536739487"/><circle cx="1265.541299727173" cy="372.0817617187467" r="0.726188336202453" fill="#fff" opacity="0.3788468421387595"/><circle cx="1344.4392396659682" cy="46.27787231241303" r="1.164747574987064" fill="#fff" opacity="0.5280065093021855"/><circle cx="29.74756748176822" cy="342.41545702293877" r="1.0002657234436518" fill="#fff" opacity="0.5160445078080624"/><circle cx="1735.485366092875" cy="232.58847807175212" r="0.9159176326161058" fill="#fff" opacity="0.2026569976477551"/><circle cx="1557.3127045383007" cy="329.73807617503644" r="0.6983562288103523" fill="#fff" opacity="0.6142405513241516"/><circle cx="279.4976847524516" cy="364.18589637712245" r="1.3940628590979758" fill="#fff" opacity="0.585603598641605"/><circle cx="46.63364813817517" cy="137.22149924776087" r="1.437723087015963" fill="#fff" opacity="0.4970540392438541"/><circle cx="216.81800146978767" cy="60.66381550875115" r="1.2734175149289466" fill="#fff" opacity="0.326501601451659"/><circle cx="1494.6003206573894" cy="418.40990744587265" r="1.290759066653149" fill="#fff" opacity="0.4587105730685197"/><circle cx="657.7214957814947" cy="56.0562283489984" r="1.183991137702016" fill="#fff" opacity="0.577739116218346"/><circle cx="1795.150172234315" cy="279.27485460584865" r="1.9582203149232595" fill="#fff" opacity="0.4031569605700571"/><circle cx="522.7164630318798" cy="393.04021281959496" r="0.5889315770680391" fill="#fff" opacity="0.3924675995000796"/><circle cx="162.25641001068436" cy="141.4295438149547" r="1.2192624153614189" fill="#fff" opacity="0.677643711091402"/><circle cx="1194.0292921462164" cy="246.26060719561312" r="1.8743054490476627" fill="#fff" opacity="0.20857540220221865"/><circle cx="1644.9514272168633" cy="179.54599449121068" r="0.869688259174509" fill="#fff" opacity="0.7596613507158265"/><circle cx="590.7502119128477" cy="8.53079330002209" r="1.7860852940441307" fill="#fff" opacity="0.33422373093995816"/><circle cx="1119.553965292767" cy="3.5546355181268035" r="0.8509147305392928" fill="#fff" opacity="0.5111068371942049"/><circle cx="330.4192284518898" cy="24.275106115330733" r="1.5443367424989904" fill="#fff" opacity="0.2959282098095697"/><circle cx="1043.776135389641" cy="182.95984501553696" r="0.6712842346567857" fill="#fff" opacity="0.6591118442497942"/><circle cx="539.8724807565734" cy="146.02689325111615" r="0.5259753279448429" fill="#fff" opacity="0.3487143683593521"/><circle cx="611.4126850598055" cy="359.8414427730817" r="1.379948508432123" fill="#fff" opacity="0.20477200816496555"/><circle cx="863.3933282418627" cy="7.473730133723871" r="1.7924119164916714" fill="#fff" opacity="0.43081578245172647"/><circle cx="1763.2442445688052" cy="60.719011045228456" r="1.1855506134884317" fill="#fff" opacity="0.47729231069732747"/><circle cx="683.0034186046113" cy="231.03719972237877" r="1.604033986130737" fill="#fff" opacity="0.7302724635066167"/><circle cx="1102.3144548717687" cy="62.914300787941166" r="1.8702302050940298" fill="#fff" opacity="0.7236195235800975"/><rect x="1.7994405868927577" y="737.9211704567822" width="34.10657859502979" height="194.6175999228418" fill="#130101" opacity="0.4831744039392039" rx="2"/><rect x="14.265508339569323" y="747.9211704567822" width="9.174443089676657" height="9.882559052641168" fill="#c0392b" opacity="0.5120499618379516" rx="1"/><rect x="5.7388636908118755" y="752.8624499831028" width="9.174443089676657" height="9.882559052641168" fill="#ff6b6b" opacity="0.2560249809189758" rx="1"/><rect x="14.342940828609963" y="786.8446904413505" width="9.019578111595376" height="7.449273626657499" fill="#c0392b" opacity="0.24967636755892922" rx="1"/><rect x="5.816296179852516" y="790.5693272546793" width="9.019578111595376" height="7.449273626657499" fill="#ff6b6b" opacity="0.12483818377946461" rx="1"/><rect x="14.067336885972724" y="825.7682104259189" width="9.570785996869855" height="9.143682875471116" fill="#c0392b" opacity="0.595372588279511" rx="1"/><rect x="5.540692237215277" y="830.3400518636545" width="9.570785996869855" height="9.143682875471116" fill="#ff6b6b" opacity="0.2976862941397555" rx="1"/><rect x="14.037834538854153" y="864.6917304104873" width="9.629790691106997" height="6.838832011641663" fill="#c0392b" opacity="0.1455195750215835" rx="1"/><rect x="5.511189890096706" y="868.1111464163081" width="9.629790691106997" height="6.838832011641663" fill="#ff6b6b" opacity="0.07275978751079175" rx="1"/><rect x="16.258738844948525" y="903.6152503950557" width="5.187982078918251" height="8.047471929818268" fill="#c0392b" opacity="0.30225111166999" rx="1"/><rect x="7.7320941961910785" y="907.6389863599649" width="5.187982078918251" height="8.047471929818268" fill="#ff6b6b" opacity="0.151125555834995" rx="1"/><rect x="96.80146629807128" y="722.9008926597658" width="62.0867127161675" height="209.63787771985818" fill="#2d1b1b" opacity="0.6021542783365944" rx="2"/><rect x="125.73061759560171" y="732.9008926597658" width="4.228410121106638" height="6.454629432515853" fill="#c0392b" opacity="0.48530273139134583" rx="1"/><rect x="110.20893941655983" y="736.1282073760237" width="4.228410121106638" height="6.454629432515853" fill="#ff6b6b" opacity="0.24265136569567292" rx="1"/><rect x="124.33502466455006" y="802.7801852330518" width="7.019595983209926" height="8.486746240054897" fill="#c0392b" opacity="0.3710589559914216" rx="1"/><rect x="108.81334648550818" y="807.0235583530792" width="7.019595983209926" height="8.486746240054897" fill="#ff6b6b" opacity="0.1855294779957108" rx="1"/><rect x="124.44137269670662" y="872.6594778063379" width="6.806899918896821" height="8.216560886757579" fill="#c0392b" opacity="0.2093266220086549" rx="1"/><rect x="108.91969451766474" y="876.7677582497167" width="6.806899918896821" height="8.216560886757579" fill="#ff6b6b" opacity="0.10466331100432745" rx="1"/><rect x="167.2995348306888" y="826.4807199655288" width="82.82795151528623" height="106.05805041409518" fill="#2d1b1b" opacity="0.6453749310330895" rx="2"/><rect x="206.0693800238872" y="836.4807199655288" width="5.288261128889458" height="6.257420798823568" fill="#c0392b" opacity="0.2503286932479424" rx="1"/><rect x="185.36239214506563" y="839.6094303649406" width="5.288261128889458" height="6.257420798823568" fill="#ff6b6b" opacity="0.1251643466239712" rx="1"/><rect x="204.7504444840067" y="871.8334034368938" width="7.926132208650497" height="8.71170004147843" fill="#c0392b" opacity="0.3469100047012116" rx="1"/><rect x="184.04345660518513" y="876.1892534576331" width="7.926132208650497" height="8.71170004147843" fill="#ff6b6b" opacity="0.1734550023506058" rx="1"/><rect x="204.40139980891794" y="907.186086908259" width="8.624221558827958" height="7.4123983088443985" fill="#c0392b" opacity="0.5878816143581368" rx="1"/><rect x="183.69441193009638" y="910.8922860626811" width="8.624221558827958" height="7.4123983088443985" fill="#ff6b6b" opacity="0.2939408071790684" rx="1"/><rect x="254.42163396608183" y="599.5107110821434" width="75.0503969297396" height="333.0280592974806" fill="#2d1b1b" opacity="0.44905661927747" rx="2"/><rect x="286.48942305479943" y="609.5107110821434" width="10.914818752304376" height="6.712306318970469" fill="#c0392b" opacity="0.4064659190844898" rx="1"/><rect x="267.7268238223645" y="612.8668642416286" width="10.914818752304376" height="6.712306318970469" fill="#ff6b6b" opacity="0.2032329595422449" rx="1"/><rect x="287.4549323123036" y="692.7677259065135" width="8.983800237296101" height="7.10730557635131" fill="#c0392b" opacity="0.2938633283585923" rx="1"/><rect x="268.69233307986866" y="696.3213786946892" width="8.983800237296101" height="7.10730557635131" fill="#ff6b6b" opacity="0.14693166417929615" rx="1"/><rect x="288.34486755638557" y="776.0247407308837" width="7.203929749132118" height="6.436134706352869" fill="#c0392b" opacity="0.1861773404959071" rx="1"/><rect x="269.58226832395064" y="779.2428080840601" width="7.203929749132118" height="6.436134706352869" fill="#ff6b6b" opacity="0.09308867024795354" rx="1"/><rect x="289.69294247438097" y="859.2817555552539" width="4.507779913141341" height="8.106622493385016" fill="#c0392b" opacity="0.4071488550182313" rx="1"/><rect x="270.93034324194605" y="863.3350668019464" width="4.507779913141341" height="8.106622493385016" fill="#ff6b6b" opacity="0.20357442750911564" rx="1"/><rect x="351.54421044387567" y="572.3227486881246" width="68.90901074253698" height="360.2160216914993" fill="#130101" opacity="0.641520715491269" rx="2"/><rect x="381.0915977780556" y="582.3227486881246" width="9.814236074177138" height="7.189145653785474" fill="#c0392b" opacity="0.48885610908941746" rx="1"/><rect x="363.86434509242133" y="585.9173215150174" width="9.814236074177138" height="7.189145653785474" fill="#ff6b6b" opacity="0.24442805454470873" rx="1"/><rect x="380.4465103439265" y="633.7821803583388" width="11.104410942435361" height="8.070091558170992" fill="#c0392b" opacity="0.21650230505422277" rx="1"/><rect x="363.21925765829224" y="637.8172261374243" width="11.104410942435361" height="8.070091558170992" fill="#ff6b6b" opacity="0.10825115252711139" rx="1"/><rect x="381.1049178636513" y="685.241612028553" width="9.7875959029858" height="9.278132829647078" fill="#c0392b" opacity="0.39911820644026585" rx="1"/><rect x="363.877665178017" y="689.8806784433766" width="9.7875959029858" height="9.278132829647078" fill="#ff6b6b" opacity="0.19955910322013293" rx="1"/><rect x="382.018456302132" y="736.7010436987672" width="7.960519026024388" height="6.087321682853466" fill="#c0392b" opacity="0.48759537993175806" rx="1"/><rect x="364.79120361649774" y="739.7447045401939" width="7.960519026024388" height="6.087321682853466" fill="#ff6b6b" opacity="0.24379768996587903" rx="1"/><rect x="380.0846854541749" y="788.1604753689815" width="11.828060721938513" height="8.216312534691838" fill="#c0392b" opacity="0.35761846517157236" rx="1"/><rect x="362.85743276854066" y="792.2686316363274" width="11.828060721938513" height="8.216312534691838" fill="#ff6b6b" opacity="0.17880923258578618" rx="1"/><rect x="381.2427996595591" y="839.6199070391956" width="9.511832311170137" height="9.264638638883978" fill="#c0392b" opacity="0.20510122988026153" rx="1"/><rect x="364.01554697392487" y="844.2522263586376" width="9.511832311170137" height="9.264638638883978" fill="#ff6b6b" opacity="0.10255061494013076" rx="1"/><rect x="381.5747917577667" y="891.0793387094097" width="8.847848114754969" height="6.301494622673256" fill="#c0392b" opacity="0.5616787510369157" rx="1"/><rect x="364.34753907213246" y="894.2300860207464" width="8.847848114754969" height="6.301494622673256" fill="#ff6b6b" opacity="0.28083937551845783" rx="1"/><rect x="447.1401601630366" y="838.7069048682941" width="80.12013895672749" height="93.83186551132981" fill="#130101" opacity="0.4446178199827247" rx="2"/><rect x="484.23280830786956" y="848.7069048682941" width="5.934842667061567" height="7.010729266565928" fill="#c0392b" opacity="0.4174348979530471" rx="1"/><rect x="464.2027735686877" y="852.2122695015771" width="5.934842667061567" height="7.010729266565928" fill="#ff6b6b" opacity="0.20871744897652356" rx="1"/><rect x="484.0295020091193" y="860.4358880572104" width="6.341455264562148" height="8.331315187348824" fill="#c0392b" opacity="0.4548639998433329" rx="1"/><rect x="463.99946726993744" y="864.6015456508848" width="6.341455264562148" height="8.331315187348824" fill="#ff6b6b" opacity="0.22743199992166646" rx="1"/><rect x="484.4403201622759" y="872.1648712461266" width="5.5198189582489015" height="8.563401556239324" fill="#c0392b" opacity="0.26678238023696055" rx="1"/><rect x="464.410285423094" y="876.4465720242463" width="5.5198189582489015" height="8.563401556239324" fill="#ff6b6b" opacity="0.13339119011848027" rx="1"/><rect x="484.25662239467744" y="883.8938544350428" width="5.887214493445869" height="8.340742887542756" fill="#c0392b" opacity="0.3699879604089046" rx="1"/><rect x="464.22658765549556" y="888.0642258788142" width="5.887214493445869" height="8.340742887542756" fill="#ff6b6b" opacity="0.1849939802044523" rx="1"/><rect x="481.227791946738" y="895.6228376239591" width="11.944875389324704" height="8.393282441979572" fill="#c0392b" opacity="0.5650991370354544" rx="1"/><rect x="461.19775720755615" y="899.8194788449489" width="11.944875389324704" height="8.393282441979572" fill="#ff6b6b" opacity="0.2825495685177272" rx="1"/><rect x="481.2258297394798" y="907.3518208128753" width="11.948799803841114" height="8.562191797085617" fill="#c0392b" opacity="0.28808875970730763" rx="1"/><rect x="461.19579500029795" y="911.6329167114181" width="11.948799803841114" height="8.562191797085617" fill="#ff6b6b" opacity="0.14404437985365381" rx="1"/><rect x="481.6858666860475" y="919.0808040017915" width="11.028725910705683" height="7.97170709864509" fill="#c0392b" opacity="0.19393445311438628" rx="1"/><rect x="461.65583194686565" y="923.0666575511141" width="11.028725910705683" height="7.97170709864509" fill="#ff6b6b" opacity="0.09696722655719314" rx="1"/><rect x="481.44136103190147" y="930.8097871907078" width="11.517737218997846" height="9.194533298535863" fill="#c0392b" opacity="0.21414973708199098" rx="1"/><rect x="461.4113262927196" y="935.4070538399757" width="11.517737218997846" height="9.194533298535863" fill="#ff6b6b" opacity="0.10707486854099549" rx="1"/><rect x="524.1602231081868" y="769.2645157615805" width="62.26459554682127" height="163.27425461804359" fill="#2d1b1b" opacity="0.6147968882030801" rx="2"/><rect x="550.9466080175508" y="779.2645157615805" width="8.691825728093233" height="6.867796475269785" fill="#c0392b" opacity="0.29548594129632366" rx="1"/><rect x="535.3804591308455" y="782.6984139992154" width="8.691825728093233" height="6.867796475269785" fill="#ff6b6b" opacity="0.14774297064816183" rx="1"/><rect x="552.815923015443" y="806.4768915312544" width="4.95319573230883" height="8.931450316433667" fill="#c0392b" opacity="0.10806995458157499" rx="1"/><rect x="537.2497741287376" y="810.9426166894713" width="4.95319573230883" height="8.931450316433667" fill="#ff6b6b" opacity="0.054034977290787496" rx="1"/><rect x="551.4321381584735" y="833.6892673009283" width="7.720765446247711" height="7.220657771737468" fill="#c0392b" opacity="0.3858749716044113" rx="1"/><rect x="535.8659892717682" y="837.2995961867971" width="7.720765446247711" height="7.220657771737468" fill="#ff6b6b" opacity="0.19293748580220565" rx="1"/><rect x="550.8506855101828" y="860.9016430706023" width="8.883670742829253" height="8.74272322346054" fill="#c0392b" opacity="0.5099428541748652" rx="1"/><rect x="535.2845366234774" y="865.2730046823326" width="8.883670742829253" height="8.74272322346054" fill="#ff6b6b" opacity="0.2549714270874326" rx="1"/><rect x="551.5945061087049" y="888.1140188402762" width="7.396029545784935" height="8.407300574334176" fill="#c0392b" opacity="0.5272544849494599" rx="1"/><rect x="536.0283572219995" y="892.3176691274433" width="7.396029545784935" height="8.407300574334176" fill="#ff6b6b" opacity="0.26362724247472996" rx="1"/><rect x="550.8549769999041" y="915.3263946099501" width="8.875087763386567" height="8.84831929738827" fill="#c0392b" opacity="0.3965887970748797" rx="1"/><rect x="535.2888281131987" y="919.7505542586442" width="8.875087763386567" height="8.84831929738827" fill="#ff6b6b" opacity="0.19829439853743985" rx="1"/><rect x="603.4311795423872" y="644.3745369893439" width="50.36486532081963" height="288.16423339028006" fill="#2d1b1b" opacity="0.47758741948697425" rx="2"/><rect x="622.6761409173492" y="654.3745369893439" width="11.87494257089564" height="7.549427722941485" fill="#c0392b" opacity="0.2813032469203005" rx="1"/><rect x="610.0849245871443" y="658.1492508508147" width="11.87494257089564" height="7.549427722941485" fill="#ff6b6b" opacity="0.14065162346015025" rx="1"/><rect x="622.6419828272118" y="750.4292814527706" width="11.943258751170537" height="6.847355302620529" fill="#c0392b" opacity="0.11126360229944429" rx="1"/><rect x="610.0507664970069" y="753.8529591040809" width="11.943258751170537" height="6.847355302620529" fill="#ff6b6b" opacity="0.055631801149722146" rx="1"/><rect x="623.4156299084989" y="846.4840259161973" width="10.395964588596478" height="9.259269090196879" fill="#c0392b" opacity="0.5143865756723999" rx="1"/><rect x="610.824413578294" y="851.1136604612957" width="10.395964588596478" height="9.259269090196879" fill="#ff6b6b" opacity="0.25719328783619994" rx="1"/><rect x="671.06853285971" y="739.8522321460424" width="36.971107373705856" height="192.6865382335816" fill="#130101" opacity="0.58725700315257" rx="2"/><rect x="686.6022045406721" y="749.8522321460424" width="5.9037640117816075" height="7.064386754544541" fill="#c0392b" opacity="0.10362941250289544" rx="1"/><rect x="677.3594276972457" y="753.3844255233147" width="5.9037640117816075" height="7.064386754544541" fill="#ff6b6b" opacity="0.05181470625144772" rx="1"/><rect x="686.7070513404426" y="773.9380494252401" width="5.694070412240473" height="9.20049013551336" fill="#c0392b" opacity="0.5534646249267888" rx="1"/><rect x="677.4642744970162" y="778.5382944929968" width="5.694070412240473" height="9.20049013551336" fill="#ff6b6b" opacity="0.2767323124633944" rx="1"/><rect x="686.5272942454587" y="798.0238667044378" width="6.053584602208246" height="8.042844317397766" fill="#c0392b" opacity="0.1832942901373129" rx="1"/><rect x="677.2845174020323" y="802.0452888631366" width="6.053584602208246" height="8.042844317397766" fill="#ff6b6b" opacity="0.09164714506865645" rx="1"/><rect x="683.6719625854769" y="822.1096839836355" width="11.764247922171897" height="8.289200158391427" fill="#c0392b" opacity="0.47707104111953436" rx="1"/><rect x="674.4291857420504" y="826.2542840628312" width="11.764247922171897" height="8.289200158391427" fill="#ff6b6b" opacity="0.23853552055976718" rx="1"/><rect x="686.5457794050762" y="846.1955012628332" width="6.016614282973254" height="7.369905831611227" fill="#c0392b" opacity="0.520071385898644" rx="1"/><rect x="677.3030025616498" y="849.8804541786388" width="6.016614282973254" height="7.369905831611227" fill="#ff6b6b" opacity="0.260035692949322" rx="1"/><rect x="684.1871759186672" y="870.2813185420309" width="10.733821255791426" height="9.413685320740026" fill="#c0392b" opacity="0.4715529939792009" rx="1"/><rect x="674.9443990752408" y="874.988161202401" width="10.733821255791426" height="9.413685320740026" fill="#ff6b6b" opacity="0.23577649698960046" rx="1"/><rect x="686.3787684746706" y="894.3671358212287" width="6.350636143784652" height="7.558953933780769" fill="#c0392b" opacity="0.1115729094277073" rx="1"/><rect x="677.1359916312441" y="898.146612788119" width="6.350636143784652" height="7.558953933780769" fill="#ff6b6b" opacity="0.05578645471385365" rx="1"/><rect x="684.5443450085892" y="918.4529531004263" width="10.019483075947381" height="8.793234944993918" fill="#c0392b" opacity="0.547933666279524" rx="1"/><rect x="675.3015681651627" y="922.8495705729232" width="10.019483075947381" height="8.793234944993918" fill="#ff6b6b" opacity="0.273966833139762" rx="1"/><rect x="762.5021716619027" y="607.9005868425361" width="89.45499553798116" height="324.6381835370879" fill="#2d1b1b" opacity="0.6434383958912079" rx="2"/><rect x="803.8896413718438" y="617.9005868425361" width="6.680056118099031" height="9.932898237354332" fill="#c0392b" opacity="0.2591047399349289" rx="1"/><rect x="781.5258924873485" y="622.8670359612132" width="6.680056118099031" height="9.932898237354332" fill="#ff6b6b" opacity="0.12955236996746444" rx="1"/><rect x="803.3977926850192" y="726.1133146882321" width="7.663753491748067" height="8.992551435481886" fill="#c0392b" opacity="0.4707942516474971" rx="1"/><rect x="781.0340438005239" y="730.609590405973" width="7.663753491748067" height="8.992551435481886" fill="#ff6b6b" opacity="0.23539712582374855" rx="1"/><rect x="804.9115675264643" y="834.326042533928" width="4.636203808858107" height="6.82883796487675" fill="#c0392b" opacity="0.4014637747084405" rx="1"/><rect x="782.547818641969" y="837.7404615163664" width="4.636203808858107" height="6.82883796487675" fill="#ff6b6b" opacity="0.20073188735422026" rx="1"/><rect x="845.9482827499874" y="664.2078354638553" width="74.03730634228263" height="268.3309349157687" fill="#2d1b1b" opacity="0.4061987921377176" rx="2"/><rect x="877.0737258248688" y="674.2078354638553" width="11.786420192519767" height="9.465798656331794" fill="#c0392b" opacity="0.5445522791809757" rx="1"/><rect x="858.5643992392982" y="678.9407347920212" width="11.786420192519767" height="9.465798656331794" fill="#ff6b6b" opacity="0.27227613959048785" rx="1"/><rect x="879.4679762546616" y="707.7492023283264" width="6.9979193329340585" height="7.7118783243261" fill="#c0392b" opacity="0.51908614195862" rx="1"/><rect x="860.958649669091" y="711.6051414904895" width="6.9979193329340585" height="7.7118783243261" fill="#ff6b6b" opacity="0.25954307097931" rx="1"/><rect x="880.0888720587122" y="741.2905691927974" width="5.756127724832885" height="9.30296265783323" fill="#c0392b" opacity="0.12559241571593854" rx="1"/><rect x="861.5795454731416" y="745.942050521714" width="5.756127724832885" height="9.30296265783323" fill="#ff6b6b" opacity="0.06279620785796927" rx="1"/><rect x="880.5168799287931" y="774.8319360572685" width="4.90011198467112" height="6.353273861192464" fill="#c0392b" opacity="0.36675425080274093" rx="1"/><rect x="862.0075533432224" y="778.0085729878648" width="4.90011198467112" height="6.353273861192464" fill="#ff6b6b" opacity="0.18337712540137047" rx="1"/><rect x="880.9192780178337" y="808.3733029217397" width="4.095315806589861" height="7.2325799440109595" fill="#c0392b" opacity="0.4215623814197169" rx="1"/><rect x="862.409951432263" y="811.9895928937451" width="4.095315806589861" height="7.2325799440109595" fill="#ff6b6b" opacity="0.21078119070985846" rx="1"/><rect x="880.0526475286254" y="841.9146697862108" width="5.828576785006694" height="9.885455932441506" fill="#c0392b" opacity="0.5116483387564421" rx="1"/><rect x="861.5433209430547" y="846.8573977524316" width="5.828576785006694" height="9.885455932441506" fill="#ff6b6b" opacity="0.25582416937822106" rx="1"/><rect x="879.3333756795482" y="875.4560366506819" width="7.267120483160745" height="6.899756960780303" fill="#c0392b" opacity="0.14924259650270516" rx="1"/><rect x="860.8240490939776" y="878.905915131072" width="7.267120483160745" height="6.899756960780303" fill="#ff6b6b" opacity="0.07462129825135258" rx="1"/><rect x="877.9626419869184" y="908.9974035151529" width="10.008587868420545" height="7.293811623308298" fill="#c0392b" opacity="0.47064626367544904" rx="1"/><rect x="859.4533154013477" y="912.644309326807" width="10.008587868420545" height="7.293811623308298" fill="#ff6b6b" opacity="0.23532313183772452" rx="1"/><rect x="938.8600054196384" y="615.6066513656654" width="37.88311153833827" height="316.93211901395864" fill="#130101" opacity="0.4903011514782676" rx="2"/><rect x="954.5290091974657" y="625.6066513656654" width="6.545103982683528" height="9.499604851822276" fill="#c0392b" opacity="0.19322354502352504" rx="1"/><rect x="945.0582313128812" y="630.3564537915765" width="6.545103982683528" height="9.499604851822276" fill="#ff6b6b" opacity="0.09661177251176252" rx="1"/><rect x="955.6018743513783" y="678.4286712013252" width="4.399373674858215" height="8.914844638415342" fill="#c0392b" opacity="0.2887214000310566" rx="1"/><rect x="946.1310964667938" y="682.8860935205329" width="4.399373674858215" height="8.914844638415342" fill="#ff6b6b" opacity="0.1443607000155283" rx="1"/><rect x="952.3891717540702" y="731.2506910369849" width="10.824778869474489" height="9.731533100766022" fill="#c0392b" opacity="0.33837187891788123" rx="1"/><rect x="942.9183938694856" y="736.1164575873679" width="10.824778869474489" height="9.731533100766022" fill="#ff6b6b" opacity="0.16918593945894062" rx="1"/><rect x="955.5849757658909" y="784.0727108726446" width="4.433170845832948" height="6.588369493509729" fill="#c0392b" opacity="0.15343271362442354" rx="1"/><rect x="946.1141978813064" y="787.3668956193994" width="4.433170845832948" height="6.588369493509729" fill="#ff6b6b" opacity="0.07671635681221177" rx="1"/><rect x="951.9467915091235" y="836.8947307083045" width="11.70953935936781" height="9.143266986856066" fill="#c0392b" opacity="0.3246050376502343" rx="1"/><rect x="942.476013624539" y="841.4663642017325" width="11.70953935936781" height="9.143266986856066" fill="#ff6b6b" opacity="0.16230251882511715" rx="1"/><rect x="954.7663929859725" y="889.7167505439643" width="6.070336405669883" height="7.560537108583501" fill="#c0392b" opacity="0.28567845835017003" rx="1"/><rect x="945.295615101388" y="893.497019098256" width="6.070336405669883" height="7.560537108583501" fill="#ff6b6b" opacity="0.14283922917508501" rx="1"/><rect x="1014.7787785166663" y="679.2615597088034" width="49.577236138185775" height="253.2772106708207" fill="#130101" opacity="0.618628412116931" rx="2"/><rect x="1033.582779278912" y="689.2615597088034" width="11.969234613694539" height="7.463716473771193" fill="#c0392b" opacity="0.22635186596921456" rx="1"/><rect x="1021.1884702443656" y="692.993417945689" width="11.969234613694539" height="7.463716473771193" fill="#ff6b6b" opacity="0.11317593298460728" rx="1"/><rect x="1036.2463924117333" y="731.4744281539402" width="6.642008348051926" height="7.45787080411284" fill="#c0392b" opacity="0.11944163127789312" rx="1"/><rect x="1023.8520833771869" y="735.2033635559966" width="6.642008348051926" height="7.45787080411284" fill="#ff6b6b" opacity="0.05972081563894656" rx="1"/><rect x="1034.630244512288" y="773.687296599077" width="9.874304146942288" height="6.48951136797888" fill="#c0392b" opacity="0.4542023300785111" rx="1"/><rect x="1022.2359354777417" y="776.9320522830664" width="9.874304146942288" height="6.48951136797888" fill="#ff6b6b" opacity="0.22710116503925554" rx="1"/><rect x="1034.775260573464" y="815.9001650442137" width="9.584272024590586" height="9.928128221055523" fill="#c0392b" opacity="0.11209149242194638" rx="1"/><rect x="1022.3809515389175" y="820.8642291547415" width="9.584272024590586" height="9.928128221055523" fill="#ff6b6b" opacity="0.05604574621097319" rx="1"/><rect x="1036.4891510388395" y="858.1130334893505" width="6.156491093839633" height="7.437676846384461" fill="#c0392b" opacity="0.3157595897362939" rx="1"/><rect x="1024.094842004293" y="861.8318719125427" width="6.156491093839633" height="7.437676846384461" fill="#ff6b6b" opacity="0.15787979486814696" rx="1"/><rect x="1036.030770010818" y="900.3259019344873" width="7.073253149882251" height="9.86212177105763" fill="#c0392b" opacity="0.17509412012880066" rx="1"/><rect x="1023.6364609762717" y="905.2569628200162" width="7.073253149882251" height="9.86212177105763" fill="#ff6b6b" opacity="0.08754706006440033" rx="1"/><rect x="1090.441651991064" y="611.6897925528906" width="87.83431442404034" height="320.84897782673335" fill="#2d1b1b" opacity="0.554345339502754" rx="2"/><rect x="1129.308062902116" y="621.6897925528906" width="10.1014926019361" height="9.696249274466245" fill="#c0392b" opacity="0.5708374295082962" rx="1"/><rect x="1107.349484296106" y="626.5379171901237" width="10.1014926019361" height="9.696249274466245" fill="#ff6b6b" opacity="0.2854187147541481" rx="1"/><rect x="1132.2611763450905" y="685.8595881182373" width="4.195265715987251" height="9.869076818197286" fill="#c0392b" opacity="0.31216901000872466" rx="1"/><rect x="1110.3025977390805" y="690.794126527336" width="4.195265715987251" height="9.869076818197286" fill="#ff6b6b" opacity="0.15608450500436233" rx="1"/><rect x="1129.0803336029574" y="750.029383683584" width="10.55695120025355" height="9.719832997703886" fill="#c0392b" opacity="0.1428630864580309" rx="1"/><rect x="1107.1217549969474" y="754.8893001824359" width="10.55695120025355" height="9.719832997703886" fill="#ff6b6b" opacity="0.07143154322901545" rx="1"/><rect x="1130.6937331899733" y="814.1991792489306" width="7.330152026221658" height="8.015933553226276" fill="#c0392b" opacity="0.2629874488951144" rx="1"/><rect x="1108.7351545839633" y="818.2071460255437" width="7.330152026221658" height="8.015933553226276" fill="#ff6b6b" opacity="0.1314937244475572" rx="1"/><rect x="1130.580121407046" y="878.3689748142773" width="7.557375592076539" height="6.823413761524347" fill="#c0392b" opacity="0.18627529712074326" rx="1"/><rect x="1108.621542801036" y="881.7806816950394" width="7.557375592076539" height="6.823413761524347" fill="#ff6b6b" opacity="0.09313764856037163" rx="1"/><rect x="1181.6627951798296" y="632.8072336578758" width="37.537105862874796" height="299.73153672174817" fill="#2d1b1b" opacity="0.5930590967864402" rx="2"/><rect x="1197.1418062126716" y="642.8072336578758" width="6.579083797191057" height="9.881623374270653" fill="#c0392b" opacity="0.46322946203016435" rx="1"/><rect x="1187.757529746953" y="647.7480453450112" width="6.579083797191057" height="9.881623374270653" fill="#ff6b6b" opacity="0.23161473101508218" rx="1"/><rect x="1197.4964123987938" y="685.6260246181256" width="5.869871424946439" height="6.5317814379306" fill="#c0392b" opacity="0.5663255490517071" rx="1"/><rect x="1188.1121359330753" y="688.891915337091" width="5.869871424946439" height="6.5317814379306" fill="#ff6b6b" opacity="0.28316277452585353" rx="1"/><rect x="1196.4071239645264" y="728.4448155783753" width="8.048448293481126" height="6.560234810356105" fill="#c0392b" opacity="0.16460420847046286" rx="1"/><rect x="1187.0228474988078" y="731.7249329835533" width="8.048448293481126" height="6.560234810356105" fill="#ff6b6b" opacity="0.08230210423523143" rx="1"/><rect x="1194.5204509941796" y="771.263606538625" width="11.821794234174721" height="6.16060952473446" fill="#c0392b" opacity="0.20210114999257522" rx="1"/><rect x="1185.136174528461" y="774.3439113009922" width="11.821794234174721" height="6.16060952473446" fill="#ff6b6b" opacity="0.10105057499628761" rx="1"/><rect x="1195.448595262156" y="814.0823974988748" width="9.965505698222087" height="8.2113555293091" fill="#c0392b" opacity="0.2794477507191356" rx="1"/><rect x="1186.0643187964374" y="818.1880752635293" width="9.965505698222087" height="8.2113555293091" fill="#ff6b6b" opacity="0.1397238753595678" rx="1"/><rect x="1197.9390522070673" y="856.9011884591246" width="4.9845918083993235" height="7.199905376229413" fill="#c0392b" opacity="0.36516560133666864" rx="1"/><rect x="1188.5547757413487" y="860.5011411472393" width="4.9845918083993235" height="7.199905376229413" fill="#ff6b6b" opacity="0.18258280066833432" rx="1"/><rect x="1195.3632312091102" y="899.7199794193742" width="10.13623380431352" height="6.558693663347208" fill="#c0392b" opacity="0.3412756189567213" rx="1"/><rect x="1185.9789547433916" y="902.9993262510478" width="10.13623380431352" height="6.558693663347208" fill="#ff6b6b" opacity="0.17063780947836066" rx="1"/><rect x="1256.2349517806779" y="575.9750781292037" width="45.83322122130385" height="356.5636922504203" fill="#130101" opacity="0.5417901225718181" rx="2"/><rect x="1275.7064544699667" y="585.9750781292037" width="6.890215842726224" height="8.991034710544868" fill="#c0392b" opacity="0.19095184856349412" rx="1"/><rect x="1264.2481491646406" y="590.4705954844761" width="6.890215842726224" height="8.991034710544868" fill="#ff6b6b" opacity="0.09547592428174706" rx="1"/><rect x="1274.3288528340038" y="630.5455396605062" width="9.64541911465242" height="7.150986858911576" fill="#c0392b" opacity="0.390265846599421" rx="1"/><rect x="1262.8705475286777" y="634.121033089962" width="9.64541911465242" height="7.150986858911576" fill="#ff6b6b" opacity="0.1951329232997105" rx="1"/><rect x="1273.9605575210587" y="675.1160011918088" width="10.382009740542157" height="8.066451766078" fill="#c0392b" opacity="0.22804118209240054" rx="1"/><rect x="1262.5022522157326" y="679.1492270748478" width="10.382009740542157" height="8.066451766078" fill="#ff6b6b" opacity="0.11402059104620027" rx="1"/><rect x="1273.9821264396646" y="719.6864627231113" width="10.338871903330755" height="8.652220518014445" fill="#c0392b" opacity="0.3136974324736971" rx="1"/><rect x="1262.5238211343385" y="724.0125729821185" width="10.338871903330755" height="8.652220518014445" fill="#ff6b6b" opacity="0.15684871623684854" rx="1"/><rect x="1275.3656666465754" y="764.2569242544138" width="7.571791489508886" height="7.677329494077091" fill="#c0392b" opacity="0.3530448551413242" rx="1"/><rect x="1263.9073613412493" y="768.0955890014524" width="7.571791489508886" height="7.677329494077091" fill="#ff6b6b" opacity="0.1765224275706621" rx="1"/><rect x="1275.8310763185716" y="808.8273857857164" width="6.640972145516652" height="9.446890122128393" fill="#c0392b" opacity="0.1431235189417199" rx="1"/><rect x="1264.3727710132455" y="813.5508308467806" width="6.640972145516652" height="9.446890122128393" fill="#ff6b6b" opacity="0.07156175947085995" rx="1"/><rect x="1276.4591483821564" y="853.3978473170189" width="5.384828018346994" height="8.297937462641377" fill="#c0392b" opacity="0.4940311999511978" rx="1"/><rect x="1265.0008430768303" y="857.5468160483396" width="5.384828018346994" height="8.297937462641377" fill="#ff6b6b" opacity="0.2470155999755989" rx="1"/><rect x="1273.5182941664086" y="897.9683088483214" width="11.266536449842746" height="9.348977867362317" fill="#c0392b" opacity="0.5198870721552258" rx="1"/><rect x="1262.0599888610825" y="902.6427977820025" width="11.266536449842746" height="9.348977867362317" fill="#ff6b6b" opacity="0.2599435360776129" rx="1"/><rect x="1363.3922157240022" y="620.2952301875443" width="35.18728030966299" height="312.24354019207965" fill="#130101" opacity="0.477361590619516" rx="2"/><rect x="1378.345342338439" y="630.2952301875443" width="5.281027080789448" height="9.631646128285594" fill="#c0392b" opacity="0.13200698039308353" rx="1"/><rect x="1369.5485222610232" y="635.1110532516872" width="5.281027080789448" height="9.631646128285594" fill="#ff6b6b" opacity="0.06600349019654177" rx="1"/><rect x="1376.830516244286" y="708.3561152355643" width="8.310679269095576" height="7.957219836757803" fill="#c0392b" opacity="0.5632374313574372" rx="1"/><rect x="1368.0336961668702" y="712.3347251539432" width="8.310679269095576" height="7.957219836757803" fill="#ff6b6b" opacity="0.2816187156787186" rx="1"/><rect x="1376.922081161313" y="786.4170002835842" width="8.12754943504174" height="7.148497268824954" fill="#c0392b" opacity="0.4735019274459924" rx="1"/><rect x="1368.1252610838972" y="789.9912489179967" width="8.12754943504174" height="7.148497268824954" fill="#ff6b6b" opacity="0.2367509637229962" rx="1"/><rect x="1377.3319825959638" y="864.477885331604" width="7.307746565739565" height="6.895060737825712" fill="#c0392b" opacity="0.27731564414624954" rx="1"/><rect x="1368.535162518548" y="867.925415700517" width="7.307746565739565" height="6.895060737825712" fill="#ff6b6b" opacity="0.13865782207312477" rx="1"/><rect x="1443.3744212202282" y="784.0454425159946" width="79.85558893761029" height="148.4933278636293" fill="#2d1b1b" opacity="0.4200083252554779" rx="2"/><rect x="1479.2959853864113" y="794.0454425159946" width="8.012460605244259" height="9.367042859868855" fill="#c0392b" opacity="0.37911190916297766" rx="1"/><rect x="1459.3320881520087" y="798.7289639459291" width="8.012460605244259" height="9.367042859868855" fill="#ff6b6b" opacity="0.18955595458148883" rx="1"/><rect x="1478.364553007716" y="815.2587750679417" width="9.875325362634687" height="7.917178565151333" fill="#c0392b" opacity="0.4793506083030604" rx="1"/><rect x="1458.4006557733135" y="819.2173643505173" width="9.875325362634687" height="7.917178565151333" fill="#ff6b6b" opacity="0.2396753041515302" rx="1"/><rect x="1477.3474183969156" y="836.4721076198887" width="11.90959458423536" height="9.978415591637235" fill="#c0392b" opacity="0.4266383375336039" rx="1"/><rect x="1457.383521162513" y="841.4613154157073" width="11.90959458423536" height="9.978415591637235" fill="#ff6b6b" opacity="0.21331916876680196" rx="1"/><rect x="1478.2748836217702" y="857.6854401718358" width="10.054664134526314" height="8.284751065607358" fill="#c0392b" opacity="0.37699080861103507" rx="1"/><rect x="1458.3109863873676" y="861.8278157046395" width="10.054664134526314" height="8.284751065607358" fill="#ff6b6b" opacity="0.18849540430551753" rx="1"/><rect x="1478.0000929975497" y="878.8987727237828" width="10.604245382967463" height="7.0477897881175835" fill="#c0392b" opacity="0.2558842637240617" rx="1"/><rect x="1458.0361957631471" y="882.4226676178416" width="10.604245382967463" height="7.0477897881175835" fill="#ff6b6b" opacity="0.12794213186203085" rx="1"/><rect x="1481.0296378760747" y="900.1121052757298" width="4.545155625917286" height="9.545742886035178" fill="#c0392b" opacity="0.2341263499656055" rx="1"/><rect x="1461.0657406416722" y="904.8849767187475" width="4.545155625917286" height="9.545742886035178" fill="#ff6b6b" opacity="0.11706317498280275" rx="1"/><rect x="1479.8511629503419" y="921.3254378276769" width="6.90210547738292" height="6.574436898477011" fill="#c0392b" opacity="0.23864491615412872" rx="1"/><rect x="1459.8872657159393" y="924.6126562769153" width="6.90210547738292" height="6.574436898477011" fill="#ff6b6b" opacity="0.11932245807706436" rx="1"/><rect x="1524.337232344093" y="563.2756079461601" width="78.91905527303905" height="369.2631624334639" fill="#130101" opacity="0.6016272031007398" rx="2"/><rect x="1559.3163024683047" y="573.2756079461601" width="8.960915024616037" height="7.115120693369564" fill="#c0392b" opacity="0.500442294171183" rx="1"/><rect x="1539.5865386500448" y="576.8331682928449" width="8.960915024616037" height="7.115120693369564" fill="#ff6b6b" opacity="0.2502211470855915" rx="1"/><rect x="1559.860407485989" y="634.8194683517374" width="7.872704989247188" height="8.456178935816553" fill="#c0392b" opacity="0.44785982008275105" rx="1"/><rect x="1540.1306436677291" y="639.0475578196457" width="7.872704989247188" height="8.456178935816553" fill="#ff6b6b" opacity="0.22392991004137552" rx="1"/><rect x="1560.231033709349" y="696.3633287573148" width="7.131452542527452" height="7.951767223410254" fill="#c0392b" opacity="0.22352999419056113" rx="1"/><rect x="1540.5012698910891" y="700.33921236902" width="7.131452542527452" height="7.951767223410254" fill="#ff6b6b" opacity="0.11176499709528057" rx="1"/><rect x="1558.403611498908" y="757.9071891628921" width="10.786296963409125" height="8.876902609802062" fill="#c0392b" opacity="0.3181115246420054" rx="1"/><rect x="1538.6738476806481" y="762.3456404677931" width="10.786296963409125" height="8.876902609802062" fill="#ff6b6b" opacity="0.1590557623210027" rx="1"/><rect x="1559.5889875537914" y="819.4510495684693" width="8.415544853642476" height="8.312875502350012" fill="#c0392b" opacity="0.37173531899967593" rx="1"/><rect x="1539.8592237355315" y="823.6074873196443" width="8.415544853642476" height="8.312875502350012" fill="#ff6b6b" opacity="0.18586765949983797" rx="1"/><rect x="1560.3714226526365" y="880.9949099740467" width="6.850674655952183" height="8.910894037902098" fill="#c0392b" opacity="0.46909308083567147" rx="1"/><rect x="1540.6416588343766" y="885.4503569929977" width="6.850674655952183" height="8.910894037902098" fill="#ff6b6b" opacity="0.23454654041783574" rx="1"/><rect x="1593.9741646454045" y="657.5820327172014" width="54.07387516090504" height="274.9567376624226" fill="#2d1b1b" opacity="0.5838065793700066" rx="2"/><rect x="1615.6786798335697" y="667.5820327172014" width="10.664844784574779" height="9.125653417577421" fill="#c0392b" opacity="0.24452089349378853" rx="1"/><rect x="1602.1602110433435" y="672.1448594259901" width="10.664844784574779" height="9.125653417577421" fill="#ff6b6b" opacity="0.12226044674689426" rx="1"/><rect x="1615.4134713246885" y="713.4081556609385" width="11.195261802336962" height="6.41541318791346" fill="#c0392b" opacity="0.3778023105994338" rx="1"/><rect x="1601.8950025344623" y="716.6158622548952" width="11.195261802336962" height="6.41541318791346" fill="#ff6b6b" opacity="0.1889011552997169" rx="1"/><rect x="1615.8834849479238" y="759.2342786046756" width="10.25523455586639" height="9.034769638216767" fill="#c0392b" opacity="0.5189392480577667" rx="1"/><rect x="1602.3650161576975" y="763.7516634237841" width="10.25523455586639" height="9.034769638216767" fill="#ff6b6b" opacity="0.25946962402888335" rx="1"/><rect x="1617.565287296549" y="805.0604015484128" width="6.8916298586157225" height="9.940445275963388" fill="#c0392b" opacity="0.38212605784231" rx="1"/><rect x="1604.0468185063228" y="810.0306241863944" width="6.8916298586157225" height="9.940445275963388" fill="#ff6b6b" opacity="0.191063028921155" rx="1"/><rect x="1618.179012169162" y="850.8865244921498" width="5.66418011339013" height="6.368829295125051" fill="#c0392b" opacity="0.5477944730193807" rx="1"/><rect x="1604.6605433789357" y="854.0709391397123" width="5.66418011339013" height="6.368829295125051" fill="#ff6b6b" opacity="0.27389723650969033" rx="1"/><rect x="1618.7772471878527" y="896.7126474358869" width="4.4677100760088555" height="6.703843209125065" fill="#c0392b" opacity="0.2792934440726632" rx="1"/><rect x="1605.2587783976264" y="900.0645690404494" width="4.4677100760088555" height="6.703843209125065" fill="#ff6b6b" opacity="0.1396467220363316" rx="1"/><rect x="1677.9716660322595" y="605.4983880150826" width="44.6809869759439" height="327.04038236454136" fill="#130101" opacity="0.43869192850279903" rx="2"/><rect x="1696.320388255766" y="615.4983880150826" width="7.983542528930945" height="9.068888899653427" fill="#c0392b" opacity="0.481000638329657" rx="1"/><rect x="1685.1501415117798" y="620.0328324649093" width="7.983542528930945" height="9.068888899653427" fill="#ff6b6b" opacity="0.2405003191648285" rx="1"/><rect x="1695.322736153272" y="697.258483606218" width="9.978846733919077" height="7.4942336439840105" fill="#c0392b" opacity="0.26804792724271487" rx="1"/><rect x="1684.1524894092859" y="701.00560042821" width="9.978846733919077" height="7.4942336439840105" fill="#ff6b6b" opacity="0.13402396362135743" rx="1"/><rect x="1697.6517679947124" y="779.0185791973532" width="5.320783051038343" height="9.746267659530572" fill="#c0392b" opacity="0.5540413586548626" rx="1"/><rect x="1686.4815212507262" y="783.8917130271185" width="5.320783051038343" height="9.746267659530572" fill="#ff6b6b" opacity="0.2770206793274313" rx="1"/><rect x="1696.5173961149376" y="860.7786747884886" width="7.589526810587739" height="7.018134922026222" fill="#c0392b" opacity="0.16066655601855986" rx="1"/><rect x="1685.3471493709515" y="864.2877422495018" width="7.589526810587739" height="7.018134922026222" fill="#ff6b6b" opacity="0.08033327800927993" rx="1"/><rect x="1782.3625474855864" y="739.9880592804374" width="33.25570761767582" height="192.55071109918663" fill="#130101" opacity="0.6419834809941201" rx="2"/><rect x="1796.6898350764923" y="749.9880592804374" width="4.601132435864101" height="9.508392230493108" fill="#c0392b" opacity="0.13798487306059917" rx="1"/><rect x="1788.3759081720732" y="754.742255395684" width="4.601132435864101" height="9.508392230493108" fill="#ff6b6b" opacity="0.06899243653029959" rx="1"/><rect x="1793.1258665122102" y="777.4953037231783" width="11.729069564428428" height="9.895321548892028" fill="#c0392b" opacity="0.43934830788973445" rx="1"/><rect x="1784.8119396077911" y="782.4429644976243" width="11.729069564428428" height="9.895321548892028" fill="#ff6b6b" opacity="0.21967415394486722" rx="1"/><rect x="1795.2652088645248" y="805.0025481659193" width="7.450384859799032" height="9.529643446097534" fill="#c0392b" opacity="0.33173954715759946" rx="1"/><rect x="1786.9512819601057" y="809.767369888968" width="7.450384859799032" height="9.529643446097534" fill="#ff6b6b" opacity="0.16586977357879973" rx="1"/><rect x="1796.5530897465142" y="832.5097926086602" width="4.874623095820337" height="6.630266512890874" fill="#c0392b" opacity="0.5783511400405204" rx="1"/><rect x="1788.239162842095" y="835.8249258651056" width="4.874623095820337" height="6.630266512890874" fill="#ff6b6b" opacity="0.2891755700202602" rx="1"/><rect x="1793.2505283126907" y="860.0170370514012" width="11.479745963467227" height="7.325409638072692" fill="#c0392b" opacity="0.13321997018838766" rx="1"/><rect x="1784.9366014082716" y="863.6797418704375" width="11.479745963467227" height="7.325409638072692" fill="#ff6b6b" opacity="0.06660998509419383" rx="1"/><rect x="1795.1754589806437" y="887.5242814941421" width="7.629884627561523" height="7.12480498317741" fill="#c0392b" opacity="0.21003990532132794" rx="1"/><rect x="1786.8615320762246" y="891.0866839857308" width="7.629884627561523" height="7.12480498317741" fill="#ff6b6b" opacity="0.10501995266066397" rx="1"/><rect x="1795.3735545109612" y="915.0315259368831" width="7.233693566926219" height="8.398368192463733" fill="#c0392b" opacity="0.262545530396175" rx="1"/><rect x="1787.059627606542" y="919.230710033115" width="7.233693566926219" height="8.398368192463733" fill="#ff6b6b" opacity="0.1312727651980875" rx="1"/><rect x="1857.3511824987572" y="633.8421980929193" width="32.87971839375788" height="298.6965722867047" fill="#130101" opacity="0.4003703493625788" rx="2"/><rect x="1870.4076048012696" y="643.8421980929193" width="6.766873788732774" height="7.031860134804589" fill="#c0392b" opacity="0.3687300135774375" rx="1"/><rect x="1862.1876752028302" y="647.3581281603216" width="6.766873788732774" height="7.031860134804589" fill="#ff6b6b" opacity="0.18436500678871875" rx="1"/><rect x="1868.382689484656" y="686.5131369910199" width="10.816704421959981" height="7.291074108632997" fill="#c0392b" opacity="0.5599645269242964" rx="1"/><rect x="1860.1627598862167" y="690.1586740453364" width="10.816704421959981" height="7.291074108632997" fill="#ff6b6b" opacity="0.2799822634621482" rx="1"/><rect x="1868.766001519166" y="729.1840758891205" width="10.05008035294015" height="8.2545483592559" fill="#c0392b" opacity="0.2669391524435345" rx="1"/><rect x="1860.5460719207265" y="733.3113500687485" width="10.05008035294015" height="8.2545483592559" fill="#ff6b6b" opacity="0.13346957622176725" rx="1"/><rect x="1869.0104309622545" y="771.8550147872213" width="9.561221466763229" height="7.225601290638" fill="#c0392b" opacity="0.24594734323815148" rx="1"/><rect x="1860.790501363815" y="775.4678154325403" width="9.561221466763229" height="7.225601290638" fill="#ff6b6b" opacity="0.12297367161907574" rx="1"/><rect x="1870.5417498534732" y="814.525953685322" width="6.498583684325819" height="9.660924043427437" fill="#c0392b" opacity="0.4313061437409619" rx="1"/><rect x="1862.3218202550338" y="819.3564157070357" width="6.498583684325819" height="9.660924043427437" fill="#ff6b6b" opacity="0.21565307187048094" rx="1"/><rect x="1869.7253657370954" y="857.1968925834226" width="8.13135191708136" height="7.6901534585492115" fill="#c0392b" opacity="0.4227342764899913" rx="1"/><rect x="1861.505436138656" y="861.0419693126972" width="8.13135191708136" height="7.6901534585492115" fill="#ff6b6b" opacity="0.21136713824499564" rx="1"/><rect x="1868.1133390015111" y="899.8678314815232" width="11.355405388249878" height="6.1571300793805" fill="#c0392b" opacity="0.4452438593016108" rx="1"/><rect x="1859.8934094030717" y="902.9463965212135" width="11.355405388249878" height="6.1571300793805" fill="#ff6b6b" opacity="0.2226219296508054" rx="1"/><rect x="0" y="1000" width="1920" height="80" fill="#070000" opacity="0.8"/><line x1="0" y1="1040" x2="1920" y2="1040" stroke="#c0392b" stroke-opacity="0.15" stroke-width="2" stroke-dasharray="30,20"/><rect x="0" y="930" width="1920" height="150" fill="url(#glow35)"/><text x="1900" y="1060" font-family="Arial, sans-serif" font-size="11" fill="#fff" opacity="0.08" text-anchor="end" letter-spacing="2">GTA 6 REWARDS · WALLPAPER 036</text>
</svg>