<?xml version="1.0" encoding="UTF-8"?>
<svg xmlns="http://www.w3.org/2000/svg" width="1920" height="1080" viewBox="0 0 1920 1080">
<defs>
    <linearGradient id="bg40" x1="0%" y1="0%" x2="0%" y2="100%">
      <stop offset="0%" stop-color="#1a0533"/>
      <stop offset="50%" stop-color="#000000"/>
      <stop offset="100%" stop-color="#1a0533"/>
    </linearGradient>
    <linearGradient id="sun40" x1="0%" y1="0%" x2="100%" y2="100%">
      <stop offset="0%" stop-color="#ff0066"/>
      <stop offset="100%" stop-color="#00ccff"/>
    </linearGradient>
    <radialGradient id="glow40" cx="50%" cy="70%" r="50%">
      <stop offset="0%" stop-color="#ff0066" stop-opacity="0.3"/>
      <stop offset="100%" stop-color="#1a0533" stop-opacity="0"/>
    </radialGradient>
  </defs><rect width="1920" height="1080" fill="url(#bg40)"/><circle cx="1279.8308098176099" cy="210.6057110267239" r="807.894639323441" fill="#ff0066" opacity="0.08474891619634556"/><circle cx="1479.8308098176099" cy="110.6057110267239" r="552.1864602230924" fill="#00ccff" opacity="0.10138921962384816"/><circle cx="411.94918800889263" cy="399.3150088352419" r="66.66924232772301" fill="url(#sun40)" opacity="0.6248210462100853"/><circle cx="411.94918800889263" cy="399.3150088352419" r="61.66924232772301" fill="#1a0533" opacity="0.3"/><rect x="4.86366490481041" y="747.7376011893474" width="79.68879076877813" height="204.29494655791086" fill="#000019" opacity="0.6895302470981912" rx="2"/><rect x="40.3689062836042" y="757.7376011893474" width="8.678308011190571" height="8.769695543397614" fill="#00ccff" opacity="0.4210640950875971" rx="1"/><rect x="20.446708591409656" y="762.1224489610462" width="8.678308011190571" height="8.769695543397614" fill="#ff0066" opacity="0.21053204754379856" rx="1"/><rect x="40.8608547076259" y="786.9225935547632" width="7.694411163147169" height="8.453623908211856" fill="#00ccff" opacity="0.18004402475898248" rx="1"/><rect x="20.93865701543136" y="791.1494055088692" width="7.694411163147169" height="8.453623908211856" fill="#ff0066" opacity="0.09002201237949124" rx="1"/><rect x="39.92931636211679" y="816.1075859201791" width="9.557487854165371" height="6.170908513518728" fill="#00ccff" opacity="0.5583934282321468" rx="1"/><rect x="20.007118669922257" y="819.1930401769384" width="9.557487854165371" height="6.170908513518728" fill="#ff0066" opacity="0.2791967141160734" rx="1"/><rect x="40.78511688573871" y="845.2925782855949" width="7.845886806921541" height="8.880115116685655" fill="#00ccff" opacity="0.4041284689223693" rx="1"/><rect x="20.862919193544172" y="849.7326358439377" width="7.845886806921541" height="8.880115116685655" fill="#ff0066" opacity="0.20206423446118466" rx="1"/><rect x="38.763864359297756" y="874.4775706510108" width="11.888391859803441" height="6.166019244158179" fill="#00ccff" opacity="0.49001216655364543" rx="1"/><rect x="18.841666667103222" y="877.5605802730898" width="11.888391859803441" height="6.166019244158179" fill="#ff0066" opacity="0.24500608327682272" rx="1"/><rect x="40.27326433157392" y="903.6625630164266" width="8.869591915251126" height="9.70940380722969" fill="#00ccff" opacity="0.5664234007863382" rx="1"/><rect x="20.35106663937938" y="908.5172649200414" width="8.869591915251126" height="9.70940380722969" fill="#ff0066" opacity="0.2832117003931691" rx="1"/><rect x="41.60226970925049" y="932.8475553818424" width="6.211581159897982" height="9.95986240356226" fill="#00ccff" opacity="0.3659779438436911" rx="1"/><rect x="21.680072017055952" y="937.8274865836236" width="6.211581159897982" height="9.95986240356226" fill="#ff0066" opacity="0.18298897192184554" rx="1"/><rect x="137.04297231674263" y="691.2676450194017" width="46.31158196747107" height="260.7649027278565" fill="#000019" opacity="0.4630047924963303" rx="2"/><rect x="156.2814724420387" y="701.2676450194017" width="7.83458171687894" height="7.750764538941617" fill="#00ccff" opacity="0.37619600302451195" rx="1"/><rect x="144.70357695017094" y="705.1430272888725" width="7.83458171687894" height="7.750764538941617" fill="#ff0066" opacity="0.18809800151225597" rx="1"/><rect x="158.04244242027457" y="788.1892792620206" width="4.312641760407165" height="7.995337606872278" fill="#00ccff" opacity="0.2029058589141131" rx="1"/><rect x="146.4645469284068" y="792.1869480654567" width="4.312641760407165" height="7.995337606872278" fill="#ff0066" opacity="0.10145292945705656" rx="1"/><rect x="158.03054859652894" y="875.1109135046394" width="4.336429407898437" height="6.248164206801021" fill="#00ccff" opacity="0.16010735432154205" rx="1"/><rect x="146.45265310466118" y="878.2349956080399" width="4.336429407898437" height="6.248164206801021" fill="#ff0066" opacity="0.08005367716077103" rx="1"/><rect x="245.25401000987134" y="761.5991930504329" width="35.351690166944564" height="190.43335469682546" fill="#000019" opacity="0.5429598397908173" rx="2"/><rect x="257.9181337172441" y="771.5991930504329" width="10.023442752199117" height="8.646102124509891" fill="#00ccff" opacity="0.3342846788778633" rx="1"/><rect x="249.0802111755079" y="775.9222441126878" width="10.023442752199117" height="8.646102124509891" fill="#ff0066" opacity="0.16714233943893164" rx="1"/><rect x="258.5797223471058" y="795.403362387536" width="8.700265492475653" height="9.703736704705221" fill="#00ccff" opacity="0.2891817630243445" rx="1"/><rect x="249.74179980536965" y="800.2552307398887" width="8.700265492475653" height="9.703736704705221" fill="#ff0066" opacity="0.14459088151217225" rx="1"/><rect x="258.0761207689243" y="819.2075317246392" width="9.707468648838688" height="9.789662324774465" fill="#00ccff" opacity="0.3620900917710015" rx="1"/><rect x="249.23819822718812" y="824.1023628870265" width="9.707468648838688" height="9.789662324774465" fill="#ff0066" opacity="0.18104504588550074" rx="1"/><rect x="257.0668294355429" y="843.0117010617424" width="11.726051315601461" height="7.140637766835428" fill="#00ccff" opacity="0.10578535907105202" rx="1"/><rect x="248.22890689380674" y="846.5820199451601" width="11.726051315601461" height="7.140637766835428" fill="#ff0066" opacity="0.05289267953552601" rx="1"/><rect x="260.01976611069864" y="866.8158703988456" width="5.820177965289955" height="9.594195683392275" fill="#00ccff" opacity="0.39591880640851307" rx="1"/><rect x="251.1818435689625" y="871.6129682405417" width="5.820177965289955" height="9.594195683392275" fill="#ff0066" opacity="0.19795940320425653" rx="1"/><rect x="257.4502736247262" y="890.6200397359488" width="10.959162937234893" height="7.691063484570725" fill="#00ccff" opacity="0.31223383890749745" rx="1"/><rect x="248.61235108299002" y="894.4655714782342" width="10.959162937234893" height="7.691063484570725" fill="#ff0066" opacity="0.15611691945374873" rx="1"/><rect x="260.0351392056409" y="914.424209073052" width="5.789431775405405" height="6.018061948013041" fill="#00ccff" opacity="0.13797510907472463" rx="1"/><rect x="251.19721666390475" y="917.4332400470585" width="5.789431775405405" height="6.018061948013041" fill="#ff0066" opacity="0.06898755453736231" rx="1"/><rect x="259.71182210247775" y="938.2283784101551" width="6.436065981731765" height="6.118275220533431" fill="#00ccff" opacity="0.5581848361897712" rx="1"/><rect x="250.8738995607416" y="941.2875160204218" width="6.436065981731765" height="6.118275220533431" fill="#ff0066" opacity="0.2790924180948856" rx="1"/><rect x="364.66937108306905" y="792.9948554707214" width="68.85118228822276" height="159.0376922765369" fill="#1a0533" opacity="0.5633493939794948" rx="2"/><rect x="394.5184740986486" y="802.9948554707214" width="9.152976257063676" height="9.0617301452583" fill="#00ccff" opacity="0.3241302095875447" rx="1"/><rect x="377.30567852659294" y="807.5257205433505" width="9.152976257063676" height="9.0617301452583" fill="#ff0066" opacity="0.16206510479377234" rx="1"/><rect x="396.2110591361326" y="829.5011375168109" width="5.767806182095736" height="6.626644152362515" fill="#00ccff" opacity="0.31897666079899684" rx="1"/><rect x="378.9982635640769" y="832.8144595929922" width="5.767806182095736" height="6.626644152362515" fill="#ff0066" opacity="0.15948833039949842" rx="1"/><rect x="393.1768997032608" y="856.0074195629004" width="11.836125047839275" height="7.769272364156617" fill="#00ccff" opacity="0.5607353709779529" rx="1"/><rect x="375.96410413120515" y="859.8920557449787" width="11.836125047839275" height="7.769272364156617" fill="#ff0066" opacity="0.28036768548897645" rx="1"/><rect x="396.6005108001644" y="882.5137016089899" width="4.988902854032093" height="8.953449287208134" fill="#00ccff" opacity="0.2168463125631321" rx="1"/><rect x="379.38771522810873" y="886.9904262525939" width="4.988902854032093" height="8.953449287208134" fill="#ff0066" opacity="0.10842315628156605" rx="1"/><rect x="393.11174884813653" y="909.0199836550794" width="11.966426758087806" height="9.544909283412832" fill="#00ccff" opacity="0.5811928612136266" rx="1"/><rect x="375.8989532760809" y="913.7924382967858" width="11.966426758087806" height="9.544909283412832" fill="#ff0066" opacity="0.2905964306068133" rx="1"/><rect x="395.8935694021391" y="935.5262657011688" width="6.402785650082581" height="6.868871052020432" fill="#00ccff" opacity="0.3175742656033426" rx="1"/><rect x="378.68077383008347" y="938.960701227179" width="6.402785650082581" height="6.868871052020432" fill="#ff0066" opacity="0.1587871328016713" rx="1"/><rect x="477.5215479749072" y="831.1089098642368" width="32.187968194994134" height="120.92363788302141" fill="#1a0533" opacity="0.5327679404133856" rx="2"/><rect x="487.9875716131617" y="841.1089098642368" width="11.255920918485131" height="9.621026782230713" fill="#00ccff" opacity="0.2409058344180011" rx="1"/><rect x="479.94057956441316" y="845.9194232553522" width="11.255920918485131" height="9.621026782230713" fill="#ff0066" opacity="0.12045291720900055" rx="1"/><rect x="488.7461871918631" y="881.4167891585773" width="9.738689761082338" height="6.788227300343157" fill="#00ccff" opacity="0.5808349603509612" rx="1"/><rect x="480.69919514311454" y="884.8109028087489" width="9.738689761082338" height="6.788227300343157" fill="#ff0066" opacity="0.2904174801754806" rx="1"/><rect x="488.981242720499" y="921.7246684529177" width="9.268578703810595" height="6.340784525578093" fill="#00ccff" opacity="0.38611555795327657" rx="1"/><rect x="480.9342506717504" y="924.8950607157068" width="9.268578703810595" height="6.340784525578093" fill="#ff0066" opacity="0.19305777897663828" rx="1"/><rect x="566.4799676059" y="730.2854084829534" width="54.680196723127786" height="221.74713926430493" fill="#1a0533" opacity="0.6071952408196394" rx="2"/><rect x="589.0413390155978" y="740.2854084829534" width="9.557453903732227" height="9.177537415916458" fill="#00ccff" opacity="0.2768368391033348" rx="1"/><rect x="575.3712898348158" y="744.8741771909116" width="9.557453903732227" height="9.177537415916458" fill="#ff0066" opacity="0.1384184195516674" rx="1"/><rect x="591.5309627751194" y="795.7221932990296" width="4.578206384689129" height="7.648393708665015" fill="#00ccff" opacity="0.25844077015259326" rx="1"/><rect x="577.8609135943374" y="799.5463901533622" width="4.578206384689129" height="7.648393708665015" fill="#ff0066" opacity="0.12922038507629663" rx="1"/><rect x="590.854211759254" y="851.1589781151058" width="5.931708416419967" height="8.740483420607747" fill="#00ccff" opacity="0.4976945271477323" rx="1"/><rect x="577.184162578472" y="855.5292198254097" width="5.931708416419967" height="8.740483420607747" fill="#ff0066" opacity="0.24884726357386616" rx="1"/><rect x="588.6961062158682" y="906.5957629311821" width="10.247919503191468" height="6.841336189965097" fill="#00ccff" opacity="0.4014509485339399" rx="1"/><rect x="575.0260570350862" y="910.0164310261647" width="10.247919503191468" height="6.841336189965097" fill="#ff0066" opacity="0.20072547426696996" rx="1"/><rect x="686.6344096340786" y="796.6822439680534" width="40.5309009529955" height="155.35030377920492" fill="#1a0533" opacity="0.49303568564193223" rx="2"/><rect x="702.1781275438095" y="806.6822439680534" width="9.443465133533689" height="9.739367340630704" fill="#00ccff" opacity="0.4492106760035294" rx="1"/><rect x="692.0454023055606" y="811.5519276383687" width="9.443465133533689" height="9.739367340630704" fill="#ff0066" opacity="0.2246053380017647" rx="1"/><rect x="704.6143204908852" y="845.5198199128546" width="4.571079239382194" height="8.242421255969075" fill="#00ccff" opacity="0.41752182341123045" rx="1"/><rect x="694.4815952526363" y="849.6410305408391" width="4.571079239382194" height="8.242421255969075" fill="#ff0066" opacity="0.20876091170561523" rx="1"/><rect x="702.5490085090393" y="884.3573958576559" width="8.7017032030741" height="6.1514743082578" fill="#00ccff" opacity="0.5888208127787385" rx="1"/><rect x="692.4162832707904" y="887.4331330117848" width="8.7017032030741" height="6.1514743082578" fill="#ff0066" opacity="0.2944104063893693" rx="1"/><rect x="704.2316817681381" y="923.1949718024571" width="5.336356684876689" height="7.54600537790591" fill="#00ccff" opacity="0.5235009819789559" rx="1"/><rect x="694.0989565298892" y="926.96797449141" width="5.336356684876689" height="7.54600537790591" fill="#ff0066" opacity="0.26175049098947795" rx="1"/><rect x="800.0255429069571" y="672.0237109861392" width="81.38162224352862" height="280.008836761119" fill="#1a0533" opacity="0.5489391056236204" rx="2"/><rect x="835.5897166474233" y="682.0237109861392" width="10.2532747625963" height="8.979275326006878" fill="#00ccff" opacity="0.4842296511596603" rx="1"/><rect x="815.2443110865411" y="686.5133486491427" width="10.2532747625963" height="8.979275326006878" fill="#ff0066" opacity="0.24211482557983016" rx="1"/><rect x="835.1767022419201" y="775.3599899065123" width="11.079303573602648" height="7.724792689486591" fill="#00ccff" opacity="0.26923489332414113" rx="1"/><rect x="814.8312966810379" y="779.2223862512556" width="11.079303573602648" height="7.724792689486591" fill="#ff0066" opacity="0.13461744666207057" rx="1"/><rect x="838.4366536078594" y="868.6962688268852" width="4.559400841723988" height="8.047150659851532" fill="#00ccff" opacity="0.36573092671244656" rx="1"/><rect x="818.0912480469772" y="872.719844156811" width="4.559400841723988" height="8.047150659851532" fill="#ff0066" opacity="0.18286546335622328" rx="1"/><rect x="932.0302953762073" y="862.2698535705614" width="36.27775016852602" height="89.76269417669687" fill="#1a0533" opacity="0.4861193713699746" rx="2"/><rect x="944.1964130232102" y="872.2698535705614" width="11.945514874520132" height="7.983458608850711" fill="#00ccff" opacity="0.3485164855021323" rx="1"/><rect x="935.1269754810787" y="876.2615828749867" width="11.945514874520132" height="7.983458608850711" fill="#ff0066" opacity="0.17425824275106616" rx="1"/><rect x="945.4402611796837" y="894.7105271147357" width="9.457818561573005" height="9.513291790968108" fill="#00ccff" opacity="0.42633251634573854" rx="1"/><rect x="936.3708236375522" y="899.4671730102198" width="9.457818561573005" height="9.513291790968108" fill="#ff0066" opacity="0.21316625817286927" rx="1"/><rect x="945.1523462133837" y="917.1512006589098" width="10.033648494173224" height="7.046254637894746" fill="#00ccff" opacity="0.45454130914400825" rx="1"/><rect x="936.0829086712522" y="920.6743279778572" width="10.033648494173224" height="7.046254637894746" fill="#ff0066" opacity="0.22727065457200413" rx="1"/><rect x="946.7374535905517" y="939.591874203084" width="6.863433739837127" height="6.060464080437194" fill="#00ccff" opacity="0.261669785310903" rx="1"/><rect x="937.6680160484202" y="942.6221062433026" width="6.863433739837127" height="6.060464080437194" fill="#ff0066" opacity="0.1308348926554515" rx="1"/><rect x="1027.3268988442903" y="756.1673294767196" width="64.89668896768632" height="195.86521827053866" fill="#000019" opacity="0.6760260978657813" rx="2"/><rect x="1055.4550571680197" y="766.1673294767196" width="8.640372320227412" height="7.743906875547" fill="#00ccff" opacity="0.11549969229742413" rx="1"/><rect x="1039.2308849260983" y="770.0392829144931" width="8.640372320227412" height="7.743906875547" fill="#ff0066" opacity="0.057749846148712064" rx="1"/><rect x="1056.7768546211946" y="815.1336340443543" width="5.996777413877839" height="7.117196921519282" fill="#00ccff" opacity="0.5856479930425175" rx="1"/><rect x="1040.5526823792732" y="818.6922325051139" width="5.996777413877839" height="7.117196921519282" fill="#ff0066" opacity="0.29282399652125873" rx="1"/><rect x="1055.1052136752069" y="864.0999386119889" width="9.340059305853224" height="6.293004737303826" fill="#00ccff" opacity="0.13290662193505715" rx="1"/><rect x="1038.8810414332854" y="867.2464409806408" width="9.340059305853224" height="6.293004737303826" fill="#ff0066" opacity="0.06645331096752857" rx="1"/><rect x="1054.8585187396636" y="913.0662431796236" width="9.833449176939542" height="7.067931873972512" fill="#00ccff" opacity="0.5316275940350321" rx="1"/><rect x="1038.6343464977422" y="916.6002091166099" width="9.833449176939542" height="7.067931873972512" fill="#ff0066" opacity="0.26581379701751606" rx="1"/><rect x="1150.8259396350072" y="653.394452366837" width="53.23920662590284" height="298.6380953804213" fill="#1a0533" opacity="0.45680447108037875" rx="2"/><rect x="1174.9544579586839" y="663.394452366837" width="4.982169978549278" height="7.206740265061786" fill="#00ccff" opacity="0.5467477681922605" rx="1"/><rect x="1161.6446563022082" y="666.9978224993679" width="4.982169978549278" height="7.206740265061786" fill="#ff0066" opacity="0.2733738840961302" rx="1"/><rect x="1171.4973230432945" y="700.7242142893896" width="11.896439809328047" height="9.038903422429902" fill="#00ccff" opacity="0.1517987719624766" rx="1"/><rect x="1158.1875213868188" y="705.2436660006045" width="11.896439809328047" height="9.038903422429902" fill="#ff0066" opacity="0.0758993859812383" rx="1"/><rect x="1172.5627550472418" y="738.0539762119423" width="9.765575801433432" height="7.44571174249186" fill="#00ccff" opacity="0.22650036942830784" rx="1"/><rect x="1159.2529533907662" y="741.7768320831882" width="9.765575801433432" height="7.44571174249186" fill="#ff0066" opacity="0.11325018471415392" rx="1"/><rect x="1175.2783572045803" y="775.3837381344949" width="4.334371486756572" height="6.193376880184137" fill="#00ccff" opacity="0.5595924423680623" rx="1"/><rect x="1161.9685555481046" y="778.480426574587" width="4.334371486756572" height="6.193376880184137" fill="#ff0066" opacity="0.27979622118403114" rx="1"/><rect x="1174.8453813786257" y="812.7135000570477" width="5.200323138665484" height="8.562508357354092" fill="#00ccff" opacity="0.5019998510838486" rx="1"/><rect x="1161.53557972215" y="816.9947542357247" width="5.200323138665484" height="8.562508357354092" fill="#ff0066" opacity="0.2509999255419243" rx="1"/><rect x="1171.6673335541661" y="850.0432619796003" width="11.556418787584738" height="6.54423573160177" fill="#00ccff" opacity="0.31102004782553294" rx="1"/><rect x="1158.3575318976905" y="853.3153798454011" width="11.556418787584738" height="6.54423573160177" fill="#ff0066" opacity="0.15551002391276647" rx="1"/><rect x="1175.3576820712437" y="887.3730239021529" width="4.175721753429556" height="7.681281805429906" fill="#00ccff" opacity="0.29624162237072404" rx="1"/><rect x="1162.047880414768" y="891.2136648048679" width="4.175721753429556" height="7.681281805429906" fill="#ff0066" opacity="0.14812081118536202" rx="1"/><rect x="1174.5494433225945" y="924.7027858247056" width="5.792199250727938" height="7.670991900766033" fill="#00ccff" opacity="0.29823679332580344" rx="1"/><rect x="1161.2396416661188" y="928.5382817750886" width="5.792199250727938" height="7.670991900766033" fill="#ff0066" opacity="0.14911839666290172" rx="1"/><rect x="1243.5749178923609" y="869.1711064007067" width="83.80503890891677" height="82.86144134655163" fill="#000019" opacity="0.6263252524953161" rx="2"/><rect x="1282.223927753331" y="879.1711064007067" width="6.507019186976137" height="6.826420230983389" fill="#00ccff" opacity="0.3924547683895693" rx="1"/><rect x="1261.2726680261019" y="882.5843165161983" width="6.507019186976137" height="6.826420230983389" fill="#ff0066" opacity="0.19622738419478464" rx="1"/><rect x="1279.541256239298" y="895.743394670017" width="11.872362215042198" height="6.489029128218309" fill="#00ccff" opacity="0.48913431667935436" rx="1"/><rect x="1258.5899965120689" y="898.9879092341262" width="11.872362215042198" height="6.489029128218309" fill="#ff0066" opacity="0.24456715833967718" rx="1"/><rect x="1280.296734270476" y="912.3156829393273" width="10.361406152686431" height="6.676383894094355" fill="#00ccff" opacity="0.1262944049961619" rx="1"/><rect x="1259.3454745432468" y="915.6538748863745" width="10.361406152686431" height="6.676383894094355" fill="#ff0066" opacity="0.06314720249808095" rx="1"/><rect x="1282.5450414553156" y="928.8879712086376" width="5.864791783007046" height="9.144739430198618" fill="#00ccff" opacity="0.26895098999816713" rx="1"/><rect x="1261.5937817280865" y="933.4603409237369" width="5.864791783007046" height="9.144739430198618" fill="#ff0066" opacity="0.13447549499908357" rx="1"/><rect x="1280.3321827685768" y="945.460259477948" width="10.290509156484742" height="8.4798491873033" fill="#00ccff" opacity="0.47802559320768934" rx="1"/><rect x="1259.3809230413476" y="949.7001840715996" width="10.290509156484742" height="8.4798491873033" fill="#ff0066" opacity="0.23901279660384467" rx="1"/><rect x="1364.8045129549703" y="640.9328661139433" width="39.38520456417119" height="311.09968163331496" fill="#000019" opacity="0.46594235290911573" rx="2"/><rect x="1381.7440392833075" y="650.9328661139433" width="5.506151907496656" height="9.491968979940742" fill="#00ccff" opacity="0.4082622580249473" rx="1"/><rect x="1371.8977381422649" y="655.6788506039137" width="5.506151907496656" height="9.491968979940742" fill="#ff0066" opacity="0.20413112901247366" rx="1"/><rect x="1380.6393686485571" y="689.8203263181076" width="7.715493176997521" height="9.802540363697926" fill="#00ccff" opacity="0.19352777923772294" rx="1"/><rect x="1370.7930675075145" y="694.7215964999566" width="7.715493176997521" height="9.802540363697926" fill="#ff0066" opacity="0.09676388961886147" rx="1"/><rect x="1380.6351792904632" y="728.707786522272" width="7.72387189318516" height="6.228782559798281" fill="#00ccff" opacity="0.17237474237856798" rx="1"/><rect x="1370.7888781494205" y="731.8221778021712" width="7.72387189318516" height="6.228782559798281" fill="#ff0066" opacity="0.08618737118928399" rx="1"/><rect x="1380.0763231886265" y="767.5952467264365" width="8.841584096858647" height="9.807047966822761" fill="#00ccff" opacity="0.14127617588762106" rx="1"/><rect x="1370.2300220475838" y="772.4987707098478" width="8.841584096858647" height="9.807047966822761" fill="#ff0066" opacity="0.07063808794381053" rx="1"/><rect x="1380.1045649142716" y="806.4827069306008" width="8.785100645568477" height="8.636655734534529" fill="#00ccff" opacity="0.49101865640632314" rx="1"/><rect x="1370.258263773229" y="810.801034797868" width="8.785100645568477" height="8.636655734534529" fill="#ff0066" opacity="0.24550932820316157" rx="1"/><rect x="1381.3419807852113" y="845.3701671347651" width="6.310268903689056" height="7.557379984659464" fill="#00ccff" opacity="0.1560271776178915" rx="1"/><rect x="1371.4956796441686" y="849.1488571270949" width="6.310268903689056" height="7.557379984659464" fill="#ff0066" opacity="0.07801358880894575" rx="1"/><rect x="1382.0236510841698" y="884.2576273389295" width="4.946928305771884" height="7.300229078461469" fill="#00ccff" opacity="0.5277966728964347" rx="1"/><rect x="1372.1773499431272" y="887.9077418781602" width="4.946928305771884" height="7.300229078461469" fill="#ff0066" opacity="0.26389833644821736" rx="1"/><rect x="1382.193662329855" y="923.145087543094" width="4.606905814401551" height="6.335393437262483" fill="#00ccff" opacity="0.4867652219223709" rx="1"/><rect x="1372.3473611888123" y="926.3127842617251" width="4.606905814401551" height="6.335393437262483" fill="#ff0066" opacity="0.24338261096118546" rx="1"/><rect x="1476.5446052529253" y="750.3315601498662" width="39.69503144493677" height="201.70098759739216" fill="#000019" opacity="0.6304645697424338" rx="2"/><rect x="1492.4891735835672" y="760.3315601498662" width="7.805894783652828" height="7.9021623083162496" fill="#00ccff" opacity="0.11890834735681033" rx="1"/><rect x="1482.565415722333" y="764.2826413040243" width="7.805894783652828" height="7.9021623083162496" fill="#ff0066" opacity="0.059454173678405164" rx="1"/><rect x="1490.5822231205138" y="827.5652226823302" width="11.619795709759881" height="8.929919334810673" fill="#00ccff" opacity="0.389713386979353" rx="1"/><rect x="1480.6584652592796" y="832.0301823497355" width="11.619795709759881" height="8.929919334810673" fill="#ff0066" opacity="0.1948566934896765" rx="1"/><rect x="1491.0993709513216" y="894.7988852147943" width="10.585500048144137" height="7.233508643981421" fill="#00ccff" opacity="0.10662480073669572" rx="1"/><rect x="1481.1756130900874" y="898.415639536785" width="10.585500048144137" height="7.233508643981421" fill="#ff0066" opacity="0.05331240036834786" rx="1"/><rect x="1594.0297495466725" y="630.8450743744255" width="59.1219841663544" height="321.18747337283276" fill="#000019" opacity="0.6868722089070063" rx="2"/><rect x="1619.6617424419758" y="640.8450743744255" width="7.857998375747818" height="6.166058289857129" fill="#00ccff" opacity="0.30259611592688507" rx="1"/><rect x="1604.8812464003872" y="643.9281035193541" width="7.857998375747818" height="6.166058289857129" fill="#ff0066" opacity="0.15129805796344253" rx="1"/><rect x="1618.4845795672115" y="747.9075654987031" width="10.212324125276023" height="9.833355241416339" fill="#00ccff" opacity="0.4824390789685862" rx="1"/><rect x="1603.704083525623" y="752.8242431194112" width="10.212324125276023" height="9.833355241416339" fill="#ff0066" opacity="0.2412195394842931" rx="1"/><rect x="1619.478679503891" y="854.9700566229807" width="8.224124251917033" height="8.895660564977597" fill="#00ccff" opacity="0.46274532819230696" rx="1"/><rect x="1604.6981834623025" y="859.4178869054695" width="8.224124251917033" height="8.895660564977597" fill="#ff0066" opacity="0.23137266409615348" rx="1"/><rect x="1713.6362397562796" y="577.2423839259991" width="59.00010365271012" height="374.7901638212591" fill="#000019" opacity="0.6678282884573163" rx="2"/><rect x="1738.800169310486" y="587.2423839259991" width="8.672244544297513" height="6.399541105236751" fill="#00ccff" opacity="0.5739598692334164" rx="1"/><rect x="1724.0501433973084" y="590.4421544786175" width="8.672244544297513" height="6.399541105236751" fill="#ff0066" opacity="0.2869799346167082" rx="1"/><rect x="1740.5161903075677" y="634.0911544036564" width="5.240202550133738" height="7.304765735125347" fill="#00ccff" opacity="0.43775202867988317" rx="1"/><rect x="1725.7661643943902" y="637.7435372712191" width="5.240202550133738" height="7.304765735125347" fill="#ff0066" opacity="0.21887601433994158" rx="1"/><rect x="1740.330589086127" y="680.9399248813139" width="5.611404993015203" height="7.572151933231426" fill="#00ccff" opacity="0.5741108136889783" rx="1"/><rect x="1725.5805631729495" y="684.7260008479296" width="5.611404993015203" height="7.572151933231426" fill="#ff0066" opacity="0.28705540684448916" rx="1"/><rect x="1737.3617367088705" y="727.7886953589713" width="11.549109747528357" height="8.610304534111709" fill="#00ccff" opacity="0.11987801760432265" rx="1"/><rect x="1722.611710795693" y="732.0938476260271" width="11.549109747528357" height="8.610304534111709" fill="#ff0066" opacity="0.059939008802161325" rx="1"/><rect x="1737.9177780269918" y="774.6374658366286" width="10.437027111285605" height="8.705277581397741" fill="#00ccff" opacity="0.3779920863169227" rx="1"/><rect x="1723.1677521138142" y="778.9901046273275" width="10.437027111285605" height="8.705277581397741" fill="#ff0066" opacity="0.18899604315846136" rx="1"/><rect x="1739.7433003803583" y="821.4862363142861" width="6.785982404552861" height="7.049053788429371" fill="#00ccff" opacity="0.39319732945719676" rx="1"/><rect x="1724.9932744671808" y="825.0107632085007" width="6.785982404552861" height="7.049053788429371" fill="#ff0066" opacity="0.19659866472859838" rx="1"/><rect x="1740.0964038868192" y="868.3350067919434" width="6.0797753916307755" height="9.071160112291379" fill="#00ccff" opacity="0.13376054589957012" rx="1"/><rect x="1725.3463779736417" y="872.8705868480891" width="6.0797753916307755" height="9.071160112291379" fill="#ff0066" opacity="0.06688027294978506" rx="1"/><rect x="1737.2091498733985" y="915.1837772696008" width="11.854283418472455" height="7.44541230738289" fill="#00ccff" opacity="0.1969700397916534" rx="1"/><rect x="1722.459123960221" y="918.9064834232922" width="11.854283418472455" height="7.44541230738289" fill="#ff0066" opacity="0.0984850198958267" rx="1"/><rect x="1833.4455930472923" y="611.3144770174554" width="59.65401327462262" height="340.71807072980283" fill="#000019" opacity="0.5829372298165544" rx="2"/><rect x="1857.5281914329455" y="621.3144770174554" width="11.488816503316354" height="9.74798807402793" fill="#00ccff" opacity="0.35083868700331977" rx="1"/><rect x="1842.6146881142897" y="626.1884710544693" width="11.488816503316354" height="9.74798807402793" fill="#ff0066" opacity="0.17541934350165989" rx="1"/><rect x="1859.6386824586984" y="689.4580911634159" width="7.267834451810418" height="6.586033322984826" fill="#00ccff" opacity="0.4689072883848351" rx="1"/><rect x="1844.7251791400427" y="692.7511078249083" width="7.267834451810418" height="6.586033322984826" fill="#ff0066" opacity="0.23445364419241754" rx="1"/><rect x="1857.4355081139215" y="757.6017053093765" width="11.674183141364292" height="6.392273979352851" fill="#00ccff" opacity="0.4543899150924734" rx="1"/><rect x="1842.5220047952657" y="760.797842299053" width="11.674183141364292" height="6.392273979352851" fill="#ff0066" opacity="0.2271949575462367" rx="1"/><rect x="1859.412418118774" y="825.745319455337" width="7.72036313165919" height="9.273367068561113" fill="#00ccff" opacity="0.13828203411267187" rx="1"/><rect x="1844.4989148001182" y="830.3820029896176" width="7.72036313165919" height="9.273367068561113" fill="#ff0066" opacity="0.06914101705633593" rx="1"/><rect x="1859.465043933239" y="893.8889336012976" width="7.61511150272915" height="8.521481127133939" fill="#00ccff" opacity="0.563741933918498" rx="1"/><rect x="1844.5515406145832" y="898.1496741648646" width="7.61511150272915" height="8.521481127133939" fill="#ff0066" opacity="0.281870966959249" rx="1"/><path d="M1037.8244530590773 843.2888773137911 Q1054.3980854457238 754.8895481461402 1057.7128119230533 666.4902189784893" stroke="#000000" stroke-width="4.051305021171296" fill="none" stroke-linecap="round"/><path d="M1057.7128119230533 666.4902189784893 Q1097.7591829629985 646.4902189784893 1107.3847432665957 666.4902189784893" stroke="#000000" stroke-width="3.615349410477874" fill="none" stroke-linecap="round" opacity="0.6"/><path d="M1057.7128119230533 666.4902189784893 Q1094.851608916859 655.5376808990829 1105.8135460470553 684.5851428196765" stroke="#000000" stroke-width="3.318595782695011" fill="none" stroke-linecap="round" opacity="0.6"/><path d="M1057.7128119230533 666.4902189784893 Q1051.4385063288312 657.6824075991209 1040.682518477701 688.8745962197524" stroke="#000000" stroke-width="2.3940862050266207" fill="none" stroke-linecap="round" opacity="0.6"/><path d="M1057.7128119230533 666.4902189784893 Q1040.138253654314 650.5105357424313 1002.0576533808941 674.5308525063732" stroke="#000000" stroke-width="2.1755444179697765" fill="none" stroke-linecap="round" opacity="0.6"/><path d="M1057.7128119230533 666.4902189784893 Q1043.0360065036568 643.9289038714815 1022.2553077692821 661.3675887644737" stroke="#000000" stroke-width="2.2795600407476444" fill="none" stroke-linecap="round" opacity="0.6"/><path d="M1057.7128119230533 666.4902189784893 Q1067.2138498077209 638.1348077984294 1044.9990247384187 649.7793966183693" stroke="#000000" stroke-width="2.463625346884044" fill="none" stroke-linecap="round" opacity="0.6"/><path d="M897.8573622409854 961.1521960844175 Q893.7191250533143 839.3000636166661 892.8914776157801 717.4479311489147" stroke="#000000" stroke-width="6.28742916749032" fill="none" stroke-linecap="round"/><path d="M892.8914776157801 717.4479311489147 Q939.8634058886356 697.4479311489147 966.6931149691095 717.4479311489147" stroke="#000000" stroke-width="2.6581032375474702" fill="none" stroke-linecap="round" opacity="0.6"/><path d="M892.8914776157801 717.4479311489147 Q910.9867219790053 703.2129417477606 923.541094543811 728.9779523466066" stroke="#000000" stroke-width="2.2176046507008387" fill="none" stroke-linecap="round" opacity="0.6"/><path d="M892.8914776157801 717.4479311489147 Q895.3847041851136 704.7025321451927 881.8527087044151 731.9571331414708" stroke="#000000" stroke-width="2.3049399671854776" fill="none" stroke-linecap="round" opacity="0.6"/><path d="M892.8914776157801 717.4479311489147 Q884.4200737260987 700.0228315817504 857.2459053302675 722.5977320145862" stroke="#000000" stroke-width="3.461109001064" fill="none" stroke-linecap="round" opacity="0.6"/><path d="M892.8914776157801 717.4479311489147 Q876.1240551587816 694.3702770291522 850.2860467428744 711.2926229093897" stroke="#000000" stroke-width="2.9038822722863133" fill="none" stroke-linecap="round" opacity="0.6"/><path d="M633.1978401525872 850.2495892230071 Q626.6926388178701 797.3610995971507 625.3915985509268 744.4726099712943" stroke="#000000" stroke-width="4.023787983698721" fill="none" stroke-linecap="round"/><path d="M625.3915985509268 744.4726099712943 Q648.5443235602099 724.4726099712943 658.1989330361129 744.4726099712943" stroke="#000000" stroke-width="3.3420704108062367" fill="none" stroke-linecap="round" opacity="0.6"/><path d="M625.3915985509268 744.4726099712943 Q647.4432451570468 730.1083104164431 655.3537394357194 755.744010861592" stroke="#000000" stroke-width="2.9558656478663594" fill="none" stroke-linecap="round" opacity="0.6"/><path d="M625.3915985509268 744.4726099712943 Q620.3317657217799 732.5017668724267 613.1742474340061 760.530923773559" stroke="#000000" stroke-width="3.9646195587619717" fill="none" stroke-linecap="round" opacity="0.6"/><path d="M625.3915985509268 744.4726099712943 Q622.3782114357315 727.2327414969618 587.1817840815769 749.9928730226294" stroke="#000000" stroke-width="3.7144148973083158" fill="none" stroke-linecap="round" opacity="0.6"/><path d="M625.3915985509268 744.4726099712943 Q616.737791658158 720.593537892235 571.6917574108384 736.7144658131755" stroke="#000000" stroke-width="2.933356340260561" fill="none" stroke-linecap="round" opacity="0.6"/><path d="M625.3915985509268 744.4726099712943 Q629.798781205093 719.924029314655 618.4703728668254 735.3754486580156" stroke="#000000" stroke-width="3.7423942507576182" fill="none" stroke-linecap="round" opacity="0.6"/><path d="M625.3915985509268 744.4726099712943 Q651.7426415159099 718.0473078392422 659.5516483231999 731.62200570719" stroke="#000000" stroke-width="2.5714810142692834" fill="none" stroke-linecap="round" opacity="0.6"/><rect x="0" y="1000" width="1920" height="80" fill="#00000d" opacity="0.8"/><line x1="0" y1="1040" x2="1920" y2="1040" stroke="#00ccff" stroke-opacity="0.15" stroke-width="2" stroke-dasharray="30,20"/><rect x="0" y="930" width="1920" height="150" fill="url(#glow40)"/><rect x="0" y="980" width="1920" height="100" fill="#00ccff" opacity="0.04"/><rect x="702.5799605396063" y="1044.18407349479" width="52.713894739913265" height="2" fill="#ff0066" opacity="0.02710547522807156" rx="1"/><rect x="1443.1329657517217" y="1006.857926549124" width="80.78646386991872" height="2" fill="#ff0066" opacity="0.03284787332006914" rx="1"/><rect x="1011.5810164184265" y="1040.8368657671" width="47.32740345581607" height="2" fill="#ff0066" opacity="0.034107151276922584" rx="1"/><rect x="1397.9951788759781" y="1054.945269332953" width="22.80954581750779" height="2" fill="#ff0066" opacity="0.04047516971371956" rx="1"/><rect x="385.03318780684685" y="1053.5255596725096" width="79.82965600207207" height="2" fill="#ff0066" opacity="0.04828709197889247" rx="1"/><rect x="333.4759927572394" y="1050.554578767753" width="111.64528827919747" height="2" fill="#ff0066" opacity="0.04637017920295945" rx="1"/><rect x="1756.050607374881" y="1003.4752972897783" width="37.03000257653883" height="2" fill="#ff0066" opacity="0.024624751667637553" rx="1"/><rect x="1771.3217644047277" y="1003.2045943111192" width="104.31926164410991" height="2" fill="#ff0066" opacity="0.031142147241891863" rx="1"/><rect x="423.6480354759023" y="1022.6254899060879" width="52.26865798520592" height="2" fill="#ff0066" opacity="0.05127149814536597" rx="1"/><rect x="44.98384774778593" y="1018.2257279563289" width="55.79158828030145" height="2" fill="#ff0066" opacity="0.04400755891204057" rx="1"/><rect x="248.65591904349995" y="1018.1022065873495" width="78.80011810427534" height="2" fill="#ff0066" opacity="0.042791834246085916" rx="1"/><rect x="877.7186516480797" y="1045.2734367608264" width="63.98085999860914" height="2" fill="#ff0066" opacity="0.0521826620102354" rx="1"/><rect x="1108.994701166869" y="1030.409411469104" width="32.67092419151937" height="2" fill="#ff0066" opacity="0.02592974859427888" rx="1"/><rect x="1650.8654638498242" y="1042.0993826962308" width="55.03984781797972" height="2" fill="#ff0066" opacity="0.02557479367721239" rx="1"/><rect x="1275.4340769339897" y="1013.5432296184691" width="82.79985410226504" height="2" fill="#ff0066" opacity="0.046602219489077626" rx="1"/><rect x="1124.306132012118" y="1033.6469571231041" width="95.77858261665762" height="2" fill="#ff0066" opacity="0.021398615073738296" rx="1"/><rect x="1467.1315449911942" y="1032.6767990767669" width="66.69236779368771" height="2" fill="#ff0066" opacity="0.024003450945951847" rx="1"/><rect x="1265.4827958311614" y="1025.7485659201045" width="43.368134448157655" height="2" fill="#ff0066" opacity="0.05711119210280273" rx="1"/><rect x="224.84472116102575" y="1052.4426922976138" width="30.775935908494503" height="2" fill="#ff0066" opacity="0.05027685005922729" rx="1"/><rect x="327.7988309431353" y="1037.1670625445356" width="115.75617560086684" height="2" fill="#ff0066" opacity="0.035443272752557715" rx="1"/><rect x="568.1140370499609" y="1018.9195881036388" width="53.61074562035751" height="2" fill="#ff0066" opacity="0.02860636356487087" rx="1"/><rect x="880.44353058572" y="1043.573801862908" width="28.449309693754024" height="2" fill="#ff0066" opacity="0.05679388734437382" rx="1"/><rect x="1367.7730253543177" y="1040.0889615528492" width="52.37893845242889" height="2" fill="#ff0066" opacity="0.05903179422929691" rx="1"/><rect x="1815.824636196677" y="1024.6495419099576" width="66.87705797769061" height="2" fill="#ff0066" opacity="0.0336765270246371" rx="1"/><rect x="1816.8219467757322" y="1014.7999178000725" width="59.024231801513636" height="2" fill="#ff0066" opacity="0.022133745616798695" rx="1"/><rect x="1196.1976261241823" y="1056.0462249247464" width="83.91066670508837" height="2" fill="#ff0066" opacity="0.04630861051061857" rx="1"/><rect x="1041.953002606042" y="1041.708488045658" width="28.707247257397334" height="2" fill="#ff0066" opacity="0.03659334705597567" rx="1"/><rect x="1134.3048175830172" y="1022.959951312039" width="54.29293917359154" height="2" fill="#ff0066" opacity="0.037532602850704595" rx="1"/><rect x="1639.558977419408" y="1052.2130644163612" width="73.27649921022274" height="2" fill="#ff0066" opacity="0.02244741138127805" rx="1"/><rect x="1456.211419593592" y="1021.300246781041" width="63.90170132832176" height="2" fill="#ff0066" opacity="0.035393797227971674" rx="1"/><text x="1900" y="1060" font-family="Arial, sans-serif" font-size="11" fill="#fff" opacity="0.08" text-anchor="end" letter-spacing="2">GTA 6 REWARDS · WALLPAPER 041</text>
</svg>