<?xml version="1.0" encoding="UTF-8"?>
<svg xmlns="http://www.w3.org/2000/svg" width="1920" height="1080" viewBox="0 0 1920 1080">
<defs>
    <linearGradient id="bg10" x1="0%" y1="0%" x2="0%" y2="100%">
      <stop offset="0%" stop-color="#2ec4b6"/>
      <stop offset="50%" stop-color="#009183"/>
      <stop offset="100%" stop-color="#2ec4b6"/>
    </linearGradient>
    <linearGradient id="sun10" x1="0%" y1="0%" x2="100%" y2="100%">
      <stop offset="0%" stop-color="#ff9f1c"/>
      <stop offset="100%" stop-color="#ffbf69"/>
    </linearGradient>
    <radialGradient id="glow10" cx="50%" cy="70%" r="50%">
      <stop offset="0%" stop-color="#ff9f1c" stop-opacity="0.3"/>
      <stop offset="100%" stop-color="#2ec4b6" stop-opacity="0"/>
    </radialGradient>
  </defs><rect width="1920" height="1080" fill="url(#bg10)"/><circle cx="1400.9841662601066" cy="476.5273231725505" r="840.6308030338564" fill="#ff9f1c" opacity="0.09574176381475799"/><circle cx="1600.9841662601066" cy="376.5273231725505" r="489.66923888997854" fill="#ffbf69" opacity="0.06618295666207163"/><circle cx="340.95219831004556" cy="449.0155800476241" r="63.34245150055328" fill="url(#sun10)" opacity="0.8766284164685356"/><circle cx="340.95219831004556" cy="449.0155800476241" r="58.34245150055328" fill="#2ec4b6" opacity="0.3"/><rect x="13.329438658740708" y="754.4497463746112" width="85.5402689137357" height="167.34113245442072" fill="#2ec4b6" opacity="0.6808124450223549" rx="2"/><rect x="52.54475752579625" y="764.4497463746112" width="7.109631179624617" height="8.781521201781352" fill="#ffbf69" opacity="0.3602894135658372" rx="1"/><rect x="31.159690297362324" y="768.8405069755019" width="7.109631179624617" height="8.781521201781352" fill="#ff9f1c" opacity="0.1801447067829186" rx="1"/><rect x="52.172358891268345" y="820.2301238594181" width="7.854428448680423" height="7.178335535614364" fill="#ffbf69" opacity="0.2711658172242264" rx="1"/><rect x="30.78729166283442" y="823.8192916272253" width="7.854428448680423" height="7.178335535614364" fill="#ff9f1c" opacity="0.1355829086121132" rx="1"/><rect x="52.56361184584993" y="876.0105013442251" width="7.071922539517265" height="8.068904269968371" fill="#ffbf69" opacity="0.12293119743068964" rx="1"/><rect x="31.178544617415998" y="880.0449534792093" width="7.071922539517265" height="8.068904269968371" fill="#ff9f1c" opacity="0.06146559871534482" rx="1"/><rect x="122.04794674693791" y="819.4960866168831" width="32.30940125470734" height="102.29479221214885" fill="#14aa9c" opacity="0.4439595773219968" rx="2"/><rect x="135.63080661758565" y="829.4960866168831" width="5.14368151341185" height="9.0702501207288" fill="#ffbf69" opacity="0.34189114878929483" rx="1"/><rect x="127.55345630390882" y="834.0312116772475" width="5.14368151341185" height="9.0702501207288" fill="#ff9f1c" opacity="0.17094557439464741" rx="1"/><rect x="134.5308000593285" y="863.5943506875993" width="7.343694629926164" height="8.518555555147714" fill="#ffbf69" opacity="0.49755416787172535" rx="1"/><rect x="126.45344974565165" y="867.8536284651732" width="7.343694629926164" height="8.518555555147714" fill="#ff9f1c" opacity="0.24877708393586268" rx="1"/><rect x="135.57127699548641" y="897.6926147583156" width="5.262740757610356" height="7.77862045769082" fill="#ffbf69" opacity="0.5589543932720447" rx="1"/><rect x="127.49392668180957" y="901.581924987161" width="5.262740757610356" height="7.77862045769082" fill="#ff9f1c" opacity="0.27947719663602233" rx="1"/><rect x="220.46571623544804" y="636.5595105887762" width="77.38187343519691" height="285.23136824025573" fill="#14aa9c" opacity="0.5792593169210617" rx="2"/><rect x="254.77239588083984" y="646.5595105887762" width="8.768514144413292" height="6.062527978807345" fill="#ffbf69" opacity="0.4708564123070931" rx="1"/><rect x="235.42692752204061" y="649.5907745781799" width="8.768514144413292" height="6.062527978807345" fill="#ff9f1c" opacity="0.23542820615354654" rx="1"/><rect x="254.2793006224742" y="682.2134316188082" width="9.754704661144572" height="8.46825749205152" fill="#ffbf69" opacity="0.500230363803038" rx="1"/><rect x="234.933832263675" y="686.4475603648339" width="9.754704661144572" height="8.46825749205152" fill="#ff9f1c" opacity="0.250115181901519" rx="1"/><rect x="254.93207387345188" y="717.8673526488401" width="8.449158159189196" height="7.555348330539499" fill="#ffbf69" opacity="0.25781004532655005" rx="1"/><rect x="235.58660551465266" y="721.6450268141099" width="8.449158159189196" height="7.555348330539499" fill="#ff9f1c" opacity="0.12890502266327503" rx="1"/><rect x="254.14665146152174" y="753.5212736788721" width="10.02000298304949" height="6.482013578638903" fill="#ffbf69" opacity="0.2942573950379755" rx="1"/><rect x="234.80118310272252" y="756.7622804681916" width="10.02000298304949" height="6.482013578638903" fill="#ff9f1c" opacity="0.14712869751898774" rx="1"/><rect x="256.27407467022397" y="789.1751947089041" width="5.765156565645047" height="6.232190972248136" fill="#ffbf69" opacity="0.5386324334048276" rx="1"/><rect x="236.92860631142474" y="792.2912901950282" width="5.765156565645047" height="6.232190972248136" fill="#ff9f1c" opacity="0.2693162167024138" rx="1"/><rect x="255.39158675176824" y="824.829115738936" width="7.5301324025565135" height="7.776093670580558" fill="#ffbf69" opacity="0.1791650077046745" rx="1"/><rect x="236.04611839296902" y="828.7171625742263" width="7.5301324025565135" height="7.776093670580558" fill="#ff9f1c" opacity="0.08958250385233725" rx="1"/><rect x="253.63882449144467" y="860.4830367689681" width="11.03565692320365" height="7.695267792254516" fill="#ffbf69" opacity="0.5336973524032388" rx="1"/><rect x="234.29335613264544" y="864.3306706650953" width="11.03565692320365" height="7.695267792254516" fill="#ff9f1c" opacity="0.2668486762016194" rx="1"/><rect x="253.43402397503002" y="896.136957799" width="11.445257956032934" height="6.272669780131586" fill="#ffbf69" opacity="0.18165577882473727" rx="1"/><rect x="234.0885556162308" y="899.2732926890658" width="11.445257956032934" height="6.272669780131586" fill="#ff9f1c" opacity="0.09082788941236863" rx="1"/><rect x="329.01493895775985" y="555.5042316335031" width="89.07088159561877" height="366.2866471955289" fill="#2ec4b6" opacity="0.40023905327549186" rx="2"/><rect x="370.2550250257493" y="565.5042316335031" width="6.590709459639785" height="8.961858977321969" fill="#ffbf69" opacity="0.5388006753145719" rx="1"/><rect x="347.98730462684466" y="569.9851611221641" width="6.590709459639785" height="8.961858977321969" fill="#ff9f1c" opacity="0.26940033765728594" rx="1"/><rect x="368.1365797052012" y="657.0758934323853" width="10.82760010073604" height="9.379878263776163" fill="#ffbf69" opacity="0.2631704719418591" rx="1"/><rect x="345.86885930629654" y="661.7658325642734" width="10.82760010073604" height="9.379878263776163" fill="#ff9f1c" opacity="0.13158523597092955" rx="1"/><rect x="370.73403319756824" y="748.6475552312675" width="5.632693116001946" height="7.171639983815057" fill="#ffbf69" opacity="0.5888447223903716" rx="1"/><rect x="348.4663127986636" y="752.233375223175" width="5.632693116001946" height="7.171639983815057" fill="#ff9f1c" opacity="0.2944223611951858" rx="1"/><rect x="367.9399142318731" y="840.2192170301497" width="11.220931047392295" height="8.766238854910767" fill="#ffbf69" opacity="0.48698898905119603" rx="1"/><rect x="345.67219383296845" y="844.6023364576051" width="11.220931047392295" height="8.766238854910767" fill="#ff9f1c" opacity="0.24349449452559802" rx="1"/><rect x="441.75962572026987" y="771.7615123772439" width="54.58787338449338" height="150.02936645178806" fill="#14aa9c" opacity="0.585564071821413" rx="2"/><rect x="463.94987372657044" y="781.7615123772439" width="10.20737737189219" height="6.116148041588289" fill="#ffbf69" opacity="0.37206717519370536" rx="1"/><rect x="450.3029053804471" y="784.819586398038" width="10.20737737189219" height="6.116148041588289" fill="#ff9f1c" opacity="0.18603358759685268" rx="1"/><rect x="463.5393304933187" y="811.7673856676015" width="11.028463838395771" height="9.202521929331711" fill="#ffbf69" opacity="0.3520805404642784" rx="1"/><rect x="449.89236214719534" y="816.3686466322673" width="11.028463838395771" height="9.202521929331711" fill="#ff9f1c" opacity="0.1760402702321392" rx="1"/><rect x="465.3633443378758" y="841.7732589579591" width="7.380436149281551" height="9.23772430495306" fill="#ffbf69" opacity="0.5478610178799976" rx="1"/><rect x="451.71637599175244" y="846.3921211104356" width="7.380436149281551" height="9.23772430495306" fill="#ff9f1c" opacity="0.2739305089399988" rx="1"/><rect x="465.1290781013968" y="871.7791322483167" width="7.848968622239532" height="6.882088530082742" fill="#ffbf69" opacity="0.22952381515165882" rx="1"/><rect x="451.4821097552734" y="875.2201765133581" width="7.848968622239532" height="6.882088530082742" fill="#ff9f1c" opacity="0.11476190757582941" rx="1"/><rect x="466.8492327541693" y="901.7850055386743" width="4.408659316694518" height="9.572124344197132" fill="#ffbf69" opacity="0.2560583276804672" rx="1"/><rect x="453.20226440804595" y="906.5710677107729" width="4.408659316694518" height="9.572124344197132" fill="#ff9f1c" opacity="0.1280291638402336" rx="1"/><rect x="553.876826105145" y="677.3756191314608" width="69.76702234702348" height="244.41525969757123" fill="#14aa9c" opacity="0.5044335188354444" rx="2"/><rect x="584.4346813679288" y="687.3756191314608" width="8.651311821455906" height="7.837933081630136" fill="#ffbf69" opacity="0.44199615494394584" rx="1"/><rect x="566.992925781173" y="691.2945856722758" width="8.651311821455906" height="7.837933081630136" fill="#ff9f1c" opacity="0.22099807747197292" rx="1"/><rect x="585.6272201502293" y="748.4794340558536" width="6.266234256854801" height="8.943039201885238" fill="#ffbf69" opacity="0.5752234589483644" rx="1"/><rect x="568.1854645634735" y="752.9509536567963" width="6.266234256854801" height="8.943039201885238" fill="#ff9f1c" opacity="0.2876117294741822" rx="1"/><rect x="584.3633065995209" y="809.5832489802464" width="8.794061358271646" height="6.515874392473109" fill="#ffbf69" opacity="0.11770017936772206" rx="1"/><rect x="566.9215510127651" y="812.8411861764829" width="8.794061358271646" height="6.515874392473109" fill="#ff9f1c" opacity="0.05885008968386103" rx="1"/><rect x="586.0587829940623" y="870.6870639046392" width="5.403108569188767" height="9.230052095658625" fill="#ffbf69" opacity="0.33882338247234545" rx="1"/><rect x="568.6170274073065" y="875.3020899524686" width="5.403108569188767" height="9.230052095658625" fill="#ff9f1c" opacity="0.16941169123617272" rx="1"/><rect x="660.3135007527455" y="601.6137712406027" width="70.61398712001136" height="320.1771075884293" fill="#14aa9c" opacity="0.5560324637815433" rx="2"/><rect x="691.6147377124556" y="611.6137712406027" width="8.011513200591205" height="6.285461795582776" fill="#ffbf69" opacity="0.22634599875340844" rx="1"/><rect x="673.9612409324527" y="614.756502138394" width="8.011513200591205" height="6.285461795582776" fill="#ff9f1c" opacity="0.11317299937670422" rx="1"/><rect x="692.8359051299831" y="691.65804813771" width="5.569178365536309" height="9.62299504867359" fill="#ffbf69" opacity="0.47883450530442284" rx="1"/><rect x="675.1824083499802" y="696.4695456620468" width="5.569178365536309" height="9.62299504867359" fill="#ff9f1c" opacity="0.23941725265221142" rx="1"/><rect x="690.2152156227304" y="771.7023250348172" width="10.810557380041704" height="7.569247346736781" fill="#ffbf69" opacity="0.20887831009665464" rx="1"/><rect x="672.5617188427275" y="775.4869487081857" width="10.810557380041704" height="7.569247346736781" fill="#ff9f1c" opacity="0.10443915504832732" rx="1"/><rect x="692.1501846795786" y="851.7466019319246" width="6.94061926634531" height="9.213332962992911" fill="#ffbf69" opacity="0.5636451584435174" rx="1"/><rect x="674.4966878995757" y="856.353268413421" width="6.94061926634531" height="9.213332962992911" fill="#ff9f1c" opacity="0.2818225792217587" rx="1"/><rect x="752.6942225156105" y="694.2025887766393" width="44.55559118989753" height="227.58829005239258" fill="#14aa9c" opacity="0.6181748660090787" rx="2"/><rect x="772.3176047604804" y="704.2025887766393" width="5.308826700157678" height="7.441962144673328" fill="#ffbf69" opacity="0.17956425009285198" rx="1"/><rect x="761.178706963006" y="707.9235698489761" width="5.308826700157678" height="7.441962144673328" fill="#ff9f1c" opacity="0.08978212504642599" rx="1"/><rect x="769.5683202856611" y="732.6511250331885" width="10.807395649796211" height="9.72844529890652" fill="#ffbf69" opacity="0.47434094885232414" rx="1"/><rect x="758.4294224881867" y="737.5153476826417" width="10.807395649796211" height="9.72844529890652" fill="#ff9f1c" opacity="0.23717047442616207" rx="1"/><rect x="769.6610192602176" y="761.0996612897375" width="10.621997700683306" height="7.577112520480787" fill="#ffbf69" opacity="0.15072480511169994" rx="1"/><rect x="758.5221214627431" y="764.8882175499779" width="10.621997700683306" height="7.577112520480787" fill="#ff9f1c" opacity="0.07536240255584997" rx="1"/><rect x="769.6656296087116" y="789.5481975462866" width="10.612777003695438" height="9.457748876758327" fill="#ffbf69" opacity="0.3725646000524435" rx="1"/><rect x="758.5267318112371" y="794.2770719846658" width="10.612777003695438" height="9.457748876758327" fill="#ff9f1c" opacity="0.18628230002622176" rx="1"/><rect x="771.700966700609" y="817.9967338028356" width="6.542102819900518" height="6.701316480688126" fill="#ffbf69" opacity="0.3624788853019659" rx="1"/><rect x="760.5620689031346" y="821.3473920431796" width="6.542102819900518" height="6.701316480688126" fill="#ff9f1c" opacity="0.18123944265098296" rx="1"/><rect x="772.1685441348627" y="846.4452700593847" width="5.606947951392957" height="8.028536918114064" fill="#ffbf69" opacity="0.2622079450549111" rx="1"/><rect x="761.0296463373883" y="850.4595385184417" width="5.606947951392957" height="8.028536918114064" fill="#ff9f1c" opacity="0.13110397252745554" rx="1"/><rect x="770.8444670620012" y="874.8938063159337" width="8.2551020971162" height="8.276202316925907" fill="#ffbf69" opacity="0.1270805280951505" rx="1"/><rect x="759.7055692645267" y="879.0319074743967" width="8.2551020971162" height="8.276202316925907" fill="#ff9f1c" opacity="0.06354026404757525" rx="1"/><rect x="772.7803421914065" y="903.3423425724828" width="4.383351838305441" height="8.151715389022538" fill="#ffbf69" opacity="0.33125855618418626" rx="1"/><rect x="761.641444393932" y="907.4182002669941" width="4.383351838305441" height="8.151715389022538" fill="#ff9f1c" opacity="0.16562927809209313" rx="1"/><rect x="867.6657399716008" y="701.7057008113959" width="53.36181028824342" height="220.0851780176361" fill="#2ec4b6" opacity="0.4605877806806443" rx="2"/><rect x="888.8658854402289" y="711.7057008113959" width="10.961519350987281" height="7.624062808608651" fill="#ffbf69" opacity="0.5706402830711194" rx="1"/><rect x="875.525432868168" y="715.5177322157002" width="10.961519350987281" height="7.624062808608651" fill="#ff9f1c" opacity="0.2853201415355597" rx="1"/><rect x="890.0415043172057" y="748.3865638143352" width="8.610281597033675" height="6.2067598971088325" fill="#ffbf69" opacity="0.18990140401057465" rx="1"/><rect x="876.7010517451448" y="751.4899437628897" width="8.610281597033675" height="6.2067598971088325" fill="#ff9f1c" opacity="0.09495070200528732" rx="1"/><rect x="890.9626392484556" y="785.0674268172746" width="6.768011734534058" height="8.40593048054863" fill="#ffbf69" opacity="0.41897786534833203" rx="1"/><rect x="877.6221866763947" y="789.270392057549" width="6.768011734534058" height="8.40593048054863" fill="#ff9f1c" opacity="0.20948893267416602" rx="1"/><rect x="889.1606316194312" y="821.7482898202139" width="10.372026992582722" height="6.741221541711414" fill="#ffbf69" opacity="0.4488277063818713" rx="1"/><rect x="875.8201790473703" y="825.1189005910696" width="10.372026992582722" height="6.741221541711414" fill="#ff9f1c" opacity="0.22441385319093565" rx="1"/><rect x="888.5241131613785" y="858.4291528231533" width="11.64506390868804" height="9.396775555656472" fill="#ffbf69" opacity="0.2624156829580701" rx="1"/><rect x="875.1836605893176" y="863.1275406009815" width="11.64506390868804" height="9.396775555656472" fill="#ff9f1c" opacity="0.13120784147903505" rx="1"/><rect x="888.9781811824017" y="895.1100158260926" width="10.736927866641647" height="7.484190347950019" fill="#ffbf69" opacity="0.1765070048106152" rx="1"/><rect x="875.6377286103408" y="898.8521110000677" width="10.736927866641647" height="7.484190347950019" fill="#ff9f1c" opacity="0.0882535024053076" rx="1"/><rect x="978.0046584312815" y="599.7986927395218" width="79.07779552719504" height="321.99218608951014" fill="#14aa9c" opacity="0.4798206809861168" rx="2"/><rect x="1013.6373517351778" y="609.7986927395218" width="7.812408919402493" height="8.47444635780399" fill="#ffbf69" opacity="0.30560263765640616" rx="1"/><rect x="993.8679028533791" y="614.0359159184238" width="7.812408919402493" height="8.47444635780399" fill="#ff9f1c" opacity="0.15280131882820308" rx="1"/><rect x="1015.1507362984473" y="655.7975764665947" width="4.785639792863662" height="8.966477020403016" fill="#ffbf69" opacity="0.42312341402823184" rx="1"/><rect x="995.3812874166485" y="660.2808149767963" width="4.785639792863662" height="8.966477020403016" fill="#ff9f1c" opacity="0.21156170701411592" rx="1"/><rect x="1012.4813737416365" y="701.7964601936676" width="10.124364906485278" height="9.512222363499976" fill="#ffbf69" opacity="0.5827990416630169" rx="1"/><rect x="992.7119248598377" y="706.5525713754176" width="10.124364906485278" height="9.512222363499976" fill="#ff9f1c" opacity="0.29139952083150844" rx="1"/><rect x="1012.4723503322975" y="747.7953439207404" width="10.14241172516309" height="9.712614910610164" fill="#ffbf69" opacity="0.43762492747922077" rx="1"/><rect x="992.7029014504988" y="752.6516513760455" width="10.14241172516309" height="9.712614910610164" fill="#ff9f1c" opacity="0.21881246373961039" rx="1"/><rect x="1013.6819606988416" y="793.7942276478134" width="7.72319099207483" height="7.580685292738649" fill="#ffbf69" opacity="0.4642973455982975" rx="1"/><rect x="993.9125118170429" y="797.5845702941828" width="7.72319099207483" height="7.580685292738649" fill="#ff9f1c" opacity="0.23214867279914875" rx="1"/><rect x="1014.3406989181743" y="839.7931113748862" width="6.405714553409656" height="6.433337361652716" fill="#ffbf69" opacity="0.21240127208000079" rx="1"/><rect x="994.5712500363755" y="843.0097800557126" width="6.405714553409656" height="6.433337361652716" fill="#ff9f1c" opacity="0.10620063604000039" rx="1"/><rect x="1013.8227940701934" y="885.7919951019591" width="7.441524249371496" height="6.4225848411262465" fill="#ffbf69" opacity="0.4351256193907759" rx="1"/><rect x="994.0533451883946" y="889.0032875225222" width="7.441524249371496" height="6.4225848411262465" fill="#ff9f1c" opacity="0.21756280969538794" rx="1"/><rect x="1074.7007263416194" y="650.357747555328" width="35.9919936130736" height="271.4331312737039" fill="#14aa9c" opacity="0.5907208287601176" rx="2"/><rect x="1090.3819339599886" y="660.357747555328" width="4.629578376335459" height="7.9917857288363825" fill="#ffbf69" opacity="0.1674978437757813" rx="1"/><rect x="1081.3839355567202" y="664.3536404197463" width="4.629578376335459" height="7.9917857288363825" fill="#ff9f1c" opacity="0.08374892188789065" rx="1"/><rect x="1088.0935579093857" y="694.286888964541" width="9.206330477540924" height="8.009751824198698" fill="#ffbf69" opacity="0.3924382220470436" rx="1"/><rect x="1079.0955595061173" y="698.2917648766404" width="9.206330477540924" height="8.009751824198698" fill="#ff9f1c" opacity="0.1962191110235218" rx="1"/><rect x="1088.0575368267152" y="728.216030373754" width="9.27837264288179" height="6.53836698283869" fill="#ffbf69" opacity="0.30065383501366105" rx="1"/><rect x="1079.0595384234468" y="731.4852138651734" width="9.27837264288179" height="6.53836698283869" fill="#ff9f1c" opacity="0.15032691750683053" rx="1"/><rect x="1088.375898109138" y="762.145171782967" width="8.641650078036275" height="9.622253305190767" fill="#ffbf69" opacity="0.2722570412494841" rx="1"/><rect x="1079.3778997058696" y="766.9562984355624" width="8.641650078036275" height="9.622253305190767" fill="#ff9f1c" opacity="0.13612852062474204" rx="1"/><rect x="1089.2877855464556" y="796.0743131921799" width="6.817875203401287" height="9.392355253778481" fill="#ffbf69" opacity="0.19886906950242564" rx="1"/><rect x="1080.2897871431871" y="800.7704908190692" width="6.817875203401287" height="9.392355253778481" fill="#ff9f1c" opacity="0.09943453475121282" rx="1"/><rect x="1087.0337128248145" y="830.0034546013931" width="11.32602064668341" height="8.34882677028627" fill="#ffbf69" opacity="0.1633802475788119" rx="1"/><rect x="1078.0357144215461" y="834.1778679865362" width="11.32602064668341" height="8.34882677028627" fill="#ff9f1c" opacity="0.08169012378940595" rx="1"/><rect x="1086.9559473385932" y="863.932596010606" width="11.481551619125892" height="6.994111298814907" fill="#ffbf69" opacity="0.20136513763604807" rx="1"/><rect x="1077.9579489353248" y="867.4296516600134" width="11.481551619125892" height="6.994111298814907" fill="#ff9f1c" opacity="0.10068256881802404" rx="1"/><rect x="1089.3607411231756" y="897.861737419819" width="6.67196404996141" height="6.94501893989393" fill="#ffbf69" opacity="0.542641611546893" rx="1"/><rect x="1080.3627427199071" y="901.334246889766" width="6.67196404996141" height="6.94501893989393" fill="#ff9f1c" opacity="0.2713208057734465" rx="1"/><rect x="1182.514862316315" y="825.6559687027839" width="36.52301838773373" height="96.13491012624812" fill="#2ec4b6" opacity="0.6164249021831026" rx="2"/><rect x="1196.8660296890575" y="835.6559687027839" width="7.820683642248783" height="9.147595690364856" fill="#ffbf69" opacity="0.525921092141867" rx="1"/><rect x="1187.735275092124" y="840.2297665479663" width="7.820683642248783" height="9.147595690364856" fill="#ff9f1c" opacity="0.2629605460709335" rx="1"/><rect x="1197.7808577690232" y="854.8829507280335" width="5.991027482317534" height="8.430573197647597" fill="#ffbf69" opacity="0.47786406496955647" rx="1"/><rect x="1188.6501031720898" y="859.0982373268573" width="5.991027482317534" height="8.430573197647597" fill="#ff9f1c" opacity="0.23893203248477823" rx="1"/><rect x="1195.8343227726489" y="874.1099327532831" width="9.884097475065872" height="9.037016827388904" fill="#ffbf69" opacity="0.23605943453406436" rx="1"/><rect x="1186.7035681757154" y="878.6284411669776" width="9.884097475065872" height="9.037016827388904" fill="#ff9f1c" opacity="0.11802971726703218" rx="1"/><rect x="1197.4268957163272" y="893.3369147785327" width="6.698951587709354" height="6.410944992772058" fill="#ffbf69" opacity="0.45062628061292376" rx="1"/><rect x="1188.2961411193937" y="896.5423872749187" width="6.698951587709354" height="6.410944992772058" fill="#ff9f1c" opacity="0.22531314030646188" rx="1"/><rect x="1195.2098062695495" y="912.5638968037823" width="11.133130481264818" height="9.96574827189691" fill="#ffbf69" opacity="0.4658962795431484" rx="1"/><rect x="1186.079051672616" y="917.5467709397308" width="11.133130481264818" height="9.96574827189691" fill="#ff9f1c" opacity="0.2329481397715742" rx="1"/><rect x="1294.7546187682904" y="750.6696763799223" width="64.54601697496744" height="171.1212024491097" fill="#2ec4b6" opacity="0.6669263723462183" rx="2"/><rect x="1323.0935170590164" y="760.6696763799223" width="7.8682203935152435" height="9.662748986776627" fill="#ffbf69" opacity="0.2874963141017352" rx="1"/><rect x="1306.9570128152745" y="765.5010508733106" width="7.8682203935152435" height="9.662748986776627" fill="#ff9f1c" opacity="0.1437481570508676" rx="1"/><rect x="1321.861303261682" y="789.1898767881072" width="10.332647988184506" height="7.965928855809832" fill="#ffbf69" opacity="0.3524279083014531" rx="1"/><rect x="1305.72479901794" y="793.1728412160121" width="10.332647988184506" height="7.965928855809832" fill="#ff9f1c" opacity="0.17621395415072655" rx="1"/><rect x="1322.1869721992844" y="817.7100771962922" width="9.681310112979567" height="7.309075634300028" fill="#ffbf69" opacity="0.3250494052947148" rx="1"/><rect x="1306.0504679555424" y="821.3646150134422" width="9.681310112979567" height="7.309075634300028" fill="#ff9f1c" opacity="0.1625247026473574" rx="1"/><rect x="1322.2292351502063" y="846.2302776044771" width="9.596784211135652" height="7.889016156524656" fill="#ffbf69" opacity="0.11147065975504711" rx="1"/><rect x="1306.0927309064643" y="850.1747856827394" width="9.596784211135652" height="7.889016156524656" fill="#ff9f1c" opacity="0.055735329877523554" rx="1"/><rect x="1324.716304880501" y="874.7504780126621" width="4.622644750546349" height="9.48733493301257" fill="#ffbf69" opacity="0.39275643355044454" rx="1"/><rect x="1308.579800636759" y="879.4941454791684" width="4.622644750546349" height="9.48733493301257" fill="#ff9f1c" opacity="0.19637821677522227" rx="1"/><rect x="1324.234564830371" y="903.270678420847" width="5.5861248508063435" height="9.607204765921274" fill="#ffbf69" opacity="0.334965002335367" rx="1"/><rect x="1308.0980605866291" y="908.0742808038077" width="5.5861248508063435" height="9.607204765921274" fill="#ff9f1c" opacity="0.1674825011676835" rx="1"/><rect x="1405.921419166476" y="789.6149596408045" width="31.364397355672995" height="132.17591918822748" fill="#2ec4b6" opacity="0.6874454944132468" rx="2"/><rect x="1416.5267797758634" y="799.6149596408045" width="10.153676136898266" height="8.762323936159332" fill="#ffbf69" opacity="0.539190993653422" rx="1"/><rect x="1408.685680436945" y="803.9961216088842" width="10.153676136898266" height="8.762323936159332" fill="#ff9f1c" opacity="0.269595496826711" rx="1"/><rect x="1418.2445771375776" y="843.6735993702137" width="6.718081413469761" height="6.0654532425257965" fill="#ffbf69" opacity="0.1721093922788532" rx="1"/><rect x="1410.4034777986592" y="846.7063259914765" width="6.718081413469761" height="6.0654532425257965" fill="#ff9f1c" opacity="0.0860546961394266" rx="1"/><rect x="1419.5773692290713" y="887.7322390996228" width="4.052497230482404" height="6.802690853551657" fill="#ffbf69" opacity="0.26271603984355835" rx="1"/><rect x="1411.736269890153" y="891.1335845263986" width="4.052497230482404" height="6.802690853551657" fill="#ff9f1c" opacity="0.13135801992177917" rx="1"/><rect x="1517.0459944631546" y="635.5346286053617" width="56.8291743162156" height="286.25625022367024" fill="#14aa9c" opacity="0.5649266007041853" rx="2"/><rect x="1543.453808208102" y="645.5346286053617" width="4.01354682632106" height="7.116639847195856" fill="#ffbf69" opacity="0.484069121066497" rx="1"/><rect x="1529.2465146290479" y="649.0929485289596" width="4.01354682632106" height="7.116639847195856" fill="#ff9f1c" opacity="0.2420345605332485" rx="1"/><rect x="1543.3539281348592" y="693.2440036426401" width="4.213306972806646" height="7.566677979558398" fill="#ffbf69" opacity="0.5419354059365428" rx="1"/><rect x="1529.1466345558051" y="697.0273426324193" width="4.213306972806646" height="7.566677979558398" fill="#ff9f1c" opacity="0.2709677029682714" rx="1"/><rect x="1541.9882085404797" y="740.9533786799185" width="6.944746161565359" height="6.468203543794389" fill="#ffbf69" opacity="0.14081540613919857" rx="1"/><rect x="1527.7809149614257" y="744.1874804518156" width="6.944746161565359" height="6.468203543794389" fill="#ff9f1c" opacity="0.07040770306959929" rx="1"/><rect x="1542.0504280373107" y="788.6627537171969" width="6.820307167903591" height="7.827037331142239" fill="#ffbf69" opacity="0.13355343477650394" rx="1"/><rect x="1527.8431344582566" y="792.576272382768" width="6.820307167903591" height="7.827037331142239" fill="#ff9f1c" opacity="0.06677671738825197" rx="1"/><rect x="1542.3975040473504" y="836.3721287544752" width="6.126155147824007" height="8.388292161372558" fill="#ffbf69" opacity="0.3873522480454651" rx="1"/><rect x="1528.1902104682963" y="840.5662748351615" width="6.126155147824007" height="8.388292161372558" fill="#ff9f1c" opacity="0.19367612402273254" rx="1"/><rect x="1540.0996963598532" y="884.0815037917536" width="10.721770522818382" height="7.443716064431639" fill="#ffbf69" opacity="0.563934869497068" rx="1"/><rect x="1525.892402780799" y="887.8033618239693" width="10.721770522818382" height="7.443716064431639" fill="#ff9f1c" opacity="0.281967434748534" rx="1"/><rect x="1615.072207591746" y="599.1545149123191" width="54.88792999761364" height="322.63636391671287" fill="#2ec4b6" opacity="0.5774576927715581" rx="2"/><rect x="1636.6762889157228" y="609.1545149123191" width="11.679767349660342" height="9.812583043196375" fill="#ffbf69" opacity="0.1457687670238709" rx="1"/><rect x="1622.9543064163192" y="614.0608064339173" width="11.679767349660342" height="9.812583043196375" fill="#ff9f1c" opacity="0.07288438351193545" rx="1"/><rect x="1637.4325311920682" y="662.9272422317713" width="10.16728279696947" height="7.243765415913371" fill="#ffbf69" opacity="0.2600537284184372" rx="1"/><rect x="1623.7105486926646" y="666.549124939728" width="10.16728279696947" height="7.243765415913371" fill="#ff9f1c" opacity="0.1300268642092186" rx="1"/><rect x="1640.3575634666156" y="716.6999695512234" width="4.317218247874924" height="6.58592711775236" fill="#ffbf69" opacity="0.21993119204880932" rx="1"/><rect x="1626.635580967212" y="719.9929331100996" width="4.317218247874924" height="6.58592711775236" fill="#ff9f1c" opacity="0.10996559602440466" rx="1"/><rect x="1637.240421650056" y="770.4726968706755" width="10.55150188099395" height="9.63102876293264" fill="#ffbf69" opacity="0.17936211421139586" rx="1"/><rect x="1623.5184391506525" y="775.2882112521418" width="10.55150188099395" height="9.63102876293264" fill="#ff9f1c" opacity="0.08968105710569793" rx="1"/><rect x="1636.54306695134" y="824.2454241901277" width="11.946211278426045" height="8.082794216946418" fill="#ffbf69" opacity="0.10481471896749334" rx="1"/><rect x="1622.8210844519365" y="828.2868212986009" width="11.946211278426045" height="8.082794216946418" fill="#ff9f1c" opacity="0.05240735948374667" rx="1"/><rect x="1639.010713599159" y="878.0181515095799" width="7.010917982787573" height="8.91352612779325" fill="#ffbf69" opacity="0.5415051587721113" rx="1"/><rect x="1625.2887310997555" y="882.4749145734764" width="7.010917982787573" height="8.91352612779325" fill="#ff9f1c" opacity="0.2707525793860556" rx="1"/><rect x="1714.5175102317046" y="720.8969288088607" width="32.28159848188087" height="200.89395002017125" fill="#2ec4b6" opacity="0.5571689511549587" rx="2"/><rect x="1727.6605126193397" y="730.8969288088607" width="5.995593706610518" height="6.974923557828861" fill="#ffbf69" opacity="0.17712863352548533" rx="1"/><rect x="1719.5901129988695" y="734.3843905877751" width="5.995593706610518" height="6.974923557828861" fill="#ff9f1c" opacity="0.08856431676274266" rx="1"/><rect x="1725.6168321670536" y="797.8615788155845" width="10.0829546111829" height="8.140746841705578" fill="#ffbf69" opacity="0.10711132236921958" rx="1"/><rect x="1717.5464325465834" y="801.9319522364373" width="10.0829546111829" height="8.140746841705578" fill="#ff9f1c" opacity="0.05355566118460979" rx="1"/><rect x="1725.0769371241508" y="864.8262288223082" width="11.162744696988433" height="7.7300514592160585" fill="#ffbf69" opacity="0.2998126309364598" rx="1"/><rect x="1717.0065375036806" y="868.6912545519162" width="11.162744696988433" height="7.7300514592160585" fill="#ff9f1c" opacity="0.1499063154682299" rx="1"/><rect x="1819.9641181435352" y="565.5595318334083" width="85.85864398066389" height="356.23134699562365" fill="#2ec4b6" opacity="0.6313412193747566" rx="2"/><rect x="1859.120511123473" y="575.5595318334083" width="7.545858020788492" height="9.848333258146498" fill="#ffbf69" opacity="0.3326034533867155" rx="1"/><rect x="1837.655850128307" y="580.4836984624816" width="7.545858020788492" height="9.848333258146498" fill="#ff9f1c" opacity="0.16630172669335774" rx="1"/><rect x="1860.645738979719" y="626.4497242613545" width="4.495402308296273" height="9.696293363276936" fill="#ffbf69" opacity="0.3616104310754711" rx="1"/><rect x="1839.181077984553" y="631.297870942993" width="4.495402308296273" height="9.696293363276936" fill="#ff9f1c" opacity="0.18080521553773554" rx="1"/><rect x="1857.439154393142" y="677.3399166893008" width="10.908571481450593" height="8.473583018983152" fill="#ffbf69" opacity="0.424492955073829" rx="1"/><rect x="1835.974493397976" y="681.5767081987924" width="10.908571481450593" height="8.473583018983152" fill="#ff9f1c" opacity="0.2122464775369145" rx="1"/><rect x="1857.551219415048" y="728.230109117247" width="10.684441437638467" height="7.074093560938279" fill="#ffbf69" opacity="0.40055305706349975" rx="1"/><rect x="1836.086558419882" y="731.7671558977162" width="10.684441437638467" height="7.074093560938279" fill="#ff9f1c" opacity="0.20027652853174988" rx="1"/><rect x="1858.3951857316763" y="779.1203015451932" width="8.996508804381943" height="9.3006568456303" fill="#ffbf69" opacity="0.11390615629821695" rx="1"/><rect x="1836.9305247365103" y="783.7706299680084" width="8.996508804381943" height="9.3006568456303" fill="#ff9f1c" opacity="0.05695307814910847" rx="1"/><rect x="1858.8443681872088" y="830.0104939731395" width="8.098143893316887" height="8.429754674069061" fill="#ffbf69" opacity="0.5585381911505336" rx="1"/><rect x="1837.3797071920428" y="834.2253713101741" width="8.098143893316887" height="8.429754674069061" fill="#ff9f1c" opacity="0.2792690955752668" rx="1"/><rect x="1856.9268655069002" y="880.9006864010857" width="11.933149253933959" height="6.311047531736793" fill="#ffbf69" opacity="0.23089933354195658" rx="1"/><rect x="1835.4622045117342" y="884.0562101669542" width="11.933149253933959" height="6.311047531736793" fill="#ff9f1c" opacity="0.11544966677097829" rx="1"/><path d="M970.682247209056 843.4144607613363 Q966.441802686649 749.2974900173251 965.5937137821676 655.1805192733138" stroke="#007769" stroke-width="6.540756750512113" fill="none" stroke-linecap="round"/><path d="M965.5937137821676 655.1805192733138 Q999.2953504496944 635.1805192733138 1013.1135049078414 655.1805192733138" stroke="#009183" stroke-width="2.58057967586922" fill="none" stroke-linecap="round" opacity="0.6"/><path d="M965.5937137821676 655.1805192733138 Q991.9839622556437 640.6298569848091 994.5650591951731 666.0791946963044" stroke="#009183" stroke-width="2.822042811387694" fill="none" stroke-linecap="round" opacity="0.6"/><path d="M965.5937137821676 655.1805192733138 Q971.2080488832443 644.9614893168612 950.7107632111994 674.7424593604086" stroke="#009183" stroke-width="2.859145126505556" fill="none" stroke-linecap="round" opacity="0.6"/><path d="M965.5937137821676 655.1805192733138 Q959.253381170217 638.4117063477197 920.8628531399565 661.6428934221254" stroke="#009183" stroke-width="3.5359827944859825" fill="none" stroke-linecap="round" opacity="0.6"/><path d="M965.5937137821676 655.1805192733138 Q954.8201420593838 632.4673178879993 928.0335755834002 649.754116502685" stroke="#009183" stroke-width="3.4411215673762188" fill="none" stroke-linecap="round" opacity="0.6"/><path d="M965.5937137821676 655.1805192733138 Q968.1577252090776 630.5166526073956 958.4970662360238 645.8527859414775" stroke="#009183" stroke-width="3.436612585428313" fill="none" stroke-linecap="round" opacity="0.6"/><path d="M1841.3706622834716 813.3401101253321 Q1851.8022474348086 719.9805084022182 1853.888564465076 626.6209066791042" stroke="#007769" stroke-width="6.843157632938389" fill="none" stroke-linecap="round"/><path d="M1853.888564465076 626.6209066791042 Q1903.8220890706457 606.6209066791042 1918.8174946049269 626.6209066791042" stroke="#009183" stroke-width="2.276585516584242" fill="none" stroke-linecap="round" opacity="0.6"/><path d="M1853.888564465076 626.6209066791042 Q1876.7989046563869 614.7387404041633 1897.0469402724543 642.8565741292224" stroke="#009183" stroke-width="3.981812634966758" fill="none" stroke-linecap="round" opacity="0.6"/><path d="M1853.888564465076 626.6209066791042 Q1864.2294603209714 617.4973645698644 1837.3386942114407 648.3738224606245" stroke="#009183" stroke-width="2.925760960421935" fill="none" stroke-linecap="round" opacity="0.6"/><path d="M1853.888564465076 626.6209066791042 Q1842.8528750157038 610.3882446502319 1801.7355117639702 634.1555826213594" stroke="#009183" stroke-width="3.342072735853044" fill="none" stroke-linecap="round" opacity="0.6"/><path d="M1853.888564465076 626.6209066791042 Q1839.5401150985601 603.3145023238419 1808.1164352022622 620.0080979685797" stroke="#009183" stroke-width="2.854485673563202" fill="none" stroke-linecap="round" opacity="0.6"/><path d="M1853.888564465076 626.6209066791042 Q1854.051599148801 600.2302415567606 1844.1643803904915 613.8395764344169" stroke="#009183" stroke-width="2.137761447610744" fill="none" stroke-linecap="round" opacity="0.6"/><path d="M803.2521568618836 899.0081961264387 Q791.6431970828313 814.8890177812169 789.3214051270209 730.7698394359951" stroke="#007769" stroke-width="5.239573760246759" fill="none" stroke-linecap="round"/><path d="M789.3214051270209 730.7698394359951 Q826.1450925621076 710.7698394359951 847.0263752762755 730.7698394359951" stroke="#009183" stroke-width="3.9227192341170083" fill="none" stroke-linecap="round" opacity="0.6"/><path d="M789.3214051270209 730.7698394359951 Q821.6799129323075 718.0421754078804 827.9847012109593 745.3145113797657" stroke="#009183" stroke-width="2.10439237256171" fill="none" stroke-linecap="round" opacity="0.6"/><path d="M789.3214051270209 730.7698394359951 Q794.6071998437627 716.8872801141963 780.0129656952324 743.0047207923974" stroke="#009183" stroke-width="2.2939957972369145" fill="none" stroke-linecap="round" opacity="0.6"/><path d="M789.3214051270209 730.7698394359951 Q769.5264590111732 715.4534821241242 724.4835100883565 740.1371248122533" stroke="#009183" stroke-width="2.888003858944402" fill="none" stroke-linecap="round" opacity="0.6"/><path d="M789.3214051270209 730.7698394359951 Q770.2615225554441 707.4904836338474 743.923721859464 724.2111278316995" stroke="#009183" stroke-width="2.0681433715084903" fill="none" stroke-linecap="round" opacity="0.6"/><path d="M789.3214051270209 730.7698394359951 Q794.6791754111274 703.498145359267 778.2566269885231 716.2264512825391" stroke="#009183" stroke-width="3.442099475171906" fill="none" stroke-linecap="round" opacity="0.6"/><rect x="0" y="1000" width="1920" height="80" fill="#089e90" opacity="0.8"/><line x1="0" y1="1040" x2="1920" y2="1040" stroke="#ffbf69" stroke-opacity="0.15" stroke-width="2" stroke-dasharray="30,20"/><rect x="0" y="930" width="1920" height="150" fill="url(#glow10)"/><text x="1900" y="1060" font-family="Arial, sans-serif" font-size="11" fill="#fff" opacity="0.08" text-anchor="end" letter-spacing="2">GTA 6 REWARDS · WALLPAPER 011</text>
</svg>