<?xml version="1.0" encoding="UTF-8"?>
<svg xmlns="http://www.w3.org/2000/svg" width="1920" height="1080" viewBox="0 0 1920 1080">
<defs>
    <linearGradient id="bg97" x1="0%" y1="0%" x2="0%" y2="100%">
      <stop offset="0%" stop-color="#2d1600"/>
      <stop offset="50%" stop-color="#000000"/>
      <stop offset="100%" stop-color="#2d1600"/>
    </linearGradient>
    <linearGradient id="sun97" x1="0%" y1="0%" x2="100%" y2="100%">
      <stop offset="0%" stop-color="#ff8700"/>
      <stop offset="100%" stop-color="#ff5e00"/>
    </linearGradient>
    <radialGradient id="glow97" cx="50%" cy="70%" r="50%">
      <stop offset="0%" stop-color="#ff8700" stop-opacity="0.3"/>
      <stop offset="100%" stop-color="#2d1600" stop-opacity="0"/>
    </radialGradient>
  </defs><rect width="1920" height="1080" fill="url(#bg97)"/><circle cx="563.4000720138197" cy="533.5804263906507" r="761.7244608378328" fill="#ff8700" opacity="0.08220484664947839"/><circle cx="763.4000720138197" cy="433.5804263906507" r="496.9356841167751" fill="#ff5e00" opacity="0.07597137595200246"/><circle cx="520.6679466694286" cy="209.35285972881894" r="81.92655675623719" fill="url(#sun97)" opacity="0.8339968083738342"/><circle cx="520.6679466694286" cy="209.35285972881894" r="76.92655675623719" fill="#2d1600" opacity="0.3"/><pattern id="scan97" width="1920" height="4" patternUnits="userSpaceOnUse">
      <line x1="0" y1="0" x2="1920" y2="0" stroke="#000" stroke-opacity="0.05" stroke-width="1"/>
    </pattern>
    <rect width="1920" height="1080" fill="url(#scan97)"/><rect x="27.995802601332727" y="679.7193064423556" width="59.64923971091612" height="299.44484448047467" fill="#2d1600" opacity="0.5916300728897634" rx="2"/><rect x="54.330914772891184" y="689.7193064423556" width="6.979015367799209" height="7.1295487827457364" fill="#ff5e00" opacity="0.43931067419222336" rx="1"/><rect x="39.41860484516215" y="693.2840808337285" width="6.979015367799209" height="7.1295487827457364" fill="#ff8700" opacity="0.21965533709611168" rx="1"/><rect x="54.547129352471586" y="732.4971413681377" width="6.546586208638406" height="7.796573580660991" fill="#ff5e00" opacity="0.5671597209449764" rx="1"/><rect x="39.63481942474255" y="736.3954281584682" width="6.546586208638406" height="7.796573580660991" fill="#ff8700" opacity="0.2835798604724882" rx="1"/><rect x="52.37748747351055" y="775.2749762939197" width="10.885869966560477" height="6.030867336325084" fill="#ff5e00" opacity="0.2809421546480018" rx="1"/><rect x="37.465177545781515" y="778.2904099620823" width="10.885869966560477" height="6.030867336325084" fill="#ff8700" opacity="0.1404710773240009" rx="1"/><rect x="55.60996063347206" y="818.0528112197019" width="4.420923646637454" height="7.5968959866084385" fill="#ff5e00" opacity="0.5578704549832899" rx="1"/><rect x="40.69765070574303" y="821.8512592130061" width="4.420923646637454" height="7.5968959866084385" fill="#ff8700" opacity="0.27893522749164495" rx="1"/><rect x="52.35235792523072" y="860.8306461454839" width="10.936129063120141" height="9.756931837591559" fill="#ff5e00" opacity="0.16650451164844088" rx="1"/><rect x="37.44004799750168" y="865.7091120642797" width="10.936129063120141" height="9.756931837591559" fill="#ff8700" opacity="0.08325225582422044" rx="1"/><rect x="53.859309485847895" y="903.608481071266" width="7.922225941885781" height="6.6220398462894465" fill="#ff5e00" opacity="0.25863093795688613" rx="1"/><rect x="38.94699955811886" y="906.9195009944108" width="7.922225941885781" height="6.6220398462894465" fill="#ff8700" opacity="0.12931546897844307" rx="1"/><rect x="54.62839955827882" y="946.3863159970481" width="6.3840457970239335" height="7.344352133885108" fill="#ff5e00" opacity="0.43329578764580556" rx="1"/><rect x="39.71608963054979" y="950.0584920639907" width="6.3840457970239335" height="7.344352133885108" fill="#ff8700" opacity="0.21664789382290278" rx="1"/><rect x="109.3685439111126" y="701.4655533832185" width="35.26592593297035" height="277.69859753961174" fill="#130000" opacity="0.5191178261346924" rx="2"/><rect x="121.78033598297748" y="711.4655533832185" width="10.442341789240562" height="6.644580565543049" fill="#ff5e00" opacity="0.45184075202602914" rx="1"/><rect x="112.9638544997349" y="714.7878436659901" width="10.442341789240562" height="6.644580565543049" fill="#ff8700" opacity="0.22592037601301457" rx="1"/><rect x="123.95619543570936" y="780.8902027681215" width="6.090622883776813" height="8.790978503132001" fill="#ff5e00" opacity="0.15613832130472602" rx="1"/><rect x="115.13971395246678" y="785.2856920196875" width="6.090622883776813" height="8.790978503132001" fill="#ff8700" opacity="0.07806916065236301" rx="1"/><rect x="121.03812494828321" y="850.3148521530244" width="11.926763858629103" height="6.807840773092546" fill="#ff5e00" opacity="0.5057679592878017" rx="1"/><rect x="112.22164346504063" y="853.7187725395706" width="11.926763858629103" height="6.807840773092546" fill="#ff8700" opacity="0.25288397964390086" rx="1"/><rect x="121.41262268238063" y="919.7395015379274" width="11.177768390434274" height="8.811634557044979" fill="#ff5e00" opacity="0.5052220724768057" rx="1"/><rect x="112.59614119913805" y="924.1453188164498" width="11.177768390434274" height="8.811634557044979" fill="#ff8700" opacity="0.25261103623840286" rx="1"/><rect x="180.25910236180275" y="831.6413666311748" width="48.46190357079308" height="147.52278429165546" fill="#2d1600" opacity="0.4387670017869135" rx="2"/><rect x="200.0105615921809" y="841.6413666311748" width="8.958985110036792" height="7.484683801765713" fill="#ff5e00" opacity="0.5842138771163797" rx="1"/><rect x="187.89508569948262" y="845.3837085320577" width="8.958985110036792" height="7.484683801765713" fill="#ff8700" opacity="0.29210693855818987" rx="1"/><rect x="199.70054421031395" y="862.7160501014114" width="9.579019873770658" height="6.413087853326715" fill="#ff5e00" opacity="0.23810166556809603" rx="1"/><rect x="187.58506831761568" y="865.9225940280747" width="9.579019873770658" height="6.413087853326715" fill="#ff8700" opacity="0.11905083278404802" rx="1"/><rect x="199.68335352108892" y="883.7907335716478" width="9.613401252220712" height="8.040026024458935" fill="#ff5e00" opacity="0.4885286277831832" rx="1"/><rect x="187.56787762839065" y="887.8107465838773" width="9.613401252220712" height="8.040026024458935" fill="#ff8700" opacity="0.2442643138915916" rx="1"/><rect x="200.2648076213116" y="904.8654170418843" width="8.45049305177538" height="7.295586915057056" fill="#ff5e00" opacity="0.5148481663816721" rx="1"/><rect x="188.14933172861333" y="908.5132104994128" width="8.45049305177538" height="7.295586915057056" fill="#ff8700" opacity="0.25742408319083604" rx="1"/><rect x="199.45621389254376" y="925.9401005121208" width="10.067680509311073" height="8.036767934923239" fill="#ff5e00" opacity="0.5830053970178136" rx="1"/><rect x="187.3407379998455" y="929.9584844795825" width="10.067680509311073" height="8.036767934923239" fill="#ff8700" opacity="0.2915026985089068" rx="1"/><rect x="201.9034985347892" y="947.0147839823574" width="5.173111224820165" height="9.467533184091451" fill="#ff5e00" opacity="0.3080081156939287" rx="1"/><rect x="189.78802264209094" y="951.7485505744031" width="5.173111224820165" height="9.467533184091451" fill="#ff8700" opacity="0.15400405784696436" rx="1"/><rect x="202.21977883372918" y="968.0894674525938" width="4.540550626940222" height="9.039111466854603" fill="#ff5e00" opacity="0.12899697656487044" rx="1"/><rect x="190.1043029410309" y="972.6090231860211" width="4.540550626940222" height="9.039111466854603" fill="#ff8700" opacity="0.06449848828243522" rx="1"/><rect x="258.7115150477531" y="813.4242556904032" width="81.14027556756983" height="165.73989523242693" fill="#130000" opacity="0.5326827746193583" rx="2"/><rect x="297.1208628993762" y="823.4242556904032" width="4.321579864323507" height="7.312472720936051" fill="#ff5e00" opacity="0.35545708666449816" rx="1"/><rect x="276.8357940074838" y="827.0804920508713" width="4.321579864323507" height="7.312472720936051" fill="#ff8700" opacity="0.17772854333224908" rx="1"/><rect x="296.61485408610076" y="856.5722347368886" width="5.3335974908744905" height="7.95064110540567" fill="#ff5e00" opacity="0.5593391120339136" rx="1"/><rect x="276.32978519420834" y="860.5475552895914" width="5.3335974908744905" height="7.95064110540567" fill="#ff8700" opacity="0.2796695560169568" rx="1"/><rect x="295.5895881118694" y="889.720213783374" width="7.384129439337209" height="7.364724155833182" fill="#ff5e00" opacity="0.1889136012617763" rx="1"/><rect x="275.30451921997695" y="893.4025758612905" width="7.384129439337209" height="7.364724155833182" fill="#ff8700" opacity="0.09445680063088815" rx="1"/><rect x="293.7757953816968" y="922.8681928298594" width="11.011714899682374" height="9.799865113524689" fill="#ff5e00" opacity="0.5721328465901625" rx="1"/><rect x="273.4907264898044" y="927.7681253866217" width="11.011714899682374" height="9.799865113524689" fill="#ff8700" opacity="0.28606642329508125" rx="1"/><rect x="294.44867253057856" y="956.0161718763447" width="9.665960601918856" height="7.138974183504231" fill="#ff5e00" opacity="0.24128649470891955" rx="1"/><rect x="274.16360363868614" y="959.5856589680968" width="9.665960601918856" height="7.138974183504231" fill="#ff8700" opacity="0.12064324735445978" rx="1"/><rect x="349.9760578409713" y="731.3016597603685" width="49.838035521059766" height="247.86249116246182" fill="#130000" opacity="0.6414822346627438" rx="2"/><rect x="369.28977664939356" y="741.3016597603685" width="11.210597904215241" height="7.283781194427" fill="#ff5e00" opacity="0.18665558243791003" rx="1"/><rect x="356.8302677691286" y="744.943550357582" width="11.210597904215241" height="7.283781194427" fill="#ff8700" opacity="0.09332779121895501" rx="1"/><rect x="370.5208613019252" y="823.9224901478558" width="8.748428599151882" height="6.035294314854614" fill="#ff5e00" opacity="0.49896209745178044" rx="1"/><rect x="358.0613524216603" y="826.9401373052831" width="8.748428599151882" height="6.035294314854614" fill="#ff8700" opacity="0.24948104872589022" rx="1"/><rect x="372.09475430732004" y="906.543320535343" width="5.6006425883622475" height="6.972595085616362" fill="#ff5e00" opacity="0.12964853996635614" rx="1"/><rect x="359.6352454270551" y="910.0296180781512" width="5.6006425883622475" height="6.972595085616362" fill="#ff8700" opacity="0.06482426998317807" rx="1"/><rect x="425.77612550598013" y="858.1236189483021" width="66.72768767846927" height="121.04053197452811" fill="#130000" opacity="0.4476022465498192" rx="2"/><rect x="454.2903063756624" y="868.1236189483021" width="9.699325939104735" height="7.730393725850245" fill="#ff5e00" opacity="0.3294163633439262" rx="1"/><rect x="437.6083844560451" y="871.9888158112273" width="9.699325939104735" height="7.730393725850245" fill="#ff8700" opacity="0.1647081816719631" rx="1"/><rect x="455.334492438085" y="888.2970409440568" width="7.610953814259487" height="7.4189781829293295" fill="#ff5e00" opacity="0.22852798184112832" rx="1"/><rect x="438.6525705184677" y="892.0065300355215" width="7.610953814259487" height="7.4189781829293295" fill="#ff8700" opacity="0.11426399092056416" rx="1"/><rect x="456.18849152587086" y="908.4704629398115" width="5.902955638687814" height="9.030058288720916" fill="#ff5e00" opacity="0.2866420234289584" rx="1"/><rect x="439.50656960625355" y="912.9854920841719" width="5.902955638687814" height="9.030058288720916" fill="#ff8700" opacity="0.1433210117144792" rx="1"/><rect x="454.0804304818344" y="928.6438849355661" width="10.119077726760665" height="7.079971096729853" fill="#ff5e00" opacity="0.5828944613651592" rx="1"/><rect x="437.3985085622171" y="932.1838704839311" width="10.119077726760665" height="7.079971096729853" fill="#ff8700" opacity="0.2914472306825796" rx="1"/><rect x="455.6252145596373" y="948.8173069313209" width="7.029509571154954" height="7.822418944403161" fill="#ff5e00" opacity="0.20900047237728733" rx="1"/><rect x="438.94329264002" y="952.7285164035225" width="7.029509571154954" height="7.822418944403161" fill="#ff8700" opacity="0.10450023618864367" rx="1"/><rect x="455.8749508268374" y="968.9907289270756" width="6.530037036754665" height="7.374815109505974" fill="#ff5e00" opacity="0.49996190425007647" rx="1"/><rect x="439.1930289072201" y="972.6781364818286" width="6.530037036754665" height="7.374815109505974" fill="#ff8700" opacity="0.24998095212503824" rx="1"/><rect x="492.9767107597964" y="860.4172893125603" width="57.897057628235096" height="118.74686161026983" fill="#2d1600" opacity="0.4689886224151097" rx="2"/><rect x="519.0645224661716" y="870.4172893125603" width="5.721434215484521" height="6.919499730905401" fill="#ff5e00" opacity="0.10915405841291745" rx="1"/><rect x="504.5902580591129" y="873.8770391780131" width="5.721434215484521" height="6.919499730905401" fill="#ff8700" opacity="0.054577029206458724" rx="1"/><rect x="519.3818417802411" y="894.1666616346143" width="5.086795587345677" height="9.866160676783455" fill="#ff5e00" opacity="0.5093034369659851" rx="1"/><rect x="504.90757737318233" y="899.0997419730061" width="5.086795587345677" height="9.866160676783455" fill="#ff8700" opacity="0.25465171848299256" rx="1"/><rect x="518.4222467386682" y="917.9160339566682" width="7.005985670491584" height="6.610343564443836" fill="#ff5e00" opacity="0.15824174919590395" rx="1"/><rect x="503.9479823316094" y="921.2212057388901" width="7.005985670491584" height="6.610343564443836" fill="#ff8700" opacity="0.07912087459795197" rx="1"/><rect x="518.064337922508" y="941.6654062787222" width="7.721803302811878" height="9.616746528916234" fill="#ff5e00" opacity="0.3994530695256435" rx="1"/><rect x="503.59007351544926" y="946.4737795431804" width="7.721803302811878" height="9.616746528916234" fill="#ff8700" opacity="0.19972653476282176" rx="1"/><rect x="516.9218085016873" y="965.4147786007762" width="10.006862144453187" height="6.982893388015892" fill="#ff5e00" opacity="0.5998341789468736" rx="1"/><rect x="502.4475440946286" y="968.9062252947841" width="10.006862144453187" height="6.982893388015892" fill="#ff8700" opacity="0.2999170894734368" rx="1"/><rect x="581.0954047462659" y="819.9449208029417" width="44.1159184030527" height="159.2192301198885" fill="#2d1600" opacity="0.6553789920302525" rx="2"/><rect x="597.3140561646582" y="829.9449208029417" width="11.678615566268242" height="6.282383621736053" fill="#ff5e00" opacity="0.3413724719643063" rx="1"/><rect x="586.2850765638949" y="833.0861126138097" width="11.678615566268242" height="6.282383621736053" fill="#ff8700" opacity="0.17068623598215316" rx="1"/><rect x="600.8807867020091" y="849.8473245679278" width="4.54515449156639" height="9.803623337252908" fill="#ff5e00" opacity="0.3206845249097525" rx="1"/><rect x="589.8518071012459" y="854.7491362365542" width="4.54515449156639" height="9.803623337252908" fill="#ff8700" opacity="0.16034226245487626" rx="1"/><rect x="600.9641352482056" y="869.7497283329138" width="4.37845739917328" height="9.864093650100774" fill="#ff5e00" opacity="0.451311693049807" rx="1"/><rect x="589.9351556474423" y="874.6817751579642" width="4.37845739917328" height="9.864093650100774" fill="#ff8700" opacity="0.2256558465249035" rx="1"/><rect x="598.8868332248849" y="889.6521320978999" width="8.533061445814806" height="8.080108479149665" fill="#ff5e00" opacity="0.5467597585047501" rx="1"/><rect x="587.8578536241216" y="893.6921863374747" width="8.533061445814806" height="8.080108479149665" fill="#ff8700" opacity="0.27337987925237506" rx="1"/><rect x="600.7899098759028" y="909.554535862886" width="4.726908143779009" height="7.3076507722278246" fill="#ff5e00" opacity="0.47397149598085586" rx="1"/><rect x="589.7609302751396" y="913.208361249" width="4.726908143779009" height="7.3076507722278246" fill="#ff8700" opacity="0.23698574799042793" rx="1"/><rect x="597.9049580648785" y="929.4569396278721" width="10.496811765827427" height="9.905531498581528" fill="#ff5e00" opacity="0.3951729545125675" rx="1"/><rect x="586.8759784641153" y="934.4097053771628" width="10.496811765827427" height="9.905531498581528" fill="#ff8700" opacity="0.19758647725628375" rx="1"/><rect x="598.4516687210304" y="949.3593433928581" width="9.403390453523814" height="6.573846397123729" fill="#ff5e00" opacity="0.47558345971060534" rx="1"/><rect x="587.4226891202671" y="952.64626659142" width="9.403390453523814" height="6.573846397123729" fill="#ff8700" opacity="0.23779172985530267" rx="1"/><rect x="601.0423343461106" y="969.2617471578442" width="4.222059203363504" height="9.517422364912328" fill="#ff5e00" opacity="0.41246803312387037" rx="1"/><rect x="590.0133547453473" y="974.0204583403004" width="4.222059203363504" height="9.517422364912328" fill="#ff8700" opacity="0.20623401656193519" rx="1"/><rect x="662.682680888726" y="683.3172951669706" width="31.14375470698433" height="295.84685575585974" fill="#2d1600" opacity="0.6866515935134729" rx="2"/><rect x="672.3847929661592" y="693.3172951669706" width="11.739530552117976" height="7.292542467194735" fill="#ff5e00" opacity="0.39556873633888756" rx="1"/><rect x="664.5988542894132" y="696.963566400568" width="11.739530552117976" height="7.292542467194735" fill="#ff8700" opacity="0.19778436816944378" rx="1"/><rect x="676.0031388003852" y="791.9329137522572" width="4.502838883666051" height="7.265726988498524" fill="#ff5e00" opacity="0.38351105604868174" rx="1"/><rect x="668.2172001236391" y="795.5657772465064" width="4.502838883666051" height="7.265726988498524" fill="#ff8700" opacity="0.19175552802434087" rx="1"/><rect x="673.7421654217742" y="890.5485323375437" width="9.024785640888098" height="9.431707179972834" fill="#ff5e00" opacity="0.4741037873258125" rx="1"/><rect x="665.9562267450282" y="895.2643859275302" width="9.024785640888098" height="9.431707179972834" fill="#ff8700" opacity="0.23705189366290624" rx="1"/><rect x="738.5714125560064" y="817.3172223771264" width="67.56681813801796" height="161.84692854570386" fill="#130000" opacity="0.5059920719838683" rx="2"/><rect x="767.2126714718091" y="827.3172223771264" width="10.284300306412462" height="9.641867210073832" fill="#ff5e00" opacity="0.4627012571931587" rx="1"/><rect x="750.3209669373047" y="832.1381559821633" width="10.284300306412462" height="9.641867210073832" fill="#ff8700" opacity="0.23135062859657934" rx="1"/><rect x="768.2732679558156" y="881.2661985590278" width="8.163107338399419" height="8.117604912751728" fill="#ff5e00" opacity="0.49978563666804354" rx="1"/><rect x="751.3815634213112" y="885.3250010154036" width="8.163107338399419" height="8.117604912751728" fill="#ff8700" opacity="0.24989281833402177" rx="1"/><rect x="769.3330261442653" y="935.215174740929" width="6.043590961499976" height="6.927048346243577" fill="#ff5e00" opacity="0.501393192680877" rx="1"/><rect x="752.4413216097608" y="938.6786989140508" width="6.043590961499976" height="6.927048346243577" fill="#ff8700" opacity="0.2506965963404385" rx="1"/><rect x="825.882056487231" y="655.9411526904304" width="44.99394512618751" height="323.22299823239985" fill="#130000" opacity="0.6319812225252346" rx="2"/><rect x="843.1664537182465" y="665.9411526904304" width="10.425150664156572" height="7.336100503182062" fill="#ff5e00" opacity="0.13201233305316706" rx="1"/><rect x="831.9179674366997" y="669.6092029420214" width="10.425150664156572" height="7.336100503182062" fill="#ff8700" opacity="0.06600616652658353" rx="1"/><rect x="844.0574700182902" y="730.5857523369103" width="8.643118064068984" height="7.729139067635206" fill="#ff5e00" opacity="0.1981536250557177" rx="1"/><rect x="832.8089837367434" y="734.450321870728" width="8.643118064068984" height="7.729139067635206" fill="#ff8700" opacity="0.09907681252785885" rx="1"/><rect x="845.7830435705331" y="795.2303519833904" width="5.191970959583291" height="6.255131308048761" fill="#ff5e00" opacity="0.33026831593137895" rx="1"/><rect x="834.5345572889862" y="798.3579176374147" width="5.191970959583291" height="6.255131308048761" fill="#ff8700" opacity="0.16513415796568948" rx="1"/><rect x="846.0596307858498" y="859.8749516298703" width="4.638796528950054" height="7.955348716572707" fill="#ff5e00" opacity="0.37658304776451157" rx="1"/><rect x="834.8111445043029" y="863.8526259881567" width="4.638796528950054" height="7.955348716572707" fill="#ff8700" opacity="0.18829152388225578" rx="1"/><rect x="845.6690833146379" y="924.5195512763503" width="5.419891471373823" height="9.331011757098839" fill="#ff5e00" opacity="0.4280087009370347" rx="1"/><rect x="834.420597033091" y="929.1850571548997" width="5.419891471373823" height="9.331011757098839" fill="#ff8700" opacity="0.21400435046851735" rx="1"/><rect x="896.9439820542335" y="616.5858461443768" width="38.180440568407164" height="362.5783047784535" fill="#130000" opacity="0.5311845118019694" rx="2"/><rect x="910.8459614016688" y="626.5858461443768" width="10.376481873536594" height="7.775349662121234" fill="#ff5e00" opacity="0.2411365009008759" rx="1"/><rect x="901.3008512595669" y="630.4735209754374" width="10.376481873536594" height="7.775349662121234" fill="#ff8700" opacity="0.12056825045043795" rx="1"/><rect x="913.8995317083084" y="678.382746827013" width="4.269341260257489" height="8.923573413613152" fill="#ff5e00" opacity="0.5279097538506402" rx="1"/><rect x="904.3544215662065" y="682.8445335338196" width="4.269341260257489" height="8.923573413613152" fill="#ff8700" opacity="0.2639548769253201" rx="1"/><rect x="910.9349670731311" y="730.1796475096492" width="10.198470530612038" height="6.299266147496939" fill="#ff5e00" opacity="0.43644228157038856" rx="1"/><rect x="901.3898569310293" y="733.3292805833976" width="10.198470530612038" height="6.299266147496939" fill="#ff8700" opacity="0.21822114078519428" rx="1"/><rect x="910.7463218871844" y="781.9765481922855" width="10.575760902505312" height="9.66982762694122" fill="#ff5e00" opacity="0.5482211436722942" rx="1"/><rect x="901.2012117450826" y="786.8114620057561" width="10.575760902505312" height="9.66982762694122" fill="#ff8700" opacity="0.2741105718361471" rx="1"/><rect x="911.8101866577775" y="833.7734488749217" width="8.448031361319131" height="6.804369639792566" fill="#ff5e00" opacity="0.5754742196471138" rx="1"/><rect x="902.2650765156757" y="837.175633694818" width="8.448031361319131" height="6.804369639792566" fill="#ff8700" opacity="0.2877371098235569" rx="1"/><rect x="910.941807833021" y="885.5703495575578" width="10.184789010832269" height="8.464089707113823" fill="#ff5e00" opacity="0.4341248989650339" rx="1"/><rect x="901.3966976909192" y="889.8023944111147" width="10.184789010832269" height="8.464089707113823" fill="#ff8700" opacity="0.21706244948251696" rx="1"/><rect x="913.1716706641419" y="937.367250240194" width="5.725063348590644" height="7.89026818654739" fill="#ff5e00" opacity="0.37517826512343677" rx="1"/><rect x="903.62656052204" y="941.3123843334678" width="5.725063348590644" height="7.89026818654739" fill="#ff8700" opacity="0.18758913256171839" rx="1"/><rect x="986.7306471748116" y="784.0661084125903" width="52.72792071633225" height="195.09804251023988" fill="#130000" opacity="0.5987988672682082" rx="2"/><rect x="1007.3353255112504" y="794.0661084125903" width="11.518564043454491" height="7.5785088142330075" fill="#ff5e00" opacity="0.11371160196459656" rx="1"/><rect x="994.1533453321674" y="797.8553628197068" width="11.518564043454491" height="7.5785088142330075" fill="#ff8700" opacity="0.05685580098229828" rx="1"/><rect x="1007.2848996464826" y="859.098789249337" width="11.619415772990187" height="9.483649670957506" fill="#ff5e00" opacity="0.2259361895792969" rx="1"/><rect x="994.1029194673996" y="863.8406140848157" width="11.619415772990187" height="9.483649670957506" fill="#ff8700" opacity="0.11296809478964845" rx="1"/><rect x="1010.5327248832984" y="924.1314700860836" width="5.12376529935835" height="6.801268396154342" fill="#ff5e00" opacity="0.5635083012896377" rx="1"/><rect x="997.3507447042155" y="927.5321042841608" width="5.12376529935835" height="6.801268396154342" fill="#ff8700" opacity="0.28175415064481885" rx="1"/><rect x="1052.3906810098306" y="703.2592860407334" width="38.037250225440886" height="275.90486488209683" fill="#130000" opacity="0.5209784995347677" rx="2"/><rect x="1067.152471147513" y="713.2592860407334" width="8.513669950075837" height="8.620838621310153" fill="#ff5e00" opacity="0.40604371971125797" rx="1"/><rect x="1057.643158591153" y="717.5697053513885" width="8.513669950075837" height="8.620838621310153" fill="#ff8700" opacity="0.20302185985562898" rx="1"/><rect x="1068.0769777747516" y="747.7473941509955" width="6.6646566955988895" height="8.859738400871805" fill="#ff5e00" opacity="0.22699897613539338" rx="1"/><rect x="1058.5676652183915" y="752.1772633514314" width="6.6646566955988895" height="8.859738400871805" fill="#ff8700" opacity="0.11349948806769669" rx="1"/><rect x="1066.3789074475362" y="782.2355022612576" width="10.060797350029647" height="7.703275581287052" fill="#ff5e00" opacity="0.2580628739106615" rx="1"/><rect x="1056.8695948911761" y="786.0871400519011" width="10.060797350029647" height="7.703275581287052" fill="#ff8700" opacity="0.12903143695533076" rx="1"/><rect x="1069.201600962831" y="816.7236103715197" width="4.415410319439929" height="9.896416671549998" fill="#ff5e00" opacity="0.30396226637623325" rx="1"/><rect x="1059.6922884064709" y="821.6718187072947" width="4.415410319439929" height="9.896416671549998" fill="#ff8700" opacity="0.15198113318811662" rx="1"/><rect x="1065.8518922624298" y="851.2117184817819" width="11.114827720242278" height="9.253614644346204" fill="#ff5e00" opacity="0.5690779918965599" rx="1"/><rect x="1056.3425797060697" y="855.838525803955" width="11.114827720242278" height="9.253614644346204" fill="#ff8700" opacity="0.28453899594827997" rx="1"/><rect x="1065.8464505883974" y="885.6998265920439" width="11.125711068307448" height="7.053354483343044" fill="#ff5e00" opacity="0.17932182554605458" rx="1"/><rect x="1056.3371380320373" y="889.2265038337155" width="11.125711068307448" height="7.053354483343044" fill="#ff8700" opacity="0.08966091277302729" rx="1"/><rect x="1066.3227666326152" y="920.187934702306" width="10.173078979871487" height="8.67853330044973" fill="#ff5e00" opacity="0.14010708759075663" rx="1"/><rect x="1056.813454076255" y="924.5272013525309" width="10.173078979871487" height="8.67853330044973" fill="#ff8700" opacity="0.07005354379537831" rx="1"/><rect x="1066.8883369797582" y="954.6760428125681" width="9.041938285585944" height="7.753819088859907" fill="#ff5e00" opacity="0.4923976116097527" rx="1"/><rect x="1057.379024423398" y="958.552952356998" width="9.041938285585944" height="7.753819088859907" fill="#ff8700" opacity="0.24619880580487635" rx="1"/><rect x="1129.8030945518526" y="846.9257050419519" width="67.72445960848697" height="132.23844588087837" fill="#130000" opacity="0.6261047743554471" rx="2"/><rect x="1158.0771466277254" y="856.9257050419519" width="11.17635545674161" height="9.764601726961462" fill="#ff5e00" opacity="0.36106688200055315" rx="1"/><rect x="1141.1460317256035" y="861.8080059054327" width="11.17635545674161" height="9.764601726961462" fill="#ff8700" opacity="0.18053344100027657" rx="1"/><rect x="1160.2603754599718" y="883.3733942181276" width="6.809897792248497" height="9.482921854472469" fill="#ff5e00" opacity="0.32071472246216487" rx="1"/><rect x="1143.32926055785" y="888.1148551453639" width="6.809897792248497" height="9.482921854472469" fill="#ff8700" opacity="0.16035736123108243" rx="1"/><rect x="1159.222688520379" y="909.8210833943033" width="8.885271671434229" height="9.454953564204033" fill="#ff5e00" opacity="0.39254131060851305" rx="1"/><rect x="1142.2915736182572" y="914.5485601764053" width="8.885271671434229" height="9.454953564204033" fill="#ff8700" opacity="0.19627065530425652" rx="1"/><rect x="1159.5997084147762" y="936.268772570479" width="8.131231882639982" height="7.206624384319089" fill="#ff5e00" opacity="0.46384926023051354" rx="1"/><rect x="1142.6685935126543" y="939.8720847626386" width="8.131231882639982" height="7.206624384319089" fill="#ff8700" opacity="0.23192463011525677" rx="1"/><rect x="1158.862210696531" y="962.7164617466547" width="9.606227319130262" height="7.9767186487970685" fill="#ff5e00" opacity="0.3684634252843595" rx="1"/><rect x="1141.9310957944092" y="966.7048210710532" width="9.606227319130262" height="7.9767186487970685" fill="#ff8700" opacity="0.18423171264217975" rx="1"/><rect x="1228.6076753303892" y="692.8182044166183" width="62.61772850822139" height="286.345946506212" fill="#2d1600" opacity="0.4980590330665138" rx="2"/><rect x="1254.2307257440943" y="702.8182044166183" width="11.371627680811013" height="9.591706676313585" fill="#ff5e00" opacity="0.48093191289364634" rx="1"/><rect x="1238.576293617039" y="707.6140577547751" width="11.371627680811013" height="9.591706676313585" fill="#ff8700" opacity="0.24046595644682317" rx="1"/><rect x="1256.1011231204263" y="798.2668532520223" width="7.630832928146895" height="8.823847430484333" fill="#ff5e00" opacity="0.4834745984951674" rx="1"/><rect x="1240.446690993371" y="802.6787769672645" width="7.630832928146895" height="8.823847430484333" fill="#ff8700" opacity="0.2417372992475837" rx="1"/><rect x="1255.580647427258" y="893.7155020874263" width="8.671784314483354" height="6.352643224492819" fill="#ff5e00" opacity="0.4468615579993608" rx="1"/><rect x="1239.9262153002028" y="896.8918236996727" width="8.671784314483354" height="6.352643224492819" fill="#ff8700" opacity="0.2234307789996804" rx="1"/><rect x="1301.5251385377546" y="651.6168127538675" width="36.54810901418051" height="327.5473381689627" fill="#130000" opacity="0.5080488755619268" rx="2"/><rect x="1314.2137240933287" y="661.6168127538675" width="11.17093790303239" height="8.319775877129235" fill="#ff5e00" opacity="0.2632571771422534" rx="1"/><rect x="1305.0766968397834" y="665.7767006924321" width="11.17093790303239" height="8.319775877129235" fill="#ff8700" opacity="0.1316285885711267" rx="1"/><rect x="1317.3444909961765" y="743.5036472961082" width="4.9094040973366715" height="7.3807762305673155" fill="#ff5e00" opacity="0.4132194161445879" rx="1"/><rect x="1308.2074637426313" y="747.1940354113918" width="4.9094040973366715" height="7.3807762305673155" fill="#ff8700" opacity="0.20660970807229395" rx="1"/><rect x="1314.7027288590798" y="825.3904818383489" width="10.192928371530243" height="9.693098977136682" fill="#ff5e00" opacity="0.4097716167824742" rx="1"/><rect x="1305.5657016055345" y="830.2370313269173" width="10.192928371530243" height="9.693098977136682" fill="#ff8700" opacity="0.2048858083912371" rx="1"/><rect x="1313.9217090622806" y="907.2773163805896" width="11.754967965128591" height="6.033981529072388" fill="#ff5e00" opacity="0.4757628369787156" rx="1"/><rect x="1304.7846818087353" y="910.2943071451258" width="11.754967965128591" height="6.033981529072388" fill="#ff8700" opacity="0.2378814184893578" rx="1"/><rect x="1372.5008866429564" y="698.5570288609148" width="68.64670541105949" height="280.60712206191545" fill="#130000" opacity="0.6709008302704667" rx="2"/><rect x="1402.9940264457823" y="708.5570288609148" width="7.660425805407675" height="6.614106888094476" fill="#ff5e00" opacity="0.22500992594869107" rx="1"/><rect x="1385.8323500930176" y="711.864082304962" width="7.660425805407675" height="6.614106888094476" fill="#ff8700" opacity="0.11250496297434553" rx="1"/><rect x="1404.269020387267" y="802.0927362148866" width="5.110437922438243" height="8.371680402749144" fill="#ff5e00" opacity="0.22135846217194538" rx="1"/><rect x="1387.1073440345021" y="806.2785764162612" width="5.110437922438243" height="8.371680402749144" fill="#ff8700" opacity="0.11067923108597269" rx="1"/><rect x="1402.5794489205766" y="895.6284435688584" width="8.489580855818833" height="6.136614462392548" fill="#ff5e00" opacity="0.3300508706201918" rx="1"/><rect x="1385.4177725678119" y="898.6967508000547" width="8.489580855818833" height="6.136614462392548" fill="#ff8700" opacity="0.1650254353100959" rx="1"/><rect x="1447.248320290178" y="728.959240945745" width="39.49274227244145" height="250.20490997708518" fill="#2d1600" opacity="0.42521823268039577" rx="2"/><rect x="1463.3249808671708" y="738.959240945745" width="7.339421118455804" height="6.197102526248689" fill="#ff5e00" opacity="0.5972842171549062" rx="1"/><rect x="1453.4517952990604" y="742.0577922088694" width="7.339421118455804" height="6.197102526248689" fill="#ff8700" opacity="0.2986421085774531" rx="1"/><rect x="1463.2993443832497" y="780.6600592752592" width="7.390694086298042" height="6.884590962176349" fill="#ff5e00" opacity="0.21007278240520338" rx="1"/><rect x="1453.4261588151394" y="784.1023547563474" width="7.390694086298042" height="6.884590962176349" fill="#ff8700" opacity="0.10503639120260169" rx="1"/><rect x="1461.1361592361088" y="822.3608776047735" width="11.717064380579876" height="8.354961924803202" fill="#ff5e00" opacity="0.1647316057152887" rx="1"/><rect x="1451.2629736679985" y="826.538358567175" width="11.717064380579876" height="8.354961924803202" fill="#ff8700" opacity="0.08236580285764435" rx="1"/><rect x="1463.6709820918438" y="864.0616959342876" width="6.647418669110029" height="6.913373097990028" fill="#ff5e00" opacity="0.11841157058216902" rx="1"/><rect x="1453.7977965237335" y="867.5183824832826" width="6.647418669110029" height="6.913373097990028" fill="#ff8700" opacity="0.05920578529108451" rx="1"/><rect x="1463.9852557957602" y="905.7625142638018" width="6.018871261276973" height="9.70755605858461" fill="#ff5e00" opacity="0.4611942492102259" rx="1"/><rect x="1454.1120702276498" y="910.6162922930941" width="6.018871261276973" height="9.70755605858461" fill="#ff8700" opacity="0.23059712460511295" rx="1"/><rect x="1463.006506506355" y="947.463332593316" width="7.976369840087456" height="9.33275572288147" fill="#ff5e00" opacity="0.143557675216244" rx="1"/><rect x="1453.1333209382447" y="952.1297104547567" width="7.976369840087456" height="9.33275572288147" fill="#ff8700" opacity="0.071778837608122" rx="1"/><rect x="1527.4808871251253" y="804.4183981265915" width="78.58642455856" height="174.74575279623872" fill="#130000" opacity="0.48181097521023153" rx="2"/><rect x="1564.0733942485117" y="814.4183981265915" width="5.401410311786786" height="6.707913642914014" fill="#ff5e00" opacity="0.15517562619763792" rx="1"/><rect x="1544.4267881088717" y="817.7723549480485" width="5.401410311786786" height="6.707913642914014" fill="#ff8700" opacity="0.07758781309881896" rx="1"/><rect x="1561.052836324566" y="872.6669823920043" width="11.442526159678243" height="8.869705598538207" fill="#ff5e00" opacity="0.22990298474438092" rx="1"/><rect x="1541.406230184926" y="877.1018351912735" width="11.442526159678243" height="8.869705598538207" fill="#ff8700" opacity="0.11495149237219046" rx="1"/><rect x="1563.7831659449223" y="930.9155666574172" width="5.981866918965677" height="9.053595999966747" fill="#ff5e00" opacity="0.28294467595008777" rx="1"/><rect x="1544.1365598052823" y="935.4423646574006" width="5.981866918965677" height="9.053595999966747" fill="#ff8700" opacity="0.14147233797504388" rx="1"/><rect x="1611.3222032322833" y="692.1220727595785" width="37.58981868801401" height="287.04207816325174" fill="#2d1600" opacity="0.5521035316055882" rx="2"/><rect x="1625.1898123478027" y="702.1220727595785" width="9.854600456975074" height="7.911578611915833" fill="#ff5e00" opacity="0.5173969985957716" rx="1"/><rect x="1615.7923576757992" y="706.0778620655364" width="9.854600456975074" height="7.911578611915833" fill="#ff8700" opacity="0.2586984992978858" rx="1"/><rect x="1627.1777153928247" y="749.9624191201204" width="5.878794366931262" height="6.516759240188812" fill="#ff5e00" opacity="0.2512563312778381" rx="1"/><rect x="1617.7802607208212" y="753.2207987402148" width="5.878794366931262" height="6.516759240188812" fill="#ff8700" opacity="0.12562816563891904" rx="1"/><rect x="1627.2121306229876" y="797.8027654806624" width="5.809963906605254" height="6.47152059256833" fill="#ff5e00" opacity="0.4159459513416388" rx="1"/><rect x="1617.814675950984" y="801.0385257769466" width="5.809963906605254" height="6.47152059256833" fill="#ff8700" opacity="0.2079729756708194" rx="1"/><rect x="1627.0027155056603" y="845.6431118412044" width="6.228794141260161" height="6.557389286476511" fill="#ff5e00" opacity="0.1133525157611241" rx="1"/><rect x="1617.6052608336568" y="848.9218064844426" width="6.228794141260161" height="6.557389286476511" fill="#ff8700" opacity="0.05667625788056205" rx="1"/><rect x="1627.2000832353253" y="893.4834582017463" width="5.834058681929964" height="6.699516400857716" fill="#ff5e00" opacity="0.47748055750911134" rx="1"/><rect x="1617.8026285633218" y="896.8332164021751" width="5.834058681929964" height="6.699516400857716" fill="#ff8700" opacity="0.23874027875455567" rx="1"/><rect x="1627.933610956402" y="941.3238045622883" width="4.367003239776707" height="9.908386363626548" fill="#ff5e00" opacity="0.1955500571512501" rx="1"/><rect x="1618.5361562843984" y="946.2779977441015" width="4.367003239776707" height="9.908386363626548" fill="#ff8700" opacity="0.09777502857562505" rx="1"/><rect x="1690.352813184809" y="681.5074730272189" width="55.26856628834935" height="297.6566778956113" fill="#130000" opacity="0.6942965743584317" rx="2"/><rect x="1715.2549942141059" y="691.5074730272189" width="5.464204229755374" height="7.324652434635128" fill="#ff5e00" opacity="0.48014857200443484" rx="1"/><rect x="1701.4378526420187" y="695.1697992445364" width="5.464204229755374" height="7.324652434635128" fill="#ff8700" opacity="0.24007428600221742" rx="1"/><rect x="1715.0671658334477" y="751.0388086063411" width="5.839860991071877" height="8.092941302362117" fill="#ff5e00" opacity="0.5607788176417301" rx="1"/><rect x="1701.2500242613605" y="755.0852792575222" width="5.839860991071877" height="8.092941302362117" fill="#ff8700" opacity="0.28038940882086505" rx="1"/><rect x="1715.894819386046" y="810.5701441854634" width="4.184553885875399" height="7.0851154832833245" fill="#ff5e00" opacity="0.2648202427115338" rx="1"/><rect x="1702.0776778139589" y="814.112701927105" width="4.184553885875399" height="7.0851154832833245" fill="#ff8700" opacity="0.1324101213557669" rx="1"/><rect x="1714.3037279316463" y="870.1014797645857" width="7.366736794674475" height="6.403770169337227" fill="#ff5e00" opacity="0.3363356828541345" rx="1"/><rect x="1700.4865863595592" y="873.3033648492543" width="7.366736794674475" height="6.403770169337227" fill="#ff8700" opacity="0.16816784142706726" rx="1"/><rect x="1713.3376992122123" y="929.632815343708" width="9.298794233542587" height="9.2364971505563" fill="#ff5e00" opacity="0.41475655159790925" rx="1"/><rect x="1699.5205576401252" y="934.2510639189861" width="9.298794233542587" height="9.2364971505563" fill="#ff8700" opacity="0.20737827579895463" rx="1"/><rect x="1761.8139292792914" y="854.1173187326913" width="43.304362560926094" height="125.04683219013896" fill="#130000" opacity="0.5977649984876079" rx="2"/><rect x="1780.5043579892963" y="864.1173187326913" width="5.923505140916329" height="6.66883792278097" fill="#ff5e00" opacity="0.34004464858212613" rx="1"/><rect x="1769.6782673490648" y="867.4517376940818" width="5.923505140916329" height="6.66883792278097" fill="#ff8700" opacity="0.17002232429106306" rx="1"/><rect x="1779.098357249074" y="895.379026780226" width="8.735506621360663" height="8.693854663216941" fill="#ff5e00" opacity="0.380740401540124" rx="1"/><rect x="1768.2722666088425" y="899.7259541118345" width="8.735506621360663" height="8.693854663216941" fill="#ff8700" opacity="0.190370200770062" rx="1"/><rect x="1781.3118133727255" y="926.6407348277608" width="4.308594374057975" height="6.792848114108864" fill="#ff5e00" opacity="0.3007102296223655" rx="1"/><rect x="1770.485722732494" y="930.0371588848152" width="4.308594374057975" height="6.792848114108864" fill="#ff8700" opacity="0.15035511481118274" rx="1"/><rect x="1780.214213693797" y="957.9024428752955" width="6.503793731914785" height="6.687295209776446" fill="#ff5e00" opacity="0.4815756902055758" rx="1"/><rect x="1769.3881230535656" y="961.2460904801837" width="6.503793731914785" height="6.687295209776446" fill="#ff8700" opacity="0.2407878451027879" rx="1"/><rect x="1841.3196850221882" y="699.3995353694538" width="47.8536589345554" height="279.7646155533764" fill="#2d1600" opacity="0.4706593395375319" rx="2"/><rect x="1860.9350813198682" y="709.3995353694538" width="8.622866339195255" height="9.075395677023426" fill="#ff5e00" opacity="0.5728782959219251" rx="1"/><rect x="1848.9716665862295" y="713.9372332079655" width="8.622866339195255" height="9.075395677023426" fill="#ff8700" opacity="0.28643914796096254" rx="1"/><rect x="1861.4888201031108" y="756.0269712950166" width="7.515388772710084" height="9.992929656988226" fill="#ff5e00" opacity="0.14821769021177145" rx="1"/><rect x="1849.525405369472" y="761.0234361235107" width="7.515388772710084" height="9.992929656988226" fill="#ff8700" opacity="0.07410884510588572" rx="1"/><rect x="1860.0019313495145" y="802.6544072205793" width="10.489166279902953" height="6.707260731772347" fill="#ff5e00" opacity="0.5227587064781131" rx="1"/><rect x="1848.0385166158758" y="806.0080375864654" width="10.489166279902953" height="6.707260731772347" fill="#ff8700" opacity="0.26137935323905653" rx="1"/><rect x="1861.3597045224997" y="849.281843146142" width="7.773619933932466" height="7.099633098835971" fill="#ff5e00" opacity="0.2604110401031587" rx="1"/><rect x="1849.396289788861" y="852.83165969556" width="7.773619933932466" height="7.099633098835971" fill="#ff8700" opacity="0.13020552005157934" rx="1"/><rect x="1861.1820236547342" y="895.9092790717048" width="8.128981669463446" height="6.036250620157516" fill="#ff5e00" opacity="0.2812875378367695" rx="1"/><rect x="1849.2186089210954" y="898.9274043817835" width="8.128981669463446" height="6.036250620157516" fill="#ff8700" opacity="0.14064376891838476" rx="1"/><rect x="1861.364029454152" y="942.5367149972675" width="7.764970070627744" height="9.112598784061287" fill="#ff5e00" opacity="0.4706317164168301" rx="1"/><rect x="1849.4006147205132" y="947.0930143892981" width="7.764970070627744" height="9.112598784061287" fill="#ff8700" opacity="0.23531585820841505" rx="1"/><path d="M1785.107548503463 826.7093172126239 Q1785.039839894753 732.1029365021044 1785.026298173011 637.4965557915849" stroke="#000000" stroke-width="5.810042284850507" fill="none" stroke-linecap="round"/><path d="M1785.026298173011 637.4965557915849 Q1826.3379491736034 617.4965557915849 1841.8069420638044 637.4965557915849" stroke="#000000" stroke-width="3.2312100611699766" fill="none" stroke-linecap="round" opacity="0.6"/><path d="M1785.026298173011 637.4965557915849 Q1811.1430511774806 624.2832233061979 1821.1075431203212 651.069890820811" stroke="#000000" stroke-width="3.774758606165358" fill="none" stroke-linecap="round" opacity="0.6"/><path d="M1785.026298173011 637.4965557915849 Q1787.5743380575448 622.2922133411639 1777.729114565669 647.087870890743" stroke="#000000" stroke-width="3.3341789863384745" fill="none" stroke-linecap="round" opacity="0.6"/><path d="M1785.026298173011 637.4965557915849 Q1765.2813113777574 620.5963286934204 1742.1146664718337 643.696101595256" stroke="#000000" stroke-width="2.6815237832911136" fill="none" stroke-linecap="round" opacity="0.6"/><path d="M1785.026298173011 637.4965557915849 Q1780.3846513633666 614.9068524206118 1749.1758017690038 632.3171490496388" stroke="#000000" stroke-width="3.1610208803697075" fill="none" stroke-linecap="round" opacity="0.6"/><path d="M1785.026298173011 637.4965557915849 Q1785.5014026654092 606.891255218743 1768.889027175029 616.285954645901" stroke="#000000" stroke-width="3.017538663236783" fill="none" stroke-linecap="round" opacity="0.6"/><path d="M227.27869575547027 941.937264064778 Q222.66917160774332 859.9626976961649 221.7472667781979 777.9881313275519" stroke="#000000" stroke-width="5.899897417495935" fill="none" stroke-linecap="round"/><path d="M221.7472667781979 777.9881313275519 Q274.4090318731985 757.9881313275519 292.24766284698796 777.9881313275519" stroke="#000000" stroke-width="3.3391202742557784" fill="none" stroke-linecap="round" opacity="0.6"/><path d="M221.7472667781979 777.9881313275519 Q249.30844503667518 766.9197532105311 269.23213858643595 795.8513750935103" stroke="#000000" stroke-width="2.4710442559959005" fill="none" stroke-linecap="round" opacity="0.6"/><path d="M221.7472667781979 777.9881313275519 Q232.35728971435105 765.6579532548685 210.07668808056783 793.3277751821852" stroke="#000000" stroke-width="3.963208036488669" fill="none" stroke-linecap="round" opacity="0.6"/><path d="M221.7472667781979 777.9881313275519 Q200.5001972973632 761.6716361030881 170.75475690634906 785.3551408786243" stroke="#000000" stroke-width="3.1823784339200656" fill="none" stroke-linecap="round" opacity="0.6"/><path d="M221.7472667781979 777.9881313275519 Q206.7241761501829 754.9003847797404 179.00212162004578 771.812638231929" stroke="#000000" stroke-width="2.113906859446761" fill="none" stroke-linecap="round" opacity="0.6"/><path d="M1654.030406115118 878.4927639128856 Q1650.1350720203795 781.9519560567458 1649.3560052014318 685.4111482006058" stroke="#000000" stroke-width="4.3779580975831385" fill="none" stroke-linecap="round"/><path d="M1649.3560052014318 685.4111482006058 Q1684.1449639227112 665.4111482006058 1688.1642721104818 685.4111482006058" stroke="#000000" stroke-width="2.575661475904207" fill="none" stroke-linecap="round" opacity="0.6"/><path d="M1649.3560052014318 685.4111482006058 Q1684.283119671964 673.465332390285 1692.1759889376087 701.5195165799641" stroke="#000000" stroke-width="3.1828664241318743" fill="none" stroke-linecap="round" opacity="0.6"/><path d="M1649.3560052014318 685.4111482006058 Q1650.8600431736008 675.8711335816986 1633.4398491650932 706.3311189627915" stroke="#000000" stroke-width="3.684301625398058" fill="none" stroke-linecap="round" opacity="0.6"/><path d="M1649.3560052014318 685.4111482006058 Q1636.1261475157373 669.5780209617453 1591.6720022327609 693.7448937228849" stroke="#000000" stroke-width="2.961136824675169" fill="none" stroke-linecap="round" opacity="0.6"/><path d="M1649.3560052014318 685.4111482006058 Q1621.3765386156358 660.3073732587305 1578.7020194008069 675.2035983168553" stroke="#000000" stroke-width="2.9541242534653573" fill="none" stroke-linecap="round" opacity="0.6"/><path d="M916.3581242310718 800.3864075290938 Q913.1676696364693 677.5070295034691 912.5295787175488 554.6276514778443" stroke="#000000" stroke-width="6.734565850983971" fill="none" stroke-linecap="round"/><path d="M912.5295787175488 554.6276514778443 Q966.7129917532935 534.6276514778443 982.9951883514866 554.6276514778443" stroke="#000000" stroke-width="2.7892303422068316" fill="none" stroke-linecap="round" opacity="0.6"/><path d="M912.5295787175488 554.6276514778443 Q938.4062076444098 543.1786267325645 957.9907468150903 571.7296019872846" stroke="#000000" stroke-width="2.049284425575585" fill="none" stroke-linecap="round" opacity="0.6"/><path d="M912.5295787175488 554.6276514778443 Q921.0634714777628 539.0706718832002 905.7689759568503 563.5136922885562" stroke="#000000" stroke-width="3.6538456617048585" fill="none" stroke-linecap="round" opacity="0.6"/><path d="M912.5295787175488 554.6276514778443 Q909.5793280119403 537.7010497127458 869.9830640844781 560.7744479476473" stroke="#000000" stroke-width="2.0786090730872493" fill="none" stroke-linecap="round" opacity="0.6"/><path d="M912.5295787175488 554.6276514778443 Q895.2593714003818 531.4063463078778 867.9355179820518 548.1850411379113" stroke="#000000" stroke-width="3.884696362978941" fill="none" stroke-linecap="round" opacity="0.6"/><path d="M912.5295787175488 554.6276514778443 Q911.3752536958009 523.6288160468519 895.7934959641141 532.6299806158594" stroke="#000000" stroke-width="2.19610356637186" fill="none" stroke-linecap="round" opacity="0.6"/><path d="M600.4744288233281 840.3611569992177 Q595.4960605165678 766.2835400065602 594.5003868552158 692.2059230139027" stroke="#000000" stroke-width="6.086331292541309" fill="none" stroke-linecap="round"/><path d="M594.5003868552158 692.2059230139027 Q630.9967080245251 672.2059230139027 642.5885959413341 692.2059230139027" stroke="#000000" stroke-width="3.394239070218578" fill="none" stroke-linecap="round" opacity="0.6"/><path d="M594.5003868552158 692.2059230139027 Q609.86491251669 677.2468626713166 621.3004884002127 702.2878023287304" stroke="#000000" stroke-width="3.331576676417975" fill="none" stroke-linecap="round" opacity="0.6"/><path d="M594.5003868552158 692.2059230139027 Q599.5987492436119 681.0226516782029 581.0846483012483 709.8393803425032" stroke="#000000" stroke-width="3.5083649026947947" fill="none" stroke-linecap="round" opacity="0.6"/><path d="M594.5003868552158 692.2059230139027 Q577.5651601741044 676.9705225811132 528.5417672058038 701.7351221483236" stroke="#000000" stroke-width="3.1149774340714744" fill="none" stroke-linecap="round" opacity="0.6"/><path d="M594.5003868552158 692.2059230139027 Q559.4378751562198 667.0979808327138 523.7887119772619 681.990038651525" stroke="#000000" stroke-width="3.7284012710974554" fill="none" stroke-linecap="round" opacity="0.6"/><path d="M594.5003868552158 692.2059230139027 Q602.5071690661013 666.7679040850863 586.225771294466 681.3298851562699" stroke="#000000" stroke-width="2.806840697956933" fill="none" stroke-linecap="round" opacity="0.6"/><rect x="0" y="1000" width="1920" height="80" fill="#070000" opacity="0.8"/><line x1="0" y1="1040" x2="1920" y2="1040" stroke="#ff5e00" stroke-opacity="0.15" stroke-width="2" stroke-dasharray="30,20"/><rect x="0" y="930" width="1920" height="150" fill="url(#glow97)"/><text x="1900" y="1060" font-family="Arial, sans-serif" font-size="11" fill="#fff" opacity="0.08" text-anchor="end" letter-spacing="2">GTA 6 REWARDS · WALLPAPER 098</text>
</svg>