<?xml version="1.0" encoding="UTF-8"?>
<svg xmlns="http://www.w3.org/2000/svg" width="1920" height="1080" viewBox="0 0 1920 1080">
<defs>
    <linearGradient id="bg74" x1="0%" y1="0%" x2="0%" y2="100%">
      <stop offset="0%" stop-color="#003566"/>
      <stop offset="50%" stop-color="#000233"/>
      <stop offset="100%" stop-color="#003566"/>
    </linearGradient>
    <linearGradient id="sun74" x1="0%" y1="0%" x2="100%" y2="100%">
      <stop offset="0%" stop-color="#ffd60a"/>
      <stop offset="100%" stop-color="#ffc300"/>
    </linearGradient>
    <radialGradient id="glow74" cx="50%" cy="70%" r="50%">
      <stop offset="0%" stop-color="#ffd60a" stop-opacity="0.3"/>
      <stop offset="100%" stop-color="#003566" stop-opacity="0"/>
    </radialGradient>
  </defs><rect width="1920" height="1080" fill="url(#bg74)"/><circle cx="1166.3644657624804" cy="598.1237056660755" r="750.4351253738708" fill="#ffd60a" opacity="0.11145336599123044"/><circle cx="1366.3644657624804" cy="498.12370566607547" r="465.325107440661" fill="#ffc300" opacity="0.1202782274946287"/><line x1="0" y1="980" x2="1920" y2="980" stroke="#ffc300" stroke-opacity="0.05" stroke-width="2"/><line x1="0" y1="935" x2="1920" y2="935" stroke="#ffc300" stroke-opacity="0.049" stroke-width="0.5"/><line x1="0" y1="890" x2="1920" y2="890" stroke="#ffc300" stroke-opacity="0.048" stroke-width="0.5"/><line x1="0" y1="845" x2="1920" y2="845" stroke="#ffc300" stroke-opacity="0.047" stroke-width="0.5"/><line x1="0" y1="800" x2="1920" y2="800" stroke="#ffc300" stroke-opacity="0.046" stroke-width="0.5"/><line x1="0" y1="755" x2="1920" y2="755" stroke="#ffc300" stroke-opacity="0.045" stroke-width="0.5"/><line x1="0" y1="710" x2="1920" y2="710" stroke="#ffc300" stroke-opacity="0.044" stroke-width="0.5"/><line x1="0" y1="665" x2="1920" y2="665" stroke="#ffc300" stroke-opacity="0.043" stroke-width="0.5"/><line x1="0" y1="620" x2="1920" y2="620" stroke="#ffc300" stroke-opacity="0.041999999999999996" stroke-width="0.5"/><line x1="0" y1="575" x2="1920" y2="575" stroke="#ffc300" stroke-opacity="0.041" stroke-width="0.5"/><line x1="0" y1="530" x2="1920" y2="530" stroke="#ffc300" stroke-opacity="0.04" stroke-width="0.5"/><line x1="0" y1="485" x2="1920" y2="485" stroke="#ffc300" stroke-opacity="0.039" stroke-width="0.5"/><line x1="0" y1="440" x2="1920" y2="440" stroke="#ffc300" stroke-opacity="0.038" stroke-width="0.5"/><line x1="0" y1="395" x2="1920" y2="395" stroke="#ffc300" stroke-opacity="0.037" stroke-width="0.5"/><line x1="0" y1="350" x2="1920" y2="350" stroke="#ffc300" stroke-opacity="0.036" stroke-width="0.5"/><line x1="0" y1="305" x2="1920" y2="305" stroke="#ffc300" stroke-opacity="0.034999999999999996" stroke-width="0.5"/><line x1="0" y1="260" x2="1920" y2="260" stroke="#ffc300" stroke-opacity="0.033999999999999996" stroke-width="0.5"/><line x1="0" y1="215" x2="1920" y2="215" stroke="#ffc300" stroke-opacity="0.033" stroke-width="0.5"/><line x1="0" y1="170" x2="1920" y2="170" stroke="#ffc300" stroke-opacity="0.032" stroke-width="0.5"/><line x1="0" y1="125" x2="1920" y2="125" stroke="#ffc300" stroke-opacity="0.031" stroke-width="0.5"/><line x1="560" y1="1080" x2="860" y2="580" stroke="#ffd60a" stroke-opacity="0.04" stroke-width="1"/><line x1="640" y1="1080" x2="880" y2="590" stroke="#ffd60a" stroke-opacity="0.04" stroke-width="1"/><line x1="720" y1="1080" x2="900" y2="600" stroke="#ffd60a" stroke-opacity="0.04" stroke-width="1"/><line x1="800" y1="1080" x2="920" y2="610" stroke="#ffd60a" stroke-opacity="0.04" stroke-width="1"/><line x1="880" y1="1080" x2="940" y2="620" stroke="#ffd60a" stroke-opacity="0.04" stroke-width="1"/><line x1="960" y1="1080" x2="960" y2="630" stroke="#ffd60a" stroke-opacity="0.04" stroke-width="1"/><line x1="1040" y1="1080" x2="980" y2="620" stroke="#ffd60a" stroke-opacity="0.04" stroke-width="1"/><line x1="1120" y1="1080" x2="1000" y2="610" stroke="#ffd60a" stroke-opacity="0.04" stroke-width="1"/><line x1="1200" y1="1080" x2="1020" y2="600" stroke="#ffd60a" stroke-opacity="0.04" stroke-width="1"/><line x1="1280" y1="1080" x2="1040" y2="590" stroke="#ffd60a" stroke-opacity="0.04" stroke-width="1"/><line x1="1360" y1="1080" x2="1060" y2="580" stroke="#ffd60a" stroke-opacity="0.04" stroke-width="1"/><circle cx="1267.5464045646477" cy="407.49478450917985" r="62.897848999802456" fill="url(#sun74)" opacity="0.8021255951845379"/><circle cx="1267.5464045646477" cy="407.49478450917985" r="57.897848999802456" fill="#003566" opacity="0.3"/><pattern id="scan74" width="1920" height="4" patternUnits="userSpaceOnUse">
      <line x1="0" y1="0" x2="1920" y2="0" stroke="#000" stroke-opacity="0.05" stroke-width="1"/>
    </pattern>
    <rect width="1920" height="1080" fill="url(#scan74)"/><circle cx="471.7361297811699" cy="187.13677488526722" r="0.6054786507984341" fill="#fff" opacity="0.35900221223919704"/><circle cx="1753.148283770575" cy="272.7284743005243" r="1.0356141208986784" fill="#fff" opacity="0.5934335888348132"/><circle cx="310.3191716201415" cy="131.6112655446891" r="0.6396260008075335" fill="#fff" opacity="0.4035165671267352"/><circle cx="615.0022192241164" cy="266.30394326390325" r="1.1998349369270342" fill="#fff" opacity="0.4571957708003921"/><circle cx="517.1658415806401" cy="407.05869482249454" r="1.9171878304139682" fill="#fff" opacity="0.7184831642821625"/><circle cx="1321.4113174475292" cy="245.57619539778125" r="1.8266948518172592" fill="#fff" opacity="0.20478259073681726"/><circle cx="259.4860116251479" cy="28.34005811725279" r="1.4265861724099578" fill="#fff" opacity="0.5546071339292934"/><circle cx="591.6880145556498" cy="95.06266866602532" r="0.5989903037201125" fill="#fff" opacity="0.689050596600643"/><circle cx="978.9528878822348" cy="33.22128863288585" r="1.2546409628714066" fill="#fff" opacity="0.36115480651174553"/><circle cx="1027.510619104726" cy="361.451356390829" r="1.6598322879662346" fill="#fff" opacity="0.5451223625673731"/><circle cx="815.6321746519842" cy="3.6217946791140814" r="0.6886724075741769" fill="#fff" opacity="0.5445203524885048"/><circle cx="770.6756465441258" cy="143.11301124820324" r="1.730919600634584" fill="#fff" opacity="0.35024816248338864"/><circle cx="543.3063779546196" cy="405.4707504076582" r="0.5651460922242016" fill="#fff" opacity="0.4154518818984395"/><circle cx="1375.3591886384784" cy="360.4938676190781" r="1.2252878603118678" fill="#fff" opacity="0.6458143020155407"/><circle cx="1662.3372351523344" cy="210.3227361334308" r="1.8753475494159728" fill="#fff" opacity="0.46486137287338763"/><circle cx="876.0157685531341" cy="378.2881523171179" r="1.8853004681610734" fill="#fff" opacity="0.5828096088447631"/><circle cx="1372.498240343411" cy="126.45657242053575" r="0.929751575093193" fill="#fff" opacity="0.6090656674022473"/><circle cx="1401.0288685842017" cy="45.27283079113644" r="0.9543254348575896" fill="#fff" opacity="0.4582238247753642"/><circle cx="533.9282245687042" cy="405.1450434637128" r="0.6848815902333897" fill="#fff" opacity="0.5793742148623275"/><circle cx="1486.9099128728058" cy="324.35146216031893" r="1.6766617815421572" fill="#fff" opacity="0.30581021297392674"/><circle cx="33.67114529797601" cy="68.31000286441063" r="1.9791976264629507" fill="#fff" opacity="0.7415861534284396"/><circle cx="122.1047392771823" cy="416.275081768696" r="0.9160537369120991" fill="#fff" opacity="0.39854070255498886"/><circle cx="308.619481247994" cy="220.1948795309744" r="1.501513645286093" fill="#fff" opacity="0.7395918085099178"/><circle cx="971.1108999725224" cy="185.42991852234815" r="1.4029941733235014" fill="#fff" opacity="0.764132412794077"/><circle cx="1870.8654713516275" cy="419.9517654077969" r="1.188395426885317" fill="#fff" opacity="0.3846319935714435"/><circle cx="1804.6310882001721" cy="23.36221758447639" r="0.9184952201131953" fill="#fff" opacity="0.524601606448321"/><circle cx="814.0932590174706" cy="327.9954610038538" r="1.2037011554240484" fill="#fff" opacity="0.4520731608970261"/><circle cx="1817.0519524573003" cy="220.5439717836082" r="0.9744844358587834" fill="#fff" opacity="0.7700532911275637"/><circle cx="1833.6870494283937" cy="302.7576160949556" r="1.1000063290353879" fill="#fff" opacity="0.5529463130405514"/><circle cx="155.13893905913898" cy="55.449977764731734" r="1.3661524280594086" fill="#fff" opacity="0.48841610999973867"/><circle cx="1506.3967769375063" cy="66.72202948171692" r="0.7423124772595038" fill="#fff" opacity="0.2276362362847748"/><circle cx="349.7165023604679" cy="119.6569354924506" r="1.8724367690441284" fill="#fff" opacity="0.439351873388363"/><circle cx="206.91973199297666" cy="414.22022347110794" r="1.5367078094362998" fill="#fff" opacity="0.5541224379451299"/><circle cx="1340.1552114030708" cy="160.88380070051267" r="1.56201685745316" fill="#fff" opacity="0.7906091292832533"/><circle cx="30.084284849018857" cy="294.40062601640835" r="1.3643384975996657" fill="#fff" opacity="0.660634195679015"/><circle cx="1540.297403992223" cy="205.12068488754346" r="1.503911349806914" fill="#fff" opacity="0.6133276225098706"/><circle cx="71.67643459319984" cy="93.19854711303454" r="1.2078208775976256" fill="#fff" opacity="0.6598870068462303"/><circle cx="1825.925800033362" cy="116.45147892936401" r="1.3864464828247312" fill="#fff" opacity="0.3646742799237078"/><circle cx="1529.6039900764831" cy="44.47798074699891" r="1.8783915014654378" fill="#fff" opacity="0.5600862502027504"/><circle cx="939.9973862571636" cy="422.2214418924929" r="1.030908800901591" fill="#fff" opacity="0.6164607388005734"/><circle cx="695.3073711822059" cy="354.0992753659606" r="1.1300778438174346" fill="#fff" opacity="0.5799420628184317"/><circle cx="1150.0175815518055" cy="329.4521398864342" r="0.8757315694530801" fill="#fff" opacity="0.44079406392779064"/><circle cx="1654.9093883612447" cy="221.30364730518863" r="1.9063786415863733" fill="#fff" opacity="0.7973021932405657"/><circle cx="456.2287269104805" cy="186.03770721937477" r="1.6102598703257414" fill="#fff" opacity="0.32655846693705737"/><circle cx="1776.2556244098246" cy="158.5733245980398" r="0.7868265633673469" fill="#fff" opacity="0.7996618266682285"/><circle cx="760.6947042328992" cy="356.4486304569171" r="1.2897384291956522" fill="#fff" opacity="0.6730956915470528"/><circle cx="416.9864443915399" cy="9.533196332290117" r="1.0999435056233646" fill="#fff" opacity="0.6170761602039161"/><circle cx="353.3939186561373" cy="83.05320181768694" r="1.957176798362559" fill="#fff" opacity="0.7011902487606718"/><circle cx="378.50654536357763" cy="179.98367085400588" r="0.886734002010602" fill="#fff" opacity="0.6143930611699804"/><circle cx="632.0999923330033" cy="375.25826038216667" r="0.7404600497662229" fill="#fff" opacity="0.46532756636508915"/><circle cx="367.9437067471314" cy="172.61321002538622" r="1.8275723522127543" fill="#fff" opacity="0.34142065135329513"/><circle cx="1604.2622113982825" cy="260.84822451436156" r="0.6099853947781924" fill="#fff" opacity="0.43510806426292004"/><circle cx="44.514954249494465" cy="327.9182804729599" r="1.9910758624298208" fill="#fff" opacity="0.3205067086779761"/><circle cx="34.80114028668058" cy="238.54098883609777" r="1.94938765709507" fill="#fff" opacity="0.6333394948470731"/><circle cx="1318.6270007581047" cy="238.82205530601135" r="1.2869338758259392" fill="#fff" opacity="0.5019282631813382"/><rect x="14.542886096644887" y="591.781504403749" width="59.02572872327309" height="324.0656003644842" fill="#003566" opacity="0.6409720559467031" rx="2"/><rect x="40.816748493774035" y="601.781504403749" width="6.478003929014784" height="9.628318740899749" fill="#ffc300" opacity="0.16054982660816747" rx="1"/><rect x="26.060316312955766" y="606.5956637741988" width="6.478003929014784" height="9.628318740899749" fill="#ffd60a" opacity="0.08027491330408373" rx="1"/><rect x="39.27515784471183" y="666.5946244766458" width="9.561185227139198" height="8.858353442246642" fill="#ffc300" opacity="0.41594315341579335" rx="1"/><rect x="24.51872566389356" y="671.0238011977691" width="9.561185227139198" height="8.858353442246642" fill="#ffd60a" opacity="0.20797157670789668" rx="1"/><rect x="40.067772230382026" y="731.4077445495427" width="7.975956455798809" height="7.54603169149394" fill="#ffc300" opacity="0.5153659975657626" rx="1"/><rect x="25.311340049563753" y="735.1807603952897" width="7.975956455798809" height="7.54603169149394" fill="#ffd60a" opacity="0.2576829987828813" rx="1"/><rect x="41.472913402708464" y="796.2208646224395" width="5.165674111145938" height="7.426411503326709" fill="#ffc300" opacity="0.20732941122430598" rx="1"/><rect x="26.716481221890188" y="799.9340703741029" width="5.165674111145938" height="7.426411503326709" fill="#ffd60a" opacity="0.10366470561215299" rx="1"/><rect x="38.42414339525256" y="861.0339846953364" width="11.26321412605774" height="9.41823848416522" fill="#ffc300" opacity="0.2129499033822096" rx="1"/><rect x="23.667711214434288" y="865.7431039374189" width="11.26321412605774" height="9.41823848416522" fill="#ffd60a" opacity="0.1064749516911048" rx="1"/><rect x="147.5651634315879" y="752.2665075846637" width="72.90886042707339" height="163.58059718356947" fill="#003566" opacity="0.4120490596424903" rx="2"/><rect x="180.13594296368208" y="762.2665075846637" width="7.767301362885" height="9.059952133116301" fill="#ffc300" opacity="0.24583407357470927" rx="1"/><rect x="161.90872785691374" y="766.7964836512218" width="7.767301362885" height="9.059952133116301" fill="#ffd60a" opacity="0.12291703678735463" rx="1"/><rect x="181.08206148726913" y="803.161656880556" width="5.87506431571093" height="6.8476149916759725" fill="#ffc300" opacity="0.3611670800859963" rx="1"/><rect x="162.8548463805008" y="806.585464376394" width="5.87506431571093" height="6.8476149916759725" fill="#ffd60a" opacity="0.18058354004299815" rx="1"/><rect x="179.15456810736902" y="844.0568061764484" width="9.73005107551116" height="9.35950368907291" fill="#ffc300" opacity="0.2986921985397796" rx="1"/><rect x="160.92735300060068" y="848.7365580209848" width="9.73005107551116" height="9.35950368907291" fill="#ffd60a" opacity="0.1493460992698898" rx="1"/><rect x="181.94808704055566" y="884.9519554723408" width="4.143013209137836" height="8.063448044020554" fill="#ffc300" opacity="0.3761895583887095" rx="1"/><rect x="163.72087193378732" y="888.9836794943511" width="4.143013209137836" height="8.063448044020554" fill="#ffd60a" opacity="0.18809477919435474" rx="1"/><rect x="245.13908262018558" y="834.5231443956782" width="31.354812677333786" height="81.32396037255506" fill="#003566" opacity="0.6369697113607474" rx="2"/><rect x="257.0631784596627" y="844.5231443956782" width="7.506620998379454" height="6.365901701237518" fill="#ffc300" opacity="0.5064352009227582" rx="1"/><rect x="249.2244752903293" y="847.706095246297" width="7.506620998379454" height="6.365901701237518" fill="#ffd60a" opacity="0.2532176004613791" rx="1"/><rect x="257.86945904951295" y="858.0771377911041" width="5.894059818679015" height="8.161190366875658" fill="#ffc300" opacity="0.1430083306373582" rx="1"/><rect x="250.03075588017953" y="862.1577329745419" width="5.894059818679015" height="8.161190366875658" fill="#ffd60a" opacity="0.0715041653186791" rx="1"/><rect x="257.48160931060124" y="871.6311311865298" width="6.669759296502397" height="8.239192293546907" fill="#ffc300" opacity="0.31661731081935984" rx="1"/><rect x="249.64290614126784" y="875.7507273333033" width="6.669759296502397" height="8.239192293546907" fill="#ffd60a" opacity="0.15830865540967992" rx="1"/><rect x="254.93536709620042" y="885.1851245819557" width="11.762243725304083" height="6.550192339473915" fill="#ffc300" opacity="0.2232273601049621" rx="1"/><rect x="247.096663926867" y="888.4602207516926" width="11.762243725304083" height="6.550192339473915" fill="#ffd60a" opacity="0.11161368005248105" rx="1"/><rect x="256.4802757532988" y="898.7391179773815" width="8.672426411107281" height="6.55450896093494" fill="#ffc300" opacity="0.5196118539943387" rx="1"/><rect x="248.6415725839654" y="902.016372457849" width="8.672426411107281" height="6.55450896093494" fill="#ffd60a" opacity="0.25980592699716937" rx="1"/><rect x="257.56228201896005" y="912.2931113728074" width="6.508413879784852" height="9.288635080514624" fill="#ffc300" opacity="0.3983493168834479" rx="1"/><rect x="249.72357884962662" y="916.9374289130648" width="6.508413879784852" height="9.288635080514624" fill="#ffd60a" opacity="0.19917465844172394" rx="1"/><rect x="364.07798744134556" y="557.2584201482262" width="52.314906349013306" height="358.5886846200071" fill="#003566" opacity="0.4384799679132365" rx="2"/><rect x="386.4782175848908" y="567.2584201482262" width="7.514446061922807" height="7.792731997043065" fill="#ffc300" opacity="0.13041521309186127" rx="1"/><rect x="373.39949099763743" y="571.1547861467477" width="7.514446061922807" height="7.792731997043065" fill="#ffd60a" opacity="0.06520760654593064" rx="1"/><rect x="386.9375175861496" y="612.0820057257271" width="6.5958460594052095" height="7.81097888523037" fill="#ffc300" opacity="0.4977525608841685" rx="1"/><rect x="373.85879099889627" y="615.9874951683422" width="6.5958460594052095" height="7.81097888523037" fill="#ffd60a" opacity="0.24887628044208426" rx="1"/><rect x="385.9889492194608" y="656.9055913032279" width="8.492982792782826" height="7.289602542596311" fill="#ffc300" opacity="0.5084922238039999" rx="1"/><rect x="372.9102226322074" y="660.5503925745261" width="8.492982792782826" height="7.289602542596311" fill="#ffd60a" opacity="0.25424611190199997" rx="1"/><rect x="386.99073224048846" y="701.7291768807288" width="6.4894167507275515" height="8.79119153478909" fill="#ffc300" opacity="0.3923745942051463" rx="1"/><rect x="373.9120056532351" y="706.1247726481233" width="6.4894167507275515" height="8.79119153478909" fill="#ffd60a" opacity="0.19618729710257315" rx="1"/><rect x="387.6584496341316" y="746.5527624582297" width="5.153981963441238" height="8.069708354321707" fill="#ffc300" opacity="0.5975209137186224" rx="1"/><rect x="374.57972304687826" y="750.5876166353905" width="5.153981963441238" height="8.069708354321707" fill="#ffd60a" opacity="0.2987604568593112" rx="1"/><rect x="387.16437514409523" y="791.3763480357306" width="6.142130943513972" height="9.981125624845998" fill="#ffc300" opacity="0.5257444795048201" rx="1"/><rect x="374.0856485568419" y="796.3669108481537" width="6.142130943513972" height="9.981125624845998" fill="#ffd60a" opacity="0.26287223975241003" rx="1"/><rect x="386.16139763015354" y="836.1999336132315" width="8.148085971397368" height="9.581319926209124" fill="#ffc300" opacity="0.20781563145756154" rx="1"/><rect x="373.0826710429002" y="840.990593576336" width="8.148085971397368" height="9.581319926209124" fill="#ffd60a" opacity="0.10390781572878077" rx="1"/><rect x="387.92498642600253" y="881.0235191907324" width="4.620908379699315" height="6.514938923650174" fill="#ffc300" opacity="0.48007809824312064" rx="1"/><rect x="374.8462598387492" y="884.2809886525574" width="4.620908379699315" height="6.514938923650174" fill="#ffd60a" opacity="0.24003904912156032" rx="1"/><rect x="485.9587885849082" y="732.1541712228568" width="46.125719634845325" height="183.69293354537638" fill="#001b4c" opacity="0.43748209696204454" rx="2"/><rect x="503.77766299172714" y="742.1541712228568" width="10.487970821207384" height="6.995249727972609" fill="#ffc300" opacity="0.10450560601998718" rx="1"/><rect x="492.24623308301585" y="745.6517960868431" width="10.487970821207384" height="6.995249727972609" fill="#ffd60a" opacity="0.05225280300999359" rx="1"/><rect x="504.13259864997406" y="803.3851490713156" width="9.778099504713458" height="9.38421106510428" fill="#ffc300" opacity="0.394769476585735" rx="1"/><rect x="492.60116874126277" y="808.0772546038677" width="9.778099504713458" height="9.38421106510428" fill="#ffd60a" opacity="0.1973847382928675" rx="1"/><rect x="503.79382615368667" y="864.6161269197744" width="10.455644497288308" height="9.191236852479921" fill="#ffc300" opacity="0.1356235635782647" rx="1"/><rect x="492.2623962449754" y="869.2117453460144" width="10.455644497288308" height="9.191236852479921" fill="#ffd60a" opacity="0.06781178178913234" rx="1"/><rect x="612.4395985720771" y="547.8839715355737" width="30.47771718364156" height="367.96313323265946" fill="#003566" opacity="0.6721399191934941" rx="2"/><rect x="622.7791668511412" y="557.8839715355737" width="9.798580625513239" height="6.968496704699588" fill="#ffc300" opacity="0.24570703337567557" rx="1"/><rect x="615.1597375552309" y="561.3682198879235" width="9.798580625513239" height="6.968496704699588" fill="#ffd60a" opacity="0.12285351668783778" rx="1"/><rect x="623.7648749893449" y="631.4765981821056" width="7.827164349105946" height="8.508264544072622" fill="#ffc300" opacity="0.3677486640791755" rx="1"/><rect x="616.1454456934346" y="635.7307304541418" width="7.827164349105946" height="8.508264544072622" fill="#ffd60a" opacity="0.18387433203958775" rx="1"/><rect x="621.8834342478968" y="705.0692248286375" width="11.59004583200208" height="6.085692247395798" fill="#ffc300" opacity="0.28444710927653294" rx="1"/><rect x="614.2640049519865" y="708.1120709523354" width="11.59004583200208" height="6.085692247395798" fill="#ffd60a" opacity="0.14222355463826647" rx="1"/><rect x="622.0771866960165" y="778.6618514751693" width="11.20254093576282" height="7.465989247305782" fill="#ffc300" opacity="0.12184902830558109" rx="1"/><rect x="614.4577574001062" y="782.3948460988222" width="11.20254093576282" height="7.465989247305782" fill="#ffd60a" opacity="0.06092451415279054" rx="1"/><rect x="621.7802155219903" y="852.2544781217013" width="11.796483283815085" height="9.751356595137938" fill="#ffc300" opacity="0.19121079384144646" rx="1"/><rect x="614.16078622608" y="857.1301564192702" width="11.796483283815085" height="9.751356595137938" fill="#ffd60a" opacity="0.09560539692072323" rx="1"/><rect x="732.9246736417815" y="656.070999441685" width="82.41276901504322" height="259.77610532654825" fill="#001b4c" opacity="0.6681047915872431" rx="2"/><rect x="768.5876748137148" y="666.070999441685" width="11.086766671176711" height="9.647088883362498" fill="#ffc300" opacity="0.5983703721078044" rx="1"/><rect x="747.9844825599539" y="670.8945438833663" width="11.086766671176711" height="9.647088883362498" fill="#ffd60a" opacity="0.2991851860539022" rx="1"/><rect x="771.9443308098579" y="703.1818716311918" width="4.373454678890634" height="6.078464442882329" fill="#ffc300" opacity="0.5817568011306591" rx="1"/><rect x="751.341138556097" y="706.221103852633" width="4.373454678890634" height="6.078464442882329" fill="#ffd60a" opacity="0.29087840056532954" rx="1"/><rect x="771.262967353748" y="740.2927438206988" width="5.736181591110347" height="8.788475804680138" fill="#ffc300" opacity="0.18618997912532417" rx="1"/><rect x="750.6597750999871" y="744.6869817230388" width="5.736181591110347" height="8.788475804680138" fill="#ffd60a" opacity="0.09309498956266209" rx="1"/><rect x="768.2754904900854" y="777.4036160102057" width="11.711135318435527" height="6.593461117845369" fill="#ffc300" opacity="0.528523770051199" rx="1"/><rect x="747.6722982363245" y="780.7003465691284" width="11.711135318435527" height="6.593461117845369" fill="#ffd60a" opacity="0.2642618850255995" rx="1"/><rect x="771.0195466326596" y="814.5144881997126" width="6.223023033287149" height="9.923260054533198" fill="#ffc300" opacity="0.24574494565505184" rx="1"/><rect x="750.4163543788987" y="819.4761182269791" width="6.223023033287149" height="9.923260054533198" fill="#ffd60a" opacity="0.12287247282752592" rx="1"/><rect x="771.6105653281815" y="851.6253603892194" width="5.040985642243406" height="8.636872079837339" fill="#ffc300" opacity="0.41380286121596654" rx="1"/><rect x="751.0073730744206" y="855.943796429138" width="5.040985642243406" height="8.636872079837339" fill="#ffd60a" opacity="0.20690143060798327" rx="1"/><rect x="769.9884733667105" y="888.7362325787263" width="8.285169565185246" height="8.78394157876818" fill="#ffc300" opacity="0.36163207547777143" rx="1"/><rect x="749.3852811129497" y="893.1282033681105" width="8.285169565185246" height="8.78394157876818" fill="#ffd60a" opacity="0.18081603773888572" rx="1"/><rect x="869.3679697297905" y="636.8273596830729" width="50.846427870180094" height="279.0197450851602" fill="#003566" opacity="0.5412126968245052" rx="2"/><rect x="889.4709204022007" y="646.8273596830729" width="10.640526525359723" height="8.740973957521136" fill="#ffc300" opacity="0.39496724444789977" rx="1"/><rect x="876.7593134346556" y="651.1978466618335" width="10.640526525359723" height="8.740973957521136" fill="#ffd60a" opacity="0.19748362222394988" rx="1"/><rect x="889.2417751825978" y="681.704827818718" width="11.0988169645655" height="8.363545952915109" fill="#ffc300" opacity="0.3660638723210581" rx="1"/><rect x="876.5301682150528" y="685.8866007951755" width="11.0988169645655" height="8.363545952915109" fill="#ffd60a" opacity="0.18303193616052904" rx="1"/><rect x="890.4378315190407" y="716.582295954363" width="8.706704291679594" height="8.24098787508928" fill="#ffc300" opacity="0.5874904619035056" rx="1"/><rect x="877.7262245514956" y="720.7027898919076" width="8.706704291679594" height="8.24098787508928" fill="#ffd60a" opacity="0.2937452309517528" rx="1"/><rect x="890.2987697569885" y="751.459764090008" width="8.984827815784335" height="6.785501918007038" fill="#ffc300" opacity="0.46325025834684497" rx="1"/><rect x="877.5871627894434" y="754.8525150490115" width="8.984827815784335" height="6.785501918007038" fill="#ffd60a" opacity="0.23162512917342248" rx="1"/><rect x="890.6896961507597" y="786.337232225653" width="8.202975028241745" height="8.277520711132679" fill="#ffc300" opacity="0.4380698007154441" rx="1"/><rect x="877.9780891832146" y="790.4759925812193" width="8.202975028241745" height="8.277520711132679" fill="#ffd60a" opacity="0.21903490035772205" rx="1"/><rect x="888.8368072085634" y="821.214700361298" width="11.908752912634228" height="6.236175135764334" fill="#ffc300" opacity="0.2029323973001289" rx="1"/><rect x="876.1252002410183" y="824.3327879291802" width="11.908752912634228" height="6.236175135764334" fill="#ffd60a" opacity="0.10146619865006445" rx="1"/><rect x="888.9640058162539" y="856.092168496943" width="11.654355697253337" height="6.375389193272076" fill="#ffc300" opacity="0.30072651670796946" rx="1"/><rect x="876.2523988487088" y="859.279863093579" width="11.654355697253337" height="6.375389193272076" fill="#ffd60a" opacity="0.15036325835398473" rx="1"/><rect x="892.6071048839035" y="890.9696366325882" width="4.368157561954147" height="6.968268787713784" fill="#ffc300" opacity="0.25407467427525543" rx="1"/><rect x="879.8954979163584" y="894.4537710264451" width="4.368157561954147" height="6.968268787713784" fill="#ffd60a" opacity="0.12703733713762771" rx="1"/><rect x="961.5479010975798" y="702.0769718340778" width="67.80165869691447" height="213.77013293415544" fill="#003566" opacity="0.6752962811559663" rx="2"/><rect x="993.2833333765816" y="712.0769718340778" width="4.3307941389109" height="8.830779092114135" fill="#ffc300" opacity="0.19970403383479082" rx="1"/><rect x="976.3329187023529" y="716.4923613801349" width="4.3307941389109" height="8.830779092114135" fill="#ffd60a" opacity="0.09985201691739541" rx="1"/><rect x="991.6429245389633" y="754.8309984209088" width="7.611611814147702" height="6.872241242060494" fill="#ffc300" opacity="0.5177688236622533" rx="1"/><rect x="974.6925098647346" y="758.267119041939" width="7.611611814147702" height="6.872241242060494" fill="#ffd60a" opacity="0.25888441183112665" rx="1"/><rect x="991.0253796530947" y="797.5850250077399" width="8.846701585884835" height="6.587423503535666" fill="#ffc300" opacity="0.2729678693630192" rx="1"/><rect x="974.074964978866" y="800.8787367595078" width="8.846701585884835" height="6.587423503535666" fill="#ffd60a" opacity="0.1364839346815096" rx="1"/><rect x="992.2103503162997" y="840.3390515945711" width="6.476760259474805" height="6.165823655241594" fill="#ffc300" opacity="0.10311104930078403" rx="1"/><rect x="975.259935642071" y="843.4219634221919" width="6.476760259474805" height="6.165823655241594" fill="#ffd60a" opacity="0.051555524650392016" rx="1"/><rect x="990.4154855505134" y="883.0930781814021" width="10.066489791047408" height="8.705188578624554" fill="#ffc300" opacity="0.5532340960468245" rx="1"/><rect x="973.4650708762847" y="887.4456724707144" width="10.066489791047408" height="8.705188578624554" fill="#ffd60a" opacity="0.27661704802341225" rx="1"/><rect x="1105.0897950667631" y="546.0339393108231" width="77.51715515915238" height="369.8131654574101" fill="#001b4c" opacity="0.6192108246076877" rx="2"/><rect x="1141.2163510355672" y="556.0339393108231" width="5.264043221544484" height="8.109943476996836" fill="#ffc300" opacity="0.5140574295106478" rx="1"/><rect x="1121.837062245779" y="560.0889110493216" width="5.264043221544484" height="8.109943476996836" fill="#ffd60a" opacity="0.2570287147553239" rx="1"/><rect x="1140.3800093981856" y="648.4872306751756" width="6.936726496307348" height="7.565300263828901" fill="#ffc300" opacity="0.4777175745642086" rx="1"/><rect x="1121.0007206083974" y="652.2698808070901" width="6.936726496307348" height="7.565300263828901" fill="#ffd60a" opacity="0.2388587872821043" rx="1"/><rect x="1141.1311662285896" y="740.9405220395282" width="5.434412835499834" height="6.11705389621599" fill="#ffc300" opacity="0.16881951926481434" rx="1"/><rect x="1121.7518774388013" y="743.9990489876362" width="5.434412835499834" height="6.11705389621599" fill="#ffd60a" opacity="0.08440975963240717" rx="1"/><rect x="1138.6119804008893" y="833.3938134038807" width="10.472784490900297" height="7.711520604256429" fill="#ffc300" opacity="0.24790115881429547" rx="1"/><rect x="1119.232691611101" y="837.249573706009" width="10.472784490900297" height="7.711520604256429" fill="#ffd60a" opacity="0.12395057940714774" rx="1"/><rect x="1204.7531061700436" y="774.292992142563" width="64.48567056900023" height="141.55411262567017" fill="#001b4c" opacity="0.6832414067078478" rx="2"/><rect x="1234.517269093431" y="784.292992142563" width="4.957344722225644" height="7.044635145236886" fill="#ffc300" opacity="0.4371671505358925" rx="1"/><rect x="1218.3958514511808" y="787.8153097151815" width="4.957344722225644" height="7.044635145236886" fill="#ffd60a" opacity="0.21858357526794625" rx="1"/><rect x="1234.1779820572533" y="819.6815202989806" width="5.635918794580716" height="9.779475931958174" fill="#ffc300" opacity="0.19745001888308908" rx="1"/><rect x="1218.056564415003" y="824.5712582649596" width="5.635918794580716" height="9.779475931958174" fill="#ffd60a" opacity="0.09872500944154454" rx="1"/><rect x="1231.3756125085931" y="855.070048455398" width="11.240657891901364" height="8.375800909096329" fill="#ffc300" opacity="0.2148052346228634" rx="1"/><rect x="1215.254194866343" y="859.2579489099462" width="11.240657891901364" height="8.375800909096329" fill="#ffd60a" opacity="0.1074026173114317" rx="1"/><rect x="1231.0550115713977" y="890.4585766118156" width="11.881859766291887" height="9.863500437667478" fill="#ffc300" opacity="0.5314639746284727" rx="1"/><rect x="1214.9335939291475" y="895.3903268306493" width="11.881859766291887" height="9.863500437667478" fill="#ffd60a" opacity="0.26573198731423636" rx="1"/><rect x="1332.546337736432" y="622.7318122104583" width="83.78868859582317" height="293.11529255777486" fill="#003566" opacity="0.6355801452034107" rx="2"/><rect x="1371.465053400133" y="632.7318122104583" width="5.951257268421179" height="9.863731410322648" fill="#ffc300" opacity="0.2079508685758223" rx="1"/><rect x="1350.5178812511772" y="637.6636779156196" width="5.951257268421179" height="9.863731410322648" fill="#ffd60a" opacity="0.10397543428791114" rx="1"/><rect x="1371.0318358726872" y="669.3712237801801" width="6.817692323312557" height="9.723763939860222" fill="#ffc300" opacity="0.5821545013650681" rx="1"/><rect x="1350.0846637237314" y="674.2331057501102" width="6.817692323312557" height="9.723763939860222" fill="#ffd60a" opacity="0.29107725068253404" rx="1"/><rect x="1368.8914676853203" y="706.010635349902" width="11.098428698046698" height="8.310939600297935" fill="#ffc300" opacity="0.530843025662667" rx="1"/><rect x="1347.9442955363645" y="710.166105150051" width="11.098428698046698" height="8.310939600297935" fill="#ffd60a" opacity="0.2654215128313335" rx="1"/><rect x="1368.8010280192366" y="742.650046919624" width="11.279308030214" height="9.293178893461167" fill="#ffc300" opacity="0.2340422449014248" rx="1"/><rect x="1347.8538558702808" y="747.2966363663545" width="11.279308030214" height="9.293178893461167" fill="#ffd60a" opacity="0.1170211224507124" rx="1"/><rect x="1371.9813624361952" y="779.2894584893457" width="4.918639196296837" height="7.6738799814306855" fill="#ffc300" opacity="0.5021071512024168" rx="1"/><rect x="1351.0341902872394" y="783.1263984800611" width="4.918639196296837" height="7.6738799814306855" fill="#ffd60a" opacity="0.2510535756012084" rx="1"/><rect x="1369.633598117771" y="815.9288700590675" width="9.614167833145281" height="9.97670086100155" fill="#ffc300" opacity="0.5425303378241441" rx="1"/><rect x="1348.6864259688152" y="820.9172204895683" width="9.614167833145281" height="9.97670086100155" fill="#ffd60a" opacity="0.27126516891207203" rx="1"/><rect x="1372.0034889515962" y="852.5682816287895" width="4.874386165494655" height="8.71468333590652" fill="#ffc300" opacity="0.5715009180296913" rx="1"/><rect x="1351.0563168026404" y="856.9256232967427" width="4.874386165494655" height="8.71468333590652" fill="#ffd60a" opacity="0.28575045901484564" rx="1"/><rect x="1371.4946842287886" y="889.2076931985114" width="5.8919956111097695" height="6.616272031473059" fill="#ffc300" opacity="0.5687821508778218" rx="1"/><rect x="1350.5475120798328" y="892.5158292142479" width="5.8919956111097695" height="6.616272031473059" fill="#ffd60a" opacity="0.2843910754389109" rx="1"/><rect x="1457.6366809447381" y="629.7223281882988" width="78.95397912919381" height="286.1247765799344" fill="#001b4c" opacity="0.6890876249151974" rx="2"/><rect x="1492.6002163909375" y="639.7223281882988" width="9.026908236794851" height="8.245667233654686" fill="#ffc300" opacity="0.5108899455542886" rx="1"/><rect x="1472.861721608639" y="643.8451618051262" width="9.026908236794851" height="8.245667233654686" fill="#ffd60a" opacity="0.2554449727771443" rx="1"/><rect x="1492.4264613421228" y="687.4097909516212" width="9.374418334424128" height="9.457551266871754" fill="#ffc300" opacity="0.5206832065062326" rx="1"/><rect x="1472.6879665598244" y="692.1385665850571" width="9.374418334424128" height="9.457551266871754" fill="#ffd60a" opacity="0.2603416032531163" rx="1"/><rect x="1492.3443299814462" y="735.0972537149436" width="9.538681055777399" height="6.222485135361199" fill="#ffc300" opacity="0.2837947997692495" rx="1"/><rect x="1472.6058351991478" y="738.2084962826242" width="9.538681055777399" height="6.222485135361199" fill="#ffd60a" opacity="0.14189739988462474" rx="1"/><rect x="1494.133144565656" y="782.784716478266" width="5.961051887357852" height="7.822519265539599" fill="#ffc300" opacity="0.3075762835348901" rx="1"/><rect x="1474.3946497833576" y="786.6959761110357" width="5.961051887357852" height="7.822519265539599" fill="#ffd60a" opacity="0.15378814176744504" rx="1"/><rect x="1492.4371124639727" y="830.4721792415884" width="9.353116090724505" height="9.103748920164943" fill="#ffc300" opacity="0.44633028166050326" rx="1"/><rect x="1472.6986176816742" y="835.0240537016708" width="9.353116090724505" height="9.103748920164943" fill="#ffd60a" opacity="0.22316514083025163" rx="1"/><rect x="1493.9757584284469" y="878.1596420049108" width="6.275824161776301" height="6.023576875222749" fill="#ffc300" opacity="0.3581105582085695" rx="1"/><rect x="1474.2372636461484" y="881.1714304425221" width="6.275824161776301" height="6.023576875222749" fill="#ffd60a" opacity="0.17905527910428476" rx="1"/><rect x="1576.415550926797" y="816.2428254532263" width="82.91794877800112" height="99.60427931500698" fill="#003566" opacity="0.6496164361130484" rx="2"/><rect x="1612.3670953445526" y="826.2428254532263" width="11.01485994248997" height="9.077403540508218" fill="#ffc300" opacity="0.3728021223500376" rx="1"/><rect x="1591.6376081500523" y="830.7815272234803" width="11.01485994248997" height="9.077403540508218" fill="#ffd60a" opacity="0.1864010611750188" rx="1"/><rect x="1614.8101567434637" y="840.472008212513" width="6.128737144667827" height="8.19336409545349" fill="#ffc300" opacity="0.23103102348536045" rx="1"/><rect x="1594.0806695489634" y="844.5686902602397" width="6.128737144667827" height="8.19336409545349" fill="#ffd60a" opacity="0.11551551174268022" rx="1"/><rect x="1615.5666328516247" y="854.7011909717996" width="4.615784928346002" height="6.225554608792429" fill="#ffc300" opacity="0.47666904259861187" rx="1"/><rect x="1594.8371456571244" y="857.8139682761959" width="4.615784928346002" height="6.225554608792429" fill="#ffd60a" opacity="0.23833452129930593" rx="1"/><rect x="1613.4299604008977" y="868.9303737310864" width="8.88912982980002" height="9.39461536784531" fill="#ffc300" opacity="0.3770906129798597" rx="1"/><rect x="1592.7004732063974" y="873.6276814150091" width="8.88912982980002" height="9.39461536784531" fill="#ffd60a" opacity="0.18854530648992984" rx="1"/><rect x="1612.527482566314" y="883.1595564903731" width="10.694085498967693" height="9.014729759426492" fill="#ffc300" opacity="0.2867024032833759" rx="1"/><rect x="1591.7979953718136" y="887.6669213700864" width="10.694085498967693" height="9.014729759426492" fill="#ffd60a" opacity="0.14335120164168794" rx="1"/><rect x="1614.808098842811" y="897.3887392496598" width="6.132852945973363" height="7.512397046553064" fill="#ffc300" opacity="0.40765358016538755" rx="1"/><rect x="1594.0786116483107" y="901.1449377729364" width="6.132852945973363" height="7.512397046553064" fill="#ffd60a" opacity="0.20382679008269378" rx="1"/><rect x="1614.481172462339" y="911.6179220089465" width="6.786705706917379" height="9.787707721765084" fill="#ffc300" opacity="0.22073264262190384" rx="1"/><rect x="1593.7516852678386" y="916.5117758698291" width="6.786705706917379" height="9.787707721765084" fill="#ffd60a" opacity="0.11036632131095192" rx="1"/><rect x="1694.0951635465246" y="738.3512169910482" width="38.24232536094317" height="177.49588777718503" fill="#003566" opacity="0.5976257632713825" rx="2"/><rect x="1711.1449570400046" y="748.3512169910482" width="4.142738373983358" height="6.132781085589151" fill="#ffc300" opacity="0.1746675944129628" rx="1"/><rect x="1701.5843756997688" y="751.4176075338428" width="4.142738373983358" height="6.132781085589151" fill="#ffd60a" opacity="0.0873337972064814" rx="1"/><rect x="1707.900933349249" y="773.707772387789" width="10.630785755494326" height="6.237317914198459" fill="#ffc300" opacity="0.1096868280111083" rx="1"/><rect x="1698.3403520090133" y="776.8264313448882" width="10.630785755494326" height="6.237317914198459" fill="#ffd60a" opacity="0.05484341400555415" rx="1"/><rect x="1711.0729069183749" y="799.0643277845296" width="4.286838617242602" height="6.512351632237516" fill="#ffc300" opacity="0.4848932463174903" rx="1"/><rect x="1701.512325578139" y="802.3205036006484" width="4.286838617242602" height="6.512351632237516" fill="#ffd60a" opacity="0.24244662315874516" rx="1"/><rect x="1707.334833751976" y="824.4208831812704" width="11.76298495004023" height="8.681184725528858" fill="#ffc300" opacity="0.34111354414865225" rx="1"/><rect x="1697.7742524117402" y="828.7614755440349" width="11.76298495004023" height="8.681184725528858" fill="#ffd60a" opacity="0.17055677207432612" rx="1"/><rect x="1711.1487154974948" y="849.7774385780111" width="4.1352214590029845" height="6.314793162121156" fill="#ffc300" opacity="0.5050933631148873" rx="1"/><rect x="1701.588134157259" y="852.9348351590717" width="4.1352214590029845" height="6.314793162121156" fill="#ffd60a" opacity="0.25254668155744364" rx="1"/><rect x="1709.9901696986028" y="875.1339939747518" width="6.452313056786617" height="6.562574842144404" fill="#ffc300" opacity="0.49936380714628936" rx="1"/><rect x="1700.429588358367" y="878.415281395824" width="6.452313056786617" height="6.562574842144404" fill="#ffd60a" opacity="0.24968190357314468" rx="1"/><rect x="1709.112008743014" y="900.4905493714925" width="8.20863496796429" height="7.906795881201233" fill="#ffc300" opacity="0.488181795107243" rx="1"/><rect x="1699.5514274027782" y="904.4439473120932" width="8.20863496796429" height="7.906795881201233" fill="#ffd60a" opacity="0.2440908975536215" rx="1"/><rect x="1807.8153394995759" y="700.919784163339" width="63.262006596955935" height="214.92732060489416" fill="#001b4c" opacity="0.4111240034716027" rx="2"/><rect x="1834.9875967870437" y="710.919784163339" width="8.91749202202016" height="9.48865856032089" fill="#ffc300" opacity="0.5283194803698732" rx="1"/><rect x="1819.1720951378047" y="715.6641134434994" width="8.91749202202016" height="9.48865856032089" fill="#ffd60a" opacity="0.2641597401849366" rx="1"/><rect x="1836.1870141027464" y="753.9052482843178" width="6.518657390614659" height="8.746804956054968" fill="#ffc300" opacity="0.4135572475878422" rx="1"/><rect x="1820.3715124535074" y="758.2786507623454" width="6.518657390614659" height="8.746804956054968" fill="#ffd60a" opacity="0.2067786237939211" rx="1"/><rect x="1833.7498800523463" y="796.8907124052967" width="11.39292549141518" height="9.114476447718795" fill="#ffc300" opacity="0.2994925897334452" rx="1"/><rect x="1817.9343784031073" y="801.447950629156" width="11.39292549141518" height="9.114476447718795" fill="#ffd60a" opacity="0.1497462948667226" rx="1"/><rect x="1833.641075848751" y="839.8761765262756" width="11.610533898605624" height="8.617873452282016" fill="#ffc300" opacity="0.3408737779457294" rx="1"/><rect x="1817.825574199512" y="844.1851132524166" width="11.610533898605624" height="8.617873452282016" fill="#ffd60a" opacity="0.1704368889728647" rx="1"/><rect x="1834.9928866322136" y="882.8616406472544" width="8.906912331680514" height="6.136751176821242" fill="#ffc300" opacity="0.5788827992693714" rx="1"/><rect x="1819.1773849829747" y="885.930016235665" width="8.906912331680514" height="6.136751176821242" fill="#ffd60a" opacity="0.2894413996346857" rx="1"/><rect x="0" y="1000" width="1920" height="80" fill="#000f40" opacity="0.8"/><line x1="0" y1="1040" x2="1920" y2="1040" stroke="#ffc300" stroke-opacity="0.15" stroke-width="2" stroke-dasharray="30,20"/><rect x="0" y="930" width="1920" height="150" fill="url(#glow74)"/><rect x="0" y="980" width="1920" height="100" fill="#ffc300" opacity="0.04"/><rect x="1259.7982275438958" y="1014.0611026003168" width="39.66724200632126" height="2" fill="#ffd60a" opacity="0.03177365319146161" rx="1"/><rect x="1873.9465829622807" y="1044.6135944138778" width="56.753850788053555" height="2" fill="#ffd60a" opacity="0.052974054280895286" rx="1"/><rect x="1598.8271775093924" y="1011.5571395055291" width="104.32781141817752" height="2" fill="#ffd60a" opacity="0.03399153287848261" rx="1"/><rect x="1265.285835411699" y="1000.8833596810892" width="113.03386222874603" height="2" fill="#ffd60a" opacity="0.02781280026953034" rx="1"/><rect x="56.50463552598484" y="1055.2348822763272" width="57.71364051795417" height="2" fill="#ffd60a" opacity="0.035858022732627115" rx="1"/><rect x="1599.6154742687047" y="1007.6054405019631" width="94.6075021043903" height="2" fill="#ffd60a" opacity="0.033668599718638836" rx="1"/><rect x="1012.0676920684213" y="1000.6442747778827" width="56.565850171392285" height="2" fill="#ffd60a" opacity="0.0476274468907219" rx="1"/><rect x="1914.3648684011691" y="1057.651543071878" width="80.14167020566335" height="2" fill="#ffd60a" opacity="0.04643926896770468" rx="1"/><rect x="206.4780329648587" y="1007.6586095820318" width="92.70298420281685" height="2" fill="#ffd60a" opacity="0.04006714663004203" rx="1"/><rect x="509.93904557776153" y="1003.8065052041334" width="87.09071778857398" height="2" fill="#ffd60a" opacity="0.049140292496685944" rx="1"/><rect x="691.7849186183383" y="1042.6439237507627" width="84.6385666831952" height="2" fill="#ffd60a" opacity="0.05132185186057395" rx="1"/><rect x="679.193436810559" y="1013.6006685378031" width="101.98359624528877" height="2" fill="#ffd60a" opacity="0.03188131039307483" rx="1"/><rect x="1055.0098454428394" y="1023.1415829907967" width="93.4459179857387" height="2" fill="#ffd60a" opacity="0.04927445765334984" rx="1"/><rect x="1729.5069470558099" y="1050.9880293046563" width="51.08794489667936" height="2" fill="#ffd60a" opacity="0.024575942625425742" rx="1"/><rect x="1376.7960413025683" y="1043.1823726704304" width="112.43775910987466" height="2" fill="#ffd60a" opacity="0.02560894263107538" rx="1"/><rect x="297.0551616645081" y="1017.9446975369809" width="44.7872774779767" height="2" fill="#ffd60a" opacity="0.052677006496274145" rx="1"/><rect x="71.31668643823747" y="1038.4250257253705" width="69.32810050652552" height="2" fill="#ffd60a" opacity="0.05755006560998738" rx="1"/><rect x="963.9025660613325" y="1005.682540872526" width="31.191270828990096" height="2" fill="#ffd60a" opacity="0.04839101524753287" rx="1"/><rect x="1069.3669324622879" y="1016.2758123772861" width="22.587621077566318" height="2" fill="#ffd60a" opacity="0.0391040978811458" rx="1"/><rect x="1760.729012005201" y="1005.3977696936107" width="61.43675881005748" height="2" fill="#ffd60a" opacity="0.058871168605720434" rx="1"/><rect x="321.223273501085" y="1054.3512875387332" width="109.85302862474998" height="2" fill="#ffd60a" opacity="0.028877076536621218" rx="1"/><rect x="1819.546922272897" y="1007.7466463734737" width="80.98383356839975" height="2" fill="#ffd60a" opacity="0.03509598357954435" rx="1"/><rect x="1001.7405257471233" y="1040.6155464892777" width="62.02919484629044" height="2" fill="#ffd60a" opacity="0.022309434637965038" rx="1"/><rect x="1169.149595175206" y="1059.8978161345929" width="89.1092564419632" height="2" fill="#ffd60a" opacity="0.04407607184352262" rx="1"/><rect x="146.57325315907906" y="1022.4864669475905" width="105.03823477892163" height="2" fill="#ffd60a" opacity="0.05293199922724906" rx="1"/><rect x="1503.38923563794" y="1016.5714712572683" width="116.09551972153027" height="2" fill="#ffd60a" opacity="0.030880406324491" rx="1"/><rect x="1126.878346318118" y="1027.5141411664695" width="78.99435515957754" height="2" fill="#ffd60a" opacity="0.05154862359900694" rx="1"/><rect x="174.56735600125216" y="1048.895140250422" width="72.31181763864862" height="2" fill="#ffd60a" opacity="0.054622783277794434" rx="1"/><rect x="1465.8202054039157" y="1056.2698048717039" width="35.52474615525565" height="2" fill="#ffd60a" opacity="0.023112908490726936" rx="1"/><rect x="267.44603595404095" y="1021.2140881785224" width="21.319717872263798" height="2" fill="#ffd60a" opacity="0.028618403172264436" rx="1"/><text x="1900" y="1060" font-family="Arial, sans-serif" font-size="11" fill="#fff" opacity="0.08" text-anchor="end" letter-spacing="2">GTA 6 REWARDS · WALLPAPER 075</text>
</svg>