<?xml version="1.0" encoding="UTF-8"?>
<svg xmlns="http://www.w3.org/2000/svg" width="1920" height="1080" viewBox="0 0 1920 1080">
<defs>
    <linearGradient id="bg89" x1="0%" y1="0%" x2="0%" y2="100%">
      <stop offset="0%" stop-color="#6930c3"/>
      <stop offset="50%" stop-color="#360090"/>
      <stop offset="100%" stop-color="#6930c3"/>
    </linearGradient>
    <linearGradient id="sun89" x1="0%" y1="0%" x2="100%" y2="100%">
      <stop offset="0%" stop-color="#80ffdb"/>
      <stop offset="100%" stop-color="#64dfdf"/>
    </linearGradient>
    <radialGradient id="glow89" cx="50%" cy="70%" r="50%">
      <stop offset="0%" stop-color="#80ffdb" stop-opacity="0.3"/>
      <stop offset="100%" stop-color="#6930c3" stop-opacity="0"/>
    </radialGradient>
  </defs><rect width="1920" height="1080" fill="url(#bg89)"/><circle cx="523.2620470745634" cy="546.8912012751426" r="825.327820546303" fill="#80ffdb" opacity="0.06940509600550987"/><circle cx="723.2620470745634" cy="446.89120127514263" r="420.5707526813659" fill="#64dfdf" opacity="0.12278480578045939"/><circle cx="1367.6702714217058" cy="216.20141329853828" r="91.11657541969711" fill="url(#sun89)" opacity="0.8229782377190371"/><circle cx="1367.6702714217058" cy="216.20141329853828" r="86.11657541969711" fill="#6930c3" opacity="0.3"/><line x1="0" y1="0" x2="0" y2="1080" stroke="#80ffdb" stroke-opacity="0.060226454518322474" stroke-width="0.5"/><line x1="46" y1="0" x2="46" y2="1080" stroke="#80ffdb" stroke-opacity="0.060226454518322474" stroke-width="0.5"/><line x1="92" y1="0" x2="92" y2="1080" stroke="#80ffdb" stroke-opacity="0.060226454518322474" stroke-width="0.5"/><line x1="138" y1="0" x2="138" y2="1080" stroke="#80ffdb" stroke-opacity="0.060226454518322474" stroke-width="0.5"/><line x1="184" y1="0" x2="184" y2="1080" stroke="#80ffdb" stroke-opacity="0.060226454518322474" stroke-width="0.5"/><line x1="230" y1="0" x2="230" y2="1080" stroke="#80ffdb" stroke-opacity="0.060226454518322474" stroke-width="0.5"/><line x1="276" y1="0" x2="276" y2="1080" stroke="#80ffdb" stroke-opacity="0.060226454518322474" stroke-width="0.5"/><line x1="322" y1="0" x2="322" y2="1080" stroke="#80ffdb" stroke-opacity="0.060226454518322474" stroke-width="0.5"/><line x1="368" y1="0" x2="368" y2="1080" stroke="#80ffdb" stroke-opacity="0.060226454518322474" stroke-width="0.5"/><line x1="414" y1="0" x2="414" y2="1080" stroke="#80ffdb" stroke-opacity="0.060226454518322474" stroke-width="0.5"/><line x1="460" y1="0" x2="460" y2="1080" stroke="#80ffdb" stroke-opacity="0.060226454518322474" stroke-width="0.5"/><line x1="506" y1="0" x2="506" y2="1080" stroke="#80ffdb" stroke-opacity="0.060226454518322474" stroke-width="0.5"/><line x1="552" y1="0" x2="552" y2="1080" stroke="#80ffdb" stroke-opacity="0.060226454518322474" stroke-width="0.5"/><line x1="598" y1="0" x2="598" y2="1080" stroke="#80ffdb" stroke-opacity="0.060226454518322474" stroke-width="0.5"/><line x1="644" y1="0" x2="644" y2="1080" stroke="#80ffdb" stroke-opacity="0.060226454518322474" stroke-width="0.5"/><line x1="690" y1="0" x2="690" y2="1080" stroke="#80ffdb" stroke-opacity="0.060226454518322474" stroke-width="0.5"/><line x1="736" y1="0" x2="736" y2="1080" stroke="#80ffdb" stroke-opacity="0.060226454518322474" stroke-width="0.5"/><line x1="782" y1="0" x2="782" y2="1080" stroke="#80ffdb" stroke-opacity="0.060226454518322474" stroke-width="0.5"/><line x1="828" y1="0" x2="828" y2="1080" stroke="#80ffdb" stroke-opacity="0.060226454518322474" stroke-width="0.5"/><line x1="874" y1="0" x2="874" y2="1080" stroke="#80ffdb" stroke-opacity="0.060226454518322474" stroke-width="0.5"/><line x1="920" y1="0" x2="920" y2="1080" stroke="#80ffdb" stroke-opacity="0.060226454518322474" stroke-width="0.5"/><line x1="966" y1="0" x2="966" y2="1080" stroke="#80ffdb" stroke-opacity="0.060226454518322474" stroke-width="0.5"/><line x1="1012" y1="0" x2="1012" y2="1080" stroke="#80ffdb" stroke-opacity="0.060226454518322474" stroke-width="0.5"/><line x1="1058" y1="0" x2="1058" y2="1080" stroke="#80ffdb" stroke-opacity="0.060226454518322474" stroke-width="0.5"/><line x1="1104" y1="0" x2="1104" y2="1080" stroke="#80ffdb" stroke-opacity="0.060226454518322474" stroke-width="0.5"/><line x1="1150" y1="0" x2="1150" y2="1080" stroke="#80ffdb" stroke-opacity="0.060226454518322474" stroke-width="0.5"/><line x1="1196" y1="0" x2="1196" y2="1080" stroke="#80ffdb" stroke-opacity="0.060226454518322474" stroke-width="0.5"/><line x1="1242" y1="0" x2="1242" y2="1080" stroke="#80ffdb" stroke-opacity="0.060226454518322474" stroke-width="0.5"/><line x1="1288" y1="0" x2="1288" y2="1080" stroke="#80ffdb" stroke-opacity="0.060226454518322474" stroke-width="0.5"/><line x1="1334" y1="0" x2="1334" y2="1080" stroke="#80ffdb" stroke-opacity="0.060226454518322474" stroke-width="0.5"/><line x1="1380" y1="0" x2="1380" y2="1080" stroke="#80ffdb" stroke-opacity="0.060226454518322474" stroke-width="0.5"/><line x1="1426" y1="0" x2="1426" y2="1080" stroke="#80ffdb" stroke-opacity="0.060226454518322474" stroke-width="0.5"/><line x1="1472" y1="0" x2="1472" y2="1080" stroke="#80ffdb" stroke-opacity="0.060226454518322474" stroke-width="0.5"/><line x1="1518" y1="0" x2="1518" y2="1080" stroke="#80ffdb" stroke-opacity="0.060226454518322474" stroke-width="0.5"/><line x1="1564" y1="0" x2="1564" y2="1080" stroke="#80ffdb" stroke-opacity="0.060226454518322474" stroke-width="0.5"/><line x1="1610" y1="0" x2="1610" y2="1080" stroke="#80ffdb" stroke-opacity="0.060226454518322474" stroke-width="0.5"/><line x1="1656" y1="0" x2="1656" y2="1080" stroke="#80ffdb" stroke-opacity="0.060226454518322474" stroke-width="0.5"/><line x1="1702" y1="0" x2="1702" y2="1080" stroke="#80ffdb" stroke-opacity="0.060226454518322474" stroke-width="0.5"/><line x1="1748" y1="0" x2="1748" y2="1080" stroke="#80ffdb" stroke-opacity="0.060226454518322474" stroke-width="0.5"/><line x1="1794" y1="0" x2="1794" y2="1080" stroke="#80ffdb" stroke-opacity="0.060226454518322474" stroke-width="0.5"/><line x1="1840" y1="0" x2="1840" y2="1080" stroke="#80ffdb" stroke-opacity="0.060226454518322474" stroke-width="0.5"/><line x1="1886" y1="0" x2="1886" y2="1080" stroke="#80ffdb" stroke-opacity="0.060226454518322474" stroke-width="0.5"/><line x1="0" y1="0" x2="1920" y2="0" stroke="#80ffdb" stroke-opacity="0.060226454518322474" stroke-width="0.5"/><line x1="0" y1="46" x2="1920" y2="46" stroke="#80ffdb" stroke-opacity="0.060226454518322474" stroke-width="0.5"/><line x1="0" y1="92" x2="1920" y2="92" stroke="#80ffdb" stroke-opacity="0.060226454518322474" stroke-width="0.5"/><line x1="0" y1="138" x2="1920" y2="138" stroke="#80ffdb" stroke-opacity="0.060226454518322474" stroke-width="0.5"/><line x1="0" y1="184" x2="1920" y2="184" stroke="#80ffdb" stroke-opacity="0.060226454518322474" stroke-width="0.5"/><line x1="0" y1="230" x2="1920" y2="230" stroke="#80ffdb" stroke-opacity="0.060226454518322474" stroke-width="0.5"/><line x1="0" y1="276" x2="1920" y2="276" stroke="#80ffdb" stroke-opacity="0.060226454518322474" stroke-width="0.5"/><line x1="0" y1="322" x2="1920" y2="322" stroke="#80ffdb" stroke-opacity="0.060226454518322474" stroke-width="0.5"/><line x1="0" y1="368" x2="1920" y2="368" stroke="#80ffdb" stroke-opacity="0.060226454518322474" stroke-width="0.5"/><line x1="0" y1="414" x2="1920" y2="414" stroke="#80ffdb" stroke-opacity="0.060226454518322474" stroke-width="0.5"/><line x1="0" y1="460" x2="1920" y2="460" stroke="#80ffdb" stroke-opacity="0.060226454518322474" stroke-width="0.5"/><line x1="0" y1="506" x2="1920" y2="506" stroke="#80ffdb" stroke-opacity="0.060226454518322474" stroke-width="0.5"/><line x1="0" y1="552" x2="1920" y2="552" stroke="#80ffdb" stroke-opacity="0.060226454518322474" stroke-width="0.5"/><line x1="0" y1="598" x2="1920" y2="598" stroke="#80ffdb" stroke-opacity="0.060226454518322474" stroke-width="0.5"/><line x1="0" y1="644" x2="1920" y2="644" stroke="#80ffdb" stroke-opacity="0.060226454518322474" stroke-width="0.5"/><line x1="0" y1="690" x2="1920" y2="690" stroke="#80ffdb" stroke-opacity="0.060226454518322474" stroke-width="0.5"/><line x1="0" y1="736" x2="1920" y2="736" stroke="#80ffdb" stroke-opacity="0.060226454518322474" stroke-width="0.5"/><line x1="0" y1="782" x2="1920" y2="782" stroke="#80ffdb" stroke-opacity="0.060226454518322474" stroke-width="0.5"/><line x1="0" y1="828" x2="1920" y2="828" stroke="#80ffdb" stroke-opacity="0.060226454518322474" stroke-width="0.5"/><line x1="0" y1="874" x2="1920" y2="874" stroke="#80ffdb" stroke-opacity="0.060226454518322474" stroke-width="0.5"/><line x1="0" y1="920" x2="1920" y2="920" stroke="#80ffdb" stroke-opacity="0.060226454518322474" stroke-width="0.5"/><line x1="0" y1="966" x2="1920" y2="966" stroke="#80ffdb" stroke-opacity="0.060226454518322474" stroke-width="0.5"/><line x1="0" y1="1012" x2="1920" y2="1012" stroke="#80ffdb" stroke-opacity="0.060226454518322474" stroke-width="0.5"/><line x1="0" y1="1058" x2="1920" y2="1058" stroke="#80ffdb" stroke-opacity="0.060226454518322474" stroke-width="0.5"/><rect x="0" y="1000" width="1920" height="80" fill="#430a9d" opacity="0.8"/><line x1="0" y1="1040" x2="1920" y2="1040" stroke="#64dfdf" stroke-opacity="0.15" stroke-width="2" stroke-dasharray="30,20"/><rect x="0" y="930" width="1920" height="150" fill="url(#glow89)"/><text x="1900" y="1060" font-family="Arial, sans-serif" font-size="11" fill="#fff" opacity="0.08" text-anchor="end" letter-spacing="2">GTA 6 REWARDS · WALLPAPER 090</text>
</svg>