<?xml version="1.0" encoding="UTF-8"?>
<svg xmlns="http://www.w3.org/2000/svg" width="1920" height="1080" viewBox="0 0 1920 1080">
<defs>
    <linearGradient id="bg4" x1="0%" y1="0%" x2="0%" y2="100%">
      <stop offset="0%" stop-color="#26547c"/>
      <stop offset="50%" stop-color="#002149"/>
      <stop offset="100%" stop-color="#26547c"/>
    </linearGradient>
    <linearGradient id="sun4" x1="0%" y1="0%" x2="100%" y2="100%">
      <stop offset="0%" stop-color="#ffd166"/>
      <stop offset="100%" stop-color="#ef476f"/>
    </linearGradient>
    <radialGradient id="glow4" cx="50%" cy="70%" r="50%">
      <stop offset="0%" stop-color="#ffd166" stop-opacity="0.3"/>
      <stop offset="100%" stop-color="#26547c" stop-opacity="0"/>
    </radialGradient>
  </defs><rect width="1920" height="1080" fill="url(#bg4)"/><circle cx="699.6550553477498" cy="288.667160386375" r="624.5523059797828" fill="#ffd166" opacity="0.07339972428125323"/><circle cx="899.6550553477498" cy="188.66716038637497" r="501.69937086796836" fill="#ef476f" opacity="0.05619131907964855"/><circle cx="1046.444974361557" cy="357.24463502579476" r="98.95447683496272" fill="url(#sun4)" opacity="0.8304438307486577"/><circle cx="1046.444974361557" cy="357.24463502579476" r="93.95447683496272" fill="#26547c" opacity="0.3"/><line x1="0" y1="0" x2="0" y2="1080" stroke="#ffd166" stroke-opacity="0.06503500263091061" stroke-width="0.5"/><line x1="69" y1="0" x2="69" y2="1080" stroke="#ffd166" stroke-opacity="0.06503500263091061" stroke-width="0.5"/><line x1="138" y1="0" x2="138" y2="1080" stroke="#ffd166" stroke-opacity="0.06503500263091061" stroke-width="0.5"/><line x1="207" y1="0" x2="207" y2="1080" stroke="#ffd166" stroke-opacity="0.06503500263091061" stroke-width="0.5"/><line x1="276" y1="0" x2="276" y2="1080" stroke="#ffd166" stroke-opacity="0.06503500263091061" stroke-width="0.5"/><line x1="345" y1="0" x2="345" y2="1080" stroke="#ffd166" stroke-opacity="0.06503500263091061" stroke-width="0.5"/><line x1="414" y1="0" x2="414" y2="1080" stroke="#ffd166" stroke-opacity="0.06503500263091061" stroke-width="0.5"/><line x1="483" y1="0" x2="483" y2="1080" stroke="#ffd166" stroke-opacity="0.06503500263091061" stroke-width="0.5"/><line x1="552" y1="0" x2="552" y2="1080" stroke="#ffd166" stroke-opacity="0.06503500263091061" stroke-width="0.5"/><line x1="621" y1="0" x2="621" y2="1080" stroke="#ffd166" stroke-opacity="0.06503500263091061" stroke-width="0.5"/><line x1="690" y1="0" x2="690" y2="1080" stroke="#ffd166" stroke-opacity="0.06503500263091061" stroke-width="0.5"/><line x1="759" y1="0" x2="759" y2="1080" stroke="#ffd166" stroke-opacity="0.06503500263091061" stroke-width="0.5"/><line x1="828" y1="0" x2="828" y2="1080" stroke="#ffd166" stroke-opacity="0.06503500263091061" stroke-width="0.5"/><line x1="897" y1="0" x2="897" y2="1080" stroke="#ffd166" stroke-opacity="0.06503500263091061" stroke-width="0.5"/><line x1="966" y1="0" x2="966" y2="1080" stroke="#ffd166" stroke-opacity="0.06503500263091061" stroke-width="0.5"/><line x1="1035" y1="0" x2="1035" y2="1080" stroke="#ffd166" stroke-opacity="0.06503500263091061" stroke-width="0.5"/><line x1="1104" y1="0" x2="1104" y2="1080" stroke="#ffd166" stroke-opacity="0.06503500263091061" stroke-width="0.5"/><line x1="1173" y1="0" x2="1173" y2="1080" stroke="#ffd166" stroke-opacity="0.06503500263091061" stroke-width="0.5"/><line x1="1242" y1="0" x2="1242" y2="1080" stroke="#ffd166" stroke-opacity="0.06503500263091061" stroke-width="0.5"/><line x1="1311" y1="0" x2="1311" y2="1080" stroke="#ffd166" stroke-opacity="0.06503500263091061" stroke-width="0.5"/><line x1="1380" y1="0" x2="1380" y2="1080" stroke="#ffd166" stroke-opacity="0.06503500263091061" stroke-width="0.5"/><line x1="1449" y1="0" x2="1449" y2="1080" stroke="#ffd166" stroke-opacity="0.06503500263091061" stroke-width="0.5"/><line x1="1518" y1="0" x2="1518" y2="1080" stroke="#ffd166" stroke-opacity="0.06503500263091061" stroke-width="0.5"/><line x1="1587" y1="0" x2="1587" y2="1080" stroke="#ffd166" stroke-opacity="0.06503500263091061" stroke-width="0.5"/><line x1="1656" y1="0" x2="1656" y2="1080" stroke="#ffd166" stroke-opacity="0.06503500263091061" stroke-width="0.5"/><line x1="1725" y1="0" x2="1725" y2="1080" stroke="#ffd166" stroke-opacity="0.06503500263091061" stroke-width="0.5"/><line x1="1794" y1="0" x2="1794" y2="1080" stroke="#ffd166" stroke-opacity="0.06503500263091061" stroke-width="0.5"/><line x1="1863" y1="0" x2="1863" y2="1080" stroke="#ffd166" stroke-opacity="0.06503500263091061" stroke-width="0.5"/><line x1="0" y1="0" x2="1920" y2="0" stroke="#ffd166" stroke-opacity="0.06503500263091061" stroke-width="0.5"/><line x1="0" y1="69" x2="1920" y2="69" stroke="#ffd166" stroke-opacity="0.06503500263091061" stroke-width="0.5"/><line x1="0" y1="138" x2="1920" y2="138" stroke="#ffd166" stroke-opacity="0.06503500263091061" stroke-width="0.5"/><line x1="0" y1="207" x2="1920" y2="207" stroke="#ffd166" stroke-opacity="0.06503500263091061" stroke-width="0.5"/><line x1="0" y1="276" x2="1920" y2="276" stroke="#ffd166" stroke-opacity="0.06503500263091061" stroke-width="0.5"/><line x1="0" y1="345" x2="1920" y2="345" stroke="#ffd166" stroke-opacity="0.06503500263091061" stroke-width="0.5"/><line x1="0" y1="414" x2="1920" y2="414" stroke="#ffd166" stroke-opacity="0.06503500263091061" stroke-width="0.5"/><line x1="0" y1="483" x2="1920" y2="483" stroke="#ffd166" stroke-opacity="0.06503500263091061" stroke-width="0.5"/><line x1="0" y1="552" x2="1920" y2="552" stroke="#ffd166" stroke-opacity="0.06503500263091061" stroke-width="0.5"/><line x1="0" y1="621" x2="1920" y2="621" stroke="#ffd166" stroke-opacity="0.06503500263091061" stroke-width="0.5"/><line x1="0" y1="690" x2="1920" y2="690" stroke="#ffd166" stroke-opacity="0.06503500263091061" stroke-width="0.5"/><line x1="0" y1="759" x2="1920" y2="759" stroke="#ffd166" stroke-opacity="0.06503500263091061" stroke-width="0.5"/><line x1="0" y1="828" x2="1920" y2="828" stroke="#ffd166" stroke-opacity="0.06503500263091061" stroke-width="0.5"/><line x1="0" y1="897" x2="1920" y2="897" stroke="#ffd166" stroke-opacity="0.06503500263091061" stroke-width="0.5"/><line x1="0" y1="966" x2="1920" y2="966" stroke="#ffd166" stroke-opacity="0.06503500263091061" stroke-width="0.5"/><line x1="0" y1="1035" x2="1920" y2="1035" stroke="#ffd166" stroke-opacity="0.06503500263091061" stroke-width="0.5"/><rect x="0" y="1000" width="1920" height="80" fill="#002e56" opacity="0.8"/><line x1="0" y1="1040" x2="1920" y2="1040" stroke="#ef476f" stroke-opacity="0.15" stroke-width="2" stroke-dasharray="30,20"/><rect x="0" y="930" width="1920" height="150" fill="url(#glow4)"/><rect x="0" y="980" width="1920" height="100" fill="#ef476f" opacity="0.04"/><rect x="1427.2246200189052" y="1044.1548087224724" width="62.1746016578224" height="2" fill="#ffd166" opacity="0.03961800630661147" rx="1"/><rect x="1786.9886786926045" y="1020.8772262513818" width="117.95403194100457" height="2" fill="#ffd166" opacity="0.03885376342079923" rx="1"/><rect x="1513.1336965209648" y="1031.654351198034" width="46.93121529345662" height="2" fill="#ffd166" opacity="0.050088343534173525" rx="1"/><rect x="658.3088740749073" y="1029.1270932297052" width="65.58571303393359" height="2" fill="#ffd166" opacity="0.020434902859952978" rx="1"/><rect x="1036.8390738397927" y="1048.4363448499787" width="96.38177717485972" height="2" fill="#ffd166" opacity="0.023814593330913826" rx="1"/><rect x="776.0962581951395" y="1003.6328475930804" width="52.97539652161659" height="2" fill="#ffd166" opacity="0.041887351503103826" rx="1"/><rect x="1197.609253059516" y="1008.8092629166341" width="47.82958485834058" height="2" fill="#ffd166" opacity="0.042272987650305266" rx="1"/><rect x="1830.9064744205461" y="1021.0016307097397" width="105.25744371238571" height="2" fill="#ffd166" opacity="0.05685092909188265" rx="1"/><rect x="357.46817224600073" y="1004.0508976122483" width="85.8688085772723" height="2" fill="#ffd166" opacity="0.03994646755511558" rx="1"/><rect x="1472.8635065706594" y="1028.899506467604" width="115.6536020142151" height="2" fill="#ffd166" opacity="0.02016504408795504" rx="1"/><rect x="1737.7021358482777" y="1058.9757659935801" width="88.81474889088766" height="2" fill="#ffd166" opacity="0.042202792340471126" rx="1"/><rect x="555.1078642707104" y="1027.8803900880462" width="96.73707531689132" height="2" fill="#ffd166" opacity="0.03447217263618302" rx="1"/><rect x="1346.7244804060842" y="1030.2841602429478" width="20.541187171018958" height="2" fill="#ffd166" opacity="0.029583426567163187" rx="1"/><rect x="1512.1811734680507" y="1027.6302526676166" width="105.38609116463599" height="2" fill="#ffd166" opacity="0.022881079428568735" rx="1"/><rect x="1224.4840557743992" y="1016.8520486906292" width="117.86891080389472" height="2" fill="#ffd166" opacity="0.04454735770461787" rx="1"/><rect x="1360.6656725892485" y="1057.308482000909" width="96.98955209390017" height="2" fill="#ffd166" opacity="0.032312677645197296" rx="1"/><rect x="1484.4150105594692" y="1023.0329570740073" width="38.122413432719746" height="2" fill="#ffd166" opacity="0.05939738800735152" rx="1"/><rect x="1880.2756856289402" y="1007.2860050544343" width="113.2878795762751" height="2" fill="#ffd166" opacity="0.03831754506992119" rx="1"/><rect x="156.46976221270623" y="1040.190887032121" width="20.947351474535502" height="2" fill="#ffd166" opacity="0.024557363988030087" rx="1"/><rect x="224.68329107032235" y="1040.9464861687613" width="110.13248632897913" height="2" fill="#ffd166" opacity="0.05746432731800348" rx="1"/><rect x="673.1541137474483" y="1054.6046062965422" width="58.265892080558906" height="2" fill="#ffd166" opacity="0.04680421625888073" rx="1"/><rect x="475.908653697909" y="1036.3774157819284" width="83.08516586736897" height="2" fill="#ffd166" opacity="0.04919972996907303" rx="1"/><rect x="1658.023130385676" y="1006.5706491392503" width="113.66132235006926" height="2" fill="#ffd166" opacity="0.04846805506117364" rx="1"/><rect x="1272.0475560408197" y="1016.9041978467499" width="104.73302728606691" height="2" fill="#ffd166" opacity="0.026026957986416986" rx="1"/><rect x="1414.7941655234422" y="1055.0361585838339" width="57.583383018519584" height="2" fill="#ffd166" opacity="0.05997842153533792" rx="1"/><rect x="58.358881487129" y="1054.0479320180714" width="96.34654207535706" height="2" fill="#ffd166" opacity="0.03621782989618784" rx="1"/><rect x="978.0243156147245" y="1002.8399298346694" width="24.93101482394408" height="2" fill="#ffd166" opacity="0.047611157723611956" rx="1"/><rect x="1726.1021656836622" y="1026.3575487645244" width="81.23684844030925" height="2" fill="#ffd166" opacity="0.04255240407366129" rx="1"/><rect x="1498.8445605847157" y="1056.7661415871153" width="58.52447204723127" height="2" fill="#ffd166" opacity="0.031315660199922435" rx="1"/><rect x="1915.248290597286" y="1045.3720415256387" width="53.43411505535108" height="2" fill="#ffd166" opacity="0.023315417525199108" rx="1"/><text x="1900" y="1060" font-family="Arial, sans-serif" font-size="11" fill="#fff" opacity="0.08" text-anchor="end" letter-spacing="2">GTA 6 REWARDS · WALLPAPER 005</text>
</svg>