<?xml version="1.0" encoding="UTF-8"?>
<svg xmlns="http://www.w3.org/2000/svg" width="1920" height="1080" viewBox="0 0 1920 1080">
<defs>
    <linearGradient id="bg0" x1="0%" y1="0%" x2="0%" y2="100%">
      <stop offset="0%" stop-color="#1a0533"/>
      <stop offset="50%" stop-color="#000000"/>
      <stop offset="100%" stop-color="#1a0533"/>
    </linearGradient>
    <linearGradient id="sun0" x1="0%" y1="0%" x2="100%" y2="100%">
      <stop offset="0%" stop-color="#ff0066"/>
      <stop offset="100%" stop-color="#00ccff"/>
    </linearGradient>
    <radialGradient id="glow0" cx="50%" cy="70%" r="50%">
      <stop offset="0%" stop-color="#ff0066" stop-opacity="0.3"/>
      <stop offset="100%" stop-color="#1a0533" stop-opacity="0"/>
    </radialGradient>
  </defs><rect width="1920" height="1080" fill="url(#bg0)"/><circle cx="300.3956948407916" cy="289.3088109999217" r="643.8606443917055" fill="#ff0066" opacity="0.09673278230399192"/><circle cx="500.3956948407916" cy="189.30881099992172" r="509.00981656951126" fill="#00ccff" opacity="0.09922011076687373"/><line x1="0" y1="980" x2="1920" y2="980" stroke="#00ccff" stroke-opacity="0.05" stroke-width="2"/><line x1="0" y1="935" x2="1920" y2="935" stroke="#00ccff" stroke-opacity="0.049" stroke-width="0.5"/><line x1="0" y1="890" x2="1920" y2="890" stroke="#00ccff" stroke-opacity="0.048" stroke-width="0.5"/><line x1="0" y1="845" x2="1920" y2="845" stroke="#00ccff" stroke-opacity="0.047" stroke-width="0.5"/><line x1="0" y1="800" x2="1920" y2="800" stroke="#00ccff" stroke-opacity="0.046" stroke-width="0.5"/><line x1="0" y1="755" x2="1920" y2="755" stroke="#00ccff" stroke-opacity="0.045" stroke-width="0.5"/><line x1="0" y1="710" x2="1920" y2="710" stroke="#00ccff" stroke-opacity="0.044" stroke-width="0.5"/><line x1="0" y1="665" x2="1920" y2="665" stroke="#00ccff" stroke-opacity="0.043" stroke-width="0.5"/><line x1="0" y1="620" x2="1920" y2="620" stroke="#00ccff" stroke-opacity="0.041999999999999996" stroke-width="0.5"/><line x1="0" y1="575" x2="1920" y2="575" stroke="#00ccff" stroke-opacity="0.041" stroke-width="0.5"/><line x1="0" y1="530" x2="1920" y2="530" stroke="#00ccff" stroke-opacity="0.04" stroke-width="0.5"/><line x1="0" y1="485" x2="1920" y2="485" stroke="#00ccff" stroke-opacity="0.039" stroke-width="0.5"/><line x1="0" y1="440" x2="1920" y2="440" stroke="#00ccff" stroke-opacity="0.038" stroke-width="0.5"/><line x1="0" y1="395" x2="1920" y2="395" stroke="#00ccff" stroke-opacity="0.037" stroke-width="0.5"/><line x1="0" y1="350" x2="1920" y2="350" stroke="#00ccff" stroke-opacity="0.036" stroke-width="0.5"/><line x1="0" y1="305" x2="1920" y2="305" stroke="#00ccff" stroke-opacity="0.034999999999999996" stroke-width="0.5"/><line x1="0" y1="260" x2="1920" y2="260" stroke="#00ccff" stroke-opacity="0.033999999999999996" stroke-width="0.5"/><line x1="0" y1="215" x2="1920" y2="215" stroke="#00ccff" stroke-opacity="0.033" stroke-width="0.5"/><line x1="0" y1="170" x2="1920" y2="170" stroke="#00ccff" stroke-opacity="0.032" stroke-width="0.5"/><line x1="0" y1="125" x2="1920" y2="125" stroke="#00ccff" stroke-opacity="0.031" stroke-width="0.5"/><line x1="560" y1="1080" x2="860" y2="580" stroke="#ff0066" stroke-opacity="0.04" stroke-width="1"/><line x1="640" y1="1080" x2="880" y2="590" stroke="#ff0066" stroke-opacity="0.04" stroke-width="1"/><line x1="720" y1="1080" x2="900" y2="600" stroke="#ff0066" stroke-opacity="0.04" stroke-width="1"/><line x1="800" y1="1080" x2="920" y2="610" stroke="#ff0066" stroke-opacity="0.04" stroke-width="1"/><line x1="880" y1="1080" x2="940" y2="620" stroke="#ff0066" stroke-opacity="0.04" stroke-width="1"/><line x1="960" y1="1080" x2="960" y2="630" stroke="#ff0066" stroke-opacity="0.04" stroke-width="1"/><line x1="1040" y1="1080" x2="980" y2="620" stroke="#ff0066" stroke-opacity="0.04" stroke-width="1"/><line x1="1120" y1="1080" x2="1000" y2="610" stroke="#ff0066" stroke-opacity="0.04" stroke-width="1"/><line x1="1200" y1="1080" x2="1020" y2="600" stroke="#ff0066" stroke-opacity="0.04" stroke-width="1"/><line x1="1280" y1="1080" x2="1040" y2="590" stroke="#ff0066" stroke-opacity="0.04" stroke-width="1"/><line x1="1360" y1="1080" x2="1060" y2="580" stroke="#ff0066" stroke-opacity="0.04" stroke-width="1"/><circle cx="847.2086552873274" cy="324.3656903445641" r="85.95941519969129" fill="url(#sun0)" opacity="0.6738772590351005"/><circle cx="847.2086552873274" cy="324.3656903445641" r="80.95941519969129" fill="#1a0533" opacity="0.3"/><circle cx="783.7511477209049" cy="311.1676751876175" r="1.4898600862337883" fill="#fff" opacity="0.6835151060213137"/><circle cx="1202.2875910816454" cy="246.1066462523552" r="0.6818545081610452" fill="#fff" opacity="0.3451586056372986"/><circle cx="1565.5217643746923" cy="139.7613344964947" r="0.6317450434741901" fill="#fff" opacity="0.6737459647640925"/><circle cx="1743.3382214194485" cy="238.3429485704617" r="1.2031957738108923" fill="#fff" opacity="0.41369920429161267"/><circle cx="187.0983513135226" cy="324.98174580675123" r="1.2899333517509357" fill="#fff" opacity="0.32286035435340843"/><circle cx="248.40371092977085" cy="141.99799697799563" r="0.8757658622636846" fill="#fff" opacity="0.4092631805244049"/><circle cx="501.5159575318722" cy="76.65814255845224" r="1.0076434368983944" fill="#fff" opacity="0.690047387892857"/><circle cx="832.5585215242018" cy="206.39115938879343" r="1.5970436685246052" fill="#fff" opacity="0.6539321471596911"/><circle cx="1851.2197619516448" cy="223.9433188661801" r="1.3032251157106889" fill="#fff" opacity="0.4308893325344867"/><circle cx="771.528603316175" cy="90.80699369935482" r="1.4713866740864205" fill="#fff" opacity="0.21261745067607088"/><circle cx="745.0721697753929" cy="417.1555302220293" r="1.201948695397458" fill="#fff" opacity="0.49351584401296356"/><circle cx="148.14274910561338" cy="2.527434893540906" r="0.7534198254005564" fill="#fff" opacity="0.20026087751618143"/><circle cx="1444.9938533094232" cy="146.0012231026779" r="0.8388689909686495" fill="#fff" opacity="0.7947797599236435"/><circle cx="1707.924714933132" cy="202.5882177340305" r="1.8032185181051537" fill="#fff" opacity="0.24540505321822248"/><circle cx="483.5846830540301" cy="313.257625127504" r="1.733044524498527" fill="#fff" opacity="0.6688055029764783"/><circle cx="183.75107471452816" cy="95.63218509024759" r="1.1729125758104288" fill="#fff" opacity="0.41771081388409037"/><circle cx="65.88847251280409" cy="355.3756506599895" r="1.6693075161122968" fill="#fff" opacity="0.5355733799598118"/><circle cx="1679.2320361172854" cy="22.065250670086886" r="1.3722245710371586" fill="#fff" opacity="0.6351770075119978"/><circle cx="385.62636011876776" cy="133.0950496916415" r="1.4545048900075501" fill="#fff" opacity="0.47911892577053955"/><circle cx="0.5564796925886719" cy="84.67784609381991" r="1.4267955568914292" fill="#fff" opacity="0.5707038152429051"/><circle cx="405.9733728519579" cy="112.76929361018568" r="1.9109429161555467" fill="#fff" opacity="0.552414040256388"/><circle cx="333.18678133496707" cy="337.62730878256895" r="1.4620890200515486" fill="#fff" opacity="0.5309664929124914"/><circle cx="657.9561430257643" cy="198.25919534784256" r="1.1024025405297062" fill="#fff" opacity="0.5292734852361664"/><circle cx="1157.489083082762" cy="113.08374875436624" r="1.3272678153187194" fill="#fff" opacity="0.669543635442281"/><circle cx="989.2983343520432" cy="6.000353997107678" r="1.4572581157454425" fill="#fff" opacity="0.595720826088386"/><circle cx="156.69115755629986" cy="362.343665572429" r="0.7341457389374603" fill="#fff" opacity="0.7107719731775046"/><circle cx="107.20329346768634" cy="290.2066309606206" r="0.6809542571848617" fill="#fff" opacity="0.6359478475609672"/><circle cx="1753.0983084051634" cy="340.9367485877445" r="1.6139480296089193" fill="#fff" opacity="0.6907386027953444"/><circle cx="294.8650450200925" cy="400.44999902333365" r="1.449626304197504" fill="#fff" opacity="0.3371005215069979"/><circle cx="1335.1822885999416" cy="221.427184253332" r="1.6643691778100025" fill="#fff" opacity="0.6920608740048624"/><circle cx="520.133576663242" cy="138.05545459176776" r="0.611411350339514" fill="#fff" opacity="0.6607594692289736"/><circle cx="1637.186552369312" cy="412.3163224114841" r="1.1652411293855964" fill="#fff" opacity="0.6034177566420793"/><circle cx="435.072630298108" cy="56.943439590033016" r="1.9171359275740423" fill="#fff" opacity="0.6986857933687711"/><circle cx="1643.0145370315329" cy="235.53892616078699" r="1.4911209755789305" fill="#fff" opacity="0.24817247405838513"/><circle cx="1292.873802188056" cy="24.053814819095148" r="0.7552106913074876" fill="#fff" opacity="0.3365739745405908"/><circle cx="1498.026571324567" cy="82.47597068978381" r="0.6224395708698871" fill="#fff" opacity="0.4018260615882059"/><circle cx="126.18017482715197" cy="361.747651907091" r="1.8715362725480311" fill="#fff" opacity="0.4941506488467917"/><circle cx="1496.304255178269" cy="331.7564629343703" r="1.671587853383177" fill="#fff" opacity="0.7175360913662092"/><circle cx="561.2114003117223" cy="240.88576298227667" r="1.38246143897587" fill="#fff" opacity="0.2997983370674305"/><circle cx="811.0736173789653" cy="131.46755087456376" r="1.1926528874767601" fill="#fff" opacity="0.5902165092039426"/><circle cx="1891.2451270155714" cy="35.38606093902747" r="1.0397687082969975" fill="#fff" opacity="0.5039818892497527"/><circle cx="372.30478012289495" cy="172.1076068533835" r="0.6007793179249343" fill="#fff" opacity="0.21148189753561325"/><circle cx="1638.820298397639" cy="45.99731519399148" r="1.144119033041438" fill="#fff" opacity="0.34964513456207824"/><circle cx="617.9095630296296" cy="274.2771692802844" r="0.8199042264185623" fill="#fff" opacity="0.42593163909063014"/><circle cx="1398.9087674298576" cy="66.56810977742265" r="1.8336020607579504" fill="#fff" opacity="0.5831110853662507"/><circle cx="1112.6197272149425" cy="134.76336371683593" r="1.0456686318027015" fill="#fff" opacity="0.43136521438866976"/><circle cx="275.0805268332084" cy="11.23750442900637" r="0.7630008677400184" fill="#fff" opacity="0.5961237511588549"/><circle cx="1666.399320006929" cy="107.64205708625774" r="0.7199234248185352" fill="#fff" opacity="0.7019417643318748"/><circle cx="410.6419239404243" cy="429.94148762848727" r="1.4034779582646393" fill="#fff" opacity="0.3679233673885286"/><circle cx="662.8250452929234" cy="171.3139697376904" r="1.3259668021523316" fill="#fff" opacity="0.7431933276223004"/><circle cx="475.44145043833214" cy="164.31347008894977" r="1.461337948441817" fill="#fff" opacity="0.741099421759392"/><circle cx="794.7501054766471" cy="218.40048692990104" r="0.7533074488754634" fill="#fff" opacity="0.49916454532629917"/><circle cx="880.4595983588275" cy="36.321065322570746" r="1.0402101524035006" fill="#fff" opacity="0.4307284882829358"/><circle cx="397.25456634472465" cy="111.19982797261324" r="0.6657634050738447" fill="#fff" opacity="0.48128628769919424"/><circle cx="1625.0083413033299" cy="204.50876123004332" r="1.1192815690579083" fill="#fff" opacity="0.5308970411612879"/><circle cx="1210.492928905993" cy="74.8234770919251" r="1.555496723054791" fill="#fff" opacity="0.4927661499690186"/><circle cx="841.248026239045" cy="116.47468801692004" r="0.8077977571654594" fill="#fff" opacity="0.5591049475500138"/><circle cx="1672.6632369478846" cy="206.1588992323165" r="1.1419409598787178" fill="#fff" opacity="0.2988942248977009"/><circle cx="670.6876911294386" cy="15.705529481104001" r="1.619543736828385" fill="#fff" opacity="0.6899820747063453"/><circle cx="1593.8322579101268" cy="353.17902859700354" r="0.6915318397086887" fill="#fff" opacity="0.4189127892765479"/><circle cx="809.1993125176987" cy="206.88508589912325" r="1.0183395245155178" fill="#fff" opacity="0.7556422199019328"/><circle cx="1296.5887515285492" cy="341.00170468282926" r="1.31379056996987" fill="#fff" opacity="0.7922964578010832"/><circle cx="1076.6070764783321" cy="252.75007199792893" r="1.3554796180351356" fill="#fff" opacity="0.3153202281136346"/><circle cx="611.9660963052804" cy="279.385297378382" r="1.8637745408024113" fill="#fff" opacity="0.4446198256324557"/><circle cx="1678.826342615957" cy="329.1695733240735" r="1.245851971964783" fill="#fff" opacity="0.780065951677986"/><circle cx="294.57981757227793" cy="129.09783580552272" r="1.4202986710984955" fill="#fff" opacity="0.5678915176931516"/><circle cx="470.59166338075687" cy="199.5497877242858" r="0.8918633485193977" fill="#fff" opacity="0.7623780937312119"/><circle cx="1364.8992391128324" cy="248.33990631819236" r="1.818130713146676" fill="#fff" opacity="0.6184824977113126"/><circle cx="1317.5860166637194" cy="103.95803411862768" r="1.0249064840667197" fill="#fff" opacity="0.5719960609385735"/><circle cx="1115.842748246119" cy="343.9550860691711" r="1.277142076119115" fill="#fff" opacity="0.2702579315915373"/><circle cx="551.1604451926332" cy="132.2511836188499" r="0.9844135803832704" fill="#fff" opacity="0.6209240870133331"/><circle cx="1879.1910374069566" cy="324.8337057728399" r="1.7443643517895517" fill="#fff" opacity="0.6479601928610261"/><circle cx="951.455087138213" cy="160.90537551811556" r="0.7467490591217645" fill="#fff" opacity="0.6771216009457413"/><circle cx="1758.841167352824" cy="187.25602046662385" r="0.9951152880664718" fill="#fff" opacity="0.23667607876394786"/><circle cx="836.7481391589968" cy="412.4640117130391" r="0.5093207238263732" fill="#fff" opacity="0.6016827999152436"/><circle cx="1861.267918185626" cy="124.14241649493165" r="1.479206434795448" fill="#fff" opacity="0.26287712242055616"/><circle cx="301.0936412916271" cy="252.23538237349953" r="0.6353523994645458" fill="#fff" opacity="0.6720125258602231"/><circle cx="1520.296094920555" cy="314.86074346929337" r="1.3267389933640927" fill="#fff" opacity="0.7486971938397495"/><circle cx="110.85717472034906" cy="85.10701234385068" r="1.685355631212088" fill="#fff" opacity="0.6656622739195969"/><circle cx="1289.1004902145592" cy="246.6288992032942" r="1.0230078111689092" fill="#fff" opacity="0.21330376160640824"/><circle cx="992.5499459431855" cy="115.82806146979054" r="1.170653360237054" fill="#fff" opacity="0.26380913976202935"/><circle cx="239.56793105219677" cy="366.0077735404502" r="1.860816459953975" fill="#fff" opacity="0.3707590433235185"/><circle cx="525.032598796541" cy="408.72094259614147" r="1.2018563655907886" fill="#fff" opacity="0.4004153084942176"/><circle cx="1339.964082553043" cy="403.6232241177054" r="1.563072743258223" fill="#fff" opacity="0.4405040623714458"/><rect x="5.613841578740124" y="877.6011155516843" width="58.371476267550946" height="99.75419600954145" fill="#000019" opacity="0.4707663494792689" rx="2"/><rect x="31.459669447145345" y="887.6011155516843" width="6.6798205307405025" height="7.919654536507943" fill="#00ccff" opacity="0.5669480910447771" rx="1"/><rect x="16.86680038025761" y="891.5609428199383" width="6.6798205307405025" height="7.919654536507943" fill="#ff0066" opacity="0.28347404552238853" rx="1"/><rect x="32.19390297103531" y="912.5396645540696" width="5.211353482960573" height="8.531770771958811" fill="#00ccff" opacity="0.37584523376446344" rx="1"/><rect x="17.601033904147574" y="916.8055499400491" width="5.211353482960573" height="8.531770771958811" fill="#ff0066" opacity="0.18792261688223172" rx="1"/><rect x="32.27201015392132" y="937.478213556455" width="5.055139117188551" height="9.657437059948556" fill="#00ccff" opacity="0.5844173621350008" rx="1"/><rect x="17.679141087033585" y="942.3069320864292" width="5.055139117188551" height="9.657437059948556" fill="#ff0066" opacity="0.2922086810675004" rx="1"/><rect x="31.810641709438205" y="962.4167625588404" width="5.97787600615478" height="6.432721152071077" fill="#00ccff" opacity="0.47036313509344196" rx="1"/><rect x="17.21777264255047" y="965.633123134876" width="5.97787600615478" height="6.432721152071077" fill="#ff0066" opacity="0.23518156754672098" rx="1"/><rect x="100.52954168579257" y="865.207363412531" width="49.484170218809545" height="112.14794814869481" fill="#1a0533" opacity="0.4881119508501403" rx="2"/><rect x="121.85803531684826" y="875.207363412531" width="6.82718295669816" height="7.240444500288098" fill="#00ccff" opacity="0.45543862959729475" rx="1"/><rect x="109.48699276214587" y="878.827585662675" width="6.82718295669816" height="7.240444500288098" fill="#ff0066" opacity="0.22771931479864738" rx="1"/><rect x="119.52512979003212" y="893.8986881039801" width="11.49299401033041" height="9.999353987164644" fill="#00ccff" opacity="0.5187328525396839" rx="1"/><rect x="107.15408723532974" y="898.8983650975624" width="11.49299401033041" height="9.999353987164644" fill="#ff0066" opacity="0.25936642626984197" rx="1"/><rect x="122.92148132942144" y="912.5900127954293" width="4.700290931551785" height="7.186681415230661" fill="#00ccff" opacity="0.2612910849883433" rx="1"/><rect x="110.55043877471905" y="916.1833535030446" width="4.700290931551785" height="7.186681415230661" fill="#ff0066" opacity="0.13064554249417165" rx="1"/><rect x="123.08988999247273" y="931.2813374868783" width="4.3634736054491885" height="6.396808530296387" fill="#00ccff" opacity="0.5147661893895749" rx="1"/><rect x="110.71884743777035" y="934.4797417520265" width="4.3634736054491885" height="6.396808530296387" fill="#ff0066" opacity="0.25738309469478743" rx="1"/><rect x="119.44703052897594" y="949.9726621783275" width="11.649192532442788" height="9.006885168842711" fill="#00ccff" opacity="0.5222242793585696" rx="1"/><rect x="107.07598797427356" y="954.4761047627488" width="11.649192532442788" height="9.006885168842711" fill="#ff0066" opacity="0.2611121396792848" rx="1"/><rect x="121.48078844516981" y="968.6639868697766" width="7.581676700055058" height="6.70309498643109" fill="#00ccff" opacity="0.2538840566421589" rx="1"/><rect x="109.10974589046742" y="972.0155343629922" width="7.581676700055058" height="6.70309498643109" fill="#ff0066" opacity="0.12694202832107945" rx="1"/><rect x="181.17580911256658" y="818.5889404426769" width="66.46114074077018" height="158.76637111854888" fill="#1a0533" opacity="0.47108799851757666" rx="2"/><rect x="209.80135534760493" y="828.5889404426769" width="9.210048270693527" height="6.740766265602029" fill="#00ccff" opacity="0.14700770137063407" rx="1"/><rect x="193.18607016241236" y="831.9593235754779" width="9.210048270693527" height="6.740766265602029" fill="#ff0066" opacity="0.07350385068531703" rx="1"/><rect x="209.13014981098627" y="881.5110641488598" width="10.552459343930813" height="9.23126074746979" fill="#00ccff" opacity="0.5837041397075411" rx="1"/><rect x="192.5148646257937" y="886.1266945225947" width="10.552459343930813" height="9.23126074746979" fill="#ff0066" opacity="0.29185206985377055" rx="1"/><rect x="211.75282880300406" y="934.4331878550428" width="5.3071013598952215" height="8.148130554274687" fill="#00ccff" opacity="0.16689977915186896" rx="1"/><rect x="195.1375436178115" y="938.5072531321802" width="5.3071013598952215" height="8.148130554274687" fill="#ff0066" opacity="0.08344988957593448" rx="1"/><rect x="277.3510428478023" y="695.6298089226777" width="88.1915782946608" height="281.72550263854805" fill="#1a0533" opacity="0.5077084467298604" rx="2"/><rect x="317.64296940623257" y="705.6298089226777" width="7.607725177800219" height="7.1455337370619025" fill="#00ccff" opacity="0.3601459753373978" rx="1"/><rect x="295.5950748325674" y="709.2025757912087" width="7.607725177800219" height="7.1455337370619025" fill="#ff0066" opacity="0.1800729876686989" rx="1"/><rect x="319.0725839365104" y="752.5840593624357" width="4.74849611724459" height="6.014176237400196" fill="#00ccff" opacity="0.1459469922459561" rx="1"/><rect x="297.0246893628452" y="755.5911474811359" width="4.74849611724459" height="6.014176237400196" fill="#ff0066" opacity="0.07297349612297804" rx="1"/><rect x="316.1885489017337" y="799.5383098021938" width="10.516566186797938" height="7.425541689020009" fill="#00ccff" opacity="0.3748480416542962" rx="1"/><rect x="294.14065432806854" y="803.2510806467038" width="10.516566186797938" height="7.425541689020009" fill="#ff0066" opacity="0.1874240208271481" rx="1"/><rect x="317.74720781301187" y="846.4925602419518" width="7.399248364241618" height="7.2211104298990945" fill="#00ccff" opacity="0.10888768350912438" rx="1"/><rect x="295.6993132393467" y="850.1031154569013" width="7.399248364241618" height="7.2211104298990945" fill="#ff0066" opacity="0.05444384175456219" rx="1"/><rect x="317.22729368034794" y="893.4468106817097" width="8.439076629569538" height="8.051753019460419" fill="#00ccff" opacity="0.21211675023942178" rx="1"/><rect x="295.17939910668275" y="897.47268719144" width="8.439076629569538" height="8.051753019460419" fill="#ff0066" opacity="0.10605837511971089" rx="1"/><rect x="315.7237910987293" y="940.4010611214678" width="11.44608179280676" height="7.304324367387296" fill="#00ccff" opacity="0.4603662011121321" rx="1"/><rect x="293.6758965250641" y="944.0532233051615" width="11.44608179280676" height="7.304324367387296" fill="#ff0066" opacity="0.23018310055606606" rx="1"/><rect x="350.4087271838639" y="896.7635905478996" width="35.37152890241042" height="80.59172101332614" fill="#1a0533" opacity="0.5971287181594244" rx="2"/><rect x="362.5815223406196" y="906.7635905478996" width="11.02593858889908" height="9.534893410172057" fill="#00ccff" opacity="0.4707379637916428" rx="1"/><rect x="353.73864011501695" y="911.5310372529857" width="11.02593858889908" height="9.534893410172057" fill="#ff0066" opacity="0.2353689818958214" rx="1"/><rect x="364.99868913676397" y="916.8375556745654" width="6.191604996610341" height="9.737467489144175" fill="#00ccff" opacity="0.15972425198641704" rx="1"/><rect x="356.15580691116133" y="921.7062894191374" width="6.191604996610341" height="9.737467489144175" fill="#ff0066" opacity="0.07986212599320852" rx="1"/><rect x="363.8294151770189" y="926.9115208012312" width="8.530152916100377" height="7.946547542220575" fill="#00ccff" opacity="0.23030011466012806" rx="1"/><rect x="354.9865329514163" y="930.8847945723414" width="8.530152916100377" height="7.946547542220575" fill="#ff0066" opacity="0.11515005733006403" rx="1"/><rect x="363.3928271046993" y="936.9854859278969" width="9.403329060739681" height="7.643409968736444" fill="#00ccff" opacity="0.48690136626523484" rx="1"/><rect x="354.54994487909664" y="940.8071909122651" width="9.403329060739681" height="7.643409968736444" fill="#ff0066" opacity="0.24345068313261742" rx="1"/><rect x="364.6189842123752" y="947.0594510545627" width="6.951014845387781" height="7.526743272674908" fill="#00ccff" opacity="0.4504304698087346" rx="1"/><rect x="355.7761019867726" y="950.8228226909001" width="6.951014845387781" height="7.526743272674908" fill="#ff0066" opacity="0.2252152349043673" rx="1"/><rect x="364.2204472358556" y="957.1334161812284" width="7.748088798427044" height="9.634724015284963" fill="#00ccff" opacity="0.5448905016632961" rx="1"/><rect x="355.37756501025297" y="961.9507781888709" width="7.748088798427044" height="9.634724015284963" fill="#ff0066" opacity="0.27244525083164806" rx="1"/><rect x="365.45519781525434" y="967.2073813078943" width="5.278587639629512" height="7.925030166731456" fill="#00ccff" opacity="0.5915494030554661" rx="1"/><rect x="356.6123155896517" y="971.16989639126" width="5.278587639629512" height="7.925030166731456" fill="#ff0066" opacity="0.29577470152773305" rx="1"/><rect x="365.0019198435533" y="977.28134643456" width="6.185143583031637" height="6.820617037085029" fill="#00ccff" opacity="0.33545096796831375" rx="1"/><rect x="356.1590376179507" y="980.6916549531024" width="6.185143583031637" height="6.820617037085029" fill="#ff0066" opacity="0.16772548398415688" rx="1"/><rect x="462.76200744133746" y="657.0115811673486" width="76.21441980502904" height="320.3437303938772" fill="#000019" opacity="0.41168587547999014" rx="2"/><rect x="497.75396429371204" y="667.0115811673486" width="6.230506100279863" height="8.863780527111093" fill="#00ccff" opacity="0.16223064941871695" rx="1"/><rect x="478.7003593424548" y="671.4434714309042" width="6.230506100279863" height="8.863780527111093" fill="#ff0066" opacity="0.08111532470935848" rx="1"/><rect x="495.5319079536998" y="747.0975137658179" width="10.674618780304357" height="7.551790387730996" fill="#00ccff" opacity="0.27467293217188515" rx="1"/><rect x="476.47830300244254" y="750.8734089596834" width="10.674618780304357" height="7.551790387730996" fill="#ff0066" opacity="0.13733646608594258" rx="1"/><rect x="495.3996526760726" y="827.1834463642872" width="10.939129335558771" height="9.143687529290023" fill="#00ccff" opacity="0.11408944547038746" rx="1"/><rect x="476.3460477248154" y="831.7552901289322" width="10.939129335558771" height="9.143687529290023" fill="#ff0066" opacity="0.05704472273519373" rx="1"/><rect x="497.72295897915353" y="907.2693789627565" width="6.292516729396889" height="6.581073795580555" fill="#00ccff" opacity="0.49635471962307454" rx="1"/><rect x="478.6693540278963" y="910.5599158605468" width="6.292516729396889" height="6.581073795580555" fill="#ff0066" opacity="0.24817735981153727" rx="1"/><rect x="544.6520977992474" y="703.7120955888444" width="35.54681715684636" height="273.6432159723814" fill="#000019" opacity="0.6313044816328456" rx="2"/><rect x="558.4054795704583" y="713.7120955888444" width="8.040053614424554" height="8.650924401974986" fill="#00ccff" opacity="0.296578940073163" rx="1"/><rect x="549.5187752812467" y="718.0375577898319" width="8.040053614424554" height="8.650924401974986" fill="#ff0066" opacity="0.1482894700365815" rx="1"/><rect x="558.7683122629945" y="759.3192982509079" width="7.314388229352047" height="6.141247634808823" fill="#00ccff" opacity="0.5822229577652698" rx="1"/><rect x="549.8816079737829" y="762.3899220683123" width="7.314388229352047" height="6.141247634808823" fill="#ff0066" opacity="0.2911114788826349" rx="1"/><rect x="559.6047058383733" y="804.9265009129715" width="5.641601078594476" height="9.501619116287124" fill="#00ccff" opacity="0.3043101528436668" rx="1"/><rect x="550.7180015491617" y="809.6773104711151" width="5.641601078594476" height="9.501619116287124" fill="#ff0066" opacity="0.1521550764218334" rx="1"/><rect x="558.0452673244183" y="850.5337035750351" width="8.760478106504419" height="6.584745449150155" fill="#00ccff" opacity="0.36641429408137094" rx="1"/><rect x="549.1585630352067" y="853.8260762996102" width="8.760478106504419" height="6.584745449150155" fill="#ff0066" opacity="0.18320714704068547" rx="1"/><rect x="556.755336576296" y="896.1409062370986" width="11.340339602748942" height="8.991837769512049" fill="#00ccff" opacity="0.5715396679173084" rx="1"/><rect x="547.8686322870844" y="900.6368251218547" width="11.340339602748942" height="8.991837769512049" fill="#ff0066" opacity="0.2857698339586542" rx="1"/><rect x="557.9517520549383" y="941.7481088991622" width="8.947508645464552" height="6.882662972640866" fill="#00ccff" opacity="0.17947070816985117" rx="1"/><rect x="549.0650477657267" y="945.1894403854826" width="8.947508645464552" height="6.882662972640866" fill="#ff0066" opacity="0.08973535408492558" rx="1"/><rect x="613.1704314695432" y="741.4555898847655" width="63.778272684146245" height="235.8997216764604" fill="#000019" opacity="0.6042165592788291" rx="2"/><rect x="642.7380975620973" y="751.4555898847655" width="4.642940499038189" height="8.575887720700328" fill="#00ccff" opacity="0.21730497484498307" rx="1"/><rect x="626.7935293910607" y="755.7435337451157" width="4.642940499038189" height="8.575887720700328" fill="#ff0066" opacity="0.10865248742249153" rx="1"/><rect x="640.823844207579" y="780.943055094323" width="8.471447208074725" height="7.664415261164404" fill="#00ccff" opacity="0.14690747872155802" rx="1"/><rect x="624.8792760365424" y="784.7752627249051" width="8.471447208074725" height="7.664415261164404" fill="#ff0066" opacity="0.07345373936077901" rx="1"/><rect x="639.2876622926012" y="810.4305203038806" width="11.543811038030267" height="7.482488370845674" fill="#00ccff" opacity="0.17705151023740218" rx="1"/><rect x="623.3430941215646" y="814.1717644893034" width="11.543811038030267" height="7.482488370845674" fill="#ff0066" opacity="0.08852575511870109" rx="1"/><rect x="639.5962713228826" y="839.9179855134381" width="10.926592977467596" height="9.667009472769454" fill="#00ccff" opacity="0.5018302317480161" rx="1"/><rect x="623.6517031518459" y="844.7514902498228" width="10.926592977467596" height="9.667009472769454" fill="#ff0066" opacity="0.25091511587400805" rx="1"/><rect x="639.5706998033677" y="869.4054507229956" width="10.97773601649742" height="7.576981061505382" fill="#00ccff" opacity="0.5476103205111833" rx="1"/><rect x="623.6261316323311" y="873.1939412537483" width="10.97773601649742" height="7.576981061505382" fill="#ff0066" opacity="0.27380516025559165" rx="1"/><rect x="639.8299937154067" y="898.8929159325533" width="10.459148192419473" height="6.975516309257484" fill="#00ccff" opacity="0.2047331537363895" rx="1"/><rect x="623.88542554437" y="902.380674087182" width="10.459148192419473" height="6.975516309257484" fill="#ff0066" opacity="0.10236657686819475" rx="1"/><rect x="642.0388682777449" y="928.3803811421108" width="6.041399067743075" height="6.336106343273098" fill="#00ccff" opacity="0.4538534202039832" rx="1"/><rect x="626.0943001067083" y="931.5484343137473" width="6.041399067743075" height="6.336106343273098" fill="#ff0066" opacity="0.2269267101019916" rx="1"/><rect x="642.3659344245896" y="957.8678463516683" width="5.387266774053515" height="6.2446364453632" fill="#00ccff" opacity="0.3254083128006683" rx="1"/><rect x="626.421366253553" y="960.9901645743499" width="5.387266774053515" height="6.2446364453632" fill="#ff0066" opacity="0.16270415640033414" rx="1"/><rect x="705.654052109504" y="646.4729703023269" width="32.67045466757157" height="330.8823412588989" fill="#000019" opacity="0.5568852849902783" rx="2"/><rect x="719.5292632410012" y="656.4729703023269" width="4.920032404577367" height="8.884270562530558" fill="#00ccff" opacity="0.5195796601519873" rx="1"/><rect x="711.3616495741082" y="660.9151055835921" width="4.920032404577367" height="8.884270562530558" fill="#ff0066" opacity="0.25978983007599366" rx="1"/><rect x="716.3258534026965" y="766.7670840552931" width="11.326852081186802" height="7.183526485502609" fill="#00ccff" opacity="0.312384810371414" rx="1"/><rect x="708.1582397358035" y="770.3588472980445" width="11.326852081186802" height="7.183526485502609" fill="#ff0066" opacity="0.156192405185707" rx="1"/><rect x="716.8358449433888" y="877.0611978082595" width="10.306868999802244" height="7.776699750166549" fill="#00ccff" opacity="0.5704246157711429" rx="1"/><rect x="708.6682312764958" y="880.9495476833428" width="10.306868999802244" height="7.776699750166549" fill="#ff0066" opacity="0.28521230788557145" rx="1"/><rect x="808.7138756888634" y="818.8251954197942" width="46.90381239096257" height="158.53011614143153" fill="#1a0533" opacity="0.5230896820367988" rx="2"/><rect x="826.6222429331359" y="828.8251954197942" width="11.087077902417416" height="9.33305159847556" fill="#00ccff" opacity="0.27571079315983477" rx="1"/><rect x="814.8962898353954" y="833.491721219032" width="11.087077902417416" height="9.33305159847556" fill="#ff0066" opacity="0.13785539657991738" rx="1"/><rect x="828.1789977060497" y="868.4577244551521" width="7.973568356589779" height="6.130476276420634" fill="#00ccff" opacity="0.3237683388459888" rx="1"/><rect x="816.4530446083091" y="871.5229625933624" width="7.973568356589779" height="6.130476276420634" fill="#ff0066" opacity="0.1618841694229944" rx="1"/><rect x="828.0650387800831" y="908.09025349051" width="8.201486208523038" height="7.91825879503001" fill="#00ccff" opacity="0.39347625148796395" rx="1"/><rect x="816.3390856823426" y="912.049382888025" width="8.201486208523038" height="7.91825879503001" fill="#ff0066" opacity="0.19673812574398197" rx="1"/><rect x="829.6532602149566" y="947.7227825258678" width="5.025043338775878" height="6.071289734000175" fill="#00ccff" opacity="0.42127894561767554" rx="1"/><rect x="817.9273071172161" y="950.7584273928679" width="5.025043338775878" height="6.071289734000175" fill="#ff0066" opacity="0.21063947280883777" rx="1"/><rect x="881.780709451987" y="631.0682450609906" width="58.54226430611272" height="346.28706650023514" fill="#1a0533" opacity="0.4554684972752511" rx="2"/><rect x="906.8269446073119" y="641.0682450609906" width="8.449793995462777" height="7.433465299530296" fill="#00ccff" opacity="0.34669392482533445" rx="1"/><rect x="892.1913785307838" y="644.7849777107558" width="8.449793995462777" height="7.433465299530296" fill="#ff0066" opacity="0.17334696241266723" rx="1"/><rect x="907.510835121547" y="684.3541283735201" width="7.082012966992802" height="9.424694523081346" fill="#00ccff" opacity="0.13508894297645635" rx="1"/><rect x="892.8752690450189" y="689.0664756350608" width="7.082012966992802" height="9.424694523081346" fill="#ff0066" opacity="0.06754447148822817" rx="1"/><rect x="906.6247618123438" y="727.6400116860494" width="8.854159585399124" height="9.63815138108054" fill="#00ccff" opacity="0.1616302932756092" rx="1"/><rect x="891.9891957358157" y="732.4590873765897" width="8.854159585399124" height="9.63815138108054" fill="#ff0066" opacity="0.0808151466378046" rx="1"/><rect x="905.9385572111048" y="770.9258949985788" width="10.226568787877115" height="8.88258737858445" fill="#00ccff" opacity="0.19772943614463542" rx="1"/><rect x="891.3029911345767" y="775.367188687871" width="10.226568787877115" height="8.88258737858445" fill="#ff0066" opacity="0.09886471807231771" rx="1"/><rect x="908.615921914996" y="814.2117783111082" width="4.871839380094745" height="9.437232175710898" fill="#00ccff" opacity="0.40024014350498094" rx="1"/><rect x="893.9803558384679" y="818.9303943989637" width="4.871839380094745" height="9.437232175710898" fill="#ff0066" opacity="0.20012007175249047" rx="1"/><rect x="907.6264637403209" y="857.4976616236377" width="6.850755729444966" height="6.559269838165322" fill="#00ccff" opacity="0.12695378417311093" rx="1"/><rect x="892.9908976637928" y="860.7772965427204" width="6.850755729444966" height="6.559269838165322" fill="#ff0066" opacity="0.06347689208655546" rx="1"/><rect x="905.6929813574242" y="900.783544936167" width="10.71772049523837" height="9.114897594581102" fill="#00ccff" opacity="0.4578177789127962" rx="1"/><rect x="891.0574152808961" y="905.3409937334576" width="10.71772049523837" height="9.114897594581102" fill="#ff0066" opacity="0.2289088894563981" rx="1"/><rect x="908.0632721449352" y="944.0694282486963" width="5.977138920216155" height="7.944346610909409" fill="#00ccff" opacity="0.5283449404007627" rx="1"/><rect x="893.4277060684071" y="948.041601554151" width="5.977138920216155" height="7.944346610909409" fill="#ff0066" opacity="0.26417247020038137" rx="1"/><rect x="960.3079839447299" y="768.9519322055746" width="77.3065788967783" height="208.40337935565117" fill="#1a0533" opacity="0.6395809167855375" rx="2"/><rect x="993.1161322673122" y="778.9519322055746" width="11.690282251613745" height="8.000772919040353" fill="#00ccff" opacity="0.5679187972722386" rx="1"/><rect x="973.7894875431176" y="782.9523186650948" width="11.690282251613745" height="8.000772919040353" fill="#ff0066" opacity="0.2839593986361193" rx="1"/><rect x="995.1875313427736" y="813.6858287648498" width="7.547484100690923" height="6.4861002127840415" fill="#00ccff" opacity="0.3166538100495594" rx="1"/><rect x="975.860886618579" y="816.9288788712419" width="7.547484100690923" height="6.4861002127840415" fill="#ff0066" opacity="0.1583269050247797" rx="1"/><rect x="995.3556140894899" y="848.419725324125" width="7.211318607258452" height="6.765602106406726" fill="#00ccff" opacity="0.3432948403859732" rx="1"/><rect x="976.0289693652953" y="851.8025263773284" width="7.211318607258452" height="6.765602106406726" fill="#ff0066" opacity="0.1716474201929866" rx="1"/><rect x="995.3727783813079" y="883.1536218834002" width="7.17699002362252" height="8.980416828529075" fill="#00ccff" opacity="0.5125225194526191" rx="1"/><rect x="976.0461336571133" y="887.6438302976647" width="7.17699002362252" height="8.980416828529075" fill="#ff0066" opacity="0.25626125972630953" rx="1"/><rect x="996.6172194149385" y="917.8875184426754" width="4.68810795636105" height="7.591586342451998" fill="#00ccff" opacity="0.2202728965134064" rx="1"/><rect x="977.2905746907439" y="921.6833116139014" width="4.68810795636105" height="7.591586342451998" fill="#ff0066" opacity="0.1101364482567032" rx="1"/><rect x="996.8808338413669" y="952.6214150019506" width="4.160879103504326" height="9.46467815233969" fill="#00ccff" opacity="0.11192742644621233" rx="1"/><rect x="977.5541891171723" y="957.3537540781205" width="4.160879103504326" height="9.46467815233969" fill="#ff0066" opacity="0.055963713223106164" rx="1"/><rect x="1060.9284489538395" y="644.0504196551747" width="30.36620420412305" height="333.3048919060512" fill="#000019" opacity="0.5815370468612614" rx="2"/><rect x="1071.981519487407" y="654.0504196551747" width="8.260063136988334" height="9.904774227157414" fill="#00ccff" opacity="0.5540486142397971" rx="1"/><rect x="1064.3899684363762" y="659.0028067687533" width="8.260063136988334" height="9.904774227157414" fill="#ff0066" opacity="0.27702430711989856" rx="1"/><rect x="1073.9763575887296" y="737.3766426316874" width="4.27038693434335" height="8.769603139434384" fill="#00ccff" opacity="0.5380424044649216" rx="1"/><rect x="1066.3848065376988" y="741.7614442014046" width="4.27038693434335" height="8.769603139434384" fill="#ff0066" opacity="0.2690212022324608" rx="1"/><rect x="1071.9093739229086" y="820.7028656082002" width="8.404354265985162" height="9.725528924662044" fill="#00ccff" opacity="0.5928592006892104" rx="1"/><rect x="1064.3178228718778" y="825.5656300705313" width="8.404354265985162" height="9.725528924662044" fill="#ff0066" opacity="0.2964296003446052" rx="1"/><rect x="1070.5790368843352" y="904.029088584713" width="11.065028343132006" height="6.064135278590055" fill="#00ccff" opacity="0.5078111968487061" rx="1"/><rect x="1062.9874858333044" y="907.0611562240081" width="11.065028343132006" height="6.064135278590055" fill="#ff0066" opacity="0.25390559842435306" rx="1"/><rect x="1139.2401630880488" y="726.3540300485571" width="81.21771109551604" height="251.00128151266867" fill="#000019" opacity="0.5167044647775368" rx="2"/><rect x="1177.1285226963842" y="736.3540300485571" width="5.440991878845029" height="8.834153068911785" fill="#00ccff" opacity="0.5323595748125481" rx="1"/><rect x="1156.8240949225053" y="740.771106583013" width="5.440991878845029" height="8.834153068911785" fill="#ff0066" opacity="0.26617978740627407" rx="1"/><rect x="1177.68980624674" y="786.5542863510908" width="4.318424778133264" height="7.18357182507952" fill="#00ccff" opacity="0.3935054223736528" rx="1"/><rect x="1157.3853784728612" y="790.1460722636306" width="4.318424778133264" height="7.18357182507952" fill="#ff0066" opacity="0.1967527111868264" rx="1"/><rect x="1177.2055261064882" y="836.7545426536245" width="5.2869850586371" height="6.1123828199022405" fill="#00ccff" opacity="0.5622970971889555" rx="1"/><rect x="1156.9010983326093" y="839.8107340635756" width="5.2869850586371" height="6.1123828199022405" fill="#ff0066" opacity="0.28114854859447774" rx="1"/><rect x="1174.3511898794645" y="886.9547989561584" width="10.995657512684273" height="9.656729878777808" fill="#00ccff" opacity="0.4999136293772407" rx="1"/><rect x="1154.0467621055857" y="891.7831638955472" width="10.995657512684273" height="9.656729878777808" fill="#ff0066" opacity="0.24995681468862035" rx="1"/><rect x="1174.301834152764" y="937.1550552586921" width="11.094368966085456" height="9.533897913883882" fill="#00ccff" opacity="0.1559311374220837" rx="1"/><rect x="1153.9974063788852" y="941.922004215634" width="11.094368966085456" height="9.533897913883882" fill="#ff0066" opacity="0.07796556871104185" rx="1"/><rect x="1245.3638924730053" y="634.6677576854518" width="76.7895722265331" height="342.68755387577403" fill="#1a0533" opacity="0.6873435221350155" rx="2"/><rect x="1280.345615809504" y="644.6677576854518" width="6.8261255535357925" height="8.134635661294366" fill="#00ccff" opacity="0.5451222596562286" rx="1"/><rect x="1261.1482227528707" y="648.735075516099" width="6.8261255535357925" height="8.134635661294366" fill="#ff0066" opacity="0.2725611298281143" rx="1"/><rect x="1280.087715410288" y="701.7823499980808" width="7.341926351967716" height="7.192653268853355" fill="#00ccff" opacity="0.27885910421117655" rx="1"/><rect x="1260.8903223536547" y="705.3786766325074" width="7.341926351967716" height="7.192653268853355" fill="#ff0066" opacity="0.13942955210558827" rx="1"/><rect x="1279.653624509952" y="758.8969423107097" width="8.210108152639613" height="9.034569644144403" fill="#00ccff" opacity="0.22578048641462356" rx="1"/><rect x="1260.4562314533187" y="763.4142271327819" width="8.210108152639613" height="9.034569644144403" fill="#ff0066" opacity="0.11289024320731178" rx="1"/><rect x="1278.210816473855" y="816.0115346233388" width="11.095724224833708" height="9.429328446143616" fill="#00ccff" opacity="0.5125580998166832" rx="1"/><rect x="1259.0134234172217" y="820.7261988464106" width="11.095724224833708" height="9.429328446143616" fill="#ff0066" opacity="0.2562790499083416" rx="1"/><rect x="1278.4852065120217" y="873.1261269359678" width="10.546944148500204" height="9.738538786708038" fill="#00ccff" opacity="0.392817171498392" rx="1"/><rect x="1259.2878134553885" y="877.9953963293218" width="10.546944148500204" height="9.738538786708038" fill="#ff0066" opacity="0.196408585749196" rx="1"/><rect x="1277.8816771424226" y="930.2407192485969" width="11.754002887698356" height="6.319453925900034" fill="#00ccff" opacity="0.4473289676120805" rx="1"/><rect x="1258.6842840857894" y="933.4004462115469" width="11.754002887698356" height="6.319453925900034" fill="#ff0066" opacity="0.22366448380604026" rx="1"/><rect x="1316.6946766837423" y="761.9878552649143" width="44.37889759763584" height="215.36745629631156" fill="#000019" opacity="0.44715243604666377" rx="2"/><rect x="1334.3333052756743" y="771.9878552649143" width="9.101640413771765" height="6.015412875454736" fill="#00ccff" opacity="0.24167657148597682" rx="1"/><rect x="1323.2385808762654" y="774.9955617026417" width="9.101640413771765" height="6.015412875454736" fill="#ff0066" opacity="0.12083828574298841" rx="1"/><rect x="1335.575902247766" y="802.7546347358159" width="6.616446469588309" height="7.713265864577439" fill="#00ccff" opacity="0.21815510867586246" rx="1"/><rect x="1324.481177848357" y="806.6112676681046" width="6.616446469588309" height="7.713265864577439" fill="#ff0066" opacity="0.10907755433793123" rx="1"/><rect x="1333.768552400647" y="833.5214142067176" width="10.23114616382661" height="7.51132513711027" fill="#00ccff" opacity="0.25372762041020386" rx="1"/><rect x="1322.673828001238" y="837.2770767752728" width="10.23114616382661" height="7.51132513711027" fill="#ff0066" opacity="0.12686381020510193" rx="1"/><rect x="1335.5661456370349" y="864.2881936776192" width="6.635959691050453" height="9.410055825349422" fill="#00ccff" opacity="0.5111346318179589" rx="1"/><rect x="1324.471421237626" y="868.993221590294" width="6.635959691050453" height="9.410055825349422" fill="#ff0066" opacity="0.25556731590897946" rx="1"/><rect x="1335.397575279621" y="895.0549731485208" width="6.973100405878643" height="8.544914079491262" fill="#00ccff" opacity="0.20015298905785964" rx="1"/><rect x="1324.302850880212" y="899.3274301882665" width="6.973100405878643" height="8.544914079491262" fill="#ff0066" opacity="0.10007649452892982" rx="1"/><rect x="1334.0831282256067" y="925.8217526194226" width="9.601994513907002" height="7.2092132394223505" fill="#00ccff" opacity="0.2738137102624899" rx="1"/><rect x="1322.9884038261978" y="929.4263592391337" width="9.601994513907002" height="7.2092132394223505" fill="#ff0066" opacity="0.13690685513124495" rx="1"/><rect x="1334.2898515571285" y="956.5885320903242" width="9.188547850863205" height="8.359053796706501" fill="#00ccff" opacity="0.19068503570526024" rx="1"/><rect x="1323.1951271577195" y="960.7680589886775" width="9.188547850863205" height="8.359053796706501" fill="#ff0066" opacity="0.09534251785263012" rx="1"/><rect x="1417.3449318009514" y="603.3297712805984" width="75.84080478312467" height="374.0255402806274" fill="#1a0533" opacity="0.6815403079803894" rx="2"/><rect x="1453.064501006891" y="613.3297712805984" width="4.401666371245325" height="8.259870537151553" fill="#00ccff" opacity="0.41141634781645064" rx="1"/><rect x="1434.1042998111097" y="617.4597065491741" width="4.401666371245325" height="8.259870537151553" fill="#ff0066" opacity="0.20570817390822532" rx="1"/><rect x="1452.4811608536572" y="706.8361563507552" width="5.568346677713177" height="9.77082792012273" fill="#00ccff" opacity="0.48518835345403954" rx="1"/><rect x="1433.520959657876" y="711.7215703108166" width="5.568346677713177" height="9.77082792012273" fill="#ff0066" opacity="0.24259417672701977" rx="1"/><rect x="1451.1316666559371" y="800.3425414209121" width="8.267335073153333" height="9.897118990285582" fill="#00ccff" opacity="0.2024680274078781" rx="1"/><rect x="1432.1714654601558" y="805.2911009160549" width="8.267335073153333" height="9.897118990285582" fill="#ff0066" opacity="0.10123401370393904" rx="1"/><rect x="1453.0421923545969" y="893.8489264910689" width="4.446283675834137" height="7.949318632006021" fill="#00ccff" opacity="0.3095398337602475" rx="1"/><rect x="1434.0819911588155" y="897.8235858070719" width="4.446283675834137" height="7.949318632006021" fill="#ff0066" opacity="0.15476991688012376" rx="1"/><rect x="1500.410137134911" y="828.8402543819603" width="74.03353686072714" height="148.51505717926545" fill="#1a0533" opacity="0.4180830360432349" rx="2"/><rect x="1534.809486547652" y="838.8402543819603" width="5.234838035245156" height="7.568515672713638" fill="#00ccff" opacity="0.25262610887936926" rx="1"/><rect x="1516.3011023324705" y="842.6245122183171" width="5.234838035245156" height="7.568515672713638" fill="#ff0066" opacity="0.12631305443968463" rx="1"/><rect x="1534.7930382417285" y="863.5927639118379" width="5.267734647092348" height="7.23389278939783" fill="#00ccff" opacity="0.24513018777247755" rx="1"/><rect x="1516.2846540265468" y="867.2097103065369" width="5.267734647092348" height="7.23389278939783" fill="#ff0066" opacity="0.12256509388623878" rx="1"/><rect x="1533.093986337772" y="888.3452734417154" width="8.665838455005046" height="9.312584351588177" fill="#00ccff" opacity="0.36338926499322743" rx="1"/><rect x="1514.5856021225904" y="893.0015656175095" width="8.665838455005046" height="9.312584351588177" fill="#ff0066" opacity="0.18169463249661372" rx="1"/><rect x="1532.4385261336217" y="913.097782971593" width="9.97675886330585" height="9.627645398403436" fill="#00ccff" opacity="0.3423995003901421" rx="1"/><rect x="1513.93014191844" y="917.9116056707948" width="9.97675886330585" height="9.627645398403436" fill="#ff0066" opacity="0.17119975019507105" rx="1"/><rect x="1531.9989437707484" y="937.8502925014707" width="10.855923589052615" height="9.579200070253387" fill="#00ccff" opacity="0.14950826488190988" rx="1"/><rect x="1513.4905595555667" y="942.6398925365974" width="10.855923589052615" height="9.579200070253387" fill="#ff0066" opacity="0.07475413244095494" rx="1"/><rect x="1533.8186932382469" y="962.6028020313482" width="7.216424654055485" height="7.153674125008675" fill="#00ccff" opacity="0.46946586365100595" rx="1"/><rect x="1515.3103090230652" y="966.1796390938525" width="7.216424654055485" height="7.153674125008675" fill="#ff0066" opacity="0.23473293182550298" rx="1"/><rect x="1597.4652806926038" y="612.1123830699623" width="65.1573830179771" height="365.2429284912634" fill="#000019" opacity="0.504438004899872" rx="2"/><rect x="1626.0859523531549" y="622.1123830699623" width="7.916039696875037" height="9.766336785574987" fill="#00ccff" opacity="0.18799920407775772" rx="1"/><rect x="1609.7966065986604" y="626.9955514627499" width="7.916039696875037" height="9.766336785574987" fill="#ff0066" opacity="0.09399960203887886" rx="1"/><rect x="1625.5694024500665" y="695.1609687682151" width="8.949139503051793" height="7.267651313279674" fill="#00ccff" opacity="0.2149818592506884" rx="1"/><rect x="1609.280056695572" y="698.7947944248549" width="8.949139503051793" height="7.267651313279674" fill="#ff0066" opacity="0.1074909296253442" rx="1"/><rect x="1627.0952960790191" y="768.2095544664677" width="5.897352245146724" height="8.443310881602418" fill="#00ccff" opacity="0.2652491671650785" rx="1"/><rect x="1610.8059503245247" y="772.4312099072689" width="5.897352245146724" height="8.443310881602418" fill="#ff0066" opacity="0.13262458358253926" rx="1"/><rect x="1624.1343389041403" y="841.2581401647203" width="11.819266594904304" height="8.812967180929371" fill="#00ccff" opacity="0.36377080072736623" rx="1"/><rect x="1607.844993149646" y="845.664623755185" width="11.819266594904304" height="8.812967180929371" fill="#ff0066" opacity="0.18188540036368311" rx="1"/><rect x="1625.443990267155" y="914.306725862973" width="9.199963868875049" height="9.329400568113057" fill="#00ccff" opacity="0.5716109841763067" rx="1"/><rect x="1609.1546445126605" y="918.9714261470295" width="9.199963868875049" height="9.329400568113057" fill="#ff0066" opacity="0.28580549208815337" rx="1"/><rect x="1671.68584996281" y="760.3480895073964" width="40.01308435341648" height="217.0072220538294" fill="#000019" opacity="0.45799076882144224" rx="2"/><rect x="1687.9117735162047" y="770.3480895073964" width="7.561237246627276" height="6.106330031553826" fill="#00ccff" opacity="0.30893866655159247" rx="1"/><rect x="1677.9085024278504" y="773.4012545231733" width="7.561237246627276" height="6.106330031553826" fill="#ff0066" opacity="0.15446933327579623" rx="1"/><rect x="1686.161938651397" y="801.349121229372" width="11.06090697624276" height="7.523897214216156" fill="#00ccff" opacity="0.5604430296366203" rx="1"/><rect x="1676.1586675630426" y="805.11106983648" width="11.06090697624276" height="7.523897214216156" fill="#ff0066" opacity="0.28022151481831015" rx="1"/><rect x="1688.3093455428852" y="832.3501529513476" width="6.766093193266096" height="9.877792589337982" fill="#00ccff" opacity="0.10606591324463159" rx="1"/><rect x="1678.306074454531" y="837.2890492460166" width="6.766093193266096" height="9.877792589337982" fill="#ff0066" opacity="0.053032956622315795" rx="1"/><rect x="1688.5227920790362" y="863.3511846733232" width="6.339200120963902" height="8.219298162082978" fill="#00ccff" opacity="0.3012105456556218" rx="1"/><rect x="1678.519520990682" y="867.4608337543648" width="6.339200120963902" height="8.219298162082978" fill="#ff0066" opacity="0.1506052728278109" rx="1"/><rect x="1688.9213181991286" y="894.3522163952989" width="5.542147880779148" height="8.452842654300118" fill="#00ccff" opacity="0.11548142440511878" rx="1"/><rect x="1678.9180471107743" y="898.578637722449" width="5.542147880779148" height="8.452842654300118" fill="#ff0066" opacity="0.05774071220255939" rx="1"/><rect x="1688.3266482571773" y="925.3532481172745" width="6.73148776468157" height="6.903515159362814" fill="#00ccff" opacity="0.31890558761519044" rx="1"/><rect x="1678.323377168823" y="928.8050056969558" width="6.73148776468157" height="6.903515159362814" fill="#ff0066" opacity="0.15945279380759522" rx="1"/><rect x="1689.6777475427891" y="956.3542798392501" width="4.029289193458224" height="7.982942126221708" fill="#00ccff" opacity="0.5892924119460612" rx="1"/><rect x="1679.6744764544349" y="960.345750902361" width="4.029289193458224" height="7.982942126221708" fill="#ff0066" opacity="0.2946462059730306" rx="1"/><rect x="1773.9795899717938" y="767.2295126405613" width="67.09195918335857" height="210.12579892066444" fill="#1a0533" opacity="0.6016024586049846" rx="2"/><rect x="1803.1534716245992" y="777.2295126405613" width="8.744195877747655" height="9.19710387177698" fill="#00ccff" opacity="0.5273904616542604" rx="1"/><rect x="1786.3804818287597" y="781.8280645764498" width="8.744195877747655" height="9.19710387177698" fill="#ff0066" opacity="0.2636952308271302" rx="1"/><rect x="1805.005866305523" y="819.2546724246943" width="5.039406515899907" height="6.312318247815668" fill="#00ccff" opacity="0.5821471240097068" rx="1"/><rect x="1788.2328765096836" y="822.4108315486021" width="5.039406515899907" height="6.312318247815668" fill="#ff0066" opacity="0.2910735620048534" rx="1"/><rect x="1803.445485323856" y="861.2798322088271" width="8.16016847923402" height="8.149926161894092" fill="#00ccff" opacity="0.49519745679460403" rx="1"/><rect x="1786.6724955280165" y="865.3547952897742" width="8.16016847923402" height="8.149926161894092" fill="#ff0066" opacity="0.24759872839730201" rx="1"/><rect x="1803.3365331740818" y="903.30499199296" width="8.378072778782359" height="7.716076244999672" fill="#00ccff" opacity="0.5432336982440282" rx="1"/><rect x="1786.5635433782422" y="907.1630301154598" width="8.378072778782359" height="7.716076244999672" fill="#ff0066" opacity="0.2716168491220141" rx="1"/><rect x="1802.4268564832842" y="945.3301517770929" width="10.197426160377782" height="9.977896486403862" fill="#00ccff" opacity="0.46695245056574985" rx="1"/><rect x="1785.6538666874446" y="950.3191000202947" width="10.197426160377782" height="9.977896486403862" fill="#ff0066" opacity="0.23347622528287493" rx="1"/><rect x="1862.713833386287" y="706.7486159635589" width="65.10816427299477" height="270.60669559766694" fill="#000019" opacity="0.4866423597295402" rx="2"/><rect x="1889.7432900809042" y="716.7486159635589" width="11.049250883760223" height="9.58485919506868" fill="#00ccff" opacity="0.45401486136345537" rx="1"/><rect x="1873.4662490126557" y="721.5410455610933" width="11.049250883760223" height="9.58485919506868" fill="#ff0066" opacity="0.22700743068172768" rx="1"/><rect x="1891.4380363353107" y="750.5744529132672" width="7.659758374947067" height="8.477397028002283" fill="#00ccff" opacity="0.1527183101635236" rx="1"/><rect x="1875.1609952670622" y="754.8131514272684" width="7.659758374947067" height="8.477397028002283" fill="#ff0066" opacity="0.0763591550817618" rx="1"/><rect x="1891.8302890898221" y="784.4002898629757" width="6.875252865924326" height="6.131341842033747" fill="#00ccff" opacity="0.2983763713385855" rx="1"/><rect x="1875.5532480215736" y="787.4659607839925" width="6.875252865924326" height="6.131341842033747" fill="#ff0066" opacity="0.14918818566929276" rx="1"/><rect x="1890.684972976769" y="818.226126812684" width="9.165885092030718" height="7.935847448635811" fill="#00ccff" opacity="0.133019729431956" rx="1"/><rect x="1874.4079319085204" y="822.1940505370019" width="9.165885092030718" height="7.935847448635811" fill="#ff0066" opacity="0.066509864715978" rx="1"/><rect x="1889.588253629573" y="852.0519637623923" width="11.359323786422454" height="9.215268961902538" fill="#00ccff" opacity="0.4328352195287205" rx="1"/><rect x="1873.3112125613245" y="856.6595982433436" width="11.359323786422454" height="9.215268961902538" fill="#ff0066" opacity="0.21641760976436025" rx="1"/><rect x="1892.6830403292236" y="885.8778007121007" width="5.1697503871213994" height="8.594987701297502" fill="#00ccff" opacity="0.4399935048865139" rx="1"/><rect x="1876.405999260975" y="890.1752945627494" width="5.1697503871213994" height="8.594987701297502" fill="#ff0066" opacity="0.21999675244325695" rx="1"/><rect x="1890.9493111637726" y="919.7036376618091" width="8.637208718023544" height="6.832566689893735" fill="#00ccff" opacity="0.46667773496980725" rx="1"/><rect x="1874.672270095524" y="923.119921006756" width="8.637208718023544" height="6.832566689893735" fill="#ff0066" opacity="0.23333886748490362" rx="1"/><rect x="1892.319250226836" y="953.5294746115175" width="5.897330591896859" height="7.8973122643999085" fill="#00ccff" opacity="0.3332678675263347" rx="1"/><rect x="1876.0422091585874" y="957.4781307437174" width="5.897330591896859" height="7.8973122643999085" fill="#ff0066" opacity="0.16663393376316735" rx="1"/><path d="M1553.9086737376426 879.7762104263008 Q1562.9808639043433 761.1993116352705 1564.7953019376835 642.6224128442403" stroke="#000000" stroke-width="5.010770715077122" fill="none" stroke-linecap="round"/><path d="M1564.7953019376835 642.6224128442403 Q1600.5172532278852 622.6224128442403 1599.3028708829786 642.6224128442403" stroke="#000000" stroke-width="2.8382913369774565" fill="none" stroke-linecap="round" opacity="0.6"/><path d="M1564.7953019376835 642.6224128442403 Q1581.4097582848487 627.8046672931598 1592.3467020538883 652.9869217420793" stroke="#000000" stroke-width="2.3678977886140107" fill="none" stroke-linecap="round" opacity="0.6"/><path d="M1564.7953019376835 642.6224128442403 Q1575.1160515171948 632.9119904605893 1549.138442303266 663.2015680769384" stroke="#000000" stroke-width="3.0455298444827856" fill="none" stroke-linecap="round" opacity="0.6"/><path d="M1564.7953019376835 642.6224128442403 Q1545.6485313983585 626.4212842290224 1512.2057171821748 650.2201556138044" stroke="#000000" stroke-width="3.954369510979012" fill="none" stroke-linecap="round" opacity="0.6"/><path d="M1564.7953019376835 642.6224128442403 Q1544.141510294186 618.2087724989769 1503.6951778462537 633.7951321537134" stroke="#000000" stroke-width="2.160759843457667" fill="none" stroke-linecap="round" opacity="0.6"/><path d="M1564.7953019376835 642.6224128442403 Q1561.3606962581273 612.0938957104786 1548.7748663991101 621.5653785767169" stroke="#000000" stroke-width="2.600511335441962" fill="none" stroke-linecap="round" opacity="0.6"/><path d="M1564.7953019376835 642.6224128442403 Q1592.8382786100026 618.9844842536846 1584.1363102151677 635.3465556631289" stroke="#000000" stroke-width="3.0437746762865627" fill="none" stroke-linecap="round" opacity="0.6"/><path d="M1637.5557794509355 963.7265749889721 Q1635.230178957626 849.7329391480267 1634.765058858964 735.7393033070814" stroke="#000000" stroke-width="7.282726307232568" fill="none" stroke-linecap="round"/><path d="M1634.765058858964 735.7393033070814 Q1668.0712773665023 715.7393033070814 1688.6478196356093 735.7393033070814" stroke="#000000" stroke-width="3.0516030967821375" fill="none" stroke-linecap="round" opacity="0.6"/><path d="M1634.765058858964 735.7393033070814 Q1665.5010436975851 723.5504123165667 1676.2927360104584 751.3615213260521" stroke="#000000" stroke-width="2.410832394941438" fill="none" stroke-linecap="round" opacity="0.6"/><path d="M1634.765058858964 735.7393033070814 Q1632.0489984169774 723.4222325124776 1623.0745358234094 751.1051617178738" stroke="#000000" stroke-width="2.8559256798717954" fill="none" stroke-linecap="round" opacity="0.6"/><path d="M1634.765058858964 735.7393033070814 Q1611.9032776630013 719.4277668569117 1583.7039023142986 743.116230406742" stroke="#000000" stroke-width="2.4715119359249975" fill="none" stroke-linecap="round" opacity="0.6"/><path d="M1634.765058858964 735.7393033070814 Q1629.0824363779027 713.5604488434508 1604.602139433991 731.3815943798203" stroke="#000000" stroke-width="2.717405582013867" fill="none" stroke-linecap="round" opacity="0.6"/><path d="M1634.765058858964 735.7393033070814 Q1634.6054694925385 707.4080656844287 1622.0880547192028 719.076828061776" stroke="#000000" stroke-width="3.5712776327438833" fill="none" stroke-linecap="round" opacity="0.6"/><path d="M74.05160443718816 881.6674840593868 Q62.88202076286125 795.6960618893374 60.64810402799587 709.724639719288" stroke="#000000" stroke-width="6.077718820906645" fill="none" stroke-linecap="round"/><path d="M60.64810402799587 709.724639719288 Q101.08877552442459 689.724639719288 128.9757812588885 709.724639719288" stroke="#000000" stroke-width="2.7432126367332446" fill="none" stroke-linecap="round" opacity="0.6"/><path d="M60.64810402799587 709.724639719288 Q89.79268233347261 696.5641064866863 97.01005563563396 723.4035732540847" stroke="#000000" stroke-width="3.578377919639083" fill="none" stroke-linecap="round" opacity="0.6"/><path d="M60.64810402799587 709.724639719288 Q56.532894163067525 696.7558756250083 49.94921261214 723.7871115307287" stroke="#000000" stroke-width="2.963434098512734" fill="none" stroke-linecap="round" opacity="0.6"/><path d="M60.64810402799587 709.724639719288 Q35.48292779859225 693.5503880144504 7.686449409296394 717.3761363096129" stroke="#000000" stroke-width="3.3718611214710075" fill="none" stroke-linecap="round" opacity="0.6"/><path d="M60.64810402799587 709.724639719288 Q60.29591599741703 687.4434981526347 29.069175549553712 705.1623565859812" stroke="#000000" stroke-width="2.3197176149859366" fill="none" stroke-linecap="round" opacity="0.6"/><path d="M60.64810402799587 709.724639719288 Q73.39224893204823 680.8605786061103 47.16034332347381 691.9965174929325" stroke="#000000" stroke-width="2.7521158491149813" fill="none" stroke-linecap="round" opacity="0.6"/><path d="M60.64810402799587 709.724639719288 Q85.83347588046799 681.6586992580712 103.53058985553058 693.5927587968546" stroke="#000000" stroke-width="3.3434242069123834" fill="none" stroke-linecap="round" opacity="0.6"/><rect x="0" y="1000" width="1920" height="80" fill="#00000d" opacity="0.8"/><line x1="0" y1="1040" x2="1920" y2="1040" stroke="#00ccff" stroke-opacity="0.15" stroke-width="2" stroke-dasharray="30,20"/><rect x="0" y="930" width="1920" height="150" fill="url(#glow0)"/><rect x="0" y="980" width="1920" height="100" fill="#00ccff" opacity="0.04"/><rect x="1002.1536225923695" y="1051.1596601854917" width="111.26396230218559" height="2" fill="#ff0066" opacity="0.020934241507419907" rx="1"/><rect x="1322.0717962184158" y="1010.1030304306427" width="64.24343054281627" height="2" fill="#ff0066" opacity="0.02787167265263192" rx="1"/><rect x="1489.27771021828" y="1043.7094365208663" width="114.5098017795267" height="2" fill="#ff0066" opacity="0.044143880853462936" rx="1"/><rect x="333.171587067929" y="1021.2257982700191" width="115.49426564376202" height="2" fill="#ff0066" opacity="0.035069198006547335" rx="1"/><rect x="1324.2221151395288" y="1033.9271339014933" width="67.92111749945235" height="2" fill="#ff0066" opacity="0.04488901772184507" rx="1"/><rect x="1904.3142203950124" y="1031.0945522578188" width="113.60356312096202" height="2" fill="#ff0066" opacity="0.04332182507573669" rx="1"/><rect x="1046.041479056245" y="1056.9065083183596" width="86.17489451686266" height="2" fill="#ff0066" opacity="0.03632224977396481" rx="1"/><rect x="1534.6559848484249" y="1024.5768636987957" width="62.10478522398155" height="2" fill="#ff0066" opacity="0.025146362987613857" rx="1"/><rect x="1028.0726818153805" y="1054.6196054887537" width="110.22524046949698" height="2" fill="#ff0066" opacity="0.046542573214169256" rx="1"/><rect x="1037.4914174707353" y="1027.6905474410603" width="73.23255517362443" height="2" fill="#ff0066" opacity="0.02551894251385679" rx="1"/><rect x="598.6713473402596" y="1049.5590646680348" width="109.34884541420006" height="2" fill="#ff0066" opacity="0.04900750290346507" rx="1"/><rect x="1670.148446501733" y="1019.6786805520949" width="23.18439011536175" height="2" fill="#ff0066" opacity="0.033395098953832664" rx="1"/><rect x="1398.9315957107888" y="1032.042432839992" width="48.57009464143079" height="2" fill="#ff0066" opacity="0.035952147882420606" rx="1"/><rect x="558.8618053306969" y="1006.9885676044479" width="51.81514149341154" height="2" fill="#ff0066" opacity="0.039035671963131915" rx="1"/><rect x="1628.8644025541992" y="1002.9366455699635" width="66.5196670607011" height="2" fill="#ff0066" opacity="0.03903789522569578" rx="1"/><rect x="1529.968987314489" y="1024.908965291667" width="68.26020718278835" height="2" fill="#ff0066" opacity="0.0378223238368105" rx="1"/><rect x="1563.7081699733874" y="1044.117773241391" width="94.00478952890374" height="2" fill="#ff0066" opacity="0.034639388363491605" rx="1"/><rect x="470.5666477583737" y="1047.799173246091" width="107.36876456238534" height="2" fill="#ff0066" opacity="0.02224610669590675" rx="1"/><rect x="1452.8605090484164" y="1011.8059401521008" width="91.56269035105656" height="2" fill="#ff0066" opacity="0.04578637061309683" rx="1"/><rect x="922.1223912299896" y="1033.1491519261965" width="107.80792560144512" height="2" fill="#ff0066" opacity="0.04453127834585758" rx="1"/><rect x="63.350356235948944" y="1014.801741283108" width="25.52921840118459" height="2" fill="#ff0066" opacity="0.02497847049612982" rx="1"/><rect x="1355.8559675691313" y="1028.1910259621663" width="87.34037105164965" height="2" fill="#ff0066" opacity="0.049440634052604585" rx="1"/><rect x="260.0697872648178" y="1020.8206557670657" width="116.45480993121276" height="2" fill="#ff0066" opacity="0.058296881662285166" rx="1"/><rect x="1591.995022965594" y="1001.7072130603965" width="87.98920151032256" height="2" fill="#ff0066" opacity="0.05098505624360057" rx="1"/><rect x="708.1897662738779" y="1055.6835452410587" width="95.75727980019461" height="2" fill="#ff0066" opacity="0.05655295516284019" rx="1"/><rect x="971.8047244129248" y="1000.8492365341748" width="29.111439299097157" height="2" fill="#ff0066" opacity="0.03555007642497078" rx="1"/><rect x="773.5568920088832" y="1007.2545322653033" width="83.05897141878003" height="2" fill="#ff0066" opacity="0.02624302830692451" rx="1"/><rect x="699.0853139895679" y="1039.3424408555363" width="87.41629090798466" height="2" fill="#ff0066" opacity="0.02931780870289491" rx="1"/><rect x="330.2406496578456" y="1011.576507150097" width="99.04211587250282" height="2" fill="#ff0066" opacity="0.03982119366056779" rx="1"/><rect x="19.757682238649036" y="1038.5286518788264" width="24.58275780654111" height="2" fill="#ff0066" opacity="0.04121931642787981" rx="1"/><text x="1900" y="1060" font-family="Arial, sans-serif" font-size="11" fill="#fff" opacity="0.08" text-anchor="end" letter-spacing="2">GTA 6 REWARDS · WALLPAPER 001</text>
</svg>