<?xml version="1.0" encoding="UTF-8"?>
<svg xmlns="http://www.w3.org/2000/svg" width="1920" height="1080" viewBox="0 0 1920 1080">
<defs>
    <linearGradient id="bg49" x1="0%" y1="0%" x2="0%" y2="100%">
      <stop offset="0%" stop-color="#6930c3"/>
      <stop offset="50%" stop-color="#360090"/>
      <stop offset="100%" stop-color="#6930c3"/>
    </linearGradient>
    <linearGradient id="sun49" x1="0%" y1="0%" x2="100%" y2="100%">
      <stop offset="0%" stop-color="#80ffdb"/>
      <stop offset="100%" stop-color="#64dfdf"/>
    </linearGradient>
    <radialGradient id="glow49" cx="50%" cy="70%" r="50%">
      <stop offset="0%" stop-color="#80ffdb" stop-opacity="0.3"/>
      <stop offset="100%" stop-color="#6930c3" stop-opacity="0"/>
    </radialGradient>
  </defs><rect width="1920" height="1080" fill="url(#bg49)"/><circle cx="1026.3495249502243" cy="511.07474768326495" r="634.1339404308549" fill="#80ffdb" opacity="0.10090972570490785"/><circle cx="1226.3495249502243" cy="411.07474768326495" r="441.7447775233874" fill="#64dfdf" opacity="0.08469006338033128"/><line x1="0" y1="980" x2="1920" y2="980" stroke="#64dfdf" stroke-opacity="0.05" stroke-width="2"/><line x1="0" y1="935" x2="1920" y2="935" stroke="#64dfdf" stroke-opacity="0.049" stroke-width="0.5"/><line x1="0" y1="890" x2="1920" y2="890" stroke="#64dfdf" stroke-opacity="0.048" stroke-width="0.5"/><line x1="0" y1="845" x2="1920" y2="845" stroke="#64dfdf" stroke-opacity="0.047" stroke-width="0.5"/><line x1="0" y1="800" x2="1920" y2="800" stroke="#64dfdf" stroke-opacity="0.046" stroke-width="0.5"/><line x1="0" y1="755" x2="1920" y2="755" stroke="#64dfdf" stroke-opacity="0.045" stroke-width="0.5"/><line x1="0" y1="710" x2="1920" y2="710" stroke="#64dfdf" stroke-opacity="0.044" stroke-width="0.5"/><line x1="0" y1="665" x2="1920" y2="665" stroke="#64dfdf" stroke-opacity="0.043" stroke-width="0.5"/><line x1="0" y1="620" x2="1920" y2="620" stroke="#64dfdf" stroke-opacity="0.041999999999999996" stroke-width="0.5"/><line x1="0" y1="575" x2="1920" y2="575" stroke="#64dfdf" stroke-opacity="0.041" stroke-width="0.5"/><line x1="0" y1="530" x2="1920" y2="530" stroke="#64dfdf" stroke-opacity="0.04" stroke-width="0.5"/><line x1="0" y1="485" x2="1920" y2="485" stroke="#64dfdf" stroke-opacity="0.039" stroke-width="0.5"/><line x1="0" y1="440" x2="1920" y2="440" stroke="#64dfdf" stroke-opacity="0.038" stroke-width="0.5"/><line x1="0" y1="395" x2="1920" y2="395" stroke="#64dfdf" stroke-opacity="0.037" stroke-width="0.5"/><line x1="0" y1="350" x2="1920" y2="350" stroke="#64dfdf" stroke-opacity="0.036" stroke-width="0.5"/><line x1="0" y1="305" x2="1920" y2="305" stroke="#64dfdf" stroke-opacity="0.034999999999999996" stroke-width="0.5"/><line x1="0" y1="260" x2="1920" y2="260" stroke="#64dfdf" stroke-opacity="0.033999999999999996" stroke-width="0.5"/><line x1="0" y1="215" x2="1920" y2="215" stroke="#64dfdf" stroke-opacity="0.033" stroke-width="0.5"/><line x1="0" y1="170" x2="1920" y2="170" stroke="#64dfdf" stroke-opacity="0.032" stroke-width="0.5"/><line x1="0" y1="125" x2="1920" y2="125" stroke="#64dfdf" stroke-opacity="0.031" stroke-width="0.5"/><line x1="560" y1="1080" x2="860" y2="580" stroke="#80ffdb" stroke-opacity="0.04" stroke-width="1"/><line x1="640" y1="1080" x2="880" y2="590" stroke="#80ffdb" stroke-opacity="0.04" stroke-width="1"/><line x1="720" y1="1080" x2="900" y2="600" stroke="#80ffdb" stroke-opacity="0.04" stroke-width="1"/><line x1="800" y1="1080" x2="920" y2="610" stroke="#80ffdb" stroke-opacity="0.04" stroke-width="1"/><line x1="880" y1="1080" x2="940" y2="620" stroke="#80ffdb" stroke-opacity="0.04" stroke-width="1"/><line x1="960" y1="1080" x2="960" y2="630" stroke="#80ffdb" stroke-opacity="0.04" stroke-width="1"/><line x1="1040" y1="1080" x2="980" y2="620" stroke="#80ffdb" stroke-opacity="0.04" stroke-width="1"/><line x1="1120" y1="1080" x2="1000" y2="610" stroke="#80ffdb" stroke-opacity="0.04" stroke-width="1"/><line x1="1200" y1="1080" x2="1020" y2="600" stroke="#80ffdb" stroke-opacity="0.04" stroke-width="1"/><line x1="1280" y1="1080" x2="1040" y2="590" stroke="#80ffdb" stroke-opacity="0.04" stroke-width="1"/><line x1="1360" y1="1080" x2="1060" y2="580" stroke="#80ffdb" stroke-opacity="0.04" stroke-width="1"/><circle cx="323.93250000289004" cy="200.54076801765262" r="94.4114806210649" fill="url(#sun49)" opacity="0.8051963819668619"/><circle cx="323.93250000289004" cy="200.54076801765262" r="89.4114806210649" fill="#6930c3" opacity="0.3"/><pattern id="scan49" width="1920" height="4" patternUnits="userSpaceOnUse">
      <line x1="0" y1="0" x2="1920" y2="0" stroke="#000" stroke-opacity="0.05" stroke-width="1"/>
    </pattern>
    <rect width="1920" height="1080" fill="url(#scan49)"/><circle cx="489.90721788488037" cy="156.72925443498633" r="1.7959515156214945" fill="#fff" opacity="0.4277055603516534"/><circle cx="803.9864777410371" cy="137.59129798635638" r="1.7779873955943593" fill="#fff" opacity="0.589860859883451"/><circle cx="1848.7274198068137" cy="197.8083904101067" r="1.2225737654889408" fill="#fff" opacity="0.5264200579669374"/><circle cx="1698.8971025726985" cy="238.35980786344962" r="1.0071930978463945" fill="#fff" opacity="0.37182419169038167"/><circle cx="1087.1173621265025" cy="193.7223630849557" r="0.909050733295514" fill="#fff" opacity="0.7217311992593416"/><circle cx="335.9800704605831" cy="265.46487177383733" r="0.9031203579863347" fill="#fff" opacity="0.4345133889081221"/><circle cx="1556.9232191790181" cy="10.469095400178128" r="1.6580150962476652" fill="#fff" opacity="0.3505720821094168"/><circle cx="1393.8068871465061" cy="91.32836765687176" r="0.6551720633067126" fill="#fff" opacity="0.7340414348836153"/><circle cx="1185.3796204704279" cy="18.564897597433276" r="1.7292829659369966" fill="#fff" opacity="0.6421021385682053"/><circle cx="1636.6584669883964" cy="159.1120074538309" r="1.8715636817206545" fill="#fff" opacity="0.4595648849987343"/><circle cx="433.5217216130164" cy="400.78894618916996" r="1.4806059765351485" fill="#fff" opacity="0.5883960604174985"/><circle cx="321.4345944676163" cy="178.21610087952953" r="1.1221559859398185" fill="#fff" opacity="0.7215788078777443"/><circle cx="1723.820627286057" cy="150.8408121221794" r="1.6689968908133443" fill="#fff" opacity="0.2058453409014841"/><circle cx="767.9281194805932" cy="120.68193455987654" r="0.7568789100639706" fill="#fff" opacity="0.49040221788231336"/><circle cx="437.88231532040106" cy="288.9243297281033" r="1.2074684395239381" fill="#fff" opacity="0.7200777191017003"/><circle cx="1647.6496749482233" cy="281.68097201215124" r="1.367432512312064" fill="#fff" opacity="0.7063123944463003"/><circle cx="975.4236537999063" cy="135.3991968201937" r="0.5103867206513851" fill="#fff" opacity="0.6383195667151175"/><circle cx="137.77243140567384" cy="198.31636904699644" r="1.753300122393598" fill="#fff" opacity="0.5770861884525712"/><circle cx="1883.4649228964618" cy="427.0461595382183" r="1.4186748952881143" fill="#fff" opacity="0.3252541560505643"/><circle cx="1758.4091730039588" cy="377.04693776579734" r="0.900787210883756" fill="#fff" opacity="0.6322957788669261"/><circle cx="1832.0356580410235" cy="143.88354026150972" r="1.1742201031125663" fill="#fff" opacity="0.7691684929582217"/><circle cx="935.8843738529563" cy="371.3195017211417" r="0.9536203089993494" fill="#fff" opacity="0.3691298067032196"/><circle cx="614.3855507612195" cy="262.0495533435721" r="0.9704649046693148" fill="#fff" opacity="0.3546491195807814"/><circle cx="1891.68049021896" cy="202.7604071038683" r="0.6099622076400467" fill="#fff" opacity="0.39960654424494285"/><circle cx="1128.437664175508" cy="147.46142751431591" r="1.7110350315251934" fill="#fff" opacity="0.6095501062016817"/><circle cx="828.742642446594" cy="384.4989203811853" r="1.70639232539255" fill="#fff" opacity="0.7977210936596899"/><circle cx="1430.8239598923417" cy="260.6299024235061" r="0.6062028077678295" fill="#fff" opacity="0.5995286901946013"/><circle cx="40.729496339505886" cy="5.825480574235665" r="1.6477315047866972" fill="#fff" opacity="0.678578454926279"/><circle cx="1231.8680895752896" cy="119.09185225681678" r="1.4348162842064203" fill="#fff" opacity="0.3383149064468022"/><circle cx="1215.0050808337996" cy="308.9901568230684" r="1.658979318258115" fill="#fff" opacity="0.4265219592085392"/><circle cx="604.0709407543928" cy="425.7494517252197" r="1.9328063750715943" fill="#fff" opacity="0.6064666236300177"/><circle cx="1865.797012733714" cy="231.304158443423" r="1.6970961165374834" fill="#fff" opacity="0.2696492882141958"/><circle cx="131.20439666584238" cy="350.78567123012283" r="0.8200355694443071" fill="#fff" opacity="0.45271825689187234"/><circle cx="1614.4994110647822" cy="87.2398835959006" r="1.3604810594954717" fill="#fff" opacity="0.2681783469086928"/><circle cx="686.0757173705091" cy="427.71112414722126" r="1.880059514516047" fill="#fff" opacity="0.5147225809550664"/><circle cx="232.77809059079226" cy="18.22908217884346" r="1.6324194569914647" fill="#fff" opacity="0.33962043033438283"/><circle cx="959.932978972777" cy="200.7084862274836" r="1.7971396214089217" fill="#fff" opacity="0.7247093674085823"/><circle cx="606.954036943371" cy="233.17976263379205" r="1.0542015395020603" fill="#fff" opacity="0.7486912074845031"/><circle cx="1374.6806957048086" cy="376.476380912698" r="1.2303038925701528" fill="#fff" opacity="0.3355700544397277"/><circle cx="1889.7626204718283" cy="269.0195500396703" r="1.3042493947558684" fill="#fff" opacity="0.22442163727814837"/><circle cx="1460.1752180280573" cy="215.24531152640594" r="0.6856910742785993" fill="#fff" opacity="0.2246083377452121"/><circle cx="649.6819895528448" cy="231.47111589635517" r="0.9650054669391843" fill="#fff" opacity="0.33341503626047986"/><circle cx="1336.05335162395" cy="19.66990870322797" r="1.577420759382057" fill="#fff" opacity="0.669978851096234"/><circle cx="823.9793172907035" cy="94.22227079007362" r="1.006416875637699" fill="#fff" opacity="0.7839492568243176"/><circle cx="1548.4881519406308" cy="211.75822251377585" r="1.6835012867077024" fill="#fff" opacity="0.4306026662771131"/><circle cx="26.275594985642375" cy="377.3785815111777" r="1.8381988200913648" fill="#fff" opacity="0.5944245600128604"/><circle cx="1249.9378178943734" cy="73.24051374039625" r="0.6085525737396796" fill="#fff" opacity="0.588108696506384"/><circle cx="251.24435445555585" cy="401.359289605487" r="1.7123280504514296" fill="#fff" opacity="0.6666800941495876"/><circle cx="882.498299386934" cy="349.6779311107653" r="0.8886237240835614" fill="#fff" opacity="0.3409581845954429"/><circle cx="654.3107795748653" cy="259.03520749207473" r="0.783030033061055" fill="#fff" opacity="0.764389640270823"/><circle cx="634.1414627419183" cy="67.61087690377862" r="1.2088311061283645" fill="#fff" opacity="0.33284532402941147"/><circle cx="737.388541274096" cy="186.54171705863942" r="0.6461117163175045" fill="#fff" opacity="0.44225088899076237"/><circle cx="1336.9799019528973" cy="238.18709475877395" r="1.1171094655564775" fill="#fff" opacity="0.6742904520766555"/><circle cx="1616.8209407517736" cy="179.3084108874454" r="0.9023492120677488" fill="#fff" opacity="0.4759899907922349"/><circle cx="886.5836559810173" cy="407.3153963068769" r="1.2849182285798988" fill="#fff" opacity="0.6157783716953775"/><circle cx="1359.5769711024075" cy="399.00070784962753" r="1.201902968623187" fill="#fff" opacity="0.7548304265725496"/><circle cx="1520.2845372819072" cy="378.7368054861987" r="1.2728466591268885" fill="#fff" opacity="0.21695771776534564"/><circle cx="895.7463747858411" cy="149.4306624581643" r="1.3372512029803478" fill="#fff" opacity="0.5216765440818101"/><circle cx="486.06036689273554" cy="284.91003194751914" r="1.6891021714986074" fill="#fff" opacity="0.7751722948567876"/><circle cx="461.71704332849873" cy="220.1473235627979" r="1.0878015023394956" fill="#fff" opacity="0.7057258562431032"/><circle cx="1641.611287976059" cy="85.19583433242418" r="1.9198734864871654" fill="#fff" opacity="0.3985085933000102"/><circle cx="338.8646235360914" cy="371.3140271984306" r="1.9490097390834729" fill="#fff" opacity="0.41947166957414517"/><circle cx="980.5028193491752" cy="131.65574397976874" r="1.3601138140913362" fill="#fff" opacity="0.21001576660434151"/><rect x="1.6893732691391774" y="849.0773062335973" width="88.50736945832786" height="120.50022702210123" fill="#4f16a9" opacity="0.4810934812252162" rx="2"/><rect x="43.67055853751268" y="859.0773062335973" width="4.544998921580845" height="9.211060096326065" fill="#64dfdf" opacity="0.5764647086794639" rx="1"/><rect x="21.543716172930722" y="863.6828362817603" width="4.544998921580845" height="9.211060096326065" fill="#80ffdb" opacity="0.28823235433973193" rx="1"/><rect x="42.93467178566723" y="889.2023629891225" width="6.016772425271751" height="9.09224578623945" fill="#64dfdf" opacity="0.35843028893192075" rx="1"/><rect x="20.807829421085266" y="893.7484858822422" width="6.016772425271751" height="9.09224578623945" fill="#80ffdb" opacity="0.17921514446596037" rx="1"/><rect x="39.97269088331905" y="919.3274197446478" width="11.9407342299681" height="6.462750889468647" fill="#64dfdf" opacity="0.4555127146783081" rx="1"/><rect x="17.845848518737093" y="922.5587951893822" width="11.9407342299681" height="6.462750889468647" fill="#80ffdb" opacity="0.22775635733915406" rx="1"/><rect x="40.16358272758396" y="949.4524765001731" width="11.558950541438291" height="9.54795533966924" fill="#64dfdf" opacity="0.3010560249213725" rx="1"/><rect x="18.036740363001996" y="954.2264541700077" width="11.558950541438291" height="9.54795533966924" fill="#80ffdb" opacity="0.15052801246068626" rx="1"/><rect x="104.37146406589474" y="650.5251807511145" width="80.37530357725343" height="319.05235250458406" fill="#4f16a9" opacity="0.4199713963363253" rx="2"/><rect x="139.15454695989382" y="660.5251807511145" width="10.809137789255274" height="6.5407034821204615" fill="#64dfdf" opacity="0.12874379221553536" rx="1"/><rect x="119.06072106558045" y="663.7955324921747" width="10.809137789255274" height="6.5407034821204615" fill="#80ffdb" opacity="0.06437189610776768" rx="1"/><rect x="141.22323274344876" y="724.3356512520313" width="6.671766222145354" height="6.220810727267715" fill="#64dfdf" opacity="0.2257473172447056" rx="1"/><rect x="121.12940684913542" y="727.4460566156652" width="6.671766222145354" height="6.220810727267715" fill="#80ffdb" opacity="0.1128736586223528" rx="1"/><rect x="141.07251169354612" y="788.1461217529481" width="6.973208321950679" height="8.9611703518222" fill="#64dfdf" opacity="0.1355893325841961" rx="1"/><rect x="120.97868579923275" y="792.6267069288592" width="6.973208321950679" height="8.9611703518222" fill="#80ffdb" opacity="0.06779466629209804" rx="1"/><rect x="141.95746450993303" y="851.956592253865" width="5.203302689176821" height="9.649105755530556" fill="#64dfdf" opacity="0.1669369300750403" rx="1"/><rect x="121.86363861561969" y="856.7811451316303" width="5.203302689176821" height="9.649105755530556" fill="#80ffdb" opacity="0.08346846503752015" rx="1"/><rect x="141.91056638238862" y="915.7670627547817" width="5.2970989442656515" height="6.888714984266254" fill="#64dfdf" opacity="0.5646623188081809" rx="1"/><rect x="121.81674048807527" y="919.2114202469148" width="5.2970989442656515" height="6.888714984266254" fill="#80ffdb" opacity="0.2823311594040904" rx="1"/><rect x="190.80491664339235" y="756.2502515400412" width="78.14743655923462" height="213.3272817156574" fill="#6930c3" opacity="0.6886871426805591" rx="2"/><rect x="224.18615817738637" y="766.2502515400412" width="11.384953491246549" height="8.72916665271138" fill="#64dfdf" opacity="0.37588233544395355" rx="1"/><rect x="204.64929903757772" y="770.6148348663969" width="11.384953491246549" height="8.72916665271138" fill="#80ffdb" opacity="0.18794116772197678" rx="1"/><rect x="225.91156446502612" y="792.9161617544984" width="7.934140915967092" height="9.853771901655424" fill="#64dfdf" opacity="0.24741068220404225" rx="1"/><rect x="206.37470532521746" y="797.8430477053261" width="7.934140915967092" height="9.853771901655424" fill="#80ffdb" opacity="0.12370534110202112" rx="1"/><rect x="225.73382508319457" y="819.5820719689556" width="8.28961967963018" height="7.719224550230248" fill="#64dfdf" opacity="0.43582776175714744" rx="1"/><rect x="206.19696594338592" y="823.4416842440706" width="8.28961967963018" height="7.719224550230248" fill="#80ffdb" opacity="0.21791388087857372" rx="1"/><rect x="226.29623726798863" y="846.2479821834127" width="7.164795310042052" height="6.984788135854711" fill="#64dfdf" opacity="0.39447244522033087" rx="1"/><rect x="206.75937812817997" y="849.74037625134" width="7.164795310042052" height="6.984788135854711" fill="#80ffdb" opacity="0.19723622261016543" rx="1"/><rect x="225.49020191027353" y="872.9138923978699" width="8.776866025472263" height="9.802216575434947" fill="#64dfdf" opacity="0.35036885420567565" rx="1"/><rect x="205.95334277046487" y="877.8150006855873" width="8.776866025472263" height="9.802216575434947" fill="#80ffdb" opacity="0.17518442710283783" rx="1"/><rect x="227.79248573150574" y="899.5798026123271" width="4.172298383007827" height="7.208049710189935" fill="#64dfdf" opacity="0.41754028234107887" rx="1"/><rect x="208.25562659169708" y="903.183827467422" width="4.172298383007827" height="7.208049710189935" fill="#80ffdb" opacity="0.20877014117053944" rx="1"/><rect x="226.01158216259975" y="926.2457128267843" width="7.734105520819805" height="7.010450484466379" fill="#64dfdf" opacity="0.3554053763755144" rx="1"/><rect x="206.4747230227911" y="929.7509380690175" width="7.734105520819805" height="7.010450484466379" fill="#80ffdb" opacity="0.1777026881877572" rx="1"/><rect x="225.5473607753214" y="952.9116230412415" width="8.662548295376485" height="9.440939152483116" fill="#64dfdf" opacity="0.3455536892510843" rx="1"/><rect x="206.01050163551275" y="957.6320926174831" width="8.662548295376485" height="9.440939152483116" fill="#80ffdb" opacity="0.17277684462554216" rx="1"/><rect x="284.5220401038833" y="820.175767741207" width="61.183430508520324" height="149.40176551449156" fill="#4f16a9" opacity="0.45517625418845015" rx="2"/><rect x="312.3269307078291" y="830.175767741207" width="5.573649300628726" height="8.781302073686687" fill="#64dfdf" opacity="0.49665872892287066" rx="1"/><rect x="297.031073080699" y="834.5664187780503" width="5.573649300628726" height="8.781302073686687" fill="#80ffdb" opacity="0.24832936446143533" rx="1"/><rect x="312.611496071906" y="860.0561208441053" width="5.00451857247495" height="6.878332891705989" fill="#64dfdf" opacity="0.59791615211822" rx="1"/><rect x="297.3156384447759" y="863.4952872899582" width="5.00451857247495" height="6.878332891705989" fill="#80ffdb" opacity="0.29895807605911" rx="1"/><rect x="311.1081594640774" y="889.9364739470036" width="8.011191788132114" height="6.188160250938535" fill="#64dfdf" opacity="0.4599714119592615" rx="1"/><rect x="295.8123018369473" y="893.0305540724729" width="8.011191788132114" height="6.188160250938535" fill="#80ffdb" opacity="0.22998570597963075" rx="1"/><rect x="312.8706582679245" y="919.8168270499019" width="4.486194180437875" height="9.852715847048144" fill="#64dfdf" opacity="0.232081031131577" rx="1"/><rect x="297.5748006407944" y="924.743184973426" width="4.486194180437875" height="9.852715847048144" fill="#80ffdb" opacity="0.1160405155657885" rx="1"/><rect x="311.4682364904614" y="949.6971801528002" width="7.291037735364176" height="8.373229104646768" fill="#64dfdf" opacity="0.45304577749991926" rx="1"/><rect x="296.1723788633313" y="953.8837947051236" width="7.291037735364176" height="8.373229104646768" fill="#80ffdb" opacity="0.22652288874995963" rx="1"/><rect x="387.8429608500995" y="752.9473222216934" width="32.54293989449342" height="216.6302110340051" fill="#4f16a9" opacity="0.5181112609147354" rx="2"/><rect x="401.2502044596227" y="762.9473222216934" width="5.728452675446974" height="9.643023783257934" fill="#64dfdf" opacity="0.49292765883564194" rx="1"/><rect x="393.11446948599934" y="767.7688341133223" width="5.728452675446974" height="9.643023783257934" fill="#80ffdb" opacity="0.24646382941782097" rx="1"/><rect x="400.648228110464" y="835.1573925663618" width="6.932405373764318" height="7.029479861499155" fill="#64dfdf" opacity="0.29026847490814245" rx="1"/><rect x="392.51249313684065" y="838.6721324971113" width="6.932405373764318" height="7.029479861499155" fill="#80ffdb" opacity="0.14513423745407122" rx="1"/><rect x="401.80521589888906" y="907.3674629110301" width="4.618429796914205" height="9.677581178880665" fill="#64dfdf" opacity="0.14457734060580316" rx="1"/><rect x="393.6694809252657" y="912.2062535004704" width="4.618429796914205" height="9.677581178880665" fill="#80ffdb" opacity="0.07228867030290158" rx="1"/><rect x="474.2273731822278" y="868.4051009287139" width="81.32440227347529" height="101.17243232698469" fill="#6930c3" opacity="0.5582170665865338" rx="2"/><rect x="511.1298127988256" y="878.4051009287139" width="7.519523040279635" height="9.469032570596093" fill="#64dfdf" opacity="0.22060154639664142" rx="1"/><rect x="490.7987122304568" y="883.1396172140119" width="7.519523040279635" height="9.469032570596093" fill="#80ffdb" opacity="0.11030077319832071" rx="1"/><rect x="509.1332521735601" y="891.0516549695869" width="11.512644290810602" height="8.255232172611922" fill="#64dfdf" opacity="0.23135551082234726" rx="1"/><rect x="488.8021516051913" y="895.1792710558929" width="11.512644290810602" height="8.255232172611922" fill="#80ffdb" opacity="0.11567775541117363" rx="1"/><rect x="511.83436091296903" y="903.69820901046" width="6.110426811992756" height="8.830601795304242" fill="#64dfdf" opacity="0.13713095887497323" rx="1"/><rect x="491.5032603446002" y="908.1135099081122" width="6.110426811992756" height="8.830601795304242" fill="#80ffdb" opacity="0.06856547943748661" rx="1"/><rect x="509.2012680758791" y="916.3447630513331" width="11.376612486172611" height="7.267056944143739" fill="#64dfdf" opacity="0.3112803472465091" rx="1"/><rect x="488.8701675075103" y="919.9782915234049" width="11.376612486172611" height="7.267056944143739" fill="#80ffdb" opacity="0.15564017362325455" rx="1"/><rect x="512.7790708884614" y="928.9913170922063" width="4.221006861008007" height="6.905793561811045" fill="#64dfdf" opacity="0.4516270987111207" rx="1"/><rect x="492.44797032009257" y="932.4442138731118" width="4.221006861008007" height="6.905793561811045" fill="#80ffdb" opacity="0.22581354935556036" rx="1"/><rect x="510.68076469775036" y="941.6378711330793" width="8.41761924243011" height="7.081553161396076" fill="#64dfdf" opacity="0.38290231730390856" rx="1"/><rect x="490.34966412938155" y="945.1786477137774" width="8.41761924243011" height="7.081553161396076" fill="#80ffdb" opacity="0.19145115865195428" rx="1"/><rect x="510.89903513652445" y="954.2844251739524" width="7.981078364881938" height="6.293490448103634" fill="#64dfdf" opacity="0.5516610036258728" rx="1"/><rect x="490.56793456815564" y="957.4311703980043" width="7.981078364881938" height="6.293490448103634" fill="#80ffdb" opacity="0.2758305018129364" rx="1"/><rect x="510.4629306189928" y="966.9309792148255" width="8.853287399945149" height="7.6615643710041335" fill="#64dfdf" opacity="0.5612754858008762" rx="1"/><rect x="490.131830050624" y="970.7617614003275" width="8.853287399945149" height="7.6615643710041335" fill="#80ffdb" opacity="0.2806377429004381" rx="1"/><rect x="565.5893260895516" y="725.5108811719135" width="32.01563376514605" height="244.06665208378496" fill="#6930c3" opacity="0.5288299366433243" rx="2"/><rect x="577.0217335535531" y="735.5108811719135" width="9.150818837143206" height="9.025626274530223" fill="#64dfdf" opacity="0.2299638214125214" rx="1"/><rect x="569.0178251122666" y="740.0236943091786" width="9.150818837143206" height="9.025626274530223" fill="#80ffdb" opacity="0.1149819107062607" rx="1"/><rect x="576.6025783879023" y="770.3775457553114" width="9.989129168444576" height="6.5854996565229955" fill="#64dfdf" opacity="0.22880137495901468" rx="1"/><rect x="568.5986699466158" y="773.670295583573" width="9.989129168444576" height="6.5854996565229955" fill="#80ffdb" opacity="0.11440068747950734" rx="1"/><rect x="576.9021071357691" y="805.2442103387092" width="9.390071672711073" height="9.570368396949574" fill="#64dfdf" opacity="0.19352365615626882" rx="1"/><rect x="568.8981986944826" y="810.029394537184" width="9.390071672711073" height="9.570368396949574" fill="#80ffdb" opacity="0.09676182807813441" rx="1"/><rect x="578.1389699333472" y="840.1108749221071" width="6.916346077554939" height="7.705435675965957" fill="#64dfdf" opacity="0.24690867547106665" rx="1"/><rect x="570.1350614920607" y="843.96359276009" width="6.916346077554939" height="7.705435675965957" fill="#80ffdb" opacity="0.12345433773553333" rx="1"/><rect x="577.396721264839" y="874.9775395055049" width="8.400843414571334" height="9.49489045876425" fill="#64dfdf" opacity="0.3026738625026014" rx="1"/><rect x="569.3928128235525" y="879.724984734887" width="8.400843414571334" height="9.49489045876425" fill="#80ffdb" opacity="0.1513369312513007" rx="1"/><rect x="575.63419884172" y="909.8442040889028" width="11.925888260809213" height="8.172659592277524" fill="#64dfdf" opacity="0.4826893070672381" rx="1"/><rect x="567.6302904004335" y="913.9305338850415" width="11.925888260809213" height="8.172659592277524" fill="#80ffdb" opacity="0.24134465353361906" rx="1"/><rect x="577.3200449138028" y="944.7108686723006" width="8.554196116643539" height="8.016111871697035" fill="#64dfdf" opacity="0.2792270335553277" rx="1"/><rect x="569.3161364725163" y="948.7189246081491" width="8.554196116643539" height="8.016111871697035" fill="#80ffdb" opacity="0.13961351677766384" rx="1"/><rect x="661.1911197940798" y="619.0083602254764" width="56.40986358896127" height="350.56917303022215" fill="#4f16a9" opacity="0.5951665354415696" rx="2"/><rect x="684.2198396877432" y="629.0083602254764" width="10.35242380163456" height="9.633886309255354" fill="#64dfdf" opacity="0.39134479067086825" rx="1"/><rect x="670.1173737905028" y="633.8253033801041" width="10.35242380163456" height="9.633886309255354" fill="#80ffdb" opacity="0.19567239533543412" rx="1"/><rect x="684.2123586696601" y="687.4365557305134" width="10.367385837800658" height="7.501512561343031" fill="#64dfdf" opacity="0.17191119717245718" rx="1"/><rect x="670.1098927724198" y="691.187312011185" width="10.367385837800658" height="7.501512561343031" fill="#80ffdb" opacity="0.08595559858622859" rx="1"/><rect x="686.1645784031517" y="745.8647512355504" width="6.462946370817475" height="7.296520849991711" fill="#64dfdf" opacity="0.33192205786051276" rx="1"/><rect x="672.0621125059114" y="749.5130116605463" width="6.462946370817475" height="7.296520849991711" fill="#80ffdb" opacity="0.16596102893025638" rx="1"/><rect x="684.9508110131022" y="804.2929467405875" width="8.890481150916424" height="7.275977090298193" fill="#64dfdf" opacity="0.47192592149878054" rx="1"/><rect x="670.8483451158619" y="807.9309352857366" width="8.890481150916424" height="7.275977090298193" fill="#80ffdb" opacity="0.23596296074939027" rx="1"/><rect x="685.9738358322004" y="862.7211422456245" width="6.8444315127200515" height="7.757569003328115" fill="#64dfdf" opacity="0.4178255351534639" rx="1"/><rect x="671.8713699349601" y="866.5999267472886" width="6.8444315127200515" height="7.757569003328115" fill="#80ffdb" opacity="0.20891276757673194" rx="1"/><rect x="686.6207668035339" y="921.1493377506615" width="5.550569570053035" height="7.8360106623349735" fill="#64dfdf" opacity="0.22069391625018184" rx="1"/><rect x="672.5183009062936" y="925.067343081829" width="5.550569570053035" height="7.8360106623349735" fill="#80ffdb" opacity="0.11034695812509092" rx="1"/><rect x="753.8242895012045" y="726.0932916370438" width="63.86663266780475" height="243.48424161865475" fill="#4f16a9" opacity="0.49773408120910967" rx="2"/><rect x="783.0176835349534" y="736.0932916370438" width="5.479844600306787" height="8.83719609650718" fill="#64dfdf" opacity="0.4665657150248451" rx="1"/><rect x="767.0510253680023" y="740.5118896852973" width="5.479844600306787" height="8.83719609650718" fill="#80ffdb" opacity="0.23328285751242256" rx="1"/><rect x="783.1971712271874" y="796.9643520417075" width="5.120869215838813" height="7.862607380808938" fill="#64dfdf" opacity="0.5340971062039251" rx="1"/><rect x="767.2305130602363" y="800.8956557321119" width="5.120869215838813" height="7.862607380808938" fill="#80ffdb" opacity="0.26704855310196257" rx="1"/><rect x="780.2209864569609" y="857.8354124463712" width="11.073238756291857" height="8.72151922218537" fill="#64dfdf" opacity="0.25750022445747167" rx="1"/><rect x="764.2543282900098" y="862.1961720574639" width="11.073238756291857" height="8.72151922218537" fill="#80ffdb" opacity="0.12875011222873584" rx="1"/><rect x="782.7157704122366" y="918.7064728510348" width="6.083670845740398" height="7.983501283913735" fill="#64dfdf" opacity="0.31398762071365205" rx="1"/><rect x="766.7491122452855" y="922.6982234929917" width="6.083670845740398" height="7.983501283913735" fill="#80ffdb" opacity="0.15699381035682602" rx="1"/><rect x="849.1704460903401" y="820.2926772693854" width="71.00092234113275" height="149.28485598631318" fill="#4f16a9" opacity="0.44965524823629655" rx="2"/><rect x="880.9501480112135" y="830.2926772693854" width="7.44151849938592" height="7.033894107917765" fill="#64dfdf" opacity="0.49652926099871497" rx="1"/><rect x="863.1999174259303" y="833.8096243233443" width="7.44151849938592" height="7.033894107917765" fill="#80ffdb" opacity="0.24826463049935749" rx="1"/><rect x="878.6744585009864" y="867.6138912659637" width="11.992897519840136" height="8.260013551977465" fill="#64dfdf" opacity="0.2857520732296985" rx="1"/><rect x="860.9242279157031" y="871.7438980419524" width="11.992897519840136" height="8.260013551977465" fill="#80ffdb" opacity="0.14287603661484924" rx="1"/><rect x="881.3869990825091" y="904.935105262542" width="6.567816356794866" height="9.241683840575089" fill="#64dfdf" opacity="0.2829383519205587" rx="1"/><rect x="863.6367684972258" y="909.5559471828295" width="6.567816356794866" height="9.241683840575089" fill="#80ffdb" opacity="0.14146917596027936" rx="1"/><rect x="879.6906654064687" y="942.2563192591203" width="9.960483708875365" height="7.61093592588113" fill="#64dfdf" opacity="0.47920237015448564" rx="1"/><rect x="861.9404348211855" y="946.061787222061" width="9.960483708875365" height="7.61093592588113" fill="#80ffdb" opacity="0.23960118507724282" rx="1"/><rect x="916.7740874317547" y="784.8793426959029" width="43.60666295364654" height="184.69819055979565" fill="#4f16a9" opacity="0.6354842377210698" rx="2"/><rect x="934.208486899283" y="794.8793426959029" width="8.737864018589693" height="9.659113898793962" fill="#64dfdf" opacity="0.45704373856006275" rx="1"/><rect x="923.3068211608714" y="799.7088996452999" width="8.737864018589693" height="9.659113898793962" fill="#80ffdb" opacity="0.22852186928003138" rx="1"/><rect x="935.5876047740328" y="841.0538903358517" width="5.979628269090231" height="7.395306461815561" fill="#64dfdf" opacity="0.45622673687902904" rx="1"/><rect x="924.6859390356212" y="844.7515435667596" width="5.979628269090231" height="7.395306461815561" fill="#80ffdb" opacity="0.22811336843951452" rx="1"/><rect x="932.6058439557586" y="887.2284379758007" width="11.94314990563857" height="8.759193950975126" fill="#64dfdf" opacity="0.4217910964325515" rx="1"/><rect x="921.704178217347" y="891.6080349512882" width="11.94314990563857" height="8.759193950975126" fill="#80ffdb" opacity="0.21089554821627576" rx="1"/><rect x="934.5231687860517" y="933.4029856157497" width="8.108500245052507" height="6.865394923106161" fill="#64dfdf" opacity="0.13057449474711308" rx="1"/><rect x="923.6215030476401" y="936.8356830773027" width="8.108500245052507" height="6.865394923106161" fill="#80ffdb" opacity="0.06528724737355654" rx="1"/><rect x="1030.038510567318" y="831.5188040331749" width="70.951007814368" height="138.05872922252368" fill="#4f16a9" opacity="0.6960883721234483" rx="2"/><rect x="1060.1729074274926" y="841.5188040331749" width="10.682214094019079" height="7.758511226102363" fill="#64dfdf" opacity="0.5590850743602693" rx="1"/><rect x="1042.4351554739005" y="845.3980596462261" width="10.682214094019079" height="7.758511226102363" fill="#80ffdb" opacity="0.27954253718013466" rx="1"/><rect x="1060.327970537001" y="869.1305498776796" width="10.372087875002084" height="6.488456472868206" fill="#64dfdf" opacity="0.23126605891884913" rx="1"/><rect x="1042.5902185834088" y="872.3747781141137" width="10.372087875002084" height="6.488456472868206" fill="#80ffdb" opacity="0.11563302945942457" rx="1"/><rect x="1062.3912173492215" y="896.7422957221844" width="6.245594250561109" height="9.345347305607364" fill="#64dfdf" opacity="0.5308103704663949" rx="1"/><rect x="1044.6534653956294" y="901.4149693749881" width="6.245594250561109" height="9.345347305607364" fill="#80ffdb" opacity="0.26540518523319745" rx="1"/><rect x="1060.2050573309764" y="924.3540415666891" width="10.617914287051633" height="9.857966425795567" fill="#64dfdf" opacity="0.38016744362659927" rx="1"/><rect x="1042.4673053773843" y="929.283024779587" width="10.617914287051633" height="9.857966425795567" fill="#80ffdb" opacity="0.19008372181329963" rx="1"/><rect x="1061.7495168456558" y="951.9657874111938" width="7.528995257692643" height="8.882204824798322" fill="#64dfdf" opacity="0.14815467774126556" rx="1"/><rect x="1044.0117648920636" y="956.4068898235929" width="7.528995257692643" height="8.882204824798322" fill="#80ffdb" opacity="0.07407733887063278" rx="1"/><rect x="1109.9683369047466" y="838.4860997643523" width="48.94232933850547" height="131.0914334913463" fill="#6930c3" opacity="0.42355584954460057" rx="2"/><rect x="1129.1142310564271" y="848.4860997643523" width="10.65054103514425" height="6.0306735010889065" fill="#64dfdf" opacity="0.4919780773324841" rx="1"/><rect x="1116.8786487218008" y="851.5014365148967" width="10.65054103514425" height="6.0306735010889065" fill="#80ffdb" opacity="0.24598903866624205" rx="1"/><rect x="1131.19150264692" y="870.33467201291" width="6.495997854158282" height="9.705911797402871" fill="#64dfdf" opacity="0.5380377601920715" rx="1"/><rect x="1118.9559203122938" y="875.1876279116115" width="6.495997854158282" height="9.705911797402871" fill="#80ffdb" opacity="0.26901888009603575" rx="1"/><rect x="1129.234465488154" y="892.1832442614677" width="10.410072171690425" height="9.003256859957068" fill="#64dfdf" opacity="0.19712178937558128" rx="1"/><rect x="1116.9988831535277" y="896.6848726914462" width="10.410072171690425" height="9.003256859957068" fill="#80ffdb" opacity="0.09856089468779064" rx="1"/><rect x="1129.9973539804166" y="914.0318165100255" width="8.884295187165097" height="6.825231008423779" fill="#64dfdf" opacity="0.45713850330960437" rx="1"/><rect x="1117.7617716457903" y="917.4444320142373" width="8.884295187165097" height="6.825231008423779" fill="#80ffdb" opacity="0.22856925165480219" rx="1"/><rect x="1131.190171609078" y="935.8803887585832" width="6.4986599298423755" height="6.487522853651904" fill="#64dfdf" opacity="0.21461495994930505" rx="1"/><rect x="1118.9545892744518" y="939.1241501854091" width="6.4986599298423755" height="6.487522853651904" fill="#80ffdb" opacity="0.10730747997465252" rx="1"/><rect x="1129.2164270159892" y="957.7289610071408" width="10.44614911602022" height="7.880029896711937" fill="#64dfdf" opacity="0.33147960000938725" rx="1"/><rect x="1116.980844681363" y="961.6689759554968" width="10.44614911602022" height="7.880029896711937" fill="#80ffdb" opacity="0.16573980000469363" rx="1"/><rect x="1188.9344790495581" y="627.3056459909551" width="67.7031836839633" height="342.2718872647434" fill="#6930c3" opacity="0.6231253300614481" rx="2"/><rect x="1218.3777813513514" y="637.3056459909551" width="8.816579080376908" height="6.466926507760521" fill="#64dfdf" opacity="0.38813589650395697" rx="1"/><rect x="1201.4519854303605" y="640.5391092448353" width="8.816579080376908" height="6.466926507760521" fill="#80ffdb" opacity="0.19406794825197848" rx="1"/><rect x="1217.4569445187626" y="705.7600234439037" width="10.658252745554375" height="9.939200875335187" fill="#64dfdf" opacity="0.32556640550623794" rx="1"/><rect x="1200.5311485977718" y="710.7296238815713" width="10.658252745554375" height="9.939200875335187" fill="#80ffdb" opacity="0.16278320275311897" rx="1"/><rect x="1218.1028650637757" y="774.2144008968525" width="9.3664116555281" height="7.097573211672151" fill="#64dfdf" opacity="0.24593892280150645" rx="1"/><rect x="1201.1770691427848" y="777.7631875026885" width="9.3664116555281" height="7.097573211672151" fill="#80ffdb" opacity="0.12296946140075322" rx="1"/><rect x="1218.2038394838848" y="842.6687783498012" width="9.164462815309982" height="9.763665115405727" fill="#64dfdf" opacity="0.15444247754161305" rx="1"/><rect x="1201.278043562894" y="847.550610907504" width="9.164462815309982" height="9.763665115405727" fill="#80ffdb" opacity="0.07722123877080653" rx="1"/><rect x="1218.235408464668" y="911.1231558027498" width="9.101324853743735" height="8.911364712498933" fill="#64dfdf" opacity="0.1077436838782727" rx="1"/><rect x="1201.309612543677" y="915.5788381589992" width="9.101324853743735" height="8.911364712498933" fill="#80ffdb" opacity="0.05387184193913635" rx="1"/><rect x="1309.3391461319613" y="800.3658759408552" width="75.44730834789745" height="169.21165731484342" fill="#4f16a9" opacity="0.6421561290608151" rx="2"/><rect x="1343.2009286066052" y="810.3658759408552" width="7.723743398609511" height="9.041275995560287" fill="#64dfdf" opacity="0.48152836039232283" rx="1"/><rect x="1324.339101519631" y="814.8865139386353" width="7.723743398609511" height="9.041275995560287" fill="#80ffdb" opacity="0.24076418019616141" rx="1"/><rect x="1343.0537735554515" y="831.5173331052106" width="8.018053500917286" height="7.834464505741947" fill="#64dfdf" opacity="0.25289422884883694" rx="1"/><rect x="1324.1919464684772" y="835.4345653580815" width="8.018053500917286" height="7.834464505741947" fill="#80ffdb" opacity="0.12644711442441847" rx="1"/><rect x="1342.8543953555297" y="852.668790269566" width="8.416809900760839" height="9.38180747055025" fill="#64dfdf" opacity="0.3648228883661383" rx="1"/><rect x="1323.9925682685555" y="857.3596940048411" width="8.416809900760839" height="9.38180747055025" fill="#80ffdb" opacity="0.18241144418306915" rx="1"/><rect x="1341.43244838259" y="873.8202474339215" width="11.260703846640117" height="6.543409906454247" fill="#64dfdf" opacity="0.2805038995064105" rx="1"/><rect x="1322.5706212956159" y="877.0919523871486" width="11.260703846640117" height="6.543409906454247" fill="#80ffdb" opacity="0.14025194975320526" rx="1"/><rect x="1345.018362631094" y="894.9717045982769" width="4.088875349631737" height="8.575344150554237" fill="#64dfdf" opacity="0.2719029890773592" rx="1"/><rect x="1326.1565355441198" y="899.259376673554" width="4.088875349631737" height="8.575344150554237" fill="#80ffdb" opacity="0.1359514945386796" rx="1"/><rect x="1343.099949465622" y="916.1231617626323" width="7.9257016805758935" height="8.052014152997177" fill="#64dfdf" opacity="0.156313519728443" rx="1"/><rect x="1324.2381223786479" y="920.1491688391309" width="7.9257016805758935" height="8.052014152997177" fill="#80ffdb" opacity="0.0781567598642215" rx="1"/><rect x="1341.8811326662267" y="937.2746189269877" width="10.363335279366778" height="7.241564491121463" fill="#64dfdf" opacity="0.1478207806702286" rx="1"/><rect x="1323.0193055792524" y="940.8954011725484" width="10.363335279366778" height="7.241564491121463" fill="#80ffdb" opacity="0.0739103903351143" rx="1"/><rect x="1341.858272246285" y="958.4260760913431" width="10.40905611925038" height="8.932233526122811" fill="#64dfdf" opacity="0.5391411972323296" rx="1"/><rect x="1322.9964451593107" y="962.8921928544046" width="10.40905611925038" height="8.932233526122811" fill="#80ffdb" opacity="0.2695705986161648" rx="1"/><rect x="1378.5006050259776" y="694.8805866052585" width="67.74798483069706" height="274.69694665044005" fill="#4f16a9" opacity="0.6112932843182454" rx="2"/><rect x="1409.1526819938886" y="704.8805866052585" width="6.443830894875301" height="9.741595080993509" fill="#64dfdf" opacity="0.5360667628785751" rx="1"/><rect x="1392.2156857862142" y="709.7513841457552" width="6.443830894875301" height="9.741595080993509" fill="#80ffdb" opacity="0.26803338143928757" rx="1"/><rect x="1408.64535942253" y="744.1230075553214" width="7.458476037592272" height="8.920031702825806" fill="#64dfdf" opacity="0.17987333056048335" rx="1"/><rect x="1391.7083632148556" y="748.5830234067342" width="7.458476037592272" height="8.920031702825806" fill="#80ffdb" opacity="0.08993666528024168" rx="1"/><rect x="1408.2776150632567" y="783.3654285053842" width="8.193964756139081" height="9.40889209495133" fill="#64dfdf" opacity="0.39163259530710814" rx="1"/><rect x="1391.3406188555823" y="788.0698745528599" width="8.193964756139081" height="9.40889209495133" fill="#80ffdb" opacity="0.19581629765355407" rx="1"/><rect x="1406.6436748057442" y="822.6078494554471" width="11.46184527116405" height="8.482676826064168" fill="#64dfdf" opacity="0.17357524756192586" rx="1"/><rect x="1389.7066785980699" y="826.8491878684791" width="11.46184527116405" height="8.482676826064168" fill="#80ffdb" opacity="0.08678762378096293" rx="1"/><rect x="1407.760867320245" y="861.85027040551" width="9.227460242162334" height="6.387227813803411" fill="#64dfdf" opacity="0.10672066130366192" rx="1"/><rect x="1390.8238711125707" y="865.0438843124117" width="9.227460242162334" height="6.387227813803411" fill="#80ffdb" opacity="0.05336033065183096" rx="1"/><rect x="1408.0089539106227" y="901.0926913555728" width="8.731287061407066" height="6.640215720199099" fill="#64dfdf" opacity="0.45806361454493916" rx="1"/><rect x="1391.0719577029483" y="904.4127992156724" width="8.731287061407066" height="6.640215720199099" fill="#80ffdb" opacity="0.22903180727246958" rx="1"/><rect x="1407.2484544908011" y="940.3351123056357" width="10.25228590105015" height="7.613207139450406" fill="#64dfdf" opacity="0.1476709538017565" rx="1"/><rect x="1390.3114582831267" y="944.1417158753609" width="10.25228590105015" height="7.613207139450406" fill="#80ffdb" opacity="0.07383547690087824" rx="1"/><rect x="1482.3487440522106" y="706.0572366709955" width="57.783631786653686" height="263.5202965847031" fill="#6930c3" opacity="0.5313857436253191" rx="2"/><rect x="1505.5283883770692" y="716.0572366709955" width="11.424343136936507" height="6.929269141733942" fill="#64dfdf" opacity="0.2114523366818792" rx="1"/><rect x="1491.082480430406" y="719.5218712418625" width="11.424343136936507" height="6.929269141733942" fill="#80ffdb" opacity="0.1057261683409396" rx="1"/><rect x="1508.0220041502248" y="748.9972737440834" width="6.437111590625046" height="8.4241537652966" fill="#64dfdf" opacity="0.5725952680391714" rx="1"/><rect x="1493.5760962035615" y="753.2093506267316" width="6.437111590625046" height="8.4241537652966" fill="#80ffdb" opacity="0.2862976340195857" rx="1"/><rect x="1508.4703476871457" y="781.9373108171712" width="5.540424516783195" height="7.265744004693288" fill="#64dfdf" opacity="0.10874490139743893" rx="1"/><rect x="1494.0244397404824" y="785.5701828195179" width="5.540424516783195" height="7.265744004693288" fill="#80ffdb" opacity="0.05437245069871947" rx="1"/><rect x="1508.0551795646606" y="814.8773478902592" width="6.370760761753367" height="7.769229588510755" fill="#64dfdf" opacity="0.11395835657929032" rx="1"/><rect x="1493.6092716179974" y="818.7619626845146" width="6.370760761753367" height="7.769229588510755" fill="#80ffdb" opacity="0.05697917828964516" rx="1"/><rect x="1508.0323679432279" y="847.8173849633471" width="6.416384004619061" height="9.730819394749314" fill="#64dfdf" opacity="0.43974222986487255" rx="1"/><rect x="1493.5864599965646" y="852.6827946607217" width="6.416384004619061" height="9.730819394749314" fill="#80ffdb" opacity="0.21987111493243627" rx="1"/><rect x="1506.4758335165786" y="880.757422036435" width="9.529452857917512" height="6.706275182940596" fill="#64dfdf" opacity="0.5488206707054797" rx="1"/><rect x="1492.0299255699153" y="884.1105596279052" width="9.529452857917512" height="6.706275182940596" fill="#80ffdb" opacity="0.27441033535273984" rx="1"/><rect x="1505.2418071848367" y="913.6974591095228" width="11.997505521401182" height="7.20669218553386" fill="#64dfdf" opacity="0.36468068670124765" rx="1"/><rect x="1490.7958992381734" y="917.3008052022898" width="11.997505521401182" height="7.20669218553386" fill="#80ffdb" opacity="0.18234034335062382" rx="1"/><rect x="1508.2658083964689" y="946.6374961826107" width="5.949503098137095" height="9.387063974371893" fill="#64dfdf" opacity="0.2536032740617179" rx="1"/><rect x="1493.8199004498056" y="951.3310281697966" width="5.949503098137095" height="9.387063974371893" fill="#80ffdb" opacity="0.12680163703085895" rx="1"/><rect x="1557.7880010382842" y="687.7566642565087" width="89.60248452602012" height="281.8208689991899" fill="#6930c3" opacity="0.6857192676481136" rx="2"/><rect x="1598.8237061348464" y="697.7566642565087" width="7.531074332895473" height="6.933703992733197" fill="#64dfdf" opacity="0.5432558370622005" rx="1"/><rect x="1576.4230850033414" y="701.2235162528752" width="7.531074332895473" height="6.933703992733197" fill="#80ffdb" opacity="0.27162791853110024" rx="1"/><rect x="1599.5724194858756" y="791.6969539229053" width="6.033647630837198" height="6.498903920058837" fill="#64dfdf" opacity="0.141299210870941" rx="1"/><rect x="1577.1717983543706" y="794.9464058829348" width="6.033647630837198" height="6.498903920058837" fill="#80ffdb" opacity="0.0706496054354705" rx="1"/><rect x="1599.4349378988359" y="885.6372435893019" width="6.308610804916501" height="6.6410091800245015" fill="#64dfdf" opacity="0.31400250278273656" rx="1"/><rect x="1577.034316767331" y="888.9577481793141" width="6.308610804916501" height="6.6410091800245015" fill="#80ffdb" opacity="0.15700125139136828" rx="1"/><rect x="1646.4970579402614" y="666.6468823250958" width="68.77598919877224" height="302.9306509306027" fill="#4f16a9" opacity="0.5155804188725494" rx="2"/><rect x="1675.4129755053566" y="676.6468823250958" width="10.944154068581796" height="7.979140937789143" fill="#64dfdf" opacity="0.16108694839316584" rx="1"/><rect x="1658.2189782056637" y="680.6364527939904" width="10.944154068581796" height="7.979140937789143" fill="#80ffdb" opacity="0.08054347419658292" rx="1"/><rect x="1676.7259428712698" y="752.3795450577466" width="8.31821933675516" height="6.56564525528011" fill="#64dfdf" opacity="0.5168319728730321" rx="1"/><rect x="1659.531945571577" y="755.6623676853866" width="8.31821933675516" height="6.56564525528011" fill="#80ffdb" opacity="0.25841598643651603" rx="1"/><rect x="1676.4073214397183" y="828.1122077903972" width="8.955462199858264" height="8.618824426694498" fill="#64dfdf" opacity="0.5033633555293464" rx="1"/><rect x="1659.2133241400254" y="832.4216200037445" width="8.955462199858264" height="8.618824426694498" fill="#80ffdb" opacity="0.2516816777646732" rx="1"/><rect x="1678.2989567072227" y="903.8448705230478" width="5.172191664849453" height="6.064030961148448" fill="#64dfdf" opacity="0.36239421760253476" rx="1"/><rect x="1661.1049594075298" y="906.8768860036221" width="5.172191664849453" height="6.064030961148448" fill="#80ffdb" opacity="0.18119710880126738" rx="1"/><rect x="1755.2489257479733" y="860.4870121834072" width="53.400174985500094" height="109.09052107229142" fill="#6930c3" opacity="0.4457511727339009" rx="2"/><rect x="1778.0006009532208" y="870.4870121834072" width="7.896824575005291" height="7.556453665149504" fill="#64dfdf" opacity="0.2354277066736081" rx="1"/><rect x="1764.6505572068456" y="874.2652390159819" width="7.896824575005291" height="7.556453665149504" fill="#80ffdb" opacity="0.11771385333680405" rx="1"/><rect x="1779.8132944955123" y="888.6687656954557" width="4.271437490422148" height="8.3555078055606" fill="#64dfdf" opacity="0.17743784961696665" rx="1"/><rect x="1766.4632507491372" y="892.846519598236" width="4.271437490422148" height="8.3555078055606" fill="#80ffdb" opacity="0.08871892480848333" rx="1"/><rect x="1777.6273328694647" y="906.8505192075042" width="8.643360742517597" height="6.253647913284052" fill="#64dfdf" opacity="0.5148796330939233" rx="1"/><rect x="1764.2772891230895" y="909.9773431641463" width="8.643360742517597" height="6.253647913284052" fill="#80ffdb" opacity="0.25743981654696163" rx="1"/><rect x="1779.1375584647913" y="925.0322727195529" width="5.622909551864236" height="9.327191728010586" fill="#64dfdf" opacity="0.27543664916312244" rx="1"/><rect x="1765.787514718416" y="929.6958685835582" width="5.622909551864236" height="9.327191728010586" fill="#80ffdb" opacity="0.13771832458156122" rx="1"/><rect x="1777.8986715297976" y="943.2140262316015" width="8.100683421851295" height="7.592283856494419" fill="#64dfdf" opacity="0.25866353250077545" rx="1"/><rect x="1764.5486277834225" y="947.0101681598487" width="8.100683421851295" height="7.592283856494419" fill="#80ffdb" opacity="0.12933176625038773" rx="1"/><rect x="1777.3098537730375" y="961.39577974365" width="9.278318935371544" height="7.477794845001259" fill="#64dfdf" opacity="0.16266551536104307" rx="1"/><rect x="1763.9598100266626" y="965.1346771661506" width="9.278318935371544" height="7.477794845001259" fill="#80ffdb" opacity="0.08133275768052153" rx="1"/><rect x="1849.2746854119441" y="616.1005543116714" width="71.66495681313448" height="353.4769789440271" fill="#4f16a9" opacity="0.44054799388175553" rx="2"/><rect x="1879.3112728297767" y="626.1005543116714" width="11.59178197746905" height="6.448218022577516" fill="#64dfdf" opacity="0.3988639423388205" rx="1"/><rect x="1861.3950336264932" y="629.3246633229602" width="11.59178197746905" height="6.448218022577516" fill="#80ffdb" opacity="0.19943197116941025" rx="1"/><rect x="1880.5081072461842" y="685.013384135676" width="9.198113144654341" height="6.779543552729195" fill="#64dfdf" opacity="0.36936731028122993" rx="1"/><rect x="1862.5918680429006" y="688.4031559120406" width="9.198113144654341" height="6.779543552729195" fill="#80ffdb" opacity="0.18468365514061497" rx="1"/><rect x="1880.918306406036" y="743.9262139596805" width="8.377714824950722" height="8.191409072417628" fill="#64dfdf" opacity="0.30624624604970363" rx="1"/><rect x="1863.0020672027524" y="748.0219184958893" width="8.377714824950722" height="8.191409072417628" fill="#80ffdb" opacity="0.15312312302485181" rx="1"/><rect x="1880.9168688109214" y="802.8390437836849" width="8.380590015179614" height="6.634046724213764" fill="#64dfdf" opacity="0.5076888033672443" rx="1"/><rect x="1863.0006296076378" y="806.1560671457918" width="8.380590015179614" height="6.634046724213764" fill="#80ffdb" opacity="0.25384440168362216" rx="1"/><rect x="1880.569789028094" y="861.7518736076895" width="9.074749580834702" height="8.85702892086865" fill="#64dfdf" opacity="0.12269080642673438" rx="1"/><rect x="1862.6535498248104" y="866.1803880681239" width="9.074749580834702" height="8.85702892086865" fill="#80ffdb" opacity="0.06134540321336719" rx="1"/><rect x="1882.2986111154341" y="920.6647034316941" width="5.617105406154204" height="8.432490836463984" fill="#64dfdf" opacity="0.4688780865326706" rx="1"/><rect x="1864.3823719121506" y="924.8809488499261" width="5.617105406154204" height="8.432490836463984" fill="#80ffdb" opacity="0.2344390432663353" rx="1"/><path d="M704.23981608456 866.0775958481426 Q710.9352302856126 805.026035803609 712.2743131258233 743.9744757590756" stroke="#1c0076" stroke-width="7.223670127620844" fill="none" stroke-linecap="round"/><path d="M712.2743131258233 743.9744757590756 Q760.9133923449352 723.9744757590756 783.7973875407589 743.9744757590756" stroke="#360090" stroke-width="3.456433862786841" fill="none" stroke-linecap="round" opacity="0.6"/><path d="M712.2743131258233 743.9744757590756 Q724.7168626625428 727.5504508954318 731.2859465294849 751.1264260317881" stroke="#360090" stroke-width="3.649620134301861" fill="none" stroke-linecap="round" opacity="0.6"/><path d="M712.2743131258233 743.9744757590756 Q722.027077320133 730.9024643613398 701.7325251983824 757.8304529636039" stroke="#360090" stroke-width="3.485349802646169" fill="none" stroke-linecap="round" opacity="0.6"/><path d="M712.2743131258233 743.9744757590756 Q694.779335580639 726.6204894731222 675.6442858402136 749.2665031871687" stroke="#360090" stroke-width="3.754149964953342" fill="none" stroke-linecap="round" opacity="0.6"/><path d="M712.2743131258233 743.9744757590756 Q687.3788450607008 720.2863767395203 661.2182029472622 736.5982777199649" stroke="#360090" stroke-width="2.5899516545678374" fill="none" stroke-linecap="round" opacity="0.6"/><path d="M1237.1372127433162 875.2920875268271 Q1229.571575831988 763.6952594303748 1228.0584484497222 652.0984313339225" stroke="#1c0076" stroke-width="7.9534139176722185" fill="none" stroke-linecap="round"/><path d="M1228.0584484497222 652.0984313339225 Q1269.3267503588756 632.0984313339225 1303.3705648368623 652.0984313339225" stroke="#360090" stroke-width="2.6490643077178544" fill="none" stroke-linecap="round" opacity="0.6"/><path d="M1228.0584484497222 652.0984313339225 Q1249.3135046397906 638.9241561283472 1264.3473410056463 665.7498809227721" stroke="#360090" stroke-width="2.945022153888136" fill="none" stroke-linecap="round" opacity="0.6"/><path d="M1228.0584484497222 652.0984313339225 Q1238.9485011383981 643.6267325202596 1210.5167183391509 675.1550337065968" stroke="#360090" stroke-width="2.0808297638038242" fill="none" stroke-linecap="round" opacity="0.6"/><path d="M1228.0584484497222 652.0984313339225 Q1229.5549291327893 634.7366521308339 1191.5363022252639 657.3748729277454" stroke="#360090" stroke-width="3.2780628095562716" fill="none" stroke-linecap="round" opacity="0.6"/><path d="M1228.0584484497222 652.0984313339225 Q1214.0454469324643 629.9307966914414 1198.0508503493 647.7631620489603" stroke="#360090" stroke-width="3.0560970169157016" fill="none" stroke-linecap="round" opacity="0.6"/><path d="M1228.0584484497222 652.0984313339225 Q1238.2868076657824 624.6253807155605 1216.6872815335328 637.1523300971985" stroke="#360090" stroke-width="3.4435165201880773" fill="none" stroke-linecap="round" opacity="0.6"/><path d="M1228.0584484497222 652.0984313339225 Q1242.2200422067049 627.0258476545705 1255.0267850974715 641.9532639752185" stroke="#360090" stroke-width="3.6414725109100043" fill="none" stroke-linecap="round" opacity="0.6"/><path d="M600.3552542534553 880.0869433162936 Q589.7167012397472 774.5791334657881 587.5889906370056 669.0713236152826" stroke="#1c0076" stroke-width="5.558908971389502" fill="none" stroke-linecap="round"/><path d="M587.5889906370056 669.0713236152826 Q626.1229349193451 649.0713236152826 635.955051408139 669.0713236152826" stroke="#360090" stroke-width="2.680957418093681" fill="none" stroke-linecap="round" opacity="0.6"/><path d="M587.5889906370056 669.0713236152826 Q623.380290358871 655.8794617720769 623.7843840228611 682.6875999288711" stroke="#360090" stroke-width="2.682007867070382" fill="none" stroke-linecap="round" opacity="0.6"/><path d="M587.5889906370056 669.0713236152826 Q589.1841891611003 659.0575219677467 572.3937599175686 689.0437203202106" stroke="#360090" stroke-width="2.777129527827988" fill="none" stroke-linecap="round" opacity="0.6"/><path d="M587.5889906370056 669.0713236152826 Q573.0168983551215 652.1258651081819 545.303518858849 675.1804066010812" stroke="#360090" stroke-width="2.886151029934676" fill="none" stroke-linecap="round" opacity="0.6"/><path d="M587.5889906370056 669.0713236152826 Q567.7160501979452 643.9407580408846 516.5641293586393 658.8101924664866" stroke="#360090" stroke-width="3.6713824713768863" fill="none" stroke-linecap="round" opacity="0.6"/><path d="M587.5889906370056 669.0713236152826 Q598.7300644565653 639.1048472654818 572.4237693736336 649.138370915681" stroke="#360090" stroke-width="2.4911229262340635" fill="none" stroke-linecap="round" opacity="0.6"/><rect x="0" y="1000" width="1920" height="80" fill="#430a9d" opacity="0.8"/><line x1="0" y1="1040" x2="1920" y2="1040" stroke="#64dfdf" stroke-opacity="0.15" stroke-width="2" stroke-dasharray="30,20"/><rect x="0" y="930" width="1920" height="150" fill="url(#glow49)"/><rect x="0" y="980" width="1920" height="100" fill="#64dfdf" opacity="0.04"/><rect x="1821.9760496686158" y="1034.732276148799" width="63.63342184658009" height="2" fill="#80ffdb" opacity="0.05609896411097119" rx="1"/><rect x="861.0029073574121" y="1012.5905015861127" width="31.909011218675648" height="2" fill="#80ffdb" opacity="0.053813891344194745" rx="1"/><rect x="996.7974921401585" y="1046.7388137818173" width="77.36612946665056" height="2" fill="#80ffdb" opacity="0.05908395686165521" rx="1"/><rect x="1774.5443647761235" y="1052.727495788766" width="88.86935333462183" height="2" fill="#80ffdb" opacity="0.021895215269619416" rx="1"/><rect x="1082.2829687135022" y="1044.5149378628737" width="67.63264408047141" height="2" fill="#80ffdb" opacity="0.034423266810929234" rx="1"/><rect x="226.22828771970893" y="1031.068398428864" width="58.86008002768738" height="2" fill="#80ffdb" opacity="0.025812170478937257" rx="1"/><rect x="1658.7766518580672" y="1033.8362030484332" width="34.77553304628831" height="2" fill="#80ffdb" opacity="0.03264922952573961" rx="1"/><rect x="850.5953217043065" y="1025.0364699924914" width="68.94743893503849" height="2" fill="#80ffdb" opacity="0.05175872077042207" rx="1"/><rect x="1574.04556802801" y="1048.5726280018157" width="64.97080874745055" height="2" fill="#80ffdb" opacity="0.04607652451518843" rx="1"/><rect x="1317.85075337576" y="1055.946301169681" width="93.56118521968862" height="2" fill="#80ffdb" opacity="0.0211550817268796" rx="1"/><rect x="1296.4848355987306" y="1038.4905140238093" width="49.983426125250624" height="2" fill="#80ffdb" opacity="0.05859521907721535" rx="1"/><rect x="628.8175889823626" y="1005.1190751011295" width="109.25863231747844" height="2" fill="#80ffdb" opacity="0.04202195523819466" rx="1"/><rect x="694.3984733648595" y="1030.175338818267" width="109.66044976600922" height="2" fill="#80ffdb" opacity="0.030731466480235448" rx="1"/><rect x="937.3007599211533" y="1004.1934791496474" width="77.71238628255958" height="2" fill="#80ffdb" opacity="0.04103997421009466" rx="1"/><rect x="1796.038498402582" y="1042.2691233042324" width="62.70933390192439" height="2" fill="#80ffdb" opacity="0.030529214742251023" rx="1"/><rect x="1144.666386364183" y="1039.4082637595498" width="80.98852403484949" height="2" fill="#80ffdb" opacity="0.020853848587920387" rx="1"/><rect x="552.6229402219465" y="1003.9504792131369" width="64.10570956396538" height="2" fill="#80ffdb" opacity="0.0436865593082473" rx="1"/><rect x="292.540447780057" y="1016.0722111715172" width="24.46370435051241" height="2" fill="#80ffdb" opacity="0.032845743655424045" rx="1"/><rect x="1294.2237548563219" y="1056.206985329326" width="76.55047652696967" height="2" fill="#80ffdb" opacity="0.057968407310072426" rx="1"/><rect x="1908.6376655075321" y="1015.8116361721911" width="33.169789759714575" height="2" fill="#80ffdb" opacity="0.0513451085033233" rx="1"/><rect x="996.9408580001771" y="1047.2160029195286" width="62.01168293180216" height="2" fill="#80ffdb" opacity="0.04164316054937503" rx="1"/><rect x="1053.289377338553" y="1001.4036632891288" width="41.43185402300019" height="2" fill="#80ffdb" opacity="0.04919748518364446" rx="1"/><rect x="1428.9586967576665" y="1059.67790966846" width="70.04847965902846" height="2" fill="#80ffdb" opacity="0.020040419194856756" rx="1"/><rect x="1636.7591660555356" y="1042.0384227628908" width="47.183603874217624" height="2" fill="#80ffdb" opacity="0.048503811002826275" rx="1"/><rect x="715.1903984125681" y="1032.3636308061805" width="112.94644328601342" height="2" fill="#80ffdb" opacity="0.027569549448687947" rx="1"/><rect x="55.28016151284803" y="1004.191210545644" width="68.78111166152664" height="2" fill="#80ffdb" opacity="0.04221237980346483" rx="1"/><rect x="1476.8722212772984" y="1036.5950245728238" width="42.158586914222354" height="2" fill="#80ffdb" opacity="0.04113716499440771" rx="1"/><rect x="1390.1765096444115" y="1008.3461833299012" width="57.34072016955835" height="2" fill="#80ffdb" opacity="0.04285602542172559" rx="1"/><rect x="1846.9697436520294" y="1022.8571045358798" width="37.959974663788444" height="2" fill="#80ffdb" opacity="0.04581541353506395" rx="1"/><rect x="965.9676269455737" y="1005.7159469476239" width="51.5960062508462" height="2" fill="#80ffdb" opacity="0.05948167205776127" rx="1"/><text x="1900" y="1060" font-family="Arial, sans-serif" font-size="11" fill="#fff" opacity="0.08" text-anchor="end" letter-spacing="2">GTA 6 REWARDS · WALLPAPER 050</text>
</svg>