<?xml version="1.0" encoding="UTF-8"?>
<svg xmlns="http://www.w3.org/2000/svg" width="1920" height="1080" viewBox="0 0 1920 1080">
<defs>
    <linearGradient id="bg22" x1="0%" y1="0%" x2="0%" y2="100%">
      <stop offset="0%" stop-color="#1d3557"/>
      <stop offset="50%" stop-color="#000224"/>
      <stop offset="100%" stop-color="#1d3557"/>
    </linearGradient>
    <linearGradient id="sun22" x1="0%" y1="0%" x2="100%" y2="100%">
      <stop offset="0%" stop-color="#e63946"/>
      <stop offset="100%" stop-color="#457b9d"/>
    </linearGradient>
    <radialGradient id="glow22" cx="50%" cy="70%" r="50%">
      <stop offset="0%" stop-color="#e63946" stop-opacity="0.3"/>
      <stop offset="100%" stop-color="#1d3557" stop-opacity="0"/>
    </radialGradient>
  </defs><rect width="1920" height="1080" fill="url(#bg22)"/><circle cx="584.078677251022" cy="290.0719724805262" r="661.5952776888374" fill="#e63946" opacity="0.08645721802871145"/><circle cx="784.078677251022" cy="190.0719724805262" r="579.426108389028" fill="#457b9d" opacity="0.0856297404402005"/><circle cx="1193.696551978052" cy="154.95661916326654" r="86.92997027815551" fill="url(#sun22)" opacity="0.632191152109809"/><circle cx="1193.696551978052" cy="154.95661916326654" r="81.92997027815551" fill="#1d3557" opacity="0.3"/><rect x="4.625511475518698" y="758.0191690493419" width="63.12424561780045" height="147.30964974670428" fill="#1d3557" opacity="0.6344315955029874" rx="2"/><rect x="31.089566341622163" y="768.0191690493419" width="10.196135885593513" height="6.40825238460867" fill="#457b9d" opacity="0.4318179715033197" rx="1"/><rect x="15.308504937172053" y="771.2232952416463" width="10.196135885593513" height="6.40825238460867" fill="#e63946" opacity="0.21590898575165984" rx="1"/><rect x="32.49809955561023" y="792.5707773404594" width="7.379069457617372" height="6.018413316462751" fill="#457b9d" opacity="0.12378651116131492" rx="1"/><rect x="16.717038151160125" y="795.5799839986908" width="7.379069457617372" height="6.018413316462751" fill="#e63946" opacity="0.06189325558065746" rx="1"/><rect x="31.670333688303437" y="817.1223856315767" width="9.034601192230964" height="7.85611663150045" fill="#457b9d" opacity="0.18575195646513065" rx="1"/><rect x="15.889272283853327" y="821.0504439473269" width="9.034601192230964" height="7.85611663150045" fill="#e63946" opacity="0.09287597823256533" rx="1"/><rect x="33.13494986997334" y="841.6739939226941" width="6.105368828891164" height="9.265396779232052" fill="#457b9d" opacity="0.1550255314575102" rx="1"/><rect x="17.353888465523227" y="846.3066923123101" width="6.105368828891164" height="9.265396779232052" fill="#e63946" opacity="0.0775127657287551" rx="1"/><rect x="33.007314222400844" y="866.2256022138115" width="6.3606401240361485" height="6.1807575961995775" fill="#457b9d" opacity="0.24666421679935052" rx="1"/><rect x="17.226252817950737" y="869.3159810119113" width="6.3606401240361485" height="6.1807575961995775" fill="#e63946" opacity="0.12333210839967526" rx="1"/><rect x="33.00517937215165" y="890.7772105049288" width="6.364909824534531" height="6.51146708347636" fill="#457b9d" opacity="0.2617980160894333" rx="1"/><rect x="17.224117967701545" y="894.032944046667" width="6.364909824534531" height="6.51146708347636" fill="#e63946" opacity="0.13089900804471666" rx="1"/><rect x="131.31035458792707" y="824.4866421852462" width="37.28676420340472" height="80.84217661080001" fill="#031b3d" opacity="0.41613316683008644" rx="2"/><rect x="145.47591941721643" y="834.4866421852462" width="8.955634544826028" height="6.149886900593966" fill="#457b9d" opacity="0.15927006110066316" rx="1"/><rect x="136.15422836636523" y="837.5615856355431" width="8.955634544826028" height="6.149886900593966" fill="#e63946" opacity="0.07963503055033158" rx="1"/><rect x="145.84398343154322" y="846.0355245582176" width="8.219506516172435" height="7.044289066699401" fill="#457b9d" opacity="0.5132235593658927" rx="1"/><rect x="136.52229238069202" y="849.5576690915673" width="8.219506516172435" height="7.044289066699401" fill="#e63946" opacity="0.25661177968294635" rx="1"/><rect x="147.1541215503016" y="857.584406931189" width="5.599230278655707" height="7.667378245309782" fill="#457b9d" opacity="0.4349061488022343" rx="1"/><rect x="137.8324304994504" y="861.4180960538439" width="5.599230278655707" height="7.667378245309782" fill="#e63946" opacity="0.21745307440111716" rx="1"/><rect x="146.13285979096145" y="869.1332893041605" width="7.641753797335959" height="9.589751655140368" fill="#457b9d" opacity="0.30971874443574776" rx="1"/><rect x="136.81116874011025" y="873.9281651317307" width="7.641753797335959" height="9.589751655140368" fill="#e63946" opacity="0.15485937221787388" rx="1"/><rect x="147.17679835999775" y="880.6821716771319" width="5.553876659263363" height="7.095581593247033" fill="#457b9d" opacity="0.314254861514609" rx="1"/><rect x="137.85510730914655" y="884.2299624737554" width="5.553876659263363" height="7.095581593247033" fill="#e63946" opacity="0.1571274307573045" rx="1"/><rect x="145.07036046685425" y="892.2310540501034" width="9.766752445550345" height="8.096245047193078" fill="#457b9d" opacity="0.40235300918630157" rx="1"/><rect x="135.74866941600305" y="896.2791765736999" width="9.766752445550345" height="8.096245047193078" fill="#e63946" opacity="0.20117650459315078" rx="1"/><rect x="144.43443808505182" y="903.7799364230748" width="11.038597209155233" height="6.486636133977826" fill="#457b9d" opacity="0.27536835783984703" rx="1"/><rect x="135.11274703420062" y="907.0232544900637" width="11.038597209155233" height="6.486636133977826" fill="#e63946" opacity="0.13768417891992352" rx="1"/><rect x="262.6874550461507" y="810.3818848171229" width="36.60761742540812" height="94.94693397892334" fill="#031b3d" opacity="0.6361560701011113" rx="2"/><rect x="275.4771142589108" y="820.3818848171229" width="11.02829899988796" height="7.5973920322948585" fill="#457b9d" opacity="0.16093085989377715" rx="1"/><rect x="266.32520990255875" y="824.1805808332704" width="11.02829899988796" height="7.5973920322948585" fill="#e63946" opacity="0.08046542994688857" rx="1"/><rect x="278.9570948430237" y="839.3712716129075" width="4.068337831662115" height="8.460595050468248" fill="#457b9d" opacity="0.37987726039250314" rx="1"/><rect x="269.8051904866717" y="843.6015691381417" width="4.068337831662115" height="8.460595050468248" fill="#e63946" opacity="0.18993863019625157" rx="1"/><rect x="277.5387974485147" y="858.3606584086922" width="6.904932620680176" height="7.576808152156139" fill="#457b9d" opacity="0.24814663344252544" rx="1"/><rect x="268.38689309216267" y="862.1490624847703" width="6.904932620680176" height="7.576808152156139" fill="#e63946" opacity="0.12407331672126272" rx="1"/><rect x="278.428253922944" y="877.3500452044769" width="5.126019671821505" height="9.319226280627593" fill="#457b9d" opacity="0.18856516147231805" rx="1"/><rect x="269.276349566592" y="882.0096583447908" width="5.126019671821505" height="9.319226280627593" fill="#e63946" opacity="0.09428258073615903" rx="1"/><rect x="277.0397006236109" y="896.3394320002616" width="7.903126270487701" height="6.577903890185501" fill="#457b9d" opacity="0.5776005237311126" rx="1"/><rect x="267.88779626725886" y="899.6283839453544" width="7.903126270487701" height="6.577903890185501" fill="#e63946" opacity="0.2888002618655563" rx="1"/><rect x="371.0195504294288" y="557.0706643646281" width="63.78326380014961" height="348.25815443141806" fill="#031b3d" opacity="0.6121066929800685" rx="2"/><rect x="398.6779397138576" y="567.0706643646281" width="8.466485231292081" height="6.9630886318541805" fill="#457b9d" opacity="0.5551276537718083" rx="1"/><rect x="382.7321237638202" y="570.5522086805552" width="8.466485231292081" height="6.9630886318541805" fill="#e63946" opacity="0.27756382688590414" rx="1"/><rect x="399.19594331276505" y="636.7222952509117" width="7.430478033477086" height="9.976776573801594" fill="#457b9d" opacity="0.36719554019328104" rx="1"/><rect x="383.25012736272765" y="641.7106835378124" width="7.430478033477086" height="9.976776573801594" fill="#e63946" opacity="0.18359777009664052" rx="1"/><rect x="399.44105994432255" y="706.3739261371953" width="6.940244770362099" height="8.659949255795206" fill="#457b9d" opacity="0.14328275903670182" rx="1"/><rect x="383.49524399428515" y="710.703900765093" width="6.940244770362099" height="8.659949255795206" fill="#e63946" opacity="0.07164137951835091" rx="1"/><rect x="398.7473552272998" y="776.025557023479" width="8.327654204407626" height="6.1578009445587645" fill="#457b9d" opacity="0.3988612092563094" rx="1"/><rect x="382.8015392772624" y="779.1044574957584" width="8.327654204407626" height="6.1578009445587645" fill="#e63946" opacity="0.1994306046281547" rx="1"/><rect x="399.9161281662332" y="845.6771879097626" width="5.9901083265408195" height="7.946959472714681" fill="#457b9d" opacity="0.3820111901457448" rx="1"/><rect x="383.9703122161958" y="849.6506676461199" width="5.9901083265408195" height="7.946959472714681" fill="#e63946" opacity="0.1910055950728724" rx="1"/><rect x="503.42305475925633" y="685.9491871287928" width="59.73872173804294" height="219.37963166725348" fill="#031b3d" opacity="0.4026932175975976" rx="2"/><rect x="530.223429581901" y="695.9491871287928" width="6.137972092753735" height="8.412520059946115" fill="#457b9d" opacity="0.31405148604280586" rx="1"/><rect x="515.2887491473903" y="700.1554471587658" width="6.137972092753735" height="8.412520059946115" fill="#e63946" opacity="0.15702574302140293" rx="1"/><rect x="527.7054351318408" y="739.8251134622435" width="11.173960992874104" height="8.462600666671666" fill="#457b9d" opacity="0.4690686295435458" rx="1"/><rect x="512.7707546973301" y="744.0564137955794" width="11.173960992874104" height="8.462600666671666" fill="#e63946" opacity="0.2345343147717729" rx="1"/><rect x="528.7150518628106" y="783.7010397956942" width="9.15472753093455" height="9.990225953979005" fill="#457b9d" opacity="0.3124577957932972" rx="1"/><rect x="513.7803714282999" y="788.6961527726837" width="9.15472753093455" height="9.990225953979005" fill="#e63946" opacity="0.1562288978966486" rx="1"/><rect x="528.1098890148825" y="827.5769661291449" width="10.365053226790636" height="6.327126763837208" fill="#457b9d" opacity="0.26481915911771803" rx="1"/><rect x="513.1752085803718" y="830.7405295110635" width="10.365053226790636" height="6.327126763837208" fill="#e63946" opacity="0.13240957955885901" rx="1"/><rect x="529.301191463671" y="871.4528924625956" width="7.982448329213645" height="8.09852255277767" fill="#457b9d" opacity="0.45549773726507503" rx="1"/><rect x="514.3665110291603" y="875.5021537389845" width="7.982448329213645" height="8.09852255277767" fill="#e63946" opacity="0.22774886863253752" rx="1"/><rect x="621.1402899774583" y="613.0382373377304" width="69.66477389905248" height="292.29058145831584" fill="#031b3d" opacity="0.5455194884085841" rx="2"/><rect x="652.2890268734864" y="623.0382373377304" width="7.367300106996508" height="7.956925165363803" fill="#457b9d" opacity="0.4798496876563527" rx="1"/><rect x="634.8728333987232" y="627.0166999204123" width="7.367300106996508" height="7.956925165363803" fill="#e63946" opacity="0.23992484382817636" rx="1"/><rect x="651.1515173325668" y="696.1108827023094" width="9.64231918883564" height="7.308383214592092" fill="#457b9d" opacity="0.41274778391531386" rx="1"/><rect x="633.7353238578036" y="699.7650743096054" width="9.64231918883564" height="7.308383214592092" fill="#e63946" opacity="0.20637389195765693" rx="1"/><rect x="652.0686169259875" y="769.1835280668884" width="7.8081200019941015" height="9.368749106155883" fill="#457b9d" opacity="0.4581173804956762" rx="1"/><rect x="634.6524234512243" y="773.8679026199663" width="7.8081200019941015" height="9.368749106155883" fill="#e63946" opacity="0.2290586902478381" rx="1"/><rect x="650.7161783044497" y="842.2561734314672" width="10.512997245069826" height="9.608745354136627" fill="#457b9d" opacity="0.25563708221438275" rx="1"/><rect x="633.2999848296865" y="847.0605461085355" width="10.512997245069826" height="9.608745354136627" fill="#e63946" opacity="0.12781854110719137" rx="1"/><rect x="742.4019277636897" y="637.482884406923" width="46.942843058366066" height="267.8459343891232" fill="#031b3d" opacity="0.6756727261179296" rx="2"/><rect x="763.3858296252754" y="647.482884406923" width="4.975039335194752" height="9.21341973524853" fill="#457b9d" opacity="0.2660381008791826" rx="1"/><rect x="751.650118860684" y="652.0895942745473" width="4.975039335194752" height="9.21341973524853" fill="#e63946" opacity="0.1330190504395913" rx="1"/><rect x="759.9321752681703" y="736.7648625366307" width="11.882348049404646" height="8.410764560664717" fill="#457b9d" opacity="0.13910372639985377" rx="1"/><rect x="748.1964645035789" y="740.9702448169631" width="11.882348049404646" height="8.410764560664717" fill="#e63946" opacity="0.06955186319992689" rx="1"/><rect x="763.4646793283672" y="826.0468406663384" width="4.817339929011031" height="7.291159642229593" fill="#457b9d" opacity="0.1614368264939256" rx="1"/><rect x="751.7289685637758" y="829.6924204874532" width="4.817339929011031" height="7.291159642229593" fill="#e63946" opacity="0.0807184132469628" rx="1"/><rect x="845.692780275292" y="592.5156614376501" width="62.38297809669351" height="312.8131573583961" fill="#031b3d" opacity="0.5597851218794904" rx="2"/><rect x="874.0778562727099" y="602.5156614376501" width="5.61282610185743" height="8.331899155474245" fill="#457b9d" opacity="0.10940421107444079" rx="1"/><rect x="858.4821117485366" y="606.6816110153873" width="5.61282610185743" height="8.331899155474245" fill="#e63946" opacity="0.054702105537220394" rx="1"/><rect x="873.178858784069" y="665.0782929093293" width="7.410821079139323" height="8.316654080133105" fill="#457b9d" opacity="0.3735339350238288" rx="1"/><rect x="857.5831142598956" y="669.2366199493958" width="7.410821079139323" height="8.316654080133105" fill="#e63946" opacity="0.1867669675119144" rx="1"/><rect x="872.3729308758334" y="727.6409243810085" width="9.02267689561068" height="6.624836191680477" fill="#457b9d" opacity="0.22568437439056216" rx="1"/><rect x="856.77718635166" y="730.9533424768488" width="9.02267689561068" height="6.624836191680477" fill="#e63946" opacity="0.11284218719528108" rx="1"/><rect x="872.1760187715236" y="790.2035558526877" width="9.416501104230178" height="6.077658450249038" fill="#457b9d" opacity="0.3003935553832896" rx="1"/><rect x="856.5802742473502" y="793.2423850778123" width="9.416501104230178" height="6.077658450249038" fill="#e63946" opacity="0.1501967776916448" rx="1"/><rect x="872.8253008247877" y="852.766187324367" width="8.117936997701864" height="6.830048229738615" fill="#457b9d" opacity="0.13965961945700917" rx="1"/><rect x="857.2295563006144" y="856.1812114392363" width="8.117936997701864" height="6.830048229738615" fill="#e63946" opacity="0.06982980972850458" rx="1"/><rect x="962.5539277523183" y="751.9182379361982" width="82.4305053596456" height="153.41058085984798" fill="#031b3d" opacity="0.6241928998204398" rx="2"/><rect x="1000.0192661739464" y="761.9182379361982" width="7.499828516389203" height="9.442781733219228" fill="#457b9d" opacity="0.14090281821342718" rx="1"/><rect x="979.411639834035" y="766.6396288028078" width="7.499828516389203" height="9.442781733219228" fill="#e63946" opacity="0.07045140910671359" rx="1"/><rect x="998.2220967861875" y="787.4866680795062" width="11.094167291907166" height="6.009857990781278" fill="#457b9d" opacity="0.16235593686866479" rx="1"/><rect x="977.6144704462761" y="790.4915970748968" width="11.094167291907166" height="6.009857990781278" fill="#e63946" opacity="0.08117796843433239" rx="1"/><rect x="998.1445749469904" y="813.0550982228142" width="11.249210970301462" height="9.5536886312891" fill="#457b9d" opacity="0.5943886729875553" rx="1"/><rect x="977.5369486070789" y="817.8319425384587" width="11.249210970301462" height="9.5536886312891" fill="#e63946" opacity="0.29719433649377763" rx="1"/><rect x="1001.4993749615967" y="838.6235283661222" width="4.539610941088668" height="6.329837868998255" fill="#457b9d" opacity="0.12905588586094227" rx="1"/><rect x="980.8917486216852" y="841.7884473006213" width="4.539610941088668" height="6.329837868998255" fill="#e63946" opacity="0.06452794293047114" rx="1"/><rect x="999.4403123209346" y="864.1919585094303" width="8.657736222412842" height="9.651257437572642" fill="#457b9d" opacity="0.23929731274007293" rx="1"/><rect x="978.8326859810231" y="869.0175872282166" width="8.657736222412842" height="9.651257437572642" fill="#e63946" opacity="0.11964865637003647" rx="1"/><rect x="998.7486254195097" y="889.7603886527382" width="10.041110025262718" height="9.159550931109012" fill="#457b9d" opacity="0.5397148656285635" rx="1"/><rect x="978.1409990795983" y="894.3401641182927" width="10.041110025262718" height="9.159550931109012" fill="#e63946" opacity="0.26985743281428176" rx="1"/><rect x="1102.5865908205944" y="746.1088354224592" width="71.97083394554696" height="159.219983373587" fill="#1d3557" opacity="0.48223729312471986" rx="2"/><rect x="1132.753611219524" y="756.1088354224592" width="11.636793147687985" height="8.863727539513196" fill="#457b9d" opacity="0.42480444277748575" rx="1"/><rect x="1114.7609027331373" y="760.5406991922157" width="11.636793147687985" height="8.863727539513196" fill="#e63946" opacity="0.21240222138874287" rx="1"/><rect x="1133.5885572551258" y="776.0113333441575" width="9.966901076484216" height="8.495506505131607" fill="#457b9d" opacity="0.49242817750024337" rx="1"/><rect x="1115.5958487687392" y="780.2590865967233" width="9.966901076484216" height="8.495506505131607" fill="#e63946" opacity="0.24621408875012168" rx="1"/><rect x="1135.2787006535286" y="795.913831265856" width="6.586614279678701" height="7.477457622410138" fill="#457b9d" opacity="0.40616179593050894" rx="1"/><rect x="1117.285992167142" y="799.652560077061" width="6.586614279678701" height="7.477457622410138" fill="#e63946" opacity="0.20308089796525447" rx="1"/><rect x="1133.6523816237814" y="815.8163291875543" width="9.839252339172933" height="6.914748774123087" fill="#457b9d" opacity="0.4526792653958963" rx="1"/><rect x="1115.6596731373947" y="819.2737035746159" width="9.839252339172933" height="6.914748774123087" fill="#e63946" opacity="0.22633963269794816" rx="1"/><rect x="1134.2900983140082" y="835.7188271092526" width="8.563818958719219" height="9.596268732006724" fill="#457b9d" opacity="0.13552651336312446" rx="1"/><rect x="1116.2973898276216" y="840.516961475256" width="8.563818958719219" height="9.596268732006724" fill="#e63946" opacity="0.06776325668156223" rx="1"/><rect x="1134.366547961572" y="855.6213250309511" width="8.41091966359199" height="9.47334628819333" fill="#457b9d" opacity="0.3601614926848936" rx="1"/><rect x="1116.3738394751854" y="860.3579981750478" width="8.41091966359199" height="9.47334628819333" fill="#e63946" opacity="0.1800807463424468" rx="1"/><rect x="1135.2595842974865" y="875.5238229526494" width="6.624846991762716" height="8.586229528902617" fill="#457b9d" opacity="0.496861382852509" rx="1"/><rect x="1117.2668758111" y="879.8169377171007" width="6.624846991762716" height="8.586229528902617" fill="#e63946" opacity="0.2484306914262545" rx="1"/><rect x="1135.7460908807689" y="895.4263208743478" width="5.651833825197963" height="6.385683472358083" fill="#457b9d" opacity="0.2687114000480416" rx="1"/><rect x="1117.7533823943822" y="898.6191626105268" width="5.651833825197963" height="6.385683472358083" fill="#e63946" opacity="0.1343557000240208" rx="1"/><rect x="1203.2094281337245" y="824.8724417003971" width="78.84445486796193" height="80.4563770956491" fill="#031b3d" opacity="0.5817398027241556" rx="2"/><rect x="1239.9979051391122" y="834.8724417003971" width="5.267500857186388" height="8.543486441146463" fill="#457b9d" opacity="0.10739014882300751" rx="1"/><rect x="1220.2867914221217" y="839.1441849209704" width="5.267500857186388" height="8.543486441146463" fill="#e63946" opacity="0.05369507441150376" rx="1"/><rect x="1237.2751687034672" y="854.9865359743094" width="10.71297372847632" height="8.580731823709964" fill="#457b9d" opacity="0.4651714899728939" rx="1"/><rect x="1217.5640549864768" y="859.2769018861644" width="10.71297372847632" height="8.580731823709964" fill="#e63946" opacity="0.23258574498644696" rx="1"/><rect x="1238.2547016728795" y="875.1006302482216" width="8.753907789651748" height="7.933675035353208" fill="#457b9d" opacity="0.12854582772789194" rx="1"/><rect x="1218.543587955889" y="879.0674677658982" width="8.753907789651748" height="7.933675035353208" fill="#e63946" opacity="0.06427291386394597" rx="1"/><rect x="1239.2623495478792" y="895.2147245221339" width="6.738612039652329" height="8.872010770922529" fill="#457b9d" opacity="0.2529993578216525" rx="1"/><rect x="1219.5512358308888" y="899.6507299075952" width="6.738612039652329" height="8.872010770922529" fill="#e63946" opacity="0.12649967891082625" rx="1"/><rect x="1346.3182490170743" y="674.2503850777284" width="69.44469480762368" height="231.07843371831777" fill="#031b3d" opacity="0.5266210736070343" rx="2"/><rect x="1378.7424970967097" y="684.2503850777284" width="4.596198648353154" height="6.115329609279365" fill="#457b9d" opacity="0.3739391355481788" rx="1"/><rect x="1361.3813233948038" y="687.3080498823681" width="4.596198648353154" height="6.115329609279365" fill="#e63946" opacity="0.1869695677740894" rx="1"/><rect x="1376.4139028939917" y="717.261589894631" width="9.253387053788963" height="9.427180561103668" fill="#457b9d" opacity="0.1421513425051587" rx="1"/><rect x="1359.0527291920857" y="721.9751801751828" width="9.253387053788963" height="9.427180561103668" fill="#e63946" opacity="0.07107567125257935" rx="1"/><rect x="1377.939675714574" y="750.2727947115335" width="6.201841412624773" height="9.110567704567352" fill="#457b9d" opacity="0.4849004748940702" rx="1"/><rect x="1360.578502012668" y="754.8280785638171" width="6.201841412624773" height="9.110567704567352" fill="#e63946" opacity="0.2424502374470351" rx="1"/><rect x="1375.2732822430025" y="783.2839995284361" width="11.534628355767259" height="7.383517658660076" fill="#457b9d" opacity="0.21946514042081897" rx="1"/><rect x="1357.9121085410966" y="786.9757583577662" width="11.534628355767259" height="7.383517658660076" fill="#e63946" opacity="0.10973257021040948" rx="1"/><rect x="1375.6218971388" y="816.2952043453386" width="10.837398564172304" height="9.240689877243874" fill="#457b9d" opacity="0.3712233386168311" rx="1"/><rect x="1358.260723436894" y="820.9155492839604" width="10.837398564172304" height="9.240689877243874" fill="#e63946" opacity="0.18561166930841555" rx="1"/><rect x="1378.5452718966515" y="849.3064091622412" width="4.990649048469646" height="8.154777570198005" fill="#457b9d" opacity="0.36533150655807267" rx="1"/><rect x="1361.1840981947455" y="853.3837979473401" width="4.990649048469646" height="8.154777570198005" fill="#e63946" opacity="0.18266575327903634" rx="1"/><rect x="1378.1946638774116" y="882.3176139791437" width="5.691865086949399" height="7.7355188843178375" fill="#457b9d" opacity="0.2884721863755193" rx="1"/><rect x="1360.8334901755056" y="886.1853734213026" width="5.691865086949399" height="7.7355188843178375" fill="#e63946" opacity="0.14423609318775965" rx="1"/><rect x="1447.0372553977736" y="739.4032531626065" width="65.94977935216151" height="165.92556563343982" fill="#031b3d" opacity="0.4587919907548446" rx="2"/><rect x="1475.260968157151" y="749.4032531626065" width="9.50235383340678" height="8.048328895598726" fill="#457b9d" opacity="0.16639268902744928" rx="1"/><rect x="1458.7735233191106" y="753.4274176104058" width="9.50235383340678" height="8.048328895598726" fill="#e63946" opacity="0.08319634451372464" rx="1"/><rect x="1476.4506299424568" y="782.5883662892944" width="7.1230302627950515" height="7.179539535469268" fill="#457b9d" opacity="0.5666581400592481" rx="1"/><rect x="1459.9631851044164" y="786.1781360570291" width="7.1230302627950515" height="7.179539535469268" fill="#e63946" opacity="0.28332907002962404" rx="1"/><rect x="1474.297046704054" y="815.7734794159824" width="11.43019673960055" height="7.333945396666868" fill="#457b9d" opacity="0.5416704517653376" rx="1"/><rect x="1457.8096018660137" y="819.4404521143158" width="11.43019673960055" height="7.333945396666868" fill="#e63946" opacity="0.2708352258826688" rx="1"/><rect x="1474.1475784189877" y="848.9585925426703" width="11.729133309733387" height="6.512333314053792" fill="#457b9d" opacity="0.24951256095653226" rx="1"/><rect x="1457.6601335809473" y="852.2147591996973" width="11.729133309733387" height="6.512333314053792" fill="#e63946" opacity="0.12475628047826613" rx="1"/><rect x="1477.4592465791989" y="882.1437056693583" width="5.105796989310951" height="9.465510235974916" fill="#457b9d" opacity="0.1452851019905147" rx="1"/><rect x="1460.9718017411585" y="886.8764607873458" width="5.105796989310951" height="9.465510235974916" fill="#e63946" opacity="0.07264255099525735" rx="1"/><rect x="1576.1573449396894" y="585.4019919725605" width="74.38384636407342" height="319.9268268234857" fill="#031b3d" opacity="0.6750201562594204" rx="2"/><rect x="1608.2947480141406" y="595.4019919725605" width="10.109040215171184" height="8.485235598516939" fill="#457b9d" opacity="0.26828976610402805" rx="1"/><rect x="1589.698786423122" y="599.644609771819" width="10.109040215171184" height="8.485235598516939" fill="#e63946" opacity="0.13414488305201402" rx="1"/><rect x="1607.72184083907" y="641.1058243759156" width="11.254854565312819" height="8.732741946990775" fill="#457b9d" opacity="0.31814012136732694" rx="1"/><rect x="1589.1258792480514" y="645.472195349411" width="11.254854565312819" height="8.732741946990775" fill="#e63946" opacity="0.15907006068366347" rx="1"/><rect x="1609.0998032544974" y="686.8096567792707" width="8.498929734457967" height="8.219227588320901" fill="#457b9d" opacity="0.42628870611691116" rx="1"/><rect x="1590.5038416634789" y="690.919270573431" width="8.498929734457967" height="8.219227588320901" fill="#e63946" opacity="0.21314435305845558" rx="1"/><rect x="1610.2816119061974" y="732.5134891826258" width="6.135312431057756" height="8.373873443895455" fill="#457b9d" opacity="0.14716679583004835" rx="1"/><rect x="1591.685650315179" y="736.7004259045735" width="6.135312431057756" height="8.373873443895455" fill="#e63946" opacity="0.07358339791502418" rx="1"/><rect x="1610.5447357985063" y="778.2173215859809" width="5.609064646439875" height="9.405768916803824" fill="#457b9d" opacity="0.3917226530359412" rx="1"/><rect x="1591.9487742074878" y="782.9202060443829" width="5.609064646439875" height="9.405768916803824" fill="#e63946" opacity="0.1958613265179706" rx="1"/><rect x="1610.2977697121207" y="823.9211539893361" width="6.1029968192109365" height="6.785782873813478" fill="#457b9d" opacity="0.5595373074895557" rx="1"/><rect x="1591.7018081211022" y="827.3140454262428" width="6.1029968192109365" height="6.785782873813478" fill="#e63946" opacity="0.27976865374477783" rx="1"/><rect x="1607.7496236583102" y="869.6249863926911" width="11.199288926832212" height="9.131308974495928" fill="#457b9d" opacity="0.18483367403616052" rx="1"/><rect x="1589.1536620672916" y="874.190640879939" width="11.199288926832212" height="9.131308974495928" fill="#e63946" opacity="0.09241683701808026" rx="1"/><rect x="1704.256225727558" y="713.0199295149696" width="84.97586302807923" height="192.30888928107657" fill="#031b3d" opacity="0.49249674498394524" rx="2"/><rect x="1741.800750243664" y="723.0199295149696" width="9.88681399586769" height="8.586138979202634" fill="#457b9d" opacity="0.1681561628748095" rx="1"/><rect x="1720.5567844866441" y="727.3129990045709" width="9.88681399586769" height="8.586138979202634" fill="#e63946" opacity="0.08407808143740475" rx="1"/><rect x="1740.8347529805812" y="755.0714110618156" width="11.818808522033228" height="8.263903300804994" fill="#457b9d" opacity="0.5255182097958211" rx="1"/><rect x="1719.5907872235614" y="759.2033627122181" width="11.818808522033228" height="8.263903300804994" fill="#e63946" opacity="0.26275910489791054" rx="1"/><rect x="1742.6530515816187" y="787.1228926086618" width="8.182211319958375" height="8.905322311191195" fill="#457b9d" opacity="0.5446382375770803" rx="1"/><rect x="1721.4090858245988" y="791.5755537642574" width="8.182211319958375" height="8.905322311191195" fill="#e63946" opacity="0.27231911878854015" rx="1"/><rect x="1742.293789497878" y="819.1743741555078" width="8.90073548743984" height="6.946088195067385" fill="#457b9d" opacity="0.19824401352048016" rx="1"/><rect x="1721.049823740858" y="822.6474182530416" width="8.90073548743984" height="6.946088195067385" fill="#e63946" opacity="0.09912200676024008" rx="1"/><rect x="1742.7501976354397" y="851.225855702354" width="7.987919212316144" height="8.755572857045468" fill="#457b9d" opacity="0.5277288066054995" rx="1"/><rect x="1721.5062318784198" y="855.6036421308768" width="7.987919212316144" height="8.755572857045468" fill="#e63946" opacity="0.26386440330274974" rx="1"/><rect x="1744.6796235273778" y="883.2773372492001" width="4.129067428440104" height="6.129895854771578" fill="#457b9d" opacity="0.27648348856635474" rx="1"/><rect x="1723.435657770358" y="886.3422851765858" width="4.129067428440104" height="6.129895854771578" fill="#e63946" opacity="0.13824174428317737" rx="1"/><rect x="1822.7913035086335" y="670.229250500032" width="71.21847610483377" height="235.09956829601424" fill="#031b3d" opacity="0.6959898427817948" rx="2"/><rect x="1854.6329521619791" y="680.229250500032" width="7.5351787981426295" height="6.990741279206877" fill="#457b9d" opacity="0.5299799903365737" rx="1"/><rect x="1836.8283331357707" y="683.7246211396355" width="7.5351787981426295" height="6.990741279206877" fill="#e63946" opacity="0.26498999516828686" rx="1"/><rect x="1855.9592553649468" y="739.0041425740355" width="4.882572392207238" height="8.202522855764842" fill="#457b9d" opacity="0.14261595419203305" rx="1"/><rect x="1838.1546363387383" y="743.1054040019179" width="4.882572392207238" height="8.202522855764842" fill="#e63946" opacity="0.07130797709601652" rx="1"/><rect x="1853.6361268336502" y="797.7790346480391" width="9.528829454800306" height="6.988390724404806" fill="#457b9d" opacity="0.19509163375363958" rx="1"/><rect x="1835.8315078074418" y="801.2732300102415" width="9.528829454800306" height="6.988390724404806" fill="#e63946" opacity="0.09754581687681979" rx="1"/><rect x="1855.6805541377237" y="856.5539267220427" width="5.439974846653635" height="9.846858600118864" fill="#457b9d" opacity="0.15767113774960656" rx="1"/><rect x="1837.8759351115152" y="861.4773560221021" width="5.439974846653635" height="9.846858600118864" fill="#e63946" opacity="0.07883556887480328" rx="1"/><path d="M657.6234369020963 936.5895324937509 Q669.0973391777596 839.4321420962066 671.3921196328922 742.2747516986622" stroke="#00000a" stroke-width="6.19213977320868" fill="none" stroke-linecap="round"/><path d="M671.3921196328922 742.2747516986622 Q710.4314165956879 722.2747516986622 743.5848769353667 742.2747516986622" stroke="#000224" stroke-width="3.027276027255523" fill="none" stroke-linecap="round" opacity="0.6"/><path d="M671.3921196328922 742.2747516986622 Q700.4232438074157 726.5181155730933 693.9519180942506 750.7614794475244" stroke="#000224" stroke-width="3.928115391621393" fill="none" stroke-linecap="round" opacity="0.6"/><path d="M671.3921196328922 742.2747516986622 Q679.676136518762 733.6378692442904 654.1017367761065 765.0009867899187" stroke="#000224" stroke-width="3.97458240715195" fill="none" stroke-linecap="round" opacity="0.6"/><path d="M671.3921196328922 742.2747516986622 Q665.5728091710013 724.8509475828397 635.7286137978506 747.4271434670172" stroke="#000224" stroke-width="2.986411575923304" fill="none" stroke-linecap="round" opacity="0.6"/><path d="M671.3921196328922 742.2747516986622 Q668.3837871985354 719.4553446140474 632.3617253872242 736.6359375294326" stroke="#000224" stroke-width="2.2260733699021102" fill="none" stroke-linecap="round" opacity="0.6"/><path d="M671.3921196328922 742.2747516986622 Q672.7327936861989 717.5598222457656 664.2177737673352 732.8448927928691" stroke="#000224" stroke-width="3.6960277146883374" fill="none" stroke-linecap="round" opacity="0.6"/><path d="M656.4657977261734 965.7148747392266 Q646.3177315672668 915.2982636797936 644.2881183354855 864.8816526203607" stroke="#00000a" stroke-width="4.582282448323044" fill="none" stroke-linecap="round"/><path d="M644.2881183354855 864.8816526203607 Q682.423518991662 844.8816526203607 718.6010191511831 864.8816526203607" stroke="#000224" stroke-width="3.721234028162722" fill="none" stroke-linecap="round" opacity="0.6"/><path d="M644.2881183354855 864.8816526203607 Q665.2463853960751 851.6041148756425 680.0280167111764 878.3265771309243" stroke="#000224" stroke-width="2.75407093594644" fill="none" stroke-linecap="round" opacity="0.6"/><path d="M644.2881183354855 864.8816526203607 Q652.7036150087945 855.380844401192 628.3123049331826 885.8800361820232" stroke="#000224" stroke-width="2.1305549862167226" fill="none" stroke-linecap="round" opacity="0.6"/><path d="M644.2881183354855 864.8816526203607 Q638.965380780226 847.8809052347408 602.7680368189123 870.880157849121" stroke="#000224" stroke-width="2.3942802153514418" fill="none" stroke-linecap="round" opacity="0.6"/><path d="M644.2881183354855 864.8816526203607 Q634.3957195368331 841.6565150190829 599.6410034291963 858.431377417805" stroke="#000224" stroke-width="2.251845815743284" fill="none" stroke-linecap="round" opacity="0.6"/><path d="M644.2881183354855 864.8816526203607 Q646.4322309271121 834.8981142036088 629.0969350358389 844.9145757868569" stroke="#000224" stroke-width="2.915472177536104" fill="none" stroke-linecap="round" opacity="0.6"/><path d="M644.2881183354855 864.8816526203607 Q680.6062130480086 837.0764747589085 685.784262602167 849.2712968974562" stroke="#000224" stroke-width="2.698766668489847" fill="none" stroke-linecap="round" opacity="0.6"/><path d="M1352.7166229655772 798.3875429486827 Q1351.8114882548832 732.3123057389894 1351.6304613127445 666.237068529296" stroke="#00000a" stroke-width="5.350506098324085" fill="none" stroke-linecap="round"/><path d="M1351.6304613127445 666.237068529296 Q1378.9391138539509 646.237068529296 1396.349126522045 666.237068529296" stroke="#000224" stroke-width="2.2392011927997695" fill="none" stroke-linecap="round" opacity="0.6"/><path d="M1351.6304613127445 666.237068529296 Q1375.2069699691697 650.478629104783 1374.1806725546348 674.7201896802699" stroke="#000224" stroke-width="3.054182108737105" fill="none" stroke-linecap="round" opacity="0.6"/><path d="M1351.6304613127445 666.237068529296 Q1355.7294480146506 653.232033997429 1340.9867598348392 680.226999465562" stroke="#000224" stroke-width="2.483890965693605" fill="none" stroke-linecap="round" opacity="0.6"/><path d="M1351.6304613127445 666.237068529296 Q1338.114582500544 650.1602480238148 1297.3200202263313 674.0834275183335" stroke="#000224" stroke-width="3.1053860259953385" fill="none" stroke-linecap="round" opacity="0.6"/><path d="M1351.6304613127445 666.237068529296 Q1348.4956304745665 644.1642793886169 1322.9358546380588 662.0914902479379" stroke="#000224" stroke-width="3.560953652383982" fill="none" stroke-linecap="round" opacity="0.6"/><path d="M1351.6304613127445 666.237068529296 Q1354.2072945390228 640.6025644969017 1343.0568694672845 654.9680604645073" stroke="#000224" stroke-width="2.986464368874781" fill="none" stroke-linecap="round" opacity="0.6"/><path d="M1351.6304613127445 666.237068529296 Q1365.3636704215728 642.2842772361212 1372.645433766831 658.3314859429464" stroke="#000224" stroke-width="2.5349847731494775" fill="none" stroke-linecap="round" opacity="0.6"/><path d="M245.72914755105253 856.1918756822571 Q245.70327764975448 735.090109766482 245.69810366949488 613.9883438507068" stroke="#00000a" stroke-width="6.0572256487927465" fill="none" stroke-linecap="round"/><path d="M245.69810366949488 613.9883438507068 Q284.51067339943506 593.9883438507068 294.30112006336014 613.9883438507068" stroke="#000224" stroke-width="3.0506875903929322" fill="none" stroke-linecap="round" opacity="0.6"/><path d="M245.69810366949488 613.9883438507068 Q276.79570088158613 599.4888756695102 274.9416220041392 624.9894074883136" stroke="#000224" stroke-width="2.331204230974243" fill="none" stroke-linecap="round" opacity="0.6"/><path d="M245.69810366949488 613.9883438507068 Q254.81768932471886 601.3651036873164 234.47345503716485 628.7418635239261" stroke="#000224" stroke-width="2.0376821863552745" fill="none" stroke-linecap="round" opacity="0.6"/><path d="M245.69810366949488 613.9883438507068 Q218.90339115509008 598.2986669175677 186.02824983965525 622.6089899844286" stroke="#000224" stroke-width="2.4097942808665787" fill="none" stroke-linecap="round" opacity="0.6"/><path d="M245.69810366949488 613.9883438507068 Q219.09016358693313 588.7927445064431 173.77294896029127 603.5971451621796" stroke="#000224" stroke-width="3.9654158814729694" fill="none" stroke-linecap="round" opacity="0.6"/><path d="M1066.9510565202104 818.4456235073613 Q1079.960551704271 761.0045437552046 1082.562450741083 703.5634640030478" stroke="#00000a" stroke-width="6.251422334055282" fill="none" stroke-linecap="round"/><path d="M1082.562450741083 703.5634640030478 Q1132.3358347058147 683.5634640030478 1155.3946253339282 703.5634640030478" stroke="#000224" stroke-width="3.6385938426569555" fill="none" stroke-linecap="round" opacity="0.6"/><path d="M1082.562450741083 703.5634640030478 Q1125.0410203772867 692.2640818507933 1128.8191920771656 720.9646996985389" stroke="#000224" stroke-width="3.190869184488167" fill="none" stroke-linecap="round" opacity="0.6"/><path d="M1082.562450741083 703.5634640030478 Q1081.8203805100582 693.5887652821509 1067.307720102746 723.6140665612542" stroke="#000224" stroke-width="3.6672492324531194" fill="none" stroke-linecap="round" opacity="0.6"/><path d="M1082.562450741083 703.5634640030478 Q1069.254447903522 685.5931994396201 1054.4638569849267 707.6229348761924" stroke="#000224" stroke-width="3.003168463009216" fill="none" stroke-linecap="round" opacity="0.6"/><path d="M1082.562450741083 703.5634640030478 Q1072.7950232767669 679.3053504170878 1023.6153576058734 695.0472368311276" stroke="#000224" stroke-width="3.7673223744536104" fill="none" stroke-linecap="round" opacity="0.6"/><rect x="0" y="1000" width="1920" height="80" fill="#000f31" opacity="0.8"/><line x1="0" y1="1040" x2="1920" y2="1040" stroke="#457b9d" stroke-opacity="0.15" stroke-width="2" stroke-dasharray="30,20"/><rect x="0" y="930" width="1920" height="150" fill="url(#glow22)"/><rect x="0" y="980" width="1920" height="100" fill="#457b9d" opacity="0.04"/><rect x="108.10234578980652" y="1021.9146480508881" width="41.766294241362786" height="2" fill="#e63946" opacity="0.04363351511387935" rx="1"/><rect x="1035.4700636294367" y="1015.0250043522159" width="46.705704728771394" height="2" fill="#e63946" opacity="0.050267486821456694" rx="1"/><rect x="1356.1030835090444" y="1042.1100072334777" width="98.16148397469928" height="2" fill="#e63946" opacity="0.027609505254684367" rx="1"/><rect x="442.06410761039336" y="1011.9021061463054" width="103.14953308625834" height="2" fill="#e63946" opacity="0.05446296932046836" rx="1"/><rect x="606.9353701097275" y="1029.2149956173298" width="61.66496182830654" height="2" fill="#e63946" opacity="0.04506249942469003" rx="1"/><rect x="1795.9301568278881" y="1042.8842943820368" width="92.08498270997895" height="2" fill="#e63946" opacity="0.05365934544095288" rx="1"/><rect x="142.40996364094548" y="1020.3053928260471" width="89.45462100427939" height="2" fill="#e63946" opacity="0.0226330584293774" rx="1"/><rect x="1073.3185787017733" y="1039.167769411385" width="84.22673754026805" height="2" fill="#e63946" opacity="0.029165148737180315" rx="1"/><rect x="581.0936425489125" y="1058.2662420110466" width="79.2689445380282" height="2" fill="#e63946" opacity="0.03772305205877011" rx="1"/><rect x="24.495467400293673" y="1041.7123443357907" width="58.45674382486771" height="2" fill="#e63946" opacity="0.03776591127220679" rx="1"/><rect x="1060.7826311375907" y="1059.2560590848457" width="89.09700973636866" height="2" fill="#e63946" opacity="0.036005806814880525" rx="1"/><rect x="628.6050038013153" y="1052.2317766380104" width="22.427130402630922" height="2" fill="#e63946" opacity="0.03247296512417332" rx="1"/><rect x="1579.3610111575947" y="1040.318736927658" width="88.39560954095694" height="2" fill="#e63946" opacity="0.05658201915132395" rx="1"/><rect x="814.4418804753669" y="1046.0137694482723" width="57.56668519637703" height="2" fill="#e63946" opacity="0.0548113107482929" rx="1"/><rect x="841.2562771610114" y="1034.5245331233657" width="35.35941204413758" height="2" fill="#e63946" opacity="0.027169452301964502" rx="1"/><rect x="576.2559513599276" y="1041.8442271700696" width="56.27881813707734" height="2" fill="#e63946" opacity="0.05503071903135412" rx="1"/><rect x="317.24227048392464" y="1029.552937245358" width="55.4095525889214" height="2" fill="#e63946" opacity="0.039596833321172004" rx="1"/><rect x="1428.6448246586706" y="1016.279043475231" width="79.00088787521256" height="2" fill="#e63946" opacity="0.03961591125922648" rx="1"/><rect x="169.8185916640373" y="1026.7369504148926" width="106.14067111307305" height="2" fill="#e63946" opacity="0.047508025538993075" rx="1"/><rect x="1047.0215206795888" y="1012.8241701034885" width="83.9971849424758" height="2" fill="#e63946" opacity="0.035993228111414526" rx="1"/><rect x="1349.2949816745927" y="1046.954853438529" width="119.03378635622417" height="2" fill="#e63946" opacity="0.03808565127153081" rx="1"/><rect x="1224.8924136033497" y="1035.6247030095255" width="91.84405288934802" height="2" fill="#e63946" opacity="0.05837881957143051" rx="1"/><rect x="1160.4004385788926" y="1002.6533732429737" width="49.44224286578648" height="2" fill="#e63946" opacity="0.025131497980358894" rx="1"/><rect x="1226.1585557335425" y="1023.9606578750444" width="25.373997778020332" height="2" fill="#e63946" opacity="0.03793034618206563" rx="1"/><rect x="147.781181071834" y="1043.152560769383" width="48.936733638154514" height="2" fill="#e63946" opacity="0.05940060654641144" rx="1"/><rect x="903.1182939426783" y="1059.2547589678445" width="104.30930820394057" height="2" fill="#e63946" opacity="0.026078500702529796" rx="1"/><rect x="703.9834219366273" y="1009.0397445645741" width="65.4631110293472" height="2" fill="#e63946" opacity="0.05435841817277447" rx="1"/><rect x="1250.5827313593084" y="1027.9023934779461" width="98.04329026910553" height="2" fill="#e63946" opacity="0.04394918147100815" rx="1"/><rect x="1383.6243902388087" y="1005.2318970824666" width="83.4445039470318" height="2" fill="#e63946" opacity="0.046442448549541285" rx="1"/><rect x="713.5718497805232" y="1026.6390965847854" width="90.46205242408021" height="2" fill="#e63946" opacity="0.044584987560423325" rx="1"/><text x="1900" y="1060" font-family="Arial, sans-serif" font-size="11" fill="#fff" opacity="0.08" text-anchor="end" letter-spacing="2">GTA 6 REWARDS · WALLPAPER 023</text>
</svg>