<?xml version="1.0" encoding="UTF-8"?>
<svg xmlns="http://www.w3.org/2000/svg" width="1920" height="1080" viewBox="0 0 1920 1080">
<defs>
    <linearGradient id="bg23" x1="0%" y1="0%" x2="0%" y2="100%">
      <stop offset="0%" stop-color="#073b4c"/>
      <stop offset="50%" stop-color="#000819"/>
      <stop offset="100%" stop-color="#073b4c"/>
    </linearGradient>
    <linearGradient id="sun23" x1="0%" y1="0%" x2="100%" y2="100%">
      <stop offset="0%" stop-color="#06d6a0"/>
      <stop offset="100%" stop-color="#118ab2"/>
    </linearGradient>
    <radialGradient id="glow23" cx="50%" cy="70%" r="50%">
      <stop offset="0%" stop-color="#06d6a0" stop-opacity="0.3"/>
      <stop offset="100%" stop-color="#073b4c" stop-opacity="0"/>
    </radialGradient>
  </defs><rect width="1920" height="1080" fill="url(#bg23)"/><circle cx="381.9742695619292" cy="452.8448163189098" r="691.6409054518773" fill="#06d6a0" opacity="0.08239718378344485"/><circle cx="581.9742695619292" cy="352.8448163189098" r="442.85434806785884" fill="#118ab2" opacity="0.09096496497303364"/><line x1="0" y1="980" x2="1920" y2="980" stroke="#118ab2" stroke-opacity="0.05" stroke-width="2"/><line x1="0" y1="935" x2="1920" y2="935" stroke="#118ab2" stroke-opacity="0.049" stroke-width="0.5"/><line x1="0" y1="890" x2="1920" y2="890" stroke="#118ab2" stroke-opacity="0.048" stroke-width="0.5"/><line x1="0" y1="845" x2="1920" y2="845" stroke="#118ab2" stroke-opacity="0.047" stroke-width="0.5"/><line x1="0" y1="800" x2="1920" y2="800" stroke="#118ab2" stroke-opacity="0.046" stroke-width="0.5"/><line x1="0" y1="755" x2="1920" y2="755" stroke="#118ab2" stroke-opacity="0.045" stroke-width="0.5"/><line x1="0" y1="710" x2="1920" y2="710" stroke="#118ab2" stroke-opacity="0.044" stroke-width="0.5"/><line x1="0" y1="665" x2="1920" y2="665" stroke="#118ab2" stroke-opacity="0.043" stroke-width="0.5"/><line x1="0" y1="620" x2="1920" y2="620" stroke="#118ab2" stroke-opacity="0.041999999999999996" stroke-width="0.5"/><line x1="0" y1="575" x2="1920" y2="575" stroke="#118ab2" stroke-opacity="0.041" stroke-width="0.5"/><line x1="0" y1="530" x2="1920" y2="530" stroke="#118ab2" stroke-opacity="0.04" stroke-width="0.5"/><line x1="0" y1="485" x2="1920" y2="485" stroke="#118ab2" stroke-opacity="0.039" stroke-width="0.5"/><line x1="0" y1="440" x2="1920" y2="440" stroke="#118ab2" stroke-opacity="0.038" stroke-width="0.5"/><line x1="0" y1="395" x2="1920" y2="395" stroke="#118ab2" stroke-opacity="0.037" stroke-width="0.5"/><line x1="0" y1="350" x2="1920" y2="350" stroke="#118ab2" stroke-opacity="0.036" stroke-width="0.5"/><line x1="0" y1="305" x2="1920" y2="305" stroke="#118ab2" stroke-opacity="0.034999999999999996" stroke-width="0.5"/><line x1="0" y1="260" x2="1920" y2="260" stroke="#118ab2" stroke-opacity="0.033999999999999996" stroke-width="0.5"/><line x1="0" y1="215" x2="1920" y2="215" stroke="#118ab2" stroke-opacity="0.033" stroke-width="0.5"/><line x1="0" y1="170" x2="1920" y2="170" stroke="#118ab2" stroke-opacity="0.032" stroke-width="0.5"/><line x1="0" y1="125" x2="1920" y2="125" stroke="#118ab2" stroke-opacity="0.031" stroke-width="0.5"/><line x1="560" y1="1080" x2="860" y2="580" stroke="#06d6a0" stroke-opacity="0.04" stroke-width="1"/><line x1="640" y1="1080" x2="880" y2="590" stroke="#06d6a0" stroke-opacity="0.04" stroke-width="1"/><line x1="720" y1="1080" x2="900" y2="600" stroke="#06d6a0" stroke-opacity="0.04" stroke-width="1"/><line x1="800" y1="1080" x2="920" y2="610" stroke="#06d6a0" stroke-opacity="0.04" stroke-width="1"/><line x1="880" y1="1080" x2="940" y2="620" stroke="#06d6a0" stroke-opacity="0.04" stroke-width="1"/><line x1="960" y1="1080" x2="960" y2="630" stroke="#06d6a0" stroke-opacity="0.04" stroke-width="1"/><line x1="1040" y1="1080" x2="980" y2="620" stroke="#06d6a0" stroke-opacity="0.04" stroke-width="1"/><line x1="1120" y1="1080" x2="1000" y2="610" stroke="#06d6a0" stroke-opacity="0.04" stroke-width="1"/><line x1="1200" y1="1080" x2="1020" y2="600" stroke="#06d6a0" stroke-opacity="0.04" stroke-width="1"/><line x1="1280" y1="1080" x2="1040" y2="590" stroke="#06d6a0" stroke-opacity="0.04" stroke-width="1"/><line x1="1360" y1="1080" x2="1060" y2="580" stroke="#06d6a0" stroke-opacity="0.04" stroke-width="1"/><circle cx="1291.249113853846" cy="152.68078430152516" r="98.1373582310363" fill="url(#sun23)" opacity="0.8126056151493931"/><circle cx="1291.249113853846" cy="152.68078430152516" r="93.1373582310363" fill="#073b4c" opacity="0.3"/><circle cx="1892.0798072153889" cy="362.6436399059937" r="1.20835980288879" fill="#fff" opacity="0.6447903062786884"/><circle cx="106.21950390427827" cy="195.42571866219532" r="1.4828068980674276" fill="#fff" opacity="0.7913515449015776"/><circle cx="408.9305932281843" cy="365.445703364314" r="0.8452745154139759" fill="#fff" opacity="0.3144647547310369"/><circle cx="1503.5941157265554" cy="67.90799126492533" r="1.5729266643926796" fill="#fff" opacity="0.422803400927876"/><circle cx="976.6501028129481" cy="408.68328106232997" r="1.6476388714852832" fill="#fff" opacity="0.7369117653781809"/><circle cx="1753.032387307154" cy="278.9616974831935" r="1.7173912033246344" fill="#fff" opacity="0.6251601289085019"/><circle cx="417.08086798365247" cy="134.28893347976006" r="1.2758970331111683" fill="#fff" opacity="0.7373438372596501"/><circle cx="1827.5334544264556" cy="349.81717427024086" r="1.4679480702541647" fill="#fff" opacity="0.39093033736360505"/><circle cx="1741.8806513729228" cy="87.99823061935562" r="1.0914822886910946" fill="#fff" opacity="0.6813727681248851"/><circle cx="309.4507537012572" cy="293.7605358450116" r="1.8443774198750913" fill="#fff" opacity="0.6653558093275306"/><circle cx="9.583373668040934" cy="251.46792395307403" r="1.2952163612458893" fill="#fff" opacity="0.650712647952771"/><circle cx="695.1030302176026" cy="126.40604020618044" r="0.5789662565987013" fill="#fff" opacity="0.2065639253721023"/><circle cx="387.8240857431255" cy="279.83528940562053" r="0.6278246223525668" fill="#fff" opacity="0.5450791968836168"/><circle cx="1799.748141439573" cy="300.0931027857804" r="0.774888378631996" fill="#fff" opacity="0.3037943021170316"/><circle cx="1405.146725951961" cy="238.21444846275597" r="0.9607437329741064" fill="#fff" opacity="0.24178809994873315"/><circle cx="1594.5481582718317" cy="316.3150439700845" r="1.7588115289711421" fill="#fff" opacity="0.6240438276026501"/><circle cx="44.67508033958149" cy="71.88470174183247" r="1.4939559493199819" fill="#fff" opacity="0.5784077020777407"/><circle cx="419.6250514173007" cy="179.25990431086623" r="0.8600299000646989" fill="#fff" opacity="0.341858110982426"/><circle cx="1067.0811373989752" cy="429.74859670124687" r="0.5341576541620674" fill="#fff" opacity="0.6232491695376228"/><circle cx="943.4012731126047" cy="48.162876773663534" r="1.9478176204599016" fill="#fff" opacity="0.5478565483232627"/><circle cx="1305.5063705205698" cy="422.43071655706285" r="1.689526133749058" fill="#fff" opacity="0.7062934449190026"/><circle cx="362.2792210528346" cy="26.882750591934368" r="1.6762599681215966" fill="#fff" opacity="0.5727462901670362"/><circle cx="1128.475965673215" cy="303.29948662205123" r="1.5585301841046963" fill="#fff" opacity="0.558693517082998"/><circle cx="1140.7633015189235" cy="96.5755931699126" r="1.6103995945561675" fill="#fff" opacity="0.3235888797611904"/><circle cx="1866.3737784201219" cy="310.48187212796927" r="0.6333768557834851" fill="#fff" opacity="0.2869914504901952"/><circle cx="1772.8699399188324" cy="68.10218121951962" r="1.1610166966358704" fill="#fff" opacity="0.23787842603350953"/><circle cx="516.5361675332617" cy="5.0238587905242715" r="1.7472367308212529" fill="#fff" opacity="0.5306943846239462"/><circle cx="489.240191394752" cy="252.81056191325436" r="1.8679519248818865" fill="#fff" opacity="0.28806919294597333"/><circle cx="455.16221936213833" cy="230.73644466482483" r="0.6230839911436392" fill="#fff" opacity="0.495442520150785"/><circle cx="946.7526445506962" cy="260.02358384524086" r="1.1775276461098176" fill="#fff" opacity="0.2105550462404627"/><circle cx="218.05766304444" cy="271.68574529506395" r="1.118222696850594" fill="#fff" opacity="0.4977654591430364"/><circle cx="935.5966917368576" cy="50.7630617252465" r="1.7284583633831838" fill="#fff" opacity="0.7481818442577919"/><circle cx="472.22320865658656" cy="340.73009239619836" r="1.3096796110760605" fill="#fff" opacity="0.4174389645963532"/><circle cx="486.8067085386269" cy="199.2528565244872" r="1.193636202065655" fill="#fff" opacity="0.5215113898556474"/><circle cx="356.88168310487686" cy="52.84395226948987" r="0.7265313107582114" fill="#fff" opacity="0.6949371608195214"/><rect x="23.460383229763337" y="753.9475358449732" width="76.06160693943073" height="117.6558727439623" fill="#073b4c" opacity="0.6513370555945059" rx="2"/><rect x="55.538776800627545" y="763.9475358449732" width="11.904819797702324" height="6.45785344588986" fill="#118ab2" opacity="0.46057469187317757" rx="1"/><rect x="36.523375065769855" y="767.1764625679182" width="11.904819797702324" height="6.45785344588986" fill="#06d6a0" opacity="0.23028734593658878" rx="1"/><rect x="58.82592866891668" y="783.556847968967" width="5.3305160611240465" height="9.143875259706721" fill="#118ab2" opacity="0.503428848810361" rx="1"/><rect x="39.810526934059" y="788.1287855988203" width="5.3305160611240465" height="9.143875259706721" fill="#06d6a0" opacity="0.2517144244051805" rx="1"/><rect x="58.25182554806859" y="803.1661600929607" width="6.478722302820236" height="8.122628745185823" fill="#118ab2" opacity="0.40764451478785946" rx="1"/><rect x="39.236423813210905" y="807.2274744655537" width="6.478722302820236" height="8.122628745185823" fill="#06d6a0" opacity="0.20382225739392973" rx="1"/><rect x="56.82411860577393" y="822.7754722169544" width="9.334136187409548" height="9.573418855567793" fill="#118ab2" opacity="0.24365989671639632" rx="1"/><rect x="37.80871687091624" y="827.5621816447383" width="9.334136187409548" height="9.573418855567793" fill="#06d6a0" opacity="0.12182994835819816" rx="1"/><rect x="59.447271449129865" y="842.384784340948" width="4.087830500697677" height="6.401962596085379" fill="#118ab2" opacity="0.5222985555935415" rx="1"/><rect x="40.43186971427218" y="845.5857656389908" width="4.087830500697677" height="6.401962596085379" fill="#06d6a0" opacity="0.2611492777967708" rx="1"/><rect x="56.72764502738781" y="861.9940964649418" width="9.527083344181786" height="9.817541516343491" fill="#118ab2" opacity="0.19482115649031967" rx="1"/><rect x="37.712243292530125" y="866.9028672231135" width="9.527083344181786" height="9.817541516343491" fill="#06d6a0" opacity="0.09741057824515983" rx="1"/><rect x="117.87063216973809" y="711.5062883150546" width="81.56654950500618" height="160.09712027388093" fill="#002132" opacity="0.4584466130375971" rx="2"/><rect x="156.57339664119604" y="721.5062883150546" width="4.161020562090218" height="9.61539036119715" fill="#118ab2" opacity="0.23971254209515466" rx="1"/><rect x="136.1817592649445" y="726.3139834956531" width="4.161020562090218" height="9.61539036119715" fill="#06d6a0" opacity="0.11985627104757733" rx="1"/><rect x="152.9089517961044" y="748.1891416940348" width="11.489910252273528" height="7.562502765460523" fill="#118ab2" opacity="0.13545184201455018" rx="1"/><rect x="132.51731441985285" y="751.970393076765" width="11.489910252273528" height="7.562502765460523" fill="#06d6a0" opacity="0.06772592100727509" rx="1"/><rect x="155.72157272061366" y="774.8719950730149" width="5.864668403254978" height="9.4913474441253" fill="#118ab2" opacity="0.40776655622938796" rx="1"/><rect x="135.32993534436213" y="779.6176687950775" width="5.864668403254978" height="9.4913474441253" fill="#06d6a0" opacity="0.20388327811469398" rx="1"/><rect x="156.0751874570444" y="801.554848451995" width="5.157438930393532" height="7.75348071049747" fill="#118ab2" opacity="0.3242802179475036" rx="1"/><rect x="135.68355008079286" y="805.4315888072438" width="5.157438930393532" height="7.75348071049747" fill="#06d6a0" opacity="0.1621401089737518" rx="1"/><rect x="155.3474397268955" y="828.2377018309752" width="6.6129343906913265" height="7.597680733911153" fill="#118ab2" opacity="0.5068020869527948" rx="1"/><rect x="134.95580235064395" y="832.0365421979308" width="6.6129343906913265" height="7.597680733911153" fill="#06d6a0" opacity="0.2534010434763974" rx="1"/><rect x="155.27946995391497" y="854.9205552099554" width="6.7488739366524095" height="7.903590799752528" fill="#118ab2" opacity="0.29266039975747943" rx="1"/><rect x="134.88783257766343" y="858.8723506098316" width="6.7488739366524095" height="7.903590799752528" fill="#06d6a0" opacity="0.14633019987873971" rx="1"/><rect x="250.6800128800515" y="692.5261673500124" width="57.58961032787096" height="179.07724123892308" fill="#073b4c" opacity="0.46902737279167106" rx="2"/><rect x="276.9629814862187" y="702.5261673500124" width="5.023673115536495" height="9.300133236520955" fill="#118ab2" opacity="0.2492054311440339" rx="1"/><rect x="262.565578904251" y="707.1762339682729" width="5.023673115536495" height="9.300133236520955" fill="#06d6a0" opacity="0.12460271557201695" rx="1"/><rect x="273.661397260302" y="732.3723742231663" width="11.62684156736984" height="6.731419554150528" fill="#118ab2" opacity="0.2839333150265583" rx="1"/><rect x="259.2639946783343" y="735.7380840002415" width="11.62684156736984" height="6.731419554150528" fill="#06d6a0" opacity="0.14196665751327914" rx="1"/><rect x="277.4368764409881" y="762.2185810963201" width="4.07588320599773" height="9.825153321918368" fill="#118ab2" opacity="0.2873660666605844" rx="1"/><rect x="263.0394738590204" y="767.1311577572793" width="4.07588320599773" height="9.825153321918368" fill="#06d6a0" opacity="0.1436830333302922" rx="1"/><rect x="274.8681384483045" y="792.064787969474" width="9.213359191364926" height="8.481800421718926" fill="#118ab2" opacity="0.5717407762007184" rx="1"/><rect x="260.4707358663368" y="796.3056881803334" width="9.213359191364926" height="8.481800421718926" fill="#06d6a0" opacity="0.2858703881003592" rx="1"/><rect x="276.63852236551196" y="821.9109948426278" width="5.672591356950019" height="9.546198843872686" fill="#118ab2" opacity="0.3032285187633774" rx="1"/><rect x="262.24111978354426" y="826.6840942645641" width="5.672591356950019" height="9.546198843872686" fill="#06d6a0" opacity="0.1516142593816887" rx="1"/><rect x="277.2455635634822" y="851.7572017157817" width="4.4585089610094455" height="7.569334050074531" fill="#118ab2" opacity="0.25691707438251865" rx="1"/><rect x="262.8481609815145" y="855.5418687408189" width="4.4585089610094455" height="7.569334050074531" fill="#06d6a0" opacity="0.12845853719125933" rx="1"/><rect x="340.33255644383206" y="735.5362006313019" width="31.15098767475015" height="136.0672079576336" fill="#073b4c" opacity="0.6339551232135751" rx="2"/><rect x="353.1682478422691" y="745.5362006313019" width="5.479604877876026" height="9.20237520411666" fill="#118ab2" opacity="0.5749418483057389" rx="1"/><rect x="345.3805009235816" y="750.1373882333602" width="5.479604877876026" height="9.20237520411666" fill="#06d6a0" opacity="0.28747092415286946" rx="1"/><rect x="352.24306629766784" y="762.544601626006" width="7.329967967078548" height="7.9413436590557325" fill="#118ab2" opacity="0.5384100403260463" rx="1"/><rect x="344.45531937898033" y="766.5152734555339" width="7.329967967078548" height="7.9413436590557325" fill="#06d6a0" opacity="0.26920502016302317" rx="1"/><rect x="350.76104727428435" y="779.5530026207102" width="10.29400601384556" height="8.919812629679175" fill="#118ab2" opacity="0.21609912806099726" rx="1"/><rect x="342.97330035559685" y="784.0129089355498" width="10.29400601384556" height="8.919812629679175" fill="#06d6a0" opacity="0.10804956403049863" rx="1"/><rect x="353.19868008238234" y="796.5614036154145" width="5.418740397649524" height="9.126913714019329" fill="#118ab2" opacity="0.40452164874983054" rx="1"/><rect x="345.41093316369484" y="801.1248604724242" width="5.418740397649524" height="9.126913714019329" fill="#06d6a0" opacity="0.20226082437491527" rx="1"/><rect x="351.64291904928234" y="813.5698046101187" width="8.530262463849564" height="6.3982133428562" fill="#118ab2" opacity="0.34704741436220876" rx="1"/><rect x="343.85517213059484" y="816.7689112815468" width="8.530262463849564" height="6.3982133428562" fill="#06d6a0" opacity="0.17352370718110438" rx="1"/><rect x="351.9229559448834" y="830.5782056048229" width="7.97018867264739" height="8.159549109209223" fill="#118ab2" opacity="0.2226939446345656" rx="1"/><rect x="344.1352090261959" y="834.6579801594274" width="7.97018867264739" height="8.159549109209223" fill="#06d6a0" opacity="0.1113469723172828" rx="1"/><rect x="352.539599184771" y="847.586606599527" width="6.736902192872227" height="8.071820218598429" fill="#118ab2" opacity="0.3912463834023211" rx="1"/><rect x="344.7518522660835" y="851.6225167088263" width="6.736902192872227" height="8.071820218598429" fill="#06d6a0" opacity="0.19562319170116055" rx="1"/><rect x="351.7358292654939" y="864.5950075942312" width="8.344442031426457" height="9.558618301422944" fill="#118ab2" opacity="0.4840281510222769" rx="1"/><rect x="343.9480823468064" y="869.3743167449427" width="8.344442031426457" height="9.558618301422944" fill="#06d6a0" opacity="0.24201407551113846" rx="1"/><rect x="478.48990732070286" y="590.055909564266" width="31.517331172134107" height="281.5474990246695" fill="#002132" opacity="0.4931769978239148" rx="2"/><rect x="492.18257430223343" y="600.055909564266" width="4.1319972090730435" height="8.21614327333312" fill="#118ab2" opacity="0.5010170582684262" rx="1"/><rect x="484.3032415091999" y="604.1639812009325" width="4.1319972090730435" height="8.21614327333312" fill="#06d6a0" opacity="0.2505085291342131" rx="1"/><rect x="490.25688953494114" y="646.9804927350442" width="7.983366743657591" height="6.856713579235764" fill="#118ab2" opacity="0.416828735246516" rx="1"/><rect x="482.3775567419076" y="650.4088495246621" width="7.983366743657591" height="6.856713579235764" fill="#06d6a0" opacity="0.208414367623258" rx="1"/><rect x="490.59618785688565" y="693.9050759058225" width="7.304770099768595" height="6.028319286189117" fill="#118ab2" opacity="0.2539610838876015" rx="1"/><rect x="482.7168550638521" y="696.9192355489171" width="7.304770099768595" height="6.028319286189117" fill="#06d6a0" opacity="0.12698054194380076" rx="1"/><rect x="490.61384402020224" y="740.8296590766008" width="7.269457773135382" height="6.390074558646901" fill="#118ab2" opacity="0.3390489245855829" rx="1"/><rect x="482.7345112271687" y="744.0246963559242" width="7.269457773135382" height="6.390074558646901" fill="#06d6a0" opacity="0.16952446229279144" rx="1"/><rect x="491.2619428579374" y="787.754242247379" width="5.973260097665074" height="6.5595860128662515" fill="#118ab2" opacity="0.5848011449176821" rx="1"/><rect x="483.3826100649039" y="791.0340352538121" width="5.973260097665074" height="6.5595860128662515" fill="#06d6a0" opacity="0.29240057245884105" rx="1"/><rect x="489.22121559414575" y="834.6788254181572" width="10.054714625248387" height="6.594663543765122" fill="#118ab2" opacity="0.35780342781399455" rx="1"/><rect x="481.3418828011122" y="837.9761571900398" width="10.054714625248387" height="6.594663543765122" fill="#06d6a0" opacity="0.17890171390699727" rx="1"/><rect x="588.8670412541524" y="631.6286384667337" width="38.03521014005766" height="239.97477012220185" fill="#073b4c" opacity="0.4811767325227095" rx="2"/><rect x="604.5978473931547" y="641.6286384667337" width="6.573597862053103" height="7.110645533797947" fill="#118ab2" opacity="0.13324026359087793" rx="1"/><rect x="595.0890448581403" y="645.1839612336327" width="6.573597862053103" height="7.110645533797947" fill="#06d6a0" opacity="0.06662013179543896" rx="1"/><rect x="604.9503778605607" y="671.625484732009" width="5.868536927241026" height="9.497159360790896" fill="#118ab2" opacity="0.38240670980476" rx="1"/><rect x="595.4415753255463" y="676.3740644124044" width="5.868536927241026" height="9.497159360790896" fill="#06d6a0" opacity="0.19120335490238" rx="1"/><rect x="603.7851312860812" y="701.6223309972842" width="8.199030076199918" height="7.341989916130432" fill="#118ab2" opacity="0.554461093981392" rx="1"/><rect x="594.2763287510668" y="705.2933259553494" width="8.199030076199918" height="7.341989916130432" fill="#06d6a0" opacity="0.277230546990696" rx="1"/><rect x="603.2332793074272" y="731.6191772625594" width="9.302734033507932" height="8.89014911718903" fill="#118ab2" opacity="0.37331979020343153" rx="1"/><rect x="593.7244767724128" y="736.064251821154" width="9.302734033507932" height="8.89014911718903" fill="#06d6a0" opacity="0.18665989510171577" rx="1"/><rect x="604.6325721092599" y="761.6160235278346" width="6.504148429842701" height="6.141831706311049" fill="#118ab2" opacity="0.3557440376271829" rx="1"/><rect x="595.1237695742454" y="764.6869393809901" width="6.504148429842701" height="6.141831706311049" fill="#06d6a0" opacity="0.17787201881359144" rx="1"/><rect x="605.7016193770575" y="791.6128697931099" width="4.366053894247407" height="7.717348364581667" fill="#118ab2" opacity="0.47342834807313705" rx="1"/><rect x="596.192816842043" y="795.4715439754008" width="4.366053894247407" height="7.717348364581667" fill="#06d6a0" opacity="0.23671417403656853" rx="1"/><rect x="605.3494224209221" y="821.6097160583852" width="5.070447806518164" height="6.8310951937062425" fill="#118ab2" opacity="0.4095598566135298" rx="1"/><rect x="595.8406198859077" y="825.0252636552383" width="5.070447806518164" height="6.8310951937062425" fill="#06d6a0" opacity="0.2047799283067649" rx="1"/><rect x="605.6576698242355" y="851.6065623236603" width="4.453952999891237" height="8.924567175778693" fill="#118ab2" opacity="0.23927241033857513" rx="1"/><rect x="596.1488672892211" y="856.0688459115497" width="4.453952999891237" height="8.924567175778693" fill="#06d6a0" opacity="0.11963620516928757" rx="1"/><rect x="698.506804525039" y="736.7036944806352" width="49.90575853267353" height="134.89971410830032" fill="#073b4c" opacity="0.4977166559309039" rx="2"/><rect x="717.7786150562528" y="746.7036944806352" width="11.362137470245859" height="6.380820382475113" fill="#118ab2" opacity="0.230559449347332" rx="1"/><rect x="705.3021754230845" y="749.8941046718728" width="11.362137470245859" height="6.380820382475113" fill="#06d6a0" opacity="0.115279724673666" rx="1"/><rect x="718.8602083464759" y="780.4286230077104" width="9.1989508897995" height="9.975524122821056" fill="#118ab2" opacity="0.39561102455379704" rx="1"/><rect x="706.3837687133076" y="785.4163850691209" width="9.1989508897995" height="9.975524122821056" fill="#06d6a0" opacity="0.19780551227689852" rx="1"/><rect x="721.1696069031418" y="814.1535515347854" width="4.580153776467814" height="9.763125719447416" fill="#118ab2" opacity="0.15254506856495167" rx="1"/><rect x="708.6931672699735" y="819.035114394509" width="4.580153776467814" height="9.763125719447416" fill="#06d6a0" opacity="0.07627253428247584" rx="1"/><rect x="719.4409556948676" y="847.8784800618605" width="8.03745619301625" height="7.701285165199378" fill="#118ab2" opacity="0.29275518779008536" rx="1"/><rect x="706.9645160616993" y="851.7291226444602" width="8.03745619301625" height="7.701285165199378" fill="#06d6a0" opacity="0.14637759389504268" rx="1"/><rect x="796.0608302862524" y="493.55786612573036" width="49.92164591325485" height="378.04554246320515" fill="#073b4c" opacity="0.6096652745990234" rx="2"/><rect x="815.2054140219011" y="503.55786612573036" width="11.632478441957495" height="6.471504809444655" fill="#118ab2" opacity="0.26874159410799425" rx="1"/><rect x="802.7250025435874" y="506.7936185304527" width="11.632478441957495" height="6.471504809444655" fill="#06d6a0" opacity="0.13437079705399713" rx="1"/><rect x="816.2199097795458" y="550.813558933631" width="9.603486926668204" height="9.186560856920332" fill="#118ab2" opacity="0.26077982964012303" rx="1"/><rect x="803.7394983012321" y="555.4068393620912" width="9.603486926668204" height="9.186560856920332" fill="#06d6a0" opacity="0.13038991482006151" rx="1"/><rect x="817.3449498425109" y="598.0692517415316" width="7.3534068007379325" height="9.046153819897714" fill="#118ab2" opacity="0.278632653825598" rx="1"/><rect x="804.8645383641972" y="602.5923286514804" width="7.3534068007379325" height="9.046153819897714" fill="#06d6a0" opacity="0.139316326912799" rx="1"/><rect x="818.1199490169807" y="645.3249445494323" width="5.8034084517982345" height="7.095237141730086" fill="#118ab2" opacity="0.4551381132228156" rx="1"/><rect x="805.639537538667" y="648.8725631202974" width="5.8034084517982345" height="7.095237141730086" fill="#06d6a0" opacity="0.2275690566114078" rx="1"/><rect x="816.4894493425938" y="692.580637357333" width="9.064407800572088" height="9.413310192388789" fill="#118ab2" opacity="0.34107076745505227" rx="1"/><rect x="804.0090378642801" y="697.2872924535274" width="9.064407800572088" height="9.413310192388789" fill="#06d6a0" opacity="0.17053538372752614" rx="1"/><rect x="818.2863444260522" y="739.8363301652336" width="5.470617633655346" height="7.726212205767215" fill="#118ab2" opacity="0.23839504871014391" rx="1"/><rect x="805.8059329477385" y="743.6994362681172" width="5.470617633655346" height="7.726212205767215" fill="#06d6a0" opacity="0.11919752435507196" rx="1"/><rect x="816.627263150091" y="787.0920229731342" width="8.788780185577641" height="7.995886815245237" fill="#118ab2" opacity="0.3719830674519723" rx="1"/><rect x="804.1468516717773" y="791.0899663807569" width="8.788780185577641" height="7.995886815245237" fill="#06d6a0" opacity="0.18599153372598615" rx="1"/><rect x="815.9203875099589" y="834.3477157810348" width="10.202531465842046" height="8.905764169736244" fill="#118ab2" opacity="0.19374536098766731" rx="1"/><rect x="803.4399760316452" y="838.800597865903" width="10.202531465842046" height="8.905764169736244" fill="#06d6a0" opacity="0.09687268049383366" rx="1"/><rect x="924.7694814472388" y="530.9306532216563" width="52.389371344444655" height="340.67275536727925" fill="#073b4c" opacity="0.581045597577711" rx="2"/><rect x="946.5039379828386" y="540.9306532216563" width="8.920458273245128" height="7.224592215666686" fill="#118ab2" opacity="0.40177607033443086" rx="1"/><rect x="933.4065951467273" y="544.5429493294896" width="8.920458273245128" height="7.224592215666686" fill="#06d6a0" opacity="0.20088803516721543" rx="1"/><rect x="945.6108105905845" y="626.098842063476" width="10.70671305775333" height="8.586625410846114" fill="#118ab2" opacity="0.550965059676898" rx="1"/><rect x="932.5134677544733" y="630.3921547688991" width="10.70671305775333" height="8.586625410846114" fill="#06d6a0" opacity="0.275482529838449" rx="1"/><rect x="947.1127952961514" y="711.2670309052959" width="7.702743646619549" height="6.166573040226142" fill="#118ab2" opacity="0.26549924962816274" rx="1"/><rect x="934.0154524600401" y="714.350317425409" width="7.702743646619549" height="6.166573040226142" fill="#06d6a0" opacity="0.13274962481408137" rx="1"/><rect x="948.7400887184172" y="796.4352197471158" width="4.448156802088059" height="6.731553381479241" fill="#118ab2" opacity="0.29206360603963577" rx="1"/><rect x="935.6427458823059" y="799.8009964378554" width="4.448156802088059" height="6.731553381479241" fill="#06d6a0" opacity="0.14603180301981789" rx="1"/><rect x="1032.7805759997061" y="512.288175852105" width="38.58049549362168" height="359.3152327368304" fill="#073b4c" opacity="0.5359900422710903" rx="2"/><rect x="1048.5031893200946" y="522.288175852105" width="7.135268852844664" height="9.306277246052929" fill="#118ab2" opacity="0.3046333885995283" rx="1"/><rect x="1038.8580654466894" y="526.9413144751315" width="7.135268852844664" height="9.306277246052929" fill="#06d6a0" opacity="0.15231669429976416" rx="1"/><rect x="1046.4232958190662" y="612.1169840363126" width="11.295055854901452" height="6.073519614542257" fill="#118ab2" opacity="0.48820002632872206" rx="1"/><rect x="1036.778171945661" y="615.1537438435837" width="11.295055854901452" height="6.073519614542257" fill="#06d6a0" opacity="0.24410001316436103" rx="1"/><rect x="1049.3008159814171" y="701.9457922205203" width="5.540015530199748" height="6.993972011141938" fill="#118ab2" opacity="0.2635885946833502" rx="1"/><rect x="1039.6556921080119" y="705.4427782260913" width="5.540015530199748" height="6.993972011141938" fill="#06d6a0" opacity="0.1317942973416751" rx="1"/><rect x="1048.5555430207296" y="791.7746004047278" width="7.030561451574453" height="8.005536653568395" fill="#118ab2" opacity="0.5866996672904816" rx="1"/><rect x="1038.9104191473243" y="795.7773687315121" width="7.030561451574453" height="8.005536653568395" fill="#06d6a0" opacity="0.2933498336452408" rx="1"/><rect x="1144.5006898987342" y="667.0497798051335" width="88.97872744569992" height="204.55362878380197" fill="#002132" opacity="0.6084368635221471" rx="2"/><rect x="1184.8705619144885" y="677.0497798051335" width="8.238983414191516" height="9.714916547693992" fill="#118ab2" opacity="0.41323581836494516" rx="1"/><rect x="1162.6258800530636" y="681.9072380789805" width="8.238983414191516" height="9.714916547693992" fill="#06d6a0" opacity="0.20661790918247258" rx="1"/><rect x="1183.2556296713315" y="702.6189834031088" width="11.468847900505375" height="9.829234541354058" fill="#118ab2" opacity="0.3702289876225938" rx="1"/><rect x="1161.0109478099066" y="707.5336006737858" width="11.468847900505375" height="9.829234541354058" fill="#06d6a0" opacity="0.1851144938112969" rx="1"/><rect x="1183.2100925925677" y="728.1881870010841" width="11.559922058032807" height="6.464837862286911" fill="#118ab2" opacity="0.19300349794630975" rx="1"/><rect x="1160.9654107311428" y="731.4206059322275" width="11.559922058032807" height="6.464837862286911" fill="#06d6a0" opacity="0.09650174897315487" rx="1"/><rect x="1184.833151239863" y="753.7573905990592" width="8.313804763442326" height="8.506416719990414" fill="#118ab2" opacity="0.21176380343077794" rx="1"/><rect x="1162.588469378438" y="758.0105989590545" width="8.313804763442326" height="8.506416719990414" fill="#06d6a0" opacity="0.10588190171538897" rx="1"/><rect x="1185.2487229304968" y="779.3265941970345" width="7.482661382174739" height="8.645628932548135" fill="#118ab2" opacity="0.540464537809711" rx="1"/><rect x="1163.004041069072" y="783.6494086633086" width="7.482661382174739" height="8.645628932548135" fill="#06d6a0" opacity="0.2702322689048555" rx="1"/><rect x="1183.115580964395" y="804.8957977950098" width="11.748945314378698" height="7.019066084413572" fill="#118ab2" opacity="0.5180258796359473" rx="1"/><rect x="1160.87089910297" y="808.4053308372166" width="11.748945314378698" height="7.019066084413572" fill="#06d6a0" opacity="0.25901293981797363" rx="1"/><rect x="1184.8933432940146" y="830.465001392985" width="8.193420655139121" height="8.236728083863092" fill="#118ab2" opacity="0.16612827839938185" rx="1"/><rect x="1162.6486614325897" y="834.5833654349165" width="8.193420655139121" height="8.236728083863092" fill="#06d6a0" opacity="0.08306413919969093" rx="1"/><rect x="1183.3637473551473" y="856.0342049909602" width="11.25261253287378" height="6.875638238358227" fill="#118ab2" opacity="0.46894919778428723" rx="1"/><rect x="1161.1190654937225" y="859.4720241101394" width="11.25261253287378" height="6.875638238358227" fill="#06d6a0" opacity="0.23447459889214362" rx="1"/><rect x="1268.6886044844728" y="666.9915440182648" width="70.44814100965115" height="204.61186457067072" fill="#073b4c" opacity="0.6030797469669673" rx="2"/><rect x="1298.53337304097" y="676.9915440182648" width="10.75860389665668" height="6.068526220523875" fill="#118ab2" opacity="0.23669385240336271" rx="1"/><rect x="1280.9213377885574" y="680.0258071285267" width="10.75860389665668" height="6.068526220523875" fill="#06d6a0" opacity="0.11834692620168136" rx="1"/><rect x="1300.040885612611" y="728.1445101609324" width="7.743578753374418" height="6.269259928788352" fill="#118ab2" opacity="0.5408879834089633" rx="1"/><rect x="1282.4288503601983" y="731.2791401253266" width="7.743578753374418" height="6.269259928788352" fill="#06d6a0" opacity="0.27044399170448163" rx="1"/><rect x="1301.0739757786678" y="779.2974763036002" width="5.677398421260854" height="7.060352308922529" fill="#118ab2" opacity="0.5857867307695064" rx="1"/><rect x="1283.4619405262551" y="782.8276524580615" width="5.677398421260854" height="7.060352308922529" fill="#06d6a0" opacity="0.2928933653847532" rx="1"/><rect x="1300.3569732469873" y="830.4504424462679" width="7.111403484621878" height="7.631866350218623" fill="#118ab2" opacity="0.36900175883644304" rx="1"/><rect x="1282.7449379945747" y="834.2663756213772" width="7.111403484621878" height="7.631866350218623" fill="#06d6a0" opacity="0.18450087941822152" rx="1"/><rect x="1356.836846223296" y="715.0323707878199" width="85.440877297763" height="156.57103780111555" fill="#002132" opacity="0.6834143537989386" rx="2"/><rect x="1393.5794361784544" y="725.0323707878199" width="11.955697387446579" height="6.669417954205866" fill="#118ab2" opacity="0.4315754503318051" rx="1"/><rect x="1372.2192168540137" y="728.3670797649228" width="11.955697387446579" height="6.669417954205866" fill="#06d6a0" opacity="0.21578772516590256" rx="1"/><rect x="1395.7478483735465" y="777.2227167215251" width="7.618872997262253" height="6.612472790435998" fill="#118ab2" opacity="0.17939210163415226" rx="1"/><rect x="1374.3876290491057" y="780.5289531167431" width="7.618872997262253" height="6.612472790435998" fill="#06d6a0" opacity="0.08969605081707613" rx="1"/><rect x="1393.6423202773192" y="829.4130626552303" width="11.829929189716914" height="6.893757106013074" fill="#118ab2" opacity="0.1598156061162743" rx="1"/><rect x="1372.2821009528784" y="832.8599412082368" width="11.829929189716914" height="6.893757106013074" fill="#06d6a0" opacity="0.07990780305813715" rx="1"/><rect x="1468.2840141603451" y="608.589526407558" width="33.985986771058755" height="263.0138821813776" fill="#073b4c" opacity="0.6879154975497899" rx="2"/><rect x="1479.5331406897242" y="618.589526407558" width="11.487733712300596" height="8.974368339165665" fill="#118ab2" opacity="0.3380485206931011" rx="1"/><rect x="1471.0366439969594" y="623.0767105771408" width="11.487733712300596" height="8.974368339165665" fill="#06d6a0" opacity="0.16902426034655055" rx="1"/><rect x="1482.584026589427" y="706.2608204680172" width="5.385961912895079" height="9.970365032546773" fill="#118ab2" opacity="0.27232588868875196" rx="1"/><rect x="1474.087529896662" y="711.2460029842906" width="5.385961912895079" height="9.970365032546773" fill="#06d6a0" opacity="0.13616294434437598" rx="1"/><rect x="1479.7839440635366" y="793.9321145284764" width="10.986126964675758" height="9.175085425184827" fill="#118ab2" opacity="0.455354535359739" rx="1"/><rect x="1471.2874473707718" y="798.5196572410688" width="10.986126964675758" height="9.175085425184827" fill="#06d6a0" opacity="0.2276772676798695" rx="1"/><rect x="1609.4503329716272" y="788.7951849235211" width="75.18307932773212" height="82.80822366541443" fill="#002132" opacity="0.6001696968684368" rx="2"/><rect x="1642.2738737858072" y="798.7951849235211" width="9.53599769937247" height="6.99953154870298" fill="#118ab2" opacity="0.2923434284265022" rx="1"/><rect x="1623.478103953874" y="802.2949506978727" width="9.53599769937247" height="6.99953154870298" fill="#06d6a0" opacity="0.1461717142132511" rx="1"/><rect x="1643.1405681916838" y="815.356829656604" width="7.802608887619015" height="7.688275060078193" fill="#118ab2" opacity="0.5412836587152638" rx="1"/><rect x="1624.3447983597507" y="819.2009671866431" width="7.802608887619015" height="7.688275060078193" fill="#06d6a0" opacity="0.2706418293576319" rx="1"/><rect x="1644.6478984271287" y="831.9184743896869" width="4.787948416729446" height="6.459008884723067" fill="#118ab2" opacity="0.5818925847024407" rx="1"/><rect x="1625.8521285951956" y="835.1479788320485" width="4.787948416729446" height="6.459008884723067" fill="#06d6a0" opacity="0.2909462923512203" rx="1"/><rect x="1642.5011195581174" y="848.4801191227698" width="9.081506154751755" height="7.874321274895761" fill="#118ab2" opacity="0.5149122863111347" rx="1"/><rect x="1623.7053497261843" y="852.4172797602176" width="9.081506154751755" height="7.874321274895761" fill="#06d6a0" opacity="0.25745614315556736" rx="1"/><rect x="1643.617420308901" y="865.0417638558527" width="6.848904653184327" height="8.319085524957414" fill="#118ab2" opacity="0.10735885603524718" rx="1"/><rect x="1624.821650476968" y="869.2013066183314" width="6.848904653184327" height="8.319085524957414" fill="#06d6a0" opacity="0.05367942801762359" rx="1"/><rect x="1694.439976686714" y="585.6620289584766" width="54.17248576510988" height="285.94137963045887" fill="#002132" opacity="0.5946109768223509" rx="2"/><rect x="1718.047063793765" y="595.6620289584766" width="6.958311551007981" height="8.16175536116626" fill="#118ab2" opacity="0.15574797293072287" rx="1"/><rect x="1704.5039423524875" y="599.7429066390598" width="6.958311551007981" height="8.16175536116626" fill="#06d6a0" opacity="0.07787398646536144" rx="1"/><rect x="1719.1551869130121" y="643.3189255635531" width="4.742065312513631" height="8.775801252288698" fill="#118ab2" opacity="0.40132884655644396" rx="1"/><rect x="1705.6120654717347" y="647.7068261896974" width="4.742065312513631" height="8.775801252288698" fill="#06d6a0" opacity="0.20066442327822198" rx="1"/><rect x="1717.1201013210507" y="690.9758221686296" width="8.812236496436466" height="7.459604451772664" fill="#118ab2" opacity="0.14359351926101221" rx="1"/><rect x="1703.5769798797733" y="694.705624394516" width="8.812236496436466" height="7.459604451772664" fill="#06d6a0" opacity="0.07179675963050611" rx="1"/><rect x="1716.791106149971" y="738.6327187737061" width="9.470226838595753" height="7.813975978133729" fill="#118ab2" opacity="0.2068198920941958" rx="1"/><rect x="1703.2479847086936" y="742.539706762773" width="9.470226838595753" height="7.813975978133729" fill="#06d6a0" opacity="0.1034099460470979" rx="1"/><rect x="1716.0104670601454" y="786.2896153787825" width="11.031505018247177" height="6.0882253907826325" fill="#118ab2" opacity="0.2713713906173062" rx="1"/><rect x="1702.467345618868" y="789.3337280741738" width="11.031505018247177" height="6.0882253907826325" fill="#06d6a0" opacity="0.1356856953086531" rx="1"/><rect x="1717.6218876267367" y="833.946511983859" width="7.808663885064577" height="6.147937144187265" fill="#118ab2" opacity="0.3028617305222111" rx="1"/><rect x="1704.0787661854592" y="837.0204805559525" width="7.808663885064577" height="6.147937144187265" fill="#06d6a0" opacity="0.15143086526110555" rx="1"/><rect x="1824.2209019498482" y="764.370766250503" width="83.60466685928513" height="107.23264233843253" fill="#002132" opacity="0.645145860464579" rx="2"/><rect x="1863.776056858426" y="774.370766250503" width="4.4943570421297006" height="6.176887300837992" fill="#118ab2" opacity="0.3949153340409779" rx="1"/><rect x="1842.8748901436047" y="777.459209900922" width="4.4943570421297006" height="6.176887300837992" fill="#06d6a0" opacity="0.19745766702048895" rx="1"/><rect x="1860.20660996698" y="787.7748465428072" width="11.633250825021708" height="9.996718273497354" fill="#118ab2" opacity="0.34825577327242485" rx="1"/><rect x="1839.3054432521587" y="792.7732056795559" width="11.633250825021708" height="9.996718273497354" fill="#06d6a0" opacity="0.17412788663621243" rx="1"/><rect x="1863.1401162208385" y="801.1789268351112" width="5.766238317304812" height="8.708959267174118" fill="#118ab2" opacity="0.185991194026077" rx="1"/><rect x="1842.2389495060172" y="805.5334064686982" width="5.766238317304812" height="8.708959267174118" fill="#06d6a0" opacity="0.0929955970130385" rx="1"/><rect x="1860.310251133356" y="814.5830071274153" width="11.425968492269973" height="9.820569190154917" fill="#118ab2" opacity="0.4144600152304536" rx="1"/><rect x="1839.4090844185346" y="819.4932917224927" width="11.425968492269973" height="9.820569190154917" fill="#06d6a0" opacity="0.2072300076152268" rx="1"/><rect x="1863.9944644195482" y="827.9870874197193" width="4.057541919885562" height="9.451712231955424" fill="#118ab2" opacity="0.40290430663221155" rx="1"/><rect x="1843.0932977047269" y="832.712943535697" width="4.057541919885562" height="9.451712231955424" fill="#06d6a0" opacity="0.20145215331610578" rx="1"/><rect x="1860.8737752567683" y="841.3911677120234" width="10.298920245445082" height="6.031815877191679" fill="#118ab2" opacity="0.25290216313509783" rx="1"/><rect x="1839.972608541947" y="844.4070756506193" width="10.298920245445082" height="6.031815877191679" fill="#06d6a0" opacity="0.12645108156754892" rx="1"/><rect x="1861.6415676969666" y="854.7952480043274" width="8.763335365048455" height="7.637164337010394" fill="#118ab2" opacity="0.48776343313226556" rx="1"/><rect x="1840.7404009821453" y="858.6138301728325" width="8.763335365048455" height="7.637164337010394" fill="#06d6a0" opacity="0.24388171656613278" rx="1"/><rect x="1861.4766722443692" y="868.1993282966315" width="9.093126270243229" height="7.633279066913127" fill="#118ab2" opacity="0.1705594461342691" rx="1"/><rect x="1840.5755055295479" y="872.015967830088" width="9.093126270243229" height="7.633279066913127" fill="#06d6a0" opacity="0.08527972306713455" rx="1"/><rect x="0" y="1000" width="1920" height="80" fill="#001526" opacity="0.8"/><line x1="0" y1="1040" x2="1920" y2="1040" stroke="#118ab2" stroke-opacity="0.15" stroke-width="2" stroke-dasharray="30,20"/><rect x="0" y="930" width="1920" height="150" fill="url(#glow23)"/><rect x="0" y="980" width="1920" height="100" fill="#118ab2" opacity="0.04"/><rect x="419.0162422738542" y="1007.1871034165814" width="29.36671202289097" height="2" fill="#06d6a0" opacity="0.026699285629833883" rx="1"/><rect x="89.51478930411739" y="1019.0843016512423" width="104.82352892980526" height="2" fill="#06d6a0" opacity="0.03108334826563563" rx="1"/><rect x="1831.327881643392" y="1044.9625011079393" width="49.17749498253164" height="2" fill="#06d6a0" opacity="0.05653078964830627" rx="1"/><rect x="1256.293369824135" y="1025.1694524067384" width="42.11428892847949" height="2" fill="#06d6a0" opacity="0.030113094646975654" rx="1"/><rect x="1778.985423859904" y="1032.4052179680218" width="55.12066512720675" height="2" fill="#06d6a0" opacity="0.054209161650903795" rx="1"/><rect x="317.28494040604795" y="1014.3324123309768" width="70.9349963047856" height="2" fill="#06d6a0" opacity="0.02084276807514084" rx="1"/><rect x="503.43117144504356" y="1051.5494315632502" width="96.115971355726" height="2" fill="#06d6a0" opacity="0.02566070558635069" rx="1"/><rect x="804.9460357811641" y="1010.4772236501977" width="111.5653947022663" height="2" fill="#06d6a0" opacity="0.04228405247961266" rx="1"/><rect x="1790.7203583118321" y="1020.0538009218997" width="106.22802227880527" height="2" fill="#06d6a0" opacity="0.020084954341893307" rx="1"/><rect x="757.6500188088162" y="1041.8722448688634" width="42.62668107231769" height="2" fill="#06d6a0" opacity="0.03237006836858813" rx="1"/><rect x="699.1360895473362" y="1039.1731232123386" width="23.41312177558735" height="2" fill="#06d6a0" opacity="0.038787975436725644" rx="1"/><rect x="846.7349376265739" y="1017.5340691203098" width="64.70307048054018" height="2" fill="#06d6a0" opacity="0.02516012176991443" rx="1"/><rect x="1074.1844368991872" y="1003.4751826951921" width="81.23826954542619" height="2" fill="#06d6a0" opacity="0.05975146081292802" rx="1"/><rect x="1052.3238683706902" y="1005.803096696223" width="79.15708170718446" height="2" fill="#06d6a0" opacity="0.0407285143203867" rx="1"/><rect x="1450.2437736490378" y="1051.869376965768" width="66.50167523569002" height="2" fill="#06d6a0" opacity="0.057614534580524665" rx="1"/><rect x="974.0440430524861" y="1014.318101013619" width="71.95734488124897" height="2" fill="#06d6a0" opacity="0.037062438218170415" rx="1"/><rect x="1474.094563171755" y="1009.5514478091037" width="109.72054752281879" height="2" fill="#06d6a0" opacity="0.0458600106429914" rx="1"/><rect x="1776.7353710198624" y="1010.290529329863" width="69.57393546345969" height="2" fill="#06d6a0" opacity="0.02938262511263197" rx="1"/><rect x="494.2591154236019" y="1043.5517114828228" width="92.54873986182471" height="2" fill="#06d6a0" opacity="0.05738067588707914" rx="1"/><rect x="1909.2005901013501" y="1035.603573097755" width="81.25749451137555" height="2" fill="#06d6a0" opacity="0.04405396258087223" rx="1"/><rect x="272.1364935376068" y="1052.3571648943139" width="26.367713330864838" height="2" fill="#06d6a0" opacity="0.02252235803811866" rx="1"/><rect x="1893.07684286802" y="1011.2169455204198" width="25.578123104194674" height="2" fill="#06d6a0" opacity="0.030087828210109805" rx="1"/><rect x="851.4588320747621" y="1002.0691550946956" width="71.04237970687504" height="2" fill="#06d6a0" opacity="0.029058944519855766" rx="1"/><rect x="1477.6386352343575" y="1026.1838503196332" width="47.55061370030758" height="2" fill="#06d6a0" opacity="0.041966012125361246" rx="1"/><rect x="1630.4126411002158" y="1035.4528198194348" width="65.18099477169594" height="2" fill="#06d6a0" opacity="0.02414239408544786" rx="1"/><rect x="1751.648924460553" y="1049.6196380699098" width="35.31225797145447" height="2" fill="#06d6a0" opacity="0.04801830402296463" rx="1"/><rect x="223.54313229758833" y="1013.8670968436327" width="23.876992944599362" height="2" fill="#06d6a0" opacity="0.054617849531261684" rx="1"/><rect x="1392.6129599177775" y="1058.9557336082114" width="118.10709461991375" height="2" fill="#06d6a0" opacity="0.02726353543979664" rx="1"/><rect x="1542.850720347569" y="1016.2497287886798" width="59.11650728879415" height="2" fill="#06d6a0" opacity="0.031116209060679238" rx="1"/><rect x="1544.8371849080634" y="1009.7034738235417" width="57.36557609805967" height="2" fill="#06d6a0" opacity="0.05962194970800121" rx="1"/><text x="1900" y="1060" font-family="Arial, sans-serif" font-size="11" fill="#fff" opacity="0.08" text-anchor="end" letter-spacing="2">GTA 6 REWARDS · WALLPAPER 024</text>
</svg>