<?xml version="1.0" encoding="UTF-8"?>
<svg xmlns="http://www.w3.org/2000/svg" width="1920" height="1080" viewBox="0 0 1920 1080">
<defs>
    <linearGradient id="bg16" x1="0%" y1="0%" x2="0%" y2="100%">
      <stop offset="0%" stop-color="#003d00"/>
      <stop offset="50%" stop-color="#000a00"/>
      <stop offset="100%" stop-color="#003d00"/>
    </linearGradient>
    <linearGradient id="sun16" x1="0%" y1="0%" x2="100%" y2="100%">
      <stop offset="0%" stop-color="#38b000"/>
      <stop offset="100%" stop-color="#008000"/>
    </linearGradient>
    <radialGradient id="glow16" cx="50%" cy="70%" r="50%">
      <stop offset="0%" stop-color="#38b000" stop-opacity="0.3"/>
      <stop offset="100%" stop-color="#003d00" stop-opacity="0"/>
    </radialGradient>
  </defs><rect width="1920" height="1080" fill="url(#bg16)"/><circle cx="473.18626702138835" cy="500.9351204850094" r="716.4820137472083" fill="#38b000" opacity="0.08396847078901913"/><circle cx="673.1862670213884" cy="400.9351204850094" r="403.9372682580578" fill="#008000" opacity="0.1250353668618564"/><circle cx="525.1378790068295" cy="430.05849590526395" r="80.53456114151854" fill="url(#sun16)" opacity="0.7364089507228715"/><circle cx="525.1378790068295" cy="430.05849590526395" r="75.53456114151854" fill="#003d00" opacity="0.3"/><rect x="17.377403610706658" y="735.0758669979581" width="80.77326185320813" height="182.26026400976355" fill="#002300" opacity="0.6545390369730394" rx="2"/><rect x="52.96031714602381" y="745.0758669979581" width="9.607434782573822" height="7.273957276082122" fill="#008000" opacity="0.4260830919784687" rx="1"/><rect x="32.767001682721784" y="748.7128456359992" width="9.607434782573822" height="7.273957276082122" fill="#38b000" opacity="0.21304154598923436" rx="1"/><rect x="52.72937811811673" y="805.8292883345459" width="10.069312838387981" height="7.923313621879395" fill="#008000" opacity="0.35074540643271646" rx="1"/><rect x="32.5360626548147" y="809.7909451454856" width="10.069312838387981" height="7.923313621879395" fill="#38b000" opacity="0.17537270321635823" rx="1"/><rect x="52.51950362499792" y="866.5827096711338" width="10.489061824625605" height="9.190375647319103" fill="#008000" opacity="0.18273139621194717" rx="1"/><rect x="32.32618816169589" y="871.1778974947933" width="10.489061824625605" height="9.190375647319103" fill="#38b000" opacity="0.09136569810597359" rx="1"/><rect x="113.65158402445995" y="794.2222956787381" width="82.11811157691248" height="123.11383532898357" fill="#003d00" opacity="0.5855505293900032" rx="2"/><rect x="150.77438996028488" y="804.2222956787381" width="7.872499705262598" height="8.196140883070449" fill="#008000" opacity="0.43232243366826384" rx="1"/><rect x="130.24486206605675" y="808.3203661202733" width="7.872499705262598" height="8.196140883070449" fill="#38b000" opacity="0.21616121683413192" rx="1"/><rect x="149.5550401212077" y="821.8099864400215" width="10.311199383416959" height="7.557695946087525" fill="#008000" opacity="0.5556965386624673" rx="1"/><rect x="129.02551222697957" y="825.5888344130652" width="10.311199383416959" height="7.557695946087525" fill="#38b000" opacity="0.27784826933123363" rx="1"/><rect x="149.43070972814007" y="839.3976772013048" width="10.559860169552234" height="8.84690998281513" fill="#008000" opacity="0.35763379718587585" rx="1"/><rect x="128.90118183391195" y="843.8211321927123" width="10.559860169552234" height="8.84690998281513" fill="#38b000" opacity="0.17881689859293792" rx="1"/><rect x="151.94646340863463" y="856.9853679625882" width="5.52835280856312" height="6.853876740870503" fill="#008000" opacity="0.5067519873862043" rx="1"/><rect x="131.4169355144065" y="860.4123063330234" width="5.52835280856312" height="6.853876740870503" fill="#38b000" opacity="0.25337599369310215" rx="1"/><rect x="149.18915808764032" y="874.5730587238716" width="11.042963450551724" height="6.406139976439564" fill="#008000" opacity="0.24178712960374243" rx="1"/><rect x="128.6596301934122" y="877.7761287120913" width="11.042963450551724" height="6.406139976439564" fill="#38b000" opacity="0.12089356480187122" rx="1"/><rect x="151.66936082734478" y="892.160749485155" width="6.082557971142828" height="7.302717471798584" fill="#008000" opacity="0.44550118023657737" rx="1"/><rect x="131.13983293311665" y="895.8121082210542" width="6.082557971142828" height="7.302717471798584" fill="#38b000" opacity="0.22275059011828868" rx="1"/><rect x="151.89213774234338" y="909.7484402464382" width="5.63700414114562" height="8.227629187104206" fill="#008000" opacity="0.12973158541827734" rx="1"/><rect x="131.36260984811526" y="913.8622548399903" width="5.63700414114562" height="8.227629187104206" fill="#38b000" opacity="0.06486579270913867" rx="1"/><rect x="234.62417535824332" y="747.1031964866219" width="59.760601299293484" height="170.23293452109976" fill="#003d00" opacity="0.6874739884835375" rx="2"/><rect x="261.7951007780607" y="757.1031964866219" width="5.4187504596586225" height="7.402425458049967" fill="#008000" opacity="0.17739491075682334" rx="1"/><rect x="246.8549504532374" y="760.8044092156468" width="5.4187504596586225" height="7.402425458049967" fill="#38b000" opacity="0.08869745537841167" rx="1"/><rect x="259.557779249865" y="799.6614301168968" width="9.893393516050045" height="7.604756256939088" fill="#008000" opacity="0.3229426377971989" rx="1"/><rect x="244.61762892504169" y="803.4638082453663" width="9.893393516050045" height="7.604756256939088" fill="#38b000" opacity="0.16147131889859945" rx="1"/><rect x="258.80066523975705" y="842.2196637471718" width="11.407621536265971" height="8.339378393799853" fill="#008000" opacity="0.18834546294257637" rx="1"/><rect x="243.8605149149337" y="846.3893529440718" width="11.407621536265971" height="8.339378393799853" fill="#38b000" opacity="0.09417273147128818" rx="1"/><rect x="260.4518108492372" y="884.7778973774467" width="8.105330317305711" height="9.331443113119212" fill="#008000" opacity="0.2511696547156129" rx="1"/><rect x="245.51166052441386" y="889.4436189340063" width="8.105330317305711" height="9.331443113119212" fill="#38b000" opacity="0.12558482735780646" rx="1"/><rect x="356.6466684328967" y="775.0836669875038" width="75.51101042086049" height="142.25246402021787" fill="#002300" opacity="0.5259667567503561" rx="2"/><rect x="391.15806269276845" y="785.0836669875038" width="6.488221901116944" height="9.841832427271138" fill="#008000" opacity="0.45816525385206686" rx="1"/><rect x="372.28031008755335" y="790.0045832011393" width="6.488221901116944" height="9.841832427271138" fill="#38b000" opacity="0.22908262692603343" rx="1"/><rect x="388.4246287861431" y="808.7924109908733" width="11.955089714367663" height="7.21203871937749" fill="#008000" opacity="0.2307269546973349" rx="1"/><rect x="369.546876180928" y="812.3984303505621" width="11.955089714367663" height="7.21203871937749" fill="#38b000" opacity="0.11536347734866745" rx="1"/><rect x="389.4773750264378" y="832.501154994243" width="9.849597233778237" height="8.850394711562059" fill="#008000" opacity="0.5849774945725169" rx="1"/><rect x="370.5996224212227" y="836.9263523500241" width="9.849597233778237" height="8.850394711562059" fill="#38b000" opacity="0.29248874728625845" rx="1"/><rect x="391.87728113608375" y="856.2098989976128" width="5.049785014486356" height="8.963157255892446" fill="#008000" opacity="0.5435431441393549" rx="1"/><rect x="372.99952853086864" y="860.691477625559" width="5.049785014486356" height="8.963157255892446" fill="#38b000" opacity="0.27177157206967745" rx="1"/><rect x="390.8611799562027" y="879.9186430009823" width="7.081987374248445" height="6.293415066854426" fill="#008000" opacity="0.1597481761499653" rx="1"/><rect x="371.9834273509876" y="883.0653505344095" width="7.081987374248445" height="6.293415066854426" fill="#38b000" opacity="0.07987408807498265" rx="1"/><rect x="388.7256058579604" y="903.6273870043519" width="11.35313557073314" height="6.471020694000418" fill="#008000" opacity="0.2285471757009037" rx="1"/><rect x="369.84785325274527" y="906.8628973513521" width="11.35313557073314" height="6.471020694000418" fill="#38b000" opacity="0.11427358785045184" rx="1"/><rect x="474.77621407824944" y="811.8820635629543" width="58.200212108949245" height="105.45406744476736" fill="#003d00" opacity="0.46383824103135574" rx="2"/><rect x="501.54575446679854" y="821.8820635629543" width="4.661131331851038" height="7.83456840967633" fill="#008000" opacity="0.37147192630718273" rx="1"/><rect x="486.99570143956123" y="825.7993477677925" width="4.661131331851038" height="7.83456840967633" fill="#38b000" opacity="0.18573596315359137" rx="1"/><rect x="498.73767459758966" y="835.0638219935502" width="10.27729107026879" height="9.461757250004858" fill="#008000" opacity="0.26165997662154494" rx="1"/><rect x="484.18762157035235" y="839.7947006185526" width="10.27729107026879" height="9.461757250004858" fill="#38b000" opacity="0.13082998831077247" rx="1"/><rect x="499.2922486915002" y="848.245580424146" width="9.168142882447723" height="8.81563701266787" fill="#008000" opacity="0.28053322731995334" rx="1"/><rect x="484.7421956642629" y="852.65339893048" width="9.168142882447723" height="8.81563701266787" fill="#38b000" opacity="0.14026661365997667" rx="1"/><rect x="499.30260981440136" y="861.4273388547421" width="9.147420636645382" height="6.5872947472583725" fill="#008000" opacity="0.1285788610411293" rx="1"/><rect x="484.75255678716405" y="864.7209862283712" width="9.147420636645382" height="6.5872947472583725" fill="#38b000" opacity="0.06428943052056466" rx="1"/><rect x="500.60028156861665" y="874.609097285338" width="6.55207712821478" height="6.8978520428989665" fill="#008000" opacity="0.2986413387811373" rx="1"/><rect x="486.05022854137934" y="878.0580233067874" width="6.55207712821478" height="6.8978520428989665" fill="#38b000" opacity="0.14932066939056865" rx="1"/><rect x="501.03266196093347" y="887.7908557159338" width="5.687316343581145" height="8.023651079745882" fill="#008000" opacity="0.3034697466770815" rx="1"/><rect x="486.48260893369616" y="891.8026812558068" width="5.687316343581145" height="8.023651079745882" fill="#38b000" opacity="0.15173487333854074" rx="1"/><rect x="499.6467116215841" y="900.9726141465298" width="8.459217022280026" height="9.054038359563341" fill="#008000" opacity="0.5180232648314032" rx="1"/><rect x="485.09665859434676" y="905.4996333263115" width="8.459217022280026" height="9.054038359563341" fill="#38b000" opacity="0.2590116324157016" rx="1"/><rect x="501.832218464192" y="914.1543725771257" width="4.08820333706406" height="7.467641426592051" fill="#008000" opacity="0.16081476727519528" rx="1"/><rect x="487.2821654369547" y="917.8881932904218" width="4.08820333706406" height="7.467641426592051" fill="#38b000" opacity="0.08040738363759764" rx="1"/><rect x="568.9917700642236" y="707.6989054697796" width="85.59510976439228" height="209.63722553794207" fill="#002300" opacity="0.5619037299095428" rx="2"/><rect x="605.9684044772221" y="717.6989054697796" width="11.641840938395319" height="9.33215119487889" fill="#008000" opacity="0.5844051173386176" rx="1"/><rect x="584.5696270361241" y="722.364981067219" width="11.641840938395319" height="9.33215119487889" fill="#38b000" opacity="0.2922025586693088" rx="1"/><rect x="606.0793533239233" y="787.5779806490935" width="11.419943244992742" height="9.506953915466312" fill="#008000" opacity="0.5270899628584949" rx="1"/><rect x="584.6805758828253" y="792.3314576068267" width="11.419943244992742" height="9.506953915466312" fill="#38b000" opacity="0.2635449814292474" rx="1"/><rect x="607.6610872868125" y="857.4570558284076" width="8.256475319214275" height="8.964282468651486" fill="#008000" opacity="0.5099867283157042" rx="1"/><rect x="586.2623098457145" y="861.9391970627333" width="8.256475319214275" height="8.964282468651486" fill="#38b000" opacity="0.2549933641578521" rx="1"/><rect x="689.1656647294681" y="596.0520453043403" width="52.16392091991471" height="321.2840857033814" fill="#002300" opacity="0.6658789263493099" rx="2"/><rect x="709.472001133131" y="606.0520453043403" width="11.551248112588945" height="6.744496361525845" fill="#008000" opacity="0.46570596726744107" rx="1"/><rect x="696.4310209031523" y="609.4242934851031" width="11.551248112588945" height="6.744496361525845" fill="#38b000" opacity="0.23285298363372053" rx="1"/><rect x="709.5135832742122" y="713.1467405388007" width="11.468083830426465" height="9.63450125223829" fill="#008000" opacity="0.4792931016952017" rx="1"/><rect x="696.4726030442336" y="717.9639911649199" width="11.468083830426465" height="9.63450125223829" fill="#38b000" opacity="0.23964655084760084" rx="1"/><rect x="709.8774120330061" y="820.2414357732612" width="10.74042631283878" height="9.876912813605022" fill="#008000" opacity="0.12504831110710474" rx="1"/><rect x="696.8364318030274" y="825.1798921800637" width="10.74042631283878" height="9.876912813605022" fill="#38b000" opacity="0.06252415555355237" rx="1"/><rect x="810.0473839254228" y="549.167017673414" width="39.20685447035517" height="368.1691133343077" fill="#003d00" opacity="0.6080638177711666" rx="2"/><rect x="825.2689986294761" y="559.167017673414" width="8.763625062248583" height="9.727286119881851" fill="#008000" opacity="0.3698876310069784" rx="1"/><rect x="815.4672850118873" y="564.0306607333549" width="8.763625062248583" height="9.727286119881851" fill="#38b000" opacity="0.1849438155034892" rx="1"/><rect x="827.0815849970284" y="632.8008403402755" width="5.1384523271439715" height="9.856430620852958" fill="#008000" opacity="0.5779577868706448" rx="1"/><rect x="817.2798713794396" y="637.729055650702" width="5.1384523271439715" height="9.856430620852958" fill="#38b000" opacity="0.2889788934353224" rx="1"/><rect x="824.1368445537836" y="706.434663007137" width="11.027933213633471" height="7.089355587281602" fill="#008000" opacity="0.3506895994885567" rx="1"/><rect x="814.3351309361948" y="709.9793408007779" width="11.027933213633471" height="7.089355587281602" fill="#38b000" opacity="0.17534479974427836" rx="1"/><rect x="826.7210538950098" y="780.0684856739986" width="5.85951453118108" height="6.517068834164428" fill="#008000" opacity="0.3681811338449319" rx="1"/><rect x="816.919340277421" y="783.3270200910807" width="5.85951453118108" height="6.517068834164428" fill="#38b000" opacity="0.18409056692246595" rx="1"/><rect x="826.0040903084455" y="853.7023083408601" width="7.293441704309881" height="9.27396213618898" fill="#008000" opacity="0.3778526766406961" rx="1"/><rect x="816.2023766908567" y="858.3392894089546" width="7.293441704309881" height="9.27396213618898" fill="#38b000" opacity="0.18892633832034805" rx="1"/><rect x="905.4053190502816" y="542.1863915729771" width="84.01227406086686" height="375.1497394347446" fill="#002300" opacity="0.5772955600119418" rx="2"/><rect x="943.7289632215931" y="552.1863915729771" width="7.364985718243985" height="7.166881542924531" fill="#008000" opacity="0.1405672147266025" rx="1"/><rect x="922.7258947063763" y="555.7698323444394" width="7.364985718243985" height="7.166881542924531" fill="#38b000" opacity="0.07028360736330125" rx="1"/><rect x="943.4784057728198" y="645.9738264316633" width="7.866100615790603" height="6.822906212141483" fill="#008000" opacity="0.16684002339999193" rx="1"/><rect x="922.475337257603" y="649.385279537734" width="7.866100615790603" height="6.822906212141483" fill="#38b000" opacity="0.08342001169999597" rx="1"/><rect x="941.7994547939859" y="739.7612612903494" width="11.224002573458478" height="9.773473486251541" fill="#008000" opacity="0.3370808618695198" rx="1"/><rect x="920.7963862787691" y="744.6479980334751" width="11.224002573458478" height="9.773473486251541" fill="#38b000" opacity="0.1685404309347599" rx="1"/><rect x="944.6635335175469" y="833.5486961490355" width="5.4958451263364045" height="6.517764964261503" fill="#008000" opacity="0.29730146501616145" rx="1"/><rect x="923.66046500233" y="836.8075786311663" width="5.4958451263364045" height="6.517764964261503" fill="#38b000" opacity="0.14865073250808072" rx="1"/><rect x="1045.1635073114103" y="826.8468656639677" width="89.84263982620152" height="90.48926534375391" fill="#002300" opacity="0.44869125344527216" rx="2"/><rect x="1084.794066910584" y="836.8468656639677" width="10.581520627853815" height="7.280973539985943" fill="#008000" opacity="0.34821460369234314" rx="1"/><rect x="1062.3334069540338" y="840.4873524339607" width="10.581520627853815" height="7.280973539985943" fill="#38b000" opacity="0.17410730184617157" rx="1"/><rect x="1084.1035496935024" y="867.0099541118857" width="11.962555062017067" height="8.244731605575591" fill="#008000" opacity="0.26647794276161074" rx="1"/><rect x="1061.6428897369522" y="871.1323199146735" width="11.962555062017067" height="8.244731605575591" fill="#38b000" opacity="0.13323897138080537" rx="1"/><rect x="1086.7601471295955" y="897.1730425598037" width="6.649360189831201" height="6.669954833730579" fill="#008000" opacity="0.40968617911210425" rx="1"/><rect x="1064.2994871730452" y="900.508019976669" width="6.649360189831201" height="6.669954833730579" fill="#38b000" opacity="0.20484308955605213" rx="1"/><rect x="1152.309904762616" y="641.8506104363712" width="57.43156714072255" height="275.4855205713505" fill="#002300" opacity="0.632213235491005" rx="2"/><rect x="1175.7214324033637" y="651.8506104363712" width="10.608511859227091" height="8.858357003624167" fill="#008000" opacity="0.25128214241733826" rx="1"/><rect x="1161.363540618183" y="656.2797889381833" width="10.608511859227091" height="8.858357003624167" fill="#38b000" opacity="0.12564107120866913" rx="1"/><rect x="1178.0933701230897" y="697.7648638649296" width="5.864636419775112" height="7.9515243214442215" fill="#008000" opacity="0.12323825320304331" rx="1"/><rect x="1163.735478337909" y="701.7406260256516" width="5.864636419775112" height="7.9515243214442215" fill="#38b000" opacity="0.061619126601521655" rx="1"/><rect x="1175.1470234054484" y="743.679117293488" width="11.75732985505772" height="7.514628081935139" fill="#008000" opacity="0.3295957725098347" rx="1"/><rect x="1160.7891316202677" y="747.4364313344556" width="11.75732985505772" height="7.514628081935139" fill="#38b000" opacity="0.16479788625491734" rx="1"/><rect x="1176.9328086096639" y="789.5933707220464" width="8.185759446626939" height="8.519506339570393" fill="#008000" opacity="0.21510082336959913" rx="1"/><rect x="1162.5749168244831" y="793.8531238918316" width="8.185759446626939" height="8.519506339570393" fill="#38b000" opacity="0.10755041168479956" rx="1"/><rect x="1176.6406120508075" y="835.5076241506049" width="8.770152564339842" height="6.083636910674078" fill="#008000" opacity="0.2973906185471897" rx="1"/><rect x="1162.2827202656267" y="838.549442605942" width="8.770152564339842" height="6.083636910674078" fill="#38b000" opacity="0.14869530927359484" rx="1"/><rect x="1176.9399079978327" y="881.4218775791633" width="8.171560670289109" height="9.543923726199177" fill="#008000" opacity="0.2421233403128859" rx="1"/><rect x="1162.582016212652" y="886.1938394422629" width="8.171560670289109" height="9.543923726199177" fill="#38b000" opacity="0.12106167015644295" rx="1"/><rect x="1259.1341132272814" y="662.5291118776726" width="82.39218765692604" height="254.80701913004907" fill="#003d00" opacity="0.4846981657633321" rx="2"/><rect x="1298.170840074581" y="672.5291118776726" width="4.318733962326947" height="9.223279850376603" fill="#008000" opacity="0.3907318321035085" rx="1"/><rect x="1277.5727931603494" y="677.1407518028609" width="4.318733962326947" height="9.223279850376603" fill="#38b000" opacity="0.19536591605175424" rx="1"/><rect x="1296.5302184120592" y="714.9969483993474" width="7.599977287370706" height="8.010751281401783" fill="#008000" opacity="0.5749209115921802" rx="1"/><rect x="1275.9321714978275" y="719.0023240400483" width="7.599977287370706" height="8.010751281401783" fill="#38b000" opacity="0.2874604557960901" rx="1"/><rect x="1295.1254189000758" y="757.4647849210222" width="10.409576311337197" height="9.402790428931542" fill="#008000" opacity="0.3113954202997022" rx="1"/><rect x="1274.5273719858442" y="762.1661801354879" width="10.409576311337197" height="9.402790428931542" fill="#38b000" opacity="0.1556977101498511" rx="1"/><rect x="1294.8925342648042" y="799.9326214426972" width="10.87534558188062" height="8.595755591661613" fill="#008000" opacity="0.344432608304646" rx="1"/><rect x="1274.2944873505726" y="804.230499238528" width="10.87534558188062" height="8.595755591661613" fill="#38b000" opacity="0.172216304152323" rx="1"/><rect x="1294.5098347052724" y="842.400457964372" width="11.640744700944225" height="7.7750817513501" fill="#008000" opacity="0.2245910805008819" rx="1"/><rect x="1273.9117877910408" y="846.2879988400471" width="11.640744700944225" height="7.7750817513501" fill="#38b000" opacity="0.11229554025044095" rx="1"/><rect x="1296.1221993507638" y="884.8682944860468" width="8.416015409961346" height="7.71758743601795" fill="#008000" opacity="0.4113189446300545" rx="1"/><rect x="1275.5241524365322" y="888.7270882040558" width="8.416015409961346" height="7.71758743601795" fill="#38b000" opacity="0.20565947231502724" rx="1"/><rect x="1364.6399095106499" y="716.033053308733" width="33.80242155487706" height="201.30307769898863" fill="#003d00" opacity="0.6840371842458931" rx="2"/><rect x="1377.5468743747444" y="726.033053308733" width="7.988491826688054" height="8.535994757557287" fill="#008000" opacity="0.5998152300249355" rx="1"/><rect x="1369.096268986025" y="730.3010506875116" width="7.988491826688054" height="8.535994757557287" fill="#38b000" opacity="0.29990761501246777" rx="1"/><rect x="1378.217825637017" y="766.2936688485307" width="6.646589302142754" height="7.620376984034753" fill="#008000" opacity="0.5689525287758914" rx="1"/><rect x="1369.7672202482977" y="770.1038573405481" width="6.646589302142754" height="7.620376984034753" fill="#38b000" opacity="0.2844762643879457" rx="1"/><rect x="1377.0662048538372" y="806.5542843883284" width="8.949830868502573" height="6.083351012338733" fill="#008000" opacity="0.40083565211408667" rx="1"/><rect x="1368.6155994651178" y="809.5959598944977" width="8.949830868502573" height="6.083351012338733" fill="#38b000" opacity="0.20041782605704334" rx="1"/><rect x="1378.3048263963558" y="846.8148999281261" width="6.472587783465299" height="6.745407356122836" fill="#008000" opacity="0.23883674439015723" rx="1"/><rect x="1369.8542210076364" y="850.1876036061875" width="6.472587783465299" height="6.745407356122836" fill="#38b000" opacity="0.11941837219507861" rx="1"/><rect x="1378.0365808380388" y="887.0755154679239" width="7.009078900099052" height="8.81011066558075" fill="#008000" opacity="0.2419207299225779" rx="1"/><rect x="1369.5859754493194" y="891.4805708007143" width="7.009078900099052" height="8.81011066558075" fill="#38b000" opacity="0.12096036496128895" rx="1"/><rect x="1496.6450375101167" y="793.1848557184414" width="80.19706197320414" height="124.15127528928016" fill="#003d00" opacity="0.4974389589385686" rx="2"/><rect x="1532.1297617948449" y="803.1848557184414" width="9.2276134037477" height="7.369061765579754" fill="#008000" opacity="0.12959298273306177" rx="1"/><rect x="1512.0804963015437" y="806.8693866012313" width="9.2276134037477" height="7.369061765579754" fill="#38b000" opacity="0.06479649136653089" rx="1"/><rect x="1534.679047143012" y="823.8767349333215" width="4.129042707413678" height="7.258509083012703" fill="#008000" opacity="0.26939133758875344" rx="1"/><rect x="1514.6297816497108" y="827.5059894748279" width="4.129042707413678" height="7.258509083012703" fill="#38b000" opacity="0.13469566879437672" rx="1"/><rect x="1532.526152813231" y="844.5686141482015" width="8.43483136697552" height="7.530774926191842" fill="#008000" opacity="0.24529099458486098" rx="1"/><rect x="1512.4768873199298" y="848.3340016112975" width="8.43483136697552" height="7.530774926191842" fill="#38b000" opacity="0.12264549729243049" rx="1"/><rect x="1530.983624821525" y="865.2604933630815" width="11.519887350387844" height="8.036158831332848" fill="#008000" opacity="0.4633024285927654" rx="1"/><rect x="1510.9343593282238" y="869.278572778748" width="11.519887350387844" height="8.036158831332848" fill="#38b000" opacity="0.2316512142963827" rx="1"/><rect x="1534.721310310932" y="885.9523725779616" width="4.044516371573442" height="9.926834543218565" fill="#008000" opacity="0.3720470874970888" rx="1"/><rect x="1514.6720448176309" y="890.9157898495708" width="4.044516371573442" height="9.926834543218565" fill="#38b000" opacity="0.1860235437485444" rx="1"/><rect x="1531.7306380776527" y="906.6442517928416" width="10.025860838132413" height="6.209329190712731" fill="#008000" opacity="0.5954297726497589" rx="1"/><rect x="1511.6813725843515" y="909.7489163881979" width="10.025860838132413" height="6.209329190712731" fill="#38b000" opacity="0.29771488632487947" rx="1"/><rect x="1599.3784963384685" y="829.9871878069795" width="58.206514266367655" height="87.34894320074211" fill="#002300" opacity="0.6230084743869977" rx="2"/><rect x="1625.9594126513598" y="839.9871878069795" width="5.044681640585112" height="9.67083016775335" fill="#008000" opacity="0.5701718205982288" rx="1"/><rect x="1611.4077840847679" y="844.8226028908562" width="5.044681640585112" height="9.67083016775335" fill="#38b000" opacity="0.2850859102991144" rx="1"/><rect x="1625.4628930269887" y="852.4656082642283" width="6.037720889327517" height="9.215391269702323" fill="#008000" opacity="0.19281804845501158" rx="1"/><rect x="1610.9112644603968" y="857.0733038990795" width="6.037720889327517" height="9.215391269702323" fill="#38b000" opacity="0.09640902422750579" rx="1"/><rect x="1624.4235478461308" y="864.9440287214773" width="8.116411251043065" height="9.353206809459536" fill="#008000" opacity="0.4134411017674583" rx="1"/><rect x="1609.8719192795388" y="869.620632126207" width="8.116411251043065" height="9.353206809459536" fill="#38b000" opacity="0.20672055088372915" rx="1"/><rect x="1626.2341075421389" y="877.4224491787261" width="4.495291859026834" height="7.50021846999885" fill="#008000" opacity="0.25488866231285234" rx="1"/><rect x="1611.682478975547" y="881.1725584137255" width="4.495291859026834" height="7.50021846999885" fill="#38b000" opacity="0.12744433115642617" rx="1"/><rect x="1624.2899027250917" y="889.9008696359749" width="8.383701493121613" height="7.83951273789618" fill="#008000" opacity="0.3915635746418413" rx="1"/><rect x="1609.7382741584997" y="893.820626004923" width="8.383701493121613" height="7.83951273789618" fill="#38b000" opacity="0.19578178732092066" rx="1"/><rect x="1625.0119686322314" y="902.3792900932239" width="6.939569678841989" height="8.255118625763599" fill="#008000" opacity="0.46027011574717935" rx="1"/><rect x="1610.4603400656395" y="906.5068494061056" width="6.939569678841989" height="8.255118625763599" fill="#38b000" opacity="0.23013505787358968" rx="1"/><rect x="1624.7425361740734" y="914.8577105504727" width="7.478434595157959" height="8.995190631364284" fill="#008000" opacity="0.3127608837822361" rx="1"/><rect x="1610.1909076074814" y="919.3553058661548" width="7.478434595157959" height="8.995190631364284" fill="#38b000" opacity="0.15638044189111805" rx="1"/><rect x="1723.8697626730122" y="627.9103527376219" width="62.38665248555752" height="289.4257782700997" fill="#003d00" opacity="0.4866462181291185" rx="2"/><rect x="1752.94192581669" y="637.9103527376219" width="4.242326198202168" height="7.84814447580095" fill="#008000" opacity="0.5392697547886683" rx="1"/><rect x="1737.3452626953006" y="641.8344249755223" width="4.242326198202168" height="7.84814447580095" fill="#38b000" opacity="0.26963487739433417" rx="1"/><rect x="1751.1754943300446" y="695.7955083916419" width="7.7751891714928645" height="7.857398687362997" fill="#008000" opacity="0.46943221729468376" rx="1"/><rect x="1735.5788312086552" y="699.7242077353234" width="7.7751891714928645" height="7.857398687362997" fill="#38b000" opacity="0.23471610864734188" rx="1"/><rect x="1752.2512713850595" y="753.6806640456618" width="5.623635061463256" height="8.715228954962274" fill="#008000" opacity="0.587992687031625" rx="1"/><rect x="1736.65460826367" y="758.0382785231429" width="5.623635061463256" height="8.715228954962274" fill="#38b000" opacity="0.2939963435158125" rx="1"/><rect x="1752.0230860963982" y="811.5658196996817" width="6.080005638785662" height="9.639087791470597" fill="#008000" opacity="0.1263318789718514" rx="1"/><rect x="1736.4264229750088" y="816.385363595417" width="6.080005638785662" height="9.639087791470597" fill="#38b000" opacity="0.0631659394859257" rx="1"/><rect x="1751.0897976104377" y="869.4509753537017" width="7.946582610706469" height="8.281889545331218" fill="#008000" opacity="0.49306044028910356" rx="1"/><rect x="1735.4931344890483" y="873.5919201263673" width="7.946582610706469" height="8.281889545331218" fill="#38b000" opacity="0.24653022014455178" rx="1"/><rect x="1830.142734933212" y="819.0273925939173" width="63.8115253983558" height="98.30873841380438" fill="#003d00" opacity="0.5828847384971764" rx="2"/><rect x="1857.2100927648623" y="829.0273925939173" width="9.67680973505527" height="9.470357565085953" fill="#008000" opacity="0.36082281355299584" rx="1"/><rect x="1841.2572114152733" y="833.7625713764603" width="9.67680973505527" height="9.470357565085953" fill="#38b000" opacity="0.18041140677649792" rx="1"/><rect x="1856.1018527283106" y="861.7969720651854" width="11.893289808159064" height="6.465164327170971" fill="#008000" opacity="0.3675687361665929" rx="1"/><rect x="1840.1489713787216" y="865.0295542287708" width="11.893289808159064" height="6.465164327170971" fill="#38b000" opacity="0.18378436808329646" rx="1"/><rect x="1859.7356294032038" y="894.5665515364535" width="4.625736458372729" height="8.54436664994442" fill="#008000" opacity="0.23455712984654986" rx="1"/><rect x="1843.7827480536148" y="898.8387348614257" width="4.625736458372729" height="8.54436664994442" fill="#38b000" opacity="0.11727856492327493" rx="1"/><path d="M1007.8014195821718 792.3248019750055 Q988.1862367149877 725.5136220542513 984.2632001415509 658.702442133497" stroke="#000000" stroke-width="7.348690125008274" fill="none" stroke-linecap="round"/><path d="M984.2632001415509 658.702442133497 Q1012.9216252611769 638.702442133497 1039.5655409129258 658.702442133497" stroke="#000a00" stroke-width="3.158513490846034" fill="none" stroke-linecap="round" opacity="0.6"/><path d="M984.2632001415509 658.702442133497 Q1016.8408478021621 644.8305861137512 1016.8434117915018 670.9587300940054" stroke="#000a00" stroke-width="3.0855218714767885" fill="none" stroke-linecap="round" opacity="0.6"/><path d="M984.2632001415509 658.702442133497 Q978.7827401931675 647.0432724133398 971.5715995924182 675.3841026931826" stroke="#000a00" stroke-width="3.1188201147873933" fill="none" stroke-linecap="round" opacity="0.6"/><path d="M984.2632001415509 658.702442133497 Q979.0273463218268 641.7289971627949 942.3651582999466 664.7555521920928" stroke="#000a00" stroke-width="3.615128872360831" fill="none" stroke-linecap="round" opacity="0.6"/><path d="M984.2632001415509 658.702442133497 Q970.6132570320772 636.166461137334 949.1564081426608 653.6304801411708" stroke="#000a00" stroke-width="3.9850294045137775" fill="none" stroke-linecap="round" opacity="0.6"/><path d="M984.2632001415509 658.702442133497 Q986.180292152346 632.5949611092445 974.9699155499022 646.4874800849921" stroke="#000a00" stroke-width="2.030196785002527" fill="none" stroke-linecap="round" opacity="0.6"/><path d="M288.4782905058186 912.1634414447852 Q306.7383763954831 840.9694515962549 310.390393573416 769.7754617477244" stroke="#000000" stroke-width="7.182037366363694" fill="none" stroke-linecap="round"/><path d="M310.390393573416 769.7754617477244 Q360.0068153208137 749.7754617477244 370.9380667309598 769.7754617477244" stroke="#000a00" stroke-width="3.861376802404732" fill="none" stroke-linecap="round" opacity="0.6"/><path d="M310.390393573416 769.7754617477244 Q337.1408819112233 753.3190298962054 329.22973557411507 776.8625980446864" stroke="#000a00" stroke-width="2.7449546257837105" fill="none" stroke-linecap="round" opacity="0.6"/><path d="M310.390393573416 769.7754617477244 Q317.71138194658766 756.5007622963781 300.1570204831315 783.2260628450316" stroke="#000a00" stroke-width="2.843968223511234" fill="none" stroke-linecap="round" opacity="0.6"/><path d="M310.390393573416 769.7754617477244 Q294.9902827666198 752.9413669214073 266.56326135560687 776.10727209509" stroke="#000a00" stroke-width="3.206416042802487" fill="none" stroke-linecap="round" opacity="0.6"/><path d="M310.390393573416 769.7754617477244 Q298.3494464171438 746.1977872899967 260.86294316380247 762.6201128322689" stroke="#000a00" stroke-width="2.1241855011610746" fill="none" stroke-linecap="round" opacity="0.6"/><path d="M310.390393573416 769.7754617477244 Q308.63099769886765 739.8671705284655 295.31370815239546 749.9588793092065" stroke="#000a00" stroke-width="2.5482596346522355" fill="none" stroke-linecap="round" opacity="0.6"/><path d="M1788.9509926431233 783.8993475502123 Q1793.3532622580774 692.4420538864663 1794.2337161810683 600.9847602227202" stroke="#000000" stroke-width="7.953793883312912" fill="none" stroke-linecap="round"/><path d="M1794.2337161810683 600.9847602227202 Q1836.2007624772846 580.9847602227202 1860.9535460232185 600.9847602227202" stroke="#000a00" stroke-width="3.068387453227394" fill="none" stroke-linecap="round" opacity="0.6"/><path d="M1794.2337161810683 600.9847602227202 Q1828.212389698261 586.7127783066147 1824.6866628006887 612.4407963905093" stroke="#000a00" stroke-width="2.41275525521784" fill="none" stroke-linecap="round" opacity="0.6"/><path d="M1794.2337161810683 600.9847602227202 Q1787.382596783706 590.9305125956721 1779.100029000891 620.8762649686239" stroke="#000a00" stroke-width="3.011253848907364" fill="none" stroke-linecap="round" opacity="0.6"/><path d="M1794.2337161810683 600.9847602227202 Q1775.9395172352263 584.1237625384157 1750.779013031523 607.2627648541112" stroke="#000a00" stroke-width="3.522405441739225" fill="none" stroke-linecap="round" opacity="0.6"/><path d="M1794.2337161810683 600.9847602227202 Q1777.9767368563691 578.5705457664155 1760.812596351529 596.1563313101109" stroke="#000a00" stroke-width="3.3158972564423217" fill="none" stroke-linecap="round" opacity="0.6"/><path d="M1153.7449928824196 964.1764643751495 Q1171.7732906508663 907.8969583515769 1175.3789502045556 851.6174523280042" stroke="#000000" stroke-width="4.230393883825837" fill="none" stroke-linecap="round"/><path d="M1175.3789502045556 851.6174523280042 Q1211.548674181464 831.6174523280042 1242.0166423781814 851.6174523280042" stroke="#000a00" stroke-width="3.2684137386429155" fill="none" stroke-linecap="round" opacity="0.6"/><path d="M1175.3789502045556 851.6174523280042 Q1214.5259262395402 840.9015569281854 1224.7377925928572 870.1856615283666" stroke="#000a00" stroke-width="3.9662374248649543" fill="none" stroke-linecap="round" opacity="0.6"/><path d="M1175.3789502045556 851.6174523280042 Q1186.4555810157785 842.6648578945255 1158.5689620078897 873.7122634610469" stroke="#000a00" stroke-width="3.79743339721985" fill="none" stroke-linecap="round" opacity="0.6"/><path d="M1175.3789502045556 851.6174523280042 Q1165.0769862460697 834.4536748272074 1136.1157721709885 857.2898973264104" stroke="#000a00" stroke-width="2.404812083208191" fill="none" stroke-linecap="round" opacity="0.6"/><path d="M1175.3789502045556 851.6174523280042 Q1148.8765803621095 827.6455737333849 1120.3943442957923 843.6736951387658" stroke="#000a00" stroke-width="2.486282123831632" fill="none" stroke-linecap="round" opacity="0.6"/><rect x="0" y="1000" width="1920" height="80" fill="#001700" opacity="0.8"/><line x1="0" y1="1040" x2="1920" y2="1040" stroke="#008000" stroke-opacity="0.15" stroke-width="2" stroke-dasharray="30,20"/><rect x="0" y="930" width="1920" height="150" fill="url(#glow16)"/><rect x="0" y="980" width="1920" height="100" fill="#008000" opacity="0.04"/><rect x="211.26986821444467" y="1013.6687055494797" width="62.87084083605344" height="2" fill="#38b000" opacity="0.052508308941616746" rx="1"/><rect x="1645.6116628007992" y="1028.031603756368" width="58.19646205245435" height="2" fill="#38b000" opacity="0.02803615585156627" rx="1"/><rect x="1115.8629224812294" y="1052.1403156156048" width="99.43814007552298" height="2" fill="#38b000" opacity="0.05660466882321161" rx="1"/><rect x="1340.3680929682143" y="1017.4948772409687" width="38.22740233462011" height="2" fill="#38b000" opacity="0.04154548662284983" rx="1"/><rect x="630.8497762658749" y="1049.9001551815077" width="33.15678253610544" height="2" fill="#38b000" opacity="0.044667440695843524" rx="1"/><rect x="887.907377539181" y="1024.4469889310299" width="115.93995832743587" height="2" fill="#38b000" opacity="0.05720267362827498" rx="1"/><rect x="23.65381926848875" y="1010.2679822757533" width="80.21814515353603" height="2" fill="#38b000" opacity="0.029065584989512706" rx="1"/><rect x="300.55010638678215" y="1011.3422895063046" width="22.82889590664508" height="2" fill="#38b000" opacity="0.053377460677497435" rx="1"/><rect x="651.0651850726142" y="1024.7477212792141" width="84.42642658120636" height="2" fill="#38b000" opacity="0.048116881751482585" rx="1"/><rect x="246.977069435403" y="1019.0970238715171" width="31.811135805167986" height="2" fill="#38b000" opacity="0.05985748303119501" rx="1"/><rect x="1508.837186598414" y="1024.7500847803312" width="90.26731988188516" height="2" fill="#38b000" opacity="0.028199549207510322" rx="1"/><rect x="1856.0452857464657" y="1007.2224593877845" width="57.44664968397623" height="2" fill="#38b000" opacity="0.04639453286919616" rx="1"/><rect x="1504.628200285283" y="1014.7818153339396" width="58.978891060449854" height="2" fill="#38b000" opacity="0.051520060298852643" rx="1"/><rect x="1803.9552783695876" y="1018.3799455869896" width="31.28731165344066" height="2" fill="#38b000" opacity="0.023705853438867688" rx="1"/><rect x="1638.5301674247091" y="1003.0854690408067" width="93.55717897265153" height="2" fill="#38b000" opacity="0.04792154447825661" rx="1"/><rect x="841.8085082345196" y="1051.1503003377352" width="83.02045233618014" height="2" fill="#38b000" opacity="0.05108974809550908" rx="1"/><rect x="1597.93821208131" y="1022.4400456627924" width="99.02168624080291" height="2" fill="#38b000" opacity="0.027810523921579712" rx="1"/><rect x="122.76664319512588" y="1041.45164420862" width="88.33866335645753" height="2" fill="#38b000" opacity="0.0430508541555728" rx="1"/><rect x="951.886307669777" y="1006.7575997781842" width="115.70202100921935" height="2" fill="#38b000" opacity="0.03169631512176625" rx="1"/><rect x="1370.2097974927651" y="1006.5515157688762" width="89.61204092242103" height="2" fill="#38b000" opacity="0.04331215528382737" rx="1"/><rect x="574.9330250767368" y="1050.2204858162954" width="31.872539974719412" height="2" fill="#38b000" opacity="0.04795779093819619" rx="1"/><rect x="619.1861729275403" y="1027.2971046500134" width="100.34029216047848" height="2" fill="#38b000" opacity="0.054003277326469146" rx="1"/><rect x="369.7029542293639" y="1056.2483268036153" width="26.62316966490428" height="2" fill="#38b000" opacity="0.036164493704252995" rx="1"/><rect x="1495.783595940048" y="1031.3434463067315" width="58.29867889599378" height="2" fill="#38b000" opacity="0.03159129772605172" rx="1"/><rect x="319.7224228828499" y="1011.6952061866632" width="70.93515742359105" height="2" fill="#38b000" opacity="0.03417452395292338" rx="1"/><rect x="69.95847658951732" y="1036.747327832679" width="66.59017225415217" height="2" fill="#38b000" opacity="0.04722362636291041" rx="1"/><rect x="1662.243957757541" y="1030.317657960187" width="113.4573949765082" height="2" fill="#38b000" opacity="0.03428686811921347" rx="1"/><rect x="532.5791051733725" y="1035.5104496226438" width="47.49408675066523" height="2" fill="#38b000" opacity="0.035050402818026585" rx="1"/><rect x="382.4553104635457" y="1015.4846190557546" width="35.93735225404085" height="2" fill="#38b000" opacity="0.02690143569533281" rx="1"/><rect x="1534.6737459894907" y="1048.9401436943888" width="113.6950296847371" height="2" fill="#38b000" opacity="0.021101769032213318" rx="1"/><text x="1900" y="1060" font-family="Arial, sans-serif" font-size="11" fill="#fff" opacity="0.08" text-anchor="end" letter-spacing="2">GTA 6 REWARDS · WALLPAPER 017</text>
</svg>