<?xml version="1.0" encoding="UTF-8"?>
<svg xmlns="http://www.w3.org/2000/svg" width="1920" height="1080" viewBox="0 0 1920 1080">
<defs>
    <linearGradient id="bg17" x1="0%" y1="0%" x2="0%" y2="100%">
      <stop offset="0%" stop-color="#2d1600"/>
      <stop offset="50%" stop-color="#000000"/>
      <stop offset="100%" stop-color="#2d1600"/>
    </linearGradient>
    <linearGradient id="sun17" x1="0%" y1="0%" x2="100%" y2="100%">
      <stop offset="0%" stop-color="#ff8700"/>
      <stop offset="100%" stop-color="#ff5e00"/>
    </linearGradient>
    <radialGradient id="glow17" cx="50%" cy="70%" r="50%">
      <stop offset="0%" stop-color="#ff8700" stop-opacity="0.3"/>
      <stop offset="100%" stop-color="#2d1600" stop-opacity="0"/>
    </radialGradient>
  </defs><rect width="1920" height="1080" fill="url(#bg17)"/><circle cx="531.1883055211949" cy="412.55356264592933" r="649.6416944194682" fill="#ff8700" opacity="0.05877851778845734"/><circle cx="731.1883055211949" cy="312.55356264592933" r="552.1645498350646" fill="#ff5e00" opacity="0.07256971199590939"/><circle cx="608.1115558529532" cy="355.01358599984405" r="81.85803626241582" fill="url(#sun17)" opacity="0.8389770165176542"/><circle cx="608.1115558529532" cy="355.01358599984405" r="76.85803626241582" fill="#2d1600" opacity="0.3"/><rect x="18.91827172574547" y="782.1470404235058" width="74.3325197241112" height="168.07052804345045" fill="#130000" opacity="0.6073445306875148" rx="2"/><rect x="51.85971560116385" y="792.1470404235058" width="8.449631973274432" height="8.434490951344952" fill="#ff5e00" opacity="0.3826399290428124" rx="1"/><rect x="33.27658567013605" y="796.3642858991783" width="8.449631973274432" height="8.434490951344952" fill="#ff8700" opacity="0.1913199645214062" rx="1"/><rect x="52.461056305901394" y="816.1571158582844" width="7.246950563799345" height="6.255316173717221" fill="#ff5e00" opacity="0.1319680706672296" rx="1"/><rect x="33.877926374873596" y="819.284773945143" width="7.246950563799345" height="6.255316173717221" fill="#ff8700" opacity="0.0659840353336148" rx="1"/><rect x="50.578334295558356" y="840.1671912930631" width="11.01239458448542" height="7.282874280885531" fill="#ff5e00" opacity="0.3122162593789902" rx="1"/><rect x="31.995204364530558" y="843.8086284335059" width="11.01239458448542" height="7.282874280885531" fill="#ff8700" opacity="0.1561081296894951" rx="1"/><rect x="51.544689344834694" y="864.1772667278417" width="9.079684485932738" height="8.420363796507093" fill="#ff5e00" opacity="0.12307624277264724" rx="1"/><rect x="32.961559413806896" y="868.3874486260952" width="9.079684485932738" height="8.420363796507093" fill="#ff8700" opacity="0.06153812138632362" rx="1"/><rect x="53.16517873484762" y="888.1873421626203" width="5.838705705906895" height="9.212137083339536" fill="#ff5e00" opacity="0.15255149841600832" rx="1"/><rect x="34.58204880381982" y="892.7934107042901" width="5.838705705906895" height="9.212137083339536" fill="#ff8700" opacity="0.07627574920800416" rx="1"/><rect x="50.25639268226372" y="912.197417597399" width="11.656277811074695" height="7.28116348695037" fill="#ff5e00" opacity="0.15466048653578862" rx="1"/><rect x="31.67326275123592" y="915.8379993408741" width="11.656277811074695" height="7.28116348695037" fill="#ff8700" opacity="0.07733024326789431" rx="1"/><rect x="51.21165047637459" y="936.2074930321776" width="9.745762222852967" height="6.787823441621806" fill="#ff5e00" opacity="0.29541683436730337" rx="1"/><rect x="32.62852054534679" y="939.6014047529885" width="9.745762222852967" height="6.787823441621806" fill="#ff8700" opacity="0.14770841718365169" rx="1"/><rect x="134.75042521132863" y="641.100192894484" width="35.23549856274284" height="309.1173755724722" fill="#130000" opacity="0.6435380035647047" rx="2"/><rect x="148.9403979405622" y="651.100192894484" width="6.855553104275733" height="6.746601921680058" fill="#ff5e00" opacity="0.21317446132031606" rx="1"/><rect x="140.13152329987648" y="654.4734938553241" width="6.855553104275733" height="6.746601921680058" fill="#ff8700" opacity="0.10658723066015803" rx="1"/><rect x="147.15284539157358" y="689.7398648410431" width="10.43065820225297" height="8.242636754699666" fill="#ff5e00" opacity="0.45090209528591996" rx="1"/><rect x="138.34397075088785" y="693.8611832183929" width="10.43065820225297" height="8.242636754699666" fill="#ff8700" opacity="0.22545104764295998" rx="1"/><rect x="149.86665854809496" y="728.3795367876021" width="5.00303188921023" height="7.9052502638439766" fill="#ff5e00" opacity="0.5608008640261369" rx="1"/><rect x="141.05778390740923" y="732.3321619195241" width="5.00303188921023" height="7.9052502638439766" fill="#ff8700" opacity="0.28040043201306847" rx="1"/><rect x="148.0189797168176" y="767.0192087341611" width="8.698389551764912" height="9.347496286813984" fill="#ff5e00" opacity="0.14148954666254332" rx="1"/><rect x="139.21010507613187" y="771.6929568775681" width="8.698389551764912" height="9.347496286813984" fill="#ff8700" opacity="0.07074477333127166" rx="1"/><rect x="147.26464033738353" y="805.6588806807201" width="10.207068310633085" height="9.800373287825" fill="#ff5e00" opacity="0.23500355454976754" rx="1"/><rect x="138.4557656966978" y="810.5590673246327" width="10.207068310633085" height="9.800373287825" fill="#ff8700" opacity="0.11750177727488377" rx="1"/><rect x="150.06701036846894" y="844.2985526272792" width="4.602328248462251" height="8.723139427304998" fill="#ff5e00" opacity="0.17159671922484337" rx="1"/><rect x="141.2581357277832" y="848.6601223409316" width="4.602328248462251" height="8.723139427304998" fill="#ff8700" opacity="0.08579835961242169" rx="1"/><rect x="148.98251153714548" y="882.9382245738382" width="6.771325911109178" height="9.030406515819582" fill="#ff5e00" opacity="0.43018495103581456" rx="1"/><rect x="140.17363689645975" y="887.453427831748" width="6.771325911109178" height="9.030406515819582" fill="#ff8700" opacity="0.21509247551790728" rx="1"/><rect x="148.15211805402117" y="921.5778965203972" width="8.432112877357778" height="8.667568547340942" fill="#ff5e00" opacity="0.5075041394465379" rx="1"/><rect x="139.34324341333544" y="925.9116807940677" width="8.432112877357778" height="8.667568547340942" fill="#ff8700" opacity="0.25375206972326897" rx="1"/><rect x="248.1504334737897" y="852.4391640332619" width="56.13617457126644" height="97.7784044336943" fill="#2d1600" opacity="0.5540422864849778" rx="2"/><rect x="274.06182250172407" y="862.4391640332619" width="4.31339651539768" height="9.782119982825154" fill="#ff5e00" opacity="0.12590506885338226" rx="1"/><rect x="260.0277788589074" y="867.3302240246745" width="4.31339651539768" height="9.782119982825154" fill="#ff8700" opacity="0.06295253442669113" rx="1"/><rect x="272.0108656224354" y="878.735564772211" width="8.415310273974974" height="6.453551650152903" fill="#ff5e00" opacity="0.25998103799297967" rx="1"/><rect x="257.97682197961876" y="881.9623405972874" width="8.415310273974974" height="6.453551650152903" fill="#ff8700" opacity="0.12999051899648983" rx="1"/><rect x="272.2964627186992" y="895.03196551116" width="7.844116081447368" height="8.225686606537943" fill="#ff5e00" opacity="0.17165888803351181" rx="1"/><rect x="258.2624190758826" y="899.144808814429" width="7.844116081447368" height="8.225686606537943" fill="#ff8700" opacity="0.08582944401675591" rx="1"/><rect x="272.3219737562635" y="911.3283662501091" width="7.793094006318854" height="9.15959347764952" fill="#ff5e00" opacity="0.11192166924288535" rx="1"/><rect x="258.28793011344686" y="915.9081629889338" width="7.793094006318854" height="9.15959347764952" fill="#ff8700" opacity="0.055960834621442676" rx="1"/><rect x="271.14634762614645" y="927.6247669890581" width="10.144346266552887" height="9.7149847177125" fill="#ff5e00" opacity="0.3048009495960551" rx="1"/><rect x="257.1123039833298" y="932.4822593479144" width="10.144346266552887" height="9.7149847177125" fill="#ff8700" opacity="0.15240047479802754" rx="1"/><rect x="270.59759046127965" y="943.9211677280072" width="11.241860596286566" height="7.238831445863198" fill="#ff5e00" opacity="0.24431969266019754" rx="1"/><rect x="256.563546818463" y="947.5405834509388" width="11.241860596286566" height="7.238831445863198" fill="#ff8700" opacity="0.12215984633009877" rx="1"/><rect x="355.4933362560099" y="835.1705039234764" width="48.872681213280345" height="115.04706454347983" fill="#2d1600" opacity="0.6378608440835636" rx="2"/><rect x="375.78036656947353" y="845.1705039234764" width="8.298620586353033" height="8.272823104232742" fill="#ff5e00" opacity="0.4110253879127618" rx="1"/><rect x="363.5621962661535" y="849.3069154755927" width="8.298620586353033" height="8.272823104232742" fill="#ff8700" opacity="0.2055126939563809" rx="1"/><rect x="376.92887329867324" y="868.1799168321724" width="6.0016071279536956" height="9.704996285891392" fill="#ff5e00" opacity="0.31337656483831267" rx="1"/><rect x="364.7107029953532" y="873.0324149751181" width="6.0016071279536956" height="9.704996285891392" fill="#ff8700" opacity="0.15668828241915633" rx="1"/><rect x="374.2138840037431" y="891.1893297408684" width="11.431585717813947" height="8.315785633939269" fill="#ff5e00" opacity="0.37658273297748124" rx="1"/><rect x="361.99571370042304" y="895.347222557838" width="11.431585717813947" height="8.315785633939269" fill="#ff8700" opacity="0.18829136648874062" rx="1"/><rect x="375.28498385247894" y="914.1987426495643" width="9.28938602034221" height="7.154817878537536" fill="#ff5e00" opacity="0.5040995711470254" rx="1"/><rect x="363.0668135491589" y="917.7761515888332" width="9.28938602034221" height="7.154817878537536" fill="#ff8700" opacity="0.2520497855735127" rx="1"/><rect x="376.3595573947206" y="937.2081555582603" width="7.140238935858998" height="7.592117115294588" fill="#ff5e00" opacity="0.2989487045674931" rx="1"/><rect x="364.14138709140053" y="941.0042141159075" width="7.140238935858998" height="7.592117115294588" fill="#ff8700" opacity="0.14947435228374656" rx="1"/><rect x="455.0564893440009" y="768.4119489436066" width="37.370498647766766" height="181.8056195233496" fill="#2d1600" opacity="0.41533385233844955" rx="2"/><rect x="471.46976924884825" y="778.4119489436066" width="4.543938838072107" height="6.895588931836092" fill="#ff5e00" opacity="0.17618245740332233" rx="1"/><rect x="462.1271445869065" y="781.8597434095246" width="4.543938838072107" height="6.895588931836092" fill="#ff8700" opacity="0.08809122870166117" rx="1"/><rect x="469.62441350021965" y="808.7128855308315" width="8.23465033532927" height="8.297600144124031" fill="#ff5e00" opacity="0.437061428427012" rx="1"/><rect x="460.2817888382779" y="812.8616856028935" width="8.23465033532927" height="8.297600144124031" fill="#ff8700" opacity="0.218530714213506" rx="1"/><rect x="471.10371643400373" y="839.0138221180565" width="5.276044467761192" height="6.069730416887842" fill="#ff5e00" opacity="0.4344091859959087" rx="1"/><rect x="461.761091772062" y="842.0486873265004" width="5.276044467761192" height="6.069730416887842" fill="#ff8700" opacity="0.21720459299795436" rx="1"/><rect x="468.04011098319666" y="869.3147587052814" width="11.403255369375287" height="6.075101748126349" fill="#ff5e00" opacity="0.523220928274845" rx="1"/><rect x="458.6974863212549" y="872.3523095793446" width="11.403255369375287" height="6.075101748126349" fill="#ff8700" opacity="0.2616104641374225" rx="1"/><rect x="469.71691212214455" y="899.6156952925063" width="8.049653091479477" height="8.565762200058849" fill="#ff5e00" opacity="0.11647241157863113" rx="1"/><rect x="460.3742874602028" y="903.8985763925357" width="8.049653091479477" height="8.565762200058849" fill="#ff8700" opacity="0.058236205789315564" rx="1"/><rect x="468.0692197170735" y="929.9166318797313" width="11.345037901621554" height="6.482856840938995" fill="#ff5e00" opacity="0.2815253930821841" rx="1"/><rect x="458.7265950551318" y="933.1580603002008" width="11.345037901621554" height="6.482856840938995" fill="#ff8700" opacity="0.14076269654109205" rx="1"/><rect x="581.8609109292415" y="707.864986594735" width="54.61777977752914" height="242.35258187222124" fill="#130000" opacity="0.6994145576607935" rx="2"/><rect x="604.7135595711214" y="717.864986594735" width="8.91248249376949" height="7.46344189007381" fill="#ff5e00" opacity="0.23045080649444155" rx="1"/><rect x="591.0591146267391" y="721.596707539772" width="8.91248249376949" height="7.46344189007381" fill="#ff8700" opacity="0.11522540324722078" rx="1"/><rect x="605.5802212577735" y="748.1590593287626" width="7.1791591204654335" height="7.472784272737984" fill="#ff5e00" opacity="0.11589817915016278" rx="1"/><rect x="591.9257763133911" y="751.8954514651316" width="7.1791591204654335" height="7.472784272737984" fill="#ff8700" opacity="0.05794908957508139" rx="1"/><rect x="605.2453894992932" y="778.4531320627904" width="7.848822637425927" height="6.138055970924454" fill="#ff5e00" opacity="0.18091805143768855" rx="1"/><rect x="591.5909445549108" y="781.5221600482525" width="7.848822637425927" height="6.138055970924454" fill="#ff8700" opacity="0.09045902571884427" rx="1"/><rect x="606.6518643888767" y="808.747204796818" width="5.035872858258866" height="8.247017355227614" fill="#ff5e00" opacity="0.2586705816813443" rx="1"/><rect x="592.9974194444943" y="812.8707134744318" width="5.035872858258866" height="8.247017355227614" fill="#ff8700" opacity="0.12933529084067216" rx="1"/><rect x="605.1929736449833" y="839.0412775308456" width="7.953654346045492" height="9.262352462686215" fill="#ff5e00" opacity="0.5409071359412995" rx="1"/><rect x="591.538528700601" y="843.6724537621888" width="7.953654346045492" height="9.262352462686215" fill="#ff8700" opacity="0.27045356797064973" rx="1"/><rect x="604.9597100433801" y="869.3353502648733" width="8.420181549252053" height="9.413093509947204" fill="#ff5e00" opacity="0.13377753625013344" rx="1"/><rect x="591.3052650989978" y="874.0418970198469" width="8.420181549252053" height="9.413093509947204" fill="#ff8700" opacity="0.06688876812506672" rx="1"/><rect x="604.8774587358064" y="899.629422998901" width="8.584684164399441" height="7.184569462478294" fill="#ff5e00" opacity="0.5537706493758062" rx="1"/><rect x="591.223013791424" y="903.2217077301401" width="8.584684164399441" height="7.184569462478294" fill="#ff8700" opacity="0.2768853246879031" rx="1"/><rect x="606.8274089153456" y="929.9234957329286" width="4.684783805321153" height="8.691951630332497" fill="#ff5e00" opacity="0.3522899221517821" rx="1"/><rect x="593.1729639709632" y="934.2694715480949" width="4.684783805321153" height="8.691951630332497" fill="#ff8700" opacity="0.17614496107589106" rx="1"/><rect x="684.9535953218476" y="736.4103283585074" width="43.446985532866556" height="213.80724010844884" fill="#130000" opacity="0.41540633009639716" rx="2"/><rect x="703.7511290597618" y="746.4103283585074" width="5.8519180570384295" height="8.354658281978839" fill="#ff5e00" opacity="0.5434419520998937" rx="1"/><rect x="692.8893826765451" y="750.5876574994968" width="5.8519180570384295" height="8.354658281978839" fill="#ff8700" opacity="0.2717209760499468" rx="1"/><rect x="703.651732042118" y="799.8621383856196" width="6.050712092325723" height="6.698538902378301" fill="#ff5e00" opacity="0.27284018783197744" rx="1"/><rect x="692.7899856589014" y="803.2114078368087" width="6.050712092325723" height="6.698538902378301" fill="#ff8700" opacity="0.13642009391598872" rx="1"/><rect x="700.8166206916369" y="853.3139484127319" width="11.720934793288105" height="7.734894461402412" fill="#ff5e00" opacity="0.1823889203794275" rx="1"/><rect x="689.9548743084202" y="857.1813956434331" width="11.720934793288105" height="7.734894461402412" fill="#ff8700" opacity="0.09119446018971375" rx="1"/><rect x="703.4971029261354" y="906.765758439844" width="6.359970324290909" height="6.266893190393898" fill="#ff5e00" opacity="0.4905280645449013" rx="1"/><rect x="692.6353565429188" y="909.899205035041" width="6.359970324290909" height="6.266893190393898" fill="#ff8700" opacity="0.24526403227245064" rx="1"/><rect x="819.4206131388015" y="847.5266711198555" width="37.71107127138205" height="102.69089734710076" fill="#2d1600" opacity="0.5545122310180479" rx="2"/><rect x="833.1582238162304" y="857.5266711198555" width="10.23584991652422" height="8.705152906175972" fill="#ff5e00" opacity="0.16711427019143343" rx="1"/><rect x="823.7304559983849" y="861.8792475729434" width="10.23584991652422" height="8.705152906175972" fill="#ff8700" opacity="0.08355713509571672" rx="1"/><rect x="835.9433763471765" y="878.0648505892756" width="4.6655448546320075" height="9.590622644776158" fill="#ff5e00" opacity="0.2278940232302747" rx="1"/><rect x="826.515608529331" y="882.8601619116637" width="4.6655448546320075" height="9.590622644776158" fill="#ff8700" opacity="0.11394701161513734" rx="1"/><rect x="832.4099470673617" y="898.6030300586957" width="11.732403414261622" height="6.779201490985975" fill="#ff5e00" opacity="0.5078738372558435" rx="1"/><rect x="822.9821792495162" y="901.9926308041887" width="11.732403414261622" height="6.779201490985975" fill="#ff8700" opacity="0.2539369186279217" rx="1"/><rect x="834.714156925146" y="919.141209528116" width="7.123983698693101" height="9.34934974167248" fill="#ff5e00" opacity="0.3578861754755225" rx="1"/><rect x="825.2863891073005" y="923.8158843989522" width="7.123983698693101" height="9.34934974167248" fill="#ff8700" opacity="0.17894308773776124" rx="1"/><rect x="833.1892163977467" y="939.6793889975361" width="10.17386475349168" height="7.103911873210201" fill="#ff5e00" opacity="0.10801978877466634" rx="1"/><rect x="823.7614485799012" y="943.2313449341411" width="10.17386475349168" height="7.103911873210201" fill="#ff8700" opacity="0.05400989438733317" rx="1"/><rect x="915.8413437744233" y="850.2625820111164" width="54.84958720506392" height="99.95498645583982" fill="#2d1600" opacity="0.49247954531863325" rx="2"/><rect x="937.5746879369427" y="860.2625820111164" width="11.382898880025117" height="7.974618890782496" fill="#ff5e00" opacity="0.15698342052218117" rx="1"/><rect x="923.8622911356767" y="864.2498914565076" width="11.382898880025117" height="7.974618890782496" fill="#ff8700" opacity="0.07849171026109059" rx="1"/><rect x="940.5114498365464" y="876.921746420423" width="5.5093750808176996" height="7.546893245900724" fill="#ff5e00" opacity="0.4999606824712737" rx="1"/><rect x="926.7990530352804" y="880.6951930433734" width="5.5093750808176996" height="7.546893245900724" fill="#ff8700" opacity="0.24998034123563684" rx="1"/><rect x="940.4937639211988" y="893.5809108297296" width="5.544746911512862" height="8.905758138491251" fill="#ff5e00" opacity="0.17450339001941106" rx="1"/><rect x="926.7813671199328" y="898.0337898989753" width="5.544746911512862" height="8.905758138491251" fill="#ff8700" opacity="0.08725169500970553" rx="1"/><rect x="939.3068795093118" y="910.2400752390363" width="7.918515735286874" height="7.07961780323638" fill="#ff5e00" opacity="0.3332639210469238" rx="1"/><rect x="925.5944827080458" y="913.7798841406545" width="7.918515735286874" height="7.07961780323638" fill="#ff8700" opacity="0.1666319605234619" rx="1"/><rect x="940.1481483748993" y="926.8992396483429" width="6.235978004111903" height="9.198791204765158" fill="#ff5e00" opacity="0.1045781746750181" rx="1"/><rect x="926.4357515736333" y="931.4986352507256" width="6.235978004111903" height="9.198791204765158" fill="#ff8700" opacity="0.05228908733750905" rx="1"/><rect x="938.738619381501" y="943.5584040576496" width="9.055035990908518" height="9.03586719535195" fill="#ff5e00" opacity="0.3321518866187315" rx="1"/><rect x="925.0262225802351" y="948.0763376553256" width="9.055035990908518" height="9.03586719535195" fill="#ff8700" opacity="0.16607594330936576" rx="1"/><rect x="1038.8331847844722" y="627.4004080862273" width="58.80024301093077" height="322.8171603807288" fill="#130000" opacity="0.6418045344859837" rx="2"/><rect x="1063.8209002778915" y="637.4004080862273" width="8.824812024092491" height="8.11682819065564" fill="#ff5e00" opacity="0.2434346435459877" rx="1"/><rect x="1049.1208395251588" y="641.4588221815552" width="8.824812024092491" height="8.11682819065564" fill="#ff8700" opacity="0.12171732177299385" rx="1"/><rect x="1063.7301470392222" y="683.5171452834743" width="9.006318501431103" height="9.739580658203824" fill="#ff5e00" opacity="0.41039411837942763" rx="1"/><rect x="1049.0300862864894" y="688.3869356125762" width="9.006318501431103" height="9.739580658203824" fill="#ff8700" opacity="0.20519705918971382" rx="1"/><rect x="1065.9874432899494" y="729.6338824807212" width="4.4917259999764445" height="8.553512834607044" fill="#ff5e00" opacity="0.3817795724332751" rx="1"/><rect x="1051.2873825372167" y="733.9106388980248" width="4.4917259999764445" height="8.553512834607044" fill="#ff8700" opacity="0.19088978621663755" rx="1"/><rect x="1064.786762325975" y="775.7506196779682" width="6.893087927925654" height="9.720076163234207" fill="#ff5e00" opacity="0.16441416720962482" rx="1"/><rect x="1050.0867015732422" y="780.6106577595853" width="6.893087927925654" height="9.720076163234207" fill="#ff8700" opacity="0.08220708360481241" rx="1"/><rect x="1065.7782523941198" y="821.8673568752153" width="4.910107791635698" height="7.382881485247724" fill="#ff5e00" opacity="0.4302364021842918" rx="1"/><rect x="1051.078191641387" y="825.5587976178391" width="4.910107791635698" height="7.382881485247724" fill="#ff8700" opacity="0.2151182010921459" rx="1"/><rect x="1064.963639697983" y="867.9840940724622" width="6.539333183909611" height="8.905284853397237" fill="#ff5e00" opacity="0.18628775658698002" rx="1"/><rect x="1050.2635789452502" y="872.4367364991608" width="6.539333183909611" height="8.905284853397237" fill="#ff8700" opacity="0.09314387829349001" rx="1"/><rect x="1064.3913032364546" y="914.1008312697091" width="7.6840061069661765" height="6.729491230270241" fill="#ff5e00" opacity="0.47430315135845524" rx="1"/><rect x="1049.691242483722" y="917.4655768848443" width="7.6840061069661765" height="6.729491230270241" fill="#ff8700" opacity="0.23715157567922762" rx="1"/><rect x="1156.7207121399047" y="820.8112067358595" width="31.831991253847253" height="129.40636173109672" fill="#130000" opacity="0.4958291066567947" rx="2"/><rect x="1168.176720536588" y="830.8112067358595" width="8.919974460480729" height="9.824133487377347" fill="#ff5e00" opacity="0.5391466782985131" rx="1"/><rect x="1160.2187227231261" y="835.7232734795482" width="8.919974460480729" height="9.824133487377347" fill="#ff8700" opacity="0.2695733391492566" rx="1"/><rect x="1167.4319431326426" y="849.2978298403019" width="10.409529268371298" height="6.429991557362953" fill="#ff5e00" opacity="0.5438162442398761" rx="1"/><rect x="1159.4739453191808" y="852.5128256189834" width="10.409529268371298" height="6.429991557362953" fill="#ff8700" opacity="0.27190812211993803" rx="1"/><rect x="1170.012328317159" y="867.7844529447443" width="5.24875889933872" height="9.422624968789197" fill="#ff5e00" opacity="0.11776847488194903" rx="1"/><rect x="1162.0543305036972" y="872.4957654291389" width="5.24875889933872" height="9.422624968789197" fill="#ff8700" opacity="0.05888423744097451" rx="1"/><rect x="1167.7625239204528" y="886.2710760491867" width="9.748367692750964" height="6.9288323784547" fill="#ff5e00" opacity="0.4457504121693201" rx="1"/><rect x="1159.804526106991" y="889.735492238414" width="9.748367692750964" height="6.9288323784547" fill="#ff8700" opacity="0.22287520608466005" rx="1"/><rect x="1168.6568868946417" y="904.7576991536291" width="7.9596417443732825" height="8.9334364856904" fill="#ff5e00" opacity="0.20253155955638075" rx="1"/><rect x="1160.69888908118" y="909.2244173964743" width="7.9596417443732825" height="8.9334364856904" fill="#ff8700" opacity="0.10126577977819037" rx="1"/><rect x="1168.1641565908594" y="923.2443222580714" width="8.945102351937699" height="9.846444917806993" fill="#ff5e00" opacity="0.25464901974300136" rx="1"/><rect x="1160.2061587773976" y="928.1675447169749" width="8.945102351937699" height="9.846444917806993" fill="#ff8700" opacity="0.12732450987150068" rx="1"/><rect x="1169.4273642316525" y="941.7309453625139" width="6.418687070351719" height="9.640021786009898" fill="#ff5e00" opacity="0.28648018692305316" rx="1"/><rect x="1161.4693664181907" y="946.5509562555188" width="6.418687070351719" height="9.640021786009898" fill="#ff8700" opacity="0.14324009346152658" rx="1"/><rect x="1269.4848463729688" y="791.8985030594977" width="39.90231380097156" height="158.31906540745848" fill="#2d1600" opacity="0.6191652819558897" rx="2"/><rect x="1285.4028153331958" y="801.8985030594977" width="8.066375880517619" height="8.912201045759069" fill="#ff5e00" opacity="0.3077285035531336" rx="1"/><rect x="1275.427236882953" y="806.3546035823772" width="8.066375880517619" height="8.912201045759069" fill="#ff8700" opacity="0.1538642517765668" rx="1"/><rect x="1286.6906123980161" y="821.68838623543" width="5.490781750877105" height="9.049054383078836" fill="#ff5e00" opacity="0.26760473667355367" rx="1"/><rect x="1276.7150339477732" y="826.2129134269694" width="5.490781750877105" height="9.049054383078836" fill="#ff8700" opacity="0.13380236833677683" rx="1"/><rect x="1285.1311921053873" y="841.4782694113622" width="8.609622336134692" height="9.192479061706102" fill="#ff5e00" opacity="0.42607499261528137" rx="1"/><rect x="1275.1556136551444" y="846.0745089422153" width="8.609622336134692" height="9.192479061706102" fill="#ff8700" opacity="0.21303749630764068" rx="1"/><rect x="1285.1328726192316" y="861.2681525872946" width="8.606261308446122" height="6.795504194869545" fill="#ff5e00" opacity="0.23533573670669825" rx="1"/><rect x="1275.1572941689888" y="864.6659046847294" width="8.606261308446122" height="6.795504194869545" fill="#ff8700" opacity="0.11766786835334912" rx="1"/><rect x="1285.9545974887337" y="881.0580357632269" width="6.962811569441765" height="8.35730532797922" fill="#ff5e00" opacity="0.46051730377611644" rx="1"/><rect x="1275.9790190384908" y="885.2366884272166" width="6.962811569441765" height="8.35730532797922" fill="#ff8700" opacity="0.23025865188805822" rx="1"/><rect x="1284.8450718042081" y="900.8479189391592" width="9.181862938492992" height="9.249321160663227" fill="#ff5e00" opacity="0.5953998279514257" rx="1"/><rect x="1274.8694933539653" y="905.4725795194908" width="9.181862938492992" height="9.249321160663227" fill="#ff8700" opacity="0.2976999139757128" rx="1"/><rect x="1287.030071434572" y="920.6378021150915" width="4.811863677765211" height="9.899065004638178" fill="#ff5e00" opacity="0.5927068023226938" rx="1"/><rect x="1277.054492984329" y="925.5873346174106" width="4.811863677765211" height="9.899065004638178" fill="#ff8700" opacity="0.2963534011613469" rx="1"/><rect x="1286.932537657193" y="940.4276852910239" width="5.006931232522924" height="7.101960639725895" fill="#ff5e00" opacity="0.5511932838827356" rx="1"/><rect x="1276.9569592069502" y="943.9786656108868" width="5.006931232522924" height="7.101960639725895" fill="#ff8700" opacity="0.2755966419413678" rx="1"/><rect x="1382.8619962914063" y="702.0754195056101" width="62.888317297419604" height="248.14214896134618" fill="#130000" opacity="0.5604093746655643" rx="2"/><rect x="1408.3605865443503" y="712.0754195056101" width="11.891136791531727" height="9.565720669824099" fill="#ff5e00" opacity="0.1796107289101022" rx="1"/><rect x="1392.6385072199953" y="716.8582798405221" width="11.891136791531727" height="9.565720669824099" fill="#ff8700" opacity="0.0898053644550511" rx="1"/><rect x="1409.8490031400813" y="747.5242979286595" width="8.914303600069672" height="6.52501338173752" fill="#ff5e00" opacity="0.5507990336163898" rx="1"/><rect x="1394.1269238157263" y="750.7868046195283" width="8.914303600069672" height="6.52501338173752" fill="#ff8700" opacity="0.2753995168081949" rx="1"/><rect x="1408.4984719798667" y="782.973176351709" width="11.615365920498819" height="8.001461672131313" fill="#ff5e00" opacity="0.48905999934977384" rx="1"/><rect x="1392.7763926555117" y="786.9739071877746" width="11.615365920498819" height="8.001461672131313" fill="#ff8700" opacity="0.24452999967488692" rx="1"/><rect x="1408.898067061766" y="818.4220547747584" width="10.816175756700378" height="7.006377128187189" fill="#ff5e00" opacity="0.49331169354107973" rx="1"/><rect x="1393.1759877374109" y="821.925243338852" width="10.816175756700378" height="7.006377128187189" fill="#ff8700" opacity="0.24665584677053987" rx="1"/><rect x="1410.2426067202455" y="853.8709331978079" width="8.127096439741342" height="9.624385967763232" fill="#ff5e00" opacity="0.3881495190756744" rx="1"/><rect x="1394.5205273958904" y="858.6831261816894" width="8.127096439741342" height="9.624385967763232" fill="#ff8700" opacity="0.1940747595378372" rx="1"/><rect x="1410.962256042744" y="889.3198116208573" width="6.687797794744325" height="7.386598459767782" fill="#ff5e00" opacity="0.5341553108380538" rx="1"/><rect x="1395.240176718389" y="893.0131108507412" width="6.687797794744325" height="7.386598459767782" fill="#ff8700" opacity="0.2670776554190269" rx="1"/><rect x="1408.6165442260956" y="924.7686900439069" width="11.379221428041166" height="7.992438746148823" fill="#ff5e00" opacity="0.5002871620236633" rx="1"/><rect x="1392.8944649017405" y="928.7649094169813" width="11.379221428041166" height="7.992438746148823" fill="#ff8700" opacity="0.25014358101183165" rx="1"/><rect x="1481.7618134342508" y="668.0469494005774" width="88.84239938083161" height="282.1706190663787" fill="#2d1600" opacity="0.4229519859475438" rx="2"/><rect x="1524.1421673384357" y="678.0469494005774" width="4.081691572461671" height="7.003266294720412" fill="#ff5e00" opacity="0.10072346359973855" rx="1"/><rect x="1501.931567493228" y="681.5485825479376" width="4.081691572461671" height="7.003266294720412" fill="#ff8700" opacity="0.050361731799869275" rx="1"/><rect x="1520.9285079673693" y="734.4810732138532" width="10.509010314594258" height="8.483114484344403" fill="#ff5e00" opacity="0.10172329216769974" rx="1"/><rect x="1498.7179081221616" y="738.7226304560254" width="10.509010314594258" height="8.483114484344403" fill="#ff8700" opacity="0.05086164608384987" rx="1"/><rect x="1521.3215334150755" y="790.9151970271289" width="9.72295941918226" height="9.625428682105948" fill="#ff5e00" opacity="0.4932448955935531" rx="1"/><rect x="1499.1109335698677" y="795.7279113681818" width="9.72295941918226" height="9.625428682105948" fill="#ff8700" opacity="0.24662244779677656" rx="1"/><rect x="1520.4874266417432" y="847.3493208404047" width="11.391172965846764" height="9.159014703510099" fill="#ff5e00" opacity="0.21081675349520912" rx="1"/><rect x="1498.2768267965355" y="851.9288281921598" width="11.391172965846764" height="9.159014703510099" fill="#ff8700" opacity="0.10540837674760456" rx="1"/><rect x="1523.5852043294776" y="903.7834446536804" width="5.19561759037795" height="6.581383602829041" fill="#ff5e00" opacity="0.5026047057478235" rx="1"/><rect x="1501.3746044842699" y="907.0741364550948" width="5.19561759037795" height="6.581383602829041" fill="#ff8700" opacity="0.2513023528739117" rx="1"/><rect x="1604.711981018705" y="814.3809558857188" width="35.71340545679289" height="135.83661258123738" fill="#130000" opacity="0.5217025038836762" rx="2"/><rect x="1619.9068819673046" y="824.3809558857188" width="5.323603559593578" height="7.015768619490734" fill="#ff5e00" opacity="0.1406137398771508" rx="1"/><rect x="1610.9785306031065" y="827.8888401954641" width="5.323603559593578" height="7.015768619490734" fill="#ff8700" opacity="0.0703068699385754" rx="1"/><rect x="1617.7672070406297" y="841.3605324583734" width="9.602953412943275" height="9.095702285667812" fill="#ff5e00" opacity="0.18911199031609854" rx="1"/><rect x="1608.8388556764316" y="845.9083836012073" width="9.602953412943275" height="9.095702285667812" fill="#ff8700" opacity="0.09455599515804927" rx="1"/><rect x="1618.0706515398504" y="858.3401090310281" width="8.996064414502136" height="9.407718120936238" fill="#ff5e00" opacity="0.24209845886614603" rx="1"/><rect x="1609.1423001756523" y="863.0439680914963" width="8.996064414502136" height="9.407718120936238" fill="#ff8700" opacity="0.12104922943307302" rx="1"/><rect x="1618.7776434109026" y="875.3196856036828" width="7.582080672397763" height="8.862887742664405" fill="#ff5e00" opacity="0.44037921830089277" rx="1"/><rect x="1609.8492920467045" y="879.7511294750151" width="7.582080672397763" height="8.862887742664405" fill="#ff8700" opacity="0.22018960915044639" rx="1"/><rect x="1617.1526204068566" y="892.2992621763375" width="10.832126680489658" height="7.790987486436727" fill="#ff5e00" opacity="0.18798908688779667" rx="1"/><rect x="1608.2242690426585" y="896.1947559195559" width="10.832126680489658" height="7.790987486436727" fill="#ff8700" opacity="0.09399454344389833" rx="1"/><rect x="1617.0844216635644" y="909.2788387489921" width="10.968524167074012" height="8.401299452036922" fill="#ff5e00" opacity="0.5714890543770718" rx="1"/><rect x="1608.1560702993663" y="913.4794884750106" width="10.968524167074012" height="8.401299452036922" fill="#ff8700" opacity="0.2857445271885359" rx="1"/><rect x="1618.0654200988506" y="926.2584153216468" width="9.006527296501801" height="8.621065104990514" fill="#ff5e00" opacity="0.19214419594317306" rx="1"/><rect x="1609.1370687346525" y="930.568947874142" width="9.006527296501801" height="8.621065104990514" fill="#ff8700" opacity="0.09607209797158653" rx="1"/><rect x="1619.5396321570822" y="943.2379918943014" width="6.058103180038302" height="8.170892699195745" fill="#ff5e00" opacity="0.447758515935335" rx="1"/><rect x="1610.6112807928841" y="947.3234382438993" width="6.058103180038302" height="8.170892699195745" fill="#ff8700" opacity="0.2238792579676675" rx="1"/><rect x="1703.9373291246445" y="829.5760430930127" width="70.41947402069798" height="120.6415253739435" fill="#130000" opacity="0.6145332183955547" rx="2"/><rect x="1733.8917441509877" y="839.5760430930127" width="10.510643968011868" height="9.517476882673213" fill="#ff5e00" opacity="0.24909877701408667" rx="1"/><rect x="1716.286875645813" y="844.3347815343493" width="10.510643968011868" height="9.517476882673213" fill="#ff8700" opacity="0.12454938850704333" rx="1"/><rect x="1734.1998829080721" y="869.7364244364985" width="9.89436645384281" height="6.738927561030473" fill="#ff5e00" opacity="0.5405515062251481" rx="1"/><rect x="1716.5950144028975" y="873.1058882170138" width="9.89436645384281" height="6.738927561030473" fill="#ff8700" opacity="0.27027575311257407" rx="1"/><rect x="1733.2909481675108" y="899.8968057799844" width="11.712235934965367" height="6.936668822759918" fill="#ff5e00" opacity="0.3040171530572737" rx="1"/><rect x="1715.6860796623362" y="903.3651401913644" width="11.712235934965367" height="6.936668822759918" fill="#ff8700" opacity="0.15200857652863686" rx="1"/><rect x="1733.3397677848905" y="930.0571871234703" width="11.614596700206071" height="8.478737873602364" fill="#ff5e00" opacity="0.4468073838965053" rx="1"/><rect x="1715.7348992797158" y="934.2965560602714" width="11.614596700206071" height="8.478737873602364" fill="#ff8700" opacity="0.22340369194825266" rx="1"/><rect x="1815.2831969492331" y="856.2579690376898" width="49.719479870917155" height="93.95959942926643" fill="#2d1600" opacity="0.6744591146880898" rx="2"/><rect x="1834.7996074095831" y="866.2579690376898" width="10.686658950216756" height="7.136973062794882" fill="#ff5e00" opacity="0.5852522505645762" rx="1"/><rect x="1822.3697374418539" y="869.8264555690872" width="10.686658950216756" height="7.136973062794882" fill="#ff8700" opacity="0.2926261252822881" rx="1"/><rect x="1834.3765774800852" y="897.5778355141119" width="11.532718809212724" height="6.757258779545608" fill="#ff5e00" opacity="0.44949002970231" rx="1"/><rect x="1821.946707512356" y="900.9564649038847" width="11.532718809212724" height="6.757258779545608" fill="#ff8700" opacity="0.224745014851155" rx="1"/><rect x="1836.1503594310839" y="928.8977019905341" width="7.985154907215655" height="8.08985104274234" fill="#ff5e00" opacity="0.12962236677520497" rx="1"/><rect x="1823.7204894633546" y="932.9426275119052" width="7.985154907215655" height="8.08985104274234" fill="#ff8700" opacity="0.06481118338760249" rx="1"/><path d="M1115.0189546856607 825.4381239240612 Q1097.0537762243891 731.824111777084 1093.4607405321347 638.2100996301067" stroke="#000000" stroke-width="7.136484650693946" fill="none" stroke-linecap="round"/><path d="M1093.4607405321347 638.2100996301067 Q1130.434774002627 618.2100996301067 1160.4674855043336 638.2100996301067" stroke="#000000" stroke-width="2.1819165982729563" fill="none" stroke-linecap="round" opacity="0.6"/><path d="M1093.4607405321347 638.2100996301067 Q1119.3590017900976 627.1067978014265 1140.7599408024435 656.0034959727464" stroke="#000000" stroke-width="3.318080051177666" fill="none" stroke-linecap="round" opacity="0.6"/><path d="M1093.4607405321347 638.2100996301067 Q1095.8233016918077 628.9683990865062 1077.0906628890793 659.7266985429059" stroke="#000000" stroke-width="3.561949677663378" fill="none" stroke-linecap="round" opacity="0.6"/><path d="M1093.4607405321347 638.2100996301067 Q1079.120264106487 623.0783465862255 1026.0672807442759 647.9465935423443" stroke="#000000" stroke-width="3.051103296468757" fill="none" stroke-linecap="round" opacity="0.6"/><path d="M1093.4607405321347 638.2100996301067 Q1072.9784613845006 614.3362641943824 1039.8333927382566 630.462428758658" stroke="#000000" stroke-width="2.773721540526888" fill="none" stroke-linecap="round" opacity="0.6"/><path d="M1093.4607405321347 638.2100996301067 Q1094.5489188400572 610.5181272565112 1081.7564572023848 622.8261548829158" stroke="#000000" stroke-width="2.97863368899064" fill="none" stroke-linecap="round" opacity="0.6"/><path d="M1093.4607405321347 638.2100996301067 Q1130.3952534286725 611.313858239613 1130.1245338136553 624.4176168491193" stroke="#000000" stroke-width="2.9198816960956626" fill="none" stroke-linecap="round" opacity="0.6"/><path d="M484.09482937401503 838.4678405566299 Q482.757182191768 738.0523428758728 482.48965275531856 637.6368451951157" stroke="#000000" stroke-width="5.1253544029605935" fill="none" stroke-linecap="round"/><path d="M482.48965275531856 637.6368451951157 Q516.2624344325769 617.6368451951157 521.6369952381674 637.6368451951157" stroke="#000000" stroke-width="2.969192371929342" fill="none" stroke-linecap="round" opacity="0.6"/><path d="M482.48965275531856 637.6368451951157 Q508.7766875344694 625.7634304743992 525.6945561067329 653.8900157536829" stroke="#000000" stroke-width="2.099172227107727" fill="none" stroke-linecap="round" opacity="0.6"/><path d="M482.48965275531856 637.6368451951157 Q481.4093723100821 628.257005100173 466.32977145325685 658.8771650052305" stroke="#000000" stroke-width="3.2346294175914094" fill="none" stroke-linecap="round" opacity="0.6"/><path d="M482.48965275531856 637.6368451951157 Q463.58357234219613 622.521011080436 414.87581965347607 647.4051769657564" stroke="#000000" stroke-width="2.196377248083329" fill="none" stroke-linecap="round" opacity="0.6"/><path d="M482.48965275531856 637.6368451951157 Q454.982018390598 612.844701085076 416.14972088894893 628.0525569750364" stroke="#000000" stroke-width="2.319688353296297" fill="none" stroke-linecap="round" opacity="0.6"/><path d="M482.48965275531856 637.6368451951157 Q485.73535584891687 607.5238958083302 467.1015547261741 617.4109464215446" stroke="#000000" stroke-width="2.3133020494862695" fill="none" stroke-linecap="round" opacity="0.6"/><rect x="0" y="1000" width="1920" height="80" fill="#070000" opacity="0.8"/><line x1="0" y1="1040" x2="1920" y2="1040" stroke="#ff5e00" stroke-opacity="0.15" stroke-width="2" stroke-dasharray="30,20"/><rect x="0" y="930" width="1920" height="150" fill="url(#glow17)"/><text x="1900" y="1060" font-family="Arial, sans-serif" font-size="11" fill="#fff" opacity="0.08" text-anchor="end" letter-spacing="2">GTA 6 REWARDS · WALLPAPER 018</text>
</svg>