<?xml version="1.0" encoding="UTF-8"?>
<svg xmlns="http://www.w3.org/2000/svg" width="1920" height="1080" viewBox="0 0 1920 1080">
<defs>
    <linearGradient id="bg66" x1="0%" y1="0%" x2="0%" y2="100%">
      <stop offset="0%" stop-color="#264653"/>
      <stop offset="50%" stop-color="#001320"/>
      <stop offset="100%" stop-color="#264653"/>
    </linearGradient>
    <linearGradient id="sun66" x1="0%" y1="0%" x2="100%" y2="100%">
      <stop offset="0%" stop-color="#f4a261"/>
      <stop offset="100%" stop-color="#e76f51"/>
    </linearGradient>
    <radialGradient id="glow66" cx="50%" cy="70%" r="50%">
      <stop offset="0%" stop-color="#f4a261" stop-opacity="0.3"/>
      <stop offset="100%" stop-color="#264653" stop-opacity="0"/>
    </radialGradient>
  </defs><rect width="1920" height="1080" fill="url(#bg66)"/><circle cx="305.6183614781169" cy="289.5942469336079" r="820.058835232644" fill="#f4a261" opacity="0.10879640915868721"/><circle cx="505.6183614781169" cy="189.5942469336079" r="572.809608646857" fill="#e76f51" opacity="0.05367506120439504"/><line x1="0" y1="980" x2="1920" y2="980" stroke="#e76f51" stroke-opacity="0.05" stroke-width="2"/><line x1="0" y1="935" x2="1920" y2="935" stroke="#e76f51" stroke-opacity="0.049" stroke-width="0.5"/><line x1="0" y1="890" x2="1920" y2="890" stroke="#e76f51" stroke-opacity="0.048" stroke-width="0.5"/><line x1="0" y1="845" x2="1920" y2="845" stroke="#e76f51" stroke-opacity="0.047" stroke-width="0.5"/><line x1="0" y1="800" x2="1920" y2="800" stroke="#e76f51" stroke-opacity="0.046" stroke-width="0.5"/><line x1="0" y1="755" x2="1920" y2="755" stroke="#e76f51" stroke-opacity="0.045" stroke-width="0.5"/><line x1="0" y1="710" x2="1920" y2="710" stroke="#e76f51" stroke-opacity="0.044" stroke-width="0.5"/><line x1="0" y1="665" x2="1920" y2="665" stroke="#e76f51" stroke-opacity="0.043" stroke-width="0.5"/><line x1="0" y1="620" x2="1920" y2="620" stroke="#e76f51" stroke-opacity="0.041999999999999996" stroke-width="0.5"/><line x1="0" y1="575" x2="1920" y2="575" stroke="#e76f51" stroke-opacity="0.041" stroke-width="0.5"/><line x1="0" y1="530" x2="1920" y2="530" stroke="#e76f51" stroke-opacity="0.04" stroke-width="0.5"/><line x1="0" y1="485" x2="1920" y2="485" stroke="#e76f51" stroke-opacity="0.039" stroke-width="0.5"/><line x1="0" y1="440" x2="1920" y2="440" stroke="#e76f51" stroke-opacity="0.038" stroke-width="0.5"/><line x1="0" y1="395" x2="1920" y2="395" stroke="#e76f51" stroke-opacity="0.037" stroke-width="0.5"/><line x1="0" y1="350" x2="1920" y2="350" stroke="#e76f51" stroke-opacity="0.036" stroke-width="0.5"/><line x1="0" y1="305" x2="1920" y2="305" stroke="#e76f51" stroke-opacity="0.034999999999999996" stroke-width="0.5"/><line x1="0" y1="260" x2="1920" y2="260" stroke="#e76f51" stroke-opacity="0.033999999999999996" stroke-width="0.5"/><line x1="0" y1="215" x2="1920" y2="215" stroke="#e76f51" stroke-opacity="0.033" stroke-width="0.5"/><line x1="0" y1="170" x2="1920" y2="170" stroke="#e76f51" stroke-opacity="0.032" stroke-width="0.5"/><line x1="0" y1="125" x2="1920" y2="125" stroke="#e76f51" stroke-opacity="0.031" stroke-width="0.5"/><line x1="560" y1="1080" x2="860" y2="580" stroke="#f4a261" stroke-opacity="0.04" stroke-width="1"/><line x1="640" y1="1080" x2="880" y2="590" stroke="#f4a261" stroke-opacity="0.04" stroke-width="1"/><line x1="720" y1="1080" x2="900" y2="600" stroke="#f4a261" stroke-opacity="0.04" stroke-width="1"/><line x1="800" y1="1080" x2="920" y2="610" stroke="#f4a261" stroke-opacity="0.04" stroke-width="1"/><line x1="880" y1="1080" x2="940" y2="620" stroke="#f4a261" stroke-opacity="0.04" stroke-width="1"/><line x1="960" y1="1080" x2="960" y2="630" stroke="#f4a261" stroke-opacity="0.04" stroke-width="1"/><line x1="1040" y1="1080" x2="980" y2="620" stroke="#f4a261" stroke-opacity="0.04" stroke-width="1"/><line x1="1120" y1="1080" x2="1000" y2="610" stroke="#f4a261" stroke-opacity="0.04" stroke-width="1"/><line x1="1200" y1="1080" x2="1020" y2="600" stroke="#f4a261" stroke-opacity="0.04" stroke-width="1"/><line x1="1280" y1="1080" x2="1040" y2="590" stroke="#f4a261" stroke-opacity="0.04" stroke-width="1"/><line x1="1360" y1="1080" x2="1060" y2="580" stroke="#f4a261" stroke-opacity="0.04" stroke-width="1"/><circle cx="962.1930162101502" cy="230.7861721564052" r="60.18166116443036" fill="url(#sun66)" opacity="0.6007622501348988"/><circle cx="962.1930162101502" cy="230.7861721564052" r="55.18166116443036" fill="#264653" opacity="0.3"/><circle cx="1144.1099978667007" cy="153.30042672373833" r="1.7828378133202991" fill="#fff" opacity="0.7873996901762206"/><circle cx="718.8990593140244" cy="279.2524494769174" r="1.8791333250420013" fill="#fff" opacity="0.3021828982751311"/><circle cx="297.73591033595983" cy="310.59562990968016" r="1.6658855573427598" fill="#fff" opacity="0.31013148275905555"/><circle cx="351.87170111384984" cy="21.744294756498256" r="1.2031727626927133" fill="#fff" opacity="0.36564793325160816"/><circle cx="841.70355965423" cy="257.80476626795826" r="0.7741665312261709" fill="#fff" opacity="0.3513394745419127"/><circle cx="415.75374449038736" cy="48.52312647936007" r="0.9493309612035125" fill="#fff" opacity="0.5483558944771895"/><circle cx="1916.464274971854" cy="290.156368509437" r="1.970066917587553" fill="#fff" opacity="0.6580796085433288"/><circle cx="285.85344008306356" cy="244.0250384518935" r="1.591884239016074" fill="#fff" opacity="0.5373410406376563"/><circle cx="645.0723961007484" cy="218.3677837276756" r="1.732059964498519" fill="#fff" opacity="0.4828944130993668"/><circle cx="734.6575750630949" cy="109.61884449366917" r="0.8728235320590492" fill="#fff" opacity="0.42865885599252274"/><circle cx="1653.1772150968147" cy="25.773441983799785" r="1.087201742592082" fill="#fff" opacity="0.323874763986998"/><circle cx="1618.7836105420215" cy="402.35013184751153" r="1.7567549329848855" fill="#fff" opacity="0.44351631566964"/><circle cx="748.7214134886678" cy="371.4960179635081" r="1.4276933984196962" fill="#fff" opacity="0.4096774292666645"/><circle cx="824.0647054147126" cy="201.08576923447794" r="1.8663329075477861" fill="#fff" opacity="0.2915999210187234"/><circle cx="924.0942319398965" cy="107.31599176566023" r="0.8932824068221455" fill="#fff" opacity="0.22683507274529782"/><circle cx="54.19189677904171" cy="305.7562745441115" r="0.6498609751346197" fill="#fff" opacity="0.34486209036429927"/><circle cx="446.96508373296007" cy="40.45770713883865" r="1.1510815677817634" fill="#fff" opacity="0.6265291458523201"/><circle cx="1690.6476196112687" cy="394.1428181850684" r="1.3617169882314553" fill="#fff" opacity="0.5443558584769154"/><circle cx="114.96459203655007" cy="175.37445726976134" r="1.7691640203746883" fill="#fff" opacity="0.21351358173729704"/><circle cx="1057.804898120883" cy="118.18289681667994" r="0.5064959271127581" fill="#fff" opacity="0.2754063179426376"/><circle cx="1751.453709712125" cy="18.721892722584748" r="1.0833628480516753" fill="#fff" opacity="0.32180436461274614"/><circle cx="656.0709475018249" cy="202.26341482863376" r="0.5141082870573989" fill="#fff" opacity="0.4691102703728504"/><circle cx="1037.8962776991298" cy="125.12740240179176" r="0.5135747544731886" fill="#fff" opacity="0.7879668666021822"/><circle cx="107.26024212950381" cy="133.12426769852738" r="1.2016331684313792" fill="#fff" opacity="0.4394637483264002"/><circle cx="809.6562755502891" cy="180.41030010311172" r="0.9997870783553895" fill="#fff" opacity="0.6843708747262999"/><circle cx="401.0363415817349" cy="76.65618018728127" r="1.3796974313165289" fill="#fff" opacity="0.6247707295754856"/><circle cx="1110.7318324946639" cy="156.6660679943548" r="1.3160017366325487" fill="#fff" opacity="0.5028528352973174"/><circle cx="12.385063472293565" cy="149.1559903410161" r="0.6165673516496475" fill="#fff" opacity="0.7986133390103032"/><circle cx="324.4093426327243" cy="200.59824985093397" r="0.9586102560764668" fill="#fff" opacity="0.4416069476030783"/><circle cx="1838.4622876156266" cy="229.35526889314764" r="1.3208966671537834" fill="#fff" opacity="0.5531642091351477"/><circle cx="1750.3299177788035" cy="378.5405958282157" r="0.9069121888389141" fill="#fff" opacity="0.36850121970486394"/><circle cx="700.8355796478772" cy="49.24455587967405" r="1.7072701121697365" fill="#fff" opacity="0.34069873130430905"/><circle cx="1514.4491555342565" cy="24.215192841416037" r="1.6005845284323639" fill="#fff" opacity="0.714071816698199"/><circle cx="1798.1422461285588" cy="121.98053695121328" r="1.6698849132912899" fill="#fff" opacity="0.4704382010433912"/><circle cx="1474.9025688029133" cy="11.638146995482535" r="1.7167733711462405" fill="#fff" opacity="0.3309684957682547"/><circle cx="432.1012992672858" cy="8.738301327623963" r="1.771987664925863" fill="#fff" opacity="0.7658638766421619"/><circle cx="1916.2944647661166" cy="57.541711440668834" r="1.1257540645603448" fill="#fff" opacity="0.6300133243273044"/><circle cx="1364.3017234104457" cy="311.0648100243567" r="0.6528926239472098" fill="#fff" opacity="0.2833084704548373"/><circle cx="430.8786183108758" cy="50.69221057060459" r="1.459911336647326" fill="#fff" opacity="0.4292221063350379"/><circle cx="1072.9306280130825" cy="187.54353610694957" r="0.8861068784925404" fill="#fff" opacity="0.3656056208455948"/><circle cx="595.155120183517" cy="425.23472900903664" r="1.6132606856090157" fill="#fff" opacity="0.4313121320752688"/><circle cx="1270.9963272490995" cy="325.3820108858361" r="1.5392783655643645" fill="#fff" opacity="0.7620011920952241"/><circle cx="50.587322574711244" cy="138.2708410719109" r="1.1715219904835155" fill="#fff" opacity="0.3445861544796699"/><circle cx="1742.7035231475493" cy="132.62092472347916" r="0.5835985433272083" fill="#fff" opacity="0.5534682903330466"/><circle cx="843.7022519585914" cy="318.31896490564543" r="1.4944908879684495" fill="#fff" opacity="0.29324128499562885"/><circle cx="1282.188687474045" cy="146.47371913177747" r="0.587283490595241" fill="#fff" opacity="0.5913698560072504"/><circle cx="464.28030039749115" cy="15.119398984853037" r="1.2080786769995648" fill="#fff" opacity="0.28662632431057894"/><circle cx="588.6338958024592" cy="136.3326561507612" r="1.483766214219799" fill="#fff" opacity="0.25314082159966717"/><circle cx="818.4995754478732" cy="221.1587732166887" r="1.7942742681583097" fill="#fff" opacity="0.24589527664843372"/><circle cx="406.51699001121267" cy="356.76307886204756" r="1.2497927415533439" fill="#fff" opacity="0.6453393217747424"/><circle cx="205.67712222358145" cy="151.72234375209604" r="1.557794648003251" fill="#fff" opacity="0.626477057073842"/><circle cx="1608.8093491664179" cy="48.57926910384076" r="0.776844225539091" fill="#fff" opacity="0.3541589376409908"/><circle cx="1217.903427616205" cy="198.4553446561227" r="1.4264053052585584" fill="#fff" opacity="0.26645492409971894"/><circle cx="935.4095763655866" cy="28.285262296974025" r="0.860286576291613" fill="#fff" opacity="0.6085610291940535"/><circle cx="1699.64061001773" cy="427.92595178911597" r="0.8149298392969486" fill="#fff" opacity="0.6534709101667326"/><circle cx="628.9691172514505" cy="240.2750716657087" r="0.5538109749448046" fill="#fff" opacity="0.47921681969408336"/><circle cx="875.6879570138846" cy="359.8847755696356" r="1.8613045985953196" fill="#fff" opacity="0.38181580458344333"/><circle cx="746.2956737229358" cy="88.73120662773289" r="0.7532032150200576" fill="#fff" opacity="0.6060415419763983"/><circle cx="340.35153247889866" cy="226.2889167858029" r="1.6383065795847929" fill="#fff" opacity="0.6463087838716592"/><circle cx="1505.5800657499535" cy="352.6513766610649" r="1.1126589844032795" fill="#fff" opacity="0.5636430855290133"/><circle cx="1874.0415264559074" cy="21.361300153043423" r="0.6939154500593234" fill="#fff" opacity="0.7547408928989294"/><circle cx="1168.9697476962976" cy="178.95618960330174" r="1.4783967981297517" fill="#fff" opacity="0.45739532296019497"/><circle cx="1910.268062797903" cy="410.0746139907452" r="1.6878508815280746" fill="#fff" opacity="0.4329460580909965"/><circle cx="1214.6554432657213" cy="59.17785263694307" r="0.9531221794786682" fill="#fff" opacity="0.22655977374561126"/><circle cx="914.6158555789422" cy="71.17271536010614" r="1.3268186947858935" fill="#fff" opacity="0.5662512208722186"/><circle cx="1124.824013822904" cy="10.478633670713434" r="1.6258258786112596" fill="#fff" opacity="0.37526375832391523"/><circle cx="1473.0797739776503" cy="14.695893637532343" r="0.6000202691881034" fill="#fff" opacity="0.5444153476377054"/><circle cx="1110.8222971462696" cy="26.858458528960696" r="0.6181342366892226" fill="#fff" opacity="0.7394638780363518"/><circle cx="518.9751909391432" cy="151.354246774538" r="1.2236545305288524" fill="#fff" opacity="0.579320358619867"/><circle cx="793.0461682735585" cy="135.06254274189996" r="1.3009795986118213" fill="#fff" opacity="0.6321360618416536"/><circle cx="489.0845915323786" cy="123.7782822800284" r="1.9268039318096832" fill="#fff" opacity="0.42334027635477023"/><circle cx="918.5061217002817" cy="307.5182279729094" r="1.1212216310950978" fill="#fff" opacity="0.7227576251893206"/><circle cx="316.5001832685666" cy="25.594732029734818" r="1.8050465668330542" fill="#fff" opacity="0.779179630796234"/><circle cx="420.7776292648115" cy="15.273288715461568" r="1.9395671092065907" fill="#fff" opacity="0.4526720923028589"/><circle cx="1447.970215270289" cy="369.99035212071385" r="1.2904720311729405" fill="#fff" opacity="0.47471310241956105"/><circle cx="552.143167683888" cy="385.0308141971544" r="1.874359761684751" fill="#fff" opacity="0.6293909470619147"/><circle cx="125.10236579112298" cy="121.17996837039944" r="0.8180200297660241" fill="#fff" opacity="0.4935855732051622"/><circle cx="1386.205111170701" cy="132.4433916892026" r="0.6365212418922506" fill="#fff" opacity="0.23450642885512357"/><circle cx="1500.094319335207" cy="119.28351225128479" r="0.8149311604944363" fill="#fff" opacity="0.7113719548358051"/><circle cx="1420.604282650306" cy="120.33195687651911" r="0.9292313844033591" fill="#fff" opacity="0.5906561348565519"/><circle cx="209.77107485052457" cy="39.979107642541436" r="1.091833337115085" fill="#fff" opacity="0.26531589973376035"/><circle cx="1827.417719789645" cy="197.1884597551982" r="0.8160447071576595" fill="#fff" opacity="0.6259215388973061"/><circle cx="1367.4592033232234" cy="74.47698078175937" r="1.1397559716458794" fill="#fff" opacity="0.2373649078973953"/><circle cx="927.9516691639907" cy="150.66065769797672" r="1.1614022138904319" fill="#fff" opacity="0.3449069577140983"/><circle cx="1225.1495382062042" cy="365.2086957984624" r="0.8148937684751334" fill="#fff" opacity="0.31680766388699594"/><circle cx="228.9834796425382" cy="148.4938440631362" r="1.9929926776078046" fill="#fff" opacity="0.6064714893248099"/><circle cx="1018.9453864979896" cy="105.56253275870404" r="1.4110418344873568" fill="#fff" opacity="0.494561506131329"/><rect x="20.997446498600173" y="681.4857565987589" width="50.48258122999281" height="244.1674565533566" fill="#0c2c39" opacity="0.6890426567730128" rx="2"/><rect x="42.01063927565949" y="691.4857565987589" width="8.456195675874174" height="9.442169778850435" fill="#e76f51" opacity="0.24058822245350764" rx="1"/><rect x="29.389993968161292" y="696.2068414881842" width="8.456195675874174" height="9.442169778850435" fill="#f4a261" opacity="0.12029411122675382" rx="1"/><rect x="42.535046349636985" y="726.366821820667" width="7.407381527919178" height="9.490633138336854" fill="#e76f51" opacity="0.42183343389114214" rx="1"/><rect x="29.91440104213879" y="731.1121383898354" width="7.407381527919178" height="9.490633138336854" fill="#f4a261" opacity="0.21091671694557107" rx="1"/><rect x="43.48439685499398" y="761.2478870425751" width="5.508680517205196" height="9.064389021849351" fill="#e76f51" opacity="0.11504550583545248" rx="1"/><rect x="30.86375154749578" y="765.7800815534998" width="5.508680517205196" height="9.064389021849351" fill="#f4a261" opacity="0.05752275291772624" rx="1"/><rect x="43.65991932215633" y="796.1289522644832" width="5.157635582880498" height="8.947388728835477" fill="#e76f51" opacity="0.1131414610690301" rx="1"/><rect x="31.03927401465813" y="800.602646628901" width="5.157635582880498" height="8.947388728835477" fill="#f4a261" opacity="0.05657073053451505" rx="1"/><rect x="41.25912575429751" y="831.0100174863912" width="9.95922271859814" height="8.910040634430489" fill="#e76f51" opacity="0.11316814706967403" rx="1"/><rect x="28.638480446799306" y="835.4650378036065" width="9.95922271859814" height="8.910040634430489" fill="#f4a261" opacity="0.056584073534837014" rx="1"/><rect x="42.301269216765945" y="865.8910827082993" width="7.8749357936612645" height="7.716118923787986" fill="#e76f51" opacity="0.3313727208486229" rx="1"/><rect x="29.680623909267744" y="869.7491421701933" width="7.8749357936612645" height="7.716118923787986" fill="#f4a261" opacity="0.16568636042431145" rx="1"/><rect x="41.18884272039608" y="900.7721479302074" width="10.099788786400993" height="8.60232798070701" fill="#e76f51" opacity="0.38006521118340675" rx="1"/><rect x="28.56819741289788" y="905.073311920561" width="10.099788786400993" height="8.60232798070701" fill="#f4a261" opacity="0.19003260559170337" rx="1"/><rect x="152.84194568936758" y="639.9768841080314" width="71.11013316109546" height="285.6763290440841" fill="#264653" opacity="0.41038733993433124" rx="2"/><rect x="184.1684372306728" y="649.9768841080314" width="8.457150078485057" height="6.943397896583983" fill="#e76f51" opacity="0.1014809824064097" rx="1"/><rect x="166.3909039403989" y="653.4485830563234" width="8.457150078485057" height="6.943397896583983" fill="#f4a261" opacity="0.05074049120320485" rx="1"/><rect x="185.16991027681388" y="697.5896056153788" width="6.45420398620288" height="6.072611349651733" fill="#e76f51" opacity="0.41243264274961144" rx="1"/><rect x="167.39237698654" y="700.6259112902046" width="6.45420398620288" height="6.072611349651733" fill="#f4a261" opacity="0.20621632137480572" rx="1"/><rect x="185.89424082052292" y="745.2023271227262" width="5.005542898784751" height="7.013179066826864" fill="#e76f51" opacity="0.13330778866850487" rx="1"/><rect x="168.11670753024904" y="748.7089166561395" width="5.005542898784751" height="7.013179066826864" fill="#f4a261" opacity="0.06665389433425244" rx="1"/><rect x="184.75199316948465" y="792.8150486300735" width="7.290038200861318" height="6.002603369765589" fill="#e76f51" opacity="0.12534035943107222" rx="1"/><rect x="166.97445987921077" y="795.8163503149564" width="7.290038200861318" height="6.002603369765589" fill="#f4a261" opacity="0.06267017971553611" rx="1"/><rect x="184.68001908475532" y="840.4277701374208" width="7.433986370319963" height="7.741852865028626" fill="#e76f51" opacity="0.5764041213729428" rx="1"/><rect x="166.90248579448144" y="844.2986965699351" width="7.433986370319963" height="7.741852865028626" fill="#f4a261" opacity="0.2882020606864714" rx="1"/><rect x="182.69912377737907" y="888.0404916447682" width="11.39577698507248" height="8.144405319854712" fill="#e76f51" opacity="0.11433016686102612" rx="1"/><rect x="164.9215904871052" y="892.1126943046955" width="11.39577698507248" height="8.144405319854712" fill="#f4a261" opacity="0.05716508343051306" rx="1"/><rect x="256.56348166907287" y="742.8892413952597" width="48.62610339155097" height="182.76397175685594" fill="#264653" opacity="0.508268356185469" rx="2"/><rect x="278.5469239194754" y="752.8892413952597" width="4.659218890745942" height="8.764824806424981" fill="#e76f51" opacity="0.214005179170986" rx="1"/><rect x="266.39039807158764" y="757.2716537984721" width="4.659218890745942" height="8.764824806424981" fill="#f4a261" opacity="0.107002589585493" rx="1"/><rect x="277.1894277506949" y="778.9983802176677" width="7.37421122830692" height="6.569737567698987" fill="#e76f51" opacity="0.4762415016247522" rx="1"/><rect x="265.03290190280717" y="782.2832490015171" width="7.37421122830692" height="6.569737567698987" fill="#f4a261" opacity="0.2381207508123761" rx="1"/><rect x="277.02406619070655" y="805.1075190400757" width="7.704934348283553" height="8.197262878109996" fill="#e76f51" opacity="0.1746054559886934" rx="1"/><rect x="264.8675403428188" y="809.2061504791307" width="7.704934348283553" height="8.197262878109996" fill="#f4a261" opacity="0.0873027279943467" rx="1"/><rect x="275.76056299469445" y="831.2166578624837" width="10.23194074030778" height="7.454758563417652" fill="#e76f51" opacity="0.41334030740273664" rx="1"/><rect x="263.6040371468067" y="834.9440371441925" width="10.23194074030778" height="7.454758563417652" fill="#f4a261" opacity="0.20667015370136832" rx="1"/><rect x="274.9439238905776" y="857.3257966848917" width="11.865218948541493" height="8.727238788904446" fill="#e76f51" opacity="0.5098848636285134" rx="1"/><rect x="262.78739804268986" y="861.6894160793439" width="11.865218948541493" height="8.727238788904446" fill="#f4a261" opacity="0.2549424318142567" rx="1"/><rect x="274.88618881066475" y="883.4349355072997" width="11.980689108367239" height="9.411724191953365" fill="#e76f51" opacity="0.5725438231771215" rx="1"/><rect x="262.729662962777" y="888.1407976032764" width="11.980689108367239" height="9.411724191953365" fill="#f4a261" opacity="0.28627191158856075" rx="1"/><rect x="277.6926677009772" y="909.5440743297077" width="6.367731327742275" height="9.442327154670453" fill="#e76f51" opacity="0.5754146946304046" rx="1"/><rect x="265.5361418530895" y="914.2652379070429" width="6.367731327742275" height="9.442327154670453" fill="#f4a261" opacity="0.2877073473152023" rx="1"/><rect x="396.46220790372746" y="784.2345462143967" width="52.24859933421216" height="141.4186669377188" fill="#264653" opacity="0.41466115648268287" rx="2"/><rect x="416.65279719784223" y="794.2345462143967" width="11.867420745982653" height="7.107258597646667" fill="#e76f51" opacity="0.523979262687261" rx="1"/><rect x="403.5906473642892" y="797.78817551322" width="11.867420745982653" height="7.107258597646667" fill="#f4a261" opacity="0.2619896313436305" rx="1"/><rect x="417.9406340692519" y="841.374101860303" width="9.291747003163152" height="7.904671567935653" fill="#e76f51" opacity="0.5053139579261918" rx="1"/><rect x="404.8784842356989" y="845.3264376442708" width="9.291747003163152" height="7.904671567935653" fill="#f4a261" opacity="0.2526569789630959" rx="1"/><rect x="418.7475147549406" y="888.5136575062093" width="7.677985631785818" height="8.968393672948794" fill="#e76f51" opacity="0.29146391055347953" rx="1"/><rect x="405.6853649213876" y="892.9978543426837" width="7.677985631785818" height="8.968393672948794" fill="#f4a261" opacity="0.14573195527673977" rx="1"/><rect x="521.0613346917232" y="793.3954553663255" width="57.27529460267985" height="132.2577577857901" fill="#264653" opacity="0.5309057525431052" rx="2"/><rect x="543.737438034438" y="803.3954553663255" width="11.923087917250369" height="7.351014191599333" fill="#e76f51" opacity="0.1117969821467523" rx="1"/><rect x="529.418614383768" y="807.0709624621251" width="11.923087917250369" height="7.351014191599333" fill="#f4a261" opacity="0.05589849107337615" rx="1"/><rect x="545.6161389738825" y="847.4813746282555" width="8.165686038361324" height="8.591669135399085" fill="#e76f51" opacity="0.3922653501835338" rx="1"/><rect x="531.2973153232125" y="851.777209195955" width="8.165686038361324" height="8.591669135399085" fill="#f4a261" opacity="0.1961326750917669" rx="1"/><rect x="547.3570421832515" y="891.5672938901855" width="4.683879619623506" height="9.02022575564222" fill="#e76f51" opacity="0.5946824689383345" rx="1"/><rect x="533.0382185325815" y="896.0774067680067" width="4.683879619623506" height="9.02022575564222" fill="#f4a261" opacity="0.29734123446916727" rx="1"/><rect x="641.5145236257265" y="608.3453951655761" width="78.46299969322584" height="317.30781798653953" fill="#264653" opacity="0.5810405033363589" rx="2"/><rect x="675.2557890276089" y="618.3453951655761" width="10.980468889461008" height="9.266421999611524" fill="#e76f51" opacity="0.2194316420283708" rx="1"/><rect x="655.6400391043024" y="622.9786061653818" width="10.980468889461008" height="9.266421999611524" fill="#f4a261" opacity="0.1097158210141854" rx="1"/><rect x="677.0605713171094" y="663.6750834493674" width="7.370904310459947" height="6.63351238719968" fill="#e76f51" opacity="0.4613646444541786" rx="1"/><rect x="657.444821393803" y="666.9918396429673" width="7.370904310459947" height="6.63351238719968" fill="#f4a261" opacity="0.2306823222270893" rx="1"/><rect x="677.1745544807461" y="709.0047717331588" width="7.142937983186668" height="6.571900453551649" fill="#e76f51" opacity="0.4524287654674679" rx="1"/><rect x="657.5588045574397" y="712.2907219599347" width="7.142937983186668" height="6.571900453551649" fill="#f4a261" opacity="0.22621438273373395" rx="1"/><rect x="678.475146862556" y="754.3344600169502" width="4.541753219566716" height="9.518628124966899" fill="#e76f51" opacity="0.20775718479597877" rx="1"/><rect x="658.8593969392496" y="759.0937740794336" width="4.541753219566716" height="9.518628124966899" fill="#f4a261" opacity="0.10387859239798938" rx="1"/><rect x="676.0311725309657" y="799.6641483007415" width="9.429701882747398" height="6.054249620077724" fill="#e76f51" opacity="0.5867277430572378" rx="1"/><rect x="656.4154226076593" y="802.6912731107805" width="9.429701882747398" height="6.054249620077724" fill="#f4a261" opacity="0.2933638715286189" rx="1"/><rect x="675.0623902315419" y="844.9938365845329" width="11.367266481594942" height="8.185559680262944" fill="#e76f51" opacity="0.5928636988608315" rx="1"/><rect x="655.4466403082355" y="849.0866164246644" width="11.367266481594942" height="8.185559680262944" fill="#f4a261" opacity="0.29643184943041573" rx="1"/><rect x="675.7636796563779" y="890.3235248683243" width="9.964687631922935" height="9.794775588390133" fill="#e76f51" opacity="0.5091665909879763" rx="1"/><rect x="656.1479297330715" y="895.2209126625194" width="9.964687631922935" height="9.794775588390133" fill="#f4a261" opacity="0.25458329549398817" rx="1"/><rect x="792.0425835116865" y="676.1060911175111" width="32.49394706974131" height="249.54712203460446" fill="#0c2c39" opacity="0.5506110900898025" rx="2"/><rect x="806.1260836797594" y="686.1060911175111" width="4.326946733595558" height="7.753203587083426" fill="#e76f51" opacity="0.2455358845753446" rx="1"/><rect x="798.0025969123241" y="689.9826929110528" width="4.326946733595558" height="7.753203587083426" fill="#f4a261" opacity="0.1227679422876723" rx="1"/><rect x="802.8307537552506" y="721.7556799795975" width="10.917606582613104" height="7.492049946797092" fill="#e76f51" opacity="0.4035128681928648" rx="1"/><rect x="794.7072669878153" y="725.5017049529961" width="10.917606582613104" height="7.492049946797092" fill="#f4a261" opacity="0.2017564340964324" rx="1"/><rect x="802.6650446573424" y="757.4052688416839" width="11.249024778429657" height="9.62901658090507" fill="#e76f51" opacity="0.279122848245111" rx="1"/><rect x="794.541557889907" y="762.2197771321364" width="11.249024778429657" height="9.62901658090507" fill="#f4a261" opacity="0.1395614241225555" rx="1"/><rect x="802.8607549802076" y="793.0548577037703" width="10.857604132699223" height="7.520937529746662" fill="#e76f51" opacity="0.11400416577560925" rx="1"/><rect x="794.7372682127723" y="796.8153264686435" width="10.857604132699223" height="7.520937529746662" fill="#f4a261" opacity="0.057002082887804624" rx="1"/><rect x="804.0677703477135" y="828.7044465658565" width="8.443573397687537" height="7.948053816786979" fill="#e76f51" opacity="0.40515909085636004" rx="1"/><rect x="795.9442835802781" y="832.67847347425" width="8.443573397687537" height="7.948053816786979" fill="#f4a261" opacity="0.20257954542818002" rx="1"/><rect x="804.9571999963273" y="864.3540354279429" width="6.664714100459757" height="7.549064462433817" fill="#e76f51" opacity="0.2519852545233409" rx="1"/><rect x="796.833713228892" y="868.1285676591598" width="6.664714100459757" height="7.549064462433817" fill="#f4a261" opacity="0.12599262726167046" rx="1"/><rect x="802.8943089614377" y="900.0036242900293" width="10.790496170239173" height="9.686843039395018" fill="#e76f51" opacity="0.21171619235810735" rx="1"/><rect x="794.7708221940023" y="904.8470458097268" width="10.790496170239173" height="9.686843039395018" fill="#f4a261" opacity="0.10585809617905367" rx="1"/><rect x="923.8666584072324" y="741.4007536232008" width="64.32017040772368" height="184.25245952891476" fill="#264653" opacity="0.6630643033103701" rx="2"/><rect x="950.0517186492336" y="751.4007536232008" width="11.950049923721247" height="8.581036758278739" fill="#e76f51" opacity="0.451122611749713" rx="1"/><rect x="933.9716760473027" y="755.6912720023402" width="11.950049923721247" height="8.581036758278739" fill="#f4a261" opacity="0.2255613058748565" rx="1"/><rect x="950.4839234881764" y="782.1094968780199" width="11.085640245835679" height="9.41734492392683" fill="#e76f51" opacity="0.3340080553512108" rx="1"/><rect x="934.4038808862455" y="786.8181693399832" width="11.085640245835679" height="9.41734492392683" fill="#f4a261" opacity="0.1670040276756054" rx="1"/><rect x="951.8857008658549" y="812.818240132839" width="8.28208549047869" height="7.264836784746692" fill="#e76f51" opacity="0.10843217259003599" rx="1"/><rect x="935.805658263924" y="816.4506585252124" width="8.28208549047869" height="7.264836784746692" fill="#f4a261" opacity="0.05421608629501799" rx="1"/><rect x="951.2307424974234" y="843.5269833876582" width="9.592002227341757" height="9.465732411357045" fill="#e76f51" opacity="0.18814124241195185" rx="1"/><rect x="935.1506998954925" y="848.2598495933368" width="9.592002227341757" height="9.465732411357045" fill="#f4a261" opacity="0.09407062120597592" rx="1"/><rect x="950.3164138606089" y="874.2357266424773" width="11.420659500970658" height="6.73892235121199" fill="#e76f51" opacity="0.5110600274081948" rx="1"/><rect x="934.236371258678" y="877.6051878180833" width="11.420659500970658" height="6.73892235121199" fill="#f4a261" opacity="0.2555300137040974" rx="1"/><rect x="951.4668325522139" y="904.9444698972964" width="9.119822117760737" height="7.1375483845215175" fill="#e76f51" opacity="0.3563280127375219" rx="1"/><rect x="935.386789950283" y="908.5132440895571" width="9.119822117760737" height="7.1375483845215175" fill="#f4a261" opacity="0.17816400636876095" rx="1"/><rect x="1038.132395052382" y="692.3671300272381" width="66.84974260554876" height="233.28608312487742" fill="#264653" opacity="0.5500580228516037" rx="2"/><rect x="1069.4285939313538" y="702.3671300272381" width="4.257344847604945" height="9.876786310197037" fill="#e76f51" opacity="0.2985197430938761" rx="1"/><rect x="1052.7161582799667" y="707.3055231823366" width="4.257344847604945" height="9.876786310197037" fill="#f4a261" opacity="0.14925987154693804" rx="1"/><rect x="1067.659045678717" y="780.1291577355306" width="7.7964413528788" height="8.152959981503189" fill="#e76f51" opacity="0.45723369774809897" rx="1"/><rect x="1050.9466100273298" y="784.2056377262822" width="7.7964413528788" height="8.152959981503189" fill="#f4a261" opacity="0.22861684887404948" rx="1"/><rect x="1067.9705858828897" y="857.891185443823" width="7.173360944533107" height="9.644770545802258" fill="#e76f51" opacity="0.15739330990644948" rx="1"/><rect x="1051.2581502315027" y="862.7135707167241" width="7.173360944533107" height="9.644770545802258" fill="#f4a261" opacity="0.07869665495322474" rx="1"/><rect x="1179.0788386201205" y="671.8458881768971" width="39.696359431766055" height="253.80732497521845" fill="#264653" opacity="0.5919838567478545" rx="2"/><rect x="1193.660112853316" y="681.8458881768971" width="10.533810965375466" height="7.46441474591019" fill="#e76f51" opacity="0.13420083179003578" rx="1"/><rect x="1183.7360229953742" y="685.5780955498523" width="10.533810965375466" height="7.46441474591019" fill="#f4a261" opacity="0.06710041589501789" rx="1"/><rect x="1193.1873777211151" y="713.5718037987995" width="11.479281229777094" height="6.8497843809541745" fill="#e76f51" opacity="0.15839116733018105" rx="1"/><rect x="1183.2632878631734" y="716.9966959892765" width="11.479281229777094" height="6.8497843809541745" fill="#f4a261" opacity="0.07919558366509052" rx="1"/><rect x="1196.7901435000335" y="745.2977194207017" width="4.273749671940168" height="7.651341237512264" fill="#e76f51" opacity="0.3577797620924609" rx="1"/><rect x="1186.8660536420919" y="749.1233900394578" width="4.273749671940168" height="7.651341237512264" fill="#f4a261" opacity="0.17888988104623044" rx="1"/><rect x="1196.5406546573017" y="777.023635042604" width="4.772727357403545" height="8.277649094880942" fill="#e76f51" opacity="0.363478302923841" rx="1"/><rect x="1186.61656479936" y="781.1624595900445" width="4.772727357403545" height="8.277649094880942" fill="#f4a261" opacity="0.1817391514619205" rx="1"/><rect x="1193.702746922314" y="808.7495506645064" width="10.448542827379086" height="9.267148990013439" fill="#e76f51" opacity="0.16930263842672638" rx="1"/><rect x="1183.7786570643723" y="813.3831251595132" width="10.448542827379086" height="9.267148990013439" fill="#f4a261" opacity="0.08465131921336319" rx="1"/><rect x="1195.2434093938778" y="840.4754662864086" width="7.367217884251666" height="7.458051745187969" fill="#e76f51" opacity="0.3186425650070055" rx="1"/><rect x="1185.319319535936" y="844.2044921590026" width="7.367217884251666" height="7.458051745187969" fill="#f4a261" opacity="0.15932128250350275" rx="1"/><rect x="1196.7561166965768" y="872.201381908311" width="4.341803278853606" height="8.93531522502548" fill="#e76f51" opacity="0.41150537480402394" rx="1"/><rect x="1186.832026838635" y="876.6690395208237" width="4.341803278853606" height="8.93531522502548" fill="#f4a261" opacity="0.20575268740201197" rx="1"/><rect x="1196.50173846155" y="903.9272975302133" width="4.850559748907238" height="7.989376311653614" fill="#e76f51" opacity="0.4547009145502702" rx="1"/><rect x="1186.5776486036084" y="907.9219856860401" width="4.850559748907238" height="7.989376311653614" fill="#f4a261" opacity="0.2273504572751351" rx="1"/><rect x="1309.8204538295558" y="712.6900655479847" width="64.18931057075721" height="212.96314760413094" fill="#0c2c39" opacity="0.4296415843371399" rx="2"/><rect x="1337.9828713282436" y="722.6900655479847" width="7.86447557338152" height="9.444954083171895" fill="#e76f51" opacity="0.2971066389691799" rx="1"/><rect x="1321.9355436855542" y="727.4125425895706" width="7.86447557338152" height="9.444954083171895" fill="#f4a261" opacity="0.14855331948458994" rx="1"/><rect x="1336.185583088823" y="793.6777814160283" width="11.459052052222903" height="7.76399935450498" fill="#e76f51" opacity="0.5594365868157327" rx="1"/><rect x="1320.1382554461336" y="797.5597810932808" width="11.459052052222903" height="7.76399935450498" fill="#f4a261" opacity="0.27971829340786636" rx="1"/><rect x="1337.9676138672437" y="864.665497284072" width="7.894990495381641" height="7.9136465121790875" fill="#e76f51" opacity="0.15960750080635946" rx="1"/><rect x="1321.9202862245543" y="868.6223205401616" width="7.894990495381641" height="7.9136465121790875" fill="#f4a261" opacity="0.07980375040317973" rx="1"/><rect x="1414.6644998492357" y="605.0251892081055" width="32.228278178309154" height="320.62802394401" fill="#0c2c39" opacity="0.5818679568548379" rx="2"/><rect x="1427.4217317948169" y="615.0251892081055" width="6.713814287146976" height="8.801003418583656" fill="#e76f51" opacity="0.37538929990851067" rx="1"/><rect x="1419.3646622502395" y="619.4256909173973" width="6.713814287146976" height="8.801003418583656" fill="#f4a261" opacity="0.18769464995425533" rx="1"/><rect x="1426.7441437090151" y="721.9011971894422" width="8.068990458750395" height="9.28951784206776" fill="#e76f51" opacity="0.20847435149095822" rx="1"/><rect x="1418.6870741644377" y="726.545956110476" width="8.068990458750395" height="9.28951784206776" fill="#f4a261" opacity="0.10423717574547911" rx="1"/><rect x="1426.5401584751764" y="828.7772051707789" width="8.47696092642773" height="8.563030897305122" fill="#e76f51" opacity="0.35558853539535507" rx="1"/><rect x="1418.483088930599" y="833.0587206194315" width="8.47696092642773" height="8.563030897305122" fill="#f4a261" opacity="0.17779426769767753" rx="1"/><rect x="1545.2284529584526" y="705.6047771371913" width="58.35833091483413" height="220.0484360149243" fill="#264653" opacity="0.5675607592723242" rx="2"/><rect x="1568.8970707482417" y="715.6047771371913" width="11.021095335255632" height="6.053326186736423" fill="#e76f51" opacity="0.10325164350291055" rx="1"/><rect x="1554.3074880195334" y="718.6314402305595" width="11.021095335255632" height="6.053326186736423" fill="#f4a261" opacity="0.051625821751455275" rx="1"/><rect x="1572.319948478909" y="743.1108316390568" width="4.175339873920972" height="8.294909264495342" fill="#e76f51" opacity="0.5953924425634073" rx="1"/><rect x="1557.7303657502007" y="747.2582862713044" width="4.175339873920972" height="8.294909264495342" fill="#f4a261" opacity="0.29769622128170364" rx="1"/><rect x="1569.42329144348" y="770.6168861409224" width="9.96865394477934" height="9.124642955866792" fill="#e76f51" opacity="0.5591660181663851" rx="1"/><rect x="1554.8337087147715" y="775.1792076188558" width="9.96865394477934" height="9.124642955866792" fill="#f4a261" opacity="0.27958300908319256" rx="1"/><rect x="1569.8049039251182" y="798.1229406427879" width="9.205428981502873" height="7.081002285955707" fill="#e76f51" opacity="0.32645432495662347" rx="1"/><rect x="1555.2153211964098" y="801.6634417857657" width="9.205428981502873" height="7.081002285955707" fill="#f4a261" opacity="0.16322716247831173" rx="1"/><rect x="1569.0237257690223" y="825.6289951446535" width="10.767785293694535" height="9.792663584415024" fill="#e76f51" opacity="0.3806509128493841" rx="1"/><rect x="1554.434143040314" y="830.525326936861" width="10.767785293694535" height="9.792663584415024" fill="#f4a261" opacity="0.19032545642469206" rx="1"/><rect x="1569.8131320790417" y="853.135049646519" width="9.188972673655714" height="8.520220016716099" fill="#e76f51" opacity="0.1966324307016638" rx="1"/><rect x="1555.2235493503333" y="857.395159654877" width="9.188972673655714" height="8.520220016716099" fill="#f4a261" opacity="0.0983162153508319" rx="1"/><rect x="1568.9208061820643" y="880.6411041483846" width="10.97362446761076" height="8.094955303262676" fill="#e76f51" opacity="0.4504761920428081" rx="1"/><rect x="1554.331223453356" y="884.6885818000159" width="10.97362446761076" height="8.094955303262676" fill="#f4a261" opacity="0.22523809602140404" rx="1"/><rect x="1570.518308633826" y="908.14715865025" width="7.778619564086808" height="6.002879759297445" fill="#e76f51" opacity="0.4633619898146396" rx="1"/><rect x="1555.9287259051177" y="911.1485985298988" width="7.778619564086808" height="6.002879759297445" fill="#f4a261" opacity="0.2316809949073198" rx="1"/><rect x="1683.7383414580809" y="754.0536410301117" width="76.9069594254035" height="171.5995721220038" fill="#0c2c39" opacity="0.5765618605950293" rx="2"/><rect x="1718.641502423594" y="764.0536410301117" width="7.100637494377009" height="7.538125645727414" fill="#e76f51" opacity="0.1877124763996602" rx="1"/><rect x="1699.414762567243" y="767.8227038529755" width="7.100637494377009" height="7.538125645727414" fill="#f4a261" opacity="0.0938562381998301" rx="1"/><rect x="1719.5088890778154" y="806.9535340606127" width="5.365864185934389" height="6.238490287270046" fill="#e76f51" opacity="0.38165779315905124" rx="1"/><rect x="1700.2821492214646" y="810.0727792042477" width="5.365864185934389" height="6.238490287270046" fill="#f4a261" opacity="0.19082889657952562" rx="1"/><rect x="1718.6093221943847" y="849.8534270911136" width="7.16499795279582" height="7.807788500983219" fill="#e76f51" opacity="0.4314914212868296" rx="1"/><rect x="1699.382582338034" y="853.7573213416052" width="7.16499795279582" height="7.807788500983219" fill="#f4a261" opacity="0.2157457106434148" rx="1"/><rect x="1717.8475505329777" y="892.7533201216146" width="8.68854127560941" height="7.052601359098358" fill="#e76f51" opacity="0.45813748588742165" rx="1"/><rect x="1698.620810676627" y="896.2796208011638" width="8.68854127560941" height="7.052601359098358" fill="#f4a261" opacity="0.22906874294371082" rx="1"/><rect x="1795.0451703171816" y="838.5568372995027" width="51.90943330570809" height="87.09637585261287" fill="#264653" opacity="0.48317877293638395" rx="2"/><rect x="1815.1745113637705" y="848.5568372995027" width="11.65075121253048" height="9.742446916117903" fill="#e76f51" opacity="0.21757760846930968" rx="1"/><rect x="1802.1971530373435" y="853.4280607575616" width="11.65075121253048" height="9.742446916117903" fill="#f4a261" opacity="0.10878880423465484" rx="1"/><rect x="1816.1067880664734" y="863.0728999416049" width="9.786197807124395" height="6.527269872028211" fill="#e76f51" opacity="0.10817909254882929" rx="1"/><rect x="1803.1294297400464" y="866.336534877619" width="9.786197807124395" height="6.527269872028211" fill="#f4a261" opacity="0.054089546274414646" rx="1"/><rect x="1818.9500529635582" y="877.588962583707" width="4.099668012955148" height="8.23581300169132" fill="#e76f51" opacity="0.33617487953421077" rx="1"/><rect x="1805.972694637131" y="881.7068690845526" width="4.099668012955148" height="8.23581300169132" fill="#f4a261" opacity="0.16808743976710538" rx="1"/><rect x="1817.4125295510546" y="892.1050252258092" width="7.174714837962462" height="7.741333815674608" fill="#e76f51" opacity="0.5937259120619218" rx="1"/><rect x="1804.4351712246275" y="895.9756921336465" width="7.174714837962462" height="7.741333815674608" fill="#f4a261" opacity="0.2968629560309609" rx="1"/><rect x="1816.912625804989" y="906.6210878679113" width="8.174522330093785" height="8.297537110349522" fill="#e76f51" opacity="0.5808224453546159" rx="1"/><rect x="1803.9352674785619" y="910.7698564230861" width="8.174522330093785" height="8.297537110349522" fill="#f4a261" opacity="0.29041122267730796" rx="1"/><rect x="1816.111739816403" y="921.1371505100135" width="9.776294307265498" height="8.779022621637914" fill="#e76f51" opacity="0.11819844462866859" rx="1"/><rect x="1803.134381489976" y="925.5266618208325" width="9.776294307265498" height="8.779022621637914" fill="#f4a261" opacity="0.059099222314334295" rx="1"/><rect x="0" y="1000" width="1920" height="80" fill="#00202d" opacity="0.8"/><line x1="0" y1="1040" x2="1920" y2="1040" stroke="#e76f51" stroke-opacity="0.15" stroke-width="2" stroke-dasharray="30,20"/><rect x="0" y="930" width="1920" height="150" fill="url(#glow66)"/><text x="1900" y="1060" font-family="Arial, sans-serif" font-size="11" fill="#fff" opacity="0.08" text-anchor="end" letter-spacing="2">GTA 6 REWARDS · WALLPAPER 067</text>
</svg>