<?xml version="1.0" encoding="UTF-8"?>
<svg xmlns="http://www.w3.org/2000/svg" width="1920" height="1080" viewBox="0 0 1920 1080">
<defs>
    <linearGradient id="bg33" x1="0%" y1="0%" x2="0%" y2="100%">
      <stop offset="0%" stop-color="#4361ee"/>
      <stop offset="50%" stop-color="#102ebb"/>
      <stop offset="100%" stop-color="#4361ee"/>
    </linearGradient>
    <linearGradient id="sun33" x1="0%" y1="0%" x2="100%" y2="100%">
      <stop offset="0%" stop-color="#4cc9f0"/>
      <stop offset="100%" stop-color="#4895ef"/>
    </linearGradient>
    <radialGradient id="glow33" cx="50%" cy="70%" r="50%">
      <stop offset="0%" stop-color="#4cc9f0" stop-opacity="0.3"/>
      <stop offset="100%" stop-color="#4361ee" stop-opacity="0"/>
    </radialGradient>
  </defs><rect width="1920" height="1080" fill="url(#bg33)"/><circle cx="1187.3948564025095" cy="448.0332397501993" r="604.9192679358924" fill="#4cc9f0" opacity="0.09465283510383518"/><circle cx="1387.3948564025095" cy="348.0332397501993" r="563.7846731962135" fill="#4895ef" opacity="0.07128387686360718"/><circle cx="1248.0481431232877" cy="438.82151904721314" r="83.68515075735868" fill="url(#sun33)" opacity="0.6967292759792714"/><circle cx="1248.0481431232877" cy="438.82151904721314" r="78.68515075735868" fill="#4361ee" opacity="0.3"/><pattern id="scan33" width="1920" height="4" patternUnits="userSpaceOnUse">
      <line x1="0" y1="0" x2="1920" y2="0" stroke="#000" stroke-opacity="0.05" stroke-width="1"/>
    </pattern>
    <rect width="1920" height="1080" fill="url(#scan33)"/><rect x="25.66706201193553" y="606.1060448773452" width="67.70030308926951" height="250.98586349072536" fill="#2947d4" opacity="0.4241800006302493" rx="2"/><rect x="54.16469800359679" y="616.1060448773452" width="10.70503110594699" height="6.923588129906819" fill="#4895ef" opacity="0.46509166387028333" rx="1"/><rect x="37.23962223127942" y="619.5678389422986" width="10.70503110594699" height="6.923588129906819" fill="#4cc9f0" opacity="0.23254583193514167" rx="1"/><rect x="55.26448002650041" y="678.8525107500266" width="8.505467060139743" height="8.224607266072326" fill="#4895ef" opacity="0.4107910619142444" rx="1"/><rect x="38.33940425418304" y="682.9648143830627" width="8.505467060139743" height="8.224607266072326" fill="#4cc9f0" opacity="0.2053955309571222" rx="1"/><rect x="54.18748713731475" y="741.5989766227078" width="10.65945283851108" height="8.689694532819487" fill="#4895ef" opacity="0.3107256957587613" rx="1"/><rect x="37.26241136499738" y="745.9438238891175" width="10.65945283851108" height="8.689694532819487" fill="#4cc9f0" opacity="0.15536284787938065" rx="1"/><rect x="54.78702886677045" y="804.3454424953892" width="9.460369379599666" height="9.508833046888196" fill="#4895ef" opacity="0.44937504815155993" rx="1"/><rect x="37.86195309445308" y="809.0998590188333" width="9.460369379599666" height="9.508833046888196" fill="#4cc9f0" opacity="0.22468752407577997" rx="1"/><rect x="123.65362109934297" y="522.8221688821964" width="83.84021704407414" height="334.2697394858742" fill="#4361ee" opacity="0.5713798182484181" rx="2"/><rect x="161.94035173555378" y="532.8221688821964" width="7.266755771652505" height="6.935457785831638" fill="#4895ef" opacity="0.3589820060550659" rx="1"/><rect x="140.98029747453523" y="536.2898977751122" width="7.266755771652505" height="6.935457785831638" fill="#4cc9f0" opacity="0.17949100302753296" rx="1"/><rect x="160.21464795368132" y="644.2454153774878" width="10.718163335397412" height="6.618471571388299" fill="#4895ef" opacity="0.5563270334518344" rx="1"/><rect x="139.25459369266278" y="647.5546511631819" width="10.718163335397412" height="6.618471571388299" fill="#4cc9f0" opacity="0.2781635167259172" rx="1"/><rect x="160.022030419908" y="755.6686618727791" width="11.103398402944066" height="9.645052130251436" fill="#4895ef" opacity="0.4045299951463309" rx="1"/><rect x="139.06197615888948" y="760.4911879379049" width="11.103398402944066" height="9.645052130251436" fill="#4cc9f0" opacity="0.20226499757316546" rx="1"/><rect x="252.53593937785735" y="691.8502905969159" width="53.212903082187495" height="165.24161777115464" fill="#2947d4" opacity="0.5118468200349824" rx="2"/><rect x="274.6016669044275" y="701.8502905969159" width="9.081448029047216" height="7.987841641061903" fill="#4895ef" opacity="0.23779789794650813" rx="1"/><rect x="261.2984411338806" y="705.8442114174469" width="9.081448029047216" height="7.987841641061903" fill="#4cc9f0" opacity="0.11889894897325406" rx="1"/><rect x="275.4542227644599" y="756.9308298539675" width="7.376336308982301" height="9.148724249365909" fill="#4895ef" opacity="0.4731226374798274" rx="1"/><rect x="262.15099699391305" y="761.5051919786504" width="7.376336308982301" height="9.148724249365909" fill="#4cc9f0" opacity="0.2365613187399137" rx="1"/><rect x="273.64494575947634" y="812.011369111019" width="10.994890318949448" height="9.000351174501784" fill="#4895ef" opacity="0.4885454697042111" rx="1"/><rect x="260.34171998892947" y="816.5115446982699" width="10.994890318949448" height="9.000351174501784" fill="#4cc9f0" opacity="0.24427273485210554" rx="1"/><rect x="363.7678223368172" y="759.4229155707692" width="89.78417877568495" height="97.66899279730139" fill="#4361ee" opacity="0.6195920344720576" rx="2"/><rect x="403.144062902812" y="769.4229155707692" width="11.031697643695328" height="6.31571336656709" fill="#4895ef" opacity="0.12440025145756087" rx="1"/><rect x="380.69801820889074" y="772.5807722540527" width="11.031697643695328" height="6.31571336656709" fill="#4cc9f0" opacity="0.062200125728780434" rx="1"/><rect x="406.58022655723164" y="781.6315396704318" width="4.1593703348560656" height="9.162139523579306" fill="#4895ef" opacity="0.5213728752036981" rx="1"/><rect x="384.1341818633104" y="786.2126094322215" width="4.1593703348560656" height="9.162139523579306" fill="#4cc9f0" opacity="0.26068643760184906" rx="1"/><rect x="403.88376819735487" y="793.8401637700946" width="9.552287054609575" height="8.972040991990836" fill="#4895ef" opacity="0.2813459811223079" rx="1"/><rect x="381.43772350343363" y="798.32618426609" width="9.552287054609575" height="8.972040991990836" fill="#4cc9f0" opacity="0.14067299056115395" rx="1"/><rect x="402.8275033449353" y="806.0487878697572" width="11.664816759448689" height="9.32749962511647" fill="#4895ef" opacity="0.5948257714265086" rx="1"/><rect x="380.38145865101404" y="810.7125376823154" width="11.664816759448689" height="9.32749962511647" fill="#4cc9f0" opacity="0.2974128857132543" rx="1"/><rect x="405.8152511843516" y="818.2574119694199" width="5.689321080616052" height="7.908052998107871" fill="#4895ef" opacity="0.13089587286368382" rx="1"/><rect x="383.3692064904304" y="822.2114384684738" width="5.689321080616052" height="7.908052998107871" fill="#4cc9f0" opacity="0.06544793643184191" rx="1"/><rect x="404.554868484278" y="830.4660360690825" width="8.210086480763295" height="7.88459043807457" fill="#4895ef" opacity="0.5205990234437862" rx="1"/><rect x="382.1088237903568" y="834.4083312881198" width="8.210086480763295" height="7.88459043807457" fill="#4cc9f0" opacity="0.2602995117218931" rx="1"/><rect x="405.1396410311898" y="842.6746601687453" width="7.0405413869397115" height="8.037462968853642" fill="#4895ef" opacity="0.5337682311734576" rx="1"/><rect x="382.69359633726856" y="846.6933916531721" width="7.0405413869397115" height="8.037462968853642" fill="#4cc9f0" opacity="0.2668841155867288" rx="1"/><rect x="406.59565359437744" y="854.8832842684079" width="4.128516260564448" height="7.656389913907366" fill="#4895ef" opacity="0.3457135777794089" rx="1"/><rect x="384.1496089004562" y="858.7114792253616" width="4.128516260564448" height="7.656389913907366" fill="#4cc9f0" opacity="0.17285678888970446" rx="1"/><rect x="453.1721272326941" y="546.8775043489592" width="65.47352497826179" height="310.2144040191114" fill="#4361ee" opacity="0.6860524026877368" rx="2"/><rect x="482.89937988340375" y="556.8775043489592" width="6.019019676842499" height="9.40753763527785" fill="#4895ef" opacity="0.5186512259577055" rx="1"/><rect x="466.5309986388383" y="561.5812731665981" width="6.019019676842499" height="9.40753763527785" fill="#4cc9f0" opacity="0.25932561297885276" rx="1"/><rect x="483.0702201030381" y="634.431105353737" width="5.677339237573868" height="9.823270728770474" fill="#4895ef" opacity="0.43744079930182567" rx="1"/><rect x="466.7018388584726" y="639.3427407181223" width="5.677339237573868" height="9.823270728770474" fill="#4cc9f0" opacity="0.21872039965091283" rx="1"/><rect x="481.40851118890765" y="711.9847063585148" width="9.000757065834653" height="9.328111829079713" fill="#4895ef" opacity="0.13212695557906456" rx="1"/><rect x="465.0401299443422" y="716.6487622730547" width="9.000757065834653" height="9.328111829079713" fill="#4cc9f0" opacity="0.06606347778953228" rx="1"/><rect x="483.201608472085" y="789.5383073632927" width="5.414562499479987" height="8.41302168146079" fill="#4895ef" opacity="0.11136944163855386" rx="1"/><rect x="466.83322722751956" y="793.7448182040231" width="5.414562499479987" height="8.41302168146079" fill="#4cc9f0" opacity="0.05568472081927693" rx="1"/><rect x="570.3904554388464" y="477.1003679435468" width="86.90072317069878" height="379.99154042452375" fill="#2947d4" opacity="0.4439831351498103" rx="2"/><rect x="608.5803202524735" y="487.1003679435468" width="10.520993543444433" height="7.436784519217159" fill="#4895ef" opacity="0.170095319200795" rx="1"/><rect x="586.8551394597989" y="490.8187602031554" width="10.520993543444433" height="7.436784519217159" fill="#4cc9f0" opacity="0.0850476596003975" rx="1"/><rect x="610.0379326546188" y="563.0986760284516" width="7.605768739154042" height="8.94858891864973" fill="#4895ef" opacity="0.5366050957321666" rx="1"/><rect x="588.3127518619441" y="567.5729704877764" width="7.605768739154042" height="8.94858891864973" fill="#4cc9f0" opacity="0.2683025478660833" rx="1"/><rect x="610.361811135747" y="639.0969841133563" width="6.958011776897593" height="9.862135471744029" fill="#4895ef" opacity="0.25747455022238996" rx="1"/><rect x="588.6366303430723" y="644.0280518492283" width="6.958011776897593" height="9.862135471744029" fill="#4cc9f0" opacity="0.12873727511119498" rx="1"/><rect x="609.0978697682958" y="715.0952921982611" width="9.485894511799769" height="8.520679691462004" fill="#4895ef" opacity="0.2940909955171149" rx="1"/><rect x="587.3726889756211" y="719.355632043992" width="9.485894511799769" height="8.520679691462004" fill="#4cc9f0" opacity="0.14704549775855744" rx="1"/><rect x="610.0766253674116" y="791.0936002831659" width="7.528383313568398" height="7.55647391210228" fill="#4895ef" opacity="0.22959437296483534" rx="1"/><rect x="588.3514445747369" y="794.871837239217" width="7.528383313568398" height="7.55647391210228" fill="#4cc9f0" opacity="0.11479718648241767" rx="1"/><rect x="683.9535175482636" y="563.0739294721451" width="87.30437423971118" height="294.01797889592547" fill="#2947d4" opacity="0.417390544157799" rx="2"/><rect x="723.9029514116477" y="573.0739294721451" width="7.405506512943075" height="9.691222148875525" fill="#4895ef" opacity="0.2584316892918273" rx="1"/><rect x="702.0768578517199" y="577.9195405465829" width="7.405506512943075" height="9.691222148875525" fill="#4cc9f0" opacity="0.12921584464591365" rx="1"/><rect x="725.3028207077421" y="631.8775252513302" width="4.60576792075433" height="8.292496352990273" fill="#4895ef" opacity="0.22858572977794933" rx="1"/><rect x="703.4767271478142" y="636.0237734278254" width="4.60576792075433" height="8.292496352990273" fill="#4cc9f0" opacity="0.11429286488897467" rx="1"/><rect x="723.1798374015327" y="690.6811210305153" width="8.85173453317297" height="9.387817194542805" fill="#4895ef" opacity="0.28963649407719183" rx="1"/><rect x="701.3537438416049" y="695.3750296277867" width="8.85173453317297" height="9.387817194542805" fill="#4cc9f0" opacity="0.14481824703859592" rx="1"/><rect x="725.4838407413299" y="749.4847168097003" width="4.243727853578452" height="9.926908554492265" fill="#4895ef" opacity="0.35248568743758035" rx="1"/><rect x="703.6577471814021" y="754.4481710869464" width="4.243727853578452" height="9.926908554492265" fill="#4cc9f0" opacity="0.17624284371879018" rx="1"/><rect x="721.7270292147825" y="808.2883125888854" width="11.757350906673203" height="6.753900608223374" fill="#4895ef" opacity="0.14316144868339448" rx="1"/><rect x="699.9009356548547" y="811.6652628929971" width="11.757350906673203" height="6.753900608223374" fill="#4cc9f0" opacity="0.07158072434169724" rx="1"/><rect x="816.3685171064847" y="481.38724740859755" width="40.92679916669773" height="375.704660959473" fill="#2947d4" opacity="0.5690857631548042" rx="2"/><rect x="834.5111528661826" y="491.38724740859755" width="4.641527647301911" height="7.628413940227687" fill="#4895ef" opacity="0.38658610519175096" rx="1"/><rect x="824.2794530745082" y="495.2014543787114" width="4.641527647301911" height="7.628413940227687" fill="#4cc9f0" opacity="0.19329305259587548" rx="1"/><rect x="834.0930458174769" y="538.3503300285316" width="5.477741744713332" height="8.276880709053222" fill="#4895ef" opacity="0.27919815161246764" rx="1"/><rect x="823.8613460258025" y="542.4887703830583" width="5.477741744713332" height="8.276880709053222" fill="#4cc9f0" opacity="0.13959907580623382" rx="1"/><rect x="831.8494794910888" y="585.3134126484658" width="9.964874397489446" height="9.195026102288399" fill="#4895ef" opacity="0.2499879842507625" rx="1"/><rect x="821.6177796994144" y="589.9109256996101" width="9.964874397489446" height="9.195026102288399" fill="#4cc9f0" opacity="0.12499399212538125" rx="1"/><rect x="830.9845524299853" y="632.2764952683999" width="11.694728519696447" height="6.5009611836869645" fill="#4895ef" opacity="0.1808825534956722" rx="1"/><rect x="820.752852638311" y="635.5269758602434" width="11.694728519696447" height="6.5009611836869645" fill="#4cc9f0" opacity="0.0904412767478361" rx="1"/><rect x="832.3555938707094" y="679.239577888334" width="8.952645638248102" height="7.404455568968425" fill="#4895ef" opacity="0.44231755634358094" rx="1"/><rect x="822.123894079035" y="682.9418056728182" width="8.952645638248102" height="7.404455568968425" fill="#4cc9f0" opacity="0.22115877817179047" rx="1"/><rect x="830.8338977573052" y="726.2026605082682" width="11.996037865056664" height="6.0888220314143275" fill="#4895ef" opacity="0.15233619328409811" rx="1"/><rect x="820.6021979656308" y="729.2470715239754" width="11.996037865056664" height="6.0888220314143275" fill="#4cc9f0" opacity="0.07616809664204906" rx="1"/><rect x="831.2144327033809" y="773.1657431282023" width="11.234967972905135" height="7.009621906329324" fill="#4895ef" opacity="0.5015664739770737" rx="1"/><rect x="820.9827329117065" y="776.670554081367" width="11.234967972905135" height="7.009621906329324" fill="#4cc9f0" opacity="0.25078323698853683" rx="1"/><rect x="834.7911937636768" y="820.1288257481365" width="4.081445852313528" height="8.359935784330577" fill="#4895ef" opacity="0.28132495698084237" rx="1"/><rect x="824.5594939720024" y="824.3087936403018" width="4.081445852313528" height="8.359935784330577" fill="#4cc9f0" opacity="0.14066247849042118" rx="1"/><rect x="918.2435464226277" y="534.4580817232975" width="59.675633290241386" height="322.6338266447731" fill="#2947d4" opacity="0.44247307054290386" rx="2"/><rect x="945.4875805560704" y="544.4580817232975" width="5.187565023356016" height="8.03060311871362" fill="#4895ef" opacity="0.37924309747275964" rx="1"/><rect x="930.56867223351" y="548.4733832826543" width="5.187565023356016" height="8.03060311871362" fill="#4cc9f0" opacity="0.18962154873637982" rx="1"/><rect x="943.2514649937515" y="590.5486283868365" width="9.659796147993719" height="8.20695107388472" fill="#4895ef" opacity="0.3912623495308828" rx="1"/><rect x="928.3325566711911" y="594.6521039237789" width="9.659796147993719" height="8.20695107388472" fill="#4cc9f0" opacity="0.1956311747654414" rx="1"/><rect x="942.9831784451342" y="636.6391750503755" width="10.196369245228443" height="6.911480975549547" fill="#4895ef" opacity="0.3275456255831629" rx="1"/><rect x="928.0642701225738" y="640.0949155381502" width="10.196369245228443" height="6.911480975549547" fill="#4cc9f0" opacity="0.16377281279158146" rx="1"/><rect x="945.3102202681616" y="682.7297217139145" width="5.542285599173579" height="8.792605763020134" fill="#4895ef" opacity="0.5370561388640329" rx="1"/><rect x="930.3913119456013" y="687.1260245954246" width="5.542285599173579" height="8.792605763020134" fill="#4cc9f0" opacity="0.26852806943201646" rx="1"/><rect x="944.4625700175443" y="728.8202683774535" width="7.237586100408246" height="9.32016470174309" fill="#4895ef" opacity="0.3251182167616482" rx="1"/><rect x="929.5436616949839" y="733.4803507283251" width="7.237586100408246" height="9.32016470174309" fill="#4cc9f0" opacity="0.1625591083808241" rx="1"/><rect x="944.8049164670066" y="774.9108150409925" width="6.552893201483622" height="8.777412468282835" fill="#4895ef" opacity="0.14975905538298168" rx="1"/><rect x="929.8860081444462" y="779.2995212751339" width="6.552893201483622" height="8.777412468282835" fill="#4cc9f0" opacity="0.07487952769149084" rx="1"/><rect x="944.0831058446978" y="821.0013617045315" width="7.996514446101271" height="7.245985141314097" fill="#4895ef" opacity="0.39794730741948525" rx="1"/><rect x="929.1641975221374" y="824.6243542751886" width="7.996514446101271" height="7.245985141314097" fill="#4cc9f0" opacity="0.19897365370974263" rx="1"/><rect x="1043.6290306489982" y="702.1653350796935" width="39.66909465139478" height="154.92657328837703" fill="#2947d4" opacity="0.5278432373720787" rx="2"/><rect x="1059.3606716753825" y="712.1653350796935" width="8.20581259862655" height="8.887023318299796" fill="#4895ef" opacity="0.565634275336199" rx="1"/><rect x="1049.4433980125336" y="716.6088467388433" width="8.20581259862655" height="8.887023318299796" fill="#4cc9f0" opacity="0.2828171376680995" rx="1"/><rect x="1060.1451282285027" y="734.2977026923188" width="6.636899492386007" height="8.40373104121623" fill="#4895ef" opacity="0.3244885286140462" rx="1"/><rect x="1050.2278545656538" y="738.4995682129269" width="6.636899492386007" height="8.40373104121623" fill="#4cc9f0" opacity="0.1622442643070231" rx="1"/><rect x="1060.177313227015" y="756.430070304944" width="6.572529495361384" height="6.773130943247381" fill="#4895ef" opacity="0.4069500833067461" rx="1"/><rect x="1050.2600395641662" y="759.8166357765678" width="6.572529495361384" height="6.773130943247381" fill="#4cc9f0" opacity="0.20347504165337305" rx="1"/><rect x="1060.4857509069811" y="778.5624379175694" width="5.95565413542922" height="7.460565852341373" fill="#4895ef" opacity="0.4698789580655003" rx="1"/><rect x="1050.5684772441323" y="782.2927208437401" width="5.95565413542922" height="7.460565852341373" fill="#4cc9f0" opacity="0.23493947903275014" rx="1"/><rect x="1060.4174115693704" y="800.6948055301947" width="6.092332810650657" height="6.4650040819461" fill="#4895ef" opacity="0.3579368737661133" rx="1"/><rect x="1050.5001379065216" y="803.9273075711677" width="6.092332810650657" height="6.4650040819461" fill="#4cc9f0" opacity="0.17896843688305664" rx="1"/><rect x="1058.0756028064238" y="822.8271731428199" width="10.775950336543833" height="6.9557230623801525" fill="#4895ef" opacity="0.35706153601805246" rx="1"/><rect x="1048.158329143575" y="826.30503467401" width="10.775950336543833" height="6.9557230623801525" fill="#4cc9f0" opacity="0.17853076800902623" rx="1"/><rect x="1060.5310055686932" y="844.9595407554452" width="5.865144812004907" height="6.316434316410784" fill="#4895ef" opacity="0.398583015636211" rx="1"/><rect x="1050.6137319058444" y="848.1177579136506" width="5.865144812004907" height="6.316434316410784" fill="#4cc9f0" opacity="0.1992915078181055" rx="1"/><rect x="1149.0055809540222" y="581.8817966691875" width="35.433553267604104" height="275.21011169888317" fill="#4361ee" opacity="0.523202645295114" rx="2"/><rect x="1162.349242908263" y="591.8817966691875" width="8.746229359122513" height="8.55495868310215" fill="#4895ef" opacity="0.17605682094023956" rx="1"/><rect x="1153.490854591362" y="596.1592760107385" width="8.746229359122513" height="8.55495868310215" fill="#4cc9f0" opacity="0.08802841047011978" rx="1"/><rect x="1162.675930931623" y="626.2830606315479" width="8.09285331240223" height="8.65526472466422" fill="#4895ef" opacity="0.4255156136177284" rx="1"/><rect x="1153.817542614722" y="630.61069299388" width="8.09285331240223" height="8.65526472466422" fill="#4cc9f0" opacity="0.2127578068088642" rx="1"/><rect x="1161.4650804513287" y="660.6843245939083" width="10.514554272991269" height="9.872426289104025" fill="#4895ef" opacity="0.4494659291695491" rx="1"/><rect x="1152.6066921344277" y="665.6205377384603" width="10.514554272991269" height="9.872426289104025" fill="#4cc9f0" opacity="0.22473296458477454" rx="1"/><rect x="1161.7389142971344" y="695.0855885562687" width="9.966886581379661" height="6.500082478043643" fill="#4895ef" opacity="0.12131961309847414" rx="1"/><rect x="1152.8805259802334" y="698.3356297952905" width="9.966886581379661" height="6.500082478043643" fill="#4cc9f0" opacity="0.06065980654923707" rx="1"/><rect x="1160.9836973994934" y="729.486852518629" width="11.477320376661915" height="6.558807236272564" fill="#4895ef" opacity="0.36101403293689105" rx="1"/><rect x="1152.1253090825924" y="732.7662561367653" width="11.477320376661915" height="6.558807236272564" fill="#4cc9f0" opacity="0.18050701646844552" rx="1"/><rect x="1164.6511565371536" y="763.8881164809894" width="4.142402101341263" height="8.550979724747823" fill="#4895ef" opacity="0.4384833311053187" rx="1"/><rect x="1155.7927682202526" y="768.1636063433633" width="4.142402101341263" height="8.550979724747823" fill="#4cc9f0" opacity="0.21924166555265934" rx="1"/><rect x="1162.1132028412803" y="798.2893804433498" width="9.21830949308777" height="8.950348718778777" fill="#4895ef" opacity="0.3694087024474071" rx="1"/><rect x="1153.2548145243793" y="802.7645548027392" width="9.21830949308777" height="8.950348718778777" fill="#4cc9f0" opacity="0.18470435122370354" rx="1"/><rect x="1162.3772806724016" y="832.6906444057103" width="8.69015383084541" height="7.862482067631204" fill="#4895ef" opacity="0.3370925099209632" rx="1"/><rect x="1153.5188923555006" y="836.6218854395258" width="8.69015383084541" height="7.862482067631204" fill="#4cc9f0" opacity="0.1685462549604816" rx="1"/><rect x="1269.7829826571474" y="507.9707446643083" width="39.91385109953439" height="349.12116370376225" fill="#4361ee" opacity="0.5821730123092823" rx="2"/><rect x="1285.4148827112315" y="517.9707446643083" width="8.650050991366165" height="6.320702653452917" fill="#4895ef" opacity="0.39635855760340544" rx="1"/><rect x="1275.4364199363479" y="521.1310959910347" width="8.650050991366165" height="6.320702653452917" fill="#4cc9f0" opacity="0.19817927880170272" rx="1"/><rect x="1287.7209234402333" y="561.6108901272786" width="4.037969533362884" height="9.511055233774487" fill="#4895ef" opacity="0.5194078334652371" rx="1"/><rect x="1277.7424606653497" y="566.3664177441658" width="4.037969533362884" height="9.511055233774487" fill="#4cc9f0" opacity="0.25970391673261856" rx="1"/><rect x="1287.5185214715355" y="605.2510355902489" width="4.4427734707581745" height="9.46202822762123" fill="#4895ef" opacity="0.5778808541544436" rx="1"/><rect x="1277.5400586966518" y="609.9820497040595" width="4.4427734707581745" height="9.46202822762123" fill="#4cc9f0" opacity="0.2889404270772218" rx="1"/><rect x="1284.6373955941847" y="648.8911810532192" width="10.205025225459837" height="7.588387597722091" fill="#4895ef" opacity="0.2630078539398983" rx="1"/><rect x="1274.658932819301" y="652.6853748520803" width="10.205025225459837" height="7.588387597722091" fill="#4cc9f0" opacity="0.13150392696994914" rx="1"/><rect x="1283.9117105582059" y="692.5313265161894" width="11.65639529741751" height="8.567706509159809" fill="#4895ef" opacity="0.33379197407834976" rx="1"/><rect x="1273.9332477833223" y="696.8151797707693" width="11.65639529741751" height="8.567706509159809" fill="#4cc9f0" opacity="0.16689598703917488" rx="1"/><rect x="1283.9054482893334" y="736.1714719791597" width="11.668919835162562" height="9.622206331142738" fill="#4895ef" opacity="0.2531576214249147" rx="1"/><rect x="1273.9269855144498" y="740.9825751447311" width="11.668919835162562" height="9.622206331142738" fill="#4cc9f0" opacity="0.12657881071245736" rx="1"/><rect x="1283.9352351880948" y="779.81161744213" width="11.609346037639618" height="7.453033134679551" fill="#4895ef" opacity="0.24663224484460247" rx="1"/><rect x="1273.9567724132112" y="783.5381340094698" width="11.609346037639618" height="7.453033134679551" fill="#4cc9f0" opacity="0.12331612242230124" rx="1"/><rect x="1285.994758517713" y="823.4517629051003" width="7.4902993784030665" height="7.074529028747819" fill="#4895ef" opacity="0.21911342330721986" rx="1"/><rect x="1276.0162957428295" y="826.9890274194742" width="7.4902993784030665" height="7.074529028747819" fill="#4cc9f0" opacity="0.10955671165360993" rx="1"/><rect x="1363.5207702739913" y="660.457566173388" width="39.92805610642024" height="196.63434219468252" fill="#4361ee" opacity="0.48133678321757745" rx="2"/><rect x="1379.09302870978" y="670.457566173388" width="8.783539234842998" height="9.79362881085687" fill="#4895ef" opacity="0.392567486244386" rx="1"/><rect x="1369.111014683175" y="675.3543805788165" width="8.783539234842998" height="9.79362881085687" fill="#4cc9f0" opacity="0.196283743122193" rx="1"/><rect x="1378.169665503588" y="703.2299565391685" width="10.63026564722654" height="9.948382454912267" fill="#4895ef" opacity="0.3866390285283884" rx="1"/><rect x="1368.187651476983" y="708.2041477666246" width="10.63026564722654" height="9.948382454912267" fill="#4cc9f0" opacity="0.1933195142641942" rx="1"/><rect x="1379.2914765650155" y="736.0023469049489" width="8.386643524371703" height="6.147839791175872" fill="#4895ef" opacity="0.25415114668527417" rx="1"/><rect x="1369.3094625384106" y="739.0762668005368" width="8.386643524371703" height="6.147839791175872" fill="#4cc9f0" opacity="0.12707557334263708" rx="1"/><rect x="1377.6629578752124" y="768.7747372707292" width="11.64368090397764" height="6.0685380697409945" fill="#4895ef" opacity="0.582655600757025" rx="1"/><rect x="1367.6809438486075" y="771.8090063055997" width="11.64368090397764" height="6.0685380697409945" fill="#4cc9f0" opacity="0.2913278003785125" rx="1"/><rect x="1379.4171471219552" y="801.5471276365097" width="8.13530241049251" height="6.085436623563393" fill="#4895ef" opacity="0.22756139729813707" rx="1"/><rect x="1369.4351330953502" y="804.5898459482913" width="8.13530241049251" height="6.085436623563393" fill="#4cc9f0" opacity="0.11378069864906853" rx="1"/><rect x="1380.811974112832" y="834.3195180022901" width="5.345648428738501" height="6.688119942482588" fill="#4895ef" opacity="0.18317713243495143" rx="1"/><rect x="1370.8299600862272" y="837.6635779735315" width="5.345648428738501" height="6.688119942482588" fill="#4cc9f0" opacity="0.09158856621747571" rx="1"/><rect x="1478.9143317912037" y="535.2550049976574" width="75.3462834901517" height="321.8369033704132" fill="#2947d4" opacity="0.6274502869759337" rx="2"/><rect x="1512.955710543309" y="545.2550049976574" width="7.263525985941181" height="7.025269425712821" fill="#4895ef" opacity="0.23639327479442426" rx="1"/><rect x="1494.1191396707711" y="548.7676397105138" width="7.263525985941181" height="7.025269425712821" fill="#4cc9f0" opacity="0.11819663739721213" rx="1"/><rect x="1514.1462857921479" y="585.484617918959" width="4.882375488263177" height="9.183523225407937" fill="#4895ef" opacity="0.21512934803383643" rx="1"/><rect x="1495.30971491961" y="590.076379531663" width="4.882375488263177" height="9.183523225407937" fill="#4cc9f0" opacity="0.10756467401691822" rx="1"/><rect x="1512.2510915657622" y="625.7142308402606" width="8.672763941034852" height="8.59284423910846" fill="#4895ef" opacity="0.1446466253010199" rx="1"/><rect x="1493.4145206932244" y="630.0106529598148" width="8.672763941034852" height="8.59284423910846" fill="#4cc9f0" opacity="0.07232331265050995" rx="1"/><rect x="1514.4927463935435" y="665.9438437615623" width="4.1894542854720385" height="8.38779103811546" fill="#4895ef" opacity="0.582115609334343" rx="1"/><rect x="1495.6561755210057" y="670.13773928062" width="4.1894542854720385" height="8.38779103811546" fill="#4cc9f0" opacity="0.2910578046671715" rx="1"/><rect x="1512.7520516476945" y="706.173456682864" width="7.670843777170136" height="7.632975771472085" fill="#4895ef" opacity="0.22656554501190912" rx="1"/><rect x="1493.9154807751568" y="709.9899445686" width="7.670843777170136" height="7.632975771472085" fill="#4cc9f0" opacity="0.11328277250595456" rx="1"/><rect x="1512.6342065855006" y="746.4030696041656" width="7.906533901557916" height="8.908487324348764" fill="#4895ef" opacity="0.3627536487446059" rx="1"/><rect x="1493.7976357129628" y="750.8573132663399" width="7.906533901557916" height="8.908487324348764" fill="#4cc9f0" opacity="0.18137682437230296" rx="1"/><rect x="1512.1151216549597" y="786.6326825254673" width="8.944703762639477" height="7.660645646429771" fill="#4895ef" opacity="0.12858215152020153" rx="1"/><rect x="1493.278550782422" y="790.4630053486821" width="8.944703762639477" height="7.660645646429771" fill="#4cc9f0" opacity="0.06429107576010076" rx="1"/><rect x="1512.2004099830983" y="826.8622954467689" width="8.774127106362517" height="7.38281083232323" fill="#4895ef" opacity="0.5364415324377924" rx="1"/><rect x="1493.3638391105605" y="830.5537008629306" width="8.774127106362517" height="7.38281083232323" fill="#4cc9f0" opacity="0.2682207662188962" rx="1"/><rect x="1606.9835084483452" y="658.3248458123591" width="50.174421565647805" height="198.7670625557115" fill="#4361ee" opacity="0.5168250066034554" rx="2"/><rect x="1627.3131683166864" y="668.3248458123591" width="9.51510182896515" height="6.492840289253006" fill="#4895ef" opacity="0.29014873406620434" rx="1"/><rect x="1614.7695629252746" y="671.5712659569856" width="9.51510182896515" height="6.492840289253006" fill="#4cc9f0" opacity="0.14507436703310217" rx="1"/><rect x="1630.008921044182" y="696.720140463175" width="4.123596373974252" height="6.762611395856974" fill="#4895ef" opacity="0.3462204835019588" rx="1"/><rect x="1617.4653156527702" y="700.1014461611035" width="4.123596373974252" height="6.762611395856974" fill="#4cc9f0" opacity="0.1731102417509794" rx="1"/><rect x="1627.7614161276165" y="725.1154351139909" width="8.618606207105007" height="9.03204429592752" fill="#4895ef" opacity="0.14550399550830573" rx="1"/><rect x="1615.2178107362047" y="729.6314572619547" width="8.618606207105007" height="9.03204429592752" fill="#4cc9f0" opacity="0.07275199775415286" rx="1"/><rect x="1626.3237297873297" y="753.5107297648069" width="11.493978887678585" height="8.415792336318594" fill="#4895ef" opacity="0.5072409556031322" rx="1"/><rect x="1613.780124395918" y="757.7186259329662" width="11.493978887678585" height="8.415792336318594" fill="#4cc9f0" opacity="0.2536204778015661" rx="1"/><rect x="1628.3748781316385" y="781.9060244156228" width="7.391682199060843" height="7.477405164734788" fill="#4895ef" opacity="0.5972921726287558" rx="1"/><rect x="1615.8312727402267" y="785.6447269979902" width="7.391682199060843" height="7.477405164734788" fill="#4cc9f0" opacity="0.2986460863143779" rx="1"/><rect x="1628.1964523799707" y="810.3013190664387" width="7.748533702396912" height="6.417996439248788" fill="#4895ef" opacity="0.21411493448869207" rx="1"/><rect x="1615.6528469885588" y="813.5103172860631" width="7.748533702396912" height="6.417996439248788" fill="#4cc9f0" opacity="0.10705746724434603" rx="1"/><rect x="1626.2049093351707" y="838.6966137172546" width="11.731619791996577" height="8.754162497528402" fill="#4895ef" opacity="0.5996663831406428" rx="1"/><rect x="1613.6613039437589" y="843.0736949660188" width="11.731619791996577" height="8.754162497528402" fill="#4cc9f0" opacity="0.2998331915703214" rx="1"/><rect x="1720.8529270162928" y="569.0158112484532" width="88.70686459324949" height="288.0760971196173" fill="#2947d4" opacity="0.6226390783262065" rx="2"/><rect x="1760.9814028744543" y="579.0158112484532" width="8.449912876926808" height="7.845401972030616" fill="#4895ef" opacity="0.20640278437789594" rx="1"/><rect x="1738.8046867261419" y="582.9385122344686" width="8.449912876926808" height="7.845401972030616" fill="#4cc9f0" opacity="0.10320139218894797" rx="1"/><rect x="1759.246184403134" y="620.1695394083986" width="11.920349819567136" height="8.793278936947063" fill="#4895ef" opacity="0.4779234690307461" rx="1"/><rect x="1737.0694682548217" y="624.5661788768721" width="11.920349819567136" height="8.793278936947063" fill="#4cc9f0" opacity="0.23896173451537306" rx="1"/><rect x="1761.3794196942772" y="661.3232675683439" width="7.653879237280664" height="8.837435494837685" fill="#4895ef" opacity="0.4694441269313554" rx="1"/><rect x="1739.2027035459648" y="665.7419853157628" width="7.653879237280664" height="8.837435494837685" fill="#4cc9f0" opacity="0.2347220634656777" rx="1"/><rect x="1761.8963674239108" y="702.4769957282892" width="6.619983778013844" height="7.238821184551069" fill="#4895ef" opacity="0.32529891720630666" rx="1"/><rect x="1739.7196512755984" y="706.0964063205648" width="6.619983778013844" height="7.238821184551069" fill="#4cc9f0" opacity="0.16264945860315333" rx="1"/><rect x="1762.1131703246183" y="743.6307238882346" width="6.186377976598772" height="8.933952636768565" fill="#4895ef" opacity="0.47476415905979563" rx="1"/><rect x="1739.936454176306" y="748.0977002066188" width="6.186377976598772" height="8.933952636768565" fill="#4cc9f0" opacity="0.23738207952989782" rx="1"/><rect x="1762.4103305794788" y="784.7844520481799" width="5.5920574668776375" height="7.402278980566719" fill="#4895ef" opacity="0.5255527069153154" rx="1"/><rect x="1740.2336144311664" y="788.4855915384633" width="5.5920574668776375" height="7.402278980566719" fill="#4cc9f0" opacity="0.2627763534576577" rx="1"/><rect x="1760.314235682905" y="825.9381802081252" width="9.784247260024829" height="8.22216337598445" fill="#4895ef" opacity="0.27304830583116235" rx="1"/><rect x="1738.1375195345927" y="830.0492618961175" width="9.784247260024829" height="8.22216337598445" fill="#4cc9f0" opacity="0.13652415291558118" rx="1"/><rect x="1831.2480575105287" y="512.097195410658" width="72.60397596345376" height="344.9947129574126" fill="#4361ee" opacity="0.5473412385553451" rx="2"/><rect x="1864.7023450116865" y="522.097195410658" width="5.695400961138168" height="7.9843437750787345" fill="#4895ef" opacity="0.34502536555403507" rx="1"/><rect x="1846.5513510208232" y="526.0893672981973" width="5.695400961138168" height="7.9843437750787345" fill="#4cc9f0" opacity="0.17251268277701753" rx="1"/><rect x="1861.8833517546027" y="579.5963142368934" width="11.33338747530556" height="7.475827347830829" fill="#4895ef" opacity="0.5274140809260808" rx="1"/><rect x="1843.7323577637394" y="583.3342279108087" width="11.33338747530556" height="7.475827347830829" fill="#4cc9f0" opacity="0.2637070404630404" rx="1"/><rect x="1862.4515983493652" y="637.0954330631288" width="10.196894285780587" height="6.091884816086824" fill="#4895ef" opacity="0.4479737185053466" rx="1"/><rect x="1844.300604358502" y="640.1413754711722" width="10.196894285780587" height="6.091884816086824" fill="#4cc9f0" opacity="0.2239868592526733" rx="1"/><rect x="1862.9992736526763" y="694.5945518893643" width="9.101543679158564" height="7.834094720388319" fill="#4895ef" opacity="0.5244523797939653" rx="1"/><rect x="1844.848279661813" y="698.5115992495585" width="9.101543679158564" height="7.834094720388319" fill="#4cc9f0" opacity="0.26222618989698265" rx="1"/><rect x="1864.5132291343791" y="752.0936707155997" width="6.073632715752728" height="6.201121310750284" fill="#4895ef" opacity="0.5731640898327259" rx="1"/><rect x="1846.3622351435158" y="755.1942313709749" width="6.073632715752728" height="6.201121310750284" fill="#4cc9f0" opacity="0.28658204491636297" rx="1"/><rect x="1862.2006281989627" y="809.5927895418351" width="10.698834586585601" height="9.92306402696368" fill="#4895ef" opacity="0.4275930637790806" rx="1"/><rect x="1844.0496342080994" y="814.554321555317" width="10.698834586585601" height="9.92306402696368" fill="#4cc9f0" opacity="0.2137965318895403" rx="1"/><path d="M1390.1971206325566 876.9669289181397 Q1390.698152503627 816.0970799254945 1390.798358877841 755.2272309328492" stroke="#0014a1" stroke-width="6.471405810320611" fill="none" stroke-linecap="round"/><path d="M1390.798358877841 755.2272309328492 Q1434.7097056498078 735.2272309328492 1441.0904687389477 755.2272309328492" stroke="#102ebb" stroke-width="2.3692569351683503" fill="none" stroke-linecap="round" opacity="0.6"/><path d="M1390.798358877841 755.2272309328492 Q1406.3444423446224 738.9576280995539 1410.6309753472362 762.6880252662585" stroke="#102ebb" stroke-width="2.602504223259749" fill="none" stroke-linecap="round" opacity="0.6"/><path d="M1390.798358877841 755.2272309328492 Q1398.046589439161 742.1319024589662 1380.29205075355 769.0365739850832" stroke="#102ebb" stroke-width="3.235899247051193" fill="none" stroke-linecap="round" opacity="0.6"/><path d="M1390.798358877841 755.2272309328492 Q1386.9909462765906 737.8939840810971 1353.8812257330862 760.5607372293449" stroke="#102ebb" stroke-width="2.4688892570484637" fill="none" stroke-linecap="round" opacity="0.6"/><path d="M1390.798358877841 755.2272309328492 Q1381.1990251570203 731.3083937427317 1336.5480303780914 747.3895565526142" stroke="#102ebb" stroke-width="2.615701579632168" fill="none" stroke-linecap="round" opacity="0.6"/><path d="M1390.798358877841 755.2272309328492 Q1399.1563236264114 723.8424040265439 1373.474942555004 732.4575771202386" stroke="#102ebb" stroke-width="2.389147356708801" fill="none" stroke-linecap="round" opacity="0.6"/><path d="M1390.798358877841 755.2272309328492 Q1409.346544436811 728.4894300701317 1426.619804795215 741.7516292074142" stroke="#102ebb" stroke-width="2.1687977929061275" fill="none" stroke-linecap="round" opacity="0.6"/><path d="M576.3689595312738 964.2571898792538 Q590.1816005842251 886.5383629830411 592.9441287948154 808.8195360868284" stroke="#0014a1" stroke-width="5.769745096976344" fill="none" stroke-linecap="round"/><path d="M592.9441287948154 808.8195360868284 Q627.4713492552914 788.8195360868284 625.8673288887057 808.8195360868284" stroke="#102ebb" stroke-width="2.722209798340269" fill="none" stroke-linecap="round" opacity="0.6"/><path d="M592.9441287948154 808.8195360868284 Q620.2711693312692 797.2655289985115 637.8471593931932 825.7115219101946" stroke="#102ebb" stroke-width="3.2075695524009804" fill="none" stroke-linecap="round" opacity="0.6"/><path d="M592.9441287948154 808.8195360868284 Q598.6730700564802 796.7031868189774 580.9481832349211 824.5868375511265" stroke="#102ebb" stroke-width="3.8743050880437497" fill="none" stroke-linecap="round" opacity="0.6"/><path d="M592.9441287948154 808.8195360868284 Q577.9481664613487 792.8579846341977 537.037963344356 816.8964331815671" stroke="#102ebb" stroke-width="3.3020751861161726" fill="none" stroke-linecap="round" opacity="0.6"/><path d="M592.9441287948154 808.8195360868284 Q585.48240555236 786.6719499950075 563.2140723238324 804.5243639031864" stroke="#102ebb" stroke-width="2.974999099731212" fill="none" stroke-linecap="round" opacity="0.6"/><path d="M592.9441287948154 808.8195360868284 Q593.1382164808094 778.868490346166 577.8023871037213 788.9174446055035" stroke="#102ebb" stroke-width="2.8439782515270586" fill="none" stroke-linecap="round" opacity="0.6"/><path d="M592.9441287948154 808.8195360868284 Q634.1333460900536 780.2458757019485 638.5259021431949 791.6722153170688" stroke="#102ebb" stroke-width="3.4417245950181328" fill="none" stroke-linecap="round" opacity="0.6"/><path d="M1246.2297470789006 968.6653086144164 Q1237.4856352660538 899.8633054841457 1235.7368129034844 831.0613023538751" stroke="#0014a1" stroke-width="5.305634351751216" fill="none" stroke-linecap="round"/><path d="M1235.7368129034844 831.0613023538751 Q1278.7607665154526 811.0613023538751 1307.5937942149103 831.0613023538751" stroke="#102ebb" stroke-width="2.4955482968351683" fill="none" stroke-linecap="round" opacity="0.6"/><path d="M1235.7368129034844 831.0613023538751 Q1268.9591209540608 819.4589483385055 1280.38280758347 847.8565943231357" stroke="#102ebb" stroke-width="3.9729281733680812" fill="none" stroke-linecap="round" opacity="0.6"/><path d="M1235.7368129034844 831.0613023538751 Q1244.7222608256793 822.0881961639303 1218.9580358705628 853.1150899739855" stroke="#102ebb" stroke-width="2.9770169432687146" fill="none" stroke-linecap="round" opacity="0.6"/><path d="M1235.7368129034844 831.0613023538751 Q1217.3383153349118 814.1007900312595 1193.6597382587724 837.140277708644" stroke="#102ebb" stroke-width="3.4142645614720566" fill="none" stroke-linecap="round" opacity="0.6"/><path d="M1235.7368129034844 831.0613023538751 Q1208.4465304819116 806.2384398609784 1168.9716318419748 821.4155773680815" stroke="#102ebb" stroke-width="3.54217716854582" fill="none" stroke-linecap="round" opacity="0.6"/><path d="M646.1171884849009 881.590883569231 Q633.270729541143 828.2227999014367 630.7014377523916 774.8547162336424" stroke="#0014a1" stroke-width="5.598024822212295" fill="none" stroke-linecap="round"/><path d="M630.7014377523916 774.8547162336424 Q684.8222252868168 754.8547162336424 699.4506071683603 774.8547162336424" stroke="#102ebb" stroke-width="3.7933486857901673" fill="none" stroke-linecap="round" opacity="0.6"/><path d="M630.7014377523916 774.8547162336424 Q670.5090198329015 762.6194505779165 671.9825644943907 790.3841849221906" stroke="#102ebb" stroke-width="2.9192373223880392" fill="none" stroke-linecap="round" opacity="0.6"/><path d="M630.7014377523916 774.8547162336424 Q633.2566896174525 761.7628534182386 620.1898562018848 788.6709906028346" stroke="#102ebb" stroke-width="3.2125082652113655" fill="none" stroke-linecap="round" opacity="0.6"/><path d="M630.7014377523916 774.8547162336424 Q609.6244152032839 758.5270419054743 579.86368553412 782.1993675773061" stroke="#102ebb" stroke-width="3.010008868996522" fill="none" stroke-linecap="round" opacity="0.6"/><path d="M630.7014377523916 774.8547162336424 Q610.0810826491421 749.7265365290856 559.7096052058562 764.5983568245288" stroke="#102ebb" stroke-width="2.6779941010004826" fill="none" stroke-linecap="round" opacity="0.6"/><path d="M630.7014377523916 774.8547162336424 Q630.8206176477296 749.452439746831 622.4812087192846 764.0501632600195" stroke="#102ebb" stroke-width="2.4177561016794655" fill="none" stroke-linecap="round" opacity="0.6"/><path d="M577.5340574834341 973.6203232951509 Q586.5942349486504 904.0044773379351 588.4062704416937 834.3886313807193" stroke="#0014a1" stroke-width="7.416785167394389" fill="none" stroke-linecap="round"/><path d="M588.4062704416937 834.3886313807193 Q610.4974655109683 814.3886313807193 624.16952258073 834.3886313807193" stroke="#102ebb" stroke-width="2.339525593989418" fill="none" stroke-linecap="round" opacity="0.6"/><path d="M588.4062704416937 834.3886313807193 Q614.3912024702855 818.5498012830419 610.5290855331646 842.7109711853644" stroke="#102ebb" stroke-width="3.5229143098748557" fill="none" stroke-linecap="round" opacity="0.6"/><path d="M588.4062704416937 834.3886313807193 Q586.6869609801319 824.1542684590448 573.5466508657584 853.9199055373704" stroke="#102ebb" stroke-width="2.4745460167700766" fill="none" stroke-linecap="round" opacity="0.6"/><path d="M588.4062704416937 834.3886313807193 Q569.301118878472 817.6367259709514 543.4413510103083 840.8848205611835" stroke="#102ebb" stroke-width="3.509465061479589" fill="none" stroke-linecap="round" opacity="0.6"/><path d="M588.4062704416937 834.3886313807193 Q582.1284008746466 811.6830671291602 550.9518567206024 828.9775028776011" stroke="#102ebb" stroke-width="2.4878318734671527" fill="none" stroke-linecap="round" opacity="0.6"/><path d="M588.4062704416937 834.3886313807193 Q581.5462226081835 802.9651648724573 571.0240592055255 811.5416983641954" stroke="#102ebb" stroke-width="3.513899320157687" fill="none" stroke-linecap="round" opacity="0.6"/><rect x="0" y="1000" width="1920" height="80" fill="#1d3bc8" opacity="0.8"/><line x1="0" y1="1040" x2="1920" y2="1040" stroke="#4895ef" stroke-opacity="0.15" stroke-width="2" stroke-dasharray="30,20"/><rect x="0" y="930" width="1920" height="150" fill="url(#glow33)"/><rect x="0" y="980" width="1920" height="100" fill="#4895ef" opacity="0.04"/><rect x="302.01636813162276" y="1055.2594026260217" width="68.23668225394485" height="2" fill="#4cc9f0" opacity="0.04046732847124043" rx="1"/><rect x="1687.2884644026142" y="1006.7578326134844" width="32.65629190314941" height="2" fill="#4cc9f0" opacity="0.028533457286780108" rx="1"/><rect x="466.9657343223145" y="1056.2481118776482" width="23.65742377556335" height="2" fill="#4cc9f0" opacity="0.035653294747614604" rx="1"/><rect x="15.65992445118258" y="1005.6726045314391" width="60.42650981350488" height="2" fill="#4cc9f0" opacity="0.03195084321590859" rx="1"/><rect x="1655.5556210259804" y="1005.6232444396296" width="88.22880245005452" height="2" fill="#4cc9f0" opacity="0.04293307945666208" rx="1"/><rect x="445.9858145858128" y="1036.9243798630603" width="77.05396217691106" height="2" fill="#4cc9f0" opacity="0.048650860141182986" rx="1"/><rect x="1827.1931424520894" y="1025.1422486326524" width="38.729847464414746" height="2" fill="#4cc9f0" opacity="0.028014538709077642" rx="1"/><rect x="162.9490127048802" y="1046.5983749662057" width="29.251709447533756" height="2" fill="#4cc9f0" opacity="0.03184694499053223" rx="1"/><rect x="1013.7233611321363" y="1023.7984360437371" width="31.293671795002574" height="2" fill="#4cc9f0" opacity="0.050414034964147494" rx="1"/><rect x="1795.7960924217002" y="1022.2661655401499" width="92.69621292890427" height="2" fill="#4cc9f0" opacity="0.021693690475470782" rx="1"/><rect x="155.90759400183046" y="1023.8614043788662" width="55.4992915958863" height="2" fill="#4cc9f0" opacity="0.02470683187355912" rx="1"/><rect x="662.4146896652911" y="1029.4273933510826" width="64.0387170398698" height="2" fill="#4cc9f0" opacity="0.04328553950024898" rx="1"/><rect x="1352.4389888514856" y="1039.6239622728024" width="64.23116833070088" height="2" fill="#4cc9f0" opacity="0.05881576089160884" rx="1"/><rect x="177.0065957719941" y="1059.2957030281648" width="95.90446795241546" height="2" fill="#4cc9f0" opacity="0.05285585796294172" rx="1"/><rect x="562.4663764057836" y="1020.6149983128103" width="23.702216084045872" height="2" fill="#4cc9f0" opacity="0.04860376177090308" rx="1"/><rect x="1050.8067430022188" y="1047.6338935847473" width="64.86042944361932" height="2" fill="#4cc9f0" opacity="0.0559981689872216" rx="1"/><rect x="1862.157482193354" y="1058.80897457218" width="73.75689923617917" height="2" fill="#4cc9f0" opacity="0.022805602364895306" rx="1"/><rect x="1008.801757481136" y="1012.2607899811726" width="39.433609912971406" height="2" fill="#4cc9f0" opacity="0.05646305668085419" rx="1"/><rect x="1878.2895576856772" y="1052.628014081304" width="44.834922031693836" height="2" fill="#4cc9f0" opacity="0.059908793950432165" rx="1"/><rect x="757.1838920091241" y="1051.9893164681246" width="108.57026714565471" height="2" fill="#4cc9f0" opacity="0.02481407531649202" rx="1"/><rect x="1665.859286725954" y="1033.7066927956666" width="22.593534906067312" height="2" fill="#4cc9f0" opacity="0.05148943189333413" rx="1"/><rect x="1598.0850362028193" y="1025.8146840626873" width="21.053508767172115" height="2" fill="#4cc9f0" opacity="0.03789784435599526" rx="1"/><rect x="1596.537995263128" y="1022.0650651310722" width="42.32571084106474" height="2" fill="#4cc9f0" opacity="0.03173117412527352" rx="1"/><rect x="94.74667312920714" y="1011.7096206992188" width="28.65882102136007" height="2" fill="#4cc9f0" opacity="0.05332276606776816" rx="1"/><rect x="1073.2090153808726" y="1007.3275632428303" width="44.900495685846664" height="2" fill="#4cc9f0" opacity="0.03801775579760265" rx="1"/><rect x="1162.8780714894826" y="1009.7327778930154" width="110.42825035062346" height="2" fill="#4cc9f0" opacity="0.04012309555432832" rx="1"/><rect x="1203.1244210719888" y="1012.667373305342" width="69.52135366609352" height="2" fill="#4cc9f0" opacity="0.05427861654066449" rx="1"/><rect x="1644.729071642442" y="1002.5645970698829" width="91.2395816275942" height="2" fill="#4cc9f0" opacity="0.03790417699560154" rx="1"/><rect x="577.0974099489622" y="1047.6334491622713" width="51.01910139224937" height="2" fill="#4cc9f0" opacity="0.03021356816641371" rx="1"/><rect x="986.330307802728" y="1012.0157987140155" width="28.371764795941246" height="2" fill="#4cc9f0" opacity="0.05102169830143026" rx="1"/><text x="1900" y="1060" font-family="Arial, sans-serif" font-size="11" fill="#fff" opacity="0.08" text-anchor="end" letter-spacing="2">GTA 6 REWARDS · WALLPAPER 034</text>
</svg>