<?xml version="1.0" encoding="UTF-8"?>
<svg xmlns="http://www.w3.org/2000/svg" width="1920" height="1080" viewBox="0 0 1920 1080">
<defs>
    <linearGradient id="bg1" x1="0%" y1="0%" x2="0%" y2="100%">
      <stop offset="0%" stop-color="#004e89"/>
      <stop offset="50%" stop-color="#001b56"/>
      <stop offset="100%" stop-color="#004e89"/>
    </linearGradient>
    <linearGradient id="sun1" x1="0%" y1="0%" x2="100%" y2="100%">
      <stop offset="0%" stop-color="#ff6b35"/>
      <stop offset="100%" stop-color="#f7c59f"/>
    </linearGradient>
    <radialGradient id="glow1" cx="50%" cy="70%" r="50%">
      <stop offset="0%" stop-color="#ff6b35" stop-opacity="0.3"/>
      <stop offset="100%" stop-color="#004e89" stop-opacity="0"/>
    </radialGradient>
  </defs><rect width="1920" height="1080" fill="url(#bg1)"/><circle cx="303.28286541702295" cy="410.97881603310327" r="894.3152903100279" fill="#ff6b35" opacity="0.14683778984398532"/><circle cx="503.28286541702295" cy="310.97881603310327" r="456.2207006048925" fill="#f7c59f" opacity="0.09902710885950995"/><circle cx="810.9563426372958" cy="448.44688377306954" r="88.82972565219498" fill="url(#sun1)" opacity="0.736581338182227"/><circle cx="810.9563426372958" cy="448.44688377306954" r="83.82972565219498" fill="#004e89" opacity="0.3"/><rect x="7.425716893613738" y="692.6951165526862" width="39.269588098225555" height="226.74316866946015" fill="#00346f" opacity="0.5183857948562097" rx="2"/><rect x="23.91706424833207" y="702.6951165526862" width="6.28689338878889" height="6.763494313872302" fill="#f7c59f" opacity="0.12136485500292966" rx="1"/><rect x="14.099667223775683" y="706.0768637096223" width="6.28689338878889" height="6.763494313872302" fill="#ff6b35" opacity="0.06068242750146483" rx="1"/><rect x="23.350983119185777" y="735.0869977911805" width="7.419055647081476" height="8.3615299738854" fill="#f7c59f" opacity="0.4993421079123723" rx="1"/><rect x="13.53358609462939" y="739.2677627781231" width="7.419055647081476" height="8.3615299738854" fill="#ff6b35" opacity="0.24967105395618616" rx="1"/><rect x="23.881031458936874" y="767.4788790296748" width="6.358958967579286" height="6.82187914681199" fill="#f7c59f" opacity="0.42906482236670906" rx="1"/><rect x="14.063634434380484" y="770.8898186030808" width="6.358958967579286" height="6.82187914681199" fill="#ff6b35" opacity="0.21453241118335453" rx="1"/><rect x="22.876181495812766" y="799.8707602681691" width="8.368658893827503" height="9.03377136286203" fill="#f7c59f" opacity="0.19640701559754253" rx="1"/><rect x="13.058784471256377" y="804.3876459496001" width="8.368658893827503" height="9.03377136286203" fill="#ff6b35" opacity="0.09820350779877127" rx="1"/><rect x="22.176720015047287" y="832.2626415066634" width="9.767581855358458" height="7.8165440656748935" fill="#f7c59f" opacity="0.4852069123846495" rx="1"/><rect x="12.359322990490899" y="836.1709135395008" width="9.767581855358458" height="7.8165440656748935" fill="#ff6b35" opacity="0.24260345619232476" rx="1"/><rect x="21.08237493598889" y="864.6545227451577" width="11.95627201347525" height="6.957333293035005" fill="#f7c59f" opacity="0.4785006471161034" rx="1"/><rect x="11.264977911432503" y="868.1331893916752" width="11.95627201347525" height="6.957333293035005" fill="#ff6b35" opacity="0.2392503235580517" rx="1"/><rect x="24.447427174879106" y="897.046403983652" width="5.22616753569482" height="7.293326478752617" fill="#f7c59f" opacity="0.30659848761432773" rx="1"/><rect x="14.630030150322717" y="900.6930672230283" width="5.22616753569482" height="7.293326478752617" fill="#ff6b35" opacity="0.15329924380716387" rx="1"/><rect x="127.47637977066366" y="621.6068364730121" width="39.125296317302926" height="297.8314487491342" fill="#004e89" opacity="0.4381632616133809" rx="2"/><rect x="144.84413407087422" y="631.6068364730121" width="4.389787716881788" height="8.488880164569448" fill="#f7c59f" opacity="0.53288603307048" rx="1"/><rect x="135.06280999154848" y="635.8512765552969" width="4.389787716881788" height="8.488880164569448" fill="#ff6b35" opacity="0.26644301653524" rx="1"/><rect x="144.085051106076" y="706.0646986602957" width="5.907953646478232" height="9.957509952587428" fill="#f7c59f" opacity="0.45915256171933205" rx="1"/><rect x="134.30372702675027" y="711.0434536365893" width="5.907953646478232" height="9.957509952587428" fill="#ff6b35" opacity="0.22957628085966603" rx="1"/><rect x="143.4298363510589" y="780.5225608475791" width="7.218383156512488" height="7.209491395673131" fill="#f7c59f" opacity="0.43860747233000763" rx="1"/><rect x="133.64851227173313" y="784.1273065454158" width="7.218383156512488" height="7.209491395673131" fill="#ff6b35" opacity="0.21930373616500382" rx="1"/><rect x="141.2285021711673" y="854.9804230348627" width="11.621051516295655" height="9.693324717621628" fill="#f7c59f" opacity="0.44637188733238076" rx="1"/><rect x="131.44717809184155" y="859.8270853936735" width="11.621051516295655" height="9.693324717621628" fill="#ff6b35" opacity="0.22318594366619038" rx="1"/><rect x="267.56651324629" y="559.2867988765443" width="80.06531188033179" height="360.1514863456021" fill="#00346f" opacity="0.4118344018263357" rx="2"/><rect x="304.421265492081" y="569.2867988765443" width="6.35580738874986" height="9.524906124809036" fill="#f7c59f" opacity="0.355029315537547" rx="1"/><rect x="284.404937521998" y="574.0492519389488" width="6.35580738874986" height="9.524906124809036" fill="#ff6b35" opacity="0.1775146577687735" rx="1"/><rect x="301.8555921821053" y="614.3057346697445" width="11.487154008701246" height="8.81758146984912" fill="#f7c59f" opacity="0.1831285884098915" rx="1"/><rect x="281.83926421202233" y="618.7145254046691" width="11.487154008701246" height="8.81758146984912" fill="#ff6b35" opacity="0.09156429420494575" rx="1"/><rect x="302.8919331649998" y="659.3246704629448" width="9.414472042912262" height="9.795524861615972" fill="#f7c59f" opacity="0.16596029132277712" rx="1"/><rect x="282.87560519491683" y="664.2224328937529" width="9.414472042912262" height="9.795524861615972" fill="#ff6b35" opacity="0.08298014566138856" rx="1"/><rect x="301.6876388780511" y="704.343606256145" width="11.823060616809656" height="6.652051261778001" fill="#f7c59f" opacity="0.2941777593908314" rx="1"/><rect x="281.6713109079681" y="707.669631887034" width="11.823060616809656" height="6.652051261778001" fill="#ff6b35" opacity="0.1470888796954157" rx="1"/><rect x="305.128778678395" y="749.3625420493453" width="4.9407810161218" height="7.604970326089526" fill="#f7c59f" opacity="0.26216246147224737" rx="1"/><rect x="285.11245070831205" y="753.16502721239" width="4.9407810161218" height="7.604970326089526" fill="#ff6b35" opacity="0.13108123073612368" rx="1"/><rect x="302.9689633096496" y="794.3814778425456" width="9.260411753612665" height="8.036258019049711" fill="#f7c59f" opacity="0.3657720085153757" rx="1"/><rect x="282.95263533956665" y="798.3996068520704" width="9.260411753612665" height="8.036258019049711" fill="#ff6b35" opacity="0.18288600425768786" rx="1"/><rect x="305.29471934966153" y="839.4004136357458" width="4.608899673588783" height="9.2319630466476" fill="#f7c59f" opacity="0.5271193484140372" rx="1"/><rect x="285.2783913795786" y="844.0163951590697" width="4.608899673588783" height="9.2319630466476" fill="#ff6b35" opacity="0.2635596742070186" rx="1"/><rect x="304.5080230076583" y="884.4193494289461" width="6.18229235759524" height="6.657075881179672" fill="#f7c59f" opacity="0.2516282529690369" rx="1"/><rect x="284.49169503757537" y="887.747887369536" width="6.18229235759524" height="6.657075881179672" fill="#ff6b35" opacity="0.12581412648451845" rx="1"/><rect x="386.81922483649555" y="796.3195443144813" width="47.39636470503089" height="123.11874090766504" fill="#004e89" opacity="0.564718266964126" rx="2"/><rect x="408.03674466513024" y="806.3195443144813" width="4.961325047761511" height="6.565374847633153" fill="#f7c59f" opacity="0.13371422296243585" rx="1"/><rect x="396.1876534888725" y="809.6022317382979" width="4.961325047761511" height="6.565374847633153" fill="#ff6b35" opacity="0.06685711148121792" rx="1"/><rect x="407.3140994977006" y="837.0992295413976" width="6.406615382620743" height="8.702432023059211" fill="#f7c59f" opacity="0.4257217225212887" rx="1"/><rect x="395.4650083214429" y="841.4504455529271" width="6.406615382620743" height="8.702432023059211" fill="#ff6b35" opacity="0.21286086126064435" rx="1"/><rect x="408.0500525923097" y="867.8789147683138" width="4.9347091934026" height="8.032682115685354" fill="#f7c59f" opacity="0.3616183686213611" rx="1"/><rect x="396.200961416052" y="871.8952558261565" width="4.9347091934026" height="8.032682115685354" fill="#ff6b35" opacity="0.18080918431068055" rx="1"/><rect x="407.6700482533011" y="898.65859999523" width="5.694717871419787" height="9.168793962143546" fill="#f7c59f" opacity="0.22617082349634052" rx="1"/><rect x="395.8209570770434" y="903.2429969763018" width="5.694717871419787" height="9.168793962143546" fill="#ff6b35" opacity="0.11308541174817026" rx="1"/><rect x="509.74961559980864" y="578.4353125557386" width="87.2404978511018" height="341.0029726664077" fill="#00346f" opacity="0.4548913174669471" rx="2"/><rect x="547.432858765226" y="588.4353125557386" width="11.874011520267" height="7.318871201323082" fill="#f7c59f" opacity="0.46033748296562993" rx="1"/><rect x="525.6227343024506" y="592.0947481564002" width="11.874011520267" height="7.318871201323082" fill="#ff6b35" opacity="0.23016874148281496" rx="1"/><rect x="547.9082285288973" y="702.1029701112078" width="10.923271992924453" height="6.375410225329784" fill="#f7c59f" opacity="0.22530426253222494" rx="1"/><rect x="526.0981040661219" y="705.2906752238727" width="10.923271992924453" height="6.375410225329784" fill="#ff6b35" opacity="0.11265213126611247" rx="1"/><rect x="547.8907880207735" y="815.7706276666771" width="10.958153009172099" height="9.180855241413427" fill="#f7c59f" opacity="0.49591086781488525" rx="1"/><rect x="526.080663557998" y="820.3610552873838" width="10.958153009172099" height="9.180855241413427" fill="#ff6b35" opacity="0.24795543390744262" rx="1"/><rect x="606.6241875259727" y="794.6970517036266" width="35.775780506845514" height="124.74123351851972" fill="#00346f" opacity="0.5627663260239099" rx="2"/><rect x="618.9739323267652" y="804.6970517036266" width="11.07629090526055" height="7.2487979813592505" fill="#f7c59f" opacity="0.554552863597533" rx="1"/><rect x="610.0299872000538" y="808.3214506943062" width="11.07629090526055" height="7.2487979813592505" fill="#ff6b35" opacity="0.2772764317987665" rx="1"/><rect x="619.0650519281776" y="835.8823600832566" width="10.894051702435606" height="8.531888621517432" fill="#f7c59f" opacity="0.43453163768503156" rx="1"/><rect x="610.1211068014662" y="840.1483043940153" width="10.894051702435606" height="8.531888621517432" fill="#ff6b35" opacity="0.21726581884251578" rx="1"/><rect x="621.573850444186" y="867.0676684628864" width="5.876454670419091" height="7.534599027022393" fill="#f7c59f" opacity="0.2537594567411019" rx="1"/><rect x="612.6299053174746" y="870.8349679763976" width="5.876454670419091" height="7.534599027022393" fill="#ff6b35" opacity="0.12687972837055095" rx="1"/><rect x="621.6936334564102" y="898.2529768425163" width="5.636888645970469" height="7.059760175892096" fill="#f7c59f" opacity="0.565486131134789" rx="1"/><rect x="612.7496883296989" y="901.7828569304623" width="5.636888645970469" height="7.059760175892096" fill="#ff6b35" opacity="0.2827430655673945" rx="1"/><rect x="748.9874235584837" y="740.5398259965098" width="39.59152974877309" height="178.89845922563654" fill="#00346f" opacity="0.4109783518386489" rx="2"/><rect x="765.2345870789686" y="750.5398259965098" width="7.097202707803157" height="6.974917949404316" fill="#f7c59f" opacity="0.17420764143443845" rx="1"/><rect x="755.3367046417753" y="754.0272849712119" width="7.097202707803157" height="6.974917949404316" fill="#ff6b35" opacity="0.08710382071721923" rx="1"/><rect x="763.498467875295" y="776.0967487430293" width="10.569441115150564" height="7.231795531053049" fill="#f7c59f" opacity="0.5462203495079233" rx="1"/><rect x="753.6005854381017" y="779.7126465085557" width="10.569441115150564" height="7.231795531053049" fill="#ff6b35" opacity="0.27311017475396165" rx="1"/><rect x="764.6796760427951" y="801.6536714895487" width="8.207024780150276" height="7.711332420285636" fill="#f7c59f" opacity="0.44318749067447794" rx="1"/><rect x="754.7817936056018" y="805.5093376996915" width="8.207024780150276" height="7.711332420285636" fill="#ff6b35" opacity="0.22159374533723897" rx="1"/><rect x="765.4038327774973" y="827.2105942360683" width="6.7587113107458485" height="6.981034557563493" fill="#f7c59f" opacity="0.3680198626518296" rx="1"/><rect x="755.505950340304" y="830.7011115148501" width="6.7587113107458485" height="6.981034557563493" fill="#ff6b35" opacity="0.1840099313259148" rx="1"/><rect x="763.7336040443586" y="852.7675169825878" width="10.099168777023248" height="9.177338649327247" fill="#f7c59f" opacity="0.12528848359950084" rx="1"/><rect x="753.8357216071653" y="857.3561863072515" width="10.099168777023248" height="9.177338649327247" fill="#ff6b35" opacity="0.06264424179975042" rx="1"/><rect x="765.9486802883793" y="878.3244397291073" width="5.669016288982009" height="8.52688818949435" fill="#f7c59f" opacity="0.4229807030463081" rx="1"/><rect x="756.050797851186" y="882.5878838238546" width="5.669016288982009" height="8.52688818949435" fill="#ff6b35" opacity="0.21149035152315404" rx="1"/><rect x="766.6635389378442" y="903.8813624756268" width="4.23929899005203" height="7.305116663990802" fill="#f7c59f" opacity="0.3145845757831318" rx="1"/><rect x="756.765656500651" y="907.5339208076222" width="4.23929899005203" height="7.305116663990802" fill="#ff6b35" opacity="0.1572922878915659" rx="1"/><rect x="866.1488002250318" y="731.8107934975557" width="68.92884999488686" height="187.62749172459064" fill="#00346f" opacity="0.5803835896962284" rx="2"/><rect x="894.9184914175231" y="741.8107934975557" width="11.389467609904116" height="8.160320814270602" fill="#f7c59f" opacity="0.38401775129232973" rx="1"/><rect x="877.6862789188015" y="745.890953904691" width="11.389467609904116" height="8.160320814270602" fill="#ff6b35" opacity="0.19200887564616487" rx="1"/><rect x="896.0430518875464" y="804.3532907390859" width="9.140346669857472" height="6.4975455665256705" fill="#f7c59f" opacity="0.13510015889422505" rx="1"/><rect x="878.8108393888248" y="807.6020635223487" width="9.140346669857472" height="6.4975455665256705" fill="#ff6b35" opacity="0.06755007944711253" rx="1"/><rect x="895.3562565269779" y="866.8957879806161" width="10.513937390994732" height="6.565893980806203" fill="#f7c59f" opacity="0.4552851164376561" rx="1"/><rect x="878.1240440282562" y="870.1787349710191" width="10.513937390994732" height="6.565893980806203" fill="#ff6b35" opacity="0.22764255821882806" rx="1"/><rect x="968.2926612529653" y="751.3460722871465" width="68.48852164542501" height="168.09221293499976" fill="#004e89" opacity="0.6776651045022684" rx="2"/><rect x="1000.0963215462622" y="761.3460722871465" width="4.881201058831346" height="6.6933368585755435" fill="#f7c59f" opacity="0.44046262172992867" rx="1"/><rect x="982.9741911349059" y="764.6927407164343" width="4.881201058831346" height="6.6933368585755435" fill="#ff6b35" opacity="0.22023131086496434" rx="1"/><rect x="1000.3551728640113" y="817.3768099321464" width="4.363498423333163" height="8.112787878632728" fill="#f7c59f" opacity="0.2898940460965722" rx="1"/><rect x="983.233042452655" y="821.4332038714628" width="4.363498423333163" height="8.112787878632728" fill="#ff6b35" opacity="0.1449470230482861" rx="1"/><rect x="997.4257853423304" y="873.4075475771464" width="10.222273466694698" height="7.052056089288568" fill="#f7c59f" opacity="0.14177378235426122" rx="1"/><rect x="980.3036549309742" y="876.9335756217906" width="10.222273466694698" height="7.052056089288568" fill="#ff6b35" opacity="0.07088689117713061" rx="1"/><rect x="1109.9546058755263" y="835.0325033615885" width="88.66210341422402" height="84.4057818605578" fill="#004e89" opacity="0.43369435878323725" rx="2"/><rect x="1149.855819538435" y="845.0325033615885" width="8.85967608840663" height="8.096241117011811" fill="#f7c59f" opacity="0.2922710541850587" rx="1"/><rect x="1127.6902936848792" y="849.0806239200945" width="8.85967608840663" height="8.096241117011811" fill="#ff6b35" opacity="0.14613552709252936" rx="1"/><rect x="1149.435357080874" y="861.9136597337001" width="9.700601003528712" height="6.538009303747213" fill="#f7c59f" opacity="0.24210851226051072" rx="1"/><rect x="1127.269831227318" y="865.1826643855737" width="9.700601003528712" height="6.538009303747213" fill="#ff6b35" opacity="0.12105425613025536" rx="1"/><rect x="1148.422072891943" y="878.7948161058116" width="11.727169381391064" height="8.47509145794322" fill="#f7c59f" opacity="0.37062753559337636" rx="1"/><rect x="1126.256547038387" y="883.0323618347832" width="11.727169381391064" height="8.47509145794322" fill="#ff6b35" opacity="0.18531376779668818" rx="1"/><rect x="1152.1159100586353" y="895.6759724779232" width="4.339495048005948" height="6.654533354717897" fill="#f7c59f" opacity="0.41200994605012475" rx="1"/><rect x="1129.9503842050794" y="899.0032391552821" width="4.339495048005948" height="6.654533354717897" fill="#ff6b35" opacity="0.20600497302506238" rx="1"/><rect x="1151.3364910460862" y="912.5571288500347" width="5.898333073104344" height="6.622048930409841" fill="#f7c59f" opacity="0.4200689269742157" rx="1"/><rect x="1129.1709651925303" y="915.8681533152396" width="5.898333073104344" height="6.622048930409841" fill="#ff6b35" opacity="0.21003446348710786" rx="1"/><rect x="1218.3522813600378" y="819.2325164143073" width="31.152751255117533" height="100.20576880783908" fill="#00346f" opacity="0.5206070446690095" rx="2"/><rect x="1229.316342057734" y="829.2325164143073" width="9.224629859725159" height="9.193618085047607" fill="#f7c59f" opacity="0.42237439796383824" rx="1"/><rect x="1221.5281542439545" y="833.829325456831" width="9.224629859725159" height="9.193618085047607" fill="#ff6b35" opacity="0.21118719898191912" rx="1"/><rect x="1229.2321145115961" y="843.5476262439986" width="9.39308495200078" height="9.833142119420959" fill="#f7c59f" opacity="0.111244992611754" rx="1"/><rect x="1221.4439266978168" y="848.464197303709" width="9.39308495200078" height="9.833142119420959" fill="#ff6b35" opacity="0.055622496305877" rx="1"/><rect x="1228.4584889522425" y="857.8627360736899" width="10.940336070708078" height="9.677735362126896" fill="#f7c59f" opacity="0.11321161527028578" rx="1"/><rect x="1220.6703011384632" y="862.7016037547534" width="10.940336070708078" height="9.677735362126896" fill="#ff6b35" opacity="0.05660580763514289" rx="1"/><rect x="1228.63427755135" y="872.1778459033811" width="10.588758872493347" height="8.164606231768756" fill="#f7c59f" opacity="0.38230248910428544" rx="1"/><rect x="1220.8460897375705" y="876.2601490192656" width="10.588758872493347" height="8.164606231768756" fill="#ff6b35" opacity="0.19115124455214272" rx="1"/><rect x="1230.4295172573602" y="886.4929557330724" width="6.9982794604725855" height="6.429335009406632" fill="#f7c59f" opacity="0.14180663079996747" rx="1"/><rect x="1222.6413294435808" y="889.7076232377758" width="6.9982794604725855" height="6.429335009406632" fill="#ff6b35" opacity="0.07090331539998374" rx="1"/><rect x="1229.1909840582384" y="900.8080655627638" width="9.475345858716253" height="7.502812195919177" fill="#f7c59f" opacity="0.10743850693279842" rx="1"/><rect x="1221.402796244459" y="904.5594716607234" width="9.475345858716253" height="7.502812195919177" fill="#ff6b35" opacity="0.05371925346639921" rx="1"/><rect x="1229.9032725535574" y="915.1231753924551" width="8.05076886807819" height="8.202649399219698" fill="#f7c59f" opacity="0.44309085000843995" rx="1"/><rect x="1222.115084739778" y="919.224500092065" width="8.05076886807819" height="8.202649399219698" fill="#ff6b35" opacity="0.22154542500421998" rx="1"/><rect x="1345.8318441863712" y="609.3162660508688" width="59.81385412854465" height="310.12201917127754" fill="#00346f" opacity="0.5197288204961756" rx="2"/><rect x="1372.925059283135" y="619.3162660508688" width="5.627423935017415" height="9.499802507343656" fill="#f7c59f" opacity="0.4903814779804977" rx="1"/><rect x="1357.9715957509986" y="624.0661673045406" width="5.627423935017415" height="9.499802507343656" fill="#ff6b35" opacity="0.24519073899024885" rx="1"/><rect x="1373.3534355667312" y="663.6194116467656" width="4.7706713678247" height="6.735180777668762" fill="#f7c59f" opacity="0.45122373114601333" rx="1"/><rect x="1358.3999720345948" y="666.9870020356" width="4.7706713678247" height="6.735180777668762" fill="#ff6b35" opacity="0.22561186557300666" rx="1"/><rect x="1373.6038411139987" y="707.9225572426624" width="4.269860273289927" height="9.208161718027704" fill="#f7c59f" opacity="0.5786639913168419" rx="1"/><rect x="1358.6503775818624" y="712.5266381016762" width="4.269860273289927" height="9.208161718027704" fill="#ff6b35" opacity="0.28933199565842094" rx="1"/><rect x="1372.3926850844625" y="752.2257028385591" width="6.692172332362312" height="9.64200870777527" fill="#f7c59f" opacity="0.5250458858267045" rx="1"/><rect x="1357.4392215523262" y="757.0467071924467" width="6.692172332362312" height="9.64200870777527" fill="#ff6b35" opacity="0.26252294291335226" rx="1"/><rect x="1371.2268286380515" y="796.528848434456" width="9.023885225184234" height="7.873111455206087" fill="#f7c59f" opacity="0.39926918372494846" rx="1"/><rect x="1356.2733651059152" y="800.465404162059" width="9.023885225184234" height="7.873111455206087" fill="#ff6b35" opacity="0.19963459186247423" rx="1"/><rect x="1371.9947539230332" y="840.8319940303527" width="7.488034655220815" height="6.820335093145337" fill="#f7c59f" opacity="0.1723335826937886" rx="1"/><rect x="1357.0412903908968" y="844.2421615769254" width="7.488034655220815" height="6.820335093145337" fill="#ff6b35" opacity="0.0861667913468943" rx="1"/><rect x="1369.985187683484" y="885.1351396262495" width="11.50716713431924" height="8.585019644020363" fill="#f7c59f" opacity="0.12319096879176586" rx="1"/><rect x="1355.0317241513476" y="889.4276494482597" width="11.50716713431924" height="8.585019644020363" fill="#ff6b35" opacity="0.06159548439588293" rx="1"/><rect x="1457.9469444737647" y="792.4472902883886" width="65.47863253287008" height="126.99099493375769" fill="#00346f" opacity="0.6863158498858837" rx="2"/><rect x="1488.6362953753296" y="802.4472902883886" width="4.099930729740283" height="7.979803259945429" fill="#f7c59f" opacity="0.2639594120588059" rx="1"/><rect x="1472.2666372421122" y="806.4371919183612" width="4.099930729740283" height="7.979803259945429" fill="#ff6b35" opacity="0.13197970602940295" rx="1"/><rect x="1484.7804665881629" y="834.1950390218279" width="11.811588304073453" height="8.521797445258544" fill="#f7c59f" opacity="0.33987643694036557" rx="1"/><rect x="1468.4108084549455" y="838.4559377444572" width="11.811588304073453" height="8.521797445258544" fill="#ff6b35" opacity="0.16993821847018278" rx="1"/><rect x="1488.6752787054693" y="865.9427877552674" width="4.021964069460976" height="8.532653955401074" fill="#f7c59f" opacity="0.11626600313844765" rx="1"/><rect x="1472.3056205722519" y="870.2091147329679" width="4.021964069460976" height="8.532653955401074" fill="#ff6b35" opacity="0.058133001569223824" rx="1"/><rect x="1485.5436619614586" y="897.6905364887068" width="10.285197557482217" height="9.890608472724121" fill="#f7c59f" opacity="0.18960342898257157" rx="1"/><rect x="1469.1740038282412" y="902.6358407250689" width="10.285197557482217" height="9.890608472724121" fill="#ff6b35" opacity="0.09480171449128579" rx="1"/><rect x="1579.4264985829188" y="662.7583074063897" width="83.14742424831434" height="256.6799778157566" fill="#004e89" opacity="0.521654038182845" rx="2"/><rect x="1616.72747057344" y="672.7583074063897" width="8.545480267271744" height="9.138139416263005" fill="#f7c59f" opacity="0.535980423804368" rx="1"/><rect x="1595.9406145113617" y="677.3273771145211" width="8.545480267271744" height="9.138139416263005" fill="#ff6b35" opacity="0.267990211902184" rx="1"/><rect x="1617.4316353058516" y="715.5383037090157" width="7.1371508024486605" height="9.037169402241048" fill="#f7c59f" opacity="0.4577238814574024" rx="1"/><rect x="1596.6447792437732" y="720.0568884101363" width="7.1371508024486605" height="9.037169402241048" fill="#ff6b35" opacity="0.2288619407287012" rx="1"/><rect x="1618.0323617726174" y="758.3183000116419" width="5.935697868917067" height="6.637642755321609" fill="#f7c59f" opacity="0.5463102408792615" rx="1"/><rect x="1597.245505710539" y="761.6371213893027" width="5.935697868917067" height="6.637642755321609" fill="#ff6b35" opacity="0.27315512043963075" rx="1"/><rect x="1617.4613513635613" y="801.098296314268" width="7.077718687029025" height="9.81323305699351" fill="#f7c59f" opacity="0.3536374736236496" rx="1"/><rect x="1596.674495301483" y="806.0049128427648" width="7.077718687029025" height="9.81323305699351" fill="#ff6b35" opacity="0.1768187368118248" rx="1"/><rect x="1616.4300847317627" y="843.8782926168941" width="9.14025195062632" height="7.7193246878961395" fill="#f7c59f" opacity="0.1556257291593649" rx="1"/><rect x="1595.6432286696843" y="847.7379549608422" width="9.14025195062632" height="7.7193246878961395" fill="#ff6b35" opacity="0.07781286457968245" rx="1"/><rect x="1615.9549944077048" y="886.6582889195201" width="10.090432598742291" height="8.510244220148364" fill="#f7c59f" opacity="0.4865594147673248" rx="1"/><rect x="1595.1681383456264" y="890.9134110295943" width="10.090432598742291" height="8.510244220148364" fill="#ff6b35" opacity="0.2432797073836624" rx="1"/><rect x="1683.71368877909" y="603.5052896951105" width="30.433740159597654" height="315.9329955270358" fill="#004e89" opacity="0.4663366326052548" rx="2"/><rect x="1693.948053493851" y="613.5052896951105" width="9.965010730075885" height="6.136478388713784" fill="#f7c59f" opacity="0.21725585712521706" rx="1"/><rect x="1686.3396184539515" y="616.5735288894674" width="9.965010730075885" height="6.136478388713784" fill="#ff6b35" opacity="0.10862792856260853" rx="1"/><rect x="1696.7158480160208" y="692.4885385768695" width="4.429421685736026" height="7.222763412916745" fill="#f7c59f" opacity="0.5685142716552397" rx="1"/><rect x="1689.1074129761214" y="696.0999202833278" width="4.429421685736026" height="7.222763412916745" fill="#ff6b35" opacity="0.28425713582761986" rx="1"/><rect x="1695.6661376610086" y="771.4717874586283" width="6.528842395760315" height="7.630751626014419" fill="#f7c59f" opacity="0.4355792215642471" rx="1"/><rect x="1688.0577026211092" y="775.2871632716356" width="6.528842395760315" height="7.630751626014419" fill="#ff6b35" opacity="0.21778961078212355" rx="1"/><rect x="1696.353107225465" y="850.4550363403873" width="5.15490326684781" height="8.576403814967815" fill="#f7c59f" opacity="0.49729179008800817" rx="1"/><rect x="1688.7446721855656" y="854.7432382478712" width="5.15490326684781" height="8.576403814967815" fill="#ff6b35" opacity="0.24864589504400408" rx="1"/><rect x="1819.8750881431333" y="808.9574408272648" width="58.22488389169445" height="110.48084439488147" fill="#00346f" opacity="0.6747482494857973" rx="2"/><rect x="1843.3482659124647" y="818.9574408272648" width="11.278528353031383" height="9.98678571171751" fill="#f7c59f" opacity="0.40376820960169846" rx="1"/><rect x="1828.7920449395413" y="823.9508336831235" width="11.278528353031383" height="9.98678571171751" fill="#ff6b35" opacity="0.20188410480084923" rx="1"/><rect x="1846.1969787616274" y="841.0536097062411" width="5.581102654706012" height="8.554776896386123" fill="#f7c59f" opacity="0.40995401037157375" rx="1"/><rect x="1831.640757788704" y="845.3309981544342" width="5.581102654706012" height="8.554776896386123" fill="#ff6b35" opacity="0.20497700518578688" rx="1"/><rect x="1844.609513359519" y="863.1497785852174" width="8.756033458922998" height="9.631848592225428" fill="#f7c59f" opacity="0.2837559261321453" rx="1"/><rect x="1830.0532923865956" y="867.9657028813301" width="8.756033458922998" height="9.631848592225428" fill="#ff6b35" opacity="0.14187796306607264" rx="1"/><rect x="1843.3329998469756" y="885.2459474641937" width="11.309060484010041" height="6.19228421156115" fill="#f7c59f" opacity="0.3248396374575886" rx="1"/><rect x="1828.776778874052" y="888.3420895699743" width="11.309060484010041" height="6.19228421156115" fill="#ff6b35" opacity="0.1624198187287943" rx="1"/><rect x="1846.0149446621106" y="907.34211634317" width="5.945170853739877" height="6.054347226408857" fill="#f7c59f" opacity="0.3517494614589376" rx="1"/><rect x="1831.458723689187" y="910.3692899563745" width="5.945170853739877" height="6.054347226408857" fill="#ff6b35" opacity="0.1758747307294688" rx="1"/><path d="M1527.9477353971329 918.4379496654584 Q1544.2018313343174 807.7702087368282 1547.4526505217543 697.1024678081978" stroke="#00013c" stroke-width="5.696533818192904" fill="none" stroke-linecap="round"/><path d="M1547.4526505217543 697.1024678081978 Q1587.0881831783538 677.1024678081978 1605.1662736006933 697.1024678081978" stroke="#001b56" stroke-width="2.748233914549517" fill="none" stroke-linecap="round" opacity="0.6"/><path d="M1547.4526505217543 697.1024678081978 Q1577.2605497124289 684.4392756468901 1586.4587105930939 711.7760834855825" stroke="#001b56" stroke-width="2.968831863014221" fill="none" stroke-linecap="round" opacity="0.6"/><path d="M1547.4526505217543 697.1024678081978 Q1545.7699337344402 684.4264772566797 1536.3082681018357 711.7504867051616" stroke="#001b56" stroke-width="3.10187340227465" fill="none" stroke-linecap="round" opacity="0.6"/><path d="M1547.4526505217543 697.1024678081978 Q1528.1988868762223 680.8689491037062 1495.3114571890028 704.6354303992147" stroke="#001b56" stroke-width="3.123072564863384" fill="none" stroke-linecap="round" opacity="0.6"/><path d="M1547.4526505217543 697.1024678081978 Q1536.3010477386263 674.6980821443155 1514.167595343998 692.2936964804333" stroke="#001b56" stroke-width="2.612351343643933" fill="none" stroke-linecap="round" opacity="0.6"/><path d="M1207.8876460920758 862.8291529516757 Q1203.4685180111483 806.9362173164114 1202.5846923949628 751.0432816811472" stroke="#00013c" stroke-width="4.680106291705767" fill="none" stroke-linecap="round"/><path d="M1202.5846923949628 751.0432816811472 Q1235.1671189789583 731.0432816811472 1259.5448018665297 751.0432816811472" stroke="#001b56" stroke-width="2.9690550428277476" fill="none" stroke-linecap="round" opacity="0.6"/><path d="M1202.5846923949628 751.0432816811472 Q1221.2966860884903 735.4155095363128 1225.829594825796 759.7877373914785" stroke="#001b56" stroke-width="3.170122117076563" fill="none" stroke-linecap="round" opacity="0.6"/><path d="M1202.5846923949628 751.0432816811472 Q1209.3221964640964 738.1812830029344 1191.723344249055 765.3192843247215" stroke="#001b56" stroke-width="3.0353448183823715" fill="none" stroke-linecap="round" opacity="0.6"/><path d="M1202.5846923949628 751.0432816811472 Q1181.601788509774 734.2712700612226 1157.8981128008734 757.4992584412979" stroke="#001b56" stroke-width="3.2107266893635336" fill="none" stroke-linecap="round" opacity="0.6"/><path d="M1202.5846923949628 751.0432816811472 Q1178.4431261775642 727.4622700340117 1153.0110436839523 743.8812583868762" stroke="#001b56" stroke-width="2.625230278499711" fill="none" stroke-linecap="round" opacity="0.6"/><path d="M1215.6367312221873 782.4176131939556 Q1215.0215329031976 663.5955953536545 1214.8984932393996 544.7735775133533" stroke="#00013c" stroke-width="7.196954288332945" fill="none" stroke-linecap="round"/><path d="M1214.8984932393996 544.7735775133533 Q1235.5620147889856 524.7735775133533 1245.8879202147684 544.7735775133533" stroke="#001b56" stroke-width="3.856042701251815" fill="none" stroke-linecap="round" opacity="0.6"/><path d="M1214.8984932393996 544.7735775133533 Q1246.4272423661282 530.3234062189993 1244.4040979434553 555.8732349246453" stroke="#001b56" stroke-width="3.720979801779841" fill="none" stroke-linecap="round" opacity="0.6"/><path d="M1214.8984932393996 544.7735775133533 Q1223.8046894004538 534.6823937642323 1199.821008918105 564.5912100151113" stroke="#001b56" stroke-width="3.248624908097234" fill="none" stroke-linecap="round" opacity="0.6"/><path d="M1214.8984932393996 544.7735775133533 Q1203.6466160703662 526.9166955396997 1185.2302903254792 549.059813566046" stroke="#001b56" stroke-width="3.2503837904078847" fill="none" stroke-linecap="round" opacity="0.6"/><path d="M1214.8984932393996 544.7735775133533 Q1198.9380106724204 521.1576939789207 1164.8420963943138 537.5418104444882" stroke="#001b56" stroke-width="2.6605831288407984" fill="none" stroke-linecap="round" opacity="0.6"/><path d="M1214.8984932393996 544.7735775133533 Q1223.6123088948889 514.7178840251305 1199.5975171117038 524.6621905369077" stroke="#001b56" stroke-width="2.170327003619244" fill="none" stroke-linecap="round" opacity="0.6"/><path d="M1214.8984932393996 544.7735775133533 Q1239.8354831499605 518.0413613755118 1250.6902480269548 531.3091452376702" stroke="#001b56" stroke-width="3.7496946318423596" fill="none" stroke-linecap="round" opacity="0.6"/><rect x="0" y="1000" width="1920" height="80" fill="#002863" opacity="0.8"/><line x1="0" y1="1040" x2="1920" y2="1040" stroke="#f7c59f" stroke-opacity="0.15" stroke-width="2" stroke-dasharray="30,20"/><rect x="0" y="930" width="1920" height="150" fill="url(#glow1)"/><text x="1900" y="1060" font-family="Arial, sans-serif" font-size="11" fill="#fff" opacity="0.08" text-anchor="end" letter-spacing="2">GTA 6 REWARDS · WALLPAPER 002</text>
</svg>