<?xml version="1.0" encoding="UTF-8"?>
<svg xmlns="http://www.w3.org/2000/svg" width="1920" height="1080" viewBox="0 0 1920 1080">
<defs>
    <linearGradient id="bg98" x1="0%" y1="0%" x2="0%" y2="100%">
      <stop offset="0%" stop-color="#03045e"/>
      <stop offset="50%" stop-color="#00002b"/>
      <stop offset="100%" stop-color="#03045e"/>
    </linearGradient>
    <linearGradient id="sun98" x1="0%" y1="0%" x2="100%" y2="100%">
      <stop offset="0%" stop-color="#00f5d4"/>
      <stop offset="100%" stop-color="#00bbf9"/>
    </linearGradient>
    <radialGradient id="glow98" cx="50%" cy="70%" r="50%">
      <stop offset="0%" stop-color="#00f5d4" stop-opacity="0.3"/>
      <stop offset="100%" stop-color="#03045e" stop-opacity="0"/>
    </radialGradient>
  </defs><rect width="1920" height="1080" fill="url(#bg98)"/><circle cx="300.1378890127265" cy="333.58913858737543" r="645.979074865109" fill="#00f5d4" opacity="0.05831388097915656"/><circle cx="500.1378890127265" cy="233.58913858737543" r="506.04848761717983" fill="#00bbf9" opacity="0.10253869471432145"/><circle cx="797.2124248038075" cy="159.83405609378454" r="83.41767062046976" fill="url(#sun98)" opacity="0.8182035702555914"/><circle cx="797.2124248038075" cy="159.83405609378454" r="78.41767062046976" fill="#03045e" opacity="0.3"/><rect x="13.975494954263674" y="596.4751070939179" width="83.85742157088998" height="260.32610632486785" fill="#03045e" opacity="0.45204910755903677" rx="2"/><rect x="52.31860401931186" y="606.4751070939179" width="7.1712034407936045" height="7.047176633273991" fill="#00bbf9" opacity="0.36068892568831545" rx="1"/><rect x="31.354248626589367" y="609.9986954105549" width="7.1712034407936045" height="7.047176633273991" fill="#00f5d4" opacity="0.18034446284415773" rx="1"/><rect x="53.76779575198139" y="649.8627914813959" width="4.272819975454551" height="6.771482853398538" fill="#00bbf9" opacity="0.360900873285928" rx="1"/><rect x="32.80344035925889" y="653.2485329080952" width="4.272819975454551" height="6.771482853398538" fill="#00f5d4" opacity="0.180450436642964" rx="1"/><rect x="51.18555787070318" y="693.2504758688739" width="9.437295738010969" height="8.316155900786667" fill="#00bbf9" opacity="0.5416869850693473" rx="1"/><rect x="30.221202477980686" y="697.4085538192672" width="9.437295738010969" height="8.316155900786667" fill="#00f5d4" opacity="0.27084349253467366" rx="1"/><rect x="49.919601883022025" y="736.6381602563519" width="11.969207713373287" height="6.025832699617798" fill="#00bbf9" opacity="0.16798480010311698" rx="1"/><rect x="28.955246490299526" y="739.6510766061607" width="11.969207713373287" height="6.025832699617798" fill="#00f5d4" opacity="0.08399240005155849" rx="1"/><rect x="53.79233407899559" y="780.0258446438298" width="4.223743321426153" height="7.642849445725523" fill="#00bbf9" opacity="0.44716192152052237" rx="1"/><rect x="32.82797868627309" y="783.8472693666926" width="4.223743321426153" height="7.642849445725523" fill="#00f5d4" opacity="0.22358096076026118" rx="1"/><rect x="53.862897136449554" y="823.4135290313078" width="4.082617206518217" height="6.007532761433985" fill="#00bbf9" opacity="0.5547524307749123" rx="1"/><rect x="32.89854174372706" y="826.4172954120248" width="4.082617206518217" height="6.007532761433985" fill="#00f5d4" opacity="0.27737621538745616" rx="1"/><rect x="123.9267721944318" y="746.5946051982685" width="81.43954192088907" height="110.20660822051731" fill="#000044" opacity="0.5662262909268556" rx="2"/><rect x="160.70818614673524" y="756.5946051982685" width="7.8767140162821665" height="8.65597865326702" fill="#00bbf9" opacity="0.39450080119876674" rx="1"/><rect x="140.34830066651298" y="760.922594524902" width="7.8767140162821665" height="8.65597865326702" fill="#00f5d4" opacity="0.19725040059938337" rx="1"/><rect x="161.90917513633823" y="770.3704312258332" width="5.474736037076156" height="6.249809629342009" fill="#00bbf9" opacity="0.5021113086263909" rx="1"/><rect x="141.54928965611597" y="773.4953360405042" width="5.474736037076156" height="6.249809629342009" fill="#00f5d4" opacity="0.25105565431319543" rx="1"/><rect x="160.98223470523538" y="784.1462572533978" width="7.328616899281884" height="9.089480322573678" fill="#00bbf9" opacity="0.21142687548683653" rx="1"/><rect x="140.62234922501312" y="788.6909974146847" width="7.328616899281884" height="9.089480322573678" fill="#00f5d4" opacity="0.10571343774341826" rx="1"/><rect x="161.43989651101637" y="797.9220832809625" width="6.413293287719901" height="8.440508378306522" fill="#00bbf9" opacity="0.3906179660443724" rx="1"/><rect x="141.0800110307941" y="802.1423374701158" width="6.413293287719901" height="8.440508378306522" fill="#00f5d4" opacity="0.1953089830221862" rx="1"/><rect x="161.32022175852214" y="811.6979093085272" width="6.65264279270839" height="8.563393233940795" fill="#00bbf9" opacity="0.543395724506908" rx="1"/><rect x="140.96033627829988" y="815.9796059254976" width="6.65264279270839" height="8.563393233940795" fill="#00f5d4" opacity="0.271697862253454" rx="1"/><rect x="162.48005555790849" y="825.4737353360917" width="4.332975193935673" height="9.40946140685339" fill="#00bbf9" opacity="0.46440804748898556" rx="1"/><rect x="142.12017007768623" y="830.1784660395184" width="4.332975193935673" height="9.40946140685339" fill="#00f5d4" opacity="0.23220402374449278" rx="1"/><rect x="159.75671979662886" y="839.2495613636564" width="9.779646716494963" height="9.133779059893866" fill="#00bbf9" opacity="0.2905382838310996" rx="1"/><rect x="139.3968343164066" y="843.8164508936034" width="9.779646716494963" height="9.133779059893866" fill="#00f5d4" opacity="0.1452691419155498" rx="1"/><rect x="160.716132945315" y="853.0253873912211" width="7.860820419122656" height="7.646790076430605" fill="#00bbf9" opacity="0.3657765675722101" rx="1"/><rect x="140.35624746509274" y="856.8487824294364" width="7.860820419122656" height="7.646790076430605" fill="#00f5d4" opacity="0.18288828378610505" rx="1"/><rect x="249.57398509131139" y="750.7228658070608" width="79.17971745812793" height="106.07834761172495" fill="#000044" opacity="0.4857513501508514" rx="2"/><rect x="285.18273594141533" y="760.7228658070608" width="7.962215757919991" height="7.40084976176751" fill="#00bbf9" opacity="0.22373448189434933" rx="1"/><rect x="265.38780657688335" y="764.4232906879445" width="7.962215757919991" height="7.40084976176751" fill="#00f5d4" opacity="0.11186724094717466" rx="1"/><rect x="285.7363994989396" y="796.0823150109691" width="6.854888642871494" height="7.707297228674241" fill="#00bbf9" opacity="0.39344683100782496" rx="1"/><rect x="265.9414701344076" y="799.9359636253062" width="6.854888642871494" height="7.707297228674241" fill="#00f5d4" opacity="0.19672341550391248" rx="1"/><rect x="285.4288359480977" y="831.4417642148774" width="7.47001574455528" height="9.069319707124802" fill="#00bbf9" opacity="0.16906851103274817" rx="1"/><rect x="265.6339065835657" y="835.9764240684398" width="7.47001574455528" height="9.069319707124802" fill="#00f5d4" opacity="0.08453425551637408" rx="1"/><rect x="367.9374826461863" y="568.0006598164329" width="73.82921319078403" height="288.8005536023529" fill="#03045e" opacity="0.6196749743119988" rx="2"/><rect x="399.73787161585363" y="578.0006598164329" width="10.228435251449337" height="6.842162180888039" fill="#00bbf9" opacity="0.5221449671131896" rx="1"/><rect x="381.28056831815763" y="581.4217409068768" width="10.228435251449337" height="6.842162180888039" fill="#00f5d4" opacity="0.2610724835565948" rx="1"/><rect x="399.3845077283645" y="635.7607705369035" width="10.935163026427656" height="7.146209485164427" fill="#00bbf9" opacity="0.3018688795393959" rx="1"/><rect x="380.9272044306685" y="639.3338752794857" width="10.935163026427656" height="7.146209485164427" fill="#00f5d4" opacity="0.15093443976969795" rx="1"/><rect x="401.93037969268175" y="693.5208812573741" width="5.843419097793153" height="6.9493039522667654" fill="#00bbf9" opacity="0.18537293763025034" rx="1"/><rect x="383.47307639498575" y="696.9955332335074" width="5.843419097793153" height="6.9493039522667654" fill="#00f5d4" opacity="0.09268646881512517" rx="1"/><rect x="400.3027932325618" y="751.2809919778447" width="9.098592018033049" height="9.2468376884346" fill="#00bbf9" opacity="0.24813353287711123" rx="1"/><rect x="381.8454899348658" y="755.904410822062" width="9.098592018033049" height="9.2468376884346" fill="#00f5d4" opacity="0.12406676643855562" rx="1"/><rect x="399.4645980676787" y="809.0411026983152" width="10.774982347799227" height="6.4001876293682" fill="#00bbf9" opacity="0.22299179405043643" rx="1"/><rect x="381.0072947699827" y="812.2411965129993" width="10.774982347799227" height="6.4001876293682" fill="#00f5d4" opacity="0.11149589702521821" rx="1"/><rect x="478.83535569040924" y="736.0215306715158" width="68.20163729093076" height="120.7796827472699" fill="#000044" opacity="0.6484310735828316" rx="2"/><rect x="509.9059509008438" y="746.0215306715158" width="6.060446870061673" height="9.610283257348994" fill="#00bbf9" opacity="0.5181125276764186" rx="1"/><rect x="492.8555415781111" y="750.8266723001904" width="6.060446870061673" height="9.610283257348994" fill="#00f5d4" opacity="0.2590562638382093" rx="1"/><rect x="507.0296420138398" y="786.2814249206058" width="11.813064644069659" height="8.600431770691749" fill="#00bbf9" opacity="0.2233958151711607" rx="1"/><rect x="489.97923269110714" y="790.5816408059517" width="11.813064644069659" height="8.600431770691749" fill="#00f5d4" opacity="0.11169790758558035" rx="1"/><rect x="510.5236915767946" y="826.5413191696957" width="4.824965518160017" height="6.4951079554145945" fill="#00bbf9" opacity="0.2515951211684372" rx="1"/><rect x="493.4732822540619" y="829.788873147403" width="4.824965518160017" height="6.4951079554145945" fill="#00f5d4" opacity="0.1257975605842186" rx="1"/><rect x="587.4307478935065" y="564.9777520017182" width="84.13764539969564" height="291.8234614170676" fill="#000044" opacity="0.6395923670939152" rx="2"/><rect x="626.3164935566757" y="574.9777520017182" width="6.366154073357152" height="6.625116354000083" fill="#00bbf9" opacity="0.5742769540693324" rx="1"/><rect x="605.2820822067517" y="578.2903101787182" width="6.366154073357152" height="6.625116354000083" fill="#00f5d4" opacity="0.2871384770346662" rx="1"/><rect x="624.1468539473478" y="647.933617355985" width="10.705433292012994" height="9.767714575810292" fill="#00bbf9" opacity="0.25802456942806595" rx="1"/><rect x="603.1124425974239" y="652.8174746438901" width="10.705433292012994" height="9.767714575810292" fill="#00f5d4" opacity="0.12901228471403298" rx="1"/><rect x="625.6729049390818" y="720.889482710252" width="7.6533313085449235" height="8.590939153589062" fill="#00bbf9" opacity="0.33099558130628326" rx="1"/><rect x="604.6384935891579" y="725.1849522870465" width="7.6533313085449235" height="8.590939153589062" fill="#00f5d4" opacity="0.16549779065314163" rx="1"/><rect x="624.6323221972289" y="793.8453480645189" width="9.734496792250894" height="9.398160680057053" fill="#00bbf9" opacity="0.4661033307123239" rx="1"/><rect x="603.5979108473049" y="798.5444284045475" width="9.734496792250894" height="9.398160680057053" fill="#00f5d4" opacity="0.23305166535616195" rx="1"/><rect x="697.9113394482787" y="581.8761472664485" width="86.24623152339976" height="274.92506615233725" fill="#000044" opacity="0.5223314825264578" rx="2"/><rect x="738.1799119504122" y="591.8761472664485" width="5.709086519132621" height="9.639648238113068" fill="#00bbf9" opacity="0.19386379530044828" rx="1"/><rect x="716.6183540695623" y="596.695971385505" width="5.709086519132621" height="9.639648238113068" fill="#00f5d4" opacity="0.09693189765022414" rx="1"/><rect x="738.313065858398" y="660.6074138045328" width="5.442778703161231" height="8.854123844498332" fill="#00bbf9" opacity="0.45772689370385533" rx="1"/><rect x="716.751507977548" y="665.034475726782" width="5.442778703161231" height="8.854123844498332" fill="#00f5d4" opacity="0.22886344685192767" rx="1"/><rect x="735.2839267878524" y="729.3386803426171" width="11.501056844252407" height="9.128896732611791" fill="#00bbf9" opacity="0.16061634364552246" rx="1"/><rect x="713.7223689070024" y="733.903128708923" width="11.501056844252407" height="9.128896732611791" fill="#00f5d4" opacity="0.08030817182276123" rx="1"/><rect x="738.6861620339766" y="798.0699468807014" width="4.696586352003875" height="7.327969067107879" fill="#00bbf9" opacity="0.29831962608693163" rx="1"/><rect x="717.1246041531267" y="801.7339314142554" width="4.696586352003875" height="7.327969067107879" fill="#00f5d4" opacity="0.14915981304346582" rx="1"/><rect x="819.8713650693817" y="625.6354383834721" width="48.10320350297336" height="231.16577503531374" fill="#000044" opacity="0.5864292323092067" rx="2"/><rect x="840.0018024288587" y="635.6354383834721" width="7.842328784019298" height="6.936076864818129" fill="#00bbf9" opacity="0.43723521461645964" rx="1"/><rect x="827.9760015531153" y="639.1034768158812" width="7.842328784019298" height="6.936076864818129" fill="#00f5d4" opacity="0.21861760730822982" rx="1"/><rect x="840.5774177744931" y="712.6906967285767" width="6.691098092750436" height="7.0892359346824785" fill="#00bbf9" opacity="0.33458542703524824" rx="1"/><rect x="828.5516168987498" y="716.2353146959179" width="6.691098092750436" height="7.0892359346824785" fill="#00f5d4" opacity="0.16729271351762412" rx="1"/><rect x="838.300478427508" y="789.7459550736812" width="11.244976786720795" height="8.610214811426172" fill="#00bbf9" opacity="0.5730907013809985" rx="1"/><rect x="826.2746775517646" y="794.0510624793943" width="11.244976786720795" height="8.610214811426172" fill="#00f5d4" opacity="0.28654535069049925" rx="1"/><rect x="911.1100823108828" y="510.5921871169918" width="44.47221964003337" height="346.209026301794" fill="#000044" opacity="0.5180444049690953" rx="2"/><rect x="930.7769378870206" y="520.5921871169918" width="5.138508487757879" height="8.411472697372425" fill="#00bbf9" opacity="0.13782417952032391" rx="1"/><rect x="919.6588829770122" y="524.797923465678" width="5.138508487757879" height="8.411472697372425" fill="#00f5d4" opacity="0.06891208976016196" rx="1"/><rect x="931.280073178066" y="570.0506194458195" width="4.1322379056672185" height="9.38121240199106" fill="#00bbf9" opacity="0.2372715038334186" rx="1"/><rect x="920.1620182680576" y="574.741225646815" width="4.1322379056672185" height="9.38121240199106" fill="#00f5d4" opacity="0.1186357519167093" rx="1"/><rect x="927.6292588833322" y="619.5090517746472" width="11.433866495134744" height="7.930730831327553" fill="#00bbf9" opacity="0.13311468929357703" rx="1"/><rect x="916.5112039733239" y="623.474417190311" width="11.433866495134744" height="7.930730831327553" fill="#00f5d4" opacity="0.06655734464678852" rx="1"/><rect x="930.3438835077322" y="668.9674841034749" width="6.004617246334584" height="7.4771575307187526" fill="#00bbf9" opacity="0.24960099294539564" rx="1"/><rect x="919.2258285977239" y="672.7060628688344" width="6.004617246334584" height="7.4771575307187526" fill="#00f5d4" opacity="0.12480049647269782" rx="1"/><rect x="928.6706570018248" y="718.4259164323026" width="9.351070258149662" height="9.173841560067107" fill="#00bbf9" opacity="0.19125188658741582" rx="1"/><rect x="917.5526020918164" y="723.0128372123362" width="9.351070258149662" height="9.173841560067107" fill="#00f5d4" opacity="0.09562594329370791" rx="1"/><rect x="927.4660776388986" y="767.8843487611304" width="11.760228984002076" height="8.778821798688458" fill="#00bbf9" opacity="0.5428294265975313" rx="1"/><rect x="916.3480227288902" y="772.2737596604746" width="11.760228984002076" height="8.778821798688458" fill="#00f5d4" opacity="0.27141471329876565" rx="1"/><rect x="927.7686789130719" y="817.3427810899581" width="11.155026435655316" height="6.7634776180525025" fill="#00bbf9" opacity="0.36796889136730904" rx="1"/><rect x="916.6506240030635" y="820.7245198989843" width="11.155026435655316" height="6.7634776180525025" fill="#00f5d4" opacity="0.18398444568365452" rx="1"/><rect x="1042.3520199424477" y="497.4961678375248" width="70.8119783040164" height="359.30504558126097" fill="#000044" opacity="0.5855799349224149" rx="2"/><rect x="1075.2774437736437" y="507.4961678375248" width="4.961130641624595" height="6.975082043785388" fill="#00bbf9" opacity="0.3571597917138505" rx="1"/><rect x="1057.5744491976395" y="510.9837088594175" width="4.961130641624595" height="6.975082043785388" fill="#00f5d4" opacity="0.17857989585692524" rx="1"/><rect x="1072.632997515526" y="552.4092985351824" width="10.250023157859692" height="9.580242072134336" fill="#00bbf9" opacity="0.5837524979337474" rx="1"/><rect x="1054.930002939522" y="557.1994195712496" width="10.250023157859692" height="9.580242072134336" fill="#00f5d4" opacity="0.2918762489668737" rx="1"/><rect x="1074.7924266247528" y="597.32242923284" width="5.931164939406133" height="6.500074831885303" fill="#00bbf9" opacity="0.4358596730595128" rx="1"/><rect x="1057.0894320487487" y="600.5724666487827" width="5.931164939406133" height="6.500074831885303" fill="#00f5d4" opacity="0.2179298365297564" rx="1"/><rect x="1074.1539724946847" y="642.2355599304976" width="7.208073199542256" height="8.558264415375485" fill="#00bbf9" opacity="0.18578971624043533" rx="1"/><rect x="1056.4509779186806" y="646.5146921381854" width="7.208073199542256" height="8.558264415375485" fill="#00f5d4" opacity="0.09289485812021767" rx="1"/><rect x="1073.9344149420353" y="687.1486906281552" width="7.647188304841329" height="8.638483035992477" fill="#00bbf9" opacity="0.5516292660151676" rx="1"/><rect x="1056.2314203660312" y="691.4679321461515" width="7.647188304841329" height="8.638483035992477" fill="#00f5d4" opacity="0.2758146330075838" rx="1"/><rect x="1075.2424343783043" y="732.0618213258128" width="5.031149432303186" height="8.929626787763468" fill="#00bbf9" opacity="0.4066796938205789" rx="1"/><rect x="1057.5394398023002" y="736.5266347196946" width="5.031149432303186" height="8.929626787763468" fill="#00f5d4" opacity="0.20333984691028945" rx="1"/><rect x="1075.207245679155" y="776.9749520234706" width="5.101526830601862" height="8.205839481718336" fill="#00bbf9" opacity="0.19754303251335936" rx="1"/><rect x="1057.5042511031509" y="781.0778717643298" width="5.101526830601862" height="8.205839481718336" fill="#00f5d4" opacity="0.09877151625667968" rx="1"/><rect x="1071.7831283106432" y="821.8880827211282" width="11.949761567625627" height="6.871543619053332" fill="#00bbf9" opacity="0.3068965404077658" rx="1"/><rect x="1054.080133734639" y="825.3238545306548" width="11.949761567625627" height="6.871543619053332" fill="#00f5d4" opacity="0.1534482702038829" rx="1"/><rect x="1144.4778011144322" y="685.6393955498095" width="77.33892850283043" height="171.16181786897636" fill="#000044" opacity="0.41895547677272826" rx="2"/><rect x="1180.0291713599652" y="695.6393955498095" width="6.236188011764593" height="8.610848764565505" fill="#00bbf9" opacity="0.35470561900984166" rx="1"/><rect x="1160.6944392342575" y="699.9448199320923" width="6.236188011764593" height="8.610848764565505" fill="#00f5d4" opacity="0.17735280950492083" rx="1"/><rect x="1178.7155032660153" y="717.0346227834315" width="8.863524199664482" height="8.497876868233522" fill="#00bbf9" opacity="0.27898991510248505" rx="1"/><rect x="1159.3807711403076" y="721.2835612175483" width="8.863524199664482" height="8.497876868233522" fill="#00f5d4" opacity="0.13949495755124253" rx="1"/><rect x="1178.209477442133" y="738.4298500170536" width="9.875575847429126" height="9.188125579428888" fill="#00bbf9" opacity="0.4034327503534576" rx="1"/><rect x="1158.8747453164253" y="743.0239128067681" width="9.875575847429126" height="9.188125579428888" fill="#00f5d4" opacity="0.2017163751767288" rx="1"/><rect x="1178.1990757154301" y="759.8250772506756" width="9.896379300834699" height="8.37674864530022" fill="#00bbf9" opacity="0.5552404401952495" rx="1"/><rect x="1158.8643435897225" y="764.0134515733257" width="9.896379300834699" height="8.37674864530022" fill="#00f5d4" opacity="0.27762022009762477" rx="1"/><rect x="1179.6358197602995" y="781.2203044842977" width="7.022891211095939" height="6.385071341038" fill="#00bbf9" opacity="0.1276589929190602" rx="1"/><rect x="1160.3010876345918" y="784.4128401548166" width="7.022891211095939" height="6.385071341038" fill="#00f5d4" opacity="0.0638294964595301" rx="1"/><rect x="1179.0003071902324" y="802.6155317179197" width="8.29391635123033" height="8.4129288500205" fill="#00bbf9" opacity="0.5913822176147676" rx="1"/><rect x="1159.6655750645248" y="806.82199614293" width="8.29391635123033" height="8.4129288500205" fill="#00f5d4" opacity="0.2956911088073838" rx="1"/><rect x="1179.9488021826721" y="824.0107589515417" width="6.396926366350829" height="6.045592398393339" fill="#00bbf9" opacity="0.2474661385052526" rx="1"/><rect x="1160.6140700569645" y="827.0335551507384" width="6.396926366350829" height="6.045592398393339" fill="#00f5d4" opacity="0.1237330692526263" rx="1"/><rect x="1180.9237434291106" y="845.4059861851638" width="4.447043873473779" height="6.915979349267664" fill="#00bbf9" opacity="0.4826403142611124" rx="1"/><rect x="1161.589011303403" y="848.8639758597976" width="4.447043873473779" height="6.915979349267664" fill="#00f5d4" opacity="0.2413201571305562" rx="1"/><rect x="1264.5328759389308" y="495.00158381299156" width="56.75400142715173" height="361.7996296057942" fill="#03045e" opacity="0.6412864936146155" rx="2"/><rect x="1290.860566323125" y="505.00158381299156" width="4.098620658763363" height="7.773457219305787" fill="#00bbf9" opacity="0.5065822714256547" rx="1"/><rect x="1276.6720659663372" y="508.88831242264445" width="4.098620658763363" height="7.773457219305787" fill="#00f5d4" opacity="0.25329113571282735" rx="1"/><rect x="1290.6995778395096" y="550.2265375137158" width="4.4205976259942625" height="9.908361784161153" fill="#00bbf9" opacity="0.36401032979227843" rx="1"/><rect x="1276.5110774827217" y="555.1807184057964" width="4.4205976259942625" height="9.908361784161153" fill="#00f5d4" opacity="0.18200516489613922" rx="1"/><rect x="1289.970647544826" y="595.4514912144401" width="5.878458215361102" height="8.011426665357181" fill="#00bbf9" opacity="0.21183324225988082" rx="1"/><rect x="1275.7821471880382" y="599.4572045471187" width="5.878458215361102" height="8.011426665357181" fill="#00f5d4" opacity="0.10591662112994041" rx="1"/><rect x="1289.9544243730966" y="640.6764449151644" width="5.910904558820395" height="8.887161481866418" fill="#00bbf9" opacity="0.4805926721265057" rx="1"/><rect x="1275.7659240163086" y="645.1200256560976" width="5.910904558820395" height="8.887161481866418" fill="#00f5d4" opacity="0.24029633606325285" rx="1"/><rect x="1288.891959910256" y="685.9013986158886" width="8.03583348450154" height="7.068107808257478" fill="#00bbf9" opacity="0.3828078988899495" rx="1"/><rect x="1274.703459553468" y="689.4354525200174" width="8.03583348450154" height="7.068107808257478" fill="#00f5d4" opacity="0.19140394944497474" rx="1"/><rect x="1288.579781047902" y="731.126352316613" width="8.660191209209195" height="6.239900329206115" fill="#00bbf9" opacity="0.18198018059646248" rx="1"/><rect x="1274.3912806911142" y="734.246302481216" width="8.660191209209195" height="6.239900329206115" fill="#00f5d4" opacity="0.09099009029823124" rx="1"/><rect x="1288.3251657968679" y="776.3513060173373" width="9.169421711277547" height="7.125457450078208" fill="#00bbf9" opacity="0.2392822512749774" rx="1"/><rect x="1274.13666544008" y="779.9140347423763" width="9.169421711277547" height="7.125457450078208" fill="#00f5d4" opacity="0.1196411256374887" rx="1"/><rect x="1288.5935343810343" y="821.5762597180615" width="8.632684542944814" height="9.046074355730338" fill="#00bbf9" opacity="0.19279703385960242" rx="1"/><rect x="1274.4050340242463" y="826.0992968959266" width="8.632684542944814" height="9.046074355730338" fill="#00f5d4" opacity="0.09639851692980121" rx="1"/><rect x="1360.0392826763075" y="738.7228803915724" width="69.85657094043134" height="118.07833302721342" fill="#000044" opacity="0.6876261297351742" rx="2"/><rect x="1390.470035427127" y="748.7228803915724" width="8.995065438792823" height="9.905151072867483" fill="#00bbf9" opacity="0.18785469401345" rx="1"/><rect x="1373.005892692019" y="753.6754559280062" width="8.995065438792823" height="9.905151072867483" fill="#00f5d4" opacity="0.093927347006725" rx="1"/><rect x="1389.8028868825184" y="772.3385469970151" width="10.329362528009657" height="9.444183610250285" fill="#00bbf9" opacity="0.49648097623057685" rx="1"/><rect x="1372.3387441474104" y="777.0606388021403" width="10.329362528009657" height="9.444183610250285" fill="#00f5d4" opacity="0.24824048811528843" rx="1"/><rect x="1392.5067527726078" y="795.9542136024578" width="4.921630747830875" height="6.679671400384901" fill="#00bbf9" opacity="0.5071598168013524" rx="1"/><rect x="1375.0426100374998" y="799.2940493026503" width="4.921630747830875" height="6.679671400384901" fill="#00f5d4" opacity="0.2535799084006762" rx="1"/><rect x="1391.6910290505487" y="819.5698802079005" width="6.5530781919493055" height="7.77997229848522" fill="#00bbf9" opacity="0.5234127434723574" rx="1"/><rect x="1374.2268863154407" y="823.4598663571431" width="6.5530781919493055" height="7.77997229848522" fill="#00f5d4" opacity="0.2617063717361787" rx="1"/><rect x="1391.669955013476" y="843.1855468133431" width="6.595226266094303" height="6.856345150819129" fill="#00bbf9" opacity="0.2000210190191914" rx="1"/><rect x="1374.205812278368" y="846.6137193887527" width="6.595226266094303" height="6.856345150819129" fill="#00f5d4" opacity="0.1000105095095957" rx="1"/><rect x="1489.725245006784" y="594.204172362621" width="86.98593201976874" height="262.5970410561648" fill="#03045e" opacity="0.44041000170177086" rx="2"/><rect x="1529.930879981008" y="604.204172362621" width="6.574662071320848" height="7.866270917902298" fill="#00bbf9" opacity="0.3693169216553953" rx="1"/><rect x="1508.1843969760657" y="608.1373078215721" width="6.574662071320848" height="7.866270917902298" fill="#00f5d4" opacity="0.18465846082769766" rx="1"/><rect x="1528.1559466573306" y="641.7180353706445" width="10.12452871867561" height="8.398340461402745" fill="#00bbf9" opacity="0.13208349843790837" rx="1"/><rect x="1506.4094636523882" y="645.9172056013459" width="10.12452871867561" height="8.398340461402745" fill="#00f5d4" opacity="0.06604174921895418" rx="1"/><rect x="1528.690035070686" y="679.231898378668" width="9.056351891964756" height="7.4037918991883735" fill="#00bbf9" opacity="0.47226601733646034" rx="1"/><rect x="1506.9435520657437" y="682.9337943282621" width="9.056351891964756" height="7.4037918991883735" fill="#00f5d4" opacity="0.23613300866823017" rx="1"/><rect x="1529.64075180484" y="716.7457613866916" width="7.154918423657054" height="9.535371928367617" fill="#00bbf9" opacity="0.592527011430945" rx="1"/><rect x="1507.8942687998976" y="721.5134473508754" width="7.154918423657054" height="9.535371928367617" fill="#00f5d4" opacity="0.2962635057154725" rx="1"/><rect x="1530.9712394261664" y="754.2596243947152" width="4.493943181003896" height="7.588634140228069" fill="#00bbf9" opacity="0.3241023500040412" rx="1"/><rect x="1509.2247564212241" y="758.0539414648292" width="4.493943181003896" height="7.588634140228069" fill="#00f5d4" opacity="0.1620511750020206" rx="1"/><rect x="1527.4331020592788" y="791.7734874027387" width="11.570217914779256" height="8.460182792148595" fill="#00bbf9" opacity="0.44331054958591953" rx="1"/><rect x="1505.6866190543365" y="796.003578798813" width="11.570217914779256" height="8.460182792148595" fill="#00f5d4" opacity="0.22165527479295977" rx="1"/><rect x="1527.3683954040446" y="829.2873504107622" width="11.699631225247781" height="9.8052776585811" fill="#00bbf9" opacity="0.5624128930648818" rx="1"/><rect x="1505.6219123991023" y="834.1899892400528" width="11.699631225247781" height="9.8052776585811" fill="#00f5d4" opacity="0.2812064465324409" rx="1"/><rect x="1594.3186691599708" y="721.4113593500599" width="77.55594026473256" height="135.3898540687258" fill="#03045e" opacity="0.6279265036172994" rx="2"/><rect x="1627.3783629323304" y="731.4113593500599" width="11.436552720013204" height="6.621178404572694" fill="#00bbf9" opacity="0.4478651415435283" rx="1"/><rect x="1607.9893778661472" y="734.7219485523462" width="11.436552720013204" height="6.621178404572694" fill="#00f5d4" opacity="0.22393257077176415" rx="1"/><rect x="1628.695599530287" y="765.2588228672414" width="8.80207952410031" height="7.867566594357502" fill="#00bbf9" opacity="0.3132924991225108" rx="1"/><rect x="1609.3066144641036" y="769.1926061644201" width="8.80207952410031" height="7.867566594357502" fill="#00f5d4" opacity="0.1566462495612554" rx="1"/><rect x="1627.5257231324272" y="799.1062863844228" width="11.141832319819795" height="6.58112948494524" fill="#00bbf9" opacity="0.28080047580432155" rx="1"/><rect x="1608.1367380662439" y="802.3968511268954" width="11.141832319819795" height="6.58112948494524" fill="#00f5d4" opacity="0.14040023790216077" rx="1"/><rect x="1628.089853229255" y="832.9537499016043" width="10.013572126164467" height="6.309600738880597" fill="#00bbf9" opacity="0.5101681904658135" rx="1"/><rect x="1608.7008681630716" y="836.1085502710446" width="10.013572126164467" height="6.309600738880597" fill="#00f5d4" opacity="0.25508409523290676" rx="1"/><rect x="1706.0599887641285" y="520.8716614569704" width="51.074270322237695" height="335.9295519618154" fill="#03045e" opacity="0.6290439919403391" rx="2"/><rect x="1727.851857136202" y="530.8716614569704" width="7.490533578090959" height="8.686467728271724" fill="#00bbf9" opacity="0.2869333691864585" rx="1"/><rect x="1715.0832895556425" y="535.2148953211063" width="7.490533578090959" height="8.686467728271724" fill="#00f5d4" opacity="0.14346668459322925" rx="1"/><rect x="1728.476446140901" y="598.0575718493335" width="6.241355568692404" height="8.696896276133344" fill="#00bbf9" opacity="0.5947430209710131" rx="1"/><rect x="1715.7078785603417" y="602.4060199874002" width="6.241355568692404" height="8.696896276133344" fill="#00f5d4" opacity="0.29737151048550653" rx="1"/><rect x="1727.494633202556" y="665.2434822416965" width="8.204981445382579" height="8.620393328047449" fill="#00bbf9" opacity="0.13581245535421477" rx="1"/><rect x="1714.7260656219967" y="669.5536789057202" width="8.204981445382579" height="8.620393328047449" fill="#00f5d4" opacity="0.06790622767710738" rx="1"/><rect x="1727.481373420097" y="732.4293926340596" width="8.231501010300477" height="7.56528105716344" fill="#00bbf9" opacity="0.23826237610500828" rx="1"/><rect x="1714.7128058395376" y="736.2120331626413" width="8.231501010300477" height="7.56528105716344" fill="#00f5d4" opacity="0.11913118805250414" rx="1"/><rect x="1729.3327621003455" y="799.6153030264227" width="4.528723649803718" height="8.402881442197337" fill="#00bbf9" opacity="0.2575001649692422" rx="1"/><rect x="1716.564194519786" y="803.8167437475214" width="4.528723649803718" height="8.402881442197337" fill="#00f5d4" opacity="0.1287500824846211" rx="1"/><rect x="1815.6341730793085" y="565.888031296406" width="45.901940589747845" height="290.9131821223798" fill="#03045e" opacity="0.645453236448917" rx="2"/><rect x="1835.3501758329453" y="575.888031296406" width="6.469935082474242" height="8.610373665255116" fill="#00bbf9" opacity="0.3034670517787959" rx="1"/><rect x="1823.8746906855083" y="580.1932181290335" width="6.469935082474242" height="8.610373665255116" fill="#00f5d4" opacity="0.15173352588939795" rx="1"/><rect x="1833.5123999399395" y="624.3735616501359" width="10.145486868486156" height="7.162019849094101" fill="#00bbf9" opacity="0.16582685037651723" rx="1"/><rect x="1822.0369147925026" y="627.954571574683" width="10.145486868486156" height="7.162019849094101" fill="#00f5d4" opacity="0.08291342518825862" rx="1"/><rect x="1833.0650586551205" y="672.859092003866" width="11.040169438123742" height="8.307717011847467" fill="#00bbf9" opacity="0.5187593911585303" rx="1"/><rect x="1821.5895735076836" y="677.0129505097897" width="11.040169438123742" height="8.307717011847467" fill="#00f5d4" opacity="0.25937969557926516" rx="1"/><rect x="1834.4235736172236" y="721.3446223575959" width="8.323139513917997" height="9.12731810080058" fill="#00bbf9" opacity="0.12384384093429983" rx="1"/><rect x="1822.9480884697866" y="725.9082814079961" width="8.323139513917997" height="9.12731810080058" fill="#00f5d4" opacity="0.061921920467149914" rx="1"/><rect x="1832.9946419885368" y="769.8301527113258" width="11.181002771291183" height="9.635341799733077" fill="#00bbf9" opacity="0.3857208629804013" rx="1"/><rect x="1821.5191568410999" y="774.6478236111924" width="11.181002771291183" height="9.635341799733077" fill="#00f5d4" opacity="0.19286043149020066" rx="1"/><rect x="1835.2878938695155" y="818.3156830650557" width="6.5944990093341325" height="9.0383808340501" fill="#00bbf9" opacity="0.3302598076011659" rx="1"/><rect x="1823.8124087220785" y="822.8348734820808" width="6.5944990093341325" height="9.0383808340501" fill="#00f5d4" opacity="0.16512990380058296" rx="1"/><path d="M430.7022939135093 931.1419152727216 Q443.00974602415454 828.4256367544704 445.4712364462836 725.7093582362191" stroke="#000011" stroke-width="5.936396579708997" fill="none" stroke-linecap="round"/><path d="M445.4712364462836 725.7093582362191 Q467.2297800081386 705.7093582362191 485.6740534621464 725.7093582362191" stroke="#00002b" stroke-width="2.5121151908561856" fill="none" stroke-linecap="round" opacity="0.6"/><path d="M445.4712364462836 725.7093582362191 Q478.9940037924643 713.9355716055053 489.2058114681127 742.1617849747914" stroke="#00002b" stroke-width="3.582322053048369" fill="none" stroke-linecap="round" opacity="0.6"/><path d="M445.4712364462836 725.7093582362191 Q447.68828019408 711.7507287704918 436.278547107479 737.7920993047646" stroke="#00002b" stroke-width="3.758084582108558" fill="none" stroke-linecap="round" opacity="0.6"/><path d="M445.4712364462836 725.7093582362191 Q432.2267434610049 708.4800159938885 407.1157023370866 731.2506737515579" stroke="#00002b" stroke-width="3.762509014402169" fill="none" stroke-linecap="round" opacity="0.6"/><path d="M445.4712364462836 725.7093582362191 Q420.32849619888043 701.968571207855 393.6857410834944 718.2277841794909" stroke="#00002b" stroke-width="2.3838375374637164" fill="none" stroke-linecap="round" opacity="0.6"/><path d="M445.4712364462836 725.7093582362191 Q459.15690551568787 701.2912567507367 438.74855089125157 716.8731552652541" stroke="#00002b" stroke-width="2.685910556159427" fill="none" stroke-linecap="round" opacity="0.6"/><path d="M1052.050350553368 935.2154201444274 Q1070.328472082114 820.9530574318378 1073.9840963878632 706.6906947192481" stroke="#000011" stroke-width="5.492460172039564" fill="none" stroke-linecap="round"/><path d="M1073.9840963878632 706.6906947192481 Q1100.3364190555494 686.6906947192481 1119.567336725436 706.6906947192481" stroke="#00002b" stroke-width="3.968020052175974" fill="none" stroke-linecap="round" opacity="0.6"/><path d="M1073.9840963878632 706.6906947192481 Q1107.5418558175452 695.7433358040686 1122.1123654828493 724.7959768888891" stroke="#00002b" stroke-width="2.270100998289441" fill="none" stroke-linecap="round" opacity="0.6"/><path d="M1073.9840963878632 706.6906947192481 Q1081.6464909633248 692.0631397288987 1065.8092596213787 717.4355847385493" stroke="#00002b" stroke-width="3.4149626869277476" fill="none" stroke-linecap="round" opacity="0.6"/><path d="M1073.9840963878632 706.6906947192481 Q1060.6319064463369 689.0785873281786 1040.9273624201214 711.4664799371093" stroke="#00002b" stroke-width="3.6439358423566297" fill="none" stroke-linecap="round" opacity="0.6"/><path d="M1073.9840963878632 706.6906947192481 Q1051.375026099747 683.110201338568 1024.4176222860783 699.529707957888" stroke="#00002b" stroke-width="2.44638847663216" fill="none" stroke-linecap="round" opacity="0.6"/><path d="M1073.9840963878632 706.6906947192481 Q1081.5799763096265 676.9617429804583 1059.1802980742934 687.2327912416686" stroke="#00002b" stroke-width="2.3147958787891074" fill="none" stroke-linecap="round" opacity="0.6"/><path d="M590.1271919790021 967.2734764095567 Q575.8146335361095 878.8110865347113 572.9521218475309 790.3486966598659" stroke="#000011" stroke-width="6.510981876056404" fill="none" stroke-linecap="round"/><path d="M572.9521218475309 790.3486966598659 Q615.9761226787176 770.3486966598659 634.5358565613944 790.3486966598659" stroke="#00002b" stroke-width="2.717769719827401" fill="none" stroke-linecap="round" opacity="0.6"/><path d="M572.9521218475309 790.3486966598659 Q598.924918443955 776.8742431577705 607.6451197141555 803.3997896556751" stroke="#00002b" stroke-width="3.1107013130352605" fill="none" stroke-linecap="round" opacity="0.6"/><path d="M572.9521218475309 790.3486966598659 Q576.8070024638961 780.5318007942631 557.4572747294542 810.7149049286602" stroke="#00002b" stroke-width="3.5235540297635723" fill="none" stroke-linecap="round" opacity="0.6"/><path d="M572.9521218475309 790.3486966598659 Q547.6593741749737 775.3479030367984 503.7457284636573 800.3471094137308" stroke="#00002b" stroke-width="3.3894752546654723" fill="none" stroke-linecap="round" opacity="0.6"/><path d="M572.9521218475309 790.3486966598659 Q547.7790440215042 766.3417788228176 517.4824510279424 782.3348609857692" stroke="#00002b" stroke-width="2.638390196170283" fill="none" stroke-linecap="round" opacity="0.6"/><path d="M572.9521218475309 790.3486966598659 Q578.7394230360846 761.1998487911005 559.0310230193046 772.0510009223351" stroke="#00002b" stroke-width="3.536237888861503" fill="none" stroke-linecap="round" opacity="0.6"/><path d="M1592.4341296386986 923.167958814457 Q1593.5841263582895 802.0280499656285 1593.8141257022075 680.8881411167998" stroke="#000011" stroke-width="6.205786228693507" fill="none" stroke-linecap="round"/><path d="M1593.8141257022075 680.8881411167998 Q1633.6860771858335 660.8881411167998 1658.829967481743 680.8881411167998" stroke="#00002b" stroke-width="3.6607602968953454" fill="none" stroke-linecap="round" opacity="0.6"/><path d="M1593.8141257022075 680.8881411167998 Q1617.2464188510219 668.2940499652551 1633.1875605497532 695.6999588137104" stroke="#00002b" stroke-width="2.826929846971047" fill="none" stroke-linecap="round" opacity="0.6"/><path d="M1593.8141257022075 680.8881411167998 Q1598.1940980308595 666.9121504197091 1584.647853615177 692.9361597226183" stroke="#00002b" stroke-width="3.645117420154884" fill="none" stroke-linecap="round" opacity="0.6"/><path d="M1593.8141257022075 680.8881411167998 Q1579.0858517060788 664.6260212214336 1542.0688722682478 688.3639013260673" stroke="#00002b" stroke-width="2.9494367602629206" fill="none" stroke-linecap="round" opacity="0.6"/><path d="M1593.8141257022075 680.8881411167998 Q1592.903489453826 658.6211893998307 1562.431634066988 676.3542376828615" stroke="#00002b" stroke-width="2.1334241293681377" fill="none" stroke-linecap="round" opacity="0.6"/><path d="M1470.992701992158 862.8787709313629 Q1482.3547922592504 810.6519746560725 1484.627210312669 758.4251783807821" stroke="#000011" stroke-width="7.946123035612079" fill="none" stroke-linecap="round"/><path d="M1484.627210312669 758.4251783807821 Q1530.9987843481356 738.4251783807821 1548.255852635078 758.4251783807821" stroke="#00002b" stroke-width="3.384844929302308" fill="none" stroke-linecap="round" opacity="0.6"/><path d="M1484.627210312669 758.4251783807821 Q1502.3535880204497 745.0801566372306 1520.0083307333937 771.7351348936792" stroke="#00002b" stroke-width="3.7139471391481225" fill="none" stroke-linecap="round" opacity="0.6"/><path d="M1484.627210312669 758.4251783807821 Q1488.3517990247838 747.6904966060731 1470.5288874921969 776.955814831364" stroke="#00002b" stroke-width="2.587248924790707" fill="none" stroke-linecap="round" opacity="0.6"/><path d="M1484.627210312669 758.4251783807821 Q1456.614225124329 743.0005140013727 1421.2886615616294 767.5758496219632" stroke="#00002b" stroke-width="3.628565108317082" fill="none" stroke-linecap="round" opacity="0.6"/><path d="M1484.627210312669 758.4251783807821 Q1480.975404606759 735.2486473843833 1440.6529797733522 752.0721163879844" stroke="#00002b" stroke-width="2.307699218464014" fill="none" stroke-linecap="round" opacity="0.6"/><path d="M1484.627210312669 758.4251783807821 Q1495.8572913477456 728.8056789690629 1469.9899571951705 739.1861795573438" stroke="#00002b" stroke-width="2.5394494721059337" fill="none" stroke-linecap="round" opacity="0.6"/><rect x="0" y="1000" width="1920" height="80" fill="#000038" opacity="0.8"/><line x1="0" y1="1040" x2="1920" y2="1040" stroke="#00bbf9" stroke-opacity="0.15" stroke-width="2" stroke-dasharray="30,20"/><rect x="0" y="930" width="1920" height="150" fill="url(#glow98)"/><text x="1900" y="1060" font-family="Arial, sans-serif" font-size="11" fill="#fff" opacity="0.08" text-anchor="end" letter-spacing="2">GTA 6 REWARDS · WALLPAPER 099</text>
</svg>