<?xml version="1.0" encoding="UTF-8"?>
<svg xmlns="http://www.w3.org/2000/svg" width="1920" height="1080" viewBox="0 0 1920 1080">
<defs>
    <linearGradient id="bg99" x1="0%" y1="0%" x2="0%" y2="100%">
      <stop offset="0%" stop-color="#00bbf9"/>
      <stop offset="50%" stop-color="#0088c6"/>
      <stop offset="100%" stop-color="#00bbf9"/>
    </linearGradient>
    <linearGradient id="sun99" x1="0%" y1="0%" x2="100%" y2="100%">
      <stop offset="0%" stop-color="#f15bb5"/>
      <stop offset="100%" stop-color="#fee440"/>
    </linearGradient>
    <radialGradient id="glow99" cx="50%" cy="70%" r="50%">
      <stop offset="0%" stop-color="#f15bb5" stop-opacity="0.3"/>
      <stop offset="100%" stop-color="#00bbf9" stop-opacity="0"/>
    </radialGradient>
  </defs><rect width="1920" height="1080" fill="url(#bg99)"/><circle cx="1265.7873188531462" cy="416.3486140352554" r="807.0730277819264" fill="#f15bb5" opacity="0.05011387083216428"/><circle cx="1465.7873188531462" cy="316.3486140352554" r="563.5086175900672" fill="#fee440" opacity="0.05090806771090908"/><line x1="0" y1="980" x2="1920" y2="980" stroke="#fee440" stroke-opacity="0.05" stroke-width="2"/><line x1="0" y1="935" x2="1920" y2="935" stroke="#fee440" stroke-opacity="0.049" stroke-width="0.5"/><line x1="0" y1="890" x2="1920" y2="890" stroke="#fee440" stroke-opacity="0.048" stroke-width="0.5"/><line x1="0" y1="845" x2="1920" y2="845" stroke="#fee440" stroke-opacity="0.047" stroke-width="0.5"/><line x1="0" y1="800" x2="1920" y2="800" stroke="#fee440" stroke-opacity="0.046" stroke-width="0.5"/><line x1="0" y1="755" x2="1920" y2="755" stroke="#fee440" stroke-opacity="0.045" stroke-width="0.5"/><line x1="0" y1="710" x2="1920" y2="710" stroke="#fee440" stroke-opacity="0.044" stroke-width="0.5"/><line x1="0" y1="665" x2="1920" y2="665" stroke="#fee440" stroke-opacity="0.043" stroke-width="0.5"/><line x1="0" y1="620" x2="1920" y2="620" stroke="#fee440" stroke-opacity="0.041999999999999996" stroke-width="0.5"/><line x1="0" y1="575" x2="1920" y2="575" stroke="#fee440" stroke-opacity="0.041" stroke-width="0.5"/><line x1="0" y1="530" x2="1920" y2="530" stroke="#fee440" stroke-opacity="0.04" stroke-width="0.5"/><line x1="0" y1="485" x2="1920" y2="485" stroke="#fee440" stroke-opacity="0.039" stroke-width="0.5"/><line x1="0" y1="440" x2="1920" y2="440" stroke="#fee440" stroke-opacity="0.038" stroke-width="0.5"/><line x1="0" y1="395" x2="1920" y2="395" stroke="#fee440" stroke-opacity="0.037" stroke-width="0.5"/><line x1="0" y1="350" x2="1920" y2="350" stroke="#fee440" stroke-opacity="0.036" stroke-width="0.5"/><line x1="0" y1="305" x2="1920" y2="305" stroke="#fee440" stroke-opacity="0.034999999999999996" stroke-width="0.5"/><line x1="0" y1="260" x2="1920" y2="260" stroke="#fee440" stroke-opacity="0.033999999999999996" stroke-width="0.5"/><line x1="0" y1="215" x2="1920" y2="215" stroke="#fee440" stroke-opacity="0.033" stroke-width="0.5"/><line x1="0" y1="170" x2="1920" y2="170" stroke="#fee440" stroke-opacity="0.032" stroke-width="0.5"/><line x1="0" y1="125" x2="1920" y2="125" stroke="#fee440" stroke-opacity="0.031" stroke-width="0.5"/><line x1="560" y1="1080" x2="860" y2="580" stroke="#f15bb5" stroke-opacity="0.04" stroke-width="1"/><line x1="640" y1="1080" x2="880" y2="590" stroke="#f15bb5" stroke-opacity="0.04" stroke-width="1"/><line x1="720" y1="1080" x2="900" y2="600" stroke="#f15bb5" stroke-opacity="0.04" stroke-width="1"/><line x1="800" y1="1080" x2="920" y2="610" stroke="#f15bb5" stroke-opacity="0.04" stroke-width="1"/><line x1="880" y1="1080" x2="940" y2="620" stroke="#f15bb5" stroke-opacity="0.04" stroke-width="1"/><line x1="960" y1="1080" x2="960" y2="630" stroke="#f15bb5" stroke-opacity="0.04" stroke-width="1"/><line x1="1040" y1="1080" x2="980" y2="620" stroke="#f15bb5" stroke-opacity="0.04" stroke-width="1"/><line x1="1120" y1="1080" x2="1000" y2="610" stroke="#f15bb5" stroke-opacity="0.04" stroke-width="1"/><line x1="1200" y1="1080" x2="1020" y2="600" stroke="#f15bb5" stroke-opacity="0.04" stroke-width="1"/><line x1="1280" y1="1080" x2="1040" y2="590" stroke="#f15bb5" stroke-opacity="0.04" stroke-width="1"/><line x1="1360" y1="1080" x2="1060" y2="580" stroke="#f15bb5" stroke-opacity="0.04" stroke-width="1"/><circle cx="775.894204079149" cy="351.2824638749664" r="64.21746013784256" fill="url(#sun99)" opacity="0.7098575851437304"/><circle cx="775.894204079149" cy="351.2824638749664" r="59.217460137842565" fill="#00bbf9" opacity="0.3"/><circle cx="1394.7215727238734" cy="109.31745294791587" r="0.7812976386121702" fill="#fff" opacity="0.4748998890805291"/><circle cx="1470.7094370272732" cy="212.44513671203637" r="0.9094935160618027" fill="#fff" opacity="0.5340886020879467"/><circle cx="1463.5248415599401" cy="164.53648467095022" r="1.660247452361567" fill="#fff" opacity="0.7828211943113295"/><circle cx="996.034392052338" cy="112.71093162538274" r="1.9431795145951163" fill="#fff" opacity="0.3257590707218645"/><circle cx="875.6239054155592" cy="297.2982555425955" r="1.0868819775262106" fill="#fff" opacity="0.37856766706764877"/><circle cx="465.11775936584866" cy="298.3962773481375" r="1.0912596904885163" fill="#fff" opacity="0.7417592605440317"/><circle cx="369.26754632249185" cy="352.7416843587397" r="1.2286901247521607" fill="#fff" opacity="0.5632993112698428"/><circle cx="1346.8705798841247" cy="327.8120051491568" r="0.9157357103926446" fill="#fff" opacity="0.5555009559158937"/><circle cx="1475.2213614143482" cy="196.47074528142596" r="0.7374246301449427" fill="#fff" opacity="0.21251906459511238"/><circle cx="1241.0226160197108" cy="427.71244510163376" r="1.3165156744226152" fill="#fff" opacity="0.3779106038105466"/><circle cx="1386.029583389412" cy="354.63473122255755" r="1.2493213642736247" fill="#fff" opacity="0.6197401381609356"/><circle cx="488.5282486324497" cy="321.3174535709707" r="1.4202660550177717" fill="#fff" opacity="0.6606761508762549"/><circle cx="286.8782209527861" cy="320.11917652565035" r="0.6296038339216271" fill="#fff" opacity="0.36518183391661896"/><circle cx="1211.330173744664" cy="161.7200952995848" r="1.0022323554154093" fill="#fff" opacity="0.7091300857507461"/><circle cx="128.40456116208912" cy="336.4279733040435" r="0.5548843038396175" fill="#fff" opacity="0.5394738273554187"/><circle cx="1070.465078901142" cy="310.18167399758977" r="0.5159650699971162" fill="#fff" opacity="0.7989658694246238"/><circle cx="1597.8692457819984" cy="79.26502260548645" r="1.3599861713265968" fill="#fff" opacity="0.6765648078817327"/><circle cx="1805.5885997148202" cy="59.47014093293579" r="0.6135213949283402" fill="#fff" opacity="0.4457873766882781"/><circle cx="1329.502193343244" cy="213.76186734944625" r="1.803315402777706" fill="#fff" opacity="0.4374123535206105"/><circle cx="852.0399036007095" cy="34.09341063771709" r="0.5639364386591912" fill="#fff" opacity="0.71255061903795"/><circle cx="694.5543208845319" cy="312.26608222542933" r="1.8762634693124014" fill="#fff" opacity="0.6465905268785056"/><circle cx="1533.1981577568683" cy="386.74798754294125" r="0.9945319722161005" fill="#fff" opacity="0.22207235661849203"/><circle cx="1610.9466271872973" cy="259.93694068210596" r="1.7406615514170056" fill="#fff" opacity="0.31939421638832294"/><circle cx="1904.4587109946783" cy="154.64957008013724" r="0.5364018647317779" fill="#fff" opacity="0.5220369934388522"/><circle cx="609.0317685830015" cy="200.8241859620493" r="0.9995090708833908" fill="#fff" opacity="0.2948761078749961"/><circle cx="923.7525466745143" cy="305.6468267370124" r="0.7289188941309506" fill="#fff" opacity="0.5444087461904643"/><circle cx="960.1159418374571" cy="363.01505782711666" r="1.5105230379874173" fill="#fff" opacity="0.565897997833299"/><circle cx="422.541944333944" cy="34.82997131786076" r="1.9892730725671335" fill="#fff" opacity="0.4625570132077106"/><circle cx="1038.2423528466009" cy="290.10118977029373" r="1.800729497638701" fill="#fff" opacity="0.6075568968913418"/><circle cx="512.0090953707717" cy="338.9395331076671" r="0.9876827911910794" fill="#fff" opacity="0.7620808838778363"/><circle cx="1440.2442525700303" cy="413.1301142156893" r="1.918991165100362" fill="#fff" opacity="0.5034904666485941"/><circle cx="413.8332502017341" cy="153.61392160356368" r="1.8405341206445671" fill="#fff" opacity="0.6070026911811444"/><circle cx="294.3755235463324" cy="279.56401708898227" r="1.8218436521296024" fill="#fff" opacity="0.3764135287088374"/><circle cx="87.23818974737968" cy="302.1640807907479" r="0.6636609338837818" fill="#fff" opacity="0.7874169944756237"/><circle cx="892.3296785942115" cy="167.94789847544112" r="1.7241277109654918" fill="#fff" opacity="0.7991292296441106"/><circle cx="1595.5043295760415" cy="424.99973541335197" r="1.025728568557121" fill="#fff" opacity="0.2783146707057754"/><circle cx="509.60640516821445" cy="77.93223090049165" r="0.6096124591095402" fill="#fff" opacity="0.6015926356431079"/><circle cx="969.8560754232703" cy="70.36147262676653" r="1.6134832034850222" fill="#fff" opacity="0.44140340984831644"/><circle cx="813.2101117477777" cy="214.73846283711924" r="0.6432242250636276" fill="#fff" opacity="0.6789953360052303"/><circle cx="1119.9662655219358" cy="97.5798518549604" r="0.9767435749472919" fill="#fff" opacity="0.215498971011373"/><circle cx="142.7158990834644" cy="26.237379720955477" r="1.3396206192764502" fill="#fff" opacity="0.7135689223449604"/><circle cx="1084.7475862048445" cy="373.66113647577845" r="1.1620370875257153" fill="#fff" opacity="0.4031280501287263"/><circle cx="1677.9853659304756" cy="237.74109426088194" r="1.8014400207440928" fill="#fff" opacity="0.3240923736999026"/><circle cx="872.078519964609" cy="270.35862414873174" r="0.6589148687568761" fill="#fff" opacity="0.5351708643453128"/><circle cx="98.6471316448057" cy="282.9690816018193" r="1.5876117856445748" fill="#fff" opacity="0.5084035979836257"/><circle cx="457.96233783894274" cy="151.99187497980705" r="1.270003220012878" fill="#fff" opacity="0.43751188261376506"/><circle cx="1399.4489965120908" cy="225.92216912701775" r="1.8497349713811966" fill="#fff" opacity="0.6986613203069804"/><circle cx="1223.6839394140252" cy="220.21107618422508" r="1.276367565215651" fill="#fff" opacity="0.731507572143224"/><circle cx="506.0014107511382" cy="98.40226924102807" r="1.0638553028842097" fill="#fff" opacity="0.7832185831347525"/><circle cx="822.8458573349858" cy="241.61686694287158" r="1.6318773137479734" fill="#fff" opacity="0.7176955380751042"/><rect x="0.4579921975866873" y="555.3129630292098" width="34.375934573909255" height="276.38735873074904" fill="#00bbf9" opacity="0.6505205579918159" rx="2"/><rect x="14.27644784359179" y="565.3129630292098" width="6.739023281899053" height="8.077453974186781" fill="#fee440" opacity="0.1668933062271432" rx="1"/><rect x="5.682464200114475" y="569.3516900163031" width="6.739023281899053" height="8.077453974186781" fill="#f15bb5" opacity="0.0834466531135716" rx="1"/><rect x="14.9690902940857" y="620.5904347753595" width="5.353738380911233" height="8.018497305460855" fill="#fee440" opacity="0.2556780110475789" rx="1"/><rect x="6.375106650608385" y="624.59968342809" width="5.353738380911233" height="8.018497305460855" fill="#f15bb5" opacity="0.12783900552378946" rx="1"/><rect x="13.441031418377776" y="675.8679065215093" width="8.409856132327079" height="6.227929254115542" fill="#fee440" opacity="0.4926838078519059" rx="1"/><rect x="4.847047774900462" y="678.981871148567" width="8.409856132327079" height="6.227929254115542" fill="#f15bb5" opacity="0.24634190392595295" rx="1"/><rect x="15.218582535213462" y="731.1453782676592" width="4.854753898655706" height="8.407391015069418" fill="#fee440" opacity="0.3578835199256156" rx="1"/><rect x="6.624598891736149" y="735.3490737751939" width="4.854753898655706" height="8.407391015069418" fill="#f15bb5" opacity="0.1789417599628078" rx="1"/><rect x="12.929638451414565" y="786.422850013809" width="9.4326420662535" height="7.2274265022080915" fill="#fee440" opacity="0.17933188883572163" rx="1"/><rect x="4.335654807937251" y="790.0365632649131" width="9.4326420662535" height="7.2274265022080915" fill="#f15bb5" opacity="0.08966594441786081" rx="1"/><rect x="100.54120616576621" y="528.0377272116108" width="69.21760915760362" height="303.662594548348" fill="#00bbf9" opacity="0.49838748730215887" rx="2"/><rect x="132.9484227480755" y="538.0377272116108" width="4.403175992985064" height="8.182247859002615" fill="#fee440" opacity="0.30048286910180066" rx="1"/><rect x="115.64402045867458" y="542.1288511411121" width="4.403175992985064" height="8.182247859002615" fill="#f15bb5" opacity="0.15024143455090033" rx="1"/><rect x="132.5382694968387" y="588.6481596363354" width="5.223482495458676" height="6.973177677247016" fill="#fee440" opacity="0.17478366770660125" rx="1"/><rect x="115.23386720743777" y="592.134748474959" width="5.223482495458676" height="6.973177677247016" fill="#f15bb5" opacity="0.08739183385330063" rx="1"/><rect x="130.69422126736316" y="639.2585920610601" width="8.911578954409709" height="6.209491609644492" fill="#fee440" opacity="0.5294365658260501" rx="1"/><rect x="113.38981897796225" y="642.3633378658824" width="8.911578954409709" height="6.209491609644492" fill="#f15bb5" opacity="0.26471828291302507" rx="1"/><rect x="132.77607192601877" y="689.8690244857848" width="4.747877637098515" height="8.193672346461954" fill="#fee440" opacity="0.2969500822473667" rx="1"/><rect x="115.47166963661785" y="693.9658606590158" width="4.747877637098515" height="8.193672346461954" fill="#f15bb5" opacity="0.14847504112368334" rx="1"/><rect x="132.96502752829886" y="740.4794569105095" width="4.369966432538341" height="9.43807438561648" fill="#fee440" opacity="0.10595532497529764" rx="1"/><rect x="115.66062523889794" y="745.1984941033178" width="4.369966432538341" height="9.43807438561648" fill="#f15bb5" opacity="0.05297766248764882" rx="1"/><rect x="130.1069164171175" y="791.0898893352341" width="10.086188654901038" height="9.237027422347346" fill="#fee440" opacity="0.2580533358869267" rx="1"/><rect x="112.80251412771659" y="795.7084030464079" width="10.086188654901038" height="9.237027422347346" fill="#f15bb5" opacity="0.12902666794346335" rx="1"/><rect x="198.84590665867606" y="454.2721720538736" width="67.55972464512097" height="377.4281497060852" fill="#00a1df" opacity="0.4470124348641868" rx="2"/><rect x="230.04225384925462" y="464.2721720538736" width="5.167030263963861" height="6.972802296507359" fill="#fee440" opacity="0.45938410515882633" rx="1"/><rect x="213.15232268797436" y="467.75857320212725" width="5.167030263963861" height="6.972802296507359" fill="#f15bb5" opacity="0.22969205257941316" rx="1"/><rect x="229.61497736355557" y="511.45069076713423" width="6.021583235361982" height="7.0201512251561855" fill="#fee440" opacity="0.54194070027255" rx="1"/><rect x="212.7250462022753" y="514.9607663797124" width="6.021583235361982" height="7.0201512251561855" fill="#f15bb5" opacity="0.270970350136275" rx="1"/><rect x="226.9478173101284" y="558.6292094803949" width="11.355903342216253" height="8.659869546689993" fill="#fee440" opacity="0.2154277049040952" rx="1"/><rect x="210.05788614884816" y="562.95914425374" width="11.355903342216253" height="8.659869546689993" fill="#f15bb5" opacity="0.1077138524520476" rx="1"/><rect x="230.61177073355023" y="605.8077281936555" width="4.027996495372615" height="8.671554417971418" fill="#fee440" opacity="0.26597731950832004" rx="1"/><rect x="213.72183957226997" y="610.1435054026413" width="4.027996495372615" height="8.671554417971418" fill="#f15bb5" opacity="0.13298865975416002" rx="1"/><rect x="227.22240847206183" y="652.9862469069162" width="10.806721018349453" height="7.904830923747465" fill="#fee440" opacity="0.31311513036794847" rx="1"/><rect x="210.33247731078157" y="656.93866236879" width="10.806721018349453" height="7.904830923747465" fill="#f15bb5" opacity="0.15655756518397423" rx="1"/><rect x="229.49188439923532" y="700.1647656201768" width="6.267769164002447" height="9.661905235532183" fill="#fee440" opacity="0.22522280859416882" rx="1"/><rect x="212.60195323795506" y="704.9957182379429" width="6.267769164002447" height="9.661905235532183" fill="#f15bb5" opacity="0.11261140429708441" rx="1"/><rect x="230.06217703239494" y="747.3432843334375" width="5.1271838976832065" height="8.979032824509552" fill="#fee440" opacity="0.40908342423128974" rx="1"/><rect x="213.17224587111468" y="751.8328007456923" width="5.1271838976832065" height="8.979032824509552" fill="#f15bb5" opacity="0.20454171211564487" rx="1"/><rect x="226.80929701436443" y="794.5218030466981" width="11.632943933744203" height="9.016635194191856" fill="#fee440" opacity="0.5546893437986005" rx="1"/><rect x="209.91936585308417" y="799.030120643794" width="11.632943933744203" height="9.016635194191856" fill="#f15bb5" opacity="0.27734467189930023" rx="1"/><rect x="282.60638761288976" y="636.4667772633179" width="51.608083546536065" height="195.23354449664095" fill="#00bbf9" opacity="0.5341571565564156" rx="2"/><rect x="303.53444612771017" y="646.4667772633179" width="9.751966516895212" height="9.190184434687296" fill="#fee440" opacity="0.2017905036224496" rx="1"/><rect x="290.6324252410762" y="651.0618694806616" width="9.751966516895212" height="9.190184434687296" fill="#f15bb5" opacity="0.1008952518112248" rx="1"/><rect x="306.0792258154912" y="670.870970325398" width="4.662407141333075" height="8.228797798563912" fill="#fee440" opacity="0.3091252957957623" rx="1"/><rect x="293.17720492885724" y="674.98536922468" width="4.662407141333075" height="8.228797798563912" fill="#f15bb5" opacity="0.15456264789788116" rx="1"/><rect x="305.99194858466427" y="695.2751633874782" width="4.836961602987014" height="6.198457305365814" fill="#fee440" opacity="0.5690362550246149" rx="1"/><rect x="293.0899276980303" y="698.3743920401611" width="4.836961602987014" height="6.198457305365814" fill="#f15bb5" opacity="0.28451812751230743" rx="1"/><rect x="304.7851425626408" y="719.6793564495583" width="7.250573647034022" height="6.321833005249927" fill="#fee440" opacity="0.5413553927888525" rx="1"/><rect x="291.8831216760068" y="722.8402729521833" width="7.250573647034022" height="6.321833005249927" fill="#f15bb5" opacity="0.27067769639442624" rx="1"/><rect x="304.44471148515566" y="744.0835495116384" width="7.931435802004168" height="7.861440795907155" fill="#fee440" opacity="0.23064869461363385" rx="1"/><rect x="291.5426905985217" y="748.0142699095919" width="7.931435802004168" height="7.861440795907155" fill="#f15bb5" opacity="0.11532434730681693" rx="1"/><rect x="304.8814945019167" y="768.4877425737185" width="7.057869768482137" height="9.634863706220608" fill="#fee440" opacity="0.4178097616922599" rx="1"/><rect x="291.9794736152827" y="773.3051744268288" width="7.057869768482137" height="9.634863706220608" fill="#f15bb5" opacity="0.20890488084612996" rx="1"/><rect x="305.359010150147" y="792.8919356357986" width="6.102838472021473" height="8.145871136837144" fill="#fee440" opacity="0.43816181480376093" rx="1"/><rect x="292.45698926351304" y="796.9648712042172" width="6.102838472021473" height="8.145871136837144" fill="#f15bb5" opacity="0.21908090740188046" rx="1"/><rect x="304.56834611041074" y="817.2961286978788" width="7.684166551494078" height="9.516225201896445" fill="#fee440" opacity="0.4857134603629153" rx="1"/><rect x="291.66632522377677" y="822.054241298827" width="7.684166551494078" height="9.516225201896445" fill="#f15bb5" opacity="0.24285673018145765" rx="1"/><rect x="369.81107442339044" y="597.2449009765975" width="89.19139279965111" height="234.4554207833613" fill="#00bbf9" opacity="0.5134326442641748" rx="2"/><rect x="410.2988161799898" y="607.2449009765975" width="8.215909286452437" height="9.247105222020089" fill="#fee440" opacity="0.30773883448162553" rx="1"/><rect x="388.000967980077" y="611.8684535876075" width="8.215909286452437" height="9.247105222020089" fill="#f15bb5" opacity="0.15386941724081277" rx="1"/><rect x="408.85489688513985" y="646.320804440491" width="11.103747876152337" height="9.232541886910923" fill="#fee440" opacity="0.22263255720553748" rx="1"/><rect x="386.5570486852271" y="650.9370753839464" width="11.103747876152337" height="9.232541886910923" fill="#f15bb5" opacity="0.11131627860276874" rx="1"/><rect x="410.21031913545056" y="685.3967079043846" width="8.392903375530825" height="8.938475241637434" fill="#fee440" opacity="0.20857882760664886" rx="1"/><rect x="387.9124709355378" y="689.8659455252033" width="8.392903375530825" height="8.938475241637434" fill="#f15bb5" opacity="0.10428941380332443" rx="1"/><rect x="412.1692772457474" y="724.4726113682781" width="4.474987154937113" height="6.9132769715304665" fill="#fee440" opacity="0.30197544158482353" rx="1"/><rect x="389.87142904583465" y="727.9292498540433" width="4.474987154937113" height="6.9132769715304665" fill="#f15bb5" opacity="0.15098772079241177" rx="1"/><rect x="410.6515139334193" y="763.5485148321717" width="7.5105137795932855" height="8.03651831067086" fill="#fee440" opacity="0.30389181939044313" rx="1"/><rect x="388.35366573350655" y="767.5667739875071" width="7.5105137795932855" height="8.03651831067086" fill="#f15bb5" opacity="0.15194590969522156" rx="1"/><rect x="412.23912817205115" y="802.6244182960652" width="4.335285302329642" height="9.482582528954973" fill="#fee440" opacity="0.5758511766502287" rx="1"/><rect x="389.9412799721384" y="807.3657095605427" width="4.335285302329642" height="9.482582528954973" fill="#f15bb5" opacity="0.28792558832511433" rx="1"/><rect x="442.1042214476492" y="522.0954840355774" width="36.70792001455741" height="309.60483772438135" fill="#00a1df" opacity="0.5586698105462524" rx="2"/><rect x="455.31419670242" y="532.0954840355774" width="10.287969505015752" height="6.530503681984381" fill="#fee440" opacity="0.1363102844069503" rx="1"/><rect x="446.13721669878066" y="535.3607358765696" width="10.287969505015752" height="6.530503681984381" fill="#f15bb5" opacity="0.06815514220347516" rx="1"/><rect x="455.5517833655799" y="576.3247465676319" width="9.812796178695931" height="8.803926302772929" fill="#fee440" opacity="0.5659037085869125" rx="1"/><rect x="446.37480336194056" y="580.7267097190183" width="9.812796178695931" height="8.803926302772929" fill="#f15bb5" opacity="0.28295185429345626" rx="1"/><rect x="456.53540145946346" y="620.5540090996864" width="7.845559990928871" height="9.227381360537228" fill="#fee440" opacity="0.2749560403812109" rx="1"/><rect x="447.3584214558241" y="625.167699779955" width="7.845559990928871" height="9.227381360537228" fill="#f15bb5" opacity="0.13747802019060545" rx="1"/><rect x="456.31169662587405" y="664.783271631741" width="8.292969658107722" height="9.456643966831416" fill="#fee440" opacity="0.4428483317473084" rx="1"/><rect x="447.1347166222347" y="669.5115936151567" width="8.292969658107722" height="9.456643966831416" fill="#f15bb5" opacity="0.2214241658736542" rx="1"/><rect x="456.0113431918673" y="709.0125341637954" width="8.893676526121254" height="6.255226978160261" fill="#fee440" opacity="0.3187568109293368" rx="1"/><rect x="446.83436318822794" y="712.1401476528755" width="8.893676526121254" height="6.255226978160261" fill="#f15bb5" opacity="0.1593784054646684" rx="1"/><rect x="455.63531905732265" y="753.2417966958499" width="9.645724795210576" height="7.353080834577112" fill="#fee440" opacity="0.5545578458240623" rx="1"/><rect x="446.4583390536833" y="756.9183371131385" width="9.645724795210576" height="7.353080834577112" fill="#f15bb5" opacity="0.27727892291203116" rx="1"/><rect x="457.19768174627995" y="797.4710592279043" width="6.520999417295912" height="9.597789816464715" fill="#fee440" opacity="0.5559957266217088" rx="1"/><rect x="448.0207017426406" y="802.2699541361367" width="6.520999417295912" height="9.597789816464715" fill="#f15bb5" opacity="0.2779978633108544" rx="1"/><rect x="547.4299154682874" y="698.3746954701782" width="61.45848701974808" height="133.32562628978064" fill="#00bbf9" opacity="0.4777420902572903" rx="2"/><rect x="572.251494948324" y="708.3746954701782" width="11.815328059675014" height="7.741547344657953" fill="#fee440" opacity="0.10377326738177177" rx="1"/><rect x="556.8868731933869" y="712.2454691425071" width="11.815328059675014" height="7.741547344657953" fill="#f15bb5" opacity="0.051886633690885885" rx="1"/><rect x="573.3873793499769" y="725.0403987564007" width="9.543559256369146" height="6.412611364483045" fill="#fee440" opacity="0.1822502888232121" rx="1"/><rect x="558.0227575950398" y="728.2467044386423" width="9.543559256369146" height="6.412611364483045" fill="#f15bb5" opacity="0.09112514441160605" rx="1"/><rect x="574.517507634225" y="741.7061020426233" width="7.28330268787297" height="7.794892430723387" fill="#fee440" opacity="0.28128956090223267" rx="1"/><rect x="559.152885879288" y="745.603548257985" width="7.28330268787297" height="7.794892430723387" fill="#f15bb5" opacity="0.14064478045111634" rx="1"/><rect x="575.7644602995538" y="758.3718053288459" width="4.789397357215499" height="9.130814317411467" fill="#fee440" opacity="0.18634387657194024" rx="1"/><rect x="560.3998385446167" y="762.9372124875516" width="4.789397357215499" height="9.130814317411467" fill="#f15bb5" opacity="0.09317193828597012" rx="1"/><rect x="572.3705569259542" y="775.0375086150684" width="11.577204104414491" height="8.838723645275161" fill="#fee440" opacity="0.5802494213171884" rx="1"/><rect x="557.0059351710172" y="779.456870437706" width="11.577204104414491" height="8.838723645275161" fill="#f15bb5" opacity="0.2901247106585942" rx="1"/><rect x="572.9358463629254" y="791.7032119012911" width="10.446625230472215" height="9.16902182511264" fill="#fee440" opacity="0.5155505763868686" rx="1"/><rect x="557.5712246079884" y="796.2877228138474" width="10.446625230472215" height="9.16902182511264" fill="#f15bb5" opacity="0.2577752881934343" rx="1"/><rect x="574.4996879194883" y="808.3689151875136" width="7.318942117346205" height="6.465477870885627" fill="#fee440" opacity="0.2871711535349421" rx="1"/><rect x="559.1350661645513" y="811.6016541229565" width="7.318942117346205" height="6.465477870885627" fill="#f15bb5" opacity="0.14358557676747105" rx="1"/><rect x="573.5859827323573" y="825.0346184737363" width="9.146352491608436" height="9.93898727650265" fill="#fee440" opacity="0.5387037320851125" rx="1"/><rect x="558.2213609774202" y="830.0041121119876" width="9.146352491608436" height="9.93898727650265" fill="#f15bb5" opacity="0.26935186604255623" rx="1"/><rect x="613.7959888778913" y="714.4456259707094" width="78.29927525210644" height="117.25469578924931" fill="#00bbf9" opacity="0.6274138006212688" rx="2"/><rect x="650.7206151588931" y="724.4456259707094" width="4.450022690102929" height="6.966628570334667" fill="#fee440" opacity="0.16926666748925734" rx="1"/><rect x="631.1457963458664" y="727.9289402558768" width="4.450022690102929" height="6.966628570334667" fill="#f15bb5" opacity="0.08463333374462867" rx="1"/><rect x="650.907210404201" y="741.196296797745" width="4.0768321994870975" height="7.386693009498225" fill="#fee440" opacity="0.324503813363729" rx="1"/><rect x="631.3323915911743" y="744.8896433024942" width="4.0768321994870975" height="7.386693009498225" fill="#f15bb5" opacity="0.1622519066818645" rx="1"/><rect x="650.1029473784915" y="757.9469676247807" width="5.685358250906075" height="7.3649440792773255" fill="#fee440" opacity="0.3189417573900292" rx="1"/><rect x="630.5281285654648" y="761.6294396644194" width="5.685358250906075" height="7.3649440792773255" fill="#f15bb5" opacity="0.1594708786950146" rx="1"/><rect x="649.0351866518059" y="774.6976384518163" width="7.820879704277235" height="6.093226011864195" fill="#fee440" opacity="0.32253214840836175" rx="1"/><rect x="629.4603678387792" y="777.7442514577483" width="7.820879704277235" height="6.093226011864195" fill="#f15bb5" opacity="0.16126607420418088" rx="1"/><rect x="650.2057258700796" y="791.4483092788519" width="5.479801267730026" height="6.588472314315958" fill="#fee440" opacity="0.4982795327665004" rx="1"/><rect x="630.6309070570529" y="794.7425454360099" width="5.479801267730026" height="6.588472314315958" fill="#f15bb5" opacity="0.2491397663832502" rx="1"/><rect x="648.2497018477826" y="808.1989801058876" width="9.391849312324041" height="7.666038142905114" fill="#fee440" opacity="0.32862724289964584" rx="1"/><rect x="628.6748830347559" y="812.0319991773401" width="9.391849312324041" height="7.666038142905114" fill="#f15bb5" opacity="0.16431362144982292" rx="1"/><rect x="650.6478213221708" y="824.9496509329231" width="4.5956103635476" height="9.783277079412546" fill="#fee440" opacity="0.28521905683102533" rx="1"/><rect x="631.0730025091441" y="829.8412894726293" width="4.5956103635476" height="9.783277079412546" fill="#f15bb5" opacity="0.14260952841551267" rx="1"/><rect x="719.4286805936076" y="533.9430873594114" width="37.34305934220158" height="297.7572344005474" fill="#00bbf9" opacity="0.49238878299770616" rx="2"/><rect x="735.5582737357132" y="543.9430873594114" width="5.0838730579903055" height="7.319945489363732" fill="#fee440" opacity="0.1802612805460257" rx="1"/><rect x="726.2225089001629" y="547.6030601040933" width="5.0838730579903055" height="7.319945489363732" fill="#f15bb5" opacity="0.09013064027301285" rx="1"/><rect x="732.7888462679308" y="603.4945342395208" width="10.62272799355507" height="7.914150873644778" fill="#fee440" opacity="0.3100692537403827" rx="1"/><rect x="723.4530814323805" y="607.4516096763432" width="10.62272799355507" height="7.914150873644778" fill="#f15bb5" opacity="0.15503462687019134" rx="1"/><rect x="732.3006049473412" y="663.0459811196304" width="11.599210634734298" height="7.099080289038615" fill="#fee440" opacity="0.4390562238262632" rx="1"/><rect x="722.9648401117909" y="666.5955212641496" width="11.599210634734298" height="7.099080289038615" fill="#f15bb5" opacity="0.2195281119131316" rx="1"/><rect x="734.6894196784672" y="722.5974279997398" width="6.821581172482478" height="6.088775627335714" fill="#fee440" opacity="0.5716890040951988" rx="1"/><rect x="725.3536548429169" y="725.6418158134077" width="6.821581172482478" height="6.088775627335714" fill="#f15bb5" opacity="0.2858445020475994" rx="1"/><rect x="734.9643941625278" y="782.1488748798492" width="6.2716322043611745" height="7.04999163119355" fill="#fee440" opacity="0.11687006559615724" rx="1"/><rect x="725.6286293269775" y="785.673870695446" width="6.2716322043611745" height="7.04999163119355" fill="#f15bb5" opacity="0.05843503279807862" rx="1"/><rect x="807.3514599338442" y="682.0474661379232" width="37.34159200623203" height="149.65285562203564" fill="#00bbf9" opacity="0.6208495315911364" rx="2"/><rect x="823.8810887684219" y="692.0474661379232" width="4.2823343370767155" height="6.6676348672871555" fill="#fee440" opacity="0.5945138364551854" rx="1"/><rect x="814.5456907668639" y="695.3812835715668" width="4.2823343370767155" height="6.6676348672871555" fill="#f15bb5" opacity="0.2972569182275927" rx="1"/><rect x="821.3204935441456" y="721.9780372623303" width="9.403524785629363" height="7.735581064069546" fill="#fee440" opacity="0.2335866443425386" rx="1"/><rect x="811.9850955425876" y="725.845827794365" width="9.403524785629363" height="7.735581064069546" fill="#f15bb5" opacity="0.1167933221712693" rx="1"/><rect x="821.333615648257" y="751.9086083867375" width="9.377280577406585" height="6.645996145123149" fill="#fee440" opacity="0.1675321594037889" rx="1"/><rect x="811.998217646699" y="755.231606459299" width="9.377280577406585" height="6.645996145123149" fill="#f15bb5" opacity="0.08376607970189445" rx="1"/><rect x="821.3132381883164" y="781.8391795111445" width="9.418035497287761" height="6.172508436295322" fill="#fee440" opacity="0.3373346607753389" rx="1"/><rect x="811.9778401867584" y="784.9254337292922" width="9.418035497287761" height="6.172508436295322" fill="#f15bb5" opacity="0.16866733038766946" rx="1"/><rect x="822.4839603146185" y="811.7697506355516" width="7.076591244683739" height="8.506679088460906" fill="#fee440" opacity="0.4839669191241187" rx="1"/><rect x="813.1485623130604" y="816.0230901797821" width="7.076591244683739" height="8.506679088460906" fill="#f15bb5" opacity="0.24198345956205936" rx="1"/><rect x="898.6699062904464" y="601.6536563173061" width="46.77242763730987" height="230.04666544265268" fill="#00bbf9" opacity="0.604899429857009" rx="2"/><rect x="917.1426724321965" y="611.6536563173061" width="9.826895353809673" height="6.82714164648837" fill="#fee440" opacity="0.496718947774898" rx="1"/><rect x="905.449565522869" y="615.0672271405502" width="9.826895353809673" height="6.82714164648837" fill="#f15bb5" opacity="0.248359473887449" rx="1"/><rect x="919.3394858763836" y="640.4094894976377" width="5.433268465435428" height="9.638820357536623" fill="#fee440" opacity="0.34289853178032176" rx="1"/><rect x="907.6463789670561" y="645.228899676406" width="5.433268465435428" height="9.638820357536623" fill="#f15bb5" opacity="0.17144926589016088" rx="1"/><rect x="917.9077305894089" y="669.1653226779692" width="8.29677903938498" height="9.887584523271673" fill="#fee440" opacity="0.4966249637065048" rx="1"/><rect x="906.2146236800813" y="674.1091149396051" width="8.29677903938498" height="9.887584523271673" fill="#f15bb5" opacity="0.2483124818532524" rx="1"/><rect x="917.7238230786533" y="697.9211558583008" width="8.664594060896103" height="8.0614528968142" fill="#fee440" opacity="0.35661916443068054" rx="1"/><rect x="906.0307161693257" y="701.951882306708" width="8.664594060896103" height="8.0614528968142" fill="#f15bb5" opacity="0.17830958221534027" rx="1"/><rect x="917.7760025511864" y="726.6769890386324" width="8.56023511582991" height="9.779552560248309" fill="#fee440" opacity="0.2641387138897876" rx="1"/><rect x="906.0828956418588" y="731.5667653187566" width="8.56023511582991" height="9.779552560248309" fill="#f15bb5" opacity="0.1320693569448938" rx="1"/><rect x="916.5787473744156" y="755.432822218964" width="10.954745469371495" height="7.565719109393125" fill="#fee440" opacity="0.4972761205856866" rx="1"/><rect x="904.885640465088" y="759.2156817736605" width="10.954745469371495" height="7.565719109393125" fill="#f15bb5" opacity="0.2486380602928433" rx="1"/><rect x="916.324627086871" y="784.1886553992956" width="11.46298604446067" height="8.622376565500716" fill="#fee440" opacity="0.14414533161189066" rx="1"/><rect x="904.6315201775435" y="788.4998436820459" width="11.46298604446067" height="8.622376565500716" fill="#f15bb5" opacity="0.07207266580594533" rx="1"/><rect x="916.6989149548767" y="812.9444885796272" width="10.714410308449159" height="9.977580400178578" fill="#fee440" opacity="0.10590825779501076" rx="1"/><rect x="905.0058080455492" y="817.9332787797165" width="10.714410308449159" height="9.977580400178578" fill="#f15bb5" opacity="0.05295412889750538" rx="1"/><rect x="960.5579694501492" y="637.6853311522132" width="35.17764067397864" height="194.0149906077457" fill="#00bbf9" opacity="0.6800993120717116" rx="2"/><rect x="975.1596476077474" y="647.6853311522132" width="5.9742843587822945" height="8.745504168501474" fill="#fee440" opacity="0.44176823679398936" rx="1"/><rect x="966.3652374392527" y="652.0580832364639" width="5.9742843587822945" height="8.745504168501474" fill="#f15bb5" opacity="0.22088411839699468" rx="1"/><rect x="975.820267655612" y="686.4883292737622" width="4.653044263052998" height="9.820862717884793" fill="#fee440" opacity="0.5178173758363858" rx="1"/><rect x="967.0258574871174" y="691.3987606327047" width="4.653044263052998" height="9.820862717884793" fill="#f15bb5" opacity="0.2589086879181929" rx="1"/><rect x="975.6083582953104" y="725.2913273953114" width="5.076862983656317" height="8.580490080309215" fill="#fee440" opacity="0.5853390769533205" rx="1"/><rect x="966.8139481268157" y="729.581572435466" width="5.076862983656317" height="8.580490080309215" fill="#f15bb5" opacity="0.2926695384766603" rx="1"/><rect x="974.3443078830244" y="764.0943255168606" width="7.6049638082284865" height="6.175439752679187" fill="#fee440" opacity="0.2542662913338901" rx="1"/><rect x="965.5498977145297" y="767.1820453932003" width="7.6049638082284865" height="6.175439752679187" fill="#f15bb5" opacity="0.12713314566694506" rx="1"/><rect x="973.5766172810869" y="802.8973236384097" width="9.140345012103289" height="7.070722537364514" fill="#fee440" opacity="0.482304778877251" rx="1"/><rect x="964.7822071125922" y="806.4326849070919" width="9.140345012103289" height="7.070722537364514" fill="#f15bb5" opacity="0.2411523894386255" rx="1"/><rect x="1050.604670039011" y="670.802391732764" width="51.95891749159408" height="160.89793002719477" fill="#00bbf9" opacity="0.5029474632821389" rx="2"/><rect x="1071.1091459309514" y="680.802391732764" width="10.949965707713265" height="6.1349462494568305" fill="#fee440" opacity="0.20146648858242355" rx="1"/><rect x="1058.1194165580528" y="683.8698648574924" width="10.949965707713265" height="6.1349462494568305" fill="#f15bb5" opacity="0.10073324429121178" rx="1"/><rect x="1073.483860504418" y="703.7878103080776" width="6.200536560779563" height="6.509384804523872" fill="#fee440" opacity="0.33272586793935066" rx="1"/><rect x="1060.4941311315195" y="707.0425027103396" width="6.200536560779563" height="6.509384804523872" fill="#f15bb5" opacity="0.16636293396967533" rx="1"/><rect x="1073.1053953240448" y="726.7732288833911" width="6.957466921526349" height="8.415216173607673" fill="#fee440" opacity="0.33741908132504184" rx="1"/><rect x="1060.1156659511462" y="730.9808369701949" width="6.957466921526349" height="8.415216173607673" fill="#f15bb5" opacity="0.16870954066252092" rx="1"/><rect x="1073.615972780258" y="749.7586474587047" width="5.936312009099943" height="6.620343935820355" fill="#fee440" opacity="0.5135068476697213" rx="1"/><rect x="1060.6262434073594" y="753.0688194266148" width="5.936312009099943" height="6.620343935820355" fill="#f15bb5" opacity="0.25675342383486066" rx="1"/><rect x="1073.2796297823306" y="772.7440660340181" width="6.6089980049545405" height="7.334865368282158" fill="#fee440" opacity="0.15600209570396742" rx="1"/><rect x="1060.289900409432" y="776.4114987181592" width="6.6089980049545405" height="7.334865368282158" fill="#f15bb5" opacity="0.07800104785198371" rx="1"/><rect x="1072.755816563399" y="795.7294846093317" width="7.6566244428177885" height="6.116074677583779" fill="#fee440" opacity="0.2985035707937795" rx="1"/><rect x="1059.7660871905005" y="798.7875219481236" width="7.6566244428177885" height="6.116074677583779" fill="#f15bb5" opacity="0.14925178539688974" rx="1"/><rect x="1073.0479568601274" y="818.7149031846452" width="7.0723438493610224" height="9.383195152362621" fill="#fee440" opacity="0.3527534709667679" rx="1"/><rect x="1060.0582274872288" y="823.4065007608265" width="7.0723438493610224" height="9.383195152362621" fill="#f15bb5" opacity="0.17637673548338395" rx="1"/><rect x="1144.0618593077404" y="565.8427390190407" width="47.73638945951508" height="265.8575827409182" fill="#00bbf9" opacity="0.5643244241048406" rx="2"/><rect x="1162.5783658035134" y="575.8427390190407" width="10.703376467969123" height="8.750460739887892" fill="#fee440" opacity="0.5184120122619001" rx="1"/><rect x="1150.6442684386348" y="580.2179693889846" width="10.703376467969123" height="8.750460739887892" fill="#f15bb5" opacity="0.2592060061309501" rx="1"/><rect x="1163.6085712295596" y="620.152336142527" width="8.64296561587671" height="8.162823341359111" fill="#fee440" opacity="0.5091749038568639" rx="1"/><rect x="1151.674473864681" y="624.2337478132066" width="8.64296561587671" height="8.162823341359111" fill="#f15bb5" opacity="0.25458745192843196" rx="1"/><rect x="1163.02345200527" y="664.4619332660134" width="9.813204064456094" height="9.172707617090248" fill="#fee440" opacity="0.10670042645807853" rx="1"/><rect x="1151.0893546403913" y="669.0482870745585" width="9.813204064456094" height="9.172707617090248" fill="#f15bb5" opacity="0.05335021322903927" rx="1"/><rect x="1164.2252928597995" y="708.7715303894997" width="7.409522355396655" height="8.290784862425827" fill="#fee440" opacity="0.42254047536350337" rx="1"/><rect x="1152.2911954949209" y="712.9169228207127" width="7.409522355396655" height="8.290784862425827" fill="#f15bb5" opacity="0.21127023768175168" rx="1"/><rect x="1163.356378228402" y="753.0811275129861" width="9.147351618192008" height="8.170261453411136" fill="#fee440" opacity="0.32766220074325386" rx="1"/><rect x="1151.4222808635234" y="757.1662582396916" width="9.147351618192008" height="8.170261453411136" fill="#f15bb5" opacity="0.16383110037162693" rx="1"/><rect x="1165.7232854287977" y="797.3907246364724" width="4.413537217400394" height="6.369313703935899" fill="#fee440" opacity="0.42144457784514977" rx="1"/><rect x="1153.789188063919" y="800.5753814884404" width="4.413537217400394" height="6.369313703935899" fill="#f15bb5" opacity="0.21072228892257489" rx="1"/><rect x="1222.3693514284266" y="552.8489202151188" width="74.43575291997655" height="278.85140154484" fill="#00a1df" opacity="0.6663045987874048" rx="2"/><rect x="1254.7035583623585" y="562.8489202151188" width="9.767339052112618" height="7.707486749092929" fill="#fee440" opacity="0.5616844676112953" rx="1"/><rect x="1236.0946201323645" y="566.7026635896652" width="9.767339052112618" height="7.707486749092929" fill="#f15bb5" opacity="0.28084223380564766" rx="1"/><rect x="1253.7519957088414" y="602.6848347215246" width="11.670464359147116" height="8.640480633508526" fill="#fee440" opacity="0.17541364712533858" rx="1"/><rect x="1235.1430574788474" y="607.0050750382788" width="11.670464359147116" height="8.640480633508526" fill="#f15bb5" opacity="0.08770682356266929" rx="1"/><rect x="1256.4279139747102" y="642.5207492279302" width="6.318627827409335" height="7.146848235546344" fill="#fee440" opacity="0.2567295370988384" rx="1"/><rect x="1237.8189757447162" y="646.0941733457033" width="6.318627827409335" height="7.146848235546344" fill="#f15bb5" opacity="0.1283647685494192" rx="1"/><rect x="1256.3114095550882" y="682.3566637343359" width="6.551636666653593" height="9.68538050811863" fill="#fee440" opacity="0.14745023745285585" rx="1"/><rect x="1237.7024713250942" y="687.1993539883953" width="6.551636666653593" height="9.68538050811863" fill="#f15bb5" opacity="0.07372511872642792" rx="1"/><rect x="1257.4924310892695" y="722.1925782407417" width="4.189593598290718" height="7.095762729899903" fill="#fee440" opacity="0.4020991865317568" rx="1"/><rect x="1238.8834928592755" y="725.7404596056916" width="4.189593598290718" height="7.095762729899903" fill="#f15bb5" opacity="0.2010495932658784" rx="1"/><rect x="1254.0006424049973" y="762.0284927471473" width="11.173170966835034" height="8.787086531237486" fill="#fee440" opacity="0.21282352197748228" rx="1"/><rect x="1235.3917041750033" y="766.4220360127661" width="11.173170966835034" height="8.787086531237486" fill="#f15bb5" opacity="0.10641176098874114" rx="1"/><rect x="1255.2845955504426" y="801.864407253553" width="8.605264675944408" height="6.6914255657911825" fill="#fee440" opacity="0.16186067617076" rx="1"/><rect x="1236.6756573204486" y="805.2101200364486" width="8.605264675944408" height="6.6914255657911825" fill="#f15bb5" opacity="0.08093033808538" rx="1"/><rect x="1309.6118344336012" y="745.7990614803971" width="64.87290404617622" height="85.90126027956168" fill="#00bbf9" opacity="0.40467786018379914" rx="2"/><rect x="1337.7433886830731" y="755.7990614803971" width="8.60979554723245" height="9.239105277517602" fill="#fee440" opacity="0.18039798973603127" rx="1"/><rect x="1321.525162671529" y="760.4186141191559" width="8.60979554723245" height="9.239105277517602" fill="#f15bb5" opacity="0.09019899486801564" rx="1"/><rect x="1339.6672855894872" y="777.2743765502875" width="4.762001734404359" height="6.2340998929539" fill="#fee440" opacity="0.23140203271326656" rx="1"/><rect x="1323.449059577943" y="780.3914264967644" width="4.762001734404359" height="6.2340998929539" fill="#f15bb5" opacity="0.11570101635663328" rx="1"/><rect x="1339.8863158980753" y="798.7496916201779" width="4.323941117227995" height="7.232271961223398" fill="#fee440" opacity="0.10865126983464027" rx="1"/><rect x="1323.668089886531" y="802.3658276007897" width="4.323941117227995" height="7.232271961223398" fill="#f15bb5" opacity="0.054325634917320134" rx="1"/><rect x="1336.6577479422394" y="820.2250066900683" width="10.781077028899706" height="8.461120032347068" fill="#fee440" opacity="0.4897092445729555" rx="1"/><rect x="1320.4395219306953" y="824.4555667062418" width="10.781077028899706" height="8.461120032347068" fill="#f15bb5" opacity="0.24485462228647775" rx="1"/><rect x="1409.3222700754213" y="505.52643477114066" width="54.780613613496676" height="326.17388698881814" fill="#00bbf9" opacity="0.4264309418682081" rx="2"/><rect x="1434.4252935546724" y="515.5264347711407" width="4.57456665499475" height="8.079403987638514" fill="#fee440" opacity="0.21422258105925812" rx="1"/><rect x="1420.7301401512982" y="519.5661367649599" width="4.57456665499475" height="8.079403987638514" fill="#f15bb5" opacity="0.10711129052962906" rx="1"/><rect x="1434.0173520641656" y="556.2981706447429" width="5.3904496360082295" height="6.43288565157747" fill="#fee440" opacity="0.462564007952475" rx="1"/><rect x="1420.3221986607914" y="559.5146134705316" width="5.3904496360082295" height="6.43288565157747" fill="#f15bb5" opacity="0.2312820039762375" rx="1"/><rect x="1432.213464187995" y="597.0699065183452" width="8.998225388349553" height="7.018751546977729" fill="#fee440" opacity="0.16066459616661644" rx="1"/><rect x="1418.5183107846208" y="600.579282291834" width="8.998225388349553" height="7.018751546977729" fill="#f15bb5" opacity="0.08033229808330822" rx="1"/><rect x="1433.7978531401347" y="637.8416423919475" width="5.829447484069841" height="7.481538335206345" fill="#fee440" opacity="0.586984222193012" rx="1"/><rect x="1420.1026997367605" y="641.5824115595507" width="5.829447484069841" height="7.481538335206345" fill="#f15bb5" opacity="0.293492111096506" rx="1"/><rect x="1430.7404086740762" y="678.6133782655497" width="11.944336416186843" height="8.345017481209947" fill="#fee440" opacity="0.1445147003150812" rx="1"/><rect x="1417.045255270702" y="682.7858870061547" width="11.944336416186843" height="8.345017481209947" fill="#f15bb5" opacity="0.0722573501575406" rx="1"/><rect x="1432.8125042596143" y="719.3851141391519" width="7.8001452451106505" height="8.09933406815383" fill="#fee440" opacity="0.5309253796075762" rx="1"/><rect x="1419.1173508562401" y="723.4347811732289" width="7.8001452451106505" height="8.09933406815383" fill="#f15bb5" opacity="0.2654626898037881" rx="1"/><rect x="1433.4318998399015" y="760.1568500127543" width="6.561354084536749" height="6.980461658206876" fill="#fee440" opacity="0.574545030615885" rx="1"/><rect x="1419.7367464365273" y="763.6470808418577" width="6.561354084536749" height="6.980461658206876" fill="#f15bb5" opacity="0.2872725153079425" rx="1"/><rect x="1430.7250300889875" y="800.9285858863566" width="11.975093586364551" height="9.975960189471012" fill="#fee440" opacity="0.5694556626420132" rx="1"/><rect x="1417.0298766856133" y="805.916565981092" width="11.975093586364551" height="9.975960189471012" fill="#f15bb5" opacity="0.2847278313210066" rx="1"/><rect x="1500.4842461928242" y="574.1857269020252" width="49.18875603452063" height="257.5145948579336" fill="#00a1df" opacity="0.5129205986189005" rx="2"/><rect x="1520.1394067453332" y="584.1857269020252" width="9.878434929502763" height="7.4413058174404565" fill="#fee440" opacity="0.1041196475513558" rx="1"/><rect x="1507.8422177367029" y="587.9063798107454" width="9.878434929502763" height="7.4413058174404565" fill="#f15bb5" opacity="0.0520598237756779" rx="1"/><rect x="1522.6340592872684" y="670.0239251880031" width="4.889129845632503" height="8.874955868086534" fill="#fee440" opacity="0.37138673916258536" rx="1"/><rect x="1510.3368702786381" y="674.4614031220464" width="4.889129845632503" height="8.874955868086534" fill="#f15bb5" opacity="0.18569336958129268" rx="1"/><rect x="1520.878291199167" y="755.8621234739809" width="8.400666021835214" height="9.40679170456873" fill="#fee440" opacity="0.42837808384289455" rx="1"/><rect x="1508.5811021905367" y="760.5655193262653" width="8.400666021835214" height="9.40679170456873" fill="#f15bb5" opacity="0.21418904192144728" rx="1"/><rect x="1597.6844682498863" y="615.7418692055488" width="86.90725883396976" height="215.95845255440997" fill="#00a1df" opacity="0.6402402808052116" rx="2"/><rect x="1637.8652572225762" y="625.7418692055488" width="6.545680888589863" height="8.833760118771753" fill="#fee440" opacity="0.5075630258087914" rx="1"/><rect x="1616.1384425140839" y="630.1587492649347" width="6.545680888589863" height="8.833760118771753" fill="#f15bb5" opacity="0.2537815129043957" rx="1"/><rect x="1638.2960780053454" y="661.7349446312838" width="5.684039323051469" height="8.14017070879698" fill="#fee440" opacity="0.4859715606984616" rx="1"/><rect x="1616.569263296853" y="665.8050299856824" width="5.684039323051469" height="8.14017070879698" fill="#f15bb5" opacity="0.2429857803492308" rx="1"/><rect x="1639.106013785776" y="697.7280200570189" width="4.064167762190142" height="9.176582786062868" fill="#fee440" opacity="0.14936510872779535" rx="1"/><rect x="1617.3791990772836" y="702.3163114500503" width="4.064167762190142" height="9.176582786062868" fill="#f15bb5" opacity="0.07468255436389767" rx="1"/><rect x="1635.9207377749606" y="733.7210954827538" width="10.434719783820846" height="9.987251158800733" fill="#fee440" opacity="0.4014165763280859" rx="1"/><rect x="1614.1939230664682" y="738.7147210621541" width="10.434719783820846" height="9.987251158800733" fill="#f15bb5" opacity="0.20070828816404296" rx="1"/><rect x="1638.5288236174397" y="769.7141709084888" width="5.218548098862764" height="7.574908494384705" fill="#fee440" opacity="0.4959120524572004" rx="1"/><rect x="1616.8020089089473" y="773.5016251556812" width="5.218548098862764" height="7.574908494384705" fill="#f15bb5" opacity="0.2479560262286002" rx="1"/><rect x="1636.170033523789" y="805.7072463342238" width="9.936128286164283" height="8.406866321900596" fill="#fee440" opacity="0.2892615306864636" rx="1"/><rect x="1614.4432188152966" y="809.9106794951741" width="9.936128286164283" height="8.406866321900596" fill="#f15bb5" opacity="0.1446307653432318" rx="1"/><rect x="1662.4774114454685" y="614.4652301246451" width="78.5122176978067" height="217.2350916353136" fill="#00bbf9" opacity="0.6200204980839092" rx="2"/><rect x="1696.4845981877368" y="624.4652301246451" width="10.497844213270081" height="9.117211795206464" fill="#fee440" opacity="0.23570814140506743" rx="1"/><rect x="1676.8565437632851" y="629.0238360222484" width="10.497844213270081" height="9.117211795206464" fill="#f15bb5" opacity="0.11785407070253372" rx="1"/><rect x="1695.8654227292657" y="667.9122484517079" width="11.736195130212277" height="8.04958218383826" fill="#fee440" opacity="0.5574064459785368" rx="1"/><rect x="1676.237368304814" y="671.9370395436271" width="11.736195130212277" height="8.04958218383826" fill="#f15bb5" opacity="0.2787032229892684" rx="1"/><rect x="1699.593322546952" y="711.3592667787706" width="4.280395494839269" height="6.392156961465291" fill="#fee440" opacity="0.34096913070906165" rx="1"/><rect x="1679.9652681225004" y="714.5553452595033" width="4.280395494839269" height="6.392156961465291" fill="#f15bb5" opacity="0.17048456535453083" rx="1"/><rect x="1698.9898532718735" y="754.8062851058332" width="5.487334044996494" height="8.719109780788214" fill="#fee440" opacity="0.5380913299829911" rx="1"/><rect x="1679.3617988474218" y="759.1658399962273" width="5.487334044996494" height="8.719109780788214" fill="#f15bb5" opacity="0.26904566499149557" rx="1"/><rect x="1696.644141229845" y="798.253303432896" width="10.17875812905346" height="8.984333920056077" fill="#fee440" opacity="0.30153575663024923" rx="1"/><rect x="1677.0160868053933" y="802.7454703929241" width="10.17875812905346" height="8.984333920056077" fill="#f15bb5" opacity="0.15076787831512461" rx="1"/><rect x="1775.0322479199144" y="512.9820974108255" width="72.20146930362132" height="318.71822434913327" fill="#00bbf9" opacity="0.6064536625534421" rx="2"/><rect x="1806.422168999395" y="522.9820974108255" width="9.421627144660249" height="8.621091478183189" fill="#fee440" opacity="0.3645702819024609" rx="1"/><rect x="1788.3718016734897" y="527.2926431499171" width="9.421627144660249" height="8.621091478183189" fill="#f15bb5" opacity="0.18228514095123044" rx="1"/><rect x="1808.6641584765232" y="562.8218754544672" width="4.937648190403741" height="6.409742817378078" fill="#fee440" opacity="0.3652003432775849" rx="1"/><rect x="1790.613791150618" y="566.0267468631563" width="4.937648190403741" height="6.409742817378078" fill="#f15bb5" opacity="0.18260017163879244" rx="1"/><rect x="1807.2507725671435" y="602.6616534981089" width="7.764420009163306" height="7.735316324451779" fill="#fee440" opacity="0.5480730399834163" rx="1"/><rect x="1789.2004052412383" y="606.5293116603348" width="7.764420009163306" height="7.735316324451779" fill="#f15bb5" opacity="0.27403651999170814" rx="1"/><rect x="1806.1016482928455" y="642.5014315417505" width="10.062668557759064" height="8.101667762292006" fill="#fee440" opacity="0.1236152769121377" rx="1"/><rect x="1788.0512809669403" y="646.5522654228965" width="10.062668557759064" height="8.101667762292006" fill="#f15bb5" opacity="0.06180763845606885" rx="1"/><rect x="1805.4340639870609" y="682.3412095853921" width="11.397837169328202" height="6.086411469636115" fill="#fee440" opacity="0.25786684878586486" rx="1"/><rect x="1787.3836966611557" y="685.3844153202101" width="11.397837169328202" height="6.086411469636115" fill="#f15bb5" opacity="0.12893342439293243" rx="1"/><rect x="1807.6883918845683" y="722.1809876290338" width="6.889181374313585" height="9.863323909198709" fill="#fee440" opacity="0.30350101851008393" rx="1"/><rect x="1789.6380245586631" y="727.1126495836331" width="6.889181374313585" height="9.863323909198709" fill="#f15bb5" opacity="0.15175050925504197" rx="1"/><rect x="1807.7591160161242" y="762.0207656726755" width="6.747733111201724" height="9.646043617195925" fill="#fee440" opacity="0.44745710467627675" rx="1"/><rect x="1789.708748690219" y="766.8437874812735" width="6.747733111201724" height="9.646043617195925" fill="#f15bb5" opacity="0.22372855233813838" rx="1"/><rect x="1805.525177437088" y="801.8605437163171" width="11.215610269274471" height="7.107156928886463" fill="#fee440" opacity="0.1060849449378636" rx="1"/><rect x="1787.4748101111827" y="805.4141221807604" width="11.215610269274471" height="7.107156928886463" fill="#f15bb5" opacity="0.0530424724689318" rx="1"/><rect x="1836.8815790524388" y="512.4966253322774" width="53.09977137555829" height="319.2036964276814" fill="#00a1df" opacity="0.5929058552703136" rx="2"/><rect x="1860.5717168552228" y="522.4966253322774" width="5.719495769990491" height="6.2091453653315885" fill="#fee440" opacity="0.5657682627359797" rx="1"/><rect x="1847.2967740113334" y="525.6011980149432" width="5.719495769990491" height="6.2091453653315885" fill="#f15bb5" opacity="0.28288413136798984" rx="1"/><rect x="1857.9110495152634" y="586.3373646178137" width="11.040830449909166" height="6.457311333263598" fill="#fee440" opacity="0.566875446370541" rx="1"/><rect x="1844.636106671374" y="589.5660202844455" width="11.040830449909166" height="6.457311333263598" fill="#f15bb5" opacity="0.2834377231852705" rx="1"/><rect x="1859.4438773492877" y="650.17810390335" width="7.975174781860591" height="7.963261928866445" fill="#fee440" opacity="0.169576508731017" rx="1"/><rect x="1846.1689345053983" y="654.1597348677832" width="7.975174781860591" height="7.963261928866445" fill="#f15bb5" opacity="0.0847882543655085" rx="1"/><rect x="1859.5253207494288" y="714.0188431888862" width="7.812287981578216" height="7.8675006483373" fill="#fee440" opacity="0.3324036097229467" rx="1"/><rect x="1846.2503779055394" y="717.9525935130548" width="7.812287981578216" height="7.8675006483373" fill="#f15bb5" opacity="0.16620180486147335" rx="1"/><rect x="1859.738045318732" y="777.8595824744225" width="7.386838842971912" height="6.235914775225314" fill="#fee440" opacity="0.35947837165079044" rx="1"/><rect x="1846.4631024748426" y="780.9775398620352" width="7.386838842971912" height="6.235914775225314" fill="#f15bb5" opacity="0.17973918582539522" rx="1"/><path d="M971.6232640323284 818.9425395612936 Q985.3999891703484 734.3041824140363 988.1553341979524 649.6658252667789" stroke="#006eac" stroke-width="7.91255313807925" fill="none" stroke-linecap="round"/><path d="M988.1553341979524 649.6658252667789 Q1022.4398409476132 629.6658252667789 1019.0738952553538 649.6658252667789" stroke="#0088c6" stroke-width="2.294599867960112" fill="none" stroke-linecap="round" opacity="0.6"/><path d="M988.1553341979524 649.6658252667789 Q1004.0373966693327 633.9015615829694 1010.6745808278503 658.1372978991599" stroke="#0088c6" stroke-width="3.332940680750865" fill="none" stroke-linecap="round" opacity="0.6"/><path d="M988.1553341979524 649.6658252667789 Q986.6609574850065 639.4241345654142 973.3068647413243 669.1824438640494" stroke="#0088c6" stroke-width="3.0549660909583247" fill="none" stroke-linecap="round" opacity="0.6"/><path d="M988.1553341979524 649.6658252667789 Q981.4604158684979 631.758927015004 959.17953042867 653.8520287632291" stroke="#0088c6" stroke-width="2.784246201343892" fill="none" stroke-linecap="round" opacity="0.6"/><path d="M988.1553341979524 649.6658252667789 Q967.8826620324455 625.976281109398 937.0792182886186 642.286736952017" stroke="#0088c6" stroke-width="3.437797997015947" fill="none" stroke-linecap="round" opacity="0.6"/><path d="M988.1553341979524 649.6658252667789 Q988.6045313930024 622.2122425828181 976.8137901416758 634.7586598988572" stroke="#0088c6" stroke-width="2.8204794229987264" fill="none" stroke-linecap="round" opacity="0.6"/><path d="M455.388360874585 943.2320571139529 Q462.98319459030944 828.870147706212 464.50216133345435 714.5082382984712" stroke="#006eac" stroke-width="7.439442001152654" fill="none" stroke-linecap="round"/><path d="M464.50216133345435 714.5082382984712 Q497.1751695257088 694.5082382984712 523.5948273114848 714.5082382984712" stroke="#0088c6" stroke-width="2.8832804409049637" fill="none" stroke-linecap="round" opacity="0.6"/><path d="M464.50216133345435 714.5082382984712 Q497.9915912174251 702.1148072170768 504.9424032887076 729.7213761356824" stroke="#0088c6" stroke-width="2.2355095502537465" fill="none" stroke-linecap="round" opacity="0.6"/><path d="M464.50216133345435 714.5082382984712 Q469.9160751696618 699.3268299312356 457.17008069392466 724.145421564" stroke="#0088c6" stroke-width="2.8858492069146244" fill="none" stroke-linecap="round" opacity="0.6"/><path d="M464.50216133345435 714.5082382984712 Q453.63002566922137 697.4260631067145 424.1093236950091 720.3438879149578" stroke="#0088c6" stroke-width="3.922199416887527" fill="none" stroke-linecap="round" opacity="0.6"/><path d="M464.50216133345435 714.5082382984712 Q450.7693295336074 690.6387123604386 410.9344719673453 706.7691864224059" stroke="#0088c6" stroke-width="3.2351313254877763" fill="none" stroke-linecap="round" opacity="0.6"/><rect x="0" y="1000" width="1920" height="80" fill="#0095d3" opacity="0.8"/><line x1="0" y1="1040" x2="1920" y2="1040" stroke="#fee440" stroke-opacity="0.15" stroke-width="2" stroke-dasharray="30,20"/><rect x="0" y="930" width="1920" height="150" fill="url(#glow99)"/><text x="1900" y="1060" font-family="Arial, sans-serif" font-size="11" fill="#fff" opacity="0.08" text-anchor="end" letter-spacing="2">GTA 6 REWARDS · WALLPAPER 100</text>
</svg>