<?xml version="1.0" encoding="UTF-8"?>
<svg xmlns="http://www.w3.org/2000/svg" width="1920" height="1080" viewBox="0 0 1920 1080">
<defs>
    <linearGradient id="bg34" x1="0%" y1="0%" x2="0%" y2="100%">
      <stop offset="0%" stop-color="#003566"/>
      <stop offset="50%" stop-color="#000233"/>
      <stop offset="100%" stop-color="#003566"/>
    </linearGradient>
    <linearGradient id="sun34" x1="0%" y1="0%" x2="100%" y2="100%">
      <stop offset="0%" stop-color="#ffd60a"/>
      <stop offset="100%" stop-color="#ffc300"/>
    </linearGradient>
    <radialGradient id="glow34" cx="50%" cy="70%" r="50%">
      <stop offset="0%" stop-color="#ffd60a" stop-opacity="0.3"/>
      <stop offset="100%" stop-color="#003566" stop-opacity="0"/>
    </radialGradient>
  </defs><rect width="1920" height="1080" fill="url(#bg34)"/><circle cx="1288.2671436733258" cy="246.25508274097348" r="711.7828686981887" fill="#ffd60a" opacity="0.06365711337739069"/><circle cx="1488.2671436733258" cy="146.25508274097348" r="553.9697006237623" fill="#ffc300" opacity="0.0858512659826901"/><circle cx="545.7853770455777" cy="243.50880859268568" r="90.16456201443555" fill="url(#sun34)" opacity="0.8947712291718393"/><circle cx="545.7853770455777" cy="243.50880859268568" r="85.16456201443555" fill="#003566" opacity="0.3"/><rect x="0.502711509005798" y="600.005375070033" width="60.59853567522916" height="359.1113404974135" fill="#001b4c" opacity="0.4711792888285544" rx="2"/><rect x="27.87552498767048" y="610.005375070033" width="5.852908717899795" height="6.472139708807725" fill="#ffc300" opacity="0.5657353128925281" rx="1"/><rect x="12.72589106886319" y="613.2414449244368" width="5.852908717899795" height="6.472139708807725" fill="#ffd60a" opacity="0.28286765644626405" rx="1"/><rect x="28.746321411278636" y="699.7832101943864" width="4.111315870683481" height="7.9997577075845925" fill="#ffc300" opacity="0.38928758688021625" rx="1"/><rect x="13.596687492471347" y="703.7830890481787" width="4.111315870683481" height="7.9997577075845925" fill="#ffd60a" opacity="0.19464379344010813" rx="1"/><rect x="27.797621251269618" y="789.5610453187397" width="6.008716190701517" height="7.8321313582901215" fill="#ffc300" opacity="0.282010166622235" rx="1"/><rect x="12.647987332462328" y="793.4771109978848" width="6.008716190701517" height="7.8321313582901215" fill="#ffd60a" opacity="0.1410050833111175" rx="1"/><rect x="26.044587407038684" y="879.3388804430931" width="9.514783879163392" height="9.893823246446862" fill="#ffc300" opacity="0.5679789491854559" rx="1"/><rect x="10.89495348823139" y="884.2857920663165" width="9.514783879163392" height="9.893823246446862" fill="#ffd60a" opacity="0.28398947459272794" rx="1"/><rect x="139.51122401969303" y="705.9098733486397" width="87.50853131932871" height="253.2068422188067" fill="#001b4c" opacity="0.6214514893529591" rx="2"/><rect x="179.56847296668414" y="715.9098733486397" width="7.394033425346491" height="9.655252397911449" fill="#ffc300" opacity="0.584009158793839" rx="1"/><rect x="157.69134013685198" y="720.7374995475955" width="7.394033425346491" height="9.655252397911449" fill="#ffd60a" opacity="0.2920045793969195" rx="1"/><rect x="179.64104133579906" y="752.0822793798978" width="7.248896687116683" height="9.448073821945133" fill="#ffc300" opacity="0.2289797176441596" rx="1"/><rect x="157.7639085059669" y="756.8063162908704" width="7.248896687116683" height="9.448073821945133" fill="#ffd60a" opacity="0.1144898588220798" rx="1"/><rect x="178.48802428866924" y="788.254685411156" width="9.5549307813763" height="7.100223119626805" fill="#ffc300" opacity="0.4959065645225128" rx="1"/><rect x="156.61089145883707" y="791.8047969709694" width="9.5549307813763" height="7.100223119626805" fill="#ffd60a" opacity="0.2479532822612564" rx="1"/><rect x="177.5560622454053" y="824.427091442414" width="11.41885486790418" height="7.216646869950147" fill="#ffc300" opacity="0.2190959090877082" rx="1"/><rect x="155.67892941557312" y="828.0354148773891" width="11.41885486790418" height="7.216646869950147" fill="#ffd60a" opacity="0.1095479545438541" rx="1"/><rect x="179.50062648777399" y="860.5994974736722" width="7.529726383166789" height="7.464015393858779" fill="#ffc300" opacity="0.14430407612684742" rx="1"/><rect x="157.62349365794182" y="864.3315051706015" width="7.529726383166789" height="7.464015393858779" fill="#ffd60a" opacity="0.07215203806342371" rx="1"/><rect x="178.43088936792475" y="896.7719035049303" width="9.66920062286528" height="6.497398576815007" fill="#ffc300" opacity="0.5127567693155158" rx="1"/><rect x="156.55375653809259" y="900.0206027933377" width="9.66920062286528" height="6.497398576815007" fill="#ffd60a" opacity="0.2563783846577579" rx="1"/><rect x="179.891254655293" y="932.9443095361883" width="6.748470048128737" height="6.049756512057445" fill="#ffc300" opacity="0.21186982589118877" rx="1"/><rect x="158.01412182546085" y="935.969187792217" width="6.748470048128737" height="6.049756512057445" fill="#ffd60a" opacity="0.10593491294559439" rx="1"/><rect x="265.16872700191306" y="835.8925611912023" width="52.38286299220819" height="123.2241543762442" fill="#003566" opacity="0.6747164067753396" rx="2"/><rect x="286.3064352793867" y="845.8925611912023" width="10.107446437260938" height="8.204972224823425" fill="#ffc300" opacity="0.46395868516153627" rx="1"/><rect x="273.21071953133463" y="849.995047303614" width="10.107446437260938" height="8.204972224823425" fill="#ffd60a" opacity="0.23197934258076813" rx="1"/><rect x="288.5316856348728" y="861.2955804882328" width="5.656945726288702" height="7.6952693056537" fill="#ffc300" opacity="0.35778124021780244" rx="1"/><rect x="275.43596988682077" y="865.1432151410596" width="5.656945726288702" height="7.6952693056537" fill="#ffd60a" opacity="0.17889062010890122" rx="1"/><rect x="287.92398834156893" y="876.6985997852634" width="6.872340312896376" height="6.401899557654257" fill="#ffc300" opacity="0.49090827663683057" rx="1"/><rect x="274.8282725935169" y="879.8995495640905" width="6.872340312896376" height="6.401899557654257" fill="#ffd60a" opacity="0.24545413831841528" rx="1"/><rect x="287.9376638952963" y="892.1016190822938" width="6.844989205441668" height="8.33922083171532" fill="#ffc300" opacity="0.2643729616572086" rx="1"/><rect x="274.84194814724424" y="896.2712294981515" width="6.844989205441668" height="8.33922083171532" fill="#ffd60a" opacity="0.1321864808286043" rx="1"/><rect x="287.9603580210731" y="907.5046383793244" width="6.799600953888055" height="7.3065391008990215" fill="#ffc300" opacity="0.11715537044619102" rx="1"/><rect x="274.86464227302105" y="911.157907929774" width="6.799600953888055" height="7.3065391008990215" fill="#ffd60a" opacity="0.05857768522309551" rx="1"/><rect x="285.70018860015557" y="922.9076576763549" width="11.31993979572317" height="6.891926289743727" fill="#ffc300" opacity="0.4933253300826357" rx="1"/><rect x="272.6044728521035" y="926.3536208212267" width="11.31993979572317" height="6.891926289743727" fill="#ffd60a" opacity="0.24666266504131784" rx="1"/><rect x="287.5143965130007" y="938.3106769733854" width="7.691523970032931" height="9.2112706050303" fill="#ffc300" opacity="0.3756855007670088" rx="1"/><rect x="274.41868076494865" y="942.9163122759005" width="7.691523970032931" height="9.2112706050303" fill="#ffd60a" opacity="0.1878427503835044" rx="1"/><rect x="286.2345518533221" y="953.713696270416" width="10.251213289390135" height="8.004606864881843" fill="#ffc300" opacity="0.2783013529326537" rx="1"/><rect x="273.13883610527006" y="957.715999702857" width="10.251213289390135" height="8.004606864881843" fill="#ffd60a" opacity="0.13915067646632684" rx="1"/><rect x="411.49531921173804" y="691.218094490752" width="82.95067051261447" height="267.8986210766944" fill="#001b4c" opacity="0.6239998527159913" rx="2"/><rect x="447.96040438044827" y="701.218094490752" width="10.020500175194" height="9.156782873709869" fill="#ffc300" opacity="0.12485165454560232" rx="1"/><rect x="427.2227367522946" y="705.796485927607" width="10.020500175194" height="9.156782873709869" fill="#ffd60a" opacity="0.06242582727280116" rx="1"/><rect x="447.83517798521444" y="745.8678646702011" width="10.270952965661639" height="8.40894537382036" fill="#ffc300" opacity="0.1506779091783515" rx="1"/><rect x="427.0975103570608" y="750.0723373571113" width="10.270952965661639" height="8.40894537382036" fill="#ffd60a" opacity="0.07533895458917575" rx="1"/><rect x="447.47544425923275" y="790.5176348496502" width="10.990420417625089" height="8.914250651121664" fill="#ffc300" opacity="0.45839735410604565" rx="1"/><rect x="426.7377766310791" y="794.974760175211" width="10.990420417625089" height="8.914250651121664" fill="#ffd60a" opacity="0.22919867705302283" rx="1"/><rect x="447.05143259932555" y="835.1674050290992" width="11.838443737439448" height="6.6144900798365684" fill="#ffc300" opacity="0.5764673303525121" rx="1"/><rect x="426.3137649711719" y="838.4746500690175" width="11.838443737439448" height="6.6144900798365684" fill="#ffd60a" opacity="0.28823366517625604" rx="1"/><rect x="447.7794774902937" y="879.8171752085483" width="10.38235395550317" height="9.044601357319532" fill="#ffc300" opacity="0.1661852616039536" rx="1"/><rect x="427.04180986214004" y="884.3394758872081" width="10.38235395550317" height="9.044601357319532" fill="#ffd60a" opacity="0.0830926308019768" rx="1"/><rect x="450.33938755917814" y="924.4669453879974" width="5.262533817734228" height="7.2101227466971896" fill="#ffc300" opacity="0.5679579709116271" rx="1"/><rect x="429.6017199310245" y="928.072006761346" width="5.262533817734228" height="7.2101227466971896" fill="#ffd60a" opacity="0.28397898545581357" rx="1"/><rect x="526.1812667516482" y="820.1862604520718" width="88.05697357702465" height="138.93045511537474" fill="#003566" opacity="0.5034263115617043" rx="2"/><rect x="565.0154866147822" y="830.1862604520718" width="10.388533850756598" height="6.138230899381039" fill="#ffc300" opacity="0.4713889750352569" rx="1"/><rect x="543.001243220526" y="833.2553759017624" width="10.388533850756598" height="6.138230899381039" fill="#ffd60a" opacity="0.23569448751762845" rx="1"/><rect x="567.6470203042605" y="847.5525673414936" width="5.1254664717999905" height="8.371025370985974" fill="#ffc300" opacity="0.4710003753358033" rx="1"/><rect x="545.6327769100044" y="851.7380800269866" width="5.1254664717999905" height="8.371025370985974" fill="#ffd60a" opacity="0.23550018766790165" rx="1"/><rect x="568.1002024195856" y="864.9188742309154" width="4.219102241149894" height="9.901601331285574" fill="#ffc300" opacity="0.5789032903450781" rx="1"/><rect x="546.0859590253294" y="869.8696748965582" width="4.219102241149894" height="9.901601331285574" fill="#ffd60a" opacity="0.2894516451725391" rx="1"/><rect x="564.9050156231748" y="882.2851811203374" width="10.609475833971397" height="9.758236058000065" fill="#ffc300" opacity="0.507469104255426" rx="1"/><rect x="542.8907722289186" y="887.1642991493374" width="10.609475833971397" height="9.758236058000065" fill="#ffd60a" opacity="0.253734552127713" rx="1"/><rect x="567.1953659025476" y="899.6514880097592" width="6.028775275225932" height="6.464595934484293" fill="#ffc300" opacity="0.5547420093917153" rx="1"/><rect x="545.1811225082914" y="902.8837859770014" width="6.028775275225932" height="6.464595934484293" fill="#ffd60a" opacity="0.2773710046958576" rx="1"/><rect x="567.5260088971178" y="917.017794899181" width="5.367489286085472" height="6.892045167482468" fill="#ffc300" opacity="0.25909737445393055" rx="1"/><rect x="545.5117655028616" y="920.4638174829222" width="5.367489286085472" height="6.892045167482468" fill="#ffd60a" opacity="0.12954868722696528" rx="1"/><rect x="565.9902661091159" y="934.3841017886028" width="8.438974862089143" height="6.200239455374014" fill="#ffc300" opacity="0.44292163323679046" rx="1"/><rect x="543.9760227148597" y="937.4842215162898" width="8.438974862089143" height="6.200239455374014" fill="#ffd60a" opacity="0.22146081661839523" rx="1"/><rect x="567.0904685971537" y="951.7504086780247" width="6.238569886013533" height="6.946488229778243" fill="#ffc300" opacity="0.11212042174584243" rx="1"/><rect x="545.0762252028976" y="955.2236527929138" width="6.238569886013533" height="6.946488229778243" fill="#ffd60a" opacity="0.056060210872921214" rx="1"/><rect x="644.8266012256096" y="766.3478645999794" width="79.63953357879993" height="192.76885096746702" fill="#003566" opacity="0.5198477593529616" rx="2"/><rect x="680.7694100932613" y="776.3478645999794" width="7.753915843496545" height="6.35542038557013" fill="#ffc300" opacity="0.5534829889781501" rx="1"/><rect x="660.8595266985612" y="779.5255747927645" width="7.753915843496545" height="6.35542038557013" fill="#ffd60a" opacity="0.27674149448907504" rx="1"/><rect x="682.5139284044304" y="840.6041482558018" width="4.264879221158306" height="6.945153408903897" fill="#ffc300" opacity="0.2734062040162753" rx="1"/><rect x="662.6040450097304" y="844.0767249602537" width="4.264879221158306" height="6.945153408903897" fill="#ffd60a" opacity="0.13670310200813765" rx="1"/><rect x="679.2188661615874" y="904.8604319116241" width="10.855003706844292" height="8.828751813347626" fill="#ffc300" opacity="0.13219303687386985" rx="1"/><rect x="659.3089827668873" y="909.274807818298" width="10.855003706844292" height="8.828751813347626" fill="#ffd60a" opacity="0.06609651843693493" rx="1"/><rect x="782.7383801650112" y="630.3111106111461" width="51.05205812515972" height="328.8056049563004" fill="#001b4c" opacity="0.526827643794666" rx="2"/><rect x="806.1271180690096" y="640.3111106111461" width="4.274582317162906" height="6.101912880340105" fill="#ffc300" opacity="0.12599807538231791" rx="1"/><rect x="793.3641035377198" y="643.3620670513161" width="4.274582317162906" height="6.101912880340105" fill="#ffd60a" opacity="0.06299903769115896" rx="1"/><rect x="802.3685566842016" y="706.0722316024062" width="11.79170508677878" height="6.974757198471287" fill="#ffc300" opacity="0.4899086769413922" rx="1"/><rect x="789.6055421529118" y="709.5596102016418" width="11.79170508677878" height="6.974757198471287" fill="#ffd60a" opacity="0.2449543384706961" rx="1"/><rect x="802.2761150936773" y="771.8333525936662" width="11.976588267827545" height="9.179991734954527" fill="#ffc300" opacity="0.2195071840471372" rx="1"/><rect x="789.5131005623874" y="776.4233484611434" width="11.976588267827545" height="9.179991734954527" fill="#ffd60a" opacity="0.1097535920235686" rx="1"/><rect x="804.6075962874124" y="837.5944735849263" width="7.3136258803572565" height="8.305493107602349" fill="#ffc300" opacity="0.32781636128849734" rx="1"/><rect x="791.8445817561226" y="841.7472201387275" width="7.3136258803572565" height="8.305493107602349" fill="#ffd60a" opacity="0.16390818064424867" rx="1"/><rect x="805.9753863813763" y="903.3555945761864" width="4.578045692429423" height="6.734428206629685" fill="#ffc300" opacity="0.3617103707188998" rx="1"/><rect x="793.2123718500865" y="906.7228086795012" width="4.578045692429423" height="6.734428206629685" fill="#ffd60a" opacity="0.1808551853594499" rx="1"/><rect x="918.0554093183147" y="719.7310630394451" width="75.58894654400389" height="239.38565252800137" fill="#003566" opacity="0.5810263428792884" rx="2"/><rect x="953.1182738836198" y="729.7310630394451" width="5.463217413393599" height="8.484936638382482" fill="#ffc300" opacity="0.3736233948435689" rx="1"/><rect x="934.2210372476189" y="733.9735313586364" width="5.463217413393599" height="8.484936638382482" fill="#ffd60a" opacity="0.18681169742178444" rx="1"/><rect x="952.2160550135225" y="759.6542696054453" width="7.267655153588311" height="8.314161683971566" fill="#ffc300" opacity="0.23672678687999182" rx="1"/><rect x="933.3188183775216" y="763.8113504474311" width="7.267655153588311" height="8.314161683971566" fill="#ffd60a" opacity="0.11836339343999591" rx="1"/><rect x="951.8716782212424" y="789.5774761714454" width="7.956408738148494" height="6.374583160591913" fill="#ffc300" opacity="0.5332213650767741" rx="1"/><rect x="932.9744415852415" y="792.7647677517414" width="7.956408738148494" height="6.374583160591913" fill="#ffd60a" opacity="0.26661068253838704" rx="1"/><rect x="950.5496894734794" y="819.5006827374456" width="10.600386233674453" height="9.294064316734222" fill="#ffc300" opacity="0.4288251116938947" rx="1"/><rect x="931.6524528374784" y="824.1477148958127" width="10.600386233674453" height="9.294064316734222" fill="#ffd60a" opacity="0.21441255584694735" rx="1"/><rect x="951.654196043651" y="849.4238893034458" width="8.391373093331087" height="7.338644631518667" fill="#ffc300" opacity="0.12621342975790925" rx="1"/><rect x="932.7569594076501" y="853.0932116192051" width="8.391373093331087" height="7.338644631518667" fill="#ffd60a" opacity="0.06310671487895463" rx="1"/><rect x="952.900253311242" y="879.3470958694459" width="5.899258558149277" height="8.259638485093516" fill="#ffc300" opacity="0.12134684438848561" rx="1"/><rect x="934.003016675241" y="883.4769151119926" width="5.899258558149277" height="8.259638485093516" fill="#ffd60a" opacity="0.06067342219424281" rx="1"/><rect x="952.6232398482093" y="909.2703024354461" width="6.453285484214613" height="6.675392454647318" fill="#ffc300" opacity="0.31086799043949415" rx="1"/><rect x="933.7260032122084" y="912.6079986627698" width="6.453285484214613" height="6.675392454647318" fill="#ffd60a" opacity="0.15543399521974707" rx="1"/><rect x="952.3679587900098" y="939.1935090014463" width="6.963847600613685" height="6.975431526306885" fill="#ffc300" opacity="0.4800686523039054" rx="1"/><rect x="933.4707221540089" y="942.6812247645997" width="6.963847600613685" height="6.975431526306885" fill="#ffd60a" opacity="0.2400343261519527" rx="1"/><rect x="1051.706137787948" y="652.1024917257257" width="30.82816081140846" height="307.01422384172076" fill="#001b4c" opacity="0.49256709716109726" rx="2"/><rect x="1063.8259763542624" y="662.1024917257257" width="6.588483678779678" height="6.568257235122904" fill="#ffc300" opacity="0.4650427732768102" rx="1"/><rect x="1056.1189361514103" y="665.3866203432872" width="6.588483678779678" height="6.568257235122904" fill="#ffd60a" opacity="0.2325213866384051" rx="1"/><rect x="1064.8962257266735" y="705.9616665602573" width="4.447984933957454" height="7.292592458727907" fill="#ffc300" opacity="0.35042114924882095" rx="1"/><rect x="1057.1891855238214" y="709.6079627896213" width="4.447984933957454" height="7.292592458727907" fill="#ffd60a" opacity="0.17521057462441048" rx="1"/><rect x="1062.5741912749536" y="749.8208413947888" width="9.092053837397149" height="9.700717339222486" fill="#ffc300" opacity="0.19014770763231156" rx="1"/><rect x="1054.8671510721015" y="754.6712000644001" width="9.092053837397149" height="9.700717339222486" fill="#ffd60a" opacity="0.09507385381615578" rx="1"/><rect x="1064.7508788057023" y="793.6800162293204" width="4.738678775899736" height="6.736480524003618" fill="#ffc300" opacity="0.3970332712393797" rx="1"/><rect x="1057.0438386028502" y="797.0482564913221" width="4.738678775899736" height="6.736480524003618" fill="#ffd60a" opacity="0.19851663561968985" rx="1"/><rect x="1065.0763332206002" y="837.5391910638518" width="4.087769946103862" height="6.802110084519281" fill="#ffc300" opacity="0.22830639284297508" rx="1"/><rect x="1057.369293017748" y="840.9402461061114" width="4.087769946103862" height="6.802110084519281" fill="#ffd60a" opacity="0.11415319642148754" rx="1"/><rect x="1063.536899484819" y="881.3983658983834" width="7.166637417666297" height="7.727449097141495" fill="#ffc300" opacity="0.5001361180330013" rx="1"/><rect x="1055.829859281967" y="885.2620904469542" width="7.166637417666297" height="7.727449097141495" fill="#ffd60a" opacity="0.25006805901650064" rx="1"/><rect x="1064.3650544763927" y="925.257540732915" width="5.510327434518916" height="7.061039448962789" fill="#ffc300" opacity="0.2948196633474016" rx="1"/><rect x="1056.6580142735406" y="928.7880604573965" width="5.510327434518916" height="7.061039448962789" fill="#ffd60a" opacity="0.1474098316737008" rx="1"/><rect x="1154.1709567034084" y="718.2845496731542" width="31.54731296038891" height="240.83216589429233" fill="#001b4c" opacity="0.41337454167971727" rx="2"/><rect x="1164.1986725533377" y="728.2845496731542" width="11.491881260530064" height="6.123673368274158" fill="#ffc300" opacity="0.2750846532348275" rx="1"/><rect x="1156.3118443132405" y="731.3463863572913" width="11.491881260530064" height="6.123673368274158" fill="#ffd60a" opacity="0.13754232661741375" rx="1"/><rect x="1166.6435005975989" y="762.6891448009102" width="6.602225172007975" height="6.804604949616968" fill="#ffc300" opacity="0.16920359483203004" rx="1"/><rect x="1158.7566723575017" y="766.0914472757187" width="6.602225172007975" height="6.804604949616968" fill="#ffd60a" opacity="0.08460179741601502" rx="1"/><rect x="1166.6845762603182" y="797.0937399286663" width="6.520073846569302" height="7.9556809519314395" fill="#ffc300" opacity="0.3631213664457019" rx="1"/><rect x="1158.797748020221" y="801.0715804046321" width="6.520073846569302" height="7.9556809519314395" fill="#ffd60a" opacity="0.18156068322285096" rx="1"/><rect x="1166.8220800258737" y="831.4983350564223" width="6.245066315458404" height="9.810561949343086" fill="#ffc300" opacity="0.20581829960127787" rx="1"/><rect x="1158.9352517857765" y="836.4036160310939" width="6.245066315458404" height="9.810561949343086" fill="#ffd60a" opacity="0.10290914980063894" rx="1"/><rect x="1164.7994629079008" y="865.9029301841783" width="10.290300551403849" height="7.623132673470101" fill="#ffc300" opacity="0.409284094909505" rx="1"/><rect x="1156.9126346678036" y="869.7144965209134" width="10.290300551403849" height="7.623132673470101" fill="#ffd60a" opacity="0.2046420474547525" rx="1"/><rect x="1164.6541781573683" y="900.3075253119343" width="10.580870052469166" height="8.409019871244444" fill="#ffc300" opacity="0.1687269672212952" rx="1"/><rect x="1156.767349917271" y="904.5120352475566" width="10.580870052469166" height="8.409019871244444" fill="#ffd60a" opacity="0.0843634836106476" rx="1"/><rect x="1167.5509915348493" y="934.7121204396905" width="4.787243297506879" height="8.247119783015716" fill="#ffc300" opacity="0.26111268840290436" rx="1"/><rect x="1159.6641632947521" y="938.8356803311983" width="4.787243297506879" height="8.247119783015716" fill="#ffd60a" opacity="0.13055634420145218" rx="1"/><rect x="1283.3904740711187" y="708.5916025002002" width="89.92717221377583" height="250.5251130672463" fill="#003566" opacity="0.5497985196881459" rx="2"/><rect x="1322.392221151244" y="718.5916025002002" width="11.923678053525201" height="7.695052375480312" fill="#ffc300" opacity="0.5195311817851689" rx="1"/><rect x="1299.9104280978" y="722.4391286879404" width="11.923678053525201" height="7.695052375480312" fill="#ffd60a" opacity="0.25976559089258444" rx="1"/><rect x="1323.0080807688666" y="768.6966251136495" width="10.691958818280128" height="6.041372790010966" fill="#ffc300" opacity="0.44622253881446616" rx="1"/><rect x="1300.5262877154225" y="771.7173115086549" width="10.691958818280128" height="6.041372790010966" fill="#ffd60a" opacity="0.22311126940723308" rx="1"/><rect x="1324.9466407401364" y="818.8016477270987" width="6.814838875740496" height="6.505604304490984" fill="#ffc300" opacity="0.18707306047134872" rx="1"/><rect x="1302.4648476866923" y="822.0544498793442" width="6.814838875740496" height="6.505604304490984" fill="#ffd60a" opacity="0.09353653023567436" rx="1"/><rect x="1325.4803565937282" y="868.9066703405481" width="5.747407168556798" height="9.440090163480512" fill="#ffc300" opacity="0.3985736552622574" rx="1"/><rect x="1302.998563540284" y="873.6267154222884" width="5.747407168556798" height="9.440090163480512" fill="#ffd60a" opacity="0.1992868276311287" rx="1"/><rect x="1324.4027731491726" y="919.0116929539972" width="7.902574057668115" height="9.551066292345306" fill="#ffc300" opacity="0.46713083842003966" rx="1"/><rect x="1301.9209800957285" y="923.7872261001698" width="7.902574057668115" height="9.551066292345306" fill="#ffd60a" opacity="0.23356541921001983" rx="1"/><rect x="1433.4264120327837" y="677.0761355122263" width="82.68609843512208" height="282.0405800552202" fill="#003566" opacity="0.5896850998955045" rx="2"/><rect x="1471.979088280578" y="687.0761355122263" width="5.5807459395334" height="9.650610281073165" fill="#ffc300" opacity="0.21562030509012292" rx="1"/><rect x="1451.3075636717977" y="691.9014406527629" width="5.5807459395334" height="9.650610281073165" fill="#ffd60a" opacity="0.10781015254506146" rx="1"/><rect x="1470.9804773190945" y="757.5862805260314" width="7.577967862500336" height="6.202650689567125" fill="#ffc300" opacity="0.28980571620394613" rx="1"/><rect x="1450.308952710314" y="760.687605870815" width="7.577967862500336" height="6.202650689567125" fill="#ffd60a" opacity="0.14490285810197306" rx="1"/><rect x="1469.7740416244544" y="828.0964255398364" width="9.990839251780613" height="6.434687359359741" fill="#ffc300" opacity="0.37387098869631785" rx="1"/><rect x="1449.102517015674" y="831.3137692195163" width="9.990839251780613" height="6.434687359359741" fill="#ffd60a" opacity="0.18693549434815893" rx="1"/><rect x="1472.3327561023955" y="898.6065705536414" width="4.873410295898423" height="9.697386672649856" fill="#ffc300" opacity="0.5515705625413848" rx="1"/><rect x="1451.661231493615" y="903.4552638899663" width="4.873410295898423" height="9.697386672649856" fill="#ffd60a" opacity="0.2757852812706924" rx="1"/><rect x="1544.5704635359743" y="858.0120894145249" width="74.97105829067786" height="101.10462615292161" fill="#003566" opacity="0.5712175053477329" rx="2"/><rect x="1576.4316210410166" y="868.0120894145249" width="11.24874328059348" height="6.5698847073525855" fill="#ffc300" opacity="0.31285423327070994" rx="1"/><rect x="1557.6888564683472" y="871.2970317682012" width="11.24874328059348" height="6.5698847073525855" fill="#ffd60a" opacity="0.15642711663535497" rx="1"/><rect x="1579.2659986424878" y="884.8628604400118" width="5.579988077650775" height="8.982550398209726" fill="#ffc300" opacity="0.46274170395050707" rx="1"/><rect x="1560.5232340698185" y="889.3541356391166" width="5.579988077650775" height="8.982550398209726" fill="#ffd60a" opacity="0.23137085197525353" rx="1"/><rect x="1577.8185872521294" y="901.7136314654988" width="8.474810858367665" height="6.8922934077894995" fill="#ffc300" opacity="0.5668726493760181" rx="1"/><rect x="1559.07582267946" y="905.1597781693936" width="8.474810858367665" height="6.8922934077894995" fill="#ffd60a" opacity="0.28343632468800906" rx="1"/><rect x="1576.9922737320867" y="918.5644024909857" width="10.127437898453195" height="6.799063742346844" fill="#ffc300" opacity="0.485104828254577" rx="1"/><rect x="1558.2495091594174" y="921.9639343621591" width="10.127437898453195" height="6.799063742346844" fill="#ffd60a" opacity="0.2425524141272885" rx="1"/><rect x="1578.034829543213" y="935.4151735164726" width="8.042326276200434" height="6.35357524462826" fill="#ffc300" opacity="0.5151783312939057" rx="1"/><rect x="1559.2920649705436" y="938.5919611387867" width="8.042326276200434" height="6.35357524462826" fill="#ffd60a" opacity="0.25758916564695283" rx="1"/><rect x="1576.2193459605842" y="952.2659445419596" width="11.673293441457975" height="9.809072830669832" fill="#ffc300" opacity="0.1774546867649664" rx="1"/><rect x="1557.4765813879148" y="957.1704809572944" width="11.673293441457975" height="9.809072830669832" fill="#ffd60a" opacity="0.0887273433824832" rx="1"/><rect x="1680.7887242922534" y="631.2078666131031" width="79.9667225242515" height="327.9088489543434" fill="#003566" opacity="0.6783080429253885" rx="2"/><rect x="1716.8548655239529" y="641.2078666131031" width="7.834440060852664" height="7.885259484379846" fill="#ffc300" opacity="0.5258874116758554" rx="1"/><rect x="1696.8631848928899" y="645.1504963552931" width="7.834440060852664" height="7.885259484379846" fill="#ffd60a" opacity="0.2629437058379277" rx="1"/><rect x="1717.2917745738039" y="695.859341438827" width="6.960621961150464" height="6.758771479306456" fill="#ffc300" opacity="0.4821815044810487" rx="1"/><rect x="1697.300093942741" y="699.2387271784802" width="6.960621961150464" height="6.758771479306456" fill="#ffd60a" opacity="0.24109075224052434" rx="1"/><rect x="1715.1032255296836" y="750.5108162645508" width="11.33772004939097" height="6.511769259467667" fill="#ffc300" opacity="0.2505240302417716" rx="1"/><rect x="1695.1115448986207" y="753.7667008942847" width="11.33772004939097" height="6.511769259467667" fill="#ffd60a" opacity="0.1252620151208858" rx="1"/><rect x="1715.225866493356" y="805.1622910902747" width="11.092438122046282" height="8.903741571796997" fill="#ffc300" opacity="0.47161204495271947" rx="1"/><rect x="1695.234185862293" y="809.6141618761732" width="11.092438122046282" height="8.903741571796997" fill="#ffd60a" opacity="0.23580602247635973" rx="1"/><rect x="1717.8227211192304" y="859.8137659159987" width="5.898728870297486" height="7.80107260630491" fill="#ffc300" opacity="0.42522743063169244" rx="1"/><rect x="1697.8310404881674" y="863.7143022191511" width="5.898728870297486" height="7.80107260630491" fill="#ffd60a" opacity="0.21261371531584622" rx="1"/><rect x="1716.8403470469268" y="914.4652407417226" width="7.863477014904721" height="6.433579619143526" fill="#ffc300" opacity="0.4585132063269879" rx="1"/><rect x="1696.8486664158638" y="917.6820305512944" width="7.863477014904721" height="6.433579619143526" fill="#ffd60a" opacity="0.22925660316349394" rx="1"/><rect x="1820.1370460307544" y="692.7279969078321" width="54.82065298706774" height="266.38871865961437" fill="#003566" opacity="0.4642385607967709" rx="2"/><rect x="1845.410994734245" y="702.7279969078321" width="4.272755580086437" height="9.84173544120084" fill="#ffc300" opacity="0.24533277674236634" rx="1"/><rect x="1831.705831487478" y="707.6488646284325" width="4.272755580086437" height="9.84173544120084" fill="#ffd60a" opacity="0.12266638837118317" rx="1"/><rect x="1842.287374152636" y="769.3251765727357" width="10.519996743304654" height="9.887453839156649" fill="#ffc300" opacity="0.37451188449620076" rx="1"/><rect x="1828.582210905869" y="774.268903492314" width="10.519996743304654" height="9.887453839156649" fill="#ffd60a" opacity="0.18725594224810038" rx="1"/><rect x="1842.0491194676256" y="835.9223562376393" width="10.996506113325363" height="8.522138804784543" fill="#ffc300" opacity="0.12428749483644205" rx="1"/><rect x="1828.3439562208587" y="840.1834256400316" width="10.996506113325363" height="8.522138804784543" fill="#ffd60a" opacity="0.062143747418221026" rx="1"/><rect x="1844.758965527117" y="902.5195359025429" width="5.5768139943426505" height="8.037392172505472" fill="#ffc300" opacity="0.5986678927668063" rx="1"/><rect x="1831.05380228035" y="906.5382319887956" width="5.5768139943426505" height="8.037392172505472" fill="#ffd60a" opacity="0.29933394638340316" rx="1"/><path d="M154.40620694179233 788.7411199251053 Q169.70337974599175 737.0889542070424 172.76281430683164 685.4367884889797" stroke="#000019" stroke-width="5.948305165848765" fill="none" stroke-linecap="round"/><path d="M172.76281430683164 685.4367884889797 Q212.00289223273353 665.4367884889797 232.22911118581638 685.4367884889797" stroke="#000233" stroke-width="3.149853221874184" fill="none" stroke-linecap="round" opacity="0.6"/><path d="M172.76281430683164 685.4367884889797 Q187.1914789810845 669.547881524684 194.61939627479182 693.6589745603885" stroke="#000233" stroke-width="3.5304935498932597" fill="none" stroke-linecap="round" opacity="0.6"/><path d="M172.76281430683164 685.4367884889797 Q180.27717415578877 672.3767619997034 162.20278986507722 699.316735510427" stroke="#000233" stroke-width="3.255993146741761" fill="none" stroke-linecap="round" opacity="0.6"/><path d="M172.76281430683164 685.4367884889797 Q159.68659406637133 668.2503596001675 133.81321021910412 691.0639307113552" stroke="#000233" stroke-width="2.271148711506079" fill="none" stroke-linecap="round" opacity="0.6"/><path d="M172.76281430683164 685.4367884889797 Q157.4375973142451 660.8786956301456 109.66296531394775 676.3206027713115" stroke="#000233" stroke-width="3.47652282926173" fill="none" stroke-linecap="round" opacity="0.6"/><path d="M172.76281430683164 685.4367884889797 Q182.6949316638893 654.9216472915407 156.76273190278835 664.4065060941016" stroke="#000233" stroke-width="2.4091321421808405" fill="none" stroke-linecap="round" opacity="0.6"/><path d="M1659.2304396022182 905.7428156039078 Q1671.0061852380181 789.43956817138 1673.3613343651782 673.1363207388521" stroke="#000019" stroke-width="5.642977269748919" fill="none" stroke-linecap="round"/><path d="M1673.3613343651782 673.1363207388521 Q1714.4945442421583 653.1363207388521 1745.8197893951601 673.1363207388521" stroke="#000233" stroke-width="3.3903090170096393" fill="none" stroke-linecap="round" opacity="0.6"/><path d="M1673.3613343651782 673.1363207388521 Q1701.0212080967433 662.2123703382254 1721.6140545763583 691.2884199375986" stroke="#000233" stroke-width="3.293278469539545" fill="none" stroke-linecap="round" opacity="0.6"/><path d="M1673.3613343651782 673.1363207388521 Q1685.3834490967984 660.0383431278859 1662.8590572292337 686.9403655169198" stroke="#000233" stroke-width="2.174114712088861" fill="none" stroke-linecap="round" opacity="0.6"/><path d="M1673.3613343651782 673.1363207388521 Q1671.8766039688817 655.099852776661 1646.1792257694078 677.0633848144699" stroke="#000233" stroke-width="2.2218861515219057" fill="none" stroke-linecap="round" opacity="0.6"/><path d="M1673.3613343651782 673.1363207388521 Q1650.4146845065236 649.6675320226504 1625.3412411026345 666.1987433064487" stroke="#000233" stroke-width="2.844253238021455" fill="none" stroke-linecap="round" opacity="0.6"/><path d="M282.9517226579952 808.4694847717112 Q275.1717943081566 699.2161535248664 273.6158086381889 589.9628222780216" stroke="#000019" stroke-width="7.742580298274425" fill="none" stroke-linecap="round"/><path d="M273.6158086381889 589.9628222780216 Q325.7634689488363 569.9628222780216 353.5547732141695 589.9628222780216" stroke="#000233" stroke-width="3.397094776247883" fill="none" stroke-linecap="round" opacity="0.6"/><path d="M273.6158086381889 589.9628222780216 Q296.3622488744678 574.9775458494767 300.2765326437672 599.9922694209317" stroke="#000233" stroke-width="3.1355233153178177" fill="none" stroke-linecap="round" opacity="0.6"/><path d="M273.6158086381889 589.9628222780216 Q274.7598483550268 581.2377843557597 256.45956518325465 612.5127464334979" stroke="#000233" stroke-width="3.922896196582098" fill="none" stroke-linecap="round" opacity="0.6"/><path d="M273.6158086381889 589.9628222780216 Q257.8675646146184 573.800478391945 220.48930841653146 597.6381345058684" stroke="#000233" stroke-width="3.3121322838850626" fill="none" stroke-linecap="round" opacity="0.6"/><path d="M273.6158086381889 589.9628222780216 Q252.61509646045477 566.532451030077 226.12754667456605 583.1020797821325" stroke="#000233" stroke-width="3.647651509299793" fill="none" stroke-linecap="round" opacity="0.6"/><path d="M273.6158086381889 589.9628222780216 Q279.26236834647614 565.0563866062164 266.1500624741583 580.1499509344111" stroke="#000233" stroke-width="3.753945165256491" fill="none" stroke-linecap="round" opacity="0.6"/><path d="M1887.9091796204236 888.0573901785672 Q1905.6068217394889 777.6330209168683 1909.146350163302 667.2086516551694" stroke="#000019" stroke-width="7.2928990999453" fill="none" stroke-linecap="round"/><path d="M1909.146350163302 667.2086516551694 Q1941.4823625868842 647.2086516551694 1972.3507211060148 667.2086516551694" stroke="#000233" stroke-width="3.4405467904732907" fill="none" stroke-linecap="round" opacity="0.6"/><path d="M1909.146350163302 667.2086516551694 Q1927.5976720963386 651.961301204237 1934.4137604437374 676.7139507533045" stroke="#000233" stroke-width="2.717484177722941" fill="none" stroke-linecap="round" opacity="0.6"/><path d="M1909.146350163302 667.2086516551694 Q1909.789554372019 658.0070016242814 1892.7153307324295 688.8053515933934" stroke="#000233" stroke-width="3.4995331921380792" fill="none" stroke-linecap="round" opacity="0.6"/><path d="M1909.146350163302 667.2086516551694 Q1897.3197003509817 650.6187096114004 1861.939294765534 674.0287675676312" stroke="#000233" stroke-width="3.432769962920055" fill="none" stroke-linecap="round" opacity="0.6"/><path d="M1909.146350163302 667.2086516551694 Q1903.5122437549971 643.7451569652533 1861.1995446264655 660.2816622753372" stroke="#000233" stroke-width="3.9799547777464506" fill="none" stroke-linecap="round" opacity="0.6"/><rect x="0" y="1000" width="1920" height="80" fill="#000f40" opacity="0.8"/><line x1="0" y1="1040" x2="1920" y2="1040" stroke="#ffc300" stroke-opacity="0.15" stroke-width="2" stroke-dasharray="30,20"/><rect x="0" y="930" width="1920" height="150" fill="url(#glow34)"/><text x="1900" y="1060" font-family="Arial, sans-serif" font-size="11" fill="#fff" opacity="0.08" text-anchor="end" letter-spacing="2">GTA 6 REWARDS · WALLPAPER 035</text>
</svg>