<?xml version="1.0" encoding="UTF-8"?>
<svg xmlns="http://www.w3.org/2000/svg" width="1920" height="1080" viewBox="0 0 1920 1080">
<defs>
    <linearGradient id="bg25" x1="0%" y1="0%" x2="0%" y2="100%">
      <stop offset="0%" stop-color="#10002b"/>
      <stop offset="50%" stop-color="#000000"/>
      <stop offset="100%" stop-color="#10002b"/>
    </linearGradient>
    <linearGradient id="sun25" x1="0%" y1="0%" x2="100%" y2="100%">
      <stop offset="0%" stop-color="#7b2cbf"/>
      <stop offset="100%" stop-color="#c77dff"/>
    </linearGradient>
    <radialGradient id="glow25" cx="50%" cy="70%" r="50%">
      <stop offset="0%" stop-color="#7b2cbf" stop-opacity="0.3"/>
      <stop offset="100%" stop-color="#10002b" stop-opacity="0"/>
    </radialGradient>
  </defs><rect width="1920" height="1080" fill="url(#bg25)"/><circle cx="1295.1481447078168" cy="429.9595424509513" r="823.1077071100258" fill="#7b2cbf" opacity="0.07735152070581716"/><circle cx="1495.1481447078168" cy="329.9595424509513" r="421.0989640609126" fill="#c77dff" opacity="0.08421081316522575"/><circle cx="703.1810096472458" cy="225.29224149773182" r="78.08386369098068" fill="url(#sun25)" opacity="0.6744521220155182"/><circle cx="703.1810096472458" cy="225.29224149773182" r="73.08386369098068" fill="#10002b" opacity="0.3"/><rect x="22.388129698202977" y="802.2704016771797" width="47.01495382865308" height="151.85230466347474" fill="#000011" opacity="0.537059234696687" rx="2"/><rect x="40.35142483360866" y="812.2704016771797" width="11.088363557841713" height="9.715275682442652" fill="#c77dff" opacity="0.5029308173113807" rx="1"/><rect x="28.597686376445388" y="817.128039518401" width="11.088363557841713" height="9.715275682442652" fill="#7b2cbf" opacity="0.25146540865569034" rx="1"/><rect x="40.22979755029777" y="831.251939760114" width="11.331618124463507" height="6.210938499358235" fill="#c77dff" opacity="0.17629663079890812" rx="1"/><rect x="28.476059093134495" y="834.3574090097932" width="11.331618124463507" height="6.210938499358235" fill="#7b2cbf" opacity="0.08814831539945406" rx="1"/><rect x="42.73708847578082" y="850.2334778430484" width="6.317036273497398" height="8.235863380654683" fill="#c77dff" opacity="0.1563931522323734" rx="1"/><rect x="30.983350018617546" y="854.3514095333758" width="6.317036273497398" height="8.235863380654683" fill="#7b2cbf" opacity="0.0781965761161867" rx="1"/><rect x="43.08231987666393" y="869.2150159259828" width="5.626573471731174" height="8.653463076486593" fill="#c77dff" opacity="0.14546793737576064" rx="1"/><rect x="31.328581419500658" y="873.5417474642261" width="5.626573471731174" height="8.653463076486593" fill="#7b2cbf" opacity="0.07273396868788032" rx="1"/><rect x="40.03900502972282" y="888.1965540089171" width="11.713203165613395" height="7.508844313563044" fill="#c77dff" opacity="0.5150405307102577" rx="1"/><rect x="28.28526657255955" y="891.9509761656986" width="11.713203165613395" height="7.508844313563044" fill="#7b2cbf" opacity="0.25752026535512884" rx="1"/><rect x="42.232481903683514" y="907.1780920918515" width="7.326249417692015" height="6.996069754705781" fill="#c77dff" opacity="0.28117054439642714" rx="1"/><rect x="30.47874344652024" y="910.6761269692043" width="7.326249417692015" height="6.996069754705781" fill="#7b2cbf" opacity="0.14058527219821357" rx="1"/><rect x="40.257597576653964" y="926.1596301747858" width="11.276018071751114" height="6.685028715218657" fill="#c77dff" opacity="0.329258042580741" rx="1"/><rect x="28.50385911949069" y="929.502144532395" width="11.276018071751114" height="6.685028715218657" fill="#7b2cbf" opacity="0.1646290212903705" rx="1"/><rect x="41.62247008379141" y="945.1411682577201" width="8.546273057476215" height="9.067262314974158" fill="#c77dff" opacity="0.5448432297084581" rx="1"/><rect x="29.86873162662814" y="949.6747994152072" width="8.546273057476215" height="9.067262314974158" fill="#7b2cbf" opacity="0.27242161485422905" rx="1"/><rect x="105.69964553595047" y="688.3349893471075" width="85.82012301679238" height="265.78771699354695" fill="#10002b" opacity="0.6352985281346595" rx="2"/><rect x="145.2809738624564" y="698.3349893471075" width="6.657466363780542" height="9.233461004503411" fill="#c77dff" opacity="0.21879538270151136" rx="1"/><rect x="123.82594310825829" y="702.9517198493592" width="6.657466363780542" height="9.233461004503411" fill="#7b2cbf" opacity="0.10939769135075568" rx="1"/><rect x="146.18756179958294" y="736.3046632033285" width="4.844290489527465" height="8.834968534958309" fill="#c77dff" opacity="0.11648325578227715" rx="1"/><rect x="124.73253104538483" y="740.7221474708076" width="4.844290489527465" height="8.834968534958309" fill="#7b2cbf" opacity="0.05824162789113858" rx="1"/><rect x="146.26261018199443" y="774.2743370595495" width="4.694193724704486" height="6.786891265024173" fill="#c77dff" opacity="0.3933990664997602" rx="1"/><rect x="124.80757942779631" y="777.6677826920616" width="4.694193724704486" height="6.786891265024173" fill="#7b2cbf" opacity="0.1966995332498801" rx="1"/><rect x="143.83518670705035" y="812.2440109157704" width="9.54904067459261" height="9.076492581301483" fill="#c77dff" opacity="0.14440109339645157" rx="1"/><rect x="122.38015595285225" y="816.7822572064211" width="9.54904067459261" height="9.076492581301483" fill="#7b2cbf" opacity="0.07220054669822579" rx="1"/><rect x="145.5029102336855" y="850.2136847719914" width="6.213593621322325" height="7.065255720416376" fill="#c77dff" opacity="0.41973114512388854" rx="1"/><rect x="124.04787947948739" y="853.7463126321996" width="6.213593621322325" height="7.065255720416376" fill="#7b2cbf" opacity="0.20986557256194427" rx="1"/><rect x="146.06944044285208" y="888.1833586282124" width="5.080533202989151" height="7.4936420799916705" fill="#c77dff" opacity="0.13649983812042044" rx="1"/><rect x="124.61440968865398" y="891.9301796682082" width="5.080533202989151" height="7.4936420799916705" fill="#7b2cbf" opacity="0.06824991906021022" rx="1"/><rect x="145.70032079115052" y="926.1530324844334" width="5.818772506392275" height="8.555638895033775" fill="#c77dff" opacity="0.19890602903880786" rx="1"/><rect x="124.24529003695243" y="930.4308519319503" width="5.818772506392275" height="8.555638895033775" fill="#7b2cbf" opacity="0.09945301451940393" rx="1"/><rect x="221.70933798460973" y="606.9308995867452" width="48.40525851547841" height="347.1918067539092" fill="#10002b" opacity="0.6036066127250918" rx="2"/><rect x="242.484813252344" y="616.9308995867452" width="6.854307980009892" height="7.4195542469200575" fill="#c77dff" opacity="0.16922338136220896" rx="1"/><rect x="230.3834986234744" y="620.6406767102053" width="6.854307980009892" height="7.4195542469200575" fill="#7b2cbf" opacity="0.08461169068110448" rx="1"/><rect x="240.79406751547802" y="732.6615018380483" width="10.235799453741823" height="7.361293992344591" fill="#c77dff" opacity="0.3367142546541789" rx="1"/><rect x="228.69275288660842" y="736.3421488342206" width="10.235799453741823" height="7.361293992344591" fill="#7b2cbf" opacity="0.16835712732708946" rx="1"/><rect x="241.60360978790644" y="848.3921040893514" width="8.616714908885005" height="6.347533114335391" fill="#c77dff" opacity="0.146264754851876" rx="1"/><rect x="229.50229515903683" y="851.5658706465191" width="8.616714908885005" height="6.347533114335391" fill="#7b2cbf" opacity="0.073132377425938" rx="1"/><rect x="290.87356546914054" y="673.8505495767693" width="80.81739336969736" height="280.2721567638852" fill="#000011" opacity="0.5882913863026284" rx="2"/><rect x="328.9754187809246" y="683.8505495767693" width="4.613686746129227" height="9.232321649611071" fill="#c77dff" opacity="0.3985123267393821" rx="1"/><rect x="308.77107043850026" y="688.4667104015748" width="4.613686746129227" height="9.232321649611071" fill="#7b2cbf" opacity="0.19925616336969104" rx="1"/><rect x="328.227008943266" y="739.9049809295464" width="6.110506421446452" height="7.8765875524553906" fill="#c77dff" opacity="0.22785814181618816" rx="1"/><rect x="308.0226606008417" y="743.8432747057741" width="6.110506421446452" height="7.8765875524553906" fill="#7b2cbf" opacity="0.11392907090809408" rx="1"/><rect x="327.1181382765337" y="795.9594122823233" width="8.328247754911018" height="7.156089640491663" fill="#c77dff" opacity="0.48364188626493376" rx="1"/><rect x="306.9137899341094" y="799.5374571025692" width="8.328247754911018" height="7.156089640491663" fill="#7b2cbf" opacity="0.24182094313246688" rx="1"/><rect x="328.63514185315813" y="852.0138436351003" width="5.294240601662137" height="7.021230672723901" fill="#c77dff" opacity="0.25302705814899573" rx="1"/><rect x="308.4307935107338" y="855.5244589714623" width="5.294240601662137" height="7.021230672723901" fill="#7b2cbf" opacity="0.12651352907449787" rx="1"/><rect x="328.23300705366603" y="908.0682749878774" width="6.098510200646359" height="9.27370609884935" fill="#c77dff" opacity="0.12214398817674815" rx="1"/><rect x="308.0286587112417" y="912.7051280373021" width="6.098510200646359" height="9.27370609884935" fill="#7b2cbf" opacity="0.061071994088374076" rx="1"/><rect x="411.18961858125164" y="862.4489591253104" width="33.60047180755075" height="91.67374721534405" fill="#10002b" opacity="0.6065594831031187" rx="2"/><rect x="423.896062258374" y="872.4489591253104" width="8.187584453306064" height="8.886429156848795" fill="#c77dff" opacity="0.19871302768558102" rx="1"/><rect x="415.4959443064863" y="876.8921737037348" width="8.187584453306064" height="8.886429156848795" fill="#7b2cbf" opacity="0.09935651384279051" rx="1"/><rect x="424.84630305223317" y="883.9081775272283" width="6.287102865587711" height="6.3245386826630074" fill="#c77dff" opacity="0.5315039553752877" rx="1"/><rect x="416.4461851003455" y="887.0704468685598" width="6.287102865587711" height="6.3245386826630074" fill="#7b2cbf" opacity="0.26575197768764386" rx="1"/><rect x="424.7272597262001" y="895.3673959291464" width="6.525189517653825" height="7.2188626288480275" fill="#c77dff" opacity="0.26710714999751817" rx="1"/><rect x="416.3271417743124" y="898.9768272435704" width="6.525189517653825" height="7.2188626288480275" fill="#7b2cbf" opacity="0.13355357499875908" rx="1"/><rect x="423.0591348144364" y="906.8266143310643" width="9.861439341181292" height="9.747927841671725" fill="#c77dff" opacity="0.4256668565621755" rx="1"/><rect x="414.6590168625487" y="911.7005782519002" width="9.861439341181292" height="9.747927841671725" fill="#7b2cbf" opacity="0.21283342828108776" rx="1"/><rect x="423.648620154394" y="918.2858327329824" width="8.682468661266022" height="9.830683950295366" fill="#c77dff" opacity="0.4036765062258757" rx="1"/><rect x="415.2485022025063" y="923.2011747081301" width="8.682468661266022" height="9.830683950295366" fill="#7b2cbf" opacity="0.20183825311293785" rx="1"/><rect x="423.30434835662703" y="929.7450511349003" width="9.371012256799968" height="7.390720896746665" fill="#c77dff" opacity="0.2307968825872049" rx="1"/><rect x="414.90423040473934" y="933.4404115832737" width="9.371012256799968" height="7.390720896746665" fill="#7b2cbf" opacity="0.11539844129360245" rx="1"/><rect x="424.77537938667825" y="941.2042695368184" width="6.428950196697597" height="8.98948192014114" fill="#c77dff" opacity="0.5424347034521482" rx="1"/><rect x="416.37526143479056" y="945.699010496889" width="6.428950196697597" height="8.98948192014114" fill="#7b2cbf" opacity="0.2712173517260741" rx="1"/><rect x="422.58743506706963" y="952.6634879387364" width="10.804838835914815" height="7.593301494045486" fill="#c77dff" opacity="0.2974890109145756" rx="1"/><rect x="414.18731711518194" y="956.4601386857591" width="10.804838835914815" height="7.593301494045486" fill="#7b2cbf" opacity="0.1487445054572878" rx="1"/><rect x="487.0365541537843" y="618.8531657608349" width="67.93148065869032" height="335.2695405798195" fill="#10002b" opacity="0.4108733465687543" rx="2"/><rect x="517.7102145330772" y="628.8531657608349" width="6.584159900104664" height="7.70575395731855" fill="#c77dff" opacity="0.5404412364681347" rx="1"/><rect x="500.7273443684046" y="632.7060427394943" width="6.584159900104664" height="7.70575395731855" fill="#7b2cbf" opacity="0.27022061823406734" rx="1"/><rect x="517.8370928887365" y="670.7618583333124" width="6.330403188786097" height="7.723106368846052" fill="#c77dff" opacity="0.3312829121321633" rx="1"/><rect x="500.85422272406385" y="674.6234115177353" width="6.330403188786097" height="7.723106368846052" fill="#7b2cbf" opacity="0.16564145606608166" rx="1"/><rect x="516.6991192306623" y="712.6705509057898" width="8.606350504934404" height="7.704279619665882" fill="#c77dff" opacity="0.13786645842200762" rx="1"/><rect x="499.7162490659897" y="716.5226907156227" width="8.606350504934404" height="7.704279619665882" fill="#7b2cbf" opacity="0.06893322921100381" rx="1"/><rect x="515.3606788903384" y="754.5792434782672" width="11.283231185582288" height="7.91608094282357" fill="#c77dff" opacity="0.570144528423004" rx="1"/><rect x="498.3778087256658" y="758.537283949679" width="11.283231185582288" height="7.91608094282357" fill="#7b2cbf" opacity="0.285072264211502" rx="1"/><rect x="518.2343919289378" y="796.4879360507447" width="5.5358051083832525" height="9.601028365921469" fill="#c77dff" opacity="0.11830539398787204" rx="1"/><rect x="501.2515217642653" y="801.2884502337054" width="5.5358051083832525" height="9.601028365921469" fill="#7b2cbf" opacity="0.05915269699393602" rx="1"/><rect x="515.110427621312" y="838.3966286232221" width="11.783733723634793" height="6.288726227425208" fill="#c77dff" opacity="0.5513316338302874" rx="1"/><rect x="498.1275574566395" y="841.5409917369348" width="11.783733723634793" height="6.288726227425208" fill="#7b2cbf" opacity="0.2756658169151437" rx="1"/><rect x="518.5511821213996" y="880.3053211956995" width="4.90222472345974" height="9.366192595885646" fill="#c77dff" opacity="0.19148383817902856" rx="1"/><rect x="501.56831195672703" y="884.9884174936424" width="4.90222472345974" height="9.366192595885646" fill="#7b2cbf" opacity="0.09574191908951428" rx="1"/><rect x="518.9539650403788" y="922.214013768177" width="4.096658885501479" height="7.685357490015532" fill="#c77dff" opacity="0.2610128316471849" rx="1"/><rect x="501.97109487570617" y="926.0566925131848" width="4.096658885501479" height="7.685357490015532" fill="#7b2cbf" opacity="0.13050641582359246" rx="1"/><rect x="578.2058983291979" y="841.2313801216035" width="37.094017701943876" height="112.891326219051" fill="#000011" opacity="0.6917633407497228" rx="2"/><rect x="593.585527212961" y="851.2313801216035" width="6.334759934417615" height="6.169228945898178" fill="#c77dff" opacity="0.15393448997147718" rx="1"/><rect x="584.312022787475" y="854.3159945945525" width="6.334759934417615" height="6.169228945898178" fill="#7b2cbf" opacity="0.07696724498573859" rx="1"/><rect x="591.5406126465044" y="870.046601158112" width="10.424589067330722" height="7.899837744864597" fill="#c77dff" opacity="0.31332368341119116" rx="1"/><rect x="582.2671082210185" y="873.9965200305443" width="10.424589067330722" height="7.899837744864597" fill="#7b2cbf" opacity="0.15666184170559558" rx="1"/><rect x="593.5093581756831" y="888.8618221946205" width="6.487098008973314" height="9.84432765279066" fill="#c77dff" opacity="0.4674951428238989" rx="1"/><rect x="584.2358537501972" y="893.7839860210158" width="6.487098008973314" height="9.84432765279066" fill="#7b2cbf" opacity="0.23374757141194946" rx="1"/><rect x="593.997334187617" y="907.677043231129" width="5.5111459851058076" height="6.043437889787238" fill="#c77dff" opacity="0.44662879999881355" rx="1"/><rect x="584.723829762131" y="910.6987621760226" width="5.5111459851058076" height="6.043437889787238" fill="#7b2cbf" opacity="0.22331439999940678" rx="1"/><rect x="591.7728523185414" y="926.4922642676374" width="9.960109723256927" height="8.830907319400206" fill="#c77dff" opacity="0.5565225788290897" rx="1"/><rect x="582.4993478930554" y="930.9077179273376" width="9.960109723256927" height="8.830907319400206" fill="#7b2cbf" opacity="0.27826128941454487" rx="1"/><rect x="594.0348065306979" y="945.307485304146" width="5.436201298943768" height="7.910319011171889" fill="#c77dff" opacity="0.27133483515850615" rx="1"/><rect x="584.7613021052119" y="949.2626448097319" width="5.436201298943768" height="7.910319011171889" fill="#7b2cbf" opacity="0.13566741757925307" rx="1"/><rect x="687.6039294334138" y="842.5459807022814" width="51.04909077776807" height="111.57672563837299" fill="#000011" opacity="0.6613285357042515" rx="2"/><rect x="708.829496040435" y="852.5459807022814" width="8.597957563725757" height="6.517388654061916" fill="#c77dff" opacity="0.3173660521435938" rx="1"/><rect x="696.0672233459929" y="855.8046750293124" width="8.597957563725757" height="6.517388654061916" fill="#7b2cbf" opacity="0.1586830260717969" rx="1"/><rect x="709.0272958143678" y="889.7382225817391" width="8.20235801586005" height="6.5026544426806865" fill="#c77dff" opacity="0.26479171478766755" rx="1"/><rect x="696.2650231199258" y="892.9895498030795" width="8.20235801586005" height="6.5026544426806865" fill="#7b2cbf" opacity="0.13239585739383378" rx="1"/><rect x="710.7462188554337" y="926.9304644611967" width="4.76451193372824" height="9.699958694097576" fill="#c77dff" opacity="0.5070242567469888" rx="1"/><rect x="697.9839461609916" y="931.7804438082455" width="4.76451193372824" height="9.699958694097576" fill="#7b2cbf" opacity="0.2535121283734944" rx="1"/><rect x="778.5813571812076" y="720.92039998875" width="73.4351575568866" height="233.20230635190438" fill="#000011" opacity="0.6311511636318525" rx="2"/><rect x="811.2866408946661" y="730.92039998875" width="8.024590129969779" height="6.175832340534737" fill="#c77dff" opacity="0.16397908473480005" rx="1"/><rect x="792.9278515054444" y="734.0083161590173" width="8.024590129969779" height="6.175832340534737" fill="#7b2cbf" opacity="0.08198954236740003" rx="1"/><rect x="810.781202029386" y="764.2350151818791" width="9.035467860530007" height="6.141150300423883" fill="#c77dff" opacity="0.39034748459010093" rx="1"/><rect x="792.4224126401643" y="767.3055903320911" width="9.035467860530007" height="6.141150300423883" fill="#7b2cbf" opacity="0.19517374229505047" rx="1"/><rect x="811.1724098977104" y="797.5496303750084" width="8.25305212388119" height="9.714956739851031" fill="#c77dff" opacity="0.35264740659684113" rx="1"/><rect x="792.8136205084887" y="802.4071087449339" width="8.25305212388119" height="9.714956739851031" fill="#7b2cbf" opacity="0.17632370329842056" rx="1"/><rect x="812.0249194775301" y="830.8642455681376" width="6.548032964241699" height="7.982224464878026" fill="#c77dff" opacity="0.3728164052294606" rx="1"/><rect x="793.6661300883085" y="834.8553578005766" width="6.548032964241699" height="7.982224464878026" fill="#7b2cbf" opacity="0.1864082026147303" rx="1"/><rect x="809.6742791828408" y="864.1788607612668" width="11.249313553620436" height="6.261995889307465" fill="#c77dff" opacity="0.5356996071142377" rx="1"/><rect x="791.3154897936191" y="867.3098587059205" width="11.249313553620436" height="6.261995889307465" fill="#7b2cbf" opacity="0.26784980355711885" rx="1"/><rect x="809.3822858795484" y="897.493475954396" width="11.833300160205294" height="6.598843368841066" fill="#c77dff" opacity="0.5004096035846531" rx="1"/><rect x="791.0234964903267" y="900.7928976388165" width="11.833300160205294" height="6.598843368841066" fill="#7b2cbf" opacity="0.25020480179232657" rx="1"/><rect x="812.0130173333486" y="930.8080911475251" width="6.5718372526047375" height="7.839427280668036" fill="#c77dff" opacity="0.27100799134257436" rx="1"/><rect x="793.6542279441269" y="934.7278047878592" width="6.5718372526047375" height="7.839427280668036" fill="#7b2cbf" opacity="0.13550399567128718" rx="1"/><rect x="879.8360491986004" y="789.1317261241218" width="80.49646454641979" height="164.9909802165327" fill="#000011" opacity="0.5134953959410766" rx="2"/><rect x="917.8578558370605" y="799.1317261241218" width="4.452851269499597" height="6.110727458286735" fill="#c77dff" opacity="0.4024092223035193" rx="1"/><rect x="897.7337397004555" y="802.1870898532651" width="4.452851269499597" height="6.110727458286735" fill="#7b2cbf" opacity="0.20120461115175964" rx="1"/><rect x="914.6711374264376" y="822.701866155055" width="10.82628809074552" height="8.880330874323922" fill="#c77dff" opacity="0.4788175449890125" rx="1"/><rect x="894.5470212898326" y="827.1420315922169" width="10.82628809074552" height="8.880330874323922" fill="#7b2cbf" opacity="0.23940877249450626" rx="1"/><rect x="917.0381463635802" y="846.2720061859883" width="6.092270216460403" height="9.87974349779071" fill="#c77dff" opacity="0.31985555701420076" rx="1"/><rect x="896.9140302269752" y="851.2118779348837" width="6.092270216460403" height="9.87974349779071" fill="#7b2cbf" opacity="0.15992777850710038" rx="1"/><rect x="914.9780691624567" y="869.8421462169215" width="10.212424618707137" height="8.748755740641792" fill="#c77dff" opacity="0.13809751291715017" rx="1"/><rect x="894.8539530258518" y="874.2165240872424" width="10.212424618707137" height="8.748755740641792" fill="#7b2cbf" opacity="0.06904875645857508" rx="1"/><rect x="916.2905489949719" y="893.4122862478547" width="7.5874649536766725" height="9.32445816493697" fill="#c77dff" opacity="0.388962951812186" rx="1"/><rect x="896.166432858367" y="898.0745153303232" width="7.5874649536766725" height="9.32445816493697" fill="#7b2cbf" opacity="0.194481475906093" rx="1"/><rect x="917.2142090537152" y="916.982426278788" width="5.74014483619019" height="9.598983079101654" fill="#c77dff" opacity="0.35965815183232963" rx="1"/><rect x="897.0900929171103" y="921.7819178183388" width="5.74014483619019" height="9.598983079101654" fill="#7b2cbf" opacity="0.17982907591616482" rx="1"/><rect x="915.6707448900376" y="940.5525663097212" width="8.827073163545474" height="9.818750665480911" fill="#c77dff" opacity="0.14822117964462872" rx="1"/><rect x="895.5466287534326" y="945.4619416424616" width="8.827073163545474" height="9.818750665480911" fill="#7b2cbf" opacity="0.07411058982231436" rx="1"/><rect x="982.3282733332198" y="808.0634577335006" width="62.32359553974206" height="146.05924860715382" fill="#10002b" opacity="0.6322082827641182" rx="2"/><rect x="1010.082541169385" y="818.0634577335006" width="6.815059867411633" height="8.161767660212183" fill="#c77dff" opacity="0.5778580540972431" rx="1"/><rect x="994.5016422844495" y="822.1443415636068" width="6.815059867411633" height="8.161767660212183" fill="#7b2cbf" opacity="0.28892902704862156" rx="1"/><rect x="1008.8898045294661" y="847.2753074549314" width="9.200533147249494" height="6.840745338434527" fill="#c77dff" opacity="0.1630818159699165" rx="1"/><rect x="993.3089056445307" y="850.6956801241487" width="9.200533147249494" height="6.840745338434527" fill="#7b2cbf" opacity="0.08154090798495825" rx="1"/><rect x="1009.0331796570757" y="876.4871571763622" width="8.913782892030149" height="7.537875073388656" fill="#c77dff" opacity="0.21651950774633316" rx="1"/><rect x="993.4522807721403" y="880.2560947130565" width="8.913782892030149" height="7.537875073388656" fill="#7b2cbf" opacity="0.10825975387316658" rx="1"/><rect x="1008.6065789306551" y="905.699006897793" width="9.766984344871478" height="9.904925969407177" fill="#c77dff" opacity="0.15775441358744968" rx="1"/><rect x="993.0256800457197" y="910.6514698824966" width="9.766984344871478" height="9.904925969407177" fill="#7b2cbf" opacity="0.07887720679372484" rx="1"/><rect x="1007.6087272522525" y="934.9108566192236" width="11.762687701676667" height="6.200436878064749" fill="#c77dff" opacity="0.4859346084962447" rx="1"/><rect x="992.027828367317" y="938.011075058256" width="11.762687701676667" height="6.200436878064749" fill="#7b2cbf" opacity="0.24296730424812235" rx="1"/><rect x="1077.5832421070857" y="645.5422402116335" width="48.36963510568478" height="308.5804661290209" fill="#10002b" opacity="0.6590714074343144" rx="2"/><rect x="1099.6556888494304" y="655.5422402116335" width="4.224741620995277" height="8.528964507982359" fill="#c77dff" opacity="0.21600614202115828" rx="1"/><rect x="1087.5632800730093" y="659.8067224656247" width="4.224741620995277" height="8.528964507982359" fill="#7b2cbf" opacity="0.10800307101057914" rx="1"/><rect x="1096.806408531453" y="758.4023955879738" width="9.923302256950015" height="6.600731694279409" fill="#c77dff" opacity="0.464085278325734" rx="1"/><rect x="1084.7139997550319" y="761.7027614351135" width="9.923302256950015" height="6.600731694279409" fill="#7b2cbf" opacity="0.232042639162867" rx="1"/><rect x="1097.2350257249163" y="861.2625509643141" width="9.066067870023211" height="6.537356485737804" fill="#c77dff" opacity="0.4253840060963724" rx="1"/><rect x="1085.1426169484953" y="864.531229207183" width="9.066067870023211" height="6.537356485737804" fill="#7b2cbf" opacity="0.2126920030481862" rx="1"/><rect x="1181.351868631633" y="671.1895258913723" width="82.65381036620909" height="282.9331804492821" fill="#10002b" opacity="0.6544539793754123" rx="2"/><rect x="1216.892770735522" y="681.1895258913723" width="11.572006158431062" height="6.642561313845814" fill="#c77dff" opacity="0.14599809833941937" rx="1"/><rect x="1196.2293181439695" y="684.5108065482952" width="11.572006158431062" height="6.642561313845814" fill="#7b2cbf" opacity="0.07299904916970969" rx="1"/><rect x="1217.0610387204356" y="737.7761619812287" width="11.235470188603614" height="9.99397860187897" fill="#c77dff" opacity="0.14076797760575266" rx="1"/><rect x="1196.3975861288832" y="742.7731512821682" width="11.235470188603614" height="9.99397860187897" fill="#7b2cbf" opacity="0.07038398880287633" rx="1"/><rect x="1216.7730494951302" y="794.3627980710852" width="11.811448639214841" height="9.613919374443107" fill="#c77dff" opacity="0.4673660441691443" rx="1"/><rect x="1196.1095969035778" y="799.1697577583068" width="11.811448639214841" height="9.613919374443107" fill="#7b2cbf" opacity="0.23368302208457215" rx="1"/><rect x="1217.710678449066" y="850.9494341609416" width="9.936190731342926" height="7.671137917244606" fill="#c77dff" opacity="0.3578413993487697" rx="1"/><rect x="1197.0472258575137" y="854.7850031195638" width="9.936190731342926" height="7.671137917244606" fill="#7b2cbf" opacity="0.17892069967438484" rx="1"/><rect x="1220.3643830733756" y="907.536070250798" width="4.628781482723723" height="8.831584591146463" fill="#c77dff" opacity="0.35267099257387946" rx="1"/><rect x="1199.7009304818232" y="911.9518625463713" width="4.628781482723723" height="8.831584591146463" fill="#7b2cbf" opacity="0.17633549628693973" rx="1"/><rect x="1248.6980667311461" y="795.6541913202159" width="66.07257722319862" height="158.4685150204386" fill="#10002b" opacity="0.41540961901550405" rx="2"/><rect x="1277.4308694923368" y="805.6541913202159" width="8.606971700817107" height="6.864658425763403" fill="#c77dff" opacity="0.32625439072173423" rx="1"/><rect x="1260.9127251865373" y="809.0865205330975" width="8.606971700817107" height="6.864658425763403" fill="#7b2cbf" opacity="0.16312719536086712" rx="1"/><rect x="1278.7938220342141" y="858.4770296603621" width="5.881066617062563" height="8.790613773928632" fill="#c77dff" opacity="0.33466279176870894" rx="1"/><rect x="1262.2756777284146" y="862.8723365473264" width="5.881066617062563" height="8.790613773928632" fill="#7b2cbf" opacity="0.16733139588435447" rx="1"/><rect x="1277.8288168420152" y="911.2998680005082" width="7.811077001460613" height="8.113218882613168" fill="#c77dff" opacity="0.49068431323177286" rx="1"/><rect x="1261.3106725362156" y="915.3564774418148" width="7.811077001460613" height="8.113218882613168" fill="#7b2cbf" opacity="0.24534215661588643" rx="1"/><rect x="1370.7697901597176" y="711.0290188018765" width="49.14292352254105" height="243.09368753877789" fill="#000011" opacity="0.5682722701151558" rx="2"/><rect x="1390.125405980536" y="721.0290188018765" width="10.431691880904065" height="6.051525947649853" fill="#c77dff" opacity="0.5332397744136955" rx="1"/><rect x="1377.839675099901" y="724.0547817757015" width="10.431691880904065" height="6.051525947649853" fill="#7b2cbf" opacity="0.26661988720684776" rx="1"/><rect x="1392.9637539498422" y="751.4157297442238" width="4.75499594229157" height="9.316787172881138" fill="#c77dff" opacity="0.47617996273939034" rx="1"/><rect x="1380.678023069207" y="756.0741233306643" width="4.75499594229157" height="9.316787172881138" fill="#7b2cbf" opacity="0.23808998136969517" rx="1"/><rect x="1391.1982496134467" y="781.802440686571" width="8.286004615082872" height="6.037547796042065" fill="#c77dff" opacity="0.43045106563494795" rx="1"/><rect x="1378.9125187328116" y="784.821214584592" width="8.286004615082872" height="6.037547796042065" fill="#7b2cbf" opacity="0.21522553281747397" rx="1"/><rect x="1392.5823363502468" y="812.1891516289182" width="5.517831141482533" height="9.29977949319868" fill="#c77dff" opacity="0.5758046074946888" rx="1"/><rect x="1380.2966054696117" y="816.8390413755176" width="5.517831141482533" height="9.29977949319868" fill="#7b2cbf" opacity="0.2879023037473444" rx="1"/><rect x="1392.8890129904935" y="842.5758625712655" width="4.904477860989161" height="9.020871487218159" fill="#c77dff" opacity="0.4771626504317771" rx="1"/><rect x="1380.6032821098584" y="847.0862983148745" width="4.904477860989161" height="9.020871487218159" fill="#7b2cbf" opacity="0.23858132521588854" rx="1"/><rect x="1392.9682079637348" y="872.9625735136127" width="4.746087914506459" height="8.384904210079672" fill="#c77dff" opacity="0.10934515160260377" rx="1"/><rect x="1380.6824770830997" y="877.1550256186525" width="4.746087914506459" height="8.384904210079672" fill="#7b2cbf" opacity="0.05467257580130189" rx="1"/><rect x="1392.9682428566664" y="903.34928445596" width="4.746018128643282" height="8.866444725279335" fill="#c77dff" opacity="0.24951512989343963" rx="1"/><rect x="1380.6825119760313" y="907.7825068185996" width="4.746018128643282" height="8.866444725279335" fill="#7b2cbf" opacity="0.12475756494671982" rx="1"/><rect x="1390.243385038628" y="933.7359953983072" width="10.195733764720087" height="6.320279310531979" fill="#c77dff" opacity="0.30975869095645814" rx="1"/><rect x="1377.957654157993" y="936.8961350535732" width="10.195733764720087" height="6.320279310531979" fill="#7b2cbf" opacity="0.15487934547822907" rx="1"/><rect x="1444.3611769970416" y="585.3081413394092" width="60.94430996825553" height="368.8145650012452" fill="#000011" opacity="0.4672147081390058" rx="2"/><rect x="1470.3615256704766" y="595.3081413394092" width="8.943612621385514" height="9.409116535309963" fill="#c77dff" opacity="0.5668044433851737" rx="1"/><rect x="1455.1254481784129" y="600.0126996070642" width="8.943612621385514" height="9.409116535309963" fill="#7b2cbf" opacity="0.28340222169258683" rx="1"/><rect x="1471.1688560163996" y="687.5117825897205" width="7.328951929539664" height="9.728608027037374" fill="#c77dff" opacity="0.36427523017960495" rx="1"/><rect x="1455.9327785243358" y="692.3760866032392" width="7.328951929539664" height="9.728608027037374" fill="#7b2cbf" opacity="0.18213761508980247" rx="1"/><rect x="1469.7152592015254" y="779.7154238400318" width="10.236145559287664" height="7.728360343195582" fill="#c77dff" opacity="0.443500545794028" rx="1"/><rect x="1454.4791817094617" y="783.5796040116296" width="10.236145559287664" height="7.728360343195582" fill="#7b2cbf" opacity="0.221750272897014" rx="1"/><rect x="1468.9699981282395" y="871.9190650903431" width="11.726667705859679" height="9.212759124863139" fill="#c77dff" opacity="0.31245210704217946" rx="1"/><rect x="1453.7339206361758" y="876.5254446527747" width="11.726667705859679" height="9.212759124863139" fill="#7b2cbf" opacity="0.15622605352108973" rx="1"/><rect x="1540.170909129123" y="788.2344902582081" width="55.91010334107794" height="165.88821608244632" fill="#10002b" opacity="0.4507157380810743" rx="2"/><rect x="1565.7010134995685" y="798.2344902582081" width="4.849894600186938" height="9.931010465121599" fill="#c77dff" opacity="0.4482697815281036" rx="1"/><rect x="1551.723487664299" y="803.1999954907689" width="4.849894600186938" height="9.931010465121599" fill="#7b2cbf" opacity="0.2241348907640518" rx="1"/><rect x="1564.2948341838305" y="818.9705172685138" width="7.66225323166285" height="6.947575752844004" fill="#c77dff" opacity="0.41825867151335316" rx="1"/><rect x="1550.317308348561" y="822.4443051449358" width="7.66225323166285" height="6.947575752844004" fill="#7b2cbf" opacity="0.20912933575667658" rx="1"/><rect x="1562.2805020500161" y="839.7065442788197" width="11.690917499291459" height="7.466933584182275" fill="#c77dff" opacity="0.4348392165114263" rx="1"/><rect x="1548.3029762147466" y="843.4400110709108" width="11.690917499291459" height="7.466933584182275" fill="#7b2cbf" opacity="0.21741960825571316" rx="1"/><rect x="1563.5838764162231" y="860.4425712891255" width="9.084168766877653" height="6.319999098852277" fill="#c77dff" opacity="0.5788652943630855" rx="1"/><rect x="1549.6063505809536" y="863.6025708385516" width="9.084168766877653" height="6.319999098852277" fill="#7b2cbf" opacity="0.28943264718154277" rx="1"/><rect x="1563.6657519668029" y="881.1785982994313" width="8.92041766571822" height="6.70390481983868" fill="#c77dff" opacity="0.3601261737896423" rx="1"/><rect x="1549.6882261315334" y="884.5305507093507" width="8.92041766571822" height="6.70390481983868" fill="#7b2cbf" opacity="0.18006308689482114" rx="1"/><rect x="1565.312043678554" y="901.9146253097371" width="5.627834242216273" height="9.01150437328301" fill="#c77dff" opacity="0.581779979304825" rx="1"/><rect x="1551.3345178432844" y="906.4203774963786" width="5.627834242216273" height="9.01150437328301" fill="#7b2cbf" opacity="0.2908899896524125" rx="1"/><rect x="1565.1145430305307" y="922.6506523200428" width="6.02283553826223" height="8.181477025659166" fill="#c77dff" opacity="0.3294822229839587" rx="1"/><rect x="1551.1370171952613" y="926.7413908328724" width="6.02283553826223" height="8.181477025659166" fill="#7b2cbf" opacity="0.16474111149197934" rx="1"/><rect x="1564.368149971908" y="943.3866793303487" width="7.515621655507856" height="6.553642816970507" fill="#c77dff" opacity="0.44336803745091147" rx="1"/><rect x="1550.3906241366385" y="946.6635007388339" width="7.515621655507856" height="6.553642816970507" fill="#7b2cbf" opacity="0.22168401872545573" rx="1"/><rect x="1655.6228850236216" y="580.328515877558" width="86.97822557226247" height="373.7941904630964" fill="#10002b" opacity="0.49537638749353974" rx="2"/><rect x="1693.7765109936652" y="590.328515877558" width="10.670973632175237" height="6.035593247049394" fill="#c77dff" opacity="0.13197207186184173" rx="1"/><rect x="1672.0319546005994" y="593.3463125010826" width="10.670973632175237" height="6.035593247049394" fill="#7b2cbf" opacity="0.06598603593092087" rx="1"/><rect x="1693.3053597068194" y="683.7770634933321" width="11.613276205866896" height="6.63634817968969" fill="#c77dff" opacity="0.19395309842516506" rx="1"/><rect x="1671.5608033137537" y="687.095237583177" width="11.613276205866896" height="6.63634817968969" fill="#7b2cbf" opacity="0.09697654921258253" rx="1"/><rect x="1694.0048671576671" y="777.2256111091061" width="10.214261304171352" height="8.235016056856843" fill="#c77dff" opacity="0.22303792513512027" rx="1"/><rect x="1672.2603107646014" y="781.3431191375346" width="10.214261304171352" height="8.235016056856843" fill="#7b2cbf" opacity="0.11151896256756014" rx="1"/><rect x="1696.9785698405417" y="870.6741587248803" width="4.2668559384222275" height="8.275795246072997" fill="#c77dff" opacity="0.5179729786510516" rx="1"/><rect x="1675.234013447476" y="874.8120563479167" width="4.2668559384222275" height="8.275795246072997" fill="#7b2cbf" opacity="0.2589864893255258" rx="1"/><rect x="1750.7440658055116" y="712.8870813788117" width="63.122899581939656" height="241.23562496184272" fill="#000011" opacity="0.5329922502704413" rx="2"/><rect x="1776.420016134954" y="722.8870813788117" width="11.770998923054663" height="9.804999076715903" fill="#c77dff" opacity="0.3376713146776127" rx="1"/><rect x="1760.639291239469" y="727.7895809171696" width="11.770998923054663" height="9.804999076715903" fill="#7b2cbf" opacity="0.16883565733880634" rx="1"/><rect x="1778.4932469933976" y="753.041534499042" width="7.62453720616748" height="7.3506402423024735" fill="#c77dff" opacity="0.5345357867271024" rx="1"/><rect x="1762.7125220979126" y="756.7168546201932" width="7.62453720616748" height="7.3506402423024735" fill="#7b2cbf" opacity="0.2672678933635512" rx="1"/><rect x="1778.178612372181" y="783.1959876192724" width="8.253806448600676" height="7.129953515047662" fill="#c77dff" opacity="0.33458516766191115" rx="1"/><rect x="1762.397887476696" y="786.7609643767962" width="8.253806448600676" height="7.129953515047662" fill="#7b2cbf" opacity="0.16729258383095558" rx="1"/><rect x="1779.5313098483093" y="813.3504407395027" width="5.5484114963441185" height="8.468106264823142" fill="#c77dff" opacity="0.14367927858691645" rx="1"/><rect x="1763.7505849528243" y="817.5844938719142" width="5.5484114963441185" height="8.468106264823142" fill="#7b2cbf" opacity="0.07183963929345823" rx="1"/><rect x="1777.1676805457491" y="843.504893859733" width="10.275670101464648" height="9.961312450459532" fill="#c77dff" opacity="0.14365578050344618" rx="1"/><rect x="1761.386955650264" y="848.4855500849627" width="10.275670101464648" height="9.961312450459532" fill="#7b2cbf" opacity="0.07182789025172309" rx="1"/><rect x="1776.7513048005642" y="873.6593469799634" width="11.108421591834263" height="8.528585065744954" fill="#c77dff" opacity="0.2106135529956346" rx="1"/><rect x="1760.9705799050791" y="877.9236395128358" width="11.108421591834263" height="8.528585065744954" fill="#7b2cbf" opacity="0.1053067764978173" rx="1"/><rect x="1780.0965148012845" y="903.8138001001937" width="4.41800159039395" height="9.743678235389218" fill="#c77dff" opacity="0.5359118573916871" rx="1"/><rect x="1764.3157899057994" y="908.6856392178884" width="4.41800159039395" height="9.743678235389218" fill="#7b2cbf" opacity="0.26795592869584356" rx="1"/><rect x="1779.0890671094155" y="933.968253220424" width="6.432896974131674" height="7.3888056979954255" fill="#c77dff" opacity="0.3362102679294092" rx="1"/><rect x="1763.3083422139305" y="937.6626560694217" width="6.432896974131674" height="7.3888056979954255" fill="#7b2cbf" opacity="0.1681051339647046" rx="1"/><rect x="1837.9546650936722" y="691.8323458502609" width="38.347362523979356" height="262.2903604903935" fill="#000011" opacity="0.6736940400613691" rx="2"/><rect x="1853.4955060897619" y="701.8323458502609" width="7.265680531800184" height="9.31347153599222" fill="#c77dff" opacity="0.2577507238038235" rx="1"/><rect x="1843.908665458767" y="706.489081618257" width="7.265680531800184" height="9.31347153599222" fill="#7b2cbf" opacity="0.12887536190191176" rx="1"/><rect x="1854.4765171491256" y="767.4049359728593" width="5.303658413072968" height="6.5464361450975845" fill="#c77dff" opacity="0.16476915082073984" rx="1"/><rect x="1844.8896765181307" y="770.6781540454082" width="5.303658413072968" height="6.5464361450975845" fill="#7b2cbf" opacity="0.08238457541036992" rx="1"/><rect x="1852.3883746344104" y="832.9775260954577" width="9.479943442502977" height="7.748109438863608" fill="#c77dff" opacity="0.4877335504832988" rx="1"/><rect x="1842.8015340034156" y="836.8515808148895" width="9.479943442502977" height="7.748109438863608" fill="#7b2cbf" opacity="0.2438667752416494" rx="1"/><rect x="1852.661220677584" y="898.550116218056" width="8.934251356156135" height="9.448540552390865" fill="#c77dff" opacity="0.2899432251672128" rx="1"/><rect x="1843.074380046589" y="903.2743864942514" width="8.934251356156135" height="9.448540552390865" fill="#7b2cbf" opacity="0.1449716125836064" rx="1"/><path d="M626.3529920546229 941.0697671214747 Q623.6476545230596 861.1877090207272 623.106587016747 781.3056509199798" stroke="#000000" stroke-width="6.897177977230674" fill="none" stroke-linecap="round"/><path d="M623.106587016747 781.3056509199798 Q656.9370265649485 761.3056509199798 679.408286131315 781.3056509199798" stroke="#000000" stroke-width="3.3870796112779247" fill="none" stroke-linecap="round" opacity="0.6"/><path d="M623.106587016747 781.3056509199798 Q646.7234891931724 770.0674731679611 669.6887208892994 798.8292954159424" stroke="#000000" stroke-width="3.7876745983463884" fill="none" stroke-linecap="round" opacity="0.6"/><path d="M623.106587016747 781.3056509199798 Q620.8009838687943 768.6279094668832 611.9648688092255 795.9501680137867" stroke="#000000" stroke-width="2.0302607095870795" fill="none" stroke-linecap="round" opacity="0.6"/><path d="M623.106587016747 781.3056509199798 Q604.0450946240273 766.3802325712447 552.85673783338 791.4548142225098" stroke="#000000" stroke-width="3.373293330747004" fill="none" stroke-linecap="round" opacity="0.6"/><path d="M623.106587016747 781.3056509199798 Q607.4382166899187 758.8336584938904 588.8856192504835 776.3616660678009" stroke="#000000" stroke-width="3.6291126854785514" fill="none" stroke-linecap="round" opacity="0.6"/><path d="M623.106587016747 781.3056509199798 Q633.4821376859643 749.7949488957618 605.5916361988985 758.2842468715437" stroke="#000000" stroke-width="3.2324397175648345" fill="none" stroke-linecap="round" opacity="0.6"/><path d="M1064.5886602496237 903.9955383641635 Q1053.891987296262 792.0842869887325 1051.7526527055895 680.1730356133014" stroke="#000000" stroke-width="4.1391106760453225" fill="none" stroke-linecap="round"/><path d="M1051.7526527055895 680.1730356133014 Q1094.4084504536372 660.1730356133014 1105.7168118668992 680.1730356133014" stroke="#000000" stroke-width="2.543446543753018" fill="none" stroke-linecap="round" opacity="0.6"/><path d="M1051.7526527055895 680.1730356133014 Q1063.747341959826 664.497752091264 1074.7449614098323 688.8224685692267" stroke="#000000" stroke-width="2.1406597504719764" fill="none" stroke-linecap="round" opacity="0.6"/><path d="M1051.7526527055895 680.1730356133014 Q1055.5020354400747 668.7087931902236 1038.7644462661979 697.2445507671456" stroke="#000000" stroke-width="2.4058084633214882" fill="none" stroke-linecap="round" opacity="0.6"/><path d="M1051.7526527055895 680.1730356133014 Q1048.5321585132142 663.235457682409 1009.3580863600083 686.2978797515166" stroke="#000000" stroke-width="3.0926417608495433" fill="none" stroke-linecap="round" opacity="0.6"/><path d="M1051.7526527055895 680.1730356133014 Q1029.7425176293107 655.0363473242282 980.6430317737028 669.8996590351551" stroke="#000000" stroke-width="3.8501242338330774" fill="none" stroke-linecap="round" opacity="0.6"/><path d="M1051.7526527055895 680.1730356133014 Q1054.8466199111335 655.6396551683781 1044.8545560157118 671.1062747234548" stroke="#000000" stroke-width="2.5792472103096653" fill="none" stroke-linecap="round" opacity="0.6"/><path d="M264.91171768515176 922.5605067383872 Q259.46265486987835 842.8449748241914 258.37284230682366 763.1294429099954" stroke="#000000" stroke-width="4.365693566474526" fill="none" stroke-linecap="round"/><path d="M258.37284230682366 763.1294429099954 Q313.6969341029639 743.1294429099954 335.25590353162397 763.1294429099954" stroke="#000000" stroke-width="3.3024486464686804" fill="none" stroke-linecap="round" opacity="0.6"/><path d="M258.37284230682366 763.1294429099954 Q289.7754552854278 748.5404196325378 287.1402419340879 773.9513963550801" stroke="#000000" stroke-width="2.2775148312276032" fill="none" stroke-linecap="round" opacity="0.6"/><path d="M258.37284230682366 763.1294429099954 Q267.6810519901664 748.2368818620282 250.60124489584007 773.3443208140609" stroke="#000000" stroke-width="3.8227588156756847" fill="none" stroke-linecap="round" opacity="0.6"/><path d="M258.37284230682366 763.1294429099954 Q249.2534051109734 745.8060451620344 221.31936333034014 768.4826474140733" stroke="#000000" stroke-width="2.964340919387606" fill="none" stroke-linecap="round" opacity="0.6"/><path d="M258.37284230682366 763.1294429099954 Q247.85154521940984 739.543481238032 208.73066804602007 755.9575195660684" stroke="#000000" stroke-width="2.2445038082647377" fill="none" stroke-linecap="round" opacity="0.6"/><path d="M892.7904061071551 961.1416491822204 Q908.6944051014012 902.1610157161861 911.8752049002505 843.1803822501516" stroke="#000000" stroke-width="5.944964367417843" fill="none" stroke-linecap="round"/><path d="M911.8752049002505 843.1803822501516 Q953.693359566781 823.1803822501516 967.2432737041365 843.1803822501516" stroke="#000000" stroke-width="3.8423369177250044" fill="none" stroke-linecap="round" opacity="0.6"/><path d="M911.8752049002505 843.1803822501516 Q939.2608490776511 827.5480640014155 935.0959380185186 851.9157457526793" stroke="#000000" stroke-width="2.0379367265938635" fill="none" stroke-linecap="round" opacity="0.6"/><path d="M911.8752049002505 843.1803822501516 Q923.4195901979589 829.7665536773147 901.8535339038182 856.3527251044779" stroke="#000000" stroke-width="3.5912609499858834" fill="none" stroke-linecap="round" opacity="0.6"/><path d="M911.8752049002505 843.1803822501516 Q896.6232556874919 826.6190107400312 864.2726340062624 850.0576392299108" stroke="#000000" stroke-width="3.374540356307882" fill="none" stroke-linecap="round" opacity="0.6"/><path d="M911.8752049002505 843.1803822501516 Q898.5337229464523 819.109003605221 855.5131724352765 835.0376249602904" stroke="#000000" stroke-width="2.9189373457149923" fill="none" stroke-linecap="round" opacity="0.6"/><path d="M911.8752049002505 843.1803822501516 Q923.1252128069491 813.5391983181771 897.2049561144617 823.8980143862027" stroke="#000000" stroke-width="3.398976130271092" fill="none" stroke-linecap="round" opacity="0.6"/><path d="M1842.147297245019 925.1927019621229 Q1849.418888937081 803.9898373195879 1850.8732072754933 682.7869726770527" stroke="#000000" stroke-width="7.551465188048656" fill="none" stroke-linecap="round"/><path d="M1850.8732072754933 682.7869726770527 Q1874.9817535991272 662.7869726770527 1882.8558103234636 682.7869726770527" stroke="#000000" stroke-width="3.957176942833973" fill="none" stroke-linecap="round" opacity="0.6"/><path d="M1850.8732072754933 682.7869726770527 Q1880.709658131874 670.4698571022884 1891.7191798020572 698.1527415275242" stroke="#000000" stroke-width="2.135187779119049" fill="none" stroke-linecap="round" opacity="0.6"/><path d="M1850.8732072754933 682.7869726770527 Q1860.1329374118172 669.1649928636868 1841.1682640279741 695.543013050321" stroke="#000000" stroke-width="2.2747072010009335" fill="none" stroke-linecap="round" opacity="0.6"/><path d="M1850.8732072754933 682.7869726770527 Q1840.8179608404403 666.9138397721263 1793.743021783956 691.0407068671999" stroke="#000000" stroke-width="2.481932493970248" fill="none" stroke-linecap="round" opacity="0.6"/><path d="M1850.8732072754933 682.7869726770527 Q1837.9030056750373 658.3053760084101 1788.8323314538695 673.8237793397676" stroke="#000000" stroke-width="2.768366877634164" fill="none" stroke-linecap="round" opacity="0.6"/><path d="M1850.8732072754933 682.7869726770527 Q1845.714526216702 653.7422615319715 1837.1105652981023 664.6975503868902" stroke="#000000" stroke-width="3.3077487324615356" fill="none" stroke-linecap="round" opacity="0.6"/><rect x="0" y="1000" width="1920" height="80" fill="#000005" opacity="0.8"/><line x1="0" y1="1040" x2="1920" y2="1040" stroke="#c77dff" stroke-opacity="0.15" stroke-width="2" stroke-dasharray="30,20"/><rect x="0" y="930" width="1920" height="150" fill="url(#glow25)"/><text x="1900" y="1060" font-family="Arial, sans-serif" font-size="11" fill="#fff" opacity="0.08" text-anchor="end" letter-spacing="2">GTA 6 REWARDS · WALLPAPER 026</text>
</svg>