<?xml version="1.0" encoding="UTF-8"?>
<svg xmlns="http://www.w3.org/2000/svg" width="1920" height="1080" viewBox="0 0 1920 1080">
<defs>
    <linearGradient id="bg51" x1="0%" y1="0%" x2="0%" y2="100%">
      <stop offset="0%" stop-color="#3c096c"/>
      <stop offset="50%" stop-color="#090039"/>
      <stop offset="100%" stop-color="#3c096c"/>
    </linearGradient>
    <linearGradient id="sun51" x1="0%" y1="0%" x2="100%" y2="100%">
      <stop offset="0%" stop-color="#e0aaff"/>
      <stop offset="100%" stop-color="#c77dff"/>
    </linearGradient>
    <radialGradient id="glow51" cx="50%" cy="70%" r="50%">
      <stop offset="0%" stop-color="#e0aaff" stop-opacity="0.3"/>
      <stop offset="100%" stop-color="#3c096c" stop-opacity="0"/>
    </radialGradient>
  </defs><rect width="1920" height="1080" fill="url(#bg51)"/><circle cx="387.32880029997995" cy="365.22959986823366" r="626.3783311765591" fill="#e0aaff" opacity="0.07652659810300139"/><circle cx="587.32880029998" cy="265.22959986823366" r="455.7278299368284" fill="#c77dff" opacity="0.08747901185356989"/><line x1="0" y1="980" x2="1920" y2="980" stroke="#c77dff" stroke-opacity="0.05" stroke-width="2"/><line x1="0" y1="935" x2="1920" y2="935" stroke="#c77dff" stroke-opacity="0.049" stroke-width="0.5"/><line x1="0" y1="890" x2="1920" y2="890" stroke="#c77dff" stroke-opacity="0.048" stroke-width="0.5"/><line x1="0" y1="845" x2="1920" y2="845" stroke="#c77dff" stroke-opacity="0.047" stroke-width="0.5"/><line x1="0" y1="800" x2="1920" y2="800" stroke="#c77dff" stroke-opacity="0.046" stroke-width="0.5"/><line x1="0" y1="755" x2="1920" y2="755" stroke="#c77dff" stroke-opacity="0.045" stroke-width="0.5"/><line x1="0" y1="710" x2="1920" y2="710" stroke="#c77dff" stroke-opacity="0.044" stroke-width="0.5"/><line x1="0" y1="665" x2="1920" y2="665" stroke="#c77dff" stroke-opacity="0.043" stroke-width="0.5"/><line x1="0" y1="620" x2="1920" y2="620" stroke="#c77dff" stroke-opacity="0.041999999999999996" stroke-width="0.5"/><line x1="0" y1="575" x2="1920" y2="575" stroke="#c77dff" stroke-opacity="0.041" stroke-width="0.5"/><line x1="0" y1="530" x2="1920" y2="530" stroke="#c77dff" stroke-opacity="0.04" stroke-width="0.5"/><line x1="0" y1="485" x2="1920" y2="485" stroke="#c77dff" stroke-opacity="0.039" stroke-width="0.5"/><line x1="0" y1="440" x2="1920" y2="440" stroke="#c77dff" stroke-opacity="0.038" stroke-width="0.5"/><line x1="0" y1="395" x2="1920" y2="395" stroke="#c77dff" stroke-opacity="0.037" stroke-width="0.5"/><line x1="0" y1="350" x2="1920" y2="350" stroke="#c77dff" stroke-opacity="0.036" stroke-width="0.5"/><line x1="0" y1="305" x2="1920" y2="305" stroke="#c77dff" stroke-opacity="0.034999999999999996" stroke-width="0.5"/><line x1="0" y1="260" x2="1920" y2="260" stroke="#c77dff" stroke-opacity="0.033999999999999996" stroke-width="0.5"/><line x1="0" y1="215" x2="1920" y2="215" stroke="#c77dff" stroke-opacity="0.033" stroke-width="0.5"/><line x1="0" y1="170" x2="1920" y2="170" stroke="#c77dff" stroke-opacity="0.032" stroke-width="0.5"/><line x1="0" y1="125" x2="1920" y2="125" stroke="#c77dff" stroke-opacity="0.031" stroke-width="0.5"/><line x1="560" y1="1080" x2="860" y2="580" stroke="#e0aaff" stroke-opacity="0.04" stroke-width="1"/><line x1="640" y1="1080" x2="880" y2="590" stroke="#e0aaff" stroke-opacity="0.04" stroke-width="1"/><line x1="720" y1="1080" x2="900" y2="600" stroke="#e0aaff" stroke-opacity="0.04" stroke-width="1"/><line x1="800" y1="1080" x2="920" y2="610" stroke="#e0aaff" stroke-opacity="0.04" stroke-width="1"/><line x1="880" y1="1080" x2="940" y2="620" stroke="#e0aaff" stroke-opacity="0.04" stroke-width="1"/><line x1="960" y1="1080" x2="960" y2="630" stroke="#e0aaff" stroke-opacity="0.04" stroke-width="1"/><line x1="1040" y1="1080" x2="980" y2="620" stroke="#e0aaff" stroke-opacity="0.04" stroke-width="1"/><line x1="1120" y1="1080" x2="1000" y2="610" stroke="#e0aaff" stroke-opacity="0.04" stroke-width="1"/><line x1="1200" y1="1080" x2="1020" y2="600" stroke="#e0aaff" stroke-opacity="0.04" stroke-width="1"/><line x1="1280" y1="1080" x2="1040" y2="590" stroke="#e0aaff" stroke-opacity="0.04" stroke-width="1"/><line x1="1360" y1="1080" x2="1060" y2="580" stroke="#e0aaff" stroke-opacity="0.04" stroke-width="1"/><circle cx="1403.4265575705624" cy="439.01554110669895" r="72.72692017553535" fill="url(#sun51)" opacity="0.6946757104701073"/><circle cx="1403.4265575705624" cy="439.01554110669895" r="67.72692017553535" fill="#3c096c" opacity="0.3"/><pattern id="scan51" width="1920" height="4" patternUnits="userSpaceOnUse">
      <line x1="0" y1="0" x2="1920" y2="0" stroke="#000" stroke-opacity="0.05" stroke-width="1"/>
    </pattern>
    <rect width="1920" height="1080" fill="url(#scan51)"/><circle cx="164.82445571683917" cy="34.61961116330223" r="0.8134412967631224" fill="#fff" opacity="0.7130755330699206"/><circle cx="890.3883135901737" cy="41.48873624799045" r="1.8003144952934966" fill="#fff" opacity="0.5780320918136351"/><circle cx="1759.0989450735735" cy="166.35295771955347" r="0.7398090088367018" fill="#fff" opacity="0.567334948565656"/><circle cx="1053.4928702780728" cy="186.6494603889644" r="1.7161317864004828" fill="#fff" opacity="0.3020764513178906"/><circle cx="564.692195040335" cy="402.0745315519335" r="1.6755938142714075" fill="#fff" opacity="0.25716194507134194"/><circle cx="1364.3808575171001" cy="244.31779073651828" r="1.1772545933903322" fill="#fff" opacity="0.6915239966221909"/><circle cx="239.15052881444583" cy="241.54228929466157" r="1.5222374300989876" fill="#fff" opacity="0.38909043599597426"/><circle cx="409.63999772668814" cy="152.63888263531004" r="1.1274862791475575" fill="#fff" opacity="0.7322591586812071"/><circle cx="1048.2499974426464" cy="223.1858392691207" r="1.8677290242323021" fill="#fff" opacity="0.28766369253575425"/><circle cx="1501.0145566382014" cy="197.84271903099554" r="1.9693289084754253" fill="#fff" opacity="0.27744152519792353"/><circle cx="1365.9803722999013" cy="32.42493346715927" r="1.9007377667354275" fill="#fff" opacity="0.5731789983746547"/><circle cx="1442.3177427431378" cy="331.8070180816126" r="0.6666002452062909" fill="#fff" opacity="0.5265466579530729"/><circle cx="1186.7635589620945" cy="216.93018038033748" r="1.3686665655972126" fill="#fff" opacity="0.40757643524733755"/><circle cx="94.6163311820981" cy="369.92439995378356" r="0.5245105226115581" fill="#fff" opacity="0.20461091231662104"/><circle cx="112.9247680569358" cy="287.67791353531135" r="0.9410378181936773" fill="#fff" opacity="0.2872317012602537"/><circle cx="675.118879684042" cy="146.46633182523453" r="1.0778404321935589" fill="#fff" opacity="0.2281176360855153"/><circle cx="178.880902868435" cy="51.07021274489122" r="1.160555431074592" fill="#fff" opacity="0.5509662771483339"/><circle cx="1441.1710054057583" cy="193.24941765173557" r="1.8953674621636438" fill="#fff" opacity="0.3973240768530695"/><circle cx="1684.6871776330954" cy="377.2004694215023" r="0.6873960920347357" fill="#fff" opacity="0.4195544612639478"/><circle cx="1899.184277499836" cy="300.63856492485814" r="0.7266888674876394" fill="#fff" opacity="0.3880075897993538"/><circle cx="1877.280711372681" cy="305.1439706834834" r="0.6141268410985653" fill="#fff" opacity="0.35495052234152114"/><circle cx="13.633955422237971" cy="258.0499914516811" r="1.80987268751717" fill="#fff" opacity="0.4656146447327022"/><circle cx="953.1787725522133" cy="45.05413664436297" r="1.563745177249365" fill="#fff" opacity="0.4404142125603776"/><circle cx="1395.1043427258508" cy="303.19829928111244" r="0.6364978892115173" fill="#fff" opacity="0.4571382988842992"/><circle cx="1701.7989000170023" cy="221.78961892002022" r="1.065167083303716" fill="#fff" opacity="0.3654417718214546"/><circle cx="1001.2586812026003" cy="161.49386438017103" r="0.7079164627259402" fill="#fff" opacity="0.7959132330948284"/><circle cx="607.6988242491378" cy="401.63108535521457" r="1.7106485325402228" fill="#fff" opacity="0.29683175159078834"/><circle cx="1538.6611594861981" cy="249.35347243616206" r="1.45272997556085" fill="#fff" opacity="0.20136202420139734"/><circle cx="1349.4292651278502" cy="80.10746120664" r="1.3203024977865403" fill="#fff" opacity="0.563711504629746"/><circle cx="257.8542768065479" cy="206.05945881410955" r="1.3385510601425894" fill="#fff" opacity="0.6847553895052418"/><circle cx="1193.3171142435906" cy="277.2410843049272" r="1.8448639760829657" fill="#fff" opacity="0.47125701882672894"/><circle cx="1122.0025118817582" cy="230.71882426150117" r="1.2223258019011296" fill="#fff" opacity="0.5529779897893261"/><circle cx="1243.38710262519" cy="357.53300618881667" r="1.4554130915681396" fill="#fff" opacity="0.5484997332441852"/><circle cx="341.58895485605785" cy="319.11061027997886" r="0.5637032083616832" fill="#fff" opacity="0.6277113882889299"/><circle cx="1161.23543215013" cy="145.832103118727" r="0.5956500580291381" fill="#fff" opacity="0.6173603779676744"/><circle cx="243.70408868503384" cy="58.08761453490882" r="0.8818172209155319" fill="#fff" opacity="0.2698853663331562"/><circle cx="369.7851836052223" cy="316.3925841852074" r="0.8542188414964402" fill="#fff" opacity="0.7138085443325826"/><circle cx="1751.075763663062" cy="128.91923709607667" r="0.8006160807098766" fill="#fff" opacity="0.5865444952125066"/><circle cx="961.137059703734" cy="69.87237298625344" r="1.3333392395482724" fill="#fff" opacity="0.4982200677269651"/><circle cx="102.08339544527313" cy="318.82099738689624" r="1.9061965981745619" fill="#fff" opacity="0.6884619224091204"/><circle cx="252.5795308343553" cy="388.89239021504585" r="1.2305535066943973" fill="#fff" opacity="0.6688069705080257"/><circle cx="682.1057592430399" cy="108.71042264548839" r="1.6571404931967009" fill="#fff" opacity="0.4838903604736296"/><circle cx="541.8574808309454" cy="7.414450833437604" r="1.3859592330143693" fill="#fff" opacity="0.7911234048640177"/><circle cx="689.4436214979374" cy="230.62305401047297" r="0.7591807130396322" fill="#fff" opacity="0.2076472993492259"/><circle cx="517.9293015315033" cy="417.7157228183271" r="1.482298031328781" fill="#fff" opacity="0.43495311695964844"/><circle cx="1692.3134390479684" cy="344.2672541607794" r="1.0963795595095445" fill="#fff" opacity="0.7860043265358556"/><circle cx="628.9724726949288" cy="358.9067660884249" r="0.6755394796318234" fill="#fff" opacity="0.34170359674415174"/><circle cx="147.425880913489" cy="105.01413360075422" r="0.6199290441861212" fill="#fff" opacity="0.4318790418170111"/><circle cx="973.0345896661827" cy="108.16721436664629" r="1.9565410138937973" fill="#fff" opacity="0.3058725336813071"/><circle cx="206.932696897288" cy="45.5217722089779" r="0.831852126827429" fill="#fff" opacity="0.5319226594948961"/><circle cx="921.8869992256833" cy="83.29696352111571" r="0.9180183003000026" fill="#fff" opacity="0.3444250517861045"/><circle cx="863.0195297820073" cy="305.47355499525406" r="1.0926866752776985" fill="#fff" opacity="0.3840227771513217"/><circle cx="1650.7439132897985" cy="71.41175490045262" r="1.4740053734215919" fill="#fff" opacity="0.5027969609719694"/><circle cx="785.5695298653026" cy="351.0234817487708" r="1.2903715415835315" fill="#fff" opacity="0.20743239196190436"/><circle cx="88.98621620819583" cy="300.58960954765547" r="1.9105546754809457" fill="#fff" opacity="0.5786332578348539"/><circle cx="817.5163929577723" cy="1.5934712406232654" r="0.772374576370319" fill="#fff" opacity="0.4196435773790915"/><circle cx="1102.6950393204334" cy="272.2286215499576" r="1.8048335253970775" fill="#fff" opacity="0.5725233052793246"/><circle cx="1063.8258435818893" cy="273.8448613253061" r="1.2666487865537985" fill="#fff" opacity="0.7162752101934224"/><circle cx="32.91364745071941" cy="91.06770622615416" r="1.1272845686476876" fill="#fff" opacity="0.5142524404251605"/><circle cx="841.330354409602" cy="203.12766341006562" r="0.9616856514387032" fill="#fff" opacity="0.3936746839419181"/><circle cx="363.34623822088963" cy="354.99858169327456" r="1.427744836762488" fill="#fff" opacity="0.2414356557283168"/><circle cx="429.59288666713815" cy="52.800176506117026" r="0.6988403357562702" fill="#fff" opacity="0.3589346380343043"/><circle cx="1478.291041897212" cy="63.84743382778191" r="0.9481303118979861" fill="#fff" opacity="0.28704216170288677"/><circle cx="1279.131044745243" cy="197.8049385076866" r="1.4857518091997486" fill="#fff" opacity="0.2985152696954355"/><circle cx="267.3399532463727" cy="155.7641452056738" r="0.7006041839953057" fill="#fff" opacity="0.30623086297563995"/><circle cx="17.733073536710133" cy="5.648793139878845" r="1.8924659277294915" fill="#fff" opacity="0.7335282479723748"/><circle cx="1845.5136523967408" cy="249.85604766240718" r="1.3917478162077601" fill="#fff" opacity="0.38495861929491126"/><circle cx="639.6095450221583" cy="352.7473544144881" r="1.1904389415146874" fill="#fff" opacity="0.6873248383140482"/><circle cx="839.6353529858485" cy="200.82442655619803" r="0.8244034986301334" fill="#fff" opacity="0.3227810049715408"/><rect x="0.2731395490172179" y="728.4635199998653" width="45.19580629076711" height="150.64744582647631" fill="#3c096c" opacity="0.4786948287111462" rx="2"/><rect x="18.433042704927043" y="738.4635199998653" width="8.875999978947453" height="8.742124847774889" fill="#c77dff" opacity="0.25123885943350355" rx="1"/><rect x="7.134091132235269" y="742.8345824237527" width="8.875999978947453" height="8.742124847774889" fill="#e0aaff" opacity="0.12561942971675177" rx="1"/><rect x="20.010357952911953" y="776.1253814564843" width="5.721369482977635" height="9.862135856380252" fill="#c77dff" opacity="0.27180979872863037" rx="1"/><rect x="8.711406380220177" y="781.0564493846745" width="5.721369482977635" height="9.862135856380252" fill="#e0aaff" opacity="0.13590489936431518" rx="1"/><rect x="18.246402368705347" y="813.7872429131035" width="9.249280651390851" height="6.546853617892333" fill="#c77dff" opacity="0.5531214238268141" rx="1"/><rect x="6.94745079601357" y="817.0606697220496" width="9.249280651390851" height="6.546853617892333" fill="#e0aaff" opacity="0.27656071191340703" rx="1"/><rect x="17.208351030528625" y="851.4491043697226" width="11.32538332774429" height="7.535154431484443" fill="#c77dff" opacity="0.59925124563725" rx="1"/><rect x="5.90939945783685" y="855.2166815854648" width="11.32538332774429" height="7.535154431484443" fill="#e0aaff" opacity="0.299625622818625" rx="1"/><rect x="139.91496458647654" y="682.1024124468915" width="35.96891875052101" height="197.00855337945012" fill="#220052" opacity="0.46140475856638624" rx="2"/><rect x="153.48186590766576" y="692.1024124468915" width="8.835116108142564" height="8.009344394786597" fill="#c77dff" opacity="0.307472359577071" rx="1"/><rect x="144.4896362200355" y="696.1070846442849" width="8.835116108142564" height="8.009344394786597" fill="#e0aaff" opacity="0.1537361797885355" rx="1"/><rect x="153.3490022286654" y="716.7284816193228" width="9.10084346614332" height="6.222967172093449" fill="#c77dff" opacity="0.10141723000011808" rx="1"/><rect x="144.35677254103513" y="719.8399652053695" width="9.10084346614332" height="6.222967172093449" fill="#e0aaff" opacity="0.05070861500005904" rx="1"/><rect x="152.47343791403654" y="741.354550791754" width="10.85197209540102" height="6.216034267148011" fill="#c77dff" opacity="0.4978071056534087" rx="1"/><rect x="143.48120822640627" y="744.462567925328" width="10.85197209540102" height="6.216034267148011" fill="#e0aaff" opacity="0.24890355282670434" rx="1"/><rect x="154.76539019024125" y="765.9806199641853" width="6.268067542991616" height="7.190101985165407" fill="#c77dff" opacity="0.40823485455667485" rx="1"/><rect x="145.77316050261098" y="769.575670956768" width="6.268067542991616" height="7.190101985165407" fill="#e0aaff" opacity="0.20411742727833743" rx="1"/><rect x="155.03096085415012" y="790.6066891366166" width="5.7369262151738925" height="9.741625729888124" fill="#c77dff" opacity="0.5506819759147898" rx="1"/><rect x="146.03873116651985" y="795.4775020015607" width="5.7369262151738925" height="9.741625729888124" fill="#e0aaff" opacity="0.2753409879573949" rx="1"/><rect x="153.92591618907775" y="815.2327583090479" width="7.947015545318605" height="9.981746565546317" fill="#c77dff" opacity="0.29140659638014776" rx="1"/><rect x="144.93368650144748" y="820.223631591821" width="7.947015545318605" height="9.981746565546317" fill="#e0aaff" opacity="0.14570329819007388" rx="1"/><rect x="154.7997909374069" y="839.8588274814791" width="6.199266048660331" height="8.226428251300572" fill="#c77dff" opacity="0.5738992877476614" rx="1"/><rect x="145.80756124977663" y="843.9720416071294" width="6.199266048660331" height="8.226428251300572" fill="#e0aaff" opacity="0.2869496438738307" rx="1"/><rect x="154.31283464732414" y="864.4848966539104" width="7.173178628825857" height="7.980634983158819" fill="#c77dff" opacity="0.3395211622909459" rx="1"/><rect x="145.32060495969387" y="868.4752141454898" width="7.173178628825857" height="7.980634983158819" fill="#e0aaff" opacity="0.16976058114547296" rx="1"/><rect x="284.5808357150715" y="601.3336549516147" width="38.05902638194594" height="277.77731087472694" fill="#3c096c" opacity="0.6054048681178608" rx="2"/><rect x="297.8539241801142" y="611.3336549516147" width="11.51284945186061" height="9.53695860121794" fill="#c77dff" opacity="0.5928841690981956" rx="1"/><rect x="288.33916758462766" y="616.1021342522237" width="11.51284945186061" height="9.53695860121794" fill="#e0aaff" opacity="0.2964420845490978" rx="1"/><rect x="298.46593097678056" y="703.926091909857" width="10.288835858527765" height="9.950574452045974" fill="#c77dff" opacity="0.23313014796775072" rx="1"/><rect x="288.95117438129404" y="708.9013791358799" width="10.288835858527765" height="9.950574452045974" fill="#e0aaff" opacity="0.11656507398387536" rx="1"/><rect x="300.89732232175237" y="796.5185288680993" width="5.426053168584139" height="6.1235811459188305" fill="#c77dff" opacity="0.5380691493717183" rx="1"/><rect x="291.38256572626585" y="799.5803194410588" width="5.426053168584139" height="6.1235811459188305" fill="#e0aaff" opacity="0.2690345746858592" rx="1"/><rect x="409.0866614852768" y="726.3656244208955" width="88.98100557713327" height="152.74534140544603" fill="#3c096c" opacity="0.49452390309761374" rx="2"/><rect x="448.68308396210966" y="736.3656244208955" width="9.788160623467565" height="8.623433549567926" fill="#c77dff" opacity="0.22579826990277466" rx="1"/><rect x="426.4378325678264" y="740.6773411956794" width="9.788160623467565" height="8.623433549567926" fill="#e0aaff" opacity="0.11289913495138733" rx="1"/><rect x="447.9612974778193" y="766.9146927019847" width="11.231733592048226" height="7.787809215902307" fill="#c77dff" opacity="0.4426746665133803" rx="1"/><rect x="425.716046083536" y="770.8085973099359" width="11.231733592048226" height="7.787809215902307" fill="#e0aaff" opacity="0.22133733325669014" rx="1"/><rect x="448.06374274870933" y="797.4637609830739" width="11.026843050268209" height="6.004282308743401" fill="#c77dff" opacity="0.2795250183622178" rx="1"/><rect x="425.81849135442604" y="800.4659021374456" width="11.026843050268209" height="6.004282308743401" fill="#e0aaff" opacity="0.1397625091811089" rx="1"/><rect x="447.763095213278" y="828.0128292641632" width="11.62813812113091" height="7.136729893539271" fill="#c77dff" opacity="0.3388665038717134" rx="1"/><rect x="425.5178438189947" y="831.5811942109328" width="11.62813812113091" height="7.136729893539271" fill="#e0aaff" opacity="0.1694332519358567" rx="1"/><rect x="449.9117030880674" y="858.5618975452524" width="7.3309223715520755" height="8.124011219042355" fill="#c77dff" opacity="0.508596066736755" rx="1"/><rect x="427.6664516937841" y="862.6239031547735" width="7.3309223715520755" height="8.124011219042355" fill="#e0aaff" opacity="0.2542980333683775" rx="1"/><rect x="530.0874669826793" y="712.5559842243222" width="72.30446235796074" height="166.55498160201938" fill="#220052" opacity="0.4521922994526551" rx="2"/><rect x="561.0738634276375" y="722.5559842243222" width="10.331669468044225" height="8.971337492338227" fill="#c77dff" opacity="0.10648611341754118" rx="1"/><rect x="542.9977478381473" y="727.0416529704913" width="10.331669468044225" height="8.971337492338227" fill="#e0aaff" opacity="0.05324305670877059" rx="1"/><rect x="563.6063982510489" y="778.0743114249954" width="5.266599821221689" height="7.928261931503252" fill="#c77dff" opacity="0.5850348108413245" rx="1"/><rect x="545.5302826615587" y="782.038442390747" width="5.266599821221689" height="7.928261931503252" fill="#e0aaff" opacity="0.29251740542066224" rx="1"/><rect x="561.1808439749714" y="833.5926386256684" width="10.117708373376566" height="6.140040902453484" fill="#c77dff" opacity="0.41097693038428595" rx="1"/><rect x="543.1047283854812" y="836.6626590768951" width="10.117708373376566" height="6.140040902453484" fill="#e0aaff" opacity="0.20548846519214298" rx="1"/><rect x="660.2882208768949" y="648.4927091394767" width="32.17316344896638" height="230.61825668686495" fill="#3c096c" opacity="0.5536750070642855" rx="2"/><rect x="672.4333199340462" y="658.4927091394767" width="7.882965334663858" height="9.206057254971483" fill="#c77dff" opacity="0.4465978453975632" rx="1"/><rect x="664.3900290718046" y="663.0957377669624" width="7.882965334663858" height="9.206057254971483" fill="#e0aaff" opacity="0.2232989226987816" rx="1"/><rect x="671.27638798586" y="704.6163604768496" width="10.196829231036089" height="7.720496520800632" fill="#c77dff" opacity="0.5756518942247266" rx="1"/><rect x="663.2330971236184" y="708.47660873725" width="10.196829231036089" height="7.720496520800632" fill="#e0aaff" opacity="0.2878259471123633" rx="1"/><rect x="671.7625450698571" y="750.7400118142227" width="9.224515063041942" height="7.128426136711711" fill="#c77dff" opacity="0.414792339414077" rx="1"/><rect x="663.7192542076156" y="754.3042248825786" width="9.224515063041942" height="7.128426136711711" fill="#e0aaff" opacity="0.2073961697070385" rx="1"/><rect x="670.4862199033345" y="796.8636631515957" width="11.777165396087142" height="8.320711421389298" fill="#c77dff" opacity="0.33766102810335835" rx="1"/><rect x="662.442929041093" y="801.0240188622903" width="11.777165396087142" height="8.320711421389298" fill="#e0aaff" opacity="0.16883051405167918" rx="1"/><rect x="673.6452546647389" y="842.9873144889687" width="5.459095873278355" height="9.90713974738194" fill="#c77dff" opacity="0.5379537164787654" rx="1"/><rect x="665.6019638024974" y="847.9408843626596" width="5.459095873278355" height="9.90713974738194" fill="#e0aaff" opacity="0.2689768582393827" rx="1"/><rect x="780.3627632722172" y="792.2753583854706" width="84.09911583040355" height="86.8356074408711" fill="#220052" opacity="0.5026067376608511" rx="2"/><rect x="820.2751694403763" y="802.2753583854706" width="4.274303494085163" height="8.85044415640888" fill="#c77dff" opacity="0.45815298868300236" rx="1"/><rect x="799.2503904827755" y="806.700580463675" width="4.274303494085163" height="8.85044415640888" fill="#e0aaff" opacity="0.22907649434150118" rx="1"/><rect x="817.5089657251976" y="814.6804451627379" width="9.806710924442557" height="7.920607786141478" fill="#c77dff" opacity="0.26528556662734726" rx="1"/><rect x="796.4841867675968" y="818.6407490558087" width="9.806710924442557" height="7.920607786141478" fill="#e0aaff" opacity="0.13264278331367363" rx="1"/><rect x="820.2517002279059" y="827.0855319400051" width="4.321241919026068" height="8.509105781677437" fill="#c77dff" opacity="0.5748774487466731" rx="1"/><rect x="799.2269212703051" y="831.3400848308438" width="4.321241919026068" height="8.509105781677437" fill="#e0aaff" opacity="0.28743872437333656" rx="1"/><rect x="820.2009095324205" y="839.4906187172725" width="4.422823309996823" height="9.46599686785275" fill="#c77dff" opacity="0.3603219431499769" rx="1"/><rect x="799.1761305748197" y="844.2236171511988" width="4.422823309996823" height="9.46599686785275" fill="#e0aaff" opacity="0.18016097157498845" rx="1"/><rect x="816.987272377123" y="851.8957054945397" width="10.85009762059201" height="8.985705078343326" fill="#c77dff" opacity="0.31351357554400194" rx="1"/><rect x="795.9624934195222" y="856.3885580337113" width="10.85009762059201" height="8.985705078343326" fill="#e0aaff" opacity="0.15675678777200097" rx="1"/><rect x="818.6036970684313" y="864.300792271807" width="7.617248237975232" height="6.362983534197086" fill="#c77dff" opacity="0.13460487351627204" rx="1"/><rect x="797.5789181108305" y="867.4822840389056" width="7.617248237975232" height="6.362983534197086" fill="#e0aaff" opacity="0.06730243675813602" rx="1"/><rect x="817.3966269978314" y="876.7058790490744" width="10.031388379175073" height="7.606235045382342" fill="#c77dff" opacity="0.1195790327898178" rx="1"/><rect x="796.3718480402306" y="880.5089965717656" width="10.031388379175073" height="7.606235045382342" fill="#e0aaff" opacity="0.0597895163949089" rx="1"/><rect x="912.0741946092048" y="720.2885519760401" width="73.16732721011326" height="158.8224138503015" fill="#3c096c" opacity="0.4547189043729377" rx="2"/><rect x="943.3576476463018" y="730.2885519760401" width="10.600421135919266" height="7.688633871657921" fill="#c77dff" opacity="0.12977837902255784" rx="1"/><rect x="925.0658158437735" y="734.1328689118691" width="10.600421135919266" height="7.688633871657921" fill="#e0aaff" opacity="0.06488918951127892" rx="1"/><rect x="943.3435211042741" y="762.0530347461005" width="10.628674219974474" height="7.972813806955892" fill="#c77dff" opacity="0.597396466670883" rx="1"/><rect x="925.0516893017459" y="766.0394416495784" width="10.628674219974474" height="7.972813806955892" fill="#e0aaff" opacity="0.2986982333354415" rx="1"/><rect x="943.8485759535918" y="793.8175175161607" width="9.618564521339387" height="9.422031242265838" fill="#c77dff" opacity="0.5912849881200318" rx="1"/><rect x="925.5567441510635" y="798.5285331372936" width="9.618564521339387" height="9.422031242265838" fill="#e0aaff" opacity="0.2956424940600159" rx="1"/><rect x="946.2367391416889" y="825.582000286221" width="4.842238145145178" height="9.683503156454186" fill="#c77dff" opacity="0.5866077388838418" rx="1"/><rect x="927.9449073391606" y="830.4237518644481" width="4.842238145145178" height="9.683503156454186" fill="#e0aaff" opacity="0.2933038694419209" rx="1"/><rect x="945.1312393923595" y="857.3464830562814" width="7.053237643803758" height="9.547134509204685" fill="#c77dff" opacity="0.1252861857938781" rx="1"/><rect x="926.8394075898312" y="862.1200503108837" width="7.053237643803758" height="9.547134509204685" fill="#e0aaff" opacity="0.06264309289693905" rx="1"/><rect x="1040.0587646430495" y="680.3911178327145" width="75.94571318615826" height="198.71984799362716" fill="#220052" opacity="0.6100852359575418" rx="2"/><rect x="1075.1116026570348" y="690.3911178327145" width="5.840037158187488" height="6.307762450610232" fill="#c77dff" opacity="0.3956064182323419" rx="1"/><rect x="1056.1251743604953" y="693.5449990580196" width="5.840037158187488" height="6.307762450610232" fill="#e0aaff" opacity="0.19780320911617094" rx="1"/><rect x="1072.7914433245992" y="740.0710798311213" width="10.480355823058717" height="9.471776445273258" fill="#c77dff" opacity="0.567723940491612" rx="1"/><rect x="1053.8050150280596" y="744.8069680537579" width="10.480355823058717" height="9.471776445273258" fill="#e0aaff" opacity="0.283861970245806" rx="1"/><rect x="1074.5597486769686" y="789.751041829528" width="6.943745118319929" height="8.950592374184772" fill="#c77dff" opacity="0.2767416416380418" rx="1"/><rect x="1055.573320380429" y="794.2263380166204" width="6.943745118319929" height="8.950592374184772" fill="#e0aaff" opacity="0.1383708208190209" rx="1"/><rect x="1073.8992029858982" y="839.4310038279349" width="8.264836500460476" height="7.512328085841688" fill="#c77dff" opacity="0.4215205084582606" rx="1"/><rect x="1054.9127746893587" y="843.1871678708558" width="8.264836500460476" height="7.512328085841688" fill="#e0aaff" opacity="0.2107602542291303" rx="1"/><rect x="1162.0203573936644" y="594.1349213230737" width="41.50272392469987" height="284.9760445032679" fill="#220052" opacity="0.5179918881547618" rx="2"/><rect x="1179.202550758189" y="604.1349213230737" width="7.138337195650287" height="6.664719441129062" fill="#c77dff" opacity="0.22589315665557355" rx="1"/><rect x="1168.8268697770143" y="607.4672810436383" width="7.138337195650287" height="6.664719441129062" fill="#e0aaff" opacity="0.11294657832778678" rx="1"/><rect x="1179.3880440290989" y="644.8457848235406" width="6.767350653830764" height="9.933662127687983" fill="#c77dff" opacity="0.25950262794725193" rx="1"/><rect x="1169.012363047924" y="649.8126158873846" width="6.767350653830764" height="9.933662127687983" fill="#e0aaff" opacity="0.12975131397362596" rx="1"/><rect x="1179.6937334245754" y="685.5566483240074" width="6.1559718628777125" height="6.869332940520097" fill="#c77dff" opacity="0.5215805101957127" rx="1"/><rect x="1169.3180524434006" y="688.9913147942674" width="6.1559718628777125" height="6.869332940520097" fill="#e0aaff" opacity="0.26079025509785636" rx="1"/><rect x="1180.6536908884657" y="726.2675118244742" width="4.236056935097104" height="9.751174444274785" fill="#c77dff" opacity="0.26098378520947507" rx="1"/><rect x="1170.2780099072909" y="731.1430990466116" width="4.236056935097104" height="9.751174444274785" fill="#e0aaff" opacity="0.13049189260473754" rx="1"/><rect x="1178.7423258176404" y="766.9783753249411" width="8.058787076747695" height="6.0377599289728705" fill="#c77dff" opacity="0.5018706417181228" rx="1"/><rect x="1168.3666448364656" y="769.9972552894276" width="8.058787076747695" height="6.0377599289728705" fill="#e0aaff" opacity="0.2509353208590614" rx="1"/><rect x="1179.1003567627865" y="807.689238825408" width="7.342725186455699" height="6.937115508349872" fill="#c77dff" opacity="0.3043035256686396" rx="1"/><rect x="1168.7246757816117" y="811.157796579583" width="7.342725186455699" height="6.937115508349872" fill="#e0aaff" opacity="0.1521517628343198" rx="1"/><rect x="1180.5903199481754" y="848.4001023258747" width="4.3627988156775945" height="6.160200199149596" fill="#c77dff" opacity="0.18475864156725785" rx="1"/><rect x="1170.2146389670006" y="851.4802024254495" width="4.3627988156775945" height="6.160200199149596" fill="#e0aaff" opacity="0.09237932078362893" rx="1"/><rect x="1296.2467499860206" y="511.89911752284945" width="40.70999855890637" height="367.21184830349216" fill="#3c096c" opacity="0.5713795507260085" rx="2"/><rect x="1312.382045276785" y="521.8991175228495" width="8.439407977377858" height="8.47695819532428" fill="#c77dff" opacity="0.48702436813316874" rx="1"/><rect x="1302.2045456370583" y="526.1375966205115" width="8.439407977377858" height="8.47695819532428" fill="#e0aaff" opacity="0.24351218406658437" rx="1"/><rect x="1312.7288868198473" y="595.3414871835479" width="7.745724891253218" height="8.175984692335126" fill="#c77dff" opacity="0.5261040750253256" rx="1"/><rect x="1302.5513871801206" y="599.4294795297154" width="7.745724891253218" height="8.175984692335126" fill="#e0aaff" opacity="0.2630520375126628" rx="1"/><rect x="1312.8333136099004" y="668.7838568442463" width="7.536871311146969" height="7.044093282205075" fill="#c77dff" opacity="0.5727770303079806" rx="1"/><rect x="1302.6558139701738" y="672.3059034853488" width="7.536871311146969" height="7.044093282205075" fill="#e0aaff" opacity="0.2863885151539903" rx="1"/><rect x="1314.0618486104213" y="742.2262265049447" width="5.0798013101052035" height="8.260816931319614" fill="#c77dff" opacity="0.11225075160904108" rx="1"/><rect x="1303.8843489706946" y="746.3566349706045" width="5.0798013101052035" height="8.260816931319614" fill="#e0aaff" opacity="0.05612537580452054" rx="1"/><rect x="1313.0635561007225" y="815.6685961656432" width="7.076386329502888" height="8.533923018382378" fill="#c77dff" opacity="0.5403786157351869" rx="1"/><rect x="1302.8860564609959" y="819.9355576748344" width="7.076386329502888" height="8.533923018382378" fill="#e0aaff" opacity="0.27018930786759343" rx="1"/><rect x="1417.0060471694464" y="507.2258168848291" width="32.54715850636064" height="371.8851489415125" fill="#3c096c" opacity="0.4149443668813781" rx="2"/><rect x="1430.8807736551112" y="517.2258168848291" width="4.797705535031321" height="7.625958515709722" fill="#c77dff" opacity="0.10001648266334472" rx="1"/><rect x="1422.743984028521" y="521.038796142684" width="4.797705535031321" height="7.625958515709722" fill="#e0aaff" opacity="0.05000824133167236" rx="1"/><rect x="1429.4567094609272" y="570.3522667336166" width="7.6458339233989445" height="6.995783671037244" fill="#c77dff" opacity="0.17213381400148708" rx="1"/><rect x="1421.319919834337" y="573.8501585691353" width="7.6458339233989445" height="6.995783671037244" fill="#e0aaff" opacity="0.08606690700074354" rx="1"/><rect x="1429.388613254388" y="623.4787165824041" width="7.78202633647761" height="6.690536918279374" fill="#c77dff" opacity="0.4216586758665877" rx="1"/><rect x="1421.2518236277979" y="626.8239850415438" width="7.78202633647761" height="6.690536918279374" fill="#e0aaff" opacity="0.21082933793329384" rx="1"/><rect x="1430.1362676692977" y="676.6051664311916" width="6.286717506657988" height="9.471484307076661" fill="#c77dff" opacity="0.15749954238010094" rx="1"/><rect x="1421.9994780427076" y="681.34090858473" width="6.286717506657988" height="9.471484307076661" fill="#e0aaff" opacity="0.07874977119005047" rx="1"/><rect x="1431.220663685403" y="729.7316162799791" width="4.117925474447646" height="8.940449168658919" fill="#c77dff" opacity="0.20369984970979854" rx="1"/><rect x="1423.0838740588129" y="734.2018408643086" width="4.117925474447646" height="8.940449168658919" fill="#e0aaff" opacity="0.10184992485489927" rx="1"/><rect x="1429.534433266738" y="782.8580661287666" width="7.490386311777492" height="8.126748383540368" fill="#c77dff" opacity="0.20986279268047373" rx="1"/><rect x="1421.3976436401479" y="786.9214403205368" width="7.490386311777492" height="8.126748383540368" fill="#e0aaff" opacity="0.10493139634023686" rx="1"/><rect x="1427.8964192496837" y="835.9845159775541" width="10.76641434588619" height="6.140274311448511" fill="#c77dff" opacity="0.5184653301300634" rx="1"/><rect x="1419.7596296230936" y="839.0546531332784" width="10.76641434588619" height="6.140274311448511" fill="#e0aaff" opacity="0.2592326650650317" rx="1"/><rect x="1541.2070431819202" y="548.6057146565536" width="51.48058212862364" height="330.50525116978804" fill="#220052" opacity="0.5789502981535509" rx="2"/><rect x="1560.9495346494832" y="558.6057146565536" width="11.995599193497467" height="7.753297276271809" fill="#c77dff" opacity="0.3338693697782861" rx="1"/><rect x="1548.0793891173273" y="562.4823632946894" width="11.995599193497467" height="7.753297276271809" fill="#e0aaff" opacity="0.16693468488914304" rx="1"/><rect x="1561.8985584068341" y="641.2320274490006" width="10.097551678795728" height="9.235684594892824" fill="#c77dff" opacity="0.399409932759453" rx="1"/><rect x="1549.0284128746782" y="645.849869746447" width="10.097551678795728" height="9.235684594892824" fill="#e0aaff" opacity="0.1997049663797265" rx="1"/><rect x="1563.488796995135" y="723.8583402414476" width="6.9170745021936195" height="7.273514008446018" fill="#c77dff" opacity="0.24255281995110048" rx="1"/><rect x="1550.6186514629792" y="727.4950972456706" width="6.9170745021936195" height="7.273514008446018" fill="#e0aaff" opacity="0.12127640997555024" rx="1"/><rect x="1562.6024017528637" y="806.4846530338946" width="8.689864986736762" height="6.4705211800687294" fill="#c77dff" opacity="0.14061869800570856" rx="1"/><rect x="1549.7322562207078" y="809.719913623929" width="8.689864986736762" height="6.4705211800687294" fill="#e0aaff" opacity="0.07030934900285428" rx="1"/><rect x="1688.6320348523166" y="792.4764912325136" width="79.3831200407313" height="86.63447459382807" fill="#3c096c" opacity="0.6970042370485617" rx="2"/><rect x="1726.0323474647087" y="802.4764912325136" width="4.582494815947138" height="9.444751746823254" fill="#c77dff" opacity="0.5248805637296476" rx="1"/><rect x="1706.1865674545259" y="807.1988671059252" width="4.582494815947138" height="9.444751746823254" fill="#e0aaff" opacity="0.2624402818648238" rx="1"/><rect x="1725.629238558614" y="813.305800556742" width="5.388712628136555" height="6.738553889267742" fill="#c77dff" opacity="0.18005932732020957" rx="1"/><rect x="1705.783458548431" y="816.6750775013759" width="5.388712628136555" height="6.738553889267742" fill="#e0aaff" opacity="0.09002966366010479" rx="1"/><rect x="1722.9585390873156" y="824.1351098809706" width="10.73011157073316" height="9.726191901538101" fill="#c77dff" opacity="0.2548849910392624" rx="1"/><rect x="1703.1127590771328" y="828.9982058317397" width="10.73011157073316" height="9.726191901538101" fill="#e0aaff" opacity="0.1274424955196312" rx="1"/><rect x="1722.9396162070193" y="834.9644192051991" width="10.76795733132585" height="8.261349017327035" fill="#c77dff" opacity="0.11863495086287962" rx="1"/><rect x="1703.0938361968365" y="839.0950937138626" width="10.76795733132585" height="8.261349017327035" fill="#e0aaff" opacity="0.05931747543143981" rx="1"/><rect x="1723.0244884379265" y="845.7937285294277" width="10.598212869511501" height="6.223238641448142" fill="#c77dff" opacity="0.30751077651686753" rx="1"/><rect x="1703.1787084277437" y="848.9053478501518" width="10.598212869511501" height="6.223238641448142" fill="#e0aaff" opacity="0.15375538825843377" rx="1"/><rect x="1723.0355778914027" y="856.6230378536561" width="10.576033962558963" height="7.42831007145073" fill="#c77dff" opacity="0.32908457490361404" rx="1"/><rect x="1703.1897978812199" y="860.3371928893815" width="10.576033962558963" height="7.42831007145073" fill="#e0aaff" opacity="0.16454228745180702" rx="1"/><rect x="1722.6108866817342" y="867.4523471778846" width="11.425416381895872" height="8.194698553112033" fill="#c77dff" opacity="0.3013178075899644" rx="1"/><rect x="1702.7651066715514" y="871.5496964544406" width="11.425416381895872" height="8.194698553112033" fill="#e0aaff" opacity="0.1506589037949822" rx="1"/><rect x="1724.721759278728" y="878.2816565021132" width="7.203671187908312" height="6.417663609706253" fill="#c77dff" opacity="0.20662305834857353" rx="1"/><rect x="1704.8759792685453" y="881.4904883069663" width="7.203671187908312" height="6.417663609706253" fill="#e0aaff" opacity="0.10331152917428676" rx="1"/><rect x="1807.1986663847226" y="661.275163865945" width="75.74516620620739" height="217.83580196039654" fill="#3c096c" opacity="0.6618636917932573" rx="2"/><rect x="1840.8624558536944" y="671.275163865945" width="8.417587268263471" height="9.995173318310448" fill="#c77dff" opacity="0.1725859889231124" rx="1"/><rect x="1821.9261643021428" y="676.2727505251003" width="8.417587268263471" height="9.995173318310448" fill="#e0aaff" opacity="0.0862929944615562" rx="1"/><rect x="1842.9805789533955" y="698.5046391109946" width="4.181341068861387" height="9.78362660104959" fill="#c77dff" opacity="0.40858163787251844" rx="1"/><rect x="1824.0442874018438" y="703.3964524115194" width="4.181341068861387" height="9.78362660104959" fill="#e0aaff" opacity="0.20429081893625922" rx="1"/><rect x="1841.5814105268987" y="725.7341143560442" width="6.979677921854815" height="8.862388717677069" fill="#c77dff" opacity="0.526486234512759" rx="1"/><rect x="1822.645118975347" y="730.1653087148827" width="6.979677921854815" height="8.862388717677069" fill="#e0aaff" opacity="0.2632431172563795" rx="1"/><rect x="1840.7831773529253" y="752.9635896010938" width="8.57614426980171" height="8.482804814931658" fill="#c77dff" opacity="0.26982016658173413" rx="1"/><rect x="1821.8468858013737" y="757.2049920085595" width="8.57614426980171" height="8.482804814931658" fill="#e0aaff" opacity="0.13491008329086707" rx="1"/><rect x="1840.4648345246594" y="780.1930648461433" width="9.212829926333583" height="7.361986084226981" fill="#c77dff" opacity="0.317180162951625" rx="1"/><rect x="1821.5285429731077" y="783.8740578882569" width="9.212829926333583" height="7.361986084226981" fill="#e0aaff" opacity="0.1585900814758125" rx="1"/><rect x="1840.547861306357" y="807.4225400911929" width="9.046776362938521" height="7.149604265845754" fill="#c77dff" opacity="0.173024514381081" rx="1"/><rect x="1821.6115697548053" y="810.9973422241158" width="9.046776362938521" height="7.149604265845754" fill="#e0aaff" opacity="0.0865122571905405" rx="1"/><rect x="1839.7758976735117" y="834.6520153362425" width="10.590703628629143" height="9.22871641889883" fill="#c77dff" opacity="0.1843010276053802" rx="1"/><rect x="1820.83960612196" y="839.2663735456919" width="10.590703628629143" height="9.22871641889883" fill="#e0aaff" opacity="0.0921505138026901" rx="1"/><rect x="1839.9140685640539" y="861.881490581292" width="10.314361847544639" height="6.448105848498667" fill="#c77dff" opacity="0.2147453842253297" rx="1"/><rect x="1820.9777770125022" y="865.1055435055414" width="10.314361847544639" height="6.448105848498667" fill="#e0aaff" opacity="0.10737269211266486" rx="1"/><rect x="0" y="1000" width="1920" height="80" fill="#160046" opacity="0.8"/><line x1="0" y1="1040" x2="1920" y2="1040" stroke="#c77dff" stroke-opacity="0.15" stroke-width="2" stroke-dasharray="30,20"/><rect x="0" y="930" width="1920" height="150" fill="url(#glow51)"/><rect x="0" y="980" width="1920" height="100" fill="#c77dff" opacity="0.04"/><rect x="1337.512242211381" y="1006.4009606666865" width="107.83268760606477" height="2" fill="#e0aaff" opacity="0.044066287517563044" rx="1"/><rect x="94.94650306528119" y="1013.4862040247504" width="52.544448932759565" height="2" fill="#e0aaff" opacity="0.04838880804097019" rx="1"/><rect x="960.5109905452725" y="1016.1891038241305" width="78.4303351488035" height="2" fill="#e0aaff" opacity="0.022813875145002705" rx="1"/><rect x="96.04102181644204" y="1042.712357505856" width="94.33164649976689" height="2" fill="#e0aaff" opacity="0.057002116832184174" rx="1"/><rect x="1573.3128676501365" y="1049.660147835887" width="63.89244631023436" height="2" fill="#e0aaff" opacity="0.03749063134600656" rx="1"/><rect x="932.2241607988775" y="1001.5380612112438" width="42.063540951829296" height="2" fill="#e0aaff" opacity="0.058692955625870485" rx="1"/><rect x="1438.9829031003133" y="1008.8887440480498" width="23.197753942384793" height="2" fill="#e0aaff" opacity="0.03186519636117509" rx="1"/><rect x="993.5927324820293" y="1027.421578664198" width="23.26217184850531" height="2" fill="#e0aaff" opacity="0.021400105841783833" rx="1"/><rect x="1512.075694704446" y="1046.0294123147683" width="63.96151088736055" height="2" fill="#e0aaff" opacity="0.05902997296280926" rx="1"/><rect x="1505.0491877424179" y="1037.6621319720666" width="38.9745210620981" height="2" fill="#e0aaff" opacity="0.029952340947918675" rx="1"/><rect x="350.73050164401775" y="1027.8902970645322" width="87.71425201271526" height="2" fill="#e0aaff" opacity="0.0510352370122064" rx="1"/><rect x="50.377288621472495" y="1003.9810316692993" width="95.23969066684127" height="2" fill="#e0aaff" opacity="0.04483586025071234" rx="1"/><rect x="1272.2734409552704" y="1013.0294308003572" width="42.26431174722135" height="2" fill="#e0aaff" opacity="0.022145155203096838" rx="1"/><rect x="1564.3120720154402" y="1053.203987412435" width="38.80613763788858" height="2" fill="#e0aaff" opacity="0.04744568733206151" rx="1"/><rect x="58.24768112465918" y="1054.9812039628116" width="96.22995168814202" height="2" fill="#e0aaff" opacity="0.027651253763505086" rx="1"/><rect x="1392.4554199242164" y="1005.9170180340104" width="28.15469373673077" height="2" fill="#e0aaff" opacity="0.04693469051898799" rx="1"/><rect x="1804.9145999282864" y="1004.9945898132852" width="101.70957276171762" height="2" fill="#e0aaff" opacity="0.05199539660289776" rx="1"/><rect x="1710.1609843480776" y="1003.9169979942769" width="112.80352950859897" height="2" fill="#e0aaff" opacity="0.046981497487747464" rx="1"/><rect x="206.28686969314862" y="1032.3919547797161" width="26.050551102042792" height="2" fill="#e0aaff" opacity="0.04900359474797817" rx="1"/><rect x="769.8212002520033" y="1057.8640383151044" width="22.047596313536072" height="2" fill="#e0aaff" opacity="0.05765150170718587" rx="1"/><rect x="380.80583953783054" y="1058.7487278689512" width="114.6274116389983" height="2" fill="#e0aaff" opacity="0.02347382078959463" rx="1"/><rect x="1305.6869077742301" y="1031.5542047777108" width="67.61095183147373" height="2" fill="#e0aaff" opacity="0.03643011509823382" rx="1"/><rect x="1792.2857992053698" y="1024.1436805306337" width="84.50428477593331" height="2" fill="#e0aaff" opacity="0.05659197308975085" rx="1"/><rect x="1837.7159642981635" y="1003.5947439501981" width="58.57058001183219" height="2" fill="#e0aaff" opacity="0.04141184020354688" rx="1"/><rect x="253.617702185553" y="1032.5492797215816" width="69.40501750665834" height="2" fill="#e0aaff" opacity="0.057688595074622095" rx="1"/><rect x="950.2646181709749" y="1012.8208404483322" width="93.5729098956969" height="2" fill="#e0aaff" opacity="0.041804025019939066" rx="1"/><rect x="1812.26527867193" y="1058.345012790138" width="101.18526110918849" height="2" fill="#e0aaff" opacity="0.05946441978203701" rx="1"/><rect x="1690.5532577099636" y="1003.6110531500566" width="47.03948913305986" height="2" fill="#e0aaff" opacity="0.03303523531487101" rx="1"/><rect x="1634.6003369322511" y="1002.1270062499975" width="118.49005290271948" height="2" fill="#e0aaff" opacity="0.0531611177774987" rx="1"/><rect x="1468.3294316074646" y="1052.0825884985" width="84.30233164324946" height="2" fill="#e0aaff" opacity="0.05039263360909946" rx="1"/><text x="1900" y="1060" font-family="Arial, sans-serif" font-size="11" fill="#fff" opacity="0.08" text-anchor="end" letter-spacing="2">GTA 6 REWARDS · WALLPAPER 052</text>
</svg>