<?xml version="1.0" encoding="UTF-8"?>
<svg xmlns="http://www.w3.org/2000/svg" width="1920" height="1080" viewBox="0 0 1920 1080">
<defs>
    <linearGradient id="bg53" x1="0%" y1="0%" x2="0%" y2="100%">
      <stop offset="0%" stop-color="#4361ee"/>
      <stop offset="50%" stop-color="#102ebb"/>
      <stop offset="100%" stop-color="#4361ee"/>
    </linearGradient>
    <linearGradient id="sun53" x1="0%" y1="0%" x2="100%" y2="100%">
      <stop offset="0%" stop-color="#4cc9f0"/>
      <stop offset="100%" stop-color="#4895ef"/>
    </linearGradient>
    <radialGradient id="glow53" cx="50%" cy="70%" r="50%">
      <stop offset="0%" stop-color="#4cc9f0" stop-opacity="0.3"/>
      <stop offset="100%" stop-color="#4361ee" stop-opacity="0"/>
    </radialGradient>
  </defs><rect width="1920" height="1080" fill="url(#bg53)"/><circle cx="1285.1155746227864" cy="224.5755647366344" r="889.7524487669003" fill="#4cc9f0" opacity="0.05826159704203289"/><circle cx="1485.1155746227864" cy="124.57556473663439" r="506.5366538955217" fill="#4895ef" opacity="0.0559375194473978"/><line x1="0" y1="980" x2="1920" y2="980" stroke="#4895ef" stroke-opacity="0.05" stroke-width="2"/><line x1="0" y1="935" x2="1920" y2="935" stroke="#4895ef" stroke-opacity="0.049" stroke-width="0.5"/><line x1="0" y1="890" x2="1920" y2="890" stroke="#4895ef" stroke-opacity="0.048" stroke-width="0.5"/><line x1="0" y1="845" x2="1920" y2="845" stroke="#4895ef" stroke-opacity="0.047" stroke-width="0.5"/><line x1="0" y1="800" x2="1920" y2="800" stroke="#4895ef" stroke-opacity="0.046" stroke-width="0.5"/><line x1="0" y1="755" x2="1920" y2="755" stroke="#4895ef" stroke-opacity="0.045" stroke-width="0.5"/><line x1="0" y1="710" x2="1920" y2="710" stroke="#4895ef" stroke-opacity="0.044" stroke-width="0.5"/><line x1="0" y1="665" x2="1920" y2="665" stroke="#4895ef" stroke-opacity="0.043" stroke-width="0.5"/><line x1="0" y1="620" x2="1920" y2="620" stroke="#4895ef" stroke-opacity="0.041999999999999996" stroke-width="0.5"/><line x1="0" y1="575" x2="1920" y2="575" stroke="#4895ef" stroke-opacity="0.041" stroke-width="0.5"/><line x1="0" y1="530" x2="1920" y2="530" stroke="#4895ef" stroke-opacity="0.04" stroke-width="0.5"/><line x1="0" y1="485" x2="1920" y2="485" stroke="#4895ef" stroke-opacity="0.039" stroke-width="0.5"/><line x1="0" y1="440" x2="1920" y2="440" stroke="#4895ef" stroke-opacity="0.038" stroke-width="0.5"/><line x1="0" y1="395" x2="1920" y2="395" stroke="#4895ef" stroke-opacity="0.037" stroke-width="0.5"/><line x1="0" y1="350" x2="1920" y2="350" stroke="#4895ef" stroke-opacity="0.036" stroke-width="0.5"/><line x1="0" y1="305" x2="1920" y2="305" stroke="#4895ef" stroke-opacity="0.034999999999999996" stroke-width="0.5"/><line x1="0" y1="260" x2="1920" y2="260" stroke="#4895ef" stroke-opacity="0.033999999999999996" stroke-width="0.5"/><line x1="0" y1="215" x2="1920" y2="215" stroke="#4895ef" stroke-opacity="0.033" stroke-width="0.5"/><line x1="0" y1="170" x2="1920" y2="170" stroke="#4895ef" stroke-opacity="0.032" stroke-width="0.5"/><line x1="0" y1="125" x2="1920" y2="125" stroke="#4895ef" stroke-opacity="0.031" stroke-width="0.5"/><line x1="560" y1="1080" x2="860" y2="580" stroke="#4cc9f0" stroke-opacity="0.04" stroke-width="1"/><line x1="640" y1="1080" x2="880" y2="590" stroke="#4cc9f0" stroke-opacity="0.04" stroke-width="1"/><line x1="720" y1="1080" x2="900" y2="600" stroke="#4cc9f0" stroke-opacity="0.04" stroke-width="1"/><line x1="800" y1="1080" x2="920" y2="610" stroke="#4cc9f0" stroke-opacity="0.04" stroke-width="1"/><line x1="880" y1="1080" x2="940" y2="620" stroke="#4cc9f0" stroke-opacity="0.04" stroke-width="1"/><line x1="960" y1="1080" x2="960" y2="630" stroke="#4cc9f0" stroke-opacity="0.04" stroke-width="1"/><line x1="1040" y1="1080" x2="980" y2="620" stroke="#4cc9f0" stroke-opacity="0.04" stroke-width="1"/><line x1="1120" y1="1080" x2="1000" y2="610" stroke="#4cc9f0" stroke-opacity="0.04" stroke-width="1"/><line x1="1200" y1="1080" x2="1020" y2="600" stroke="#4cc9f0" stroke-opacity="0.04" stroke-width="1"/><line x1="1280" y1="1080" x2="1040" y2="590" stroke="#4cc9f0" stroke-opacity="0.04" stroke-width="1"/><line x1="1360" y1="1080" x2="1060" y2="580" stroke="#4cc9f0" stroke-opacity="0.04" stroke-width="1"/><circle cx="945.4256833171066" cy="436.11291912060994" r="90.89910628062187" fill="url(#sun53)" opacity="0.7941507117110655"/><circle cx="945.4256833171066" cy="436.11291912060994" r="85.89910628062187" fill="#4361ee" opacity="0.3"/><pattern id="scan53" width="1920" height="4" patternUnits="userSpaceOnUse">
      <line x1="0" y1="0" x2="1920" y2="0" stroke="#000" stroke-opacity="0.05" stroke-width="1"/>
    </pattern>
    <rect width="1920" height="1080" fill="url(#scan53)"/><circle cx="1595.6306835253795" cy="423.5752682852501" r="1.369656995024918" fill="#fff" opacity="0.289954968609371"/><circle cx="1593.2717093064618" cy="38.621561897597644" r="1.2883901553667128" fill="#fff" opacity="0.4973545849549944"/><circle cx="1816.3279965278525" cy="344.9142751937998" r="1.6888206439765219" fill="#fff" opacity="0.3345021230016142"/><circle cx="1303.526189928764" cy="187.1157246071649" r="0.707012923948237" fill="#fff" opacity="0.24285576023227903"/><circle cx="1226.2081815177128" cy="75.99366084765497" r="0.7095017352163563" fill="#fff" opacity="0.6878054161294842"/><circle cx="568.6845952106371" cy="347.12734355664054" r="1.7876305726328003" fill="#fff" opacity="0.2647760631201733"/><circle cx="1829.0479615118932" cy="405.4549287272279" r="1.2213744744009745" fill="#fff" opacity="0.26326367623714353"/><circle cx="421.9360972433202" cy="110.27828509320466" r="1.831855058398064" fill="#fff" opacity="0.24019047008831765"/><circle cx="1562.9615882697892" cy="236.50716955133413" r="1.8035852026202681" fill="#fff" opacity="0.6707276299760507"/><circle cx="185.2103385760473" cy="412.68862857965024" r="1.8648157100809775" fill="#fff" opacity="0.7112099256625422"/><circle cx="1649.0224451685842" cy="141.31751716447005" r="1.4670899949192746" fill="#fff" opacity="0.6830374128378549"/><circle cx="1119.8070907219794" cy="214.71527748711298" r="0.5471890758600061" fill="#fff" opacity="0.5790950667530054"/><circle cx="57.684604538996844" cy="388.4940568293664" r="1.166327350695228" fill="#fff" opacity="0.729017328268154"/><circle cx="362.27142565936583" cy="88.84162314814553" r="1.1976939900074373" fill="#fff" opacity="0.6062176132123492"/><circle cx="288.2006756142249" cy="126.84733724939807" r="0.8182880645194761" fill="#fff" opacity="0.49364250504729396"/><circle cx="45.67425147762388" cy="303.32051084919846" r="0.78776083229756" fill="#fff" opacity="0.34555766218005624"/><circle cx="1414.392652691899" cy="176.6156360135916" r="1.1043278497188185" fill="#fff" opacity="0.3695672427233232"/><circle cx="1129.8247725911963" cy="431.1042982598544" r="1.237839945065286" fill="#fff" opacity="0.31221894950424767"/><circle cx="1541.1206105959418" cy="429.9143454502137" r="1.8132002244967036" fill="#fff" opacity="0.2633121306224056"/><circle cx="1318.2998325019842" cy="211.94477581697163" r="1.5972433652722378" fill="#fff" opacity="0.23416218129782057"/><circle cx="99.16342603488904" cy="54.61684689824862" r="1.87922043327224" fill="#fff" opacity="0.49993338796774234"/><circle cx="581.7473348839551" cy="158.6882532645688" r="0.8450344475789542" fill="#fff" opacity="0.32634854817910786"/><circle cx="744.0428219977865" cy="134.01583608752486" r="0.5326534573763267" fill="#fff" opacity="0.25102880998771376"/><circle cx="1815.1088967675132" cy="249.09717328313207" r="1.425503381044954" fill="#fff" opacity="0.41060204049819193"/><circle cx="599.123902162333" cy="256.34025147937706" r="1.2908342407994984" fill="#fff" opacity="0.2774528199521482"/><circle cx="629.0700188253703" cy="180.85638267659962" r="1.3238654265468626" fill="#fff" opacity="0.428677781072603"/><circle cx="829.8204528237275" cy="114.6798881559353" r="1.759295888771139" fill="#fff" opacity="0.4786235846296473"/><circle cx="526.4460791383046" cy="39.4484999793229" r="0.772783303114768" fill="#fff" opacity="0.6899004208598984"/><circle cx="577.8014477942609" cy="162.08712499264794" r="0.5189805190355937" fill="#fff" opacity="0.4565415090547273"/><circle cx="1191.5394784304174" cy="148.64812093708852" r="1.4600991356326498" fill="#fff" opacity="0.40825090003391984"/><circle cx="1655.0758006551946" cy="258.2692893972316" r="1.689388241662967" fill="#fff" opacity="0.2677389013273034"/><circle cx="382.3845108743721" cy="117.64823154119036" r="1.34990441923726" fill="#fff" opacity="0.3236128352404602"/><circle cx="794.8491630318689" cy="78.19350337195058" r="1.2360944015057977" fill="#fff" opacity="0.38675489020225473"/><circle cx="646.5563005224235" cy="127.53165600810472" r="0.5717786352782926" fill="#fff" opacity="0.6773985612386368"/><circle cx="1674.6208270812922" cy="63.039976127222175" r="1.7806004528609571" fill="#fff" opacity="0.79811346968592"/><circle cx="1430.3015509597728" cy="56.72024677524349" r="1.6642122685825946" fill="#fff" opacity="0.735743964262247"/><circle cx="589.7692283871047" cy="80.39228183040215" r="1.8571257609541354" fill="#fff" opacity="0.7178116496461004"/><circle cx="634.9695460486621" cy="192.02173843235283" r="0.5055204551912659" fill="#fff" opacity="0.5618569258511665"/><circle cx="252.63869589488922" cy="427.4273422424279" r="1.6993859229142279" fill="#fff" opacity="0.39549165032699046"/><circle cx="818.2830594895136" cy="74.86491983636863" r="0.6576716037601399" fill="#fff" opacity="0.7196466492767555"/><circle cx="1899.0838980626045" cy="139.82068631700722" r="0.7064256972415432" fill="#fff" opacity="0.3403289548448122"/><circle cx="1268.3658777150247" cy="3.792198200661735" r="1.1616365369785662" fill="#fff" opacity="0.5016132234832302"/><circle cx="1379.9740812415198" cy="389.1713248317063" r="1.174530622589991" fill="#fff" opacity="0.5094842942220821"/><circle cx="55.75553701626033" cy="83.23537735343804" r="1.9011023990812483" fill="#fff" opacity="0.7405809001858767"/><circle cx="285.0442220934304" cy="116.89912435899002" r="0.6809527285352706" fill="#fff" opacity="0.6812832225769021"/><circle cx="1607.5803077983624" cy="141.2729779773562" r="0.5066484501600844" fill="#fff" opacity="0.7161350264950039"/><circle cx="360.6711585169358" cy="247.8832642566141" r="1.3042492114017366" fill="#fff" opacity="0.31739516000202744"/><circle cx="86.49259420262943" cy="23.207173866966546" r="0.6435774901517615" fill="#fff" opacity="0.7659852876714397"/><circle cx="1662.3597312863822" cy="312.6239610930495" r="1.0577630848991133" fill="#fff" opacity="0.22726861579047253"/><circle cx="274.4087474687045" cy="98.82834156295945" r="1.386897573104803" fill="#fff" opacity="0.6780840729545066"/><circle cx="1416.8264176270054" cy="133.96252788742132" r="0.8532274191624549" fill="#fff" opacity="0.6476293664070846"/><circle cx="130.51618474780494" cy="188.32965073276537" r="0.7613810817155477" fill="#fff" opacity="0.6430595952652068"/><circle cx="808.7224054729385" cy="325.9319062135024" r="1.7262937906725084" fill="#fff" opacity="0.4054660860461803"/><circle cx="607.0222312135207" cy="411.0888052310536" r="1.7892499867103178" fill="#fff" opacity="0.29032763975912884"/><circle cx="203.87177248575534" cy="49.61587462611866" r="0.9760817115837899" fill="#fff" opacity="0.40737724490635496"/><circle cx="1413.5030547095237" cy="21.754629743694007" r="1.0562068277635162" fill="#fff" opacity="0.7517763609885648"/><circle cx="505.4166435882023" cy="94.17474972414196" r="1.3313505345329992" fill="#fff" opacity="0.6111639658015138"/><circle cx="1377.217884831414" cy="147.14236869363637" r="1.2189081091710618" fill="#fff" opacity="0.21860953914434872"/><circle cx="277.3729903151684" cy="257.9022118267375" r="0.5857994529851245" fill="#fff" opacity="0.2768719915013928"/><circle cx="1322.1098585524853" cy="335.84206720810437" r="1.8321512720622475" fill="#fff" opacity="0.7393742177959937"/><circle cx="332.88266979457876" cy="360.82180720028043" r="0.7471195629907585" fill="#fff" opacity="0.7391584386907422"/><circle cx="334.64278541846267" cy="353.16427339640546" r="1.481456636330452" fill="#fff" opacity="0.7884497248540747"/><circle cx="804.2384091402029" cy="25.754060173815596" r="1.8287107945253864" fill="#fff" opacity="0.5299408302944948"/><circle cx="471.91980879565693" cy="28.405220306572787" r="1.425766091892907" fill="#fff" opacity="0.4315408547947977"/><circle cx="107.42978009102627" cy="313.2571066229737" r="0.9704766023136854" fill="#fff" opacity="0.6622979498147726"/><circle cx="1435.0046207371645" cy="128.48707538854495" r="0.5124257348972433" fill="#fff" opacity="0.5982496946114697"/><circle cx="1242.143310001619" cy="159.94681895895556" r="0.5993917451937198" fill="#fff" opacity="0.5959750865111069"/><circle cx="953.858706726194" cy="279.2264627942877" r="1.6427083454659925" fill="#fff" opacity="0.4201396882580919"/><circle cx="986.9962193879755" cy="420.54359211133414" r="1.6456667326031407" fill="#fff" opacity="0.290748674210801"/><circle cx="318.3802387859626" cy="367.4646332709735" r="1.5303315916169276" fill="#fff" opacity="0.36676197759033224"/><circle cx="1802.3314292454934" cy="285.7988142924846" r="0.6517912778425476" fill="#fff" opacity="0.7746408747915738"/><circle cx="756.6974760863692" cy="415.46335030334615" r="1.8937546456916619" fill="#fff" opacity="0.2965866338686521"/><circle cx="592.164660085031" cy="158.2135234918011" r="1.7614364853970326" fill="#fff" opacity="0.2611682065904998"/><circle cx="312.68660373815493" cy="160.688246842634" r="1.2692339041431513" fill="#fff" opacity="0.6898102848068369"/><rect x="25.47767467691509" y="620.7533516969423" width="60.35850425957668" height="327.42296525450024" fill="#2947d4" opacity="0.49075617887795814" rx="2"/><rect x="53.116356354699555" y="630.7533516969423" width="5.081140904007745" height="9.152937285404871" fill="#4895ef" opacity="0.3777703307284439" rx="1"/><rect x="38.02673028980539" y="635.3298203396448" width="5.081140904007745" height="9.152937285404871" fill="#4cc9f0" opacity="0.18888516536422195" rx="1"/><rect x="50.10344869529443" y="712.6090930105674" width="11.10695622281799" height="6.40410222401938" fill="#4895ef" opacity="0.5693248203185678" rx="1"/><rect x="35.01382263040027" y="715.8111441225772" width="11.10695622281799" height="6.40410222401938" fill="#4cc9f0" opacity="0.2846624101592839" rx="1"/><rect x="52.389721944320414" y="794.4648343241925" width="6.534409724766018" height="8.17059208968901" fill="#4895ef" opacity="0.2527608296956776" rx="1"/><rect x="37.30009587942625" y="798.550130369037" width="6.534409724766018" height="8.17059208968901" fill="#4cc9f0" opacity="0.1263804148478388" rx="1"/><rect x="52.52746042644779" y="876.3205756378175" width="6.258932760511277" height="6.730567331595944" fill="#4895ef" opacity="0.1604297904205578" rx="1"/><rect x="37.43783436155363" y="879.6858593036154" width="6.258932760511277" height="6.730567331595944" fill="#4cc9f0" opacity="0.0802148952102789" rx="1"/><rect x="98.4606027902245" y="795.2500873699901" width="75.38137614386653" height="152.9262295814525" fill="#4361ee" opacity="0.4864107339378472" rx="2"/><rect x="133.77957875299722" y="805.2500873699901" width="4.743424218321085" height="8.242395991050264" fill="#4895ef" opacity="0.5401300861360808" rx="1"/><rect x="114.93423471703059" y="809.3712853655152" width="4.743424218321085" height="8.242395991050264" fill="#4cc9f0" opacity="0.2700650430680404" rx="1"/><rect x="130.27542898367983" y="824.3658660676716" width="11.751723756955872" height="6.8518927192436285" fill="#4895ef" opacity="0.5402214971930305" rx="1"/><rect x="111.4300849477132" y="827.7918124272934" width="11.751723756955872" height="6.8518927192436285" fill="#4cc9f0" opacity="0.27011074859651524" rx="1"/><rect x="130.91102765451907" y="843.4816447653532" width="10.480526415277396" height="7.577439048694782" fill="#4895ef" opacity="0.5045477045943373" rx="1"/><rect x="112.06568361855244" y="847.2703642897005" width="10.480526415277396" height="7.577439048694782" fill="#4cc9f0" opacity="0.25227385229716864" rx="1"/><rect x="131.5026082486153" y="862.5974234630347" width="9.297365227084924" height="7.555004155625357" fill="#4895ef" opacity="0.3649074543185782" rx="1"/><rect x="112.65726421264867" y="866.3749255408474" width="9.297365227084924" height="7.555004155625357" fill="#4cc9f0" opacity="0.1824537271592891" rx="1"/><rect x="133.30650683033898" y="881.7132021607163" width="5.689568063637607" height="9.556057171792737" fill="#4895ef" opacity="0.3517793715819203" rx="1"/><rect x="114.46116279437233" y="886.4912307466126" width="5.689568063637607" height="9.556057171792737" fill="#4cc9f0" opacity="0.17588968579096015" rx="1"/><rect x="133.37478340984666" y="900.8289808583979" width="5.553014904622225" height="9.72479965531379" fill="#4895ef" opacity="0.5516272978977363" rx="1"/><rect x="114.52943937388002" y="905.6913806860548" width="5.553014904622225" height="9.72479965531379" fill="#4cc9f0" opacity="0.2758136489488682" rx="1"/><rect x="133.19912061099873" y="919.9447595560795" width="5.904340502318075" height="7.291444646495265" fill="#4895ef" opacity="0.4739419688642821" rx="1"/><rect x="114.3537765750321" y="923.5904818793271" width="5.904340502318075" height="7.291444646495265" fill="#4cc9f0" opacity="0.23697098443214104" rx="1"/><rect x="132.64922218202827" y="939.060538253761" width="7.004137360258991" height="6.827690365916977" fill="#4895ef" opacity="0.5280214150035804" rx="1"/><rect x="113.80387814606163" y="942.4743834367196" width="7.004137360258991" height="6.827690365916977" fill="#4cc9f0" opacity="0.2640107075017902" rx="1"/><rect x="174.04225458485126" y="673.3281171818562" width="61.159248340679156" height="274.84819976958636" fill="#2947d4" opacity="0.5462952028136456" rx="2"/><rect x="201.18757790471136" y="683.3281171818562" width="6.868601700958935" height="8.519740292457804" fill="#4895ef" opacity="0.1252794195025413" rx="1"/><rect x="185.89776581954158" y="687.5879873280851" width="6.868601700958935" height="8.519740292457804" fill="#4cc9f0" opacity="0.06263970975127064" rx="1"/><rect x="201.11204630837588" y="717.6841421530545" width="7.019664893629883" height="7.626570319204259" fill="#4895ef" opacity="0.5878743813577747" rx="1"/><rect x="185.8222342232061" y="721.4974273126567" width="7.019664893629883" height="7.626570319204259" fill="#4cc9f0" opacity="0.29393719067888735" rx="1"/><rect x="198.63743527597686" y="752.0401671242528" width="11.968886958427934" height="8.093820711153983" fill="#4895ef" opacity="0.11142972382051632" rx="1"/><rect x="183.34762319080707" y="756.0870774798298" width="11.968886958427934" height="8.093820711153983" fill="#4cc9f0" opacity="0.05571486191025816" rx="1"/><rect x="199.46748649526094" y="786.396192095451" width="10.308784519859772" height="6.572436375676756" fill="#4895ef" opacity="0.30244410941434186" rx="1"/><rect x="184.17767441009116" y="789.6824102832894" width="10.308784519859772" height="6.572436375676756" fill="#4cc9f0" opacity="0.15122205470717093" rx="1"/><rect x="199.5213296200431" y="820.7522170666493" width="10.201098270295443" height="7.1855904015678895" fill="#4895ef" opacity="0.44901311047119397" rx="1"/><rect x="184.23151753487332" y="824.3450122674333" width="10.201098270295443" height="7.1855904015678895" fill="#4cc9f0" opacity="0.22450655523559698" rx="1"/><rect x="202.3396212336001" y="855.1082420378477" width="4.564515043181487" height="8.231212060486715" fill="#4895ef" opacity="0.4627029515017529" rx="1"/><rect x="187.0498091484303" y="859.2238480680911" width="4.564515043181487" height="8.231212060486715" fill="#4cc9f0" opacity="0.23135147575087645" rx="1"/><rect x="201.95188306620153" y="889.464267009046" width="5.339991377978584" height="8.448081808734704" fill="#4895ef" opacity="0.44822860228555017" rx="1"/><rect x="186.66207098103175" y="893.6883079134134" width="5.339991377978584" height="8.448081808734704" fill="#4cc9f0" opacity="0.22411430114277509" rx="1"/><rect x="201.94121111532235" y="923.8202919802443" width="5.361335279736979" height="7.896959502691626" fill="#4895ef" opacity="0.46929370844021756" rx="1"/><rect x="186.65139903015256" y="927.76877173159" width="5.361335279736979" height="7.896959502691626" fill="#4cc9f0" opacity="0.23464685422010878" rx="1"/><rect x="245.63305590432907" y="667.09096051452" width="37.75104825565383" height="281.08535643692255" fill="#4361ee" opacity="0.5299748008209222" rx="2"/><rect x="259.0040279752584" y="677.09096051452" width="11.009104113795122" height="7.253603345075064" fill="#4895ef" opacity="0.5584819479981629" rx="1"/><rect x="249.56626591134497" y="680.7177621870576" width="11.009104113795122" height="7.253603345075064" fill="#4cc9f0" opacity="0.27924097399908143" rx="1"/><rect x="260.01386741898347" y="723.9385199206738" width="8.989425226345059" height="7.473199805587809" fill="#4895ef" opacity="0.1655412607746062" rx="1"/><rect x="250.57610535506998" y="727.6751198234678" width="8.989425226345059" height="7.473199805587809" fill="#4cc9f0" opacity="0.0827706303873031" rx="1"/><rect x="260.43789418866805" y="770.7860793268276" width="8.141371686975791" height="7.475816713058347" fill="#4895ef" opacity="0.2521671527652459" rx="1"/><rect x="251.00013212475463" y="774.5239876833567" width="8.141371686975791" height="7.475816713058347" fill="#4cc9f0" opacity="0.12608357638262296" rx="1"/><rect x="262.3264616134871" y="817.6336387329814" width="4.36423683733778" height="7.271203355228343" fill="#4895ef" opacity="0.39576203909138263" rx="1"/><rect x="252.88869954957363" y="821.2692404105956" width="4.36423683733778" height="7.271203355228343" fill="#4cc9f0" opacity="0.19788101954569132" rx="1"/><rect x="259.1556095830527" y="864.481198139135" width="10.705940898206537" height="8.581341251400612" fill="#4895ef" opacity="0.2073391038475882" rx="1"/><rect x="249.71784751913924" y="868.7718687648353" width="10.705940898206537" height="8.581341251400612" fill="#4cc9f0" opacity="0.1036695519237941" rx="1"/><rect x="260.7266926960383" y="911.3287575452888" width="7.56377467223531" height="9.146954280125666" fill="#4895ef" opacity="0.35016621238323076" rx="1"/><rect x="251.28893063212487" y="915.9022346853516" width="7.56377467223531" height="9.146954280125666" fill="#4cc9f0" opacity="0.17508310619161538" rx="1"/><rect x="345.7628334629729" y="630.4047295894485" width="61.0927479553718" height="317.7715873619941" fill="#2947d4" opacity="0.5689171289021422" rx="2"/><rect x="371.05872433121755" y="640.4047295894485" width="10.500966218882464" height="9.060918746297462" fill="#4895ef" opacity="0.342365071722857" rx="1"/><rect x="355.7855373423746" y="644.9351889625972" width="10.500966218882464" height="9.060918746297462" fill="#4cc9f0" opacity="0.1711825358614285" rx="1"/><rect x="370.6324321715237" y="693.3666608164475" width="11.353550538270163" height="9.681853817701771" fill="#4895ef" opacity="0.4134948974041024" rx="1"/><rect x="355.35924518268075" y="698.2075877252984" width="11.353550538270163" height="9.681853817701771" fill="#4cc9f0" opacity="0.2067474487020512" rx="1"/><rect x="371.89012030486253" y="746.3285920434465" width="8.838174271592445" height="6.770362935208334" fill="#4895ef" opacity="0.3309740381853129" rx="1"/><rect x="356.6169333160196" y="749.7137735110507" width="8.838174271592445" height="6.770362935208334" fill="#4cc9f0" opacity="0.16548701909265645" rx="1"/><rect x="371.6974561230041" y="799.2905232704455" width="9.223502635309357" height="6.786068736758565" fill="#4895ef" opacity="0.18524711420416068" rx="1"/><rect x="356.42426913416114" y="802.6835576388248" width="9.223502635309357" height="6.786068736758565" fill="#4cc9f0" opacity="0.09262355710208034" rx="1"/><rect x="372.213233033012" y="852.2524544974445" width="8.191948815293598" height="8.68309823951756" fill="#4895ef" opacity="0.2747410708746736" rx="1"/><rect x="356.94004604416904" y="856.5940036172033" width="8.191948815293598" height="8.68309823951756" fill="#4cc9f0" opacity="0.1373705354373368" rx="1"/><rect x="371.5297105616261" y="905.2143857244436" width="9.558993758065391" height="8.023382002027562" fill="#4895ef" opacity="0.16695626165414143" rx="1"/><rect x="356.2565235727831" y="909.2260767254573" width="9.558993758065391" height="8.023382002027562" fill="#4cc9f0" opacity="0.08347813082707072" rx="1"/><rect x="417.0365315296307" y="686.470607548596" width="40.27766808175427" height="261.70570940284654" fill="#2947d4" opacity="0.4186047873037413" rx="2"/><rect x="434.95144647591553" y="696.470607548596" width="4.447838189184628" height="7.733540793353119" fill="#4895ef" opacity="0.1326229037094449" rx="1"/><rect x="424.8820294554769" y="700.3373779452726" width="4.447838189184628" height="7.733540793353119" fill="#4cc9f0" opacity="0.06631145185472245" rx="1"/><rect x="433.26649757760265" y="733.8571374632884" width="7.817735985810341" height="6.175031094852609" fill="#4895ef" opacity="0.16410980202818984" rx="1"/><rect x="423.19708055716404" y="736.9446530107147" width="7.817735985810341" height="6.175031094852609" fill="#4cc9f0" opacity="0.08205490101409492" rx="1"/><rect x="432.7901116320375" y="771.2436673779807" width="8.770507876940655" height="9.40571046793035" fill="#4895ef" opacity="0.4899646346433937" rx="1"/><rect x="422.7206946115989" y="775.9465226119459" width="8.770507876940655" height="9.40571046793035" fill="#4cc9f0" opacity="0.24498231732169684" rx="1"/><rect x="433.90392992852816" y="808.6301972926731" width="6.542871283959334" height="9.857107244398703" fill="#4895ef" opacity="0.49764918431119276" rx="1"/><rect x="423.83451290808955" y="813.5587509148725" width="6.542871283959334" height="9.857107244398703" fill="#4cc9f0" opacity="0.24882459215559638" rx="1"/><rect x="432.95805319211405" y="846.0167272073654" width="8.434624756787583" height="6.095218122958955" fill="#4895ef" opacity="0.1198479936271552" rx="1"/><rect x="422.88863617167544" y="849.064336268845" width="8.434624756787583" height="6.095218122958955" fill="#4cc9f0" opacity="0.0599239968135776" rx="1"/><rect x="431.47207232529115" y="883.4032571220578" width="11.406586490433334" height="6.278769699921545" fill="#4895ef" opacity="0.3734018917599232" rx="1"/><rect x="421.40265530485254" y="886.5426419720185" width="11.406586490433334" height="6.278769699921545" fill="#4cc9f0" opacity="0.1867009458799616" rx="1"/><rect x="433.1129025472591" y="920.7897870367502" width="8.124926046497404" height="6.034155300826336" fill="#4895ef" opacity="0.41353454357328234" rx="1"/><rect x="423.0434855268205" y="923.8068646871634" width="8.124926046497404" height="6.034155300826336" fill="#4cc9f0" opacity="0.20676727178664117" rx="1"/><rect x="486.7894742979644" y="624.8119533119751" width="30.286310529402996" height="323.36436363946746" fill="#4361ee" opacity="0.681890444593013" rx="2"/><rect x="496.4255495079387" y="634.8119533119751" width="11.014160109454338" height="6.2428939045041085" fill="#4895ef" opacity="0.35605550961477117" rx="1"/><rect x="488.85397187558794" y="637.9334002642272" width="11.014160109454338" height="6.2428939045041085" fill="#4cc9f0" opacity="0.17802775480738559" rx="1"/><rect x="497.28975878569526" y="675.2324987669085" width="9.285741553941214" height="6.933492383205679" fill="#4895ef" opacity="0.4273942899721196" rx="1"/><rect x="489.7181811533445" y="678.6992449585114" width="9.285741553941214" height="6.933492383205679" fill="#4cc9f0" opacity="0.2136971449860598" rx="1"/><rect x="499.01163932355394" y="715.653044221842" width="5.841980478223874" height="7.143508291138222" fill="#4895ef" opacity="0.19800987646403023" rx="1"/><rect x="491.4400616912032" y="719.2247983674112" width="5.841980478223874" height="7.143508291138222" fill="#4cc9f0" opacity="0.09900493823201512" rx="1"/><rect x="497.39875695398047" y="756.0735896767754" width="9.067745217370742" height="7.81449266658502" fill="#4895ef" opacity="0.45811498839364273" rx="1"/><rect x="489.8271793216297" y="759.980836010068" width="9.067745217370742" height="7.81449266658502" fill="#4cc9f0" opacity="0.22905749419682137" rx="1"/><rect x="499.61359009859467" y="796.4941351317088" width="4.638078928142339" height="8.299014950706393" fill="#4895ef" opacity="0.5624182688916145" rx="1"/><rect x="492.04201246624393" y="800.643642607062" width="4.638078928142339" height="8.299014950706393" fill="#4cc9f0" opacity="0.28120913444580725" rx="1"/><rect x="496.25547113438495" y="836.9146805866422" width="11.354316856561768" height="9.507319266793159" fill="#4895ef" opacity="0.39544989725003254" rx="1"/><rect x="488.6838935020342" y="841.6683402200388" width="11.354316856561768" height="9.507319266793159" fill="#4cc9f0" opacity="0.19772494862501627" rx="1"/><rect x="496.36579896774276" y="877.3352260415757" width="11.13366118984615" height="9.243132416914015" fill="#4895ef" opacity="0.5648732638370416" rx="1"/><rect x="488.794221335392" y="881.9567922500327" width="11.13366118984615" height="9.243132416914015" fill="#4cc9f0" opacity="0.2824366319185208" rx="1"/><rect x="496.96404623518794" y="917.7557714965092" width="9.937166654955867" height="7.757467297315008" fill="#4895ef" opacity="0.2218442538804012" rx="1"/><rect x="489.3924686028372" y="921.6345051451667" width="9.937166654955867" height="7.757467297315008" fill="#4cc9f0" opacity="0.1109221269402006" rx="1"/><rect x="585.2393554465937" y="829.8560970066711" width="52.57023514308274" height="118.32021994477142" fill="#4361ee" opacity="0.5359761659605373" rx="2"/><rect x="606.0249959605338" y="839.8560970066711" width="10.998954115202407" height="7.298046831343799" fill="#4895ef" opacity="0.17292571991517341" rx="1"/><rect x="592.8824371747631" y="843.505120422343" width="10.998954115202407" height="7.298046831343799" fill="#4cc9f0" opacity="0.08646285995758671" rx="1"/><rect x="607.3334390265712" y="879.2961703215949" width="8.38206798312768" height="8.226949674595835" fill="#4895ef" opacity="0.19843674513940623" rx="1"/><rect x="594.1908802408005" y="883.4096451588928" width="8.38206798312768" height="8.226949674595835" fill="#4cc9f0" opacity="0.09921837256970312" rx="1"/><rect x="608.0890449953938" y="918.7362436365188" width="6.870856045482414" height="6.181345509407424" fill="#4895ef" opacity="0.42962854726464217" rx="1"/><rect x="594.9464862096231" y="921.8269163912225" width="6.870856045482414" height="6.181345509407424" fill="#4cc9f0" opacity="0.21481427363232108" rx="1"/><rect x="640.7094755002087" y="749.4542203725907" width="71.78755096201496" height="198.72209657885185" fill="#4361ee" opacity="0.46373302341991407" rx="2"/><rect x="672.7598955579475" y="759.4542203725907" width="7.686710846537424" height="8.745552358856786" fill="#4895ef" opacity="0.5781594041218421" rx="1"/><rect x="654.8130078174437" y="763.8269965520191" width="7.686710846537424" height="8.745552358856786" fill="#4cc9f0" opacity="0.28907970206092104" rx="1"/><rect x="671.737498973668" y="809.1347445173037" width="9.731504015096348" height="7.768918781953147" fill="#4895ef" opacity="0.594715655686966" rx="1"/><rect x="653.7906112331642" y="813.0192039082802" width="9.731504015096348" height="7.768918781953147" fill="#4cc9f0" opacity="0.297357827843483" rx="1"/><rect x="672.7074107401323" y="858.8152686620167" width="7.791680482167676" height="7.924750868679199" fill="#4895ef" opacity="0.13184530430749183" rx="1"/><rect x="654.7605229996285" y="862.7776440963563" width="7.791680482167676" height="7.924750868679199" fill="#4cc9f0" opacity="0.06592265215374592" rx="1"/><rect x="674.2416357712917" y="908.4957928067296" width="4.723230419848866" height="6.977764555480742" fill="#4895ef" opacity="0.5816871419273519" rx="1"/><rect x="656.2947480307879" y="911.9846750844699" width="4.723230419848866" height="6.977764555480742" fill="#4cc9f0" opacity="0.29084357096367597" rx="1"/><rect x="720.5883817539058" y="813.1117490383591" width="87.9055265984278" height="135.0645679130835" fill="#4361ee" opacity="0.657843667747882" rx="2"/><rect x="759.8537090101404" y="823.1117490383591" width="9.374872085958456" height="7.286956457720827" fill="#4895ef" opacity="0.33425833443977365" rx="1"/><rect x="737.8773273605335" y="826.7552272672195" width="9.374872085958456" height="7.286956457720827" fill="#4cc9f0" opacity="0.16712916721988683" rx="1"/><rect x="759.8876010530832" y="856.87789101663" width="9.307088000072884" height="8.071845327986368" fill="#4895ef" opacity="0.40415310764316315" rx="1"/><rect x="737.9112194034764" y="860.9138136806232" width="9.307088000072884" height="8.071845327986368" fill="#4cc9f0" opacity="0.20207655382158157" rx="1"/><rect x="760.5001696496038" y="890.6440329949008" width="8.0819508070317" height="9.582525880910113" fill="#4895ef" opacity="0.12139945305450807" rx="1"/><rect x="738.5237879999969" y="895.435295935356" width="8.0819508070317" height="9.582525880910113" fill="#4cc9f0" opacity="0.060699726527254035" rx="1"/><rect x="761.0336651802141" y="924.4101749731717" width="7.014959745811057" height="8.080682411343018" fill="#4895ef" opacity="0.3335074897235044" rx="1"/><rect x="739.0572835306073" y="928.4505161788433" width="7.014959745811057" height="8.080682411343018" fill="#4cc9f0" opacity="0.1667537448617522" rx="1"/><rect x="803.3893939162114" y="717.9398635676922" width="69.47513588226286" height="230.2364533837504" fill="#2947d4" opacity="0.5105242761342145" rx="2"/><rect x="833.9416008468115" y="727.9398635676922" width="8.370722021062562" height="7.824477859266214" fill="#4895ef" opacity="0.5645948418100818" rx="1"/><rect x="816.5728168762457" y="731.8521024973253" width="8.370722021062562" height="7.824477859266214" fill="#4cc9f0" opacity="0.2822974209050409" rx="1"/><rect x="832.395453673181" y="756.7194202406611" width="11.463016368323707" height="6.731599902904499" fill="#4895ef" opacity="0.1130963322038521" rx="1"/><rect x="815.0266697026152" y="760.0852201921133" width="11.463016368323707" height="6.731599902904499" fill="#4cc9f0" opacity="0.05654816610192605" rx="1"/><rect x="835.7791886573609" y="785.4989769136298" width="4.695546399963914" height="6.168472130822128" fill="#4895ef" opacity="0.27655850974297114" rx="1"/><rect x="818.4104046867951" y="788.5832129790409" width="4.695546399963914" height="6.168472130822128" fill="#4cc9f0" opacity="0.13827925487148557" rx="1"/><rect x="834.644403325311" y="814.2785335865987" width="6.965117064063698" height="7.111723119651835" fill="#4895ef" opacity="0.4752110894711714" rx="1"/><rect x="817.2756193547452" y="817.8343951464245" width="6.965117064063698" height="7.111723119651835" fill="#4cc9f0" opacity="0.2376055447355857" rx="1"/><rect x="833.1912267082816" y="843.0580902595674" width="9.871470298122492" height="7.182152839652764" fill="#4895ef" opacity="0.24538065498820055" rx="1"/><rect x="815.8224427377158" y="846.6491666793938" width="9.871470298122492" height="7.182152839652764" fill="#4cc9f0" opacity="0.12269032749410028" rx="1"/><rect x="835.4609353152246" y="871.8376469325362" width="5.332053084236582" height="9.163423299594648" fill="#4895ef" opacity="0.12443373064148094" rx="1"/><rect x="818.0921513446588" y="876.4193585823335" width="5.332053084236582" height="9.163423299594648" fill="#4cc9f0" opacity="0.06221686532074047" rx="1"/><rect x="833.0098535786406" y="900.617203605505" width="10.234216557404542" height="9.321086888043464" fill="#4895ef" opacity="0.505086594495244" rx="1"/><rect x="815.6410696080748" y="905.2777470495267" width="10.234216557404542" height="9.321086888043464" fill="#4cc9f0" opacity="0.252543297247622" rx="1"/><rect x="832.6388140995145" y="929.3967602784738" width="10.97629551565654" height="6.710350892671931" fill="#4895ef" opacity="0.13533289745341356" rx="1"/><rect x="815.2700301289487" y="932.7519357248098" width="10.97629551565654" height="6.710350892671931" fill="#4cc9f0" opacity="0.06766644872670678" rx="1"/><rect x="884.8438357107443" y="586.1849524979909" width="84.61651875512128" height="361.9913644534516" fill="#4361ee" opacity="0.5083932583472676" rx="2"/><rect x="922.3428081570526" y="596.1849524979909" width="9.618573862504814" height="8.832493156854177" fill="#4895ef" opacity="0.4966275535981701" rx="1"/><rect x="901.1886784682723" y="600.601199076418" width="9.618573862504814" height="8.832493156854177" fill="#4cc9f0" opacity="0.24831377679908506" rx="1"/><rect x="922.9288579067049" y="686.6827936113539" width="8.44647436320001" height="9.480805239519292" fill="#4895ef" opacity="0.38947233787958335" rx="1"/><rect x="901.7747282179247" y="691.4231962311135" width="8.44647436320001" height="9.480805239519292" fill="#4cc9f0" opacity="0.19473616893979168" rx="1"/><rect x="923.3611815134904" y="777.1806347247167" width="7.5818271496290865" height="7.3571712722436455" fill="#4895ef" opacity="0.12056701609878033" rx="1"/><rect x="902.2070518247101" y="780.8592203608385" width="7.5818271496290865" height="7.3571712722436455" fill="#4cc9f0" opacity="0.060283508049390165" rx="1"/><rect x="922.818244929383" y="867.6784758380796" width="8.667700317843748" height="8.182458724403395" fill="#4895ef" opacity="0.1671924285281432" rx="1"/><rect x="901.6641152406028" y="871.7697052002814" width="8.667700317843748" height="8.182458724403395" fill="#4cc9f0" opacity="0.0835962142640716" rx="1"/><rect x="962.5531685404836" y="856.2404244570621" width="73.48508109419726" height="91.93589249438045" fill="#2947d4" opacity="0.6801077791210515" rx="2"/><rect x="997.2359612128316" y="866.2404244570621" width="4.119495749501394" height="8.225287055183502" fill="#4895ef" opacity="0.46420651312549754" rx="1"/><rect x="978.8646909392822" y="870.3530679846539" width="4.119495749501394" height="8.225287055183502" fill="#4cc9f0" opacity="0.23210325656274877" rx="1"/><rect x="996.9847169835085" y="896.885721955189" width="4.621984208147503" height="8.358489518602958" fill="#4895ef" opacity="0.5390388467440006" rx="1"/><rect x="978.6134467099591" y="901.0649667144904" width="4.621984208147503" height="8.358489518602958" fill="#4cc9f0" opacity="0.2695194233720003" rx="1"/><rect x="993.6516153776673" y="927.5310194533157" width="11.288187419829935" height="9.4371040545956" fill="#4895ef" opacity="0.3174614300526356" rx="1"/><rect x="975.2803451041179" y="932.2495714806136" width="11.288187419829935" height="9.4371040545956" fill="#4cc9f0" opacity="0.1587307150263178" rx="1"/><rect x="1044.6929520379504" y="574.4881971679833" width="57.412622279350785" height="373.6881197834593" fill="#4361ee" opacity="0.5163112188494557" rx="2"/><rect x="1068.6965419286155" y="584.4881971679833" width="9.405442498020232" height="7.508449682385765" fill="#4895ef" opacity="0.41542047865582177" rx="1"/><rect x="1054.343386358778" y="588.2424220091763" width="9.405442498020232" height="7.508449682385765" fill="#4cc9f0" opacity="0.20771023932791088" rx="1"/><rect x="1068.4900271220808" y="646.7695504652265" width="9.818472111089731" height="9.297420262195502" fill="#4895ef" opacity="0.4131565673540245" rx="1"/><rect x="1054.1368715522433" y="651.4182605963243" width="9.818472111089731" height="9.297420262195502" fill="#4cc9f0" opacity="0.20657828367701225" rx="1"/><rect x="1070.2359617048028" y="709.0509037624697" width="6.326602945645946" height="9.232193139202938" fill="#4895ef" opacity="0.5032202104346873" rx="1"/><rect x="1055.8828061349652" y="713.6670003320712" width="6.326602945645946" height="9.232193139202938" fill="#4cc9f0" opacity="0.25161010521734367" rx="1"/><rect x="1068.1144994076142" y="771.332257059713" width="10.569527540022863" height="6.100515536056021" fill="#4895ef" opacity="0.2708884603974615" rx="1"/><rect x="1053.7613438377766" y="774.382514827741" width="10.569527540022863" height="6.100515536056021" fill="#4cc9f0" opacity="0.13544423019873075" rx="1"/><rect x="1069.750523014169" y="833.6136103569562" width="7.297480326913641" height="8.692619756491068" fill="#4895ef" opacity="0.2723356317198685" rx="1"/><rect x="1055.3973674443314" y="837.9599202352017" width="7.297480326913641" height="8.692619756491068" fill="#4cc9f0" opacity="0.13616781585993426" rx="1"/><rect x="1068.2301622487676" y="895.8949636541994" width="10.338201857716358" height="8.158473682161066" fill="#4895ef" opacity="0.5497880791197037" rx="1"/><rect x="1053.87700667893" y="899.9742004952799" width="10.338201857716358" height="8.158473682161066" fill="#4cc9f0" opacity="0.27489403955985187" rx="1"/><rect x="1146.058786058812" y="731.7595857967995" width="68.58910480481319" height="216.41673115464317" fill="#2947d4" opacity="0.6319831643328031" rx="2"/><rect x="1175.8369830532085" y="741.7595857967995" width="9.032710816020312" height="8.14237754748724" fill="#4895ef" opacity="0.3425969179586035" rx="1"/><rect x="1158.6897068520052" y="745.8307745705431" width="9.032710816020312" height="8.14237754748724" fill="#4cc9f0" opacity="0.17129845897930174" rx="1"/><rect x="1177.9769476128224" y="785.042932027728" width="4.752781696792874" height="9.385912962114883" fill="#4895ef" opacity="0.10957891962248342" rx="1"/><rect x="1160.829671411619" y="789.7358885087855" width="4.752781696792874" height="9.385912962114883" fill="#4cc9f0" opacity="0.05478945981124171" rx="1"/><rect x="1177.9747606588003" y="828.3262782586568" width="4.7571556048368" height="8.282630496258529" fill="#4895ef" opacity="0.23116479027810619" rx="1"/><rect x="1160.827484457597" y="832.467593506786" width="4.7571556048368" height="8.282630496258529" fill="#4cc9f0" opacity="0.11558239513905309" rx="1"/><rect x="1174.5239893019955" y="871.6096244895854" width="11.658698318446683" height="9.749352473707253" fill="#4895ef" opacity="0.18860824643369026" rx="1"/><rect x="1157.3767131007921" y="876.484300726439" width="11.658698318446683" height="9.749352473707253" fill="#4cc9f0" opacity="0.09430412321684513" rx="1"/><rect x="1177.0707174907604" y="914.892970720514" width="6.565241940916805" height="6.023921928374079" fill="#4895ef" opacity="0.27296545060187705" rx="1"/><rect x="1159.923441289557" y="917.904931684701" width="6.565241940916805" height="6.023921928374079" fill="#4cc9f0" opacity="0.13648272530093852" rx="1"/><rect x="1225.2904249856458" y="657.0732718699317" width="59.44603829398892" height="291.1030450815109" fill="#4361ee" opacity="0.5456679861866096" rx="2"/><rect x="1251.2142951889462" y="667.0732718699317" width="7.59829788738822" height="6.61926996070409" fill="#4895ef" opacity="0.1433203517560196" rx="1"/><rect x="1236.352785615449" y="670.3829068502837" width="7.59829788738822" height="6.61926996070409" fill="#4cc9f0" opacity="0.0716601758780098" rx="1"/><rect x="1251.0917860288384" y="725.2938808862339" width="7.843316207603392" height="9.77768791741172" fill="#4895ef" opacity="0.4624396975763234" rx="1"/><rect x="1236.2302764553413" y="730.1827248449397" width="7.843316207603392" height="9.77768791741172" fill="#4cc9f0" opacity="0.2312198487881617" rx="1"/><rect x="1250.9579306607966" y="783.5144899025361" width="8.111026943687122" height="8.231320187037653" fill="#4895ef" opacity="0.2650511123391453" rx="1"/><rect x="1236.0964210872994" y="787.6301499960549" width="8.111026943687122" height="8.231320187037653" fill="#4cc9f0" opacity="0.13252555616957265" rx="1"/><rect x="1252.0628675355256" y="841.7350989188383" width="5.901153194229387" height="9.20140366889569" fill="#4895ef" opacity="0.3670690824201026" rx="1"/><rect x="1237.2013579620284" y="846.3358007532861" width="5.901153194229387" height="9.20140366889569" fill="#4cc9f0" opacity="0.1835345412100513" rx="1"/><rect x="1251.157857461869" y="899.9557079351404" width="7.71117334154229" height="6.265532093184426" fill="#4895ef" opacity="0.3419786691297727" rx="1"/><rect x="1236.2963478883719" y="903.0884739817326" width="7.71117334154229" height="6.265532093184426" fill="#4cc9f0" opacity="0.17098933456488635" rx="1"/><rect x="1300.1100132335234" y="766.9846353742723" width="60.53738881147871" height="181.1916815771702" fill="#4361ee" opacity="0.6017988695068748" rx="2"/><rect x="1326.1136283462668" y="776.9846353742723" width="8.530158585992213" height="9.50043031561664" fill="#4895ef" opacity="0.1572738750039772" rx="1"/><rect x="1310.9792811433972" y="781.7348505320806" width="8.530158585992213" height="9.50043031561664" fill="#4cc9f0" opacity="0.0786369375019886" rx="1"/><rect x="1327.5344972686225" y="799.6335955714186" width="5.6884207412806385" height="6.368848068725515" fill="#4895ef" opacity="0.3646970628445728" rx="1"/><rect x="1312.400150065753" y="802.8180196057814" width="5.6884207412806385" height="6.368848068725515" fill="#4cc9f0" opacity="0.1823485314222864" rx="1"/><rect x="1327.272920974594" y="822.2825557685649" width="6.211573329337773" height="6.106633510465415" fill="#4895ef" opacity="0.44392409127762633" rx="1"/><rect x="1312.1385737717244" y="825.3358725237975" width="6.211573329337773" height="6.106633510465415" fill="#4cc9f0" opacity="0.22196204563881317" rx="1"/><rect x="1324.4066345508693" y="844.9315159657111" width="11.944146176787127" height="6.740705178291701" fill="#4895ef" opacity="0.18579069657386066" rx="1"/><rect x="1309.2722873479997" y="848.3018685548569" width="11.944146176787127" height="6.740705178291701" fill="#4cc9f0" opacity="0.09289534828693033" rx="1"/><rect x="1324.6816326057728" y="867.5804761628574" width="11.39415006697973" height="6.035664402888078" fill="#4895ef" opacity="0.22121888485765523" rx="1"/><rect x="1309.5472854029033" y="870.5983083643015" width="11.39415006697973" height="6.035664402888078" fill="#4cc9f0" opacity="0.11060944242882761" rx="1"/><rect x="1327.2131283591066" y="890.2294363600037" width="6.331158560312157" height="9.46698514266568" fill="#4895ef" opacity="0.263559190384941" rx="1"/><rect x="1312.078781156237" y="894.9629289313365" width="6.331158560312157" height="9.46698514266568" fill="#4cc9f0" opacity="0.1317795951924705" rx="1"/><rect x="1328.1188354085011" y="912.8783965571499" width="4.5197444615233096" height="8.910788012414889" fill="#4895ef" opacity="0.40696029770350095" rx="1"/><rect x="1312.9844882056316" y="917.3337905633574" width="4.5197444615233096" height="8.910788012414889" fill="#4cc9f0" opacity="0.20348014885175048" rx="1"/><rect x="1324.4970797285198" y="935.5273567542963" width="11.763255821485831" height="8.907740582457683" fill="#4895ef" opacity="0.21500277384533611" rx="1"/><rect x="1309.3627325256502" y="939.9812270455252" width="11.763255821485831" height="8.907740582457683" fill="#4cc9f0" opacity="0.10750138692266806" rx="1"/><rect x="1360.0731189875103" y="666.6783485484026" width="58.26134800637638" height="281.49796840304" fill="#2947d4" opacity="0.5064013512354347" rx="2"/><rect x="1384.4538149487819" y="676.6783485484026" width="9.49995608383323" height="6.542076178952604" fill="#4895ef" opacity="0.3383266420192846" rx="1"/><rect x="1369.8884779471878" y="679.9493866378789" width="9.49995608383323" height="6.542076178952604" fill="#4cc9f0" opacity="0.1691633210096423" rx="1"/><rect x="1384.7763523663805" y="747.0528406491626" width="8.85488124863591" height="8.49195877520646" fill="#4895ef" opacity="0.4329984340427906" rx="1"/><rect x="1370.2110153647864" y="751.2988200367658" width="8.85488124863591" height="8.49195877520646" fill="#4cc9f0" opacity="0.2164992170213953" rx="1"/><rect x="1387.0581080424736" y="817.4273327499226" width="4.291369896449933" height="6.5783836237570235" fill="#4895ef" opacity="0.358025582590612" rx="1"/><rect x="1372.4927710408795" y="820.7165245618011" width="4.291369896449933" height="6.5783836237570235" fill="#4cc9f0" opacity="0.179012791295306" rx="1"/><rect x="1386.579990968476" y="887.8018248506826" width="5.247604044444767" height="6.9741347145694625" fill="#4895ef" opacity="0.5569658195732548" rx="1"/><rect x="1372.014653966882" y="891.2888922079674" width="5.247604044444767" height="6.9741347145694625" fill="#4cc9f0" opacity="0.2784829097866274" rx="1"/><rect x="1447.2150242904236" y="680.918792374646" width="31.465318221940034" height="267.2575245767966" fill="#4361ee" opacity="0.6783437278304119" rx="2"/><rect x="1460.451066100842" y="690.918792374646" width="4.993234601103056" height="6.0862577986173" fill="#4895ef" opacity="0.5212203293389688" rx="1"/><rect x="1452.584736545357" y="693.9619212739547" width="4.993234601103056" height="6.0862577986173" fill="#4cc9f0" opacity="0.2606101646694844" rx="1"/><rect x="1458.5779384611121" y="744.3702972900054" width="8.73948988056264" height="7.648152564104682" fill="#4895ef" opacity="0.11821398723828933" rx="1"/><rect x="1450.7116089056271" y="748.1943735720578" width="8.73948988056264" height="7.648152564104682" fill="#4cc9f0" opacity="0.05910699361914466" rx="1"/><rect x="1458.1024348654555" y="797.8218022053646" width="9.690497071875841" height="6.648625360021513" fill="#4895ef" opacity="0.30626997754589425" rx="1"/><rect x="1450.2361053099705" y="801.1461148853754" width="9.690497071875841" height="6.648625360021513" fill="#4cc9f0" opacity="0.15313498877294712" rx="1"/><rect x="1457.707511151374" y="851.273307120724" width="10.480344500038854" height="6.63557369928704" fill="#4895ef" opacity="0.12454323066038621" rx="1"/><rect x="1449.841181595889" y="854.5910939703675" width="10.480344500038854" height="6.63557369928704" fill="#4cc9f0" opacity="0.062271615330193104" rx="1"/><rect x="1458.3855684728792" y="904.7248120360833" width="9.124229857028515" height="9.504778057221504" fill="#4895ef" opacity="0.11171384833560183" rx="1"/><rect x="1450.5192389173942" y="909.4772010646941" width="9.124229857028515" height="9.504778057221504" fill="#4cc9f0" opacity="0.055856924167800914" rx="1"/><rect x="1528.5234408705783" y="679.7244106372177" width="87.01403225236899" height="268.4519063142249" fill="#4361ee" opacity="0.6159502399656807" rx="2"/><rect x="1569.462378043789" y="689.7244106372177" width="5.136157905947454" height="9.320461847661171" fill="#4895ef" opacity="0.3567375687083084" rx="1"/><rect x="1547.7088699806968" y="694.3846415610483" width="5.136157905947454" height="9.320461847661171" fill="#4cc9f0" opacity="0.1783687843541542" rx="1"/><rect x="1568.521159938425" y="728.0746829678212" width="7.01859411667534" height="6.994767450959134" fill="#4895ef" opacity="0.2985210535811542" rx="1"/><rect x="1546.7676518753328" y="731.5720666933008" width="7.01859411667534" height="6.994767450959134" fill="#4cc9f0" opacity="0.1492605267905771" rx="1"/><rect x="1566.3294433218728" y="766.4249552984248" width="11.402027349779853" height="9.858872503940685" fill="#4895ef" opacity="0.5131967138762579" rx="1"/><rect x="1544.5759352587806" y="771.3543915503951" width="11.402027349779853" height="9.858872503940685" fill="#4cc9f0" opacity="0.25659835693812894" rx="1"/><rect x="1566.9599124803115" y="804.7752276290284" width="10.141089032902636" height="7.100282063032566" fill="#4895ef" opacity="0.5523573814547521" rx="1"/><rect x="1545.2064044172193" y="808.3253686605448" width="10.141089032902636" height="7.100282063032566" fill="#4cc9f0" opacity="0.27617869072737605" rx="1"/><rect x="1567.010628459512" y="843.125499959632" width="10.039657074501658" height="7.582646093699766" fill="#4895ef" opacity="0.5051252662681801" rx="1"/><rect x="1545.2571203964199" y="846.9168230064819" width="10.039657074501658" height="7.582646093699766" fill="#4cc9f0" opacity="0.25256263313409005" rx="1"/><rect x="1569.9944439495434" y="881.4757722902355" width="4.072026094438514" height="6.088196658549876" fill="#4895ef" opacity="0.25869159208580195" rx="1"/><rect x="1548.2409358864513" y="884.5198706195104" width="4.072026094438514" height="6.088196658549876" fill="#4cc9f0" opacity="0.12934579604290097" rx="1"/><rect x="1569.782513972554" y="919.8260446208391" width="4.495886048417512" height="9.224555154150481" fill="#4895ef" opacity="0.5932116961556514" rx="1"/><rect x="1548.0290059094618" y="924.4383221979143" width="4.495886048417512" height="9.224555154150481" fill="#4cc9f0" opacity="0.2966058480778257" rx="1"/><rect x="1602.9248312215611" y="612.1857894380078" width="88.28816106503089" height="335.99052751343476" fill="#2947d4" opacity="0.45226726146700497" rx="2"/><rect x="1643.3669437096378" y="622.1857894380078" width="7.403936088877716" height="8.769995417159516" fill="#4895ef" opacity="0.4044601483979402" rx="1"/><rect x="1621.29490344338" y="626.5707871465875" width="7.403936088877716" height="8.769995417159516" fill="#4cc9f0" opacity="0.2022300741989701" rx="1"/><rect x="1643.7925474654867" y="678.1842106902469" width="6.5527285771800035" height="9.513253641201475" fill="#4895ef" opacity="0.11335466048059861" rx="1"/><rect x="1621.720507199229" y="682.9408375108477" width="6.5527285771800035" height="9.513253641201475" fill="#4cc9f0" opacity="0.056677330240299306" rx="1"/><rect x="1644.0900215099311" y="734.1826319424861" width="5.957780488291238" height="7.19792676651802" fill="#4895ef" opacity="0.5045572017562941" rx="1"/><rect x="1622.0179812436734" y="737.7815953257451" width="5.957780488291238" height="7.19792676651802" fill="#4cc9f0" opacity="0.2522786008781471" rx="1"/><rect x="1645.0276488396405" y="790.1810531947251" width="4.082525828872464" height="7.8589657530791515" fill="#4895ef" opacity="0.5589021041660808" rx="1"/><rect x="1622.9556085733827" y="794.1105360712647" width="4.082525828872464" height="7.8589657530791515" fill="#4cc9f0" opacity="0.2794510520830404" rx="1"/><rect x="1643.7024881254656" y="846.1794744469643" width="6.732847257222247" height="9.354447088985342" fill="#4895ef" opacity="0.5714969743442482" rx="1"/><rect x="1621.6304478592078" y="850.8566979914569" width="6.732847257222247" height="9.354447088985342" fill="#4cc9f0" opacity="0.2857484871721241" rx="1"/><rect x="1643.2301649395913" y="902.1778956992034" width="7.677493628970695" height="7.517224844898383" fill="#4895ef" opacity="0.12002798289061245" rx="1"/><rect x="1621.1581246733335" y="905.9365081216527" width="7.677493628970695" height="7.517224844898383" fill="#4cc9f0" opacity="0.060013991445306225" rx="1"/><rect x="1697.741352824434" y="761.7379661094718" width="88.87555869270012" height="186.43835084197073" fill="#4361ee" opacity="0.4710089867168593" rx="2"/><rect x="1737.2685987111806" y="771.7379661094718" width="9.82106691920689" height="9.707875329001778" fill="#4895ef" opacity="0.4454155762087124" rx="1"/><rect x="1715.0497090380056" y="776.5919037739727" width="9.82106691920689" height="9.707875329001778" fill="#4cc9f0" opacity="0.2227077881043562" rx="1"/><rect x="1738.6192729309246" y="809.0256362778659" width="7.119718479718948" height="8.154268779362148" fill="#4895ef" opacity="0.3701328737358872" rx="1"/><rect x="1716.4003832577496" y="813.102770667547" width="7.119718479718948" height="8.154268779362148" fill="#4cc9f0" opacity="0.1850664368679436" rx="1"/><rect x="1737.9726169456198" y="846.3133064462601" width="8.413030450328492" height="6.0047632092621095" fill="#4895ef" opacity="0.320964661268742" rx="1"/><rect x="1715.7537272724448" y="849.3156880508911" width="8.413030450328492" height="6.0047632092621095" fill="#4cc9f0" opacity="0.160482330634371" rx="1"/><rect x="1736.1873463995723" y="883.6009766146542" width="11.983571542423118" height="7.117776369936246" fill="#4895ef" opacity="0.43452509572601994" rx="1"/><rect x="1713.9684567263973" y="887.1598647996224" width="11.983571542423118" height="7.117776369936246" fill="#4cc9f0" opacity="0.21726254786300997" rx="1"/><rect x="1739.7211183390395" y="920.8886467830484" width="4.916027663488879" height="9.612761651075623" fill="#4895ef" opacity="0.5933753143980576" rx="1"/><rect x="1717.5022286658645" y="925.6950276085862" width="4.916027663488879" height="9.612761651075623" fill="#4cc9f0" opacity="0.2966876571990288" rx="1"/><rect x="1786.0583232240888" y="721.9539690813874" width="78.89009820038689" height="226.22234787005522" fill="#2947d4" opacity="0.42570210849533374" rx="2"/><rect x="1819.8818962571404" y="731.9539690813874" width="11.242952134283946" height="8.6146793483325" fill="#4895ef" opacity="0.44251473409647935" rx="1"/><rect x="1800.1593717070436" y="736.2613087555536" width="11.242952134283946" height="8.6146793483325" fill="#4cc9f0" opacity="0.22125736704823967" rx="1"/><rect x="1820.5418244114942" y="777.1984386553985" width="9.923095825576013" height="9.911106439286634" fill="#4895ef" opacity="0.1089345645413116" rx="1"/><rect x="1800.8192998613974" y="782.1539918750418" width="9.923095825576013" height="9.911106439286634" fill="#4cc9f0" opacity="0.0544672822706558" rx="1"/><rect x="1822.1060248746319" y="822.4429082294095" width="6.79469489930074" height="9.758113027493962" fill="#4895ef" opacity="0.33548898979450786" rx="1"/><rect x="1802.3835003245351" y="827.3219647431564" width="6.79469489930074" height="9.758113027493962" fill="#4cc9f0" opacity="0.16774449489725393" rx="1"/><rect x="1822.8379982332324" y="867.6873778034205" width="5.330748182099953" height="9.639024871317442" fill="#4895ef" opacity="0.4821332743116965" rx="1"/><rect x="1803.1154736831356" y="872.5068902390792" width="5.330748182099953" height="9.639024871317442" fill="#4cc9f0" opacity="0.24106663715584825" rx="1"/><rect x="1821.8717487810347" y="912.9318473774316" width="7.263247086494985" height="7.087179235435832" fill="#4895ef" opacity="0.28811167524850734" rx="1"/><rect x="1802.149224230938" y="916.4754369951495" width="7.263247086494985" height="7.087179235435832" fill="#4cc9f0" opacity="0.14405583762425367" rx="1"/><rect x="1850.770828216516" y="601.1443345111666" width="66.14824038374896" height="347.03198244027607" fill="#2947d4" opacity="0.6798040556208707" rx="2"/><rect x="1880.5154599583511" y="611.1443345111666" width="6.6589769000790495" height="8.080930588320115" fill="#4895ef" opacity="0.5962926763101231" rx="1"/><rect x="1863.9783998624139" y="615.1847998053266" width="6.6589769000790495" height="8.080930588320115" fill="#4cc9f0" opacity="0.29814633815506153" rx="1"/><rect x="1879.774705025082" y="680.5507309992217" width="8.140486766616927" height="6.824869571445713" fill="#4895ef" opacity="0.29939237965722393" rx="1"/><rect x="1863.2376449291448" y="683.9631657849446" width="8.140486766616927" height="6.824869571445713" fill="#4cc9f0" opacity="0.14969618982861196" rx="1"/><rect x="1880.4038390581038" y="749.9571274872769" width="6.882218700573365" height="8.013782306111832" fill="#4895ef" opacity="0.25804232311389463" rx="1"/><rect x="1863.8667789621666" y="753.9640186403328" width="6.882218700573365" height="8.013782306111832" fill="#4cc9f0" opacity="0.12902116155694732" rx="1"/><rect x="1879.5627455614886" y="819.3635239753322" width="8.564405693804009" height="9.92465778811012" fill="#4895ef" opacity="0.38284189763545107" rx="1"/><rect x="1863.0256854655513" y="824.3258528693873" width="8.564405693804009" height="9.92465778811012" fill="#4cc9f0" opacity="0.19142094881772553" rx="1"/><rect x="1878.0650458105524" y="888.7699204633874" width="11.559805195676118" height="8.825593400473146" fill="#4895ef" opacity="0.2729039390741158" rx="1"/><rect x="1861.5279857146152" y="893.1827171636239" width="11.559805195676118" height="8.825593400473146" fill="#4cc9f0" opacity="0.1364519695370579" rx="1"/><rect x="0" y="1000" width="1920" height="80" fill="#1d3bc8" opacity="0.8"/><line x1="0" y1="1040" x2="1920" y2="1040" stroke="#4895ef" stroke-opacity="0.15" stroke-width="2" stroke-dasharray="30,20"/><rect x="0" y="930" width="1920" height="150" fill="url(#glow53)"/><rect x="0" y="980" width="1920" height="100" fill="#4895ef" opacity="0.04"/><rect x="754.623543795809" y="1001.9425167753227" width="99.68209373757293" height="2" fill="#4cc9f0" opacity="0.022666689847285554" rx="1"/><rect x="1882.5053268583738" y="1040.904663210014" width="26.934095222254772" height="2" fill="#4cc9f0" opacity="0.02011238284411663" rx="1"/><rect x="287.0742975843778" y="1057.288568317259" width="50.39866018351136" height="2" fill="#4cc9f0" opacity="0.0534293510470142" rx="1"/><rect x="904.0283616501904" y="1044.901506403671" width="27.36386310480625" height="2" fill="#4cc9f0" opacity="0.03255310075649831" rx="1"/><rect x="257.6410018507487" y="1010.8150518990157" width="102.85984943687447" height="2" fill="#4cc9f0" opacity="0.057433723052366104" rx="1"/><rect x="313.76925729070075" y="1015.0125552841957" width="113.27290728531614" height="2" fill="#4cc9f0" opacity="0.05357530721313676" rx="1"/><rect x="614.8002229572274" y="1049.3912938910983" width="54.26212166302422" height="2" fill="#4cc9f0" opacity="0.04839262564396314" rx="1"/><rect x="1299.4204990610995" y="1050.3581038420923" width="110.61046989881677" height="2" fill="#4cc9f0" opacity="0.04257652013156948" rx="1"/><rect x="1003.2423289965936" y="1009.2240367990975" width="77.96815384132046" height="2" fill="#4cc9f0" opacity="0.0524873379321041" rx="1"/><rect x="1245.948374859511" y="1057.8492420627385" width="101.13874604020704" height="2" fill="#4cc9f0" opacity="0.020149526326020604" rx="1"/><rect x="1718.22674761485" y="1024.9362290382703" width="58.66497642329544" height="2" fill="#4cc9f0" opacity="0.03976089706173187" rx="1"/><rect x="1723.0640530127714" y="1000.3496985883335" width="116.79243338685306" height="2" fill="#4cc9f0" opacity="0.03002655984135963" rx="1"/><rect x="221.80893754163034" y="1000.6700065500731" width="58.25864431873398" height="2" fill="#4cc9f0" opacity="0.04140743022351699" rx="1"/><rect x="1076.4953830364382" y="1039.0779932772457" width="73.3838660114873" height="2" fill="#4cc9f0" opacity="0.022193867518146025" rx="1"/><rect x="1715.4215910554449" y="1029.0567994464786" width="57.458900417540896" height="2" fill="#4cc9f0" opacity="0.05803936332418569" rx="1"/><rect x="1025.0824126007692" y="1006.1903864159692" width="73.3791741247706" height="2" fill="#4cc9f0" opacity="0.04058384979622994" rx="1"/><rect x="1203.6202309847856" y="1051.3146683274103" width="75.1836294716186" height="2" fill="#4cc9f0" opacity="0.029428754208942122" rx="1"/><rect x="1296.5368458667158" y="1012.4882646492888" width="113.45968724076164" height="2" fill="#4cc9f0" opacity="0.027888578448418664" rx="1"/><rect x="1057.1949392038387" y="1008.3149493691313" width="91.1310129778299" height="2" fill="#4cc9f0" opacity="0.05304196699360432" rx="1"/><rect x="807.018287667776" y="1050.4100214062282" width="95.57296933968854" height="2" fill="#4cc9f0" opacity="0.029675862083601734" rx="1"/><rect x="1206.613809151252" y="1045.4334386171386" width="93.11978737663473" height="2" fill="#4cc9f0" opacity="0.057337337694442214" rx="1"/><rect x="1292.138961854423" y="1056.5124927080499" width="24.56071090990694" height="2" fill="#4cc9f0" opacity="0.04143278043284844" rx="1"/><rect x="18.15758854573536" y="1015.1365915674569" width="32.38592819133446" height="2" fill="#4cc9f0" opacity="0.026938488969332187" rx="1"/><rect x="138.46508103852744" y="1023.8959643346947" width="45.66932456699883" height="2" fill="#4cc9f0" opacity="0.045758977584950386" rx="1"/><rect x="1320.051150927332" y="1028.5144348508945" width="43.78043737816169" height="2" fill="#4cc9f0" opacity="0.05775897748716152" rx="1"/><rect x="1250.5196623435522" y="1047.5757664552834" width="105.89192109319659" height="2" fill="#4cc9f0" opacity="0.04254527165148064" rx="1"/><rect x="1819.76141316345" y="1058.893262627277" width="69.22621453861385" height="2" fill="#4cc9f0" opacity="0.05180825746427482" rx="1"/><rect x="1372.3784792638332" y="1039.8113214456969" width="60.2965498483499" height="2" fill="#4cc9f0" opacity="0.028403855396528697" rx="1"/><rect x="875.406799818251" y="1057.8756997077437" width="25.78354909219396" height="2" fill="#4cc9f0" opacity="0.02266158971066158" rx="1"/><rect x="51.452696633397764" y="1050.1264490490141" width="33.32087046776918" height="2" fill="#4cc9f0" opacity="0.040736757111907176" rx="1"/><text x="1900" y="1060" font-family="Arial, sans-serif" font-size="11" fill="#fff" opacity="0.08" text-anchor="end" letter-spacing="2">GTA 6 REWARDS · WALLPAPER 054</text>
</svg>