<?xml version="1.0" encoding="UTF-8"?>
<svg xmlns="http://www.w3.org/2000/svg" width="1920" height="1080" viewBox="0 0 1920 1080">
<defs>
    <linearGradient id="bg68" x1="0%" y1="0%" x2="0%" y2="100%">
      <stop offset="0%" stop-color="#352f44"/>
      <stop offset="50%" stop-color="#020011"/>
      <stop offset="100%" stop-color="#352f44"/>
    </linearGradient>
    <linearGradient id="sun68" x1="0%" y1="0%" x2="100%" y2="100%">
      <stop offset="0%" stop-color="#ff577f"/>
      <stop offset="100%" stop-color="#ff884b"/>
    </linearGradient>
    <radialGradient id="glow68" cx="50%" cy="70%" r="50%">
      <stop offset="0%" stop-color="#ff577f" stop-opacity="0.3"/>
      <stop offset="100%" stop-color="#352f44" stop-opacity="0"/>
    </radialGradient>
  </defs><rect width="1920" height="1080" fill="url(#bg68)"/><circle cx="640.7754321444722" cy="255.19404542986166" r="891.7040938957837" fill="#ff577f" opacity="0.06261691213879197"/><circle cx="840.7754321444722" cy="155.19404542986166" r="504.8609931266077" fill="#ff884b" opacity="0.08410651028950385"/><line x1="0" y1="980" x2="1920" y2="980" stroke="#ff884b" stroke-opacity="0.05" stroke-width="2"/><line x1="0" y1="935" x2="1920" y2="935" stroke="#ff884b" stroke-opacity="0.049" stroke-width="0.5"/><line x1="0" y1="890" x2="1920" y2="890" stroke="#ff884b" stroke-opacity="0.048" stroke-width="0.5"/><line x1="0" y1="845" x2="1920" y2="845" stroke="#ff884b" stroke-opacity="0.047" stroke-width="0.5"/><line x1="0" y1="800" x2="1920" y2="800" stroke="#ff884b" stroke-opacity="0.046" stroke-width="0.5"/><line x1="0" y1="755" x2="1920" y2="755" stroke="#ff884b" stroke-opacity="0.045" stroke-width="0.5"/><line x1="0" y1="710" x2="1920" y2="710" stroke="#ff884b" stroke-opacity="0.044" stroke-width="0.5"/><line x1="0" y1="665" x2="1920" y2="665" stroke="#ff884b" stroke-opacity="0.043" stroke-width="0.5"/><line x1="0" y1="620" x2="1920" y2="620" stroke="#ff884b" stroke-opacity="0.041999999999999996" stroke-width="0.5"/><line x1="0" y1="575" x2="1920" y2="575" stroke="#ff884b" stroke-opacity="0.041" stroke-width="0.5"/><line x1="0" y1="530" x2="1920" y2="530" stroke="#ff884b" stroke-opacity="0.04" stroke-width="0.5"/><line x1="0" y1="485" x2="1920" y2="485" stroke="#ff884b" stroke-opacity="0.039" stroke-width="0.5"/><line x1="0" y1="440" x2="1920" y2="440" stroke="#ff884b" stroke-opacity="0.038" stroke-width="0.5"/><line x1="0" y1="395" x2="1920" y2="395" stroke="#ff884b" stroke-opacity="0.037" stroke-width="0.5"/><line x1="0" y1="350" x2="1920" y2="350" stroke="#ff884b" stroke-opacity="0.036" stroke-width="0.5"/><line x1="0" y1="305" x2="1920" y2="305" stroke="#ff884b" stroke-opacity="0.034999999999999996" stroke-width="0.5"/><line x1="0" y1="260" x2="1920" y2="260" stroke="#ff884b" stroke-opacity="0.033999999999999996" stroke-width="0.5"/><line x1="0" y1="215" x2="1920" y2="215" stroke="#ff884b" stroke-opacity="0.033" stroke-width="0.5"/><line x1="0" y1="170" x2="1920" y2="170" stroke="#ff884b" stroke-opacity="0.032" stroke-width="0.5"/><line x1="0" y1="125" x2="1920" y2="125" stroke="#ff884b" stroke-opacity="0.031" stroke-width="0.5"/><line x1="560" y1="1080" x2="860" y2="580" stroke="#ff577f" stroke-opacity="0.04" stroke-width="1"/><line x1="640" y1="1080" x2="880" y2="590" stroke="#ff577f" stroke-opacity="0.04" stroke-width="1"/><line x1="720" y1="1080" x2="900" y2="600" stroke="#ff577f" stroke-opacity="0.04" stroke-width="1"/><line x1="800" y1="1080" x2="920" y2="610" stroke="#ff577f" stroke-opacity="0.04" stroke-width="1"/><line x1="880" y1="1080" x2="940" y2="620" stroke="#ff577f" stroke-opacity="0.04" stroke-width="1"/><line x1="960" y1="1080" x2="960" y2="630" stroke="#ff577f" stroke-opacity="0.04" stroke-width="1"/><line x1="1040" y1="1080" x2="980" y2="620" stroke="#ff577f" stroke-opacity="0.04" stroke-width="1"/><line x1="1120" y1="1080" x2="1000" y2="610" stroke="#ff577f" stroke-opacity="0.04" stroke-width="1"/><line x1="1200" y1="1080" x2="1020" y2="600" stroke="#ff577f" stroke-opacity="0.04" stroke-width="1"/><line x1="1280" y1="1080" x2="1040" y2="590" stroke="#ff577f" stroke-opacity="0.04" stroke-width="1"/><line x1="1360" y1="1080" x2="1060" y2="580" stroke="#ff577f" stroke-opacity="0.04" stroke-width="1"/><circle cx="1187.7002566325714" cy="320.078370200954" r="99.89804767069828" fill="url(#sun68)" opacity="0.8233669451259464"/><circle cx="1187.7002566325714" cy="320.078370200954" r="94.89804767069828" fill="#352f44" opacity="0.3"/><circle cx="1051.1610422495662" cy="311.65470221816906" r="0.7517947863675176" fill="#fff" opacity="0.4314014923831917"/><circle cx="20.637829904593023" cy="111.8885283209124" r="1.7725220947229587" fill="#fff" opacity="0.6188010614409114"/><circle cx="758.8579722025568" cy="337.05774055818506" r="1.1501191471820045" fill="#fff" opacity="0.21215770300760814"/><circle cx="1910.207127479419" cy="217.33943776631247" r="1.0217378613356822" fill="#fff" opacity="0.542376211784402"/><circle cx="1894.4508947372556" cy="376.13998201306447" r="1.701318506198311" fill="#fff" opacity="0.21655423278374464"/><circle cx="1327.0974990835175" cy="203.65150245177827" r="1.6327765274636392" fill="#fff" opacity="0.5600539984554178"/><circle cx="211.89039905832394" cy="5.186465834543683" r="0.5032493869083117" fill="#fff" opacity="0.7031907166594618"/><circle cx="375.0181859114715" cy="219.63773338767646" r="1.5134800958944206" fill="#fff" opacity="0.721333111385194"/><circle cx="55.8067783843276" cy="410.308007916973" r="0.9534847512732922" fill="#fff" opacity="0.4135086938304614"/><circle cx="1504.8119906114443" cy="6.286122211787412" r="0.9146555083372294" fill="#fff" opacity="0.6908650654579664"/><circle cx="34.113487162188044" cy="235.94822699854808" r="1.9871762298250515" fill="#fff" opacity="0.7626895772672002"/><circle cx="1576.0121046695886" cy="150.32448692021995" r="0.614915109848351" fill="#fff" opacity="0.6939047809443215"/><circle cx="580.1226547221007" cy="415.7512833624499" r="1.2725763808173538" fill="#fff" opacity="0.6738156274598595"/><circle cx="303.9408611468833" cy="278.45447915197684" r="1.152962709579841" fill="#fff" opacity="0.7246860616665067"/><circle cx="281.039350098241" cy="164.44490158288855" r="0.7998632394708375" fill="#fff" opacity="0.7309389367073167"/><circle cx="1389.154949660682" cy="205.5107042969928" r="0.9075915937795285" fill="#fff" opacity="0.4390050930993178"/><circle cx="353.65553685316246" cy="197.59998075794428" r="1.671075493137137" fill="#fff" opacity="0.26381700603845926"/><circle cx="42.58066983022277" cy="39.71547147438756" r="1.0892191692463167" fill="#fff" opacity="0.777753260959348"/><circle cx="711.8596160579145" cy="388.2678116271896" r="1.4971388597034707" fill="#fff" opacity="0.23850826919975418"/><circle cx="1065.4659527040706" cy="316.64465845670657" r="1.3468793949221445" fill="#fff" opacity="0.3800614093849578"/><circle cx="1749.9841644964142" cy="12.615311279104862" r="1.137766826231444" fill="#fff" opacity="0.6993945659835346"/><circle cx="856.3221352306014" cy="250.55600212387648" r="1.4037944648656515" fill="#fff" opacity="0.5371543933956777"/><circle cx="1217.7938423905973" cy="431.2742730973461" r="1.7879883489310715" fill="#fff" opacity="0.7841276698243169"/><circle cx="649.2399105451162" cy="114.99621222983025" r="0.5043335089004444" fill="#fff" opacity="0.4612160676767156"/><circle cx="728.1820291486061" cy="377.3130273505377" r="1.2215340033223698" fill="#fff" opacity="0.37258774940217565"/><circle cx="1011.4255229503441" cy="168.6474204307067" r="0.9225890600175106" fill="#fff" opacity="0.6444326200160274"/><circle cx="1136.1158884726735" cy="316.4018911152151" r="1.5182007456939204" fill="#fff" opacity="0.31211769513602317"/><circle cx="1368.6590537635282" cy="94.53667513992094" r="1.319176810635062" fill="#fff" opacity="0.26771135224674625"/><circle cx="22.304822807736887" cy="317.6053599448887" r="1.2424675312923426" fill="#fff" opacity="0.3024135791469397"/><circle cx="1872.6915013679984" cy="174.8429660868931" r="1.4151381152717253" fill="#fff" opacity="0.5365905043521408"/><circle cx="1590.0793199963123" cy="406.7812133260959" r="0.820151130394114" fill="#fff" opacity="0.4036679275342422"/><circle cx="802.7344932040978" cy="16.170470733235234" r="1.5927600459178817" fill="#fff" opacity="0.7640046608550484"/><circle cx="660.4026520299732" cy="413.37925358055605" r="1.4051549127104588" fill="#fff" opacity="0.7161515815919619"/><circle cx="1757.6349332550622" cy="332.43902310273586" r="0.6672694427350698" fill="#fff" opacity="0.6378345096106256"/><circle cx="1152.6395749749242" cy="332.0530278114726" r="0.660704824528821" fill="#fff" opacity="0.4453423324146639"/><circle cx="118.61768203755321" cy="111.62771601593768" r="0.8910026765407535" fill="#fff" opacity="0.33667025145531404"/><circle cx="1911.7517164330352" cy="32.70593948678717" r="1.3676519068814004" fill="#fff" opacity="0.33656733034564357"/><circle cx="161.62435505577" cy="384.4091143907069" r="1.0316653504342925" fill="#fff" opacity="0.4166955256873499"/><circle cx="1382.746785754046" cy="22.8490223192724" r="1.563801508528134" fill="#fff" opacity="0.6553208895156442"/><circle cx="661.6043397834535" cy="362.7992284807375" r="0.6745714166142446" fill="#fff" opacity="0.3242287527127724"/><circle cx="1644.4207749619197" cy="400.0507172420739" r="1.4454547822115607" fill="#fff" opacity="0.48166478245557864"/><circle cx="1866.3926634067652" cy="261.62736895066394" r="1.9817902528405633" fill="#fff" opacity="0.3921397803332982"/><circle cx="1355.2426885243603" cy="424.5954426956818" r="0.8877941304556546" fill="#fff" opacity="0.6147790230845053"/><circle cx="520.3756876011322" cy="272.59288058816287" r="1.357657282929322" fill="#fff" opacity="0.40796640720403904"/><circle cx="1071.8227840475324" cy="102.82293868596268" r="1.6167337628120402" fill="#fff" opacity="0.32947376871702116"/><circle cx="161.790066399097" cy="231.10253622175722" r="0.692706811752335" fill="#fff" opacity="0.43928296604177053"/><circle cx="737.5695367384631" cy="412.9658517793207" r="1.744190773052208" fill="#fff" opacity="0.3970547587603924"/><circle cx="930.0052421470184" cy="383.1214940359633" r="0.5774344295676412" fill="#fff" opacity="0.7188110989795091"/><circle cx="1475.4509857752014" cy="380.1194234146083" r="1.4424523356003809" fill="#fff" opacity="0.7921083705481393"/><circle cx="269.70356366357385" cy="84.59779341998458" r="1.530552677584475" fill="#fff" opacity="0.5789258274666327"/><circle cx="273.36181423472283" cy="316.94564415070823" r="1.6143417820833488" fill="#fff" opacity="0.3256255796937332"/><circle cx="1574.7071250469207" cy="318.30672789698156" r="1.3173301631625112" fill="#fff" opacity="0.20145671609823051"/><circle cx="1823.0866621209045" cy="174.64218403367374" r="1.3177257512737357" fill="#fff" opacity="0.3341017968799225"/><circle cx="508.8932782106318" cy="71.19207564536298" r="0.8390909091893329" fill="#fff" opacity="0.7445461283774455"/><circle cx="34.339915670999304" cy="63.15848564336972" r="0.703330688225881" fill="#fff" opacity="0.6227381330036414"/><circle cx="248.53474488680595" cy="179.61427253568877" r="1.9019330397485599" fill="#fff" opacity="0.5462038189047491"/><circle cx="1896.7182116156253" cy="145.39373786407376" r="0.7208215446958368" fill="#fff" opacity="0.2873456834087488"/><circle cx="871.2741777839311" cy="426.44837662075844" r="0.6771476773259109" fill="#fff" opacity="0.32440481612561384"/><circle cx="819.607285750007" cy="333.59701933655816" r="0.5453564506129726" fill="#fff" opacity="0.33142852059831573"/><circle cx="1082.0235311524066" cy="421.62928608190947" r="1.318186033707621" fill="#fff" opacity="0.23840138568505678"/><rect x="1.8755715903536352" y="665.5936217670314" width="55.6923443744174" height="216.63326707590215" fill="#1b152a" opacity="0.5308363429808143" rx="2"/><rect x="25.46376624015713" y="675.5936217670314" width="8.515955074810414" height="9.414086092127041" fill="#ff884b" opacity="0.11654964243447168" rx="1"/><rect x="11.540680146552779" y="680.300664813095" width="8.515955074810414" height="9.414086092127041" fill="#ff577f" opacity="0.05827482121723584" rx="1"/><rect x="24.275052655785125" y="706.5412313493032" width="10.89338224355443" height="7.1678588607273666" fill="#ff884b" opacity="0.16112993067622416" rx="1"/><rect x="10.35196656218077" y="710.1251607796669" width="10.89338224355443" height="7.1678588607273666" fill="#ff577f" opacity="0.08056496533811208" rx="1"/><rect x="26.451271119399756" y="737.4888409315749" width="6.540945316325162" height="7.975450211664533" fill="#ff884b" opacity="0.2524696462211361" rx="1"/><rect x="12.528185025795405" y="741.4765660374072" width="6.540945316325162" height="7.975450211664533" fill="#ff577f" opacity="0.12623482311056805" rx="1"/><rect x="27.268122647020064" y="768.4364505138467" width="4.907242261084551" height="6.254970364331959" fill="#ff884b" opacity="0.11775503310322646" rx="1"/><rect x="13.34503655341571" y="771.5639356960127" width="4.907242261084551" height="6.254970364331959" fill="#ff577f" opacity="0.05887751655161323" rx="1"/><rect x="27.24312925716935" y="799.3840600961183" width="4.957229040785979" height="6.654287558201302" fill="#ff884b" opacity="0.5737582793398197" rx="1"/><rect x="13.320043163564996" y="802.711203875219" width="4.957229040785979" height="6.654287558201302" fill="#ff577f" opacity="0.28687913966990986" rx="1"/><rect x="24.31815591019535" y="830.3316696783901" width="10.80717573473397" height="9.742992994315689" fill="#ff884b" opacity="0.34476112885045845" rx="1"/><rect x="10.395069816591" y="835.203166175548" width="10.80717573473397" height="9.742992994315689" fill="#ff577f" opacity="0.17238056442522923" rx="1"/><rect x="24.86026239438454" y="861.2792792606618" width="9.722962766355593" height="6.573338279634094" fill="#ff884b" opacity="0.1588128663503595" rx="1"/><rect x="10.93717630078019" y="864.5659484004789" width="9.722962766355593" height="6.573338279634094" fill="#ff577f" opacity="0.07940643317517974" rx="1"/><rect x="106.90656741077699" y="737.9019472254213" width="69.91966909727074" height="144.32494161751237" fill="#1b152a" opacity="0.6347936507628285" rx="2"/><rect x="138.54856880371193" y="747.9019472254213" width="6.635666311400865" height="7.791512300677484" fill="#ff884b" opacity="0.2606536267000841" rx="1"/><rect x="121.06865152939424" y="751.7977033757601" width="6.635666311400865" height="7.791512300677484" fill="#ff577f" opacity="0.13032681335004204" rx="1"/><rect x="138.8354216403876" y="783.9831826297993" width="6.061960638049515" height="9.988257654008516" fill="#ff884b" opacity="0.22089700592236988" rx="1"/><rect x="121.35550436606991" y="788.9773114568036" width="6.061960638049515" height="9.988257654008516" fill="#ff577f" opacity="0.11044850296118494" rx="1"/><rect x="137.28399868548942" y="820.0644180341775" width="9.164806547845902" height="8.872422056941414" fill="#ff884b" opacity="0.5516803069160507" rx="1"/><rect x="119.80408141117172" y="824.5006290626482" width="9.164806547845902" height="8.872422056941414" fill="#ff577f" opacity="0.27584015345802537" rx="1"/><rect x="137.3491064958156" y="856.1456534385555" width="9.034590927193545" height="9.450471011793816" fill="#ff884b" opacity="0.5912078083705176" rx="1"/><rect x="119.8691892214979" y="860.8708889444524" width="9.034590927193545" height="9.450471011793816" fill="#ff577f" opacity="0.2956039041852588" rx="1"/><rect x="185.3574724996829" y="647.2690138260995" width="34.53388331097874" height="234.9578750168341" fill="#352f44" opacity="0.5928915008420338" rx="2"/><rect x="198.05689093215784" y="657.2690138260995" width="9.135046446028875" height="7.322023030678281" fill="#ff884b" opacity="0.5056022242655983" rx="1"/><rect x="189.42342010441314" y="660.9300253414386" width="9.135046446028875" height="7.322023030678281" fill="#ff577f" opacity="0.25280111213279916" rx="1"/><rect x="200.0093415237519" y="716.0084825803079" width="5.230145262840703" height="9.08399086610507" fill="#ff884b" opacity="0.14043352034418694" rx="1"/><rect x="191.3758706960072" y="720.5504780133605" width="5.230145262840703" height="9.08399086610507" fill="#ff577f" opacity="0.07021676017209347" rx="1"/><rect x="197.3576764213754" y="774.7479513345165" width="10.533475467593753" height="7.462864740160961" fill="#ff884b" opacity="0.4705863558851616" rx="1"/><rect x="188.7242055936307" y="778.479383704597" width="10.533475467593753" height="7.462864740160961" fill="#ff577f" opacity="0.2352931779425808" rx="1"/><rect x="199.57290882956536" y="833.487420088725" width="6.103010651213818" height="8.430983809388938" fill="#ff884b" opacity="0.2338720297519751" rx="1"/><rect x="190.93943800182066" y="837.7029119934194" width="6.103010651213818" height="8.430983809388938" fill="#ff577f" opacity="0.11693601487598755" rx="1"/><rect x="257.49885511759175" y="556.9638143076943" width="54.506929373486656" height="325.2630745352393" fill="#1b152a" opacity="0.4200330860260951" rx="2"/><rect x="278.9733172524658" y="566.9638143076943" width="11.558005103738514" height="6.621889989036576" fill="#ff884b" opacity="0.557793193626635" rx="1"/><rect x="265.34658490909413" y="570.2747593022126" width="11.558005103738514" height="6.621889989036576" fill="#ff577f" opacity="0.2788965968133175" rx="1"/><rect x="281.5262197802137" y="613.4299678127285" width="6.452200048242743" height="9.004669341026961" fill="#ff884b" opacity="0.5568819650348467" rx="1"/><rect x="267.89948743684204" y="617.932302483242" width="6.452200048242743" height="9.004669341026961" fill="#ff577f" opacity="0.27844098251742333" rx="1"/><rect x="279.1957285423287" y="659.8961213177627" width="11.113182524012677" height="7.081235433249091" fill="#ff884b" opacity="0.18444428026779655" rx="1"/><rect x="265.56899619895705" y="663.4367390343872" width="11.113182524012677" height="7.081235433249091" fill="#ff577f" opacity="0.09222214013389828" rx="1"/><rect x="282.1221666846243" y="706.3622748227968" width="5.260306239421551" height="6.56235430030207" fill="#ff884b" opacity="0.2812820836625253" rx="1"/><rect x="268.49543434125263" y="709.6434519729479" width="5.260306239421551" height="6.56235430030207" fill="#ff577f" opacity="0.14064104183126264" rx="1"/><rect x="279.91993195584973" y="752.828428327831" width="9.664775696970704" height="8.795985165703106" fill="#ff884b" opacity="0.4928035235481345" rx="1"/><rect x="266.2931996124781" y="757.2264209106826" width="9.664775696970704" height="8.795985165703106" fill="#ff577f" opacity="0.24640176177406725" rx="1"/><rect x="279.0510776983693" y="799.2945818328652" width="11.402484211931583" height="7.629864965944985" fill="#ff884b" opacity="0.5153972733568859" rx="1"/><rect x="265.4243453549976" y="803.1095143158377" width="11.402484211931583" height="7.629864965944985" fill="#ff577f" opacity="0.25769863667844295" rx="1"/><rect x="278.82964605927225" y="845.7607353378994" width="11.84534749012565" height="7.411523995318339" fill="#ff884b" opacity="0.3363432881506959" rx="1"/><rect x="265.2029137159006" y="849.4664973355585" width="11.84534749012565" height="7.411523995318339" fill="#ff577f" opacity="0.16817164407534796" rx="1"/><rect x="348.6739527221476" y="753.1098915038422" width="31.208433327546445" height="129.11699733909148" fill="#1b152a" opacity="0.6546567842025908" rx="2"/><rect x="358.566540837187" y="763.1098915038422" width="11.423257097467607" height="6.028578676290014" fill="#ff884b" opacity="0.2080000745384023" rx="1"/><rect x="350.76443250530036" y="766.1241808419871" width="11.423257097467607" height="6.028578676290014" fill="#ff577f" opacity="0.10400003726920115" rx="1"/><rect x="361.8567091494" y="781.555176837998" width="4.842920473041692" height="9.838855944536359" fill="#ff884b" opacity="0.3752461514378074" rx="1"/><rect x="354.05460081751335" y="786.4746048102662" width="4.842920473041692" height="9.838855944536359" fill="#ff577f" opacity="0.1876230757189037" rx="1"/><rect x="359.87667416149674" y="800.000462172154" width="8.80299044884811" height="6.956436440571313" fill="#ff884b" opacity="0.3943563074326041" rx="1"/><rect x="352.0745658296101" y="803.4786803924396" width="8.80299044884811" height="6.956436440571313" fill="#ff577f" opacity="0.19717815371630204" rx="1"/><rect x="358.47547317190924" y="818.44574750631" width="11.605392428023134" height="6.757081187506458" fill="#ff884b" opacity="0.262539246180686" rx="1"/><rect x="350.6733648400226" y="821.8242881000632" width="11.605392428023134" height="6.757081187506458" fill="#ff577f" opacity="0.131269623090343" rx="1"/><rect x="361.8286597129956" y="836.8910328404659" width="4.899019345850455" height="9.619330229149044" fill="#ff884b" opacity="0.469624591984233" rx="1"/><rect x="354.02655138110896" y="841.7006979550404" width="4.899019345850455" height="9.619330229149044" fill="#ff577f" opacity="0.2348122959921165" rx="1"/><rect x="361.4044385017838" y="855.3363181746217" width="5.74746176827407" height="9.422786067105548" fill="#ff884b" opacity="0.473451700986701" rx="1"/><rect x="353.60233016989713" y="860.0477112081745" width="5.74746176827407" height="9.422786067105548" fill="#ff577f" opacity="0.2367258504933505" rx="1"/><rect x="361.1303834463774" y="873.7816035087777" width="6.295571879086916" height="9.591903533691518" fill="#ff884b" opacity="0.39289805325514127" rx="1"/><rect x="353.32827511449074" y="878.5775552756235" width="6.295571879086916" height="9.591903533691518" fill="#ff577f" opacity="0.19644902662757063" rx="1"/><rect x="416.7579512732937" y="558.604930599361" width="50.481303450763534" height="323.62195824357264" fill="#352f44" opacity="0.6170476908602397" rx="2"/><rect x="437.9177408411442" y="568.604930599361" width="8.161724315062568" height="6.995696391210821" fill="#ff884b" opacity="0.5815008976686515" rx="1"/><rect x="425.29741497845333" y="572.1027787949664" width="8.161724315062568" height="6.995696391210821" fill="#ff577f" opacity="0.29075044883432577" rx="1"/><rect x="438.7716320659434" y="622.5419236399564" width="6.453941865464193" height="9.058279781383062" fill="#ff884b" opacity="0.3645855127518497" rx="1"/><rect x="426.1513062032525" y="627.071063530648" width="6.453941865464193" height="9.058279781383062" fill="#ff577f" opacity="0.18229275637592485" rx="1"/><rect x="439.6909970717251" y="676.4789166805518" width="4.615211853900741" height="9.160183060718744" fill="#ff884b" opacity="0.4950242709589713" rx="1"/><rect x="427.07067120903423" y="681.0590082109112" width="4.615211853900741" height="9.160183060718744" fill="#ff577f" opacity="0.24751213547948564" rx="1"/><rect x="437.51475889573686" y="730.4159097211473" width="8.967688205877247" height="7.84422091065073" fill="#ff884b" opacity="0.42655671502616177" rx="1"/><rect x="424.89443303304597" y="734.3380201764726" width="8.967688205877247" height="7.84422091065073" fill="#ff577f" opacity="0.21327835751308089" rx="1"/><rect x="437.086154929848" y="784.3529027617427" width="9.82489613765499" height="9.532384984086358" fill="#ff884b" opacity="0.11978670096019906" rx="1"/><rect x="424.46582906715713" y="789.1190952537859" width="9.82489613765499" height="9.532384984086358" fill="#ff577f" opacity="0.05989335048009953" rx="1"/><rect x="437.9971008074929" y="838.2898958023382" width="8.003004382365152" height="8.119453802266962" fill="#ff884b" opacity="0.22595748624903092" rx="1"/><rect x="425.37677494480204" y="842.3496227034716" width="8.003004382365152" height="8.119453802266962" fill="#ff577f" opacity="0.11297874312451546" rx="1"/><rect x="480.326107526274" y="527.5712151028149" width="33.71823209890123" height="354.65567374011863" fill="#352f44" opacity="0.5884277911596997" rx="2"/><rect x="494.6667412919148" y="537.5712151028149" width="5.0369645676196" height="8.976143635571036" fill="#ff884b" opacity="0.429659143190286" rx="1"/><rect x="486.23718326718944" y="542.0592869206005" width="5.0369645676196" height="8.976143635571036" fill="#ff577f" opacity="0.214829571595143" rx="1"/><rect x="492.1179623010378" y="596.6804940595014" width="10.134522549373685" height="7.702414271818105" fill="#ff884b" opacity="0.5255163995375662" rx="1"/><rect x="483.68840427631244" y="600.5317011954104" width="10.134522549373685" height="7.702414271818105" fill="#ff577f" opacity="0.2627581997687831" rx="1"/><rect x="491.32560948010666" y="655.7897730161878" width="11.719228191235853" height="6.932163058065847" fill="#ff884b" opacity="0.22265723271357296" rx="1"/><rect x="482.8960514553813" y="659.2558545452208" width="11.719228191235853" height="6.932163058065847" fill="#ff577f" opacity="0.11132861635678648" rx="1"/><rect x="492.650928832975" y="714.8990519728742" width="9.068589485499214" height="7.062864916646589" fill="#ff884b" opacity="0.130924033613625" rx="1"/><rect x="484.2213708082497" y="718.4304844311974" width="9.068589485499214" height="7.062864916646589" fill="#ff577f" opacity="0.0654620168068125" rx="1"/><rect x="492.596520704589" y="774.0083309295607" width="9.1774057422712" height="9.161341727515996" fill="#ff884b" opacity="0.44451333907072277" rx="1"/><rect x="484.1669626798637" y="778.5890017933186" width="9.1774057422712" height="9.161341727515996" fill="#ff577f" opacity="0.22225666953536138" rx="1"/><rect x="493.8928634819791" y="833.1176098862471" width="6.584720187490974" height="9.262439895249539" fill="#ff884b" opacity="0.20165089708791367" rx="1"/><rect x="485.46330545725374" y="837.7488298338719" width="6.584720187490974" height="9.262439895249539" fill="#ff577f" opacity="0.10082544854395684" rx="1"/><rect x="574.3159916448211" y="535.9118588468787" width="45.87262850158676" height="346.31502999605493" fill="#352f44" opacity="0.5260270012603204" rx="2"/><rect x="592.2882769553197" y="545.9118588468787" width="9.928057880589751" height="8.148242229164634" fill="#ff884b" opacity="0.28220690688635386" rx="1"/><rect x="580.820119829923" y="549.985979961461" width="9.928057880589751" height="8.148242229164634" fill="#ff577f" opacity="0.14110345344317693" rx="1"/><rect x="593.4255910274633" y="632.4906163458924" width="7.6534297363025665" height="6.816844368543673" fill="#ff884b" opacity="0.47937197307575774" rx="1"/><rect x="581.9574339020666" y="635.8990385301641" width="7.6534297363025665" height="6.816844368543673" fill="#ff577f" opacity="0.23968598653787887" rx="1"/><rect x="592.365638919027" y="719.0693738449061" width="9.773333953175072" height="7.793119986959063" fill="#ff884b" opacity="0.11649938687134986" rx="1"/><rect x="580.8974817936303" y="722.9659338383856" width="9.773333953175072" height="7.793119986959063" fill="#ff577f" opacity="0.05824969343567493" rx="1"/><rect x="594.7744957166199" y="805.6481313439199" width="4.955620357989245" height="8.360529560214031" fill="#ff884b" opacity="0.3705586451968548" rx="1"/><rect x="583.3063385912232" y="809.8283961240269" width="4.955620357989245" height="8.360529560214031" fill="#ff577f" opacity="0.1852793225984274" rx="1"/><rect x="660.2819389827274" y="536.9242831568523" width="35.44991692189358" height="345.3026056860813" fill="#1b152a" opacity="0.5711166569430187" rx="2"/><rect x="673.6364907046399" y="546.9242831568523" width="8.740813478068638" height="7.950880328647532" fill="#ff884b" opacity="0.5352329172974529" rx="1"/><rect x="664.7740114741664" y="550.8997233211761" width="8.740813478068638" height="7.950880328647532" fill="#ff577f" opacity="0.26761645864872646" rx="1"/><rect x="672.4948984401987" y="662.0251517188794" width="11.023998006951064" height="7.380880625308697" fill="#ff884b" opacity="0.5449586317513507" rx="1"/><rect x="663.6324192097252" y="665.7155920315338" width="11.023998006951064" height="7.380880625308697" fill="#ff577f" opacity="0.27247931587567537" rx="1"/><rect x="673.3971690452651" y="777.1260202809065" width="9.219456796818285" height="9.02685173857651" fill="#ff884b" opacity="0.2859812728795179" rx="1"/><rect x="664.5346898147916" y="781.6394461501948" width="9.219456796818285" height="9.02685173857651" fill="#ff577f" opacity="0.14299063643975896" rx="1"/><rect x="722.9330666649465" y="521.1842860493773" width="55.384642208317445" height="361.0426027935563" fill="#1b152a" opacity="0.5728889025218992" rx="2"/><rect x="746.2111971315954" y="531.1842860493773" width="8.828381275019698" height="7.789631186469838" fill="#ff884b" opacity="0.24086252198108996" rx="1"/><rect x="732.3650365795161" y="535.0791016426123" width="8.828381275019698" height="7.789631186469838" fill="#ff577f" opacity="0.12043126099054498" rx="1"/><rect x="746.1584148921908" y="651.5318203138961" width="8.933945753829075" height="9.729021232512086" fill="#ff884b" opacity="0.3398496711952262" rx="1"/><rect x="732.3122543401114" y="656.3963309301522" width="8.933945753829075" height="9.729021232512086" fill="#ff577f" opacity="0.1699248355976131" rx="1"/><rect x="744.7420541960146" y="771.8793545784148" width="11.766667146181376" height="6.674853244953522" fill="#ff884b" opacity="0.36083134155739827" rx="1"/><rect x="730.8958936439352" y="775.2167812008915" width="11.766667146181376" height="6.674853244953522" fill="#ff577f" opacity="0.18041567077869913" rx="1"/><rect x="808.5075231475074" y="612.07515980631" width="75.23244510526592" height="270.1517290366236" fill="#1b152a" opacity="0.5510660778850005" rx="2"/><rect x="843.853311534704" y="622.07515980631" width="4.5408683308728195" height="6.577679344587419" fill="#ff884b" opacity="0.29139479559180204" rx="1"/><rect x="825.0452002583875" y="625.3639994786038" width="4.5408683308728195" height="6.577679344587419" fill="#ff577f" opacity="0.14569739779590102" rx="1"/><rect x="842.9664207477975" y="712.1257361518512" width="6.314649904685712" height="8.079044864065722" fill="#ff884b" opacity="0.481729508839019" rx="1"/><rect x="824.1583094714811" y="716.1652585838841" width="6.314649904685712" height="8.079044864065722" fill="#ff577f" opacity="0.2408647544195095" rx="1"/><rect x="843.2854911159457" y="802.1763124973924" width="5.676509168389372" height="9.205077180453827" fill="#ff884b" opacity="0.3241130163250754" rx="1"/><rect x="824.4773798396292" y="806.7788510876193" width="5.676509168389372" height="9.205077180453827" fill="#ff577f" opacity="0.1620565081625377" rx="1"/><rect x="899.3158088669451" y="749.7979662380642" width="34.036212252461404" height="132.42892260486934" fill="#1b152a" opacity="0.5521817584410733" rx="2"/><rect x="912.8247332027705" y="759.7979662380642" width="7.0183635808104565" height="6.416959733799324" fill="#ff884b" opacity="0.29221057328214184" rx="1"/><rect x="904.3156801396552" y="763.0064461049639" width="7.0183635808104565" height="6.416959733799324" fill="#ff577f" opacity="0.14610528664107092" rx="1"/><rect x="911.6831093152713" y="778.7163837530455" width="9.301611355808939" height="7.778917171475225" fill="#ff884b" opacity="0.2692188808622814" rx="1"/><rect x="903.174056252156" y="782.6058423387832" width="9.301611355808939" height="7.778917171475225" fill="#ff577f" opacity="0.1346094404311407" rx="1"/><rect x="912.3882088627173" y="797.6348012680269" width="7.891412260916878" height="9.937838093363176" fill="#ff884b" opacity="0.5104416690325462" rx="1"/><rect x="903.879155799602" y="802.6037203147084" width="7.891412260916878" height="9.937838093363176" fill="#ff577f" opacity="0.2552208345162731" rx="1"/><rect x="912.3683851103691" y="816.5532187830082" width="7.931059765613419" height="9.477097786841238" fill="#ff884b" opacity="0.35683736399673793" rx="1"/><rect x="903.8593320472538" y="821.2917676764289" width="7.931059765613419" height="9.477097786841238" fill="#ff577f" opacity="0.17841868199836897" rx="1"/><rect x="912.1029061835965" y="835.4716362979896" width="8.462017619158612" height="9.704966210691483" fill="#ff884b" opacity="0.10869088759848171" rx="1"/><rect x="903.5938531204812" y="840.3241194033353" width="8.462017619158612" height="9.704966210691483" fill="#ff577f" opacity="0.054345443799240854" rx="1"/><rect x="912.5870192939385" y="854.3900538129709" width="7.493791398474432" height="6.300278652529297" fill="#ff884b" opacity="0.18394321382137557" rx="1"/><rect x="904.0779662308232" y="857.5401931392355" width="7.493791398474432" height="6.300278652529297" fill="#ff577f" opacity="0.09197160691068779" rx="1"/><rect x="913.6445156239542" y="873.3084713279522" width="5.378798738443013" height="8.010504012464198" fill="#ff884b" opacity="0.2324438277241876" rx="1"/><rect x="905.135462560839" y="877.3137233341844" width="5.378798738443013" height="8.010504012464198" fill="#ff577f" opacity="0.1162219138620938" rx="1"/><rect x="981.7041959035453" y="574.7880699170726" width="59.942985505318035" height="307.438818925861" fill="#1b152a" opacity="0.4922554983739405" rx="2"/><rect x="1005.8324902162032" y="584.7880699170726" width="11.68639688000232" height="8.241979640499219" fill="#ff884b" opacity="0.44458768876376276" rx="1"/><rect x="990.8467438398736" y="588.9090597373222" width="11.68639688000232" height="8.241979640499219" fill="#ff577f" opacity="0.22229384438188138" rx="1"/><rect x="1008.1584135524832" y="623.2179222828051" width="7.034550207442266" height="6.141788809593252" fill="#ff884b" opacity="0.380844837259698" rx="1"/><rect x="993.1726671761537" y="626.2888166876018" width="7.034550207442266" height="6.141788809593252" fill="#ff577f" opacity="0.190422418629849" rx="1"/><rect x="1007.2517901003016" y="661.6477746485378" width="8.84779711180548" height="9.4745279800786" fill="#ff884b" opacity="0.39124194041156257" rx="1"/><rect x="992.2660437239721" y="666.3850386385772" width="8.84779711180548" height="9.4745279800786" fill="#ff577f" opacity="0.19562097020578129" rx="1"/><rect x="1008.2741025032649" y="700.0776270142704" width="6.803172305878991" height="7.482676810930175" fill="#ff884b" opacity="0.2918319010156747" rx="1"/><rect x="993.2883561269354" y="703.8189654197355" width="6.803172305878991" height="7.482676810930175" fill="#ff577f" opacity="0.14591595050783734" rx="1"/><rect x="1008.3205991236774" y="738.5074793800031" width="6.710179065053858" height="8.064876322183963" fill="#ff884b" opacity="0.4646674669265438" rx="1"/><rect x="993.3348527473479" y="742.5399175410951" width="6.710179065053858" height="8.064876322183963" fill="#ff577f" opacity="0.2323337334632719" rx="1"/><rect x="1007.3457187326499" y="776.9373317457357" width="8.659939847108895" height="7.361879121829261" fill="#ff884b" opacity="0.2520307833915648" rx="1"/><rect x="992.3599723563203" y="780.6182713066504" width="8.659939847108895" height="7.361879121829261" fill="#ff577f" opacity="0.1260153916957824" rx="1"/><rect x="1005.9238415828263" y="815.3671841114683" width="11.503694146756011" height="9.400939968275125" fill="#ff884b" opacity="0.2303789804527487" rx="1"/><rect x="990.9380952064968" y="820.0676540956059" width="11.503694146756011" height="9.400939968275125" fill="#ff577f" opacity="0.11518949022637436" rx="1"/><rect x="1007.9954755564676" y="853.7970364772009" width="7.36042619947354" height="9.21227775030124" fill="#ff884b" opacity="0.1365124340254144" rx="1"/><rect x="993.009729180138" y="858.4031753523515" width="7.36042619947354" height="9.21227775030124" fill="#ff577f" opacity="0.0682562170127072" rx="1"/><rect x="1058.3521252051817" y="513.5472189782996" width="73.94190773925322" height="368.679669864634" fill="#1b152a" opacity="0.6682979461895996" rx="2"/><rect x="1092.2473719304537" y="523.5472189782996" width="6.1514142887088035" height="6.454065997259241" fill="#ff884b" opacity="0.4310109932979129" rx="1"/><rect x="1073.7618949956404" y="526.7742519769292" width="6.1514142887088035" height="6.454065997259241" fill="#ff577f" opacity="0.21550549664895646" rx="1"/><rect x="1092.1117511193995" y="569.6321777113789" width="6.422655910817593" height="8.864994543340288" fill="#ff884b" opacity="0.5571835272845774" rx="1"/><rect x="1073.6262741845862" y="574.064674983049" width="6.422655910817593" height="8.864994543340288" fill="#ff577f" opacity="0.2785917636422887" rx="1"/><rect x="1091.0686184200617" y="615.7171364444581" width="8.508921309492766" height="7.081136126322936" fill="#ff884b" opacity="0.5741575291785779" rx="1"/><rect x="1072.5831414852485" y="619.2577045076196" width="8.508921309492766" height="7.081136126322936" fill="#ff577f" opacity="0.28707876458928894" rx="1"/><rect x="1092.0091025650056" y="661.8020951775374" width="6.627953019605007" height="7.381618921035346" fill="#ff884b" opacity="0.5128075226705539" rx="1"/><rect x="1073.5236256301923" y="665.492904638055" width="6.627953019605007" height="7.381618921035346" fill="#ff577f" opacity="0.2564037613352769" rx="1"/><rect x="1090.6793389780632" y="707.8870539106166" width="9.28748019349004" height="9.279601694848296" fill="#ff884b" opacity="0.3173868571914236" rx="1"/><rect x="1072.19386204325" y="712.5268547580407" width="9.28748019349004" height="9.279601694848296" fill="#ff577f" opacity="0.1586934285957118" rx="1"/><rect x="1092.092966516291" y="753.9720126436958" width="6.460225117034332" height="8.803633651417595" fill="#ff884b" opacity="0.18979937215098164" rx="1"/><rect x="1073.6074895814777" y="758.3738294694047" width="6.460225117034332" height="8.803633651417595" fill="#ff577f" opacity="0.09489968607549082" rx="1"/><rect x="1089.8375028234063" y="800.0569713767751" width="10.971152502803866" height="6.275424965721421" fill="#ff884b" opacity="0.3111357070298716" rx="1"/><rect x="1071.352025888593" y="803.1946838596358" width="10.971152502803866" height="6.275424965721421" fill="#ff577f" opacity="0.1555678535149358" rx="1"/><rect x="1090.3354639097433" y="846.1419301098543" width="9.975230330129907" height="7.212222721709922" fill="#ff884b" opacity="0.19537099059563387" rx="1"/><rect x="1071.84998697493" y="849.7480414707093" width="9.975230330129907" height="7.212222721709922" fill="#ff577f" opacity="0.09768549529781693" rx="1"/><rect x="1149.6535183930894" y="759.194745428207" width="42.807262505592604" height="123.0321434147265" fill="#352f44" opacity="0.6194981619062596" rx="2"/><rect x="1167.3176893941866" y="769.194745428207" width="7.478920503398152" height="6.128814712196778" fill="#ff884b" opacity="0.10104385137116627" rx="1"/><rect x="1156.6158737677886" y="772.2591527843055" width="7.478920503398152" height="6.128814712196778" fill="#ff577f" opacity="0.050521925685583134" rx="1"/><rect x="1168.8920507346959" y="786.7707659160251" width="4.33019782237946" height="6.318683135397426" fill="#ff884b" opacity="0.2746852886105621" rx="1"/><rect x="1158.1902351082979" y="789.9301074837238" width="4.33019782237946" height="6.318683135397426" fill="#ff577f" opacity="0.13734264430528104" rx="1"/><rect x="1166.5350567012872" y="804.3467864038432" width="9.044185889196626" height="7.46935413718907" fill="#ff884b" opacity="0.34283266794933764" rx="1"/><rect x="1155.8332410748892" y="808.0814634724378" width="9.044185889196626" height="7.46935413718907" fill="#ff577f" opacity="0.17141633397466882" rx="1"/><rect x="1168.5330471032141" y="821.9228068916613" width="5.048205085342798" height="8.514381767836023" fill="#ff884b" opacity="0.5095144765240872" rx="1"/><rect x="1157.8312314768161" y="826.1799977755793" width="5.048205085342798" height="8.514381767836023" fill="#ff577f" opacity="0.2547572382620436" rx="1"/><rect x="1167.753247145273" y="839.4988273794794" width="6.607805001225277" height="6.889208634591012" fill="#ff884b" opacity="0.3285235239492086" rx="1"/><rect x="1157.051431518875" y="842.943431696775" width="6.607805001225277" height="6.889208634591012" fill="#ff577f" opacity="0.1642617619746043" rx="1"/><rect x="1166.863547703685" y="857.0748478672974" width="8.387203884401174" height="7.428959439841322" fill="#ff884b" opacity="0.5549608415586317" rx="1"/><rect x="1156.161732077287" y="860.789327587218" width="8.387203884401174" height="7.428959439841322" fill="#ff577f" opacity="0.27748042077931584" rx="1"/><rect x="1166.7469383100388" y="874.6508683551156" width="8.620422671693476" height="6.351915727451424" fill="#ff884b" opacity="0.1652472276858164" rx="1"/><rect x="1156.0451226836408" y="877.8268262188412" width="8.620422671693476" height="6.351915727451424" fill="#ff577f" opacity="0.0826236138429082" rx="1"/><rect x="1224.4719664087686" y="759.2086894226281" width="39.872167322289236" height="123.01819942030548" fill="#352f44" opacity="0.6198364356113217" rx="2"/><rect x="1239.9469151224353" y="769.2086894226281" width="8.922269894956209" height="9.191071768102951" fill="#ff884b" opacity="0.37740514366361433" rx="1"/><rect x="1229.9788732918628" y="773.8042253066797" width="8.922269894956209" height="9.191071768102951" fill="#ff577f" opacity="0.18870257183180716" rx="1"/><rect x="1240.4859261502247" y="799.9632392777045" width="7.844247839377319" height="8.943484497010587" fill="#ff884b" opacity="0.36028082560754404" rx="1"/><rect x="1230.5178843196522" y="804.4349815262098" width="7.844247839377319" height="8.943484497010587" fill="#ff577f" opacity="0.18014041280377202" rx="1"/><rect x="1241.7746337849587" y="830.7177891327809" width="5.26683256990901" height="7.650302034255653" fill="#ff884b" opacity="0.1485544776424194" rx="1"/><rect x="1231.8065919543862" y="834.5429401499088" width="5.26683256990901" height="7.650302034255653" fill="#ff577f" opacity="0.0742772388212097" rx="1"/><rect x="1238.726425837196" y="861.4723389878573" width="11.363248465434474" height="9.7961991205337" fill="#ff884b" opacity="0.46065264182646126" rx="1"/><rect x="1228.7583840066236" y="866.3704385481241" width="11.363248465434474" height="9.7961991205337" fill="#ff577f" opacity="0.23032632091323063" rx="1"/><rect x="1299.7316529508055" y="696.1935606427011" width="35.82646520478336" height="186.03332820023255" fill="#1b152a" opacity="0.4545215972360507" rx="2"/><rect x="1313.0482584280073" y="706.1935606427011" width="9.193254250379571" height="8.617722402936248" fill="#ff884b" opacity="0.4123042057995462" rx="1"/><rect x="1304.0916421268116" y="710.5024218441692" width="9.193254250379571" height="8.617722402936248" fill="#ff577f" opacity="0.2061521028997731" rx="1"/><rect x="1314.0663920452507" y="729.4477266677302" width="7.156987015892981" height="9.28494124190997" fill="#ff884b" opacity="0.47940379660097043" rx="1"/><rect x="1305.109775744055" y="734.0901972886852" width="7.156987015892981" height="9.28494124190997" fill="#ff577f" opacity="0.23970189830048522" rx="1"/><rect x="1311.65203757413" y="752.7018926927592" width="11.985695958134182" height="6.600315611949264" fill="#ff884b" opacity="0.43676885693258816" rx="1"/><rect x="1302.6954212729343" y="756.0020504987339" width="11.985695958134182" height="6.600315611949264" fill="#ff577f" opacity="0.21838442846629408" rx="1"/><rect x="1311.655817750994" y="775.9560587177883" width="11.978135604406273" height="6.977880800370565" fill="#ff884b" opacity="0.19418963491781374" rx="1"/><rect x="1302.6992014497982" y="779.4449991179736" width="11.978135604406273" height="6.977880800370565" fill="#ff577f" opacity="0.09709481745890687" rx="1"/><rect x="1312.8954023797753" y="799.2102247428173" width="9.498966346843858" height="9.996452602557012" fill="#ff884b" opacity="0.2203890281311211" rx="1"/><rect x="1303.9387860785796" y="804.2084510440958" width="9.498966346843858" height="9.996452602557012" fill="#ff577f" opacity="0.11019451406556055" rx="1"/><rect x="1313.177261896007" y="822.4643907678465" width="8.935247314380305" height="8.667318157541407" fill="#ff884b" opacity="0.4790447925867152" rx="1"/><rect x="1304.2206455948112" y="826.7980498466171" width="8.935247314380305" height="8.667318157541407" fill="#ff577f" opacity="0.2395223962933576" rx="1"/><rect x="1315.2669332102562" y="845.7185567928755" width="4.755904685881898" height="6.606396131358667" fill="#ff884b" opacity="0.35387013825910874" rx="1"/><rect x="1306.3103169090605" y="849.0217548585548" width="4.755904685881898" height="6.606396131358667" fill="#ff577f" opacity="0.17693506912955437" rx="1"/><rect x="1315.580563660846" y="868.9727228179046" width="4.128643784701974" height="6.655568519759822" fill="#ff884b" opacity="0.11910126524025139" rx="1"/><rect x="1306.6239473596504" y="872.3005070777845" width="4.128643784701974" height="6.655568519759822" fill="#ff577f" opacity="0.05955063262012569" rx="1"/><rect x="1379.190220793055" y="783.962123569558" width="77.39253274337214" height="98.26476527337562" fill="#1b152a" opacity="0.4832723190969025" rx="2"/><rect x="1411.979899073248" y="793.962123569558" width="11.81317618298651" height="6.171377449336317" fill="#ff884b" opacity="0.16798953098896646" rx="1"/><rect x="1392.6317658874048" y="797.0478122942261" width="11.81317618298651" height="6.171377449336317" fill="#ff577f" opacity="0.08399476549448323" rx="1"/><rect x="1413.727575342806" y="807.9999471800402" width="8.317823643870145" height="9.582120680152933" fill="#ff884b" opacity="0.1219080456350716" rx="1"/><rect x="1394.3794421569628" y="812.7910075201166" width="8.317823643870145" height="9.582120680152933" fill="#ff577f" opacity="0.0609540228175358" rx="1"/><rect x="1412.327044075664" y="822.0377707905225" width="11.118886178154238" height="6.231041985617727" fill="#ff884b" opacity="0.40212582084399784" rx="1"/><rect x="1392.9789108898208" y="825.1532917833314" width="11.118886178154238" height="6.231041985617727" fill="#ff577f" opacity="0.20106291042199892" rx="1"/><rect x="1415.8858060792288" y="836.0755944010047" width="4.001362171024401" height="7.966485507312809" fill="#ff884b" opacity="0.4216763136027558" rx="1"/><rect x="1396.5376728933857" y="840.0588371546611" width="4.001362171024401" height="7.966485507312809" fill="#ff577f" opacity="0.2108381568013779" rx="1"/><rect x="1413.9378935142743" y="850.1134180114869" width="7.897187300933801" height="6.685023279088788" fill="#ff884b" opacity="0.4645375758326933" rx="1"/><rect x="1394.589760328431" y="853.4559296510313" width="7.897187300933801" height="6.685023279088788" fill="#ff577f" opacity="0.23226878791634664" rx="1"/><rect x="1413.5337545179143" y="864.1512416219691" width="8.70546529365365" height="6.243136393894241" fill="#ff884b" opacity="0.5152988154476739" rx="1"/><rect x="1394.1856213320712" y="867.2728098189162" width="8.70546529365365" height="6.243136393894241" fill="#ff577f" opacity="0.25764940772383693" rx="1"/><rect x="1414.4729236260694" y="878.1890652324514" width="6.82712707734367" height="9.578229653550832" fill="#ff884b" opacity="0.5989083766701884" rx="1"/><rect x="1395.1247904402262" y="882.9781800592268" width="6.82712707734367" height="9.578229653550832" fill="#ff577f" opacity="0.2994541883350942" rx="1"/><rect x="1459.3361804190408" y="570.3826684552205" width="71.65060190988021" height="311.8442203877131" fill="#352f44" opacity="0.4610708403776099" rx="2"/><rect x="1490.3583596417118" y="580.3826684552205" width="9.60624346453842" height="8.449423110682849" fill="#ff884b" opacity="0.5615940088316784" rx="1"/><rect x="1472.4457091642419" y="584.6073800105619" width="9.60624346453842" height="8.449423110682849" fill="#ff577f" opacity="0.2807970044158392" rx="1"/><rect x="1489.8195649396673" y="658.3437235521487" width="10.683832868627235" height="8.823504158953089" fill="#ff884b" opacity="0.25384060858139784" rx="1"/><rect x="1471.9069144621974" y="662.7554756316252" width="10.683832868627235" height="8.823504158953089" fill="#ff577f" opacity="0.12692030429069892" rx="1"/><rect x="1490.7017640726876" y="736.304778649077" width="8.91943460258642" height="8.546875071373506" fill="#ff884b" opacity="0.5115040272966735" rx="1"/><rect x="1472.7891135952177" y="740.5782161847637" width="8.91943460258642" height="8.546875071373506" fill="#ff577f" opacity="0.2557520136483368" rx="1"/><rect x="1490.47151097317" y="814.2658337460053" width="9.379940801621402" height="6.570964515342136" fill="#ff884b" opacity="0.2373809555399653" rx="1"/><rect x="1472.5588604957002" y="817.5513160036764" width="9.379940801621402" height="6.570964515342136" fill="#ff577f" opacity="0.11869047776998265" rx="1"/><rect x="1535.0967686984447" y="504.8776802501822" width="77.06893917337734" height="377.3492085927514" fill="#1b152a" opacity="0.40954080536252374" rx="2"/><rect x="1568.8654899187072" y="514.8776802501823" width="9.531496732852304" height="8.24603405926517" fill="#ff884b" opacity="0.4937915439935847" rx="1"/><rect x="1549.598255125363" y="519.0006972798149" width="9.531496732852304" height="8.24603405926517" fill="#ff577f" opacity="0.24689577199679236" rx="1"/><rect x="1567.7684033864102" y="562.0463313242761" width="11.725669797446036" height="8.253782510350874" fill="#ff884b" opacity="0.15513321237059619" rx="1"/><rect x="1548.501168593066" y="566.1732225794516" width="11.725669797446036" height="8.253782510350874" fill="#ff577f" opacity="0.07756660618529809" rx="1"/><rect x="1569.881961545181" y="609.2149823983701" width="7.498553479904904" height="8.77296094660949" fill="#ff884b" opacity="0.46038172858776105" rx="1"/><rect x="1550.6147267518368" y="613.6014628716749" width="7.498553479904904" height="8.77296094660949" fill="#ff577f" opacity="0.23019086429388053" rx="1"/><rect x="1569.5564643853706" y="656.383633472464" width="8.149547799525212" height="6.036058464095942" fill="#ff884b" opacity="0.26704149431712965" rx="1"/><rect x="1550.2892295920265" y="659.401662704512" width="8.149547799525212" height="6.036058464095942" fill="#ff577f" opacity="0.13352074715856482" rx="1"/><rect x="1569.402931618598" y="703.552284546558" width="8.456613333070793" height="9.307827106515838" fill="#ff884b" opacity="0.5827351098607143" rx="1"/><rect x="1550.1356968252537" y="708.2061980998159" width="8.456613333070793" height="9.307827106515838" fill="#ff577f" opacity="0.29136755493035715" rx="1"/><rect x="1570.9658691198485" y="750.7209356206519" width="5.330738330569756" height="7.450217372144158" fill="#ff884b" opacity="0.11210045523757592" rx="1"/><rect x="1551.6986343265044" y="754.4460443067239" width="5.330738330569756" height="7.450217372144158" fill="#ff577f" opacity="0.05605022761878796" rx="1"/><rect x="1570.762818038874" y="797.8895866947457" width="5.736840492518814" height="9.169827176996002" fill="#ff884b" opacity="0.28037213633776925" rx="1"/><rect x="1551.4955832455298" y="802.4745002832437" width="5.736840492518814" height="9.169827176996002" fill="#ff577f" opacity="0.14018606816888463" rx="1"/><rect x="1569.8166952936017" y="845.0582377688397" width="7.629085983063347" height="7.8327188393642935" fill="#ff884b" opacity="0.23371469653996516" rx="1"/><rect x="1550.5494605002575" y="848.9745971885219" width="7.629085983063347" height="7.8327188393642935" fill="#ff577f" opacity="0.11685734826998258" rx="1"/><rect x="1612.441652878756" y="692.6304673875288" width="66.5976780598512" height="189.59642145540482" fill="#1b152a" opacity="0.5117448900853622" rx="2"/><rect x="1640.1869580548225" y="702.6304673875288" width="11.107067707718134" height="8.9757491422295" fill="#ff884b" opacity="0.47396009356574154" rx="1"/><rect x="1623.5375385398597" y="707.1183419586436" width="11.107067707718134" height="8.9757491422295" fill="#ff577f" opacity="0.23698004678287077" rx="1"/><rect x="1643.6276091296754" y="729.7156704525867" width="4.225765558012241" height="8.501394039602344" fill="#ff884b" opacity="0.19329071200762193" rx="1"/><rect x="1626.9781896147126" y="733.9663674723878" width="4.225765558012241" height="8.501394039602344" fill="#ff577f" opacity="0.09664535600381097" rx="1"/><rect x="1643.5959917601654" y="756.8008735176445" width="4.28900029703253" height="9.215669466931296" fill="#ff884b" opacity="0.2683267950239421" rx="1"/><rect x="1626.9465722452026" y="761.4087082511102" width="4.28900029703253" height="9.215669466931296" fill="#ff577f" opacity="0.13416339751197104" rx="1"/><rect x="1641.8792572647517" y="783.8860765827023" width="7.722469287859851" height="7.161329709263828" fill="#ff884b" opacity="0.12430105140067196" rx="1"/><rect x="1625.2298377497889" y="787.4667414373342" width="7.722469287859851" height="7.161329709263828" fill="#ff577f" opacity="0.06215052570033598" rx="1"/><rect x="1642.1291932270697" y="810.9712796477602" width="7.222597363223926" height="8.757922679827995" fill="#ff884b" opacity="0.5377437090589068" rx="1"/><rect x="1625.4797737121069" y="815.3502409876742" width="7.222597363223926" height="8.757922679827995" fill="#ff577f" opacity="0.2688718545294534" rx="1"/><rect x="1640.3564602256185" y="838.056482712818" width="10.768063366126285" height="8.318869017604476" fill="#ff884b" opacity="0.46801642467454463" rx="1"/><rect x="1623.7070407106557" y="842.2159172216203" width="10.768063366126285" height="8.318869017604476" fill="#ff577f" opacity="0.23400821233727231" rx="1"/><rect x="1643.628330867418" y="865.1416857778759" width="4.224322082527057" height="9.187898994234367" fill="#ff884b" opacity="0.21284773566593596" rx="1"/><rect x="1626.9789113524553" y="869.735635274993" width="4.224322082527057" height="9.187898994234367" fill="#ff577f" opacity="0.10642386783296798" rx="1"/><rect x="1685.8380136512774" y="764.7448326728179" width="65.57686095022989" height="117.48205617011573" fill="#1b152a" opacity="0.614339344975152" rx="2"/><rect x="1713.3489270667426" y="774.7448326728179" width="10.555034119299389" height="9.747277508430946" fill="#ff884b" opacity="0.24052204325341667" rx="1"/><rect x="1696.9547118291853" y="779.6184714270333" width="10.555034119299389" height="9.747277508430946" fill="#ff577f" opacity="0.12026102162670833" rx="1"/><rect x="1713.4006268587896" y="798.2412439068411" width="10.451634535205464" height="6.029077048420225" fill="#ff884b" opacity="0.14128719343368132" rx="1"/><rect x="1697.0064116212322" y="801.2557824310512" width="10.451634535205464" height="6.029077048420225" fill="#ff577f" opacity="0.07064359671684066" rx="1"/><rect x="1715.072732211573" y="821.7376551408641" width="7.107423829638265" height="6.956655490434882" fill="#ff884b" opacity="0.17206698217710176" rx="1"/><rect x="1698.6785169740158" y="825.2159828860816" width="7.107423829638265" height="6.956655490434882" fill="#ff577f" opacity="0.08603349108855088" rx="1"/><rect x="1713.1708628246956" y="845.2340663748873" width="10.911162603393002" height="6.305880076323143" fill="#ff884b" opacity="0.5924089200777023" rx="1"/><rect x="1696.7766475871383" y="848.3870064130489" width="10.911162603393002" height="6.305880076323143" fill="#ff577f" opacity="0.29620446003885115" rx="1"/><rect x="1714.0455504118104" y="868.7304776089105" width="9.161787429163649" height="6.0167383253613345" fill="#ff884b" opacity="0.33468665434855194" rx="1"/><rect x="1697.651335174253" y="871.7388467715912" width="9.161787429163649" height="6.0167383253613345" fill="#ff577f" opacity="0.16734332717427597" rx="1"/><rect x="1777.4414805433344" y="793.9511859891822" width="41.55141979259239" height="88.2757028537513" fill="#352f44" opacity="0.5512425936412165" rx="2"/><rect x="1792.4379215919034" y="803.9511859891822" width="11.558537695454092" height="7.590719853898213" fill="#ff884b" opacity="0.34230768886448526" rx="1"/><rect x="1782.0500666437554" y="807.7465459161314" width="11.558537695454092" height="7.590719853898213" fill="#ff577f" opacity="0.17115384443224263" rx="1"/><rect x="1793.4648929472232" y="818.6638031314741" width="9.504594984814663" height="6.809673185648786" fill="#ff884b" opacity="0.5900352789531544" rx="1"/><rect x="1783.0770379990752" y="822.0686397242985" width="9.504594984814663" height="6.809673185648786" fill="#ff577f" opacity="0.2950176394765772" rx="1"/><rect x="1794.5737794641343" y="833.376420273766" width="7.2868219509922945" height="9.797342326444886" fill="#ff884b" opacity="0.14146510398515155" rx="1"/><rect x="1784.1859245159862" y="838.2750914369884" width="7.2868219509922945" height="9.797342326444886" fill="#ff577f" opacity="0.07073255199257578" rx="1"/><rect x="1792.5467730610505" y="848.0890374160579" width="11.340834757159659" height="6.3642991493372945" fill="#ff884b" opacity="0.16255010121095698" rx="1"/><rect x="1782.1589181129025" y="851.2711869907265" width="11.340834757159659" height="6.3642991493372945" fill="#ff577f" opacity="0.08127505060547849" rx="1"/><rect x="1792.2937530799054" y="862.8016545583498" width="11.846874719449989" height="9.758855104390266" fill="#ff884b" opacity="0.5628485005728082" rx="1"/><rect x="1781.9058981317573" y="867.6810821105449" width="11.846874719449989" height="9.758855104390266" fill="#ff577f" opacity="0.2814242502864041" rx="1"/><rect x="1794.4273437553613" y="877.5142717006416" width="7.579693368538211" height="7.7419240646394725" fill="#ff884b" opacity="0.1987773052413895" rx="1"/><rect x="1784.0394888072133" y="881.3852337329614" width="7.579693368538211" height="7.7419240646394725" fill="#ff577f" opacity="0.09938865262069475" rx="1"/><rect x="1855.0323194696177" y="600.8513519658827" width="42.39981208750974" height="281.3755368770509" fill="#1b152a" opacity="0.4364560876126532" rx="2"/><rect x="1873.6897261777635" y="610.8513519658827" width="5.084998671218054" height="7.521441866997965" fill="#ff884b" opacity="0.23295173974077957" rx="1"/><rect x="1863.089773155886" y="614.6120728993817" width="5.084998671218054" height="7.521441866997965" fill="#ff577f" opacity="0.11647586987038978" rx="1"/><rect x="1871.4876086084378" y="646.0232940755141" width="9.489233809870024" height="6.493117089498117" fill="#ff884b" opacity="0.23460763290864595" rx="1"/><rect x="1860.8876555865602" y="649.2698526202631" width="9.489233809870024" height="6.493117089498117" fill="#ff577f" opacity="0.11730381645432297" rx="1"/><rect x="1872.5170670886332" y="681.1952361851454" width="7.43031684947906" height="7.791865153655379" fill="#ff884b" opacity="0.12212702821058385" rx="1"/><rect x="1861.9171140667556" y="685.0911687619731" width="7.43031684947906" height="7.791865153655379" fill="#ff577f" opacity="0.06106351410529193" rx="1"/><rect x="1873.8762352990163" y="716.3671782947767" width="4.711980428712438" height="7.472951697528584" fill="#ff884b" opacity="0.27304132300732686" rx="1"/><rect x="1863.2762822771388" y="720.103654143541" width="4.711980428712438" height="7.472951697528584" fill="#ff577f" opacity="0.13652066150366343" rx="1"/><rect x="1874.0768212389846" y="751.5391204044081" width="4.310808548776156" height="7.116988526917293" fill="#ff884b" opacity="0.4451722511894005" rx="1"/><rect x="1863.476868217107" y="755.0976146678668" width="4.310808548776156" height="7.116988526917293" fill="#ff577f" opacity="0.22258612559470026" rx="1"/><rect x="1870.5404717534643" y="786.7110625140394" width="11.383507519816865" height="9.893218314250284" fill="#ff884b" opacity="0.2569270140391139" rx="1"/><rect x="1859.9405187315867" y="791.6576716711646" width="11.383507519816865" height="9.893218314250284" fill="#ff577f" opacity="0.12846350701955694" rx="1"/><rect x="1871.7340718746964" y="821.8830046236709" width="8.99630727735262" height="9.774901201896114" fill="#ff884b" opacity="0.2323538587038298" rx="1"/><rect x="1861.1341188528188" y="826.7704552246189" width="8.99630727735262" height="9.774901201896114" fill="#ff577f" opacity="0.1161769293519149" rx="1"/><rect x="1871.8274496455742" y="857.0549467333022" width="8.809551735597093" height="6.397481989208023" fill="#ff884b" opacity="0.2795655403238641" rx="1"/><rect x="1861.2274966236967" y="860.2536877279063" width="8.809551735597093" height="6.397481989208023" fill="#ff577f" opacity="0.13978277016193205" rx="1"/><path d="M590.9303298478318 869.6537710655606 Q597.4337306100488 803.4346567591267 598.7344107624922 737.215542452693" stroke="#000000" stroke-width="7.4771701263909165" fill="none" stroke-linecap="round"/><path d="M598.7344107624922 737.215542452693 Q629.1339746082979 717.215542452693 644.6157464433032 737.215542452693" stroke="#020011" stroke-width="3.7486479444775376" fill="none" stroke-linecap="round" opacity="0.6"/><path d="M598.7344107624922 737.215542452693 Q626.234597907346 723.9944542345997 634.7744224401723 750.7733660165064" stroke="#020011" stroke-width="3.7131347660238703" fill="none" stroke-linecap="round" opacity="0.6"/><path d="M598.7344107624922 737.215542452693 Q610.3676004804728 724.7183039876439 587.3180350274389 752.2210655225949" stroke="#020011" stroke-width="2.0304859606620123" fill="none" stroke-linecap="round" opacity="0.6"/><path d="M598.7344107624922 737.215542452693 Q578.7361006985877 721.0081895674713 546.230991539255 744.8008366822496" stroke="#020011" stroke-width="2.8276314755966028" fill="none" stroke-linecap="round" opacity="0.6"/><path d="M598.7344107624922 737.215542452693 Q572.8533200559295 713.3048150925241 544.5963504988156 729.3940877323553" stroke="#020011" stroke-width="2.3258758313781294" fill="none" stroke-linecap="round" opacity="0.6"/><path d="M598.7344107624922 737.215542452693 Q597.7402305367995 706.9508391929332 583.1154005252158 716.6861359331735" stroke="#020011" stroke-width="2.1592810214868003" fill="none" stroke-linecap="round" opacity="0.6"/><path d="M1069.8115743207309 903.7421865863125 Q1077.1835803932474 815.0666295294805 1078.6579816077508 726.3910724726485" stroke="#000000" stroke-width="5.695054088182527" fill="none" stroke-linecap="round"/><path d="M1078.6579816077508 726.3910724726485 Q1113.8998668582415 706.3910724726485 1118.8308520859182 726.3910724726485" stroke="#020011" stroke-width="3.484268662865336" fill="none" stroke-linecap="round" opacity="0.6"/><path d="M1078.6579816077508 726.3910724726485 Q1099.8582569741259 712.8427940293743 1112.9584899675358 739.2945155861" stroke="#020011" stroke-width="3.2318488050326355" fill="none" stroke-linecap="round" opacity="0.6"/><path d="M1078.6579816077508 726.3910724726485 Q1077.4055197909038 712.2004153202447 1069.8183509713579 738.009758167841" stroke="#020011" stroke-width="2.560512017589182" fill="none" stroke-linecap="round" opacity="0.6"/><path d="M1078.6579816077508 726.3910724726485 Q1058.8607919014937 711.0536442356126 1014.1117814154234 735.7162159985769" stroke="#020011" stroke-width="3.4124898192036177" fill="none" stroke-linecap="round" opacity="0.6"/><path d="M1078.6579816077508 726.3910724726485 Q1056.2243622445237 702.3618105668982 1022.8789912098559 718.3325486611479" stroke="#020011" stroke-width="3.9720668927701346" fill="none" stroke-linecap="round" opacity="0.6"/><path d="M17.907938365337426 828.0211515091409 Q6.464064825899916 735.5460218294863 4.1752901180124145 643.0708921498318" stroke="#000000" stroke-width="4.843832890699579" fill="none" stroke-linecap="round"/><path d="M4.1752901180124145 643.0708921498318 Q40.97175432834116 623.0708921498318 55.95522455637232 643.0708921498318" stroke="#020011" stroke-width="2.544703053437337" fill="none" stroke-linecap="round" opacity="0.6"/><path d="M4.1752901180124145 643.0708921498318 Q17.916314888597732 627.6765518256836 28.661230316282925 652.2822115015355" stroke="#020011" stroke-width="3.193844252078292" fill="none" stroke-linecap="round" opacity="0.6"/><path d="M4.1752901180124145 643.0708921498318 Q12.400381771546861 627.7050497633418 -2.876151445848005 652.3392073768516" stroke="#020011" stroke-width="2.2485832763483242" fill="none" stroke-linecap="round" opacity="0.6"/><path d="M4.1752901180124145 643.0708921498318 Q1.0927554727943214 625.7808570373338 -33.340043701038766 648.4908219248358" stroke="#020011" stroke-width="2.402754945774273" fill="none" stroke-linecap="round" opacity="0.6"/><path d="M4.1752901180124145 643.0708921498318 Q-24.523540441862792 618.5385765629053 -58.567711830462514 634.0062609759788" stroke="#020011" stroke-width="3.675880291889394" fill="none" stroke-linecap="round" opacity="0.6"/><path d="M4.1752901180124145 643.0708921498318 Q6.3469462781692645 613.7182697965173 -10.055876685850778 624.3656474432029" stroke="#020011" stroke-width="3.400982559519117" fill="none" stroke-linecap="round" opacity="0.6"/><path d="M733.4912991741419 880.1406742493018 Q742.863672758188 809.5728513865203 744.7381474749973 739.0050285237387" stroke="#000000" stroke-width="6.83717088933037" fill="none" stroke-linecap="round"/><path d="M744.7381474749973 739.0050285237387 Q785.7309230067142 719.0050285237387 816.5717757215192 739.0050285237387" stroke="#020011" stroke-width="2.695611420249476" fill="none" stroke-linecap="round" opacity="0.6"/><path d="M744.7381474749973 739.0050285237387 Q764.4982054851181 726.1844759935871 782.9076028355516 753.3639234634354" stroke="#020011" stroke-width="3.9898668308718754" fill="none" stroke-linecap="round" opacity="0.6"/><path d="M744.7381474749973 739.0050285237387 Q758.7253096342421 724.908518037048 735.7552610913738 750.8120075503573" stroke="#020011" stroke-width="3.450851693621569" fill="none" stroke-linecap="round" opacity="0.6"/><path d="M744.7381474749973 739.0050285237387 Q721.5248586631209 724.1408072691424 673.6411177890477 749.2765860145463" stroke="#020011" stroke-width="2.1123364065104018" fill="none" stroke-linecap="round" opacity="0.6"/><path d="M744.7381474749973 739.0050285237387 Q731.1826016026482 714.3043139748373 679.6639185418471 729.603599425936" stroke="#020011" stroke-width="3.636185056910893" fill="none" stroke-linecap="round" opacity="0.6"/><path d="M744.7381474749973 739.0050285237387 Q751.0214676753118 713.6614458487766 736.6072283055016 728.3178631738145" stroke="#020011" stroke-width="3.2914488984484804" fill="none" stroke-linecap="round" opacity="0.6"/><path d="M744.7381474749973 739.0050285237387 Q774.2270341293308 710.3660883891444 790.6669799115781 721.7271482545501" stroke="#020011" stroke-width="3.6943228001925914" fill="none" stroke-linecap="round" opacity="0.6"/><path d="M1239.2580707276375 926.7747022739553 Q1254.074319096765 833.8042559704754 1257.0375687705905 740.8338096669954" stroke="#000000" stroke-width="5.445095515215093" fill="none" stroke-linecap="round"/><path d="M1257.0375687705905 740.8338096669954 Q1294.996475825551 720.8338096669954 1323.172395473619 740.8338096669954" stroke="#020011" stroke-width="2.720889919139652" fill="none" stroke-linecap="round" opacity="0.6"/><path d="M1257.0375687705905 740.8338096669954 Q1271.1548994210434 724.9352275081187 1278.8427126704798 749.0366453492421" stroke="#020011" stroke-width="3.021943573612241" fill="none" stroke-linecap="round" opacity="0.6"/><path d="M1257.0375687705905 740.8338096669954 Q1266.9192351909942 729.985110230751 1243.1127378648564 759.1364107945067" stroke="#020011" stroke-width="2.328503625078244" fill="none" stroke-linecap="round" opacity="0.6"/><path d="M1257.0375687705905 740.8338096669954 Q1243.9485774467955 722.967310326903 1227.502503637929 745.1008109868105" stroke="#020011" stroke-width="2.4391508415432535" fill="none" stroke-linecap="round" opacity="0.6"/><path d="M1257.0375687705905 740.8338096669954 Q1236.0315930359793 717.1985104937911 1206.7123919965873 733.5632113205868" stroke="#020011" stroke-width="3.5721755539002307" fill="none" stroke-linecap="round" opacity="0.6"/><path d="M1257.0375687705905 740.8338096669954 Q1264.6230642951398 711.9437619673897 1243.510266274243 723.0537142677841" stroke="#020011" stroke-width="3.3436449149957963" fill="none" stroke-linecap="round" opacity="0.6"/><rect x="0" y="1000" width="1920" height="80" fill="#0f091e" opacity="0.8"/><line x1="0" y1="1040" x2="1920" y2="1040" stroke="#ff884b" stroke-opacity="0.15" stroke-width="2" stroke-dasharray="30,20"/><rect x="0" y="930" width="1920" height="150" fill="url(#glow68)"/><rect x="0" y="980" width="1920" height="100" fill="#ff884b" opacity="0.04"/><rect x="1614.708555865732" y="1054.063741628561" width="111.5695583661016" height="2" fill="#ff577f" opacity="0.050079401505663854" rx="1"/><rect x="643.293597102932" y="1044.6119170553545" width="60.84234252591672" height="2" fill="#ff577f" opacity="0.04652828745230294" rx="1"/><rect x="1342.1075162436132" y="1054.3392272652916" width="80.88029946221044" height="2" fill="#ff577f" opacity="0.024646973890403046" rx="1"/><rect x="95.5644862576305" y="1050.6363576582253" width="112.76294344867648" height="2" fill="#ff577f" opacity="0.02110727224524768" rx="1"/><rect x="1376.1494022831669" y="1037.892741262422" width="38.651000926888315" height="2" fill="#ff577f" opacity="0.04896182814355982" rx="1"/><rect x="1165.469469401396" y="1053.9648061278194" width="96.50933358271358" height="2" fill="#ff577f" opacity="0.056499612079118286" rx="1"/><rect x="1720.9278545810207" y="1026.2377193864056" width="107.98372093308338" height="2" fill="#ff577f" opacity="0.020775077948527197" rx="1"/><rect x="969.8496256046577" y="1049.6800420316122" width="33.56639508473836" height="2" fill="#ff577f" opacity="0.049229461808975195" rx="1"/><rect x="100.56000935392456" y="1021.5747521681652" width="77.16726283011195" height="2" fill="#ff577f" opacity="0.04222386812377346" rx="1"/><rect x="1136.2595829032964" y="1048.8755550954668" width="22.340807766267286" height="2" fill="#ff577f" opacity="0.05718117906646365" rx="1"/><rect x="1843.9984389962624" y="1017.90945219293" width="77.82031394956175" height="2" fill="#ff577f" opacity="0.030956712442207317" rx="1"/><rect x="517.346532167249" y="1036.5048627593799" width="37.01179808401777" height="2" fill="#ff577f" opacity="0.0425085451506331" rx="1"/><rect x="21.23444304364604" y="1059.7032306994552" width="76.1751919929346" height="2" fill="#ff577f" opacity="0.025656238274103085" rx="1"/><rect x="1345.196268126647" y="1046.109151594832" width="23.122190014254812" height="2" fill="#ff577f" opacity="0.05964867765075729" rx="1"/><rect x="672.1686866954362" y="1016.4567060713788" width="80.20378620834178" height="2" fill="#ff577f" opacity="0.04913155688651176" rx="1"/><rect x="1385.9505158909483" y="1049.1401045418204" width="47.144034329602505" height="2" fill="#ff577f" opacity="0.02196775639475504" rx="1"/><rect x="1336.185290379493" y="1054.2003490343225" width="26.494184398673053" height="2" fill="#ff577f" opacity="0.037071890136476576" rx="1"/><rect x="1507.4771895044198" y="1045.9411752796595" width="75.99743648339003" height="2" fill="#ff577f" opacity="0.04160385695789099" rx="1"/><rect x="676.7889128711049" y="1005.5442136958112" width="76.56187605498403" height="2" fill="#ff577f" opacity="0.05919108168203176" rx="1"/><rect x="1884.382926813416" y="1038.48274031153" width="89.64670065083696" height="2" fill="#ff577f" opacity="0.05576189579343467" rx="1"/><rect x="1203.7064747334705" y="1031.7807204722847" width="68.39710778286613" height="2" fill="#ff577f" opacity="0.04602949018264876" rx="1"/><rect x="1541.2772332740196" y="1055.5617878994815" width="69.15143322412658" height="2" fill="#ff577f" opacity="0.03732220191911846" rx="1"/><rect x="1716.4637830379568" y="1001.7317799296537" width="25.92305369347405" height="2" fill="#ff577f" opacity="0.04916647326880286" rx="1"/><rect x="1005.4600299255595" y="1011.602244915348" width="63.31097981038293" height="2" fill="#ff577f" opacity="0.052554223787168564" rx="1"/><rect x="989.8154074768105" y="1020.4613802257137" width="57.21850589784293" height="2" fill="#ff577f" opacity="0.055311853754173926" rx="1"/><rect x="1109.0337965984443" y="1048.1305753272331" width="47.69415681895198" height="2" fill="#ff577f" opacity="0.02396006967964584" rx="1"/><rect x="121.83889794206222" y="1047.9142920365357" width="90.28645823483505" height="2" fill="#ff577f" opacity="0.027855903182145186" rx="1"/><rect x="322.8647590435261" y="1053.7997192083392" width="89.80049344007868" height="2" fill="#ff577f" opacity="0.03157870109462615" rx="1"/><rect x="616.2216336969802" y="1013.2951765817812" width="25.738217804054315" height="2" fill="#ff577f" opacity="0.04396017165481117" rx="1"/><rect x="969.8561169975103" y="1021.1054373954203" width="63.26747975853912" height="2" fill="#ff577f" opacity="0.03183064899682781" rx="1"/><text x="1900" y="1060" font-family="Arial, sans-serif" font-size="11" fill="#fff" opacity="0.08" text-anchor="end" letter-spacing="2">GTA 6 REWARDS · WALLPAPER 069</text>
</svg>