<?xml version="1.0" encoding="UTF-8"?>
<svg xmlns="http://www.w3.org/2000/svg" width="1920" height="1080" viewBox="0 0 1920 1080">
<defs>
    <linearGradient id="bg42" x1="0%" y1="0%" x2="0%" y2="100%">
      <stop offset="0%" stop-color="#1d3557"/>
      <stop offset="50%" stop-color="#000224"/>
      <stop offset="100%" stop-color="#1d3557"/>
    </linearGradient>
    <linearGradient id="sun42" x1="0%" y1="0%" x2="100%" y2="100%">
      <stop offset="0%" stop-color="#e63946"/>
      <stop offset="100%" stop-color="#457b9d"/>
    </linearGradient>
    <radialGradient id="glow42" cx="50%" cy="70%" r="50%">
      <stop offset="0%" stop-color="#e63946" stop-opacity="0.3"/>
      <stop offset="100%" stop-color="#1d3557" stop-opacity="0"/>
    </radialGradient>
  </defs><rect width="1920" height="1080" fill="url(#bg42)"/><circle cx="837.948670922301" cy="540.986317475556" r="800.9202124785911" fill="#e63946" opacity="0.06748138987866263"/><circle cx="1037.948670922301" cy="440.986317475556" r="505.31850846142476" fill="#457b9d" opacity="0.07185823955150746"/><circle cx="1338.5695782114215" cy="291.6951165631635" r="84.98978616320291" fill="url(#sun42)" opacity="0.6749771202856155"/><circle cx="1338.5695782114215" cy="291.6951165631635" r="79.98978616320291" fill="#1d3557" opacity="0.3"/><pattern id="scan42" width="1920" height="4" patternUnits="userSpaceOnUse">
      <line x1="0" y1="0" x2="1920" y2="0" stroke="#000" stroke-opacity="0.05" stroke-width="1"/>
    </pattern>
    <rect width="1920" height="1080" fill="url(#scan42)"/><rect x="5.917615139837753" y="647.9661675514574" width="60.04376927158883" height="285.98360542347274" fill="#1d3557" opacity="0.40115288558908574" rx="2"/><rect x="30.590150071212587" y="657.9661675514574" width="10.698699408839154" height="6.204837065237769" fill="#457b9d" opacity="0.39616199533831375" rx="1"/><rect x="15.579207753315384" y="661.0685860840763" width="10.698699408839154" height="6.204837065237769" fill="#e63946" opacity="0.19808099766915688" rx="1"/><rect x="33.81334795309541" y="715.1628886361519" width="4.252303645073507" height="7.067823947655928" fill="#457b9d" opacity="0.13089069622356694" rx="1"/><rect x="18.802405635198205" y="718.6968006099798" width="4.252303645073507" height="7.067823947655928" fill="#e63946" opacity="0.06544534811178347" rx="1"/><rect x="33.196743746799584" y="772.3596097208465" width="5.485512057665156" height="9.134189173377628" fill="#457b9d" opacity="0.3651678032160661" rx="1"/><rect x="18.185801428902383" y="776.9267043075353" width="5.485512057665156" height="9.134189173377628" fill="#e63946" opacity="0.18258390160803306" rx="1"/><rect x="33.831005338307236" y="829.5563308055409" width="4.216988874649859" height="6.692020937961531" fill="#457b9d" opacity="0.5213440627607853" rx="1"/><rect x="18.820063020410032" y="832.9023412745217" width="4.216988874649859" height="6.692020937961531" fill="#e63946" opacity="0.26067203138039263" rx="1"/><rect x="31.988540105751838" y="886.7530518902356" width="7.901919339760653" height="9.23609193582928" fill="#457b9d" opacity="0.25973087287501684" rx="1"/><rect x="16.977597787854634" y="891.3710978581503" width="7.901919339760653" height="9.23609193582928" fill="#e63946" opacity="0.12986543643750842" rx="1"/><rect x="100.76959913423933" y="838.5319526164168" width="32.2463528165236" height="95.41782035851335" fill="#1d3557" opacity="0.5790188538793053" rx="2"/><rect x="112.30999792346923" y="848.5319526164168" width="9.16555523806381" height="6.838041954868949" fill="#457b9d" opacity="0.2518148172534571" rx="1"/><rect x="104.24840971933833" y="851.9509735938512" width="9.16555523806381" height="6.838041954868949" fill="#e63946" opacity="0.12590740862672856" rx="1"/><rect x="111.93829005089508" y="872.3864077060451" width="9.908970983212107" height="9.434843677895806" fill="#457b9d" opacity="0.35399814470531377" rx="1"/><rect x="103.87670184676418" y="877.103829544993" width="9.908970983212107" height="9.434843677895806" fill="#e63946" opacity="0.17699907235265688" rx="1"/><rect x="114.0760151503827" y="896.2408627956735" width="5.633520784236845" height="7.136827931072755" fill="#457b9d" opacity="0.246495818543829" rx="1"/><rect x="106.0144269462518" y="899.8092767612098" width="5.633520784236845" height="7.136827931072755" fill="#e63946" opacity="0.1232479092719145" rx="1"/><rect x="114.59399702339718" y="920.0953178853018" width="4.597557038207901" height="8.639439174588638" fill="#457b9d" opacity="0.44038446618718663" rx="1"/><rect x="106.53240881926628" y="924.4150374725962" width="4.597557038207901" height="8.639439174588638" fill="#e63946" opacity="0.22019223309359331" rx="1"/><rect x="195.33809804799373" y="827.5593652919772" width="85.6703940349795" height="106.39040768295303" fill="#1d3557" opacity="0.5293412491514676" rx="2"/><rect x="235.6241014344293" y="837.5593652919772" width="5.098387262108361" height="6.443772662534325" fill="#457b9d" opacity="0.1079214526358809" rx="1"/><rect x="214.20650292568442" y="840.7812516232443" width="5.098387262108361" height="6.443772662534325" fill="#e63946" opacity="0.05396072631794045" rx="1"/><rect x="234.73151232147774" y="850.8581662523463" width="6.883565488011476" height="7.926890070998783" fill="#457b9d" opacity="0.4059610096518791" rx="1"/><rect x="213.31391381273286" y="854.8216112878457" width="6.883565488011476" height="7.926890070998783" fill="#e63946" opacity="0.20298050482593955" rx="1"/><rect x="232.5750631716129" y="864.1569672127155" width="11.196463787741136" height="6.310329622661306" fill="#457b9d" opacity="0.4597990076196843" rx="1"/><rect x="211.15746466286802" y="867.3121320240462" width="11.196463787741136" height="6.310329622661306" fill="#e63946" opacity="0.22989950380984214" rx="1"/><rect x="232.43382413663673" y="877.4557681730846" width="11.47894185769347" height="7.113005887044828" fill="#457b9d" opacity="0.45329269742437006" rx="1"/><rect x="211.01622562789186" y="881.012271116607" width="11.47894185769347" height="7.113005887044828" fill="#e63946" opacity="0.22664634871218503" rx="1"/><rect x="235.45480418905876" y="890.7545691334537" width="5.436981752849412" height="8.081265416480896" fill="#457b9d" opacity="0.5109458791583185" rx="1"/><rect x="214.0372056803139" y="894.7952018416942" width="5.436981752849412" height="8.081265416480896" fill="#e63946" opacity="0.25547293957915923" rx="1"/><rect x="235.69092477167194" y="904.0533700938229" width="4.964740587623031" height="9.98255454096537" fill="#457b9d" opacity="0.3814001073784661" rx="1"/><rect x="214.27332626292707" y="909.0446473643055" width="4.964740587623031" height="9.98255454096537" fill="#e63946" opacity="0.19070005368923304" rx="1"/><rect x="232.5088144054509" y="917.352171054192" width="11.328961320065186" height="7.735961479539043" fill="#457b9d" opacity="0.3892265121427426" rx="1"/><rect x="211.09121589670602" y="921.2201517939616" width="11.328961320065186" height="7.735961479539043" fill="#e63946" opacity="0.1946132560713713" rx="1"/><rect x="234.82544673640788" y="930.6509720145611" width="6.695696658151153" height="8.384956415366604" fill="#457b9d" opacity="0.2614788975942598" rx="1"/><rect x="213.407848227663" y="934.8434502222444" width="6.695696658151153" height="8.384956415366604" fill="#e63946" opacity="0.1307394487971299" rx="1"/><rect x="283.7006015491567" y="719.020952009368" width="47.71252070500341" height="214.9288209655622" fill="#1d3557" opacity="0.6085195616838801" rx="2"/><rect x="301.99606937925574" y="729.020952009368" width="11.121585044805329" height="7.727565880335766" fill="#457b9d" opacity="0.37260656637898804" rx="1"/><rect x="290.0679392030049" y="732.8847349495359" width="11.121585044805329" height="7.727565880335766" fill="#e63946" opacity="0.18630328318949402" rx="1"/><rect x="304.37314384030816" y="755.8870546300633" width="6.367436122700441" height="6.403509758506788" fill="#457b9d" opacity="0.44836075626042693" rx="1"/><rect x="292.44501366405734" y="759.0888095093167" width="6.367436122700441" height="6.403509758506788" fill="#e63946" opacity="0.22418037813021346" rx="1"/><rect x="304.30363948707424" y="782.7531572507586" width="6.506444829168368" height="9.143770326660892" fill="#457b9d" opacity="0.5523877457139054" rx="1"/><rect x="292.3755093108234" y="787.325042414089" width="6.506444829168368" height="9.143770326660892" fill="#e63946" opacity="0.2761938728569527" rx="1"/><rect x="305.1822965134952" y="809.6192598714538" width="4.749130776326435" height="7.901567195053577" fill="#457b9d" opacity="0.5109754038301705" rx="1"/><rect x="293.2541663372444" y="813.5700434689805" width="4.749130776326435" height="7.901567195053577" fill="#e63946" opacity="0.25548770191508524" rx="1"/><rect x="305.036944773861" y="836.4853624921491" width="5.039834255594721" height="9.890985666748831" fill="#457b9d" opacity="0.18919742286419436" rx="1"/><rect x="293.1088145976102" y="841.4308553255235" width="5.039834255594721" height="9.890985666748831" fill="#e63946" opacity="0.09459871143209718" rx="1"/><rect x="302.7191432894146" y="863.3514651128444" width="9.675437224487643" height="8.798764919582467" fill="#457b9d" opacity="0.21159106509564235" rx="1"/><rect x="290.7910131131638" y="867.7508475726356" width="9.675437224487643" height="8.798764919582467" fill="#e63946" opacity="0.10579553254782117" rx="1"/><rect x="303.9054142111819" y="890.2175677335397" width="7.3028953809530694" height="6.6537498637693355" fill="#457b9d" opacity="0.4273331947455493" rx="1"/><rect x="291.9772840349311" y="893.5444426654243" width="7.3028953809530694" height="6.6537498637693355" fill="#e63946" opacity="0.21366659737277466" rx="1"/><rect x="304.213137280817" y="917.083670354235" width="6.687449241682758" height="6.827816492139319" fill="#457b9d" opacity="0.4144516946781547" rx="1"/><rect x="292.2850071045662" y="920.4975786003047" width="6.687449241682758" height="6.827816492139319" fill="#e63946" opacity="0.20722584733907734" rx="1"/><rect x="375.6972750842036" y="616.2215805417443" width="49.582677837364066" height="317.72819243318594" fill="#031b3d" opacity="0.43941784071256823" rx="2"/><rect x="397.0097724463052" y="626.2215805417443" width="6.957683113160935" height="6.038105547437003" fill="#457b9d" opacity="0.46871120889408313" rx="1"/><rect x="384.6141029869642" y="629.2406333154628" width="6.957683113160935" height="6.038105547437003" fill="#e63946" opacity="0.23435560444704157" rx="1"/><rect x="395.9475587271667" y="665.9376045958925" width="9.082110551437854" height="9.503693424049693" fill="#457b9d" opacity="0.5540822397577768" rx="1"/><rect x="383.55188926782574" y="670.6894513079174" width="9.082110551437854" height="9.503693424049693" fill="#e63946" opacity="0.2770411198788884" rx="1"/><rect x="397.6526588783426" y="705.6536286500408" width="5.671910249086076" height="8.415730197545077" fill="#457b9d" opacity="0.3446212226628841" rx="1"/><rect x="385.2569894190016" y="709.8614937488134" width="5.671910249086076" height="8.415730197545077" fill="#e63946" opacity="0.17231061133144204" rx="1"/><rect x="397.75252022361974" y="745.369652704189" width="5.472187558531805" height="6.189896257638441" fill="#457b9d" opacity="0.45277589465323276" rx="1"/><rect x="385.35685076427876" y="748.4646008330081" width="5.472187558531805" height="6.189896257638441" fill="#e63946" opacity="0.22638794732661638" rx="1"/><rect x="395.6551341498103" y="785.0856767583373" width="9.666959706150685" height="7.16596846495894" fill="#457b9d" opacity="0.23774234211019762" rx="1"/><rect x="383.2594646904693" y="788.6686609908168" width="9.666959706150685" height="7.16596846495894" fill="#e63946" opacity="0.11887117105509881" rx="1"/><rect x="397.1422144988121" y="824.8017008124855" width="6.692799008147046" height="6.116427187834966" fill="#457b9d" opacity="0.21044771226831893" rx="1"/><rect x="384.74654503947113" y="827.8599144064029" width="6.692799008147046" height="6.116427187834966" fill="#e63946" opacity="0.10522385613415947" rx="1"/><rect x="394.5145330696337" y="864.5177248666337" width="11.948161866503806" height="8.289406661477267" fill="#457b9d" opacity="0.5942821344580227" rx="1"/><rect x="382.11886361029275" y="868.6624281973723" width="11.948161866503806" height="8.289406661477267" fill="#e63946" opacity="0.29714106722901135" rx="1"/><rect x="397.8331493535326" y="904.233748920782" width="5.310929298706103" height="6.683336260887639" fill="#457b9d" opacity="0.3804820751260226" rx="1"/><rect x="385.4374798941916" y="907.5754170512258" width="5.310929298706103" height="6.683336260887639" fill="#e63946" opacity="0.1902410375630113" rx="1"/><rect x="445.1387475929758" y="723.6265161129708" width="53.6793799520655" height="210.3232568619594" fill="#031b3d" opacity="0.6058410371434505" rx="2"/><rect x="468.63395436916613" y="733.6265161129708" width="6.688966399684773" height="9.582565599955284" fill="#457b9d" opacity="0.26365837460934616" rx="1"/><rect x="455.2141093811498" y="738.4177989129485" width="6.688966399684773" height="9.582565599955284" fill="#e63946" opacity="0.13182918730467308" rx="1"/><rect x="467.9973873752375" y="775.6911674853626" width="7.962100387542066" height="8.44347932712256" fill="#457b9d" opacity="0.3731810374588661" rx="1"/><rect x="454.5775423872212" y="779.9129071489239" width="7.962100387542066" height="8.44347932712256" fill="#e63946" opacity="0.18659051872943305" rx="1"/><rect x="467.62124579253424" y="817.7558188577545" width="8.714383552948568" height="6.941628034445836" fill="#457b9d" opacity="0.26268280431690694" rx="1"/><rect x="454.2014008045179" y="821.2266328749774" width="8.714383552948568" height="6.941628034445836" fill="#e63946" opacity="0.13134140215845347" rx="1"/><rect x="468.7833166436465" y="859.8204702301464" width="6.390241850724035" height="7.28226260218822" fill="#457b9d" opacity="0.4346478456711974" rx="1"/><rect x="455.3634716556302" y="863.4616015312405" width="6.390241850724035" height="7.28226260218822" fill="#e63946" opacity="0.2173239228355987" rx="1"/><rect x="469.0948724521291" y="901.8851216025382" width="5.7671302337588575" height="6.677218374953889" fill="#457b9d" opacity="0.4474930981983182" rx="1"/><rect x="455.67502746411276" y="905.2237307900151" width="5.7671302337588575" height="6.677218374953889" fill="#e63946" opacity="0.2237465490991591" rx="1"/><rect x="533.0630967169935" y="759.8113301349365" width="37.49472990806557" height="174.13844283999373" fill="#031b3d" opacity="0.5732607523149952" rx="2"/><rect x="547.8843252774778" y="769.8113301349365" width="7.8522727870969735" height="7.519720309767807" fill="#457b9d" opacity="0.45602492323518384" rx="1"/><rect x="538.5106428004614" y="773.5711902898204" width="7.8522727870969735" height="7.519720309767807" fill="#e63946" opacity="0.22801246161759192" rx="1"/><rect x="546.1599498698649" y="813.345940844935" width="11.301023602322914" height="9.246798151928651" fill="#457b9d" opacity="0.3196811626711118" rx="1"/><rect x="536.7862673928485" y="817.9693399208993" width="11.301023602322914" height="9.246798151928651" fill="#e63946" opacity="0.1598405813355559" rx="1"/><rect x="549.1938917727915" y="856.8805515549334" width="5.233139796469626" height="9.470521409872575" fill="#457b9d" opacity="0.36283761026869477" rx="1"/><rect x="539.820209295775" y="861.6158122598697" width="5.233139796469626" height="9.470521409872575" fill="#e63946" opacity="0.18141880513434738" rx="1"/><rect x="546.4489602028295" y="900.4151622649317" width="10.723002936393723" height="9.57802406129847" fill="#457b9d" opacity="0.3250513975101177" rx="1"/><rect x="537.0752777258131" y="905.204174295581" width="10.723002936393723" height="9.57802406129847" fill="#e63946" opacity="0.16252569875505885" rx="1"/><rect x="615.3069691378703" y="611.6720138377677" width="67.12465063136179" height="322.27775913716243" fill="#031b3d" opacity="0.5168930833732926" rx="2"/><rect x="642.9313302870511" y="621.6720138377677" width="11.875928333000264" height="7.967997395891696" fill="#457b9d" opacity="0.5297410885174156" rx="1"/><rect x="626.1501676292106" y="625.6560125357136" width="11.875928333000264" height="7.967997395891696" fill="#e63946" opacity="0.2648705442587078" rx="1"/><rect x="643.4965231831242" y="675.3849736939615" width="10.745542540854203" height="8.974482637591308" fill="#457b9d" opacity="0.1267723141067597" rx="1"/><rect x="626.7153605252837" y="679.8722150127571" width="10.745542540854203" height="8.974482637591308" fill="#e63946" opacity="0.06338615705337985" rx="1"/><rect x="646.591933216974" y="729.0979335501552" width="4.554722473154478" height="6.677205406287034" fill="#457b9d" opacity="0.3532713013359512" rx="1"/><rect x="629.8107705591335" y="732.4365362532986" width="4.554722473154478" height="6.677205406287034" fill="#e63946" opacity="0.1766356506679756" rx="1"/><rect x="644.1626669750293" y="782.8108934063489" width="9.413254957043858" height="9.043197401576489" fill="#457b9d" opacity="0.5957283062384763" rx="1"/><rect x="627.3815043171888" y="787.3324921071371" width="9.413254957043858" height="9.043197401576489" fill="#e63946" opacity="0.29786415311923814" rx="1"/><rect x="643.6053850104411" y="836.5238532625427" width="10.527818886220413" height="8.526455141260861" fill="#457b9d" opacity="0.5184880279746111" rx="1"/><rect x="626.8242223526006" y="840.7870808331731" width="10.527818886220413" height="8.526455141260861" fill="#e63946" opacity="0.25924401398730557" rx="1"/><rect x="643.4574395178782" y="890.2368131187364" width="10.823709871346065" height="8.397556847519603" fill="#457b9d" opacity="0.2755411412277122" rx="1"/><rect x="626.6762768600378" y="894.4355915424962" width="10.823709871346065" height="8.397556847519603" fill="#e63946" opacity="0.1377705706138561" rx="1"/><rect x="711.5890199123264" y="649.6531142735978" width="82.7028100641218" height="284.29665870133243" fill="#031b3d" opacity="0.681259524911004" rx="2"/><rect x="749.6230995383041" y="659.6531142735978" width="6.634650812166429" height="9.37867941227245" fill="#457b9d" opacity="0.17579730813759317" rx="1"/><rect x="728.9473970222737" y="664.342453979734" width="6.634650812166429" height="9.37867941227245" fill="#e63946" opacity="0.08789865406879659" rx="1"/><rect x="749.4774248616359" y="707.0358907238199" width="6.926000165503007" height="6.079880371708395" fill="#457b9d" opacity="0.14275120481447112" rx="1"/><rect x="728.8017223456054" y="710.0758309096741" width="6.926000165503007" height="6.079880371708395" fill="#e63946" opacity="0.07137560240723556" rx="1"/><rect x="748.3497985186743" y="754.418667174042" width="9.181252851425961" height="8.905457749707963" fill="#457b9d" opacity="0.5779709442467361" rx="1"/><rect x="727.6740960026439" y="758.8713960488959" width="9.181252851425961" height="8.905457749707963" fill="#e63946" opacity="0.28898547212336806" rx="1"/><rect x="747.422566085348" y="801.801443624264" width="11.03571771807869" height="7.86499076752574" fill="#457b9d" opacity="0.45373879057675104" rx="1"/><rect x="726.7468635693175" y="805.7339390080269" width="11.03571771807869" height="7.86499076752574" fill="#e63946" opacity="0.22686939528837552" rx="1"/><rect x="750.3598149362732" y="849.1842200744861" width="5.161220016228319" height="7.0924042307521225" fill="#457b9d" opacity="0.16956931379846513" rx="1"/><rect x="729.6841124202427" y="852.7304221898622" width="5.161220016228319" height="7.0924042307521225" fill="#e63946" opacity="0.08478465689923256" rx="1"/><rect x="750.7497218074965" y="896.5669965247082" width="4.381406273781649" height="7.1639383642850305" fill="#457b9d" opacity="0.32049210644804227" rx="1"/><rect x="730.074019291466" y="900.1489657068507" width="4.381406273781649" height="7.1639383642850305" fill="#e63946" opacity="0.16024605322402113" rx="1"/><rect x="802.5174628591354" y="615.8783390922189" width="72.98226255527285" height="318.0714338827113" fill="#1d3557" opacity="0.4587775324608147" rx="2"/><rect x="834.9373750207716" y="625.8783390922189" width="8.142438232000554" height="7.774175087403081" fill="#457b9d" opacity="0.33451395687519436" rx="1"/><rect x="816.6918093819534" y="629.7654266359204" width="8.142438232000554" height="7.774175087403081" fill="#e63946" opacity="0.16725697843759718" rx="1"/><rect x="835.1723537534792" y="678.8902447393374" width="7.672480766585209" height="7.700214255065707" fill="#457b9d" opacity="0.2659608879513016" rx="1"/><rect x="816.926788114661" y="682.7403518668702" width="7.672480766585209" height="7.700214255065707" fill="#e63946" opacity="0.1329804439756508" rx="1"/><rect x="835.7782130043819" y="731.902150386456" width="6.460762264779946" height="6.590581886607824" fill="#457b9d" opacity="0.35229861325405043" rx="1"/><rect x="817.5326473655637" y="735.19744132976" width="6.460762264779946" height="6.590581886607824" fill="#e63946" opacity="0.17614930662702522" rx="1"/><rect x="835.9389945518465" y="784.9140560335745" width="6.139199169850722" height="8.122229490923283" fill="#457b9d" opacity="0.3739785990617188" rx="1"/><rect x="817.6934289130282" y="788.9751707790361" width="6.139199169850722" height="8.122229490923283" fill="#e63946" opacity="0.1869892995308594" rx="1"/><rect x="834.4190962253565" y="837.925961680693" width="9.178995822830824" height="7.748757241700952" fill="#457b9d" opacity="0.16741267688744998" rx="1"/><rect x="816.1735305865383" y="841.8003403015435" width="9.178995822830824" height="7.748757241700952" fill="#e63946" opacity="0.08370633844372499" rx="1"/><rect x="836.9935358428297" y="890.9378673278115" width="4.030116587884286" height="6.592709337499158" fill="#457b9d" opacity="0.571620115794153" rx="1"/><rect x="818.7479702040115" y="894.2342219965611" width="4.030116587884286" height="6.592709337499158" fill="#e63946" opacity="0.2858100578970765" rx="1"/><rect x="874.8062184227138" y="724.8301453247736" width="82.23931856272726" height="209.11962765015653" fill="#1d3557" opacity="0.4296373809523968" rx="2"/><rect x="913.6989379792662" y="734.8301453247736" width="4.453879449622212" height="7.482446668083417" fill="#457b9d" opacity="0.21485485164794488" rx="1"/><rect x="893.1391083385845" y="738.5713686588153" width="4.453879449622212" height="7.482446668083417" fill="#e63946" opacity="0.10742742582397244" rx="1"/><rect x="911.1148191486245" y="764.7043778462246" width="9.62211711090573" height="8.256200975332456" fill="#457b9d" opacity="0.14730863392988885" rx="1"/><rect x="890.5549895079428" y="768.8324783338908" width="9.62211711090573" height="8.256200975332456" fill="#e63946" opacity="0.07365431696494443" rx="1"/><rect x="910.0603068739274" y="794.5786103676755" width="11.731141660299883" height="9.000434752320972" fill="#457b9d" opacity="0.4306002636278514" rx="1"/><rect x="889.5004772332456" y="799.078827743836" width="11.731141660299883" height="9.000434752320972" fill="#e63946" opacity="0.2153001318139257" rx="1"/><rect x="910.7403439925803" y="824.4528428891265" width="10.371067422994194" height="8.195232972082504" fill="#457b9d" opacity="0.5024224866652913" rx="1"/><rect x="890.1805143518985" y="828.5504593751677" width="10.371067422994194" height="8.195232972082504" fill="#e63946" opacity="0.25121124333264566" rx="1"/><rect x="911.8176606625783" y="854.3270754105773" width="8.216434082998063" height="6.707329753951013" fill="#457b9d" opacity="0.13904307203810734" rx="1"/><rect x="891.2578310218965" y="857.6807402875528" width="8.216434082998063" height="6.707329753951013" fill="#e63946" opacity="0.06952153601905367" rx="1"/><rect x="913.542373337486" y="884.2013079320283" width="4.767008733182915" height="6.238296750988415" fill="#457b9d" opacity="0.2313875477368449" rx="1"/><rect x="892.9825436968042" y="887.3204563075225" width="4.767008733182915" height="6.238296750988415" fill="#e63946" opacity="0.11569377386842244" rx="1"/><rect x="911.2373157461219" y="914.0755404534792" width="9.377123915910982" height="8.673459642257882" fill="#457b9d" opacity="0.3805006915658016" rx="1"/><rect x="890.6774861054402" y="918.4122702746082" width="9.377123915910982" height="8.673459642257882" fill="#e63946" opacity="0.1902503457829008" rx="1"/><rect x="989.2993867488809" y="734.9206356878674" width="31.327972063172602" height="199.02913728706284" fill="#031b3d" opacity="0.48523928871965955" rx="2"/><rect x="1000.8166795139706" y="744.9206356878674" width="8.29338653299338" height="6.819864120525276" fill="#457b9d" opacity="0.5721487176074062" rx="1"/><rect x="992.9846864981774" y="748.3305677481301" width="8.29338653299338" height="6.819864120525276" fill="#e63946" opacity="0.2860743588037031" rx="1"/><rect x="999.1549814106326" y="773.3533695860192" width="11.616782739669267" height="7.065013708794726" fill="#457b9d" opacity="0.35918014493286143" rx="1"/><rect x="991.3229883948394" y="776.8858764404166" width="11.616782739669267" height="7.065013708794726" fill="#e63946" opacity="0.17959007246643072" rx="1"/><rect x="999.523309635586" y="801.786103484171" width="10.880126289762586" height="9.74138665752052" fill="#457b9d" opacity="0.44249030259495836" rx="1"/><rect x="991.6913166197928" y="806.6567968129312" width="10.880126289762586" height="9.74138665752052" fill="#e63946" opacity="0.22124515129747918" rx="1"/><rect x="1000.6892283576749" y="830.2188373823229" width="8.548288845584796" height="9.239669944913981" fill="#457b9d" opacity="0.2559879614869105" rx="1"/><rect x="992.8572353418817" y="834.8386723547799" width="8.548288845584796" height="9.239669944913981" fill="#e63946" opacity="0.12799398074345525" rx="1"/><rect x="1000.9872586652607" y="858.6515712804747" width="7.952228230413103" height="9.001002311473945" fill="#457b9d" opacity="0.3748641411948167" rx="1"/><rect x="993.1552656494675" y="863.1520724362117" width="7.952228230413103" height="9.001002311473945" fill="#e63946" opacity="0.18743207059740835" rx="1"/><rect x="1000.2142645854536" y="887.0843051786266" width="9.498216390027249" height="8.217147136623307" fill="#457b9d" opacity="0.3730070977176091" rx="1"/><rect x="992.3822715696605" y="891.1928787469382" width="9.498216390027249" height="8.217147136623307" fill="#e63946" opacity="0.18650354885880455" rx="1"/><rect x="999.0954862679578" y="915.5170390767784" width="11.735773025019041" height="9.937260262653524" fill="#457b9d" opacity="0.48328084917349756" rx="1"/><rect x="991.2634932521646" y="920.4856692081052" width="11.735773025019041" height="9.937260262653524" fill="#e63946" opacity="0.24164042458674878" rx="1"/><rect x="1056.5342894122825" y="653.5737734412713" width="67.89323716375354" height="280.37599953365884" fill="#1d3557" opacity="0.5160544990366451" rx="2"/><rect x="1087.213073705796" y="663.5737734412713" width="6.5356685767266125" height="9.519492388591052" fill="#457b9d" opacity="0.3066225405332219" rx="1"/><rect x="1070.2397644148577" y="668.3335196355669" width="6.5356685767266125" height="9.519492388591052" fill="#e63946" opacity="0.15331127026661096" rx="1"/><rect x="1087.12231930763" y="698.6207733829787" width="6.717177373058437" height="8.131442456071134" fill="#457b9d" opacity="0.5183791269125368" rx="1"/><rect x="1070.1490100166918" y="702.6864946110143" width="6.717177373058437" height="8.131442456071134" fill="#e63946" opacity="0.2591895634562684" rx="1"/><rect x="1086.0094594398577" y="733.6677733246861" width="8.942897108603013" height="9.470940125051639" fill="#457b9d" opacity="0.4457596501907706" rx="1"/><rect x="1069.0361501489194" y="738.4032433872119" width="8.942897108603013" height="9.470940125051639" fill="#e63946" opacity="0.2228798250953853" rx="1"/><rect x="1087.8774677400233" y="768.7147732663934" width="5.206880508271716" height="7.146960303454418" fill="#457b9d" opacity="0.5807217791631636" rx="1"/><rect x="1070.9041584490851" y="772.2882534181206" width="5.206880508271716" height="7.146960303454418" fill="#e63946" opacity="0.2903608895815818" rx="1"/><rect x="1086.5343284367939" y="803.7617732081007" width="7.893159114730814" height="7.0993133618261925" fill="#457b9d" opacity="0.41538280537710126" rx="1"/><rect x="1069.5610191458557" y="807.3114298890139" width="7.893159114730814" height="7.0993133618261925" fill="#e63946" opacity="0.20769140268855063" rx="1"/><rect x="1085.396067664077" y="838.8087731498081" width="10.169680660164374" height="8.953198359104153" fill="#457b9d" opacity="0.457414855239311" rx="1"/><rect x="1068.4227583731388" y="843.2853723293601" width="10.169680660164374" height="8.953198359104153" fill="#e63946" opacity="0.2287074276196555" rx="1"/><rect x="1087.7373488840078" y="873.8557730915154" width="5.487118220303002" height="9.386926776586781" fill="#457b9d" opacity="0.5512793683566338" rx="1"/><rect x="1070.7640395930696" y="878.5492364798088" width="5.487118220303002" height="9.386926776586781" fill="#e63946" opacity="0.2756396841783169" rx="1"/><rect x="1086.3019750754163" y="908.9027730332228" width="8.357865837485964" height="7.885295875809457" fill="#457b9d" opacity="0.13625553579448152" rx="1"/><rect x="1069.328665784478" y="912.8454209711276" width="8.357865837485964" height="7.885295875809457" fill="#e63946" opacity="0.06812776789724076" rx="1"/><rect x="1149.542654811679" y="651.3737125209005" width="83.59292839504613" height="282.57606045402963" fill="#031b3d" opacity="0.5328347971273667" rx="2"/><rect x="1186.4700279820493" y="661.3737125209005" width="9.738182054305957" height="8.071463687827686" fill="#457b9d" opacity="0.12165898809248094" rx="1"/><rect x="1165.5717958832877" y="665.4094443648144" width="9.738182054305957" height="8.071463687827686" fill="#e63946" opacity="0.06082949404624047" rx="1"/><rect x="1188.6687505667344" y="708.4697225965722" width="5.3407368849359305" height="6.390244971120321" fill="#457b9d" opacity="0.16057592180105298" rx="1"/><rect x="1167.7705184679728" y="711.6648450821324" width="5.3407368849359305" height="6.390244971120321" fill="#e63946" opacity="0.08028796090052649" rx="1"/><rect x="1187.837694805226" y="755.5657326722437" width="7.0028484079527775" height="9.312707870107308" fill="#457b9d" opacity="0.5189278413352855" rx="1"/><rect x="1166.9394627064644" y="760.2220866072973" width="7.0028484079527775" height="9.312707870107308" fill="#e63946" opacity="0.25946392066764273" rx="1"/><rect x="1186.6057194152945" y="802.6617427479154" width="9.466799187815468" height="6.338998074722243" fill="#457b9d" opacity="0.11640532235996923" rx="1"/><rect x="1165.707487316533" y="805.8312417852765" width="9.466799187815468" height="6.338998074722243" fill="#e63946" opacity="0.05820266117998461" rx="1"/><rect x="1188.25804492107" y="849.757752823587" width="6.162148176264518" height="8.800093317125015" fill="#457b9d" opacity="0.23483625921300527" rx="1"/><rect x="1167.3598128223084" y="854.1577994821495" width="6.162148176264518" height="8.800093317125015" fill="#e63946" opacity="0.11741812960650264" rx="1"/><rect x="1185.914851854218" y="896.8537628992585" width="10.848534309968477" height="8.504374675104483" fill="#457b9d" opacity="0.554473223992268" rx="1"/><rect x="1165.0166197554565" y="901.1059502368107" width="10.848534309968477" height="8.504374675104483" fill="#e63946" opacity="0.277236611996134" rx="1"/><rect x="1248.462404104396" y="824.0146526424248" width="50.704769655294896" height="109.93512033250535" fill="#1d3557" opacity="0.4719404053110491" rx="2"/><rect x="1270.6998593451349" y="834.0146526424248" width="6.2298591738170614" height="7.04052004242328" fill="#457b9d" opacity="0.4602271029633067" rx="1"/><rect x="1258.023666931311" y="837.5349126636364" width="6.2298591738170614" height="7.04052004242328" fill="#e63946" opacity="0.23011355148165336" rx="1"/><rect x="1269.7385922880362" y="856.0016767089259" width="8.152393288014547" height="7.952416220203139" fill="#457b9d" opacity="0.39596277018914994" rx="1"/><rect x="1257.0623998742124" y="859.9778848190274" width="8.152393288014547" height="7.952416220203139" fill="#e63946" opacity="0.19798138509457497" rx="1"/><rect x="1271.3784753931297" y="877.988700775427" width="4.872627077827376" height="9.12775479516195" fill="#457b9d" opacity="0.44454554280837666" rx="1"/><rect x="1258.702282979306" y="882.552578173008" width="4.872627077827376" height="9.12775479516195" fill="#e63946" opacity="0.22227277140418833" rx="1"/><rect x="1268.14032950173" y="899.975724841928" width="11.348918860626622" height="6.466361835707529" fill="#457b9d" opacity="0.1293965592350337" rx="1"/><rect x="1255.4641370879062" y="903.2089057597818" width="11.348918860626622" height="6.466361835707529" fill="#e63946" opacity="0.06469827961751685" rx="1"/><rect x="1271.6821615444815" y="921.9627489084291" width="4.265254775123963" height="7.3620778902811175" fill="#457b9d" opacity="0.22007689292544427" rx="1"/><rect x="1259.0059691306576" y="925.6437878535697" width="4.265254775123963" height="7.3620778902811175" fill="#e63946" opacity="0.11003844646272214" rx="1"/><rect x="1315.9887709173515" y="679.5899708474963" width="89.42314581466445" height="254.35980212743388" fill="#1d3557" opacity="0.5024847899103735" rx="2"/><rect x="1358.5720176256366" y="689.5899708474963" width="4.256652398094687" height="8.938841795301727" fill="#457b9d" opacity="0.4993082561994223" rx="1"/><rect x="1336.2162311719703" y="694.0593917451471" width="4.256652398094687" height="8.938841795301727" fill="#e63946" opacity="0.24965412809971116" rx="1"/><rect x="1357.1968249551646" y="731.9832712020685" width="7.0070377390382435" height="6.8177484424826105" fill="#457b9d" opacity="0.4927421695303037" rx="1"/><rect x="1334.8410385014984" y="735.3921454233098" width="7.0070377390382435" height="6.8177484424826105" fill="#e63946" opacity="0.24637108476515185" rx="1"/><rect x="1356.6800429860484" y="774.3765715566409" width="8.040601677270747" height="6.552433038259026" fill="#457b9d" opacity="0.1412458242013226" rx="1"/><rect x="1334.3242565323822" y="777.6527880757704" width="8.040601677270747" height="6.552433038259026" fill="#e63946" opacity="0.0706229121006613" rx="1"/><rect x="1355.610126345391" y="816.7698719112132" width="10.18043495858564" height="7.726509417809199" fill="#457b9d" opacity="0.5351852919056977" rx="1"/><rect x="1333.2543398917248" y="820.6331266201178" width="10.18043495858564" height="7.726509417809199" fill="#e63946" opacity="0.2675926459528489" rx="1"/><rect x="1355.5318597321873" y="859.1631722657855" width="10.336968184992896" height="7.9741177805639145" fill="#457b9d" opacity="0.5757918217163048" rx="1"/><rect x="1333.176073278521" y="863.1502311560674" width="10.336968184992896" height="7.9741177805639145" fill="#e63946" opacity="0.2878959108581524" rx="1"/><rect x="1357.9986747657579" y="901.5564726203578" width="5.403338117851722" height="6.581992948563302" fill="#457b9d" opacity="0.37605926670973633" rx="1"/><rect x="1335.6428883120916" y="904.8474690946395" width="5.403338117851722" height="6.581992948563302" fill="#e63946" opacity="0.18802963335486816" rx="1"/><rect x="1416.6021981871904" y="622.9003611772555" width="42.39368913518118" height="311.0494117976747" fill="#031b3d" opacity="0.4404997579149203" rx="2"/><rect x="1433.3878907695132" y="632.9003611772555" width="8.822303970535822" height="8.221722040842689" fill="#457b9d" opacity="0.2026657019049548" rx="1"/><rect x="1422.7894684857179" y="637.0112221976768" width="8.822303970535822" height="8.221722040842689" fill="#e63946" opacity="0.1013328509524774" rx="1"/><rect x="1432.1109080790081" y="684.7419298102013" width="11.376269351545783" height="8.087037294657677" fill="#457b9d" opacity="0.4725573367840977" rx="1"/><rect x="1421.5124857952128" y="688.7854484575302" width="11.376269351545783" height="8.087037294657677" fill="#e63946" opacity="0.23627866839204886" rx="1"/><rect x="1435.5996463111815" y="736.583498443147" width="4.398792887199389" height="9.830081765500381" fill="#457b9d" opacity="0.3901816924079744" rx="1"/><rect x="1425.0012240273861" y="741.4985393258972" width="4.398792887199389" height="9.830081765500381" fill="#e63946" opacity="0.1950908462039872" rx="1"/><rect x="1434.6632614924467" y="788.4250670760928" width="6.27156252466877" height="6.188264995857204" fill="#457b9d" opacity="0.26313590357618777" rx="1"/><rect x="1424.0648392086514" y="791.5191995740214" width="6.27156252466877" height="6.188264995857204" fill="#e63946" opacity="0.13156795178809388" rx="1"/><rect x="1432.9512365267246" y="840.2666357090386" width="9.695612456113011" height="9.04400613229815" fill="#457b9d" opacity="0.22551776823250524" rx="1"/><rect x="1422.3528142429293" y="844.7886387751877" width="9.695612456113011" height="9.04400613229815" fill="#e63946" opacity="0.11275888411625262" rx="1"/><rect x="1432.347938849693" y="892.1082043419844" width="10.902207810176119" height="7.823245100170198" fill="#457b9d" opacity="0.19132357060241595" rx="1"/><rect x="1421.7495165658977" y="896.0198268920695" width="10.902207810176119" height="7.823245100170198" fill="#e63946" opacity="0.09566178530120797" rx="1"/><rect x="1502.9160850434155" y="797.4351306439925" width="60.4508649675294" height="136.5146423309377" fill="#1d3557" opacity="0.4262380285948138" rx="2"/><rect x="1527.1615636514198" y="807.4351306439925" width="11.959907751521074" height="6.846647991995944" fill="#457b9d" opacity="0.335793126801912" rx="1"/><rect x="1512.0488474095373" y="810.8584546399904" width="11.959907751521074" height="6.846647991995944" fill="#e63946" opacity="0.167896563400956" rx="1"/><rect x="1529.1067123694845" y="852.9400114209717" width="8.069610315391238" height="8.478524754400953" fill="#457b9d" opacity="0.3422673822711845" rx="1"/><rect x="1513.993996127602" y="857.1792737981722" width="8.069610315391238" height="8.478524754400953" fill="#e63946" opacity="0.17113369113559224" rx="1"/><rect x="1528.4444517289178" y="898.4448921979509" width="9.394131596524765" height="6.633434795922002" fill="#457b9d" opacity="0.5895203624594771" rx="1"/><rect x="1513.3317354870353" y="901.761609595912" width="9.394131596524765" height="6.633434795922002" fill="#e63946" opacity="0.29476018122973857" rx="1"/><rect x="1595.7861327655878" y="792.4871627922373" width="50.778090227576456" height="141.4626101826929" fill="#1d3557" opacity="0.6286621856337092" rx="2"/><rect x="1617.2344642553855" y="802.4871627922373" width="7.881427247980942" height="7.008742206964815" fill="#457b9d" opacity="0.3496700636692508" rx="1"/><rect x="1604.5399416984915" y="805.9915338957197" width="7.881427247980942" height="7.008742206964815" fill="#e63946" opacity="0.1748350318346254" rx="1"/><rect x="1619.0359077199275" y="830.7796848287759" width="4.278540318896654" height="9.446775267703174" fill="#457b9d" opacity="0.28180061950855906" rx="1"/><rect x="1606.3413851630335" y="835.5030724626274" width="4.278540318896654" height="9.446775267703174" fill="#e63946" opacity="0.14090030975427953" rx="1"/><rect x="1617.4710499833334" y="859.0722068653145" width="7.408255792085141" height="7.006165391068478" fill="#457b9d" opacity="0.35198308465815686" rx="1"/><rect x="1604.7765274264393" y="862.5752895608487" width="7.408255792085141" height="7.006165391068478" fill="#e63946" opacity="0.17599154232907843" rx="1"/><rect x="1619.011251526591" y="887.364728901853" width="4.327852705569904" height="8.663411798575757" fill="#457b9d" opacity="0.13238199873184367" rx="1"/><rect x="1606.316728969697" y="891.6964348011409" width="4.327852705569904" height="8.663411798575757" fill="#e63946" opacity="0.06619099936592183" rx="1"/><rect x="1615.570596161135" y="915.6572509383916" width="11.209163436482001" height="9.052751599590469" fill="#457b9d" opacity="0.4289597745353728" rx="1"/><rect x="1602.876073604241" y="920.1836267381868" width="11.209163436482001" height="9.052751599590469" fill="#e63946" opacity="0.2144798872676864" rx="1"/><rect x="1682.4840875475272" y="677.9477921496024" width="33.225459466508" height="256.0019808253278" fill="#1d3557" opacity="0.5444942761083353" rx="2"/><rect x="1695.1952724691344" y="687.9477921496024" width="7.803089623293627" height="7.802166901017112" fill="#457b9d" opacity="0.38859347623973006" rx="1"/><rect x="1686.8889076025075" y="691.8488756001109" width="7.803089623293627" height="7.802166901017112" fill="#e63946" opacity="0.19429673811986503" rx="1"/><rect x="1697.0316205878223" y="730.6147889538237" width="4.130393385917506" height="8.833133198049183" fill="#457b9d" opacity="0.10185278302567378" rx="1"/><rect x="1688.7252557211955" y="735.0313555528483" width="4.130393385917506" height="8.833133198049183" fill="#e63946" opacity="0.05092639151283689" rx="1"/><rect x="1694.332414835663" y="773.281785758045" width="9.528804890236074" height="6.732928887180269" fill="#457b9d" opacity="0.28449981480010317" rx="1"/><rect x="1686.0260499690362" y="776.6482502016352" width="9.528804890236074" height="6.732928887180269" fill="#e63946" opacity="0.14224990740005158" rx="1"/><rect x="1694.193727760515" y="815.9487825622663" width="9.806179040532136" height="9.724486317421423" fill="#457b9d" opacity="0.23950762330542963" rx="1"/><rect x="1685.8873628938882" y="820.811025720977" width="9.806179040532136" height="9.724486317421423" fill="#e63946" opacity="0.11975381165271481" rx="1"/><rect x="1694.6244014725485" y="858.6157793664876" width="8.944831616465196" height="9.610484189263193" fill="#457b9d" opacity="0.33106028226461737" rx="1"/><rect x="1686.3180366059216" y="863.4210214611192" width="8.944831616465196" height="9.610484189263193" fill="#e63946" opacity="0.16553014113230868" rx="1"/><rect x="1696.9144236656045" y="901.2827761707089" width="4.364787230353055" height="8.269755363992825" fill="#457b9d" opacity="0.34746021738915245" rx="1"/><rect x="1688.6080587989777" y="905.4176538527053" width="4.364787230353055" height="8.269755363992825" fill="#e63946" opacity="0.17373010869457622" rx="1"/><rect x="1758.7150787224712" y="627.8076622001379" width="58.10067977479209" height="306.1421107747923" fill="#031b3d" opacity="0.614454663618108" rx="2"/><rect x="1781.9830933598214" y="637.8076622001379" width="11.564650500091876" height="9.332489172772618" fill="#457b9d" opacity="0.33964445147189415" rx="1"/><rect x="1767.4579234161233" y="642.4739067865241" width="11.564650500091876" height="9.332489172772618" fill="#e63946" opacity="0.16982222573594707" rx="1"/><rect x="1785.7323863518184" y="688.8313473292699" width="4.0660645160977875" height="9.641984508289486" fill="#457b9d" opacity="0.13111866897230937" rx="1"/><rect x="1771.2072164081203" y="693.6523395834146" width="4.0660645160977875" height="9.641984508289486" fill="#e63946" opacity="0.06555933448615468" rx="1"/><rect x="1783.7010994039163" y="739.855032458402" width="8.12863841190204" height="7.947193523390962" fill="#457b9d" opacity="0.4409456059664827" rx="1"/><rect x="1769.1759294602182" y="743.8286292200975" width="8.12863841190204" height="7.947193523390962" fill="#e63946" opacity="0.22047280298324134" rx="1"/><rect x="1783.5447886416011" y="790.8787175875341" width="8.4412599365323" height="8.44045753647584" fill="#457b9d" opacity="0.525964107603292" rx="1"/><rect x="1769.019618697903" y="795.098946355772" width="8.4412599365323" height="8.44045753647584" fill="#e63946" opacity="0.262982053801646" rx="1"/><rect x="1783.108259020949" y="841.9024027166661" width="9.314319177836719" height="9.936874204300548" fill="#457b9d" opacity="0.5897347382478729" rx="1"/><rect x="1768.5830890772509" y="846.8708398188163" width="9.314319177836719" height="9.936874204300548" fill="#e63946" opacity="0.29486736912393646" rx="1"/><rect x="1781.8969242603662" y="892.9260878457981" width="11.73698869900242" height="9.246616686518912" fill="#457b9d" opacity="0.5787138062479705" rx="1"/><rect x="1767.371754316668" y="897.5493961890576" width="11.73698869900242" height="9.246616686518912" fill="#e63946" opacity="0.28935690312398527" rx="1"/><rect x="1857.0649954688845" y="827.1755205763446" width="39.55874162948661" height="106.7742523985855" fill="#1d3557" opacity="0.41043344920278374" rx="2"/><rect x="1871.3472155263948" y="837.1755205763446" width="10.994301514465898" height="8.716748700178403" fill="#457b9d" opacity="0.4880443557603388" rx="1"/><rect x="1861.4575301190232" y="841.5338949264338" width="10.994301514465898" height="8.716748700178403" fill="#e63946" opacity="0.2440221778801694" rx="1"/><rect x="1873.5338484553424" y="858.5303710560618" width="6.621035656570698" height="9.362356239781333" fill="#457b9d" opacity="0.32687887603577204" rx="1"/><rect x="1863.6441630479708" y="863.2115491759524" width="6.621035656570698" height="9.362356239781333" fill="#e63946" opacity="0.16343943801788602" rx="1"/><rect x="1871.1519691651533" y="879.8852215357788" width="11.384794236948899" height="8.622904929011806" fill="#457b9d" opacity="0.22526737913146322" rx="1"/><rect x="1861.2622837577817" y="884.1966740002847" width="11.384794236948899" height="8.622904929011806" fill="#e63946" opacity="0.11263368956573161" rx="1"/><rect x="1874.2197980613917" y="901.2400720154959" width="5.249136444472041" height="7.497846631681977" fill="#457b9d" opacity="0.46230823382789" rx="1"/><rect x="1864.33011265402" y="904.9889953313369" width="5.249136444472041" height="7.497846631681977" fill="#e63946" opacity="0.231154116913945" rx="1"/><rect x="1874.6428009862605" y="922.594922495213" width="4.403130594734831" height="6.552094277123011" fill="#457b9d" opacity="0.21968959661193416" rx="1"/><rect x="1864.7531155788888" y="925.8709696337745" width="4.403130594734831" height="6.552094277123011" fill="#e63946" opacity="0.10984479830596708" rx="1"/><path d="M718.6058232371242 852.9146351276232 Q714.9877187551435 729.8301385901473 714.2640978587474 606.7456420526713" stroke="#00000a" stroke-width="7.170209305167713" fill="none" stroke-linecap="round"/><path d="M714.2640978587474 606.7456420526713 Q743.3476394564722 586.7456420526713 745.0658069669887 606.7456420526713" stroke="#000224" stroke-width="3.750563436595389" fill="none" stroke-linecap="round" opacity="0.6"/><path d="M714.2640978587474 606.7456420526713 Q750.8400113182024 593.7377221764552 751.4374167364223 620.729802300239" stroke="#000224" stroke-width="2.933817167052491" fill="none" stroke-linecap="round" opacity="0.6"/><path d="M714.2640978587474 606.7456420526713 Q718.865962854885 597.2891505281843 698.2208511473268 627.8326590036974" stroke="#000224" stroke-width="2.6302163579105904" fill="none" stroke-linecap="round" opacity="0.6"/><path d="M714.2640978587474 606.7456420526713 Q708.7433476637225 590.4206885463022 663.3886800092631 614.0957350399331" stroke="#000224" stroke-width="2.3453602633311785" fill="none" stroke-linecap="round" opacity="0.6"/><path d="M714.2640978587474 606.7456420526713 Q711.9520223780355 584.5505178795911 683.8759491018528 602.3553937065109" stroke="#000224" stroke-width="3.590925801450137" fill="none" stroke-linecap="round" opacity="0.6"/><path d="M714.2640978587474 606.7456420526713 Q724.3048990999184 577.9979213362309 700.9533633966471 589.2502006197905" stroke="#000224" stroke-width="2.783824357852299" fill="none" stroke-linecap="round" opacity="0.6"/><path d="M324.52335484431205 784.6941935561351 Q331.69986796372103 721.0989951496243 333.13517058760283 657.5037967431135" stroke="#00000a" stroke-width="6.832966105740742" fill="none" stroke-linecap="round"/><path d="M333.13517058760283 657.5037967431135 Q374.4047340244066 637.5037967431135 390.46475777366777 657.5037967431135" stroke="#000224" stroke-width="3.7921618869975586" fill="none" stroke-linecap="round" opacity="0.6"/><path d="M333.13517058760283 657.5037967431135 Q343.69778422685556 641.0228867852022 351.8443749985814 664.5419768272909" stroke="#000224" stroke-width="2.191129325933552" fill="none" stroke-linecap="round" opacity="0.6"/><path d="M333.13517058760283 657.5037967431135 Q330.49032170669966 641.8914536453599 326.4588102155985 666.2791105476064" stroke="#000224" stroke-width="3.0478848579916837" fill="none" stroke-linecap="round" opacity="0.6"/><path d="M333.13517058760283 657.5037967431135 Q315.5184722296813 641.8809269097744 272.5404742765786 666.2580570764354" stroke="#000224" stroke-width="2.003291260451845" fill="none" stroke-linecap="round" opacity="0.6"/><path d="M333.13517058760283 657.5037967431135 Q307.92957036664177 632.8634208632932 268.89623857036963 648.223044983473" stroke="#000224" stroke-width="2.396500503271003" fill="none" stroke-linecap="round" opacity="0.6"/><path d="M333.13517058760283 657.5037967431135 Q327.16487977134 628.3443890120718 319.19800362834303 639.18498128103" stroke="#000224" stroke-width="3.252327700902784" fill="none" stroke-linecap="round" opacity="0.6"/><path d="M1633.9745874036976 863.9923941260186 Q1637.5009020458676 782.8587083513519 1638.2061649743016 701.7250225766852" stroke="#00000a" stroke-width="5.644870294640975" fill="none" stroke-linecap="round"/><path d="M1638.2061649743016 701.7250225766852 Q1660.7746905583829 681.7250225766852 1677.936501966309 701.7250225766852" stroke="#000224" stroke-width="3.4146015167735984" fill="none" stroke-linecap="round" opacity="0.6"/><path d="M1638.2061649743016 701.7250225766852 Q1670.4191506152636 686.8964685403671 1665.7001018948322 712.0679145040489" stroke="#000224" stroke-width="3.8866263306435727" fill="none" stroke-linecap="round" opacity="0.6"/><path d="M1638.2061649743016 701.7250225766852 Q1638.3154109344027 690.4725828544072 1624.8956746394713 719.2201431321292" stroke="#000224" stroke-width="3.332360719640823" fill="none" stroke-linecap="round" opacity="0.6"/><path d="M1638.2061649743016 701.7250225766852 Q1618.4816624376851 686.5775579185189 1571.0302085413612 711.4300932603526" stroke="#000224" stroke-width="2.686709686807988" fill="none" stroke-linecap="round" opacity="0.6"/><path d="M1638.2061649743016 701.7250225766852 Q1631.5881915754505 678.1178895463238 1588.2709055221128 694.5107565159624" stroke="#000224" stroke-width="2.466599011902371" fill="none" stroke-linecap="round" opacity="0.6"/><path d="M614.1596385776437 783.4676312942681 Q633.1978247904214 695.5352571142221 637.0054620329769 607.6028829341761" stroke="#00000a" stroke-width="4.084994574097217" fill="none" stroke-linecap="round"/><path d="M637.0054620329769 607.6028829341761 Q686.8671942595083 587.6028829341761 697.1799293801141 607.6028829341761" stroke="#000224" stroke-width="2.5012118086454485" fill="none" stroke-linecap="round" opacity="0.6"/><path d="M637.0054620329769 607.6028829341761 Q668.7619821076629 592.4339107833025 662.6895697038304 617.2649386324288" stroke="#000224" stroke-width="2.6125327406014627" fill="none" stroke-linecap="round" opacity="0.6"/><path d="M637.0054620329769 607.6028829341761 Q635.8367635001252 594.8405399231784 625.9924755155499 622.0781969121807" stroke="#000224" stroke-width="2.5755054132490196" fill="none" stroke-linecap="round" opacity="0.6"/><path d="M637.0054620329769 607.6028829341761 Q615.6854643696166 591.5957859320763 581.7298053024598 615.5886889299765" stroke="#000224" stroke-width="3.0210953007966967" fill="none" stroke-linecap="round" opacity="0.6"/><path d="M637.0054620329769 607.6028829341761 Q616.970806100036 584.1991938641672 589.8865741586241 600.7955047941583" stroke="#000224" stroke-width="3.140635587074942" fill="none" stroke-linecap="round" opacity="0.6"/><path d="M637.0054620329769 607.6028829341761 Q640.8116249446297 578.3962716210734 622.9964690098953 589.1896603079707" stroke="#000224" stroke-width="3.777096675656991" fill="none" stroke-linecap="round" opacity="0.6"/><rect x="0" y="1000" width="1920" height="80" fill="#000f31" opacity="0.8"/><line x1="0" y1="1040" x2="1920" y2="1040" stroke="#457b9d" stroke-opacity="0.15" stroke-width="2" stroke-dasharray="30,20"/><rect x="0" y="930" width="1920" height="150" fill="url(#glow42)"/><rect x="0" y="980" width="1920" height="100" fill="#457b9d" opacity="0.04"/><rect x="852.0004098610954" y="1035.2839820541637" width="83.0903749407945" height="2" fill="#e63946" opacity="0.03819424349306949" rx="1"/><rect x="1267.769489881529" y="1010.3843328567185" width="82.56556470472495" height="2" fill="#e63946" opacity="0.03635029860221555" rx="1"/><rect x="10.392833950555147" y="1019.5942218973288" width="91.00688262633209" height="2" fill="#e63946" opacity="0.0352853674477165" rx="1"/><rect x="36.39085740698289" y="1016.8674673551851" width="32.51104174007453" height="2" fill="#e63946" opacity="0.04596188455493233" rx="1"/><rect x="82.56217004790953" y="1008.1955700293639" width="65.95062640634147" height="2" fill="#e63946" opacity="0.04798877802397795" rx="1"/><rect x="1360.0850136764548" y="1037.2400006645453" width="41.51894928457191" height="2" fill="#e63946" opacity="0.03115121876149234" rx="1"/><rect x="653.1917977363784" y="1028.0686186179678" width="54.99756044126059" height="2" fill="#e63946" opacity="0.04463722853563661" rx="1"/><rect x="1566.5667789351585" y="1020.7443328389768" width="28.430268198351904" height="2" fill="#e63946" opacity="0.02797626515104814" rx="1"/><rect x="1698.5922002276855" y="1027.9468385474634" width="105.8494484298512" height="2" fill="#e63946" opacity="0.058114089536972835" rx="1"/><rect x="334.5194038037489" y="1045.1231173717238" width="86.13499561001895" height="2" fill="#e63946" opacity="0.04448263151209863" rx="1"/><rect x="1805.4301576049602" y="1009.7428722888563" width="60.52644482360371" height="2" fill="#e63946" opacity="0.03504323643051163" rx="1"/><rect x="1731.415805474719" y="1002.0868597137944" width="77.33211677459352" height="2" fill="#e63946" opacity="0.026953311433771932" rx="1"/><rect x="1646.301916773967" y="1031.3643429361666" width="29.499727098620433" height="2" fill="#e63946" opacity="0.041380268144742646" rx="1"/><rect x="1148.349296270951" y="1040.50381097023" width="117.61223732438224" height="2" fill="#e63946" opacity="0.04103466059571008" rx="1"/><rect x="1006.819541539722" y="1005.2786523721364" width="110.0792417559026" height="2" fill="#e63946" opacity="0.055371299450139355" rx="1"/><rect x="432.4124440067477" y="1042.1962761139023" width="112.01200443599653" height="2" fill="#e63946" opacity="0.035519692435748804" rx="1"/><rect x="1029.4831634474647" y="1022.3096867702691" width="64.06510594861236" height="2" fill="#e63946" opacity="0.03297939961147015" rx="1"/><rect x="645.1905053866074" y="1052.8769079905182" width="84.4931125139103" height="2" fill="#e63946" opacity="0.054863363670851886" rx="1"/><rect x="457.58475165292265" y="1031.0024555379064" width="78.97504230006017" height="2" fill="#e63946" opacity="0.039699650467303504" rx="1"/><rect x="1399.379064170499" y="1059.8253466607596" width="77.16654147421161" height="2" fill="#e63946" opacity="0.036346683934411664" rx="1"/><rect x="425.6428774692218" y="1009.2735506150111" width="62.90099131010962" height="2" fill="#e63946" opacity="0.02169262879567515" rx="1"/><rect x="92.87719579713354" y="1045.9431699490974" width="32.12087425219847" height="2" fill="#e63946" opacity="0.03355864402222416" rx="1"/><rect x="1011.8391379089651" y="1059.8224169760529" width="65.14169968784361" height="2" fill="#e63946" opacity="0.035162897169395094" rx="1"/><rect x="1393.8135828342786" y="1044.962366243117" width="63.8605794552389" height="2" fill="#e63946" opacity="0.033941236504805565" rx="1"/><rect x="559.7196048311237" y="1006.7670026670133" width="78.42492151037439" height="2" fill="#e63946" opacity="0.030558261100798442" rx="1"/><rect x="1621.2967800398583" y="1056.897680176631" width="57.78518606857052" height="2" fill="#e63946" opacity="0.024718080480750203" rx="1"/><rect x="83.8686454491384" y="1003.9266576766797" width="95.23292241972706" height="2" fill="#e63946" opacity="0.04300419696210981" rx="1"/><rect x="1189.6932907192254" y="1050.5643469399224" width="107.60555584160741" height="2" fill="#e63946" opacity="0.027589888537207126" rx="1"/><rect x="421.54815147201253" y="1025.0480215682294" width="117.20501503842068" height="2" fill="#e63946" opacity="0.0380409373850657" rx="1"/><rect x="40.21081880671224" y="1022.9692919512673" width="59.4831635848347" height="2" fill="#e63946" opacity="0.022099392302823113" rx="1"/><text x="1900" y="1060" font-family="Arial, sans-serif" font-size="11" fill="#fff" opacity="0.08" text-anchor="end" letter-spacing="2">GTA 6 REWARDS · WALLPAPER 043</text>
</svg>