<?xml version="1.0" encoding="UTF-8"?>
<svg xmlns="http://www.w3.org/2000/svg" width="1920" height="1080" viewBox="0 0 1920 1080">
<defs>
    <linearGradient id="bg12" x1="0%" y1="0%" x2="0%" y2="100%">
      <stop offset="0%" stop-color="#3a0ca3"/>
      <stop offset="50%" stop-color="#070070"/>
      <stop offset="100%" stop-color="#3a0ca3"/>
    </linearGradient>
    <linearGradient id="sun12" x1="0%" y1="0%" x2="100%" y2="100%">
      <stop offset="0%" stop-color="#f72585"/>
      <stop offset="100%" stop-color="#b5179e"/>
    </linearGradient>
    <radialGradient id="glow12" cx="50%" cy="70%" r="50%">
      <stop offset="0%" stop-color="#f72585" stop-opacity="0.3"/>
      <stop offset="100%" stop-color="#3a0ca3" stop-opacity="0"/>
    </radialGradient>
  </defs><rect width="1920" height="1080" fill="url(#bg12)"/><circle cx="390.80101067451784" cy="432.0644266512395" r="882.4081321671624" fill="#f72585" opacity="0.06527715893818"/><circle cx="590.8010106745178" cy="332.0644266512395" r="402.7375616139587" fill="#b5179e" opacity="0.10568030345618733"/><line x1="0" y1="980" x2="1920" y2="980" stroke="#b5179e" stroke-opacity="0.05" stroke-width="2"/><line x1="0" y1="935" x2="1920" y2="935" stroke="#b5179e" stroke-opacity="0.049" stroke-width="0.5"/><line x1="0" y1="890" x2="1920" y2="890" stroke="#b5179e" stroke-opacity="0.048" stroke-width="0.5"/><line x1="0" y1="845" x2="1920" y2="845" stroke="#b5179e" stroke-opacity="0.047" stroke-width="0.5"/><line x1="0" y1="800" x2="1920" y2="800" stroke="#b5179e" stroke-opacity="0.046" stroke-width="0.5"/><line x1="0" y1="755" x2="1920" y2="755" stroke="#b5179e" stroke-opacity="0.045" stroke-width="0.5"/><line x1="0" y1="710" x2="1920" y2="710" stroke="#b5179e" stroke-opacity="0.044" stroke-width="0.5"/><line x1="0" y1="665" x2="1920" y2="665" stroke="#b5179e" stroke-opacity="0.043" stroke-width="0.5"/><line x1="0" y1="620" x2="1920" y2="620" stroke="#b5179e" stroke-opacity="0.041999999999999996" stroke-width="0.5"/><line x1="0" y1="575" x2="1920" y2="575" stroke="#b5179e" stroke-opacity="0.041" stroke-width="0.5"/><line x1="0" y1="530" x2="1920" y2="530" stroke="#b5179e" stroke-opacity="0.04" stroke-width="0.5"/><line x1="0" y1="485" x2="1920" y2="485" stroke="#b5179e" stroke-opacity="0.039" stroke-width="0.5"/><line x1="0" y1="440" x2="1920" y2="440" stroke="#b5179e" stroke-opacity="0.038" stroke-width="0.5"/><line x1="0" y1="395" x2="1920" y2="395" stroke="#b5179e" stroke-opacity="0.037" stroke-width="0.5"/><line x1="0" y1="350" x2="1920" y2="350" stroke="#b5179e" stroke-opacity="0.036" stroke-width="0.5"/><line x1="0" y1="305" x2="1920" y2="305" stroke="#b5179e" stroke-opacity="0.034999999999999996" stroke-width="0.5"/><line x1="0" y1="260" x2="1920" y2="260" stroke="#b5179e" stroke-opacity="0.033999999999999996" stroke-width="0.5"/><line x1="0" y1="215" x2="1920" y2="215" stroke="#b5179e" stroke-opacity="0.033" stroke-width="0.5"/><line x1="0" y1="170" x2="1920" y2="170" stroke="#b5179e" stroke-opacity="0.032" stroke-width="0.5"/><line x1="0" y1="125" x2="1920" y2="125" stroke="#b5179e" stroke-opacity="0.031" stroke-width="0.5"/><line x1="560" y1="1080" x2="860" y2="580" stroke="#f72585" stroke-opacity="0.04" stroke-width="1"/><line x1="640" y1="1080" x2="880" y2="590" stroke="#f72585" stroke-opacity="0.04" stroke-width="1"/><line x1="720" y1="1080" x2="900" y2="600" stroke="#f72585" stroke-opacity="0.04" stroke-width="1"/><line x1="800" y1="1080" x2="920" y2="610" stroke="#f72585" stroke-opacity="0.04" stroke-width="1"/><line x1="880" y1="1080" x2="940" y2="620" stroke="#f72585" stroke-opacity="0.04" stroke-width="1"/><line x1="960" y1="1080" x2="960" y2="630" stroke="#f72585" stroke-opacity="0.04" stroke-width="1"/><line x1="1040" y1="1080" x2="980" y2="620" stroke="#f72585" stroke-opacity="0.04" stroke-width="1"/><line x1="1120" y1="1080" x2="1000" y2="610" stroke="#f72585" stroke-opacity="0.04" stroke-width="1"/><line x1="1200" y1="1080" x2="1020" y2="600" stroke="#f72585" stroke-opacity="0.04" stroke-width="1"/><line x1="1280" y1="1080" x2="1040" y2="590" stroke="#f72585" stroke-opacity="0.04" stroke-width="1"/><line x1="1360" y1="1080" x2="1060" y2="580" stroke="#f72585" stroke-opacity="0.04" stroke-width="1"/><circle cx="965.7710760519307" cy="370.9407227861092" r="85.60521255843463" fill="url(#sun12)" opacity="0.6091319575694231"/><circle cx="965.7710760519307" cy="370.9407227861092" r="80.60521255843463" fill="#3a0ca3" opacity="0.3"/><pattern id="scan12" width="1920" height="4" patternUnits="userSpaceOnUse">
      <line x1="0" y1="0" x2="1920" y2="0" stroke="#000" stroke-opacity="0.05" stroke-width="1"/>
    </pattern>
    <rect width="1920" height="1080" fill="url(#scan12)"/><circle cx="989.3429828503502" cy="323.8793789231869" r="1.478694076295638" fill="#fff" opacity="0.5188206952807541"/><circle cx="1532.2600748232242" cy="430.91055016566776" r="0.8614511383607637" fill="#fff" opacity="0.38293150350985383"/><circle cx="1712.1367746107599" cy="167.5028343031888" r="1.143228328354477" fill="#fff" opacity="0.3411852429483983"/><circle cx="253.30792850193285" cy="172.76530857681422" r="0.5813354437894503" fill="#fff" opacity="0.3632947856009227"/><circle cx="570.6473396557028" cy="139.99369644280375" r="0.7550856158498408" fill="#fff" opacity="0.5641145237172289"/><circle cx="1187.9327504122473" cy="121.45527989264934" r="1.296689536607985" fill="#fff" opacity="0.4074632301012667"/><circle cx="471.14821772816316" cy="172.6295397497317" r="1.629793112312861" fill="#fff" opacity="0.3025299224775587"/><circle cx="30.7484883141584" cy="247.9712530169569" r="1.2660770496041693" fill="#fff" opacity="0.28973238535451995"/><circle cx="194.8207708156716" cy="305.29319417506764" r="1.0607633455797945" fill="#fff" opacity="0.2887384985314539"/><circle cx="725.8557693860157" cy="178.05362288329135" r="1.7805772196223442" fill="#fff" opacity="0.24215721130421322"/><circle cx="1422.2664216492014" cy="167.54504620459514" r="0.8362242612839267" fill="#fff" opacity="0.4496875631272997"/><circle cx="113.57149022481673" cy="326.9752100498823" r="0.503299036762514" fill="#fff" opacity="0.21791143934659463"/><circle cx="1143.1458224037535" cy="224.4757133835172" r="1.1786056161342668" fill="#fff" opacity="0.4517805630461733"/><circle cx="359.014657521391" cy="19.00593584100854" r="1.3032799550106935" fill="#fff" opacity="0.5376687163341951"/><circle cx="1827.8731834673958" cy="325.04156111298164" r="0.8804984772299645" fill="#fff" opacity="0.5594581189005305"/><circle cx="1516.9251357570583" cy="124.79584324657819" r="1.9304761357909246" fill="#fff" opacity="0.32212197993000086"/><circle cx="1681.6201199036138" cy="61.95725719583157" r="1.8320082394247894" fill="#fff" opacity="0.2407680104581565"/><circle cx="488.3285872285088" cy="417.8757436764137" r="0.8574871316918841" fill="#fff" opacity="0.49538586840391763"/><circle cx="581.8158165975045" cy="222.27617331181565" r="1.0907779472392933" fill="#fff" opacity="0.6486354410761584"/><circle cx="235.81309860474735" cy="410.8761520895353" r="1.3001522062812354" fill="#fff" opacity="0.7404631802673598"/><circle cx="1859.423774317704" cy="46.30296149437851" r="1.2051164272020376" fill="#fff" opacity="0.5086124407846044"/><circle cx="402.34022462795025" cy="369.9490573336252" r="0.8911111565286087" fill="#fff" opacity="0.2322463467326589"/><circle cx="694.1212572283393" cy="257.1718361864732" r="1.7458243368300201" fill="#fff" opacity="0.5065362046720777"/><circle cx="418.999503501458" cy="108.24987404706187" r="0.5622089504176306" fill="#fff" opacity="0.6934144444981157"/><circle cx="206.7959037904618" cy="213.23609933006486" r="1.0581829941501337" fill="#fff" opacity="0.3092520212077657"/><circle cx="1362.4257032765136" cy="103.02270173444941" r="1.0007906258108072" fill="#fff" opacity="0.5777428581793194"/><circle cx="804.6788457419441" cy="329.5393330365278" r="1.0446538801874625" fill="#fff" opacity="0.2818740477044773"/><circle cx="1125.1068514224858" cy="39.31139199233414" r="1.1715015313056067" fill="#fff" opacity="0.5920768673047603"/><circle cx="163.5163960241518" cy="195.59837041133977" r="1.9460169313116968" fill="#fff" opacity="0.3153944903787678"/><circle cx="398.45552319624824" cy="285.35525504065566" r="1.8338783020931013" fill="#fff" opacity="0.48747098978782794"/><circle cx="1703.4614136310902" cy="15.869639534472869" r="0.7139835545592903" fill="#fff" opacity="0.2637827616333456"/><circle cx="154.2316876710932" cy="209.25364768534286" r="0.715137072772518" fill="#fff" opacity="0.5905003384664889"/><circle cx="1311.2908595873255" cy="330.0550187328027" r="1.24540639173831" fill="#fff" opacity="0.2422382895933088"/><circle cx="2.5173027819295655" cy="282.3908514851683" r="1.0723248500312503" fill="#fff" opacity="0.42101678206143356"/><circle cx="1451.704377720995" cy="51.343688127431946" r="0.6612554471151101" fill="#fff" opacity="0.3943347255686146"/><circle cx="761.6541178807743" cy="267.7474670176738" r="0.6267881919925073" fill="#fff" opacity="0.2519960997747248"/><circle cx="845.0730686367193" cy="198.1883968986078" r="1.4895396293116594" fill="#fff" opacity="0.6701058316207738"/><circle cx="1175.4108263308674" cy="250.35438623892944" r="1.4844391678889375" fill="#fff" opacity="0.3141978246425739"/><circle cx="1720.1249911915802" cy="305.4972352128237" r="1.5691714135625334" fill="#fff" opacity="0.4671899588935054"/><circle cx="620.0822591735241" cy="27.35714039470934" r="1.0641420589676458" fill="#fff" opacity="0.2851870084845431"/><circle cx="677.7164623229104" cy="155.59898295523575" r="1.7411805787685282" fill="#fff" opacity="0.4989961727287146"/><circle cx="1366.2112125955082" cy="406.44556376860606" r="1.03160813730946" fill="#fff" opacity="0.4149360024405029"/><circle cx="1531.859128831853" cy="353.0008166285699" r="0.8718653464158683" fill="#fff" opacity="0.20322940605767756"/><circle cx="367.54014694307466" cy="293.08947340144994" r="1.237735368250342" fill="#fff" opacity="0.2788019044508231"/><circle cx="714.1306701475127" cy="284.9160167269679" r="1.2989081317323512" fill="#fff" opacity="0.6633397903440845"/><circle cx="941.8004257189576" cy="290.5157524986462" r="1.8131761370024588" fill="#fff" opacity="0.49362861609403713"/><circle cx="924.7252444095735" cy="188.90998091849266" r="1.2753800429113629" fill="#fff" opacity="0.6718494602646328"/><circle cx="1297.9800683301826" cy="266.9149050477228" r="0.6903352514352499" fill="#fff" opacity="0.39250243245449445"/><circle cx="435.0853792845936" cy="88.02689994685979" r="1.8135750153599248" fill="#fff" opacity="0.3618544784751382"/><rect x="10.8752001637768" y="561.533367485165" width="88.08551813431212" height="279.86347807568114" fill="#200089" opacity="0.6917356640546899" rx="2"/><rect x="49.6635887074898" y="571.533367485165" width="10.508741046886133" height="7.827512992971464" fill="#b5179e" opacity="0.3009337450612648" rx="1"/><rect x="27.642209173911766" y="575.4471239816506" width="10.508741046886133" height="7.827512992971464" fill="#f72585" opacity="0.1504668725306324" rx="1"/><rect x="51.986065302739405" y="664.821193510392" width="5.863787856386925" height="7.962076424146554" fill="#b5179e" opacity="0.5757959403739767" rx="1"/><rect x="29.964685769161367" y="668.8022317224653" width="5.863787856386925" height="7.962076424146554" fill="#f72585" opacity="0.2878979701869884" rx="1"/><rect x="50.64182946031025" y="758.109019535619" width="8.552259541245238" height="7.4660421939254835" fill="#b5179e" opacity="0.20634068448709808" rx="1"/><rect x="28.620449926732213" y="761.8420406325818" width="8.552259541245238" height="7.4660421939254835" fill="#f72585" opacity="0.10317034224354904" rx="1"/><rect x="121.5657344487416" y="736.1946888817928" width="32.218732405970506" height="105.20215667905336" fill="#200089" opacity="0.4002435357776106" rx="2"/><rect x="133.55319572951484" y="746.1946888817928" width="8.243809844423971" height="9.408330697428513" fill="#b5179e" opacity="0.24833537585761756" rx="1"/><rect x="125.49851262802223" y="750.898854230507" width="8.243809844423971" height="9.408330697428513" fill="#f72585" opacity="0.12416768792880878" rx="1"/><rect x="133.48070610744895" y="761.2235684073719" width="8.388789088555797" height="8.587064760408147" fill="#b5179e" opacity="0.10084210664519158" rx="1"/><rect x="125.42602300595631" y="765.5171007875759" width="8.388789088555797" height="8.587064760408147" fill="#f72585" opacity="0.05042105332259579" rx="1"/><rect x="132.9462447664575" y="776.2524479329509" width="9.457711770538639" height="8.812772572695458" fill="#b5179e" opacity="0.30286905153255655" rx="1"/><rect x="124.89156166496488" y="780.6588342192986" width="9.457711770538639" height="8.812772572695458" fill="#f72585" opacity="0.15143452576627828" rx="1"/><rect x="135.33171125788513" y="791.28132745853" width="4.686778787683411" height="9.089200763751101" fill="#b5179e" opacity="0.45316675327559164" rx="1"/><rect x="127.2770281563925" y="795.8259278404055" width="4.686778787683411" height="9.089200763751101" fill="#f72585" opacity="0.22658337663779582" rx="1"/><rect x="133.05784502673376" y="806.310206984109" width="9.23451124998613" height="7.402190776868302" fill="#b5179e" opacity="0.4960690053403538" rx="1"/><rect x="125.00316192524114" y="810.0113023725431" width="9.23451124998613" height="7.402190776868302" fill="#f72585" opacity="0.2480345026701769" rx="1"/><rect x="133.5022197464719" y="821.3390865096881" width="8.345761810509899" height="8.41835558470766" fill="#b5179e" opacity="0.41193127013089403" rx="1"/><rect x="125.44753664497927" y="825.5482643020418" width="8.345761810509899" height="8.41835558470766" fill="#f72585" opacity="0.20596563506544702" rx="1"/><rect x="134.2432032719355" y="836.367966035267" width="6.86379475958268" height="8.199403419671441" fill="#b5179e" opacity="0.31716259459898866" rx="1"/><rect x="126.18852017044287" y="840.4676677451027" width="6.86379475958268" height="8.199403419671441" fill="#f72585" opacity="0.15858129729949433" rx="1"/><rect x="252.0898423441895" y="663.0677435228293" width="56.37184790018291" height="178.3291020380168" fill="#3a0ca3" opacity="0.5071670262858196" rx="2"/><rect x="275.07981120144944" y="673.0677435228293" width="10.391910185663008" height="6.9513735717514935" fill="#b5179e" opacity="0.5831944742433715" rx="1"/><rect x="260.9868492264037" y="676.5434303087051" width="10.391910185663008" height="6.9513735717514935" fill="#f72585" opacity="0.2915972371216857" rx="1"/><rect x="276.9070943784684" y="695.3588812775814" width="6.737343831625148" height="8.005059500691727" fill="#b5179e" opacity="0.5067236836782479" rx="1"/><rect x="262.81413240342266" y="699.3614110279273" width="6.737343831625148" height="8.005059500691727" fill="#f72585" opacity="0.25336184183912397" rx="1"/><rect x="276.2084187383783" y="717.6500190323336" width="8.13469511180527" height="9.584409463122583" fill="#b5179e" opacity="0.5985287985761019" rx="1"/><rect x="262.1154567633326" y="722.4422237638948" width="8.13469511180527" height="9.584409463122583" fill="#f72585" opacity="0.29926439928805093" rx="1"/><rect x="276.0535659066061" y="739.9411567870857" width="8.444400775349791" height="8.643636629600925" fill="#b5179e" opacity="0.3219687958066279" rx="1"/><rect x="261.96060393156034" y="744.2629751018861" width="8.444400775349791" height="8.643636629600925" fill="#f72585" opacity="0.16098439790331395" rx="1"/><rect x="275.8292033273795" y="762.2322945418377" width="8.89312593380295" height="8.951024084107724" fill="#b5179e" opacity="0.5903568004934017" rx="1"/><rect x="261.73624135233376" y="766.7078065838916" width="8.89312593380295" height="8.951024084107724" fill="#f72585" opacity="0.29517840024670083" rx="1"/><rect x="277.4252543417796" y="784.5234322965898" width="5.70102390500275" height="6.363997274163179" fill="#b5179e" opacity="0.4041711949753042" rx="1"/><rect x="263.33229236673384" y="787.7054309336714" width="5.70102390500275" height="6.363997274163179" fill="#f72585" opacity="0.2020855974876521" rx="1"/><rect x="277.02024054015527" y="806.8145700513419" width="6.511051508251357" height="8.496066202059403" fill="#b5179e" opacity="0.36534561050714587" rx="1"/><rect x="262.92727856510953" y="811.0626031523716" width="6.511051508251357" height="8.496066202059403" fill="#f72585" opacity="0.18267280525357293" rx="1"/><rect x="276.350637258345" y="829.1057078060941" width="7.850258071872" height="9.510548403372649" fill="#b5179e" opacity="0.11844242879153286" rx="1"/><rect x="262.25767528329925" y="833.8609820077804" width="7.850258071872" height="9.510548403372649" fill="#f72585" opacity="0.05922121439576643" rx="1"/><rect x="361.95404266751234" y="739.588203802609" width="39.79851820734295" height="101.80864175823719" fill="#200089" opacity="0.498062679823037" rx="2"/><rect x="379.01227244269387" y="749.588203802609" width="5.682058656979832" height="9.62006080514287" fill="#b5179e" opacity="0.27204802301061526" rx="1"/><rect x="369.06264289085817" y="754.3982342051804" width="5.682058656979832" height="9.62006080514287" fill="#f72585" opacity="0.13602401150530763" rx="1"/><rect x="376.0810922461285" y="766.5563107623152" width="11.544419050110601" height="6.078387371282649" fill="#b5179e" opacity="0.49319792562005993" rx="1"/><rect x="366.1314626942928" y="769.5955044479565" width="11.544419050110601" height="6.078387371282649" fill="#f72585" opacity="0.24659896281002996" rx="1"/><rect x="376.3958218492092" y="783.5244177220213" width="10.914959843949173" height="6.864248591676413" fill="#b5179e" opacity="0.42411754336769636" rx="1"/><rect x="366.4461922973735" y="786.9565420178595" width="10.914959843949173" height="6.864248591676413" fill="#f72585" opacity="0.21205877168384818" rx="1"/><rect x="379.2688606372729" y="800.4925246817276" width="5.168882267821786" height="7.791739559218227" fill="#b5179e" opacity="0.5256723250555043" rx="1"/><rect x="369.3192310854372" y="804.3883944613367" width="5.168882267821786" height="7.791739559218227" fill="#f72585" opacity="0.26283616252775216" rx="1"/><rect x="378.68299153346635" y="817.4606316414338" width="6.340620475434843" height="6.338040537279574" fill="#b5179e" opacity="0.2512566963562874" rx="1"/><rect x="368.73336198163065" y="820.6296519100736" width="6.340620475434843" height="6.338040537279574" fill="#f72585" opacity="0.1256283481781437" rx="1"/><rect x="376.26391385245694" y="834.4287386011399" width="11.178775837453728" height="7.084765667348347" fill="#b5179e" opacity="0.2590619339046678" rx="1"/><rect x="366.31428430062124" y="837.9711214348141" width="11.178775837453728" height="7.084765667348347" fill="#f72585" opacity="0.1295309669523339" rx="1"/><rect x="480.55869056623396" y="704.4878457217683" width="81.90633709354009" height="136.90899983907792" fill="#3a0ca3" opacity="0.558422384378133" rx="2"/><rect x="517.8756486058411" y="714.4878457217683" width="7.272421014325792" height="9.437386600169676" fill="#b5179e" opacity="0.2743746167454809" rx="1"/><rect x="497.3990643324561" y="719.2065390218531" width="7.272421014325792" height="9.437386600169676" fill="#f72585" opacity="0.13718730837274046" rx="1"/><rect x="517.4826913281536" y="734.046274270208" width="8.05833556970077" height="7.132453913132766" fill="#b5179e" opacity="0.16915121014908685" rx="1"/><rect x="497.0061070547686" y="737.6125012267744" width="8.05833556970077" height="7.132453913132766" fill="#f72585" opacity="0.08457560507454343" rx="1"/><rect x="519.3586330111973" y="753.6047028186476" width="4.306452203613346" height="9.608708601353856" fill="#b5179e" opacity="0.3777672215080278" rx="1"/><rect x="498.8820487378123" y="758.4090571193245" width="4.306452203613346" height="9.608708601353856" fill="#f72585" opacity="0.1888836107540139" rx="1"/><rect x="516.7337547353779" y="773.1631313670874" width="9.556208755252001" height="6.351763500913923" fill="#b5179e" opacity="0.28853684123338597" rx="1"/><rect x="496.257170461993" y="776.3390131175444" width="9.556208755252001" height="6.351763500913923" fill="#f72585" opacity="0.14426842061669298" rx="1"/><rect x="515.8176124484319" y="792.7215599155271" width="11.388493329144197" height="7.486334112818897" fill="#b5179e" opacity="0.31700144273159125" rx="1"/><rect x="495.34102817504686" y="796.4647269719366" width="11.388493329144197" height="7.486334112818897" fill="#f72585" opacity="0.15850072136579563" rx="1"/><rect x="518.5774672370351" y="812.2799884639668" width="5.868783751937743" height="8.936405727392156" fill="#b5179e" opacity="0.5718833899758484" rx="1"/><rect x="498.1008829636501" y="816.7481913276629" width="5.868783751937743" height="8.936405727392156" fill="#f72585" opacity="0.2859416949879242" rx="1"/><rect x="517.7695272808824" y="831.8384170124065" width="7.484663664243339" height="8.080915338844274" fill="#b5179e" opacity="0.30467845215571077" rx="1"/><rect x="497.2929430074973" y="835.8788746818286" width="7.484663664243339" height="8.080915338844274" fill="#f72585" opacity="0.15233922607785538" rx="1"/><rect x="607.6611537620568" y="473.1392221229941" width="81.09027293303289" height="368.25762343785203" fill="#200089" opacity="0.5915101119297348" rx="2"/><rect x="643.6699798271688" y="483.1392221229941" width="9.072620802808697" height="6.377648323862266" fill="#b5179e" opacity="0.34879800720345183" rx="1"/><rect x="623.3974115939106" y="486.3280462849252" width="9.072620802808697" height="6.377648323862266" fill="#f72585" opacity="0.17439900360172592" rx="1"/><rect x="643.9233578580719" y="544.5154926959694" width="8.565864741002644" height="9.927668221278038" fill="#b5179e" opacity="0.2784480330949761" rx="1"/><rect x="623.6507896248137" y="549.4793268066085" width="8.565864741002644" height="9.927668221278038" fill="#f72585" opacity="0.13922401654748806" rx="1"/><rect x="645.3041438200287" y="605.8917632689448" width="5.804292817088843" height="6.617038923459369" fill="#b5179e" opacity="0.417261803503442" rx="1"/><rect x="625.0315755867705" y="609.2002827306745" width="5.804292817088843" height="6.617038923459369" fill="#f72585" opacity="0.208630901751721" rx="1"/><rect x="645.3455735576212" y="667.2680338419201" width="5.721433341903946" height="8.194001457233448" fill="#b5179e" opacity="0.43827113635797776" rx="1"/><rect x="625.073005324363" y="671.3650345705369" width="5.721433341903946" height="8.194001457233448" fill="#f72585" opacity="0.21913556817898888" rx="1"/><rect x="645.9170941992004" y="728.6443044148955" width="4.5783920587455835" height="7.946125536678854" fill="#b5179e" opacity="0.32152566600626464" rx="1"/><rect x="625.6445259659422" y="732.6173671832349" width="4.5783920587455835" height="7.946125536678854" fill="#f72585" opacity="0.16076283300313232" rx="1"/><rect x="642.5124326724355" y="790.0205749878708" width="11.387715112275377" height="9.335715335639128" fill="#b5179e" opacity="0.3989916025658584" rx="1"/><rect x="622.2398644391773" y="794.6884326556903" width="11.387715112275377" height="9.335715335639128" fill="#f72585" opacity="0.1994958012829292" rx="1"/><rect x="729.4639404745456" y="633.6833955332831" width="79.58790410067604" height="207.713450027563" fill="#200089" opacity="0.4003738017287976" rx="2"/><rect x="763.5228116588022" y="643.6833955332831" width="11.470161732162852" height="9.4643406009917" fill="#b5179e" opacity="0.205694452441692" rx="1"/><rect x="743.6258356336332" y="648.4155658337789" width="11.470161732162852" height="9.4643406009917" fill="#f72585" opacity="0.102847226220846" rx="1"/><rect x="763.7351081298513" y="678.3023038712104" width="11.045568790064559" height="6.102102591679921" fill="#b5179e" opacity="0.2959165367753982" rx="1"/><rect x="743.8381321046822" y="681.3533551670504" width="11.045568790064559" height="6.102102591679921" fill="#f72585" opacity="0.1479582683876991" rx="1"/><rect x="764.3429391992611" y="712.9212122091375" width="9.829906651244944" height="9.330411532737877" fill="#b5179e" opacity="0.17544601174896723" rx="1"/><rect x="744.4459631740921" y="717.5864179755064" width="9.829906651244944" height="9.330411532737877" fill="#f72585" opacity="0.08772300587448362" rx="1"/><rect x="766.6355973723428" y="747.5401205470646" width="5.244590305081706" height="7.90195363152352" fill="#b5179e" opacity="0.401672034734318" rx="1"/><rect x="746.7386213471738" y="751.4910973628264" width="5.244590305081706" height="7.90195363152352" fill="#f72585" opacity="0.200836017367159" rx="1"/><rect x="766.6373881324281" y="782.1590288849918" width="5.241008784910899" height="6.050490940001442" fill="#b5179e" opacity="0.2664572975520178" rx="1"/><rect x="746.7404121072591" y="785.1842743549926" width="5.241008784910899" height="6.050490940001442" fill="#f72585" opacity="0.1332286487760089" rx="1"/><rect x="763.9035445928814" y="816.777937222919" width="10.708695864004245" height="7.696181847177488" fill="#b5179e" opacity="0.35236755242859186" rx="1"/><rect x="744.0065685677124" y="820.6260281465078" width="10.708695864004245" height="7.696181847177488" fill="#f72585" opacity="0.17618377621429593" rx="1"/><rect x="860.9400208995072" y="747.4924069474201" width="74.73483705072078" height="93.90443861342604" fill="#3a0ca3" opacity="0.608420625610375" rx="2"/><rect x="894.4719574967102" y="757.4924069474201" width="7.670963856314999" height="8.636509586739471" fill="#b5179e" opacity="0.350773800595378" rx="1"/><rect x="875.7882482340299" y="761.8106617407899" width="7.670963856314999" height="8.636509586739471" fill="#f72585" opacity="0.175386900297689" rx="1"/><rect x="892.5220274151121" y="770.9073267493382" width="11.570824019510956" height="8.559003178626067" fill="#b5179e" opacity="0.44457063461760304" rx="1"/><rect x="873.8383181524318" y="775.1868283386511" width="11.570824019510956" height="8.559003178626067" fill="#f72585" opacity="0.22228531730880152" rx="1"/><rect x="893.5072442657564" y="784.3222465512562" width="9.600390318222434" height="9.899793937778984" fill="#b5179e" opacity="0.11842274354268395" rx="1"/><rect x="874.8235350030761" y="789.2721435201456" width="9.600390318222434" height="9.899793937778984" fill="#f72585" opacity="0.059211371771341975" rx="1"/><rect x="895.9279094093778" y="797.7371663531742" width="4.759060030979817" height="8.033135385725911" fill="#b5179e" opacity="0.13503406933393192" rx="1"/><rect x="877.2442001466975" y="801.7537340460372" width="4.759060030979817" height="8.033135385725911" fill="#f72585" opacity="0.06751703466696596" rx="1"/><rect x="894.5870189009205" y="811.1520861550922" width="7.440841047894406" height="9.916552946883382" fill="#b5179e" opacity="0.20470482325290906" rx="1"/><rect x="875.9033096382402" y="816.110362628534" width="7.440841047894406" height="9.916552946883382" fill="#f72585" opacity="0.10235241162645453" rx="1"/><rect x="894.2539796189532" y="824.5670059570102" width="8.106919611829081" height="8.734556361738257" fill="#b5179e" opacity="0.2646671152358565" rx="1"/><rect x="875.5702703562729" y="828.9342841378793" width="8.106919611829081" height="8.734556361738257" fill="#f72585" opacity="0.13233355761792825" rx="1"/><rect x="893.6243700842896" y="837.9819257589281" width="9.366138681156126" height="7.2636433125621735" fill="#b5179e" opacity="0.3066781968359552" rx="1"/><rect x="874.9406608216093" y="841.6137474152092" width="9.366138681156126" height="7.2636433125621735" fill="#f72585" opacity="0.1533390984179776" rx="1"/><rect x="986.7955176780921" y="605.3836581309754" width="79.62717922628559" height="236.01318742987075" fill="#200089" opacity="0.6115826751830947" rx="2"/><rect x="1021.7310459811081" y="615.3836581309754" width="9.756122620253851" height="8.99999292544089" fill="#b5179e" opacity="0.3067498967998544" rx="1"/><rect x="1001.8242511745366" y="619.8836545936958" width="9.756122620253851" height="8.99999292544089" fill="#f72585" opacity="0.1533749483999272" rx="1"/><rect x="1023.811774477086" y="649.0998277638141" width="5.594665628297875" height="7.346332260720975" fill="#b5179e" opacity="0.10458208413435661" rx="1"/><rect x="1003.9049796705145" y="652.7729938941746" width="5.594665628297875" height="7.346332260720975" fill="#f72585" opacity="0.05229104206717831" rx="1"/><rect x="1023.6402921934241" y="682.8159973966527" width="5.9376301956217805" height="9.659509826372263" fill="#b5179e" opacity="0.28086124634855925" rx="1"/><rect x="1003.7334973868526" y="687.6457523098388" width="5.9376301956217805" height="9.659509826372263" fill="#f72585" opacity="0.14043062317427962" rx="1"/><rect x="1022.2297737610596" y="716.5321670294915" width="8.758667060350689" height="7.284467255995718" fill="#b5179e" opacity="0.5599796964228106" rx="1"/><rect x="1002.3229789544881" y="720.1744006574893" width="8.758667060350689" height="7.284467255995718" fill="#f72585" opacity="0.2799898482114053" rx="1"/><rect x="1021.3204730153831" y="750.2483366623301" width="10.577268551703838" height="7.038517103772265" fill="#b5179e" opacity="0.40177050160750993" rx="1"/><rect x="1001.4136782088116" y="753.7675952142162" width="10.577268551703838" height="7.038517103772265" fill="#f72585" opacity="0.20088525080375497" rx="1"/><rect x="1024.5510674127265" y="783.9645062951688" width="4.116079757017102" height="6.4132805914649" fill="#b5179e" opacity="0.5774165617947971" rx="1"/><rect x="1004.6442726061549" y="787.1711465909012" width="4.116079757017102" height="6.4132805914649" fill="#f72585" opacity="0.28870828089739853" rx="1"/><rect x="1024.0550822417847" y="817.6806759280075" width="5.108050098900695" height="7.385994559476616" fill="#b5179e" opacity="0.25158940890142445" rx="1"/><rect x="1004.1482874352131" y="821.3736732077458" width="5.108050098900695" height="7.385994559476616" fill="#f72585" opacity="0.12579470445071222" rx="1"/><rect x="1094.6864821167399" y="575.6782281388711" width="39.73618688288522" height="265.71861742197507" fill="#200089" opacity="0.4884349552421912" rx="2"/><rect x="1109.3776690909588" y="585.6782281388711" width="10.353812934447502" height="8.473435181768945" fill="#b5179e" opacity="0.5051643399068071" rx="1"/><rect x="1099.4436223702373" y="589.9149457297556" width="10.353812934447502" height="8.473435181768945" fill="#f72585" opacity="0.25258216995340355" rx="1"/><rect x="1109.7253423255695" y="629.964664375867" width="9.658466465226017" height="7.762672965825226" fill="#b5179e" opacity="0.5702134308103037" rx="1"/><rect x="1099.791295604848" y="633.8460008587796" width="9.658466465226017" height="7.762672965825226" fill="#f72585" opacity="0.28510671540515187" rx="1"/><rect x="1108.8352126893203" y="674.2511006128627" width="11.438725737724155" height="6.301753914985283" fill="#b5179e" opacity="0.2583282610304487" rx="1"/><rect x="1098.901165968599" y="677.4019775703554" width="11.438725737724155" height="6.301753914985283" fill="#f72585" opacity="0.12916413051522435" rx="1"/><rect x="1109.6498365296634" y="718.5375368498586" width="9.809478057038383" height="9.420749979890125" fill="#b5179e" opacity="0.2555761157431584" rx="1"/><rect x="1099.715789808942" y="723.2479118398037" width="9.809478057038383" height="9.420749979890125" fill="#f72585" opacity="0.1277880578715792" rx="1"/><rect x="1110.9000860852889" y="762.8239730868545" width="7.308978945787293" height="9.761341502834423" fill="#b5179e" opacity="0.32785014839094373" rx="1"/><rect x="1100.9660393645675" y="767.7046438382717" width="7.308978945787293" height="9.761341502834423" fill="#f72585" opacity="0.16392507419547186" rx="1"/><rect x="1110.364913729803" y="807.1104093238503" width="8.379323656759066" height="6.459311476084244" fill="#b5179e" opacity="0.3322340399800413" rx="1"/><rect x="1100.4308670090816" y="810.3400650618923" width="8.379323656759066" height="6.459311476084244" fill="#f72585" opacity="0.16611701999002065" rx="1"/><rect x="1214.2623131615721" y="551.6921311737253" width="41.104194701440676" height="289.7047143871208" fill="#3a0ca3" opacity="0.5493830226709562" rx="2"/><rect x="1231.6437009784029" y="561.6921311737253" width="6.341419067778955" height="7.562709323494395" fill="#b5179e" opacity="0.12211173100446159" rx="1"/><rect x="1221.3676523030429" y="565.4734858354725" width="6.341419067778955" height="7.562709323494395" fill="#f72585" opacity="0.06105586550223079" rx="1"/><rect x="1229.3720161626982" y="609.9762502382455" width="10.884788699188453" height="9.989789957178242" fill="#b5179e" opacity="0.31576803112769686" rx="1"/><rect x="1219.0959674873382" y="614.9711452168347" width="10.884788699188453" height="9.989789957178242" fill="#f72585" opacity="0.15788401556384843" rx="1"/><rect x="1229.8613194555187" y="658.2603693027656" width="9.906182113547386" height="9.627504650416668" fill="#b5179e" opacity="0.3365551286462124" rx="1"/><rect x="1219.5852707801587" y="663.074121627974" width="9.906182113547386" height="9.627504650416668" fill="#f72585" opacity="0.1682775643231062" rx="1"/><rect x="1231.9052559395566" y="706.5444883672858" width="5.818309145471619" height="8.301166919595833" fill="#b5179e" opacity="0.45966035813550943" rx="1"/><rect x="1221.6292072641966" y="710.6950718270837" width="5.818309145471619" height="8.301166919595833" fill="#f72585" opacity="0.22983017906775471" rx="1"/><rect x="1230.364664440361" y="754.8286074318058" width="8.899492143862762" height="8.134724846606778" fill="#b5179e" opacity="0.464669179279513" rx="1"/><rect x="1220.088615765001" y="758.8959698551092" width="8.899492143862762" height="8.134724846606778" fill="#f72585" opacity="0.2323345896397565" rx="1"/><rect x="1231.166190563274" y="803.112726496326" width="7.296439898036523" height="7.520598620530357" fill="#b5179e" opacity="0.12295537316774842" rx="1"/><rect x="1220.890141887914" y="806.8730258065912" width="7.296439898036523" height="7.520598620530357" fill="#f72585" opacity="0.06147768658387421" rx="1"/><rect x="1348.0515682413363" y="530.5090158317493" width="45.90262275093762" height="310.8878297290969" fill="#200089" opacity="0.568940305632758" rx="2"/><rect x="1367.8478192637785" y="540.5090158317493" width="6.310120706053013" height="8.09698540579923" fill="#b5179e" opacity="0.16940961211673208" rx="1"/><rect x="1356.3721635760442" y="544.5575085346488" width="6.310120706053013" height="8.09698540579923" fill="#f72585" opacity="0.08470480605836604" rx="1"/><rect x="1368.313541808937" y="602.6865817775687" width="5.378675615735975" height="6.091460857561664" fill="#b5179e" opacity="0.35537378300339306" rx="1"/><rect x="1356.8378861212027" y="605.7323122063495" width="5.378675615735975" height="6.091460857561664" fill="#f72585" opacity="0.17768689150169653" rx="1"/><rect x="1366.353522355052" y="664.864147723388" width="9.298714523506051" height="8.842990704542721" fill="#b5179e" opacity="0.218785184370071" rx="1"/><rect x="1354.8778666673177" y="669.2856430756593" width="9.298714523506051" height="8.842990704542721" fill="#f72585" opacity="0.1093925921850355" rx="1"/><rect x="1366.5267482952975" y="727.0417136692074" width="8.952262643015073" height="8.257191177983113" fill="#b5179e" opacity="0.39362719675843305" rx="1"/><rect x="1355.051092607563" y="731.1703092581989" width="8.952262643015073" height="8.257191177983113" fill="#f72585" opacity="0.19681359837921653" rx="1"/><rect x="1367.237624469734" y="789.2192796150268" width="7.530510294141832" height="7.891926894404908" fill="#b5179e" opacity="0.4698101610340667" rx="1"/><rect x="1355.7619687819997" y="793.1652430622293" width="7.530510294141832" height="7.891926894404908" fill="#f72585" opacity="0.23490508051703335" rx="1"/><rect x="1446.4072964215668" y="546.4837662285389" width="77.25950258021697" height="294.91307933230723" fill="#3a0ca3" opacity="0.5557976645314595" rx="2"/><rect x="1479.1417460753912" y="556.4837662285389" width="11.79060327256811" height="8.805997060333844" fill="#b5179e" opacity="0.33996720165944827" rx="1"/><rect x="1459.8268704303368" y="560.8867647587058" width="11.79060327256811" height="8.805997060333844" fill="#f72585" opacity="0.16998360082972414" rx="1"/><rect x="1480.7640968514056" y="593.3479011450773" width="8.545901720539177" height="9.999679826199934" fill="#b5179e" opacity="0.5354101531057177" rx="1"/><rect x="1461.4492212063515" y="598.3477410581773" width="8.545901720539177" height="9.999679826199934" fill="#f72585" opacity="0.26770507655285886" rx="1"/><rect x="1482.6573353730275" y="630.2120360616157" width="4.759424677295477" height="8.490472959003055" fill="#b5179e" opacity="0.24163211724758896" rx="1"/><rect x="1463.3424597279732" y="634.4572725411172" width="4.759424677295477" height="8.490472959003055" fill="#f72585" opacity="0.12081605862379448" rx="1"/><rect x="1479.6488843706086" y="667.0761709781541" width="10.776326682133675" height="9.487599344804789" fill="#b5179e" opacity="0.11428597385862051" rx="1"/><rect x="1460.3340087255542" y="671.8199706505565" width="10.776326682133675" height="9.487599344804789" fill="#f72585" opacity="0.057142986929310254" rx="1"/><rect x="1482.176257096505" y="703.9403058946925" width="5.7215812303408935" height="9.04547849182167" fill="#b5179e" opacity="0.1266366580097556" rx="1"/><rect x="1462.8613814514506" y="708.4630451406034" width="5.7215812303408935" height="9.04547849182167" fill="#f72585" opacity="0.0633183290048778" rx="1"/><rect x="1479.9053098361253" y="740.804440811231" width="10.263475751099985" height="9.10286011525962" fill="#b5179e" opacity="0.40430182868249287" rx="1"/><rect x="1460.590434191071" y="745.3558708688607" width="10.263475751099985" height="9.10286011525962" fill="#f72585" opacity="0.20215091434124643" rx="1"/><rect x="1482.0063490404298" y="777.6685757277694" width="6.061397342491289" height="7.35900692673377" fill="#b5179e" opacity="0.5637114135463982" rx="1"/><rect x="1462.6914733953754" y="781.3480791911363" width="6.061397342491289" height="7.35900692673377" fill="#f72585" opacity="0.2818557067731991" rx="1"/><rect x="1481.5612342973616" y="814.5327106443077" width="6.951626828627575" height="6.234698616022873" fill="#b5179e" opacity="0.4355780738255889" rx="1"/><rect x="1462.2463586523072" y="817.6500599523191" width="6.951626828627575" height="6.234698616022873" fill="#f72585" opacity="0.21778903691279444" rx="1"/><rect x="1566.9758989794589" y="630.8464741173309" width="40.42675431129214" height="210.55037144351525" fill="#200089" opacity="0.6386265430223724" rx="2"/><rect x="1583.9741584353555" y="640.8464741173309" width="6.430235399499125" height="7.115397440529288" fill="#b5179e" opacity="0.16546328264881469" rx="1"/><rect x="1573.8674698575323" y="644.4041728375955" width="6.430235399499125" height="7.115397440529288" fill="#f72585" opacity="0.08273164132440734" rx="1"/><rect x="1584.8634022469314" y="675.9382026912501" width="4.651747776347154" height="9.545030966295169" fill="#b5179e" opacity="0.3754850898113765" rx="1"/><rect x="1574.7567136691082" y="680.7107181743977" width="4.651747776347154" height="9.545030966295169" fill="#f72585" opacity="0.18774254490568826" rx="1"/><rect x="1585.1248978399963" y="711.0299312651694" width="4.128756590217528" height="7.993965373838778" fill="#b5179e" opacity="0.25183621578659776" rx="1"/><rect x="1575.018209262173" y="715.0269139520888" width="4.128756590217528" height="7.993965373838778" fill="#f72585" opacity="0.12591810789329888" rx="1"/><rect x="1582.7264801915098" y="746.1216598390886" width="8.925591887190377" height="6.358714708210601" fill="#b5179e" opacity="0.1922615434025092" rx="1"/><rect x="1572.6197916136866" y="749.3010171931938" width="8.925591887190377" height="6.358714708210601" fill="#f72585" opacity="0.0961307717012546" rx="1"/><rect x="1583.9615890628104" y="781.2133884130077" width="6.455374144589383" height="6.5281291530765895" fill="#b5179e" opacity="0.1821593866176343" rx="1"/><rect x="1573.8549004849872" y="784.477452989546" width="6.455374144589383" height="6.5281291530765895" fill="#f72585" opacity="0.09107969330881716" rx="1"/><rect x="1585.0001339265145" y="816.3051169869269" width="4.378284417180876" height="7.5680273914635245" fill="#b5179e" opacity="0.4355174692896002" rx="1"/><rect x="1574.8934453486913" y="820.0891306826587" width="4.378284417180876" height="7.5680273914635245" fill="#f72585" opacity="0.2177587346448001" rx="1"/><rect x="1693.3993136192205" y="670.7468666533816" width="44.62137569082467" height="170.64997890746454" fill="#3a0ca3" opacity="0.48498746819910304" rx="2"/><rect x="1712.1990220614707" y="680.7468666533816" width="7.021958806324275" height="9.398032753588174" fill="#b5179e" opacity="0.16911413047209245" rx="1"/><rect x="1701.0436781387646" y="685.4458830301758" width="7.021958806324275" height="9.398032753588174" fill="#f72585" opacity="0.08455706523604622" rx="1"/><rect x="1710.3249097707042" y="737.6301929558698" width="10.77018338785744" height="8.972537042333869" fill="#b5179e" opacity="0.13307858168452014" rx="1"/><rect x="1699.169565847998" y="742.1164614770368" width="10.77018338785744" height="8.972537042333869" fill="#f72585" opacity="0.06653929084226007" rx="1"/><rect x="1712.1120395234582" y="794.513519258358" width="7.195923882349376" height="7.482996931644855" fill="#b5179e" opacity="0.5126572309557016" rx="1"/><rect x="1700.956695600752" y="798.2550177241804" width="7.195923882349376" height="7.482996931644855" fill="#f72585" opacity="0.2563286154778508" rx="1"/><rect x="1807.752068326285" y="675.9964809697113" width="62.953841442464345" height="165.4003645911348" fill="#3a0ca3" opacity="0.4185156488368557" rx="2"/><rect x="1833.9159270708717" y="685.9964809697113" width="10.62612395329078" height="8.235335298403012" fill="#b5179e" opacity="0.3444238503799829" rx="1"/><rect x="1818.1774667102557" y="690.1141486189128" width="10.62612395329078" height="8.235335298403012" fill="#f72585" opacity="0.17221192518999145" rx="1"/><rect x="1834.48299949511" y="706.6715265436032" width="9.491979104814114" height="6.354879337445572" fill="#b5179e" opacity="0.2878065459168997" rx="1"/><rect x="1818.744539134494" y="709.848966212326" width="9.491979104814114" height="6.354879337445572" fill="#f72585" opacity="0.14390327295844985" rx="1"/><rect x="1835.994716267333" y="727.346572117495" width="6.468545560368463" height="6.891334533898936" fill="#b5179e" opacity="0.1760029988773174" rx="1"/><rect x="1820.256255906717" y="730.7922393844445" width="6.468545560368463" height="6.891334533898936" fill="#f72585" opacity="0.0880014994386587" rx="1"/><rect x="1834.2418042065672" y="748.0216176913868" width="9.974369681899987" height="7.108891018924511" fill="#b5179e" opacity="0.25381780130644743" rx="1"/><rect x="1818.5033438459511" y="751.5760632008491" width="9.974369681899987" height="7.108891018924511" fill="#f72585" opacity="0.12690890065322372" rx="1"/><rect x="1836.978179958178" y="768.6966632652787" width="4.501618178678122" height="6.31637614227747" fill="#b5179e" opacity="0.5131574145083216" rx="1"/><rect x="1821.239719597562" y="771.8548513364175" width="4.501618178678122" height="6.31637614227747" fill="#f72585" opacity="0.2565787072541608" rx="1"/><rect x="1833.446033318165" y="789.3717088391707" width="11.565911458704134" height="8.680281784078172" fill="#b5179e" opacity="0.5105857475452558" rx="1"/><rect x="1817.707572957549" y="793.7118497312098" width="11.565911458704134" height="8.680281784078172" fill="#f72585" opacity="0.2552928737726279" rx="1"/><rect x="1836.0411994254778" y="810.0467544130624" width="6.3755792440789705" height="7.055625514373096" fill="#b5179e" opacity="0.21443233341314652" rx="1"/><rect x="1820.3027390648617" y="813.574567170249" width="6.3755792440789705" height="7.055625514373096" fill="#f72585" opacity="0.10721616670657326" rx="1"/><rect x="1835.3768250561263" y="830.7217999869542" width="7.704327982781532" height="9.850076940807066" fill="#b5179e" opacity="0.5068599161475105" rx="1"/><rect x="1819.6383646955103" y="835.6468384573577" width="7.704327982781532" height="9.850076940807066" fill="#f72585" opacity="0.25342995807375523" rx="1"/><path d="M393.1818898937623 919.5554330059224 Q373.65576154404687 838.4517239554441 369.7505358741038 757.3480149049657" stroke="#000056" stroke-width="7.264241693370101" fill="none" stroke-linecap="round"/><path d="M369.7505358741038 757.3480149049657 Q414.1526891971362 737.3480149049657 430.1230410621788 757.3480149049657" stroke="#070070" stroke-width="3.5056546492282425" fill="none" stroke-linecap="round" opacity="0.6"/><path d="M369.7505358741038 757.3480149049657 Q393.59592243135313 746.3097744831057 417.3956344149617 775.2715340612458" stroke="#070070" stroke-width="2.7330741371803624" fill="none" stroke-linecap="round" opacity="0.6"/><path d="M369.7505358741038 757.3480149049657 Q366.7453302425927 747.7269034561203 353.95777865261255 778.105792007275" stroke="#070070" stroke-width="3.7705732075894653" fill="none" stroke-linecap="round" opacity="0.6"/><path d="M369.7505358741038 757.3480149049657 Q359.1013411657669 741.4051625849951 313.58550942987137 765.4623102650245" stroke="#070070" stroke-width="2.593293685604188" fill="none" stroke-linecap="round" opacity="0.6"/><path d="M369.7505358741038 757.3480149049657 Q367.0278655902681 734.6101082399342 331.8483907290648 751.8722015749028" stroke="#070070" stroke-width="2.8767035181812717" fill="none" stroke-linecap="round" opacity="0.6"/><path d="M229.46104785182072 844.5205008947571 Q243.55671760243288 784.3484403470877 246.3758515525553 724.1763797994182" stroke="#000056" stroke-width="7.238668406204942" fill="none" stroke-linecap="round"/><path d="M246.3758515525553 724.1763797994182 Q293.5830343490427 704.1763797994182 312.0497853048262 724.1763797994182" stroke="#070070" stroke-width="3.3994576338211675" fill="none" stroke-linecap="round" opacity="0.6"/><path d="M246.3758515525553 724.1763797994182 Q273.1929439749344 710.6269328568628 280.67014759846296 737.0774859143075" stroke="#070070" stroke-width="2.106419463666719" fill="none" stroke-linecap="round" opacity="0.6"/><path d="M246.3758515525553 724.1763797994182 Q252.91529459550551 709.8503065565365 237.74227317602262 735.5242333136547" stroke="#070070" stroke-width="3.465913574552609" fill="none" stroke-linecap="round" opacity="0.6"/><path d="M246.3758515525553 724.1763797994182 Q233.95348629329115 708.6196806558712 184.86512288700268 733.0629815123243" stroke="#070070" stroke-width="3.2645463559926826" fill="none" stroke-linecap="round" opacity="0.6"/><path d="M246.3758515525553 724.1763797994182 Q233.35889269782368 701.4148038458532 208.14604118030522 718.6532278922881" stroke="#070070" stroke-width="3.1025828684453347" fill="none" stroke-linecap="round" opacity="0.6"/><path d="M106.63197400668449 851.7546305786248 Q92.15965761620544 792.2479670302123 89.26519433810962 732.7413034818" stroke="#000056" stroke-width="6.340710582756603" fill="none" stroke-linecap="round"/><path d="M89.26519433810962 732.7413034818 Q133.98615722846847 712.7413034818 146.91314798801045 732.7413034818" stroke="#070070" stroke-width="3.849456012213942" fill="none" stroke-linecap="round" opacity="0.6"/><path d="M89.26519433810962 732.7413034818 Q112.66973944134816 721.0456774430953 133.41530930784975 749.3500514043907" stroke="#070070" stroke-width="2.1529096993973735" fill="none" stroke-linecap="round" opacity="0.6"/><path d="M89.26519433810962 732.7413034818 Q99.24340489061434 724.4250914260746 71.48687197518305 756.1088793703492" stroke="#070070" stroke-width="2.703749095253588" fill="none" stroke-linecap="round" opacity="0.6"/><path d="M89.26519433810962 732.7413034818 Q67.9981877855539 715.9843403911914 44.37029078994301 739.2273773005827" stroke="#070070" stroke-width="3.737800182713615" fill="none" stroke-linecap="round" opacity="0.6"/><path d="M89.26519433810962 732.7413034818 Q94.45548319644632 710.6681594194993 60.56567431448116 728.5950153571986" stroke="#070070" stroke-width="3.2129053983867415" fill="none" stroke-linecap="round" opacity="0.6"/><path d="M89.26519433810962 732.7413034818 Q88.21854659207249 703.446611050125 75.12217504482072 714.1519186184499" stroke="#070070" stroke-width="2.55283332116735" fill="none" stroke-linecap="round" opacity="0.6"/><path d="M89.26519433810962 732.7413034818 Q116.57367214396216 704.2093590381421 134.62518533304453 715.6774145944842" stroke="#070070" stroke-width="2.1474116770893827" fill="none" stroke-linecap="round" opacity="0.6"/><path d="M437.9507183558193 949.6522087253752 Q437.59023595079555 871.3011857229986 437.51813946979075 792.9501627206221" stroke="#000056" stroke-width="5.695609615579157" fill="none" stroke-linecap="round"/><path d="M437.51813946979075 792.9501627206221 Q469.48955843958294 772.9501627206221 497.36823527826186 792.9501627206221" stroke="#070070" stroke-width="3.656467102388029" fill="none" stroke-linecap="round" opacity="0.6"/><path d="M437.51813946979075 792.9501627206221 Q461.802423183255 780.3121214413711 476.65791393544475 807.6740801621202" stroke="#070070" stroke-width="2.3347671842981983" fill="none" stroke-linecap="round" opacity="0.6"/><path d="M437.51813946979075 792.9501627206221 Q452.6980151673677 779.1351955703303 428.10685022422655 805.3202284200387" stroke="#070070" stroke-width="2.084700293393037" fill="none" stroke-linecap="round" opacity="0.6"/><path d="M437.51813946979075 792.9501627206221 Q407.6072920085917 777.4139411606984 375.72392986727795 801.8777196007749" stroke="#070070" stroke-width="3.111358954829946" fill="none" stroke-linecap="round" opacity="0.6"/><path d="M437.51813946979075 792.9501627206221 Q426.55699507570876 769.4583160624778 389.17884414188313 785.9664694043336" stroke="#070070" stroke-width="2.2617729586227266" fill="none" stroke-linecap="round" opacity="0.6"/><path d="M437.51813946979075 792.9501627206221 Q437.86033999177874 764.8846849724112 425.2455217106701 776.8192072242003" stroke="#070070" stroke-width="2.0215637967972" fill="none" stroke-linecap="round" opacity="0.6"/><rect x="0" y="1000" width="1920" height="80" fill="#14007d" opacity="0.8"/><line x1="0" y1="1040" x2="1920" y2="1040" stroke="#b5179e" stroke-opacity="0.15" stroke-width="2" stroke-dasharray="30,20"/><rect x="0" y="930" width="1920" height="150" fill="url(#glow12)"/><text x="1900" y="1060" font-family="Arial, sans-serif" font-size="11" fill="#fff" opacity="0.08" text-anchor="end" letter-spacing="2">GTA 6 REWARDS · WALLPAPER 013</text>
</svg>