<?xml version="1.0" encoding="UTF-8"?>
<svg xmlns="http://www.w3.org/2000/svg" width="1920" height="1080" viewBox="0 0 1920 1080">
<defs>
    <linearGradient id="bg21" x1="0%" y1="0%" x2="0%" y2="100%">
      <stop offset="0%" stop-color="#004e89"/>
      <stop offset="50%" stop-color="#001b56"/>
      <stop offset="100%" stop-color="#004e89"/>
    </linearGradient>
    <linearGradient id="sun21" x1="0%" y1="0%" x2="100%" y2="100%">
      <stop offset="0%" stop-color="#ff6b35"/>
      <stop offset="100%" stop-color="#f7c59f"/>
    </linearGradient>
    <radialGradient id="glow21" cx="50%" cy="70%" r="50%">
      <stop offset="0%" stop-color="#ff6b35" stop-opacity="0.3"/>
      <stop offset="100%" stop-color="#004e89" stop-opacity="0"/>
    </radialGradient>
  </defs><rect width="1920" height="1080" fill="url(#bg21)"/><circle cx="836.434871548888" cy="313.31361255452816" r="714.7158455370729" fill="#ff6b35" opacity="0.09767090076293584"/><circle cx="1036.4348715488882" cy="213.31361255452816" r="578.3978176718573" fill="#f7c59f" opacity="0.11960671424623735"/><circle cx="831.4129308172066" cy="382.8971303377526" r="73.83199582198449" fill="url(#sun21)" opacity="0.6566576558297168"/><circle cx="831.4129308172066" cy="382.8971303377526" r="68.83199582198449" fill="#004e89" opacity="0.3"/><circle cx="652.9515866965409" cy="41.88163041553498" r="1.8740867246813342" fill="#fff" opacity="0.3238446781234454"/><circle cx="1064.3141307924675" cy="355.67352703671753" r="0.5772642308327519" fill="#fff" opacity="0.49320634349556786"/><circle cx="443.49632720544383" cy="237.4587922313853" r="1.1985460736785423" fill="#fff" opacity="0.2586944008848384"/><circle cx="1284.0996366748818" cy="347.5574163597909" r="1.8475144543562818" fill="#fff" opacity="0.5893052536969318"/><circle cx="1131.0606495689276" cy="79.27786934731479" r="0.9989289569200317" fill="#fff" opacity="0.42903934969311563"/><circle cx="598.0588666997056" cy="274.57466223523363" r="1.137941024181885" fill="#fff" opacity="0.43317781198610966"/><circle cx="1780.376306590712" cy="251.39094146978832" r="1.6300216134707495" fill="#fff" opacity="0.38864578287784146"/><circle cx="1660.3377873591003" cy="398.0684565189454" r="1.692216173208369" fill="#fff" opacity="0.5842679056302337"/><circle cx="245.3054376517668" cy="203.6542932232037" r="0.5894535869801076" fill="#fff" opacity="0.2609179386079586"/><circle cx="1390.4424090940604" cy="169.3709227427307" r="1.6781361237350239" fill="#fff" opacity="0.36791059127261644"/><circle cx="411.8148932819755" cy="284.60299689988676" r="1.7627971553622737" fill="#fff" opacity="0.22110773283548368"/><circle cx="47.34573216348554" cy="52.44111066042472" r="0.8159249105527822" fill="#fff" opacity="0.5611877179148579"/><circle cx="1443.583273329675" cy="117.94312644143196" r="1.9560929505285092" fill="#fff" opacity="0.32861568255550594"/><circle cx="1730.2940524672845" cy="419.51277040399447" r="0.883194961674324" fill="#fff" opacity="0.34716454412489306"/><circle cx="18.925129030580894" cy="37.33340795089803" r="1.638078864928819" fill="#fff" opacity="0.6928246029868779"/><circle cx="1386.0601878413138" cy="177.4815508503191" r="0.9743745285026669" fill="#fff" opacity="0.3346040275261281"/><circle cx="902.0173718645278" cy="339.6582912289673" r="0.8744605222890294" fill="#fff" opacity="0.4274005962599536"/><circle cx="310.73657519899695" cy="240.98940424271615" r="1.094638338916618" fill="#fff" opacity="0.23177108094835913"/><circle cx="1069.4959507392477" cy="392.8209482675467" r="1.0396576519216545" fill="#fff" opacity="0.4491770195889233"/><circle cx="1407.6214294432712" cy="145.345152128801" r="0.7954355808429969" fill="#fff" opacity="0.6182974576992676"/><circle cx="1603.2850106813212" cy="249.37910557011585" r="1.903612421803086" fill="#fff" opacity="0.4770037660554526"/><circle cx="94.79604678572994" cy="295.21712269429514" r="0.5047951132303092" fill="#fff" opacity="0.6079821794312406"/><circle cx="53.508705062211654" cy="305.4055520448381" r="1.4715296578294434" fill="#fff" opacity="0.35989107004364285"/><circle cx="981.0590862531818" cy="365.86742799306927" r="0.8369639600480356" fill="#fff" opacity="0.5553699988767901"/><circle cx="856.1722480263962" cy="201.4980836346508" r="1.4418374203242914" fill="#fff" opacity="0.7462854969190167"/><circle cx="31.661437161187973" cy="318.8866589700074" r="1.1110822991726645" fill="#fff" opacity="0.6447406564943354"/><circle cx="1166.0002915295772" cy="348.3327076687321" r="1.3728327898711044" fill="#fff" opacity="0.5933953976708919"/><circle cx="1599.425786211953" cy="202.6304712767318" r="1.779020464462" fill="#fff" opacity="0.44614788150557966"/><circle cx="111.09852078163496" cy="85.1237957973787" r="0.8633875888454233" fill="#fff" opacity="0.5925711978675265"/><circle cx="137.106997253631" cy="315.83522269405313" r="1.1109699037882894" fill="#fff" opacity="0.7776196282770531"/><circle cx="568.6210402680144" cy="263.4345594103063" r="1.1386553006336688" fill="#fff" opacity="0.26478701924550974"/><circle cx="637.3965504759449" cy="245.47838824369904" r="0.8283747423739114" fill="#fff" opacity="0.4567897909453115"/><circle cx="129.7949114744074" cy="80.02524268255226" r="1.8077716007381146" fill="#fff" opacity="0.7868012330464089"/><circle cx="1184.319343246594" cy="388.67950040210957" r="1.1732837041312092" fill="#fff" opacity="0.5170483735662532"/><circle cx="583.7179846930592" cy="170.78231299547068" r="0.7213813224158672" fill="#fff" opacity="0.37553513585020215"/><circle cx="1282.3823970561807" cy="207.44846516089711" r="1.4143177571041319" fill="#fff" opacity="0.22524221288627996"/><circle cx="1571.629461415957" cy="302.2573355655785" r="1.1423466384043792" fill="#fff" opacity="0.6991244816452089"/><circle cx="1154.6046355074748" cy="333.1142139688866" r="1.7059919781065527" fill="#fff" opacity="0.3601567832194634"/><circle cx="679.5045422109553" cy="230.2850187286467" r="1.6607803873859301" fill="#fff" opacity="0.7291297270751393"/><circle cx="413.74252314067974" cy="251.79748674011734" r="1.5902927129273985" fill="#fff" opacity="0.5951486104622363"/><circle cx="1346.6773772394931" cy="126.80423609512026" r="1.5885933176820617" fill="#fff" opacity="0.6616254392689154"/><circle cx="378.3252226697107" cy="268.17974057332145" r="1.8363994165175592" fill="#fff" opacity="0.6196370105770503"/><circle cx="1460.4245016398897" cy="216.10307502935245" r="1.9273973583307575" fill="#fff" opacity="0.5409915128585397"/><circle cx="220.37152429585615" cy="326.94163791251873" r="1.794960416689273" fill="#fff" opacity="0.30611420015481167"/><circle cx="1802.6976008440129" cy="63.58061692853938" r="1.4296586669352043" fill="#fff" opacity="0.5402547582379205"/><circle cx="1615.4716590827964" cy="245.72755466534932" r="1.362544484288093" fill="#fff" opacity="0.27380216835853693"/><circle cx="1610.6235846156774" cy="147.22362353355243" r="1.2730787934905567" fill="#fff" opacity="0.7434493499210684"/><circle cx="1547.401272567781" cy="247.22958474029545" r="1.1574520240904418" fill="#fff" opacity="0.5267604991623109"/><circle cx="1241.8466330975868" cy="58.447335275459885" r="1.319606663617214" fill="#fff" opacity="0.6671228125847697"/><circle cx="1536.8489334585258" cy="288.1554819569354" r="1.6705898467150027" fill="#fff" opacity="0.5655692818028781"/><circle cx="318.23419563431156" cy="199.04713193118738" r="0.7635064543605564" fill="#fff" opacity="0.45994389454367196"/><circle cx="782.4343560967675" cy="98.98547579417598" r="1.7147584918920784" fill="#fff" opacity="0.57524127666262"/><circle cx="1089.9746608291694" cy="103.74377808900172" r="0.6643791770712424" fill="#fff" opacity="0.7440564556382727"/><circle cx="1188.7629388060334" cy="250.7815479735801" r="1.8139207493080574" fill="#fff" opacity="0.4853508153197707"/><circle cx="757.0384344731082" cy="134.0103086582409" r="0.6334655073316455" fill="#fff" opacity="0.7212946585661952"/><circle cx="1229.6328469993623" cy="199.6964163798132" r="0.7010126589334134" fill="#fff" opacity="0.21181385191432525"/><circle cx="596.1438150601796" cy="5.25934715318944" r="0.6138446514061291" fill="#fff" opacity="0.45161074834214776"/><circle cx="374.1483562565754" cy="220.10245335756392" r="1.0422235092944985" fill="#fff" opacity="0.4238572412691678"/><circle cx="153.18321663727593" cy="48.90647754839306" r="0.8463025792376843" fill="#fff" opacity="0.23886786863181458"/><circle cx="1892.5012752349724" cy="242.24728024058214" r="1.516795554900727" fill="#fff" opacity="0.4624633450206517"/><circle cx="1462.3592304117883" cy="262.83643863509326" r="1.1455083282537544" fill="#fff" opacity="0.3729854688916787"/><circle cx="229.04335504142645" cy="402.9461499384945" r="1.6670755522016147" fill="#fff" opacity="0.26066761027571456"/><circle cx="978.6787558390477" cy="165.5038170827329" r="1.3391248558971856" fill="#fff" opacity="0.6218532617720434"/><circle cx="1326.1865976560364" cy="235.90720469036773" r="0.8884909142247612" fill="#fff" opacity="0.6696870728558132"/><circle cx="247.47896438638656" cy="257.67020111569906" r="1.8736278951106657" fill="#fff" opacity="0.43584226058699244"/><circle cx="1581.8795714485177" cy="427.93566597903515" r="1.8009252168240317" fill="#fff" opacity="0.5986587177958942"/><rect x="9.623152937186685" y="615.3301305638929" width="74.74792754388133" height="263.84215593893134" fill="#004e89" opacity="0.5321224032510357" rx="2"/><rect x="43.30403189135344" y="625.3301305638929" width="7.38616963554783" height="7.575012107746446" fill="#f7c59f" opacity="0.30801246543601446" rx="1"/><rect x="24.617050005383103" y="629.1176366177662" width="7.38616963554783" height="7.575012107746446" fill="#ff6b35" opacity="0.15400623271800723" rx="1"/><rect x="44.98688051663034" y="663.0218671265974" width="4.0204723849940285" height="6.492070470119843" fill="#f7c59f" opacity="0.12359551005614818" rx="1"/><rect x="26.299898630660003" y="666.2679023616573" width="4.0204723849940285" height="6.492070470119843" fill="#ff6b35" opacity="0.06179775502807409" rx="1"/><rect x="42.92677921008477" y="700.7136036893019" width="8.14067499808517" height="6.443992512403986" fill="#f7c59f" opacity="0.5010530707661651" rx="1"/><rect x="24.239797324114434" y="703.9355999455039" width="8.14067499808517" height="6.443992512403986" fill="#ff6b35" opacity="0.25052653538308256" rx="1"/><rect x="42.76414783619441" y="738.4053402520063" width="8.465937745865887" height="8.047078082814597" fill="#f7c59f" opacity="0.4852051603340556" rx="1"/><rect x="24.077165950224074" y="742.4288792934136" width="8.465937745865887" height="8.047078082814597" fill="#ff6b35" opacity="0.2426025801670278" rx="1"/><rect x="44.387369582286894" y="776.0970768147108" width="5.2194942536809235" height="8.636548832672776" fill="#f7c59f" opacity="0.2070022809102671" rx="1"/><rect x="25.700387696316557" y="780.4153512310472" width="5.2194942536809235" height="8.636548832672776" fill="#ff6b35" opacity="0.10350114045513355" rx="1"/><rect x="43.8428643436271" y="813.7888133774153" width="6.308504731000518" height="8.064133429449083" fill="#f7c59f" opacity="0.18258498636600212" rx="1"/><rect x="25.15588245765676" y="817.8208800921399" width="6.308504731000518" height="8.064133429449083" fill="#ff6b35" opacity="0.09129249318300106" rx="1"/><rect x="41.02581662964677" y="851.4805499401198" width="11.942600158961163" height="8.429523397802729" fill="#f7c59f" opacity="0.3452493473527137" rx="1"/><rect x="22.338834743676436" y="855.6953116390212" width="11.942600158961163" height="8.429523397802729" fill="#ff6b35" opacity="0.17262467367635684" rx="1"/><rect x="140.8465361992937" y="696.0010315049442" width="42.53356368107106" height="183.17125499788003" fill="#00346f" opacity="0.4278960017319527" rx="2"/><rect x="157.90261491036568" y="706.0010315049442" width="8.421406258927053" height="8.923011803748787" fill="#f7c59f" opacity="0.18072452912589643" rx="1"/><rect x="147.26922399009794" y="710.4625374068186" width="8.421406258927053" height="8.923011803748787" fill="#ff6b35" opacity="0.09036226456294821" rx="1"/><rect x="158.93782579198893" y="742.6352825045202" width="6.350984495680542" height="7.610124864990386" fill="#f7c59f" opacity="0.1862707868419287" rx="1"/><rect x="148.30443487172118" y="746.4403449370154" width="6.350984495680542" height="7.610124864990386" fill="#ff6b35" opacity="0.09313539342096434" rx="1"/><rect x="156.73924670921156" y="779.2695335040962" width="10.748142661235327" height="7.968932140145668" fill="#f7c59f" opacity="0.362957683942038" rx="1"/><rect x="146.1058557889438" y="783.253999574169" width="10.748142661235327" height="7.968932140145668" fill="#ff6b35" opacity="0.181478841971019" rx="1"/><rect x="158.40114466319818" y="815.9037845036722" width="7.424346753262064" height="7.029640514643313" fill="#f7c59f" opacity="0.40212929584135515" rx="1"/><rect x="147.76775374293044" y="819.4186047609938" width="7.424346753262064" height="7.029640514643313" fill="#ff6b35" opacity="0.20106464792067757" rx="1"/><rect x="157.54109516379913" y="852.5380355032482" width="9.144445752060145" height="8.884694008828301" fill="#f7c59f" opacity="0.36870089659204264" rx="1"/><rect x="146.90770424353138" y="856.9803825076624" width="9.144445752060145" height="8.884694008828301" fill="#ff6b35" opacity="0.18435044829602132" rx="1"/><rect x="260.49731558898867" y="539.4285451712619" width="41.23720610310259" height="339.7437413315623" fill="#00346f" opacity="0.6349742048501443" rx="2"/><rect x="278.79811803107106" y="549.4285451712619" width="4.635601218937803" height="7.443471355699811" fill="#f7c59f" opacity="0.4875890344818097" rx="1"/><rect x="268.4888165052954" y="553.1502808491118" width="4.635601218937803" height="7.443471355699811" fill="#ff6b35" opacity="0.24379451724090484" rx="1"/><rect x="276.6398064809944" y="662.6764589484494" width="8.952224319091119" height="6.913746903863211" fill="#f7c59f" opacity="0.518597502498561" rx="1"/><rect x="266.33050495521877" y="666.133332400381" width="8.952224319091119" height="6.913746903863211" fill="#ff6b35" opacity="0.2592987512492805" rx="1"/><rect x="278.06014394598554" y="775.9243727256368" width="6.1115493891089105" height="7.499185942462455" fill="#f7c59f" opacity="0.19618666130029286" rx="1"/><rect x="267.7508424202099" y="779.673965696868" width="6.1115493891089105" height="7.499185942462455" fill="#ff6b35" opacity="0.09809333065014643" rx="1"/><rect x="393.75756830064523" y="637.1854526077364" width="59.35245290616351" height="241.9868338950879" fill="#00346f" opacity="0.45271951983513303" rx="2"/><rect x="418.67616048866796" y="647.1854526077364" width="9.51526853011811" height="6.7926654547435845" fill="#f7c59f" opacity="0.26546232303731665" rx="1"/><rect x="403.8380472621271" y="650.5817853351082" width="9.51526853011811" height="6.7926654547435845" fill="#ff6b35" opacity="0.13273116151865832" rx="1"/><rect x="420.6469079972354" y="677.4338068446224" width="5.573773512983176" height="6.289111128144225" fill="#f7c59f" opacity="0.2316552455843555" rx="1"/><rect x="405.80879477069453" y="680.5783624086945" width="5.573773512983176" height="6.289111128144225" fill="#ff6b35" opacity="0.11582762279217775" rx="1"/><rect x="417.8147022288327" y="707.6821610815083" width="11.238185049788605" height="9.220695848395279" fill="#f7c59f" opacity="0.5536212013227915" rx="1"/><rect x="402.9765890022918" y="712.2925090057059" width="11.238185049788605" height="9.220695848395279" fill="#ff6b35" opacity="0.27681060066139573" rx="1"/><rect x="418.1505793019083" y="737.9305153183943" width="10.566430903637416" height="6.1368903192078905" fill="#f7c59f" opacity="0.1209937460070927" rx="1"/><rect x="403.3124660753674" y="740.9989604779983" width="10.566430903637416" height="6.1368903192078905" fill="#ff6b35" opacity="0.06049687300354635" rx="1"/><rect x="419.8732597126796" y="768.1788695552802" width="7.12107008209477" height="9.028855941963581" fill="#f7c59f" opacity="0.5394945995741278" rx="1"/><rect x="405.03514648613873" y="772.6932975262621" width="7.12107008209477" height="9.028855941963581" fill="#ff6b35" opacity="0.2697472997870639" rx="1"/><rect x="418.7262766616713" y="798.4272237921663" width="9.415036184111386" height="6.493325873392942" fill="#f7c59f" opacity="0.47335015120295576" rx="1"/><rect x="403.8881634351304" y="801.6738867288627" width="9.415036184111386" height="6.493325873392942" fill="#ff6b35" opacity="0.23667507560147788" rx="1"/><rect x="421.1937713521053" y="828.6755780290523" width="4.480046803243469" height="6.591401114266226" fill="#f7c59f" opacity="0.3847358252119124" rx="1"/><rect x="406.3556581255644" y="831.9712785861855" width="4.480046803243469" height="6.591401114266226" fill="#ff6b35" opacity="0.1923679126059562" rx="1"/><rect x="419.0582900648141" y="858.9239322659382" width="8.751009377825774" height="6.698004173277413" fill="#f7c59f" opacity="0.5801438237727023" rx="1"/><rect x="404.22017683827323" y="862.272934352577" width="8.751009377825774" height="6.698004173277413" fill="#ff6b35" opacity="0.2900719118863512" rx="1"/><rect x="537.7425768407394" y="709.8949553700851" width="85.63539379174713" height="169.27733113273916" fill="#00346f" opacity="0.692055514825521" rx="2"/><rect x="577.8399544234481" y="719.8949553700851" width="5.44063862632975" height="6.948364589584145" fill="#f7c59f" opacity="0.32886836161577804" rx="1"/><rect x="556.4311059755113" y="723.3691376648771" width="5.44063862632975" height="6.948364589584145" fill="#ff6b35" opacity="0.16443418080788902" rx="1"/><rect x="575.3880996127585" y="744.0774312461907" width="10.344348247708833" height="7.897629633987702" fill="#f7c59f" opacity="0.3808363155417229" rx="1"/><rect x="553.9792511648217" y="748.0262460631845" width="10.344348247708833" height="7.897629633987702" fill="#ff6b35" opacity="0.19041815777086146" rx="1"/><rect x="576.4215579865086" y="768.2599071222962" width="8.277431500208898" height="7.899003164353548" fill="#f7c59f" opacity="0.21694913092463958" rx="1"/><rect x="555.0127095385717" y="772.209408704473" width="8.277431500208898" height="7.899003164353548" fill="#ff6b35" opacity="0.10847456546231979" rx="1"/><rect x="576.7669225767644" y="792.4423829984019" width="7.586702319697174" height="8.756818218798568" fill="#f7c59f" opacity="0.3728209995601375" rx="1"/><rect x="555.3580741288275" y="796.8207921078011" width="7.586702319697174" height="8.756818218798568" fill="#ff6b35" opacity="0.18641049978006874" rx="1"/><rect x="576.1525201092364" y="816.6248588745075" width="8.815507254753147" height="6.19308128026153" fill="#f7c59f" opacity="0.5635943996169591" rx="1"/><rect x="554.7436716612996" y="819.7213995146383" width="8.815507254753147" height="6.19308128026153" fill="#ff6b35" opacity="0.28179719980847956" rx="1"/><rect x="576.9970890874969" y="840.8073347506131" width="7.12636929823234" height="9.433346136341186" fill="#f7c59f" opacity="0.28741177271292817" rx="1"/><rect x="555.58824063956" y="845.5240078187837" width="7.12636929823234" height="9.433346136341186" fill="#ff6b35" opacity="0.14370588635646409" rx="1"/><rect x="574.8822448979789" y="864.9898106267186" width="11.356057677268064" height="8.139045072286168" fill="#f7c59f" opacity="0.1485325998273987" rx="1"/><rect x="553.4733964500421" y="869.0593331628617" width="11.356057677268064" height="8.139045072286168" fill="#ff6b35" opacity="0.07426629991369935" rx="1"/><rect x="660.6732009771916" y="501.12131934173436" width="36.801656011213005" height="378.0509671610899" fill="#00346f" opacity="0.5002616216894848" rx="2"/><rect x="674.8721884688997" y="511.12131934173436" width="8.403681027796978" height="8.292211353381214" fill="#f7c59f" opacity="0.2690601943221549" rx="1"/><rect x="665.6717744660964" y="515.267425018425" width="8.403681027796978" height="8.292211353381214" fill="#ff6b35" opacity="0.13453009716107744" rx="1"/><rect x="673.9188124297464" y="574.1298138685827" width="10.310433106103547" height="7.495333615107307" fill="#f7c59f" opacity="0.5560930891791576" rx="1"/><rect x="664.718398426943" y="577.8774806761363" width="10.310433106103547" height="7.495333615107307" fill="#ff6b35" opacity="0.2780465445895788" rx="1"/><rect x="676.2678073065514" y="637.138308395431" width="5.61244335249356" height="7.890702749111387" fill="#f7c59f" opacity="0.4176851775072713" rx="1"/><rect x="667.0673933037481" y="641.0836597699866" width="5.61244335249356" height="7.890702749111387" fill="#ff6b35" opacity="0.20884258875363565" rx="1"/><rect x="673.8982058039164" y="700.1468029222793" width="10.351646357763476" height="9.86340770215341" fill="#f7c59f" opacity="0.18903699742840535" rx="1"/><rect x="664.6977918011131" y="705.078506773356" width="10.351646357763476" height="9.86340770215341" fill="#ff6b35" opacity="0.09451849871420268" rx="1"/><rect x="674.9203140656278" y="763.1552974491276" width="8.307429834340567" height="9.09640264862599" fill="#f7c59f" opacity="0.5221797647006297" rx="1"/><rect x="665.7199000628245" y="767.7034987734406" width="8.307429834340567" height="9.09640264862599" fill="#ff6b35" opacity="0.26108988235031483" rx="1"/><rect x="674.9631315707144" y="826.163791975976" width="8.221794824167572" height="8.700434570829485" fill="#f7c59f" opacity="0.3055535574223738" rx="1"/><rect x="665.7627175679111" y="830.5140092613907" width="8.221794824167572" height="8.700434570829485" fill="#ff6b35" opacity="0.1527767787111869" rx="1"/><rect x="773.5567062938485" y="586.9376705230535" width="45.689104091303676" height="292.23461597977075" fill="#004e89" opacity="0.4459974062270479" rx="2"/><rect x="793.2721804986411" y="596.9376705230535" width="6.258155681718643" height="6.919820096557918" fill="#f7c59f" opacity="0.3843400362842577" rx="1"/><rect x="781.8499044758152" y="600.3975805713325" width="6.258155681718643" height="6.919820096557918" fill="#ff6b35" opacity="0.19217001814212886" rx="1"/><rect x="794.2792952678351" y="655.3845937190076" width="4.243926143330505" height="6.6825326915556875" fill="#f7c59f" opacity="0.3931294982072733" rx="1"/><rect x="782.8570192450092" y="658.7258600647855" width="4.243926143330505" height="6.6825326915556875" fill="#ff6b35" opacity="0.19656474910363664" rx="1"/><rect x="792.5033456579557" y="713.8315169149618" width="7.79582536308929" height="6.497558179427301" fill="#f7c59f" opacity="0.23127314185986136" rx="1"/><rect x="781.0810696351298" y="717.0802960046753" width="7.79582536308929" height="6.497558179427301" fill="#ff6b35" opacity="0.11563657092993068" rx="1"/><rect x="792.1912161370719" y="772.2784401109159" width="8.420084404856919" height="8.733109424527061" fill="#f7c59f" opacity="0.5585333362823662" rx="1"/><rect x="780.768940114246" y="776.6449948231794" width="8.420084404856919" height="8.733109424527061" fill="#ff6b35" opacity="0.2792666681411831" rx="1"/><rect x="791.3204713087345" y="830.7253633068701" width="10.16157406153194" height="7.082034376701814" fill="#f7c59f" opacity="0.2504426580272714" rx="1"/><rect x="779.8981952859085" y="834.266380495221" width="10.16157406153194" height="7.082034376701814" fill="#ff6b35" opacity="0.1252213290136357" rx="1"/><rect x="918.0173332868185" y="584.2379709901843" width="81.251217585814" height="294.93431551264" fill="#004e89" opacity="0.45321930974098373" rx="2"/><rect x="955.6119806935574" y="594.2379709901843" width="6.061922772336267" height="7.528507289832576" fill="#f7c59f" opacity="0.4681908591809195" rx="1"/><rect x="935.2991762971039" y="598.0022246351006" width="6.061922772336267" height="7.528507289832576" fill="#ff6b35" opacity="0.23409542959045976" rx="1"/><rect x="954.6654670228403" y="692.5494094943977" width="7.954950113770307" height="7.2783099285509225" fill="#f7c59f" opacity="0.30263021420748676" rx="1"/><rect x="934.3526626263869" y="696.1885644586731" width="7.954950113770307" height="7.2783099285509225" fill="#ff6b35" opacity="0.15131510710374338" rx="1"/><rect x="953.4523985736195" y="790.860847998611" width="10.381087012212046" height="6.488083188535665" fill="#f7c59f" opacity="0.5628496499412808" rx="1"/><rect x="933.139594177166" y="794.1048895928789" width="10.381087012212046" height="6.488083188535665" fill="#ff6b35" opacity="0.2814248249706404" rx="1"/><rect x="1047.7772206994186" y="591.1723901031474" width="64.15840775104203" height="287.9998963996768" fill="#004e89" opacity="0.4516860735024526" rx="2"/><rect x="1077.34910787557" y="601.1723901031474" width="5.014633398739303" height="9.107327801898897" fill="#f7c59f" opacity="0.42916763909840205" rx="1"/><rect x="1061.3095059378097" y="605.7260540040969" width="5.014633398739303" height="9.107327801898897" fill="#ff6b35" opacity="0.21458381954920103" rx="1"/><rect x="1076.115079949404" y="642.3152324459584" width="7.482689251071468" height="8.853704857373076" fill="#f7c59f" opacity="0.5158201624908997" rx="1"/><rect x="1060.0754780116436" y="646.7420848746449" width="7.482689251071468" height="8.853704857373076" fill="#ff6b35" opacity="0.25791008124544984" rx="1"/><rect x="1074.743444030579" y="683.4580747887694" width="10.225961088721165" height="6.301851455192513" fill="#f7c59f" opacity="0.2765150201219402" rx="1"/><rect x="1058.7038420928186" y="686.6090005163657" width="10.225961088721165" height="6.301851455192513" fill="#ff6b35" opacity="0.1382575100609701" rx="1"/><rect x="1077.1191810826117" y="724.6009171315803" width="5.47448698465584" height="9.320754269911152" fill="#f7c59f" opacity="0.28964422894400643" rx="1"/><rect x="1061.0795791448513" y="729.2612942665359" width="5.47448698465584" height="9.320754269911152" fill="#ff6b35" opacity="0.14482211447200322" rx="1"/><rect x="1076.8119035465204" y="765.7437594743914" width="6.089042056838293" height="8.523161274968452" fill="#f7c59f" opacity="0.20954551156832502" rx="1"/><rect x="1060.77230160876" y="770.0053401118756" width="6.089042056838293" height="8.523161274968452" fill="#ff6b35" opacity="0.10477275578416251" rx="1"/><rect x="1076.2418867040524" y="806.8866018172023" width="7.229075741774653" height="6.405718408619454" fill="#f7c59f" opacity="0.2977257940912912" rx="1"/><rect x="1060.202284766292" y="810.089461021512" width="7.229075741774653" height="6.405718408619454" fill="#ff6b35" opacity="0.1488628970456456" rx="1"/><rect x="1074.3667848495224" y="848.0294441600133" width="10.97927945083456" height="7.028041195363747" fill="#f7c59f" opacity="0.19455408786762368" rx="1"/><rect x="1058.327182911762" y="851.5434647576952" width="10.97927945083456" height="7.028041195363747" fill="#ff6b35" opacity="0.09727704393381184" rx="1"/><rect x="1166.8071888286638" y="580.7933885559424" width="69.74045485717721" height="298.3788979468818" fill="#004e89" opacity="0.5856345406467176" rx="2"/><rect x="1197.1218503983976" y="590.7933885559424" width="9.111131717709622" height="7.959473791988444" fill="#f7c59f" opacity="0.18162530478593553" rx="1"/><rect x="1179.6867366841034" y="594.7731254519367" width="9.111131717709622" height="7.959473791988444" fill="#ff6b35" opacity="0.09081265239296776" rx="1"/><rect x="1198.362496373561" y="633.418945405497" width="6.629839767382908" height="6.9018910529329185" fill="#f7c59f" opacity="0.20837327772946407" rx="1"/><rect x="1180.9273826592669" y="636.8698909319635" width="6.629839767382908" height="6.9018910529329185" fill="#ff6b35" opacity="0.10418663886473203" rx="1"/><rect x="1198.2633290172703" y="676.0445022550515" width="6.82817447996423" height="8.088237203212511" fill="#f7c59f" opacity="0.32479033871199714" rx="1"/><rect x="1180.828215302976" y="680.0886208566577" width="6.82817447996423" height="8.088237203212511" fill="#ff6b35" opacity="0.16239516935599857" rx="1"/><rect x="1198.8662401693562" y="718.670059104606" width="5.622352175792296" height="9.882753071347892" fill="#f7c59f" opacity="0.24035599519041273" rx="1"/><rect x="1181.431126455062" y="723.61143564028" width="5.622352175792296" height="9.882753071347892" fill="#ff6b35" opacity="0.12017799759520637" rx="1"/><rect x="1199.3490648498641" y="761.2956159541607" width="4.656702814776614" height="6.343551511956274" fill="#f7c59f" opacity="0.2000010447110983" rx="1"/><rect x="1181.91395113557" y="764.4673917101388" width="4.656702814776614" height="6.343551511956274" fill="#ff6b35" opacity="0.10000052235554915" rx="1"/><rect x="1196.1183144401568" y="803.9211728037151" width="11.118203634190886" height="7.607888623515118" fill="#f7c59f" opacity="0.19166051123562747" rx="1"/><rect x="1178.6832007258627" y="807.7251171154726" width="11.118203634190886" height="7.607888623515118" fill="#ff6b35" opacity="0.09583025561781373" rx="1"/><rect x="1198.1352154270596" y="846.5467296532697" width="7.084401660385636" height="9.903409358091515" fill="#f7c59f" opacity="0.40965238281284744" rx="1"/><rect x="1180.7001017127654" y="851.4984343323155" width="7.084401660385636" height="9.903409358091515" fill="#ff6b35" opacity="0.20482619140642372" rx="1"/><rect x="1305.363805942555" y="714.7029705845525" width="53.99969717580818" height="164.46931591827175" fill="#00346f" opacity="0.5420861085974812" rx="2"/><rect x="1328.9278042563071" y="724.7029705845525" width="6.871700548304175" height="6.351260282181031" fill="#f7c59f" opacity="0.3674055854481192" rx="1"/><rect x="1315.427879962355" y="727.8786007256431" width="6.871700548304175" height="6.351260282181031" fill="#ff6b35" opacity="0.1837027927240596" rx="1"/><rect x="1326.7185060492993" y="779.5260758906431" width="11.290296962319477" height="8.630783870497435" fill="#f7c59f" opacity="0.586761200937154" rx="1"/><rect x="1313.2185817553473" y="783.8414678258919" width="11.290296962319477" height="8.630783870497435" fill="#ff6b35" opacity="0.293380600468577" rx="1"/><rect x="1328.4379746926572" y="834.3491811967338" width="7.85135967560377" height="6.515233339861788" fill="#f7c59f" opacity="0.45583011546540775" rx="1"/><rect x="1314.9380503987052" y="837.6067978666647" width="7.85135967560377" height="6.515233339861788" fill="#ff6b35" opacity="0.22791505773270387" rx="1"/><rect x="1419.0694781856307" y="623.2838484745669" width="38.66240726519898" height="255.88843802825744" fill="#004e89" opacity="0.5187746946277969" rx="2"/><rect x="1434.5612876824011" y="633.2838484745669" width="7.67878827165784" height="6.971719006302701" fill="#f7c59f" opacity="0.15476091128186345" rx="1"/><rect x="1424.8956858661015" y="636.7697079777182" width="7.67878827165784" height="6.971719006302701" fill="#ff6b35" opacity="0.07738045564093173" rx="1"/><rect x="1434.108556363524" y="684.4615360802184" width="8.584250909412338" height="9.088387867223561" fill="#f7c59f" opacity="0.514450559745182" rx="1"/><rect x="1424.4429545472244" y="689.0057300138302" width="8.584250909412338" height="9.088387867223561" fill="#ff6b35" opacity="0.257225279872591" rx="1"/><rect x="1433.2486109440792" y="735.6392236858699" width="10.304141748301717" height="7.932220962348445" fill="#f7c59f" opacity="0.47044790419061855" rx="1"/><rect x="1423.5830091277796" y="739.6053341670441" width="10.304141748301717" height="7.932220962348445" fill="#ff6b35" opacity="0.23522395209530927" rx="1"/><rect x="1435.3922833456638" y="786.8169112915214" width="6.0167969451325005" height="9.94166825710369" fill="#f7c59f" opacity="0.10480973872002441" rx="1"/><rect x="1425.7266815293642" y="791.7877454200732" width="6.0167969451325005" height="9.94166825710369" fill="#ff6b35" opacity="0.05240486936001221" rx="1"/><rect x="1435.626305320446" y="837.9945988971729" width="5.548752995568503" height="8.247190750727242" fill="#f7c59f" opacity="0.2716996734430314" rx="1"/><rect x="1425.9607035041463" y="842.1181942725365" width="5.548752995568503" height="8.247190750727242" fill="#ff6b35" opacity="0.1358498367215157" rx="1"/><rect x="1553.9198486446217" y="621.6754126645801" width="53.30775398372387" height="257.4968738382442" fill="#004e89" opacity="0.6070896910752844" rx="2"/><rect x="1577.32616424475" y="631.6754126645801" width="6.49512278346697" height="6.729453318922188" fill="#f7c59f" opacity="0.5963014984960439" rx="1"/><rect x="1563.999225748819" y="635.0401393240412" width="6.49512278346697" height="6.729453318922188" fill="#ff6b35" opacity="0.29815074924802193" rx="1"/><rect x="1575.656284860954" y="674.5915583042874" width="9.834881551059635" height="8.966865679939945" fill="#f7c59f" opacity="0.27455777692947486" rx="1"/><rect x="1562.329346365023" y="679.0749911442574" width="9.834881551059635" height="8.966865679939945" fill="#ff6b35" opacity="0.13727888846473743" rx="1"/><rect x="1577.6612000420369" y="717.5077039439948" width="5.825051188893861" height="8.517462778491309" fill="#f7c59f" opacity="0.12398113615903565" rx="1"/><rect x="1564.3342615461058" y="721.7664353332405" width="5.825051188893861" height="8.517462778491309" fill="#ff6b35" opacity="0.061990568079517826" rx="1"/><rect x="1574.7154858442293" y="760.4238495837022" width="11.716479584508686" height="6.609220257170782" fill="#f7c59f" opacity="0.41167845272265335" rx="1"/><rect x="1561.3885473482983" y="763.7284597122876" width="11.716479584508686" height="6.609220257170782" fill="#ff6b35" opacity="0.20583922636132668" rx="1"/><rect x="1577.9393406531167" y="803.3399952234096" width="5.268769966733821" height="6.376534733077635" fill="#f7c59f" opacity="0.3914436859524445" rx="1"/><rect x="1564.6124021571857" y="806.5282625899484" width="5.268769966733821" height="6.376534733077635" fill="#ff6b35" opacity="0.19572184297622225" rx="1"/><rect x="1575.4448550917314" y="846.2561408631169" width="10.257741089504616" height="7.876047941361565" fill="#f7c59f" opacity="0.42556478174532875" rx="1"/><rect x="1562.1179165958004" y="850.1941648337977" width="10.257741089504616" height="7.876047941361565" fill="#ff6b35" opacity="0.21278239087266437" rx="1"/><rect x="1672.311059292944" y="540.9661054939419" width="54.18837951593761" height="338.20618100888237" fill="#00346f" opacity="0.5823272543452511" rx="2"/><rect x="1695.8989730288506" y="550.9661054939419" width="7.012552044124471" height="8.757040387661439" fill="#f7c59f" opacity="0.49618526012547903" rx="1"/><rect x="1682.3518781498663" y="555.3446256877726" width="7.012552044124471" height="8.757040387661439" fill="#ff6b35" opacity="0.24809263006273952" rx="1"/><rect x="1696.3885596700452" y="599.2812742094965" width="6.033378761735134" height="9.549617969326121" fill="#f7c59f" opacity="0.5222450768394035" rx="1"/><rect x="1682.8414647910608" y="604.0560831941596" width="6.033378761735134" height="9.549617969326121" fill="#ff6b35" opacity="0.26112253841970173" rx="1"/><rect x="1697.3987363456745" y="647.5964429250512" width="4.01302541047638" height="9.14432470666811" fill="#f7c59f" opacity="0.5411620574400672" rx="1"/><rect x="1683.8516414666901" y="652.1686052783853" width="4.01302541047638" height="9.14432470666811" fill="#ff6b35" opacity="0.2705810287200336" rx="1"/><rect x="1697.3822386489207" y="695.9116116406058" width="4.046020803983794" height="8.84707677803167" fill="#f7c59f" opacity="0.25009372498609445" rx="1"/><rect x="1683.8351437699364" y="700.3351500296216" width="4.046020803983794" height="8.84707677803167" fill="#ff6b35" opacity="0.12504686249304722" rx="1"/><rect x="1694.1960874575182" y="744.2267803561604" width="10.418323186789248" height="9.692861206758037" fill="#f7c59f" opacity="0.13741679492812064" rx="1"/><rect x="1680.6489925785338" y="749.0732109595393" width="10.418323186789248" height="9.692861206758037" fill="#ff6b35" opacity="0.06870839746406032" rx="1"/><rect x="1694.7483731968673" y="792.541949071715" width="9.313751708090713" height="9.442702215035144" fill="#f7c59f" opacity="0.4087561095153811" rx="1"/><rect x="1681.201278317883" y="797.2633001792325" width="9.313751708090713" height="9.442702215035144" fill="#ff6b35" opacity="0.20437805475769055" rx="1"/><rect x="1696.4350218203465" y="840.8571177872697" width="5.940454461132282" height="8.642434135694623" fill="#f7c59f" opacity="0.5402539220033805" rx="1"/><rect x="1682.8879269413621" y="845.178334855117" width="5.940454461132282" height="8.642434135694623" fill="#ff6b35" opacity="0.27012696100169026" rx="1"/><rect x="1815.243930275376" y="664.153380334413" width="77.16716020069252" height="215.01890616841123" fill="#004e89" opacity="0.595345991220173" rx="2"/><rect x="1849.4456758365143" y="674.153380334413" width="8.763669078416115" height="9.652380864986307" fill="#f7c59f" opacity="0.23847321007365202" rx="1"/><rect x="1830.153885786341" y="678.9795707669061" width="8.763669078416115" height="9.652380864986307" fill="#ff6b35" opacity="0.11923660503682601" rx="1"/><rect x="1848.6269806608623" y="709.9898646958148" width="10.401059429720291" height="8.010498640595586" fill="#f7c59f" opacity="0.22526361204806333" rx="1"/><rect x="1829.335190610689" y="713.9951140161127" width="10.401059429720291" height="8.010498640595586" fill="#ff6b35" opacity="0.11263180602403167" rx="1"/><rect x="1849.7889550083294" y="745.8263490572167" width="8.077110734786165" height="8.14821014137664" fill="#f7c59f" opacity="0.46971247623900714" rx="1"/><rect x="1830.4971649581562" y="749.900454127905" width="8.077110734786165" height="8.14821014137664" fill="#ff6b35" opacity="0.23485623811950357" rx="1"/><rect x="1849.2487862031555" y="781.6628334186186" width="9.15744834513344" height="9.639158634384899" fill="#f7c59f" opacity="0.14159627797584895" rx="1"/><rect x="1829.9569961529824" y="786.4824127358111" width="9.15744834513344" height="9.639158634384899" fill="#ff6b35" opacity="0.07079813898792447" rx="1"/><rect x="1851.6369241999084" y="817.4993177800204" width="4.3811723516278835" height="7.247526989608893" fill="#f7c59f" opacity="0.28144981194786955" rx="1"/><rect x="1832.3451341497353" y="821.1230812748248" width="4.3811723516278835" height="7.247526989608893" fill="#ff6b35" opacity="0.14072490597393478" rx="1"/><rect x="1848.4236029417775" y="853.3358021414224" width="10.807814867889466" height="7.749373768863588" fill="#f7c59f" opacity="0.3173169135854852" rx="1"/><rect x="1829.1318128916043" y="857.2104890258541" width="10.807814867889466" height="7.749373768863588" fill="#ff6b35" opacity="0.1586584567927426" rx="1"/><path d="M284.07873592434424 948.3315738496211 Q299.03873127862784 889.8481483140141 302.03073034948454 831.3647227784071" stroke="#00013c" stroke-width="5.468114150098551" fill="none" stroke-linecap="round"/><path d="M302.03073034948454 831.3647227784071 Q327.2414204904906 811.3647227784071 339.575654239295 831.3647227784071" stroke="#001b56" stroke-width="3.511030026132015" fill="none" stroke-linecap="round" opacity="0.6"/><path d="M302.03073034948454 831.3647227784071 Q323.7242059745334 816.9310817769372 331.6242181781105 842.4974407754673" stroke="#001b56" stroke-width="3.0711709747722304" fill="none" stroke-linecap="round" opacity="0.6"/><path d="M302.03073034948454 831.3647227784071 Q297.47110459125184 817.9947801502133 291.9422814831707 844.6248375220196" stroke="#001b56" stroke-width="2.37821923251688" fill="none" stroke-linecap="round" opacity="0.6"/><path d="M302.03073034948454 831.3647227784071 Q294.2492089471862 814.4440846889358 259.40165771613226 837.5234465994646" stroke="#001b56" stroke-width="3.0536496199326706" fill="none" stroke-linecap="round" opacity="0.6"/><path d="M302.03073034948454 831.3647227784071 Q282.43329771406735 807.4320834798167 247.58933269265674 823.4994441812263" stroke="#001b56" stroke-width="2.2730388702529107" fill="none" stroke-linecap="round" opacity="0.6"/><path d="M302.03073034948454 831.3647227784071 Q303.00118692713187 802.3263775127584 288.27777484168854 813.2880322471099" stroke="#001b56" stroke-width="3.5010605374120782" fill="none" stroke-linecap="round" opacity="0.6"/><path d="M302.03073034948454 831.3647227784071 Q323.5048694815467 807.0158540591626 325.15144418508856 822.666985339918" stroke="#001b56" stroke-width="3.1863453810071443" fill="none" stroke-linecap="round" opacity="0.6"/><path d="M168.18660203558082 790.1914295484758 Q165.66964080223573 703.787842527681 165.1662485555667 617.3842555068862" stroke="#00013c" stroke-width="7.8177626225673045" fill="none" stroke-linecap="round"/><path d="M165.1662485555667 617.3842555068862 Q200.80456545106242 597.3842555068862 210.54589090509012 617.3842555068862" stroke="#001b56" stroke-width="3.5798281453502896" fill="none" stroke-linecap="round" opacity="0.6"/><path d="M165.1662485555667 617.3842555068862 Q205.5675642466678 605.3248782709129 207.3824841920011 633.2655010349397" stroke="#001b56" stroke-width="3.042663587034369" fill="none" stroke-linecap="round" opacity="0.6"/><path d="M165.1662485555667 617.3842555068862 Q176.51643088866751 601.8035313768887 158.44177602984738 626.2228072468911" stroke="#001b56" stroke-width="2.7037462570480413" fill="none" stroke-linecap="round" opacity="0.6"/><path d="M165.1662485555667 617.3842555068862 Q145.7927390622353 601.4032613132019 109.52923822381271 625.4222671195178" stroke="#001b56" stroke-width="2.0619074814165725" fill="none" stroke-linecap="round" opacity="0.6"/><path d="M165.1662485555667 617.3842555068862 Q136.17670364322314 592.6533274332612 99.67375941872018 607.9223993596363" stroke="#001b56" stroke-width="2.5378958048620017" fill="none" stroke-linecap="round" opacity="0.6"/><path d="M165.1662485555667 617.3842555068862 Q173.8331810961509 589.9481048914561 153.8512295385385 602.5119542760259" stroke="#001b56" stroke-width="2.1977862902446152" fill="none" stroke-linecap="round" opacity="0.6"/><path d="M200.53436865111217 795.961533928281 Q192.08022047115497 718.3633106919851 190.3893908351635 640.7650874556891" stroke="#00013c" stroke-width="5.935247024040494" fill="none" stroke-linecap="round"/><path d="M190.3893908351635 640.7650874556891 Q226.32391169278972 620.7650874556891 246.0844961106974 640.7650874556891" stroke="#001b56" stroke-width="3.2039556287238273" fill="none" stroke-linecap="round" opacity="0.6"/><path d="M190.3893908351635 640.7650874556891 Q217.99214297738035 629.2836096150592 235.6780223998481 657.8021317744292" stroke="#001b56" stroke-width="3.1807285820089115" fill="none" stroke-linecap="round" opacity="0.6"/><path d="M190.3893908351635 640.7650874556891 Q187.61448922461096 629.9529764981902 176.408886052686 659.1408655406913" stroke="#001b56" stroke-width="3.413761408863068" fill="none" stroke-linecap="round" opacity="0.6"/><path d="M190.3893908351635 640.7650874556891 Q170.11259726498815 625.7629536944501 121.20154962187226 650.7608199332111" stroke="#001b56" stroke-width="3.092399673790764" fill="none" stroke-linecap="round" opacity="0.6"/><path d="M190.3893908351635 640.7650874556891 Q177.58338211867533 618.0535028804832 152.8516349082925 635.3419183052772" stroke="#001b56" stroke-width="2.352645180270226" fill="none" stroke-linecap="round" opacity="0.6"/><path d="M190.3893908351635 640.7650874556891 Q194.3296648235144 613.1048114771938 178.73333747436897 625.4445354986984" stroke="#001b56" stroke-width="3.590969958713038" fill="none" stroke-linecap="round" opacity="0.6"/><path d="M190.3893908351635 640.7650874556891 Q218.7815119807686 611.8522554185618 237.77436662974725 622.9394233814345" stroke="#001b56" stroke-width="2.3087262665640393" fill="none" stroke-linecap="round" opacity="0.6"/><path d="M1741.2806108177829 799.7644705464515 Q1735.09424167571 733.099131113407 1733.8569678472954 666.4337916803626" stroke="#00013c" stroke-width="5.872073527861404" fill="none" stroke-linecap="round"/><path d="M1733.8569678472954 666.4337916803626 Q1768.5971381679637 646.4337916803626 1800.2555352198556 666.4337916803626" stroke="#001b56" stroke-width="3.3694474337085727" fill="none" stroke-linecap="round" opacity="0.6"/><path d="M1733.8569678472954 666.4337916803626 Q1761.7424335245164 651.1834061187556 1759.1082419944294 675.9330205571486" stroke="#001b56" stroke-width="3.514906367174095" fill="none" stroke-linecap="round" opacity="0.6"/><path d="M1733.8569678472954 666.4337916803626 Q1733.1905823369857 652.8318067414623 1724.1215999356561 679.2298218025619" stroke="#001b56" stroke-width="2.1016356842828996" fill="none" stroke-linecap="round" opacity="0.6"/><path d="M1733.8569678472954 666.4337916803626 Q1734.460000832483 649.0499177418371 1697.6406895620785 671.6660438033118" stroke="#001b56" stroke-width="2.9553396946180936" fill="none" stroke-linecap="round" opacity="0.6"/><path d="M1733.8569678472954 666.4337916803626 Q1716.576683532728 643.5507394141841 1693.9455030595902 660.6676871480058" stroke="#001b56" stroke-width="2.0002755420283123" fill="none" stroke-linecap="round" opacity="0.6"/><rect x="0" y="1000" width="1920" height="80" fill="#002863" opacity="0.8"/><line x1="0" y1="1040" x2="1920" y2="1040" stroke="#f7c59f" stroke-opacity="0.15" stroke-width="2" stroke-dasharray="30,20"/><rect x="0" y="930" width="1920" height="150" fill="url(#glow21)"/><rect x="0" y="980" width="1920" height="100" fill="#f7c59f" opacity="0.04"/><rect x="1918.5970661040856" y="1006.1036538067515" width="106.84861969362214" height="2" fill="#ff6b35" opacity="0.05928587475774946" rx="1"/><rect x="512.9534510972336" y="1015.2034176036724" width="62.83067331249609" height="2" fill="#ff6b35" opacity="0.058456479794917734" rx="1"/><rect x="226.79544215714452" y="1057.6609507803016" width="61.02739601885607" height="2" fill="#ff6b35" opacity="0.03499506445950713" rx="1"/><rect x="1379.589906209053" y="1048.8580518935012" width="112.50117465679095" height="2" fill="#ff6b35" opacity="0.05141117145107388" rx="1"/><rect x="1907.1886441081738" y="1001.6905031357171" width="63.707255982725705" height="2" fill="#ff6b35" opacity="0.04844435326485996" rx="1"/><rect x="352.20552080129397" y="1041.2765365143484" width="23.39371566739718" height="2" fill="#ff6b35" opacity="0.024071712513470955" rx="1"/><rect x="1311.7633226587816" y="1051.5402477494301" width="35.74890471895898" height="2" fill="#ff6b35" opacity="0.035462244808548656" rx="1"/><rect x="1285.342767239861" y="1043.9061172781294" width="85.52804242016936" height="2" fill="#ff6b35" opacity="0.058168536489403" rx="1"/><rect x="238.71397694542864" y="1024.296897306176" width="100.7021868835907" height="2" fill="#ff6b35" opacity="0.03925289423653225" rx="1"/><rect x="1584.571831148251" y="1007.1970547473052" width="58.264094441724964" height="2" fill="#ff6b35" opacity="0.05946775822887844" rx="1"/><rect x="867.9319987231706" y="1053.2564159234187" width="99.98577919322666" height="2" fill="#ff6b35" opacity="0.03341597136422433" rx="1"/><rect x="868.4136863584663" y="1027.767032768523" width="112.24288491351598" height="2" fill="#ff6b35" opacity="0.05080600362057006" rx="1"/><rect x="1423.8166405595412" y="1037.703073517816" width="97.6546068204694" height="2" fill="#ff6b35" opacity="0.02989189580313207" rx="1"/><rect x="8.339768799100948" y="1006.5034420337769" width="100.05908797030781" height="2" fill="#ff6b35" opacity="0.030708237218369787" rx="1"/><rect x="1164.6959162980077" y="1032.9079507321371" width="109.81616340806153" height="2" fill="#ff6b35" opacity="0.056320167825631845" rx="1"/><rect x="599.6108925248521" y="1016.1019738428532" width="97.66463080832376" height="2" fill="#ff6b35" opacity="0.04362353293775197" rx="1"/><rect x="1572.0440835440634" y="1001.8870210186316" width="87.16538401487409" height="2" fill="#ff6b35" opacity="0.04082604192682217" rx="1"/><rect x="1440.7579970734096" y="1035.1905916154362" width="76.36330990967417" height="2" fill="#ff6b35" opacity="0.0561021713996544" rx="1"/><rect x="994.5387730827879" y="1059.4172576673834" width="112.67502187115025" height="2" fill="#ff6b35" opacity="0.03248215248167565" rx="1"/><rect x="1563.3169894580071" y="1047.7524002985451" width="69.00324064050876" height="2" fill="#ff6b35" opacity="0.02707379245363963" rx="1"/><rect x="836.9106086056937" y="1013.1966366789296" width="45.13679324768875" height="2" fill="#ff6b35" opacity="0.028847480884019165" rx="1"/><rect x="1913.7315586194702" y="1008.0921226758725" width="34.636393197494655" height="2" fill="#ff6b35" opacity="0.057798618990415385" rx="1"/><rect x="162.43229407873756" y="1010.8760211083284" width="97.80278962520016" height="2" fill="#ff6b35" opacity="0.0419915587040576" rx="1"/><rect x="1224.4106544424806" y="1027.9226765939786" width="80.33717944760275" height="2" fill="#ff6b35" opacity="0.031074893840373236" rx="1"/><rect x="1457.9829498049762" y="1014.3313803510581" width="118.77494936780421" height="2" fill="#ff6b35" opacity="0.05607247745526779" rx="1"/><rect x="1082.3908078210407" y="1023.0159886793737" width="89.0671777047839" height="2" fill="#ff6b35" opacity="0.04329783997109575" rx="1"/><rect x="1179.1316058996906" y="1031.8690659831905" width="38.409644583801196" height="2" fill="#ff6b35" opacity="0.027988570641723595" rx="1"/><rect x="794.4950046004949" y="1031.132285308822" width="59.006850737847124" height="2" fill="#ff6b35" opacity="0.05649425117217337" rx="1"/><rect x="1530.9853000033147" y="1003.5632421317425" width="36.54607225594718" height="2" fill="#ff6b35" opacity="0.04179231020198025" rx="1"/><rect x="165.84147337960113" y="1053.114702234304" width="20.812654569934274" height="2" fill="#ff6b35" opacity="0.04678413667408381" rx="1"/><text x="1900" y="1060" font-family="Arial, sans-serif" font-size="11" fill="#fff" opacity="0.08" text-anchor="end" letter-spacing="2">GTA 6 REWARDS · WALLPAPER 022</text>
</svg>