<?xml version="1.0" encoding="UTF-8"?>
<svg xmlns="http://www.w3.org/2000/svg" width="1920" height="1080" viewBox="0 0 1920 1080">
<defs>
    <linearGradient id="bg67" x1="0%" y1="0%" x2="0%" y2="100%">
      <stop offset="0%" stop-color="#03045e"/>
      <stop offset="50%" stop-color="#00002b"/>
      <stop offset="100%" stop-color="#03045e"/>
    </linearGradient>
    <linearGradient id="sun67" x1="0%" y1="0%" x2="100%" y2="100%">
      <stop offset="0%" stop-color="#00b4d8"/>
      <stop offset="100%" stop-color="#0077b6"/>
    </linearGradient>
    <radialGradient id="glow67" cx="50%" cy="70%" r="50%">
      <stop offset="0%" stop-color="#00b4d8" stop-opacity="0.3"/>
      <stop offset="100%" stop-color="#03045e" stop-opacity="0"/>
    </radialGradient>
  </defs><rect width="1920" height="1080" fill="url(#bg67)"/><circle cx="815.8056088992873" cy="428.0193129153967" r="736.9261049285825" fill="#00b4d8" opacity="0.08204166952800976"/><circle cx="1015.8056088992873" cy="328.0193129153967" r="551.9313903413554" fill="#0077b6" opacity="0.09126766135014307"/><circle cx="1132.5182971620275" cy="192.3745894670427" r="75.67147884882789" fill="url(#sun67)" opacity="0.7815889352424045"/><circle cx="1132.5182971620275" cy="192.3745894670427" r="70.67147884882789" fill="#03045e" opacity="0.3"/><line x1="0" y1="0" x2="0" y2="1080" stroke="#00b4d8" stroke-opacity="0.042217898744209184" stroke-width="0.5"/><line x1="72" y1="0" x2="72" y2="1080" stroke="#00b4d8" stroke-opacity="0.042217898744209184" stroke-width="0.5"/><line x1="144" y1="0" x2="144" y2="1080" stroke="#00b4d8" stroke-opacity="0.042217898744209184" stroke-width="0.5"/><line x1="216" y1="0" x2="216" y2="1080" stroke="#00b4d8" stroke-opacity="0.042217898744209184" stroke-width="0.5"/><line x1="288" y1="0" x2="288" y2="1080" stroke="#00b4d8" stroke-opacity="0.042217898744209184" stroke-width="0.5"/><line x1="360" y1="0" x2="360" y2="1080" stroke="#00b4d8" stroke-opacity="0.042217898744209184" stroke-width="0.5"/><line x1="432" y1="0" x2="432" y2="1080" stroke="#00b4d8" stroke-opacity="0.042217898744209184" stroke-width="0.5"/><line x1="504" y1="0" x2="504" y2="1080" stroke="#00b4d8" stroke-opacity="0.042217898744209184" stroke-width="0.5"/><line x1="576" y1="0" x2="576" y2="1080" stroke="#00b4d8" stroke-opacity="0.042217898744209184" stroke-width="0.5"/><line x1="648" y1="0" x2="648" y2="1080" stroke="#00b4d8" stroke-opacity="0.042217898744209184" stroke-width="0.5"/><line x1="720" y1="0" x2="720" y2="1080" stroke="#00b4d8" stroke-opacity="0.042217898744209184" stroke-width="0.5"/><line x1="792" y1="0" x2="792" y2="1080" stroke="#00b4d8" stroke-opacity="0.042217898744209184" stroke-width="0.5"/><line x1="864" y1="0" x2="864" y2="1080" stroke="#00b4d8" stroke-opacity="0.042217898744209184" stroke-width="0.5"/><line x1="936" y1="0" x2="936" y2="1080" stroke="#00b4d8" stroke-opacity="0.042217898744209184" stroke-width="0.5"/><line x1="1008" y1="0" x2="1008" y2="1080" stroke="#00b4d8" stroke-opacity="0.042217898744209184" stroke-width="0.5"/><line x1="1080" y1="0" x2="1080" y2="1080" stroke="#00b4d8" stroke-opacity="0.042217898744209184" stroke-width="0.5"/><line x1="1152" y1="0" x2="1152" y2="1080" stroke="#00b4d8" stroke-opacity="0.042217898744209184" stroke-width="0.5"/><line x1="1224" y1="0" x2="1224" y2="1080" stroke="#00b4d8" stroke-opacity="0.042217898744209184" stroke-width="0.5"/><line x1="1296" y1="0" x2="1296" y2="1080" stroke="#00b4d8" stroke-opacity="0.042217898744209184" stroke-width="0.5"/><line x1="1368" y1="0" x2="1368" y2="1080" stroke="#00b4d8" stroke-opacity="0.042217898744209184" stroke-width="0.5"/><line x1="1440" y1="0" x2="1440" y2="1080" stroke="#00b4d8" stroke-opacity="0.042217898744209184" stroke-width="0.5"/><line x1="1512" y1="0" x2="1512" y2="1080" stroke="#00b4d8" stroke-opacity="0.042217898744209184" stroke-width="0.5"/><line x1="1584" y1="0" x2="1584" y2="1080" stroke="#00b4d8" stroke-opacity="0.042217898744209184" stroke-width="0.5"/><line x1="1656" y1="0" x2="1656" y2="1080" stroke="#00b4d8" stroke-opacity="0.042217898744209184" stroke-width="0.5"/><line x1="1728" y1="0" x2="1728" y2="1080" stroke="#00b4d8" stroke-opacity="0.042217898744209184" stroke-width="0.5"/><line x1="1800" y1="0" x2="1800" y2="1080" stroke="#00b4d8" stroke-opacity="0.042217898744209184" stroke-width="0.5"/><line x1="1872" y1="0" x2="1872" y2="1080" stroke="#00b4d8" stroke-opacity="0.042217898744209184" stroke-width="0.5"/><line x1="0" y1="0" x2="1920" y2="0" stroke="#00b4d8" stroke-opacity="0.042217898744209184" stroke-width="0.5"/><line x1="0" y1="72" x2="1920" y2="72" stroke="#00b4d8" stroke-opacity="0.042217898744209184" stroke-width="0.5"/><line x1="0" y1="144" x2="1920" y2="144" stroke="#00b4d8" stroke-opacity="0.042217898744209184" stroke-width="0.5"/><line x1="0" y1="216" x2="1920" y2="216" stroke="#00b4d8" stroke-opacity="0.042217898744209184" stroke-width="0.5"/><line x1="0" y1="288" x2="1920" y2="288" stroke="#00b4d8" stroke-opacity="0.042217898744209184" stroke-width="0.5"/><line x1="0" y1="360" x2="1920" y2="360" stroke="#00b4d8" stroke-opacity="0.042217898744209184" stroke-width="0.5"/><line x1="0" y1="432" x2="1920" y2="432" stroke="#00b4d8" stroke-opacity="0.042217898744209184" stroke-width="0.5"/><line x1="0" y1="504" x2="1920" y2="504" stroke="#00b4d8" stroke-opacity="0.042217898744209184" stroke-width="0.5"/><line x1="0" y1="576" x2="1920" y2="576" stroke="#00b4d8" stroke-opacity="0.042217898744209184" stroke-width="0.5"/><line x1="0" y1="648" x2="1920" y2="648" stroke="#00b4d8" stroke-opacity="0.042217898744209184" stroke-width="0.5"/><line x1="0" y1="720" x2="1920" y2="720" stroke="#00b4d8" stroke-opacity="0.042217898744209184" stroke-width="0.5"/><line x1="0" y1="792" x2="1920" y2="792" stroke="#00b4d8" stroke-opacity="0.042217898744209184" stroke-width="0.5"/><line x1="0" y1="864" x2="1920" y2="864" stroke="#00b4d8" stroke-opacity="0.042217898744209184" stroke-width="0.5"/><line x1="0" y1="936" x2="1920" y2="936" stroke="#00b4d8" stroke-opacity="0.042217898744209184" stroke-width="0.5"/><line x1="0" y1="1008" x2="1920" y2="1008" stroke="#00b4d8" stroke-opacity="0.042217898744209184" stroke-width="0.5"/><rect x="0" y="1000" width="1920" height="80" fill="#000038" opacity="0.8"/><line x1="0" y1="1040" x2="1920" y2="1040" stroke="#0077b6" stroke-opacity="0.15" stroke-width="2" stroke-dasharray="30,20"/><rect x="0" y="930" width="1920" height="150" fill="url(#glow67)"/><text x="1900" y="1060" font-family="Arial, sans-serif" font-size="11" fill="#fff" opacity="0.08" text-anchor="end" letter-spacing="2">GTA 6 REWARDS · WALLPAPER 068</text>
</svg>