<?xml version="1.0" encoding="UTF-8"?>
<svg xmlns="http://www.w3.org/2000/svg" width="1920" height="1080" viewBox="0 0 1920 1080">
<defs>
    <linearGradient id="bg80" x1="0%" y1="0%" x2="0%" y2="100%">
      <stop offset="0%" stop-color="#1a0533"/>
      <stop offset="50%" stop-color="#000000"/>
      <stop offset="100%" stop-color="#1a0533"/>
    </linearGradient>
    <linearGradient id="sun80" x1="0%" y1="0%" x2="100%" y2="100%">
      <stop offset="0%" stop-color="#ff0066"/>
      <stop offset="100%" stop-color="#00ccff"/>
    </linearGradient>
    <radialGradient id="glow80" cx="50%" cy="70%" r="50%">
      <stop offset="0%" stop-color="#ff0066" stop-opacity="0.3"/>
      <stop offset="100%" stop-color="#1a0533" stop-opacity="0"/>
    </radialGradient>
  </defs><rect width="1920" height="1080" fill="url(#bg80)"/><circle cx="1153.6646198606268" cy="495.74410745309297" r="630.5517378334309" fill="#ff0066" opacity="0.12594580631143082"/><circle cx="1353.6646198606268" cy="395.74410745309297" r="576.7883500961559" fill="#00ccff" opacity="0.10134918078113095"/><circle cx="320.25328344205707" cy="215.30791743782066" r="86.56092149823925" fill="url(#sun80)" opacity="0.78550922546664"/><circle cx="320.25328344205707" cy="215.30791743782066" r="81.56092149823925" fill="#1a0533" opacity="0.3"/><path d="M586.7752233023698 877.0076824298612 Q582.0246987794584 786.8575427941646 581.0745938748761 696.7074031584681" stroke="#000000" stroke-width="4.6269029231339" fill="none" stroke-linecap="round"/><path d="M581.0745938748761 696.7074031584681 Q620.3608923576215 676.7074031584681 633.7908085276817 696.7074031584681" stroke="#000000" stroke-width="2.75041548645832" fill="none" stroke-linecap="round" opacity="0.6"/><path d="M581.0745938748761 696.7074031584681 Q613.9965274657536 683.3874873390453 616.589189671574 710.0675715196226" stroke="#000000" stroke-width="2.7088716334451157" fill="none" stroke-linecap="round" opacity="0.6"/><path d="M581.0745938748761 696.7074031584681 Q592.3520995216218 686.3469921041776 566.4067720571319 715.9865810498871" stroke="#000000" stroke-width="3.077896373597415" fill="none" stroke-linecap="round" opacity="0.6"/><path d="M581.0745938748761 696.7074031584681 Q564.9120832725685 679.051012210216 548.6308982671767 701.3946212619637" stroke="#000000" stroke-width="2.874929810612213" fill="none" stroke-linecap="round" opacity="0.6"/><path d="M581.0745938748761 696.7074031584681 Q548.5513680518156 671.5613356652714 509.8351321560206 686.4152681720747" stroke="#000000" stroke-width="2.208280955024129" fill="none" stroke-linecap="round" opacity="0.6"/><path d="M1426.1464153570464 793.7556470962604 Q1443.8923620395112 670.2360863728068 1447.441551376004 546.7165256493531" stroke="#000000" stroke-width="5.0786453618385465" fill="none" stroke-linecap="round"/><path d="M1447.441551376004 546.7165256493531 Q1490.604471985624 526.7165256493531 1524.1184768867954 546.7165256493531" stroke="#000000" stroke-width="3.8285697241845935" fill="none" stroke-linecap="round" opacity="0.6"/><path d="M1447.441551376004 546.7165256493531 Q1476.8807903187858 535.6868898254052 1495.1323961692412 564.6572540014573" stroke="#000000" stroke-width="2.1464677062226616" fill="none" stroke-linecap="round" opacity="0.6"/><path d="M1447.441551376004 546.7165256493531 Q1439.8922456314383 537.3311167118542 1431.290143753765 567.9457077743552" stroke="#000000" stroke-width="3.3010403530907446" fill="none" stroke-linecap="round" opacity="0.6"/><path d="M1447.441551376004 546.7165256493531 Q1426.1972473260146 530.9213691816842 1389.2319009485075 555.1262127140154" stroke="#000000" stroke-width="2.0187596879011855" fill="none" stroke-linecap="round" opacity="0.6"/><path d="M1447.441551376004 546.7165256493531 Q1443.9410206277914 523.6321824998897 1404.7435210811234 540.5478393504262" stroke="#000000" stroke-width="3.5657873022290385" fill="none" stroke-linecap="round" opacity="0.6"/><path d="M1447.441551376004 546.7165256493531 Q1459.4395985357135 519.0293462735128 1435.7445611826568 531.3421668976725" stroke="#000000" stroke-width="2.4327255004161796" fill="none" stroke-linecap="round" opacity="0.6"/><path d="M1461.3182230715915 787.434016980099 Q1463.5981403485869 698.76897875773 1464.054123803986 610.103940535361" stroke="#000000" stroke-width="6.7377410816815075" fill="none" stroke-linecap="round"/><path d="M1464.054123803986 610.103940535361 Q1502.3162225832505 590.103940535361 1530.5415224117557 610.103940535361" stroke="#000000" stroke-width="2.3158367784497877" fill="none" stroke-linecap="round" opacity="0.6"/><path d="M1464.054123803986 610.103940535361 Q1484.9595180450979 596.8105069670294 1499.70951220417 623.5170733986979" stroke="#000000" stroke-width="2.8334911309260624" fill="none" stroke-linecap="round" opacity="0.6"/><path d="M1464.054123803986 610.103940535361 Q1461.8347662834567 599.3347681594526 1450.0082826811908 628.5655957835443" stroke="#000000" stroke-width="3.5911087006309788" fill="none" stroke-linecap="round" opacity="0.6"/><path d="M1464.054123803986 610.103940535361 Q1439.686563835848 594.7968612033828 1399.0877892735602 619.4897818714046" stroke="#000000" stroke-width="3.489110492982229" fill="none" stroke-linecap="round" opacity="0.6"/><path d="M1464.054123803986 610.103940535361 Q1448.1131649710721 586.3919056382839 1412.6666578799613 602.6798707412069" stroke="#000000" stroke-width="2.91191162283344" fill="none" stroke-linecap="round" opacity="0.6"/><path d="M166.2057777136112 955.3641734773676 Q171.3840978945103 859.1152022381116 172.4197619306901 762.8662309988556" stroke="#000000" stroke-width="6.786475004345755" fill="none" stroke-linecap="round"/><path d="M172.4197619306901 762.8662309988556 Q205.33636633873368 742.8662309988556 209.04050433613372 762.8662309988556" stroke="#000000" stroke-width="2.6816686840452415" fill="none" stroke-linecap="round" opacity="0.6"/><path d="M172.4197619306901 762.8662309988556 Q194.6640068139322 747.2827956472133 195.90038044631766 771.6993602955712" stroke="#000000" stroke-width="3.7160443099485816" fill="none" stroke-linecap="round" opacity="0.6"/><path d="M172.4197619306901 762.8662309988556 Q170.0715985452322 754.4494826437248 154.79441792962103 786.0327342885939" stroke="#000000" stroke-width="3.4903563641687754" fill="none" stroke-linecap="round" opacity="0.6"/><path d="M172.4197619306901 762.8662309988556 Q160.4643947416417 745.1238797270669 141.1660559968576 767.381528455278" stroke="#000000" stroke-width="2.789792712961741" fill="none" stroke-linecap="round" opacity="0.6"/><path d="M172.4197619306901 762.8662309988556 Q168.86018587403308 739.8932783422734 131.26376324809382 756.9203256856913" stroke="#000000" stroke-width="2.537262304811101" fill="none" stroke-linecap="round" opacity="0.6"/><line x1="0" y1="0" x2="0" y2="1080" stroke="#ff0066" stroke-opacity="0.067644091341096" stroke-width="0.5"/><line x1="70" y1="0" x2="70" y2="1080" stroke="#ff0066" stroke-opacity="0.067644091341096" stroke-width="0.5"/><line x1="140" y1="0" x2="140" y2="1080" stroke="#ff0066" stroke-opacity="0.067644091341096" stroke-width="0.5"/><line x1="210" y1="0" x2="210" y2="1080" stroke="#ff0066" stroke-opacity="0.067644091341096" stroke-width="0.5"/><line x1="280" y1="0" x2="280" y2="1080" stroke="#ff0066" stroke-opacity="0.067644091341096" stroke-width="0.5"/><line x1="350" y1="0" x2="350" y2="1080" stroke="#ff0066" stroke-opacity="0.067644091341096" stroke-width="0.5"/><line x1="420" y1="0" x2="420" y2="1080" stroke="#ff0066" stroke-opacity="0.067644091341096" stroke-width="0.5"/><line x1="490" y1="0" x2="490" y2="1080" stroke="#ff0066" stroke-opacity="0.067644091341096" stroke-width="0.5"/><line x1="560" y1="0" x2="560" y2="1080" stroke="#ff0066" stroke-opacity="0.067644091341096" stroke-width="0.5"/><line x1="630" y1="0" x2="630" y2="1080" stroke="#ff0066" stroke-opacity="0.067644091341096" stroke-width="0.5"/><line x1="700" y1="0" x2="700" y2="1080" stroke="#ff0066" stroke-opacity="0.067644091341096" stroke-width="0.5"/><line x1="770" y1="0" x2="770" y2="1080" stroke="#ff0066" stroke-opacity="0.067644091341096" stroke-width="0.5"/><line x1="840" y1="0" x2="840" y2="1080" stroke="#ff0066" stroke-opacity="0.067644091341096" stroke-width="0.5"/><line x1="910" y1="0" x2="910" y2="1080" stroke="#ff0066" stroke-opacity="0.067644091341096" stroke-width="0.5"/><line x1="980" y1="0" x2="980" y2="1080" stroke="#ff0066" stroke-opacity="0.067644091341096" stroke-width="0.5"/><line x1="1050" y1="0" x2="1050" y2="1080" stroke="#ff0066" stroke-opacity="0.067644091341096" stroke-width="0.5"/><line x1="1120" y1="0" x2="1120" y2="1080" stroke="#ff0066" stroke-opacity="0.067644091341096" stroke-width="0.5"/><line x1="1190" y1="0" x2="1190" y2="1080" stroke="#ff0066" stroke-opacity="0.067644091341096" stroke-width="0.5"/><line x1="1260" y1="0" x2="1260" y2="1080" stroke="#ff0066" stroke-opacity="0.067644091341096" stroke-width="0.5"/><line x1="1330" y1="0" x2="1330" y2="1080" stroke="#ff0066" stroke-opacity="0.067644091341096" stroke-width="0.5"/><line x1="1400" y1="0" x2="1400" y2="1080" stroke="#ff0066" stroke-opacity="0.067644091341096" stroke-width="0.5"/><line x1="1470" y1="0" x2="1470" y2="1080" stroke="#ff0066" stroke-opacity="0.067644091341096" stroke-width="0.5"/><line x1="1540" y1="0" x2="1540" y2="1080" stroke="#ff0066" stroke-opacity="0.067644091341096" stroke-width="0.5"/><line x1="1610" y1="0" x2="1610" y2="1080" stroke="#ff0066" stroke-opacity="0.067644091341096" stroke-width="0.5"/><line x1="1680" y1="0" x2="1680" y2="1080" stroke="#ff0066" stroke-opacity="0.067644091341096" stroke-width="0.5"/><line x1="1750" y1="0" x2="1750" y2="1080" stroke="#ff0066" stroke-opacity="0.067644091341096" stroke-width="0.5"/><line x1="1820" y1="0" x2="1820" y2="1080" stroke="#ff0066" stroke-opacity="0.067644091341096" stroke-width="0.5"/><line x1="1890" y1="0" x2="1890" y2="1080" stroke="#ff0066" stroke-opacity="0.067644091341096" stroke-width="0.5"/><line x1="0" y1="0" x2="1920" y2="0" stroke="#ff0066" stroke-opacity="0.067644091341096" stroke-width="0.5"/><line x1="0" y1="70" x2="1920" y2="70" stroke="#ff0066" stroke-opacity="0.067644091341096" stroke-width="0.5"/><line x1="0" y1="140" x2="1920" y2="140" stroke="#ff0066" stroke-opacity="0.067644091341096" stroke-width="0.5"/><line x1="0" y1="210" x2="1920" y2="210" stroke="#ff0066" stroke-opacity="0.067644091341096" stroke-width="0.5"/><line x1="0" y1="280" x2="1920" y2="280" stroke="#ff0066" stroke-opacity="0.067644091341096" stroke-width="0.5"/><line x1="0" y1="350" x2="1920" y2="350" stroke="#ff0066" stroke-opacity="0.067644091341096" stroke-width="0.5"/><line x1="0" y1="420" x2="1920" y2="420" stroke="#ff0066" stroke-opacity="0.067644091341096" stroke-width="0.5"/><line x1="0" y1="490" x2="1920" y2="490" stroke="#ff0066" stroke-opacity="0.067644091341096" stroke-width="0.5"/><line x1="0" y1="560" x2="1920" y2="560" stroke="#ff0066" stroke-opacity="0.067644091341096" stroke-width="0.5"/><line x1="0" y1="630" x2="1920" y2="630" stroke="#ff0066" stroke-opacity="0.067644091341096" stroke-width="0.5"/><line x1="0" y1="700" x2="1920" y2="700" stroke="#ff0066" stroke-opacity="0.067644091341096" stroke-width="0.5"/><line x1="0" y1="770" x2="1920" y2="770" stroke="#ff0066" stroke-opacity="0.067644091341096" stroke-width="0.5"/><line x1="0" y1="840" x2="1920" y2="840" stroke="#ff0066" stroke-opacity="0.067644091341096" stroke-width="0.5"/><line x1="0" y1="910" x2="1920" y2="910" stroke="#ff0066" stroke-opacity="0.067644091341096" stroke-width="0.5"/><line x1="0" y1="980" x2="1920" y2="980" stroke="#ff0066" stroke-opacity="0.067644091341096" stroke-width="0.5"/><line x1="0" y1="1050" x2="1920" y2="1050" stroke="#ff0066" stroke-opacity="0.067644091341096" stroke-width="0.5"/><rect x="0" y="1000" width="1920" height="80" fill="#00000d" opacity="0.8"/><line x1="0" y1="1040" x2="1920" y2="1040" stroke="#00ccff" stroke-opacity="0.15" stroke-width="2" stroke-dasharray="30,20"/><rect x="0" y="930" width="1920" height="150" fill="url(#glow80)"/><text x="1900" y="1060" font-family="Arial, sans-serif" font-size="11" fill="#fff" opacity="0.08" text-anchor="end" letter-spacing="2">GTA 6 REWARDS · WALLPAPER 081</text>
</svg>