<?xml version="1.0" encoding="UTF-8"?>
<svg xmlns="http://www.w3.org/2000/svg" width="1920" height="1080" viewBox="0 0 1920 1080">
<defs>
    <linearGradient id="bg57" x1="0%" y1="0%" x2="0%" y2="100%">
      <stop offset="0%" stop-color="#2d1600"/>
      <stop offset="50%" stop-color="#000000"/>
      <stop offset="100%" stop-color="#2d1600"/>
    </linearGradient>
    <linearGradient id="sun57" x1="0%" y1="0%" x2="100%" y2="100%">
      <stop offset="0%" stop-color="#ff8700"/>
      <stop offset="100%" stop-color="#ff5e00"/>
    </linearGradient>
    <radialGradient id="glow57" cx="50%" cy="70%" r="50%">
      <stop offset="0%" stop-color="#ff8700" stop-opacity="0.3"/>
      <stop offset="100%" stop-color="#2d1600" stop-opacity="0"/>
    </radialGradient>
  </defs><rect width="1920" height="1080" fill="url(#bg57)"/><circle cx="543.4296361737488" cy="255.5913006084951" r="789.0305656681373" fill="#ff8700" opacity="0.09667171981341013"/><circle cx="743.4296361737488" cy="155.5913006084951" r="521.0784575252511" fill="#ff5e00" opacity="0.06914200518725952"/><circle cx="896.7813015442298" cy="284.1037221332322" r="80.61202905620729" fill="url(#sun57)" opacity="0.764116962362108"/><circle cx="896.7813015442298" cy="284.1037221332322" r="75.61202905620729" fill="#2d1600" opacity="0.3"/><pattern id="scan57" width="1920" height="4" patternUnits="userSpaceOnUse">
      <line x1="0" y1="0" x2="1920" y2="0" stroke="#000" stroke-opacity="0.05" stroke-width="1"/>
    </pattern>
    <rect width="1920" height="1080" fill="url(#scan57)"/><rect x="24.543250737372613" y="771.0531946204261" width="75.59610967654645" height="182.82565020090567" fill="#130000" opacity="0.6046902733633039" rx="2"/><rect x="56.38690147022412" y="781.0531946204261" width="11.908808210843432" height="8.912137830376658" fill="#ff5e00" opacity="0.345036365987043" rx="1"/><rect x="37.48787405108751" y="785.5092635356144" width="11.908808210843432" height="8.912137830376658" fill="#ff8700" opacity="0.1725181829935215" rx="1"/><rect x="60.117466752677565" y="803.9064008955393" width="4.447677645936533" height="7.724590076535146" fill="#ff5e00" opacity="0.4477346842055523" rx="1"/><rect x="41.21843933354096" y="807.7686959338068" width="4.447677645936533" height="7.724590076535146" fill="#ff8700" opacity="0.22386734210277615" rx="1"/><rect x="59.48615327209377" y="826.7596071706525" width="5.710304607104115" height="8.51725617109734" fill="#ff5e00" opacity="0.1983540084209186" rx="1"/><rect x="40.587125852957165" y="831.0182352562013" width="5.710304607104115" height="8.51725617109734" fill="#ff8700" opacity="0.0991770042104593" rx="1"/><rect x="59.62329258877395" y="849.6128134457657" width="5.4360259737437655" height="8.346468930679016" fill="#ff5e00" opacity="0.5008189128713726" rx="1"/><rect x="40.72426516963734" y="853.7860479111052" width="5.4360259737437655" height="8.346468930679016" fill="#ff8700" opacity="0.2504094564356863" rx="1"/><rect x="60.227692362206916" y="872.4660197208789" width="4.227226426877833" height="6.797081324457443" fill="#ff5e00" opacity="0.4013094146273354" rx="1"/><rect x="41.32866494307031" y="875.8645603831076" width="4.227226426877833" height="6.797081324457443" fill="#ff8700" opacity="0.2006547073136677" rx="1"/><rect x="58.55860488851522" y="895.3192259959922" width="7.565401374261221" height="6.826544717146676" fill="#ff5e00" opacity="0.4231469207264359" rx="1"/><rect x="39.65957746937862" y="898.7324983545655" width="7.565401374261221" height="6.826544717146676" fill="#ff8700" opacity="0.21157346036321795" rx="1"/><rect x="58.61271019270939" y="918.1724322711053" width="7.457190765872875" height="7.66406567433478" fill="#ff5e00" opacity="0.21468205976176125" rx="1"/><rect x="39.713682773572785" y="922.0044651082727" width="7.457190765872875" height="7.66406567433478" fill="#ff8700" opacity="0.10734102988088062" rx="1"/><rect x="57.8237086475882" y="941.0256385462185" width="9.035193856115265" height="9.8042284473321" fill="#ff5e00" opacity="0.20683755276418236" rx="1"/><rect x="38.92468122845159" y="945.9277527698846" width="9.035193856115265" height="9.8042284473321" fill="#ff8700" opacity="0.10341877638209118" rx="1"/><rect x="109.07149720915395" y="750.987573818068" width="83.24097711435542" height="202.89127100326382" fill="#2d1600" opacity="0.6659446469661652" rx="2"/><rect x="147.65718851300355" y="760.987573818068" width="6.069594506656191" height="9.7992606553713" fill="#ff5e00" opacity="0.11628981868650062" rx="1"/><rect x="126.8469442344147" y="765.8872041457536" width="6.069594506656191" height="9.7992606553713" fill="#ff8700" opacity="0.05814490934325031" rx="1"/><rect x="146.02322706603985" y="786.3489826934759" width="9.337517400583605" height="8.425975838309615" fill="#ff5e00" opacity="0.19583410681128366" rx="1"/><rect x="125.212982787451" y="790.5619706126307" width="9.337517400583605" height="8.425975838309615" fill="#ff8700" opacity="0.09791705340564183" rx="1"/><rect x="147.48236269934156" y="811.7103915688839" width="6.419246133980166" height="6.230586882734342" fill="#ff5e00" opacity="0.39738894798732105" rx="1"/><rect x="126.67211842075272" y="814.825685010251" width="6.419246133980166" height="6.230586882734342" fill="#ff8700" opacity="0.19869447399366053" rx="1"/><rect x="145.12427441871822" y="837.071800444292" width="11.135422695226833" height="7.791829255826731" fill="#ff5e00" opacity="0.29631107319060507" rx="1"/><rect x="124.31403014012939" y="840.9677150722054" width="11.135422695226833" height="7.791829255826731" fill="#ff8700" opacity="0.14815553659530253" rx="1"/><rect x="145.02594374027706" y="862.4332093196999" width="11.33208405210918" height="6.463035970102771" fill="#ff5e00" opacity="0.223560855310308" rx="1"/><rect x="124.21569946168822" y="865.6647273047513" width="11.33208405210918" height="6.463035970102771" fill="#ff8700" opacity="0.111780427655154" rx="1"/><rect x="144.98679179139125" y="887.7946181951079" width="11.410387949880768" height="7.50531665922732" fill="#ff5e00" opacity="0.4621154781109922" rx="1"/><rect x="124.17654751280241" y="891.5472765247215" width="11.410387949880768" height="7.50531665922732" fill="#ff8700" opacity="0.2310577390554961" rx="1"/><rect x="146.9903555926844" y="913.1560270705158" width="7.403260347294449" height="6.922982701315307" fill="#ff5e00" opacity="0.41112396293578757" rx="1"/><rect x="126.18011131409557" y="916.6175184211735" width="7.403260347294449" height="6.922982701315307" fill="#ff8700" opacity="0.20556198146789378" rx="1"/><rect x="148.5505500006374" y="938.5174359459238" width="4.2828715313884596" height="6.271744050148815" fill="#ff5e00" opacity="0.2905818226958117" rx="1"/><rect x="127.74030572204857" y="941.6533079709982" width="4.2828715313884596" height="6.271744050148815" fill="#ff8700" opacity="0.14529091134790584" rx="1"/><rect x="224.01999119064303" y="615.543347880138" width="63.700235321582355" height="338.3354969411938" fill="#130000" opacity="0.6088604738025136" rx="2"/><rect x="252.832170494793" y="625.543347880138" width="6.075876713282399" height="8.413661542910539" fill="#ff5e00" opacity="0.1728743737733165" rx="1"/><rect x="236.9071116643974" y="629.7501786515933" width="6.075876713282399" height="8.413661542910539" fill="#ff8700" opacity="0.08643718688665825" rx="1"/><rect x="253.56987751940494" y="693.2104472683767" width="4.60046266405854" height="9.87777716570482" fill="#ff5e00" opacity="0.46384331676267165" rx="1"/><rect x="237.64481868900936" y="698.1493358512291" width="4.60046266405854" height="9.87777716570482" fill="#ff8700" opacity="0.23192165838133583" rx="1"/><rect x="251.17843894059266" y="760.8775466566156" width="9.383339821683089" height="8.80562760559973" fill="#ff5e00" opacity="0.43074899479531426" rx="1"/><rect x="235.25338011019707" y="765.2803604594154" width="9.383339821683089" height="8.80562760559973" fill="#ff8700" opacity="0.21537449739765713" rx="1"/><rect x="250.0959922860134" y="828.5446460448543" width="11.54823313084157" height="8.241885941997609" fill="#ff5e00" opacity="0.2797362541965526" rx="1"/><rect x="234.1709334556178" y="832.6655890158531" width="11.54823313084157" height="8.241885941997609" fill="#ff8700" opacity="0.1398681270982763" rx="1"/><rect x="252.55779441622033" y="896.211745433093" width="6.624628870427754" height="6.301491929288369" fill="#ff5e00" opacity="0.26133989374184513" rx="1"/><rect x="236.63273558582475" y="899.3624913977372" width="6.624628870427754" height="6.301491929288369" fill="#ff8700" opacity="0.13066994687092257" rx="1"/><rect x="343.34243760056387" y="713.7506474539989" width="42.01910184044836" height="240.12819736733292" fill="#2d1600" opacity="0.4853956965695591" rx="2"/><rect x="359.5108813453724" y="723.7506474539989" width="9.682214350831279" height="6.0805366784521695" fill="#ff5e00" opacity="0.15333238492098927" rx="1"/><rect x="349.00610588526035" y="726.7909157932249" width="9.682214350831279" height="6.0805366784521695" fill="#ff8700" opacity="0.07666619246049464" rx="1"/><rect x="360.5530217829051" y="803.7933799097766" width="7.597933475765849" height="7.45196191348414" fill="#ff5e00" opacity="0.5488333900107148" rx="1"/><rect x="350.04824632279303" y="807.5193608665187" width="7.597933475765849" height="7.45196191348414" fill="#ff8700" opacity="0.2744166950053574" rx="1"/><rect x="361.9111007975673" y="883.8361123655542" width="4.881775446441438" height="9.76585396466913" fill="#ff5e00" opacity="0.500688958796833" rx="1"/><rect x="351.40632533745526" y="888.7190393478887" width="4.881775446441438" height="9.76585396466913" fill="#ff8700" opacity="0.2503444793984165" rx="1"/><rect x="447.24613988940746" y="683.8182131722147" width="39.706558643306266" height="270.0606316491171" fill="#2d1600" opacity="0.6029016013496792" rx="2"/><rect x="462.494468643678" y="693.8182131722147" width="9.209901134765218" height="6.183845615057239" fill="#ff5e00" opacity="0.3481834662026222" rx="1"/><rect x="452.56782898285144" y="696.9101359797432" width="9.209901134765218" height="6.183845615057239" fill="#ff8700" opacity="0.1740917331013111" rx="1"/><rect x="462.4731534098911" y="761.3333710844939" width="9.252531602339012" height="6.862116674162009" fill="#ff5e00" opacity="0.43851375357213285" rx="1"/><rect x="452.54651374906456" y="764.764429421575" width="9.252531602339012" height="6.862116674162009" fill="#ff8700" opacity="0.21925687678606642" rx="1"/><rect x="465.01548608299703" y="828.8485289967732" width="4.167866256127103" height="9.934319014645721" fill="#ff5e00" opacity="0.3845595507613755" rx="1"/><rect x="455.0888464221705" y="833.8156885040961" width="4.167866256127103" height="9.934319014645721" fill="#ff8700" opacity="0.19227977538068775" rx="1"/><rect x="464.6822925907751" y="896.3636869090525" width="4.83425324057095" height="9.667423223067871" fill="#ff5e00" opacity="0.23171976947498504" rx="1"/><rect x="454.75565292994855" y="901.1973985205864" width="4.83425324057095" height="9.667423223067871" fill="#ff8700" opacity="0.11585988473749252" rx="1"/><rect x="541.2899956948334" y="720.7904418978818" width="86.24710899690331" height="233.08840292345" fill="#2d1600" opacity="0.4634251946731064" rx="2"/><rect x="578.9809325328052" y="730.7904418978818" width="10.865235320959528" height="9.848562316002456" fill="#ff5e00" opacity="0.18517123481379152" rx="1"/><rect x="557.4191552835794" y="735.714723055883" width="10.865235320959528" height="9.848562316002456" fill="#ff8700" opacity="0.09258561740689576" rx="1"/><rect x="578.7663239743016" y="759.9264922633131" width="11.2944524379667" height="9.71803043403617" fill="#ff5e00" opacity="0.13673001822008055" rx="1"/><rect x="557.2045467250757" y="764.7855074803311" width="11.2944524379667" height="9.71803043403617" fill="#ff8700" opacity="0.06836500911004027" rx="1"/><rect x="580.2566110308414" y="789.0625426287443" width="8.31387832488722" height="8.192713399928229" fill="#ff5e00" opacity="0.16670879725523033" rx="1"/><rect x="558.6948337816156" y="793.1588993287083" width="8.31387832488722" height="8.192713399928229" fill="#ff8700" opacity="0.08335439862761516" rx="1"/><rect x="578.7689210427387" y="818.1985929941756" width="11.289258301092605" height="6.418620987892761" fill="#ff5e00" opacity="0.222116266545401" rx="1"/><rect x="557.2071437935128" y="821.407903488122" width="11.289258301092605" height="6.418620987892761" fill="#ff8700" opacity="0.1110581332727005" rx="1"/><rect x="581.2308045537749" y="847.3346433596068" width="6.365491279020322" height="7.290711854885032" fill="#ff5e00" opacity="0.30496978825073917" rx="1"/><rect x="559.669027304549" y="850.9799992870494" width="6.365491279020322" height="7.290711854885032" fill="#ff8700" opacity="0.15248489412536959" rx="1"/><rect x="578.8472123387845" y="876.470693725038" width="11.132675709000946" height="7.408129941999943" fill="#ff5e00" opacity="0.45351314694935296" rx="1"/><rect x="557.2854350895586" y="880.174758696038" width="11.132675709000946" height="7.408129941999943" fill="#ff8700" opacity="0.22675657347467648" rx="1"/><rect x="581.3868561439185" y="905.6067440904693" width="6.053388098732892" height="9.567611791092812" fill="#ff5e00" opacity="0.127074850636319" rx="1"/><rect x="559.8250788946926" y="910.3905499860157" width="6.053388098732892" height="9.567611791092812" fill="#ff8700" opacity="0.0635374253181595" rx="1"/><rect x="580.7840427956041" y="934.7427944559006" width="7.2590147953617885" height="9.0452485752863" fill="#ff5e00" opacity="0.5967855106798898" rx="1"/><rect x="559.2222655463783" y="939.2654187435437" width="7.2590147953617885" height="9.0452485752863" fill="#ff8700" opacity="0.2983927553399449" rx="1"/><rect x="660.3843476368078" y="823.3692772508061" width="34.83873325512715" height="130.50956757052558" fill="#130000" opacity="0.44527533565305066" rx="2"/><rect x="675.5722961818269" y="833.3692772508061" width="4.4628361650888895" height="8.688759050026713" fill="#ff5e00" opacity="0.399300535535277" rx="1"/><rect x="666.8626128680451" y="837.7136567758195" width="4.4628361650888895" height="8.688759050026713" fill="#ff8700" opacity="0.1996502677676385" rx="1"/><rect x="673.0929407901347" y="865.9966691434375" width="9.42154694847333" height="7.015727546302538" fill="#ff5e00" opacity="0.4067698620275524" rx="1"/><rect x="664.3832574763528" y="869.5045329165888" width="9.42154694847333" height="7.015727546302538" fill="#ff8700" opacity="0.2033849310137762" rx="1"/><rect x="673.6045892524078" y="898.624061036069" width="8.398250023927133" height="6.916401591365319" fill="#ff5e00" opacity="0.3225188324746021" rx="1"/><rect x="664.8949059386259" y="902.0822618317516" width="8.398250023927133" height="6.916401591365319" fill="#ff8700" opacity="0.16125941623730106" rx="1"/><rect x="673.8717721427957" y="931.2514529287004" width="7.863884243151146" height="9.396083142467795" fill="#ff5e00" opacity="0.5698954500420707" rx="1"/><rect x="665.1620888290139" y="935.9494944999343" width="7.863884243151146" height="9.396083142467795" fill="#ff8700" opacity="0.2849477250210353" rx="1"/><rect x="771.7078470023599" y="597.1471162971918" width="64.40083176698555" height="356.73172852414" fill="#2d1600" opacity="0.6870538752030242" rx="2"/><rect x="801.352759738069" y="607.1471162971918" width="5.111006295567147" height="8.772370987285946" fill="#ff5e00" opacity="0.37469961374874683" rx="1"/><rect x="785.2525517963227" y="611.5333017908348" width="5.111006295567147" height="8.772370987285946" fill="#ff8700" opacity="0.18734980687437341" rx="1"/><rect x="799.7457124117634" y="658.1087918006403" width="8.325100948178466" height="7.003159021260952" fill="#ff5e00" opacity="0.35910312397384625" rx="1"/><rect x="783.645504470017" y="661.6103713112708" width="8.325100948178466" height="7.003159021260952" fill="#ff8700" opacity="0.17955156198692312" rx="1"/><rect x="800.2482117193862" y="709.070467304089" width="7.3201023329328985" height="6.621731061633148" fill="#ff5e00" opacity="0.2873545066191243" rx="1"/><rect x="784.1480037776398" y="712.3813328349056" width="7.3201023329328985" height="6.621731061633148" fill="#ff8700" opacity="0.14367725330956216" rx="1"/><rect x="800.714599213962" y="760.0321428075375" width="6.3873273437813225" height="6.616949594723282" fill="#ff5e00" opacity="0.1526603913290101" rx="1"/><rect x="784.6143912722156" y="763.3406176048992" width="6.3873273437813225" height="6.616949594723282" fill="#ff8700" opacity="0.07633019566450505" rx="1"/><rect x="800.9394237869277" y="810.9938183109862" width="5.937678197849933" height="9.215139963481375" fill="#ff5e00" opacity="0.3650379986187997" rx="1"/><rect x="784.8392158451813" y="815.6013882927268" width="5.937678197849933" height="9.215139963481375" fill="#ff8700" opacity="0.18251899930939985" rx="1"/><rect x="798.6379953919997" y="861.9554938144347" width="10.540534987705884" height="7.809318634171346" fill="#ff5e00" opacity="0.29782078911033943" rx="1"/><rect x="782.5377874502533" y="865.8601531315204" width="10.540534987705884" height="7.809318634171346" fill="#ff8700" opacity="0.14891039455516972" rx="1"/><rect x="800.426468915638" y="912.9171693178832" width="6.963587940429242" height="6.5563166953055925" fill="#ff5e00" opacity="0.4721028210995958" rx="1"/><rect x="784.3262609738916" y="916.1953276655361" width="6.963587940429242" height="6.5563166953055925" fill="#ff8700" opacity="0.2360514105497979" rx="1"/><rect x="879.1284431515094" y="769.5653868302622" width="80.05433273270128" height="184.31345799106953" fill="#130000" opacity="0.5062396101202442" rx="2"/><rect x="914.4572075687947" y="779.5653868302622" width="9.396803898130731" height="7.245990538328418" fill="#ff5e00" opacity="0.20480337313022545" rx="1"/><rect x="894.4436243856194" y="783.1883820994265" width="9.396803898130731" height="7.245990538328418" fill="#ff8700" opacity="0.10240168656511273" rx="1"/><rect x="915.9514158249253" y="816.4280784284762" width="6.408387385869489" height="6.7950664136547285" fill="#ff5e00" opacity="0.46538635226091984" rx="1"/><rect x="895.93783264175" y="819.8256116353035" width="6.408387385869489" height="6.7950664136547285" fill="#ff8700" opacity="0.23269317613045992" rx="1"/><rect x="913.8322263077907" y="853.2907700266901" width="10.646766420138713" height="6.461441581244916" fill="#ff5e00" opacity="0.28902604204812693" rx="1"/><rect x="893.8186431246154" y="856.5214908173126" width="10.646766420138713" height="6.461441581244916" fill="#ff8700" opacity="0.14451302102406346" rx="1"/><rect x="914.3906902790512" y="890.1534616249039" width="9.529838477617558" height="9.544243484629375" fill="#ff5e00" opacity="0.14981700134226517" rx="1"/><rect x="894.3771070958759" y="894.9255833672186" width="9.529838477617558" height="9.544243484629375" fill="#ff8700" opacity="0.07490850067113258" rx="1"/><rect x="915.6080284902379" y="927.0161532231178" width="7.095162055244474" height="6.522260788018411" fill="#ff5e00" opacity="0.29903095816239506" rx="1"/><rect x="895.5944453070625" y="930.2772836171271" width="7.095162055244474" height="6.522260788018411" fill="#ff8700" opacity="0.14951547908119753" rx="1"/><rect x="973.9078300921032" y="575.8302746750019" width="52.91503645081889" height="378.04857014632984" fill="#130000" opacity="0.5292947769466076" rx="2"/><rect x="995.3747089869283" y="585.8302746750019" width="9.981278661168478" height="6.379062693654341" fill="#ff5e00" opacity="0.17989227040202643" rx="1"/><rect x="982.1459498742237" y="589.019806021829" width="9.981278661168478" height="6.379062693654341" fill="#ff8700" opacity="0.08994613520101322" rx="1"/><rect x="995.0319757722392" y="711.8464647237785" width="10.666745090546726" height="9.916043201441887" fill="#ff5e00" opacity="0.15420189084350178" rx="1"/><rect x="981.8032166595345" y="716.8044863244994" width="10.666745090546726" height="9.916043201441887" fill="#ff8700" opacity="0.07710094542175089" rx="1"/><rect x="996.8041244572504" y="837.8626547725551" width="7.122447720524494" height="7.470672479241777" fill="#ff5e00" opacity="0.41940748910871506" rx="1"/><rect x="983.5753653445457" y="841.597991012176" width="7.122447720524494" height="7.470672479241777" fill="#ff8700" opacity="0.20970374455435753" rx="1"/><rect x="1088.5420266069802" y="673.1721340848999" width="64.3675977164804" height="280.70671073643183" fill="#2d1600" opacity="0.5041222080365109" rx="2"/><rect x="1116.5275211170147" y="683.1721340848999" width="8.396608696411505" height="6.659138603289411" fill="#ff5e00" opacity="0.1107682532423102" rx="1"/><rect x="1100.4356216878946" y="686.5017033865446" width="8.396608696411505" height="6.659138603289411" fill="#ff8700" opacity="0.0553841266211551" rx="1"/><rect x="1117.1581732561249" y="729.9565858743052" width="7.135304418191152" height="6.132284645953282" fill="#ff5e00" opacity="0.2784518637411417" rx="1"/><rect x="1101.0662738270048" y="733.0227281972818" width="7.135304418191152" height="6.132284645953282" fill="#ff8700" opacity="0.13922593187057086" rx="1"/><rect x="1118.5567670090954" y="776.7410376637105" width="4.338116912249968" height="9.580020431331363" fill="#ff5e00" opacity="0.40107343273728" rx="1"/><rect x="1102.4648675799754" y="781.5310478793762" width="4.338116912249968" height="9.580020431331363" fill="#ff8700" opacity="0.20053671636864" rx="1"/><rect x="1118.5202305725588" y="823.5254894531158" width="4.411189785322917" height="8.07004298038549" fill="#ff5e00" opacity="0.3511078334066803" rx="1"/><rect x="1102.4283311434388" y="827.5605109433086" width="4.411189785322917" height="8.07004298038549" fill="#ff8700" opacity="0.17555391670334014" rx="1"/><rect x="1118.253305291583" y="870.3099412425211" width="4.945040347274635" height="7.0162147816774" fill="#ff5e00" opacity="0.35381366087911037" rx="1"/><rect x="1102.161405862463" y="873.8180486333598" width="4.945040347274635" height="7.0162147816774" fill="#ff8700" opacity="0.17690683043955518" rx="1"/><rect x="1118.4276679482841" y="917.0943930319264" width="4.596315033872685" height="9.368476635629422" fill="#ff5e00" opacity="0.5632957816271335" rx="1"/><rect x="1102.335768519164" y="921.7786313497411" width="4.596315033872685" height="9.368476635629422" fill="#ff8700" opacity="0.2816478908135667" rx="1"/><rect x="1176.7261183091268" y="815.4428661138385" width="58.26106379000961" height="138.4359787074933" fill="#2d1600" opacity="0.5519753633653688" rx="2"/><rect x="1201.7469344010456" y="825.4428661138385" width="8.219431606172453" height="6.812448463591851" fill="#ff5e00" opacity="0.4026496091165229" rx="1"/><rect x="1187.1816684535431" y="828.8490903456344" width="8.219431606172453" height="6.812448463591851" fill="#ff8700" opacity="0.20132480455826146" rx="1"/><rect x="1200.9049726240116" y="860.0518607907118" width="9.903355160239933" height="7.514997132475255" fill="#ff5e00" opacity="0.22808287309670888" rx="1"/><rect x="1186.3397066765092" y="863.8093593569494" width="9.903355160239933" height="7.514997132475255" fill="#ff8700" opacity="0.11404143654835444" rx="1"/><rect x="1199.9747137648462" y="894.6608554675852" width="11.76387287857101" height="9.634905426677992" fill="#ff5e00" opacity="0.23069384955584393" rx="1"/><rect x="1185.4094478173438" y="899.4783081809242" width="11.76387287857101" height="9.634905426677992" fill="#ff8700" opacity="0.11534692477792197" rx="1"/><rect x="1202.4647854216084" y="929.2698501444585" width="6.783729565046665" height="6.544701365880831" fill="#ff5e00" opacity="0.2813271829582116" rx="1"/><rect x="1187.899519474106" y="932.5422008273989" width="6.783729565046665" height="6.544701365880831" fill="#ff8700" opacity="0.1406635914791058" rx="1"/><rect x="1304.5746970047649" y="613.6244178781343" width="65.14597915931279" height="340.2544269431975" fill="#130000" opacity="0.5810912534550511" rx="2"/><rect x="1333.1493555307736" y="623.6244178781343" width="7.996662107295511" height="8.336689554698925" fill="#ff5e00" opacity="0.39224116524966457" rx="1"/><rect x="1316.8628607409453" y="627.7927626554838" width="7.996662107295511" height="8.336689554698925" fill="#ff8700" opacity="0.19612058262483228" rx="1"/><rect x="1331.7519347748607" y="680.3334890353339" width="10.791503619121272" height="6.448851930082043" fill="#ff5e00" opacity="0.32573696664202423" rx="1"/><rect x="1315.4654399850324" y="683.5579150003749" width="10.791503619121272" height="6.448851930082043" fill="#ff8700" opacity="0.16286848332101211" rx="1"/><rect x="1335.1383230896056" y="737.0425601925334" width="4.0187269896312445" height="8.944091500468573" fill="#ff5e00" opacity="0.2727778180904635" rx="1"/><rect x="1318.8518282997773" y="741.5146059427677" width="4.0187269896312445" height="8.944091500468573" fill="#ff8700" opacity="0.13638890904523174" rx="1"/><rect x="1331.8259262216338" y="793.7516313497331" width="10.643520725575165" height="8.815376255385432" fill="#ff5e00" opacity="0.5567375428641069" rx="1"/><rect x="1315.5394314318055" y="798.1593194774258" width="10.643520725575165" height="8.815376255385432" fill="#ff8700" opacity="0.27836877143205346" rx="1"/><rect x="1332.0593888384894" y="850.4607025069326" width="10.176595491863925" height="8.306829469815556" fill="#ff5e00" opacity="0.12647928475087492" rx="1"/><rect x="1315.772894048661" y="854.6141172418404" width="10.176595491863925" height="8.306829469815556" fill="#ff8700" opacity="0.06323964237543746" rx="1"/><rect x="1332.9298366922721" y="907.1697736641322" width="8.435699784298357" height="6.646695451961526" fill="#ff5e00" opacity="0.1740869452883692" rx="1"/><rect x="1316.6433419024438" y="910.493121390113" width="8.435699784298357" height="6.646695451961526" fill="#ff8700" opacity="0.0870434726441846" rx="1"/><rect x="1408.9558345589219" y="615.4709329166149" width="74.71728584838968" height="338.40791190471685" fill="#130000" opacity="0.6107620545920828" rx="2"/><rect x="1442.4952428460808" y="625.4709329166149" width="7.63846927407162" height="6.862655557892904" fill="#ff5e00" opacity="0.4456142897125367" rx="1"/><rect x="1423.8159213839836" y="628.9022606955613" width="7.63846927407162" height="6.862655557892904" fill="#ff8700" opacity="0.22280714485626835" rx="1"/><rect x="1443.732540307737" y="693.1525152975582" width="5.163874350759172" height="6.096073652640002" fill="#ff5e00" opacity="0.3942251344896446" rx="1"/><rect x="1425.0532188456398" y="696.2005521238782" width="5.163874350759172" height="6.096073652640002" fill="#ff8700" opacity="0.1971125672448223" rx="1"/><rect x="1443.0572017831862" y="760.8340976785016" width="6.514551399861125" height="9.122947154362441" fill="#ff5e00" opacity="0.513210754495396" rx="1"/><rect x="1424.377880321089" y="765.3955712556829" width="6.514551399861125" height="9.122947154362441" fill="#ff8700" opacity="0.256605377247698" rx="1"/><rect x="1441.2291662931045" y="828.515680059445" width="10.170622380024433" height="8.600151251675596" fill="#ff5e00" opacity="0.17194378321802797" rx="1"/><rect x="1422.5498448310072" y="832.8157556852829" width="10.170622380024433" height="8.600151251675596" fill="#ff8700" opacity="0.08597189160901399" rx="1"/><rect x="1441.584408485001" y="896.1972624403884" width="9.460137996231238" height="6.271013425726214" fill="#ff5e00" opacity="0.43315088351563336" rx="1"/><rect x="1422.9050870229037" y="899.3327691532515" width="9.460137996231238" height="6.271013425726214" fill="#ff8700" opacity="0.21657544175781668" rx="1"/><rect x="1509.9415140715291" y="748.9313871480831" width="42.47847859572584" height="204.94745767324872" fill="#2d1600" opacity="0.4330196561601525" rx="2"/><rect x="1526.7920948629715" y="758.9313871480831" width="8.777317012841188" height="7.852082924417239" fill="#ff5e00" opacity="0.3917190814138668" rx="1"/><rect x="1516.1724752140399" y="762.8574286102918" width="8.777317012841188" height="7.852082924417239" fill="#ff8700" opacity="0.1958595407069334" rx="1"/><rect x="1525.6069994500388" y="810.1682515663953" width="11.147507838706371" height="6.571909843145849" fill="#ff5e00" opacity="0.4368141768353093" rx="1"/><rect x="1514.9873798011072" y="813.4542064879682" width="11.147507838706371" height="6.571909843145849" fill="#ff8700" opacity="0.21840708841765466" rx="1"/><rect x="1526.653596918018" y="861.4051159847074" width="9.054312902748192" height="8.049287679151" fill="#ff5e00" opacity="0.17032744541539052" rx="1"/><rect x="1516.0339772690863" y="865.4297598242829" width="9.054312902748192" height="8.049287679151" fill="#ff8700" opacity="0.08516372270769526" rx="1"/><rect x="1528.9822847931605" y="912.6419804030197" width="4.39693715246323" height="6.316526966243174" fill="#ff5e00" opacity="0.5080764147006154" rx="1"/><rect x="1518.362665144229" y="915.8002438861413" width="4.39693715246323" height="6.316526966243174" fill="#ff8700" opacity="0.2540382073503077" rx="1"/><rect x="1618.338934736871" y="704.9006255354967" width="62.621246672380074" height="248.97821928583508" fill="#2d1600" opacity="0.5635791138661046" rx="2"/><rect x="1647.1024785330758" y="714.9006255354967" width="5.094159079970363" height="6.652116185206015" fill="#ff5e00" opacity="0.22893981931939253" rx="1"/><rect x="1631.4471668649808" y="718.2266836280997" width="5.094159079970363" height="6.652116185206015" fill="#ff8700" opacity="0.11446990965969626" rx="1"/><rect x="1644.1538614801023" y="797.8933652974417" width="10.991393185917147" height="6.939427617224731" fill="#ff5e00" opacity="0.12313220967145921" rx="1"/><rect x="1628.4985498120072" y="801.3630791060541" width="10.991393185917147" height="6.939427617224731" fill="#ff8700" opacity="0.06156610483572961" rx="1"/><rect x="1645.2420318262284" y="880.8861050593868" width="8.815052493665146" height="6.286603020570847" fill="#ff5e00" opacity="0.35476800807629894" rx="1"/><rect x="1629.5867201581334" y="884.0294065696721" width="8.815052493665146" height="6.286603020570847" fill="#ff8700" opacity="0.17738400403814947" rx="1"/><rect x="1721.461898207539" y="580.1585212070863" width="48.938735835007094" height="373.7203236142454" fill="#130000" opacity="0.5251622055250132" rx="2"/><rect x="1743.1921678572407" y="590.1585212070863" width="5.478196535603654" height="7.383189855465477" fill="#ff5e00" opacity="0.2688617371648694" rx="1"/><rect x="1730.9574838984888" y="593.850116134819" width="5.478196535603654" height="7.383189855465477" fill="#ff8700" opacity="0.1344308685824347" rx="1"/><rect x="1742.246117783069" y="636.873561658867" width="7.370296683947159" height="9.908534613416656" fill="#ff5e00" opacity="0.27096673037646496" rx="1"/><rect x="1730.011433824317" y="641.8278289655752" width="7.370296683947159" height="9.908534613416656" fill="#ff8700" opacity="0.13548336518823248" rx="1"/><rect x="1741.6131674220348" y="683.5886021106477" width="8.636197406015405" height="7.170036316190389" fill="#ff5e00" opacity="0.5551945828029873" rx="1"/><rect x="1729.378483463283" y="687.1736202687429" width="8.636197406015405" height="7.170036316190389" fill="#ff8700" opacity="0.27759729140149364" rx="1"/><rect x="1741.9454011425712" y="730.3036425624283" width="7.971729964942608" height="7.897933448175419" fill="#ff5e00" opacity="0.33398699290910433" rx="1"/><rect x="1729.7107171838193" y="734.252609286516" width="7.971729964942608" height="7.897933448175419" fill="#ff8700" opacity="0.16699349645455216" rx="1"/><rect x="1742.2588881285064" y="777.018683014209" width="7.34475599307212" height="6.918885429603719" fill="#ff5e00" opacity="0.33094069544015003" rx="1"/><rect x="1730.0242041697545" y="780.4781257290109" width="7.34475599307212" height="6.918885429603719" fill="#ff8700" opacity="0.16547034772007502" rx="1"/><rect x="1741.0696939863426" y="823.7337234659897" width="9.723144277400138" height="7.152730502456597" fill="#ff5e00" opacity="0.4952160150267221" rx="1"/><rect x="1728.8350100275907" y="827.3100887172179" width="9.723144277400138" height="7.152730502456597" fill="#ff8700" opacity="0.24760800751336104" rx="1"/><rect x="1741.9383766522951" y="870.4487639177703" width="7.985778945494857" height="6.646089308114277" fill="#ff5e00" opacity="0.399113539815674" rx="1"/><rect x="1729.7036926935432" y="873.7718085718275" width="7.985778945494857" height="6.646089308114277" fill="#ff8700" opacity="0.199556769907837" rx="1"/><rect x="1740.8943758355206" y="917.163804369551" width="10.073780579043966" height="7.106470729482004" fill="#ff5e00" opacity="0.29185729666889115" rx="1"/><rect x="1728.6596918767686" y="920.717039734292" width="10.073780579043966" height="7.106470729482004" fill="#ff8700" opacity="0.14592864833444558" rx="1"/><rect x="1837.3096095368521" y="609.0437470490681" width="33.00480079441443" height="344.83509777226374" fill="#130000" opacity="0.5774807924585139" rx="2"/><rect x="1849.9925025545508" y="619.0437470490681" width="7.639014759016925" height="7.443932756186447" fill="#ff5e00" opacity="0.2993866154689776" rx="1"/><rect x="1841.7413023559473" y="622.7657134271614" width="7.639014759016925" height="7.443932756186447" fill="#ff8700" opacity="0.1496933077344888" rx="1"/><rect x="1850.3242476362093" y="705.2525214921341" width="6.975524595700094" height="6.152238043991904" fill="#ff5e00" opacity="0.5913251713130915" rx="1"/><rect x="1842.0730474376057" y="708.32864051413" width="6.975524595700094" height="6.152238043991904" fill="#ff8700" opacity="0.29566258565654574" rx="1"/><rect x="1848.4940206351441" y="791.4612959351999" width="10.635978597830045" height="9.664786959920262" fill="#ff5e00" opacity="0.15313683092900013" rx="1"/><rect x="1840.2428204365406" y="796.2936894151601" width="10.635978597830045" height="9.664786959920262" fill="#ff8700" opacity="0.07656841546450006" rx="1"/><rect x="1849.113395874415" y="877.6700703782659" width="9.397228119288858" height="6.206432005438589" fill="#ff5e00" opacity="0.1253477189748892" rx="1"/><rect x="1840.8621956758113" y="880.7732863809852" width="9.397228119288858" height="6.206432005438589" fill="#ff8700" opacity="0.0626738594874446" rx="1"/><path d="M352.2509551868427 808.3977606865571 Q343.35607708509923 726.6394487644171 341.5771014647505 644.8811368422771" stroke="#000000" stroke-width="7.676779820508505" fill="none" stroke-linecap="round"/><path d="M341.5771014647505 644.8811368422771 Q379.62070056857095 624.8811368422771 382.24006352113565 644.8811368422771" stroke="#000000" stroke-width="3.222748902911029" fill="none" stroke-linecap="round" opacity="0.6"/><path d="M341.5771014647505 644.8811368422771 Q369.179484558354 633.2044674401973 385.82799918949684 661.5277980381173" stroke="#000000" stroke-width="2.3921511099655532" fill="none" stroke-linecap="round" opacity="0.6"/><path d="M341.5771014647505 644.8811368422771 Q336.9704929220602 633.718180640491 328.1304509324687 662.555224438705" stroke="#000000" stroke-width="3.925757495203465" fill="none" stroke-linecap="round" opacity="0.6"/><path d="M341.5771014647505 644.8811368422771 Q343.1268601024284 627.2236626286003 309.14840201593205 649.5661884149237" stroke="#000000" stroke-width="3.55819986796896" fill="none" stroke-linecap="round" opacity="0.6"/><path d="M341.5771014647505 644.8811368422771 Q324.31462777631015 621.9699496882761 301.27615203335364 639.0587625342752" stroke="#000000" stroke-width="2.6044729763186707" fill="none" stroke-linecap="round" opacity="0.6"/><path d="M341.5771014647505 644.8811368422771 Q344.4645849209632 618.1501533291546 331.33508104409776 631.419169816032" stroke="#000000" stroke-width="2.4957886059991523" fill="none" stroke-linecap="round" opacity="0.6"/><path d="M1148.1920320978836 870.2472003107534 Q1138.1297508064029 745.4102546431614 1136.1172945481067 620.5733089755693" stroke="#000000" stroke-width="7.462281518490585" fill="none" stroke-linecap="round"/><path d="M1136.1172945481067 620.5733089755693 Q1177.8990343215173 600.5733089755693 1184.1939087263759 620.5733089755693" stroke="#000000" stroke-width="3.377392578725096" fill="none" stroke-linecap="round" opacity="0.6"/><path d="M1136.1172945481067 620.5733089755693 Q1172.6094074117395 609.9337278017691 1185.8818606993616 639.294146627969" stroke="#000000" stroke-width="2.127675589203759" fill="none" stroke-linecap="round" opacity="0.6"/><path d="M1136.1172945481067 620.5733089755693 Q1146.162493586072 608.0285347620885 1124.7732503089187 635.4837605486077" stroke="#000000" stroke-width="3.160233738170991" fill="none" stroke-linecap="round" opacity="0.6"/><path d="M1136.1172945481067 620.5733089755693 Q1112.7322406478816 604.7278631279395 1078.6038239440054 628.8824172803097" stroke="#000000" stroke-width="3.22256406611357" fill="none" stroke-linecap="round" opacity="0.6"/><path d="M1136.1172945481067 620.5733089755693 Q1114.952706876671 596.1169422530593 1074.4256888796747 611.6605755305494" stroke="#000000" stroke-width="3.4629274018721024" fill="none" stroke-linecap="round" opacity="0.6"/><path d="M1506.4261793127343 864.8242868401167 Q1512.8848018061567 741.9260963662355 1514.176526304841 619.0279058923544" stroke="#000000" stroke-width="4.3530590199756105" fill="none" stroke-linecap="round"/><path d="M1514.176526304841 619.0279058923544 Q1568.559520498281 599.0279058923544 1583.0587842895318 619.0279058923544" stroke="#000000" stroke-width="2.4296406964840465" fill="none" stroke-linecap="round" opacity="0.6"/><path d="M1514.176526304841 619.0279058923544 Q1539.8898314903565 604.9133561794791 1545.4664595419895 630.7988064666039" stroke="#000000" stroke-width="2.935219394726497" fill="none" stroke-linecap="round" opacity="0.6"/><path d="M1514.176526304841 619.0279058923544 Q1524.2582947069022 608.9709455026265 1499.0469669271918 638.9139851128986" stroke="#000000" stroke-width="2.358512984672215" fill="none" stroke-linecap="round" opacity="0.6"/><path d="M1514.176526304841 619.0279058923544 Q1494.3242540928852 601.9794391445391 1473.3170466324648 624.930972396724" stroke="#000000" stroke-width="2.0403409348894703" fill="none" stroke-linecap="round" opacity="0.6"/><path d="M1514.176526304841 619.0279058923544 Q1498.057093249176 594.1687520999471 1446.9089475103797 609.30959830754" stroke="#000000" stroke-width="3.052659053134885" fill="none" stroke-linecap="round" opacity="0.6"/><path d="M1514.176526304841 619.0279058923544 Q1508.0112934598826 588.3062287406435 1497.862174008868 597.5845515889326" stroke="#000000" stroke-width="3.593572543839359" fill="none" stroke-linecap="round" opacity="0.6"/><rect x="0" y="1000" width="1920" height="80" fill="#070000" opacity="0.8"/><line x1="0" y1="1040" x2="1920" y2="1040" stroke="#ff5e00" stroke-opacity="0.15" stroke-width="2" stroke-dasharray="30,20"/><rect x="0" y="930" width="1920" height="150" fill="url(#glow57)"/><text x="1900" y="1060" font-family="Arial, sans-serif" font-size="11" fill="#fff" opacity="0.08" text-anchor="end" letter-spacing="2">GTA 6 REWARDS · WALLPAPER 058</text>
</svg>