<?xml version="1.0" encoding="UTF-8"?>
<svg xmlns="http://www.w3.org/2000/svg" width="1920" height="1080" viewBox="0 0 1920 1080">
<defs>
    <linearGradient id="bg93" x1="0%" y1="0%" x2="0%" y2="100%">
      <stop offset="0%" stop-color="#4361ee"/>
      <stop offset="50%" stop-color="#102ebb"/>
      <stop offset="100%" stop-color="#4361ee"/>
    </linearGradient>
    <linearGradient id="sun93" x1="0%" y1="0%" x2="100%" y2="100%">
      <stop offset="0%" stop-color="#4cc9f0"/>
      <stop offset="100%" stop-color="#4895ef"/>
    </linearGradient>
    <radialGradient id="glow93" cx="50%" cy="70%" r="50%">
      <stop offset="0%" stop-color="#4cc9f0" stop-opacity="0.3"/>
      <stop offset="100%" stop-color="#4361ee" stop-opacity="0"/>
    </radialGradient>
  </defs><rect width="1920" height="1080" fill="url(#bg93)"/><circle cx="834.350821127731" cy="429.01622779411645" r="845.0640199112389" fill="#4cc9f0" opacity="0.12254342382600146"/><circle cx="1034.350821127731" cy="329.01622779411645" r="506.37944836783674" fill="#4895ef" opacity="0.07520301249465045"/><line x1="0" y1="980" x2="1920" y2="980" stroke="#4895ef" stroke-opacity="0.05" stroke-width="2"/><line x1="0" y1="935" x2="1920" y2="935" stroke="#4895ef" stroke-opacity="0.049" stroke-width="0.5"/><line x1="0" y1="890" x2="1920" y2="890" stroke="#4895ef" stroke-opacity="0.048" stroke-width="0.5"/><line x1="0" y1="845" x2="1920" y2="845" stroke="#4895ef" stroke-opacity="0.047" stroke-width="0.5"/><line x1="0" y1="800" x2="1920" y2="800" stroke="#4895ef" stroke-opacity="0.046" stroke-width="0.5"/><line x1="0" y1="755" x2="1920" y2="755" stroke="#4895ef" stroke-opacity="0.045" stroke-width="0.5"/><line x1="0" y1="710" x2="1920" y2="710" stroke="#4895ef" stroke-opacity="0.044" stroke-width="0.5"/><line x1="0" y1="665" x2="1920" y2="665" stroke="#4895ef" stroke-opacity="0.043" stroke-width="0.5"/><line x1="0" y1="620" x2="1920" y2="620" stroke="#4895ef" stroke-opacity="0.041999999999999996" stroke-width="0.5"/><line x1="0" y1="575" x2="1920" y2="575" stroke="#4895ef" stroke-opacity="0.041" stroke-width="0.5"/><line x1="0" y1="530" x2="1920" y2="530" stroke="#4895ef" stroke-opacity="0.04" stroke-width="0.5"/><line x1="0" y1="485" x2="1920" y2="485" stroke="#4895ef" stroke-opacity="0.039" stroke-width="0.5"/><line x1="0" y1="440" x2="1920" y2="440" stroke="#4895ef" stroke-opacity="0.038" stroke-width="0.5"/><line x1="0" y1="395" x2="1920" y2="395" stroke="#4895ef" stroke-opacity="0.037" stroke-width="0.5"/><line x1="0" y1="350" x2="1920" y2="350" stroke="#4895ef" stroke-opacity="0.036" stroke-width="0.5"/><line x1="0" y1="305" x2="1920" y2="305" stroke="#4895ef" stroke-opacity="0.034999999999999996" stroke-width="0.5"/><line x1="0" y1="260" x2="1920" y2="260" stroke="#4895ef" stroke-opacity="0.033999999999999996" stroke-width="0.5"/><line x1="0" y1="215" x2="1920" y2="215" stroke="#4895ef" stroke-opacity="0.033" stroke-width="0.5"/><line x1="0" y1="170" x2="1920" y2="170" stroke="#4895ef" stroke-opacity="0.032" stroke-width="0.5"/><line x1="0" y1="125" x2="1920" y2="125" stroke="#4895ef" stroke-opacity="0.031" stroke-width="0.5"/><line x1="560" y1="1080" x2="860" y2="580" stroke="#4cc9f0" stroke-opacity="0.04" stroke-width="1"/><line x1="640" y1="1080" x2="880" y2="590" stroke="#4cc9f0" stroke-opacity="0.04" stroke-width="1"/><line x1="720" y1="1080" x2="900" y2="600" stroke="#4cc9f0" stroke-opacity="0.04" stroke-width="1"/><line x1="800" y1="1080" x2="920" y2="610" stroke="#4cc9f0" stroke-opacity="0.04" stroke-width="1"/><line x1="880" y1="1080" x2="940" y2="620" stroke="#4cc9f0" stroke-opacity="0.04" stroke-width="1"/><line x1="960" y1="1080" x2="960" y2="630" stroke="#4cc9f0" stroke-opacity="0.04" stroke-width="1"/><line x1="1040" y1="1080" x2="980" y2="620" stroke="#4cc9f0" stroke-opacity="0.04" stroke-width="1"/><line x1="1120" y1="1080" x2="1000" y2="610" stroke="#4cc9f0" stroke-opacity="0.04" stroke-width="1"/><line x1="1200" y1="1080" x2="1020" y2="600" stroke="#4cc9f0" stroke-opacity="0.04" stroke-width="1"/><line x1="1280" y1="1080" x2="1040" y2="590" stroke="#4cc9f0" stroke-opacity="0.04" stroke-width="1"/><line x1="1360" y1="1080" x2="1060" y2="580" stroke="#4cc9f0" stroke-opacity="0.04" stroke-width="1"/><circle cx="1372.2431391180128" cy="171.5722118088911" r="99.46340662414752" fill="url(#sun93)" opacity="0.6608625169053819"/><circle cx="1372.2431391180128" cy="171.5722118088911" r="94.46340662414752" fill="#4361ee" opacity="0.3"/><pattern id="scan93" width="1920" height="4" patternUnits="userSpaceOnUse">
      <line x1="0" y1="0" x2="1920" y2="0" stroke="#000" stroke-opacity="0.05" stroke-width="1"/>
    </pattern>
    <rect width="1920" height="1080" fill="url(#scan93)"/><circle cx="542.2222433756624" cy="410.3898817436746" r="1.120561074609999" fill="#fff" opacity="0.406111865864627"/><circle cx="990.6641259115803" cy="384.5860570037239" r="1.0412413573454231" fill="#fff" opacity="0.23766149651204738"/><circle cx="372.6815057668559" cy="307.3988211572633" r="1.0478785307025253" fill="#fff" opacity="0.2990586602359681"/><circle cx="1640.9442315345966" cy="252.13419412731523" r="1.0793482852353127" fill="#fff" opacity="0.6982193320752632"/><circle cx="590.4071377102302" cy="375.2908218631732" r="1.449560432566693" fill="#fff" opacity="0.6207809900447682"/><circle cx="1546.0043244683193" cy="376.2374880221294" r="0.887230054914772" fill="#fff" opacity="0.7984885270238129"/><circle cx="203.65709607574556" cy="203.36463255327303" r="1.7568421515768493" fill="#fff" opacity="0.344045375321071"/><circle cx="1859.2641690232008" cy="137.25662740162963" r="1.6253819209815425" fill="#fff" opacity="0.6175022816326241"/><circle cx="808.0072033796476" cy="250.01450043404813" r="0.7060066485325822" fill="#fff" opacity="0.6826712192228694"/><circle cx="845.6121443690761" cy="306.6313784277605" r="0.9533111896490005" fill="#fff" opacity="0.4082042736020415"/><circle cx="465.8288836073663" cy="266.0532941506369" r="1.7013147025605" fill="#fff" opacity="0.6280497120758635"/><circle cx="1753.4694197386198" cy="145.45407740805626" r="1.167471050556626" fill="#fff" opacity="0.26230918254291385"/><circle cx="1857.2479346248433" cy="268.3724186672765" r="0.9125904441840459" fill="#fff" opacity="0.7187238594327876"/><circle cx="1071.2207541873727" cy="230.99401417909982" r="1.7581090070908212" fill="#fff" opacity="0.6534515557935116"/><circle cx="1849.5590096548106" cy="340.28022318060516" r="0.7133398904030537" fill="#fff" opacity="0.6830182240072215"/><circle cx="1222.7587029204608" cy="253.96617272448867" r="1.5829235745088486" fill="#fff" opacity="0.22406709157490803"/><circle cx="1759.077410064423" cy="155.1104888234079" r="1.4877192999673354" fill="#fff" opacity="0.2960027788523591"/><circle cx="873.9392899521486" cy="170.14746318993798" r="0.938762391321073" fill="#fff" opacity="0.5343179911687779"/><circle cx="529.7548199933383" cy="27.21773408987041" r="1.8408405982984324" fill="#fff" opacity="0.22148227217176053"/><circle cx="97.3906781006117" cy="21.634558779568078" r="0.5675136414513722" fill="#fff" opacity="0.5977401328733518"/><circle cx="1616.3336991556764" cy="234.75403934967565" r="1.5978379977396313" fill="#fff" opacity="0.7336715022413227"/><circle cx="418.0665654917403" cy="92.00863343011788" r="0.9069076207016845" fill="#fff" opacity="0.24384343229323707"/><circle cx="1853.2079064690527" cy="315.35884426798646" r="0.7499375022598397" fill="#fff" opacity="0.527640969615346"/><circle cx="879.427668508009" cy="196.54679284723167" r="0.5840576156238229" fill="#fff" opacity="0.7539930192646553"/><circle cx="1192.3312088643042" cy="249.83404989397013" r="1.0879427653476461" fill="#fff" opacity="0.6155452396756842"/><circle cx="1360.3241254576305" cy="364.0511052152261" r="0.7436386291504927" fill="#fff" opacity="0.6220249336264154"/><circle cx="1074.919086348945" cy="416.5454566852528" r="1.0971066864666312" fill="#fff" opacity="0.5371424014068075"/><circle cx="765.5295509392232" cy="220.14019113316672" r="1.7870014601589648" fill="#fff" opacity="0.5427986923937682"/><circle cx="1801.6968579314873" cy="26.40179323274684" r="1.1638616846557386" fill="#fff" opacity="0.5425177727692103"/><circle cx="531.7355432854349" cy="424.2312055845352" r="0.7188440476820908" fill="#fff" opacity="0.7881984699024349"/><circle cx="565.7787217026992" cy="20.26316690171677" r="0.9652235797758268" fill="#fff" opacity="0.6517969900397111"/><circle cx="1182.8186057281723" cy="149.5791077403303" r="1.1457727954596684" fill="#fff" opacity="0.24129425288208162"/><circle cx="1085.200290783588" cy="219.37916790213882" r="1.6104224858829803" fill="#fff" opacity="0.2799916720204036"/><circle cx="1186.7186659357321" cy="197.9565850398402" r="1.7465565763987965" fill="#fff" opacity="0.22112324159152882"/><circle cx="1136.9857512081476" cy="366.08158877074754" r="1.0617689591743447" fill="#fff" opacity="0.5813432416835203"/><circle cx="26.55560777209597" cy="428.99895964865544" r="1.6977034779725837" fill="#fff" opacity="0.5488095582809321"/><circle cx="1790.3324885364464" cy="407.4077238085232" r="1.4238879232257344" fill="#fff" opacity="0.6886705500745844"/><circle cx="1882.5763960095533" cy="308.0761201391174" r="0.7811017734420257" fill="#fff" opacity="0.26330580982922247"/><circle cx="1467.0949985522532" cy="254.7180668559666" r="1.8968375243472022" fill="#fff" opacity="0.7240992914242901"/><circle cx="787.6519294426897" cy="376.06622592547586" r="1.7183023392498264" fill="#fff" opacity="0.5217271858644037"/><circle cx="456.3401659895527" cy="402.2600178723829" r="1.1256601090137055" fill="#fff" opacity="0.26987557249839317"/><circle cx="562.0771869835623" cy="423.2683209458525" r="0.914051129462675" fill="#fff" opacity="0.521398746995581"/><circle cx="1037.376780304447" cy="92.76933539956094" r="1.9939022049060795" fill="#fff" opacity="0.6568308774979856"/><circle cx="1175.4899224395606" cy="347.3506548580133" r="1.1730365155201956" fill="#fff" opacity="0.6876659416797724"/><circle cx="1152.6504647435272" cy="114.16925151696643" r="1.1841208888646497" fill="#fff" opacity="0.5965607866636852"/><circle cx="583.1137201057546" cy="97.16166552928314" r="1.2685733755977295" fill="#fff" opacity="0.2242576982882474"/><circle cx="681.0772536790644" cy="47.16159463654309" r="1.716201923023025" fill="#fff" opacity="0.2274623022944346"/><circle cx="483.75178109941817" cy="240.12641264501175" r="0.9053656791582159" fill="#fff" opacity="0.3173937065800172"/><circle cx="845.4395571829377" cy="139.78778416192807" r="1.2194175951228052" fill="#fff" opacity="0.21688874741478095"/><circle cx="589.9578413250758" cy="124.55332032138327" r="1.2010633055356013" fill="#fff" opacity="0.7623718283982881"/><circle cx="1335.5451516936405" cy="412.96010980684315" r="0.7243962776205494" fill="#fff" opacity="0.39105105143763386"/><circle cx="770.4536123877516" cy="368.79362988490465" r="1.1528233307536746" fill="#fff" opacity="0.6790447624118637"/><circle cx="309.5454844063021" cy="40.91033433585203" r="1.9712050546592113" fill="#fff" opacity="0.34117307982900485"/><circle cx="107.84859808810256" cy="322.76888655563096" r="1.3894947354890161" fill="#fff" opacity="0.27881366062881746"/><circle cx="209.53638782015452" cy="239.3116849174983" r="1.03291371058042" fill="#fff" opacity="0.4152973785566393"/><circle cx="1046.301601474709" cy="422.67081111079796" r="0.6020768787949525" fill="#fff" opacity="0.726393019903077"/><circle cx="1227.1606652315616" cy="229.36828431239547" r="0.6619288893793545" fill="#fff" opacity="0.2172779958735402"/><circle cx="1760.9453267978843" cy="254.25454472709785" r="1.8706258305745727" fill="#fff" opacity="0.6656103621389741"/><circle cx="368.8112194204729" cy="272.8550248110795" r="1.1319491777410613" fill="#fff" opacity="0.2402750981134072"/><circle cx="283.2429671947013" cy="45.437589905559456" r="0.6230160715344865" fill="#fff" opacity="0.6199396090162776"/><circle cx="1065.2761359012864" cy="49.47507957403434" r="0.9348081698256564" fill="#fff" opacity="0.5936016932114963"/><circle cx="1279.7233457862687" cy="349.01570728351726" r="1.9719477255064872" fill="#fff" opacity="0.660202087755362"/><circle cx="1190.9073363037098" cy="231.5238680745298" r="0.803965817509211" fill="#fff" opacity="0.4910070677499769"/><circle cx="1139.7296215267222" cy="368.39586298176926" r="0.8954416207027253" fill="#fff" opacity="0.3555010314927206"/><circle cx="20.133904074349886" cy="123.56953004271945" r="1.5874443546839627" fill="#fff" opacity="0.773655807407027"/><circle cx="1197.15467540481" cy="398.6342235167125" r="1.9457763015399165" fill="#fff" opacity="0.7823099050629674"/><rect x="8.215651644444012" y="512.8734683647923" width="41.111943812834085" height="359.9516039388142" fill="#2947d4" opacity="0.4512453556878598" rx="2"/><rect x="25.31339396217684" y="522.8734683647923" width="6.916459177368427" height="6.591668628293943" fill="#4895ef" opacity="0.5644871990812215" rx="1"/><rect x="15.03540800896832" y="526.1693026789393" width="6.916459177368427" height="6.591668628293943" fill="#4cc9f0" opacity="0.28224359954061073" rx="1"/><rect x="26.583902130737876" y="594.8637891525551" width="4.375442840246354" height="7.583238528478713" fill="#4895ef" opacity="0.18633185750486606" rx="1"/><rect x="16.305916177529355" y="598.6554084167944" width="4.375442840246354" height="7.583238528478713" fill="#4cc9f0" opacity="0.09316592875243303" rx="1"/><rect x="25.059598947423417" y="666.854109940318" width="7.424049206875276" height="6.1438779495991485" fill="#4895ef" opacity="0.5986922441745858" rx="1"/><rect x="14.781612994214896" y="669.9260489151176" width="7.424049206875276" height="6.1438779495991485" fill="#4cc9f0" opacity="0.2993461220872929" rx="1"/><rect x="23.53392160882566" y="738.8444307280809" width="10.475403884070786" height="9.081409995230242" fill="#4895ef" opacity="0.3942849493805052" rx="1"/><rect x="13.25593565561714" y="743.3851357256959" width="10.475403884070786" height="9.081409995230242" fill="#4cc9f0" opacity="0.1971424746902526" rx="1"/><rect x="23.08431011999126" y="810.8347515158437" width="11.374626861739584" height="7.207840637585111" fill="#4895ef" opacity="0.5655617179734543" rx="1"/><rect x="12.80632416678274" y="814.4386718346362" width="11.374626861739584" height="7.207840637585111" fill="#4cc9f0" opacity="0.28278085898672717" rx="1"/><rect x="94.09651746562622" y="512.55487117743" width="34.5438443228006" height="360.27020112617646" fill="#2947d4" opacity="0.44616227246498746" rx="2"/><rect x="107.78035716690152" y="522.55487117743" width="7.176164920249992" height="8.222313846978897" fill="#4895ef" opacity="0.23955934593443745" rx="1"/><rect x="99.14439608620138" y="526.6660281009194" width="7.176164920249992" height="8.222313846978897" fill="#4cc9f0" opacity="0.11977967296721873" rx="1"/><rect x="109.24996900942895" y="642.6449382194887" width="4.236941235195133" height="6.613963994340497" fill="#4895ef" opacity="0.5304651993863436" rx="1"/><rect x="100.61400792872881" y="645.951920216659" width="4.236941235195133" height="6.613963994340497" fill="#4cc9f0" opacity="0.2652325996931718" rx="1"/><rect x="108.34660987360577" y="762.7350052615476" width="6.043659506841483" height="9.598036277945628" fill="#4895ef" opacity="0.19680676741916844" rx="1"/><rect x="99.71064879290563" y="767.5340234005204" width="6.043659506841483" height="9.598036277945628" fill="#4cc9f0" opacity="0.09840338370958422" rx="1"/><rect x="172.25705377030624" y="502.59833557126075" width="44.06538328017699" height="370.2267367323457" fill="#2947d4" opacity="0.6102483751741816" rx="2"/><rect x="192.06397953573284" y="512.5983355712608" width="4.451531749323832" height="9.390761063292334" fill="#4895ef" opacity="0.17146686061086758" rx="1"/><rect x="181.0476337156886" y="517.293716102907" width="4.451531749323832" height="9.390761063292334" fill="#4cc9f0" opacity="0.08573343030543379" rx="1"/><rect x="189.47936053923357" y="565.4878693901674" width="9.620769742322334" height="6.7776186402834995" fill="#4895ef" opacity="0.25432571448719266" rx="1"/><rect x="178.46301471918932" y="568.8766787103091" width="9.620769742322334" height="6.7776186402834995" fill="#4cc9f0" opacity="0.12716285724359633" rx="1"/><rect x="188.358051951481" y="618.3774032090739" width="11.863386917827508" height="6.964049529508699" fill="#4895ef" opacity="0.38392895480709355" rx="1"/><rect x="177.34170613143675" y="621.8594279738282" width="11.863386917827508" height="6.964049529508699" fill="#4cc9f0" opacity="0.19196447740354677" rx="1"/><rect x="190.04239313946204" y="671.2669370279805" width="8.494704541865435" height="8.378640638286862" fill="#4895ef" opacity="0.18892135522070375" rx="1"/><rect x="179.02604731941778" y="675.4562573471239" width="8.494704541865435" height="8.378640638286862" fill="#4cc9f0" opacity="0.09446067761035187" rx="1"/><rect x="191.8774416515136" y="724.1564708468869" width="4.824607517762251" height="8.38341900202991" fill="#4895ef" opacity="0.11478599501186657" rx="1"/><rect x="180.86109583146936" y="728.3481803479019" width="4.824607517762251" height="8.38341900202991" fill="#4cc9f0" opacity="0.05739299750593328" rx="1"/><rect x="188.38917886603414" y="777.0460046657935" width="11.801133088721226" height="9.41412528963157" fill="#4895ef" opacity="0.1876449539995857" rx="1"/><rect x="177.3728330459899" y="781.7530673106093" width="11.801133088721226" height="9.41412528963157" fill="#4cc9f0" opacity="0.09382247699979285" rx="1"/><rect x="192.1062541328436" y="829.9355384847" width="4.36698255510232" height="6.279347140407038" fill="#4895ef" opacity="0.12246130572689262" rx="1"/><rect x="181.08990831279934" y="833.0752120549035" width="4.36698255510232" height="6.279347140407038" fill="#4cc9f0" opacity="0.06123065286344631" rx="1"/><rect x="265.7082718681756" y="769.6286155771531" width="72.18004564805423" height="103.19645672645338" fill="#4361ee" opacity="0.4788222692624718" rx="2"/><rect x="295.9383907727248" y="779.6286155771531" width="11.719807838955848" height="9.762098549809796" fill="#4895ef" opacity="0.5568207535093699" rx="1"/><rect x="277.8933793607112" y="784.509664852058" width="11.719807838955848" height="9.762098549809796" fill="#4cc9f0" opacity="0.27841037675468494" rx="1"/><rect x="296.6155431532297" y="796.828025031562" width="10.365503077946022" height="8.818682702914504" fill="#4895ef" opacity="0.40201383850118466" rx="1"/><rect x="278.5705317412161" y="801.2373663830192" width="10.365503077946022" height="8.818682702914504" fill="#4cc9f0" opacity="0.20100691925059233" rx="1"/><rect x="298.5068714763712" y="814.027434485971" width="6.5828464316629915" height="8.874676055012895" fill="#4895ef" opacity="0.2326300482341624" rx="1"/><rect x="280.4618600643576" y="818.4647725134774" width="6.5828464316629915" height="8.874676055012895" fill="#4cc9f0" opacity="0.1163150241170812" rx="1"/><rect x="296.06283109352125" y="831.2268439403798" width="11.470927197362979" height="6.815139596540281" fill="#4895ef" opacity="0.34600135831767725" rx="1"/><rect x="278.01781968150766" y="834.63441373865" width="11.470927197362979" height="6.815139596540281" fill="#4cc9f0" opacity="0.17300067915883863" rx="1"/><rect x="297.96545544214274" y="848.4262533947888" width="7.665678500119988" height="7.9450876270293" fill="#4895ef" opacity="0.41518944697808224" rx="1"/><rect x="279.92044403012915" y="852.3987972083034" width="7.665678500119988" height="7.9450876270293" fill="#4cc9f0" opacity="0.20759472348904112" rx="1"/><rect x="295.97301910998203" y="865.6256628491976" width="11.650551164441405" height="7.340342087983234" fill="#4895ef" opacity="0.2955171489844837" rx="1"/><rect x="277.92800769796844" y="869.2958338931893" width="11.650551164441405" height="7.340342087983234" fill="#4cc9f0" opacity="0.14775857449224186" rx="1"/><rect x="355.01936548577225" y="674.5159197539361" width="80.66674582908553" height="198.30915254967033" fill="#2947d4" opacity="0.496529237110291" rx="2"/><rect x="390.26477367484677" y="684.5159197539361" width="10.1759294509366" height="9.27668677439836" fill="#4895ef" opacity="0.20705559074577307" rx="1"/><rect x="370.09808721757537" y="689.1542631411353" width="10.1759294509366" height="9.27668677439836" fill="#4cc9f0" opacity="0.10352779537288653" rx="1"/><rect x="392.727829167799" y="717.5674451788811" width="5.2498184650321065" height="6.433123942565435" fill="#4895ef" opacity="0.25669152726342237" rx="1"/><rect x="372.5611427105276" y="720.7840071501639" width="5.2498184650321065" height="6.433123942565435" fill="#4cc9f0" opacity="0.12834576363171118" rx="1"/><rect x="392.2667879667856" y="750.6189706038263" width="6.171900867058873" height="8.12566928894391" fill="#4895ef" opacity="0.42465401427463023" rx="1"/><rect x="372.1001015095142" y="754.6818052482982" width="6.171900867058873" height="8.12566928894391" fill="#4cc9f0" opacity="0.21232700713731512" rx="1"/><rect x="391.3789601315331" y="783.6704960287714" width="7.947556537563809" height="8.431647035859443" fill="#4895ef" opacity="0.20293946405941143" rx="1"/><rect x="371.2122736742617" y="787.8863195467011" width="7.947556537563809" height="8.431647035859443" fill="#4cc9f0" opacity="0.10146973202970572" rx="1"/><rect x="393.31368074783995" y="816.7220214537164" width="4.0781153049501855" height="9.288074009886028" fill="#4895ef" opacity="0.11284217252695053" rx="1"/><rect x="373.14699429056856" y="821.3660584586594" width="4.0781153049501855" height="9.288074009886028" fill="#4cc9f0" opacity="0.056421086263475265" rx="1"/><rect x="390.57102477611386" y="849.7735468786614" width="9.563427248402366" height="7.371312191097837" fill="#4895ef" opacity="0.15458660483234252" rx="1"/><rect x="370.40433831884246" y="853.4592029742103" width="9.563427248402366" height="7.371312191097837" fill="#4cc9f0" opacity="0.07729330241617126" rx="1"/><rect x="423.8902066939497" y="572.3857900994797" width="88.27450634405821" height="300.43928220412676" fill="#4361ee" opacity="0.6786750567794486" rx="2"/><rect x="465.93728982429985" y="582.3857900994797" width="4.180340083357957" height="7.350307528243937" fill="#4895ef" opacity="0.3321418957393947" rx="1"/><rect x="443.8686632382853" y="586.0609438636017" width="4.180340083357957" height="7.350307528243937" fill="#4cc9f0" opacity="0.16607094786969734" rx="1"/><rect x="465.4682965310692" y="619.9407003749955" width="5.118326669819264" height="8.476411120611338" fill="#4895ef" opacity="0.2521703800307984" rx="1"/><rect x="443.39966994505465" y="624.1789059353011" width="5.118326669819264" height="8.476411120611338" fill="#4cc9f0" opacity="0.1260851900153992" rx="1"/><rect x="465.40816536492486" y="657.4956106505114" width="5.238589002107873" height="8.808962593509108" fill="#4895ef" opacity="0.30666002941007264" rx="1"/><rect x="443.3395387789103" y="661.9000919472659" width="5.238589002107873" height="8.808962593509108" fill="#4cc9f0" opacity="0.15333001470503632" rx="1"/><rect x="465.3497715763873" y="695.0505209260272" width="5.355376579183009" height="6.012284988540291" fill="#4895ef" opacity="0.3453565049789279" rx="1"/><rect x="443.28114499037275" y="698.0566634202974" width="5.355376579183009" height="6.012284988540291" fill="#4cc9f0" opacity="0.17267825248946395" rx="1"/><rect x="465.1423448141307" y="732.6054312015431" width="5.770230103696284" height="8.2219676771718" fill="#4895ef" opacity="0.43930441640301243" rx="1"/><rect x="443.07371822811615" y="736.7164150401289" width="5.770230103696284" height="8.2219676771718" fill="#4cc9f0" opacity="0.21965220820150622" rx="1"/><rect x="465.5772955645531" y="770.1603414770589" width="4.900328602851445" height="7.04621527182083" fill="#4895ef" opacity="0.30746800250081996" rx="1"/><rect x="443.50866897853854" y="773.6834491129692" width="4.900328602851445" height="7.04621527182083" fill="#4cc9f0" opacity="0.15373400125040998" rx="1"/><rect x="463.4392943027763" y="807.7152517525747" width="9.176331126405003" height="6.97244219318322" fill="#4895ef" opacity="0.3410806159584505" rx="1"/><rect x="441.3706677167618" y="811.2014728491663" width="9.176331126405003" height="6.97244219318322" fill="#4cc9f0" opacity="0.17054030797922526" rx="1"/><rect x="462.30608321042035" y="845.2701620280906" width="11.442753311116888" height="6.108759491729727" fill="#4895ef" opacity="0.22795401833205345" rx="1"/><rect x="440.2374566244058" y="848.3245417739554" width="11.442753311116888" height="6.108759491729727" fill="#4cc9f0" opacity="0.11397700916602672" rx="1"/><rect x="530.8685436450023" y="617.7534948842958" width="72.56119285769789" height="255.0715774193107" fill="#2947d4" opacity="0.6818273658123397" rx="2"/><rect x="563.303302356477" y="627.7534948842958" width="7.691675434748566" height="7.336126366009966" fill="#4895ef" opacity="0.29838484474420196" rx="1"/><rect x="545.1630041420525" y="631.4215580673008" width="7.691675434748566" height="7.336126366009966" fill="#4cc9f0" opacity="0.14919242237210098" rx="1"/><rect x="564.2070355254161" y="670.2654244541809" width="5.884209096870434" height="8.259793274630745" fill="#4895ef" opacity="0.2509163667566414" rx="1"/><rect x="546.0667373109916" y="674.3953210914963" width="5.884209096870434" height="8.259793274630745" fill="#4cc9f0" opacity="0.1254581833783207" rx="1"/><rect x="564.9433377160478" y="712.7773540240661" width="4.411604715607037" height="9.397054293983862" fill="#4895ef" opacity="0.5039230632837682" rx="1"/><rect x="546.8030395016233" y="717.4758811710581" width="4.411604715607037" height="9.397054293983862" fill="#4cc9f0" opacity="0.2519615316418841" rx="1"/><rect x="561.9767512726928" y="755.2892835939512" width="10.344777602316992" height="8.749657856009355" fill="#4895ef" opacity="0.14235622415839608" rx="1"/><rect x="543.8364530582683" y="759.6641125219559" width="10.344777602316992" height="8.749657856009355" fill="#4cc9f0" opacity="0.07117811207919804" rx="1"/><rect x="564.6790946785463" y="797.8012131638363" width="4.94009079060985" height="8.661629285351752" fill="#4895ef" opacity="0.11916305709610765" rx="1"/><rect x="546.5387964641218" y="802.1320278065123" width="4.94009079060985" height="8.661629285351752" fill="#4cc9f0" opacity="0.059581528548053826" rx="1"/><rect x="563.3223204319104" y="840.3131427337214" width="7.653639283881905" height="6.5319402405368026" fill="#4895ef" opacity="0.11131754799543823" rx="1"/><rect x="545.1820222174858" y="843.5791128539898" width="7.653639283881905" height="6.5319402405368026" fill="#4cc9f0" opacity="0.05565877399771912" rx="1"/><rect x="588.3412362346814" y="704.3008664865747" width="64.84790696176884" height="168.5242058170317" fill="#2947d4" opacity="0.5881819537114776" rx="2"/><rect x="618.6799341718446" y="714.3008664865747" width="4.170511087442401" height="7.90401987682656" fill="#4895ef" opacity="0.2582850516210974" rx="1"/><rect x="602.4679574314024" y="718.252876424988" width="4.170511087442401" height="7.90401987682656" fill="#4cc9f0" opacity="0.1291425258105487" rx="1"/><rect x="617.5180993663016" y="742.3882341227467" width="6.494180698528462" height="7.063844333650508" fill="#4895ef" opacity="0.28495411232229184" rx="1"/><rect x="601.3061226258594" y="745.9201562895719" width="6.494180698528462" height="7.063844333650508" fill="#4cc9f0" opacity="0.14247705616114592" rx="1"/><rect x="615.6154841902761" y="770.4756017589186" width="10.299411050579373" height="7.917321701980503" fill="#4895ef" opacity="0.39066869949239047" rx="1"/><rect x="599.4035074498339" y="774.4342626099088" width="10.299411050579373" height="7.917321701980503" fill="#4cc9f0" opacity="0.19533434974619523" rx="1"/><rect x="614.8839957992801" y="798.5629693950906" width="11.762387832571378" height="8.38962182644513" fill="#4895ef" opacity="0.2048217689629695" rx="1"/><rect x="598.6720190588379" y="802.7577803083132" width="11.762387832571378" height="8.38962182644513" fill="#4cc9f0" opacity="0.10241088448148475" rx="1"/><rect x="615.9837530843936" y="826.6503370312626" width="9.562873262344597" height="6.096884647406844" fill="#4895ef" opacity="0.3887887753985796" rx="1"/><rect x="599.7717763439514" y="829.698779354966" width="9.562873262344597" height="6.096884647406844" fill="#4cc9f0" opacity="0.1943943876992898" rx="1"/><rect x="616.5732472886795" y="854.7377046674344" width="8.383884853772791" height="9.067262944548219" fill="#4895ef" opacity="0.2849363145150562" rx="1"/><rect x="600.3612705482373" y="859.2713361397085" width="8.383884853772791" height="9.067262944548219" fill="#4cc9f0" opacity="0.1424681572575281" rx="1"/><rect x="672.6212136537554" y="792.0702797575086" width="34.509067806533785" height="80.75479254609785" fill="#4361ee" opacity="0.5133513138893413" rx="2"/><rect x="687.3002202288217" y="802.0702797575086" width="5.151054656401056" height="7.557299213846517" fill="#4895ef" opacity="0.17050987241568738" rx="1"/><rect x="678.6729532771883" y="805.8489293644319" width="5.151054656401056" height="7.557299213846517" fill="#4cc9f0" opacity="0.08525493620784369" rx="1"/><rect x="686.9400435201886" y="812.1646288257708" width="5.871408073667299" height="9.306200072007766" fill="#4895ef" opacity="0.44933557672177804" rx="1"/><rect x="678.3127765685553" y="816.8177288617748" width="5.871408073667299" height="9.306200072007766" fill="#4cc9f0" opacity="0.22466778836088902" rx="1"/><rect x="687.1849440038836" y="822.258977894033" width="5.381607106277162" height="8.681310449419849" fill="#4895ef" opacity="0.39890738073710985" rx="1"/><rect x="678.5576770522503" y="826.599633118743" width="5.381607106277162" height="8.681310449419849" fill="#4cc9f0" opacity="0.19945369036855493" rx="1"/><rect x="684.3686140844261" y="832.3533269622953" width="11.014266945192187" height="7.237291638096163" fill="#4895ef" opacity="0.5199336349079231" rx="1"/><rect x="675.7413471327927" y="835.9719727813434" width="11.014266945192187" height="7.237291638096163" fill="#4cc9f0" opacity="0.25996681745396155" rx="1"/><rect x="684.8351378044863" y="842.4476760305575" width="10.081219505071925" height="9.472057110507055" fill="#4895ef" opacity="0.2702486974350756" rx="1"/><rect x="676.2078708528529" y="847.183704585811" width="10.081219505071925" height="9.472057110507055" fill="#4cc9f0" opacity="0.1351243487175378" rx="1"/><rect x="687.0296449037539" y="852.5420250988197" width="5.692205306536566" height="8.219730254779506" fill="#4895ef" opacity="0.23924692481273016" rx="1"/><rect x="678.4023779521206" y="856.6518902262095" width="5.692205306536566" height="8.219730254779506" fill="#4cc9f0" opacity="0.11962346240636508" rx="1"/><rect x="687.537325642217" y="862.636374167082" width="4.676843829610581" height="8.445009786273587" fill="#4895ef" opacity="0.42362860285761506" rx="1"/><rect x="678.9100586905836" y="866.8588790602188" width="4.676843829610581" height="8.445009786273587" fill="#4cc9f0" opacity="0.21181430142880753" rx="1"/><rect x="685.7540389268754" y="872.7307232353443" width="8.243417260293713" height="9.22800586168375" fill="#4895ef" opacity="0.3394442903435426" rx="1"/><rect x="677.126771975242" y="877.3447261661861" width="8.243417260293713" height="9.22800586168375" fill="#4cc9f0" opacity="0.1697221451717713" rx="1"/><rect x="778.6415238685416" y="528.8945077520084" width="83.97177383628949" height="343.930564551598" fill="#2947d4" opacity="0.556487969787905" rx="2"/><rect x="816.6763372486514" y="538.8945077520084" width="7.902147076069877" height="6.960462412089218" fill="#4895ef" opacity="0.41384591870332277" rx="1"/><rect x="795.6833937895791" y="542.3747389580531" width="7.902147076069877" height="6.960462412089218" fill="#4cc9f0" opacity="0.20692295935166138" rx="1"/><rect x="814.9371938533814" y="624.8771488899079" width="11.38043386660992" height="8.619567002779704" fill="#4895ef" opacity="0.25132704799792893" rx="1"/><rect x="793.944250394309" y="629.1869323912977" width="11.38043386660992" height="8.619567002779704" fill="#4cc9f0" opacity="0.12566352399896447" rx="1"/><rect x="818.0929374530541" y="710.8597900278074" width="5.068946667264436" height="7.243324703826412" fill="#4895ef" opacity="0.5244478284205422" rx="1"/><rect x="797.0999939939818" y="714.4814523797206" width="5.068946667264436" height="7.243324703826412" fill="#4cc9f0" opacity="0.2622239142102711" rx="1"/><rect x="816.2060631400799" y="796.8424311657069" width="8.842695293212937" height="9.307305762382994" fill="#4895ef" opacity="0.42113262902040327" rx="1"/><rect x="795.2131196810076" y="801.4960840468984" width="8.842695293212937" height="9.307305762382994" fill="#4cc9f0" opacity="0.21056631451020164" rx="1"/><rect x="836.6564264146763" y="605.3260777390856" width="31.88717273107897" height="267.4989945645209" fill="#2947d4" opacity="0.5751493011310579" rx="2"/><rect x="848.3202349734327" y="615.3260777390856" width="8.559555613566086" height="9.256747863082389" fill="#4895ef" opacity="0.3785295247515965" rx="1"/><rect x="840.348441790663" y="619.9544516706268" width="8.559555613566086" height="9.256747863082389" fill="#4cc9f0" opacity="0.18926476237579826" rx="1"/><rect x="848.5794632579638" y="659.909243499839" width="8.0410990445039" height="9.514322576931287" fill="#4895ef" opacity="0.20247860548609836" rx="1"/><rect x="840.607670075194" y="664.6664047883047" width="8.0410990445039" height="9.514322576931287" fill="#4cc9f0" opacity="0.10123930274304918" rx="1"/><rect x="848.9207206495407" y="704.4924092605926" width="7.358584261350003" height="6.2412085114608535" fill="#4895ef" opacity="0.36252891443728674" rx="1"/><rect x="840.948927466771" y="707.613013516323" width="7.358584261350003" height="6.2412085114608535" fill="#4cc9f0" opacity="0.18126445721864337" rx="1"/><rect x="847.1250640202159" y="749.075575021346" width="10.949897519999626" height="7.258265427606708" fill="#4895ef" opacity="0.3461149881701253" rx="1"/><rect x="839.1532708374461" y="752.7047077351493" width="10.949897519999626" height="7.258265427606708" fill="#4cc9f0" opacity="0.17305749408506266" rx="1"/><rect x="849.5724883794741" y="793.6587407820995" width="6.055048801483364" height="9.074523717880837" fill="#4895ef" opacity="0.2652012311772446" rx="1"/><rect x="841.6006951967044" y="798.1960026410399" width="6.055048801483364" height="9.074523717880837" fill="#4cc9f0" opacity="0.1326006155886223" rx="1"/><rect x="847.5752460959329" y="838.241906542853" width="10.049533368565498" height="6.5293914760764205" fill="#4895ef" opacity="0.4607908591769615" rx="1"/><rect x="839.6034529131632" y="841.5066022808912" width="10.049533368565498" height="6.5293914760764205" fill="#4cc9f0" opacity="0.23039542958848075" rx="1"/><rect x="935.2816643580215" y="792.0960807921589" width="32.06479904755596" height="80.72899151144759" fill="#2947d4" opacity="0.6909873911624279" rx="2"/><rect x="948.9367511320874" y="802.0960807921589" width="4.754625499424204" height="7.274604643060501" fill="#4895ef" opacity="0.5309648070323665" rx="1"/><rect x="940.9205513701984" y="805.7333831136891" width="4.754625499424204" height="7.274604643060501" fill="#4cc9f0" opacity="0.26548240351618324" rx="1"/><rect x="946.7390902420991" y="813.6287938652229" width="9.149947279400646" height="9.842873346955253" fill="#4895ef" opacity="0.12098829194926385" rx="1"/><rect x="938.7228904802101" y="818.5502305387005" width="9.149947279400646" height="9.842873346955253" fill="#4cc9f0" opacity="0.06049414597463192" rx="1"/><rect x="948.7264372102442" y="825.1615069382867" width="5.175253343110731" height="7.717308111888661" fill="#4895ef" opacity="0.4336755238318992" rx="1"/><rect x="940.7102374483552" y="829.0201609942311" width="5.175253343110731" height="7.717308111888661" fill="#4cc9f0" opacity="0.2168377619159496" rx="1"/><rect x="947.5301190771627" y="836.6942200113507" width="7.5678896092734975" height="6.636100994571136" fill="#4895ef" opacity="0.5312080902585778" rx="1"/><rect x="939.5139193152737" y="840.0122705086362" width="7.5678896092734975" height="6.636100994571136" fill="#4cc9f0" opacity="0.2656040451292889" rx="1"/><rect x="945.6047243348961" y="848.2269330844147" width="11.418679093806697" height="8.681228208048555" fill="#4895ef" opacity="0.19991120200136472" rx="1"/><rect x="937.5885245730071" y="852.567547188439" width="11.418679093806697" height="8.681228208048555" fill="#4cc9f0" opacity="0.09995560100068236" rx="1"/><rect x="946.0144765688767" y="859.7596461574786" width="10.599174625845434" height="7.832518113272386" fill="#4895ef" opacity="0.41864026266118515" rx="1"/><rect x="937.9982768069877" y="863.6759052141149" width="10.599174625845434" height="7.832518113272386" fill="#4cc9f0" opacity="0.20932013133059257" rx="1"/><rect x="946.7928114753827" y="871.2923592305425" width="9.042504812833505" height="6.536935312798464" fill="#4895ef" opacity="0.5209757322494349" rx="1"/><rect x="938.7766117134937" y="874.5608268869418" width="9.042504812833505" height="6.536935312798464" fill="#4cc9f0" opacity="0.26048786612471747" rx="1"/><rect x="1010.8046883065102" y="493.9733624444281" width="62.63612869955509" height="378.85170985917836" fill="#4361ee" opacity="0.4309521403701399" rx="2"/><rect x="1037.2507033481684" y="503.9733624444281" width="9.744098616238706" height="7.25446090317668" fill="#4895ef" opacity="0.35814729667225553" rx="1"/><rect x="1021.5916711732796" y="507.60059289601645" width="9.744098616238706" height="7.25446090317668" fill="#4cc9f0" opacity="0.17907364833612777" rx="1"/><rect x="1039.2404028715962" y="551.3298261768255" width="5.764699569382868" height="6.631240517979311" fill="#4895ef" opacity="0.588745660984131" rx="1"/><rect x="1023.5813706967075" y="554.6454464358151" width="5.764699569382868" height="6.631240517979311" fill="#4cc9f0" opacity="0.2943728304920655" rx="1"/><rect x="1039.7671453887358" y="598.6862899092228" width="4.711214535103928" height="8.854695972719858" fill="#4895ef" opacity="0.5423351054876892" rx="1"/><rect x="1024.108113213847" y="603.1136378955827" width="4.711214535103928" height="8.854695972719858" fill="#4cc9f0" opacity="0.2711675527438446" rx="1"/><rect x="1038.913237812706" y="646.04275364162" width="6.419029687163194" height="7.987199372143298" fill="#4895ef" opacity="0.5647513644222057" rx="1"/><rect x="1023.2542056378173" y="650.0363533276917" width="6.419029687163194" height="7.987199372143298" fill="#4cc9f0" opacity="0.2823756822111029" rx="1"/><rect x="1039.5392334479068" y="693.3992173740173" width="5.167038416761681" height="6.885178420898779" fill="#4895ef" opacity="0.14824346211930817" rx="1"/><rect x="1023.8802012730181" y="696.8418065844667" width="5.167038416761681" height="6.885178420898779" fill="#4cc9f0" opacity="0.07412173105965408" rx="1"/><rect x="1036.1228801543482" y="740.7556811064146" width="11.99974500387901" height="8.329702835141147" fill="#4895ef" opacity="0.4266354804687751" rx="1"/><rect x="1020.4638479794594" y="744.9205325239852" width="11.99974500387901" height="8.329702835141147" fill="#4cc9f0" opacity="0.21331774023438754" rx="1"/><rect x="1036.6754129763706" y="788.1121448388119" width="10.894679359834335" height="7.01893081819148" fill="#4895ef" opacity="0.5987955368121144" rx="1"/><rect x="1021.0163808014818" y="791.6216102479076" width="10.894679359834335" height="7.01893081819148" fill="#4cc9f0" opacity="0.2993977684060572" rx="1"/><rect x="1037.410600422309" y="835.4686085712092" width="9.424304467957537" height="8.569196362646576" fill="#4895ef" opacity="0.20932768278506764" rx="1"/><rect x="1021.7515682474202" y="839.7532067525325" width="9.424304467957537" height="8.569196362646576" fill="#4cc9f0" opacity="0.10466384139253382" rx="1"/><rect x="1113.6623937522652" y="570.6248250954377" width="34.97549318358663" height="302.2002472081688" fill="#4361ee" opacity="0.4249724165361776" rx="2"/><rect x="1129.0430961967058" y="580.6248250954377" width="4.214088294704931" height="8.486222972740936" fill="#4895ef" opacity="0.45652218033944303" rx="1"/><rect x="1120.2992229008094" y="584.8679365818082" width="4.214088294704931" height="8.486222972740936" fill="#4cc9f0" opacity="0.22826109016972151" rx="1"/><rect x="1127.089636104526" y="681.358240831494" width="8.121008479064566" height="7.180723118870688" fill="#4895ef" opacity="0.5944056610098122" rx="1"/><rect x="1118.3457628086296" y="684.9486023909293" width="8.121008479064566" height="7.180723118870688" fill="#4cc9f0" opacity="0.2972028305049061" rx="1"/><rect x="1127.592426345214" y="782.0916565675502" width="7.11542799768863" height="6.755388424907668" fill="#4895ef" opacity="0.32430286247383405" rx="1"/><rect x="1118.8485530493176" y="785.4693507800041" width="7.11542799768863" height="6.755388424907668" fill="#4cc9f0" opacity="0.16215143123691703" rx="1"/><rect x="1195.2240150167784" y="672.1118368841969" width="87.15403184228438" height="200.7132354194096" fill="#4361ee" opacity="0.5989480542482222" rx="2"/><rect x="1233.2256051297015" y="682.1118368841969" width="11.15085161643821" height="8.91089449425016" fill="#4895ef" opacity="0.47145033987971263" rx="1"/><rect x="1211.4370971691303" y="686.567284131322" width="11.15085161643821" height="8.91089449425016" fill="#4cc9f0" opacity="0.23572516993985632" rx="1"/><rect x="1235.275207388198" y="722.2544839680788" width="7.051647099445492" height="6.8996238226302955" fill="#4895ef" opacity="0.35516392447873113" rx="1"/><rect x="1213.4866994276267" y="725.704295879394" width="7.051647099445492" height="6.8996238226302955" fill="#4cc9f0" opacity="0.17758196223936557" rx="1"/><rect x="1235.373859088874" y="762.3971310519607" width="6.854343698093282" height="8.947160490543386" fill="#4895ef" opacity="0.495149046530749" rx="1"/><rect x="1213.5853511283028" y="766.8707112972324" width="6.854343698093282" height="8.947160490543386" fill="#4cc9f0" opacity="0.2475745232653745" rx="1"/><rect x="1236.6047179077884" y="802.5397781358427" width="4.392626060264331" height="9.870646059482974" fill="#4895ef" opacity="0.11091737940696007" rx="1"/><rect x="1214.8162099472172" y="807.4751011655842" width="4.392626060264331" height="9.870646059482974" fill="#4cc9f0" opacity="0.05545868970348004" rx="1"/><rect x="1236.147882692702" y="842.6824252197246" width="5.306296490436955" height="8.281211155066549" fill="#4895ef" opacity="0.22073530678654446" rx="1"/><rect x="1214.3593747321308" y="846.8230307972578" width="5.306296490436955" height="8.281211155066549" fill="#4cc9f0" opacity="0.11036765339327223" rx="1"/><rect x="1267.7761031411796" y="724.3265567404047" width="44.87975537192071" height="148.49851556320175" fill="#2947d4" opacity="0.5104593910534073" rx="2"/><rect x="1285.8641081896558" y="734.3265567404047" width="8.703745274968387" height="7.82865180024613" fill="#4895ef" opacity="0.20687788892697495" rx="1"/><rect x="1274.6441693466757" y="738.2408826405278" width="8.703745274968387" height="7.82865180024613" fill="#4cc9f0" opacity="0.10343894446348748" rx="1"/><rect x="1287.765466789873" y="755.5406303922907" width="4.901028074533918" height="8.223179916437525" fill="#4895ef" opacity="0.550734919042032" rx="1"/><rect x="1276.545527946893" y="759.6522203505095" width="4.901028074533918" height="8.223179916437525" fill="#4cc9f0" opacity="0.275367459521016" rx="1"/><rect x="1285.6816747492633" y="776.7547040441766" width="9.06861215575333" height="8.771640384283764" fill="#4895ef" opacity="0.2628022473684517" rx="1"/><rect x="1274.4617359062831" y="781.1405242363185" width="9.06861215575333" height="8.771640384283764" fill="#4cc9f0" opacity="0.13140112368422585" rx="1"/><rect x="1286.573458168536" y="797.9687776960626" width="7.2850453172077065" height="6.0295628346571615" fill="#4895ef" opacity="0.3617230017813209" rx="1"/><rect x="1275.353519325556" y="800.9835591133912" width="7.2850453172077065" height="6.0295628346571615" fill="#4cc9f0" opacity="0.18086150089066044" rx="1"/><rect x="1287.2429404268405" y="819.1828513479486" width="5.946080800598972" height="7.390486057240164" fill="#4895ef" opacity="0.22304078150145729" rx="1"/><rect x="1276.0230015838604" y="822.8780943765687" width="5.946080800598972" height="7.390486057240164" fill="#4cc9f0" opacity="0.11152039075072864" rx="1"/><rect x="1285.740457951709" y="840.3969249998346" width="8.951045750861766" height="9.790941570836804" fill="#4895ef" opacity="0.5254050832068093" rx="1"/><rect x="1274.5205191087289" y="845.292395785253" width="8.951045750861766" height="9.790941570836804" fill="#4cc9f0" opacity="0.26270254160340467" rx="1"/><rect x="1284.4104383535039" y="861.6109986517205" width="11.61108494727199" height="7.134558205756955" fill="#4895ef" opacity="0.3596773526770243" rx="1"/><rect x="1273.1904995105238" y="865.178277754599" width="11.61108494727199" height="7.134558205756955" fill="#4cc9f0" opacity="0.17983867633851214" rx="1"/><rect x="1342.1971372618273" y="721.2417991415696" width="32.68286541632443" height="151.58327316203696" fill="#2947d4" opacity="0.44106560413284823" rx="2"/><rect x="1356.105668002572" y="731.2417991415696" width="4.865803934835317" height="9.712230856463368" fill="#4895ef" opacity="0.4954558602756485" rx="1"/><rect x="1347.9349516484908" y="736.0979145698012" width="4.865803934835317" height="9.712230856463368" fill="#4cc9f0" opacity="0.24772793013782424" rx="1"/><rect x="1355.6826098474805" y="781.7695568622486" width="5.711920245017838" height="6.687819129016209" fill="#4895ef" opacity="0.1144572319729387" rx="1"/><rect x="1347.5118934933994" y="785.1134664267566" width="5.711920245017838" height="6.687819129016209" fill="#4cc9f0" opacity="0.05722861598646935" rx="1"/><rect x="1353.4210099011184" y="832.2973145829276" width="10.235120137742516" height="8.658857436538408" fill="#4895ef" opacity="0.5289509146308878" rx="1"/><rect x="1345.2502935470372" y="836.6267433011968" width="10.235120137742516" height="8.658857436538408" fill="#4cc9f0" opacity="0.2644754573154439" rx="1"/><rect x="1448.2771973425315" y="570.3713091952659" width="59.3308288951709" height="302.4537631083405" fill="#4361ee" opacity="0.562750945441134" rx="2"/><rect x="1473.3432552965303" y="580.3713091952659" width="9.19871298717305" height="6.1487865178260925" fill="#4895ef" opacity="0.3979052087287198" rx="1"/><rect x="1458.5105480727377" y="583.4457024541789" width="9.19871298717305" height="6.1487865178260925" fill="#4cc9f0" opacity="0.1989526043643599" rx="1"/><rect x="1472.9333564584067" y="623.5789896393145" width="10.018510663420546" height="8.32077024186048" fill="#4895ef" opacity="0.2910720632157922" rx="1"/><rect x="1458.1006492346141" y="627.7393747602447" width="10.018510663420546" height="8.32077024186048" fill="#4cc9f0" opacity="0.1455360316078961" rx="1"/><rect x="1473.1524876208478" y="666.7866700833632" width="9.58024833853828" height="6.132998356626602" fill="#4895ef" opacity="0.5430691816245833" rx="1"/><rect x="1458.3197803970552" y="669.8531692616765" width="9.58024833853828" height="6.132998356626602" fill="#4cc9f0" opacity="0.27153459081229164" rx="1"/><rect x="1475.2459494217019" y="709.9943505274118" width="5.393324736830156" height="8.623776743799397" fill="#4895ef" opacity="0.48424727434391324" rx="1"/><rect x="1460.4132421979093" y="714.3062388993116" width="5.393324736830156" height="8.623776743799397" fill="#4cc9f0" opacity="0.24212363717195662" rx="1"/><rect x="1475.7087534915522" y="753.2020309714605" width="4.467716597129525" height="9.55724117987725" fill="#4895ef" opacity="0.12021792694465674" rx="1"/><rect x="1460.8760462677596" y="757.9806515613992" width="4.467716597129525" height="9.55724117987725" fill="#4cc9f0" opacity="0.06010896347232837" rx="1"/><rect x="1473.8011414672328" y="796.4097114155092" width="8.282940645768061" height="8.696455589192094" fill="#4895ef" opacity="0.30078408687859404" rx="1"/><rect x="1458.9684342434402" y="800.7579392101052" width="8.282940645768061" height="8.696455589192094" fill="#4cc9f0" opacity="0.15039204343929702" rx="1"/><rect x="1473.4310964534209" y="839.6173918595578" width="9.02303067339189" height="8.10418908905801" fill="#4895ef" opacity="0.3905738079665634" rx="1"/><rect x="1458.5983892296283" y="843.6694864040868" width="9.02303067339189" height="8.10418908905801" fill="#4cc9f0" opacity="0.1952869039832817" rx="1"/><rect x="1512.1136620433092" y="758.4164051475042" width="76.53477079387167" height="114.4086671561023" fill="#4361ee" opacity="0.4401725520939037" rx="2"/><rect x="1547.156410446589" y="768.4164051475042" width="6.449273987312166" height="8.948004670196214" fill="#4895ef" opacity="0.25770088291207816" rx="1"/><rect x="1528.022717748121" y="772.8904074826023" width="6.449273987312166" height="8.948004670196214" fill="#4cc9f0" opacity="0.12885044145603908" rx="1"/><rect x="1547.7742396037725" y="806.5526275328716" width="5.213615672945421" height="7.687337913011978" fill="#4895ef" opacity="0.38467713209909316" rx="1"/><rect x="1528.6405469053045" y="810.3962964893776" width="5.213615672945421" height="7.687337913011978" fill="#4cc9f0" opacity="0.19233856604954658" rx="1"/><rect x="1544.6623942755066" y="844.688849918239" width="11.43730632947695" height="7.171037987147233" fill="#4895ef" opacity="0.2631453920069955" rx="1"/><rect x="1525.5287015770386" y="848.2743689118126" width="11.43730632947695" height="7.171037987147233" fill="#4cc9f0" opacity="0.13157269600349775" rx="1"/><rect x="1597.5665540491518" y="699.95648143812" width="79.2216631139679" height="172.86859086548645" fill="#2947d4" opacity="0.6049341575486898" rx="2"/><rect x="1631.844934493723" y="709.95648143812" width="10.664902224825905" height="7.309347568384686" fill="#4895ef" opacity="0.316111756795112" rx="1"/><rect x="1612.039518715231" y="713.6111552223124" width="10.664902224825905" height="7.309347568384686" fill="#4cc9f0" opacity="0.158055878397556" rx="1"/><rect x="1633.7999689429435" y="731.5650552963058" width="6.754833326385085" height="8.173867731861273" fill="#4895ef" opacity="0.10807259394975208" rx="1"/><rect x="1613.9945531644514" y="735.6519891622364" width="6.754833326385085" height="8.173867731861273" fill="#4cc9f0" opacity="0.05403629697487604" rx="1"/><rect x="1634.6165751797553" y="753.1736291544917" width="5.121620852761348" height="9.598299432452372" fill="#4895ef" opacity="0.5255773769518308" rx="1"/><rect x="1614.8111594012632" y="757.9727788707179" width="5.121620852761348" height="9.598299432452372" fill="#4cc9f0" opacity="0.2627886884759154" rx="1"/><rect x="1632.4256498493214" y="774.7822030126774" width="9.503471513628837" height="6.269116306740119" fill="#4895ef" opacity="0.13757923830709867" rx="1"/><rect x="1612.6202340708294" y="777.9167611660475" width="9.503471513628837" height="6.269116306740119" fill="#4cc9f0" opacity="0.06878961915354934" rx="1"/><rect x="1631.3387563976682" y="796.3907768708632" width="11.677258416935164" height="8.345597700762003" fill="#4895ef" opacity="0.37991685254497376" rx="1"/><rect x="1611.5333406191762" y="800.5635757212442" width="11.677258416935164" height="8.345597700762003" fill="#4cc9f0" opacity="0.18995842627248688" rx="1"/><rect x="1634.6968238616023" y="817.9993507290491" width="4.96112348906722" height="6.01121587958448" fill="#4895ef" opacity="0.3850907645852051" rx="1"/><rect x="1614.8914080831103" y="821.0049586688413" width="4.96112348906722" height="6.01121587958448" fill="#4cc9f0" opacity="0.19254538229260254" rx="1"/><rect x="1634.6581885452883" y="839.6079245872348" width="5.038394121694936" height="6.090915650150486" fill="#4895ef" opacity="0.12349871944717568" rx="1"/><rect x="1614.8527727667963" y="842.6533824123101" width="5.038394121694936" height="6.090915650150486" fill="#4cc9f0" opacity="0.06174935972358784" rx="1"/><rect x="1633.663832882331" y="861.2164984454207" width="7.027105447609701" height="7.312402000956331" fill="#4895ef" opacity="0.2654192879017022" rx="1"/><rect x="1613.858417103839" y="864.8726994458989" width="7.027105447609701" height="7.312402000956331" fill="#4cc9f0" opacity="0.1327096439508511" rx="1"/><rect x="1671.7474614728626" y="725.6348085183731" width="74.89215975741209" height="147.1902637852333" fill="#2947d4" opacity="0.6500506033306128" rx="2"/><rect x="1706.1670968687126" y="735.6348085183731" width="6.052888965712135" height="8.440513787428037" fill="#4895ef" opacity="0.242322717849706" rx="1"/><rect x="1687.4440569293595" y="739.8550654120871" width="6.052888965712135" height="8.440513787428037" fill="#4cc9f0" opacity="0.121161358924853" rx="1"/><rect x="1703.944146215022" y="760.1665191492453" width="10.498790273093338" height="7.042686696407079" fill="#4895ef" opacity="0.26916843658992284" rx="1"/><rect x="1685.221106275669" y="763.6878624974489" width="10.498790273093338" height="7.042686696407079" fill="#4cc9f0" opacity="0.13458421829496142" rx="1"/><rect x="1705.6956768431498" y="784.6982297801176" width="6.9957290168376005" height="6.388252810665465" fill="#4895ef" opacity="0.25676673447172316" rx="1"/><rect x="1686.9726369037967" y="787.8923561854504" width="6.9957290168376005" height="6.388252810665465" fill="#4cc9f0" opacity="0.12838336723586158" rx="1"/><rect x="1704.5005615429761" y="809.2299404109898" width="9.38595961718493" height="7.796107558020416" fill="#4895ef" opacity="0.12136897075021849" rx="1"/><rect x="1685.777521603623" y="813.12799419" width="9.38595961718493" height="7.796107558020416" fill="#4cc9f0" opacity="0.060684485375109246" rx="1"/><rect x="1704.3455019007818" y="833.761651041862" width="9.696078901574033" height="8.927693145099955" fill="#4895ef" opacity="0.40910556700758305" rx="1"/><rect x="1685.6224619614286" y="838.225497614412" width="9.696078901574033" height="8.927693145099955" fill="#4cc9f0" opacity="0.20455278350379152" rx="1"/><rect x="1705.1359292178772" y="858.2933616727341" width="8.115224267382924" height="7.63650200460956" fill="#4895ef" opacity="0.3407347747918067" rx="1"/><rect x="1686.412889278524" y="862.1116126750389" width="8.115224267382924" height="7.63650200460956" fill="#4cc9f0" opacity="0.17036738739590335" rx="1"/><rect x="1770.2155372997963" y="682.1896741358074" width="31.983459759965413" height="190.63539816779908" fill="#4361ee" opacity="0.6610646469893551" rx="2"/><rect x="1783.9317796180048" y="692.1896741358074" width="4.550975123548642" height="8.903310356406335" fill="#4895ef" opacity="0.42800299134757436" rx="1"/><rect x="1775.9359146780134" y="696.6413293140106" width="4.550975123548642" height="8.903310356406335" fill="#4cc9f0" opacity="0.21400149567378718" rx="1"/><rect x="1783.288161098437" y="723.9622404971072" width="5.838212162684233" height="8.29158947763303" fill="#4895ef" opacity="0.19486710759691594" rx="1"/><rect x="1775.2922961584457" y="728.1080352359238" width="5.838212162684233" height="8.29158947763303" fill="#4cc9f0" opacity="0.09743355379845797" rx="1"/><rect x="1780.86747624803" y="755.7348068584071" width="10.679581863498218" height="8.20768456957482" fill="#4895ef" opacity="0.2834914547352799" rx="1"/><rect x="1772.8716113080386" y="759.8386491431945" width="10.679581863498218" height="8.20768456957482" fill="#4cc9f0" opacity="0.14174572736763996" rx="1"/><rect x="1780.8387224346673" y="787.507373219707" width="10.73708949022393" height="9.089386206839556" fill="#4895ef" opacity="0.30971473613980105" rx="1"/><rect x="1772.8428574946759" y="792.0520663231268" width="10.73708949022393" height="9.089386206839556" fill="#4cc9f0" opacity="0.15485736806990053" rx="1"/><rect x="1783.3919217376667" y="819.2799395810068" width="5.630690884224766" height="9.659243156122798" fill="#4895ef" opacity="0.4978284528473924" rx="1"/><rect x="1775.3960567976753" y="824.1095611590682" width="5.630690884224766" height="9.659243156122798" fill="#4cc9f0" opacity="0.2489142264236962" rx="1"/><rect x="1783.8099552361034" y="851.0525059423067" width="4.794623887351394" height="7.052949146612768" fill="#4895ef" opacity="0.19981227982784908" rx="1"/><rect x="1775.814090296112" y="854.578980515613" width="4.794623887351394" height="7.052949146612768" fill="#4cc9f0" opacity="0.09990613991392454" rx="1"/><rect x="1848.7993314048597" y="721.0077021552734" width="47.40235291826593" height="151.8173701483331" fill="#2947d4" opacity="0.6183494383511947" rx="2"/><rect x="1869.8563201470754" y="731.0077021552734" width="5.288375433834357" height="7.935928276259435" fill="#4895ef" opacity="0.3723312752256941" rx="1"/><rect x="1858.005731917509" y="734.975666293403" width="5.288375433834357" height="7.935928276259435" fill="#4cc9f0" opacity="0.18616563761284705" rx="1"/><rect x="1867.2425709543706" y="749.984873423815" width="10.515873819244064" height="6.782671478759188" fill="#4895ef" opacity="0.2975950658548612" rx="1"/><rect x="1855.3919827248042" y="753.3762091631945" width="10.515873819244064" height="6.782671478759188" fill="#4cc9f0" opacity="0.1487975329274306" rx="1"/><rect x="1869.6545799901694" y="768.9620446923566" width="5.691855747646619" height="7.527413498034564" fill="#4895ef" opacity="0.1410653109525017" rx="1"/><rect x="1857.803991760603" y="772.7257514413739" width="5.691855747646619" height="7.527413498034564" fill="#4cc9f0" opacity="0.07053265547625084" rx="1"/><rect x="1868.6301144625454" y="787.9392159608983" width="7.740786802894619" height="8.366287141657967" fill="#4895ef" opacity="0.5951180429186481" rx="1"/><rect x="1856.779526232979" y="792.1223595317273" width="7.740786802894619" height="8.366287141657967" fill="#4cc9f0" opacity="0.29755902145932406" rx="1"/><rect x="1867.0241900234862" y="806.9163872294399" width="10.952635681012794" height="9.267189952374247" fill="#4895ef" opacity="0.25980237388513105" rx="1"/><rect x="1855.1736017939197" y="811.5499822056271" width="10.952635681012794" height="9.267189952374247" fill="#4cc9f0" opacity="0.12990118694256553" rx="1"/><rect x="1867.7690869617527" y="825.8935584979815" width="9.462841804479911" height="9.659007946881236" fill="#4895ef" opacity="0.5959373188894096" rx="1"/><rect x="1855.9184987321862" y="830.7230624714222" width="9.462841804479911" height="9.659007946881236" fill="#4cc9f0" opacity="0.2979686594447048" rx="1"/><rect x="1866.5317259662017" y="844.8707297665233" width="11.937563795581823" height="7.179793795845423" fill="#4895ef" opacity="0.3331519519754573" rx="1"/><rect x="1854.6811377366353" y="848.460626664446" width="11.937563795581823" height="7.179793795845423" fill="#4cc9f0" opacity="0.16657597598772866" rx="1"/><rect x="1867.8380745352658" y="863.8479010350649" width="9.324866657453791" height="6.057463531395761" fill="#4895ef" opacity="0.4848716601228509" rx="1"/><rect x="1855.9874863056993" y="866.8766328007628" width="9.324866657453791" height="6.057463531395761" fill="#4cc9f0" opacity="0.24243583006142544" rx="1"/><path d="M760.8786192817797 800.0821891939459 Q745.418487443919 689.8950706270745 742.3264610763468 579.7079520602031" stroke="#0014a1" stroke-width="7.251334749919208" fill="none" stroke-linecap="round"/><path d="M742.3264610763468 579.7079520602031 Q774.3703007675639 559.7079520602031 783.596740923728 579.7079520602031" stroke="#102ebb" stroke-width="3.809486118566591" fill="none" stroke-linecap="round" opacity="0.6"/><path d="M742.3264610763468 579.7079520602031 Q756.9269187394486 564.7455022024901 769.1085423005785 589.7830523447773" stroke="#102ebb" stroke-width="3.010129590753962" fill="none" stroke-linecap="round" opacity="0.6"/><path d="M742.3264610763468 579.7079520602031 Q748.7841188597994 565.1114153747283 734.1044261387004 590.5148786892536" stroke="#102ebb" stroke-width="3.5867802732593335" fill="none" stroke-linecap="round" opacity="0.6"/><path d="M742.3264610763468 579.7079520602031 Q723.2958754399663 564.1656252640796 680.6167691645014 588.6232984679561" stroke="#102ebb" stroke-width="3.869390060163427" fill="none" stroke-linecap="round" opacity="0.6"/><path d="M742.3264610763468 579.7079520602031 Q734.6195080782355 556.6938227539598 700.6004344333475 573.6796934477165" stroke="#102ebb" stroke-width="3.21779627753836" fill="none" stroke-linecap="round" opacity="0.6"/><path d="M1728.9758696707377 815.6460732956524 Q1735.5116321322305 729.0468274392297 1736.818784624529 642.4475815828068" stroke="#0014a1" stroke-width="6.622523313998832" fill="none" stroke-linecap="round"/><path d="M1736.818784624529 642.4475815828068 Q1783.5758470004835 622.4475815828068 1793.5038229561187 642.4475815828068" stroke="#102ebb" stroke-width="3.9129945179244956" fill="none" stroke-linecap="round" opacity="0.6"/><path d="M1736.818784624529 642.4475815828068 Q1755.4724044679483 628.857348098042 1770.8962394568593 655.2671146132773" stroke="#102ebb" stroke-width="3.8868905892332295" fill="none" stroke-linecap="round" opacity="0.6"/><path d="M1736.818784624529 642.4475815828068 Q1733.8506319626892 628.008049064375 1728.3578485096853 653.568516545943" stroke="#102ebb" stroke-width="3.227201043448225" fill="none" stroke-linecap="round" opacity="0.6"/><path d="M1736.818784624529 642.4475815828068 Q1711.3082172228405 626.2569300796881 1684.0841602193648 650.0662785765694" stroke="#102ebb" stroke-width="3.416199745008768" fill="none" stroke-linecap="round" opacity="0.6"/><path d="M1736.818784624529 642.4475815828068 Q1717.6108825703045 617.6544699225926 1670.46545850056 632.8613582623783" stroke="#102ebb" stroke-width="2.0115531417568104" fill="none" stroke-linecap="round" opacity="0.6"/><path d="M1736.818784624529 642.4475815828068 Q1731.6368071894935 615.1781517400533 1725.7574517968922 627.9087218972998" stroke="#102ebb" stroke-width="3.7928441268840904" fill="none" stroke-linecap="round" opacity="0.6"/><path d="M785.5910478871295 852.1769474614823 Q801.5198414822854 793.5950094353395 804.7056002013167 735.0130714091968" stroke="#0014a1" stroke-width="5.7568894572921305" fill="none" stroke-linecap="round"/><path d="M804.7056002013167 735.0130714091968 Q830.4329255359326 715.0130714091968 849.1740998852008 735.0130714091968" stroke="#102ebb" stroke-width="2.3302114001312786" fill="none" stroke-linecap="round" opacity="0.6"/><path d="M804.7056002013167 735.0130714091968 Q834.4038457482076 721.1675018967546 837.4255637850094 747.3219323843124" stroke="#102ebb" stroke-width="2.667499907935853" fill="none" stroke-linecap="round" opacity="0.6"/><path d="M804.7056002013167 735.0130714091968 Q806.6679152256248 722.8384232889666 792.7983635255555 750.6637751687365" stroke="#102ebb" stroke-width="3.7692550341061444" fill="none" stroke-linecap="round" opacity="0.6"/><path d="M804.7056002013167 735.0130714091968 Q791.5661699162248 718.8010985770734 752.2661371020281 742.5891257449501" stroke="#102ebb" stroke-width="3.339699668190372" fill="none" stroke-linecap="round" opacity="0.6"/><path d="M804.7056002013167 735.0130714091968 Q783.9732034508519 711.9837599457727 762.7693997301042 728.9544484823487" stroke="#102ebb" stroke-width="3.914963092169483" fill="none" stroke-linecap="round" opacity="0.6"/><path d="M804.7056002013167 735.0130714091968 Q818.0700608381262 710.2289743187993 797.4260072564357 725.4448772284018" stroke="#102ebb" stroke-width="3.6786736812625715" fill="none" stroke-linecap="round" opacity="0.6"/><rect x="0" y="1000" width="1920" height="80" fill="#1d3bc8" opacity="0.8"/><line x1="0" y1="1040" x2="1920" y2="1040" stroke="#4895ef" stroke-opacity="0.15" stroke-width="2" stroke-dasharray="30,20"/><rect x="0" y="930" width="1920" height="150" fill="url(#glow93)"/><rect x="0" y="980" width="1920" height="100" fill="#4895ef" opacity="0.04"/><rect x="720.033631045379" y="1044.5623512995808" width="37.065806807266966" height="2" fill="#4cc9f0" opacity="0.03007717333968663" rx="1"/><rect x="1029.3568215680673" y="1039.0479378260318" width="40.66495197840616" height="2" fill="#4cc9f0" opacity="0.036920566413765905" rx="1"/><rect x="1052.428195125523" y="1047.595074029545" width="28.620092344614697" height="2" fill="#4cc9f0" opacity="0.021798804197879232" rx="1"/><rect x="1122.5761411717572" y="1007.4402163148486" width="55.15545067730253" height="2" fill="#4cc9f0" opacity="0.02962282265760536" rx="1"/><rect x="1865.8267463617553" y="1020.5859957683333" width="20.379954837351097" height="2" fill="#4cc9f0" opacity="0.056053869108682" rx="1"/><rect x="742.5883449852905" y="1046.065995745842" width="62.01406080788328" height="2" fill="#4cc9f0" opacity="0.03934057210091049" rx="1"/><rect x="1171.1348831400123" y="1041.085449029013" width="68.4918159545613" height="2" fill="#4cc9f0" opacity="0.041052338681428775" rx="1"/><rect x="1321.735874573173" y="1012.9213987414076" width="31.67848638996447" height="2" fill="#4cc9f0" opacity="0.031126649373007624" rx="1"/><rect x="1153.8756848578053" y="1010.3004226997263" width="52.21201927685458" height="2" fill="#4cc9f0" opacity="0.05866725406578445" rx="1"/><rect x="1620.3717920976626" y="1052.5601283769497" width="92.25366231805032" height="2" fill="#4cc9f0" opacity="0.05586762525976348" rx="1"/><rect x="1624.8491767851751" y="1043.618523688898" width="45.1662432041872" height="2" fill="#4cc9f0" opacity="0.02606886699937025" rx="1"/><rect x="1390.343966211738" y="1055.3066384502004" width="118.5845404906628" height="2" fill="#4cc9f0" opacity="0.02958561691678726" rx="1"/><rect x="617.8465427406705" y="1045.1013928477423" width="63.02968765679507" height="2" fill="#4cc9f0" opacity="0.0363580107261329" rx="1"/><rect x="414.30149013509543" y="1051.6421778527188" width="39.044166737944856" height="2" fill="#4cc9f0" opacity="0.0387202924347297" rx="1"/><rect x="1207.3282602260188" y="1048.6026785915258" width="117.64348738771945" height="2" fill="#4cc9f0" opacity="0.05582289421833653" rx="1"/><rect x="1366.3934888146803" y="1025.85466702605" width="111.80884619518389" height="2" fill="#4cc9f0" opacity="0.05469000693287002" rx="1"/><rect x="348.1986626303286" y="1012.6883413346225" width="31.858329296079077" height="2" fill="#4cc9f0" opacity="0.046796090339030164" rx="1"/><rect x="927.8415108397235" y="1040.8999405663694" width="42.49253585992673" height="2" fill="#4cc9f0" opacity="0.04190316177483256" rx="1"/><rect x="948.9984277610198" y="1048.0433003949101" width="35.979583076196626" height="2" fill="#4cc9f0" opacity="0.025274775914213336" rx="1"/><rect x="882.0619826582405" y="1044.9266863672358" width="22.67415228362059" height="2" fill="#4cc9f0" opacity="0.034591925277978164" rx="1"/><rect x="899.4347407527814" y="1022.1200473564957" width="76.1692746486909" height="2" fill="#4cc9f0" opacity="0.03434888679868283" rx="1"/><rect x="475.7752813016473" y="1041.0011450203604" width="20.776168611081356" height="2" fill="#4cc9f0" opacity="0.04332366252861071" rx="1"/><rect x="1006.39383250065" y="1037.2138145512934" width="79.8782658250719" height="2" fill="#4cc9f0" opacity="0.056858903178213835" rx="1"/><rect x="979.6748670236382" y="1000.8032263537876" width="92.78990120924774" height="2" fill="#4cc9f0" opacity="0.042096264590997315" rx="1"/><rect x="1108.3371236520675" y="1043.2697497502131" width="118.8589109384592" height="2" fill="#4cc9f0" opacity="0.024597482151490983" rx="1"/><rect x="617.352748060914" y="1056.8777678201157" width="39.32402139513847" height="2" fill="#4cc9f0" opacity="0.0208194653598637" rx="1"/><rect x="1822.5577273738006" y="1014.0252560223512" width="63.977385420346955" height="2" fill="#4cc9f0" opacity="0.022811016590057645" rx="1"/><rect x="1892.7803653415247" y="1002.336789360814" width="103.07728499245766" height="2" fill="#4cc9f0" opacity="0.020963994926066137" rx="1"/><rect x="1563.8396107321232" y="1040.7746643761113" width="76.37573186689423" height="2" fill="#4cc9f0" opacity="0.03823584469459854" rx="1"/><rect x="1555.2899805352301" y="1024.4643177894093" width="67.3839585081171" height="2" fill="#4cc9f0" opacity="0.05444206334521111" rx="1"/><text x="1900" y="1060" font-family="Arial, sans-serif" font-size="11" fill="#fff" opacity="0.08" text-anchor="end" letter-spacing="2">GTA 6 REWARDS · WALLPAPER 094</text>
</svg>