<?xml version="1.0" encoding="UTF-8"?>
<svg xmlns="http://www.w3.org/2000/svg" width="1920" height="1080" viewBox="0 0 1920 1080">
<defs>
    <linearGradient id="bg47" x1="0%" y1="0%" x2="0%" y2="100%">
      <stop offset="0%" stop-color="#03045e"/>
      <stop offset="50%" stop-color="#00002b"/>
      <stop offset="100%" stop-color="#03045e"/>
    </linearGradient>
    <linearGradient id="sun47" x1="0%" y1="0%" x2="100%" y2="100%">
      <stop offset="0%" stop-color="#00b4d8"/>
      <stop offset="100%" stop-color="#0077b6"/>
    </linearGradient>
    <radialGradient id="glow47" cx="50%" cy="70%" r="50%">
      <stop offset="0%" stop-color="#00b4d8" stop-opacity="0.3"/>
      <stop offset="100%" stop-color="#03045e" stop-opacity="0"/>
    </radialGradient>
  </defs><rect width="1920" height="1080" fill="url(#bg47)"/><circle cx="415.6502662495827" cy="388.77632920368956" r="763.3446875408629" fill="#00b4d8" opacity="0.1000562897999902"/><circle cx="615.6502662495827" cy="288.77632920368956" r="531.2291221067377" fill="#0077b6" opacity="0.1039062180309338"/><circle cx="332.4820471071829" cy="319.1354685391149" r="83.89714321677972" fill="url(#sun47)" opacity="0.636700644166372"/><circle cx="332.4820471071829" cy="319.1354685391149" r="78.89714321677972" fill="#03045e" opacity="0.3"/><rect x="16.290031675316868" y="627.8820428247288" width="58.72994155826278" height="319.1522731723153" fill="#000044" opacity="0.6118256013867971" rx="2"/><rect x="40.47145742119091" y="637.8820428247288" width="10.367090066514697" height="6.416328966714518" fill="#0077b6" opacity="0.37646226162939855" rx="1"/><rect x="25.788972031625214" y="641.0902073080861" width="10.367090066514697" height="6.416328966714518" fill="#00b4d8" opacity="0.18823113081469928" rx="1"/><rect x="40.151116954430734" y="691.074088353448" width="11.007771000035053" height="9.119810417089568" fill="#0077b6" opacity="0.4178111561149851" rx="1"/><rect x="25.468631564865035" y="695.6339935619928" width="11.007771000035053" height="9.119810417089568" fill="#00b4d8" opacity="0.20890557805749255" rx="1"/><rect x="40.91862382691321" y="744.2661338821673" width="9.472757255070087" height="6.081129927207048" fill="#0077b6" opacity="0.5016092644076816" rx="1"/><rect x="26.23613843734752" y="747.3066988457708" width="9.472757255070087" height="6.081129927207048" fill="#00b4d8" opacity="0.2508046322038408" rx="1"/><rect x="39.664948431929794" y="797.4581794108865" width="11.980108045036928" height="6.896838192105489" fill="#0077b6" opacity="0.11603955135588524" rx="1"/><rect x="24.9824630423641" y="800.9065985069392" width="11.980108045036928" height="6.896838192105489" fill="#00b4d8" opacity="0.05801977567794262" rx="1"/><rect x="42.22121978905546" y="850.6502249396057" width="6.867565330785598" height="6.5674828748608665" fill="#0077b6" opacity="0.10544299662705581" rx="1"/><rect x="27.538734399489766" y="853.9339663770361" width="6.867565330785598" height="6.5674828748608665" fill="#00b4d8" opacity="0.052721498313527904" rx="1"/><rect x="42.35880366232218" y="903.8422704683248" width="6.5923975842521525" height="8.381173268514958" fill="#0077b6" opacity="0.20285686459458827" rx="1"/><rect x="27.676318272756486" y="908.0328571025823" width="6.5923975842521525" height="8.381173268514958" fill="#00b4d8" opacity="0.10142843229729413" rx="1"/><rect x="116.32117415925515" y="667.2685164299953" width="64.141767563797" height="279.7657995670488" fill="#03045e" opacity="0.4313577753797541" rx="2"/><rect x="145.5902762381803" y="677.2685164299953" width="5.603563405946726" height="9.583114731959792" fill="#0077b6" opacity="0.2697652469551576" rx="1"/><rect x="129.55483434723104" y="682.0600737959752" width="5.603563405946726" height="9.583114731959792" fill="#00b4d8" opacity="0.1348826234775788" rx="1"/><rect x="143.39159193550972" y="747.2099663217575" width="10.000932011287876" height="7.141803362672637" fill="#0077b6" opacity="0.2619890514207047" rx="1"/><rect x="127.35615004456045" y="750.7808680030938" width="10.000932011287876" height="7.141803362672637" fill="#00b4d8" opacity="0.13099452571035236" rx="1"/><rect x="142.92589010203395" y="817.1514162135197" width="10.932335678239431" height="6.124237915529925" fill="#0077b6" opacity="0.42265292546307964" rx="1"/><rect x="126.89044821108467" y="820.2135351712847" width="10.932335678239431" height="6.124237915529925" fill="#00b4d8" opacity="0.21132646273153982" rx="1"/><rect x="144.55417293160087" y="887.0928661052819" width="7.675770019105582" height="7.142344219876068" fill="#0077b6" opacity="0.3550895672186952" rx="1"/><rect x="128.5187310406516" y="890.66403821522" width="7.675770019105582" height="7.142344219876068" fill="#00b4d8" opacity="0.1775447836093476" rx="1"/><rect x="239.97612396254578" y="736.285446068804" width="85.93825427720748" height="210.74886992824005" fill="#03045e" opacity="0.463988498380405" rx="2"/><rect x="280.23702013428255" y="746.285446068804" width="5.416461933734003" height="6.13638328484641" fill="#0077b6" opacity="0.43960411030324276" rx="1"/><rect x="258.75245656498066" y="749.3536377112273" width="5.416461933734003" height="6.13638328484641" fill="#00b4d8" opacity="0.21980205515162138" rx="1"/><rect x="278.67042152110264" y="816.5350693782174" width="8.54965916009379" height="6.616079395780359" fill="#0077b6" opacity="0.5778644905839732" rx="1"/><rect x="257.18585795180076" y="819.8431090761076" width="8.54965916009379" height="6.616079395780359" fill="#00b4d8" opacity="0.2889322452919866" rx="1"/><rect x="279.8125659089565" y="886.7846926876307" width="6.265370384386129" height="6.936417081611328" fill="#0077b6" opacity="0.5844885162274559" rx="1"/><rect x="258.32800233965463" y="890.2529012284364" width="6.265370384386129" height="6.936417081611328" fill="#00b4d8" opacity="0.29224425811372795" rx="1"/><rect x="330.06990736352043" y="697.230481344096" width="72.36404271385726" height="249.80383465294815" fill="#000044" opacity="0.5822378603001679" rx="2"/><rect x="361.93310234996795" y="707.230481344096" width="8.637652740962256" height="7.300238785636667" fill="#0077b6" opacity="0.2513421757033426" rx="1"/><rect x="343.8420916715036" y="710.8806007369143" width="8.637652740962256" height="7.300238785636667" fill="#00b4d8" opacity="0.1256710878516713" rx="1"/><rect x="360.3514802407826" y="790.4984262284121" width="11.800896959332958" height="6.83355762176997" fill="#0077b6" opacity="0.558832132969711" rx="1"/><rect x="342.2604695623183" y="793.9152050392971" width="11.800896959332958" height="6.83355762176997" fill="#00b4d8" opacity="0.2794160664848555" rx="1"/><rect x="362.82755092201467" y="873.7663711127282" width="6.84875559686887" height="6.401761377323829" fill="#0077b6" opacity="0.12398841735534101" rx="1"/><rect x="344.73654024355034" y="876.96725180139" width="6.84875559686887" height="6.401761377323829" fill="#00b4d8" opacity="0.061994208677670505" rx="1"/><rect x="455.53068799793965" y="750.4173333524766" width="32.97283329138831" height="196.61698264456749" fill="#000044" opacity="0.6114388861487244" rx="2"/><rect x="467.39616336822417" y="760.4173333524766" width="9.241882550819284" height="9.572627986681795" fill="#0077b6" opacity="0.16805707236473846" rx="1"/><rect x="459.1529550453771" y="765.2036473458174" width="9.241882550819284" height="9.572627986681795" fill="#00b4d8" opacity="0.08402853618236923" rx="1"/><rect x="466.88245334985714" y="799.74072988139" width="10.26930258755323" height="8.809824901355855" fill="#0077b6" opacity="0.48465062502879896" rx="1"/><rect x="458.6392450270101" y="804.145642332068" width="10.26930258755323" height="8.809824901355855" fill="#00b4d8" opacity="0.24232531251439948" rx="1"/><rect x="470.0159345737229" y="839.0641264103036" width="4.002340139821716" height="6.6088207048850185" fill="#0077b6" opacity="0.14502406694111974" rx="1"/><rect x="461.77272625087585" y="842.3685367627461" width="4.002340139821716" height="6.6088207048850185" fill="#00b4d8" opacity="0.07251203347055987" rx="1"/><rect x="468.2330446353258" y="878.3875229392171" width="7.568120016615866" height="6.722960229200069" fill="#0077b6" opacity="0.48875910881645024" rx="1"/><rect x="459.98983631247876" y="881.7490030538171" width="7.568120016615866" height="6.722960229200069" fill="#00b4d8" opacity="0.24437955440822512" rx="1"/><rect x="468.7424916931759" y="917.7109194681306" width="6.5492259009157365" height="6.244255745840318" fill="#0077b6" opacity="0.31648693310946385" rx="1"/><rect x="460.49928337032884" y="920.8330473410507" width="6.5492259009157365" height="6.244255745840318" fill="#00b4d8" opacity="0.15824346655473193" rx="1"/><rect x="555.202877580934" y="636.7735975624" width="39.59374272487912" height="310.2607184346441" fill="#000044" opacity="0.46825762665091497" rx="2"/><rect x="569.443164023674" y="646.7735975624" width="11.113169839399209" height="7.086705158717629" fill="#0077b6" opacity="0.1254926380062226" rx="1"/><rect x="559.5447283424542" y="650.3169501417589" width="11.113169839399209" height="7.086705158717629" fill="#00b4d8" opacity="0.0627463190031113" rx="1"/><rect x="572.4142969994374" y="691.0965573387778" width="5.1709038878723295" height="7.021369037456198" fill="#0077b6" opacity="0.5490063619914014" rx="1"/><rect x="562.5158613182176" y="694.6072418575059" width="5.1709038878723295" height="7.021369037456198" fill="#00b4d8" opacity="0.2745031809957007" rx="1"/><rect x="570.0954420746061" y="735.4195171151555" width="9.808613737534873" height="9.892666134958311" fill="#0077b6" opacity="0.1833094584716739" rx="1"/><rect x="560.1970063933863" y="740.3658501826346" width="9.808613737534873" height="9.892666134958311" fill="#00b4d8" opacity="0.09165472923583695" rx="1"/><rect x="572.9491163808734" y="779.7424768915332" width="4.101265125000213" height="9.325349425739923" fill="#0077b6" opacity="0.24789211264529548" rx="1"/><rect x="563.0506806996536" y="784.4051516044032" width="4.101265125000213" height="9.325349425739923" fill="#00b4d8" opacity="0.12394605632264774" rx="1"/><rect x="570.1515396631211" y="824.065436667911" width="9.69641856050501" height="9.91023660169687" fill="#0077b6" opacity="0.21356521854492957" rx="1"/><rect x="560.2531039819013" y="829.0205549687594" width="9.69641856050501" height="9.91023660169687" fill="#00b4d8" opacity="0.10678260927246479" rx="1"/><rect x="571.7305221852686" y="868.3883964442887" width="6.538453516210069" height="7.94272404395573" fill="#0077b6" opacity="0.5774639662302714" rx="1"/><rect x="561.8320865040488" y="872.3597584662665" width="6.538453516210069" height="7.94272404395573" fill="#00b4d8" opacity="0.2887319831151357" rx="1"/><rect x="572.8107671876929" y="912.7113562206664" width="4.3779635113612665" height="8.184352171184578" fill="#0077b6" opacity="0.24258978845146248" rx="1"/><rect x="562.9123315064732" y="916.8035323062587" width="4.3779635113612665" height="8.184352171184578" fill="#00b4d8" opacity="0.12129489422573124" rx="1"/><rect x="646.3972012713544" y="655.466658879413" width="66.79120636936072" height="291.5676571176312" fill="#000044" opacity="0.6760430295197394" rx="2"/><rect x="675.0139687694641" y="665.466658879413" width="9.557671373141387" height="7.381291283616165" fill="#0077b6" opacity="0.2690438654434504" rx="1"/><rect x="658.3161671771239" y="669.157304521221" width="9.557671373141387" height="7.381291283616165" fill="#00b4d8" opacity="0.1345219327217252" rx="1"/><rect x="677.0824506250401" y="762.6558779186234" width="5.42070766198931" height="9.920588457007097" fill="#0077b6" opacity="0.5799440115410704" rx="1"/><rect x="660.3846490326999" y="767.616172147127" width="5.42070766198931" height="9.920588457007097" fill="#00b4d8" opacity="0.2899720057705352" rx="1"/><rect x="675.937711416962" y="859.8450969578338" width="7.710186078145678" height="8.694950665974744" fill="#0077b6" opacity="0.4129919938074872" rx="1"/><rect x="659.2399098246218" y="864.1925722908212" width="7.710186078145678" height="8.694950665974744" fill="#00b4d8" opacity="0.2064959969037436" rx="1"/><rect x="760.3390536947034" y="615.5645061436958" width="72.06061769324835" height="331.46980985334835" fill="#000044" opacity="0.5627834624757021" rx="2"/><rect x="791.9757543934918" y="625.5645061436958" width="8.787216295671467" height="8.693407076106734" fill="#0077b6" opacity="0.43071501712098603" rx="1"/><rect x="773.9605999701797" y="629.9112096817491" width="8.787216295671467" height="8.693407076106734" fill="#00b4d8" opacity="0.21535750856049302" rx="1"/><rect x="793.7487946866892" y="666.9982323753643" width="5.241135709276687" height="7.101848270069307" fill="#0077b6" opacity="0.35366063584891627" rx="1"/><rect x="775.7336402633771" y="670.5491565103989" width="5.241135709276687" height="7.101848270069307" fill="#00b4d8" opacity="0.17683031792445814" rx="1"/><rect x="791.7957747608413" y="708.4319586070328" width="9.14717556097246" height="6.738711674869692" fill="#0077b6" opacity="0.13272206290455585" rx="1"/><rect x="773.7806203375292" y="711.8013144444676" width="9.14717556097246" height="6.738711674869692" fill="#00b4d8" opacity="0.06636103145227792" rx="1"/><rect x="793.2595457700685" y="749.8656848387014" width="6.2196335425180465" height="7.263342476744052" fill="#0077b6" opacity="0.2685543178274655" rx="1"/><rect x="775.2443913467564" y="753.4973560770735" width="6.2196335425180465" height="7.263342476744052" fill="#00b4d8" opacity="0.13427715891373276" rx="1"/><rect x="791.8732257329098" y="791.29941107037" width="8.99227361683554" height="9.411549388294002" fill="#0077b6" opacity="0.18666134185312813" rx="1"/><rect x="773.8580713095977" y="796.0051857645169" width="8.99227361683554" height="9.411549388294002" fill="#00b4d8" opacity="0.09333067092656407" rx="1"/><rect x="792.2518346545406" y="832.7331373020385" width="8.235055773573707" height="8.49063240608448" fill="#0077b6" opacity="0.10307260511980221" rx="1"/><rect x="774.2366802312285" y="836.9784535050807" width="8.235055773573707" height="8.49063240608448" fill="#00b4d8" opacity="0.051536302559901104" rx="1"/><rect x="790.4146499576547" y="874.1668635337071" width="11.909425167345773" height="9.851811918395528" fill="#0077b6" opacity="0.26876071800216117" rx="1"/><rect x="772.3994955343426" y="879.0927694929048" width="11.909425167345773" height="9.851811918395528" fill="#00b4d8" opacity="0.13438035900108058" rx="1"/><rect x="793.8863903300106" y="915.6005897653756" width="4.965944422633839" height="8.697467843698679" fill="#0077b6" opacity="0.4195352848431876" rx="1"/><rect x="775.8712359066985" y="919.9493236872249" width="4.965944422633839" height="8.697467843698679" fill="#00b4d8" opacity="0.2097676424215938" rx="1"/><rect x="857.6070449472421" y="704.7745717351265" width="78.61924536726886" height="242.2597442619176" fill="#03045e" opacity="0.6885774431956414" rx="2"/><rect x="893.6757824157075" y="714.7745717351265" width="6.48177043033805" height="8.211643913344396" fill="#0077b6" opacity="0.41047518663352245" rx="1"/><rect x="874.0209710738903" y="718.8803936917988" width="6.48177043033805" height="8.211643913344396" fill="#00b4d8" opacity="0.20523759331676122" rx="1"/><rect x="894.19910565" y="795.5278198224324" width="5.435123961753008" height="9.627184954385083" fill="#0077b6" opacity="0.16688514562949658" rx="1"/><rect x="874.5442943081828" y="800.341412299625" width="5.435123961753008" height="9.627184954385083" fill="#00b4d8" opacity="0.08344257281474829" rx="1"/><rect x="892.985268040091" y="876.2810679097382" width="7.862799181570951" height="9.210248182343843" fill="#0077b6" opacity="0.4069609630170653" rx="1"/><rect x="873.3304566982738" y="880.8861920009101" width="7.862799181570951" height="9.210248182343843" fill="#00b4d8" opacity="0.20348048150853265" rx="1"/><rect x="979.5299001293093" y="675.4311461526507" width="56.40551219377795" height="271.6031698443934" fill="#03045e" opacity="0.6363363720328399" rx="2"/><rect x="1004.910053815206" y="685.4311461526507" width="5.645204821984564" height="6.091300587191084" fill="#0077b6" opacity="0.5733092223697597" rx="1"/><rect x="990.8086757667616" y="688.4767964462462" width="5.645204821984564" height="6.091300587191084" fill="#00b4d8" opacity="0.28665461118487984" rx="1"/><rect x="1002.9788368726099" y="753.3319386137491" width="9.507638707176698" height="9.262986035845937" fill="#0077b6" opacity="0.37762205276582905" rx="1"/><rect x="988.8774588241655" y="757.963431631672" width="9.507638707176698" height="9.262986035845937" fill="#00b4d8" opacity="0.18881102638291453" rx="1"/><rect x="1002.0460929263024" y="821.2327310748474" width="11.373126599791721" height="6.574959384411331" fill="#0077b6" opacity="0.2773139643895705" rx="1"/><rect x="987.944714877858" y="824.5202107670531" width="11.373126599791721" height="6.574959384411331" fill="#00b4d8" opacity="0.13865698219478526" rx="1"/><rect x="1003.4783294844623" y="889.1335235359458" width="8.508653483471985" height="6.342792539005818" fill="#0077b6" opacity="0.27112567791974307" rx="1"/><rect x="989.3769514360179" y="892.3049198054487" width="8.508653483471985" height="6.342792539005818" fill="#00b4d8" opacity="0.13556283895987153" rx="1"/><rect x="1081.5444845337292" y="838.0052049383532" width="81.68033519566067" height="109.02911105869084" fill="#000044" opacity="0.5446916940260427" rx="2"/><rect x="1117.3085118733134" y="848.0052049383532" width="10.152280516492269" height="6.220659264414724" fill="#0077b6" opacity="0.2143345460561883" rx="1"/><rect x="1096.8884280743982" y="851.1155345705606" width="10.152280516492269" height="6.220659264414724" fill="#00b4d8" opacity="0.10716727302809415" rx="1"/><rect x="1117.555836134254" y="869.8110271500914" width="9.657631994611032" height="8.871229278592214" fill="#0077b6" opacity="0.4201765907742494" rx="1"/><rect x="1097.1357523353388" y="874.2466417893875" width="9.657631994611032" height="8.871229278592214" fill="#00b4d8" opacity="0.2100882953871247" rx="1"/><rect x="1117.6424037224247" y="891.6168493618296" width="9.484496818269719" height="8.934674574745511" fill="#0077b6" opacity="0.1662229171875452" rx="1"/><rect x="1097.2223199235095" y="896.0841866492024" width="9.484496818269719" height="8.934674574745511" fill="#00b4d8" opacity="0.0831114585937726" rx="1"/><rect x="1117.460680134236" y="913.4226715735678" width="9.84794399464688" height="6.961260732487138" fill="#0077b6" opacity="0.46427851169469736" rx="1"/><rect x="1097.040596335321" y="916.9033019398113" width="9.84794399464688" height="6.961260732487138" fill="#00b4d8" opacity="0.23213925584734868" rx="1"/><rect x="1120.2889770607671" y="935.2284937853059" width="4.191350141584722" height="6.634480931012537" fill="#0077b6" opacity="0.16666543534180742" rx="1"/><rect x="1099.868893261852" y="938.5457342508122" width="4.191350141584722" height="6.634480931012537" fill="#00b4d8" opacity="0.08333271767090371" rx="1"/><rect x="1191.5880821555827" y="568.7260787512002" width="85.06929047290917" height="378.3082372458438" fill="#03045e" opacity="0.4116888221380508" rx="2"/><rect x="1228.7081869616427" y="578.7260787512002" width="10.829080860789187" height="7.942659419482261" fill="#0077b6" opacity="0.2883975012899371" rx="1"/><rect x="1207.4408643434156" y="582.6974084609413" width="10.829080860789187" height="7.942659419482261" fill="#00b4d8" opacity="0.14419875064496854" rx="1"/><rect x="1229.4747859957804" y="632.7701126434637" width="9.29588279251379" height="7.89491621914667" fill="#0077b6" opacity="0.5021180632761955" rx="1"/><rect x="1208.2074633775533" y="636.717570753037" width="9.29588279251379" height="7.89491621914667" fill="#00b4d8" opacity="0.25105903163809773" rx="1"/><rect x="1232.069013654969" y="686.8141465357271" width="4.107427474136331" height="9.869423818744119" fill="#0077b6" opacity="0.4418021347238221" rx="1"/><rect x="1210.8016910367419" y="691.7488584450991" width="4.107427474136331" height="9.869423818744119" fill="#00b4d8" opacity="0.22090106736191106" rx="1"/><rect x="1231.1901015495393" y="740.8581804279904" width="5.865251684995659" height="6.344364659940909" fill="#0077b6" opacity="0.5643469729843426" rx="1"/><rect x="1209.9227789313122" y="744.0303627579609" width="5.865251684995659" height="6.344364659940909" fill="#00b4d8" opacity="0.2821734864921713" rx="1"/><rect x="1231.409205542507" y="794.9022143202538" width="5.427043699060344" height="9.08954439104757" fill="#0077b6" opacity="0.3692319156530388" rx="1"/><rect x="1210.1418829242798" y="799.4469865157777" width="5.427043699060344" height="9.08954439104757" fill="#00b4d8" opacity="0.1846159578265194" rx="1"/><rect x="1230.3184713435635" y="848.9462482125173" width="7.6085120969471784" height="8.293641972889574" fill="#0077b6" opacity="0.547111572475897" rx="1"/><rect x="1209.0511487253364" y="853.0930691989621" width="7.6085120969471784" height="8.293641972889574" fill="#00b4d8" opacity="0.2735557862379485" rx="1"/><rect x="1230.1158581415928" y="902.9902821047807" width="8.013738500888863" height="7.467317850670618" fill="#0077b6" opacity="0.1726833016548034" rx="1"/><rect x="1208.8485355233656" y="906.7239410301161" width="8.013738500888863" height="7.467317850670618" fill="#00b4d8" opacity="0.0863416508274017" rx="1"/><rect x="1297.554775047478" y="733.8368014394857" width="81.1157805032832" height="213.19751455755846" fill="#03045e" opacity="0.6377356906742173" rx="2"/><rect x="1333.0892347451506" y="743.8368014394857" width="10.046861107937726" height="9.377397052798745" fill="#0077b6" opacity="0.29698975752037715" rx="1"/><rect x="1312.81028961933" y="748.525499965885" width="10.046861107937726" height="9.377397052798745" fill="#00b4d8" opacity="0.14849487876018858" rx="1"/><rect x="1334.3498554866178" y="774.2935892334226" width="7.525619625003454" height="6.3862293912997075" fill="#0077b6" opacity="0.11180497533916613" rx="1"/><rect x="1314.0709103607971" y="777.4867039290725" width="7.525619625003454" height="6.3862293912997075" fill="#00b4d8" opacity="0.05590248766958306" rx="1"/><rect x="1334.84517960759" y="804.7503770273596" width="6.534971383059158" height="8.30520760228513" fill="#0077b6" opacity="0.1385374875130452" rx="1"/><rect x="1314.5662344817692" y="808.9029808285022" width="6.534971383059158" height="8.30520760228513" fill="#00b4d8" opacity="0.0692687437565226" rx="1"/><rect x="1335.44035353289" y="835.2071648212965" width="5.344623532459285" height="6.499796549905976" fill="#0077b6" opacity="0.48446788056391943" rx="1"/><rect x="1315.1614084070693" y="838.4570630962495" width="5.344623532459285" height="6.499796549905976" fill="#00b4d8" opacity="0.24223394028195971" rx="1"/><rect x="1335.4590825993705" y="865.6639526152334" width="5.307165399498112" height="7.187348266408627" fill="#0077b6" opacity="0.38102656588447903" rx="1"/><rect x="1315.1801374735498" y="869.2576267484377" width="5.307165399498112" height="7.187348266408627" fill="#00b4d8" opacity="0.19051328294223951" rx="1"/><rect x="1332.5520063293054" y="896.1207404091704" width="11.121317939628224" height="7.075074611481995" fill="#0077b6" opacity="0.5585393913925019" rx="1"/><rect x="1312.2730612034848" y="899.6582777149114" width="11.121317939628224" height="7.075074611481995" fill="#00b4d8" opacity="0.27926969569625093" rx="1"/><rect x="1332.36391275175" y="926.5775282031072" width="11.497505094739028" height="9.101939360402046" fill="#0077b6" opacity="0.42447530127234645" rx="1"/><rect x="1312.0849676259293" y="931.1284978833082" width="11.497505094739028" height="9.101939360402046" fill="#00b4d8" opacity="0.21223765063617323" rx="1"/><rect x="1403.3776197846462" y="711.9962633266105" width="49.37976520494087" height="235.03805267043367" fill="#000044" opacity="0.6290720870320388" rx="2"/><rect x="1425.1117453230804" y="721.9962633266105" width="5.911514128072074" height="9.245969148177181" fill="#0077b6" opacity="0.2063971153009676" rx="1"/><rect x="1412.7668040218452" y="726.6192479006991" width="5.911514128072074" height="9.245969148177181" fill="#00b4d8" opacity="0.1031985576504838" rx="1"/><rect x="1425.7937101621167" y="751.3760199104147" width="4.547584449999869" height="7.613608697804997" fill="#0077b6" opacity="0.1053521832463686" rx="1"/><rect x="1413.4487688608815" y="755.1828242593172" width="4.547584449999869" height="7.613608697804997" fill="#00b4d8" opacity="0.0526760916231843" rx="1"/><rect x="1423.0207109530504" y="780.7557764942189" width="10.093582868132177" height="7.200759623479275" fill="#0077b6" opacity="0.3110827060442145" rx="1"/><rect x="1410.6757696518152" y="784.3561563059586" width="10.093582868132177" height="7.200759623479275" fill="#00b4d8" opacity="0.15554135302210725" rx="1"/><rect x="1425.2312319353762" y="810.1355330780231" width="5.672540903480849" height="8.151564661914382" fill="#0077b6" opacity="0.3096090376632309" rx="1"/><rect x="1412.886290634141" y="814.2113154089802" width="5.672540903480849" height="8.151564661914382" fill="#00b4d8" opacity="0.15480451883161545" rx="1"/><rect x="1424.3766301934088" y="839.5152896618273" width="7.381744387415644" height="6.413366721107943" fill="#0077b6" opacity="0.5066676238800091" rx="1"/><rect x="1412.0316888921736" y="842.7219730223812" width="7.381744387415644" height="6.413366721107943" fill="#00b4d8" opacity="0.25333381194000454" rx="1"/><rect x="1424.7624364802061" y="868.8950462456315" width="6.6101318138209475" height="6.0573398424445974" fill="#0077b6" opacity="0.31664654061120157" rx="1"/><rect x="1412.417495178971" y="871.9237161668539" width="6.6101318138209475" height="6.0573398424445974" fill="#00b4d8" opacity="0.15832327030560078" rx="1"/><rect x="1425.3582642880172" y="898.2748028294357" width="5.41847619819885" height="6.799176101758884" fill="#0077b6" opacity="0.5095062919448843" rx="1"/><rect x="1413.013322986782" y="901.6743908803151" width="5.41847619819885" height="6.799176101758884" fill="#00b4d8" opacity="0.25475314597244214" rx="1"/><rect x="1425.4942158517647" y="927.6545594132399" width="5.146573070703673" height="6.742904122160493" fill="#0077b6" opacity="0.5250412412046085" rx="1"/><rect x="1413.1492745505295" y="931.0260114743202" width="5.146573070703673" height="6.742904122160493" fill="#00b4d8" opacity="0.26252062060230424" rx="1"/><rect x="1493.47387255716" y="580.6166762091724" width="44.92039219358014" height="366.41763978787174" fill="#03045e" opacity="0.4310278084201338" rx="2"/><rect x="1510.8604896305735" y="590.6166762091724" width="10.14715804675295" height="9.594159081483763" fill="#0077b6" opacity="0.13657177242836258" rx="1"/><rect x="1499.6303915821786" y="595.4137557499142" width="10.14715804675295" height="9.594159081483763" fill="#00b4d8" opacity="0.06828588621418129" rx="1"/><rect x="1510.1794106953728" y="636.4188811826564" width="11.509315917154149" height="6.479817981943445" fill="#0077b6" opacity="0.11293046027723012" rx="1"/><rect x="1498.949312646978" y="639.6587901736281" width="11.509315917154149" height="6.479817981943445" fill="#00b4d8" opacity="0.05646523013861506" rx="1"/><rect x="1512.7729714791692" y="682.2210861561404" width="6.322194349561398" height="7.733972979181905" fill="#0077b6" opacity="0.5651133472717166" rx="1"/><rect x="1501.5428734307743" y="686.0880726457314" width="6.322194349561398" height="7.733972979181905" fill="#00b4d8" opacity="0.2825566736358583" rx="1"/><rect x="1513.6531073974102" y="728.0232911296243" width="4.561922513079346" height="7.7329454537790605" fill="#0077b6" opacity="0.150236458669006" rx="1"/><rect x="1502.4230093490153" y="731.8897638565139" width="4.561922513079346" height="7.7329454537790605" fill="#00b4d8" opacity="0.075118229334503" rx="1"/><rect x="1513.557875403333" y="773.8254961031082" width="4.752386501234115" height="8.655461582042152" fill="#0077b6" opacity="0.1122110841358572" rx="1"/><rect x="1502.327777354938" y="778.1532268941293" width="4.752386501234115" height="8.655461582042152" fill="#00b4d8" opacity="0.0561055420679286" rx="1"/><rect x="1511.3887320473764" y="819.6277010765923" width="9.090673213147248" height="8.78711066925598" fill="#0077b6" opacity="0.13322851076564485" rx="1"/><rect x="1500.1586339989815" y="824.0212564112203" width="9.090673213147248" height="8.78711066925598" fill="#00b4d8" opacity="0.06661425538282242" rx="1"/><rect x="1510.6931968242145" y="865.4299060500762" width="10.481743659470636" height="6.80230797845924" fill="#0077b6" opacity="0.4920536440312987" rx="1"/><rect x="1499.4630987758196" y="868.8310600393058" width="10.481743659470636" height="6.80230797845924" fill="#00b4d8" opacity="0.24602682201564935" rx="1"/><rect x="1513.5802907647053" y="911.2321110235602" width="4.707555778489345" height="8.611996780757792" fill="#0077b6" opacity="0.37287342231089093" rx="1"/><rect x="1502.3501927163104" y="915.5381094139391" width="4.707555778489345" height="8.611996780757792" fill="#00b4d8" opacity="0.18643671115544547" rx="1"/><rect x="1603.6474908896832" y="715.3943053133306" width="70.81086793933316" height="231.6400106837135" fill="#000044" opacity="0.48970414274132446" rx="2"/><rect x="1634.0119589169071" y="725.3943053133306" width="10.081931884885284" height="8.806784121041835" fill="#0077b6" opacity="0.34820673587923096" rx="1"/><rect x="1616.309241932074" y="729.7976973738515" width="10.081931884885284" height="8.806784121041835" fill="#00b4d8" opacity="0.17410336793961548" rx="1"/><rect x="1635.6743642535698" y="758.4857354110039" width="6.757121211559773" height="6.210924285513099" fill="#0077b6" opacity="0.5556423488435435" rx="1"/><rect x="1617.9716472687367" y="761.5911975537605" width="6.757121211559773" height="6.210924285513099" fill="#00b4d8" opacity="0.27782117442177173" rx="1"/><rect x="1635.9412466862568" y="791.5771655086774" width="6.223356346186101" height="7.031292940730064" fill="#0077b6" opacity="0.42124666993535276" rx="1"/><rect x="1618.2385297014237" y="795.0928119790424" width="6.223356346186101" height="7.031292940730064" fill="#00b4d8" opacity="0.21062333496767638" rx="1"/><rect x="1634.811943949622" y="824.6685956063507" width="8.481961819455485" height="8.45754369871168" fill="#0077b6" opacity="0.13937864840016204" rx="1"/><rect x="1617.1092269647888" y="828.8973674557066" width="8.481961819455485" height="8.45754369871168" fill="#00b4d8" opacity="0.06968932420008102" rx="1"/><rect x="1635.2793665775748" y="857.7600257040241" width="7.5471165635499915" height="6.972530637162861" fill="#0077b6" opacity="0.3772633467747978" rx="1"/><rect x="1617.5766495927417" y="861.2462910226055" width="7.5471165635499915" height="6.972530637162861" fill="#00b4d8" opacity="0.1886316733873989" rx="1"/><rect x="1633.4624309438425" y="890.8514558016974" width="11.180987831014438" height="9.649377209052764" fill="#0077b6" opacity="0.5102680993755973" rx="1"/><rect x="1615.7597139590093" y="895.6761444062238" width="11.180987831014438" height="9.649377209052764" fill="#00b4d8" opacity="0.2551340496877986" rx="1"/><rect x="1635.3261791007421" y="923.9428858993708" width="7.453491517215383" height="6.393125766979793" fill="#0077b6" opacity="0.40792015402296566" rx="1"/><rect x="1617.623462115909" y="927.1394487828608" width="7.453491517215383" height="6.393125766979793" fill="#00b4d8" opacity="0.20396007701148283" rx="1"/><rect x="1721.4637437768893" y="778.4759983486672" width="54.766643495477425" height="168.55831764837689" fill="#03045e" opacity="0.49634049718648676" rx="2"/><rect x="1743.5054749815038" y="788.4759983486672" width="10.683181086248528" height="6.953300739860465" fill="#0077b6" opacity="0.2568269369091901" rx="1"/><rect x="1729.8138141076342" y="791.9526487185974" width="10.683181086248528" height="6.953300739860465" fill="#00b4d8" opacity="0.12841346845459506" rx="1"/><rect x="1746.3154977116071" y="812.5557580127211" width="5.063135626042061" height="6.156365750393915" fill="#0077b6" opacity="0.26304383931286723" rx="1"/><rect x="1732.6238368377376" y="815.633940887918" width="5.063135626042061" height="6.156365750393915" fill="#00b4d8" opacity="0.13152191965643362" rx="1"/><rect x="1746.0611740269374" y="836.6355176767748" width="5.5717829953813425" height="7.431898346504173" fill="#0077b6" opacity="0.15608660088760934" rx="1"/><rect x="1732.3695131530678" y="840.3514668500269" width="5.5717829953813425" height="7.431898346504173" fill="#00b4d8" opacity="0.07804330044380467" rx="1"/><rect x="1746.342930110484" y="860.7152773408287" width="5.008270828288111" height="9.799576358823007" fill="#0077b6" opacity="0.549105271126401" rx="1"/><rect x="1732.6512692366146" y="865.6150655202403" width="5.008270828288111" height="9.799576358823007" fill="#00b4d8" opacity="0.2745526355632005" rx="1"/><rect x="1745.2027634857693" y="884.7950370048826" width="7.28860407771743" height="6.142604955505255" fill="#0077b6" opacity="0.10502753222943925" rx="1"/><rect x="1731.5111026118998" y="887.8663394826352" width="7.28860407771743" height="6.142604955505255" fill="#00b4d8" opacity="0.052513766114719626" rx="1"/><rect x="1742.9582838727995" y="908.8747966689364" width="11.77756330365724" height="6.392611226158359" fill="#0077b6" opacity="0.10814066140636353" rx="1"/><rect x="1729.26662299893" y="912.0711022820155" width="11.77756330365724" height="6.392611226158359" fill="#00b4d8" opacity="0.05407033070318176" rx="1"/><rect x="1744.1204481048323" y="932.9545563329903" width="9.453234839591484" height="6.836989877940386" fill="#0077b6" opacity="0.2265226934632572" rx="1"/><rect x="1730.4287872309628" y="936.3730512719604" width="9.453234839591484" height="6.836989877940386" fill="#00b4d8" opacity="0.1132613467316286" rx="1"/><rect x="1840.6910056156783" y="707.9287106073295" width="42.596484923874144" height="239.1056053897146" fill="#000044" opacity="0.5427402185608494" rx="2"/><rect x="1858.6370198092507" y="717.9287106073295" width="6.704456536728995" height="9.147290075930602" fill="#0077b6" opacity="0.39489724950280447" rx="1"/><rect x="1847.9878985782823" y="722.5023556452949" width="6.704456536728995" height="9.147290075930602" fill="#00b4d8" opacity="0.19744862475140224" rx="1"/><rect x="1856.777038954612" y="757.7796448389487" width="10.424418246006692" height="8.911099628291815" fill="#0077b6" opacity="0.4687728773496982" rx="1"/><rect x="1846.1279177236436" y="762.2351946530946" width="10.424418246006692" height="8.911099628291815" fill="#00b4d8" opacity="0.2343864386748491" rx="1"/><rect x="1858.8191065042788" y="797.6305790705677" width="6.340283146672948" height="7.5720315998355" fill="#0077b6" opacity="0.199827773310204" rx="1"/><rect x="1848.1699852733104" y="801.4165948704855" width="6.340283146672948" height="7.5720315998355" fill="#00b4d8" opacity="0.099913886655102" rx="1"/><rect x="1857.0304023460553" y="837.4815133021868" width="9.917691463119745" height="9.439083361867603" fill="#0077b6" opacity="0.41889274910066576" rx="1"/><rect x="1846.381281115087" y="842.2010549831207" width="9.917691463119745" height="9.439083361867603" fill="#00b4d8" opacity="0.20944637455033288" rx="1"/><rect x="1858.149251874338" y="877.332447533806" width="7.679992406554518" height="7.093557347798152" fill="#0077b6" opacity="0.2931008061378032" rx="1"/><rect x="1847.5001306433696" y="880.8792262077051" width="7.679992406554518" height="7.093557347798152" fill="#00b4d8" opacity="0.1465504030689016" rx="1"/><rect x="1857.055402387412" y="917.1833817654251" width="9.867691380406658" height="7.810891979795622" fill="#0077b6" opacity="0.4488638581123352" rx="1"/><rect x="1846.4062811564436" y="921.0888277553229" width="9.867691380406658" height="7.810891979795622" fill="#00b4d8" opacity="0.2244319290561676" rx="1"/><path d="M569.410812242285 819.8600004240544 Q588.2992227115433 719.9596783134526 592.076904805395 620.0593562028508" stroke="#000011" stroke-width="6.063207905288602" fill="none" stroke-linecap="round"/><path d="M592.076904805395 620.0593562028508 Q632.8777709339926 600.0593562028508 637.1987726076503 620.0593562028508" stroke="#00002b" stroke-width="2.6096932642650077" fill="none" stroke-linecap="round" opacity="0.6"/><path d="M592.076904805395 620.0593562028508 Q623.8216284551692 607.6501437856027 632.4332454580859 635.2409313683547" stroke="#00002b" stroke-width="3.078044590325571" fill="none" stroke-linecap="round" opacity="0.6"/><path d="M592.076904805395 620.0593562028508 Q596.7602075708716 608.7696868445132 578.8230639471283 637.4800174861756" stroke="#00002b" stroke-width="2.694590697226718" fill="none" stroke-linecap="round" opacity="0.6"/><path d="M592.076904805395 620.0593562028508 Q580.3502764236596 603.2013488182938 548.5808055131313 626.3433414337368" stroke="#00002b" stroke-width="2.072074556274357" fill="none" stroke-linecap="round" opacity="0.6"/><path d="M592.076904805395 620.0593562028508 Q578.1127236238877 595.6501274061177 531.0378518800675 611.2408986093847" stroke="#00002b" stroke-width="3.527697567252372" fill="none" stroke-linecap="round" opacity="0.6"/><path d="M239.69872942187328 895.6395141304563 Q227.7892885189013 845.3812604119026 225.40740033830687 795.123006693349" stroke="#000011" stroke-width="7.3841227226388" fill="none" stroke-linecap="round"/><path d="M225.40740033830687 795.123006693349 Q250.58687821835906 775.123006693349 264.2229218427611 795.123006693349" stroke="#00002b" stroke-width="2.1353352642933223" fill="none" stroke-linecap="round" opacity="0.6"/><path d="M225.40740033830687 795.123006693349 Q254.13616482383367 783.065835108614 267.63536229585895 811.0086635238789" stroke="#00002b" stroke-width="2.15407771061968" fill="none" stroke-linecap="round" opacity="0.6"/><path d="M225.40740033830687 795.123006693349 Q231.00393302800217 783.7997989471394 212.20459226786247 812.4765912009298" stroke="#00002b" stroke-width="3.8761693243580333" fill="none" stroke-linecap="round" opacity="0.6"/><path d="M225.40740033830687 795.123006693349 Q213.68884075816334 777.2593557636067 195.83290330539037 799.3957048338643" stroke="#00002b" stroke-width="3.094705089715939" fill="none" stroke-linecap="round" opacity="0.6"/><path d="M225.40740033830687 795.123006693349 Q222.8648114677302 772.8946761735451 194.55956031825482 790.6663456537414" stroke="#00002b" stroke-width="2.9484022881249903" fill="none" stroke-linecap="round" opacity="0.6"/><path d="M225.40740033830687 795.123006693349 Q235.47509424139807 770.0398139370809 217.67269650040376 784.9566211808128" stroke="#00002b" stroke-width="3.1665814312097105" fill="none" stroke-linecap="round" opacity="0.6"/><path d="M1162.5288693333346 875.8839605319974 Q1181.1620055234903 766.8948858608246 1184.8886327615214 657.9058111896519" stroke="#000011" stroke-width="6.7045318471976865" fill="none" stroke-linecap="round"/><path d="M1184.8886327615214 657.9058111896519 Q1229.666855824801 637.9058111896519 1248.8815922818337 657.9058111896519" stroke="#00002b" stroke-width="2.5006863629679863" fill="none" stroke-linecap="round" opacity="0.6"/><path d="M1184.8886327615214 657.9058111896519 Q1207.4873948073675 642.8475022331033 1211.1610801163952 667.7891932765548" stroke="#00002b" stroke-width="2.0575649915397087" fill="none" stroke-linecap="round" opacity="0.6"/><path d="M1184.8886327615214 657.9058111896519 Q1188.4815156986956 643.0264498575941 1177.0969503570702 668.1470885255363" stroke="#00002b" stroke-width="3.562144861920305" fill="none" stroke-linecap="round" opacity="0.6"/><path d="M1184.8886327615214 657.9058111896519 Q1172.1125655282108 641.6387415270622 1133.211901311211 665.3716718644725" stroke="#00002b" stroke-width="3.734869495438149" fill="none" stroke-linecap="round" opacity="0.6"/><path d="M1184.8886327615214 657.9058111896519 Q1167.5217984503217 634.5394290330516 1138.286202246722 651.1730468764513" stroke="#00002b" stroke-width="2.53243656375735" fill="none" stroke-linecap="round" opacity="0.6"/><path d="M1184.8886327615214 657.9058111896519 Q1179.942110528277 629.2858566569655 1171.7723102840182 640.665902124279" stroke="#00002b" stroke-width="2.9074813241389306" fill="none" stroke-linecap="round" opacity="0.6"/><rect x="0" y="1000" width="1920" height="80" fill="#000038" opacity="0.8"/><line x1="0" y1="1040" x2="1920" y2="1040" stroke="#0077b6" stroke-opacity="0.15" stroke-width="2" stroke-dasharray="30,20"/><rect x="0" y="930" width="1920" height="150" fill="url(#glow47)"/><text x="1900" y="1060" font-family="Arial, sans-serif" font-size="11" fill="#fff" opacity="0.08" text-anchor="end" letter-spacing="2">GTA 6 REWARDS · WALLPAPER 048</text>
</svg>