<?xml version="1.0" encoding="UTF-8"?>
<svg xmlns="http://www.w3.org/2000/svg" width="1920" height="1080" viewBox="0 0 1920 1080">
<defs>
    <linearGradient id="bg27" x1="0%" y1="0%" x2="0%" y2="100%">
      <stop offset="0%" stop-color="#03045e"/>
      <stop offset="50%" stop-color="#00002b"/>
      <stop offset="100%" stop-color="#03045e"/>
    </linearGradient>
    <linearGradient id="sun27" x1="0%" y1="0%" x2="100%" y2="100%">
      <stop offset="0%" stop-color="#00b4d8"/>
      <stop offset="100%" stop-color="#0077b6"/>
    </linearGradient>
    <radialGradient id="glow27" cx="50%" cy="70%" r="50%">
      <stop offset="0%" stop-color="#00b4d8" stop-opacity="0.3"/>
      <stop offset="100%" stop-color="#03045e" stop-opacity="0"/>
    </radialGradient>
  </defs><rect width="1920" height="1080" fill="url(#bg27)"/><circle cx="331.6068777888098" cy="208.47139498416135" r="650.7364765859061" fill="#00b4d8" opacity="0.13311622461376627"/><circle cx="531.6068777888098" cy="108.47139498416135" r="448.08667252028516" fill="#0077b6" opacity="0.07164006623012016"/><circle cx="867.4391176010107" cy="305.66540717977693" r="63.67699058812042" fill="url(#sun27)" opacity="0.7174965000053626"/><circle cx="867.4391176010107" cy="305.66540717977693" r="58.67699058812042" fill="#03045e" opacity="0.3"/><pattern id="scan27" width="1920" height="4" patternUnits="userSpaceOnUse">
      <line x1="0" y1="0" x2="1920" y2="0" stroke="#000" stroke-opacity="0.05" stroke-width="1"/>
    </pattern>
    <rect width="1920" height="1080" fill="url(#scan27)"/><circle cx="662.3098613373726" cy="89.01459666178901" r="0.5076756586804231" fill="#fff" opacity="0.5558766589397277"/><circle cx="670.4011578928682" cy="314.3301715129824" r="1.82937864466323" fill="#fff" opacity="0.5686441530866186"/><circle cx="792.5266842899208" cy="346.51427446178025" r="0.8811630657597359" fill="#fff" opacity="0.7129252597952553"/><circle cx="346.1763946027906" cy="143.73629442968786" r="0.7631139151666113" fill="#fff" opacity="0.3151063757285258"/><circle cx="264.95600900262497" cy="269.94694583442686" r="1.4888228470200726" fill="#fff" opacity="0.39277254654857624"/><circle cx="1733.7938099666019" cy="66.2382481587674" r="1.7509589747644398" fill="#fff" opacity="0.5948999709437834"/><circle cx="612.709920250976" cy="201.18703784634988" r="1.4725971951784094" fill="#fff" opacity="0.42635972607563244"/><circle cx="413.99662757618273" cy="38.076387023105376" r="1.5714374251131522" fill="#fff" opacity="0.6428479943989888"/><circle cx="532.3129991936295" cy="208.39845467740633" r="1.5131291787869132" fill="#fff" opacity="0.3297929711476418"/><circle cx="1062.6043003291368" cy="58.00340960035181" r="0.8652780073148381" fill="#fff" opacity="0.6205377185765043"/><circle cx="45.60413987506277" cy="372.7834041614047" r="0.9627077934478195" fill="#fff" opacity="0.4195898485415591"/><circle cx="1225.5126248173212" cy="86.93601419193112" r="0.7184770698003651" fill="#fff" opacity="0.36232644639963435"/><circle cx="165.75395111128546" cy="342.425319572544" r="1.7416622832514492" fill="#fff" opacity="0.41237651859698266"/><circle cx="762.109625367939" cy="64.90765901676092" r="0.7713067219060163" fill="#fff" opacity="0.3525266307295595"/><circle cx="150.8704577737652" cy="312.81830413472335" r="1.3332556855942252" fill="#fff" opacity="0.470293778337141"/><circle cx="722.690203507126" cy="262.12429041558045" r="0.889967484606888" fill="#fff" opacity="0.401586881326881"/><circle cx="556.7626334533009" cy="219.46615375100316" r="1.3291984159334558" fill="#fff" opacity="0.6855753170525598"/><circle cx="136.9602442106605" cy="222.46589427033112" r="0.6765311810133353" fill="#fff" opacity="0.4656293806772748"/><circle cx="456.0757377315489" cy="129.25458802312022" r="0.7668747472965333" fill="#fff" opacity="0.3648969443433212"/><circle cx="1487.0329806690647" cy="397.43253812134094" r="1.5105367874518356" fill="#fff" opacity="0.4502091841889101"/><circle cx="29.852326519287267" cy="204.74824977217898" r="1.455103391072504" fill="#fff" opacity="0.31625803902658123"/><circle cx="1459.7025783778406" cy="109.8743172581015" r="1.1072869852900706" fill="#fff" opacity="0.4320634153280555"/><circle cx="1063.538975069192" cy="17.097200569020863" r="1.5831681200263947" fill="#fff" opacity="0.3035701627618564"/><circle cx="586.6348874444689" cy="415.671480134053" r="1.8976719620166513" fill="#fff" opacity="0.6334267096671804"/><circle cx="310.518760604439" cy="391.649801531725" r="1.938565294011162" fill="#fff" opacity="0.3696229084789806"/><circle cx="1058.8024380288093" cy="2.590786692358271" r="1.3874844568519584" fill="#fff" opacity="0.4836832799677931"/><circle cx="186.9108362931085" cy="384.07330812515534" r="1.0975729064311768" fill="#fff" opacity="0.4012829092334218"/><circle cx="266.81674903883055" cy="61.46300369069515" r="0.7173387168946999" fill="#fff" opacity="0.5363614186962045"/><circle cx="755.0018832355277" cy="361.6609601624452" r="0.9132015167067762" fill="#fff" opacity="0.7301839842764157"/><circle cx="491.8326210630668" cy="90.13584535804947" r="0.9595026284129131" fill="#fff" opacity="0.4096786133501862"/><circle cx="879.3409276565866" cy="236.79570117890734" r="0.5940338388537135" fill="#fff" opacity="0.674743281042842"/><circle cx="313.36667917514376" cy="71.84085386056474" r="0.5389599105201103" fill="#fff" opacity="0.280015341956172"/><circle cx="1387.942561681369" cy="406.88622492712136" r="1.9850422185810848" fill="#fff" opacity="0.7806050154801005"/><circle cx="605.0492554821654" cy="45.5387360075346" r="1.890586846482611" fill="#fff" opacity="0.772314769256002"/><circle cx="1717.463444573214" cy="80.80342755857934" r="0.8872403433516716" fill="#fff" opacity="0.36226687970624005"/><circle cx="1025.6808228198627" cy="34.23589507914984" r="1.105313632428952" fill="#fff" opacity="0.7737982155228496"/><circle cx="305.83279303876515" cy="47.076211876952144" r="1.4234139238073058" fill="#fff" opacity="0.3882390721208041"/><circle cx="1419.8347729770082" cy="54.23462467040741" r="1.6050648942135892" fill="#fff" opacity="0.6867143770416068"/><circle cx="507.7869465639319" cy="164.73651295638098" r="1.2781482317434039" fill="#fff" opacity="0.5387939259267398"/><circle cx="1393.762788948082" cy="112.41575911650801" r="1.1181448345580476" fill="#fff" opacity="0.34847054382517717"/><circle cx="339.97593693900296" cy="150.45999875815122" r="1.8648409752326183" fill="#fff" opacity="0.48533460150597024"/><circle cx="1013.1554503117584" cy="313.5999303519726" r="1.471530523959438" fill="#fff" opacity="0.7684152602144552"/><circle cx="1430.7791048639406" cy="55.7896986137586" r="1.8156212844922257" fill="#fff" opacity="0.43002684964566185"/><circle cx="1082.4723496573213" cy="282.2944684834905" r="1.0100326309935266" fill="#fff" opacity="0.28414242134525963"/><circle cx="762.1372838602721" cy="131.01622914220584" r="1.8687025721577701" fill="#fff" opacity="0.3784659635691126"/><circle cx="1062.1069526165043" cy="363.10147588586005" r="1.5646423415897046" fill="#fff" opacity="0.7627714775416001"/><circle cx="1855.9436103552448" cy="132.79719654954906" r="1.951891926338871" fill="#fff" opacity="0.2065301252078568"/><circle cx="1233.7242305171035" cy="128.63354763775914" r="1.2456248653460351" fill="#fff" opacity="0.33894582235695464"/><circle cx="1192.6747265254787" cy="98.15393453886591" r="1.0741757935784235" fill="#fff" opacity="0.5975913563271964"/><circle cx="7.095227392179711" cy="129.22917657374154" r="0.8077624089335469" fill="#fff" opacity="0.5325757399510069"/><circle cx="442.5713955896374" cy="23.542772730705973" r="1.1420988211506276" fill="#fff" opacity="0.6260215192162482"/><circle cx="624.2069427632277" cy="35.68015087481592" r="1.740793566741234" fill="#fff" opacity="0.42470361344160135"/><circle cx="1329.0249134714309" cy="5.683749196511634" r="0.6787463755297349" fill="#fff" opacity="0.2175939519930617"/><circle cx="759.9471654277172" cy="234.324622044881" r="1.5956382901863284" fill="#fff" opacity="0.7748230940138043"/><circle cx="352.5668572710284" cy="167.86139592711382" r="1.0951453511591873" fill="#fff" opacity="0.5312258693695129"/><circle cx="1081.7738139167832" cy="331.4815662157446" r="1.455909677770899" fill="#fff" opacity="0.40946452501450303"/><circle cx="1186.9663429043644" cy="122.02435687045202" r="0.9623858882026715" fill="#fff" opacity="0.565055640732184"/><rect x="25.229067764065476" y="511.11403162617097" width="53.14184801260518" height="341.7044017561023" fill="#03045e" opacity="0.6573380855278435" rx="2"/><rect x="49.21759553677812" y="521.114031626171" width="5.164792467179892" height="8.548831380565844" fill="#0077b6" opacity="0.5454254319298606" rx="1"/><rect x="35.932133533626825" y="525.388447316454" width="5.164792467179892" height="8.548831380565844" fill="#00b4d8" opacity="0.2727127159649303" rx="1"/><rect x="46.25342331995569" y="635.0154988782051" width="11.09313690082476" height="6.107912754665109" fill="#0077b6" opacity="0.28949193721392474" rx="1"/><rect x="32.96796131680439" y="638.0694552555377" width="11.09313690082476" height="6.107912754665109" fill="#00b4d8" opacity="0.14474596860696237" rx="1"/><rect x="47.50869599462224" y="748.9169661302392" width="8.582591551491664" height="9.430047856511093" fill="#0077b6" opacity="0.18107181035007158" rx="1"/><rect x="34.22323399147094" y="753.6319900584947" width="8.582591551491664" height="9.430047856511093" fill="#00b4d8" opacity="0.09053590517503579" rx="1"/><rect x="106.854325991855" y="508.6770711603288" width="42.88945090791431" height="344.14136222194446" fill="#000044" opacity="0.4199381512636175" rx="2"/><rect x="123.03204817239141" y="518.6770711603288" width="10.534006546841471" height="7.526785098371745" fill="#0077b6" opacity="0.3902487172489634" rx="1"/><rect x="112.30968544541284" y="522.4404637095146" width="10.534006546841471" height="7.526785098371745" fill="#00b4d8" opacity="0.1951243586244817" rx="1"/><rect x="122.97253931319764" y="633.3908585676436" width="10.653024265229009" height="7.2932786422998825" fill="#0077b6" opacity="0.5481421676343637" rx="1"/><rect x="112.25017658621907" y="637.0374978887935" width="10.653024265229009" height="7.2932786422998825" fill="#00b4d8" opacity="0.27407108381718187" rx="1"/><rect x="124.07071004746398" y="748.1046459749584" width="8.45668279669636" height="6.553443187976592" fill="#0077b6" opacity="0.11127757516486514" rx="1"/><rect x="113.3483473204854" y="751.3813675689468" width="8.45668279669636" height="6.553443187976592" fill="#00b4d8" opacity="0.05563878758243257" rx="1"/><rect x="199.7984730308805" y="619.56643966715" width="81.8040248173764" height="233.25199371512326" fill="#03045e" opacity="0.4389403907439999" rx="2"/><rect x="238.0782804111134" y="629.56643966715" width="5.244410056910573" height="9.576438999636201" fill="#0077b6" opacity="0.4511267879165538" rx="1"/><rect x="217.62727420676933" y="634.3546591669681" width="5.244410056910573" height="9.576438999636201" fill="#00b4d8" opacity="0.2255633939582769" rx="1"/><rect x="237.54001404277776" y="668.4417719530039" width="6.320942793581854" height="7.807323449712089" fill="#0077b6" opacity="0.25300133222551113" rx="1"/><rect x="217.08900783843367" y="672.34543367786" width="6.320942793581854" height="7.807323449712089" fill="#00b4d8" opacity="0.12650066611275557" rx="1"/><rect x="237.21821140050642" y="707.3171042388577" width="6.964548078124539" height="6.819613971938289" fill="#0077b6" opacity="0.10124515825911545" rx="1"/><rect x="216.76720519616234" y="710.7269112248268" width="6.964548078124539" height="6.819613971938289" fill="#00b4d8" opacity="0.05062257912955773" rx="1"/><rect x="235.6872857788714" y="746.1924365247116" width="10.0263993213946" height="8.738307317425104" fill="#0077b6" opacity="0.13731063684385983" rx="1"/><rect x="215.23627957452732" y="750.5615901834242" width="10.0263993213946" height="8.738307317425104" fill="#00b4d8" opacity="0.06865531842192991" rx="1"/><rect x="235.91398707672144" y="785.0677688105656" width="9.572996725694509" height="6.136327914925369" fill="#0077b6" opacity="0.13543056664882008" rx="1"/><rect x="215.46298087237736" y="788.1359327680283" width="9.572996725694509" height="6.136327914925369" fill="#00b4d8" opacity="0.06771528332441004" rx="1"/><rect x="236.11107812348808" y="823.9431010964195" width="9.178814632161245" height="9.888295382235269" fill="#0077b6" opacity="0.5728456574894594" rx="1"/><rect x="215.660071919144" y="828.8872487875371" width="9.178814632161245" height="9.888295382235269" fill="#00b4d8" opacity="0.2864228287447297" rx="1"/><rect x="289.9378845195274" y="665.8562277014964" width="44.5761793094166" height="186.9622056807769" fill="#000044" opacity="0.4222539690607819" rx="2"/><rect x="306.7562567844552" y="675.8562277014964" width="10.939434779560994" height="6.4966624613145045" fill="#0077b6" opacity="0.27501206909655873" rx="1"/><rect x="295.61221195710107" y="679.1045589321537" width="10.939434779560994" height="6.4966624613145045" fill="#00b4d8" opacity="0.13750603454827937" rx="1"/><rect x="306.7554396271269" y="738.1769629284221" width="10.941069094217632" height="9.057410484891713" fill="#0077b6" opacity="0.1984464623263214" rx="1"/><rect x="295.61139479977277" y="742.705668170868" width="10.941069094217632" height="9.057410484891713" fill="#00b4d8" opacity="0.0992232311631607" rx="1"/><rect x="307.56646106611555" y="800.4976981553477" width="9.319026216240374" height="9.432098434174456" fill="#0077b6" opacity="0.3122692704927803" rx="1"/><rect x="296.4224162387614" y="805.2137473724349" width="9.319026216240374" height="9.432098434174456" fill="#00b4d8" opacity="0.15613463524639015" rx="1"/><rect x="385.83055601757326" y="544.1680127275567" width="59.785893007597394" height="308.6504206547165" fill="#03045e" opacity="0.47879242926807897" rx="2"/><rect x="409.73414832350727" y="554.1680127275567" width="11.978708395729473" height="6.9832846347669335" fill="#0077b6" opacity="0.540214625080166" rx="1"/><rect x="394.7876750716079" y="557.6596550449402" width="11.978708395729473" height="6.9832846347669335" fill="#00b4d8" opacity="0.270107312540083" rx="1"/><rect x="409.93320759015063" y="631.3306178912359" width="11.580589862442713" height="8.764402794364003" fill="#0077b6" opacity="0.3997134852455262" rx="1"/><rect x="394.98673433825127" y="635.7128192884179" width="11.580589862442713" height="8.764402794364003" fill="#00b4d8" opacity="0.1998567426227631" rx="1"/><rect x="413.0186175469219" y="708.493223054915" width="5.409769948900158" height="9.870245866447279" fill="#0077b6" opacity="0.3487438063250724" rx="1"/><rect x="398.07214429502255" y="713.4283459881386" width="5.409769948900158" height="9.870245866447279" fill="#00b4d8" opacity="0.1743719031625362" rx="1"/><rect x="413.4437251239052" y="785.6558282185941" width="4.559554794933543" height="9.64784400250014" fill="#0077b6" opacity="0.25147161359234516" rx="1"/><rect x="398.49725187200585" y="790.4797502198442" width="4.559554794933543" height="9.64784400250014" fill="#00b4d8" opacity="0.12573580679617258" rx="1"/><rect x="470.86532162788643" y="628.8350131779059" width="78.6592920750052" height="223.98342020436735" fill="#03045e" opacity="0.6042246423671546" rx="2"/><rect x="504.6567285086692" y="638.8350131779059" width="11.076478313439637" height="7.968564739909155" fill="#0077b6" opacity="0.19448127194644915" rx="1"/><rect x="484.9919054899179" y="642.8192955478605" width="11.076478313439637" height="7.968564739909155" fill="#00b4d8" opacity="0.09724063597322458" rx="1"/><rect x="507.65118316609403" y="694.8308682289978" width="5.087568998590012" height="9.54823225539835" fill="#0077b6" opacity="0.32443484950913926" rx="1"/><rect x="487.98636014734274" y="699.604984356697" width="5.087568998590012" height="9.54823225539835" fill="#00b4d8" opacity="0.16221742475456963" rx="1"/><rect x="505.1787894479016" y="750.8267232800896" width="10.032356434974902" height="8.553534438496813" fill="#0077b6" opacity="0.13067980765613724" rx="1"/><rect x="485.5139664291503" y="755.103490499338" width="10.032356434974902" height="8.553534438496813" fill="#00b4d8" opacity="0.06533990382806862" rx="1"/><rect x="507.7716051466297" y="806.8225783311814" width="4.846725037518592" height="7.060982428738145" fill="#0077b6" opacity="0.38357157071204195" rx="1"/><rect x="488.10678212787843" y="810.3530695455504" width="4.846725037518592" height="7.060982428738145" fill="#00b4d8" opacity="0.19178578535602098" rx="1"/><rect x="570.2077153641549" y="502.3501044959645" width="55.726256004005265" height="350.46832888630877" fill="#000044" opacity="0.40613480119643147" rx="2"/><rect x="595.1103797731513" y="512.3501044959645" width="5.920927186012484" height="6.689995623354333" fill="#0077b6" opacity="0.5439689349252659" rx="1"/><rect x="581.17881577215" y="515.6951023076417" width="5.920927186012484" height="6.689995623354333" fill="#00b4d8" opacity="0.27198446746263294" rx="1"/><rect x="592.8157797813253" y="582.4437702732263" width="10.510127169664514" height="6.794196515528997" fill="#0077b6" opacity="0.2080847869413171" rx="1"/><rect x="578.884215780324" y="585.8408685309907" width="10.510127169664514" height="6.794196515528997" fill="#00b4d8" opacity="0.10404239347065855" rx="1"/><rect x="592.127258557091" y="652.5374360504879" width="11.887169618133262" height="7.337794706536875" fill="#0077b6" opacity="0.2400632063485829" rx="1"/><rect x="578.1956945560896" y="656.2063334037564" width="11.887169618133262" height="7.337794706536875" fill="#00b4d8" opacity="0.12003160317429146" rx="1"/><rect x="593.26396924769" y="722.6311018277497" width="9.613748236935061" height="8.3300457481132" fill="#0077b6" opacity="0.15135606696162282" rx="1"/><rect x="579.3324052466887" y="726.7961247018063" width="9.613748236935061" height="8.3300457481132" fill="#00b4d8" opacity="0.07567803348081141" rx="1"/><rect x="593.0134510094597" y="792.7247676050115" width="10.114784713395588" height="7.857213199571057" fill="#0077b6" opacity="0.5102947654692211" rx="1"/><rect x="579.0818870084584" y="796.653374204797" width="10.114784713395588" height="7.857213199571057" fill="#00b4d8" opacity="0.2551473827346106" rx="1"/><rect x="640.7297221479773" y="653.9069433007172" width="53.01155475038372" height="198.91149008155602" fill="#03045e" opacity="0.40069156463739736" rx="2"/><rect x="662.8345075975718" y="663.9069433007172" width="8.801983851194844" height="8.396338228694242" fill="#0077b6" opacity="0.4980460111978571" rx="1"/><rect x="649.5816189099759" y="668.1051124150644" width="8.801983851194844" height="8.396338228694242" fill="#00b4d8" opacity="0.24902300559892854" rx="1"/><rect x="663.439293658463" y="688.7708795609117" width="7.592411729412249" height="8.920047549279417" fill="#0077b6" opacity="0.2156953542064166" rx="1"/><rect x="650.1864049708671" y="693.2309033355514" width="7.592411729412249" height="8.920047549279417" fill="#00b4d8" opacity="0.1078476771032083" rx="1"/><rect x="663.3005310195266" y="713.6348158211063" width="7.869937007285174" height="9.45794404471711" fill="#0077b6" opacity="0.13813998471902217" rx="1"/><rect x="650.0476423319307" y="718.3637878434648" width="7.869937007285174" height="9.45794404471711" fill="#00b4d8" opacity="0.06906999235951108" rx="1"/><rect x="662.479494217662" y="738.4987520813007" width="9.512010611014443" height="7.584127896834195" fill="#0077b6" opacity="0.37884823171860726" rx="1"/><rect x="649.2266055300661" y="742.2908160297178" width="9.512010611014443" height="7.584127896834195" fill="#00b4d8" opacity="0.18942411585930363" rx="1"/><rect x="664.0093982529382" y="763.3626883414952" width="6.452202540461952" height="7.212183757036036" fill="#0077b6" opacity="0.2748160879767537" rx="1"/><rect x="650.7565095653423" y="766.9687802200132" width="6.452202540461952" height="7.212183757036036" fill="#00b4d8" opacity="0.13740804398837686" rx="1"/><rect x="662.5449245356826" y="788.2266246016898" width="9.381149974973209" height="8.951080404909113" fill="#0077b6" opacity="0.25077538919886" rx="1"/><rect x="649.2920358480867" y="792.7021648041443" width="9.381149974973209" height="8.951080404909113" fill="#00b4d8" opacity="0.12538769459943" rx="1"/><rect x="663.017372042876" y="813.0905608618842" width="8.436254960586377" height="6.062300981968246" fill="#0077b6" opacity="0.2279769877735472" rx="1"/><rect x="649.76448335528" y="816.1217113528684" width="8.436254960586377" height="6.062300981968246" fill="#00b4d8" opacity="0.1139884938867736" rx="1"/><rect x="664.3539695742899" y="837.9544971220787" width="5.7630598977587795" height="9.527061888837968" fill="#0077b6" opacity="0.28454216727627024" rx="1"/><rect x="651.1010808866939" y="842.7180280664977" width="5.7630598977587795" height="9.527061888837968" fill="#00b4d8" opacity="0.14227108363813512" rx="1"/><rect x="732.6374593346666" y="599.9498979770461" width="51.930599566998566" height="252.8685354052271" fill="#000044" opacity="0.6783507574532066" rx="2"/><rect x="754.6277062552779" y="609.9498979770461" width="7.950105725775963" height="7.596731409802272" fill="#0077b6" opacity="0.1662483694186081" rx="1"/><rect x="741.6450563635282" y="613.7482636819473" width="7.950105725775963" height="7.596731409802272" fill="#00b4d8" opacity="0.08312418470930405" rx="1"/><rect x="754.6295498474303" y="660.5236050580916" width="7.946418541471106" height="7.248446231998607" fill="#0077b6" opacity="0.574789082299636" rx="1"/><rect x="741.6468999556806" y="664.1478281740908" width="7.946418541471106" height="7.248446231998607" fill="#00b4d8" opacity="0.287394541149818" rx="1"/><rect x="756.5781364328842" y="711.097312139137" width="4.049245370563409" height="7.928356796020725" fill="#0077b6" opacity="0.4972883379080538" rx="1"/><rect x="743.5954865411345" y="715.0614905371474" width="4.049245370563409" height="7.928356796020725" fill="#00b4d8" opacity="0.2486441689540269" rx="1"/><rect x="754.8519502082228" y="761.6710192201824" width="7.5016178198861" height="7.35647825928323" fill="#0077b6" opacity="0.3662134619351042" rx="1"/><rect x="741.8693003164731" y="765.349258349824" width="7.5016178198861" height="7.35647825928323" fill="#00b4d8" opacity="0.1831067309675521" rx="1"/><rect x="754.3475857371541" y="812.2447263012278" width="8.510346762023481" height="9.552256354026555" fill="#0077b6" opacity="0.5707528953372392" rx="1"/><rect x="741.3649358454044" y="817.0208544782412" width="8.510346762023481" height="9.552256354026555" fill="#00b4d8" opacity="0.2853764476686196" rx="1"/><rect x="832.7016326811334" y="607.8526780143968" width="50.52687908535052" height="244.96575536787643" fill="#000044" opacity="0.4505143484683974" rx="2"/><rect x="855.4692740326377" y="617.8526780143968" width="4.991596382342185" height="6.4184745541816755" fill="#0077b6" opacity="0.23471246688503597" rx="1"/><rect x="842.8375542613" y="621.0619152914877" width="4.991596382342185" height="6.4184745541816755" fill="#00b4d8" opacity="0.11735623344251798" rx="1"/><rect x="853.2625757485707" y="658.6803039090429" width="9.404992950476005" height="8.98168724379076" fill="#0077b6" opacity="0.32479621139932335" rx="1"/><rect x="840.6308559772331" y="663.1711475309382" width="9.404992950476005" height="8.98168724379076" fill="#00b4d8" opacity="0.16239810569966168" rx="1"/><rect x="852.6680101370997" y="699.507929803689" width="10.594124173418182" height="7.269251150374592" fill="#0077b6" opacity="0.5137754082711822" rx="1"/><rect x="840.036290365762" y="703.1425553788763" width="10.594124173418182" height="7.269251150374592" fill="#00b4d8" opacity="0.2568877041355911" rx="1"/><rect x="855.8504822997893" y="740.335555698335" width="4.229179848038866" height="9.81281797397249" fill="#0077b6" opacity="0.5724497029028017" rx="1"/><rect x="843.2187625284516" y="745.2419646853212" width="4.229179848038866" height="9.81281797397249" fill="#00b4d8" opacity="0.28622485145140086" rx="1"/><rect x="851.9895389451555" y="781.1631815929811" width="11.951066557306579" height="6.491793068240349" fill="#0077b6" opacity="0.4112236025769318" rx="1"/><rect x="839.3578191738178" y="784.4090781271013" width="11.951066557306579" height="6.491793068240349" fill="#00b4d8" opacity="0.2056118012884659" rx="1"/><rect x="854.95174945484" y="821.9908074876272" width="6.026645537937676" height="9.478178972256877" fill="#0077b6" opacity="0.2143355303477346" rx="1"/><rect x="842.3200296835023" y="826.7298969737557" width="6.026645537937676" height="9.478178972256877" fill="#00b4d8" opacity="0.1071677651738673" rx="1"/><rect x="930.9383140187234" y="634.3349855123868" width="70.37001879428746" height="218.4834478698865" fill="#000044" opacity="0.5201847888343467" rx="2"/><rect x="962.2170378379697" y="644.3349855123868" width="7.812571155795029" height="9.08607386590123" fill="#0077b6" opacity="0.28464376397539015" rx="1"/><rect x="944.6245331393977" y="648.8780224453374" width="7.812571155795029" height="9.08607386590123" fill="#00b4d8" opacity="0.14232188198769508" rx="1"/><rect x="962.0176891591109" y="717.1628014690156" width="8.211268513512628" height="6.445961755804243" fill="#0077b6" opacity="0.44114706954945515" rx="1"/><rect x="944.425184460539" y="720.3857823469177" width="8.211268513512628" height="6.445961755804243" fill="#00b4d8" opacity="0.22057353477472758" rx="1"/><rect x="962.8974766677139" y="789.9906174256445" width="6.451693496306355" height="8.864049954075378" fill="#0077b6" opacity="0.13000636399490909" rx="1"/><rect x="945.304971969142" y="794.4226424026822" width="6.451693496306355" height="8.864049954075378" fill="#00b4d8" opacity="0.06500318199745454" rx="1"/><rect x="1035.0110913189487" y="579.9777068966016" width="60.279811166757675" height="272.84072648567167" fill="#000044" opacity="0.4451544132188788" rx="2"/><rect x="1062.1319917198912" y="589.9777068966016" width="6.038010364872871" height="6.303063929151525" fill="#0077b6" opacity="0.4392822228696389" rx="1"/><rect x="1047.062038928202" y="593.1292388611773" width="6.038010364872871" height="6.303063929151525" fill="#00b4d8" opacity="0.21964111143481946" rx="1"/><rect x="1061.5958202657612" y="624.0827977073105" width="7.110353273132432" height="8.134299868283398" fill="#0077b6" opacity="0.2383981702705841" rx="1"/><rect x="1046.5258674740721" y="628.1499476414523" width="7.110353273132432" height="8.134299868283398" fill="#00b4d8" opacity="0.11919908513529205" rx="1"/><rect x="1060.340294992198" y="658.1878885180195" width="9.621403820258891" height="9.50629687949696" fill="#0077b6" opacity="0.5220863656192288" rx="1"/><rect x="1045.2703422005088" y="662.9410369577679" width="9.621403820258891" height="9.50629687949696" fill="#00b4d8" opacity="0.2610431828096144" rx="1"/><rect x="1059.558892157325" y="692.2929793287285" width="11.184209490004974" height="7.570708463334178" fill="#0077b6" opacity="0.26771333144691617" rx="1"/><rect x="1044.4889393656358" y="696.0783335603955" width="11.184209490004974" height="7.570708463334178" fill="#00b4d8" opacity="0.13385666572345808" rx="1"/><rect x="1060.5394947525772" y="726.3980701394374" width="9.223004299500726" height="7.880824426626979" fill="#0077b6" opacity="0.49054270202539463" rx="1"/><rect x="1045.469541960888" y="730.3384823527509" width="9.223004299500726" height="7.880824426626979" fill="#00b4d8" opacity="0.24527135101269731" rx="1"/><rect x="1062.0365820983843" y="760.5031609501464" width="6.228829607886455" height="6.0044846981774285" fill="#0077b6" opacity="0.21109146443453886" rx="1"/><rect x="1046.966629306695" y="763.5054032992351" width="6.228829607886455" height="6.0044846981774285" fill="#00b4d8" opacity="0.10554573221726943" rx="1"/><rect x="1059.3707252045892" y="794.6082517608554" width="11.560543395476543" height="9.070727565109433" fill="#0077b6" opacity="0.24762049998334157" rx="1"/><rect x="1044.3007724129" y="799.1436155434101" width="11.560543395476543" height="9.070727565109433" fill="#00b4d8" opacity="0.12381024999167078" rx="1"/><rect x="1060.321082557194" y="828.7133425715643" width="9.659828690267128" height="8.117846064762642" fill="#0077b6" opacity="0.2315406826631028" rx="1"/><rect x="1045.2511297655046" y="832.7722656039457" width="9.659828690267128" height="8.117846064762642" fill="#00b4d8" opacity="0.1157703413315514" rx="1"/><rect x="1115.978287299491" y="671.6380207151262" width="75.77438828669824" height="181.18041266714698" fill="#000044" opacity="0.6143466410027693" rx="2"/><rect x="1148.0203923770339" y="681.6380207151262" width="11.690178131612525" height="8.51167917496331" fill="#0077b6" opacity="0.3180220832158863" rx="1"/><rect x="1129.0767953053594" y="685.8938603026079" width="11.690178131612525" height="8.51167917496331" fill="#00b4d8" opacity="0.15901104160794316" rx="1"/><rect x="1150.1094653360865" y="717.8741032485557" width="7.5120322135072275" height="6.580916063995314" fill="#0077b6" opacity="0.22629307669733956" rx="1"/><rect x="1131.165868264412" y="721.1645612805534" width="7.5120322135072275" height="6.580916063995314" fill="#00b4d8" opacity="0.11314653834866978" rx="1"/><rect x="1148.7648179915716" y="754.110185781985" width="10.201326902536984" height="9.447089975571048" fill="#0077b6" opacity="0.4370518162467172" rx="1"/><rect x="1129.821220919897" y="758.8337307697706" width="10.201326902536984" height="9.447089975571048" fill="#00b4d8" opacity="0.2185259081233586" rx="1"/><rect x="1148.1256906549802" y="790.3462683154144" width="11.479581575719543" height="7.5311137394819205" fill="#0077b6" opacity="0.5451712084573627" rx="1"/><rect x="1129.1820935833057" y="794.1118251851553" width="11.479581575719543" height="7.5311137394819205" fill="#00b4d8" opacity="0.27258560422868133" rx="1"/><rect x="1148.3546618727926" y="826.5823508488438" width="11.021639140095012" height="7.588987645131766" fill="#0077b6" opacity="0.20019183056433495" rx="1"/><rect x="1129.411064801118" y="830.3768446714097" width="11.021639140095012" height="7.588987645131766" fill="#00b4d8" opacity="0.10009591528216748" rx="1"/><rect x="1190.7655166733266" y="757.531381050947" width="59.48127247613884" height="95.28705233132631" fill="#03045e" opacity="0.6033119272215552" rx="2"/><rect x="1216.5901277287176" y="767.531381050947" width="7.83205036535674" height="9.09122516007424" fill="#0077b6" opacity="0.3990285978417445" rx="1"/><rect x="1201.719809609683" y="772.076993630984" width="7.83205036535674" height="9.09122516007424" fill="#00b4d8" opacity="0.19951429892087225" rx="1"/><rect x="1215.0531770963612" y="799.2937318280557" width="10.905951630069397" height="6.059676973163075" fill="#0077b6" opacity="0.5918387980414179" rx="1"/><rect x="1200.1828589773265" y="802.3235703146372" width="10.905951630069397" height="6.059676973163075" fill="#00b4d8" opacity="0.29591939902070896" rx="1"/><rect x="1216.9003521706013" y="831.0560826051645" width="7.211601481589396" height="7.814657961440892" fill="#0077b6" opacity="0.3374812964670084" rx="1"/><rect x="1202.0300340515666" y="834.963411585885" width="7.211601481589396" height="7.814657961440892" fill="#00b4d8" opacity="0.1687406482335042" rx="1"/><rect x="1280.969675381428" y="702.414717723712" width="77.96127665507638" height="150.40371565856128" fill="#03045e" opacity="0.6192370685560715" rx="2"/><rect x="1314.3582085094783" y="712.414717723712" width="11.184210398975809" height="8.707294238430283" fill="#0077b6" opacity="0.22410223882740882" rx="1"/><rect x="1294.8678893457093" y="716.7683648429271" width="11.184210398975809" height="8.707294238430283" fill="#00b4d8" opacity="0.11205111941370441" rx="1"/><rect x="1316.0365937498948" y="742.4954608554242" width="7.827439918142613" height="6.905716718385396" fill="#0077b6" opacity="0.24120749701773922" rx="1"/><rect x="1296.5462745861257" y="745.9483192146168" width="7.827439918142613" height="6.905716718385396" fill="#00b4d8" opacity="0.12060374850886961" rx="1"/><rect x="1314.1941457859227" y="772.5762039871365" width="11.512335846087042" height="9.226408023207078" fill="#0077b6" opacity="0.5853799318627874" rx="1"/><rect x="1294.7038266221537" y="777.1894079987401" width="11.512335846087042" height="9.226408023207078" fill="#00b4d8" opacity="0.2926899659313937" rx="1"/><rect x="1314.4582166321245" y="802.6569471188487" width="10.984194153683305" height="7.174226873827685" fill="#0077b6" opacity="0.12609650965921965" rx="1"/><rect x="1294.9678974683554" y="806.2440605557625" width="10.984194153683305" height="7.174226873827685" fill="#00b4d8" opacity="0.06304825482960982" rx="1"/><rect x="1315.7408693653394" y="832.7376902505611" width="8.41888868725367" height="8.32762366401209" fill="#0077b6" opacity="0.42507471282153264" rx="1"/><rect x="1296.2505502015704" y="836.901502082567" width="8.41888868725367" height="8.32762366401209" fill="#00b4d8" opacity="0.21253735641076632" rx="1"/><rect x="1383.1512552470522" y="525.2152530185913" width="83.00364801031623" height="327.60318036368193" fill="#000044" opacity="0.4853855087154977" rx="2"/><rect x="1420.460201654524" y="535.2152530185913" width="8.385755195372216" height="6.810577910582204" fill="#0077b6" opacity="0.3348036239237533" rx="1"/><rect x="1399.709289651945" y="538.6205419738824" width="8.385755195372216" height="6.810577910582204" fill="#00b4d8" opacity="0.16740181196187665" rx="1"/><rect x="1421.6946119538" y="589.815783079205" width="5.916934596820952" height="9.35342004880156" fill="#0077b6" opacity="0.28132709110652265" rx="1"/><rect x="1400.9436999512209" y="594.4924931036057" width="5.916934596820952" height="9.35342004880156" fill="#00b4d8" opacity="0.14066354555326133" rx="1"/><rect x="1419.2121429234971" y="644.4163131398186" width="10.881872657426138" height="8.578190955933694" fill="#0077b6" opacity="0.5677226458368178" rx="1"/><rect x="1398.461230920918" y="648.7054086177855" width="10.881872657426138" height="8.578190955933694" fill="#00b4d8" opacity="0.2838613229184089" rx="1"/><rect x="1421.754269017149" y="699.0168432004323" width="5.797620470122812" height="9.370198221730579" fill="#0077b6" opacity="0.20891226553565645" rx="1"/><rect x="1401.00335701457" y="703.7019423112976" width="5.797620470122812" height="9.370198221730579" fill="#00b4d8" opacity="0.10445613276782822" rx="1"/><rect x="1422.152027113698" y="753.6173732610459" width="5.002104277024536" height="8.059185114237291" fill="#0077b6" opacity="0.23152095946285897" rx="1"/><rect x="1401.401115111119" y="757.6469658181646" width="5.002104277024536" height="8.059185114237291" fill="#00b4d8" opacity="0.11576047973142949" rx="1"/><rect x="1419.2579229424111" y="808.2179033216596" width="10.79031261959819" height="8.30547387299721" fill="#0077b6" opacity="0.35219834450450693" rx="1"/><rect x="1398.507010939832" y="812.3706402581582" width="10.79031261959819" height="8.30547387299721" fill="#00b4d8" opacity="0.17609917225225347" rx="1"/><rect x="1469.5053299162714" y="748.2070968715025" width="30.954336337967387" height="104.6113365107708" fill="#03045e" opacity="0.5011466893370139" rx="2"/><rect x="1482.1793287172334" y="758.2070968715025" width="5.606338736043856" height="8.069343216267727" fill="#0077b6" opacity="0.2506033680985224" rx="1"/><rect x="1474.4407446327414" y="762.2417684796363" width="5.606338736043856" height="8.069343216267727" fill="#00b4d8" opacity="0.1253016840492612" rx="1"/><rect x="1482.7147649313058" y="771.2835139353488" width="4.535466307898859" height="6.74096153786894" fill="#0077b6" opacity="0.5504432307906549" rx="1"/><rect x="1474.9761808468138" y="774.6539947042833" width="4.535466307898859" height="6.74096153786894" fill="#00b4d8" opacity="0.27522161539532747" rx="1"/><rect x="1479.0730807307746" y="784.3599309991952" width="11.818834708961386" height="7.725019165716372" fill="#0077b6" opacity="0.5863980684863399" rx="1"/><rect x="1471.3344966462826" y="788.2224405820533" width="11.818834708961386" height="7.725019165716372" fill="#00b4d8" opacity="0.29319903424316995" rx="1"/><rect x="1480.9605923412676" y="797.4363480630416" width="8.043811487975486" height="7.126420419925456" fill="#0077b6" opacity="0.23457587678790462" rx="1"/><rect x="1473.2220082567756" y="800.9995582730043" width="8.043811487975486" height="7.126420419925456" fill="#00b4d8" opacity="0.11728793839395231" rx="1"/><rect x="1482.3287111958257" y="810.5127651268879" width="5.30757377885924" height="8.801154903788388" fill="#0077b6" opacity="0.4072330264391455" rx="1"/><rect x="1474.5901271113337" y="814.913342578782" width="5.30757377885924" height="8.801154903788388" fill="#00b4d8" opacity="0.20361651321957275" rx="1"/><rect x="1481.6235968403505" y="823.5891821907342" width="6.717802489809181" height="8.902983118524538" fill="#0077b6" opacity="0.2965426706468087" rx="1"/><rect x="1473.8850127558585" y="828.0406737499965" width="6.717802489809181" height="8.902983118524538" fill="#00b4d8" opacity="0.14827133532340436" rx="1"/><rect x="1482.2883251299754" y="836.6655992545806" width="5.388345910559488" height="7.385392106460731" fill="#0077b6" opacity="0.29544905999103777" rx="1"/><rect x="1474.5497410454834" y="840.358295307811" width="5.388345910559488" height="7.385392106460731" fill="#00b4d8" opacity="0.14772452999551888" rx="1"/><rect x="1481.8224235911373" y="849.742016318427" width="6.320148988235776" height="9.014223081761557" fill="#0077b6" opacity="0.4698383214347619" rx="1"/><rect x="1474.0838395066453" y="854.2491278593078" width="6.320148988235776" height="9.014223081761557" fill="#00b4d8" opacity="0.23491916071738095" rx="1"/><rect x="1574.973580771552" y="571.4181097507053" width="75.83559638025136" height="281.40032363156797" fill="#03045e" opacity="0.4324517492513293" rx="2"/><rect x="1609.28771267532" y="581.4181097507053" width="7.207332572715202" height="8.109524295225164" fill="#0077b6" opacity="0.18065484105158944" rx="1"/><rect x="1590.3288135802572" y="585.4728718983179" width="7.207332572715202" height="8.109524295225164" fill="#00b4d8" opacity="0.09032742052579472" rx="1"/><rect x="1609.8944761296154" y="675.2182176278947" width="5.9938056641243875" height="6.887565864456716" fill="#0077b6" opacity="0.5243893561475885" rx="1"/><rect x="1590.9355770345526" y="678.662000560123" width="5.9938056641243875" height="6.887565864456716" fill="#00b4d8" opacity="0.26219467807379426" rx="1"/><rect x="1607.6998201854426" y="769.0183255050839" width="10.38311755247021" height="9.938106393427148" fill="#0077b6" opacity="0.16986258925634032" rx="1"/><rect x="1588.7409210903797" y="773.9873787017975" width="10.38311755247021" height="9.938106393427148" fill="#00b4d8" opacity="0.08493129462817016" rx="1"/><rect x="1646.8096469305344" y="593.3742731444943" width="60.45865691044802" height="259.444160237779" fill="#03045e" opacity="0.41532018781065017" rx="2"/><rect x="1671.9612772763016" y="603.3742731444943" width="10.155396218913467" height="7.02126956289198" fill="#0077b6" opacity="0.5849497056531137" rx="1"/><rect x="1656.8466130486895" y="606.8849079259403" width="10.155396218913467" height="7.02126956289198" fill="#00b4d8" opacity="0.29247485282655683" rx="1"/><rect x="1672.6395118648145" y="689.8556598904206" width="8.798927041887987" height="8.155579079444422" fill="#0077b6" opacity="0.4136403950195854" rx="1"/><rect x="1657.5248476372024" y="693.9334494301428" width="8.798927041887987" height="8.155579079444422" fill="#00b4d8" opacity="0.2068201975097927" rx="1"/><rect x="1673.4320853095444" y="776.3370466363469" width="7.213780152428378" height="9.929970834387925" fill="#0077b6" opacity="0.48824307985795734" rx="1"/><rect x="1658.3174210819323" y="781.3020320535409" width="7.213780152428378" height="9.929970834387925" fill="#00b4d8" opacity="0.24412153992897867" rx="1"/><rect x="1747.4025640354564" y="526.3841256909966" width="42.16423572324315" height="326.4343076912766" fill="#000044" opacity="0.445659794133543" rx="2"/><rect x="1763.156700482961" y="536.3841256909966" width="10.655962828233829" height="7.46093493920307" fill="#0077b6" opacity="0.23798122239252115" rx="1"/><rect x="1752.6156415521502" y="540.1145931605981" width="10.655962828233829" height="7.46093493920307" fill="#00b4d8" opacity="0.11899061119626057" rx="1"/><rect x="1765.5033304691156" y="617.9927026138157" width="5.962702855924774" height="8.520464961072538" fill="#0077b6" opacity="0.5669471993034118" rx="1"/><rect x="1754.9622715383048" y="622.252935094352" width="5.962702855924774" height="8.520464961072538" fill="#00b4d8" opacity="0.2834735996517059" rx="1"/><rect x="1763.1022254008637" y="699.6012795366349" width="10.764912992428268" height="6.213148850997246" fill="#0077b6" opacity="0.3501296053524431" rx="1"/><rect x="1752.561166470053" y="702.7078539621335" width="10.764912992428268" height="6.213148850997246" fill="#00b4d8" opacity="0.17506480267622154" rx="1"/><rect x="1762.748731803423" y="781.209856459454" width="11.471900187309808" height="9.184546842049935" fill="#0077b6" opacity="0.4806902962691827" rx="1"/><rect x="1752.2076728726122" y="785.802129880479" width="11.471900187309808" height="9.184546842049935" fill="#00b4d8" opacity="0.24034514813459135" rx="1"/><rect x="1841.7526626790564" y="526.2931998531085" width="55.32992064611286" height="326.5252335291647" fill="#000044" opacity="0.4071922834746522" rx="2"/><rect x="1864.5349278080391" y="536.2931998531085" width="9.765390388147297" height="6.873340586403697" fill="#0077b6" opacity="0.36313691627307254" rx="1"/><rect x="1850.7024476465108" y="539.7298701463103" width="9.765390388147297" height="6.873340586403697" fill="#00b4d8" opacity="0.18156845813653627" rx="1"/><rect x="1863.896743167334" y="601.5982465589415" width="11.041759669557624" height="6.5400791113591" fill="#0077b6" opacity="0.2760937669724445" rx="1"/><rect x="1850.0642630058057" y="604.868286114621" width="11.041759669557624" height="6.5400791113591" fill="#00b4d8" opacity="0.13804688348622224" rx="1"/><rect x="1863.9856772415108" y="666.9032932647744" width="10.863891521204238" height="9.209735641071976" fill="#0077b6" opacity="0.39429197108705805" rx="1"/><rect x="1850.1531970799824" y="671.5081610853105" width="10.863891521204238" height="9.209735641071976" fill="#00b4d8" opacity="0.19714598554352902" rx="1"/><rect x="1863.9998527915948" y="732.2083399706073" width="10.835540421035965" height="7.452418182383389" fill="#0077b6" opacity="0.36163038931824976" rx="1"/><rect x="1850.1673726300664" y="735.934549061799" width="10.835540421035965" height="7.452418182383389" fill="#00b4d8" opacity="0.18081519465912488" rx="1"/><rect x="1863.643590970048" y="797.5133866764403" width="11.548064064129271" height="6.339184598144885" fill="#0077b6" opacity="0.14799266754370013" rx="1"/><rect x="1849.8111108085197" y="800.6829789755127" width="11.548064064129271" height="6.339184598144885" fill="#00b4d8" opacity="0.07399633377185007" rx="1"/><path d="M988.2505450463506 940.5582314917255 Q968.8264286119552 879.2164670138658 964.9416053250761 817.8747025360061" stroke="#000011" stroke-width="6.2093042559477745" fill="none" stroke-linecap="round"/><path d="M964.9416053250761 817.8747025360061 Q996.0877187135834 797.8747025360061 1020.5835100674498 817.8747025360061" stroke="#00002b" stroke-width="2.330487364048717" fill="none" stroke-linecap="round" opacity="0.6"/><path d="M964.9416053250761 817.8747025360061 Q999.7441064378953 805.9984917857702 1008.1316436155815 834.1222810355342" stroke="#00002b" stroke-width="2.219923566146736" fill="none" stroke-linecap="round" opacity="0.6"/><path d="M964.9416053250761 817.8747025360061 Q979.889091426965 804.3125330562 955.1456532886494 830.750363576394" stroke="#00002b" stroke-width="2.778164925234896" fill="none" stroke-linecap="round" opacity="0.6"/><path d="M964.9416053250761 817.8747025360061 Q948.5830752312561 801.5845695217763 913.5841508291484 825.2944365075465" stroke="#00002b" stroke-width="2.2529343288049413" fill="none" stroke-linecap="round" opacity="0.6"/><path d="M964.9416053250761 817.8747025360061 Q954.9510786141719 793.558052964949 905.1841706863765 809.2414033938918" stroke="#00002b" stroke-width="2.678789004375876" fill="none" stroke-linecap="round" opacity="0.6"/><path d="M751.9517033062764 787.6078652887624 Q769.5348519062472 720.2387276734781 773.0514816262414 652.8695900581939" stroke="#000011" stroke-width="6.693324842186022" fill="none" stroke-linecap="round"/><path d="M773.0514816262414 652.8695900581939 Q815.5786259697235 632.8695900581939 820.5383304987425 652.8695900581939" stroke="#00002b" stroke-width="2.0141856526057667" fill="none" stroke-linecap="round" opacity="0.6"/><path d="M773.0514816262414 652.8695900581939 Q794.6773198178512 640.9059062893871 815.7764705530435 668.9422225205803" stroke="#00002b" stroke-width="3.326165821712037" fill="none" stroke-linecap="round" opacity="0.6"/><path d="M773.0514816262414 652.8695900581939 Q776.1286762299073 640.5784682071859 761.3214740770666 668.2873463561779" stroke="#00002b" stroke-width="3.707777006483585" fill="none" stroke-linecap="round" opacity="0.6"/><path d="M773.0514816262414 652.8695900581939 Q752.6560853644991 636.9994237261117 715.8802284548019 661.1292573940293" stroke="#00002b" stroke-width="2.229914945138133" fill="none" stroke-linecap="round" opacity="0.6"/><path d="M773.0514816262414 652.8695900581939 Q755.9874538766821 628.9356152416472 718.5915957586683 645.0016404251005" stroke="#00002b" stroke-width="2.808710393218489" fill="none" stroke-linecap="round" opacity="0.6"/><path d="M773.0514816262414 652.8695900581939 Q771.3692750617469 624.2940913561733 760.0028041703921 635.7185926541528" stroke="#00002b" stroke-width="3.6233583003336935" fill="none" stroke-linecap="round" opacity="0.6"/><rect x="0" y="1000" width="1920" height="80" fill="#000038" opacity="0.8"/><line x1="0" y1="1040" x2="1920" y2="1040" stroke="#0077b6" stroke-opacity="0.15" stroke-width="2" stroke-dasharray="30,20"/><rect x="0" y="930" width="1920" height="150" fill="url(#glow27)"/><rect x="0" y="980" width="1920" height="100" fill="#0077b6" opacity="0.04"/><rect x="391.40802303129067" y="1018.8991782672003" width="82.3682660661564" height="2" fill="#00b4d8" opacity="0.022960372651685115" rx="1"/><rect x="614.61262165909" y="1015.6426119095745" width="108.34182356678457" height="2" fill="#00b4d8" opacity="0.0272702511510044" rx="1"/><rect x="954.5234940188293" y="1022.0690260133866" width="44.84462168646152" height="2" fill="#00b4d8" opacity="0.02195218392693256" rx="1"/><rect x="1834.7062445978415" y="1041.2354444854975" width="37.50301942636795" height="2" fill="#00b4d8" opacity="0.020770090045586716" rx="1"/><rect x="297.83347166558576" y="1059.7529950783944" width="60.201075291307895" height="2" fill="#00b4d8" opacity="0.022174243843689153" rx="1"/><rect x="355.5724512868497" y="1014.3164263792141" width="69.83807388922155" height="2" fill="#00b4d8" opacity="0.03841234312821467" rx="1"/><rect x="1770.8380195151171" y="1032.9972841481206" width="59.69348430160747" height="2" fill="#00b4d8" opacity="0.059878933709086604" rx="1"/><rect x="1904.645172353984" y="1031.5895275565772" width="99.33648954595823" height="2" fill="#00b4d8" opacity="0.021913452269954947" rx="1"/><rect x="1467.7816829522562" y="1058.0063855922797" width="73.7700194524997" height="2" fill="#00b4d8" opacity="0.025713027884651216" rx="1"/><rect x="998.9492433608857" y="1047.5383541797144" width="68.13889072931812" height="2" fill="#00b4d8" opacity="0.058665718780519835" rx="1"/><rect x="1126.5917455792874" y="1057.373079247161" width="87.16448980550386" height="2" fill="#00b4d8" opacity="0.0573352168494219" rx="1"/><rect x="1272.5605307502115" y="1048.2280031052017" width="48.19663654738028" height="2" fill="#00b4d8" opacity="0.024109394541967054" rx="1"/><rect x="46.83145211237284" y="1005.1568646461602" width="23.120258288253158" height="2" fill="#00b4d8" opacity="0.039078825372056765" rx="1"/><rect x="1893.137615465824" y="1005.9799318448594" width="70.88160954203494" height="2" fill="#00b4d8" opacity="0.04392543780243151" rx="1"/><rect x="511.7174015640555" y="1033.5916505878772" width="74.72916114486968" height="2" fill="#00b4d8" opacity="0.04740608073477775" rx="1"/><rect x="1301.6977132907364" y="1011.1436190249267" width="74.11968453650356" height="2" fill="#00b4d8" opacity="0.03621552910101962" rx="1"/><rect x="392.4704366346054" y="1016.2095806878548" width="55.432759005444304" height="2" fill="#00b4d8" opacity="0.02318455731570361" rx="1"/><rect x="1105.818294246173" y="1010.9450926284644" width="100.69034323112348" height="2" fill="#00b4d8" opacity="0.05318375198011839" rx="1"/><rect x="809.675968328881" y="1031.0747450662486" width="69.91450993109366" height="2" fill="#00b4d8" opacity="0.03762950528823526" rx="1"/><rect x="616.4831133132063" y="1040.2775975270843" width="110.94486883630624" height="2" fill="#00b4d8" opacity="0.05934516594729973" rx="1"/><rect x="861.4258528271284" y="1039.845971716532" width="24.24950609548239" height="2" fill="#00b4d8" opacity="0.048462730457182676" rx="1"/><rect x="5.912876130527089" y="1005.3716165771176" width="104.86761829929138" height="2" fill="#00b4d8" opacity="0.03676692027989005" rx="1"/><rect x="1104.174727309536" y="1003.802666460118" width="76.00809381716141" height="2" fill="#00b4d8" opacity="0.04187454587357923" rx="1"/><rect x="1866.721997099631" y="1023.482301305859" width="117.08663469578293" height="2" fill="#00b4d8" opacity="0.05015053267361376" rx="1"/><rect x="1735.4948924052285" y="1029.2687495446924" width="39.32025875880389" height="2" fill="#00b4d8" opacity="0.05559545007431774" rx="1"/><rect x="1427.3957717761853" y="1029.6692642312657" width="93.63631070443343" height="2" fill="#00b4d8" opacity="0.044767299244358974" rx="1"/><rect x="602.6574765058833" y="1045.2438510314664" width="62.8409064521177" height="2" fill="#00b4d8" opacity="0.04118884533205741" rx="1"/><rect x="411.41156191272" y="1010.2788347169475" width="43.78424760507984" height="2" fill="#00b4d8" opacity="0.0402779349173135" rx="1"/><rect x="1676.4765920668087" y="1007.0254464277591" width="51.36384175889283" height="2" fill="#00b4d8" opacity="0.05201760475337916" rx="1"/><rect x="1208.455621732505" y="1026.2631220571377" width="114.3187000216727" height="2" fill="#00b4d8" opacity="0.05914261314066653" rx="1"/><text x="1900" y="1060" font-family="Arial, sans-serif" font-size="11" fill="#fff" opacity="0.08" text-anchor="end" letter-spacing="2">GTA 6 REWARDS · WALLPAPER 028</text>
</svg>