<?xml version="1.0" encoding="UTF-8"?>
<svg xmlns="http://www.w3.org/2000/svg" width="1920" height="1080" viewBox="0 0 1920 1080">
<defs>
    <linearGradient id="bg7" x1="0%" y1="0%" x2="0%" y2="100%">
      <stop offset="0%" stop-color="#03045e"/>
      <stop offset="50%" stop-color="#00002b"/>
      <stop offset="100%" stop-color="#03045e"/>
    </linearGradient>
    <linearGradient id="sun7" x1="0%" y1="0%" x2="100%" y2="100%">
      <stop offset="0%" stop-color="#00b4d8"/>
      <stop offset="100%" stop-color="#0077b6"/>
    </linearGradient>
    <radialGradient id="glow7" cx="50%" cy="70%" r="50%">
      <stop offset="0%" stop-color="#00b4d8" stop-opacity="0.3"/>
      <stop offset="100%" stop-color="#03045e" stop-opacity="0"/>
    </radialGradient>
  </defs><rect width="1920" height="1080" fill="url(#bg7)"/><circle cx="374.3499091068166" cy="590.7630532027136" r="809.7086117625489" fill="#00b4d8" opacity="0.10214452686536697"/><circle cx="574.3499091068165" cy="490.76305320271365" r="481.1043376291879" fill="#0077b6" opacity="0.08729861061025845"/><line x1="0" y1="980" x2="1920" y2="980" stroke="#0077b6" stroke-opacity="0.05" stroke-width="2"/><line x1="0" y1="935" x2="1920" y2="935" stroke="#0077b6" stroke-opacity="0.049" stroke-width="0.5"/><line x1="0" y1="890" x2="1920" y2="890" stroke="#0077b6" stroke-opacity="0.048" stroke-width="0.5"/><line x1="0" y1="845" x2="1920" y2="845" stroke="#0077b6" stroke-opacity="0.047" stroke-width="0.5"/><line x1="0" y1="800" x2="1920" y2="800" stroke="#0077b6" stroke-opacity="0.046" stroke-width="0.5"/><line x1="0" y1="755" x2="1920" y2="755" stroke="#0077b6" stroke-opacity="0.045" stroke-width="0.5"/><line x1="0" y1="710" x2="1920" y2="710" stroke="#0077b6" stroke-opacity="0.044" stroke-width="0.5"/><line x1="0" y1="665" x2="1920" y2="665" stroke="#0077b6" stroke-opacity="0.043" stroke-width="0.5"/><line x1="0" y1="620" x2="1920" y2="620" stroke="#0077b6" stroke-opacity="0.041999999999999996" stroke-width="0.5"/><line x1="0" y1="575" x2="1920" y2="575" stroke="#0077b6" stroke-opacity="0.041" stroke-width="0.5"/><line x1="0" y1="530" x2="1920" y2="530" stroke="#0077b6" stroke-opacity="0.04" stroke-width="0.5"/><line x1="0" y1="485" x2="1920" y2="485" stroke="#0077b6" stroke-opacity="0.039" stroke-width="0.5"/><line x1="0" y1="440" x2="1920" y2="440" stroke="#0077b6" stroke-opacity="0.038" stroke-width="0.5"/><line x1="0" y1="395" x2="1920" y2="395" stroke="#0077b6" stroke-opacity="0.037" stroke-width="0.5"/><line x1="0" y1="350" x2="1920" y2="350" stroke="#0077b6" stroke-opacity="0.036" stroke-width="0.5"/><line x1="0" y1="305" x2="1920" y2="305" stroke="#0077b6" stroke-opacity="0.034999999999999996" stroke-width="0.5"/><line x1="0" y1="260" x2="1920" y2="260" stroke="#0077b6" stroke-opacity="0.033999999999999996" stroke-width="0.5"/><line x1="0" y1="215" x2="1920" y2="215" stroke="#0077b6" stroke-opacity="0.033" stroke-width="0.5"/><line x1="0" y1="170" x2="1920" y2="170" stroke="#0077b6" stroke-opacity="0.032" stroke-width="0.5"/><line x1="0" y1="125" x2="1920" y2="125" stroke="#0077b6" stroke-opacity="0.031" stroke-width="0.5"/><line x1="560" y1="1080" x2="860" y2="580" stroke="#00b4d8" stroke-opacity="0.04" stroke-width="1"/><line x1="640" y1="1080" x2="880" y2="590" stroke="#00b4d8" stroke-opacity="0.04" stroke-width="1"/><line x1="720" y1="1080" x2="900" y2="600" stroke="#00b4d8" stroke-opacity="0.04" stroke-width="1"/><line x1="800" y1="1080" x2="920" y2="610" stroke="#00b4d8" stroke-opacity="0.04" stroke-width="1"/><line x1="880" y1="1080" x2="940" y2="620" stroke="#00b4d8" stroke-opacity="0.04" stroke-width="1"/><line x1="960" y1="1080" x2="960" y2="630" stroke="#00b4d8" stroke-opacity="0.04" stroke-width="1"/><line x1="1040" y1="1080" x2="980" y2="620" stroke="#00b4d8" stroke-opacity="0.04" stroke-width="1"/><line x1="1120" y1="1080" x2="1000" y2="610" stroke="#00b4d8" stroke-opacity="0.04" stroke-width="1"/><line x1="1200" y1="1080" x2="1020" y2="600" stroke="#00b4d8" stroke-opacity="0.04" stroke-width="1"/><line x1="1280" y1="1080" x2="1040" y2="590" stroke="#00b4d8" stroke-opacity="0.04" stroke-width="1"/><line x1="1360" y1="1080" x2="1060" y2="580" stroke="#00b4d8" stroke-opacity="0.04" stroke-width="1"/><circle cx="963.9907248932847" cy="368.94662701965933" r="69.59700743891229" fill="url(#sun7)" opacity="0.6773446683253498"/><circle cx="963.9907248932847" cy="368.94662701965933" r="64.59700743891229" fill="#03045e" opacity="0.3"/><circle cx="995.3328880004894" cy="85.16329638780171" r="1.0519378902511527" fill="#fff" opacity="0.3759484027922033"/><circle cx="1026.6998892432778" cy="128.01466726884587" r="1.9669191570642681" fill="#fff" opacity="0.3485201565894578"/><circle cx="1685.336823855838" cy="82.42201845776802" r="0.7154860791553478" fill="#fff" opacity="0.292786418109384"/><circle cx="558.6263292838415" cy="236.6934184908619" r="1.6428105428681734" fill="#fff" opacity="0.24471085407880855"/><circle cx="1752.8461597470673" cy="239.20304318126364" r="1.4324372510734102" fill="#fff" opacity="0.6080545447319873"/><circle cx="1854.7002316859318" cy="269.73243834770574" r="1.8818072904557472" fill="#fff" opacity="0.6965770906527939"/><circle cx="76.75866993068686" cy="75.57474831388676" r="1.0354715213262176" fill="#fff" opacity="0.4551894347311904"/><circle cx="38.73813942976718" cy="38.0618936396348" r="1.652023783803923" fill="#fff" opacity="0.4213815831629051"/><circle cx="819.2941512584905" cy="202.46225543191244" r="1.9193317564016517" fill="#fff" opacity="0.6219686516611764"/><circle cx="1321.53113798274" cy="142.83990329477004" r="1.034501785071218" fill="#fff" opacity="0.28327472295688344"/><circle cx="255.9230594932854" cy="394.4310631515531" r="0.9836404441119266" fill="#fff" opacity="0.3142253161673959"/><circle cx="1213.8407955909709" cy="145.4850413318456" r="0.5654470011511461" fill="#fff" opacity="0.6105522663822752"/><circle cx="1769.0338030106002" cy="236.68098182526438" r="1.7398662869212838" fill="#fff" opacity="0.5931466292108285"/><circle cx="1766.1657821773938" cy="50.56188236981674" r="1.2948936342249842" fill="#fff" opacity="0.5894996159219881"/><circle cx="1710.8446257819526" cy="414.9353056920076" r="1.756936213294262" fill="#fff" opacity="0.5565407488859586"/><circle cx="1850.6319236593863" cy="417.9627322410147" r="1.3228524019529233" fill="#fff" opacity="0.6911107940811456"/><circle cx="10.9438884283751" cy="222.94374824663248" r="0.9920845514843437" fill="#fff" opacity="0.6345629569689192"/><circle cx="1055.0305959058533" cy="326.33986447154075" r="1.9654009380530102" fill="#fff" opacity="0.5345319944281438"/><circle cx="1580.4662144883691" cy="185.75746583048195" r="1.4635271003850567" fill="#fff" opacity="0.643132201266273"/><circle cx="1059.257680871351" cy="134.94981341970848" r="0.8552527681121725" fill="#fff" opacity="0.2055888909859557"/><circle cx="46.21978865149892" cy="407.54746414896744" r="1.7500533694983584" fill="#fff" opacity="0.5783608436068428"/><circle cx="27.650332606316155" cy="267.3631020736329" r="1.3923449548642024" fill="#fff" opacity="0.6301098515815358"/><circle cx="1910.1324185706053" cy="120.09487850034957" r="1.9794129118042563" fill="#fff" opacity="0.5899826507526409"/><circle cx="1545.4414870462942" cy="269.74033068067865" r="1.745208350416554" fill="#fff" opacity="0.2834384951469113"/><circle cx="1908.8613510105902" cy="218.99447888019367" r="1.3503348715254884" fill="#fff" opacity="0.2965293477514129"/><circle cx="760.6392522437123" cy="91.00902670133138" r="1.7203133299994082" fill="#fff" opacity="0.7169403874121933"/><circle cx="1412.9650563311218" cy="284.45264698109884" r="1.985364346645159" fill="#fff" opacity="0.5655859802303803"/><circle cx="1413.9938636436111" cy="412.7278840496968" r="1.2338296894994167" fill="#fff" opacity="0.3378640106268842"/><circle cx="1121.294791810516" cy="343.73447129310443" r="1.7808790893249398" fill="#fff" opacity="0.31395186635524774"/><circle cx="1065.4002810514999" cy="206.36853418461246" r="1.288468616266844" fill="#fff" opacity="0.30812353303379464"/><circle cx="481.2143429744091" cy="189.6325000332744" r="1.2162680213144674" fill="#fff" opacity="0.30250452726672045"/><circle cx="6.165186615233586" cy="74.80199621869298" r="0.5361581507688756" fill="#fff" opacity="0.264337003525425"/><circle cx="1682.5057361467057" cy="424.57640930464873" r="0.5901796557219186" fill="#fff" opacity="0.3046728461293208"/><circle cx="777.6718324743379" cy="215.5660774390134" r="1.5985014686823127" fill="#fff" opacity="0.42094853465001764"/><circle cx="691.2304304659438" cy="341.9392173006058" r="1.5661013050857235" fill="#fff" opacity="0.6800685453880737"/><circle cx="1017.5804675504519" cy="344.87492789162206" r="1.1182482644492406" fill="#fff" opacity="0.53758191250674"/><circle cx="561.8806284484176" cy="227.77582091180977" r="1.6647251890191634" fill="#fff" opacity="0.24800809711404334"/><circle cx="484.21982567855616" cy="357.1960468416093" r="1.7410614645902678" fill="#fff" opacity="0.6648024466970941"/><circle cx="825.2732962801292" cy="154.18597231297426" r="1.8804894757644481" fill="#fff" opacity="0.3507992455155587"/><circle cx="693.9077279097186" cy="206.04875267624126" r="1.7454602465139377" fill="#fff" opacity="0.4424229063192436"/><circle cx="1871.1673141902238" cy="238.15356909068151" r="1.1544717870779504" fill="#fff" opacity="0.40313574289976056"/><circle cx="1031.1180257217768" cy="126.68604150383872" r="1.8262857601107765" fill="#fff" opacity="0.5433552321846027"/><circle cx="1893.1966459688724" cy="363.3140848715124" r="1.243454063484318" fill="#fff" opacity="0.46208396024584864"/><circle cx="1339.5295919616544" cy="402.22040583617525" r="1.3259819025001445" fill="#fff" opacity="0.5944227152956703"/><circle cx="311.77869431483066" cy="299.50641385361234" r="1.0862040973934821" fill="#fff" opacity="0.5658273448156722"/><circle cx="1643.5747494650016" cy="165.8094734414037" r="0.9430752528000332" fill="#fff" opacity="0.2543125102422928"/><circle cx="1312.245171673653" cy="316.27942979994214" r="1.9469447053146884" fill="#fff" opacity="0.390450891663891"/><circle cx="498.5051881937555" cy="29.11927034638805" r="1.5805356366514545" fill="#fff" opacity="0.7557116170310676"/><circle cx="1505.6392580796125" cy="358.0336552537125" r="1.9441077918615444" fill="#fff" opacity="0.33590669234653625"/><circle cx="1879.215346267264" cy="122.0798666277155" r="1.3076466213231084" fill="#fff" opacity="0.4346567434805112"/><circle cx="1370.0304591865352" cy="328.36430561364733" r="1.4355945184211234" fill="#fff" opacity="0.6353143785231081"/><circle cx="1193.2872156596945" cy="256.6907351949929" r="0.9078756330785983" fill="#fff" opacity="0.6991670885354204"/><circle cx="926.589357770651" cy="60.4031592077583" r="1.5838082578461172" fill="#fff" opacity="0.4783376874118898"/><circle cx="1074.3071957943746" cy="238.16243918942345" r="1.8320436128024113" fill="#fff" opacity="0.77181988688461"/><circle cx="294.32702116070476" cy="43.95738560239724" r="0.9303684524331168" fill="#fff" opacity="0.514320308276061"/><circle cx="754.0926125911279" cy="393.1448515600396" r="1.7858978764354014" fill="#fff" opacity="0.518068174439964"/><circle cx="1743.2816232329424" cy="120.41179892989152" r="1.239684957368226" fill="#fff" opacity="0.7555623803184279"/><circle cx="1297.785449479191" cy="343.78253037663706" r="1.000301745371032" fill="#fff" opacity="0.7457421596035692"/><circle cx="1861.6686044497576" cy="364.08581776080786" r="0.5040140337087247" fill="#fff" opacity="0.3004884758732488"/><circle cx="1445.0379917409825" cy="45.15823706545826" r="0.6237829989110546" fill="#fff" opacity="0.7470939285464337"/><circle cx="520.8391947766858" cy="254.57941180434528" r="0.8932585278277422" fill="#fff" opacity="0.6763476865543863"/><circle cx="1381.5960854528462" cy="24.83632284608584" r="1.16999597769929" fill="#fff" opacity="0.7877042077918779"/><circle cx="158.15939653621973" cy="36.91505103672739" r="1.0718069828748253" fill="#fff" opacity="0.6735346372876164"/><circle cx="1327.3238332679784" cy="117.48389738925825" r="1.2463091422678692" fill="#fff" opacity="0.2638121618572185"/><circle cx="926.7495929372379" cy="188.8491478145237" r="1.3164008779722267" fill="#fff" opacity="0.30080287253968485"/><circle cx="1482.7647260303527" cy="130.98496920312405" r="1.5377680080797915" fill="#fff" opacity="0.6994824825086357"/><circle cx="70.93889551026255" cy="78.64532872257878" r="1.5757755370754225" fill="#fff" opacity="0.7357605303953776"/><circle cx="541.2282167145116" cy="362.81448991475963" r="1.466534144470127" fill="#fff" opacity="0.3934535918276416"/><circle cx="181.96565647189635" cy="46.110353104330216" r="1.9826002146542538" fill="#fff" opacity="0.6160591541361201"/><circle cx="494.90938302476644" cy="223.7494880929006" r="0.6061936753350761" fill="#fff" opacity="0.5095770258711597"/><circle cx="818.8513274907255" cy="336.61396817132226" r="0.7434051407602162" fill="#fff" opacity="0.6446925376645971"/><circle cx="327.2806219028497" cy="103.19427815247194" r="0.806947014249616" fill="#fff" opacity="0.7282350976318668"/><circle cx="59.141282751025" cy="14.446153089042323" r="1.9104090056872016" fill="#fff" opacity="0.7526488506124935"/><circle cx="928.779320635083" cy="248.68182631039105" r="1.5576130310207636" fill="#fff" opacity="0.30240716629252007"/><circle cx="994.7131019166468" cy="32.179944753688744" r="1.3929051003402344" fill="#fff" opacity="0.6328970200458768"/><rect x="17.105238478888115" y="872.7998615644872" width="52.22405558503793" height="96.73751168808377" fill="#03045e" opacity="0.4818431974812046" rx="2"/><rect x="40.0832286805574" y="882.7998615644872" width="6.268075181699375" height="7.390311262894029" fill="#0077b6" opacity="0.4966507419004689" rx="1"/><rect x="27.02721478429791" y="886.4950171959342" width="6.268075181699375" height="7.390311262894029" fill="#00b4d8" opacity="0.24832537095023444" rx="1"/><rect x="37.92281456452861" y="915.0456987938485" width="10.58890341375696" height="9.464131940962778" fill="#0077b6" opacity="0.48678440448986005" rx="1"/><rect x="24.866800668269118" y="919.7777647643298" width="10.58890341375696" height="9.464131940962778" fill="#00b4d8" opacity="0.24339220224493002" rx="1"/><rect x="38.38646744270494" y="947.2915360232097" width="9.66159765740428" height="9.459055951670525" fill="#0077b6" opacity="0.41880233665434696" rx="1"/><rect x="25.330453546445458" y="952.0210639990449" width="9.66159765740428" height="9.459055951670525" fill="#00b4d8" opacity="0.20940116832717348" rx="1"/><rect x="104.54000559002182" y="796.9388358520667" width="71.28274381656263" height="172.59853740050423" fill="#000044" opacity="0.5979636977887628" rx="2"/><rect x="137.2144558333036" y="806.9388358520667" width="5.933843329999094" height="7.986043228298901" fill="#0077b6" opacity="0.3991065693318626" rx="1"/><rect x="119.39376987916293" y="810.9318574662162" width="5.933843329999094" height="7.986043228298901" fill="#00b4d8" opacity="0.1995532846659313" rx="1"/><rect x="135.4806953791393" y="850.0884702021928" width="9.401364238327687" height="7.706091300050284" fill="#0077b6" opacity="0.45559033471056964" rx="1"/><rect x="117.66000942499863" y="853.9415158522179" width="9.401364238327687" height="7.706091300050284" fill="#00b4d8" opacity="0.22779516735528482" rx="1"/><rect x="137.21498291717745" y="893.2381045523189" width="5.932789162251351" height="8.95167316099435" fill="#0077b6" opacity="0.35975210272235614" rx="1"/><rect x="119.39429696303681" y="897.7139411328161" width="5.932789162251351" height="8.95167316099435" fill="#00b4d8" opacity="0.17987605136117807" rx="1"/><rect x="136.4207648098659" y="936.3877389024449" width="7.521225376874494" height="7.566788929879383" fill="#0077b6" opacity="0.5077671655471826" rx="1"/><rect x="118.60007885572523" y="940.1711333673845" width="7.521225376874494" height="7.566788929879383" fill="#00b4d8" opacity="0.2538835827735913" rx="1"/><rect x="170.69597971560847" y="727.4696666345628" width="63.23376567411091" height="242.06770661800812" fill="#03045e" opacity="0.58810520823768" rx="2"/><rect x="198.6375824264622" y="737.4696666345628" width="7.350560252403506" height="9.780977075868513" fill="#0077b6" opacity="0.4561612156583371" rx="1"/><rect x="182.82914100793445" y="742.3601551724971" width="7.350560252403506" height="9.780977075868513" fill="#00b4d8" opacity="0.22808060782916856" rx="1"/><rect x="198.26550226607065" y="818.1589021738989" width="8.094720573186576" height="8.781022588438592" fill="#0077b6" opacity="0.2581739357575248" rx="1"/><rect x="182.45706084754292" y="822.5494134681182" width="8.094720573186576" height="8.781022588438592" fill="#00b4d8" opacity="0.1290869678787624" rx="1"/><rect x="196.41026901079624" y="898.8481377132349" width="11.805187083735408" height="6.252011267527009" fill="#0077b6" opacity="0.4813226748912881" rx="1"/><rect x="180.6018275922685" y="901.9741433469984" width="11.805187083735408" height="6.252011267527009" fill="#00b4d8" opacity="0.24066133744564405" rx="1"/><rect x="263.831970172146" y="741.8732536588501" width="43.47077671286435" height="227.6641195937209" fill="#000044" opacity="0.6564464204144772" rx="2"/><rect x="281.4290738159818" y="751.8732536588501" width="8.276569425192793" height="9.779035175167731" fill="#0077b6" opacity="0.1832486987540612" rx="1"/><rect x="270.5613796377657" y="756.762771246434" width="8.276569425192793" height="9.779035175167731" fill="#00b4d8" opacity="0.0916243493770306" rx="1"/><rect x="281.6406151995582" y="780.3312686080652" width="7.853486658039849" height="6.695893165817459" fill="#0077b6" opacity="0.1213812477936459" rx="1"/><rect x="270.77292102134214" y="783.679215190974" width="7.853486658039849" height="6.695893165817459" fill="#00b4d8" opacity="0.06069062389682295" rx="1"/><rect x="280.7615458254106" y="808.7892835572803" width="9.61162540633502" height="9.050009889306969" fill="#0077b6" opacity="0.20798317510820535" rx="1"/><rect x="269.89385164719454" y="813.3142885019338" width="9.61162540633502" height="9.050009889306969" fill="#00b4d8" opacity="0.10399158755410268" rx="1"/><rect x="283.54110825558274" y="837.2472985064954" width="4.05250054599077" height="7.927798140311567" fill="#0077b6" opacity="0.4324548936990218" rx="1"/><rect x="272.67341407736666" y="841.2111975766512" width="4.05250054599077" height="7.927798140311567" fill="#00b4d8" opacity="0.2162274468495109" rx="1"/><rect x="282.31949341299526" y="865.7053134557106" width="6.4957302311658225" height="8.143909121431388" fill="#0077b6" opacity="0.5701480899169454" rx="1"/><rect x="271.4517992347792" y="869.7772680164262" width="6.4957302311658225" height="8.143909121431388" fill="#00b4d8" opacity="0.2850740449584727" rx="1"/><rect x="282.3915139846909" y="894.1633284049257" width="6.351689087774532" height="8.204449872999557" fill="#0077b6" opacity="0.4475719239440681" rx="1"/><rect x="271.5238198064748" y="898.2655533414254" width="6.351689087774532" height="8.204449872999557" fill="#00b4d8" opacity="0.22378596197203404" rx="1"/><rect x="282.3671306483796" y="922.6213433541408" width="6.400455760397123" height="6.415813005626158" fill="#0077b6" opacity="0.4172601987182303" rx="1"/><rect x="271.4994364701635" y="925.8292498569539" width="6.400455760397123" height="6.415813005626158" fill="#00b4d8" opacity="0.20863009935911514" rx="1"/><rect x="283.0911620391704" y="951.0793583033559" width="4.952392978815453" height="8.187212223696338" fill="#0077b6" opacity="0.3267158569830274" rx="1"/><rect x="272.2234678609543" y="955.1729644152041" width="4.952392978815453" height="8.187212223696338" fill="#00b4d8" opacity="0.1633579284915137" rx="1"/><rect x="354.07330381849704" y="667.1690922852534" width="79.13221387405233" height="302.36828096731756" fill="#03045e" opacity="0.6331268628670663" rx="2"/><rect x="388.6288428885565" y="677.1690922852534" width="10.021135733933452" height="8.454739158613314" fill="#0077b6" opacity="0.4075061207189006" rx="1"/><rect x="368.8457894200434" y="681.3964618645601" width="10.021135733933452" height="8.454739158613314" fill="#00b4d8" opacity="0.2037530603594503" rx="1"/><rect x="389.24207760889215" y="727.5638057798063" width="8.794666293262193" height="8.70060374743785" fill="#0077b6" opacity="0.48183523129714545" rx="1"/><rect x="369.45902414037903" y="731.9141076535252" width="8.794666293262193" height="8.70060374743785" fill="#00b4d8" opacity="0.24091761564857272" rx="1"/><rect x="388.7508278612034" y="777.9585192743593" width="9.777165788639607" height="9.50606814294729" fill="#0077b6" opacity="0.529649643816438" rx="1"/><rect x="368.9677743926903" y="782.711553345833" width="9.777165788639607" height="9.50606814294729" fill="#00b4d8" opacity="0.264824821908219" rx="1"/><rect x="388.9407735664826" y="828.3532327689122" width="9.39727437808115" height="8.507004718879937" fill="#0077b6" opacity="0.175103801925458" rx="1"/><rect x="369.1577200979695" y="832.6067351283522" width="9.39727437808115" height="8.507004718879937" fill="#00b4d8" opacity="0.087551900962729" rx="1"/><rect x="390.6194946613775" y="878.7479462634651" width="6.039832188291436" height="9.977042425418515" fill="#0077b6" opacity="0.20169317913281107" rx="1"/><rect x="370.83644119286436" y="883.7364674761743" width="6.039832188291436" height="9.977042425418515" fill="#00b4d8" opacity="0.10084658956640553" rx="1"/><rect x="388.0156474039096" y="929.142659758018" width="11.247526703227201" height="6.150913978961975" fill="#0077b6" opacity="0.47357047150693143" rx="1"/><rect x="368.2325939353965" y="932.218116747499" width="11.247526703227201" height="6.150913978961975" fill="#00b4d8" opacity="0.23678523575346572" rx="1"/><rect x="432.95111529861003" y="808.1420229534019" width="79.48937026073443" height="161.39535029916914" fill="#000044" opacity="0.49816155869005285" rx="2"/><rect x="468.1124425997065" y="818.1420229534019" width="9.16671565854147" height="7.312768941119492" fill="#0077b6" opacity="0.1539158306908598" rx="1"/><rect x="448.2401000345229" y="821.7984074239616" width="9.16671565854147" height="7.312768941119492" fill="#00b4d8" opacity="0.0769579153454299" rx="1"/><rect x="469.4506212113786" y="841.1985015675689" width="6.490358435197351" height="9.753550391586858" fill="#0077b6" opacity="0.14730107473379492" rx="1"/><rect x="449.578278646195" y="846.0752767633624" width="6.490358435197351" height="9.753550391586858" fill="#00b4d8" opacity="0.07365053736689746" rx="1"/><rect x="470.091078769042" y="864.254980181736" width="5.209443319870495" height="7.012838945028568" fill="#0077b6" opacity="0.4664192829435736" rx="1"/><rect x="450.2187362038584" y="867.7613996542502" width="5.209443319870495" height="7.012838945028568" fill="#00b4d8" opacity="0.2332096414717868" rx="1"/><rect x="470.69370046979697" y="887.311458795903" width="4.004199918360496" height="8.857184702264421" fill="#0077b6" opacity="0.10211135332987444" rx="1"/><rect x="450.82135790461336" y="891.7400511470353" width="4.004199918360496" height="8.857184702264421" fill="#00b4d8" opacity="0.05105567666493722" rx="1"/><rect x="466.790565799711" y="910.36793741007" width="11.810469258532503" height="8.031291082043037" fill="#0077b6" opacity="0.5857400467120437" rx="1"/><rect x="446.9182232345274" y="914.3835829510915" width="11.810469258532503" height="8.031291082043037" fill="#00b4d8" opacity="0.29287002335602186" rx="1"/><rect x="468.2599332520189" y="933.424416024237" width="8.871734353916658" height="7.544305078113522" fill="#0077b6" opacity="0.4850921645958657" rx="1"/><rect x="448.3875906868353" y="937.1965685632937" width="8.871734353916658" height="7.544305078113522" fill="#00b4d8" opacity="0.24254608229793284" rx="1"/><rect x="469.5961820645957" y="956.480894638404" width="6.1992367287630294" height="7.468933055519344" fill="#0077b6" opacity="0.430788210460634" rx="1"/><rect x="449.7238394994121" y="960.2153611661637" width="6.1992367287630294" height="7.468933055519344" fill="#00b4d8" opacity="0.215394105230317" rx="1"/><rect x="523.8198507841176" y="667.9766336847042" width="62.372154293668494" height="301.56073956786673" fill="#000044" opacity="0.5842570938133302" rx="2"/><rect x="552.7515663321402" y="677.9766336847042" width="4.508723197623325" height="7.594718411004804" fill="#0077b6" opacity="0.21256182068320034" rx="1"/><rect x="537.1585277587232" y="681.7739928902066" width="4.508723197623325" height="7.594718411004804" fill="#00b4d8" opacity="0.10628091034160017" rx="1"/><rect x="549.9564687233702" y="753.3668185766709" width="10.098918415163393" height="6.651909505168886" fill="#0077b6" opacity="0.2620637346436418" rx="1"/><rect x="534.3634301499532" y="756.6927733292554" width="10.098918415163393" height="6.651909505168886" fill="#00b4d8" opacity="0.1310318673218209" rx="1"/><rect x="552.615543231643" y="828.7570034686375" width="4.780769398617737" height="7.339329305416748" fill="#0077b6" opacity="0.5672045645926158" rx="1"/><rect x="537.0225046582259" y="832.4266681213459" width="4.780769398617737" height="7.339329305416748" fill="#00b4d8" opacity="0.2836022822963079" rx="1"/><rect x="549.4535460197411" y="904.1471883606043" width="11.10476382242161" height="8.335329060986481" fill="#0077b6" opacity="0.46489687426129744" rx="1"/><rect x="533.860507446324" y="908.3148528910975" width="11.10476382242161" height="8.335329060986481" fill="#00b4d8" opacity="0.23244843713064872" rx="1"/><rect x="610.2239309479598" y="830.5299592741137" width="30.932413484186963" height="139.00741397845732" fill="#000044" opacity="0.5238950250725949" rx="2"/><rect x="623.0793851651031" y="840.5299592741137" width="5.221505049900502" height="7.82531657671214" fill="#0077b6" opacity="0.2848095166927226" rx="1"/><rect x="615.3462817940563" y="844.4426175624698" width="5.221505049900502" height="7.82531657671214" fill="#00b4d8" opacity="0.1424047583463613" rx="1"/><rect x="623.6541161994636" y="868.3314420698051" width="4.072042981179441" height="6.024955315521209" fill="#0077b6" opacity="0.4172322666079813" rx="1"/><rect x="615.9210128284168" y="871.3439197275658" width="4.072042981179441" height="6.024955315521209" fill="#00b4d8" opacity="0.20861613330399065" rx="1"/><rect x="621.9873468705484" y="896.1329248654966" width="7.405581639009896" height="7.2048073981899785" fill="#0077b6" opacity="0.12151882241515416" rx="1"/><rect x="614.2542434995016" y="899.7353285645917" width="7.405581639009896" height="7.2048073981899785" fill="#00b4d8" opacity="0.06075941120757708" rx="1"/><rect x="621.9357893035658" y="923.9344076611881" width="7.508696772975078" height="9.088260425973743" fill="#0077b6" opacity="0.5326187535032209" rx="1"/><rect x="614.202685932519" y="928.4785378741749" width="7.508696772975078" height="9.088260425973743" fill="#00b4d8" opacity="0.2663093767516104" rx="1"/><rect x="621.5239357935149" y="951.7358904568796" width="8.332403793077079" height="8.875499694346335" fill="#0077b6" opacity="0.5929035676161069" rx="1"/><rect x="613.790832422468" y="956.1736403040528" width="8.332403793077079" height="8.875499694346335" fill="#00b4d8" opacity="0.2964517838080534" rx="1"/><rect x="696.675923097125" y="629.9201808473841" width="50.00360575504685" height="339.61719240518687" fill="#03045e" opacity="0.6394903406127102" rx="2"/><rect x="716.8983828104067" y="639.9201808473841" width="9.55868632848344" height="8.823215706931244" fill="#0077b6" opacity="0.2604283249844863" rx="1"/><rect x="704.397481371645" y="644.3317887008498" width="9.55868632848344" height="8.823215706931244" fill="#00b4d8" opacity="0.13021416249224316" rx="1"/><rect x="718.4657152461709" y="682.3723298980325" width="6.424021456955005" height="9.181587974350338" fill="#0077b6" opacity="0.27035906253623754" rx="1"/><rect x="705.9648138074092" y="686.9631238852077" width="6.424021456955005" height="9.181587974350338" fill="#00b4d8" opacity="0.13517953126811877" rx="1"/><rect x="716.6295547312396" y="724.8244789486808" width="10.09634248681747" height="6.246499706117087" fill="#0077b6" opacity="0.387803000604688" rx="1"/><rect x="704.1286532924779" y="727.9477288017393" width="10.09634248681747" height="6.246499706117087" fill="#00b4d8" opacity="0.193901500302344" rx="1"/><rect x="717.3649918135377" y="767.2766279993292" width="8.625468322221533" height="6.959612632393747" fill="#0077b6" opacity="0.32934473520828056" rx="1"/><rect x="704.864090374776" y="770.7564343155261" width="8.625468322221533" height="6.959612632393747" fill="#00b4d8" opacity="0.16467236760414028" rx="1"/><rect x="717.0257007372828" y="809.7287770499776" width="9.304050474731262" height="9.619779337109016" fill="#0077b6" opacity="0.24994292826157596" rx="1"/><rect x="704.5247992985211" y="814.5386667185321" width="9.304050474731262" height="9.619779337109016" fill="#00b4d8" opacity="0.12497146413078798" rx="1"/><rect x="719.6216094570021" y="852.1809261006259" width="4.1122330352925305" height="8.300408495194374" fill="#0077b6" opacity="0.34030233832083234" rx="1"/><rect x="707.1207080182404" y="856.3311303482232" width="4.1122330352925305" height="8.300408495194374" fill="#00b4d8" opacity="0.17015116916041617" rx="1"/><rect x="719.5022994774835" y="894.6330751512743" width="4.35085299432996" height="6.200688233645793" fill="#0077b6" opacity="0.30112323788952156" rx="1"/><rect x="707.0013980387217" y="897.7334192680972" width="4.35085299432996" height="6.200688233645793" fill="#00b4d8" opacity="0.15056161894476078" rx="1"/><rect x="718.9454505918623" y="937.0852242019226" width="5.464550765572244" height="8.709395653267716" fill="#0077b6" opacity="0.4666804433722702" rx="1"/><rect x="706.4445491531005" y="941.4399220285565" width="5.464550765572244" height="8.709395653267716" fill="#00b4d8" opacity="0.2333402216861351" rx="1"/><rect x="775.2495190174313" y="655.2421684971177" width="76.30697894056956" height="314.2952047554532" fill="#03045e" opacity="0.6787579250239669" rx="2"/><rect x="809.2904673741755" y="665.2421684971177" width="8.225082227081312" height="9.782356196032454" fill="#0077b6" opacity="0.5619774942896276" rx="1"/><rect x="790.2137226390331" y="670.133346595134" width="8.225082227081312" height="9.782356196032454" fill="#00b4d8" opacity="0.2809887471448138" rx="1"/><rect x="810.0484797818112" y="704.5290690915494" width="6.709057411809698" height="9.639017078010136" fill="#0077b6" opacity="0.4976892361877694" rx="1"/><rect x="790.9717350466689" y="709.3485776305545" width="6.709057411809698" height="9.639017078010136" fill="#00b4d8" opacity="0.2488446180938847" rx="1"/><rect x="809.4228392030976" y="743.815969685981" width="7.960338569236998" height="7.598331977985411" fill="#0077b6" opacity="0.24044397618631924" rx="1"/><rect x="790.3460944679553" y="747.6151356749738" width="7.960338569236998" height="7.598331977985411" fill="#00b4d8" opacity="0.12022198809315962" rx="1"/><rect x="809.4158224875023" y="783.1028702804127" width="7.974372000427538" height="9.833960581532205" fill="#0077b6" opacity="0.46662786276234036" rx="1"/><rect x="790.3390777523599" y="788.0198505711788" width="7.974372000427538" height="9.833960581532205" fill="#00b4d8" opacity="0.23331393138117018" rx="1"/><rect x="810.0241429101145" y="822.3897708748443" width="6.7577311552031265" height="9.044181060754736" fill="#0077b6" opacity="0.4747212293964628" rx="1"/><rect x="790.9473981749721" y="826.9118614052217" width="6.7577311552031265" height="9.044181060754736" fill="#00b4d8" opacity="0.2373606146982314" rx="1"/><rect x="808.8696282618255" y="861.676671469276" width="9.066760451781274" height="8.885084305630318" fill="#0077b6" opacity="0.41019406842770845" rx="1"/><rect x="789.7928835266831" y="866.1192136220911" width="9.066760451781274" height="8.885084305630318" fill="#00b4d8" opacity="0.20509703421385422" rx="1"/><rect x="808.1192932639893" y="900.9635720637077" width="10.5674304474535" height="6.336355628524059" fill="#0077b6" opacity="0.495290361809379" rx="1"/><rect x="789.042548528847" y="904.1317498779697" width="10.5674304474535" height="6.336355628524059" fill="#00b4d8" opacity="0.2476451809046895" rx="1"/><rect x="807.7312353064956" y="940.2504726581393" width="11.343546362440929" height="6.715135323981553" fill="#0077b6" opacity="0.3027561811736683" rx="1"/><rect x="788.6544905713532" y="943.60804032013" width="11.343546362440929" height="6.715135323981553" fill="#00b4d8" opacity="0.15137809058683416" rx="1"/><rect x="856.9547656247307" y="736.2822692227276" width="76.64442026676713" height="233.25510402984338" fill="#000044" opacity="0.683143169894615" rx="2"/><rect x="892.6744644218784" y="746.2822692227276" width="5.205022672471829" height="8.631509116532166" fill="#0077b6" opacity="0.21748277200792981" rx="1"/><rect x="873.5133593551866" y="750.5980237809937" width="5.205022672471829" height="8.631509116532166" fill="#00b4d8" opacity="0.10874138600396491" rx="1"/><rect x="890.996485135659" y="775.439157226458" width="8.560981244910737" height="7.880583845516803" fill="#0077b6" opacity="0.37220339881540354" rx="1"/><rect x="871.8353800689672" y="779.3794491492164" width="8.560981244910737" height="7.880583845516803" fill="#00b4d8" opacity="0.18610169940770177" rx="1"/><rect x="891.6446298829404" y="804.5960452301885" width="7.264691750347776" height="8.711823871059302" fill="#0077b6" opacity="0.40354225968558866" rx="1"/><rect x="872.4835248162486" y="808.9519571657181" width="7.264691750347776" height="8.711823871059302" fill="#00b4d8" opacity="0.20177112984279433" rx="1"/><rect x="889.9225694489505" y="833.7529332339188" width="10.708812618327517" height="6.395357527862154" fill="#0077b6" opacity="0.19662582157101152" rx="1"/><rect x="870.7614643822587" y="836.9506119978499" width="10.708812618327517" height="6.395357527862154" fill="#00b4d8" opacity="0.09831291078550576" rx="1"/><rect x="889.8338956030651" y="862.9098212376492" width="10.886160310098473" height="6.289384711601162" fill="#0077b6" opacity="0.5080657044910047" rx="1"/><rect x="870.6727905363733" y="866.0545135934498" width="10.886160310098473" height="6.289384711601162" fill="#00b4d8" opacity="0.25403285224550237" rx="1"/><rect x="892.0064277987963" y="892.0667092413796" width="6.541095918636093" height="8.567354363987072" fill="#0077b6" opacity="0.27292570664382676" rx="1"/><rect x="872.8453227321045" y="896.3503864233732" width="6.541095918636093" height="8.567354363987072" fill="#00b4d8" opacity="0.13646285332191338" rx="1"/><rect x="890.0371292325775" y="921.2235972451101" width="10.479693051073628" height="6.883644248564645" fill="#0077b6" opacity="0.1732860972809806" rx="1"/><rect x="870.8760241658857" y="924.6654193693925" width="10.479693051073628" height="6.883644248564645" fill="#00b4d8" opacity="0.0866430486404903" rx="1"/><rect x="891.4068381369616" y="950.3804852488405" width="7.740275242305424" height="8.430505440204987" fill="#0077b6" opacity="0.15112482329158225" rx="1"/><rect x="872.2457330702698" y="954.595737968943" width="7.740275242305424" height="8.430505440204987" fill="#00b4d8" opacity="0.07556241164579112" rx="1"/><rect x="947.4055795996159" y="702.01439813292" width="33.816938438410155" height="267.52297511965105" fill="#03045e" opacity="0.45178892993177033" rx="2"/><rect x="958.596927916274" y="712.01439813292" width="11.434241805093885" height="8.689968943290872" fill="#0077b6" opacity="0.11614791260011213" rx="1"/><rect x="950.1426933066714" y="716.3593826045654" width="11.434241805093885" height="8.689968943290872" fill="#00b4d8" opacity="0.058073956300056066" rx="1"/><rect x="961.5749376531328" y="750.2319660071558" width="5.478222331376332" height="8.352921602864033" fill="#0077b6" opacity="0.2126267038315131" rx="1"/><rect x="953.1207030435302" y="754.4084268085878" width="5.478222331376332" height="8.352921602864033" fill="#00b4d8" opacity="0.10631335191575655" rx="1"/><rect x="961.094111612291" y="788.4495338813916" width="6.439874413059995" height="7.739582273582831" fill="#0077b6" opacity="0.18460259276549393" rx="1"/><rect x="952.6398770026884" y="792.319325018183" width="6.439874413059995" height="7.739582273582831" fill="#00b4d8" opacity="0.09230129638274696" rx="1"/><rect x="961.8970964480579" y="826.6671017556275" width="4.833904741526093" height="7.913550239501882" fill="#0077b6" opacity="0.4442000326104928" rx="1"/><rect x="953.4428618384553" y="830.6238768753784" width="4.833904741526093" height="7.913550239501882" fill="#00b4d8" opacity="0.2221000163052464" rx="1"/><rect x="958.5251440681504" y="864.8846696298634" width="11.577809501341033" height="8.616161236217284" fill="#0077b6" opacity="0.43010047949620067" rx="1"/><rect x="950.0709094585478" y="869.1927502479721" width="11.577809501341033" height="8.616161236217284" fill="#00b4d8" opacity="0.21505023974810034" rx="1"/><rect x="960.4359894507345" y="903.1022375040993" width="7.756118736173054" height="7.411645069115712" fill="#0077b6" opacity="0.1432496544772875" rx="1"/><rect x="951.9817548411319" y="906.8080600386572" width="7.756118736173054" height="7.411645069115712" fill="#00b4d8" opacity="0.07162482723864375" rx="1"/><rect x="961.0248009070974" y="941.3198053783351" width="6.578495823447242" height="8.28767975100495" fill="#0077b6" opacity="0.4098798731364961" rx="1"/><rect x="952.5705662974948" y="945.4636452538376" width="6.578495823447242" height="8.28767975100495" fill="#00b4d8" opacity="0.20493993656824805" rx="1"/><rect x="1028.587397888237" y="812.7912020806203" width="34.45051873206406" height="156.74617117195066" fill="#000044" opacity="0.5467671770944184" rx="2"/><rect x="1040.0792407817696" y="822.7912020806203" width="11.466832944999176" height="6.3292000043041075" fill="#0077b6" opacity="0.48480889433641194" rx="1"/><rect x="1031.4666110987534" y="825.9558020827724" width="11.466832944999176" height="6.3292000043041075" fill="#00b4d8" opacity="0.24240444716820597" rx="1"/><rect x="1039.9976736917458" y="845.1835122480419" width="11.629967125046525" height="7.799047295423003" fill="#0077b6" opacity="0.5407810611745298" rx="1"/><rect x="1031.3850440087297" y="849.0830358957534" width="11.629967125046525" height="7.799047295423003" fill="#00b4d8" opacity="0.2703905305872649" rx="1"/><rect x="1040.466437893593" y="867.5758224154633" width="10.69243872135236" height="7.854847186676889" fill="#0077b6" opacity="0.12649263432866256" rx="1"/><rect x="1031.8538082105767" y="871.5032460088017" width="10.69243872135236" height="7.854847186676889" fill="#00b4d8" opacity="0.06324631716433128" rx="1"/><rect x="1042.8431106081637" y="889.9681325828849" width="5.939093292210972" height="9.236511963241853" fill="#0077b6" opacity="0.17226743737055628" rx="1"/><rect x="1034.2304809251475" y="894.5863885645058" width="5.939093292210972" height="9.236511963241853" fill="#00b4d8" opacity="0.08613371868527814" rx="1"/><rect x="1042.3429193106651" y="912.3604427503064" width="6.939475887208124" height="9.16636328100375" fill="#0077b6" opacity="0.4388413829586565" rx="1"/><rect x="1033.730289627649" y="916.9436243908083" width="6.939475887208124" height="9.16636328100375" fill="#00b4d8" opacity="0.21942069147932824" rx="1"/><rect x="1042.1698777722895" y="934.752752917728" width="7.285558963959469" height="8.035799006474157" fill="#0077b6" opacity="0.4899672500300145" rx="1"/><rect x="1033.5572480892733" y="938.7706524209651" width="7.285558963959469" height="8.035799006474157" fill="#00b4d8" opacity="0.24498362501500726" rx="1"/><rect x="1041.02020817044" y="957.1450630851494" width="9.584898167658807" height="8.65758677727021" fill="#0077b6" opacity="0.24426942277799116" rx="1"/><rect x="1032.4075784874237" y="961.4738564737845" width="9.584898167658807" height="8.65758677727021" fill="#00b4d8" opacity="0.12213471138899558" rx="1"/><rect x="1090.7852220181785" y="641.3236114059863" width="86.91407786144737" height="328.2137618465847" fill="#000044" opacity="0.5485263130274896" rx="2"/><rect x="1128.9079761228754" y="651.3236114059863" width="10.66856965205366" height="6.389710848310429" fill="#0077b6" opacity="0.12763269039048644" rx="1"/><rect x="1107.1794566575136" y="654.5184668301415" width="10.66856965205366" height="6.389710848310429" fill="#00b4d8" opacity="0.06381634519524322" rx="1"/><rect x="1131.194260073729" y="706.0259050470837" width="6.096001750346273" height="9.551658632129351" fill="#0077b6" opacity="0.5136204647164839" rx="1"/><rect x="1109.4657406083672" y="710.8017343631484" width="6.096001750346273" height="9.551658632129351" fill="#00b4d8" opacity="0.25681023235824196" rx="1"/><rect x="1128.372898516423" y="760.7281986881812" width="11.738724864958488" height="9.155059275020626" fill="#0077b6" opacity="0.3276717169973235" rx="1"/><rect x="1106.6443790510612" y="765.3057283256916" width="11.738724864958488" height="9.155059275020626" fill="#00b4d8" opacity="0.16383585849866175" rx="1"/><rect x="1130.930722914478" y="815.4304923292786" width="6.623076068848157" height="7.492438326005926" fill="#0077b6" opacity="0.1461562544913395" rx="1"/><rect x="1109.2022034491163" y="819.1767114922816" width="6.623076068848157" height="7.492438326005926" fill="#00b4d8" opacity="0.07307812724566976" rx="1"/><rect x="1130.3436911494318" y="870.1327859703761" width="7.797139598940765" height="6.778047801176563" fill="#0077b6" opacity="0.15690013828149535" rx="1"/><rect x="1108.61517168407" y="873.5218098709644" width="7.797139598940765" height="6.778047801176563" fill="#00b4d8" opacity="0.07845006914074767" rx="1"/><rect x="1130.9055704929158" y="924.8350796114735" width="6.6733809119726955" height="8.126945704716944" fill="#0077b6" opacity="0.22996126877375908" rx="1"/><rect x="1109.177051027554" y="928.898552463832" width="6.6733809119726955" height="8.126945704716944" fill="#00b4d8" opacity="0.11498063438687954" rx="1"/><rect x="1187.705678819529" y="590.0797830405832" width="86.73726125078679" height="379.45759021198785" fill="#000044" opacity="0.6777708223037819" rx="2"/><rect x="1226.2400202827744" y="600.0797830405832" width="9.668578324296647" height="9.49937601841506" fill="#0077b6" opacity="0.32467241406549524" rx="1"/><rect x="1204.5557049700776" y="604.8294710497906" width="9.668578324296647" height="9.49937601841506" fill="#00b4d8" opacity="0.16233620703274762" rx="1"/><rect x="1225.9305167776959" y="647.5119818170816" width="10.287585334453635" height="9.668925569315657" fill="#0077b6" opacity="0.5149740930681522" rx="1"/><rect x="1204.246201464999" y="652.3464446017394" width="10.287585334453635" height="9.668925569315657" fill="#00b4d8" opacity="0.2574870465340761" rx="1"/><rect x="1227.7146605482249" y="694.9441805935801" width="6.719297793395654" height="6.539073455272958" fill="#0077b6" opacity="0.3035653077074246" rx="1"/><rect x="1206.030345235528" y="698.2137173212166" width="6.719297793395654" height="6.539073455272958" fill="#00b4d8" opacity="0.1517826538537123" rx="1"/><rect x="1228.8364976317362" y="742.3763793700787" width="4.475623626372689" height="6.093640507220672" fill="#0077b6" opacity="0.4902615441219559" rx="1"/><rect x="1207.1521823190394" y="745.423199623689" width="4.475623626372689" height="6.093640507220672" fill="#00b4d8" opacity="0.24513077206097794" rx="1"/><rect x="1228.7411441671181" y="789.808578146577" width="4.666330555609038" height="6.862494739904649" fill="#0077b6" opacity="0.3152024107554933" rx="1"/><rect x="1207.0568288544214" y="793.2398255165293" width="4.666330555609038" height="6.862494739904649" fill="#00b4d8" opacity="0.15760120537774666" rx="1"/><rect x="1228.1144858363007" y="837.2407769230756" width="5.919647217243828" height="9.737977829700796" fill="#0077b6" opacity="0.45377377233323035" rx="1"/><rect x="1206.430170523604" y="842.109765837926" width="5.919647217243828" height="9.737977829700796" fill="#00b4d8" opacity="0.22688688616661518" rx="1"/><rect x="1227.6578938081652" y="884.6729756995741" width="6.832831273514971" height="9.926130363700477" fill="#0077b6" opacity="0.26021785865542896" rx="1"/><rect x="1205.9735784954685" y="889.6360408814243" width="6.832831273514971" height="9.926130363700477" fill="#00b4d8" opacity="0.13010892932771448" rx="1"/><rect x="1228.0636546003436" y="932.1051744760725" width="6.021309689157947" height="8.368860593617162" fill="#0077b6" opacity="0.3506385271555368" rx="1"/><rect x="1206.3793392876469" y="936.2896047728811" width="6.021309689157947" height="8.368860593617162" fill="#00b4d8" opacity="0.1753192635777684" rx="1"/><rect x="1280.7941634288773" y="876.2810632764085" width="78.75382692291258" height="93.25630997616246" fill="#03045e" opacity="0.6859848093441652" rx="2"/><rect x="1318.1278546548078" y="886.2810632764085" width="4.086444471051554" height="7.852465589030754" fill="#0077b6" opacity="0.21106370799501048" rx="1"/><rect x="1298.4393979240797" y="890.2072960709239" width="4.086444471051554" height="7.852465589030754" fill="#00b4d8" opacity="0.10553185399750524" rx="1"/><rect x="1316.129602697455" y="899.6033932730031" width="8.082948385757149" height="6.23061903385227" fill="#0077b6" opacity="0.1793376055265166" rx="1"/><rect x="1296.441145966727" y="902.7187027899292" width="8.082948385757149" height="6.23061903385227" fill="#00b4d8" opacity="0.0896688027632583" rx="1"/><rect x="1314.834979496372" y="912.9257232695978" width="10.672194787923292" height="6.5427042833861675" fill="#0077b6" opacity="0.1726883665362113" rx="1"/><rect x="1295.1465227656438" y="916.1970754112909" width="10.672194787923292" height="6.5427042833861675" fill="#00b4d8" opacity="0.08634418326810565" rx="1"/><rect x="1315.9393489646848" y="926.2480532661924" width="8.463455851297699" height="9.547294775849975" fill="#0077b6" opacity="0.3214909605033442" rx="1"/><rect x="1296.2508922339566" y="931.0217006541174" width="8.463455851297699" height="9.547294775849975" fill="#00b4d8" opacity="0.1607454802516721" rx="1"/><rect x="1314.649785140893" y="939.5703832627871" width="11.04258349888087" height="9.70464445364304" fill="#0077b6" opacity="0.27285276254938284" rx="1"/><rect x="1294.961328410165" y="944.4227054896087" width="11.04258349888087" height="9.70464445364304" fill="#00b4d8" opacity="0.13642638127469142" rx="1"/><rect x="1318.1538027853394" y="952.8927132593817" width="4.034548209988174" height="6.143334054421478" fill="#0077b6" opacity="0.33143875767277525" rx="1"/><rect x="1298.4653460546112" y="955.9643802865925" width="4.034548209988174" height="6.143334054421478" fill="#00b4d8" opacity="0.16571937883638763" rx="1"/><rect x="1314.3533390744744" y="966.2150432559763" width="11.635475631718402" height="9.463633343452502" fill="#0077b6" opacity="0.33775443242344877" rx="1"/><rect x="1294.6648823437463" y="970.9468599277026" width="11.635475631718402" height="9.463633343452502" fill="#00b4d8" opacity="0.16887721621172438" rx="1"/><rect x="1351.0273117346692" y="659.4051525367902" width="72.6009171694985" height="310.1322207157808" fill="#000044" opacity="0.42151113225182313" rx="2"/><rect x="1384.6768672330888" y="669.4051525367902" width="5.30180617265911" height="6.566867267844935" fill="#0077b6" opacity="0.3449981683737129" rx="1"/><rect x="1366.5266379407142" y="672.6885861707126" width="5.30180617265911" height="6.566867267844935" fill="#00b4d8" opacity="0.17249908418685644" rx="1"/><rect x="1383.0821837345736" y="713.7097554961874" width="8.491173169689992" height="6.024253654299363" fill="#0077b6" opacity="0.22517434210171325" rx="1"/><rect x="1364.931954442199" y="716.7218823233371" width="8.491173169689992" height="6.024253654299363" fill="#00b4d8" opacity="0.11258717105085662" rx="1"/><rect x="1381.3781631892903" y="758.0143584555847" width="11.899214260256667" height="8.307927745931766" fill="#0077b6" opacity="0.4923428127058649" rx="1"/><rect x="1363.2279338969156" y="762.1683223285505" width="11.899214260256667" height="8.307927745931766" fill="#00b4d8" opacity="0.24617140635293244" rx="1"/><rect x="1381.8024814256878" y="802.3189614149819" width="11.05057778746136" height="8.699920027214084" fill="#0077b6" opacity="0.3122186595136809" rx="1"/><rect x="1363.6522521333131" y="806.668921428589" width="11.05057778746136" height="8.699920027214084" fill="#00b4d8" opacity="0.15610932975684044" rx="1"/><rect x="1381.928746079817" y="846.6235643743792" width="10.79804847920268" height="7.839514835234619" fill="#0077b6" opacity="0.484054957163533" rx="1"/><rect x="1363.7785167874424" y="850.5433217919965" width="10.79804847920268" height="7.839514835234619" fill="#00b4d8" opacity="0.2420274785817665" rx="1"/><rect x="1383.7307226995251" y="890.9281673337764" width="7.194095239786919" height="6.345611243589225" fill="#0077b6" opacity="0.5129252629151859" rx="1"/><rect x="1365.5804934071505" y="894.100972955571" width="7.194095239786919" height="6.345611243589225" fill="#00b4d8" opacity="0.25646263145759296" rx="1"/><rect x="1384.7435461343075" y="935.2327702931738" width="5.168448370222107" height="6.51208307326587" fill="#0077b6" opacity="0.204977815087181" rx="1"/><rect x="1366.5933168419328" y="938.4888118298067" width="5.168448370222107" height="6.51208307326587" fill="#00b4d8" opacity="0.1024889075435905" rx="1"/><rect x="1426.1043480403112" y="883.9892804119711" width="78.4487593566181" height="85.54809284059985" fill="#03045e" opacity="0.5034284891102995" rx="2"/><rect x="1462.882913149967" y="893.9892804119711" width="4.891629137306388" height="6.327206066885778" fill="#0077b6" opacity="0.12104933409044737" rx="1"/><rect x="1443.2707233108124" y="897.152883445414" width="4.891629137306388" height="6.327206066885778" fill="#00b4d8" opacity="0.06052466704522368" rx="1"/><rect x="1460.3855740795423" y="908.2472958854044" width="9.886307278155886" height="7.067949877369206" fill="#0077b6" opacity="0.23751735599653734" rx="1"/><rect x="1440.7733842403877" y="911.781270824089" width="9.886307278155886" height="7.067949877369206" fill="#00b4d8" opacity="0.11875867799826867" rx="1"/><rect x="1460.6690594894121" y="922.5053113588377" width="9.319336458416501" height="8.294604829115467" fill="#0077b6" opacity="0.23796087869861185" rx="1"/><rect x="1441.0568696502573" y="926.6526137733955" width="9.319336458416501" height="8.294604829115467" fill="#00b4d8" opacity="0.11898043934930592" rx="1"/><rect x="1461.4566847185815" y="936.763326832271" width="7.744086000077447" height="7.562446315205294" fill="#0077b6" opacity="0.18745755641429163" rx="1"/><rect x="1441.844494879427" y="940.5445499898736" width="7.744086000077447" height="7.562446315205294" fill="#00b4d8" opacity="0.09372877820714581" rx="1"/><rect x="1459.6603648106322" y="951.0213423057044" width="11.336725815976209" height="7.207575299126928" fill="#0077b6" opacity="0.48450553463411183" rx="1"/><rect x="1440.0481749714777" y="954.6251299552679" width="11.336725815976209" height="7.207575299126928" fill="#00b4d8" opacity="0.24225276731705592" rx="1"/><rect x="1461.4480133501072" y="965.2793577791376" width="7.761428737026041" height="8.64619710358004" fill="#0077b6" opacity="0.5339749620840827" rx="1"/><rect x="1441.8358235109527" y="969.6024563309277" width="7.761428737026041" height="8.64619710358004" fill="#00b4d8" opacity="0.26698748104204134" rx="1"/><rect x="1528.8227691798281" y="661.7362353163157" width="48.90840183918094" height="307.8011379362552" fill="#03045e" opacity="0.5988139749501864" rx="2"/><rect x="1548.0937365730733" y="671.7362353163157" width="10.366467052690329" height="8.506558434690014" fill="#0077b6" opacity="0.286809098624347" rx="1"/><rect x="1535.8666361132782" y="675.9895145336608" width="10.366467052690329" height="8.506558434690014" fill="#00b4d8" opacity="0.1434045493121735" rx="1"/><rect x="1551.2725117828156" y="710.2113775583476" width="4.008916633205701" height="9.27194497065431" fill="#0077b6" opacity="0.5436719943638127" rx="1"/><rect x="1539.0454113230205" y="714.8473500436747" width="4.008916633205701" height="9.27194497065431" fill="#00b4d8" opacity="0.2718359971819064" rx="1"/><rect x="1548.0026919040126" y="748.6865198003795" width="10.548556390811818" height="7.085676360196825" fill="#0077b6" opacity="0.39642018368384335" rx="1"/><rect x="1535.7755914442175" y="752.229357980478" width="10.548556390811818" height="7.085676360196825" fill="#00b4d8" opacity="0.19821009184192168" rx="1"/><rect x="1549.2703661455228" y="787.1616620424114" width="8.01320790779153" height="7.038277331981407" fill="#0077b6" opacity="0.27890929178775037" rx="1"/><rect x="1537.0432656857276" y="790.6808007084021" width="8.01320790779153" height="7.038277331981407" fill="#00b4d8" opacity="0.13945464589387518" rx="1"/><rect x="1549.6208085206608" y="825.6368042844433" width="7.312323157515452" height="9.771921655110065" fill="#0077b6" opacity="0.5625572685530775" rx="1"/><rect x="1537.3937080608657" y="830.5227651119983" width="7.312323157515452" height="9.771921655110065" fill="#00b4d8" opacity="0.28127863427653876" rx="1"/><rect x="1549.0772267647023" y="864.1119465264752" width="8.399486669432253" height="8.992139084029976" fill="#0077b6" opacity="0.28526389291166887" rx="1"/><rect x="1536.8501263049072" y="868.6080160684902" width="8.399486669432253" height="8.992139084029976" fill="#00b4d8" opacity="0.14263194645583444" rx="1"/><rect x="1549.0264533005472" y="902.5870887685071" width="8.501033597742449" height="6.356380014763302" fill="#0077b6" opacity="0.1884499446462025" rx="1"/><rect x="1536.7993528407521" y="905.7652787758888" width="8.501033597742449" height="6.356380014763302" fill="#00b4d8" opacity="0.09422497232310124" rx="1"/><rect x="1548.5579048647205" y="941.0622310105391" width="9.438130469396274" height="7.394894603964615" fill="#0077b6" opacity="0.3803117355285939" rx="1"/><rect x="1536.3308044049254" y="944.7596783125214" width="9.438130469396274" height="7.394894603964615" fill="#00b4d8" opacity="0.19015586776429694" rx="1"/><rect x="1607.8368680236847" y="670.5288560759577" width="41.407731327090346" height="299.0085171766133" fill="#000044" opacity="0.6913336088860719" rx="2"/><rect x="1625.0336859889774" y="680.5288560759577" width="7.014095396505225" height="8.335149808399182" fill="#0077b6" opacity="0.4728512084048361" rx="1"/><rect x="1614.6817531572046" y="684.6964309801573" width="7.014095396505225" height="8.335149808399182" fill="#00b4d8" opacity="0.23642560420241804" rx="1"/><rect x="1624.9780337449479" y="730.3636089387267" width="7.125399884564197" height="8.684593964061838" fill="#0077b6" opacity="0.32471912827452626" rx="1"/><rect x="1614.6261009131752" y="734.7059059207576" width="7.125399884564197" height="8.684593964061838" fill="#00b4d8" opacity="0.16235956413726313" rx="1"/><rect x="1625.749857849839" y="780.1983618014955" width="5.5817516747819615" height="7.427648894821212" fill="#0077b6" opacity="0.3212204492467503" rx="1"/><rect x="1615.3979250180662" y="783.9121862489061" width="5.5817516747819615" height="7.427648894821212" fill="#00b4d8" opacity="0.16061022462337515" rx="1"/><rect x="1626.0775407492265" y="830.0331146642643" width="4.926385876007002" height="6.792293928748065" fill="#0077b6" opacity="0.39626976426138305" rx="1"/><rect x="1615.7256079174538" y="833.4292616286383" width="4.926385876007002" height="6.792293928748065" fill="#00b4d8" opacity="0.19813488213069153" rx="1"/><rect x="1623.7131677800023" y="879.8678675270332" width="9.655131814455412" height="7.343470231942709" fill="#0077b6" opacity="0.14435016157672512" rx="1"/><rect x="1613.3612349482296" y="883.5396026430046" width="9.655131814455412" height="7.343470231942709" fill="#00b4d8" opacity="0.07217508078836256" rx="1"/><rect x="1623.4574778069311" y="929.7026203898022" width="10.166511760597702" height="9.76742906583646" fill="#0077b6" opacity="0.172534228109879" rx="1"/><rect x="1613.1055449751584" y="934.5863349227204" width="10.166511760597702" height="9.76742906583646" fill="#00b4d8" opacity="0.0862671140549395" rx="1"/><rect x="1686.603262343402" y="664.3135971306623" width="38.439826957983854" height="305.2237761219087" fill="#000044" opacity="0.6514105106823637" rx="2"/><rect x="1699.8499844605258" y="674.3135971306623" width="11.9463827237362" height="7.867313233638954" fill="#0077b6" opacity="0.3937804674249563" rx="1"/><rect x="1690.24002772103" y="678.2472537474817" width="11.9463827237362" height="7.867313233638954" fill="#00b4d8" opacity="0.19689023371247816" rx="1"/><rect x="1702.5438799324354" y="735.3583523550441" width="6.558591779917151" height="7.978514988436018" fill="#0077b6" opacity="0.4203609445645383" rx="1"/><rect x="1692.9339231929396" y="739.3476098492621" width="6.558591779917151" height="7.978514988436018" fill="#00b4d8" opacity="0.21018047228226916" rx="1"/><rect x="1701.6247001341176" y="796.4031075794258" width="8.396951376552915" height="9.550094997405562" fill="#0077b6" opacity="0.1650883065688164" rx="1"/><rect x="1692.0147433946217" y="801.1781550781285" width="8.396951376552915" height="9.550094997405562" fill="#00b4d8" opacity="0.0825441532844082" rx="1"/><rect x="1703.307152037398" y="857.4478628038075" width="5.032047569992032" height="7.422188151958908" fill="#0077b6" opacity="0.16411575224812044" rx="1"/><rect x="1693.6971952979022" y="861.158956879787" width="5.032047569992032" height="7.422188151958908" fill="#00b4d8" opacity="0.08205787612406022" rx="1"/><rect x="1703.5278387003916" y="918.4926180281893" width="4.590674244004925" height="7.555446114753244" fill="#0077b6" opacity="0.10123010110138686" rx="1"/><rect x="1693.9178819608958" y="922.270341085566" width="4.590674244004925" height="7.555446114753244" fill="#00b4d8" opacity="0.05061505055069343" rx="1"/><rect x="1770.6953121847876" y="706.7683745191359" width="86.69982374568932" height="262.76899873343507" fill="#03045e" opacity="0.41571172641490395" rx="2"/><rect x="1810.9007344719437" y="716.7683745191359" width="6.288979171376903" height="9.546049886277423" fill="#0077b6" opacity="0.4671697122899745" rx="1"/><rect x="1789.2257785355214" y="721.5413994622746" width="6.288979171376903" height="9.546049886277423" fill="#00b4d8" opacity="0.23358485614498725" rx="1"/><rect x="1811.8342039148117" y="760.5632076413751" width="4.422040285640871" height="6.660906534795861" fill="#0077b6" opacity="0.5957124334750028" rx="1"/><rect x="1790.1592479783894" y="763.8936609087731" width="4.422040285640871" height="6.660906534795861" fill="#00b4d8" opacity="0.2978562167375014" rx="1"/><rect x="1809.010154648099" y="804.3580407636143" width="10.070138819066374" height="8.906307950361239" fill="#0077b6" opacity="0.49779553827778333" rx="1"/><rect x="1787.3351987116766" y="808.8111947387949" width="10.070138819066374" height="8.906307950361239" fill="#00b4d8" opacity="0.24889776913889167" rx="1"/><rect x="1810.3322213391796" y="848.1528738858535" width="7.4260054369051955" height="9.69704182345817" fill="#0077b6" opacity="0.4277751319873555" rx="1"/><rect x="1788.6572654027573" y="853.0013947975826" width="7.4260054369051955" height="9.69704182345817" fill="#00b4d8" opacity="0.21388756599367775" rx="1"/><rect x="1810.3235434989447" y="891.9477070080926" width="7.443361117374934" height="8.38624645732023" fill="#0077b6" opacity="0.4700703701167531" rx="1"/><rect x="1788.6485875625224" y="896.1408302367528" width="7.443361117374934" height="8.38624645732023" fill="#00b4d8" opacity="0.23503518505837656" rx="1"/><rect x="1809.475101368025" y="935.7425401303318" width="9.140245379214232" height="6.458273477959045" fill="#0077b6" opacity="0.5734771210871351" rx="1"/><rect x="1787.8001454316027" y="938.9716768693113" width="9.140245379214232" height="6.458273477959045" fill="#00b4d8" opacity="0.28673856054356756" rx="1"/><rect x="1862.709106643323" y="805.5816261809277" width="84.69566191423118" height="163.9557470716433" fill="#03045e" opacity="0.6737376234433003" rx="2"/><rect x="1901.195896587785" y="815.5816261809277" width="7.722082025306785" height="7.721820299914531" fill="#0077b6" opacity="0.34271920887816676" rx="1"/><rect x="1880.0219811092272" y="819.442536330885" width="7.722082025306785" height="7.721820299914531" fill="#00b4d8" opacity="0.17135960443908338" rx="1"/><rect x="1900.6442958510906" y="848.3727755952564" width="8.82528349869542" height="7.403864885075918" fill="#0077b6" opacity="0.35791291619136767" rx="1"/><rect x="1879.4703803725329" y="852.0747080377944" width="8.82528349869542" height="7.403864885075918" fill="#00b4d8" opacity="0.17895645809568383" rx="1"/><rect x="1899.3396801110541" y="881.163925009585" width="11.434514978768888" height="6.646479175576586" fill="#0077b6" opacity="0.38287709464386044" rx="1"/><rect x="1878.1657646324963" y="884.4871645973733" width="11.434514978768888" height="6.646479175576586" fill="#00b4d8" opacity="0.19143854732193022" rx="1"/><rect x="1902.7623429427624" y="913.9550744239137" width="4.589189315351934" height="7.4772965948743035" fill="#0077b6" opacity="0.36758615643893977" rx="1"/><rect x="1881.5884274642046" y="917.6937227213509" width="4.589189315351934" height="7.4772965948743035" fill="#00b4d8" opacity="0.18379307821946989" rx="1"/><rect x="1900.857532606832" y="946.7462238382424" width="8.398809987213186" height="9.904966337584185" fill="#0077b6" opacity="0.4865368199503368" rx="1"/><rect x="1879.6836171282741" y="951.6987070070345" width="8.398809987213186" height="9.904966337584185" fill="#00b4d8" opacity="0.2432684099751684" rx="1"/><rect x="0" y="1000" width="1920" height="80" fill="#000038" opacity="0.8"/><line x1="0" y1="1040" x2="1920" y2="1040" stroke="#0077b6" stroke-opacity="0.15" stroke-width="2" stroke-dasharray="30,20"/><rect x="0" y="930" width="1920" height="150" fill="url(#glow7)"/><rect x="0" y="980" width="1920" height="100" fill="#0077b6" opacity="0.04"/><rect x="1328.0646035187096" y="1053.1976058644236" width="65.22233147761372" height="2" fill="#00b4d8" opacity="0.05107145504818099" rx="1"/><rect x="915.0091063126478" y="1052.6132237102402" width="36.02284359187419" height="2" fill="#00b4d8" opacity="0.03107427299280518" rx="1"/><rect x="1080.6773769391416" y="1028.1390276104535" width="96.67124247566592" height="2" fill="#00b4d8" opacity="0.05814970327498152" rx="1"/><rect x="619.8316031647454" y="1000.2890314488413" width="64.00259886030167" height="2" fill="#00b4d8" opacity="0.0445625885633199" rx="1"/><rect x="921.3686028778013" y="1017.8850380559185" width="82.33018118942394" height="2" fill="#00b4d8" opacity="0.026840893385661972" rx="1"/><rect x="1081.5359694793672" y="1032.8042412765335" width="28.559523641262093" height="2" fill="#00b4d8" opacity="0.041918141884244545" rx="1"/><rect x="260.2789968858191" y="1044.3768331698088" width="37.685808035937555" height="2" fill="#00b4d8" opacity="0.04418546167765405" rx="1"/><rect x="498.534676846707" y="1005.9225974199181" width="61.94421671376196" height="2" fill="#00b4d8" opacity="0.04863018035623948" rx="1"/><rect x="719.4425392335845" y="1053.0182748225095" width="46.85762092630789" height="2" fill="#00b4d8" opacity="0.04775657406723047" rx="1"/><rect x="1025.2441068890607" y="1032.599273233814" width="71.32332419774572" height="2" fill="#00b4d8" opacity="0.027312354195702902" rx="1"/><rect x="1536.7765826584716" y="1034.5890815450318" width="51.26816082076826" height="2" fill="#00b4d8" opacity="0.05829742964317497" rx="1"/><rect x="507.87834730648393" y="1055.3117230663336" width="75.03912557732293" height="2" fill="#00b4d8" opacity="0.05570428829540133" rx="1"/><rect x="1916.9989152245687" y="1023.1515235088652" width="96.19794527445872" height="2" fill="#00b4d8" opacity="0.02411488808787309" rx="1"/><rect x="1422.9896386300654" y="1002.7804385644338" width="99.48548991221132" height="2" fill="#00b4d8" opacity="0.028425307145441257" rx="1"/><rect x="1555.1804976806" y="1031.4142576864488" width="47.80526013295288" height="2" fill="#00b4d8" opacity="0.02679292541155427" rx="1"/><rect x="251.35067587982647" y="1035.4081576306858" width="105.41447571139187" height="2" fill="#00b4d8" opacity="0.03245381444051252" rx="1"/><rect x="1540.7211268555188" y="1013.6682422537516" width="88.48095293819927" height="2" fill="#00b4d8" opacity="0.04931150818926085" rx="1"/><rect x="793.2100387274311" y="1018.1560169388904" width="102.40437376834554" height="2" fill="#00b4d8" opacity="0.05552744036436254" rx="1"/><rect x="667.1901312533743" y="1034.8418841312737" width="85.64267779831837" height="2" fill="#00b4d8" opacity="0.022270346256501587" rx="1"/><rect x="1757.7655858913822" y="1014.7282401925717" width="53.43757836461011" height="2" fill="#00b4d8" opacity="0.04304390469171197" rx="1"/><rect x="1455.2220742812433" y="1009.5262921530582" width="46.29090592411601" height="2" fill="#00b4d8" opacity="0.027432986955957715" rx="1"/><rect x="612.7174366947072" y="1031.3284013353586" width="88.71553898526251" height="2" fill="#00b4d8" opacity="0.04101307660830512" rx="1"/><rect x="415.720438606972" y="1026.738463208717" width="94.68277115251001" height="2" fill="#00b4d8" opacity="0.05231956530183543" rx="1"/><rect x="387.1831642992755" y="1042.8093378298938" width="53.49986212176733" height="2" fill="#00b4d8" opacity="0.04112265629254344" rx="1"/><rect x="230.09575059406825" y="1030.9935884063582" width="75.92787101770003" height="2" fill="#00b4d8" opacity="0.058645371980649744" rx="1"/><rect x="1124.630733394211" y="1053.5501656852546" width="113.42659974783348" height="2" fill="#00b4d8" opacity="0.04417872260887612" rx="1"/><rect x="1468.5597663066721" y="1055.2504338359577" width="30.393865245951773" height="2" fill="#00b4d8" opacity="0.020828038305236968" rx="1"/><rect x="1262.1124710100964" y="1008.5997898384462" width="49.18525122319936" height="2" fill="#00b4d8" opacity="0.05921881260332158" rx="1"/><rect x="1853.6718405628744" y="1008.8695564327924" width="111.43401158308471" height="2" fill="#00b4d8" opacity="0.0581377429697052" rx="1"/><rect x="173.8470755922252" y="1031.3329166665983" width="63.508165875335266" height="2" fill="#00b4d8" opacity="0.0500645807362312" rx="1"/><text x="1900" y="1060" font-family="Arial, sans-serif" font-size="11" fill="#fff" opacity="0.08" text-anchor="end" letter-spacing="2">GTA 6 REWARDS · WALLPAPER 008</text>
</svg>