<?xml version="1.0" encoding="UTF-8"?>
<svg xmlns="http://www.w3.org/2000/svg" width="1920" height="1080" viewBox="0 0 1920 1080">
<defs>
    <linearGradient id="bg85" x1="0%" y1="0%" x2="0%" y2="100%">
      <stop offset="0%" stop-color="#10002b"/>
      <stop offset="50%" stop-color="#000000"/>
      <stop offset="100%" stop-color="#10002b"/>
    </linearGradient>
    <linearGradient id="sun85" x1="0%" y1="0%" x2="100%" y2="100%">
      <stop offset="0%" stop-color="#7b2cbf"/>
      <stop offset="100%" stop-color="#c77dff"/>
    </linearGradient>
    <radialGradient id="glow85" cx="50%" cy="70%" r="50%">
      <stop offset="0%" stop-color="#7b2cbf" stop-opacity="0.3"/>
      <stop offset="100%" stop-color="#10002b" stop-opacity="0"/>
    </radialGradient>
  </defs><rect width="1920" height="1080" fill="url(#bg85)"/><circle cx="768.6412781636793" cy="486.8711666871959" r="662.3682672070265" fill="#7b2cbf" opacity="0.11441372366724856"/><circle cx="968.6412781636793" cy="386.8711666871959" r="476.8758915078072" fill="#c77dff" opacity="0.07968302777728137"/><circle cx="1055.5604088948016" cy="390.4804226105289" r="63.01021542470209" fill="url(#sun85)" opacity="0.8705464449409737"/><circle cx="1055.5604088948016" cy="390.4804226105289" r="58.01021542470209" fill="#10002b" opacity="0.3"/><pattern id="scan85" width="1920" height="4" patternUnits="userSpaceOnUse">
      <line x1="0" y1="0" x2="1920" y2="0" stroke="#000" stroke-opacity="0.05" stroke-width="1"/>
    </pattern>
    <rect width="1920" height="1080" fill="url(#scan85)"/><circle cx="737.9268798460082" cy="190.82501448663533" r="1.9302880891902112" fill="#fff" opacity="0.30309862790235753"/><circle cx="1665.1307960751305" cy="329.0631239919605" r="1.6994133058934038" fill="#fff" opacity="0.589727871350415"/><circle cx="1312.4985089973775" cy="169.05595191033927" r="1.2952322278393507" fill="#fff" opacity="0.2845797307986253"/><circle cx="26.900478607718945" cy="428.4665104142545" r="1.5271785693539257" fill="#fff" opacity="0.23883925016011096"/><circle cx="601.2675566881121" cy="169.0758068619938" r="1.7938488296451627" fill="#fff" opacity="0.7412804295172171"/><circle cx="1689.6947375893812" cy="283.82296019322774" r="1.996137531706164" fill="#fff" opacity="0.526083131862358"/><circle cx="1486.1105300965976" cy="308.4572914774663" r="1.3590433556491144" fill="#fff" opacity="0.7989874992051598"/><circle cx="1194.3048743704112" cy="51.57434097015633" r="0.9259243792448948" fill="#fff" opacity="0.2859799104011571"/><circle cx="270.02958259313124" cy="40.502360789222266" r="0.603971782281057" fill="#fff" opacity="0.4666161681680512"/><circle cx="1537.6906513277652" cy="177.34969368980958" r="1.1190667918694825" fill="#fff" opacity="0.4741616264158305"/><circle cx="325.8561985953376" cy="421.62014119085393" r="1.3285418956839812" fill="#fff" opacity="0.29184672797374583"/><circle cx="1295.0158049201166" cy="320.6331987829491" r="1.8531839474693834" fill="#fff" opacity="0.5247918070584516"/><circle cx="429.5331239210286" cy="49.818268720483935" r="1.199867746839269" fill="#fff" opacity="0.502150607272552"/><circle cx="1270.9427402892481" cy="97.18914214549334" r="0.8973794838873157" fill="#fff" opacity="0.43619195163161306"/><circle cx="480.74443470704006" cy="218.45067313929337" r="0.7477642074804204" fill="#fff" opacity="0.4803469670657876"/><circle cx="947.6056858123293" cy="24.881674038451557" r="1.0503082404728765" fill="#fff" opacity="0.31958009417159017"/><circle cx="273.75484815653294" cy="394.08063656698926" r="1.4363692629701386" fill="#fff" opacity="0.7716113431778762"/><circle cx="203.78407989716717" cy="397.03665453126575" r="1.5305574821612233" fill="#fff" opacity="0.6671184970222224"/><circle cx="1511.4660969915487" cy="129.95159339577697" r="1.7826178348117083" fill="#fff" opacity="0.3401351708313765"/><circle cx="1681.7204769891036" cy="372.021178160799" r="1.8609583526526015" fill="#fff" opacity="0.4884557656218428"/><circle cx="113.83244546918023" cy="430.4266950149151" r="1.4678353514680256" fill="#fff" opacity="0.5685909842999166"/><circle cx="1440.514574088276" cy="385.9658703808593" r="1.5161195159927288" fill="#fff" opacity="0.45510365810596937"/><circle cx="1193.8778707184545" cy="402.8667601055621" r="1.2300558497035075" fill="#fff" opacity="0.21005591452355868"/><circle cx="1560.2756527718798" cy="124.06216104609476" r="1.3057829240117647" fill="#fff" opacity="0.33540642334507"/><circle cx="1620.6965964335707" cy="94.82066967683394" r="0.7007815363353076" fill="#fff" opacity="0.3945556451553841"/><circle cx="1441.2930597740442" cy="317.82335333102924" r="0.6480047747371729" fill="#fff" opacity="0.5893095302836293"/><circle cx="491.3252101492428" cy="322.1820376967504" r="1.8930204786344014" fill="#fff" opacity="0.320261457543881"/><circle cx="368.2027401887352" cy="73.66806362421906" r="1.0659776608380436" fill="#fff" opacity="0.6788868199751914"/><circle cx="837.127514825465" cy="285.2710903392339" r="0.9427435665723737" fill="#fff" opacity="0.24518955085547398"/><circle cx="1631.5434783025514" cy="418.9572326808603" r="1.0643543722257842" fill="#fff" opacity="0.6692115163591716"/><circle cx="262.67294576919477" cy="96.16253636781185" r="0.5017962219430591" fill="#fff" opacity="0.7970325144466555"/><circle cx="726.5344040297285" cy="66.24802501179465" r="1.5607714100183854" fill="#fff" opacity="0.5287131809929184"/><circle cx="1405.6899783307895" cy="15.129757810181417" r="1.7277486728801739" fill="#fff" opacity="0.7824910050217275"/><circle cx="1482.5998251611832" cy="287.11533632108836" r="0.583033145890346" fill="#fff" opacity="0.28970640592503044"/><circle cx="862.1482521812777" cy="101.02579142270278" r="1.336416658092387" fill="#fff" opacity="0.3285160259177247"/><circle cx="247.2202309051576" cy="163.33795636970035" r="1.795555793050573" fill="#fff" opacity="0.6264033517861747"/><circle cx="655.0257733499226" cy="116.32336214285422" r="1.265463806168517" fill="#fff" opacity="0.4046906397223218"/><circle cx="680.2179382835092" cy="363.7873199833062" r="0.7169125170253479" fill="#fff" opacity="0.5539142876290517"/><circle cx="1382.3728876054224" cy="352.4854288586614" r="1.5550529927841976" fill="#fff" opacity="0.5435291190965867"/><circle cx="133.3594219697079" cy="313.09826932314274" r="1.4867798964229366" fill="#fff" opacity="0.5584387448053897"/><circle cx="426.80085102720204" cy="196.92725960279984" r="1.1964134290340387" fill="#fff" opacity="0.5574140254308968"/><circle cx="268.45711252383353" cy="73.49894595367344" r="0.9695885050971035" fill="#fff" opacity="0.5289095121270301"/><circle cx="848.4103070684733" cy="357.6456576598914" r="0.6055301865808503" fill="#fff" opacity="0.26866465221826563"/><circle cx="1742.3289379063829" cy="244.64533663649235" r="0.82679928090116" fill="#fff" opacity="0.43410738544401417"/><circle cx="513.3189588490219" cy="233.85137637188924" r="1.6506993816352216" fill="#fff" opacity="0.2967837101539559"/><circle cx="1874.3664376331415" cy="209.78586246114827" r="1.8110905735080807" fill="#fff" opacity="0.7822957807179298"/><circle cx="828.5209131679779" cy="393.45040321197604" r="1.4012267491550245" fill="#fff" opacity="0.5173718454589535"/><circle cx="1176.6198266801937" cy="385.14107541766504" r="0.6493607766808385" fill="#fff" opacity="0.5563988484340717"/><circle cx="1391.2321135660707" cy="82.54687002360515" r="1.0620286053889498" fill="#fff" opacity="0.2721905380655524"/><circle cx="1657.2537333651571" cy="331.9470612769823" r="1.8996641353936083" fill="#fff" opacity="0.6907946992411266"/><circle cx="1538.8985282785488" cy="207.37420485154126" r="1.782399628377147" fill="#fff" opacity="0.6212947062731942"/><circle cx="1852.6549498580057" cy="183.60576577289163" r="0.9979081825581165" fill="#fff" opacity="0.7164897593940818"/><circle cx="1296.0789252855068" cy="107.18180842585437" r="1.850969908258638" fill="#fff" opacity="0.6270825443852419"/><circle cx="621.4445294396589" cy="358.01975048101036" r="0.5262996848966692" fill="#fff" opacity="0.4475233275088303"/><circle cx="1370.8262451204532" cy="38.55267009664156" r="1.3931972274773747" fill="#fff" opacity="0.2233277373070195"/><circle cx="1346.6498948788853" cy="348.6918180726217" r="0.6501938704518122" fill="#fff" opacity="0.29648196219850376"/><circle cx="1702.108716168932" cy="375.06146724314" r="1.5731684107038117" fill="#fff" opacity="0.47370753248075664"/><circle cx="66.84304343230163" cy="214.95236672622903" r="1.6707770809696003" fill="#fff" opacity="0.6330855878612691"/><circle cx="87.83181088227587" cy="387.60575134763627" r="1.5073744546406378" fill="#fff" opacity="0.6145947708316601"/><circle cx="1785.6828134939267" cy="342.4304514095258" r="1.430230113661436" fill="#fff" opacity="0.7141052278024389"/><circle cx="776.4420400877582" cy="120.78714803065806" r="0.8820009194039742" fill="#fff" opacity="0.7981871548570196"/><circle cx="599.7357730473708" cy="34.8719127520155" r="0.534401536461525" fill="#fff" opacity="0.7373420636489387"/><circle cx="1461.016817433065" cy="260.27718647296473" r="1.9614794150603654" fill="#fff" opacity="0.7180035882438542"/><circle cx="260.4344483326269" cy="43.07874834422925" r="1.2381673135650733" fill="#fff" opacity="0.29856999849401644"/><circle cx="1108.2669239836434" cy="69.00477559981047" r="1.2619198515922576" fill="#fff" opacity="0.22775161443924338"/><circle cx="357.64963799101525" cy="188.43154909378651" r="0.8048333406459618" fill="#fff" opacity="0.7702597945393668"/><circle cx="1483.53652541608" cy="240.9106132800017" r="0.5071931062282978" fill="#fff" opacity="0.5555084846810224"/><circle cx="199.96948291546886" cy="368.099186256551" r="1.8499891714542147" fill="#fff" opacity="0.7017524654748273"/><circle cx="1855.5520512013586" cy="122.74640696745979" r="1.3970215989735493" fill="#fff" opacity="0.20897751716174595"/><circle cx="1420.8059320181621" cy="309.6815083338138" r="1.9522402237523906" fill="#fff" opacity="0.6540101726199524"/><circle cx="1051.0410862628" cy="302.50351749325716" r="0.5979595988984125" fill="#fff" opacity="0.38770046778668193"/><circle cx="1844.476396572887" cy="184.04574176111393" r="1.2766078069751634" fill="#fff" opacity="0.681308763074062"/><circle cx="1808.7179508546176" cy="325.8138975998885" r="1.0720243120035213" fill="#fff" opacity="0.705609388720619"/><rect x="27.117164383436823" y="550.025858450687" width="41.55749686797091" height="362.9243171454697" fill="#000011" opacity="0.4713361364489739" rx="2"/><rect x="44.480496292347205" y="560.025858450687" width="6.830833050150153" height="6.307788252902168" fill="#c77dff" opacity="0.2743732422297758" rx="1"/><rect x="34.09112207535448" y="563.1797525771381" width="6.830833050150153" height="6.307788252902168" fill="#7b2cbf" opacity="0.1371866211148879" rx="1"/><rect x="44.147171059890454" y="632.610721879781" width="7.497483515063646" height="8.002350971568923" fill="#c77dff" opacity="0.3780765440031133" rx="1"/><rect x="33.757796842897726" y="636.6118973655654" width="7.497483515063646" height="8.002350971568923" fill="#7b2cbf" opacity="0.18903827200155665" rx="1"/><rect x="43.48432239156317" y="705.1955853088748" width="8.82318085171822" height="7.38738712886986" fill="#c77dff" opacity="0.21226489874819873" rx="1"/><rect x="33.09494817457044" y="708.8892788733098" width="8.82318085171822" height="7.38738712886986" fill="#7b2cbf" opacity="0.10613244937409937" rx="1"/><rect x="42.093089322348376" y="777.7804487379688" width="11.605646990147804" height="9.291969056076363" fill="#c77dff" opacity="0.16724242145829893" rx="1"/><rect x="31.70371510535565" y="782.4264332660069" width="11.605646990147804" height="9.291969056076363" fill="#7b2cbf" opacity="0.08362121072914946" rx="1"/><rect x="43.874007287638726" y="850.3653121670627" width="8.043811059567101" height="7.92462394431341" fill="#c77dff" opacity="0.33439029167275647" rx="1"/><rect x="33.484633070646" y="854.3276241392194" width="8.043811059567101" height="7.92462394431341" fill="#7b2cbf" opacity="0.16719514583637823" rx="1"/><rect x="90.57697431007288" y="786.8017994884406" width="62.50864854373705" height="126.14837610771609" fill="#000011" opacity="0.4898735508531969" rx="2"/><rect x="118.31905259497866" y="796.8017994884406" width="7.024491973925496" height="7.508700135515235" fill="#c77dff" opacity="0.20828298332828166" rx="1"/><rect x="102.69189045904439" y="800.5561495561982" width="7.024491973925496" height="7.508700135515235" fill="#7b2cbf" opacity="0.10414149166414083" rx="1"/><rect x="119.5507320757883" y="814.8229960752572" width="4.561133012306209" height="8.86059327490176" fill="#c77dff" opacity="0.4421262489497024" rx="1"/><rect x="103.92356993985403" y="819.253292712708" width="4.561133012306209" height="8.86059327490176" fill="#7b2cbf" opacity="0.2210631244748512" rx="1"/><rect x="118.52842454457345" y="832.8441926620737" width="6.605748074735922" height="7.993864040354701" fill="#c77dff" opacity="0.420861064321562" rx="1"/><rect x="102.90126240863918" y="836.8411246822511" width="6.605748074735922" height="7.993864040354701" fill="#7b2cbf" opacity="0.210430532160781" rx="1"/><rect x="118.38230892205624" y="850.8653892488903" width="6.89797931977035" height="7.95795016688247" fill="#c77dff" opacity="0.5105863774685623" rx="1"/><rect x="102.75514678612197" y="854.8443643323316" width="6.89797931977035" height="7.95795016688247" fill="#7b2cbf" opacity="0.25529318873428114" rx="1"/><rect x="117.00622212603326" y="868.8865858357069" width="9.650152911816294" height="6.304554868560413" fill="#c77dff" opacity="0.5665380448490702" rx="1"/><rect x="101.379059990099" y="872.0388632699871" width="9.650152911816294" height="6.304554868560413" fill="#7b2cbf" opacity="0.2832690224245351" rx="1"/><rect x="119.6714510746509" y="886.9077824225235" width="4.319695014581013" height="6.0778654571803905" fill="#c77dff" opacity="0.23257999011142647" rx="1"/><rect x="104.04428893871663" y="889.9467151511137" width="4.319695014581013" height="6.0778654571803905" fill="#7b2cbf" opacity="0.11628999505571323" rx="1"/><rect x="118.30521634992293" y="904.9289790093401" width="7.052164464036972" height="8.99673550366348" fill="#c77dff" opacity="0.24877834977786484" rx="1"/><rect x="102.67805421398866" y="909.4273467611719" width="7.052164464036972" height="8.99673550366348" fill="#7b2cbf" opacity="0.12438917488893242" rx="1"/><rect x="196.66815142852826" y="585.5745108182483" width="51.72358512452887" height="327.37566477790836" fill="#000011" opacity="0.49079662288790493" rx="2"/><rect x="217.0882468171708" y="595.5745108182483" width="10.8833943472438" height="8.576651409868303" fill="#c77dff" opacity="0.43085827723398296" rx="1"/><rect x="204.1573505360386" y="599.8628365231824" width="10.8833943472438" height="8.576651409868303" fill="#7b2cbf" opacity="0.21542913861699148" rx="1"/><rect x="217.20640531597726" y="642.342462929378" width="10.647077349630901" height="7.75257681630379" fill="#c77dff" opacity="0.26549593668093346" rx="1"/><rect x="204.27550903484504" y="646.21875133753" width="10.647077349630901" height="7.75257681630379" fill="#7b2cbf" opacity="0.13274796834046673" rx="1"/><rect x="220.1167706541608" y="689.1104150405079" width="4.826346673263783" height="8.646013157126962" fill="#c77dff" opacity="0.24248457088658693" rx="1"/><rect x="207.18587437302858" y="693.4334216190714" width="4.826346673263783" height="8.646013157126962" fill="#7b2cbf" opacity="0.12124228544329346" rx="1"/><rect x="219.50242990072326" y="735.8783671516376" width="6.055028180138914" height="7.168435446258735" fill="#c77dff" opacity="0.5654588095064877" rx="1"/><rect x="206.57153361959104" y="739.4625848747669" width="6.055028180138914" height="7.168435446258735" fill="#7b2cbf" opacity="0.2827294047532439" rx="1"/><rect x="219.14681185218114" y="782.6463192627674" width="6.766264277223094" height="7.509350622424239" fill="#c77dff" opacity="0.44508697556915855" rx="1"/><rect x="206.21591557104892" y="786.4009945739796" width="6.766264277223094" height="7.509350622424239" fill="#7b2cbf" opacity="0.22254348778457927" rx="1"/><rect x="219.1726994523334" y="829.4142713738971" width="6.7144890769185706" height="6.329448081629688" fill="#c77dff" opacity="0.35953292200796605" rx="1"/><rect x="206.24180317120118" y="832.5789954147119" width="6.7144890769185706" height="6.329448081629688" fill="#7b2cbf" opacity="0.17976646100398302" rx="1"/><rect x="217.94224088885326" y="876.182223485027" width="9.175406203878905" height="8.263970413772382" fill="#c77dff" opacity="0.5780288131390765" rx="1"/><rect x="205.01134460772104" y="880.3142086919131" width="9.175406203878905" height="8.263970413772382" fill="#7b2cbf" opacity="0.28901440656953825" rx="1"/><rect x="275.730948089898" y="658.6397410623356" width="75.7933043562326" height="254.31043453382105" fill="#000011" opacity="0.6140559295690748" rx="2"/><rect x="309.8153311173129" y="668.6397410623356" width="7.624538301402828" height="8.896167456846722" fill="#c77dff" opacity="0.5990467431487159" rx="1"/><rect x="290.8670050282547" y="673.087824790759" width="7.624538301402828" height="8.896167456846722" fill="#7b2cbf" opacity="0.29952337157435793" rx="1"/><rect x="311.17203294151153" y="704.9698031385957" width="4.911134653005547" height="8.395026303454076" fill="#c77dff" opacity="0.3517108993492347" rx="1"/><rect x="292.22370685245335" y="709.1673162903228" width="4.911134653005547" height="8.395026303454076" fill="#7b2cbf" opacity="0.17585544967461736" rx="1"/><rect x="308.993267031258" y="741.2998652148559" width="9.268666473512692" height="7.903018082003812" fill="#c77dff" opacity="0.10467643677365884" rx="1"/><rect x="290.0449409421998" y="745.2513742558579" width="9.268666473512692" height="7.903018082003812" fill="#7b2cbf" opacity="0.05233821838682942" rx="1"/><rect x="311.0223200548154" y="777.629927291116" width="5.210560426397845" height="9.510543024053458" fill="#c77dff" opacity="0.3676668434328555" rx="1"/><rect x="292.0739939657572" y="782.3851988031428" width="5.210560426397845" height="9.510543024053458" fill="#7b2cbf" opacity="0.18383342171642775" rx="1"/><rect x="311.29860255256136" y="813.9599893673762" width="4.657995430905837" height="7.1398479717643575" fill="#c77dff" opacity="0.37257630549664056" rx="1"/><rect x="292.3502764635032" y="817.5299133532584" width="4.657995430905837" height="7.1398479717643575" fill="#7b2cbf" opacity="0.18628815274832028" rx="1"/><rect x="311.15810024030804" y="850.2900514436363" width="4.939000055412529" height="6.85629121047824" fill="#c77dff" opacity="0.26736482634846237" rx="1"/><rect x="292.20977415124986" y="853.7181970488755" width="4.939000055412529" height="6.85629121047824" fill="#7b2cbf" opacity="0.13368241317423118" rx="1"/><rect x="311.55681727780296" y="886.6201135198964" width="4.141565980422675" height="6.522931301156741" fill="#c77dff" opacity="0.2906687522285312" rx="1"/><rect x="292.6084911887448" y="889.8815791704748" width="4.141565980422675" height="6.522931301156741" fill="#7b2cbf" opacity="0.1453343761142656" rx="1"/><rect x="357.5518056877946" y="759.8785221599691" width="63.8552908631636" height="153.07165343618757" fill="#000011" opacity="0.6469823013634846" rx="2"/><rect x="385.9906688808146" y="769.8785221599691" width="6.977564477123684" height="6.292779850841681" fill="#c77dff" opacity="0.42449397929583066" rx="1"/><rect x="370.0268461650237" y="773.0249120853899" width="6.977564477123684" height="6.292779850841681" fill="#7b2cbf" opacity="0.21224698964791533" rx="1"/><rect x="385.8592333244468" y="808.146435519016" width="7.240435589859363" height="8.2985491376134" fill="#c77dff" opacity="0.1454805982405042" rx="1"/><rect x="369.8954106086559" y="812.2957100878227" width="7.240435589859363" height="8.2985491376134" fill="#7b2cbf" opacity="0.0727402991202521" rx="1"/><rect x="385.3811762797772" y="846.4143488780628" width="8.19654967919843" height="6.464704312492326" fill="#c77dff" opacity="0.23303854296287488" rx="1"/><rect x="369.4173535639863" y="849.646701034309" width="8.19654967919843" height="6.464704312492326" fill="#7b2cbf" opacity="0.11651927148143744" rx="1"/><rect x="386.01108638390065" y="884.6822622371097" width="6.9367294709516525" height="6.7337272224793505" fill="#c77dff" opacity="0.2432410489402807" rx="1"/><rect x="370.04726366810974" y="888.0491258483494" width="6.9367294709516525" height="6.7337272224793505" fill="#7b2cbf" opacity="0.12162052447014035" rx="1"/><rect x="458.5606732889199" y="620.4614916281918" width="30.262618032345227" height="292.4886839679649" fill="#10002b" opacity="0.5747819645737255" rx="2"/><rect x="469.2473281964982" y="630.4614916281918" width="8.889308217188649" height="8.026189376140524" fill="#c77dff" opacity="0.44050006345857406" rx="1"/><rect x="461.6816736884119" y="634.474586316262" width="8.889308217188649" height="8.026189376140524" fill="#7b2cbf" opacity="0.22025003172928703" rx="1"/><rect x="470.6853414840941" y="703.583662620183" width="6.013281641996764" height="6.560609969440989" fill="#c77dff" opacity="0.41110760087871634" rx="1"/><rect x="463.1196869760078" y="706.8639676049035" width="6.013281641996764" height="6.560609969440989" fill="#7b2cbf" opacity="0.20555380043935817" rx="1"/><rect x="470.8404137345337" y="776.7058336121743" width="5.703137141117625" height="7.01737001841361" fill="#c77dff" opacity="0.29512745509742" rx="1"/><rect x="463.2747592264474" y="780.2145186213811" width="5.703137141117625" height="7.01737001841361" fill="#7b2cbf" opacity="0.14756372754871" rx="1"/><rect x="470.84632072153903" y="849.8280046041655" width="5.69132316710691" height="9.214895110394549" fill="#c77dff" opacity="0.23676939244306866" rx="1"/><rect x="463.2806662134527" y="854.4354521593627" width="5.69132316710691" height="9.214895110394549" fill="#7b2cbf" opacity="0.11838469622153433" rx="1"/><rect x="538.0179142320824" y="745.343318999592" width="82.3235266125583" height="167.60685659656463" fill="#10002b" opacity="0.6049251628585451" rx="2"/><rect x="573.9857081090786" y="755.343318999592" width="10.38793885856586" height="9.049517746793459" fill="#c77dff" opacity="0.5142584531601189" rx="1"/><rect x="553.4048264559391" y="759.8680778729888" width="10.38793885856586" height="9.049517746793459" fill="#7b2cbf" opacity="0.25712922658005943" rx="1"/><rect x="575.0239001924481" y="788.864690318905" width="8.31155469182682" height="8.564875366763415" fill="#c77dff" opacity="0.517748716524278" rx="1"/><rect x="554.4430185393086" y="793.1471280022866" width="8.31155469182682" height="8.564875366763415" fill="#7b2cbf" opacity="0.258874358262139" rx="1"/><rect x="574.8521217817349" y="822.3860616382179" width="8.655111513253095" height="6.456049815857795" fill="#c77dff" opacity="0.5479128379486299" rx="1"/><rect x="554.2712401285954" y="825.6140865461468" width="8.655111513253095" height="6.456049815857795" fill="#7b2cbf" opacity="0.27395641897431494" rx="1"/><rect x="575.2048153982296" y="855.9074329575308" width="7.949724280263698" height="9.995381708255826" fill="#c77dff" opacity="0.49400114291207897" rx="1"/><rect x="554.6239337450901" y="860.9051238116587" width="7.949724280263698" height="9.995381708255826" fill="#7b2cbf" opacity="0.24700057145603949" rx="1"/><rect x="573.3082806717644" y="889.4288042768437" width="11.74279373319419" height="8.257609972324598" fill="#c77dff" opacity="0.1077493927692411" rx="1"/><rect x="552.7273990186249" y="893.557609263006" width="11.74279373319419" height="8.257609972324598" fill="#7b2cbf" opacity="0.05387469638462055" rx="1"/><rect x="615.3702064482721" y="703.6511124236629" width="41.51649385493167" height="209.29906317249385" fill="#000011" opacity="0.566977777021699" rx="2"/><rect x="632.655479717623" y="713.6511124236629" width="6.945947316229796" height="6.562438894194187" fill="#c77dff" opacity="0.21458773971874912" rx="1"/><rect x="622.2763562538901" y="716.93233187076" width="6.945947316229796" height="6.562438894194187" fill="#7b2cbf" opacity="0.10729386985937456" rx="1"/><rect x="631.46191269187" y="783.4174668144942" width="9.333081367736003" height="7.448531235905488" fill="#c77dff" opacity="0.2334349457485217" rx="1"/><rect x="621.082789228137" y="787.1417324324469" width="9.333081367736003" height="7.448531235905488" fill="#7b2cbf" opacity="0.11671747287426085" rx="1"/><rect x="630.3773298170661" y="853.1838212053254" width="11.502247117343881" height="9.716733870030552" fill="#c77dff" opacity="0.15755762570946422" rx="1"/><rect x="619.9982063533331" y="858.0421881403407" width="11.502247117343881" height="9.716733870030552" fill="#7b2cbf" opacity="0.07877881285473211" rx="1"/><rect x="706.5665489833598" y="568.6944742963403" width="43.90578424416152" height="344.2557012998163" fill="#10002b" opacity="0.640403205375281" rx="2"/><rect x="725.5621436748439" y="578.6944742963403" width="5.914594861193233" height="6.699673589481896" fill="#c77dff" opacity="0.20998716091504022" rx="1"/><rect x="714.5856976138035" y="582.0443110910812" width="5.914594861193233" height="6.699673589481896" fill="#7b2cbf" opacity="0.10499358045752011" rx="1"/><rect x="722.5864963680814" y="636.0704245129764" width="11.86588947471834" height="7.577594035672395" fill="#c77dff" opacity="0.3682957742987889" rx="1"/><rect x="711.610050307041" y="639.8592215308125" width="11.86588947471834" height="7.577594035672395" fill="#7b2cbf" opacity="0.18414788714939445" rx="1"/><rect x="725.6988589137896" y="693.4463747296124" width="5.641164383301783" height="7.381242529810695" fill="#c77dff" opacity="0.5184487678386385" rx="1"/><rect x="714.7224128527492" y="697.1369959945177" width="5.641164383301783" height="7.381242529810695" fill="#7b2cbf" opacity="0.25922438391931923" rx="1"/><rect x="726.0682672289233" y="750.8223249462485" width="4.90234775303452" height="9.34564651161098" fill="#c77dff" opacity="0.5714963197408934" rx="1"/><rect x="715.0918211678829" y="755.495148202054" width="4.90234775303452" height="9.34564651161098" fill="#7b2cbf" opacity="0.2857481598704467" rx="1"/><rect x="724.5074238772628" y="808.1982751628846" width="8.024034456355505" height="9.358860212228926" fill="#c77dff" opacity="0.18736626002643403" rx="1"/><rect x="713.5309778162224" y="812.877705268999" width="8.024034456355505" height="9.358860212228926" fill="#7b2cbf" opacity="0.09368313001321701" rx="1"/><rect x="723.5756207269434" y="865.5742253795206" width="9.887640756994402" height="6.160194191187665" fill="#c77dff" opacity="0.48626444523368606" rx="1"/><rect x="712.599174665903" y="868.6543224751144" width="9.887640756994402" height="6.160194191187665" fill="#7b2cbf" opacity="0.24313222261684303" rx="1"/><rect x="796.8088418555383" y="752.0256857625269" width="67.74490768037384" height="160.9244898336298" fill="#000011" opacity="0.5680321853067801" rx="2"/><rect x="825.5475456521175" y="762.0256857625269" width="10.26750008721545" height="7.872202817786532" fill="#c77dff" opacity="0.29637651885775307" rx="1"/><rect x="808.611318732024" y="765.9617871714202" width="10.26750008721545" height="7.872202817786532" fill="#7b2cbf" opacity="0.14818825942887653" rx="1"/><rect x="826.362700357504" y="785.0148985959025" width="8.637190676442625" height="8.484760474060838" fill="#c77dff" opacity="0.18526062059338685" rx="1"/><rect x="809.4264734374104" y="789.2572788329329" width="8.637190676442625" height="8.484760474060838" fill="#7b2cbf" opacity="0.09263031029669343" rx="1"/><rect x="827.7011597089156" y="808.0041114292783" width="5.960271973619301" height="8.044921345553576" fill="#c77dff" opacity="0.5329743508559126" rx="1"/><rect x="810.7649327888221" y="812.0265721020551" width="5.960271973619301" height="8.044921345553576" fill="#7b2cbf" opacity="0.2664871754279563" rx="1"/><rect x="826.4340378283053" y="830.9933242626539" width="8.494515734839839" height="6.933746138804999" fill="#c77dff" opacity="0.4646988430676746" rx="1"/><rect x="809.4978109082118" y="834.4601973320564" width="8.494515734839839" height="6.933746138804999" fill="#7b2cbf" opacity="0.2323494215338373" rx="1"/><rect x="827.2624192597872" y="853.9825370960297" width="6.837752871876059" height="9.089164417024973" fill="#c77dff" opacity="0.4521387469610523" rx="1"/><rect x="810.3261923396936" y="858.5271193045421" width="6.837752871876059" height="9.089164417024973" fill="#7b2cbf" opacity="0.22606937348052614" rx="1"/><rect x="826.7065606773996" y="876.9717499294053" width="7.94947003665135" height="8.069123615992517" fill="#c77dff" opacity="0.1596491748140308" rx="1"/><rect x="809.770333757306" y="881.0063117374016" width="7.94947003665135" height="8.069123615992517" fill="#7b2cbf" opacity="0.0798245874070154" rx="1"/><rect x="825.4876227753357" y="899.960962762781" width="10.38734584077898" height="8.26761969511109" fill="#c77dff" opacity="0.36314928225780585" rx="1"/><rect x="808.5513958552422" y="904.0947726103366" width="10.38734584077898" height="8.26761969511109" fill="#7b2cbf" opacity="0.18157464112890292" rx="1"/><rect x="890.814248188165" y="622.0448967702791" width="49.31841744094119" height="290.90527882587753" fill="#10002b" opacity="0.4082641143836696" rx="2"/><rect x="909.6938204520558" y="632.0448967702791" width="11.559272913159633" height="6.4391751234510854" fill="#c77dff" opacity="0.4090097094674152" rx="1"/><rect x="897.3642160918205" y="635.2644843320047" width="11.559272913159633" height="6.4391751234510854" fill="#7b2cbf" opacity="0.2045048547337076" rx="1"/><rect x="912.2302071148092" y="680.5291099079254" width="6.4864995876528555" height="7.342594975918204" fill="#c77dff" opacity="0.166515770407048" rx="1"/><rect x="899.9006027545739" y="684.2004073958846" width="6.4864995876528555" height="7.342594975918204" fill="#7b2cbf" opacity="0.083257885203524" rx="1"/><rect x="912.6277961660664" y="729.0133230455716" width="5.6913214851383405" height="8.567931230777859" fill="#c77dff" opacity="0.5510633260829056" rx="1"/><rect x="900.2981918058312" y="733.2972886609606" width="5.6913214851383405" height="8.567931230777859" fill="#7b2cbf" opacity="0.2755316630414528" rx="1"/><rect x="911.797813019012" y="777.4975361832179" width="7.351287779247222" height="9.814562700645663" fill="#c77dff" opacity="0.40428731564997866" rx="1"/><rect x="899.4682086587767" y="782.4048175335407" width="7.351287779247222" height="9.814562700645663" fill="#7b2cbf" opacity="0.20214365782498933" rx="1"/><rect x="909.8709434743628" y="825.9817493208642" width="11.20502686854569" height="9.411647361566231" fill="#c77dff" opacity="0.2227110899339223" rx="1"/><rect x="897.5413391141275" y="830.6875730016474" width="11.20502686854569" height="9.411647361566231" fill="#7b2cbf" opacity="0.11135554496696115" rx="1"/><rect x="911.394366586715" y="874.4659624585104" width="8.1581806438412" height="8.797967376838896" fill="#c77dff" opacity="0.18338786675207966" rx="1"/><rect x="899.0647622264797" y="878.8649461469298" width="8.1581806438412" height="8.797967376838896" fill="#7b2cbf" opacity="0.09169393337603983" rx="1"/><rect x="973.3506855958492" y="698.4696320836595" width="80.49260234704533" height="214.4805435124972" fill="#000011" opacity="0.6500888556824274" rx="2"/><rect x="1007.9221511573814" y="708.4696320836595" width="11.349671223980764" height="8.239913868308047" fill="#c77dff" opacity="0.3300182350981092" rx="1"/><rect x="987.7990005706201" y="712.5895890178135" width="11.349671223980764" height="8.239913868308047" fill="#7b2cbf" opacity="0.1650091175490546" rx="1"/><rect x="1010.1903139197244" y="739.1097097283019" width="6.813345699294784" height="6.886908251998692" fill="#c77dff" opacity="0.1621129993959593" rx="1"/><rect x="990.0671633329631" y="742.5531638543013" width="6.813345699294784" height="6.886908251998692" fill="#7b2cbf" opacity="0.08105649969797965" rx="1"/><rect x="1007.6493845886199" y="769.7497873729444" width="11.895204361503758" height="7.869282407190018" fill="#c77dff" opacity="0.5470671395415131" rx="1"/><rect x="987.5262340018586" y="773.6844285765394" width="11.895204361503758" height="7.869282407190018" fill="#7b2cbf" opacity="0.27353356977075655" rx="1"/><rect x="1010.9255008823064" y="800.3898650175868" width="5.34297177413082" height="7.786253807550821" fill="#c77dff" opacity="0.41362240221668556" rx="1"/><rect x="990.8023502955451" y="804.2829919213622" width="5.34297177413082" height="7.786253807550821" fill="#7b2cbf" opacity="0.20681120110834278" rx="1"/><rect x="1009.2333361656016" y="831.0299426622292" width="8.727301207540394" height="6.174994392361258" fill="#c77dff" opacity="0.34810491484778583" rx="1"/><rect x="989.1101855788403" y="834.1174398584099" width="8.727301207540394" height="6.174994392361258" fill="#7b2cbf" opacity="0.17405245742389291" rx="1"/><rect x="1011.144898426287" y="861.6700203068717" width="4.90417668616962" height="8.823481363901747" fill="#c77dff" opacity="0.4562806609217731" rx="1"/><rect x="991.0217478395257" y="866.0817609888226" width="4.90417668616962" height="8.823481363901747" fill="#7b2cbf" opacity="0.22814033046088655" rx="1"/><rect x="1010.2437016072784" y="892.3100979515142" width="6.706570324186834" height="6.593039745602999" fill="#c77dff" opacity="0.3485896583526837" rx="1"/><rect x="990.120551020517" y="895.6066178243157" width="6.706570324186834" height="6.593039745602999" fill="#7b2cbf" opacity="0.17429482917634184" rx="1"/><rect x="1068.5808921373448" y="625.3272362927271" width="62.54228067876358" height="287.6229393034296" fill="#10002b" opacity="0.4611525597425999" rx="2"/><rect x="1096.6509632769669" y="635.3272362927271" width="6.402138399519524" height="9.485624085992022" fill="#c77dff" opacity="0.5226040374307437" rx="1"/><rect x="1081.015393107276" y="640.0700483357231" width="6.402138399519524" height="9.485624085992022" fill="#7b2cbf" opacity="0.26130201871537184" rx="1"/><rect x="1094.5817377165426" y="707.2329711185845" width="10.54058952036793" height="7.77018701978265" fill="#c77dff" opacity="0.45050647096953045" rx="1"/><rect x="1078.9461675468517" y="711.1180646284758" width="10.54058952036793" height="7.77018701978265" fill="#7b2cbf" opacity="0.22525323548476522" rx="1"/><rect x="1094.5880408108717" y="779.1387059444419" width="10.527983331710097" height="9.327384446590996" fill="#c77dff" opacity="0.30521665474055726" rx="1"/><rect x="1078.9524706411808" y="783.8023981677374" width="10.527983331710097" height="9.327384446590996" fill="#7b2cbf" opacity="0.15260832737027863" rx="1"/><rect x="1097.7375564311064" y="851.0444407702993" width="4.228952091240545" height="8.667699590015156" fill="#c77dff" opacity="0.4706793532172868" rx="1"/><rect x="1082.1019862614155" y="855.3782905653069" width="4.228952091240545" height="8.667699590015156" fill="#7b2cbf" opacity="0.2353396766086434" rx="1"/><rect x="1146.9094719319944" y="676.6834828133424" width="44.157933936025465" height="236.2666927828143" fill="#000011" opacity="0.480405661692006" rx="2"/><rect x="1165.1748391342842" y="686.6834828133424" width="7.627199531446024" height="8.588784933692958" fill="#c77dff" opacity="0.5029355877784396" rx="1"/><rect x="1154.1353556502777" y="690.9778752801889" width="7.627199531446024" height="8.588784933692958" fill="#7b2cbf" opacity="0.2514677938892198" rx="1"/><rect x="1165.9018722298877" y="765.4390470742804" width="6.1731333402388575" height="7.894637048685606" fill="#c77dff" opacity="0.18251102887618148" rx="1"/><rect x="1154.8623887458812" y="769.3863655986232" width="6.1731333402388575" height="7.894637048685606" fill="#7b2cbf" opacity="0.09125551443809074" rx="1"/><rect x="1163.9175743066132" y="844.1946113352186" width="10.141729186787671" height="7.042928556223151" fill="#c77dff" opacity="0.5545418051896948" rx="1"/><rect x="1152.8780908226067" y="847.7160756133302" width="10.141729186787671" height="7.042928556223151" fill="#7b2cbf" opacity="0.2772709025948474" rx="1"/><rect x="1235.098509865476" y="746.1888818992742" width="51.02518065856425" height="166.7612936968825" fill="#000011" opacity="0.6645791533553458" rx="2"/><rect x="1254.961872660419" y="756.1888818992742" width="11.298455068678235" height="6.4957730445302495" fill="#c77dff" opacity="0.31000222715316395" rx="1"/><rect x="1242.2055774957778" y="759.4367684215393" width="11.298455068678235" height="6.4957730445302495" fill="#7b2cbf" opacity="0.15500111357658197" rx="1"/><rect x="1254.9112570852426" y="811.775979798235" width="11.399686219030919" height="7.802823858755367" fill="#c77dff" opacity="0.2035311353866782" rx="1"/><rect x="1242.1549619206014" y="815.6773917276126" width="11.399686219030919" height="7.802823858755367" fill="#7b2cbf" opacity="0.1017655676933391" rx="1"/><rect x="1255.7926149666885" y="867.3630776971959" width="9.63697045613941" height="8.340937490188734" fill="#c77dff" opacity="0.46073142205382034" rx="1"/><rect x="1243.0363198020473" y="871.5335464422902" width="9.63697045613941" height="8.340937490188734" fill="#7b2cbf" opacity="0.23036571102691017" rx="1"/><rect x="1336.6803095149698" y="566.2395076165533" width="80.19770531221239" height="346.71066797960333" fill="#000011" opacity="0.6264584690859678" rx="2"/><rect x="1373.703579189716" y="576.2395076165533" width="6.151165962720096" height="8.54760994355837" fill="#c77dff" opacity="0.15740989734358385" rx="1"/><rect x="1353.654152861663" y="580.5133125883325" width="6.151165962720096" height="8.54760994355837" fill="#7b2cbf" opacity="0.07870494867179192" rx="1"/><rect x="1371.9267763197886" y="691.8097302764211" width="9.704771702574746" height="8.010205498433255" fill="#c77dff" opacity="0.32898927813605156" rx="1"/><rect x="1351.8773499917356" y="695.8148330256377" width="9.704771702574746" height="8.010205498433255" fill="#7b2cbf" opacity="0.16449463906802578" rx="1"/><rect x="1373.8376412731852" y="807.3799529362889" width="5.88304179578159" height="7.6199305880861194" fill="#c77dff" opacity="0.5760097684282832" rx="1"/><rect x="1353.7882149451323" y="811.189918230332" width="5.88304179578159" height="7.6199305880861194" fill="#7b2cbf" opacity="0.2880048842141416" rx="1"/><rect x="1400.5279745067514" y="695.8100727865962" width="73.23669028078129" height="217.14010280956052" fill="#10002b" opacity="0.6725189823127629" rx="2"/><rect x="1432.9089333221782" y="705.8100727865962" width="8.474772649927711" height="6.702852009959251" fill="#c77dff" opacity="0.3181001463248628" rx="1"/><rect x="1414.599760751983" y="709.1614987915758" width="8.474772649927711" height="6.702852009959251" fill="#7b2cbf" opacity="0.1590500731624314" rx="1"/><rect x="1431.790678825202" y="760.0950984889863" width="10.711281643880364" height="9.130576071126987" fill="#c77dff" opacity="0.4110444794434692" rx="1"/><rect x="1413.4815062550067" y="764.6603865245498" width="10.711281643880364" height="9.130576071126987" fill="#7b2cbf" opacity="0.2055222397217346" rx="1"/><rect x="1431.9777464922677" y="814.3801241913764" width="10.337146309748558" height="8.431315823092898" fill="#c77dff" opacity="0.1923757116758208" rx="1"/><rect x="1413.6685739220725" y="818.5957821029228" width="10.337146309748558" height="8.431315823092898" fill="#7b2cbf" opacity="0.0961878558379104" rx="1"/><rect x="1432.813951890195" y="868.6651498937665" width="8.664735513894058" height="6.936626476453763" fill="#c77dff" opacity="0.21017172751253743" rx="1"/><rect x="1414.50477932" y="872.1334631319934" width="8.664735513894058" height="6.936626476453763" fill="#7b2cbf" opacity="0.10508586375626872" rx="1"/><rect x="1492.4953892276167" y="798.0713152438568" width="56.93835669358688" height="114.87886035229984" fill="#000011" opacity="0.6690328318553588" rx="2"/><rect x="1518.952390952702" y="808.0713152438568" width="4.024353243416257" height="9.433595842549948" fill="#c77dff" opacity="0.1503602021025401" rx="1"/><rect x="1504.7178017793053" y="812.7881131651318" width="4.024353243416257" height="9.433595842549948" fill="#7b2cbf" opacity="0.07518010105127006" rx="1"/><rect x="1518.1146433870363" y="846.3642686946234" width="5.699848374747636" height="9.903217862337645" fill="#c77dff" opacity="0.5727562393464046" rx="1"/><rect x="1503.8800542136396" y="851.3158776257923" width="5.699848374747636" height="9.903217862337645" fill="#7b2cbf" opacity="0.2863781196732023" rx="1"/><rect x="1518.49541362431" y="884.65722214539" width="4.938307900200204" height="8.357837519226091" fill="#c77dff" opacity="0.364422579730028" rx="1"/><rect x="1504.2608244509133" y="888.836140905003" width="4.938307900200204" height="8.357837519226091" fill="#7b2cbf" opacity="0.182211289865014" rx="1"/><rect x="1571.2775765834388" y="623.133825155239" width="36.082188129909845" height="289.81635044091763" fill="#10002b" opacity="0.448090136108941" rx="2"/><rect x="1584.3711184202923" y="633.133825155239" width="9.89510445620285" height="8.826485018903968" fill="#c77dff" opacity="0.34488774564696656" rx="1"/><rect x="1575.3505713878149" y="637.547067664691" width="9.89510445620285" height="8.826485018903968" fill="#7b2cbf" opacity="0.17244387282348328" rx="1"/><rect x="1586.657519711271" y="669.3608689603537" width="5.322301874245122" height="9.463473431641113" fill="#c77dff" opacity="0.5287731211932314" rx="1"/><rect x="1577.6369726787937" y="674.0926056761743" width="5.322301874245122" height="9.463473431641113" fill="#7b2cbf" opacity="0.2643865605966157" rx="1"/><rect x="1586.2427645800565" y="705.5879127654684" width="6.1518121366742555" height="7.0408331353778095" fill="#c77dff" opacity="0.37400855470309236" rx="1"/><rect x="1577.222217547579" y="709.1083293331574" width="6.1518121366742555" height="7.0408331353778095" fill="#7b2cbf" opacity="0.18700427735154618" rx="1"/><rect x="1584.1431307126466" y="741.8149565705831" width="10.351079871494107" height="9.206537892857225" fill="#c77dff" opacity="0.39207862338332433" rx="1"/><rect x="1575.122583680169" y="746.4182255170117" width="10.351079871494107" height="9.206537892857225" fill="#7b2cbf" opacity="0.19603931169166217" rx="1"/><rect x="1587.0479856293591" y="778.0420003756979" width="4.541370038069172" height="7.390760839309255" fill="#c77dff" opacity="0.16210793789059574" rx="1"/><rect x="1578.0274385968817" y="781.7373807953525" width="4.541370038069172" height="7.390760839309255" fill="#7b2cbf" opacity="0.08105396894529787" rx="1"/><rect x="1584.4057125258569" y="814.2690441808126" width="9.825916245073525" height="9.644604626960263" fill="#c77dff" opacity="0.4195078136211978" rx="1"/><rect x="1575.3851654933794" y="819.0913464942927" width="9.825916245073525" height="9.644604626960263" fill="#7b2cbf" opacity="0.2097539068105989" rx="1"/><rect x="1584.9637771320276" y="850.4960879859273" width="8.709787032732224" height="6.993624894179782" fill="#c77dff" opacity="0.30440228765467237" rx="1"/><rect x="1575.9432300995502" y="853.9929004330171" width="8.709787032732224" height="6.993624894179782" fill="#7b2cbf" opacity="0.15220114382733618" rx="1"/><rect x="1584.9847324431669" y="886.723131791042" width="8.667876410453552" height="9.33167305386897" fill="#c77dff" opacity="0.46864380279291507" rx="1"/><rect x="1575.9641854106894" y="891.3889683179765" width="8.667876410453552" height="9.33167305386897" fill="#7b2cbf" opacity="0.23432190139645753" rx="1"/><rect x="1674.2464227901753" y="621.4130221799512" width="66.27533508377972" height="291.53715341620546" fill="#10002b" opacity="0.6373690597334339" rx="2"/><rect x="1703.8434484874338" y="631.4130221799512" width="7.081283689262644" height="6.816742615033114" fill="#c77dff" opacity="0.19832432495856758" rx="1"/><rect x="1687.2746147164887" y="634.8213934874677" width="7.081283689262644" height="6.816742615033114" fill="#7b2cbf" opacity="0.09916216247928379" rx="1"/><rect x="1701.9871108055888" y="728.5920733186864" width="10.793959052952463" height="9.892358639252455" fill="#c77dff" opacity="0.23302659164951803" rx="1"/><rect x="1685.4182770346438" y="733.5382526383127" width="10.793959052952463" height="9.892358639252455" fill="#7b2cbf" opacity="0.11651329582475901" rx="1"/><rect x="1704.0539238214492" y="825.7711244574215" width="6.660333021232004" height="7.320880073430222" fill="#c77dff" opacity="0.28269760293948876" rx="1"/><rect x="1687.4850900505041" y="829.4315644941366" width="6.660333021232004" height="7.320880073430222" fill="#7b2cbf" opacity="0.14134880146974438" rx="1"/><rect x="1746.1031988687969" y="806.4232654768097" width="62.66531656791115" height="106.52691011934702" fill="#000011" opacity="0.6181538337185406" rx="2"/><rect x="1772.7449071319095" y="816.4232654768097" width="9.381900041685881" height="8.03916503350231" fill="#c77dff" opacity="0.4946994950284016" rx="1"/><rect x="1757.0785779899315" y="820.4428479935608" width="9.381900041685881" height="8.03916503350231" fill="#7b2cbf" opacity="0.2473497475142008" rx="1"/><rect x="1773.6449865398483" y="831.6413954938592" width="7.581741225808333" height="8.372284070209666" fill="#c77dff" opacity="0.2200337666366328" rx="1"/><rect x="1757.9786573978704" y="835.8275375289641" width="7.581741225808333" height="8.372284070209666" fill="#7b2cbf" opacity="0.1100168833183164" rx="1"/><rect x="1772.1555738629586" y="846.8595255109088" width="10.560566579587888" height="9.200015329569581" fill="#c77dff" opacity="0.12870118118093843" rx="1"/><rect x="1756.4892447209807" y="851.4595331756937" width="10.560566579587888" height="9.200015329569581" fill="#7b2cbf" opacity="0.06435059059046921" rx="1"/><rect x="1771.6964274088527" y="862.0776555279584" width="11.478859487799662" height="7.399850507592747" fill="#c77dff" opacity="0.5008661214962755" rx="1"/><rect x="1756.0300982668748" y="865.7775807817548" width="11.478859487799662" height="7.399850507592747" fill="#7b2cbf" opacity="0.25043306074813776" rx="1"/><rect x="1772.6435472671892" y="877.2957855450079" width="9.584619771126803" height="9.869055816873223" fill="#c77dff" opacity="0.5779342190543968" rx="1"/><rect x="1756.9772181252113" y="882.2303134534445" width="9.584619771126803" height="9.869055816873223" fill="#7b2cbf" opacity="0.2889671095271984" rx="1"/><rect x="1773.5478680885658" y="892.5139155620575" width="7.775978128373618" height="9.074494260147794" fill="#c77dff" opacity="0.11980744197960186" rx="1"/><rect x="1757.8815389465879" y="897.0511626921314" width="7.775978128373618" height="9.074494260147794" fill="#7b2cbf" opacity="0.05990372098980093" rx="1"/><rect x="1773.3030944519367" y="907.7320455791071" width="8.265525401631725" height="9.750942643673845" fill="#c77dff" opacity="0.5324311379884442" rx="1"/><rect x="1757.6367653099587" y="912.607516900944" width="8.265525401631725" height="9.750942643673845" fill="#7b2cbf" opacity="0.2662155689942221" rx="1"/><rect x="1841.0463609404928" y="735.3582490899969" width="86.32977965202411" height="177.5919265061598" fill="#10002b" opacity="0.42972305413096284" rx="2"/><rect x="1880.6501695662346" y="745.3582490899969" width="7.122162400540468" height="8.74607123312216" fill="#c77dff" opacity="0.5866260467066025" rx="1"/><rect x="1859.0677246532284" y="749.731284706558" width="7.122162400540468" height="8.74607123312216" fill="#7b2cbf" opacity="0.2933130233533012" rx="1"/><rect x="1879.1353969411732" y="767.5572399032669" width="10.151707650663262" height="6.969734785372795" fill="#c77dff" opacity="0.2961088934205726" rx="1"/><rect x="1857.552952028167" y="771.0421072959533" width="10.151707650663262" height="6.969734785372795" fill="#7b2cbf" opacity="0.1480544467102863" rx="1"/><rect x="1880.1639637600972" y="789.7562307165368" width="8.09457401281562" height="6.910624952267535" fill="#c77dff" opacity="0.20305681058742497" rx="1"/><rect x="1858.581518847091" y="793.2115431926705" width="8.09457401281562" height="6.910624952267535" fill="#7b2cbf" opacity="0.10152840529371249" rx="1"/><rect x="1878.7822142396972" y="811.9552215298069" width="10.858073053615652" height="6.833950944439031" fill="#c77dff" opacity="0.5960029281200848" rx="1"/><rect x="1857.199769326691" y="815.3721970020264" width="10.858073053615652" height="6.833950944439031" fill="#7b2cbf" opacity="0.2980014640600424" rx="1"/><rect x="1880.4969788472354" y="834.1542123430768" width="7.428543838539287" height="9.122732599061619" fill="#c77dff" opacity="0.55864559010571" rx="1"/><rect x="1858.9145339342292" y="838.7155786426076" width="7.428543838539287" height="9.122732599061619" fill="#7b2cbf" opacity="0.279322795052855" rx="1"/><rect x="1878.914137106877" y="856.3532031563468" width="10.594227319255989" height="9.391338981546308" fill="#c77dff" opacity="0.5686506678044448" rx="1"/><rect x="1857.3316921938708" y="861.04887264712" width="10.594227319255989" height="9.391338981546308" fill="#7b2cbf" opacity="0.2843253339022224" rx="1"/><rect x="1880.368840171851" y="878.5521939696167" width="7.684821189307799" height="9.281195699069928" fill="#c77dff" opacity="0.3086954295422638" rx="1"/><rect x="1858.7863952588448" y="883.1927918191517" width="7.684821189307799" height="9.281195699069928" fill="#7b2cbf" opacity="0.1543477147711319" rx="1"/><rect x="1881.0604575351447" y="900.7511847828868" width="6.301586462720667" height="8.146855348289677" fill="#c77dff" opacity="0.27738761966521563" rx="1"/><rect x="1859.4780126221385" y="904.8246124570315" width="6.301586462720667" height="8.146855348289677" fill="#7b2cbf" opacity="0.13869380983260782" rx="1"/><path d="M1064.5406026636576 877.6114127080914 Q1061.6808080490866 768.0365733786106 1061.1088491261723 658.4617340491297" stroke="#000000" stroke-width="5.407043365157918" fill="none" stroke-linecap="round"/><path d="M1061.1088491261723 658.4617340491297 Q1096.5334916577053 638.4617340491297 1127.7845176076014 658.4617340491297" stroke="#000000" stroke-width="2.428762120294562" fill="none" stroke-linecap="round" opacity="0.6"/><path d="M1061.1088491261723 658.4617340491297 Q1086.61963527481 643.7338468002426 1089.1379799408403 669.0059595513557" stroke="#000000" stroke-width="2.649527782259865" fill="none" stroke-linecap="round" opacity="0.6"/><path d="M1061.1088491261723 658.4617340491297 Q1073.8963883788153 647.8862327507983 1046.7683136058106 677.3107314524668" stroke="#000000" stroke-width="3.0061098940219058" fill="none" stroke-linecap="round" opacity="0.6"/><path d="M1061.1088491261723 658.4617340491297 Q1051.8601817389142 642.0493831868528 1011.4433144736637 665.6370323245759" stroke="#000000" stroke-width="2.769874555703689" fill="none" stroke-linecap="round" opacity="0.6"/><path d="M1061.1088491261723 658.4617340491297 Q1036.3589230169512 633.9236354992665 998.2857908692076 649.3855369494034" stroke="#000000" stroke-width="3.60416654907264" fill="none" stroke-linecap="round" opacity="0.6"/><path d="M1061.1088491261723 658.4617340491297 Q1052.5883813213545 627.0365077337829 1043.723960126782 635.611281418436" stroke="#000000" stroke-width="3.268576382489078" fill="none" stroke-linecap="round" opacity="0.6"/><path d="M1061.1088491261723 658.4617340491297 Q1090.5280285671681 634.7981349663562 1080.5863342998114 651.1345358835827" stroke="#000000" stroke-width="2.28105471569138" fill="none" stroke-linecap="round" opacity="0.6"/><path d="M1721.6577998832001 865.448729313316 Q1728.7661209583202 800.7221923618862 1730.1877851733443 735.9956554104564" stroke="#000000" stroke-width="6.331432127936611" fill="none" stroke-linecap="round"/><path d="M1730.1877851733443 735.9956554104564 Q1763.0608766749642 715.9956554104564 1761.4861699611615 735.9956554104564" stroke="#000000" stroke-width="3.7168001168679448" fill="none" stroke-linecap="round" opacity="0.6"/><path d="M1730.1877851733443 735.9956554104564 Q1748.6518825006513 721.3525114570796 1758.6674528083827 746.7093675037027" stroke="#000000" stroke-width="2.7837288302331533" fill="none" stroke-linecap="round" opacity="0.6"/><path d="M1730.1877851733443 735.9956554104564 Q1743.7482450686687 721.9479657516017 1721.130611887268 747.9002760927472" stroke="#000000" stroke-width="2.1052870499215293" fill="none" stroke-linecap="round" opacity="0.6"/><path d="M1730.1877851733443 735.9956554104564 Q1723.6460782034776 719.8080027262224 1677.4116466909902 743.6203500419883" stroke="#000000" stroke-width="3.212005774307066" fill="none" stroke-linecap="round" opacity="0.6"/><path d="M1730.1877851733443 735.9956554104564 Q1726.283834855265 712.5859325713534 1682.9853689614856 729.1762097322503" stroke="#000000" stroke-width="3.7847689473500403" fill="none" stroke-linecap="round" opacity="0.6"/><path d="M1730.1877851733443 735.9956554104564 Q1738.6485878474782 708.8765669534542 1719.3552152805644 721.7574784964521" stroke="#000000" stroke-width="3.700150111154688" fill="none" stroke-linecap="round" opacity="0.6"/><path d="M225.44530307535206 855.0653110619321 Q227.54666881811494 746.3834198357965 227.96694196666752 637.7015286096608" stroke="#000000" stroke-width="7.480966365775318" fill="none" stroke-linecap="round"/><path d="M227.96694196666752 637.7015286096608 Q268.1971137170207 617.7015286096608 287.6874488256144 637.7015286096608" stroke="#000000" stroke-width="3.238356329789003" fill="none" stroke-linecap="round" opacity="0.6"/><path d="M227.96694196666752 637.7015286096608 Q269.47335170071386 626.5196468050906 274.84837263916756 655.3377650005204" stroke="#000000" stroke-width="2.911138890523263" fill="none" stroke-linecap="round" opacity="0.6"/><path d="M227.96694196666752 637.7015286096608 Q238.63635153330898 626.3807454118653 214.76044464719735 655.0599622140699" stroke="#000000" stroke-width="2.1609358727375363" fill="none" stroke-linecap="round" opacity="0.6"/><path d="M227.96694196666752 637.7015286096608 Q217.3809800114633 620.6466400871166 187.1963619784833 643.5917515645723" stroke="#000000" stroke-width="2.658099766973895" fill="none" stroke-linecap="round" opacity="0.6"/><path d="M227.96694196666752 637.7015286096608 Q219.51786565076296 614.6464815699144 185.67447166287718 631.5914345301679" stroke="#000000" stroke-width="2.953575346375251" fill="none" stroke-linecap="round" opacity="0.6"/><path d="M227.96694196666752 637.7015286096608 Q231.76710121623748 607.8930743462186 213.0421707701011 618.0846200827762" stroke="#000000" stroke-width="3.9247754188079327" fill="none" stroke-linecap="round" opacity="0.6"/><path d="M227.96694196666752 637.7015286096608 Q257.3835983812422 610.7666875804805 264.83594981267504 623.8318465513003" stroke="#000000" stroke-width="2.9170981079612623" fill="none" stroke-linecap="round" opacity="0.6"/><rect x="0" y="1000" width="1920" height="80" fill="#000005" opacity="0.8"/><line x1="0" y1="1040" x2="1920" y2="1040" stroke="#c77dff" stroke-opacity="0.15" stroke-width="2" stroke-dasharray="30,20"/><rect x="0" y="930" width="1920" height="150" fill="url(#glow85)"/><text x="1900" y="1060" font-family="Arial, sans-serif" font-size="11" fill="#fff" opacity="0.08" text-anchor="end" letter-spacing="2">GTA 6 REWARDS · WALLPAPER 086</text>
</svg>