<?xml version="1.0" encoding="UTF-8"?>
<svg xmlns="http://www.w3.org/2000/svg" width="1920" height="1080" viewBox="0 0 1920 1080">
<defs>
    <linearGradient id="bg31" x1="0%" y1="0%" x2="0%" y2="100%">
      <stop offset="0%" stop-color="#3c096c"/>
      <stop offset="50%" stop-color="#090039"/>
      <stop offset="100%" stop-color="#3c096c"/>
    </linearGradient>
    <linearGradient id="sun31" x1="0%" y1="0%" x2="100%" y2="100%">
      <stop offset="0%" stop-color="#e0aaff"/>
      <stop offset="100%" stop-color="#c77dff"/>
    </linearGradient>
    <radialGradient id="glow31" cx="50%" cy="70%" r="50%">
      <stop offset="0%" stop-color="#e0aaff" stop-opacity="0.3"/>
      <stop offset="100%" stop-color="#3c096c" stop-opacity="0"/>
    </radialGradient>
  </defs><rect width="1920" height="1080" fill="url(#bg31)"/><circle cx="1303.1352451544103" cy="499.86418129407434" r="614.6751414785803" fill="#e0aaff" opacity="0.09167393316553765"/><circle cx="1503.1352451544103" cy="399.86418129407434" r="469.12555458702275" fill="#c77dff" opacity="0.05602014057478406"/><circle cx="1274.9663507973232" cy="349.07181193099166" r="97.26161912019867" fill="url(#sun31)" opacity="0.6961271807542366"/><circle cx="1274.9663507973232" cy="349.07181193099166" r="92.26161912019867" fill="#3c096c" opacity="0.3"/><pattern id="scan31" width="1920" height="4" patternUnits="userSpaceOnUse">
      <line x1="0" y1="0" x2="1920" y2="0" stroke="#000" stroke-opacity="0.05" stroke-width="1"/>
    </pattern>
    <rect width="1920" height="1080" fill="url(#scan31)"/><rect x="21.57588209760745" y="622.5398108881293" width="32.851820165024094" height="294.1819452667101" fill="#3c096c" opacity="0.653377988597699" rx="2"/><rect x="32.48293980944038" y="632.5398108881293" width="11.037704741358223" height="9.332775980078797" fill="#c77dff" opacity="0.4861666926849091" rx="1"/><rect x="24.269984768184365" y="637.2061988781687" width="11.037704741358223" height="9.332775980078797" fill="#e0aaff" opacity="0.24308334634245454" rx="1"/><rect x="32.786505822042585" y="706.0852972048068" width="10.430572716153826" height="9.82795701730716" fill="#c77dff" opacity="0.4275044663640448" rx="1"/><rect x="24.57355078078656" y="710.9992757134604" width="10.430572716153826" height="9.82795701730716" fill="#e0aaff" opacity="0.2137522331820224" rx="1"/><rect x="33.46264817017657" y="779.6307835214843" width="9.078288019885843" height="6.139878766643786" fill="#c77dff" opacity="0.18648839350475194" rx="1"/><rect x="25.249693128920555" y="782.7007229048062" width="9.078288019885843" height="6.139878766643786" fill="#e0aaff" opacity="0.09324419675237597" rx="1"/><rect x="35.28389107489117" y="853.1762698381619" width="5.435802210456646" height="8.812780719905343" fill="#c77dff" opacity="0.2394297837138711" rx="1"/><rect x="27.070936033635153" y="857.5826601981146" width="5.435802210456646" height="8.812780719905343" fill="#e0aaff" opacity="0.11971489185693555" rx="1"/><rect x="104.32553924720864" y="641.9033928173369" width="70.42238121396451" height="274.81836333750243" fill="#3c096c" opacity="0.6455663318619054" rx="2"/><rect x="134.00224666181072" y="651.9033928173369" width="11.06896638476033" height="7.324163296568246" fill="#c77dff" opacity="0.29181672860677743" rx="1"/><rect x="116.3966513583196" y="655.565474465621" width="11.06896638476033" height="7.324163296568246" fill="#e0aaff" opacity="0.14590836430338872" rx="1"/><rect x="136.04075772618893" y="686.2556882345248" width="6.991944256003933" height="6.272721855033357" fill="#c77dff" opacity="0.517540954406732" rx="1"/><rect x="118.4351624226978" y="689.3920491620414" width="6.991944256003933" height="6.272721855033357" fill="#e0aaff" opacity="0.258770477203366" rx="1"/><rect x="137.50463269709252" y="720.6079836517125" width="4.064194314196751" height="7.625410887791173" fill="#c77dff" opacity="0.1226609361177918" rx="1"/><rect x="119.89903739360139" y="724.420689095608" width="4.064194314196751" height="7.625410887791173" fill="#e0aaff" opacity="0.0613304680588959" rx="1"/><rect x="135.73870372137492" y="754.9602790689003" width="7.596052265631979" height="9.548301370709273" fill="#c77dff" opacity="0.5870357608858113" rx="1"/><rect x="118.13310841788378" y="759.7344297542548" width="7.596052265631979" height="9.548301370709273" fill="#e0aaff" opacity="0.29351788044290567" rx="1"/><rect x="134.91486271934465" y="789.3125744860881" width="9.2437342696925" height="9.26874007547012" fill="#c77dff" opacity="0.36906283927826744" rx="1"/><rect x="117.30926741585351" y="793.9469445238232" width="9.2437342696925" height="9.26874007547012" fill="#e0aaff" opacity="0.18453141963913372" rx="1"/><rect x="135.99383577448174" y="823.664869903276" width="7.085788159418336" height="6.599497340759146" fill="#c77dff" opacity="0.5784206647841308" rx="1"/><rect x="118.3882404709906" y="826.9646185736556" width="7.085788159418336" height="6.599497340759146" fill="#e0aaff" opacity="0.2892103323920654" rx="1"/><rect x="134.63676120798027" y="858.0171653204637" width="9.799937292421223" height="9.850559828768148" fill="#c77dff" opacity="0.507818597952793" rx="1"/><rect x="117.03116590448916" y="862.9424452348478" width="9.799937292421223" height="9.850559828768148" fill="#e0aaff" opacity="0.2539092989763965" rx="1"/><rect x="136.4579145287764" y="892.3694607376515" width="6.157630650828972" height="9.199747805297315" fill="#c77dff" opacity="0.30402759085503117" rx="1"/><rect x="118.85231922528529" y="896.9693346403002" width="6.157630650828972" height="9.199747805297315" fill="#e0aaff" opacity="0.15201379542751559" rx="1"/><rect x="218.11105684333273" y="560.3780247411639" width="77.73857207217686" height="356.3437314136754" fill="#220052" opacity="0.5109466008401817" rx="2"/><rect x="254.08415634489717" y="570.3780247411639" width="5.792373069048015" height="9.110354088971008" fill="#c77dff" opacity="0.2899862611177345" rx="1"/><rect x="234.64951332685294" y="574.9332017856494" width="5.792373069048015" height="9.110354088971008" fill="#e0aaff" opacity="0.14499313055886726" rx="1"/><rect x="251.74195442412562" y="614.9209911678734" width="10.47677691059112" height="6.4363613790917125" fill="#c77dff" opacity="0.5633333788866488" rx="1"/><rect x="232.3073114060814" y="618.1391718574192" width="10.47677691059112" height="6.4363613790917125" fill="#e0aaff" opacity="0.2816666894433244" rx="1"/><rect x="254.3414766698474" y="659.4639575945828" width="5.27773241914756" height="9.35655962474564" fill="#c77dff" opacity="0.36659402909376515" rx="1"/><rect x="234.90683365180317" y="664.1422374069556" width="5.27773241914756" height="9.35655962474564" fill="#e0aaff" opacity="0.18329701454688258" rx="1"/><rect x="251.24349729303356" y="704.0069240212922" width="11.473691172775276" height="7.9281111829746775" fill="#c77dff" opacity="0.3326986853109437" rx="1"/><rect x="231.80885427498933" y="707.9709796127795" width="11.473691172775276" height="7.9281111829746775" fill="#e0aaff" opacity="0.16634934265547185" rx="1"/><rect x="253.0547332493716" y="748.5498904480016" width="7.851219260099162" height="7.3257624482097485" fill="#c77dff" opacity="0.15942412863006447" rx="1"/><rect x="233.62009023132737" y="752.2127716721066" width="7.851219260099162" height="7.3257624482097485" fill="#e0aaff" opacity="0.07971206431503224" rx="1"/><rect x="252.5705957942574" y="793.0928568747111" width="8.819494170327552" height="7.857742995456267" fill="#c77dff" opacity="0.35801657868037384" rx="1"/><rect x="233.13595277621317" y="797.0217283724392" width="8.819494170327552" height="7.857742995456267" fill="#e0aaff" opacity="0.17900828934018692" rx="1"/><rect x="252.97248625847806" y="837.6358233014205" width="8.015713241886282" height="8.264346727697259" fill="#c77dff" opacity="0.1911762560930048" rx="1"/><rect x="233.53784324043383" y="841.7679966652692" width="8.015713241886282" height="8.264346727697259" fill="#e0aaff" opacity="0.0955881280465024" rx="1"/><rect x="252.83707496799462" y="882.1787897281299" width="8.286535822853105" height="9.500226627918945" fill="#c77dff" opacity="0.3323227775591246" rx="1"/><rect x="233.4024319499504" y="886.9289030420894" width="8.286535822853105" height="9.500226627918945" fill="#e0aaff" opacity="0.1661613887795623" rx="1"/><rect x="301.61351392316016" y="661.7124816313648" width="78.07291829680858" height="255.0092745234746" fill="#220052" opacity="0.4981427474641574" rx="2"/><rect x="334.99742664257" y="671.7124816313648" width="11.305092857988805" height="7.460803893734888" fill="#c77dff" opacity="0.11474080118693897" rx="1"/><rect x="315.4791970683679" y="675.4428835782322" width="11.305092857988805" height="7.460803893734888" fill="#e0aaff" opacity="0.057370400593469484" rx="1"/><rect x="337.3197549675404" y="735.4648002622334" width="6.660436208048006" height="8.440257730530636" fill="#c77dff" opacity="0.31647942408837365" rx="1"/><rect x="317.8015253933383" y="739.6849291274988" width="6.660436208048006" height="8.440257730530636" fill="#e0aaff" opacity="0.15823971204418683" rx="1"/><rect x="337.02319553960655" y="799.2171188931021" width="7.253555063915801" height="6.430769004028004" fill="#c77dff" opacity="0.13608448897397252" rx="1"/><rect x="317.50496596540444" y="802.4325033951161" width="7.253555063915801" height="6.430769004028004" fill="#e0aaff" opacity="0.06804224448698626" rx="1"/><rect x="335.8378319206735" y="862.9694375239708" width="9.624282301781765" height="7.956625665062253" fill="#c77dff" opacity="0.3851036783040277" rx="1"/><rect x="316.3196023464714" y="866.947750356502" width="9.624282301781765" height="7.956625665062253" fill="#e0aaff" opacity="0.19255183915201385" rx="1"/><rect x="397.6695627597323" y="554.0235682982075" width="53.3366953822171" height="362.6981878566319" fill="#3c096c" opacity="0.5410932460429829" rx="2"/><rect x="418.60841667270483" y="564.0235682982075" width="11.45898755627195" height="8.737520342398788" fill="#c77dff" opacity="0.10338195450682705" rx="1"/><rect x="405.2742428271506" y="568.3923284694068" width="11.45898755627195" height="8.737520342398788" fill="#e0aaff" opacity="0.051690977253413525" rx="1"/><rect x="419.6424726919835" y="636.5632058695338" width="9.390875517714507" height="6.825308455346457" fill="#c77dff" opacity="0.5187477038751235" rx="1"/><rect x="406.3082988464293" y="639.975860097207" width="9.390875517714507" height="6.825308455346457" fill="#e0aaff" opacity="0.25937385193756174" rx="1"/><rect x="420.36531611004966" y="709.1028434408602" width="7.945188681582266" height="8.841488512894486" fill="#c77dff" opacity="0.30287489348623786" rx="1"/><rect x="407.03114226449543" y="713.5235876973074" width="7.945188681582266" height="8.841488512894486" fill="#e0aaff" opacity="0.15143744674311893" rx="1"/><rect x="421.26988111023553" y="781.6424810121866" width="6.136058681210517" height="6.735302962533967" fill="#c77dff" opacity="0.3945341866683527" rx="1"/><rect x="407.9357072646813" y="785.0101324934536" width="6.136058681210517" height="6.735302962533967" fill="#e0aaff" opacity="0.19726709333417636" rx="1"/><rect x="422.11034508028774" y="854.182118583513" width="4.455130741106144" height="6.080896218326151" fill="#c77dff" opacity="0.43284170351290185" rx="1"/><rect x="408.7761712347335" y="857.2225666926761" width="4.455130741106144" height="6.080896218326151" fill="#e0aaff" opacity="0.21642085175645093" rx="1"/><rect x="498.5041106092986" y="572.3512243880776" width="43.45218919996456" height="344.3705317667617" fill="#3c096c" opacity="0.5403341180273178" rx="2"/><rect x="518.132015329118" y="582.3512243880776" width="4.196379760325975" height="7.016104945218215" fill="#c77dff" opacity="0.2283403144051182" rx="1"/><rect x="507.26896802912677" y="585.8592768606867" width="4.196379760325975" height="7.016104945218215" fill="#e0aaff" opacity="0.1141701572025591" rx="1"/><rect x="515.8525765591424" y="697.1414016436648" width="8.755257300277068" height="6.799582267366253" fill="#c77dff" opacity="0.5486427170803404" rx="1"/><rect x="504.9895292591512" y="700.541192777348" width="8.755257300277068" height="6.799582267366253" fill="#e0aaff" opacity="0.2743213585401702" rx="1"/><rect x="514.2923203495546" y="811.9315788992521" width="11.875769719452544" height="7.650841003668225" fill="#c77dff" opacity="0.27207413764485955" rx="1"/><rect x="503.42927304956345" y="815.7569994010862" width="11.875769719452544" height="7.650841003668225" fill="#e0aaff" opacity="0.13603706882242977" rx="1"/><rect x="590.528748354532" y="789.2139580075661" width="88.9092460365289" height="127.5077981472732" fill="#3c096c" opacity="0.5153989132995249" rx="2"/><rect x="630.0573746969592" y="799.2139580075661" width="9.851993351674636" height="8.995519011047557" fill="#c77dff" opacity="0.2570395193195528" rx="1"/><rect x="607.830063187827" y="803.7117175130899" width="9.851993351674636" height="8.995519011047557" fill="#e0aaff" opacity="0.1285197596597764" rx="1"/><rect x="632.6374301169155" y="820.4652576987784" width="4.691882511761944" height="8.020217142538218" fill="#c77dff" opacity="0.1687039236232415" rx="1"/><rect x="610.4101186077834" y="824.4753662700475" width="4.691882511761944" height="8.020217142538218" fill="#e0aaff" opacity="0.08435196181162075" rx="1"/><rect x="631.0402449015621" y="841.7165573899905" width="7.886252942468564" height="9.31069374627217" fill="#c77dff" opacity="0.42648260887397516" rx="1"/><rect x="608.81293339243" y="846.3719042631266" width="7.886252942468564" height="9.31069374627217" fill="#e0aaff" opacity="0.21324130443698758" rx="1"/><rect x="629.0529872984749" y="862.9678570812027" width="11.860768148643142" height="6.403798966762563" fill="#c77dff" opacity="0.46652074436808955" rx="1"/><rect x="606.8256757893428" y="866.169756564584" width="11.860768148643142" height="6.403798966762563" fill="#e0aaff" opacity="0.23326037218404477" rx="1"/><rect x="631.8624175695847" y="884.219156772415" width="6.241907606423345" height="6.406104302128336" fill="#c77dff" opacity="0.11860223536347092" rx="1"/><rect x="609.6351060604526" y="887.4222089234792" width="6.241907606423345" height="6.406104302128336" fill="#e0aaff" opacity="0.05930111768173546" rx="1"/><rect x="632.1965725135982" y="905.4704564636271" width="5.573597718396596" height="9.220789505918694" fill="#c77dff" opacity="0.18224017372872686" rx="1"/><rect x="609.969261004466" y="910.0808512165864" width="5.573597718396596" height="9.220789505918694" fill="#e0aaff" opacity="0.09112008686436343" rx="1"/><rect x="691.037877956647" y="587.2318059641942" width="57.337538629616034" height="329.4899501906451" fill="#3c096c" opacity="0.4951636026136493" rx="2"/><rect x="716.8814196353503" y="597.2318059641942" width="5.650455272209471" height="7.294051960411959" fill="#c77dff" opacity="0.2715135487428665" rx="1"/><rect x="702.5470349779463" y="600.8788319444002" width="5.650455272209471" height="7.294051960411959" fill="#e0aaff" opacity="0.13575677437143324" rx="1"/><rect x="715.525494574226" y="663.1297960023232" width="8.36230539445819" height="7.57505023981795" fill="#c77dff" opacity="0.1423259288171134" rx="1"/><rect x="701.1911099168219" y="666.9173211222322" width="8.36230539445819" height="7.57505023981795" fill="#e0aaff" opacity="0.0711629644085567" rx="1"/><rect x="717.2366459277079" y="729.0277860404523" width="4.940002687494271" height="7.903404027666758" fill="#c77dff" opacity="0.43395615320977665" rx="1"/><rect x="702.9022612703038" y="732.9794880542856" width="4.940002687494271" height="7.903404027666758" fill="#e0aaff" opacity="0.21697807660488833" rx="1"/><rect x="716.6149045311881" y="794.9257760785813" width="6.183485480533793" height="8.139381308606682" fill="#c77dff" opacity="0.4680335618248288" rx="1"/><rect x="702.2805198737841" y="798.9954667328847" width="6.183485480533793" height="8.139381308606682" fill="#e0aaff" opacity="0.2340167809124144" rx="1"/><rect x="715.7589646761211" y="860.8237661167103" width="7.895365190667883" height="6.54928833910946" fill="#c77dff" opacity="0.4780138067384283" rx="1"/><rect x="701.424580018717" y="864.098410286265" width="7.895365190667883" height="6.54928833910946" fill="#e0aaff" opacity="0.23900690336921415" rx="1"/><rect x="775.114599500111" y="764.2370260004506" width="73.53855797172025" height="152.48473015438876" fill="#220052" opacity="0.487506843169105" rx="2"/><rect x="807.4122537449962" y="774.2370260004506" width="8.943249481949781" height="6.6923103566962086" fill="#c77dff" opacity="0.5256177019387525" rx="1"/><rect x="789.0276142520662" y="777.5831811787987" width="8.943249481949781" height="6.6923103566962086" fill="#e0aaff" opacity="0.26280885096937623" rx="1"/><rect x="808.4515144465146" y="804.7339720313283" width="6.864728078913114" height="6.069091953353279" fill="#c77dff" opacity="0.5863342462308552" rx="1"/><rect x="790.0668749535846" y="807.768518008005" width="6.864728078913114" height="6.069091953353279" fill="#e0aaff" opacity="0.2931671231154276" rx="1"/><rect x="808.6375990849076" y="835.230918062206" width="6.4925588021270375" height="7.060101102353097" fill="#c77dff" opacity="0.23913456446936693" rx="1"/><rect x="790.2529595919776" y="838.7609686133826" width="6.4925588021270375" height="7.060101102353097" fill="#e0aaff" opacity="0.11956728223468346" rx="1"/><rect x="807.1439648038112" y="865.7278640930838" width="9.479827364319895" height="8.38932001087566" fill="#c77dff" opacity="0.4140670669530675" rx="1"/><rect x="788.7593253108812" y="869.9225240985216" width="9.479827364319895" height="8.38932001087566" fill="#e0aaff" opacity="0.20703353347653375" rx="1"/><rect x="809.024345621938" y="896.2248101239616" width="5.719065728066272" height="9.475838284817486" fill="#c77dff" opacity="0.38989244375608223" rx="1"/><rect x="790.639706129008" y="900.9627292663703" width="5.719065728066272" height="9.475838284817486" fill="#e0aaff" opacity="0.19494622187804111" rx="1"/><rect x="869.5998624012806" y="775.587662932367" width="57.2384645061657" height="141.13409322247236" fill="#220052" opacity="0.6962197791310538" rx="2"/><rect x="895.6803844502849" y="785.587662932367" width="5.077420408157031" height="6.342613125299712" fill="#c77dff" opacity="0.10754590507306762" rx="1"/><rect x="881.3707683237435" y="788.7589694950169" width="5.077420408157031" height="6.342613125299712" fill="#e0aaff" opacity="0.05377295253653381" rx="1"/><rect x="894.113329892306" y="813.8144815768615" width="8.211529524114805" height="8.163042924870513" fill="#c77dff" opacity="0.4458974179452978" rx="1"/><rect x="879.8037137657645" y="817.8960030392967" width="8.211529524114805" height="8.163042924870513" fill="#e0aaff" opacity="0.2229487089726489" rx="1"/><rect x="892.4394533865711" y="842.041300221356" width="11.559282535584476" height="9.661482244651179" fill="#c77dff" opacity="0.2836397914876323" rx="1"/><rect x="878.1298372600297" y="846.8720413436815" width="11.559282535584476" height="9.661482244651179" fill="#e0aaff" opacity="0.14181989574381615" rx="1"/><rect x="893.6895630379883" y="870.2681188658505" width="9.059063232750415" height="9.153690427344685" fill="#c77dff" opacity="0.4345529198028504" rx="1"/><rect x="879.3799469114468" y="874.8449640795228" width="9.059063232750415" height="9.153690427344685" fill="#e0aaff" opacity="0.2172764599014252" rx="1"/><rect x="893.1936739078243" y="898.4949375103449" width="10.050841493078238" height="8.106005475415383" fill="#c77dff" opacity="0.1192405117021968" rx="1"/><rect x="878.8840577812829" y="902.5479402480527" width="10.050841493078238" height="8.106005475415383" fill="#e0aaff" opacity="0.0596202558510984" rx="1"/><rect x="960.3671450657694" y="607.7985660889648" width="71.23877814999753" height="308.92319006587456" fill="#220052" opacity="0.4574098638858204" rx="2"/><rect x="990.1486034018799" y="617.7985660889648" width="11.675861477776397" height="8.241915587857811" fill="#c77dff" opacity="0.5663168524779186" rx="1"/><rect x="972.3389088643805" y="621.9195238828937" width="11.675861477776397" height="8.241915587857811" fill="#e0aaff" opacity="0.2831584262389593" rx="1"/><rect x="990.3237668590908" y="720.7729627775897" width="11.325534563354573" height="7.172002665971407" fill="#c77dff" opacity="0.11856341073721727" rx="1"/><rect x="972.5140723215915" y="724.3589641105754" width="11.325534563354573" height="7.172002665971407" fill="#e0aaff" opacity="0.059281705368608634" rx="1"/><rect x="991.7518431331849" y="823.7473594662144" width="8.469382015166195" height="6.351481505751489" fill="#c77dff" opacity="0.293172013315645" rx="1"/><rect x="973.9421485956856" y="826.9231002190902" width="8.469382015166195" height="6.351481505751489" fill="#e0aaff" opacity="0.1465860066578225" rx="1"/><rect x="1067.689739635142" y="825.4962224106994" width="68.62353975852568" height="91.22553374413995" fill="#220052" opacity="0.6697318639302934" rx="2"/><rect x="1099.268899179592" y="835.4962224106994" width="5.465220669625611" height="6.6887385995799535" fill="#c77dff" opacity="0.5336748641062702" rx="1"/><rect x="1082.1130142399606" y="838.8405917104893" width="5.465220669625611" height="6.6887385995799535" fill="#e0aaff" opacity="0.2668374320531351" rx="1"/><rect x="1097.9087378086774" y="848.528441517005" width="8.185543411454546" height="9.824728339869699" fill="#c77dff" opacity="0.2110221077946532" rx="1"/><rect x="1080.7528528690461" y="853.4408056869399" width="8.185543411454546" height="9.824728339869699" fill="#e0aaff" opacity="0.1055110538973266" rx="1"/><rect x="1098.101796026598" y="861.5606606233108" width="7.7994269756133265" height="7.1364144489952395" fill="#c77dff" opacity="0.2687002659702441" rx="1"/><rect x="1080.9459110869668" y="865.1288678478085" width="7.7994269756133265" height="7.1364144489952395" fill="#e0aaff" opacity="0.13435013298512205" rx="1"/><rect x="1099.4110521875346" y="874.5928797296165" width="5.180914653740105" height="8.803309243825103" fill="#c77dff" opacity="0.2606255144953321" rx="1"/><rect x="1082.2551672479033" y="878.9945343515291" width="5.180914653740105" height="8.803309243825103" fill="#e0aaff" opacity="0.13031275724766606" rx="1"/><rect x="1097.19570696731" y="887.6250988359222" width="9.611605094189663" height="9.879468115018557" fill="#c77dff" opacity="0.12206248837105522" rx="1"/><rect x="1080.0398220276786" y="892.5648328934316" width="9.611605094189663" height="9.879468115018557" fill="#e0aaff" opacity="0.06103124418552761" rx="1"/><rect x="1096.0936308631424" y="900.6573179422279" width="11.815757302524466" height="6.170592187012218" fill="#c77dff" opacity="0.22223101514909208" rx="1"/><rect x="1078.937745923511" y="903.742614035734" width="11.815757302524466" height="6.170592187012218" fill="#e0aaff" opacity="0.11111550757454604" rx="1"/><rect x="1097.3058436942067" y="913.6895370485336" width="9.39133164039611" height="7.332514977392861" fill="#c77dff" opacity="0.27085424488663074" rx="1"/><rect x="1080.1499587545754" y="917.3557945372299" width="9.39133164039611" height="7.332514977392861" fill="#e0aaff" opacity="0.13542712244331537" rx="1"/><rect x="1173.7182355284965" y="812.9825700104661" width="83.98041562037086" height="103.73918614437319" fill="#3c096c" opacity="0.40459717256124067" rx="2"/><rect x="1211.7964194260528" y="822.9825700104661" width="7.824047825258236" height="9.110897367613134" fill="#c77dff" opacity="0.1478016281378925" rx="1"/><rect x="1190.80131552096" y="827.5380186942728" width="7.824047825258236" height="9.110897367613134" fill="#e0aaff" opacity="0.07390081406894625" rx="1"/><rect x="1212.019203883833" y="837.8024537453766" width="7.378478909697961" height="8.920621798122447" fill="#c77dff" opacity="0.5250684132392212" rx="1"/><rect x="1191.0240999787402" y="842.2627646444379" width="7.378478909697961" height="8.920621798122447" fill="#e0aaff" opacity="0.2625342066196106" rx="1"/><rect x="1211.6041459423964" y="852.622337480287" width="8.208594792571057" height="7.510032749155078" fill="#c77dff" opacity="0.10768709962900894" rx="1"/><rect x="1190.6090420373037" y="856.3773538548645" width="8.208594792571057" height="7.510032749155078" fill="#e0aaff" opacity="0.05384354981450447" rx="1"/><rect x="1212.9737619752934" y="867.4422212151975" width="5.469362726777177" height="9.737823396860115" fill="#c77dff" opacity="0.29728663556680235" rx="1"/><rect x="1191.9786580702007" y="872.3111329136276" width="5.469362726777177" height="9.737823396860115" fill="#e0aaff" opacity="0.14864331778340117" rx="1"/><rect x="1211.4820954903219" y="882.262104950108" width="8.452695696720085" height="8.909220811656962" fill="#c77dff" opacity="0.29150575801998047" rx="1"/><rect x="1190.4869915852291" y="886.7167153559365" width="8.452695696720085" height="8.909220811656962" fill="#e0aaff" opacity="0.14575287900999023" rx="1"/><rect x="1212.3822802699594" y="897.0819886850184" width="6.652326137445012" height="7.129436984921209" fill="#c77dff" opacity="0.22114375308648304" rx="1"/><rect x="1191.3871763648667" y="900.646707177479" width="6.652326137445012" height="7.129436984921209" fill="#e0aaff" opacity="0.11057187654324152" rx="1"/><rect x="1211.4936263115362" y="911.9018724199288" width="8.429634054291443" height="6.505068358151491" fill="#c77dff" opacity="0.5364820164480437" rx="1"/><rect x="1190.4985224064435" y="915.1544065990046" width="8.429634054291443" height="6.505068358151491" fill="#e0aaff" opacity="0.26824100822402186" rx="1"/><rect x="1252.8781531152497" y="687.8457964369668" width="51.33186908935473" height="228.87595971787255" fill="#3c096c" opacity="0.48656244331192283" rx="2"/><rect x="1275.6233294505214" y="697.8457964369668" width="5.8415164188112865" height="6.499428608571046" fill="#c77dff" opacity="0.5029508529703484" rx="1"/><rect x="1262.7903621781827" y="701.0955107412523" width="5.8415164188112865" height="6.499428608571046" fill="#e0aaff" opacity="0.2514754264851742" rx="1"/><rect x="1275.8550384512298" y="774.137783009591" width="5.378098417394352" height="6.572518745570564" fill="#c77dff" opacity="0.5180448839715787" rx="1"/><rect x="1263.022071178891" y="777.4240423823762" width="5.378098417394352" height="6.572518745570564" fill="#e0aaff" opacity="0.25902244198578933" rx="1"/><rect x="1274.5027704042157" y="850.4297695822152" width="8.08263451142298" height="7.497952985926055" fill="#c77dff" opacity="0.42837435075276864" rx="1"/><rect x="1261.669803131877" y="854.1787460751782" width="8.08263451142298" height="7.497952985926055" fill="#e0aaff" opacity="0.21418717537638432" rx="1"/><rect x="1363.1162165089315" y="712.4340357753528" width="45.43938995698453" height="204.28772037948661" fill="#220052" opacity="0.6307031594986802" rx="2"/><rect x="1382.0447195104894" y="722.4340357753528" width="7.582383953868966" height="8.00392970675694" fill="#c77dff" opacity="0.5007726049518149" rx="1"/><rect x="1370.684872021243" y="726.4360006287312" width="7.582383953868966" height="8.00392970675694" fill="#e0aaff" opacity="0.25038630247590743" rx="1"/><rect x="1381.786574260049" y="751.6179958295651" width="8.098674454749254" height="7.55685414782652" fill="#c77dff" opacity="0.40380081706768856" rx="1"/><rect x="1370.4267267708028" y="755.3964229034783" width="8.098674454749254" height="7.55685414782652" fill="#e0aaff" opacity="0.20190040853384428" rx="1"/><rect x="1382.5146831282216" y="780.8019558837775" width="6.642456718404418" height="6.237338512259847" fill="#c77dff" opacity="0.4417905572200638" rx="1"/><rect x="1371.1548356389753" y="783.9206251399074" width="6.642456718404418" height="6.237338512259847" fill="#e0aaff" opacity="0.2208952786100319" rx="1"/><rect x="1382.8066197931316" y="809.9859159379898" width="6.058583388584337" height="6.303929309431447" fill="#c77dff" opacity="0.47870937932252633" rx="1"/><rect x="1371.4467723038854" y="813.1378805927055" width="6.058583388584337" height="6.303929309431447" fill="#e0aaff" opacity="0.23935468966126316" rx="1"/><rect x="1381.0201357505332" y="839.1698759922023" width="9.63155147378136" height="9.615883272983107" fill="#c77dff" opacity="0.25319256918811994" rx="1"/><rect x="1369.660288261287" y="843.9778176286939" width="9.63155147378136" height="9.615883272983107" fill="#e0aaff" opacity="0.12659628459405997" rx="1"/><rect x="1383.326786261128" y="868.3538360464146" width="5.01825045259163" height="7.15195733242481" fill="#c77dff" opacity="0.16029410382273934" rx="1"/><rect x="1371.9669387718818" y="871.929814712627" width="5.01825045259163" height="7.15195733242481" fill="#e0aaff" opacity="0.08014705191136967" rx="1"/><rect x="1380.4244226397539" y="897.537796100627" width="10.822977695340054" height="6.570609538948771" fill="#c77dff" opacity="0.22705320786383312" rx="1"/><rect x="1369.0645751505076" y="900.8231008701014" width="10.822977695340054" height="6.570609538948771" fill="#e0aaff" opacity="0.11352660393191656" rx="1"/><rect x="1467.1007403445199" y="803.9435741035136" width="75.94096106615405" height="112.77818205132573" fill="#3c096c" opacity="0.575209089875037" rx="2"/><rect x="1499.449180849001" y="813.9435741035136" width="11.244080057191681" height="9.075612614647396" fill="#c77dff" opacity="0.28827940108912986" rx="1"/><rect x="1480.4639405824626" y="818.4813804108372" width="11.244080057191681" height="9.075612614647396" fill="#e0aaff" opacity="0.14413970054456493" rx="1"/><rect x="1499.4989476531043" y="836.4992105137787" width="11.144546448985242" height="7.205868208130325" fill="#c77dff" opacity="0.45394855934519984" rx="1"/><rect x="1480.5137073865658" y="840.1021446178439" width="11.144546448985242" height="7.205868208130325" fill="#e0aaff" opacity="0.22697427967259992" rx="1"/><rect x="1500.6474118711537" y="859.0548469240439" width="8.847618012886405" height="9.025520447414722" fill="#c77dff" opacity="0.49566377571217335" rx="1"/><rect x="1481.6621716046152" y="863.5676071477512" width="8.847618012886405" height="9.025520447414722" fill="#e0aaff" opacity="0.24783188785608667" rx="1"/><rect x="1502.1876085063413" y="881.610483334309" width="5.7672247425111065" height="9.072370200201956" fill="#c77dff" opacity="0.22511599171560165" rx="1"/><rect x="1483.2023682398028" y="886.14666843441" width="5.7672247425111065" height="9.072370200201956" fill="#e0aaff" opacity="0.11255799585780082" rx="1"/><rect x="1501.0734498980626" y="904.1661197445742" width="7.995541959068632" height="6.800775003805937" fill="#c77dff" opacity="0.43374386684357746" rx="1"/><rect x="1482.088209631524" y="907.5665072464772" width="7.995541959068632" height="6.800775003805937" fill="#e0aaff" opacity="0.21687193342178873" rx="1"/><rect x="1538.1347696804755" y="679.6552666415589" width="56.76396593143325" height="237.06648951328043" fill="#3c096c" opacity="0.4853086627287112" rx="2"/><rect x="1562.8051033787906" y="689.6552666415589" width="7.423298534802929" height="7.485567513267874" fill="#c77dff" opacity="0.4423254204314029" rx="1"/><rect x="1548.6141118959324" y="693.3980503981928" width="7.423298534802929" height="7.485567513267874" fill="#e0aaff" opacity="0.22116271021570144" rx="1"/><rect x="1563.3399553146073" y="719.288577830719" width="6.353594663169606" height="6.561835805084984" fill="#c77dff" opacity="0.16671150880090696" rx="1"/><rect x="1549.1489638317491" y="722.5694957332614" width="6.353594663169606" height="6.561835805084984" fill="#e0aaff" opacity="0.08335575440045348" rx="1"/><rect x="1564.3113356929532" y="748.921889019879" width="4.410833906477977" height="9.24956917000226" fill="#c77dff" opacity="0.1650447119411651" rx="1"/><rect x="1550.120344210095" y="753.5466736048802" width="4.410833906477977" height="9.24956917000226" fill="#e0aaff" opacity="0.08252235597058255" rx="1"/><rect x="1563.0537298866673" y="778.5552002090391" width="6.926045519049756" height="6.027672045870608" fill="#c77dff" opacity="0.5316489203906732" rx="1"/><rect x="1548.862738403809" y="781.5690362319743" width="6.926045519049756" height="6.027672045870608" fill="#e0aaff" opacity="0.2658244601953366" rx="1"/><rect x="1563.2599827820109" y="808.1885113981991" width="6.513539728362472" height="7.214187698721464" fill="#c77dff" opacity="0.48781858221344154" rx="1"/><rect x="1549.0689912991527" y="811.7956052475598" width="6.513539728362472" height="7.214187698721464" fill="#e0aaff" opacity="0.24390929110672077" rx="1"/><rect x="1562.8866416862902" y="837.8218225873592" width="7.260221919803932" height="7.106472986076603" fill="#c77dff" opacity="0.362853837400408" rx="1"/><rect x="1548.695650203432" y="841.3750590803975" width="7.260221919803932" height="7.106472986076603" fill="#e0aaff" opacity="0.181426918700204" rx="1"/><rect x="1561.3238366954781" y="867.4551337765192" width="10.385831901427785" height="6.001635421067857" fill="#c77dff" opacity="0.15243528845078202" rx="1"/><rect x="1547.13284521262" y="870.4559514870532" width="10.385831901427785" height="6.001635421067857" fill="#e0aaff" opacity="0.07621764422539101" rx="1"/><rect x="1561.4724160517735" y="897.0884449656793" width="10.0886731888374" height="8.6458274001828" fill="#c77dff" opacity="0.4068493750893626" rx="1"/><rect x="1547.2814245689153" y="901.4113586657706" width="10.0886731888374" height="8.6458274001828" fill="#e0aaff" opacity="0.2034246875446813" rx="1"/><rect x="1638.5856405712166" y="596.0497661950183" width="57.32492559759993" height="320.6719899598211" fill="#220052" opacity="0.5519814151693092" rx="2"/><rect x="1662.8039839914543" y="606.0497661950183" width="8.888238757124226" height="7.3152866478346485" fill="#c77dff" opacity="0.16594143122572952" rx="1"/><rect x="1648.4727525920543" y="609.7074095189356" width="8.888238757124226" height="7.3152866478346485" fill="#e0aaff" opacity="0.08297071561286476" rx="1"/><rect x="1661.3324867077945" y="646.1337649399959" width="11.831233324443744" height="8.006531250198961" fill="#c77dff" opacity="0.3590229892542174" rx="1"/><rect x="1647.0012553083945" y="650.1370305650954" width="11.831233324443744" height="8.006531250198961" fill="#e0aaff" opacity="0.1795114946271087" rx="1"/><rect x="1661.3516040212362" y="686.2177636849735" width="11.792998697560513" height="7.554227625381721" fill="#c77dff" opacity="0.4029507363221959" rx="1"/><rect x="1647.0203726218363" y="689.9948774976644" width="11.792998697560513" height="7.554227625381721" fill="#e0aaff" opacity="0.20147536816109796" rx="1"/><rect x="1661.3347516572883" y="726.3017624299512" width="11.826703425456468" height="6.8936922179753175" fill="#c77dff" opacity="0.2693953499592364" rx="1"/><rect x="1647.0035202578883" y="729.7486085389388" width="11.826703425456468" height="6.8936922179753175" fill="#e0aaff" opacity="0.1346976749796182" rx="1"/><rect x="1661.7202923178488" y="766.3857611749288" width="11.055622104335487" height="9.665228915322858" fill="#c77dff" opacity="0.2548321840015315" rx="1"/><rect x="1647.3890609184489" y="771.2183756325902" width="11.055622104335487" height="9.665228915322858" fill="#e0aaff" opacity="0.12741609200076576" rx="1"/><rect x="1664.812955135436" y="806.4697599199064" width="4.87029646916089" height="9.166042860403202" fill="#c77dff" opacity="0.2997821185970172" rx="1"/><rect x="1650.481723736036" y="811.052781350108" width="4.87029646916089" height="9.166042860403202" fill="#e0aaff" opacity="0.1498910592985086" rx="1"/><rect x="1661.4123593215859" y="846.5537586648841" width="11.67148809686105" height="8.610396912929229" fill="#c77dff" opacity="0.4075020982202846" rx="1"/><rect x="1647.081127922186" y="850.8589571213487" width="11.67148809686105" height="8.610396912929229" fill="#e0aaff" opacity="0.2037510491101423" rx="1"/><rect x="1663.5676612953114" y="886.6377574098617" width="7.360884149410037" height="6.3160383320218045" fill="#c77dff" opacity="0.17645140834535739" rx="1"/><rect x="1649.2364298959114" y="889.7957765758727" width="7.360884149410037" height="6.3160383320218045" fill="#e0aaff" opacity="0.08822570417267869" rx="1"/><rect x="1741.18195933783" y="775.5473505183" width="56.94609158368458" height="141.1744056365393" fill="#220052" opacity="0.4860876129674929" rx="2"/><rect x="1766.0780438680847" y="785.5473505183" width="7.153922523174883" height="6.206939940388999" fill="#c77dff" opacity="0.21877113606752158" rx="1"/><rect x="1751.8415209721636" y="788.6508204884946" width="7.153922523174883" height="6.206939940388999" fill="#e0aaff" opacity="0.10938556803376079" rx="1"/><rect x="1766.231156746212" y="805.7151227520914" width="6.847696766920317" height="9.399138219514661" fill="#c77dff" opacity="0.35271679362112585" rx="1"/><rect x="1751.994633850291" y="810.4146918618487" width="6.847696766920317" height="9.399138219514661" fill="#e0aaff" opacity="0.17635839681056292" rx="1"/><rect x="1766.3593501749817" y="825.8828949858827" width="6.591309909380811" height="6.241446880679915" fill="#c77dff" opacity="0.35125822500587867" rx="1"/><rect x="1752.1228272790606" y="829.0036184262226" width="6.591309909380811" height="6.241446880679915" fill="#e0aaff" opacity="0.17562911250293933" rx="1"/><rect x="1764.6211473996798" y="846.0506672196741" width="10.067715459984662" height="8.125479140813807" fill="#c77dff" opacity="0.27786213037973784" rx="1"/><rect x="1750.3846245037587" y="850.113406790081" width="10.067715459984662" height="8.125479140813807" fill="#e0aaff" opacity="0.13893106518986892" rx="1"/><rect x="1764.1992533307518" y="866.2184394534654" width="10.91150359784055" height="6.016843849796999" fill="#c77dff" opacity="0.3553147158481448" rx="1"/><rect x="1749.9627304348307" y="869.2268613783639" width="10.91150359784055" height="6.016843849796999" fill="#e0aaff" opacity="0.1776573579240724" rx="1"/><rect x="1765.240456691999" y="886.3862116872567" width="8.829096875346522" height="9.558952727252374" fill="#c77dff" opacity="0.2325971916393836" rx="1"/><rect x="1751.003933796078" y="891.1656880508829" width="8.829096875346522" height="9.558952727252374" fill="#e0aaff" opacity="0.1162985958196918" rx="1"/><rect x="1766.6978526389453" y="906.553983921048" width="5.914304981453881" height="6.997496490599005" fill="#c77dff" opacity="0.3961463434147058" rx="1"/><rect x="1752.4613297430242" y="910.0527321663475" width="5.914304981453881" height="6.997496490599005" fill="#e0aaff" opacity="0.1980731717073529" rx="1"/><rect x="1841.412852264804" y="600.4551500548737" width="47.54867933633474" height="316.26660609996566" fill="#3c096c" opacity="0.6927038368752003" rx="2"/><rect x="1859.78992533935" y="610.4551500548737" width="10.794533187242815" height="7.646461159374207" fill="#c77dff" opacity="0.5221295830612372" rx="1"/><rect x="1847.9027555052662" y="614.2783806345608" width="10.794533187242815" height="7.646461159374207" fill="#e0aaff" opacity="0.2610647915306186" rx="1"/><rect x="1863.030576436322" y="715.8773520881956" width="4.313230993299101" height="8.670962121959533" fill="#c77dff" opacity="0.5708028129466816" rx="1"/><rect x="1851.1434066022382" y="720.2128331491754" width="4.313230993299101" height="8.670962121959533" fill="#e0aaff" opacity="0.2854014064733408" rx="1"/><rect x="1862.3462937728843" y="821.2995541215174" width="5.681796320174308" height="6.30752561434813" fill="#c77dff" opacity="0.21362869120520278" rx="1"/><rect x="1850.4591239388005" y="824.4533169286915" width="5.681796320174308" height="6.30752561434813" fill="#e0aaff" opacity="0.10681434560260139" rx="1"/><path d="M876.7396677091577 875.2829090634555 Q892.1764985267484 791.5570820138225 895.2638646902666 707.8312549641895" stroke="#00001f" stroke-width="4.670245205208251" fill="none" stroke-linecap="round"/><path d="M895.2638646902666 707.8312549641895 Q928.7114000748172 687.8312549641895 945.2209160512363 707.8312549641895" stroke="#090039" stroke-width="3.8604660061794487" fill="none" stroke-linecap="round" opacity="0.6"/><path d="M895.2638646902666 707.8312549641895 Q911.8016054366535 691.7986898013075 916.3566893884444 715.7661246384256" stroke="#090039" stroke-width="3.0697363924863135" fill="none" stroke-linecap="round" opacity="0.6"/><path d="M895.2638646902666 707.8312549641895 Q907.9913841952277 693.682946232898 886.3597957154097 719.5346375016064" stroke="#090039" stroke-width="2.485047296733839" fill="none" stroke-linecap="round" opacity="0.6"/><path d="M895.2638646902666 707.8312549641895 Q868.1769395061161 692.8115426936924 826.3193711476038 717.7918304231953" stroke="#090039" stroke-width="3.3912228088339846" fill="none" stroke-linecap="round" opacity="0.6"/><path d="M895.2638646902666 707.8312549641895 Q876.985394139592 684.166465693604 844.530442461603 700.5016764230185" stroke="#090039" stroke-width="2.0535428533455224" fill="none" stroke-linecap="round" opacity="0.6"/><path d="M895.2638646902666 707.8312549641895 Q902.3245114247802 682.6072878915637 887.3149553918943 697.3833208189379" stroke="#090039" stroke-width="2.6103825659049633" fill="none" stroke-linecap="round" opacity="0.6"/><path d="M1042.9010383232733 939.267989583143 Q1025.1074944169045 863.1321817899897 1021.5487856356309 786.9963739968363" stroke="#00001f" stroke-width="5.511997737342491" fill="none" stroke-linecap="round"/><path d="M1021.5487856356309 786.9963739968363 Q1069.145657222519 766.9963739968363 1099.5016362870815 786.9963739968363" stroke="#090039" stroke-width="3.749713818484385" fill="none" stroke-linecap="round" opacity="0.6"/><path d="M1021.5487856356309 786.9963739968363 Q1046.1181547428348 775.2798026315224 1065.5875450014223 803.5632312662085" stroke="#090039" stroke-width="3.2066066561282165" fill="none" stroke-linecap="round" opacity="0.6"/><path d="M1021.5487856356309 786.9963739968363 Q1014.6377720946839 776.6531441978954 1006.8548204217842 806.3099143989544" stroke="#090039" stroke-width="3.471487405121207" fill="none" stroke-linecap="round" opacity="0.6"/><path d="M1021.5487856356309 786.9963739968363 Q1012.5296419673216 770.8555804624182 968.12395363849 794.7147869280001" stroke="#090039" stroke-width="3.0734220354523094" fill="none" stroke-linecap="round" opacity="0.6"/><path d="M1021.5487856356309 786.9963739968363 Q1008.6056638002909 762.6002739285129 960.6914799466546 778.2041738601897" stroke="#090039" stroke-width="2.639586442299091" fill="none" stroke-linecap="round" opacity="0.6"/><path d="M1021.5487856356309 786.9963739968363 Q1017.5582796008675 759.1703013379522 1009.6404522056746 771.3442286790682" stroke="#090039" stroke-width="2.024702321743756" fill="none" stroke-linecap="round" opacity="0.6"/><path d="M1451.6356479031117 881.1496973459492 Q1455.1048921130377 757.6619752817 1455.7987409550228 634.1742532174509" stroke="#00001f" stroke-width="6.87908816590884" fill="none" stroke-linecap="round"/><path d="M1455.7987409550228 634.1742532174509 Q1501.475630024326 614.1742532174509 1527.0213255032481 634.1742532174509" stroke="#090039" stroke-width="2.480456939078974" fill="none" stroke-linecap="round" opacity="0.6"/><path d="M1455.7987409550228 634.1742532174509 Q1483.6093141693311 619.5968759110158 1484.6280562621412 645.0194986045806" stroke="#090039" stroke-width="2.2560283053331145" fill="none" stroke-linecap="round" opacity="0.6"/><path d="M1455.7987409550228 634.1742532174509 Q1451.7845683649978 620.6644612419482 1445.9230900948487 647.1546692664456" stroke="#090039" stroke-width="3.2541325318753094" fill="none" stroke-linecap="round" opacity="0.6"/><path d="M1455.7987409550228 634.1742532174509 Q1431.0227477435858 618.7838024712142 1391.9865565950652 643.3933517249776" stroke="#090039" stroke-width="3.7011448116277217" fill="none" stroke-linecap="round" opacity="0.6"/><path d="M1455.7987409550228 634.1742532174509 Q1445.4659810856565 610.6665730396835 1407.2402546785788 627.1588928619161" stroke="#090039" stroke-width="3.7542637218149064" fill="none" stroke-linecap="round" opacity="0.6"/><path d="M1455.7987409550228 634.1742532174509 Q1450.6828760794167 602.5700065472523 1438.1414504371132 610.9657598770538" stroke="#090039" stroke-width="2.040891534192695" fill="none" stroke-linecap="round" opacity="0.6"/><path d="M1455.7987409550228 634.1742532174509 Q1484.5994041487259 609.7609178207429 1479.2621911889385 625.347582424035" stroke="#090039" stroke-width="2.24352349486284" fill="none" stroke-linecap="round" opacity="0.6"/><path d="M1534.8153371212109 932.5608733185942 Q1554.011560169517 838.9776068830345 1557.8508047791781 745.3943404474749" stroke="#00001f" stroke-width="6.134754738336139" fill="none" stroke-linecap="round"/><path d="M1557.8508047791781 745.3943404474749 Q1601.1776267462824 725.3943404474749 1620.8684026000249 745.3943404474749" stroke="#090039" stroke-width="3.993431157430967" fill="none" stroke-linecap="round" opacity="0.6"/><path d="M1557.8508047791781 745.3943404474749 Q1588.6142654910172 732.1282000849712 1593.651297214996 758.8620597224676" stroke="#090039" stroke-width="2.810325807149132" fill="none" stroke-linecap="round" opacity="0.6"/><path d="M1557.8508047791781 745.3943404474749 Q1572.3359524330917 732.5479426691866 1546.9657179425876 759.7015448908982" stroke="#090039" stroke-width="3.6117010702406294" fill="none" stroke-linecap="round" opacity="0.6"/><path d="M1557.8508047791781 745.3943404474749 Q1536.445873508953 730.4041007966413 1488.4983077342195 755.4138611458077" stroke="#090039" stroke-width="2.5388852871346486" fill="none" stroke-linecap="round" opacity="0.6"/><path d="M1557.8508047791781 745.3943404474749 Q1530.6540875615813 720.4694929581628 1489.6737968697653 735.5446454688508" stroke="#090039" stroke-width="2.06982773916559" fill="none" stroke-linecap="round" opacity="0.6"/><path d="M1557.8508047791781 745.3943404474749 Q1560.3419653188603 718.0192907183798 1546.628758286053 730.6442409892849" stroke="#090039" stroke-width="2.3961315877726608" fill="none" stroke-linecap="round" opacity="0.6"/><path d="M1362.0964031112603 828.6803822798377 Q1369.6261123078002 755.2946173365449 1371.1320541471084 681.9088523932521" stroke="#00001f" stroke-width="6.035060888630119" fill="none" stroke-linecap="round"/><path d="M1371.1320541471084 681.9088523932521 Q1402.587689430357 661.9088523932521 1416.5548719359922 681.9088523932521" stroke="#090039" stroke-width="2.538374033416243" fill="none" stroke-linecap="round" opacity="0.6"/><path d="M1371.1320541471084 681.9088523932521 Q1394.8985735410272 669.5720250798089 1411.8732294267052 697.2351977663657" stroke="#090039" stroke-width="3.258202389641246" fill="none" stroke-linecap="round" opacity="0.6"/><path d="M1371.1320541471084 681.9088523932521 Q1387.244644102491 666.7720653789111 1363.7320766234677 691.63527836457" stroke="#090039" stroke-width="3.4316115620153984" fill="none" stroke-linecap="round" opacity="0.6"/><path d="M1371.1320541471084 681.9088523932521 Q1352.0117194375514 664.7537182049597 1331.7492226245226 687.5985840166672" stroke="#090039" stroke-width="3.596628304476996" fill="none" stroke-linecap="round" opacity="0.6"/><path d="M1371.1320541471084 681.9088523932521 Q1343.8242806615563 657.1475805462056 1305.2195017118447 672.3863086991591" stroke="#090039" stroke-width="2.7831922827249373" fill="none" stroke-linecap="round" opacity="0.6"/><path d="M1371.1320541471084 681.9088523932521 Q1383.9320646541241 657.0637812863642 1363.7596817264189 672.2187101794763" stroke="#090039" stroke-width="3.9487577294811507" fill="none" stroke-linecap="round" opacity="0.6"/><path d="M1371.1320541471084 681.9088523932521 Q1393.8489508087962 655.6963644894247 1404.1606793608162 669.4838765855974" stroke="#090039" stroke-width="3.8057688464889696" fill="none" stroke-linecap="round" opacity="0.6"/><rect x="0" y="1000" width="1920" height="80" fill="#160046" opacity="0.8"/><line x1="0" y1="1040" x2="1920" y2="1040" stroke="#c77dff" stroke-opacity="0.15" stroke-width="2" stroke-dasharray="30,20"/><rect x="0" y="930" width="1920" height="150" fill="url(#glow31)"/><rect x="0" y="980" width="1920" height="100" fill="#c77dff" opacity="0.04"/><rect x="507.8532342305065" y="1028.1859813556507" width="43.91586881687768" height="2" fill="#e0aaff" opacity="0.049783728800198004" rx="1"/><rect x="953.6022115483886" y="1029.4795435968506" width="23.892872180764765" height="2" fill="#e0aaff" opacity="0.04304795239657348" rx="1"/><rect x="1525.4616258119843" y="1029.500579072512" width="83.07180830349024" height="2" fill="#e0aaff" opacity="0.04988921058128802" rx="1"/><rect x="987.2188860986425" y="1011.2635289391651" width="115.07647435997531" height="2" fill="#e0aaff" opacity="0.041773943291458754" rx="1"/><rect x="672.7228498535051" y="1015.3428343439807" width="27.967201226383263" height="2" fill="#e0aaff" opacity="0.05742016375004784" rx="1"/><rect x="1245.5357827165944" y="1003.8631993354911" width="106.92975893778022" height="2" fill="#e0aaff" opacity="0.030901694831182644" rx="1"/><rect x="1528.5701652449952" y="1041.6767996739775" width="68.42893335698847" height="2" fill="#e0aaff" opacity="0.05441997430157382" rx="1"/><rect x="152.8429788706924" y="1056.8750036779966" width="112.1153407991201" height="2" fill="#e0aaff" opacity="0.02174659933935539" rx="1"/><rect x="1234.670393158372" y="1052.0924968300603" width="90.80611523026744" height="2" fill="#e0aaff" opacity="0.04870814693828769" rx="1"/><rect x="1713.2907302196347" y="1028.9996094976086" width="45.29926016584487" height="2" fill="#e0aaff" opacity="0.046277813684725624" rx="1"/><rect x="244.07180925926002" y="1031.7299525420483" width="60.235065259094135" height="2" fill="#e0aaff" opacity="0.02205934022601213" rx="1"/><rect x="269.40612903549476" y="1055.8912530624987" width="28.72449742367596" height="2" fill="#e0aaff" opacity="0.039431073595637245" rx="1"/><rect x="1308.932081169666" y="1048.3417445952869" width="65.13271598730532" height="2" fill="#e0aaff" opacity="0.04887702666895395" rx="1"/><rect x="904.7213993092815" y="1056.0125146843523" width="54.48969547974172" height="2" fill="#e0aaff" opacity="0.04714639119504634" rx="1"/><rect x="923.6162073080466" y="1030.5495465664542" width="84.78023483994887" height="2" fill="#e0aaff" opacity="0.05267205085434766" rx="1"/><rect x="390.9039836541992" y="1001.4933945381765" width="87.51949628058809" height="2" fill="#e0aaff" opacity="0.03700373198301618" rx="1"/><rect x="673.0759595411541" y="1020.931697837294" width="77.35853390241007" height="2" fill="#e0aaff" opacity="0.05730284979504134" rx="1"/><rect x="589.3028432012775" y="1041.311902907051" width="91.83713169578397" height="2" fill="#e0aaff" opacity="0.041976451757824156" rx="1"/><rect x="784.7250756958325" y="1058.7591653081492" width="116.76848652231705" height="2" fill="#e0aaff" opacity="0.0528268361633706" rx="1"/><rect x="1714.4753287254075" y="1012.6754971157469" width="79.47355953032933" height="2" fill="#e0aaff" opacity="0.052876852311398104" rx="1"/><rect x="1478.7948090300883" y="1004.361350523392" width="51.822411513846" height="2" fill="#e0aaff" opacity="0.02339882429768304" rx="1"/><rect x="999.7723954263545" y="1059.4506310111494" width="59.21796063408674" height="2" fill="#e0aaff" opacity="0.042027125801431746" rx="1"/><rect x="1910.8948163666985" y="1025.5316458282832" width="39.73394514520977" height="2" fill="#e0aaff" opacity="0.04039515547929219" rx="1"/><rect x="1401.6364135131325" y="1015.2751119889493" width="76.98230908182038" height="2" fill="#e0aaff" opacity="0.0321131530059765" rx="1"/><rect x="776.0492077786589" y="1034.8610297392265" width="68.18205704171724" height="2" fill="#e0aaff" opacity="0.035549761703133065" rx="1"/><rect x="928.3104897216685" y="1033.9987528077324" width="97.54768535437707" height="2" fill="#e0aaff" opacity="0.04929743049417097" rx="1"/><rect x="1682.224325929355" y="1059.4004263587763" width="87.54565012351276" height="2" fill="#e0aaff" opacity="0.0206477067900467" rx="1"/><rect x="1661.291853576268" y="1014.1778061292548" width="57.16281159714861" height="2" fill="#e0aaff" opacity="0.0473593097616358" rx="1"/><rect x="841.6995448343688" y="1022.9585433897931" width="61.57090108878233" height="2" fill="#e0aaff" opacity="0.023938135375254355" rx="1"/><rect x="439.5242058764036" y="1047.5755829893926" width="116.18563298047185" height="2" fill="#e0aaff" opacity="0.04052277200401825" rx="1"/><text x="1900" y="1060" font-family="Arial, sans-serif" font-size="11" fill="#fff" opacity="0.08" text-anchor="end" letter-spacing="2">GTA 6 REWARDS · WALLPAPER 032</text>
</svg>