<?xml version="1.0" encoding="UTF-8"?>
<svg xmlns="http://www.w3.org/2000/svg" width="1920" height="1080" viewBox="0 0 1920 1080">
<defs>
    <linearGradient id="bg82" x1="0%" y1="0%" x2="0%" y2="100%">
      <stop offset="0%" stop-color="#1d3557"/>
      <stop offset="50%" stop-color="#000224"/>
      <stop offset="100%" stop-color="#1d3557"/>
    </linearGradient>
    <linearGradient id="sun82" x1="0%" y1="0%" x2="100%" y2="100%">
      <stop offset="0%" stop-color="#e63946"/>
      <stop offset="100%" stop-color="#457b9d"/>
    </linearGradient>
    <radialGradient id="glow82" cx="50%" cy="70%" r="50%">
      <stop offset="0%" stop-color="#e63946" stop-opacity="0.3"/>
      <stop offset="100%" stop-color="#1d3557" stop-opacity="0"/>
    </radialGradient>
  </defs><rect width="1920" height="1080" fill="url(#bg82)"/><circle cx="1301.3353823221603" cy="409.8519598622462" r="791.7200420032534" fill="#e63946" opacity="0.10048960441502036"/><circle cx="1501.3353823221603" cy="309.8519598622462" r="473.2415164060056" fill="#457b9d" opacity="0.12401611620420966"/><circle cx="710.5747459480946" cy="345.32626203618156" r="75.4114092456669" fill="url(#sun82)" opacity="0.7310978375447676"/><circle cx="710.5747459480946" cy="345.32626203618156" r="70.4114092456669" fill="#1d3557" opacity="0.3"/><pattern id="scan82" width="1920" height="4" patternUnits="userSpaceOnUse">
      <line x1="0" y1="0" x2="1920" y2="0" stroke="#000" stroke-opacity="0.05" stroke-width="1"/>
    </pattern>
    <rect width="1920" height="1080" fill="url(#scan82)"/><path d="M1534.1048516924739 939.1320691535091 Q1529.279498632364 840.389905425345 1528.3144280203421 741.6477416971809" stroke="#00000a" stroke-width="7.378372887936042" fill="none" stroke-linecap="round"/><path d="M1528.3144280203421 741.6477416971809 Q1566.6229169363212 721.6477416971809 1566.1987501522992 741.6477416971809" stroke="#000224" stroke-width="3.0370484676763994" fill="none" stroke-linecap="round" opacity="0.6"/><path d="M1528.3144280203421 741.6477416971809 Q1546.662505007423 727.085163150809 1557.222420776387 752.5225846044372" stroke="#000224" stroke-width="3.4126413933496553" fill="none" stroke-linecap="round" opacity="0.6"/><path d="M1528.3144280203421 741.6477416971809 Q1534.3602188398067 729.1967914180103 1516.8276191095015 756.7458411388398" stroke="#000224" stroke-width="2.031826105907519" fill="none" stroke-linecap="round" opacity="0.6"/><path d="M1528.3144280203421 741.6477416971809 Q1501.717135532882 726.1670920050886 1465.7509106005007 750.6864423129964" stroke="#000224" stroke-width="3.214861165549341" fill="none" stroke-linecap="round" opacity="0.6"/><path d="M1528.3144280203421 741.6477416971809 Q1526.45540905995 718.8952612818362 1490.2105315129438 736.1427808664913" stroke="#000224" stroke-width="2.3384253928294463" fill="none" stroke-linecap="round" opacity="0.6"/><path d="M1528.3144280203421 741.6477416971809 Q1532.9115429192286 713.5975088516539 1516.0650072582566 725.5472760061267" stroke="#000224" stroke-width="3.1888144233237985" fill="none" stroke-linecap="round" opacity="0.6"/><path d="M130.0113107566748 891.6418653427721 Q145.5467828562359 824.5014399347132 148.65387727614814 757.3610145266543" stroke="#00000a" stroke-width="4.794911032727666" fill="none" stroke-linecap="round"/><path d="M148.65387727614814 757.3610145266543 Q197.45756026205083 737.3610145266543 211.60553507218265 757.3610145266543" stroke="#000224" stroke-width="2.1934055425676995" fill="none" stroke-linecap="round" opacity="0.6"/><path d="M148.65387727614814 757.3610145266543 Q169.64237825978728 741.5656445152681 171.00774744959048 765.7702745038818" stroke="#000224" stroke-width="2.585401027599676" fill="none" stroke-linecap="round" opacity="0.6"/><path d="M148.65387727614814 757.3610145266543 Q149.61408970496603 747.752799177404 132.84149705080597 778.1445838281536" stroke="#000224" stroke-width="2.412092887426748" fill="none" stroke-linecap="round" opacity="0.6"/><path d="M148.65387727614814 757.3610145266543 Q138.0215702832072 740.0549361081275 111.36063857870141 762.7488576896006" stroke="#000224" stroke-width="2.1897087367693215" fill="none" stroke-linecap="round" opacity="0.6"/><path d="M148.65387727614814 757.3610145266543 Q129.12860497011212 733.649738735921 97.27692002255682 749.9384629451877" stroke="#000224" stroke-width="2.0691920798432997" fill="none" stroke-linecap="round" opacity="0.6"/><path d="M1479.956543939178 892.2958141640518 Q1472.4422963365078 820.4997434619581 1470.9394468159737 748.7036727598644" stroke="#00000a" stroke-width="5.420049950811093" fill="none" stroke-linecap="round"/><path d="M1470.9394468159737 748.7036727598644 Q1510.1142487663572 728.7036727598644 1516.9973899533497 748.7036727598644" stroke="#000224" stroke-width="3.083676178726292" fill="none" stroke-linecap="round" opacity="0.6"/><path d="M1470.9394468159737 748.7036727598644 Q1494.8930030532165 734.7605046849851 1503.140528690755 760.8173366101059" stroke="#000224" stroke-width="3.3698329672612792" fill="none" stroke-linecap="round" opacity="0.6"/><path d="M1470.9394468159737 748.7036727598644 Q1480.0562794408775 733.44109034645 1463.7308824853117 758.1785079330356" stroke="#000224" stroke-width="2.3839545912071958" fill="none" stroke-linecap="round" opacity="0.6"/><path d="M1470.9394468159737 748.7036727598644 Q1458.2580900202902 732.4997293888282 1418.3888280650172 756.2957860177919" stroke="#000224" stroke-width="3.7984895640514997" fill="none" stroke-linecap="round" opacity="0.6"/><path d="M1470.9394468159737 748.7036727598644 Q1447.1565401699388 724.2992581113575 1409.9670384359663 739.8948434628506" stroke="#000224" stroke-width="3.8886439413504315" fill="none" stroke-linecap="round" opacity="0.6"/><path d="M1470.9394468159737 748.7036727598644 Q1473.5328982506128 720.3926945414836 1458.293269855013 732.0817163231028" stroke="#000224" stroke-width="3.598492505866683" fill="none" stroke-linecap="round" opacity="0.6"/><path d="M1470.9394468159737 748.7036727598644 Q1504.314751491942 722.3122379346539 1504.9194414151846 735.9208031094433" stroke="#000224" stroke-width="3.7482369536879094" fill="none" stroke-linecap="round" opacity="0.6"/><path d="M1238.878300329409 806.6147866441437 Q1236.1840187795888 749.3095249809114 1235.6451624696247 692.0042633176791" stroke="#00000a" stroke-width="5.922433400042921" fill="none" stroke-linecap="round"/><path d="M1235.6451624696247 692.0042633176791 Q1273.0322610691728 672.0042633176791 1289.0831382761435 692.0042633176791" stroke="#000224" stroke-width="3.542770739538309" fill="none" stroke-linecap="round" opacity="0.6"/><path d="M1235.6451624696247 692.0042633176791 Q1258.4864587369414 678.4965350250166 1270.1612552695963 704.988806732354" stroke="#000224" stroke-width="3.057963742655228" fill="none" stroke-linecap="round" opacity="0.6"/><path d="M1235.6451624696247 692.0042633176791 Q1232.4405954418805 682.4869369160907 1219.6944835162956 712.9696105145023" stroke="#000224" stroke-width="3.494105046497217" fill="none" stroke-linecap="round" opacity="0.6"/><path d="M1235.6451624696247 692.0042633176791 Q1215.4488479062595 676.0439940391436 1179.7212472728802 700.0837247606082" stroke="#000224" stroke-width="2.2672917387139266" fill="none" stroke-linecap="round" opacity="0.6"/><path d="M1235.6451624696247 692.0042633176791 Q1224.3146466331084 669.3296909713185 1198.6197844436358 686.655118624958" stroke="#000224" stroke-width="2.313183915408604" fill="none" stroke-linecap="round" opacity="0.6"/><path d="M1235.6451624696247 692.0042633176791 Q1249.0633824376052 667.4954688942057 1228.7844764394613 682.9866744707324" stroke="#000224" stroke-width="2.0914517468985756" fill="none" stroke-linecap="round" opacity="0.6"/><line x1="0" y1="0" x2="0" y2="1080" stroke="#e63946" stroke-opacity="0.0680502760685166" stroke-width="0.5"/><line x1="75" y1="0" x2="75" y2="1080" stroke="#e63946" stroke-opacity="0.0680502760685166" stroke-width="0.5"/><line x1="150" y1="0" x2="150" y2="1080" stroke="#e63946" stroke-opacity="0.0680502760685166" stroke-width="0.5"/><line x1="225" y1="0" x2="225" y2="1080" stroke="#e63946" stroke-opacity="0.0680502760685166" stroke-width="0.5"/><line x1="300" y1="0" x2="300" y2="1080" stroke="#e63946" stroke-opacity="0.0680502760685166" stroke-width="0.5"/><line x1="375" y1="0" x2="375" y2="1080" stroke="#e63946" stroke-opacity="0.0680502760685166" stroke-width="0.5"/><line x1="450" y1="0" x2="450" y2="1080" stroke="#e63946" stroke-opacity="0.0680502760685166" stroke-width="0.5"/><line x1="525" y1="0" x2="525" y2="1080" stroke="#e63946" stroke-opacity="0.0680502760685166" stroke-width="0.5"/><line x1="600" y1="0" x2="600" y2="1080" stroke="#e63946" stroke-opacity="0.0680502760685166" stroke-width="0.5"/><line x1="675" y1="0" x2="675" y2="1080" stroke="#e63946" stroke-opacity="0.0680502760685166" stroke-width="0.5"/><line x1="750" y1="0" x2="750" y2="1080" stroke="#e63946" stroke-opacity="0.0680502760685166" stroke-width="0.5"/><line x1="825" y1="0" x2="825" y2="1080" stroke="#e63946" stroke-opacity="0.0680502760685166" stroke-width="0.5"/><line x1="900" y1="0" x2="900" y2="1080" stroke="#e63946" stroke-opacity="0.0680502760685166" stroke-width="0.5"/><line x1="975" y1="0" x2="975" y2="1080" stroke="#e63946" stroke-opacity="0.0680502760685166" stroke-width="0.5"/><line x1="1050" y1="0" x2="1050" y2="1080" stroke="#e63946" stroke-opacity="0.0680502760685166" stroke-width="0.5"/><line x1="1125" y1="0" x2="1125" y2="1080" stroke="#e63946" stroke-opacity="0.0680502760685166" stroke-width="0.5"/><line x1="1200" y1="0" x2="1200" y2="1080" stroke="#e63946" stroke-opacity="0.0680502760685166" stroke-width="0.5"/><line x1="1275" y1="0" x2="1275" y2="1080" stroke="#e63946" stroke-opacity="0.0680502760685166" stroke-width="0.5"/><line x1="1350" y1="0" x2="1350" y2="1080" stroke="#e63946" stroke-opacity="0.0680502760685166" stroke-width="0.5"/><line x1="1425" y1="0" x2="1425" y2="1080" stroke="#e63946" stroke-opacity="0.0680502760685166" stroke-width="0.5"/><line x1="1500" y1="0" x2="1500" y2="1080" stroke="#e63946" stroke-opacity="0.0680502760685166" stroke-width="0.5"/><line x1="1575" y1="0" x2="1575" y2="1080" stroke="#e63946" stroke-opacity="0.0680502760685166" stroke-width="0.5"/><line x1="1650" y1="0" x2="1650" y2="1080" stroke="#e63946" stroke-opacity="0.0680502760685166" stroke-width="0.5"/><line x1="1725" y1="0" x2="1725" y2="1080" stroke="#e63946" stroke-opacity="0.0680502760685166" stroke-width="0.5"/><line x1="1800" y1="0" x2="1800" y2="1080" stroke="#e63946" stroke-opacity="0.0680502760685166" stroke-width="0.5"/><line x1="1875" y1="0" x2="1875" y2="1080" stroke="#e63946" stroke-opacity="0.0680502760685166" stroke-width="0.5"/><line x1="0" y1="0" x2="1920" y2="0" stroke="#e63946" stroke-opacity="0.0680502760685166" stroke-width="0.5"/><line x1="0" y1="75" x2="1920" y2="75" stroke="#e63946" stroke-opacity="0.0680502760685166" stroke-width="0.5"/><line x1="0" y1="150" x2="1920" y2="150" stroke="#e63946" stroke-opacity="0.0680502760685166" stroke-width="0.5"/><line x1="0" y1="225" x2="1920" y2="225" stroke="#e63946" stroke-opacity="0.0680502760685166" stroke-width="0.5"/><line x1="0" y1="300" x2="1920" y2="300" stroke="#e63946" stroke-opacity="0.0680502760685166" stroke-width="0.5"/><line x1="0" y1="375" x2="1920" y2="375" stroke="#e63946" stroke-opacity="0.0680502760685166" stroke-width="0.5"/><line x1="0" y1="450" x2="1920" y2="450" stroke="#e63946" stroke-opacity="0.0680502760685166" stroke-width="0.5"/><line x1="0" y1="525" x2="1920" y2="525" stroke="#e63946" stroke-opacity="0.0680502760685166" stroke-width="0.5"/><line x1="0" y1="600" x2="1920" y2="600" stroke="#e63946" stroke-opacity="0.0680502760685166" stroke-width="0.5"/><line x1="0" y1="675" x2="1920" y2="675" stroke="#e63946" stroke-opacity="0.0680502760685166" stroke-width="0.5"/><line x1="0" y1="750" x2="1920" y2="750" stroke="#e63946" stroke-opacity="0.0680502760685166" stroke-width="0.5"/><line x1="0" y1="825" x2="1920" y2="825" stroke="#e63946" stroke-opacity="0.0680502760685166" stroke-width="0.5"/><line x1="0" y1="900" x2="1920" y2="900" stroke="#e63946" stroke-opacity="0.0680502760685166" stroke-width="0.5"/><line x1="0" y1="975" x2="1920" y2="975" stroke="#e63946" stroke-opacity="0.0680502760685166" stroke-width="0.5"/><line x1="0" y1="1050" x2="1920" y2="1050" stroke="#e63946" stroke-opacity="0.0680502760685166" stroke-width="0.5"/><rect x="0" y="1000" width="1920" height="80" fill="#000f31" opacity="0.8"/><line x1="0" y1="1040" x2="1920" y2="1040" stroke="#457b9d" stroke-opacity="0.15" stroke-width="2" stroke-dasharray="30,20"/><rect x="0" y="930" width="1920" height="150" fill="url(#glow82)"/><rect x="0" y="980" width="1920" height="100" fill="#457b9d" opacity="0.04"/><rect x="1829.2877764788661" y="1025.1513291395156" width="26.036134973642447" height="2" fill="#e63946" opacity="0.05422243585675546" rx="1"/><rect x="1512.2666353528077" y="1014.8478358552902" width="82.18544534924101" height="2" fill="#e63946" opacity="0.05351443173212801" rx="1"/><rect x="1077.5220311706703" y="1031.3055126488455" width="24.655573192205182" height="2" fill="#e63946" opacity="0.026679135394906423" rx="1"/><rect x="390.4514645949126" y="1057.101043909113" width="55.10570738816301" height="2" fill="#e63946" opacity="0.028915245814462018" rx="1"/><rect x="260.9955932807633" y="1043.7082915109834" width="112.36828072284541" height="2" fill="#e63946" opacity="0.04631582555042482" rx="1"/><rect x="1758.3641990642911" y="1027.9895081063707" width="118.09938941572312" height="2" fill="#e63946" opacity="0.02624726775247773" rx="1"/><rect x="1917.1555705361895" y="1019.1845187449792" width="63.63797645634924" height="2" fill="#e63946" opacity="0.03647502369630966" rx="1"/><rect x="1143.4567248503345" y="1059.667779859078" width="114.69926764599496" height="2" fill="#e63946" opacity="0.04191993550907819" rx="1"/><rect x="1101.3179270507112" y="1035.172651842044" width="107.49535965907745" height="2" fill="#e63946" opacity="0.0426195008174096" rx="1"/><rect x="162.7305338165561" y="1050.1223687944287" width="73.42483458887432" height="2" fill="#e63946" opacity="0.04979504224606674" rx="1"/><rect x="1601.6660606119935" y="1033.5689201656658" width="44.071559618243846" height="2" fill="#e63946" opacity="0.03373102715558629" rx="1"/><rect x="165.7457113651898" y="1044.4290235369533" width="35.552555633604655" height="2" fill="#e63946" opacity="0.04764124306562385" rx="1"/><rect x="743.9296135548338" y="1013.2320917940773" width="74.7900139714568" height="2" fill="#e63946" opacity="0.032078711784463074" rx="1"/><rect x="1493.0444999535207" y="1042.114398191244" width="31.220854081032066" height="2" fill="#e63946" opacity="0.04494985064141216" rx="1"/><rect x="1428.8538661945736" y="1052.2543111751447" width="100.72863376716353" height="2" fill="#e63946" opacity="0.04970495218171388" rx="1"/><rect x="1213.8428287054046" y="1022.8765988729141" width="89.93964767780612" height="2" fill="#e63946" opacity="0.05457832807548771" rx="1"/><rect x="824.4411923420711" y="1012.189964771315" width="85.13368647199442" height="2" fill="#e63946" opacity="0.030618493959917337" rx="1"/><rect x="537.2535472869066" y="1031.2509339561805" width="80.54437890661518" height="2" fill="#e63946" opacity="0.05596043028774682" rx="1"/><rect x="818.1350779948139" y="1046.4458278209079" width="26.486192067732613" height="2" fill="#e63946" opacity="0.05236568856806627" rx="1"/><rect x="1263.1983856817703" y="1037.0415792514202" width="50.22589768055498" height="2" fill="#e63946" opacity="0.04600402373494675" rx="1"/><rect x="1650.375786807941" y="1019.7444040048273" width="71.85727522518889" height="2" fill="#e63946" opacity="0.04619094521417072" rx="1"/><rect x="989.6351804653266" y="1023.4136167921623" width="31.147904235671252" height="2" fill="#e63946" opacity="0.05180915271672634" rx="1"/><rect x="913.0774826447193" y="1007.7137286699642" width="91.53586192790789" height="2" fill="#e63946" opacity="0.05975751979270892" rx="1"/><rect x="609.9340958823296" y="1048.4350173800333" width="88.06956866478305" height="2" fill="#e63946" opacity="0.033110125682575195" rx="1"/><rect x="639.9582666158578" y="1031.0700343109365" width="93.87173694415758" height="2" fill="#e63946" opacity="0.05276853620837642" rx="1"/><rect x="653.291378769393" y="1052.0171834742691" width="82.30212493387566" height="2" fill="#e63946" opacity="0.05686703377330374" rx="1"/><rect x="1520.6288108789895" y="1024.0645842543022" width="119.78807175061388" height="2" fill="#e63946" opacity="0.05678272390663222" rx="1"/><rect x="900.6393007050826" y="1005.6014519942928" width="62.001370233949594" height="2" fill="#e63946" opacity="0.03067840092132762" rx="1"/><rect x="277.7415142109947" y="1019.5826369476464" width="21.747776451927557" height="2" fill="#e63946" opacity="0.03417565157967053" rx="1"/><rect x="1624.2517992165526" y="1050.180386917242" width="85.60066867750155" height="2" fill="#e63946" opacity="0.023154889504228462" rx="1"/><text x="1900" y="1060" font-family="Arial, sans-serif" font-size="11" fill="#fff" opacity="0.08" text-anchor="end" letter-spacing="2">GTA 6 REWARDS · WALLPAPER 083</text>
</svg>