<?xml version="1.0" encoding="UTF-8"?>
<svg xmlns="http://www.w3.org/2000/svg" width="1920" height="1080" viewBox="0 0 1920 1080">
<defs>
    <linearGradient id="bg15" x1="0%" y1="0%" x2="0%" y2="100%">
      <stop offset="0%" stop-color="#2d1b1b"/>
      <stop offset="50%" stop-color="#000000"/>
      <stop offset="100%" stop-color="#2d1b1b"/>
    </linearGradient>
    <linearGradient id="sun15" x1="0%" y1="0%" x2="100%" y2="100%">
      <stop offset="0%" stop-color="#ff6b6b"/>
      <stop offset="100%" stop-color="#c0392b"/>
    </linearGradient>
    <radialGradient id="glow15" cx="50%" cy="70%" r="50%">
      <stop offset="0%" stop-color="#ff6b6b" stop-opacity="0.3"/>
      <stop offset="100%" stop-color="#2d1b1b" stop-opacity="0"/>
    </radialGradient>
  </defs><rect width="1920" height="1080" fill="url(#bg15)"/><circle cx="784.9496610660455" cy="361.11805312361525" r="733.8504271660584" fill="#ff6b6b" opacity="0.07227504049015117"/><circle cx="984.9496610660455" cy="261.11805312361525" r="532.2121044928701" fill="#c0392b" opacity="0.12515783557555588"/><line x1="0" y1="980" x2="1920" y2="980" stroke="#c0392b" stroke-opacity="0.05" stroke-width="2"/><line x1="0" y1="935" x2="1920" y2="935" stroke="#c0392b" stroke-opacity="0.049" stroke-width="0.5"/><line x1="0" y1="890" x2="1920" y2="890" stroke="#c0392b" stroke-opacity="0.048" stroke-width="0.5"/><line x1="0" y1="845" x2="1920" y2="845" stroke="#c0392b" stroke-opacity="0.047" stroke-width="0.5"/><line x1="0" y1="800" x2="1920" y2="800" stroke="#c0392b" stroke-opacity="0.046" stroke-width="0.5"/><line x1="0" y1="755" x2="1920" y2="755" stroke="#c0392b" stroke-opacity="0.045" stroke-width="0.5"/><line x1="0" y1="710" x2="1920" y2="710" stroke="#c0392b" stroke-opacity="0.044" stroke-width="0.5"/><line x1="0" y1="665" x2="1920" y2="665" stroke="#c0392b" stroke-opacity="0.043" stroke-width="0.5"/><line x1="0" y1="620" x2="1920" y2="620" stroke="#c0392b" stroke-opacity="0.041999999999999996" stroke-width="0.5"/><line x1="0" y1="575" x2="1920" y2="575" stroke="#c0392b" stroke-opacity="0.041" stroke-width="0.5"/><line x1="0" y1="530" x2="1920" y2="530" stroke="#c0392b" stroke-opacity="0.04" stroke-width="0.5"/><line x1="0" y1="485" x2="1920" y2="485" stroke="#c0392b" stroke-opacity="0.039" stroke-width="0.5"/><line x1="0" y1="440" x2="1920" y2="440" stroke="#c0392b" stroke-opacity="0.038" stroke-width="0.5"/><line x1="0" y1="395" x2="1920" y2="395" stroke="#c0392b" stroke-opacity="0.037" stroke-width="0.5"/><line x1="0" y1="350" x2="1920" y2="350" stroke="#c0392b" stroke-opacity="0.036" stroke-width="0.5"/><line x1="0" y1="305" x2="1920" y2="305" stroke="#c0392b" stroke-opacity="0.034999999999999996" stroke-width="0.5"/><line x1="0" y1="260" x2="1920" y2="260" stroke="#c0392b" stroke-opacity="0.033999999999999996" stroke-width="0.5"/><line x1="0" y1="215" x2="1920" y2="215" stroke="#c0392b" stroke-opacity="0.033" stroke-width="0.5"/><line x1="0" y1="170" x2="1920" y2="170" stroke="#c0392b" stroke-opacity="0.032" stroke-width="0.5"/><line x1="0" y1="125" x2="1920" y2="125" stroke="#c0392b" stroke-opacity="0.031" stroke-width="0.5"/><line x1="560" y1="1080" x2="860" y2="580" stroke="#ff6b6b" stroke-opacity="0.04" stroke-width="1"/><line x1="640" y1="1080" x2="880" y2="590" stroke="#ff6b6b" stroke-opacity="0.04" stroke-width="1"/><line x1="720" y1="1080" x2="900" y2="600" stroke="#ff6b6b" stroke-opacity="0.04" stroke-width="1"/><line x1="800" y1="1080" x2="920" y2="610" stroke="#ff6b6b" stroke-opacity="0.04" stroke-width="1"/><line x1="880" y1="1080" x2="940" y2="620" stroke="#ff6b6b" stroke-opacity="0.04" stroke-width="1"/><line x1="960" y1="1080" x2="960" y2="630" stroke="#ff6b6b" stroke-opacity="0.04" stroke-width="1"/><line x1="1040" y1="1080" x2="980" y2="620" stroke="#ff6b6b" stroke-opacity="0.04" stroke-width="1"/><line x1="1120" y1="1080" x2="1000" y2="610" stroke="#ff6b6b" stroke-opacity="0.04" stroke-width="1"/><line x1="1200" y1="1080" x2="1020" y2="600" stroke="#ff6b6b" stroke-opacity="0.04" stroke-width="1"/><line x1="1280" y1="1080" x2="1040" y2="590" stroke="#ff6b6b" stroke-opacity="0.04" stroke-width="1"/><line x1="1360" y1="1080" x2="1060" y2="580" stroke="#ff6b6b" stroke-opacity="0.04" stroke-width="1"/><circle cx="378.67605855657627" cy="263.9747324665018" r="72.22126192697819" fill="url(#sun15)" opacity="0.7088140527272629"/><circle cx="378.67605855657627" cy="263.9747324665018" r="67.22126192697819" fill="#2d1b1b" opacity="0.3"/><circle cx="1387.7639515948863" cy="100.4767523567371" r="0.9100028507900431" fill="#fff" opacity="0.2590790531269924"/><circle cx="1824.236145593281" cy="413.9726405250776" r="1.7869157625331813" fill="#fff" opacity="0.41316230497629436"/><circle cx="97.58645655996783" cy="207.50452068064" r="0.5301068612677294" fill="#fff" opacity="0.4425958516641045"/><circle cx="293.99596370151176" cy="325.53180317336967" r="0.6629929583666364" fill="#fff" opacity="0.5580917956209955"/><circle cx="694.4919474549806" cy="273.3469770814634" r="1.3724036001070412" fill="#fff" opacity="0.24096314633287563"/><circle cx="1302.3240757040503" cy="288.80518362317355" r="0.7275454316352367" fill="#fff" opacity="0.2873162768984484"/><circle cx="185.2977392508876" cy="385.32450793714366" r="1.5859628829839552" fill="#fff" opacity="0.5661248210738703"/><circle cx="1264.9386985564927" cy="377.59579688906575" r="0.5201441053115167" fill="#fff" opacity="0.6823019650956388"/><circle cx="411.6455278758997" cy="33.25861090078452" r="1.5822532468201251" fill="#fff" opacity="0.6157474083862611"/><circle cx="414.8563841951211" cy="346.18221601335847" r="1.6503420799622177" fill="#fff" opacity="0.4111095690659968"/><circle cx="498.69918745446466" cy="255.36035506412398" r="1.8386735291775953" fill="#fff" opacity="0.38409721194396196"/><circle cx="40.38275466309459" cy="395.46372532366394" r="1.238856606008219" fill="#fff" opacity="0.2886486612932404"/><circle cx="475.2227136109077" cy="421.0601399031142" r="1.9731703490189207" fill="#fff" opacity="0.5328580671765045"/><circle cx="383.73880916827795" cy="298.9812666315076" r="0.8838359834355851" fill="#fff" opacity="0.7330159843277688"/><circle cx="1561.3122867702766" cy="298.4148306572844" r="1.3639667465733287" fill="#fff" opacity="0.4185241573067671"/><circle cx="1813.8714667907616" cy="183.52079449769127" r="1.276137191051649" fill="#fff" opacity="0.6644896582384803"/><circle cx="1260.4356612219558" cy="191.16324188168235" r="1.701674708445015" fill="#fff" opacity="0.7681944437250947"/><circle cx="891.6383709599354" cy="99.71166437205665" r="1.5583598753573278" fill="#fff" opacity="0.2555891644804713"/><circle cx="1378.6232930651454" cy="417.3528939674964" r="0.6762106346842391" fill="#fff" opacity="0.4279805478239387"/><circle cx="998.3591511189842" cy="342.1335391193008" r="0.829381294043125" fill="#fff" opacity="0.2309197397043276"/><circle cx="453.2151917678339" cy="42.49620986229186" r="0.5350526535266668" fill="#fff" opacity="0.23450016268400947"/><circle cx="785.8122715693461" cy="407.18332178685426" r="1.0696345626073038" fill="#fff" opacity="0.4066974817790784"/><circle cx="145.8692412418009" cy="282.5352997059318" r="0.6133051949118509" fill="#fff" opacity="0.7765584695564021"/><circle cx="963.1907337166347" cy="99.97554183843907" r="0.9083544349782995" fill="#fff" opacity="0.5251532309514362"/><circle cx="1877.1996161242016" cy="113.9811380733692" r="1.604154140712729" fill="#fff" opacity="0.4509617602105629"/><circle cx="1494.3004259966083" cy="122.56408116094863" r="1.397120236860849" fill="#fff" opacity="0.7195481328572026"/><circle cx="1711.5104555598252" cy="345.8486446984691" r="0.8542939831629148" fill="#fff" opacity="0.6122895035455678"/><circle cx="1231.098536539613" cy="225.85486351741827" r="0.7140623748335202" fill="#fff" opacity="0.45095176353374306"/><circle cx="18.853576187708782" cy="142.9637315308125" r="1.2464914916191463" fill="#fff" opacity="0.3272474681789166"/><circle cx="561.5265857990661" cy="322.12321956877673" r="1.98005599621219" fill="#fff" opacity="0.7004331008299332"/><circle cx="1713.9165803310268" cy="23.014271473282545" r="1.507742226707689" fill="#fff" opacity="0.39753764271678815"/><rect x="3.560128268683359" y="815.3858949116865" width="48.534318073311425" height="80.81997769903857" fill="#2d1b1b" opacity="0.4075735509646064" rx="2"/><rect x="24.911219433860666" y="825.3858949116865" width="5.832135742956805" height="8.91135451079145" fill="#c0392b" opacity="0.15211584341063067" rx="1"/><rect x="12.777639915532813" y="829.8415721670822" width="5.832135742956805" height="8.91135451079145" fill="#ff6b6b" opacity="0.07605792170531533" rx="1"/><rect x="23.57173358802025" y="845.5908893364461" width="8.511107434637637" height="8.022060031542104" fill="#c0392b" opacity="0.5687471344295766" rx="1"/><rect x="11.438154069692397" y="849.6019193522172" width="8.511107434637637" height="8.022060031542104" fill="#ff6b6b" opacity="0.2843735672147883" rx="1"/><rect x="24.996914455666417" y="865.7958837612058" width="5.660745699345307" height="7.957315116645143" fill="#c0392b" opacity="0.32506180434139953" rx="1"/><rect x="12.86333493733856" y="869.7745413195283" width="5.660745699345307" height="7.957315116645143" fill="#ff6b6b" opacity="0.16253090217069976" rx="1"/><rect x="22.589285900255028" y="886.0008781859653" width="10.47600281016808" height="6.461618408668231" fill="#c0392b" opacity="0.1547077491774009" rx="1"/><rect x="10.455706381927175" y="889.2316873902995" width="10.47600281016808" height="6.461618408668231" fill="#ff6b6b" opacity="0.07735387458870045" rx="1"/><rect x="111.87699067958053" y="682.1335360948308" width="84.08664102994061" height="214.07233651589425" fill="#2d1b1b" opacity="0.5084736451992006" rx="2"/><rect x="150.70185586379841" y="692.1335360948308" width="6.436910661504816" height="8.15507800554742" fill="#c0392b" opacity="0.5154838742491519" rx="1"/><rect x="129.68019560631325" y="696.2110750976045" width="6.436910661504816" height="8.15507800554742" fill="#ff6b6b" opacity="0.25774193712457594" rx="1"/><rect x="148.08880758818867" y="727.8122588474798" width="11.663007212724306" height="7.1251251318317665" fill="#c0392b" opacity="0.22390262950768292" rx="1"/><rect x="127.06714733070352" y="731.3748214133957" width="11.663007212724306" height="7.1251251318317665" fill="#ff6b6b" opacity="0.11195131475384146" rx="1"/><rect x="148.74732226775157" y="763.4909816001289" width="10.345977853598534" height="9.639580125836558" fill="#c0392b" opacity="0.5187796144789969" rx="1"/><rect x="127.7256620102664" y="768.3107716630471" width="10.345977853598534" height="9.639580125836558" fill="#ff6b6b" opacity="0.25938980723949845" rx="1"/><rect x="150.4473694081571" y="799.1697043527779" width="6.945883572787485" height="7.351619707735167" fill="#c0392b" opacity="0.4804646894290263" rx="1"/><rect x="129.42570915067193" y="802.8455142066455" width="6.945883572787485" height="7.351619707735167" fill="#ff6b6b" opacity="0.24023234471451316" rx="1"/><rect x="151.5056686080815" y="834.8484271054269" width="4.829285172938668" height="9.482129607229059" fill="#c0392b" opacity="0.2695146063970203" rx="1"/><rect x="130.48400835059633" y="839.5894919090415" width="4.829285172938668" height="9.482129607229059" fill="#ff6b6b" opacity="0.13475730319851015" rx="1"/><rect x="150.78195589724933" y="870.527149858076" width="6.276710594603026" height="6.371441134338137" fill="#c0392b" opacity="0.2414283147643852" rx="1"/><rect x="129.76029563976417" y="873.712870425245" width="6.276710594603026" height="6.371441134338137" fill="#ff6b6b" opacity="0.1207141573821926" rx="1"/><rect x="181.4746826549785" y="665.3367250262147" width="51.09270235083362" height="230.8691475845103" fill="#2d1b1b" opacity="0.4773294914228212" rx="2"/><rect x="202.30974086722037" y="675.3367250262147" width="9.422585926349877" height="9.24394393042753" fill="#c0392b" opacity="0.4900762242009109" rx="1"/><rect x="189.53656527951196" y="679.9586969914285" width="9.422585926349877" height="9.24394393042753" fill="#ff6b6b" opacity="0.24503811210045545" rx="1"/><rect x="204.706396729998" y="713.8149162902997" width="4.629274200794583" height="6.634295120982988" fill="#c0392b" opacity="0.5243599878215138" rx="1"/><rect x="191.9332211422896" y="717.1320638507913" width="4.629274200794583" height="6.634295120982988" fill="#ff6b6b" opacity="0.2621799939107569" rx="1"/><rect x="202.86380183312582" y="752.2931075543848" width="8.314463994538986" height="9.250689782959103" fill="#c0392b" opacity="0.43193317796847164" rx="1"/><rect x="190.0906262454174" y="756.9184524458644" width="8.314463994538986" height="9.250689782959103" fill="#ff6b6b" opacity="0.21596658898423582" rx="1"/><rect x="203.06584826570523" y="790.7712988184699" width="7.9103711293801595" height="7.113488911910329" fill="#c0392b" opacity="0.3200551325734833" rx="1"/><rect x="190.29267267799682" y="794.328043274425" width="7.9103711293801595" height="7.113488911910329" fill="#ff6b6b" opacity="0.16002756628674164" rx="1"/><rect x="201.25876208252626" y="829.2494900825549" width="11.524543495738074" height="8.292331429732108" fill="#c0392b" opacity="0.20847402296691994" rx="1"/><rect x="188.48558649481785" y="833.3956557974209" width="11.524543495738074" height="8.292331429732108" fill="#ff6b6b" opacity="0.10423701148345997" rx="1"/><rect x="204.74528847480698" y="867.7276813466399" width="4.551490711176649" height="6.7680510247051835" fill="#c0392b" opacity="0.2212439260262167" rx="1"/><rect x="191.97211288709858" y="871.1117068589924" width="4.551490711176649" height="6.7680510247051835" fill="#ff6b6b" opacity="0.11062196301310835" rx="1"/><rect x="272.5182086224604" y="662.2109018294632" width="57.20698016397817" height="233.9949707812618" fill="#2d1b1b" opacity="0.6953311498033188" rx="2"/><rect x="297.20625015945654" y="672.2109018294632" width="7.830897089985873" height="6.714578099715192" fill="#c0392b" opacity="0.20091858534163765" rx="1"/><rect x="282.904505118462" y="675.5681908793208" width="7.830897089985873" height="6.714578099715192" fill="#ff6b6b" opacity="0.10045929267081882" rx="1"/><rect x="297.08355713671494" y="730.7096445247786" width="8.076283135469136" height="6.916199026842648" fill="#c0392b" opacity="0.4907741009934745" rx="1"/><rect x="282.7818120957204" y="734.1677440381999" width="8.076283135469136" height="6.916199026842648" fill="#ff6b6b" opacity="0.24538705049673726" rx="1"/><rect x="295.5017947731438" y="789.2083872200941" width="11.239807862611443" height="7.766375304611022" fill="#c0392b" opacity="0.15180794304511697" rx="1"/><rect x="281.20004973214924" y="793.0915748723996" width="11.239807862611443" height="7.766375304611022" fill="#ff6b6b" opacity="0.07590397152255848" rx="1"/><rect x="296.4531721130264" y="847.7071299154095" width="9.33705318284618" height="8.4228666123056" fill="#c0392b" opacity="0.15621767103583964" rx="1"/><rect x="282.1514270720319" y="851.9185632215623" width="9.33705318284618" height="8.4228666123056" fill="#ff6b6b" opacity="0.07810883551791982" rx="1"/><rect x="357.48654592194583" y="575.7262667468112" width="44.113350201890185" height="320.4796058639138" fill="#130101" opacity="0.5496532990945627" rx="2"/><rect x="377.4776690815926" y="585.7262667468112" width="4.131103882596619" height="9.1079441875005" fill="#c0392b" opacity="0.4469655091983652" rx="1"/><rect x="366.44933153112004" y="590.2802388405615" width="4.131103882596619" height="9.1079441875005" fill="#ff6b6b" opacity="0.2234827545991826" rx="1"/><rect x="373.8117753667954" y="649.822187919594" width="11.462891312191005" height="7.057969851665657" fill="#c0392b" opacity="0.5643390627960533" rx="1"/><rect x="362.7834378163229" y="653.3511728454267" width="11.462891312191005" height="7.057969851665657" fill="#ff6b6b" opacity="0.28216953139802664" rx="1"/><rect x="376.89878886360015" y="713.9181090923768" width="5.288864318581499" height="8.762319148229976" fill="#c0392b" opacity="0.48306847142127074" rx="1"/><rect x="365.8704513131276" y="718.2992686664918" width="5.288864318581499" height="8.762319148229976" fill="#ff6b6b" opacity="0.24153423571063537" rx="1"/><rect x="377.27359351505214" y="778.0140302651595" width="4.539255015677599" height="8.035973232713522" fill="#c0392b" opacity="0.43448129283135783" rx="1"/><rect x="366.2452559645796" y="782.0320168815163" width="4.539255015677599" height="8.035973232713522" fill="#ff6b6b" opacity="0.21724064641567892" rx="1"/><rect x="376.16228605211603" y="842.1099514379423" width="6.761869941549811" height="8.630264957116513" fill="#c0392b" opacity="0.5659893910787044" rx="1"/><rect x="365.1339485016435" y="846.4250839165005" width="6.761869941549811" height="8.630264957116513" fill="#ff6b6b" opacity="0.2829946955393522" rx="1"/><rect x="436.4321840357788" y="563.9237023922437" width="59.042076898981364" height="332.28217021848127" fill="#2d1b1b" opacity="0.685259779678951" rx="2"/><rect x="463.39569572906163" y="573.9237023922437" width="5.115053512415628" height="9.250093553040664" fill="#c0392b" opacity="0.4721371144922769" rx="1"/><rect x="448.6351765043163" y="578.5487491687641" width="5.115053512415628" height="9.250093553040664" fill="#ff6b6b" opacity="0.23606855724613846" rx="1"/><rect x="462.90295691485375" y="656.994244946864" width="6.100531140831423" height="8.130520799693308" fill="#c0392b" opacity="0.4666052188180865" rx="1"/><rect x="448.1424376901084" y="661.0595053467107" width="6.100531140831423" height="8.130520799693308" fill="#ff6b6b" opacity="0.23330260940904324" rx="1"/><rect x="462.4297008343322" y="740.0647875014844" width="7.047043301874549" height="9.89307486542805" fill="#c0392b" opacity="0.37313763852537085" rx="1"/><rect x="447.6691816095869" y="745.0113249341985" width="7.047043301874549" height="9.89307486542805" fill="#ff6b6b" opacity="0.18656881926268543" rx="1"/><rect x="461.236189504463" y="823.1353300561047" width="9.43406596161287" height="7.737100192750129" fill="#c0392b" opacity="0.42937985840937587" rx="1"/><rect x="446.4756702797177" y="827.0038801524798" width="9.43406596161287" height="7.737100192750129" fill="#ff6b6b" opacity="0.21468992920468793" rx="1"/><rect x="541.7484444269579" y="730.2987234853904" width="46.19545543477764" height="165.90714912533463" fill="#2d1b1b" opacity="0.5103091243445662" rx="2"/><rect x="562.8400266456299" y="740.2987234853904" width="4.012290997433544" height="8.743712939960815" fill="#c0392b" opacity="0.31589377166607735" rx="1"/><rect x="551.2911627869355" y="744.6705799553708" width="4.012290997433544" height="8.743712939960815" fill="#ff6b6b" opacity="0.15794688583303867" rx="1"/><rect x="559.3069496385791" y="773.4801533104574" width="11.078445011535297" height="9.030427745317674" fill="#c0392b" opacity="0.47904396010074857" rx="1"/><rect x="547.7580857798847" y="777.9953671831162" width="11.078445011535297" height="9.030427745317674" fill="#ff6b6b" opacity="0.23952198005037428" rx="1"/><rect x="560.8508825294581" y="806.6615831355242" width="7.990579229777348" height="9.285432948564512" fill="#c0392b" opacity="0.5039953951500346" rx="1"/><rect x="549.3020186707637" y="811.3042996098064" width="7.990579229777348" height="9.285432948564512" fill="#ff6b6b" opacity="0.2519976975750173" rx="1"/><rect x="559.0293215091663" y="839.8430129605912" width="11.633701270360895" height="9.399329881975271" fill="#c0392b" opacity="0.5021837237296123" rx="1"/><rect x="547.4804576504719" y="844.5426779015788" width="11.633701270360895" height="9.399329881975271" fill="#ff6b6b" opacity="0.25109186186480614" rx="1"/><rect x="559.8791907624781" y="873.024442785658" width="9.933962763737412" height="6.138242254997194" fill="#c0392b" opacity="0.5366896619174373" rx="1"/><rect x="548.3303269037837" y="876.0935639131567" width="9.933962763737412" height="6.138242254997194" fill="#ff6b6b" opacity="0.26834483095871864" rx="1"/><rect x="639.2197156562346" y="774.3629672388461" width="31.220679343962267" height="121.84290537187897" fill="#130101" opacity="0.5774614982254481" rx="2"/><rect x="648.8829025385459" y="784.3629672388461" width="11.89430557933969" height="6.109680048215594" fill="#c0392b" opacity="0.5298528027557425" rx="1"/><rect x="641.0777327025553" y="787.4178072629538" width="11.89430557933969" height="6.109680048215594" fill="#ff6b6b" opacity="0.26492640137787127" rx="1"/><rect x="650.5969345351505" y="799.593330410331" width="8.466241586130634" height="8.091144951547296" fill="#c0392b" opacity="0.4857878049336811" rx="1"/><rect x="642.7917646991599" y="803.6389028861046" width="8.466241586130634" height="8.091144951547296" fill="#ff6b6b" opacity="0.24289390246684056" rx="1"/><rect x="649.2443745110584" y="814.8236935818159" width="11.171361634314842" height="8.331361301786117" fill="#c0392b" opacity="0.4074087189294884" rx="1"/><rect x="641.4392046750678" y="818.9893742327089" width="11.171361634314842" height="8.331361301786117" fill="#ff6b6b" opacity="0.2037043594647442" rx="1"/><rect x="652.383516412254" y="830.0540567533006" width="4.893077831923281" height="6.653631239350334" fill="#c0392b" opacity="0.2776805137464964" rx="1"/><rect x="644.5783465762635" y="833.3808723729758" width="4.893077831923281" height="6.653631239350334" fill="#ff6b6b" opacity="0.1388402568732482" rx="1"/><rect x="651.831398947993" y="845.2844199247855" width="5.997312760445595" height="6.418570662946108" fill="#c0392b" opacity="0.32645221597665275" rx="1"/><rect x="644.0262291120024" y="848.4937052562586" width="5.997312760445595" height="6.418570662946108" fill="#ff6b6b" opacity="0.16322610798832637" rx="1"/><rect x="651.9643924598795" y="860.5147830962704" width="5.731325736672461" height="7.592719674481247" fill="#c0392b" opacity="0.13701336403307818" rx="1"/><rect x="644.1592226238889" y="864.3111429335111" width="5.731325736672461" height="7.592719674481247" fill="#ff6b6b" opacity="0.06850668201653909" rx="1"/><rect x="650.9536621940044" y="875.7451462677553" width="7.752786268422563" height="8.89236305348863" fill="#c0392b" opacity="0.10209552364007" rx="1"/><rect x="643.1484923580139" y="880.1913277944997" width="7.752786268422563" height="8.89236305348863" fill="#ff6b6b" opacity="0.051047761820035" rx="1"/><rect x="649.875873747655" y="890.9755094392401" width="9.90836316112158" height="6.735785029999862" fill="#c0392b" opacity="0.5559503237148631" rx="1"/><rect x="642.0707039116644" y="894.34340195424" width="9.90836316112158" height="6.735785029999862" fill="#ff6b6b" opacity="0.27797516185743154" rx="1"/><rect x="708.9948160745065" y="743.6843549119505" width="72.9746813334" height="152.52151769877446" fill="#130101" opacity="0.609828841222876" rx="2"/><rect x="741.7572111546301" y="753.6843549119505" width="7.449891173152693" height="6.066580174506312" fill="#c0392b" opacity="0.5075924124120716" rx="1"/><rect x="723.5135408212801" y="756.7176449992037" width="7.449891173152693" height="6.066580174506312" fill="#ff6b6b" opacity="0.2537962062060358" rx="1"/><rect x="739.8474469732943" y="791.8147343366442" width="11.26941953582443" height="9.59889124883313" fill="#c0392b" opacity="0.18642460663952506" rx="1"/><rect x="721.6037766399443" y="796.6141799610607" width="11.26941953582443" height="9.59889124883313" fill="#ff6b6b" opacity="0.09321230331976253" rx="1"/><rect x="740.3357082064919" y="829.9451137613378" width="10.292897069429255" height="9.321420692680734" fill="#c0392b" opacity="0.5251535424089883" rx="1"/><rect x="722.0920378731419" y="834.6058241076781" width="10.292897069429255" height="9.321420692680734" fill="#ff6b6b" opacity="0.26257677120449413" rx="1"/><rect x="741.0487657479463" y="868.0754931860314" width="8.866781986520342" height="8.272410043113029" fill="#c0392b" opacity="0.40052007031639114" rx="1"/><rect x="722.8050954145963" y="872.2116982075879" width="8.866781986520342" height="8.272410043113029" fill="#ff6b6b" opacity="0.20026003515819557" rx="1"/><rect x="788.3974626997395" y="739.0309534010084" width="82.96797592960485" height="157.1749192097166" fill="#130101" opacity="0.6798256616526809" rx="2"/><rect x="825.7458092000124" y="749.0309534010084" width="8.271282929058952" height="7.106146835979574" fill="#c0392b" opacity="0.46547839778137357" rx="1"/><rect x="805.0038152176113" y="752.5840268189983" width="8.271282929058952" height="7.106146835979574" fill="#ff6b6b" opacity="0.23273919889068678" rx="1"/><rect x="824.0991583861091" y="775.2267732692945" width="11.564584556865642" height="8.712666118217786" fill="#c0392b" opacity="0.4933027260688373" rx="1"/><rect x="803.357164403708" y="779.5831063284035" width="11.564584556865642" height="8.712666118217786" fill="#ff6b6b" opacity="0.24665136303441865" rx="1"/><rect x="824.367903921225" y="801.4225931375806" width="11.027093486633872" height="6.714919172393838" fill="#c0392b" opacity="0.33109588020739517" rx="1"/><rect x="803.6259099388238" y="804.7800527237775" width="11.027093486633872" height="6.714919172393838" fill="#ff6b6b" opacity="0.16554794010369758" rx="1"/><rect x="827.7007689674069" y="827.6184130058667" width="4.361363394270037" height="9.640840592710497" fill="#c0392b" opacity="0.2721686413912495" rx="1"/><rect x="806.9587749850058" y="832.438833302222" width="4.361363394270037" height="9.640840592710497" fill="#ff6b6b" opacity="0.13608432069562476" rx="1"/><rect x="827.5762715053139" y="853.8142328741528" width="4.610358318456067" height="8.886089993381429" fill="#c0392b" opacity="0.15441793451421382" rx="1"/><rect x="806.8342775229128" y="858.2572778708435" width="4.610358318456067" height="8.886089993381429" fill="#ff6b6b" opacity="0.07720896725710691" rx="1"/><rect x="825.1347667822844" y="880.0100527424389" width="9.493367764515188" height="8.595125785701704" fill="#c0392b" opacity="0.3331553928631254" rx="1"/><rect x="804.3927727998832" y="884.3076156352897" width="9.493367764515188" height="8.595125785701704" fill="#ff6b6b" opacity="0.1665776964315627" rx="1"/><rect x="874.5950336970335" y="685.4160251644012" width="81.49218358367034" height="210.78984744632382" fill="#2d1b1b" opacity="0.5632816363506209" rx="2"/><rect x="912.2094266278183" y="695.4160251644012" width="6.263397722100699" height="9.466544993097555" fill="#c0392b" opacity="0.20275780505099283" rx="1"/><rect x="891.8363807319007" y="700.14929766095" width="6.263397722100699" height="9.466544993097555" fill="#ff6b6b" opacity="0.10137890252549642" rx="1"/><rect x="911.1020249566724" y="725.528860513876" width="8.478201064392506" height="7.801718853833554" fill="#c0392b" opacity="0.19610995361490874" rx="1"/><rect x="890.7289790607548" y="729.4297199407928" width="8.478201064392506" height="7.801718853833554" fill="#ff6b6b" opacity="0.09805497680745437" rx="1"/><rect x="909.946794057062" y="755.6416958633508" width="10.788662863613261" height="8.141982154488094" fill="#c0392b" opacity="0.582419690928054" rx="1"/><rect x="889.5737481611444" y="759.7126869405948" width="10.788662863613261" height="8.141982154488094" fill="#ff6b6b" opacity="0.291209845464027" rx="1"/><rect x="910.7376747382617" y="785.7545312128257" width="9.206901501213876" height="7.326621492702193" fill="#c0392b" opacity="0.5818279151762435" rx="1"/><rect x="890.3646288423441" y="789.4178419591767" width="9.206901501213876" height="7.326621492702193" fill="#ff6b6b" opacity="0.2909139575881218" rx="1"/><rect x="910.6610539611063" y="815.8673665623005" width="9.36014305552471" height="7.607864193061335" fill="#c0392b" opacity="0.4826861296274434" rx="1"/><rect x="890.2880080651887" y="819.6712986588311" width="9.36014305552471" height="7.607864193061335" fill="#ff6b6b" opacity="0.2413430648137217" rx="1"/><rect x="911.4654316968861" y="845.9802019117753" width="7.751387583965293" height="7.189663007201083" fill="#c0392b" opacity="0.5056164700085336" rx="1"/><rect x="891.0923858009685" y="849.5750334153759" width="7.751387583965293" height="7.189663007201083" fill="#ff6b6b" opacity="0.2528082350042668" rx="1"/><rect x="911.3208450806566" y="876.0930372612502" width="8.040560816424097" height="6.1545600146415085" fill="#c0392b" opacity="0.19737470492193818" rx="1"/><rect x="890.947799184739" y="879.1703172685709" width="8.040560816424097" height="6.1545600146415085" fill="#ff6b6b" opacity="0.09868735246096909" rx="1"/><rect x="971.1684986579158" y="523.4474701046588" width="88.38245244659075" height="372.75840250606615" fill="#130101" opacity="0.5892405110386295" rx="2"/><rect x="1010.0099703820912" y="533.4474701046588" width="10.69950899824023" height="6.847722069557691" fill="#c0392b" opacity="0.5636513781649181" rx="1"/><rect x="987.9143572704435" y="536.8713311394376" width="10.69950899824023" height="6.847722069557691" fill="#ff6b6b" opacity="0.28182568908245903" rx="1"/><rect x="1011.3258407512508" y="586.6986704626682" width="8.067768259921056" height="7.868420510987849" fill="#c0392b" opacity="0.4465297239242424" rx="1"/><rect x="989.2302276396031" y="590.6328807181621" width="8.067768259921056" height="7.868420510987849" fill="#ff6b6b" opacity="0.2232648619621212" rx="1"/><rect x="1009.6849043799297" y="639.9498708206777" width="11.34964100256321" height="6.753626133490733" fill="#c0392b" opacity="0.1424974027654383" rx="1"/><rect x="987.589291268282" y="643.3266838874231" width="11.34964100256321" height="6.753626133490733" fill="#ff6b6b" opacity="0.07124870138271915" rx="1"/><rect x="1012.8522358154535" y="693.2010711786871" width="5.014978131515667" height="6.082477469947766" fill="#c0392b" opacity="0.21903478417523084" rx="1"/><rect x="990.7566227038058" y="696.242309913661" width="5.014978131515667" height="6.082477469947766" fill="#ff6b6b" opacity="0.10951739208761542" rx="1"/><rect x="1011.0453282785708" y="746.4522715366966" width="8.628793205280973" height="8.829052713427007" fill="#c0392b" opacity="0.5749668264936113" rx="1"/><rect x="988.949715166923" y="750.8667978934101" width="8.628793205280973" height="8.829052713427007" fill="#ff6b6b" opacity="0.28748341324680565" rx="1"/><rect x="1013.3045893908256" y="799.7034718947061" width="4.1102709807712285" height="8.935610482221378" fill="#c0392b" opacity="0.1423627444641578" rx="1"/><rect x="991.2089762791779" y="804.1712771358168" width="4.1102709807712285" height="8.935610482221378" fill="#ff6b6b" opacity="0.0711813722320789" rx="1"/><rect x="1010.3532449997388" y="852.9546722527155" width="10.012959762945062" height="9.364998652451904" fill="#c0392b" opacity="0.5537709947800662" rx="1"/><rect x="988.257631888091" y="857.6371715789414" width="10.012959762945062" height="9.364998652451904" fill="#ff6b6b" opacity="0.2768854973900331" rx="1"/><rect x="1067.0678374331644" y="657.5593783537763" width="60.469415641964744" height="238.6464942569487" fill="#130101" opacity="0.6999557184055345" rx="2"/><rect x="1094.462743731048" y="667.5593783537763" width="5.679603046197352" height="9.049308245780251" fill="#c0392b" opacity="0.3016279628038472" rx="1"/><rect x="1079.3453898205569" y="672.0840324766664" width="5.679603046197352" height="9.049308245780251" fill="#ff6b6b" opacity="0.1508139814019236" rx="1"/><rect x="1092.7524653099408" y="697.390190135895" width="9.100159888411909" height="9.88023152851505" fill="#c0392b" opacity="0.2855889020221282" rx="1"/><rect x="1077.6351113994497" y="702.3303059001524" width="9.100159888411909" height="9.88023152851505" fill="#ff6b6b" opacity="0.1427944510110641" rx="1"/><rect x="1091.5361955101494" y="727.2210019180135" width="11.532699487994588" height="8.998740810667803" fill="#c0392b" opacity="0.3277299442160246" rx="1"/><rect x="1076.4188415996582" y="731.7203723233474" width="11.532699487994588" height="8.998740810667803" fill="#ff6b6b" opacity="0.1638649721080123" rx="1"/><rect x="1095.2167488699858" y="757.051813700132" width="4.17159276832165" height="8.661875010156509" fill="#c0392b" opacity="0.5225774899643327" rx="1"/><rect x="1080.0993949594947" y="761.3827512052103" width="4.17159276832165" height="8.661875010156509" fill="#ff6b6b" opacity="0.26128874498216637" rx="1"/><rect x="1092.8243808526643" y="786.8826254822507" width="8.956328802964727" height="9.005556601799455" fill="#c0392b" opacity="0.2230329942477478" rx="1"/><rect x="1077.7070269421731" y="791.3854037831504" width="8.956328802964727" height="9.005556601799455" fill="#ff6b6b" opacity="0.1115164971238739" rx="1"/><rect x="1093.5658183904327" y="816.7134372643693" width="7.4734537274282085" height="6.571084976329255" fill="#c0392b" opacity="0.35800116820214345" rx="1"/><rect x="1078.4484644799415" y="819.998979752534" width="7.4734537274282085" height="6.571084976329255" fill="#ff6b6b" opacity="0.17900058410107172" rx="1"/><rect x="1092.6049476576557" y="846.5442490464878" width="9.395195192982255" height="9.065726897461742" fill="#c0392b" opacity="0.14808810854984636" rx="1"/><rect x="1077.4875937471645" y="851.0771124952187" width="9.395195192982255" height="9.065726897461742" fill="#ff6b6b" opacity="0.07404405427492318" rx="1"/><rect x="1092.2185524415775" y="876.3750608286064" width="10.167985625138503" height="8.961343535911604" fill="#c0392b" opacity="0.3007145754063303" rx="1"/><rect x="1077.1011985310863" y="880.8557325965621" width="10.167985625138503" height="8.961343535911604" fill="#ff6b6b" opacity="0.15035728770316514" rx="1"/><rect x="1145.0108635119739" y="799.6023964252329" width="65.45357935956063" height="96.60347618549211" fill="#130101" opacity="0.5512970936836901" rx="2"/><rect x="1173.3379198498965" y="809.6023964252329" width="8.799466683715458" height="7.761013448648391" fill="#c0392b" opacity="0.4280869666086712" rx="1"/><rect x="1156.9745250100063" y="813.482903149557" width="8.799466683715458" height="7.761013448648391" fill="#ff6b6b" opacity="0.2140434833043356" rx="1"/><rect x="1175.5971221696198" y="821.6778309484193" width="4.2810620442687215" height="9.230067628256528" fill="#c0392b" opacity="0.14702318938146886" rx="1"/><rect x="1159.2337273297296" y="826.2928647625477" width="4.2810620442687215" height="9.230067628256528" fill="#ff6b6b" opacity="0.07351159469073443" rx="1"/><rect x="1172.7992957400706" y="833.7532654716059" width="9.876714903366919" height="6.876144851761904" fill="#c0392b" opacity="0.18399888863414499" rx="1"/><rect x="1156.4359009001805" y="837.1913378974868" width="9.876714903366919" height="6.876144851761904" fill="#ff6b6b" opacity="0.09199944431707249" rx="1"/><rect x="1173.470809689748" y="845.8286999947924" width="8.53368700401245" height="9.513028791992234" fill="#c0392b" opacity="0.22032758680179892" rx="1"/><rect x="1157.1074148498578" y="850.5852143907885" width="8.53368700401245" height="9.513028791992234" fill="#ff6b6b" opacity="0.11016379340089946" rx="1"/><rect x="1172.4777411853695" y="857.904134517979" width="10.519824012769345" height="7.435028771272634" fill="#c0392b" opacity="0.3406579147187662" rx="1"/><rect x="1156.1143463454794" y="861.6216489036152" width="10.519824012769345" height="7.435028771272634" fill="#ff6b6b" opacity="0.1703289573593831" rx="1"/><rect x="1175.214259884751" y="869.9795690411654" width="5.046786614006103" height="9.040085199996849" fill="#c0392b" opacity="0.5820202632066841" rx="1"/><rect x="1158.850865044861" y="874.4996116411638" width="5.046786614006103" height="9.040085199996849" fill="#ff6b6b" opacity="0.29101013160334205" rx="1"/><rect x="1171.8715594938276" y="882.055003564352" width="11.732187395853035" height="6.491483623276345" fill="#c0392b" opacity="0.2540861681928127" rx="1"/><rect x="1155.5081646539375" y="885.3007453759901" width="11.732187395853035" height="6.491483623276345" fill="#ff6b6b" opacity="0.12704308409640636" rx="1"/><rect x="1173.5942550590798" y="894.1304380875384" width="8.286796265348512" height="6.556649747434223" fill="#c0392b" opacity="0.14487082665899556" rx="1"/><rect x="1157.2308602191897" y="897.4087629612555" width="8.286796265348512" height="6.556649747434223" fill="#ff6b6b" opacity="0.07243541332949778" rx="1"/><rect x="1226.8951801146263" y="687.8822518135147" width="58.5342877517767" height="208.32362079721028" fill="#2d1b1b" opacity="0.41673469893092635" rx="2"/><rect x="1252.3195602187827" y="697.8822518135147" width="7.6855275434641" height="8.611135326933846" fill="#c0392b" opacity="0.5872842106240066" rx="1"/><rect x="1237.6859882808385" y="702.1878194769816" width="7.6855275434641" height="8.611135326933846" fill="#ff6b6b" opacity="0.2936421053120033" rx="1"/><rect x="1253.654546171918" y="767.3234587459182" width="5.01555563719374" height="8.313399208316905" fill="#c0392b" opacity="0.12750429220672332" rx="1"/><rect x="1239.0209742339737" y="771.4801583500766" width="5.01555563719374" height="8.313399208316905" fill="#ff6b6b" opacity="0.06375214610336166" rx="1"/><rect x="1250.8934364838872" y="836.7646656783215" width="10.537775013255368" height="6.316275443024066" fill="#c0392b" opacity="0.2054367852875583" rx="1"/><rect x="1236.259864545943" y="839.9228033998336" width="10.537775013255368" height="6.316275443024066" fill="#ff6b6b" opacity="0.10271839264377915" rx="1"/><rect x="1316.7837842074355" y="587.2940374392304" width="41.08641970229485" height="308.9118351714946" fill="#130101" opacity="0.5118342010099055" rx="2"/><rect x="1333.8398706172854" y="597.2940374392304" width="6.974246882594714" height="7.608638498375341" fill="#c0392b" opacity="0.28363995132586917" rx="1"/><rect x="1323.5682656917118" y="601.098356688418" width="6.974246882594714" height="7.608638498375341" fill="#ff6b6b" opacity="0.14181997566293458" rx="1"/><rect x="1331.4100559306523" y="641.4242996065867" width="11.83387625586099" height="6.202311058575826" fill="#c0392b" opacity="0.32335074986874845" rx="1"/><rect x="1321.1384510050787" y="644.5254551358746" width="11.83387625586099" height="6.202311058575826" fill="#ff6b6b" opacity="0.16167537493437423" rx="1"/><rect x="1335.148354753717" y="685.5545617739431" width="4.357278609731532" height="8.531483222388541" fill="#c0392b" opacity="0.25285014120229754" rx="1"/><rect x="1324.8767498281434" y="689.8203033851373" width="4.357278609731532" height="8.531483222388541" fill="#ff6b6b" opacity="0.12642507060114877" rx="1"/><rect x="1331.3640501777727" y="729.6848239412994" width="11.925887761620313" height="6.805371815526246" fill="#c0392b" opacity="0.32842310723579093" rx="1"/><rect x="1321.092445252199" y="733.0875098490626" width="11.925887761620313" height="6.805371815526246" fill="#ff6b6b" opacity="0.16421155361789547" rx="1"/><rect x="1332.909276051722" y="773.8150861086558" width="8.83543601372173" height="7.507775191568717" fill="#c0392b" opacity="0.5989675530230085" rx="1"/><rect x="1322.6376711261482" y="777.5689737044402" width="8.83543601372173" height="7.507775191568717" fill="#ff6b6b" opacity="0.29948377651150426" rx="1"/><rect x="1334.3794693207956" y="817.9453482760122" width="5.895049475574645" height="7.379947661743487" fill="#c0392b" opacity="0.2538515497590069" rx="1"/><rect x="1324.107864395222" y="821.6353221068839" width="5.895049475574645" height="7.379947661743487" fill="#ff6b6b" opacity="0.12692577487950346" rx="1"/><rect x="1334.810781555968" y="862.0756104433685" width="5.032425005229289" height="8.092314365807063" fill="#c0392b" opacity="0.3231055497478474" rx="1"/><rect x="1324.5391766303944" y="866.1217676262721" width="5.032425005229289" height="8.092314365807063" fill="#ff6b6b" opacity="0.1615527748739237" rx="1"/><rect x="1407.839981265583" y="694.002435809002" width="32.80014599738646" height="202.20343680172306" fill="#130101" opacity="0.5196525852707337" rx="2"/><rect x="1421.6238840598883" y="704.002435809002" width="5.232340408776035" height="7.2192318004600775" fill="#c0392b" opacity="0.570133311341082" rx="1"/><rect x="1413.4238475605416" y="707.612051709232" width="5.232340408776035" height="7.2192318004600775" fill="#ff6b6b" opacity="0.285066655670541" rx="1"/><rect x="1418.3979117578106" y="744.4431231693466" width="11.684285012931628" height="9.44207380978439" fill="#c0392b" opacity="0.3884137773160855" rx="1"/><rect x="1410.197875258464" y="749.1641600742388" width="11.684285012931628" height="9.44207380978439" fill="#ff6b6b" opacity="0.19420688865804275" rx="1"/><rect x="1418.5043895837377" y="784.8838105296912" width="11.471329361077242" height="6.00270190835062" fill="#c0392b" opacity="0.4825671780813875" rx="1"/><rect x="1410.304353084391" y="787.8851614838666" width="11.471329361077242" height="6.00270190835062" fill="#ff6b6b" opacity="0.24128358904069375" rx="1"/><rect x="1421.160040488758" y="825.3244978900359" width="6.160027551036334" height="6.479662447348159" fill="#c0392b" opacity="0.5969628226237751" rx="1"/><rect x="1412.9600039894115" y="828.56432911371" width="6.160027551036334" height="6.479662447348159" fill="#ff6b6b" opacity="0.29848141131188755" rx="1"/><rect x="1418.7727528742664" y="865.7651852503805" width="10.934602780019539" height="8.386129184250285" fill="#c0392b" opacity="0.309211662576816" rx="1"/><rect x="1410.5727163749198" y="869.9582498425056" width="10.934602780019539" height="8.386129184250285" fill="#ff6b6b" opacity="0.154605831288408" rx="1"/><rect x="1513.2674342310465" y="762.0603308575369" width="79.9362785578557" height="134.14554175318813" fill="#2d1b1b" opacity="0.43150513999431983" rx="2"/><rect x="1548.7045835132274" y="772.0603308575369" width="9.061979993493757" height="8.419276490439493" fill="#c0392b" opacity="0.22998929890570913" rx="1"/><rect x="1528.7205138737636" y="776.2699691027566" width="9.061979993493757" height="8.419276490439493" fill="#ff6b6b" opacity="0.11499464945285456" rx="1"/><rect x="1547.4747321823106" y="794.4179211497349" width="11.521682655327414" height="8.475877864862763" fill="#c0392b" opacity="0.32616767131867064" rx="1"/><rect x="1527.4906625428468" y="798.6558600821662" width="11.521682655327414" height="8.475877864862763" fill="#ff6b6b" opacity="0.16308383565933532" rx="1"/><rect x="1551.1469618103129" y="816.775511441933" width="4.177223399322765" height="7.634888274975793" fill="#c0392b" opacity="0.4519272767826745" rx="1"/><rect x="1531.162892170849" y="820.5929555794208" width="4.177223399322765" height="7.634888274975793" fill="#ff6b6b" opacity="0.22596363839133726" rx="1"/><rect x="1549.453665803038" y="839.133101734131" width="7.5638154138726685" height="7.124523985461454" fill="#c0392b" opacity="0.5731289311249576" rx="1"/><rect x="1529.4695961635741" y="842.6953637268617" width="7.5638154138726685" height="7.124523985461454" fill="#ff6b6b" opacity="0.2865644655624788" rx="1"/><rect x="1549.7062514246475" y="861.4906920263289" width="7.05864417065369" height="9.558262412333455" fill="#c0392b" opacity="0.391579780585966" rx="1"/><rect x="1529.7221817851837" y="866.2698232324957" width="7.05864417065369" height="9.558262412333455" fill="#ff6b6b" opacity="0.195789890292983" rx="1"/><rect x="1547.6617826422605" y="883.848282318527" width="11.147581735427394" height="7.080482426351049" fill="#c0392b" opacity="0.1736518582733469" rx="1"/><rect x="1527.6777130027967" y="887.3885235317025" width="11.147581735427394" height="7.080482426351049" fill="#ff6b6b" opacity="0.08682592913667345" rx="1"/><rect x="1586.4325169821177" y="705.2289652533897" width="51.51760746760238" height="190.9769073573353" fill="#130101" opacity="0.43556989155140935" rx="2"/><rect x="1608.0039785038055" y="715.2289652533897" width="8.374684424226796" height="8.033332242172522" fill="#c0392b" opacity="0.32827762719902154" rx="1"/><rect x="1595.124576636905" y="719.2456313744759" width="8.374684424226796" height="8.033332242172522" fill="#ff6b6b" opacity="0.16413881359951077" rx="1"/><rect x="1609.6047619276987" y="742.5113805901518" width="5.173117576440125" height="9.430994518900055" fill="#c0392b" opacity="0.4054206429061994" rx="1"/><rect x="1596.7253600607983" y="747.2268778496018" width="5.173117576440125" height="9.430994518900055" fill="#ff6b6b" opacity="0.2027103214530997" rx="1"/><rect x="1606.3199432087242" y="769.7937959269141" width="11.742755014389463" height="7.4005744181109065" fill="#c0392b" opacity="0.24940094846519664" rx="1"/><rect x="1593.4405413418237" y="773.4940831359695" width="11.742755014389463" height="7.4005744181109065" fill="#ff6b6b" opacity="0.12470047423259832" rx="1"/><rect x="1607.958624211067" y="797.0762112636762" width="8.46539300970393" height="7.8747283634438014" fill="#c0392b" opacity="0.1302805261524116" rx="1"/><rect x="1595.0792223441665" y="801.0135754453981" width="8.46539300970393" height="7.8747283634438014" fill="#ff6b6b" opacity="0.0651402630762058" rx="1"/><rect x="1609.7921040834672" y="824.3586266004385" width="4.798433264903359" height="8.14855703109609" fill="#c0392b" opacity="0.2929635770369702" rx="1"/><rect x="1596.9127022165667" y="828.4329051159865" width="4.798433264903359" height="8.14855703109609" fill="#ff6b6b" opacity="0.1464817885184851" rx="1"/><rect x="1609.601325786982" y="851.6410419372006" width="5.179989857873877" height="7.578859588498915" fill="#c0392b" opacity="0.3974265579361065" rx="1"/><rect x="1596.7219239200815" y="855.4304717314501" width="5.179989857873877" height="7.578859588498915" fill="#ff6b6b" opacity="0.19871327896805324" rx="1"/><rect x="1606.9748274382907" y="878.9234572739629" width="10.432986555256178" height="6.672048680640769" fill="#c0392b" opacity="0.5804207541701433" rx="1"/><rect x="1594.0954255713903" y="882.2594816142832" width="10.432986555256178" height="6.672048680640769" fill="#ff6b6b" opacity="0.29021037708507164" rx="1"/><rect x="1666.310231194565" y="553.4321675783565" width="66.40375267164869" height="342.7737050323686" fill="#2d1b1b" opacity="0.5120736339157619" rx="2"/><rect x="1696.6306813792735" y="563.4321675783565" width="5.7628523022315585" height="7.380728005753069" fill="#c0392b" opacity="0.29943753273678886" rx="1"/><rect x="1680.0297432113612" y="567.122531581233" width="5.7628523022315585" height="7.380728005753069" fill="#ff6b6b" opacity="0.14971876636839443" rx="1"/><rect x="1695.1073516077952" y="649.1255938364486" width="8.809511845188567" height="7.486877427782602" fill="#c0392b" opacity="0.4873570686875277" rx="1"/><rect x="1678.5064134398829" y="652.86903255034" width="8.809511845188567" height="7.486877427782602" fill="#ff6b6b" opacity="0.24367853434376385" rx="1"/><rect x="1695.7871327189107" y="734.8190200945407" width="7.44994962295749" height="7.0113205399856255" fill="#c0392b" opacity="0.11074834389396672" rx="1"/><rect x="1679.1861945509984" y="738.3246803645336" width="7.44994962295749" height="7.0113205399856255" fill="#ff6b6b" opacity="0.05537417194698336" rx="1"/><rect x="1695.5969884202682" y="820.5124463526329" width="7.830238220242373" height="9.074700468004378" fill="#c0392b" opacity="0.32794359729810235" rx="1"/><rect x="1678.9960502523559" y="825.049796586635" width="7.830238220242373" height="9.074700468004378" fill="#ff6b6b" opacity="0.16397179864905118" rx="1"/><rect x="1754.5093300311996" y="790.6831374719468" width="84.78136782412915" height="105.52273513877827" fill="#2d1b1b" opacity="0.5829853203573696" rx="2"/><rect x="1791.2350814343893" y="800.6831374719468" width="11.329865017749803" height="7.332392733854333" fill="#c0392b" opacity="0.14670718592747747" rx="1"/><rect x="1770.039739478357" y="804.3493338388739" width="11.329865017749803" height="7.332392733854333" fill="#ff6b6b" opacity="0.07335359296373874" rx="1"/><rect x="1793.8217834586244" y="818.2702599950765" width="6.156460969279628" height="9.19390804860599" fill="#c0392b" opacity="0.3843403716767999" rx="1"/><rect x="1772.6264415025921" y="822.8672140193795" width="6.156460969279628" height="9.19390804860599" fill="#ff6b6b" opacity="0.19217018583839995" rx="1"/><rect x="1791.2370403904004" y="835.8573825182062" width="11.32594710572761" height="9.757043823543247" fill="#c0392b" opacity="0.13226901987387543" rx="1"/><rect x="1770.041698434368" y="840.7359044299778" width="11.32594710572761" height="9.757043823543247" fill="#ff6b6b" opacity="0.06613450993693772" rx="1"/><rect x="1793.5501756432732" y="853.4445050413359" width="6.699676599982119" height="7.2934900273786605" fill="#c0392b" opacity="0.1374555057001895" rx="1"/><rect x="1772.354833687241" y="857.0912500550253" width="6.699676599982119" height="7.2934900273786605" fill="#ff6b6b" opacity="0.06872775285009475" rx="1"/><rect x="1793.4470739352541" y="871.0316275644657" width="6.905880016020006" height="7.072984943416198" fill="#c0392b" opacity="0.18386721696794667" rx="1"/><rect x="1772.2517319792219" y="874.5681200361738" width="6.905880016020006" height="7.072984943416198" fill="#ff6b6b" opacity="0.09193360848397333" rx="1"/><rect x="1791.6916103905662" y="888.6187500875953" width="10.416807105396131" height="8.949206096806844" fill="#c0392b" opacity="0.4652192998829343" rx="1"/><rect x="1770.496268434534" y="893.0933531359988" width="10.416807105396131" height="8.949206096806844" fill="#ff6b6b" opacity="0.23260964994146716" rx="1"/><rect x="1853.8675756757264" y="681.3311163176156" width="55.79505289108377" height="214.87475629310933" fill="#130101" opacity="0.43742530111629174" rx="2"/><rect x="1878.8424222702217" y="691.3311163176156" width="5.845359702092912" height="7.4803238039557645" fill="#c0392b" opacity="0.24464218754895084" rx="1"/><rect x="1864.893659047451" y="695.0712782195935" width="5.845359702092912" height="7.4803238039557645" fill="#ff6b6b" opacity="0.12232109377447542" rx="1"/><rect x="1876.4709516879295" y="762.9560350819854" width="10.588300866677496" height="9.967675954095943" fill="#c0392b" opacity="0.13420752718444157" rx="1"/><rect x="1862.5221884651587" y="767.9398730590334" width="10.588300866677496" height="9.967675954095943" fill="#ff6b6b" opacity="0.06710376359222078" rx="1"/><rect x="1877.3108364582279" y="834.5809538463552" width="8.908531326080796" height="8.591539078995478" fill="#c0392b" opacity="0.5425947245775244" rx="1"/><rect x="1863.362073235457" y="838.876723385853" width="8.908531326080796" height="8.591539078995478" fill="#ff6b6b" opacity="0.2712973622887622" rx="1"/><rect x="0" y="1000" width="1920" height="80" fill="#070000" opacity="0.8"/><line x1="0" y1="1040" x2="1920" y2="1040" stroke="#c0392b" stroke-opacity="0.15" stroke-width="2" stroke-dasharray="30,20"/><rect x="0" y="930" width="1920" height="150" fill="url(#glow15)"/><text x="1900" y="1060" font-family="Arial, sans-serif" font-size="11" fill="#fff" opacity="0.08" text-anchor="end" letter-spacing="2">GTA 6 REWARDS · WALLPAPER 016</text>
</svg>