<?xml version="1.0" encoding="UTF-8"?>
<svg xmlns="http://www.w3.org/2000/svg" width="1920" height="1080" viewBox="0 0 1920 1080">
<defs>
    <linearGradient id="bg92" x1="0%" y1="0%" x2="0%" y2="100%">
      <stop offset="0%" stop-color="#3a0ca3"/>
      <stop offset="50%" stop-color="#070070"/>
      <stop offset="100%" stop-color="#3a0ca3"/>
    </linearGradient>
    <linearGradient id="sun92" x1="0%" y1="0%" x2="100%" y2="100%">
      <stop offset="0%" stop-color="#f72585"/>
      <stop offset="100%" stop-color="#b5179e"/>
    </linearGradient>
    <radialGradient id="glow92" cx="50%" cy="70%" r="50%">
      <stop offset="0%" stop-color="#f72585" stop-opacity="0.3"/>
      <stop offset="100%" stop-color="#3a0ca3" stop-opacity="0"/>
    </radialGradient>
  </defs><rect width="1920" height="1080" fill="url(#bg92)"/><circle cx="1046.1787422062314" cy="559.1807280572086" r="779.7234354027835" fill="#f72585" opacity="0.0523744214797333"/><circle cx="1246.1787422062314" cy="459.1807280572086" r="544.9425864836533" fill="#b5179e" opacity="0.12637194612910319"/><circle cx="900.3440722358282" cy="274.727031012235" r="92.52799212758616" fill="url(#sun92)" opacity="0.8673646301420788"/><circle cx="900.3440722358282" cy="274.727031012235" r="87.52799212758616" fill="#3a0ca3" opacity="0.3"/><pattern id="scan92" width="1920" height="4" patternUnits="userSpaceOnUse">
      <line x1="0" y1="0" x2="1920" y2="0" stroke="#000" stroke-opacity="0.05" stroke-width="1"/>
    </pattern>
    <rect width="1920" height="1080" fill="url(#scan92)"/><circle cx="1840.363987665708" cy="335.3136146327745" r="1.4650709163316225" fill="#fff" opacity="0.3554795745190884"/><circle cx="385.04431048059934" cy="29.57361660468709" r="1.776406191470196" fill="#fff" opacity="0.3505615035888183"/><circle cx="1525.5901009416184" cy="383.4203678926966" r="1.2535158030813363" fill="#fff" opacity="0.535825637666468"/><circle cx="1502.8301345330733" cy="312.3464066740932" r="1.3248839824984044" fill="#fff" opacity="0.483690990340824"/><circle cx="1468.4484868190364" cy="280.3919374627043" r="1.5786253240841035" fill="#fff" opacity="0.7983523878730723"/><circle cx="1011.0195567577657" cy="47.90601556373434" r="1.474973516067251" fill="#fff" opacity="0.211577480149357"/><circle cx="503.55753925246125" cy="229.43524703509996" r="1.9298505810857403" fill="#fff" opacity="0.7295128739274837"/><circle cx="760.1152764540434" cy="392.0215027947029" r="0.8092093164588346" fill="#fff" opacity="0.5485733109872261"/><circle cx="1847.6453219185687" cy="121.07661377104851" r="0.6918067228262794" fill="#fff" opacity="0.35566587433118046"/><circle cx="92.45797815091395" cy="258.52692499443117" r="1.0796904278871815" fill="#fff" opacity="0.7625673425762372"/><circle cx="117.18534129606218" cy="379.87339004778147" r="1.0164169813544528" fill="#fff" opacity="0.443914365685525"/><circle cx="274.6017972274222" cy="381.3540570319989" r="0.6586796830312069" fill="#fff" opacity="0.6550682379992372"/><circle cx="1470.3369747545423" cy="195.68882747452912" r="0.6738080260515698" fill="#fff" opacity="0.2986925663656305"/><circle cx="1068.4673164292394" cy="67.19155027046604" r="0.6517959123365106" fill="#fff" opacity="0.28768142179764844"/><circle cx="495.7080183587289" cy="27.35967307057224" r="1.0901131351921038" fill="#fff" opacity="0.4245572218262956"/><circle cx="1311.8368576541163" cy="219.8035825183158" r="1.454381725623827" fill="#fff" opacity="0.7700736384769142"/><circle cx="234.0988804945021" cy="116.82755594812976" r="1.687289654088041" fill="#fff" opacity="0.7789232396937262"/><circle cx="1057.6482825953626" cy="375.46117619971307" r="0.5150376539712394" fill="#fff" opacity="0.2750044344633362"/><circle cx="590.3048431757617" cy="361.79934444506637" r="0.7977040444495399" fill="#fff" opacity="0.6161768684667016"/><circle cx="1452.3137452109515" cy="275.99975347984577" r="1.0251745006593815" fill="#fff" opacity="0.666572447322908"/><circle cx="1370.6490293356237" cy="336.8958316596448" r="1.3327565732953968" fill="#fff" opacity="0.6829407534289501"/><circle cx="1335.6003198157066" cy="204.73094248323025" r="0.9979744278821103" fill="#fff" opacity="0.4945857275963262"/><circle cx="1437.7664287755651" cy="359.52972971823294" r="1.3503848507186362" fill="#fff" opacity="0.20792995584381976"/><circle cx="886.1161335385675" cy="383.9999833367765" r="1.6299270924948919" fill="#fff" opacity="0.5378618820425733"/><circle cx="1467.4552612443117" cy="78.63546134499727" r="1.944805934895949" fill="#fff" opacity="0.7883704366601003"/><circle cx="917.8823212436126" cy="426.52033378428786" r="1.9203665033961568" fill="#fff" opacity="0.77308195200122"/><circle cx="1386.7687863360086" cy="240.4527691529255" r="1.4419530298192877" fill="#fff" opacity="0.28925761843315734"/><circle cx="56.31229163527309" cy="371.6473142662196" r="1.4244157637991979" fill="#fff" opacity="0.2697666933922485"/><circle cx="1088.682261213819" cy="33.36471865357941" r="1.2240804873230124" fill="#fff" opacity="0.7341705032005372"/><circle cx="1507.7654469543522" cy="80.97053648926563" r="1.39787904147475" fill="#fff" opacity="0.31065290055951406"/><circle cx="1106.7954167320383" cy="6.280254108430877" r="1.0949485653766777" fill="#fff" opacity="0.7445404277053989"/><circle cx="1077.3302192514134" cy="309.296066751074" r="0.7074646365846192" fill="#fff" opacity="0.6729667428119497"/><circle cx="872.8289014643126" cy="31.906002063282298" r="1.6605581534468938" fill="#fff" opacity="0.6278480912623573"/><circle cx="1434.8274979355808" cy="123.9400163655961" r="1.1372094233839793" fill="#fff" opacity="0.6986234153850523"/><circle cx="1761.6063406694695" cy="9.808531592089807" r="0.5362255206648785" fill="#fff" opacity="0.4916407387917025"/><circle cx="358.89667117011186" cy="174.60762809557087" r="0.8556066052651979" fill="#fff" opacity="0.7789215933482445"/><circle cx="1873.8995964717817" cy="263.2228319326469" r="1.5416768656674953" fill="#fff" opacity="0.5001786043169393"/><circle cx="408.4448898789577" cy="200.0277794990753" r="1.4740019427784723" fill="#fff" opacity="0.29946327900967173"/><circle cx="1644.7155895188255" cy="163.07785910812157" r="1.5376272644003917" fill="#fff" opacity="0.2228495593701605"/><circle cx="131.5944041618133" cy="402.32674241492685" r="1.0257154019842192" fill="#fff" opacity="0.4613355057456846"/><circle cx="1361.2518836747045" cy="245.3064638090568" r="0.6610241425598562" fill="#fff" opacity="0.49517204814943766"/><circle cx="649.5139308295944" cy="232.51193493430313" r="1.8227998795506544" fill="#fff" opacity="0.40946098086644456"/><circle cx="27.196353978290304" cy="405.85890541362085" r="1.6460737361679956" fill="#fff" opacity="0.6106739526173738"/><circle cx="1193.9151847162086" cy="398.4999368783319" r="1.5321729763020233" fill="#fff" opacity="0.27949506395484675"/><circle cx="164.0018172943969" cy="242.66043541269855" r="1.2603774605692313" fill="#fff" opacity="0.2132660859295321"/><circle cx="984.4362064507875" cy="33.4414805587012" r="1.6265547898659842" fill="#fff" opacity="0.7644350302322849"/><circle cx="1078.5440998800434" cy="38.698005860368255" r="1.438053782782064" fill="#fff" opacity="0.7664869579874181"/><circle cx="865.3786658275358" cy="313.15480784167414" r="1.100987859326645" fill="#fff" opacity="0.2513782263853071"/><circle cx="878.6753714640336" cy="415.31217550470313" r="1.8442822479047538" fill="#fff" opacity="0.3869505918554381"/><circle cx="49.317129861870114" cy="350.93293426161" r="1.642807289292758" fill="#fff" opacity="0.5821199138607178"/><circle cx="301.21102280477317" cy="154.72537594538306" r="0.7738949023824871" fill="#fff" opacity="0.43332388872125277"/><circle cx="548.7975607600058" cy="313.87598608664143" r="0.7217129726711924" fill="#fff" opacity="0.7516522908005054"/><circle cx="509.64046654050253" cy="417.5383720401531" r="0.8074541441880758" fill="#fff" opacity="0.5508800449666753"/><circle cx="833.6816701743942" cy="14.722877599001603" r="1.2008431028111006" fill="#fff" opacity="0.6866478726469558"/><circle cx="1446.4811158567857" cy="291.0595674931676" r="1.042507371176618" fill="#fff" opacity="0.2903490678151951"/><circle cx="544.2928452566948" cy="153.69360996635947" r="1.3710205902743666" fill="#fff" opacity="0.6749857787217446"/><circle cx="752.6146532857359" cy="376.22394263190773" r="1.827464320307473" fill="#fff" opacity="0.3416964754792155"/><circle cx="831.9163291603132" cy="160.6016413980633" r="1.5129830263352448" fill="#fff" opacity="0.40537977130277547"/><circle cx="1280.6271804870635" cy="90.21992677688131" r="1.3464131662264496" fill="#fff" opacity="0.6174797474447358"/><circle cx="1258.3795142123429" cy="355.2962550938353" r="1.8528147382551838" fill="#fff" opacity="0.3378005777806511"/><circle cx="459.5243647274385" cy="379.89041238554995" r="1.8956301059563714" fill="#fff" opacity="0.6352603081230215"/><circle cx="1799.6628851908406" cy="227.71956241589962" r="1.7031071676647076" fill="#fff" opacity="0.5104523674376431"/><circle cx="1823.9729770794447" cy="299.31684779266755" r="1.9213212213761455" fill="#fff" opacity="0.7277999617456925"/><circle cx="1341.9939072574475" cy="304.6339503155635" r="1.0498266110778383" fill="#fff" opacity="0.7467963310300365"/><circle cx="979.6579606131786" cy="59.35480188842742" r="1.8655091320084196" fill="#fff" opacity="0.2968165694495702"/><circle cx="881.2618421579855" cy="271.68559653304646" r="0.5597563049662291" fill="#fff" opacity="0.7400747014070104"/><circle cx="1164.4124014406493" cy="337.5044338706659" r="1.2785472969474614" fill="#fff" opacity="0.2913603786591814"/><circle cx="919.9190656002422" cy="163.31044193434306" r="1.6633160587314788" fill="#fff" opacity="0.5958554478352553"/><circle cx="1079.1534557470943" cy="149.86567206817344" r="1.5841245789975218" fill="#fff" opacity="0.3063487182618931"/><circle cx="570.6174088852987" cy="196.5901592384535" r="1.1768683280509125" fill="#fff" opacity="0.725533638597823"/><circle cx="1833.2655322349783" cy="348.2717069937549" r="0.589034381110462" fill="#fff" opacity="0.6616302967215028"/><circle cx="1636.0961865717768" cy="106.0931116552309" r="0.9147730592905481" fill="#fff" opacity="0.5941321063307422"/><circle cx="355.26879303978495" cy="10.78419528035079" r="1.2056584782445938" fill="#fff" opacity="0.5781886677206933"/><circle cx="630.1960387803139" cy="0.19820280750240266" r="0.6606372768666217" fill="#fff" opacity="0.5962361847507386"/><circle cx="446.6597164717176" cy="345.8957125381324" r="0.7259167077080153" fill="#fff" opacity="0.7017585985133794"/><circle cx="139.9293820885777" cy="359.8878312762565" r="1.123639302357016" fill="#fff" opacity="0.5901719723805254"/><circle cx="1055.00767777092" cy="217.51037799788415" r="1.7173287319525445" fill="#fff" opacity="0.7107920849953759"/><circle cx="1012.4376111599704" cy="139.3284818854482" r="1.6217822976461105" fill="#fff" opacity="0.2790401719228924"/><circle cx="1456.3916345351356" cy="60.99825354595628" r="1.4932961377765277" fill="#fff" opacity="0.27620443158694646"/><circle cx="1807.1368404960112" cy="206.75119978160393" r="1.0702672307543146" fill="#fff" opacity="0.3711281713031065"/><circle cx="1023.3809644876469" cy="207.2649895919638" r="1.2791698886498737" fill="#fff" opacity="0.21002922374988656"/><circle cx="234.96465107308808" cy="132.6295547309866" r="0.529192086199576" fill="#fff" opacity="0.6697740204329077"/><rect x="14.106669922849784" y="565.7526190662181" width="73.39572249059466" height="288.701337293885" fill="#200089" opacity="0.4931264689874664" rx="2"/><rect x="48.4137062401077" y="575.7526190662181" width="4.781649856078823" height="8.371363523968347" fill="#b5179e" opacity="0.5465586752506343" rx="1"/><rect x="30.064775617459038" y="579.9383008282023" width="4.781649856078823" height="8.371363523968347" fill="#f72585" opacity="0.27327933762531714" rx="1"/><rect x="48.315247510400425" y="647.9279533896894" width="4.978567315493377" height="9.748861526080608" fill="#b5179e" opacity="0.4312384304197595" rx="1"/><rect x="29.96631688775176" y="652.8023841527297" width="4.978567315493377" height="9.748861526080608" fill="#f72585" opacity="0.21561921520987976" rx="1"/><rect x="46.790526416569605" y="720.1032877131606" width="8.028009503155019" height="7.81241785963355" fill="#b5179e" opacity="0.38154904518312516" rx="1"/><rect x="28.44159579392094" y="724.0094966429774" width="8.028009503155019" height="7.81241785963355" fill="#f72585" opacity="0.19077452259156258" rx="1"/><rect x="46.275453614367976" y="792.2786220366319" width="9.058155107558274" height="6.686404572959618" fill="#b5179e" opacity="0.40043802626906844" rx="1"/><rect x="27.92652299171931" y="795.6218243231117" width="9.058155107558274" height="6.686404572959618" fill="#f72585" opacity="0.20021901313453422" rx="1"/><rect x="88.60150297372637" y="737.2335044870231" width="58.4156883760392" height="117.22045187307998" fill="#3a0ca3" opacity="0.49594337888898876" rx="2"/><rect x="113.06537241769614" y="747.2335044870231" width="9.487949488099652" height="6.082064365055893" fill="#b5179e" opacity="0.35046488054806013" rx="1"/><rect x="98.46145032368635" y="750.274536669551" width="9.487949488099652" height="6.082064365055893" fill="#f72585" opacity="0.17523244027403007" rx="1"/><rect x="115.36563393994365" y="786.3069884447164" width="4.887426443604619" height="9.456838602073686" fill="#b5179e" opacity="0.5552072173578682" rx="1"/><rect x="100.76171184593386" y="791.0354077457532" width="4.887426443604619" height="9.456838602073686" fill="#f72585" opacity="0.2776036086789341" rx="1"/><rect x="115.09344632227287" y="825.3804724024097" width="5.431801678946195" height="7.881610083831849" fill="#b5179e" opacity="0.27695392299838223" rx="1"/><rect x="100.48952422826308" y="829.3212774443257" width="5.431801678946195" height="7.881610083831849" fill="#f72585" opacity="0.13847696149919111" rx="1"/><rect x="164.74920395406645" y="475.50206054595816" width="55.38245483892561" height="378.95189581414496" fill="#3a0ca3" opacity="0.6430023366685497" rx="2"/><rect x="186.70767291302505" y="485.50206054595816" width="11.465516921008359" height="6.148950968903711" fill="#b5179e" opacity="0.14816475837681553" rx="1"/><rect x="172.86205920329365" y="488.57653603041" width="11.465516921008359" height="6.148950968903711" fill="#f72585" opacity="0.07408237918840777" rx="1"/><rect x="189.3670016192754" y="532.8710475227263" width="6.146859508507619" height="8.739034421448372" fill="#b5179e" opacity="0.16243149111104" rx="1"/><rect x="175.52138790954402" y="537.2405647334505" width="6.146859508507619" height="8.739034421448372" fill="#f72585" opacity="0.08121574555552" rx="1"/><rect x="188.96950943860446" y="580.2400344994944" width="6.941843869849537" height="6.170995644333538" fill="#b5179e" opacity="0.5914488169577552" rx="1"/><rect x="175.12389572887307" y="583.3255323216612" width="6.941843869849537" height="6.170995644333538" fill="#f72585" opacity="0.2957244084788776" rx="1"/><rect x="190.1400983736711" y="627.6090214762626" width="4.600665999716303" height="9.865265377765816" fill="#b5179e" opacity="0.1987893500362498" rx="1"/><rect x="176.2944846639397" y="632.5416541651455" width="4.600665999716303" height="9.865265377765816" fill="#f72585" opacity="0.0993946750181249" rx="1"/><rect x="188.3024759514496" y="674.9780084530306" width="8.275910844159291" height="7.525315687415496" fill="#b5179e" opacity="0.11726662181719827" rx="1"/><rect x="174.4568622417182" y="678.7406662967384" width="8.275910844159291" height="7.525315687415496" fill="#f72585" opacity="0.058633310908599134" rx="1"/><rect x="187.35872436649137" y="722.3469954297988" width="10.163414014075746" height="7.8760789339142105" fill="#b5179e" opacity="0.36999194227857324" rx="1"/><rect x="173.51311065675998" y="726.2850348967559" width="10.163414014075746" height="7.8760789339142105" fill="#f72585" opacity="0.18499597113928662" rx="1"/><rect x="188.59575568782066" y="769.7159824065668" width="7.689351371417137" height="8.589553096934583" fill="#b5179e" opacity="0.4349887431447834" rx="1"/><rect x="174.75014197808926" y="774.0107589550341" width="7.689351371417137" height="8.589553096934583" fill="#f72585" opacity="0.2174943715723917" rx="1"/><rect x="190.22019511210272" y="817.084969383335" width="4.440472522853052" height="7.875702327554045" fill="#b5179e" opacity="0.36103009499167793" rx="1"/><rect x="176.37458140237132" y="821.022820547112" width="4.440472522853052" height="7.875702327554045" fill="#f72585" opacity="0.18051504749583897" rx="1"/><rect x="253.46146911230437" y="617.0870270270591" width="49.03004598315573" height="237.36692933304397" fill="#200089" opacity="0.5537337690949752" rx="2"/><rect x="275.7196279742568" y="627.0870270270591" width="4.513728259250924" height="6.215536911090728" fill="#b5179e" opacity="0.37905981353927864" rx="1"/><rect x="263.46211647846786" y="630.1947954826045" width="4.513728259250924" height="6.215536911090728" fill="#f72585" opacity="0.18952990676963932" rx="1"/><rect x="274.18202865337537" y="706.2093368047404" width="7.5889269010138065" height="9.070860341906283" fill="#b5179e" opacity="0.26838438288969557" rx="1"/><rect x="261.9245171575864" y="710.7447669756936" width="7.5889269010138065" height="9.070860341906283" fill="#f72585" opacity="0.13419219144484779" rx="1"/><rect x="273.8290029561215" y="785.3316465824217" width="8.294978295521574" height="6.192345180593511" fill="#b5179e" opacity="0.5503501469619456" rx="1"/><rect x="261.57149146033254" y="788.4278191727185" width="8.294978295521574" height="6.192345180593511" fill="#f72585" opacity="0.2751750734809728" rx="1"/><rect x="345.90128999340845" y="761.1125011255762" width="78.36447943196737" height="93.34145523452699" fill="#3a0ca3" opacity="0.6417610732702913" rx="2"/><rect x="382.29088445969177" y="771.1125011255762" width="5.585290499400648" height="8.627202436008305" fill="#b5179e" opacity="0.4451363751304188" rx="1"/><rect x="362.69976460169994" y="775.4261023435803" width="5.585290499400648" height="8.627202436008305" fill="#f72585" opacity="0.2225681875652094" rx="1"/><rect x="379.54419499043007" y="786.6694103313307" width="11.078669437924091" height="6.63487233701974" fill="#b5179e" opacity="0.32507644869039687" rx="1"/><rect x="359.95307513243824" y="789.9868464998406" width="11.078669437924091" height="6.63487233701974" fill="#f72585" opacity="0.16253822434519843" rx="1"/><rect x="380.6851533287403" y="802.2263195370851" width="8.796752761303622" height="6.491148539933178" fill="#b5179e" opacity="0.44051352514431663" rx="1"/><rect x="361.09403347074846" y="805.4718938070517" width="8.796752761303622" height="6.491148539933178" fill="#f72585" opacity="0.22025676257215832" rx="1"/><rect x="379.80513190357135" y="817.7832287428397" width="10.556795611641554" height="8.766844034839153" fill="#b5179e" opacity="0.1706903239643877" rx="1"/><rect x="360.2140120455795" y="822.1666507602592" width="10.556795611641554" height="8.766844034839153" fill="#f72585" opacity="0.08534516198219386" rx="1"/><rect x="382.775894097466" y="833.3401379485941" width="4.6152712238522415" height="6.33665219236553" fill="#b5179e" opacity="0.19711228453021318" rx="1"/><rect x="363.18477423947417" y="836.5084640447769" width="4.6152712238522415" height="6.33665219236553" fill="#f72585" opacity="0.09855614226510659" rx="1"/><rect x="380.0051637000882" y="848.8970471543487" width="10.156732018607839" height="9.480324295228423" fill="#b5179e" opacity="0.3952230507031137" rx="1"/><rect x="360.41404384209636" y="853.6372093019629" width="10.156732018607839" height="9.480324295228423" fill="#f72585" opacity="0.19761152535155685" rx="1"/><rect x="426.67929235069994" y="542.8549511341506" width="58.11637266728012" height="311.5990052259525" fill="#200089" opacity="0.5892708026080558" rx="2"/><rect x="452.0742779190359" y="552.8549511341506" width="7.3264015306081625" height="6.309822595750406" fill="#b5179e" opacity="0.5458002935735975" rx="1"/><rect x="437.5451847522159" y="556.0098624320258" width="7.3264015306081625" height="6.309822595750406" fill="#f72585" opacity="0.27290014678679875" rx="1"/><rect x="449.7490625574134" y="597.3690947378581" width="11.976832253853054" height="9.504031388904906" fill="#b5179e" opacity="0.5004414349096924" rx="1"/><rect x="435.2199693905934" y="602.1211104323105" width="11.976832253853054" height="9.504031388904906" fill="#f72585" opacity="0.2502207174548462" rx="1"/><rect x="450.3171363927696" y="641.8832383415656" width="10.840684583140696" height="6.893527479119023" fill="#b5179e" opacity="0.33198291641473376" rx="1"/><rect x="435.7880432259496" y="645.3300020811251" width="10.840684583140696" height="6.893527479119023" fill="#f72585" opacity="0.16599145820736688" rx="1"/><rect x="451.8127587923809" y="686.3973819452731" width="7.849439783918076" height="6.527657341334889" fill="#b5179e" opacity="0.3241410286454812" rx="1"/><rect x="437.2836656255609" y="689.6612106159405" width="7.849439783918076" height="6.527657341334889" fill="#f72585" opacity="0.1620705143227406" rx="1"/><rect x="452.4563447696753" y="730.9115255489806" width="6.562267829329303" height="7.556726903085766" fill="#b5179e" opacity="0.46456464344276227" rx="1"/><rect x="437.9272516028553" y="734.6898890005235" width="6.562267829329303" height="7.556726903085766" fill="#f72585" opacity="0.23228232172138114" rx="1"/><rect x="453.279692136282" y="775.4256691526881" width="4.915573096115974" height="6.991049852452951" fill="#b5179e" opacity="0.26872138720208816" rx="1"/><rect x="438.750598969462" y="778.9211940789146" width="4.915573096115974" height="6.991049852452951" fill="#f72585" opacity="0.13436069360104408" rx="1"/><rect x="451.39974413448937" y="819.9398127563957" width="8.675469099701258" height="7.666365681604102" fill="#b5179e" opacity="0.22410934505148544" rx="1"/><rect x="436.87065096766935" y="823.7729955971977" width="8.675469099701258" height="7.666365681604102" fill="#f72585" opacity="0.11205467252574272" rx="1"/><rect x="501.04748210894115" y="698.8806615464578" width="61.166587786554956" height="155.57329481364536" fill="#3a0ca3" opacity="0.6246637915784177" rx="2"/><rect x="528.057580712032" y="708.8806615464578" width="7.146390580373442" height="9.549911828606835" fill="#b5179e" opacity="0.25125683139806076" rx="1"/><rect x="512.7659337653931" y="713.6556174607612" width="7.146390580373442" height="9.549911828606835" fill="#f72585" opacity="0.12562841569903038" rx="1"/><rect x="528.2620077112834" y="760.7384264843396" width="6.737536581870526" height="6.80375059526501" fill="#b5179e" opacity="0.23354265576543815" rx="1"/><rect x="512.9703607646446" y="764.1403017819721" width="6.737536581870526" height="6.80375059526501" fill="#f72585" opacity="0.11677132788271907" rx="1"/><rect x="526.1169425885" y="812.5961914222213" width="11.02766682743739" height="8.802442381810966" fill="#b5179e" opacity="0.563623452923173" rx="1"/><rect x="510.82529564186115" y="816.9974126131268" width="11.02766682743739" height="8.802442381810966" fill="#f72585" opacity="0.2818117264615865" rx="1"/><rect x="576.1309309085204" y="515.3063483455467" width="45.14172632134094" height="339.1476080145565" fill="#3a0ca3" opacity="0.5351366974029543" rx="2"/><rect x="595.4533414976795" y="525.3063483455467" width="6.496905143022747" height="6.247731041220885" fill="#b5179e" opacity="0.23039877024255664" rx="1"/><rect x="584.1679099173443" y="528.4302138661571" width="6.496905143022747" height="6.247731041220885" fill="#f72585" opacity="0.11519938512127832" rx="1"/><rect x="596.3804719372141" y="567.6997993473663" width="4.642644263953586" height="8.572779168042535" fill="#b5179e" opacity="0.1677593301673791" rx="1"/><rect x="585.0950403568789" y="571.9861889313876" width="4.642644263953586" height="8.572779168042535" fill="#f72585" opacity="0.08387966508368955" rx="1"/><rect x="594.3838261788208" y="610.0932503491858" width="8.63593578074033" height="6.246300262456364" fill="#b5179e" opacity="0.2260802168692649" rx="1"/><rect x="583.0983945984856" y="613.216400480414" width="8.63593578074033" height="6.246300262456364" fill="#f72585" opacity="0.11304010843463246" rx="1"/><rect x="596.6475771748571" y="652.4867013510054" width="4.108433788667534" height="6.7693002998757414" fill="#b5179e" opacity="0.48375231632584526" rx="1"/><rect x="585.362145594522" y="655.8713515009433" width="4.108433788667534" height="6.7693002998757414" fill="#f72585" opacity="0.24187615816292263" rx="1"/><rect x="596.6514419782095" y="694.8801523528249" width="4.1007041819628105" height="6.701877031638724" fill="#b5179e" opacity="0.34945770116743113" rx="1"/><rect x="585.3660103978743" y="698.2310908686443" width="4.1007041819628105" height="6.701877031638724" fill="#f72585" opacity="0.17472885058371557" rx="1"/><rect x="593.0946381679025" y="737.2736033546445" width="11.214311802576834" height="8.916321500883512" fill="#b5179e" opacity="0.3759541497276989" rx="1"/><rect x="581.8092065875674" y="741.7317641050862" width="11.214311802576834" height="8.916321500883512" fill="#f72585" opacity="0.18797707486384946" rx="1"/><rect x="595.9004291526276" y="779.6670543564641" width="5.602729833126704" height="8.00443008868127" fill="#b5179e" opacity="0.4001519091893341" rx="1"/><rect x="584.6149975722924" y="783.6692694008048" width="5.602729833126704" height="8.00443008868127" fill="#f72585" opacity="0.20007595459466704" rx="1"/><rect x="592.984606990587" y="822.0605053582835" width="11.434374157207639" height="7.513889202269234" fill="#b5179e" opacity="0.40785792106945484" rx="1"/><rect x="581.6991754102519" y="825.8174499594181" width="11.434374157207639" height="7.513889202269234" fill="#f72585" opacity="0.20392896053472742" rx="1"/><rect x="651.0930227351126" y="699.2010402374904" width="63.893295124613985" height="155.25291612261276" fill="#200089" opacity="0.5024077662272397" rx="2"/><rect x="678.739596373341" y="709.2010402374904" width="8.600147848157246" height="9.4317507891524" fill="#b5179e" opacity="0.46920416363729267" rx="1"/><rect x="662.7662725921874" y="713.9169156320665" width="8.600147848157246" height="9.4317507891524" fill="#f72585" opacity="0.23460208181864634" rx="1"/><rect x="679.1526987888275" y="735.0765262579258" width="7.773943017184255" height="9.431554546447368" fill="#b5179e" opacity="0.19612117698325804" rx="1"/><rect x="663.1793750076739" y="739.7923035311495" width="7.773943017184255" height="9.431554546447368" fill="#f72585" opacity="0.09806058849162902" rx="1"/><rect x="678.9469082001474" y="760.9520122783613" width="8.185524194544536" height="9.960726975454186" fill="#b5179e" opacity="0.2833918189358413" rx="1"/><rect x="662.9735844189938" y="765.9323757660884" width="8.185524194544536" height="9.960726975454186" fill="#f72585" opacity="0.14169590946792066" rx="1"/><rect x="678.2306923547832" y="786.8274982987967" width="9.617955885272927" height="8.98951990972029" fill="#b5179e" opacity="0.12430137340545222" rx="1"/><rect x="662.2573685736296" y="791.3222582536569" width="9.617955885272927" height="8.98951990972029" fill="#f72585" opacity="0.06215068670272611" rx="1"/><rect x="679.0112942671431" y="812.7029843192322" width="8.056752060553233" height="9.633308881808377" fill="#b5179e" opacity="0.10416188628975347" rx="1"/><rect x="663.0379704859895" y="817.5196387601364" width="8.056752060553233" height="9.633308881808377" fill="#f72585" opacity="0.05208094314487673" rx="1"/><rect x="678.3187824588547" y="838.5784703396677" width="9.441775677130039" height="6.387552125469677" fill="#b5179e" opacity="0.24816430784951996" rx="1"/><rect x="662.3454586777011" y="841.7722464024025" width="9.441775677130039" height="6.387552125469677" fill="#f72585" opacity="0.12408215392475998" rx="1"/><rect x="739.7214884333596" y="629.1943323051544" width="84.04468302476329" height="225.25962405494872" fill="#3a0ca3" opacity="0.4075817016669507" rx="2"/><rect x="776.2901998747351" y="639.1943323051544" width="10.907260142012326" height="8.826540133642624" fill="#b5179e" opacity="0.27987475164231723" rx="1"/><rect x="755.2790291185443" y="643.6076023719756" width="10.907260142012326" height="8.826540133642624" fill="#f72585" opacity="0.13993737582115862" rx="1"/><rect x="777.7001471539728" y="695.5092383188916" width="8.087365583536998" height="8.590707773945924" fill="#b5179e" opacity="0.4436837446279087" rx="1"/><rect x="756.688976397782" y="699.8045922058645" width="8.087365583536998" height="8.590707773945924" fill="#f72585" opacity="0.22184187231395436" rx="1"/><rect x="777.0833470504925" y="751.8241443326287" width="9.320965790497365" height="8.17130401408563" fill="#b5179e" opacity="0.44343345552762814" rx="1"/><rect x="756.0721762943017" y="755.9097963396715" width="9.320965790497365" height="8.17130401408563" fill="#f72585" opacity="0.22171672776381407" rx="1"/><rect x="776.7690639467373" y="808.1390503463659" width="9.949531998007915" height="6.262949519851932" fill="#b5179e" opacity="0.28839696612870247" rx="1"/><rect x="755.7578931905465" y="811.2705251062919" width="9.949531998007915" height="6.262949519851932" fill="#f72585" opacity="0.14419848306435123" rx="1"/><rect x="819.0970727449975" y="502.97183886938075" width="46.799407446943086" height="351.4821174907224" fill="#3a0ca3" opacity="0.5909425890517753" rx="2"/><rect x="837.7347012010251" y="512.9718388693807" width="9.524150534887834" height="9.629468613217927" fill="#b5179e" opacity="0.2600280822394481" rx="1"/><rect x="826.0348493392893" y="517.7865731759897" width="9.524150534887834" height="9.629468613217927" fill="#f72585" opacity="0.13001404111972406" rx="1"/><rect x="838.2952277472465" y="630.1325446996215" width="8.403097442445135" height="6.151521946338826" fill="#b5179e" opacity="0.5016054877782253" rx="1"/><rect x="826.5953758855106" y="633.2083056727909" width="8.403097442445135" height="6.151521946338826" fill="#f72585" opacity="0.25080274388911267" rx="1"/><rect x="836.6180023172913" y="747.2932505298622" width="11.757548302355584" height="9.945974997232197" fill="#b5179e" opacity="0.43192332655469035" rx="1"/><rect x="824.9181504555554" y="752.2662380284784" width="11.757548302355584" height="9.945974997232197" fill="#f72585" opacity="0.21596166327734517" rx="1"/><rect x="897.7706233872498" y="693.8923103837046" width="63.72964778303393" height="160.5616459763985" fill="#3a0ca3" opacity="0.5844869593355075" rx="2"/><rect x="926.2395889869051" y="703.8923103837046" width="6.791716583723137" height="8.284513374391132" fill="#b5179e" opacity="0.2976472108386567" rx="1"/><rect x="910.3071770411467" y="708.0345670709002" width="6.791716583723137" height="8.284513374391132" fill="#f72585" opacity="0.14882360541932835" rx="1"/><rect x="924.8815338336586" y="736.0046395789843" width="9.507826890216169" height="8.22006753604395" fill="#b5179e" opacity="0.4214266504676609" rx="1"/><rect x="908.9491218879002" y="740.1146733470063" width="9.507826890216169" height="8.22006753604395" fill="#f72585" opacity="0.21071332523383046" rx="1"/><rect x="926.1241088051172" y="768.116968774264" width="7.022676947299082" height="9.980323429214844" fill="#b5179e" opacity="0.25848346046602433" rx="1"/><rect x="910.1916968593588" y="773.1071304888715" width="7.022676947299082" height="9.980323429214844" fill="#f72585" opacity="0.12924173023301216" rx="1"/><rect x="923.6674312270868" y="800.2292979695437" width="11.936032103359707" height="9.659837642605378" fill="#b5179e" opacity="0.5322606564807382" rx="1"/><rect x="907.7350192813285" y="805.0592167908464" width="11.936032103359707" height="9.659837642605378" fill="#f72585" opacity="0.2661303282403691" rx="1"/><rect x="926.2315911313592" y="832.3416271648234" width="6.807712294815041" height="9.788999952326762" fill="#b5179e" opacity="0.40616973033318526" rx="1"/><rect x="910.2991791856008" y="837.2361271409868" width="6.807712294815041" height="9.788999952326762" fill="#f72585" opacity="0.20308486516659263" rx="1"/><rect x="975.7450129081833" y="505.4120516533526" width="35.488814303066775" height="349.04190470675053" fill="#3a0ca3" opacity="0.6889021818733081" rx="2"/><rect x="988.401323742094" y="515.4120516533526" width="10.176192635245666" height="9.34197160213766" fill="#b5179e" opacity="0.1641302812295338" rx="1"/><rect x="979.5291201663272" y="520.0830374544214" width="10.176192635245666" height="9.34197160213766" fill="#f72585" opacity="0.0820651406147669" rx="1"/><rect x="989.8873676110263" y="585.2204325947027" width="7.204104897380831" height="6.5105752415281195" fill="#b5179e" opacity="0.47572937979729135" rx="1"/><rect x="981.0151640352595" y="588.4757202154668" width="7.204104897380831" height="6.5105752415281195" fill="#f72585" opacity="0.23786468989864568" rx="1"/><rect x="988.5077422586056" y="655.0288135360528" width="9.963355602222345" height="8.471426714787126" fill="#b5179e" opacity="0.5657223768219637" rx="1"/><rect x="979.6355386828388" y="659.2645268934464" width="9.963355602222345" height="8.471426714787126" fill="#f72585" opacity="0.28286118841098185" rx="1"/><rect x="988.6123896845646" y="724.8371944774029" width="9.75406075030427" height="7.281990851574109" fill="#b5179e" opacity="0.4201814586809327" rx="1"/><rect x="979.7401861087978" y="728.47818990319" width="9.75406075030427" height="7.281990851574109" fill="#f72585" opacity="0.21009072934046635" rx="1"/><rect x="988.2893429760098" y="794.645575418753" width="10.400154167413747" height="7.457702575590858" fill="#b5179e" opacity="0.46242015272435266" rx="1"/><rect x="979.4171394002431" y="798.3744267065484" width="10.400154167413747" height="7.457702575590858" fill="#f72585" opacity="0.23121007636217633" rx="1"/><rect x="1043.6876291208173" y="688.9239270097864" width="40.6728357986251" height="165.53002935031662" fill="#3a0ca3" opacity="0.5104190274398819" rx="2"/><rect x="1060.344852316972" y="698.9239270097864" width="7.358389406315608" height="8.803021115903515" fill="#b5179e" opacity="0.17853567066568315" rx="1"/><rect x="1050.1766433673158" y="703.3254375677382" width="7.358389406315608" height="8.803021115903515" fill="#f72585" opacity="0.08926783533284158" rx="1"/><rect x="1059.2709123255383" y="726.5122652348392" width="9.506269389182858" height="6.348941945552114" fill="#b5179e" opacity="0.48831450147282207" rx="1"/><rect x="1049.1027033758821" y="729.6867362076152" width="9.506269389182858" height="6.348941945552114" fill="#f72585" opacity="0.24415725073641104" rx="1"/><rect x="1061.2683964083594" y="754.100603459892" width="5.511301223540515" height="8.56497677102801" fill="#b5179e" opacity="0.3862378556249286" rx="1"/><rect x="1051.1001874587032" y="758.383091845406" width="5.511301223540515" height="8.56497677102801" fill="#f72585" opacity="0.1931189278124643" rx="1"/><rect x="1059.7405159321474" y="781.6889416849448" width="8.567062175964718" height="6.296058679999797" fill="#b5179e" opacity="0.10726674532221323" rx="1"/><rect x="1049.5723069824912" y="784.8369710249447" width="8.567062175964718" height="6.296058679999797" fill="#f72585" opacity="0.05363337266110661" rx="1"/><rect x="1061.294683077441" y="809.2772799099976" width="5.458727885377297" height="8.531422449865243" fill="#b5179e" opacity="0.1818328643408215" rx="1"/><rect x="1051.1264741277848" y="813.5429911349302" width="5.458727885377297" height="8.531422449865243" fill="#f72585" opacity="0.09091643217041075" rx="1"/><rect x="1059.930508234289" y="836.8656181350502" width="8.187077571681485" height="7.753638028575489" fill="#b5179e" opacity="0.5152894180536478" rx="1"/><rect x="1049.7622992846327" y="840.742437149338" width="8.187077571681485" height="7.753638028575489" fill="#f72585" opacity="0.2576447090268239" rx="1"/><rect x="1143.9848267296293" y="554.9254165508146" width="33.5001017021714" height="299.5285398092886" fill="#3a0ca3" opacity="0.6002021071035886" rx="2"/><rect x="1155.8481504965685" y="564.9254165508146" width="9.773454168293032" height="9.448760225309236" fill="#b5179e" opacity="0.5532642891754546" rx="1"/><rect x="1147.4731250710256" y="569.6497966634693" width="9.773454168293032" height="9.448760225309236" fill="#f72585" opacity="0.2766321445877273" rx="1"/><rect x="1155.3426153418472" y="614.8468398523627" width="10.784524477735284" height="7.67116251067984" fill="#b5179e" opacity="0.16243475248628175" rx="1"/><rect x="1146.9675899163044" y="618.6824211077026" width="10.784524477735284" height="7.67116251067984" fill="#f72585" opacity="0.08121737624314088" rx="1"/><rect x="1154.7383165303008" y="664.7682631539108" width="11.993122100828476" height="6.264597661854839" fill="#b5179e" opacity="0.16081800688077186" rx="1"/><rect x="1146.363291104758" y="667.9005619848382" width="11.993122100828476" height="6.264597661854839" fill="#f72585" opacity="0.08040900344038593" rx="1"/><rect x="1157.7090449246366" y="714.6896864554589" width="6.051665312156935" height="7.4105859495258395" fill="#b5179e" opacity="0.5345366926711371" rx="1"/><rect x="1149.3340194990938" y="718.3949794302217" width="6.051665312156935" height="7.4105859495258395" fill="#f72585" opacity="0.26726834633556856" rx="1"/><rect x="1158.7243173764375" y="764.611109757007" width="4.021120408554823" height="9.335304938101979" fill="#b5179e" opacity="0.40367871113207165" rx="1"/><rect x="1150.3492919508947" y="769.2787622260579" width="4.021120408554823" height="9.335304938101979" fill="#f72585" opacity="0.20183935556603583" rx="1"/><rect x="1157.937974983579" y="814.532533058555" width="5.593805194272148" height="7.645709514069769" fill="#b5179e" opacity="0.314623958737269" rx="1"/><rect x="1149.562949558036" y="818.3553878155899" width="5.593805194272148" height="7.645709514069769" fill="#f72585" opacity="0.1573119793686345" rx="1"/><rect x="1224.0414488534539" y="726.3520100098923" width="82.76353130879895" height="128.1019463502108" fill="#200089" opacity="0.5235905200996415" rx="2"/><rect x="1261.440234448863" y="736.3520100098923" width="7.965960117980362" height="6.629329179560144" fill="#b5179e" opacity="0.25942290510503174" rx="1"/><rect x="1240.7493516216632" y="739.6666745996723" width="7.965960117980362" height="6.629329179560144" fill="#f72585" opacity="0.12971145255251587" rx="1"/><rect x="1259.936184380887" y="757.702334401594" width="10.97406025393262" height="9.502053605276638" fill="#b5179e" opacity="0.11524281432275726" rx="1"/><rect x="1239.245301553687" y="762.4533612042324" width="10.97406025393262" height="9.502053605276638" fill="#f72585" opacity="0.05762140716137863" rx="1"/><rect x="1260.5988146224056" y="779.0526587932959" width="9.648799770895579" height="7.48513270204075" fill="#b5179e" opacity="0.39763084121458947" rx="1"/><rect x="1239.9079317952057" y="782.7952251443163" width="9.648799770895579" height="7.48513270204075" fill="#f72585" opacity="0.19881542060729473" rx="1"/><rect x="1262.8157119950781" y="800.4029831849977" width="5.215005025550491" height="6.807122406737674" fill="#b5179e" opacity="0.532333989053111" rx="1"/><rect x="1242.1248291678783" y="803.8065443883664" width="5.215005025550491" height="6.807122406737674" fill="#f72585" opacity="0.2661669945265555" rx="1"/><rect x="1263.039986164784" y="821.7533075766995" width="4.766456686138747" height="9.90502458063537" fill="#b5179e" opacity="0.13507635964431716" rx="1"/><rect x="1242.3491033375842" y="826.7058198670172" width="4.766456686138747" height="9.90502458063537" fill="#f72585" opacity="0.06753817982215858" rx="1"/><rect x="1263.3265612391583" y="843.1036319684013" width="4.193306537390059" height="6.974871966283506" fill="#b5179e" opacity="0.3955479247717997" rx="1"/><rect x="1242.6356784119585" y="846.591067951543" width="4.193306537390059" height="6.974871966283506" fill="#f72585" opacity="0.19777396238589984" rx="1"/><rect x="1286.8503027192435" y="685.6578494970822" width="35.423231065604654" height="168.79610686302095" fill="#3a0ca3" opacity="0.6613376194521174" rx="2"/><rect x="1301.5376734357649" y="695.6578494970822" width="6.0484896325619175" height="9.428191236087166" fill="#b5179e" opacity="0.15145994959200265" rx="1"/><rect x="1292.6818656693636" y="700.3719451151258" width="6.0484896325619175" height="9.428191236087166" fill="#f72585" opacity="0.07572997479600133" rx="1"/><rect x="1299.2441872256447" y="719.7715790489424" width="10.635462052802431" height="8.828029907966972" fill="#b5179e" opacity="0.18330988816062685" rx="1"/><rect x="1290.3883794592434" y="724.1855940029259" width="10.635462052802431" height="8.828029907966972" fill="#f72585" opacity="0.09165494408031342" rx="1"/><rect x="1301.5139969285844" y="743.8853086008025" width="6.095842646922879" height="7.600963415950761" fill="#b5179e" opacity="0.4115369885488267" rx="1"/><rect x="1292.6581891621831" y="747.6857903087779" width="6.095842646922879" height="7.600963415950761" fill="#f72585" opacity="0.20576849427441335" rx="1"/><rect x="1302.541494845306" y="767.9990381526626" width="4.040846813479636" height="8.749716975435083" fill="#b5179e" opacity="0.15996177684514826" rx="1"/><rect x="1293.6856870789047" y="772.3738966403802" width="4.040846813479636" height="8.749716975435083" fill="#f72585" opacity="0.07998088842257413" rx="1"/><rect x="1299.880952611771" y="792.1127677045228" width="9.361931280550065" height="6.481191235706487" fill="#b5179e" opacity="0.2897114243334419" rx="1"/><rect x="1291.0251448453696" y="795.353363322376" width="9.361931280550065" height="6.481191235706487" fill="#f72585" opacity="0.14485571216672094" rx="1"/><rect x="1301.4256527187363" y="816.2264972563829" width="6.272531066618983" height="7.422888393845151" fill="#b5179e" opacity="0.31869383512965727" rx="1"/><rect x="1292.569844952335" y="819.9379414533055" width="6.272531066618983" height="7.422888393845151" fill="#f72585" opacity="0.15934691756482863" rx="1"/><rect x="1300.5197763949448" y="840.3402268082431" width="8.084283714202298" height="9.789198790627811" fill="#b5179e" opacity="0.4695875820400165" rx="1"/><rect x="1291.6639686285434" y="845.234826203557" width="8.084283714202298" height="9.789198790627811" fill="#f72585" opacity="0.23479379102000825" rx="1"/><rect x="1367.2724729257804" y="566.7166271285892" width="31.979053644924203" height="287.73732923151397" fill="#3a0ca3" opacity="0.6676342563395468" rx="2"/><rect x="1380.390991115335" y="576.7166271285892" width="5.742017265814826" height="9.13867508134308" fill="#b5179e" opacity="0.2201129276585097" rx="1"/><rect x="1372.3962277041041" y="581.2859646692607" width="5.742017265814826" height="9.13867508134308" fill="#f72585" opacity="0.11005646382925485" rx="1"/><rect x="1377.9376395640284" y="634.2640929748919" width="10.648720368428323" height="9.524183954001447" fill="#b5179e" opacity="0.4764346802785142" rx="1"/><rect x="1369.9428761527975" y="639.0261849518927" width="10.648720368428323" height="9.524183954001447" fill="#f72585" opacity="0.2382173401392571" rx="1"/><rect x="1380.4696091565932" y="691.8115588211947" width="5.584781183298859" height="7.765014894717609" fill="#b5179e" opacity="0.3926480749837701" rx="1"/><rect x="1372.4748457453622" y="695.6940662685535" width="5.584781183298859" height="7.765014894717609" fill="#f72585" opacity="0.19632403749188504" rx="1"/><rect x="1379.8347494622772" y="749.3590246674976" width="6.854500571930432" height="7.744728329997679" fill="#b5179e" opacity="0.23783889325285304" rx="1"/><rect x="1371.8399860510463" y="753.2313888324965" width="6.854500571930432" height="7.744728329997679" fill="#f72585" opacity="0.11891944662642652" rx="1"/><rect x="1378.9907676335401" y="806.9064905138003" width="8.542464229404569" height="6.679434428149703" fill="#b5179e" opacity="0.3960589231914047" rx="1"/><rect x="1370.9960042223092" y="810.2462077278752" width="8.542464229404569" height="6.679434428149703" fill="#f72585" opacity="0.19802946159570234" rx="1"/><rect x="1455.1456177945122" y="537.0422281993186" width="47.94016932555013" height="317.4117281607845" fill="#3a0ca3" opacity="0.42245260808208324" rx="2"/><rect x="1474.158931423714" y="547.0422281993186" width="9.913542067146288" height="6.859779541580886" fill="#b5179e" opacity="0.3993465398436753" rx="1"/><rect x="1462.1738890923266" y="550.472117970109" width="9.913542067146288" height="6.859779541580886" fill="#f72585" opacity="0.19967326992183765" rx="1"/><rect x="1475.895886770658" y="599.9441828927827" width="6.439631373258221" height="9.02651469759329" fill="#b5179e" opacity="0.4994871671077533" rx="1"/><rect x="1463.9108444392707" y="604.4574402415793" width="6.439631373258221" height="9.02651469759329" fill="#f72585" opacity="0.24974358355387666" rx="1"/><rect x="1473.2257593186166" y="652.8461375862468" width="11.779886277341259" height="8.183597380803803" fill="#b5179e" opacity="0.1655192472193202" rx="1"/><rect x="1461.2407169872292" y="656.9379362766487" width="11.779886277341259" height="8.183597380803803" fill="#f72585" opacity="0.0827596236096601" rx="1"/><rect x="1475.7045930914358" y="705.7480922797108" width="6.822218731702822" height="9.760189477298454" fill="#b5179e" opacity="0.22705513837911542" rx="1"/><rect x="1463.7195507600484" y="710.62818701836" width="6.822218731702822" height="9.760189477298454" fill="#f72585" opacity="0.11352756918955771" rx="1"/><rect x="1475.4586191411265" y="758.650046973175" width="7.314166632321236" height="7.646324559498188" fill="#b5179e" opacity="0.3004718012643214" rx="1"/><rect x="1463.4735768097391" y="762.4732092529241" width="7.314166632321236" height="7.646324559498188" fill="#f72585" opacity="0.1502359006321607" rx="1"/><rect x="1473.327405317297" y="811.5520016666391" width="11.576594279980426" height="9.157591208619436" fill="#b5179e" opacity="0.21948914782132234" rx="1"/><rect x="1461.3423629859096" y="816.1307972709487" width="11.576594279980426" height="9.157591208619436" fill="#f72585" opacity="0.10974457391066117" rx="1"/><rect x="1530.0299443421025" y="600.3107284312861" width="32.24224196799152" height="254.14322792881708" fill="#3a0ca3" opacity="0.40880952622015254" rx="2"/><rect x="1543.801286700834" y="610.3107284312861" width="4.6995572505284935" height="8.455051882764103" fill="#b5179e" opacity="0.3947651696844877" rx="1"/><rect x="1535.7407262088361" y="614.5382543726681" width="4.6995572505284935" height="8.455051882764103" fill="#f72585" opacity="0.19738258484224386" rx="1"/><rect x="1540.54873061449" y="695.0251377408918" width="11.204669423216178" height="8.592734816156499" fill="#b5179e" opacity="0.37244385314929385" rx="1"/><rect x="1532.4881701224922" y="699.32150514897" width="11.204669423216178" height="8.592734816156499" fill="#f72585" opacity="0.18622192657464692" rx="1"/><rect x="1542.096473812381" y="779.7395470504974" width="8.109183027434439" height="9.313663454566537" fill="#b5179e" opacity="0.31736649824710716" rx="1"/><rect x="1534.035913320383" y="784.3963787777807" width="8.109183027434439" height="9.313663454566537" fill="#f72585" opacity="0.15868324912355358" rx="1"/><rect x="1610.5798836705694" y="541.792569982771" width="68.37628008294298" height="312.6613863773321" fill="#200089" opacity="0.5636544657088012" rx="2"/><rect x="1642.6603604251661" y="551.792569982771" width="4.215326573749848" height="9.946405236596801" fill="#b5179e" opacity="0.1724977016384941" rx="1"/><rect x="1625.5662904044302" y="556.7657726010694" width="4.215326573749848" height="9.946405236596801" fill="#f72585" opacity="0.08624885081924705" rx="1"/><rect x="1639.8315747424103" y="596.45848232239" width="9.872897939261257" height="8.915058128283139" fill="#b5179e" opacity="0.24107293266362348" rx="1"/><rect x="1622.7375047216744" y="600.9160113865315" width="9.872897939261257" height="8.915058128283139" fill="#f72585" opacity="0.12053646633181174" rx="1"/><rect x="1641.7183340146948" y="641.1243946620089" width="6.099379394692225" height="9.75534540409114" fill="#b5179e" opacity="0.3118602286120551" rx="1"/><rect x="1624.624263993959" y="646.0020673640544" width="6.099379394692225" height="9.75534540409114" fill="#f72585" opacity="0.15593011430602755" rx="1"/><rect x="1640.0380141611765" y="685.7903070016278" width="9.46001910172869" height="8.191457711670422" fill="#b5179e" opacity="0.22019613027111537" rx="1"/><rect x="1622.9439441404406" y="689.886035857463" width="9.46001910172869" height="8.191457711670422" fill="#f72585" opacity="0.11009806513555769" rx="1"/><rect x="1640.975951120252" y="730.4562193412465" width="7.584145183578167" height="8.199074423452624" fill="#b5179e" opacity="0.4531472283306409" rx="1"/><rect x="1623.881881099516" y="734.5557565529729" width="7.584145183578167" height="8.199074423452624" fill="#f72585" opacity="0.22657361416532046" rx="1"/><rect x="1640.1192078970187" y="775.1221316808654" width="9.29763163004481" height="6.61858111727484" fill="#b5179e" opacity="0.4107817361156414" rx="1"/><rect x="1623.0251378762828" y="778.4314222395028" width="9.29763163004481" height="6.61858111727484" fill="#f72585" opacity="0.2053908680578207" rx="1"/><rect x="1641.1512376871312" y="819.7880440204843" width="7.2335720498192995" height="6.175206177908742" fill="#b5179e" opacity="0.4780739651709036" rx="1"/><rect x="1624.0571676663953" y="822.8756471094387" width="7.2335720498192995" height="6.175206177908742" fill="#f72585" opacity="0.2390369825854518" rx="1"/><rect x="1706.8731135029516" y="586.9046000384038" width="62.06753235125623" height="267.5493563216993" fill="#200089" opacity="0.4511118346944246" rx="2"/><rect x="1732.561892159647" y="596.9046000384038" width="10.6899750378658" height="7.823396419599511" fill="#b5179e" opacity="0.15218620157153023" rx="1"/><rect x="1717.0450090718327" y="600.8162982482036" width="10.6899750378658" height="7.823396419599511" fill="#f72585" opacity="0.07609310078576512" rx="1"/><rect x="1735.8430263811824" y="686.0877188123036" width="4.127706594794921" height="6.829939853593228" fill="#b5179e" opacity="0.15455365312624575" rx="1"/><rect x="1720.3261432933682" y="689.5026887391002" width="4.127706594794921" height="6.829939853593228" fill="#f72585" opacity="0.07727682656312287" rx="1"/><rect x="1732.9711919878544" y="775.2708375862034" width="9.871375381450955" height="9.748101853706897" fill="#b5179e" opacity="0.34041748331869426" rx="1"/><rect x="1717.4543089000401" y="780.1448885130568" width="9.871375381450955" height="9.748101853706897" fill="#f72585" opacity="0.17020874165934713" rx="1"/><rect x="1772.5672077463398" y="648.3583320394062" width="46.829437347322106" height="206.09562432069697" fill="#200089" opacity="0.43649661041248977" rx="2"/><rect x="1793.7276313790885" y="658.3583320394062" width="4.508590081825059" height="6.340325736519956" fill="#b5179e" opacity="0.1609305410322106" rx="1"/><rect x="1782.0202720422578" y="661.5284949076661" width="4.508590081825059" height="6.340325736519956" fill="#f72585" opacity="0.0804652705161053" rx="1"/><rect x="1792.2371709624392" y="687.80056408522" width="7.489510915123278" height="9.486447114377853" fill="#b5179e" opacity="0.2319428106378631" rx="1"/><rect x="1780.5298116256085" y="692.5437876424089" width="7.489510915123278" height="9.486447114377853" fill="#f72585" opacity="0.11597140531893155" rx="1"/><rect x="1790.0644416569417" y="717.2427961310339" width="11.834969526118359" height="9.392901050716848" fill="#b5179e" opacity="0.23349635320098522" rx="1"/><rect x="1778.357082320111" y="721.9392466563922" width="11.834969526118359" height="9.392901050716848" fill="#f72585" opacity="0.11674817660049261" rx="1"/><rect x="1793.0791165083833" y="746.6850281768477" width="5.805619823235464" height="9.042272108384006" fill="#b5179e" opacity="0.4377717589814616" rx="1"/><rect x="1781.3717571715526" y="751.2061642310397" width="5.805619823235464" height="9.042272108384006" fill="#f72585" opacity="0.2188858794907308" rx="1"/><rect x="1793.8836683260472" y="776.1272602226616" width="4.196516187907317" height="8.32952139580844" fill="#b5179e" opacity="0.5498394285211897" rx="1"/><rect x="1782.1763089892165" y="780.2920209205657" width="4.196516187907317" height="8.32952139580844" fill="#f72585" opacity="0.27491971426059486" rx="1"/><rect x="1791.151615145186" y="805.5694922684754" width="9.660622549629915" height="6.56947042992559" fill="#b5179e" opacity="0.38333789128422224" rx="1"/><rect x="1779.4442558083554" y="808.8542274834382" width="9.660622549629915" height="6.56947042992559" fill="#f72585" opacity="0.19166894564211112" rx="1"/><rect x="1792.5476743996953" y="835.0117243142893" width="6.868504040611094" height="8.97831955435181" fill="#b5179e" opacity="0.1947396208287076" rx="1"/><rect x="1780.8403150628646" y="839.5008840914652" width="6.868504040611094" height="8.97831955435181" fill="#f72585" opacity="0.0973698104143538" rx="1"/><rect x="1862.5946240715205" y="510.6711956347971" width="60.86047270588122" height="343.78276072530605" fill="#200089" opacity="0.43569600056756663" rx="2"/><rect x="1887.976623840392" y="520.6711956347971" width="10.096473168138525" height="6.517809872636062" fill="#b5179e" opacity="0.3571581048558369" rx="1"/><rect x="1872.7615056639215" y="523.9301005711151" width="10.096473168138525" height="6.517809872636062" fill="#f72585" opacity="0.17857905242791844" rx="1"/><rect x="1890.477480257274" y="606.6168858161236" width="5.094760334374095" height="9.752355017641642" fill="#b5179e" opacity="0.5162197466744621" rx="1"/><rect x="1875.2623620808035" y="611.4930633249444" width="5.094760334374095" height="9.752355017641642" fill="#f72585" opacity="0.25810987333723107" rx="1"/><rect x="1888.5538313257402" y="692.56257599745" width="8.942058197441991" height="9.41605266263151" fill="#b5179e" opacity="0.40845862319889914" rx="1"/><rect x="1873.3387131492698" y="697.2706023287658" width="8.942058197441991" height="9.41605266263151" fill="#f72585" opacity="0.20422931159944957" rx="1"/><rect x="1888.8904484063132" y="778.5082661787766" width="8.268824036295719" height="9.66086913451107" fill="#b5179e" opacity="0.30501273828675335" rx="1"/><rect x="1873.6753302298428" y="783.3387007460321" width="8.268824036295719" height="9.66086913451107" fill="#f72585" opacity="0.15250636914337667" rx="1"/><path d="M714.2284228080484 800.1563802129021 Q715.7249238099263 705.2451568435051 716.0242240103019 610.3339334741081" stroke="#000056" stroke-width="6.848251583717822" fill="none" stroke-linecap="round"/><path d="M716.0242240103019 610.3339334741081 Q745.076998499473 590.3339334741081 760.3107141592333 610.3339334741081" stroke="#070070" stroke-width="2.412847374662023" fill="none" stroke-linecap="round" opacity="0.6"/><path d="M716.0242240103019 610.3339334741081 Q737.8821666306051 596.5901770438309 749.2854757517724 622.8464206135537" stroke="#070070" stroke-width="2.8993574545950063" fill="none" stroke-linecap="round" opacity="0.6"/><path d="M716.0242240103019 610.3339334741081 Q720.1833578802338 597.0365687033714 705.8253389949896 623.7392039326345" stroke="#070070" stroke-width="2.9530170785619454" fill="none" stroke-linecap="round" opacity="0.6"/><path d="M716.0242240103019 610.3339334741081 Q708.7796535780802 593.8690133261854 667.0864310007672 617.4040931782627" stroke="#070070" stroke-width="2.720046101771306" fill="none" stroke-linecap="round" opacity="0.6"/><path d="M716.0242240103019 610.3339334741081 Q682.8439065009255 585.4812608721841 648.8463674205988 600.6285882702601" stroke="#070070" stroke-width="3.882773613529926" fill="none" stroke-linecap="round" opacity="0.6"/><path d="M716.0242240103019 610.3339334741081 Q711.2157702489991 579.3498621982619 699.3106067373141 588.3657909224158" stroke="#070070" stroke-width="2.414972010630875" fill="none" stroke-linecap="round" opacity="0.6"/><path d="M191.91047568617165 865.1142887224244 Q172.35117260188588 806.0098922476195 168.43931198502872 746.9054957728147" stroke="#000056" stroke-width="6.3301691297279135" fill="none" stroke-linecap="round"/><path d="M168.43931198502872 746.9054957728147 Q211.79329117988078 726.9054957728147 228.85978540798175 746.9054957728147" stroke="#070070" stroke-width="3.48903962864751" fill="none" stroke-linecap="round" opacity="0.6"/><path d="M168.43931198502872 746.9054957728147 Q197.18121463251896 732.395771946908 197.62830629472555 757.8860481210013" stroke="#070070" stroke-width="3.7833997993225696" fill="none" stroke-linecap="round" opacity="0.6"/><path d="M168.43931198502872 746.9054957728147 Q174.05334219257335 736.1118080372714 154.43077400129366 765.3181203017282" stroke="#070070" stroke-width="3.004278429552046" fill="none" stroke-linecap="round" opacity="0.6"/><path d="M168.43931198502872 746.9054957728147 Q149.61344982927193 731.0137459565703 111.56684925809029 755.1219961403259" stroke="#070070" stroke-width="3.965516990508306" fill="none" stroke-linecap="round" opacity="0.6"/><path d="M168.43931198502872 746.9054957728147 Q155.72366393445674 723.3091916614309 118.65396241256488 739.7128875500471" stroke="#070070" stroke-width="2.8884699728545895" fill="none" stroke-linecap="round" opacity="0.6"/><path d="M168.43931198502872 746.9054957728147 Q175.01867189324824 719.9620103106404 157.87394367660113 733.0185248484662" stroke="#070070" stroke-width="3.540854469300447" fill="none" stroke-linecap="round" opacity="0.6"/><path d="M1768.1532154623776 967.3060925368467 Q1751.9926581094026 856.0920234376314 1748.7605466388075 744.877954338416" stroke="#000056" stroke-width="5.889255431920582" fill="none" stroke-linecap="round"/><path d="M1748.7605466388075 744.877954338416 Q1779.4021777946973 724.877954338416 1806.493272168211 744.877954338416" stroke="#070070" stroke-width="3.4415439836311954" fill="none" stroke-linecap="round" opacity="0.6"/><path d="M1748.7605466388075 744.877954338416 Q1762.4031573608459 728.4404790074748 1767.7006707775506 752.0030036765336" stroke="#070070" stroke-width="3.581035785279478" fill="none" stroke-linecap="round" opacity="0.6"/><path d="M1748.7605466388075 744.877954338416 Q1761.523812585474 733.8818222513172 1735.060052669537 762.8856901642184" stroke="#070070" stroke-width="3.7909030904506573" fill="none" stroke-linecap="round" opacity="0.6"/><path d="M1748.7605466388075 744.877954338416 Q1732.4236594422678 727.5659153483979 1711.5498229696102 750.2538763583798" stroke="#070070" stroke-width="3.6228526834451715" fill="none" stroke-linecap="round" opacity="0.6"/><path d="M1748.7605466388075 744.877954338416 Q1721.9579193929478 720.7388697466702 1691.4612285255864 736.5997851549242" stroke="#070070" stroke-width="3.5341308637368796" fill="none" stroke-linecap="round" opacity="0.6"/><path d="M1748.7605466388075 744.877954338416 Q1747.238230238805 714.9031311319445 1733.5826246049905 724.9283079254731" stroke="#070070" stroke-width="2.2625246253475835" fill="none" stroke-linecap="round" opacity="0.6"/><path d="M1748.7605466388075 744.877954338416 Q1776.2637867624705 715.5635330619174 1798.2805673111254 726.2491117854188" stroke="#070070" stroke-width="3.5321190328179206" fill="none" stroke-linecap="round" opacity="0.6"/><rect x="0" y="1000" width="1920" height="80" fill="#14007d" opacity="0.8"/><line x1="0" y1="1040" x2="1920" y2="1040" stroke="#b5179e" stroke-opacity="0.15" stroke-width="2" stroke-dasharray="30,20"/><rect x="0" y="930" width="1920" height="150" fill="url(#glow92)"/><text x="1900" y="1060" font-family="Arial, sans-serif" font-size="11" fill="#fff" opacity="0.08" text-anchor="end" letter-spacing="2">GTA 6 REWARDS · WALLPAPER 093</text>
</svg>