<?xml version="1.0" encoding="UTF-8"?>
<svg xmlns="http://www.w3.org/2000/svg" width="1920" height="1080" viewBox="0 0 1920 1080">
<defs>
    <linearGradient id="bg26" x1="0%" y1="0%" x2="0%" y2="100%">
      <stop offset="0%" stop-color="#264653"/>
      <stop offset="50%" stop-color="#001320"/>
      <stop offset="100%" stop-color="#264653"/>
    </linearGradient>
    <linearGradient id="sun26" x1="0%" y1="0%" x2="100%" y2="100%">
      <stop offset="0%" stop-color="#f4a261"/>
      <stop offset="100%" stop-color="#e76f51"/>
    </linearGradient>
    <radialGradient id="glow26" cx="50%" cy="70%" r="50%">
      <stop offset="0%" stop-color="#f4a261" stop-opacity="0.3"/>
      <stop offset="100%" stop-color="#264653" stop-opacity="0"/>
    </radialGradient>
  </defs><rect width="1920" height="1080" fill="url(#bg26)"/><circle cx="1192.2161740465594" cy="404.05585612264827" r="600.4965183093437" fill="#f4a261" opacity="0.13222677250910242"/><circle cx="1392.2161740465594" cy="304.05585612264827" r="507.86257053442824" fill="#e76f51" opacity="0.129212119094844"/><circle cx="1294.538523860867" cy="406.6410936779904" r="89.86111212285726" fill="url(#sun26)" opacity="0.6758160836239848"/><circle cx="1294.538523860867" cy="406.6410936779904" r="84.86111212285726" fill="#264653" opacity="0.3"/><rect x="25.79116252152975" y="575.4950519128458" width="32.051577447459934" height="279.1705797377905" fill="#264653" opacity="0.6066866077265438" rx="2"/><rect x="37.454899715831246" y="585.4950519128458" width="8.724103058856937" height="7.079433594150337" fill="#e76f51" opacity="0.42265157574383816" rx="1"/><rect x="29.442005353966266" y="589.034768709921" width="8.724103058856937" height="7.079433594150337" fill="#f4a261" opacity="0.21132578787191908" rx="1"/><rect x="35.872019758651035" y="678.5519118254426" width="11.889862973217355" height="8.23898938722885" fill="#e76f51" opacity="0.22930811397482365" rx="1"/><rect x="27.85912539678606" y="682.6714065190571" width="11.889862973217355" height="8.23898938722885" fill="#f4a261" opacity="0.11465405698741182" rx="1"/><rect x="37.03421960725315" y="771.6087717380395" width="9.56546327601314" height="8.944968865007388" fill="#e76f51" opacity="0.41360968698598666" rx="1"/><rect x="29.021325245388166" y="776.0812561705433" width="9.56546327601314" height="8.944968865007388" fill="#f4a261" opacity="0.20680484349299333" rx="1"/><rect x="108.35037710066216" y="645.4946694535889" width="35.951007419720064" height="209.17096219704743" fill="#0c2c39" opacity="0.4211968117908568" rx="2"/><rect x="123.636710179713" y="655.4946694535889" width="5.3783412616183846" height="8.592413472615279" fill="#e76f51" opacity="0.5221368032559139" rx="1"/><rect x="114.64895832478298" y="659.7908761898966" width="5.3783412616183846" height="8.592413472615279" fill="#f4a261" opacity="0.26106840162795697" rx="1"/><rect x="123.17441563178676" y="697.3288618929984" width="6.30293035747086" height="7.610747238064825" fill="#e76f51" opacity="0.31762552699484525" rx="1"/><rect x="114.18666377685673" y="701.1342355120307" width="6.30293035747086" height="7.610747238064825" fill="#f4a261" opacity="0.15881276349742263" rx="1"/><rect x="121.78760430706863" y="739.1630543324079" width="9.076553006907123" height="9.345440171506592" fill="#e76f51" opacity="0.18889313125724277" rx="1"/><rect x="112.79985245213861" y="743.8357744181612" width="9.076553006907123" height="9.345440171506592" fill="#f4a261" opacity="0.09444656562862139" rx="1"/><rect x="122.64334289494535" y="780.9972467718173" width="7.36507583115368" height="9.494834364274245" fill="#e76f51" opacity="0.4641201300462988" rx="1"/><rect x="113.65559104001532" y="785.7446639539545" width="7.36507583115368" height="9.494834364274245" fill="#f4a261" opacity="0.2320600650231494" rx="1"/><rect x="121.25687335443631" y="822.8314392112269" width="10.138014912171759" height="8.393241601622021" fill="#e76f51" opacity="0.1918060942999567" rx="1"/><rect x="112.26912149950628" y="827.0280600120379" width="10.138014912171759" height="8.393241601622021" fill="#f4a261" opacity="0.09590304714997835" rx="1"/><rect x="174.26591139537925" y="492.4424348614277" width="77.81033722865635" height="362.2231967892086" fill="#264653" opacity="0.4465707178568865" rx="2"/><rect x="211.02399068571293" y="502.4424348614277" width="4.294178647988983" height="8.768320735257193" fill="#e76f51" opacity="0.3567127216040885" rx="1"/><rect x="191.57140637854886" y="506.82659522905635" width="4.294178647988983" height="8.768320735257193" fill="#f4a261" opacity="0.17835636080204426" rx="1"/><rect x="210.9726196095567" y="554.1886058313147" width="4.39692080030146" height="6.173663458827339" fill="#e76f51" opacity="0.45561646238333" rx="1"/><rect x="191.5200353023926" y="557.2754375607284" width="4.39692080030146" height="6.173663458827339" fill="#f4a261" opacity="0.227808231191665" rx="1"/><rect x="210.34521408236282" y="605.9347768012016" width="5.651731854689245" height="8.860916727888611" fill="#e76f51" opacity="0.11143005653550617" rx="1"/><rect x="190.8926297751987" y="610.3652351651459" width="5.651731854689245" height="8.860916727888611" fill="#f4a261" opacity="0.05571502826775308" rx="1"/><rect x="208.53285170068372" y="657.6809477710885" width="9.276456618047426" height="7.036062891836293" fill="#e76f51" opacity="0.4819802017840511" rx="1"/><rect x="189.08026739351965" y="661.1989792170067" width="9.276456618047426" height="7.036062891836293" fill="#f4a261" opacity="0.24099010089202555" rx="1"/><rect x="207.20240009639508" y="709.4271187409755" width="11.93735982662471" height="7.123101935052103" fill="#e76f51" opacity="0.3114339793826067" rx="1"/><rect x="187.749815789231" y="712.9886697085016" width="11.93735982662471" height="7.123101935052103" fill="#f4a261" opacity="0.15571698969130335" rx="1"/><rect x="209.20776324643043" y="761.1732897108625" width="7.9266335265540135" height="7.778631493863331" fill="#e76f51" opacity="0.30871444412244353" rx="1"/><rect x="189.75517893926633" y="765.0626054577941" width="7.9266335265540135" height="7.778631493863331" fill="#f4a261" opacity="0.15435722206122177" rx="1"/><rect x="207.9998636393625" y="812.9194606807494" width="10.342432740689823" height="8.70070171512214" fill="#e76f51" opacity="0.44671797157421667" rx="1"/><rect x="188.54727933219843" y="817.2698115383105" width="10.342432740689823" height="8.70070171512214" fill="#f4a261" opacity="0.22335898578710833" rx="1"/><rect x="275.9540673440175" y="579.8483987524752" width="87.21647231309127" height="274.81723289816114" fill="#0c2c39" opacity="0.5721327162748512" rx="2"/><rect x="314.0542635279328" y="589.8483987524752" width="11.016079945260678" height="8.96263210916953" fill="#e76f51" opacity="0.17472526400227223" rx="1"/><rect x="292.25014544966" y="594.32971480706" width="11.016079945260678" height="8.96263210916953" fill="#f4a261" opacity="0.08736263200113611" rx="1"/><rect x="315.3741551412169" y="635.6512709021687" width="8.376296718692476" height="9.917346399258204" fill="#e76f51" opacity="0.29949892563733715" rx="1"/><rect x="293.5700370629441" y="640.6099441017977" width="8.376296718692476" height="9.917346399258204" fill="#f4a261" opacity="0.14974946281866858" rx="1"/><rect x="314.67375888732647" y="681.4541430518623" width="9.777089226473375" height="7.420126760709129" fill="#e76f51" opacity="0.5391481085771574" rx="1"/><rect x="292.8696408090537" y="685.1642064322168" width="9.777089226473375" height="7.420126760709129" fill="#f4a261" opacity="0.2695740542885787" rx="1"/><rect x="314.1723411646567" y="727.2570152015558" width="10.779924671812896" height="7.211675947814173" fill="#e76f51" opacity="0.4073751714097744" rx="1"/><rect x="292.3682230863839" y="730.8628531754629" width="10.779924671812896" height="7.211675947814173" fill="#f4a261" opacity="0.2036875857048872" rx="1"/><rect x="316.4060281683199" y="773.0598873512492" width="6.312550664486492" height="7.314169244215398" fill="#e76f51" opacity="0.35300813926221064" rx="1"/><rect x="294.6019100900471" y="776.716971973357" width="6.312550664486492" height="7.314169244215398" fill="#f4a261" opacity="0.17650406963110532" rx="1"/><rect x="316.14754299072786" y="818.8627595009427" width="6.829521019670535" height="6.4236091162133055" fill="#e76f51" opacity="0.5311460993325212" rx="1"/><rect x="294.3434249124551" y="822.0745640590494" width="6.829521019670535" height="6.4236091162133055" fill="#f4a261" opacity="0.2655730496662606" rx="1"/><rect x="358.08040905304347" y="688.6935608435174" width="68.59988769018088" height="165.97207080711894" fill="#264653" opacity="0.6168973785398755" rx="2"/><rect x="388.0028190994743" y="698.6935608435174" width="8.755067597319155" height="6.536850771060411" fill="#e76f51" opacity="0.10617039133938272" rx="1"/><rect x="370.8528471769291" y="701.9619862290476" width="8.755067597319155" height="6.536850771060411" fill="#f4a261" opacity="0.05308519566969136" rx="1"/><rect x="387.1729205677324" y="740.1865785452972" width="10.414864660802964" height="6.388647951276193" fill="#e76f51" opacity="0.5912889923414423" rx="1"/><rect x="370.02294864518717" y="743.3809025209353" width="10.414864660802964" height="6.388647951276193" fill="#f4a261" opacity="0.29564449617072114" rx="1"/><rect x="386.7604616300212" y="781.6795962470769" width="11.239782536225343" height="9.588673557990386" fill="#e76f51" opacity="0.218056617355453" rx="1"/><rect x="369.610489707476" y="786.4739330260721" width="11.239782536225343" height="9.588673557990386" fill="#f4a261" opacity="0.1090283086777265" rx="1"/><rect x="388.9195112374059" y="823.1726139488566" width="6.921683321455886" height="8.197418314916412" fill="#e76f51" opacity="0.3144633853376059" rx="1"/><rect x="371.7695393148607" y="827.2713231063148" width="6.921683321455886" height="8.197418314916412" fill="#f4a261" opacity="0.15723169266880296" rx="1"/><rect x="422.1574175971238" y="536.7061720315148" width="55.061129258261325" height="317.9594596191215" fill="#0c2c39" opacity="0.6851451329852327" rx="2"/><rect x="446.77785076598684" y="546.7061720315148" width="5.820262920535231" height="8.58875178792252" fill="#e76f51" opacity="0.5476225328276918" rx="1"/><rect x="433.01256845142154" y="551.0005479254761" width="5.820262920535231" height="8.58875178792252" fill="#f4a261" opacity="0.2738112664138459" rx="1"/><rect x="446.1083290400944" y="599.6994153013684" width="7.159306372320118" height="6.043257225314914" fill="#e76f51" opacity="0.33496476275263465" rx="1"/><rect x="432.3430467255291" y="602.7210439140258" width="7.159306372320118" height="6.043257225314914" fill="#f4a261" opacity="0.16748238137631732" rx="1"/><rect x="446.827674507427" y="652.692658571222" width="5.720615437654922" height="8.472257732058004" fill="#e76f51" opacity="0.32877402154933055" rx="1"/><rect x="433.0623921928617" y="656.928787437251" width="5.720615437654922" height="8.472257732058004" fill="#f4a261" opacity="0.16438701077466528" rx="1"/><rect x="447.42729469801566" y="705.6859018410755" width="4.521375056477583" height="8.449182379629738" fill="#e76f51" opacity="0.4942256982890483" rx="1"/><rect x="433.66201238345036" y="709.9104930308904" width="4.521375056477583" height="8.449182379629738" fill="#f4a261" opacity="0.24711284914452414" rx="1"/><rect x="447.58013729515585" y="758.6791451109292" width="4.215689862197193" height="8.720161213241555" fill="#e76f51" opacity="0.2625636195909613" rx="1"/><rect x="433.81485498059055" y="763.0392257175499" width="4.215689862197193" height="8.720161213241555" fill="#f4a261" opacity="0.13128180979548065" rx="1"/><rect x="443.8664671010735" y="811.6723883807828" width="11.643030250361896" height="7.887689169004487" fill="#e76f51" opacity="0.2755326122919872" rx="1"/><rect x="430.1011847865082" y="815.616232965285" width="11.643030250361896" height="7.887689169004487" fill="#f4a261" opacity="0.1377663061459936" rx="1"/><rect x="515.0946212454372" y="477.43812011960847" width="84.92701699839137" height="377.22751153102786" fill="#264653" opacity="0.5309717903451463" rx="2"/><rect x="554.478261312247" y="487.43812011960847" width="6.159736864771633" height="6.969363390693759" fill="#e76f51" opacity="0.3463355260543375" rx="1"/><rect x="533.2465070626492" y="490.92280181495533" width="6.159736864771633" height="6.969363390693759" fill="#f4a261" opacity="0.17316776302716874" rx="1"/><rect x="553.9746570509252" y="541.327764624041" width="7.166945387415343" height="9.294461571447194" fill="#e76f51" opacity="0.3174786308821008" rx="1"/><rect x="532.7429028013274" y="545.9749954097647" width="7.166945387415343" height="9.294461571447194" fill="#f4a261" opacity="0.1587393154410504" rx="1"/><rect x="552.1727591028292" y="595.2174091284736" width="10.770741283607375" height="7.3924657817446775" fill="#e76f51" opacity="0.3828201370506594" rx="1"/><rect x="530.9410048532314" y="598.913642019346" width="10.770741283607375" height="7.3924657817446775" fill="#f4a261" opacity="0.1914100685253297" rx="1"/><rect x="552.9773537147656" y="649.1070536329062" width="9.161552059734602" height="9.803336285008895" fill="#e76f51" opacity="0.5950057994562681" rx="1"/><rect x="531.7455994651679" y="654.0087217754107" width="9.161552059734602" height="9.803336285008895" fill="#f4a261" opacity="0.29750289972813404" rx="1"/><rect x="553.4165557683402" y="702.9966981373386" width="8.283147952585283" height="6.058602892807359" fill="#e76f51" opacity="0.5584549285840371" rx="1"/><rect x="532.1848015187425" y="706.0259995837423" width="8.283147952585283" height="6.058602892807359" fill="#f4a261" opacity="0.27922746429201856" rx="1"/><rect x="552.226670816725" y="756.8863426417713" width="10.66291785581571" height="8.055712782325156" fill="#e76f51" opacity="0.5508234659328181" rx="1"/><rect x="530.9949165671272" y="760.9141990329339" width="10.66291785581571" height="8.055712782325156" fill="#f4a261" opacity="0.27541173296640903" rx="1"/><rect x="551.8401101158013" y="810.7759871462038" width="11.43603925766331" height="9.518096028714929" fill="#e76f51" opacity="0.5735883575569811" rx="1"/><rect x="530.6083558662035" y="815.5350351605613" width="11.43603925766331" height="9.518096028714929" fill="#f4a261" opacity="0.28679417877849056" rx="1"/><rect x="600.1760520641697" y="541.4182151531377" width="33.96282328384994" height="313.24741649749865" fill="#264653" opacity="0.5163681880609059" rx="2"/><rect x="614.7944525134798" y="551.4182151531377" width="4.726022385229827" height="7.403830579808874" fill="#e76f51" opacity="0.18424351773789235" rx="1"/><rect x="606.3037466925173" y="555.1201304430422" width="4.726022385229827" height="7.403830579808874" fill="#f4a261" opacity="0.09212175886894618" rx="1"/><rect x="612.5705025925758" y="596.1678460813517" width="9.173922227037586" height="9.97552934009012" fill="#e76f51" opacity="0.29309202178686206" rx="1"/><rect x="604.0797967716134" y="601.1556107513968" width="9.173922227037586" height="9.97552934009012" fill="#f4a261" opacity="0.14654601089343103" rx="1"/><rect x="612.03283874338" y="640.9174770095659" width="10.249249925429293" height="6.154365123285531" fill="#e76f51" opacity="0.532076523995976" rx="1"/><rect x="603.5421329224175" y="643.9946595712087" width="10.249249925429293" height="6.154365123285531" fill="#f4a261" opacity="0.266038261997988" rx="1"/><rect x="612.0603337969832" y="685.66710793778" width="10.1942598182229" height="6.873771827871392" fill="#e76f51" opacity="0.48399254295136607" rx="1"/><rect x="603.5696279760207" y="689.1039938517157" width="10.1942598182229" height="6.873771827871392" fill="#f4a261" opacity="0.24199627147568303" rx="1"/><rect x="613.1870489488387" y="730.416738865994" width="7.940829514512054" height="9.260655121705646" fill="#e76f51" opacity="0.13763859917820398" rx="1"/><rect x="604.6963431278762" y="735.0470664268469" width="7.940829514512054" height="9.260655121705646" fill="#f4a261" opacity="0.06881929958910199" rx="1"/><rect x="613.1396720004188" y="775.1663697942081" width="8.03558341135168" height="7.530736115186181" fill="#e76f51" opacity="0.13666271607779495" rx="1"/><rect x="604.6489661794564" y="778.9317378518011" width="8.03558341135168" height="7.530736115186181" fill="#f4a261" opacity="0.06833135803889748" rx="1"/><rect x="611.2321111830087" y="819.9160007224223" width="11.850705046171953" height="6.359489569524184" fill="#e76f51" opacity="0.3886724887156562" rx="1"/><rect x="602.7414053620462" y="823.0957455071843" width="11.850705046171953" height="6.359489569524184" fill="#f4a261" opacity="0.1943362443578281" rx="1"/><rect x="679.4687180606545" y="676.31906137716" width="37.21354084723013" height="178.34657027347635" fill="#0c2c39" opacity="0.43613422064486296" rx="2"/><rect x="695.5225192649779" y="686.31906137716" width="5.105938438583617" height="6.680577599601954" fill="#e76f51" opacity="0.2713578235756974" rx="1"/><rect x="686.2191340531703" y="689.659350176961" width="5.105938438583617" height="6.680577599601954" fill="#f4a261" opacity="0.1356789117878487" rx="1"/><rect x="694.465318879474" y="711.7971428447995" width="7.220339209591117" height="8.624863282457195" fill="#e76f51" opacity="0.4647316831314777" rx="1"/><rect x="685.1619336676664" y="716.1095744860281" width="7.220339209591117" height="8.624863282457195" fill="#f4a261" opacity="0.23236584156573886" rx="1"/><rect x="692.8888180544544" y="737.2752243124389" width="10.373340859630456" height="6.947976583835663" fill="#e76f51" opacity="0.28144267219618024" rx="1"/><rect x="683.5854328426468" y="740.7492126043568" width="10.373340859630456" height="6.947976583835663" fill="#f4a261" opacity="0.14072133609809012" rx="1"/><rect x="695.6881999333332" y="762.7533057800784" width="4.774577101872903" height="6.668515137552403" fill="#e76f51" opacity="0.325033630436527" rx="1"/><rect x="686.3848147215256" y="766.0875633488547" width="4.774577101872903" height="6.668515137552403" fill="#f4a261" opacity="0.1625168152182635" rx="1"/><rect x="692.6019820123187" y="788.2313872477179" width="10.947012943901823" height="8.36503225992551" fill="#e76f51" opacity="0.20315560097879629" rx="1"/><rect x="683.2985968005111" y="792.4139033776806" width="10.947012943901823" height="8.36503225992551" fill="#f4a261" opacity="0.10157780048939814" rx="1"/><rect x="692.3819614219175" y="813.7094687153574" width="11.387054124704342" height="9.061748245512543" fill="#e76f51" opacity="0.387431026410179" rx="1"/><rect x="683.0785762101099" y="818.2403428381136" width="11.387054124704342" height="9.061748245512543" fill="#f4a261" opacity="0.1937155132050895" rx="1"/><rect x="695.2631884921226" y="839.1875501829968" width="5.624599984293943" height="9.108595014342246" fill="#e76f51" opacity="0.2892827224659926" rx="1"/><rect x="685.959803280315" y="843.7418476901679" width="5.624599984293943" height="9.108595014342246" fill="#f4a261" opacity="0.1446413612329963" rx="1"/><rect x="779.3654527942914" y="588.8736574884675" width="42.20818666559835" height="265.7919741621688" fill="#264653" opacity="0.5825609817594665" rx="2"/><rect x="794.8905554898638" y="598.8736574884675" width="11.157981274453453" height="8.720672827847459" fill="#e76f51" opacity="0.3232559983905535" rx="1"/><rect x="784.3385088234643" y="603.2339939023913" width="11.157981274453453" height="8.720672827847459" fill="#f4a261" opacity="0.16162799919527676" rx="1"/><rect x="795.9637051982133" y="632.0976542587387" width="9.011681857754402" height="9.052323846857139" fill="#e76f51" opacity="0.5721905348059234" rx="1"/><rect x="785.4116585318138" y="636.6238161821673" width="9.011681857754402" height="9.052323846857139" fill="#f4a261" opacity="0.2860952674029617" rx="1"/><rect x="797.2751062695456" y="665.3216510290097" width="6.388879715089891" height="8.264460929265354" fill="#e76f51" opacity="0.39018673959425343" rx="1"/><rect x="786.7230596031461" y="669.4538814936424" width="6.388879715089891" height="8.264460929265354" fill="#f4a261" opacity="0.19509336979712671" rx="1"/><rect x="795.0195937157532" y="698.5456477992808" width="10.899904822674557" height="6.338614317667348" fill="#e76f51" opacity="0.28877525550517613" rx="1"/><rect x="784.4675470493537" y="701.7149549581145" width="10.899904822674557" height="6.338614317667348" fill="#f4a261" opacity="0.14438762775258807" rx="1"/><rect x="798.3133482848436" y="731.7696445695519" width="4.312395684493798" height="9.16832845266171" fill="#e76f51" opacity="0.5513921730572805" rx="1"/><rect x="787.7613016184441" y="736.3538087958827" width="4.312395684493798" height="9.16832845266171" fill="#f4a261" opacity="0.27569608652864025" rx="1"/><rect x="798.2854135408144" y="764.9936413398231" width="4.368265172552379" height="7.714261471692999" fill="#e76f51" opacity="0.17407601610153822" rx="1"/><rect x="787.7333668744149" y="768.8507720756695" width="4.368265172552379" height="7.714261471692999" fill="#f4a261" opacity="0.08703800805076911" rx="1"/><rect x="796.017077155729" y="798.2176381100942" width="8.90493794272303" height="7.210687636679664" fill="#e76f51" opacity="0.3724288354563594" rx="1"/><rect x="785.4650304893295" y="801.822981928434" width="8.90493794272303" height="7.210687636679664" fill="#f4a261" opacity="0.1862144177281797" rx="1"/><rect x="795.6624428557722" y="831.4416348803652" width="9.614206542636783" height="7.915033826119042" fill="#e76f51" opacity="0.40758279930045427" rx="1"/><rect x="785.1103961893726" y="835.3991517934247" width="9.614206542636783" height="7.915033826119042" fill="#f4a261" opacity="0.20379139965022713" rx="1"/><rect x="834.9517790967506" y="677.8531015799039" width="44.83432991309891" height="176.81253007073246" fill="#0c2c39" opacity="0.5687531444404166" rx="2"/><rect x="854.4197406997038" y="687.8531015799039" width="5.8984067071924" height="6.924166653520467" fill="#e76f51" opacity="0.5624373208411125" rx="1"/><rect x="843.2111582214291" y="691.3151849066641" width="5.8984067071924" height="6.924166653520467" fill="#f4a261" opacity="0.28121866042055627" rx="1"/><rect x="853.5707489822942" y="709.9546678387454" width="7.596390142011547" height="6.161908145100322" fill="#e76f51" opacity="0.40221601850404776" rx="1"/><rect x="842.3621665040195" y="713.0356219112956" width="7.596390142011547" height="6.161908145100322" fill="#f4a261" opacity="0.20110800925202388" rx="1"/><rect x="852.0683814472696" y="732.056234097587" width="10.601125212060548" height="6.66585070375955" fill="#e76f51" opacity="0.304418389407084" rx="1"/><rect x="840.8597989689949" y="735.3891594494668" width="10.601125212060548" height="6.66585070375955" fill="#f4a261" opacity="0.152209194703542" rx="1"/><rect x="852.3767200903932" y="754.1578003564285" width="9.984447925813601" height="8.778356392583428" fill="#e76f51" opacity="0.375091635010925" rx="1"/><rect x="841.1681376121185" y="758.5469785527202" width="9.984447925813601" height="8.778356392583428" fill="#f4a261" opacity="0.1875458175054625" rx="1"/><rect x="853.0305385199931" y="776.2593666152701" width="8.676811066613721" height="6.082402555291169" fill="#e76f51" opacity="0.5633688009258753" rx="1"/><rect x="841.8219560417184" y="779.3005678929156" width="8.676811066613721" height="6.082402555291169" fill="#f4a261" opacity="0.28168440046293763" rx="1"/><rect x="852.2553720455298" y="798.3609328741117" width="10.22714401554017" height="9.63024270805303" fill="#e76f51" opacity="0.44805761658308507" rx="1"/><rect x="841.0467895672551" y="803.1760542281381" width="10.22714401554017" height="9.63024270805303" fill="#f4a261" opacity="0.22402880829154254" rx="1"/><rect x="851.4989988438568" y="820.4624991329532" width="11.739890418886182" height="9.443518691566661" fill="#e76f51" opacity="0.26101492351410327" rx="1"/><rect x="840.2904163655821" y="825.1842584787365" width="11.739890418886182" height="9.443518691566661" fill="#f4a261" opacity="0.13050746175705163" rx="1"/><rect x="854.6802933677772" y="842.5640653917948" width="5.377301371045713" height="8.952020593674858" fill="#e76f51" opacity="0.4701338594244173" rx="1"/><rect x="843.4717108895024" y="847.0400756886322" width="5.377301371045713" height="8.952020593674858" fill="#f4a261" opacity="0.23506692971220866" rx="1"/><rect x="939.1698325867857" y="738.457620711638" width="70.6081127330214" height="116.20801093899831" fill="#264653" opacity="0.5022798234602157" rx="2"/><rect x="970.3270688760553" y="748.457620711638" width="8.293640154482247" height="8.909805604002859" fill="#e76f51" opacity="0.11747252699394536" rx="1"/><rect x="952.6750406927998" y="752.9125235136395" width="8.293640154482247" height="8.909805604002859" fill="#f4a261" opacity="0.05873626349697268" rx="1"/><rect x="970.2033205065115" y="771.6992228994377" width="8.541136893569757" height="8.878541961051184" fill="#e76f51" opacity="0.5936240613445696" rx="1"/><rect x="952.5512923232561" y="776.1384938799633" width="8.541136893569757" height="8.878541961051184" fill="#f4a261" opacity="0.2968120306722848" rx="1"/><rect x="968.9315393140542" y="794.9408250872374" width="11.084699278484262" height="8.369159304157169" fill="#e76f51" opacity="0.4281680225227419" rx="1"/><rect x="951.2795111307988" y="799.125404739316" width="11.084699278484262" height="8.369159304157169" fill="#f4a261" opacity="0.21408401126137094" rx="1"/><rect x="972.0329203642679" y="818.1824272750371" width="4.881937178057138" height="7.199495420139165" fill="#e76f51" opacity="0.35773887714784103" rx="1"/><rect x="954.3808921810124" y="821.7821749851066" width="4.881937178057138" height="7.199495420139165" fill="#f4a261" opacity="0.17886943857392051" rx="1"/><rect x="970.1944458657094" y="841.4240294628366" width="8.558886175174006" height="8.618937775171116" fill="#e76f51" opacity="0.2543512365674486" rx="1"/><rect x="952.542417682454" y="845.7334983504222" width="8.558886175174006" height="8.618937775171116" fill="#f4a261" opacity="0.1271756182837243" rx="1"/><rect x="1013.2876397931059" y="650.5173139857401" width="67.15492275477268" height="204.1483176648962" fill="#0c2c39" opacity="0.5199672697856946" rx="2"/><rect x="1044.4330835869916" y="660.5173139857401" width="4.864035167001196" height="7.200864343252235" fill="#e76f51" opacity="0.5526527624001384" rx="1"/><rect x="1027.6443528982986" y="664.1177461573662" width="4.864035167001196" height="7.200864343252235" fill="#f4a261" opacity="0.2763263812000692" rx="1"/><rect x="1042.1377947666374" y="711.5543934019641" width="9.4546128077094" height="8.145701154634752" fill="#e76f51" opacity="0.3062595834038825" rx="1"/><rect x="1025.3490640779444" y="715.6272439792815" width="9.4546128077094" height="8.145701154634752" fill="#f4a261" opacity="0.15312979170194124" rx="1"/><rect x="1042.1865535593397" y="762.5914728181882" width="9.35709522230483" height="7.850546294322831" fill="#e76f51" opacity="0.4513110200528314" rx="1"/><rect x="1025.3978228706467" y="766.5167459653496" width="9.35709522230483" height="7.850546294322831" fill="#f4a261" opacity="0.2256555100264157" rx="1"/><rect x="1041.6869334931991" y="813.6285522344123" width="10.35633535458621" height="7.260324917095788" fill="#e76f51" opacity="0.33353888355976413" rx="1"/><rect x="1024.8982028045061" y="817.2587146929602" width="10.35633535458621" height="7.260324917095788" fill="#f4a261" opacity="0.16676944177988207" rx="1"/><rect x="1098.4508845456508" y="502.6509844005692" width="38.7590592421496" height="352.0146472500671" fill="#264653" opacity="0.40448508996155236" rx="2"/><rect x="1115.78623075508" y="512.6509844005692" width="4.088366823291492" height="7.473381145269" fill="#e76f51" opacity="0.345268055062105" rx="1"/><rect x="1106.0964659445424" y="516.3876749732037" width="4.088366823291492" height="7.473381145269" fill="#f4a261" opacity="0.1726340275310525" rx="1"/><rect x="1113.873898246853" y="571.3200922755804" width="7.91303183974536" height="6.940769917550676" fill="#e76f51" opacity="0.15500242336536815" rx="1"/><rect x="1104.1841334363155" y="574.7904772343556" width="7.91303183974536" height="6.940769917550676" fill="#f4a261" opacity="0.07750121168268408" rx="1"/><rect x="1112.005389535892" y="629.9892001505916" width="11.650049261667313" height="7.564978113762331" fill="#e76f51" opacity="0.41092183171094443" rx="1"/><rect x="1102.3156247253544" y="633.7716892074728" width="11.650049261667313" height="7.564978113762331" fill="#f4a261" opacity="0.20546091585547221" rx="1"/><rect x="1114.2850770230118" y="688.6583080256028" width="7.09067428742784" height="6.018314347606691" fill="#e76f51" opacity="0.23316804627728838" rx="1"/><rect x="1104.5953122124743" y="691.6674651994061" width="7.09067428742784" height="6.018314347606691" fill="#f4a261" opacity="0.11658402313864419" rx="1"/><rect x="1112.4344536859603" y="747.3274159006139" width="10.79192096153086" height="8.51098649727902" fill="#e76f51" opacity="0.1157097630472178" rx="1"/><rect x="1102.7446888754228" y="751.5829091492534" width="10.79192096153086" height="8.51098649727902" fill="#f4a261" opacity="0.0578548815236089" rx="1"/><rect x="1113.4249842627478" y="805.9965237756251" width="8.810859807955767" height="6.427778435970605" fill="#e76f51" opacity="0.11889808185372923" rx="1"/><rect x="1103.7352194522102" y="809.2104129936104" width="8.810859807955767" height="6.427778435970605" fill="#f4a261" opacity="0.059449040926864614" rx="1"/><rect x="1196.120658687263" y="595.7578989667254" width="49.28209199087743" height="258.9077326839109" fill="#0c2c39" opacity="0.6958788703651817" rx="2"/><rect x="1217.9256356834846" y="605.7578989667254" width="5.672137998433816" height="7.723285613982772" fill="#e76f51" opacity="0.2905082277233033" rx="1"/><rect x="1205.6051126857653" y="609.6195417737168" width="5.672137998433816" height="7.723285613982772" fill="#f4a261" opacity="0.14525411386165166" rx="1"/><rect x="1217.0910208643745" y="648.9091877473772" width="7.341367636653914" height="7.726926208875823" fill="#e76f51" opacity="0.18206989664632592" rx="1"/><rect x="1204.7704978666552" y="652.7726508518151" width="7.341367636653914" height="7.726926208875823" fill="#f4a261" opacity="0.09103494832316296" rx="1"/><rect x="1218.203157053528" y="692.0604765280291" width="5.117095258347014" height="6.550209979654804" fill="#e76f51" opacity="0.4964684991856265" rx="1"/><rect x="1205.8826340558087" y="695.3355815178564" width="5.117095258347014" height="6.550209979654804" fill="#f4a261" opacity="0.24823424959281326" rx="1"/><rect x="1216.8830437528748" y="735.2117653086809" width="7.757321859653416" height="7.5075374733441365" fill="#e76f51" opacity="0.3554294742307229" rx="1"/><rect x="1204.5625207551554" y="738.965534045353" width="7.757321859653416" height="7.5075374733441365" fill="#f4a261" opacity="0.17771473711536145" rx="1"/><rect x="1216.5084354689252" y="778.3630540893326" width="8.5065384275528" height="9.97984350006558" fill="#e76f51" opacity="0.518425792343548" rx="1"/><rect x="1204.187912471206" y="783.3529758393654" width="8.5065384275528" height="9.97984350006558" fill="#f4a261" opacity="0.259212896171774" rx="1"/><rect x="1214.825177225628" y="821.5143428699845" width="11.873054914146907" height="6.123789168923113" fill="#e76f51" opacity="0.505282775616572" rx="1"/><rect x="1202.5046542279088" y="824.5762374544461" width="11.873054914146907" height="6.123789168923113" fill="#f4a261" opacity="0.252641387808286" rx="1"/><rect x="1267.5454591078353" y="729.1760037022586" width="52.62187745948832" height="125.48962794837766" fill="#264653" opacity="0.6484909141549121" rx="2"/><rect x="1287.9512016076742" y="739.1760037022586" width="11.810392459810338" height="6.168003206180409" fill="#e76f51" opacity="0.3203771601711347" rx="1"/><rect x="1274.7957322428022" y="742.2600053053488" width="11.810392459810338" height="6.168003206180409" fill="#f4a261" opacity="0.16018858008556736" rx="1"/><rect x="1288.2120828370387" y="760.0909416936549" width="11.288630001081302" height="9.089960871983775" fill="#e76f51" opacity="0.390635430321711" rx="1"/><rect x="1275.0566134721666" y="764.6359221296468" width="11.288630001081302" height="9.089960871983775" fill="#f4a261" opacity="0.1953177151608555" rx="1"/><rect x="1290.1305303701765" y="781.0058796850512" width="7.451734934805831" height="6.766632679097036" fill="#e76f51" opacity="0.3871855099888485" rx="1"/><rect x="1276.9750610053045" y="784.3891960245998" width="7.451734934805831" height="6.766632679097036" fill="#f4a261" opacity="0.19359275499442424" rx="1"/><rect x="1287.9253114687367" y="801.9208176764474" width="11.862172737685537" height="6.645686313660277" fill="#e76f51" opacity="0.12813786292172452" rx="1"/><rect x="1274.7698421038647" y="805.2436608332775" width="11.862172737685537" height="6.645686313660277" fill="#f4a261" opacity="0.06406893146086226" rx="1"/><rect x="1291.1334159523356" y="822.8357556678437" width="5.445963770487803" height="6.3650539220229385" fill="#e76f51" opacity="0.5935680063193589" rx="1"/><rect x="1277.9779465874635" y="826.0182826288552" width="5.445963770487803" height="6.3650539220229385" fill="#f4a261" opacity="0.29678400315967945" rx="1"/><rect x="1288.1219853519076" y="843.75069365924" width="11.468824971343583" height="6.147210168686511" fill="#e76f51" opacity="0.3679790150765281" rx="1"/><rect x="1274.9665159870356" y="846.8242987435833" width="11.468824971343583" height="6.147210168686511" fill="#f4a261" opacity="0.18398950753826404" rx="1"/><rect x="1359.7077522594207" y="759.9112887307795" width="60.53230729664962" height="94.75434291985685" fill="#264653" opacity="0.5257410967782469" rx="2"/><rect x="1384.5473539595775" y="769.9112887307795" width="10.853103896335956" height="8.13987015610092" fill="#e76f51" opacity="0.5586692547795058" rx="1"/><rect x="1369.414277135415" y="773.9812238088299" width="10.853103896335956" height="8.13987015610092" fill="#f4a261" opacity="0.2793346273897529" rx="1"/><rect x="1385.808319601459" y="793.5998744607436" width="8.331172612572828" height="8.515204813916982" fill="#e76f51" opacity="0.10872603082301235" rx="1"/><rect x="1370.6752427772965" y="797.8574768677022" width="8.331172612572828" height="8.515204813916982" fill="#f4a261" opacity="0.05436301541150618" rx="1"/><rect x="1386.6147084724598" y="817.2884601907078" width="6.7183948705714185" height="8.720090930052123" fill="#e76f51" opacity="0.3330105737161382" rx="1"/><rect x="1371.4816316482973" y="821.6485056557339" width="6.7183948705714185" height="8.720090930052123" fill="#f4a261" opacity="0.1665052868580691" rx="1"/><rect x="1387.6246298297306" y="840.9770459206721" width="4.698552156029863" height="6.313876926040714" fill="#e76f51" opacity="0.10709916709621883" rx="1"/><rect x="1372.491553005568" y="844.1339843836925" width="4.698552156029863" height="6.313876926040714" fill="#f4a261" opacity="0.05354958354810942" rx="1"/><rect x="1424.702548125092" y="572.7610905824138" width="79.49260135867927" height="281.9045410682225" fill="#0c2c39" opacity="0.40082401148994085" rx="2"/><rect x="1459.722268623569" y="582.7610905824138" width="9.453160361725175" height="7.974210552399562" fill="#e76f51" opacity="0.47924247057625147" rx="1"/><rect x="1439.8491182838993" y="586.7481958586136" width="9.453160361725175" height="7.974210552399562" fill="#f4a261" opacity="0.23962123528812573" rx="1"/><rect x="1460.1695905545735" y="639.1419987960583" width="8.558516499716443" height="8.405413996988305" fill="#e76f51" opacity="0.20371942005672478" rx="1"/><rect x="1440.2964402149037" y="643.3447057945524" width="8.558516499716443" height="8.405413996988305" fill="#f4a261" opacity="0.10185971002836239" rx="1"/><rect x="1461.125554346144" y="695.5229070097027" width="6.646588916575208" height="6.680256190868154" fill="#e76f51" opacity="0.5292613619308131" rx="1"/><rect x="1441.2524040064743" y="698.8630351051369" width="6.646588916575208" height="6.680256190868154" fill="#f4a261" opacity="0.26463068096540654" rx="1"/><rect x="1462.4371725022493" y="751.9038152233472" width="4.023352604364826" height="9.710951472565288" fill="#e76f51" opacity="0.25862702069772103" rx="1"/><rect x="1442.5640221625795" y="756.7592909596299" width="4.023352604364826" height="9.710951472565288" fill="#f4a261" opacity="0.12931351034886052" rx="1"/><rect x="1458.5780507214395" y="808.2847234369917" width="11.741596165984308" height="7.506705243491266" fill="#e76f51" opacity="0.55296544371009" rx="1"/><rect x="1438.7049003817697" y="812.0380760587374" width="11.741596165984308" height="7.506705243491266" fill="#f4a261" opacity="0.276482721855045" rx="1"/><rect x="1528.3040087919217" y="660.2961607883442" width="37.716031206705615" height="194.36947086229208" fill="#264653" opacity="0.41884769024766233" rx="2"/><rect x="1544.1815134188807" y="670.2961607883442" width="5.961021952787652" height="6.155267494766802" fill="#e76f51" opacity="0.4250404443417304" rx="1"/><rect x="1534.7525056172042" y="673.3737945357276" width="5.961021952787652" height="6.155267494766802" fill="#f4a261" opacity="0.2125202221708652" rx="1"/><rect x="1543.9811119999918" y="718.8885285039172" width="6.361824790565722" height="7.566726464211644" fill="#e76f51" opacity="0.3344177519517061" rx="1"/><rect x="1534.5521041983152" y="722.671891736023" width="6.361824790565722" height="7.566726464211644" fill="#f4a261" opacity="0.16720887597585304" rx="1"/><rect x="1542.2854887563692" y="767.4808962194902" width="9.753071277810509" height="9.406921026158827" fill="#e76f51" opacity="0.5253173533187521" rx="1"/><rect x="1532.8564809546926" y="772.1843567325697" width="9.753071277810509" height="9.406921026158827" fill="#f4a261" opacity="0.26265867665937603" rx="1"/><rect x="1542.6361494465575" y="816.0732639350633" width="9.051749897434318" height="9.413920245928205" fill="#e76f51" opacity="0.3749020107497699" rx="1"/><rect x="1533.207141644881" y="820.7802240580274" width="9.051749897434318" height="9.413920245928205" fill="#f4a261" opacity="0.18745100537488496" rx="1"/><rect x="1613.3825971186952" y="558.2887587506065" width="70.96539616141594" height="296.37687290002987" fill="#264653" opacity="0.5145659024395435" rx="2"/><rect x="1643.7237351899223" y="568.2887587506065" width="10.283120018961634" height="6.341569295232549" fill="#e76f51" opacity="0.35721829018025153" rx="1"/><rect x="1625.9823861495684" y="571.4595433982228" width="10.283120018961634" height="6.341569295232549" fill="#f4a261" opacity="0.17860914509012576" rx="1"/><rect x="1646.1086534471403" y="617.6849042339447" width="5.513283504525498" height="9.735582677585906" fill="#e76f51" opacity="0.2048461579728979" rx="1"/><rect x="1628.3673044067864" y="622.5526955727377" width="5.513283504525498" height="9.735582677585906" fill="#f4a261" opacity="0.10242307898644895" rx="1"/><rect x="1642.874421070989" y="667.0810497172831" width="11.981748256828112" height="6.48120150167523" fill="#e76f51" opacity="0.1962814727323785" rx="1"/><rect x="1625.133072030635" y="670.3216504681208" width="11.981748256828112" height="6.48120150167523" fill="#f4a261" opacity="0.09814073636618925" rx="1"/><rect x="1644.2662560241818" y="716.4771952006214" width="9.198078350442945" height="7.312166553296187" fill="#e76f51" opacity="0.47049430326337327" rx="1"/><rect x="1626.5249069838278" y="720.1332784772695" width="9.198078350442945" height="7.312166553296187" fill="#f4a261" opacity="0.23524715163168664" rx="1"/><rect x="1643.6515294219387" y="765.8733406839597" width="10.427531554928873" height="9.374865964840833" fill="#e76f51" opacity="0.2746040480617909" rx="1"/><rect x="1625.9101803815847" y="770.5607736663801" width="10.427531554928873" height="9.374865964840833" fill="#f4a261" opacity="0.13730202403089545" rx="1"/><rect x="1646.1006084098615" y="815.269486167298" width="5.52937357908333" height="7.411730777800952" fill="#e76f51" opacity="0.2822835210902345" rx="1"/><rect x="1628.3592593695075" y="818.9753515561986" width="5.52937357908333" height="7.411730777800952" fill="#f4a261" opacity="0.14114176054511726" rx="1"/><rect x="1670.4123924732278" y="736.2882018639446" width="81.0225438305695" height="118.37742978669178" fill="#264653" opacity="0.5804684748361978" rx="2"/><rect x="1706.0403031758633" y="746.2882018639446" width="9.766722425298468" height="9.179599530803877" fill="#e76f51" opacity="0.11669270906520372" rx="1"/><rect x="1685.7846672182209" y="750.8780016293465" width="9.766722425298468" height="9.179599530803877" fill="#f4a261" opacity="0.05834635453260186" rx="1"/><rect x="1708.239229453834" y="763.1992632620434" width="5.3688698693571775" height="9.704390270566659" fill="#e76f51" opacity="0.15744209235008855" rx="1"/><rect x="1687.9835934961916" y="768.0514583973267" width="5.3688698693571775" height="9.704390270566659" fill="#f4a261" opacity="0.07872104617504427" rx="1"/><rect x="1707.3740471619162" y="780.1103246601422" width="7.099234453192734" height="9.633393689904686" fill="#e76f51" opacity="0.13473573656164478" rx="1"/><rect x="1687.1184112042738" y="784.9270215050946" width="7.099234453192734" height="9.633393689904686" fill="#f4a261" opacity="0.06736786828082239" rx="1"/><rect x="1707.980825176509" y="797.021386058241" width="5.88567842400765" height="6.2032257160645035" fill="#e76f51" opacity="0.25164805067508667" rx="1"/><rect x="1687.7251892188665" y="800.1229989162732" width="5.88567842400765" height="6.2032257160645035" fill="#f4a261" opacity="0.12582402533754333" rx="1"/><rect x="1705.4391419984534" y="813.9324474563399" width="10.969044780118633" height="8.975208540208452" fill="#e76f51" opacity="0.46879617717787536" rx="1"/><rect x="1685.183506040811" y="818.4200517264442" width="10.969044780118633" height="8.975208540208452" fill="#f4a261" opacity="0.23439808858893768" rx="1"/><rect x="1707.0370828572788" y="830.8435088544387" width="7.7731630624675105" height="8.908970487050006" fill="#e76f51" opacity="0.5859016149970474" rx="1"/><rect x="1686.7814468996364" y="835.2979940979637" width="7.7731630624675105" height="8.908970487050006" fill="#f4a261" opacity="0.2929508074985237" rx="1"/><rect x="1707.367368471712" y="847.7545702525375" width="7.112591833600913" height="8.972085127367658" fill="#e76f51" opacity="0.377599383443035" rx="1"/><rect x="1687.1117325140697" y="852.2406128162213" width="7.112591833600913" height="8.972085127367658" fill="#f4a261" opacity="0.1887996917215175" rx="1"/><rect x="1782.66706370426" y="560.0920927385082" width="31.09870648968469" height="294.57353891212813" fill="#0c2c39" opacity="0.5583961140267542" rx="2"/><rect x="1795.3542976132205" y="570.0920927385082" width="5.724238671763856" height="6.326461227686718" fill="#e76f51" opacity="0.20637506519127058" rx="1"/><rect x="1787.5796209907992" y="573.2553233523515" width="5.724238671763856" height="6.326461227686718" fill="#f4a261" opacity="0.10318753259563529" rx="1"/><rect x="1794.8556664626428" y="619.1876825571962" width="6.721500972919515" height="6.149649660137866" fill="#e76f51" opacity="0.34027778190567104" rx="1"/><rect x="1787.0809898402215" y="622.2625073872651" width="6.721500972919515" height="6.149649660137866" fill="#f4a261" opacity="0.17013889095283552" rx="1"/><rect x="1793.808601733364" y="668.2832723758843" width="8.815630431476894" height="8.247214543225061" fill="#e76f51" opacity="0.5450878341321572" rx="1"/><rect x="1786.0339251109426" y="672.4068796474968" width="8.815630431476894" height="8.247214543225061" fill="#f4a261" opacity="0.2725439170660786" rx="1"/><rect x="1795.7394113257105" y="717.3788621945723" width="4.954011246784127" height="6.198206386575058" fill="#e76f51" opacity="0.4216097119314619" rx="1"/><rect x="1787.9647347032892" y="720.4779653878599" width="4.954011246784127" height="6.198206386575058" fill="#f4a261" opacity="0.21080485596573095" rx="1"/><rect x="1793.444099993427" y="766.4744520132602" width="9.54463391135089" height="9.081974670077201" fill="#e76f51" opacity="0.31763562974930637" rx="1"/><rect x="1785.6694233710057" y="771.0154393482989" width="9.54463391135089" height="9.081974670077201" fill="#f4a261" opacity="0.15881781487465318" rx="1"/><rect x="1796.0054663136798" y="815.5700418319483" width="4.421901270845416" height="8.711975424250582" fill="#e76f51" opacity="0.379255865323184" rx="1"/><rect x="1788.2307896912585" y="819.9260295440736" width="4.421901270845416" height="8.711975424250582" fill="#f4a261" opacity="0.189627932661592" rx="1"/><rect x="1844.5301162629085" y="597.309749665975" width="75.67493045369045" height="257.3558819846613" fill="#264653" opacity="0.42399925829935803" rx="2"/><rect x="1879.1040418091798" y="607.309749665975" width="6.527079361147964" height="8.733775193508198" fill="#e76f51" opacity="0.1320951156392915" rx="1"/><rect x="1860.185309195757" y="611.6766372627291" width="6.527079361147964" height="8.733775193508198" fill="#f4a261" opacity="0.06604755781964575" rx="1"/><rect x="1877.688132425404" y="650.2023966634185" width="9.358898128699256" height="6.736687845722001" fill="#e76f51" opacity="0.4454154466384592" rx="1"/><rect x="1858.7693998119814" y="653.5707405862795" width="9.358898128699256" height="6.736687845722001" fill="#f4a261" opacity="0.2227077233192296" rx="1"/><rect x="1878.0254946897658" y="693.0950436608621" width="8.684173599976155" height="8.76581342489594" fill="#e76f51" opacity="0.5487751107543649" rx="1"/><rect x="1859.106762076343" y="697.47795037331" width="8.684173599976155" height="8.76581342489594" fill="#f4a261" opacity="0.27438755537718246" rx="1"/><rect x="1877.0216623697806" y="735.9876906583056" width="10.691838239946364" height="9.246671122323413" fill="#e76f51" opacity="0.3418804803727848" rx="1"/><rect x="1858.102929756358" y="740.6110262194674" width="10.691838239946364" height="9.246671122323413" fill="#f4a261" opacity="0.1709402401863924" rx="1"/><rect x="1880.1588970732173" y="778.8803376557493" width="4.4173688330728025" height="9.764320630525313" fill="#e76f51" opacity="0.5565142866821294" rx="1"/><rect x="1861.2401644597946" y="783.762497971012" width="4.4173688330728025" height="9.764320630525313" fill="#f4a261" opacity="0.2782571433410647" rx="1"/><rect x="1878.245367076943" y="821.7729846531928" width="8.244428825621593" height="8.929827839818277" fill="#e76f51" opacity="0.3474198311677714" rx="1"/><rect x="1859.3266344635203" y="826.2378985731019" width="8.244428825621593" height="8.929827839818277" fill="#f4a261" opacity="0.1737099155838857" rx="1"/><path d="M164.38009504330813 855.3198655497562 Q155.3187120182716 756.9191731877902 153.5064354132643 658.5184808258243" stroke="#000006" stroke-width="7.794518553604027" fill="none" stroke-linecap="round"/><path d="M153.5064354132643 658.5184808258243 Q190.27083809307567 638.5184808258243 215.8175299847074 658.5184808258243" stroke="#001320" stroke-width="2.9995841768103615" fill="none" stroke-linecap="round" opacity="0.6"/><path d="M153.5064354132643 658.5184808258243 Q178.00850707176272 643.6167279622225 180.6112115547539 668.7149750986206" stroke="#001320" stroke-width="3.8051841193356513" fill="none" stroke-linecap="round" opacity="0.6"/><path d="M153.5064354132643 658.5184808258243 Q152.62311768724854 649.8898538304892 136.20349085879056 681.261226835154" stroke="#001320" stroke-width="2.637402952331445" fill="none" stroke-linecap="round" opacity="0.6"/><path d="M153.5064354132643 658.5184808258243 Q148.02973808036867 641.1519871659928 117.04955365747414 663.7854935061611" stroke="#001320" stroke-width="3.5516094461902066" fill="none" stroke-linecap="round" opacity="0.6"/><path d="M153.5064354132643 658.5184808258243 Q129.40124597060782 633.3936974135156 82.56161935687621 648.2689140012068" stroke="#001320" stroke-width="2.0720708635803478" fill="none" stroke-linecap="round" opacity="0.6"/><path d="M153.5064354132643 658.5184808258243 Q163.7447449940251 628.6820453944524 138.53908742345973 638.8456099630806" stroke="#001320" stroke-width="3.8480819328334372" fill="none" stroke-linecap="round" opacity="0.6"/><path d="M94.43765716963394 892.4520745390216 Q91.70571521662775 801.4665462021871 91.15932682602651 710.4810178653527" stroke="#000006" stroke-width="4.096567257329954" fill="none" stroke-linecap="round"/><path d="M91.15932682602651 710.4810178653527 Q144.05163222831945 690.4810178653527 158.1936866301563 710.4810178653527" stroke="#001320" stroke-width="2.2424597484624154" fill="none" stroke-linecap="round" opacity="0.6"/><path d="M91.15932682602651 710.4810178653527 Q128.54867532432553 698.7473295314517 135.1070840121737 727.0136411975506" stroke="#001320" stroke-width="3.266631873153763" fill="none" stroke-linecap="round" opacity="0.6"/><path d="M91.15932682602651 710.4810178653527 Q87.58575105726639 701.1994601152232 74.84989683162226 731.9179023650938" stroke="#001320" stroke-width="3.6938968234914116" fill="none" stroke-linecap="round" opacity="0.6"/><path d="M91.15932682602651 710.4810178653527 Q75.65460434740314 694.2646273029452 38.78102046980138 718.0482367405376" stroke="#001320" stroke-width="2.4864714519322084" fill="none" stroke-linecap="round" opacity="0.6"/><path d="M91.15932682602651 710.4810178653527 Q90.90307490229655 687.6630697337492 52.14912956132254 704.8451216021458" stroke="#001320" stroke-width="3.444304375314225" fill="none" stroke-linecap="round" opacity="0.6"/><path d="M91.15932682602651 710.4810178653527 Q104.0228701112275 685.2932784205518 83.2655423252787 700.105538975751" stroke="#001320" stroke-width="2.401388367265786" fill="none" stroke-linecap="round" opacity="0.6"/><path d="M2.8141334659452863 880.5524363602866 Q-7.628551979462745 817.7691432863402 -9.717089068544352 754.9858502123938" stroke="#000006" stroke-width="7.774682914785734" fill="none" stroke-linecap="round"/><path d="M-9.717089068544352 754.9858502123938 Q25.71746974338718 734.9858502123938 57.64320362490676 754.9858502123938" stroke="#001320" stroke-width="2.8532274367411685" fill="none" stroke-linecap="round" opacity="0.6"/><path d="M-9.717089068544352 754.9858502123938 Q23.26700069577418 741.5855433621092 25.370108676039337 768.1852365118247" stroke="#001320" stroke-width="3.3599653736129325" fill="none" stroke-linecap="round" opacity="0.6"/><path d="M-9.717089068544352 754.9858502123938 Q-0.8866145262136627 742.4871251048833 -21.131202693993785 769.9883999973729" stroke="#001320" stroke-width="3.523351691552287" fill="none" stroke-linecap="round" opacity="0.6"/><path d="M-9.717089068544352 754.9858502123938 Q-22.749179874557527 739.5909926431567 -73.4682676801602 764.1961350739197" stroke="#001320" stroke-width="2.237474699559965" fill="none" stroke-linecap="round" opacity="0.6"/><path d="M-9.717089068544352 754.9858502123938 Q-22.858067403023014 731.9041729323544 -52.3782144640938 748.8224956523152" stroke="#001320" stroke-width="2.5217827946231193" fill="none" stroke-linecap="round" opacity="0.6"/><path d="M-9.717089068544352 754.9858502123938 Q-13.545649604957802 728.7408435702641 -19.219635825805945 742.4958369281344" stroke="#001320" stroke-width="2.161551304664824" fill="none" stroke-linecap="round" opacity="0.6"/><path d="M1230.4242510978188 848.1202926365938 Q1221.719818739621 724.6296289434259 1219.9789322679812 601.138965250258" stroke="#000006" stroke-width="5.100990680302724" fill="none" stroke-linecap="round"/><path d="M1219.9789322679812 601.138965250258 Q1252.1029119396355 581.138965250258 1266.4032635503454 601.138965250258" stroke="#001320" stroke-width="2.839620920559303" fill="none" stroke-linecap="round" opacity="0.6"/><path d="M1219.9789322679812 601.138965250258 Q1254.1765822451077 588.1259991899869 1257.1254231623277 615.1130331297157" stroke="#001320" stroke-width="2.1368966754844636" fill="none" stroke-linecap="round" opacity="0.6"/><path d="M1219.9789322679812 601.138965250258 Q1214.1680223514752 592.1049333014196 1203.2928612809915 623.070901352581" stroke="#001320" stroke-width="2.715968212745145" fill="none" stroke-linecap="round" opacity="0.6"/><path d="M1219.9789322679812 601.138965250258 Q1191.965004242265 586.1119581722753 1151.1354242175037 611.0849510942926" stroke="#001320" stroke-width="2.680542882224671" fill="none" stroke-linecap="round" opacity="0.6"/><path d="M1219.9789322679812 601.138965250258 Q1205.6118184956151 576.6723821676187 1158.1458966635244 592.2057990849794" stroke="#001320" stroke-width="3.231359922148138" fill="none" stroke-linecap="round" opacity="0.6"/><path d="M1219.9789322679812 601.138965250258 Q1217.915274875715 570.2343647296786 1203.3862395369567 579.3297642090992" stroke="#001320" stroke-width="2.123234555153929" fill="none" stroke-linecap="round" opacity="0.6"/><path d="M1219.9789322679812 601.138965250258 Q1252.2935084897122 572.3065446190949 1266.9364016864386 583.4741239879316" stroke="#001320" stroke-width="3.8729166788684477" fill="none" stroke-linecap="round" opacity="0.6"/><path d="M1743.998144973069 846.8695959418243 Q1725.6683551766137 791.9047321115864 1722.0023972173226 736.9398682813486" stroke="#000006" stroke-width="6.8895956936500955" fill="none" stroke-linecap="round"/><path d="M1722.0023972173226 736.9398682813486 Q1760.5128310982866 716.9398682813486 1771.7672140527905 736.9398682813486" stroke="#001320" stroke-width="2.9796694286585947" fill="none" stroke-linecap="round" opacity="0.6"/><path d="M1722.0023972173226 736.9398682813486 Q1746.593535713314 722.6464872202296 1752.341575512322 748.3531061591106" stroke="#001320" stroke-width="2.5259574098805797" fill="none" stroke-linecap="round" opacity="0.6"/><path d="M1722.0023972173226 736.9398682813486 Q1729.2850870453747 722.8245876988814 1713.0480718461968 748.7093071164142" stroke="#001320" stroke-width="2.6772174981136847" fill="none" stroke-linecap="round" opacity="0.6"/><path d="M1722.0023972173226 736.9398682813486 Q1718.3917777591103 719.1312179288539 1691.6665010145496 741.3225675763591" stroke="#001320" stroke-width="2.061922926935815" fill="none" stroke-linecap="round" opacity="0.6"/><path d="M1722.0023972173226 736.9398682813486 Q1703.080442324706 713.5828077337762 1675.529010173171 730.225747186204" stroke="#001320" stroke-width="3.3888746130719953" fill="none" stroke-linecap="round" opacity="0.6"/><path d="M1722.0023972173226 736.9398682813486 Q1723.8158306730886 705.273263778367 1704.2502215766808 713.6066592753855" stroke="#001320" stroke-width="2.4507349912195315" fill="none" stroke-linecap="round" opacity="0.6"/><path d="M1722.0023972173226 736.9398682813486 Q1739.298721281823 712.1003787125987 1747.7314915296695 727.2608891438488" stroke="#001320" stroke-width="3.385198118487652" fill="none" stroke-linecap="round" opacity="0.6"/><rect x="0" y="1000" width="1920" height="80" fill="#00202d" opacity="0.8"/><line x1="0" y1="1040" x2="1920" y2="1040" stroke="#e76f51" stroke-opacity="0.15" stroke-width="2" stroke-dasharray="30,20"/><rect x="0" y="930" width="1920" height="150" fill="url(#glow26)"/><rect x="0" y="980" width="1920" height="100" fill="#e76f51" opacity="0.04"/><rect x="340.5609539944122" y="1048.4138096283223" width="59.76989093696929" height="2" fill="#f4a261" opacity="0.03858971787118114" rx="1"/><rect x="1483.539335030024" y="1035.5107212661558" width="48.39438205780331" height="2" fill="#f4a261" opacity="0.027130056658557163" rx="1"/><rect x="431.6281079760818" y="1026.1086899335749" width="76.89041392339635" height="2" fill="#f4a261" opacity="0.0270925486569974" rx="1"/><rect x="1309.0432050891786" y="1029.7716612345007" width="115.32306676155959" height="2" fill="#f4a261" opacity="0.04171497556886519" rx="1"/><rect x="1335.0553794333373" y="1000.0752174668189" width="20.579578080349503" height="2" fill="#f4a261" opacity="0.045924518123717166" rx="1"/><rect x="1413.2854645264536" y="1058.4008190404625" width="70.30808722374684" height="2" fill="#f4a261" opacity="0.046628402738512584" rx="1"/><rect x="1576.7153789793877" y="1046.1492935349581" width="101.81941248053205" height="2" fill="#f4a261" opacity="0.038906026533550124" rx="1"/><rect x="625.2220100130005" y="1023.627709668043" width="99.23590207454653" height="2" fill="#f4a261" opacity="0.05111179685013178" rx="1"/><rect x="639.0295852718477" y="1009.683680252564" width="113.96159180765076" height="2" fill="#f4a261" opacity="0.02879348787683842" rx="1"/><rect x="389.2923998248978" y="1014.097217049938" width="38.98939589014961" height="2" fill="#f4a261" opacity="0.029900601657549992" rx="1"/><rect x="1111.810150256336" y="1041.1231449342154" width="34.441475322107195" height="2" fill="#f4a261" opacity="0.0516569529640621" rx="1"/><rect x="1208.589872999254" y="1033.1735291688642" width="110.47128120215406" height="2" fill="#f4a261" opacity="0.05138705653869245" rx="1"/><rect x="702.1305130566775" y="1030.1771011273788" width="117.64459130765046" height="2" fill="#f4a261" opacity="0.05028228738118948" rx="1"/><rect x="705.5750090036483" y="1046.4856218142634" width="112.66677961979684" height="2" fill="#f4a261" opacity="0.057854737061507705" rx="1"/><rect x="1043.065226618914" y="1006.173877223901" width="78.46090550964254" height="2" fill="#f4a261" opacity="0.03489398764793156" rx="1"/><rect x="1645.8737074690578" y="1019.5999260199256" width="42.182242950001324" height="2" fill="#f4a261" opacity="0.03644648014950717" rx="1"/><rect x="1156.8018264781688" y="1025.7167665999655" width="71.84811534170251" height="2" fill="#f4a261" opacity="0.04595757051044087" rx="1"/><rect x="1733.8724492056929" y="1025.0047137134254" width="80.4417993362159" height="2" fill="#f4a261" opacity="0.056347898895933266" rx="1"/><rect x="1731.0387168384714" y="1054.5233101338436" width="41.01474956632936" height="2" fill="#f4a261" opacity="0.02405493640435276" rx="1"/><rect x="1409.319756359169" y="1019.8664195090221" width="41.58740477673416" height="2" fill="#f4a261" opacity="0.05987549667243741" rx="1"/><rect x="1100.712457257489" y="1034.0550774228886" width="34.576534138661" height="2" fill="#f4a261" opacity="0.032589287071626005" rx="1"/><rect x="1506.3616556456225" y="1018.4648486223223" width="105.4963028536868" height="2" fill="#f4a261" opacity="0.05543692770307812" rx="1"/><rect x="1905.994157638865" y="1055.103303565435" width="29.132129398438178" height="2" fill="#f4a261" opacity="0.05176681476453478" rx="1"/><rect x="1476.1805689791638" y="1042.3908181168117" width="88.22981088613854" height="2" fill="#f4a261" opacity="0.037188150355869004" rx="1"/><rect x="828.0900578638748" y="1007.9611354619174" width="59.76745608722965" height="2" fill="#f4a261" opacity="0.05086869558106845" rx="1"/><rect x="1761.490248851825" y="1016.4376417120075" width="64.52501834475552" height="2" fill="#f4a261" opacity="0.04878706341348287" rx="1"/><rect x="1037.9117656680548" y="1043.2411078790299" width="91.1355641649886" height="2" fill="#f4a261" opacity="0.04278654247121572" rx="1"/><rect x="1163.3422921326342" y="1009.1162727654716" width="104.140713881734" height="2" fill="#f4a261" opacity="0.053571270879723895" rx="1"/><rect x="1242.8829975339777" y="1027.7460894239475" width="31.820984052452488" height="2" fill="#f4a261" opacity="0.04332257449238622" rx="1"/><rect x="447.0504508463317" y="1058.983691404337" width="114.16522933034348" height="2" fill="#f4a261" opacity="0.05704792386783472" rx="1"/><text x="1900" y="1060" font-family="Arial, sans-serif" font-size="11" fill="#fff" opacity="0.08" text-anchor="end" letter-spacing="2">GTA 6 REWARDS · WALLPAPER 027</text>
</svg>