<?xml version="1.0" encoding="UTF-8"?>
<svg xmlns="http://www.w3.org/2000/svg" width="1920" height="1080" viewBox="0 0 1920 1080">
<defs>
    <linearGradient id="bg61" x1="0%" y1="0%" x2="0%" y2="100%">
      <stop offset="0%" stop-color="#004e89"/>
      <stop offset="50%" stop-color="#001b56"/>
      <stop offset="100%" stop-color="#004e89"/>
    </linearGradient>
    <linearGradient id="sun61" x1="0%" y1="0%" x2="100%" y2="100%">
      <stop offset="0%" stop-color="#ff6b35"/>
      <stop offset="100%" stop-color="#f7c59f"/>
    </linearGradient>
    <radialGradient id="glow61" cx="50%" cy="70%" r="50%">
      <stop offset="0%" stop-color="#ff6b35" stop-opacity="0.3"/>
      <stop offset="100%" stop-color="#004e89" stop-opacity="0"/>
    </radialGradient>
  </defs><rect width="1920" height="1080" fill="url(#bg61)"/><circle cx="1149.9485531006821" cy="552.3073164635123" r="819.4126416275773" fill="#ff6b35" opacity="0.05438863092669953"/><circle cx="1349.9485531006821" cy="452.3073164635123" r="440.1230573281932" fill="#f7c59f" opacity="0.09582699018666219"/><circle cx="770.7491633647003" cy="305.8624055133812" r="76.84778930080304" fill="url(#sun61)" opacity="0.8366817955711581"/><circle cx="770.7491633647003" cy="305.8624055133812" r="71.84778930080304" fill="#004e89" opacity="0.3"/><pattern id="scan61" width="1920" height="4" patternUnits="userSpaceOnUse">
      <line x1="0" y1="0" x2="1920" y2="0" stroke="#000" stroke-opacity="0.05" stroke-width="1"/>
    </pattern>
    <rect width="1920" height="1080" fill="url(#scan61)"/><rect x="22.167650482656352" y="585.2458021918419" width="55.307693696885295" height="335.00030574738054" fill="#00346f" opacity="0.5469114964238628" rx="2"/><rect x="44.07037798107377" y="595.2458021918419" width="11.502238700050452" height="8.466088830136249" fill="#f7c59f" opacity="0.58361213493245" rx="1"/><rect x="30.24345455685245" y="599.47884660691" width="11.502238700050452" height="8.466088830136249" fill="#ff6b35" opacity="0.291806067466225" rx="1"/><rect x="47.01399236126197" y="637.1208404102645" width="5.615009939674057" height="6.051029354345759" fill="#f7c59f" opacity="0.1704854307860335" rx="1"/><rect x="33.18706893704065" y="640.1463550874373" width="5.615009939674057" height="6.051029354345759" fill="#ff6b35" opacity="0.08524271539301675" rx="1"/><rect x="44.00415738369434" y="678.995878628687" width="11.634679894809304" height="9.178497174563468" fill="#f7c59f" opacity="0.4356838831295454" rx="1"/><rect x="30.177233959473025" y="683.5851272159688" width="11.634679894809304" height="9.178497174563468" fill="#ff6b35" opacity="0.2178419415647727" rx="1"/><rect x="46.95989147433077" y="720.8709168471096" width="5.723211713536459" height="8.880301845930587" fill="#f7c59f" opacity="0.5328200577136176" rx="1"/><rect x="33.13296805010945" y="725.3110677700748" width="5.723211713536459" height="8.880301845930587" fill="#ff6b35" opacity="0.2664100288568088" rx="1"/><rect x="47.02048332384332" y="762.7459550655321" width="5.602028014511342" height="6.614547253729437" fill="#f7c59f" opacity="0.5162236095676719" rx="1"/><rect x="33.193559899622" y="766.0532286923968" width="5.602028014511342" height="6.614547253729437" fill="#ff6b35" opacity="0.25811180478383594" rx="1"/><rect x="45.952578311076515" y="804.6209932839547" width="7.737838040044959" height="8.46514602807936" fill="#f7c59f" opacity="0.37732629940782825" rx="1"/><rect x="32.125654886855195" y="808.8535662979943" width="7.737838040044959" height="8.46514602807936" fill="#ff6b35" opacity="0.18866314970391412" rx="1"/><rect x="45.82455409244274" y="846.4960315023773" width="7.993886477312513" height="6.421610971079583" fill="#f7c59f" opacity="0.20806121609827066" rx="1"/><rect x="31.99763066822142" y="849.7068369879171" width="7.993886477312513" height="6.421610971079583" fill="#ff6b35" opacity="0.10403060804913533" rx="1"/><rect x="44.72840641991431" y="888.3710697207998" width="10.186181822369383" height="8.280920324446848" fill="#f7c59f" opacity="0.12807830984892285" rx="1"/><rect x="30.901482995692984" y="892.5115298830233" width="10.186181822369383" height="8.280920324446848" fill="#ff6b35" opacity="0.06403915492446142" rx="1"/><rect x="111.08543729942843" y="672.2327642427368" width="45.37337313764109" height="248.01334369648558" fill="#004e89" opacity="0.4106303974545166" rx="2"/><rect x="131.351210885255" y="682.2327642427368" width="4.841825965987944" height="9.431847791986504" fill="#f7c59f" opacity="0.5336115334726897" rx="1"/><rect x="120.00786760084473" y="686.9486881387301" width="4.841825965987944" height="9.431847791986504" fill="#ff6b35" opacity="0.2668057667363449" rx="1"/><rect x="127.82154155211518" y="717.6632419136633" width="11.90116463226759" height="7.483273757035675" fill="#f7c59f" opacity="0.2283265662212685" rx="1"/><rect x="116.47819826770491" y="721.4048787921812" width="11.90116463226759" height="7.483273757035675" fill="#ff6b35" opacity="0.11416328311063426" rx="1"/><rect x="128.76884640650522" y="753.0937195845898" width="10.00655492348749" height="9.611023619680438" fill="#f7c59f" opacity="0.18378554987343623" rx="1"/><rect x="117.42550312209495" y="757.8992313944301" width="10.00655492348749" height="9.611023619680438" fill="#ff6b35" opacity="0.09189277493671812" rx="1"/><rect x="128.521922796811" y="788.5241972555164" width="10.50040214287592" height="8.961694046613223" fill="#f7c59f" opacity="0.2823191295103913" rx="1"/><rect x="117.17857951240074" y="793.005044278823" width="10.50040214287592" height="8.961694046613223" fill="#ff6b35" opacity="0.14115956475519564" rx="1"/><rect x="130.54436269806757" y="823.9546749264429" width="6.45552234036278" height="8.927656710829506" fill="#f7c59f" opacity="0.5683516479489281" rx="1"/><rect x="119.2010194136573" y="828.4185032818576" width="6.45552234036278" height="8.927656710829506" fill="#ff6b35" opacity="0.28417582397446406" rx="1"/><rect x="130.03916622904535" y="859.3851525973694" width="7.46591527840726" height="6.011939863677123" fill="#f7c59f" opacity="0.35771135668217" rx="1"/><rect x="118.69582294463507" y="862.3911225292079" width="7.46591527840726" height="6.011939863677123" fill="#ff6b35" opacity="0.178855678341085" rx="1"/><rect x="127.90797282073791" y="894.815630268296" width="11.728302095022123" height="9.548763365379713" fill="#f7c59f" opacity="0.16871896820811533" rx="1"/><rect x="116.56462953632764" y="899.5900119509859" width="11.728302095022123" height="9.548763365379713" fill="#ff6b35" opacity="0.08435948410405766" rx="1"/><rect x="197.36311211972486" y="674.7272435633296" width="75.97163640101711" height="245.51886437589278" fill="#00346f" opacity="0.46273515121143666" rx="2"/><rect x="232.45413065633983" y="684.7272435633296" width="5.789599327787198" height="7.4739284136970365" fill="#f7c59f" opacity="0.22493565076145708" rx="1"/><rect x="213.46122155608555" y="688.4642077701781" width="5.789599327787198" height="7.4739284136970365" fill="#ff6b35" opacity="0.11246782538072854" rx="1"/><rect x="230.99051181590812" y="719.8013670455999" width="8.71683700865061" height="9.295628441333683" fill="#f7c59f" opacity="0.24193619465034832" rx="1"/><rect x="211.99760271565384" y="724.4491812662668" width="8.71683700865061" height="9.295628441333683" fill="#ff6b35" opacity="0.12096809732517416" rx="1"/><rect x="231.90355041170025" y="754.8754905278704" width="6.890759817066314" height="7.263032852966113" fill="#f7c59f" opacity="0.537826132736594" rx="1"/><rect x="212.91064131144597" y="758.5070069543534" width="6.890759817066314" height="7.263032852966113" fill="#ff6b35" opacity="0.268913066368297" rx="1"/><rect x="231.95955574992018" y="789.9496140101407" width="6.778749140626459" height="8.910013305700852" fill="#f7c59f" opacity="0.5359493461521224" rx="1"/><rect x="212.9666466496659" y="794.4046206629912" width="6.778749140626459" height="8.910013305700852" fill="#ff6b35" opacity="0.2679746730760612" rx="1"/><rect x="232.84101643820233" y="825.0237374924111" width="5.015827764062171" height="6.763451753361954" fill="#f7c59f" opacity="0.4895031454482822" rx="1"/><rect x="213.84810733794805" y="828.4054633690921" width="5.015827764062171" height="6.763451753361954" fill="#ff6b35" opacity="0.2447515727241411" rx="1"/><rect x="232.70726598457983" y="860.0978609746816" width="5.283328671307147" height="9.353853951989173" fill="#f7c59f" opacity="0.20879499584175532" rx="1"/><rect x="213.71435688432555" y="864.7747879506761" width="5.283328671307147" height="9.353853951989173" fill="#ff6b35" opacity="0.10439749792087766" rx="1"/><rect x="232.40036966582684" y="895.1719844569519" width="5.897121308813133" height="9.177379550220767" fill="#f7c59f" opacity="0.11067973010024981" rx="1"/><rect x="213.40746056557256" y="899.7606742320623" width="5.897121308813133" height="9.177379550220767" fill="#ff6b35" opacity="0.055339865050124906" rx="1"/><rect x="275.55669358955026" y="698.5303440942732" width="47.46273687515937" height="221.71576384494915" fill="#004e89" opacity="0.40769463363282726" rx="2"/><rect x="295.4627781184198" y="708.5303440942732" width="7.650567817420365" height="7.497224529622407" fill="#f7c59f" opacity="0.11650634175550806" rx="1"/><rect x="283.59709389962995" y="712.2789563590844" width="7.650567817420365" height="7.497224529622407" fill="#ff6b35" opacity="0.05825317087775403" rx="1"/><rect x="296.08514267777554" y="752.8734968632631" width="6.40583869870888" height="6.741470980630599" fill="#f7c59f" opacity="0.2110586864201023" rx="1"/><rect x="284.2194584589857" y="756.2442323535784" width="6.40583869870888" height="6.741470980630599" fill="#ff6b35" opacity="0.10552934321005115" rx="1"/><rect x="295.8557325788565" y="797.2166496322529" width="6.864658896546964" height="7.364692033586254" fill="#f7c59f" opacity="0.351269157568754" rx="1"/><rect x="283.9900483600666" y="800.898995649046" width="6.864658896546964" height="7.364692033586254" fill="#ff6b35" opacity="0.175634578784377" rx="1"/><rect x="293.39495346086323" y="841.5598024012427" width="11.786217132533485" height="9.6673951502115" fill="#f7c59f" opacity="0.4020269822566833" rx="1"/><rect x="281.5292692420734" y="846.3934999763484" width="11.786217132533485" height="9.6673951502115" fill="#ff6b35" opacity="0.20101349112834166" rx="1"/><rect x="295.2948477472527" y="885.9029551702325" width="7.986428559754609" height="6.424588058242711" fill="#f7c59f" opacity="0.243544444149254" rx="1"/><rect x="283.4291635284628" y="889.1152491993539" width="7.986428559754609" height="6.424588058242711" fill="#ff6b35" opacity="0.121772222074627" rx="1"/><rect x="352.3264056978746" y="607.049414109683" width="54.191768291450984" height="313.1966938295394" fill="#00346f" opacity="0.4548546263144479" rx="2"/><rect x="373.9481765125462" y="617.049414109683" width="10.948226662107796" height="6.8583656234802595" fill="#f7c59f" opacity="0.3985607676204669" rx="1"/><rect x="360.4002344396834" y="620.4785969214231" width="10.948226662107796" height="6.8583656234802595" fill="#ff6b35" opacity="0.19928038381023344" rx="1"/><rect x="373.8919705935207" y="695.3485875670679" width="11.060638500158824" height="9.74977016629413" fill="#f7c59f" opacity="0.286326533599367" rx="1"/><rect x="360.3440285206579" y="700.223472650215" width="11.060638500158824" height="9.74977016629413" fill="#ff6b35" opacity="0.1431632667996835" rx="1"/><rect x="375.5038306083942" y="773.6477610244526" width="7.836918470411775" height="9.553975972243114" fill="#f7c59f" opacity="0.13045650374387777" rx="1"/><rect x="361.9558885355314" y="778.4247490105741" width="7.836918470411775" height="9.553975972243114" fill="#ff6b35" opacity="0.06522825187193888" rx="1"/><rect x="374.35237911637535" y="851.9469344818375" width="10.139821454449514" height="9.98769005480867" fill="#f7c59f" opacity="0.10310253433489766" rx="1"/><rect x="360.80443704351256" y="856.9407795092418" width="10.139821454449514" height="9.98769005480867" fill="#ff6b35" opacity="0.05155126716744883" rx="1"/><rect x="448.5154237662457" y="655.6903215138452" width="49.260061136274615" height="264.55578642537716" fill="#00346f" opacity="0.6711224483491672" rx="2"/><rect x="469.02603872938016" y="665.6903215138452" width="8.238831210005756" height="9.859555121478522" fill="#f7c59f" opacity="0.39844898236879356" rx="1"/><rect x="456.71102344531147" y="670.6200990745845" width="8.238831210005756" height="9.859555121478522" fill="#ff6b35" opacity="0.19922449118439678" rx="1"/><rect x="467.33428674317554" y="731.8292681201895" width="11.622335182414933" height="6.91934312435783" fill="#f7c59f" opacity="0.5676128290518216" rx="1"/><rect x="455.01927145910685" y="735.2889396823683" width="11.622335182414933" height="6.91934312435783" fill="#ff6b35" opacity="0.2838064145259108" rx="1"/><rect x="468.0276925093771" y="797.9682147265338" width="10.235523650011867" height="7.220266290293138" fill="#f7c59f" opacity="0.5139047873704473" rx="1"/><rect x="455.7126772253084" y="801.5783478716804" width="10.235523650011867" height="7.220266290293138" fill="#ff6b35" opacity="0.25695239368522366" rx="1"/><rect x="469.5965572138521" y="864.1071613328781" width="7.097794241061852" height="9.62996637067524" fill="#f7c59f" opacity="0.4908550218657719" rx="1"/><rect x="457.28154192978343" y="868.9221445182158" width="7.097794241061852" height="9.62996637067524" fill="#ff6b35" opacity="0.24542751093288595" rx="1"/><rect x="536.6976856574432" y="573.864441393843" width="57.57451678336936" height="346.38166654537935" fill="#00346f" opacity="0.6479586359225117" rx="2"/><rect x="560.9283080726949" y="583.864441393843" width="9.113271952865942" height="8.226109595556304" fill="#f7c59f" opacity="0.31564651576700775" rx="1"/><rect x="546.5346788768526" y="587.9774961916212" width="9.113271952865942" height="8.226109595556304" fill="#ff6b35" opacity="0.15782325788350388" rx="1"/><rect x="560.5887426427794" y="653.1407747029189" width="9.792402812697087" height="8.79633946502496" fill="#f7c59f" opacity="0.4843778369213403" rx="1"/><rect x="546.1951134469371" y="657.5389444354313" width="9.792402812697087" height="8.79633946502496" fill="#ff6b35" opacity="0.24218891846067014" rx="1"/><rect x="560.4203722338028" y="722.4171080119947" width="10.12914363065016" height="8.447914706181715" fill="#f7c59f" opacity="0.4776072917686792" rx="1"/><rect x="546.0267430379605" y="726.6410653650856" width="10.12914363065016" height="8.447914706181715" fill="#ff6b35" opacity="0.2388036458843396" rx="1"/><rect x="562.3866983620208" y="791.6934413210706" width="6.196491374214294" height="8.919398333625729" fill="#f7c59f" opacity="0.10680382363656625" rx="1"/><rect x="547.9930691661784" y="796.1531404878834" width="6.196491374214294" height="8.919398333625729" fill="#ff6b35" opacity="0.053401911818283125" rx="1"/><rect x="560.0647912928774" y="860.9697746301465" width="10.840305512500997" height="6.268969208996038" fill="#f7c59f" opacity="0.5873544337431329" rx="1"/><rect x="545.6711620970351" y="864.1042592346445" width="10.840305512500997" height="6.268969208996038" fill="#ff6b35" opacity="0.29367721687156645" rx="1"/><rect x="627.7833974362609" y="541.1634709199806" width="69.5614391284905" height="379.0826370192418" fill="#00346f" opacity="0.6036596613711817" rx="2"/><rect x="658.5411434299938" y="551.1634709199806" width="8.045947141024737" height="8.153013106936825" fill="#f7c59f" opacity="0.5892781762148436" rx="1"/><rect x="641.1507836478711" y="555.239977473449" width="8.045947141024737" height="8.153013106936825" fill="#ff6b35" opacity="0.2946390881074218" rx="1"/><rect x="657.7122906468435" y="677.5243499263945" width="9.703652707325213" height="8.907183223149548" fill="#f7c59f" opacity="0.34619048257502505" rx="1"/><rect x="640.3219308647208" y="681.9779415379693" width="9.703652707325213" height="8.907183223149548" fill="#ff6b35" opacity="0.17309524128751252" rx="1"/><rect x="659.5642353555401" y="803.8852289328084" width="5.9997632899321065" height="9.870837085850265" fill="#f7c59f" opacity="0.2322188340435314" rx="1"/><rect x="642.1738755734174" y="808.8206474757336" width="5.9997632899321065" height="9.870837085850265" fill="#ff6b35" opacity="0.1161094170217657" rx="1"/><rect x="712.4851048311756" y="641.8562622489073" width="82.1484740991491" height="278.3898456903151" fill="#00346f" opacity="0.6707114227979238" rx="2"/><rect x="748.8383262023292" y="651.8562622489073" width="9.442031356841799" height="8.948024361149415" fill="#f7c59f" opacity="0.2886038129889881" rx="1"/><rect x="728.3012076775419" y="656.3302744294821" width="9.442031356841799" height="8.948024361149415" fill="#ff6b35" opacity="0.14430190649449404" rx="1"/><rect x="750.9545836235629" y="721.4537236714862" width="5.209516514374297" height="6.957505159302965" fill="#f7c59f" opacity="0.4515756877259295" rx="1"/><rect x="730.4174650987757" y="724.9324762511376" width="5.209516514374297" height="6.957505159302965" fill="#ff6b35" opacity="0.22578784386296474" rx="1"/><rect x="748.9332743143847" y="791.0511850940649" width="9.25213513273097" height="8.059978401768017" fill="#f7c59f" opacity="0.10999617157736705" rx="1"/><rect x="728.3961557895974" y="795.0811742949488" width="9.25213513273097" height="8.059978401768017" fill="#ff6b35" opacity="0.05499808578868352" rx="1"/><rect x="748.5032029519903" y="860.6486465166437" width="10.11227785751975" height="6.240004805903883" fill="#f7c59f" opacity="0.3751674672530888" rx="1"/><rect x="727.966084427203" y="863.7686489195956" width="10.11227785751975" height="6.240004805903883" fill="#ff6b35" opacity="0.1875837336265444" rx="1"/><rect x="792.2816796015588" y="600.8038042231472" width="57.94411037767867" height="319.44230371607523" fill="#004e89" opacity="0.4910421268062299" rx="2"/><rect x="818.8158411956811" y="610.8038042231472" width="4.875787189434233" height="6.3697423134859985" fill="#f7c59f" opacity="0.38041987558370916" rx="1"/><rect x="804.3298136012613" y="613.9886753798902" width="4.875787189434233" height="6.3697423134859985" fill="#ff6b35" opacity="0.19020993779185458" rx="1"/><rect x="818.6103189107902" y="650.7340921876565" width="5.286831759215992" height="6.883990337346678" fill="#f7c59f" opacity="0.4491819316635798" rx="1"/><rect x="804.1242913163704" y="654.1760873563298" width="5.286831759215992" height="6.883990337346678" fill="#ff6b35" opacity="0.2245909658317899" rx="1"/><rect x="818.7863691919833" y="690.6643801521659" width="4.934731196829754" height="9.799412275617804" fill="#f7c59f" opacity="0.2289957128765517" rx="1"/><rect x="804.3003415975636" y="695.5640862899749" width="4.934731196829754" height="9.799412275617804" fill="#ff6b35" opacity="0.11449785643827586" rx="1"/><rect x="817.9551192301602" y="730.5946681166754" width="6.597231120475854" height="7.427745526988931" fill="#f7c59f" opacity="0.22792781766688633" rx="1"/><rect x="803.4690916357405" y="734.3085408801699" width="6.597231120475854" height="7.427745526988931" fill="#ff6b35" opacity="0.11396390883344316" rx="1"/><rect x="818.1210567759082" y="770.5249560811848" width="6.26535602897996" height="8.035523836043552" fill="#f7c59f" opacity="0.4145545399316015" rx="1"/><rect x="803.6350291814884" y="774.5427179992065" width="6.26535602897996" height="8.035523836043552" fill="#ff6b35" opacity="0.20727726996580076" rx="1"/><rect x="815.8868240507438" y="810.4552440456941" width="10.733821479308844" height="7.73408224380903" fill="#f7c59f" opacity="0.4557768596466111" rx="1"/><rect x="801.4007964563241" y="814.3222851675987" width="10.733821479308844" height="7.73408224380903" fill="#ff6b35" opacity="0.22788842982330554" rx="1"/><rect x="819.0255450835427" y="850.3855320102036" width="4.456379413710995" height="8.454245909688586" fill="#f7c59f" opacity="0.30771430158235935" rx="1"/><rect x="804.539517489123" y="854.6126549650479" width="4.456379413710995" height="8.454245909688586" fill="#ff6b35" opacity="0.15385715079117968" rx="1"/><rect x="815.502122617994" y="890.315819974713" width="11.503224344808427" height="9.687133988292686" fill="#f7c59f" opacity="0.35915449956877965" rx="1"/><rect x="801.0160950235743" y="895.1593869688594" width="11.503224344808427" height="9.687133988292686" fill="#ff6b35" opacity="0.17957724978438983" rx="1"/><rect x="888.0642824518136" y="596.6670315821345" width="68.32440906630931" height="323.57907635708784" fill="#00346f" opacity="0.5528886841034724" rx="2"/><rect x="917.0899921493306" y="606.6670315821345" width="10.272989671275251" height="8.325130411965105" fill="#f7c59f" opacity="0.31542953588427736" rx="1"/><rect x="900.0088898827532" y="610.8295967881171" width="10.272989671275251" height="8.325130411965105" fill="#ff6b35" opacity="0.15771476794213868" rx="1"/><rect x="918.5954546434286" y="671.3828468535521" width="7.262064683079268" height="6.63372462350729" fill="#f7c59f" opacity="0.5788886795236936" rx="1"/><rect x="901.5143523768513" y="674.6997091653058" width="7.262064683079268" height="6.63372462350729" fill="#ff6b35" opacity="0.2894443397618468" rx="1"/><rect x="918.3160511486925" y="736.0986621249697" width="7.82087167255135" height="8.748293910815448" fill="#f7c59f" opacity="0.5170514779205089" rx="1"/><rect x="901.2349488821152" y="740.4728090803774" width="7.82087167255135" height="8.748293910815448" fill="#ff6b35" opacity="0.25852573896025444" rx="1"/><rect x="919.8350496573878" y="800.8144773963872" width="4.782874655160791" height="7.375897501915669" fill="#f7c59f" opacity="0.44201393330982275" rx="1"/><rect x="902.7539473908105" y="804.5024261473451" width="4.782874655160791" height="7.375897501915669" fill="#ff6b35" opacity="0.22100696665491137" rx="1"/><rect x="917.7543685033303" y="865.5302926678048" width="8.944236963275875" height="9.780818942883243" fill="#f7c59f" opacity="0.14330702825526406" rx="1"/><rect x="900.673266236753" y="870.4207021392465" width="8.944236963275875" height="9.780818942883243" fill="#ff6b35" opacity="0.07165351412763203" rx="1"/><rect x="965.7562880836791" y="821.8675831965794" width="48.51732194854816" height="98.37852474264301" fill="#004e89" opacity="0.6393747615021129" rx="2"/><rect x="984.5949289378699" y="831.8675831965794" width="10.840040240166719" height="6.455123630458285" fill="#f7c59f" opacity="0.4730074012123531" rx="1"/><rect x="972.4655984507328" y="835.0951450118085" width="10.840040240166719" height="6.455123630458285" fill="#ff6b35" opacity="0.23650370060617654" rx="1"/><rect x="986.0363455175042" y="864.6604247774604" width="7.957207080898156" height="9.717589588770082" fill="#f7c59f" opacity="0.183995173588394" rx="1"/><rect x="973.9070150303671" y="869.5192195718455" width="7.957207080898156" height="9.717589588770082" fill="#ff6b35" opacity="0.091997586794197" rx="1"/><rect x="984.3096744612116" y="897.4532663583414" width="11.41054919348344" height="7.922186357416722" fill="#f7c59f" opacity="0.12419252391536546" rx="1"/><rect x="972.1803439740745" y="901.4143595370497" width="11.41054919348344" height="7.922186357416722" fill="#ff6b35" opacity="0.06209626195768273" rx="1"/><rect x="1058.9306532057815" y="760.5307978136769" width="84.18122961981716" height="159.71531012554544" fill="#004e89" opacity="0.544142764374647" rx="2"/><rect x="1097.0906100277577" y="770.5307978136769" width="7.861315975864724" height="7.202608637791735" fill="#f7c59f" opacity="0.17611368924288864" rx="1"/><rect x="1076.0453026228033" y="774.1321021325728" width="7.861315975864724" height="7.202608637791735" fill="#ff6b35" opacity="0.08805684462144432" rx="1"/><rect x="1096.673674027783" y="790.4952115793701" width="8.695187975814378" height="9.793830855701545" fill="#f7c59f" opacity="0.1034032023985412" rx="1"/><rect x="1075.6283666228285" y="795.3921270072209" width="8.695187975814378" height="9.793830855701545" fill="#ff6b35" opacity="0.0517016011992706" rx="1"/><rect x="1097.125122550396" y="810.4596253450633" width="7.792290930587866" height="8.335914484769086" fill="#f7c59f" opacity="0.25257546402341113" rx="1"/><rect x="1076.0798151454417" y="814.6275825874478" width="7.792290930587866" height="8.335914484769086" fill="#ff6b35" opacity="0.12628773201170557" rx="1"/><rect x="1096.7335587529353" y="830.4240391107564" width="8.575418525509402" height="9.519526149965712" fill="#f7c59f" opacity="0.4889456519132819" rx="1"/><rect x="1075.688251347981" y="835.1838021857393" width="8.575418525509402" height="9.519526149965712" fill="#ff6b35" opacity="0.24447282595664094" rx="1"/><rect x="1097.8555421034512" y="850.3884528764497" width="6.331451824477746" height="7.657561045525959" fill="#f7c59f" opacity="0.16267242367907253" rx="1"/><rect x="1076.8102346984967" y="854.2172333992127" width="6.331451824477746" height="7.657561045525959" fill="#ff6b35" opacity="0.08133621183953627" rx="1"/><rect x="1095.5361414701572" y="870.3528666421429" width="10.970253091065738" height="7.225967739994164" fill="#f7c59f" opacity="0.35709803629599" rx="1"/><rect x="1074.4908340652028" y="873.9658505121399" width="10.970253091065738" height="7.225967739994164" fill="#ff6b35" opacity="0.178549018147995" rx="1"/><rect x="1098.669368312575" y="890.317280407836" width="4.703799406230403" height="9.196739524415866" fill="#f7c59f" opacity="0.37329415066011584" rx="1"/><rect x="1077.6240609076206" y="894.9156501700439" width="4.703799406230403" height="9.196739524415866" fill="#ff6b35" opacity="0.18664707533005792" rx="1"/><rect x="1095.5566939982527" y="910.2816941735292" width="10.929148034874618" height="8.052746494778606" fill="#f7c59f" opacity="0.39928827013338175" rx="1"/><rect x="1074.5113865932983" y="914.3080674209185" width="10.929148034874618" height="8.052746494778606" fill="#ff6b35" opacity="0.19964413506669088" rx="1"/><rect x="1142.0989887220169" y="835.7612509945783" width="75.9181556119393" height="84.4848569446441" fill="#004e89" opacity="0.4436074347103963" rx="2"/><rect x="1177.050533247573" y="845.7612509945783" width="6.015066560826979" height="9.899659236869695" fill="#f7c59f" opacity="0.5387281857055445" rx="1"/><rect x="1158.0709943445881" y="850.7110806130131" width="6.015066560826979" height="9.899659236869695" fill="#ff6b35" opacity="0.26936409285277224" rx="1"/><rect x="1177.312989598594" y="862.6582223835071" width="5.490153858785088" height="8.83170567053177" fill="#f7c59f" opacity="0.5535635367393409" rx="1"/><rect x="1158.3334506956091" y="867.074075218773" width="5.490153858785088" height="8.83170567053177" fill="#ff6b35" opacity="0.27678176836967044" rx="1"/><rect x="1177.460871470649" y="879.5551937724359" width="5.194390114674901" height="6.650319735671002" fill="#f7c59f" opacity="0.43652110079688045" rx="1"/><rect x="1158.4813325676641" y="882.8803536402714" width="5.194390114674901" height="6.650319735671002" fill="#ff6b35" opacity="0.21826055039844022" rx="1"/><rect x="1177.2740784133575" y="896.4521651613647" width="5.5679762292578765" height="9.98459445498525" fill="#f7c59f" opacity="0.5057313323499941" rx="1"/><rect x="1158.2945395103727" y="901.4444623888573" width="5.5679762292578765" height="9.98459445498525" fill="#ff6b35" opacity="0.25286566617499706" rx="1"/><rect x="1174.7974056348748" y="913.3491365502936" width="10.521321786223286" height="8.649330228252646" fill="#f7c59f" opacity="0.5683197006742283" rx="1"/><rect x="1155.81786673189" y="917.6738016644199" width="10.521321786223286" height="8.649330228252646" fill="#ff6b35" opacity="0.28415985033711416" rx="1"/><rect x="1226.5382821909134" y="839.4048420222022" width="35.896105087803704" height="80.84126591702021" fill="#004e89" opacity="0.4423829181451311" rx="2"/><rect x="1239.4188280631492" y="849.4048420222022" width="10.135013343332105" height="9.757117157745435" fill="#f7c59f" opacity="0.2305777096726414" rx="1"/><rect x="1230.4448017911982" y="854.2834006010748" width="10.135013343332105" height="9.757117157745435" fill="#ff6b35" opacity="0.1152888548363207" rx="1"/><rect x="1239.8118638904452" y="860.9535942960622" width="9.348941688739913" height="7.96133477379599" fill="#f7c59f" opacity="0.32874929598270664" rx="1"/><rect x="1230.8378376184942" y="864.9342616829601" width="9.348941688739913" height="7.96133477379599" fill="#ff6b35" opacity="0.16437464799135332" rx="1"/><rect x="1240.5526100478617" y="872.5023465699222" width="7.867449373907281" height="9.037318931668374" fill="#f7c59f" opacity="0.14549710593314308" rx="1"/><rect x="1231.5785837759106" y="877.0210060357564" width="7.867449373907281" height="9.037318931668374" fill="#ff6b35" opacity="0.07274855296657154" rx="1"/><rect x="1242.1434922340786" y="884.0510988437823" width="4.685685001473335" height="9.502943572472535" fill="#f7c59f" opacity="0.5510834813004089" rx="1"/><rect x="1233.1694659621276" y="888.8025706300185" width="4.685685001473335" height="9.502943572472535" fill="#ff6b35" opacity="0.2755417406502044" rx="1"/><rect x="1239.3446093056814" y="895.5998511176423" width="10.283450858267827" height="7.825747548096289" fill="#f7c59f" opacity="0.12486706700289321" rx="1"/><rect x="1230.3705830337303" y="899.5127248916905" width="10.283450858267827" height="7.825747548096289" fill="#ff6b35" opacity="0.062433533501446606" rx="1"/><rect x="1238.778497304123" y="907.1486033915023" width="11.415674861384481" height="8.688657022707318" fill="#f7c59f" opacity="0.22312980010712746" rx="1"/><rect x="1229.804471032172" y="911.492931902856" width="11.415674861384481" height="8.688657022707318" fill="#ff6b35" opacity="0.11156490005356373" rx="1"/><rect x="1239.4355015293438" y="918.6973556653624" width="10.10166641094295" height="7.917061707451255" fill="#f7c59f" opacity="0.21729946979724324" rx="1"/><rect x="1230.4614752573927" y="922.655886519088" width="10.10166641094295" height="7.917061707451255" fill="#ff6b35" opacity="0.10864973489862162" rx="1"/><rect x="1317.8240636701455" y="692.8256098280721" width="50.60796329765766" height="227.42049811115035" fill="#00346f" opacity="0.6067571543638495" rx="2"/><rect x="1337.6722727264148" y="702.8256098280721" width="10.911545185118808" height="8.821207615272423" fill="#f7c59f" opacity="0.3896964930206762" rx="1"/><rect x="1325.0202819020005" y="707.2362136357083" width="10.911545185118808" height="8.821207615272423" fill="#ff6b35" opacity="0.1948482465103381" rx="1"/><rect x="1339.9494073652247" y="748.3097094503021" width="6.357275907499082" height="9.807844406880402" fill="#f7c59f" opacity="0.5349555473157567" rx="1"/><rect x="1327.2974165408104" y="753.2136316537423" width="6.357275907499082" height="9.807844406880402" fill="#ff6b35" opacity="0.26747777365787834" rx="1"/><rect x="1340.663489435086" y="793.7938090725322" width="4.929111767776569" height="6.627588438016266" fill="#f7c59f" opacity="0.35932468689496744" rx="1"/><rect x="1328.0114986106717" y="797.1076032915404" width="4.929111767776569" height="6.627588438016266" fill="#ff6b35" opacity="0.17966234344748372" rx="1"/><rect x="1339.6961062075497" y="839.2779086947622" width="6.863878222849191" height="7.415433689350131" fill="#f7c59f" opacity="0.426309569023156" rx="1"/><rect x="1327.0441153831355" y="842.9856255394373" width="6.863878222849191" height="7.415433689350131" fill="#ff6b35" opacity="0.213154784511578" rx="1"/><rect x="1338.6474206417147" y="884.7620083169924" width="8.961249354519241" height="7.0901345594530305" fill="#f7c59f" opacity="0.5803565730062212" rx="1"/><rect x="1325.9954298173004" y="888.3070755967188" width="8.961249354519241" height="7.0901345594530305" fill="#ff6b35" opacity="0.2901782865031106" rx="1"/><rect x="1413.6809325504053" y="558.9125972960406" width="87.28130615253032" height="361.33351064318174" fill="#004e89" opacity="0.6133700874665217" rx="2"/><rect x="1452.2289506304824" y="568.9125972960406" width="10.185269992376043" height="9.622836216265064" fill="#f7c59f" opacity="0.41379040547502" rx="1"/><rect x="1430.4086240923498" y="573.7240154041732" width="10.185269992376043" height="9.622836216265064" fill="#ff6b35" opacity="0.20689520273751" rx="1"/><rect x="1451.766482186005" y="689.3571008437679" width="11.110206881330862" height="7.0486959854719915" fill="#f7c59f" opacity="0.36040934172002814" rx="1"/><rect x="1429.9461556478725" y="692.8814488365039" width="11.110206881330862" height="7.0486959854719915" fill="#ff6b35" opacity="0.18020467086001407" rx="1"/><rect x="1454.1766892085477" y="809.8016043914952" width="6.289792836245567" height="6.539925125553255" fill="#f7c59f" opacity="0.4045482158904309" rx="1"/><rect x="1432.3563626704151" y="813.0715669542718" width="6.289792836245567" height="6.539925125553255" fill="#ff6b35" opacity="0.20227410794521544" rx="1"/><rect x="1487.5694487100648" y="643.3992474091704" width="68.28348717612295" height="276.846860530052" fill="#004e89" opacity="0.49741760687842446" rx="2"/><rect x="1518.7570189192577" y="653.3992474091704" width="5.908346757737069" height="6.83872093559213" fill="#f7c59f" opacity="0.5007083114471073" rx="1"/><rect x="1501.686147125227" y="656.8186078769664" width="5.908346757737069" height="6.83872093559213" fill="#ff6b35" opacity="0.25035415572355363" rx="1"/><rect x="1519.217131767684" y="708.7686195151807" width="4.988121060884586" height="6.067559907228583" fill="#f7c59f" opacity="0.5158629986727291" rx="1"/><rect x="1502.1462599736533" y="711.802399468795" width="4.988121060884586" height="6.067559907228583" fill="#ff6b35" opacity="0.25793149933636456" rx="1"/><rect x="1517.4742425753227" y="764.1379916211912" width="8.473899445606838" height="8.542390774596107" fill="#f7c59f" opacity="0.21912703295683653" rx="1"/><rect x="1500.403370781292" y="768.4091870084892" width="8.473899445606838" height="8.542390774596107" fill="#ff6b35" opacity="0.10956351647841826" rx="1"/><rect x="1517.6850043301454" y="819.5073637272016" width="8.05237593596158" height="6.826593937544756" fill="#f7c59f" opacity="0.2897691361815131" rx="1"/><rect x="1500.6141325361148" y="822.9206606959739" width="8.05237593596158" height="6.826593937544756" fill="#ff6b35" opacity="0.14488456809075656" rx="1"/><rect x="1518.8135276662003" y="874.876735833212" width="5.795329263851822" height="6.584875424528699" fill="#f7c59f" opacity="0.5766784129842832" rx="1"/><rect x="1501.7426558721697" y="878.1691735454764" width="5.795329263851822" height="6.584875424528699" fill="#ff6b35" opacity="0.2883392064921416" rx="1"/><rect x="1572.3678418121058" y="596.7346339362521" width="50.636482890843524" height="323.51147400297026" fill="#004e89" opacity="0.4983152186028462" rx="2"/><rect x="1592.3755755895058" y="606.7346339362521" width="10.621015336043438" height="9.08713801928962" fill="#f7c59f" opacity="0.17352736000286587" rx="1"/><rect x="1579.716454866795" y="611.2782029458969" width="10.621015336043438" height="9.08713801928962" fill="#ff6b35" opacity="0.08676368000143293" rx="1"/><rect x="1593.5405637350093" y="687.6125024369946" width="8.291039045036547" height="9.276816187258069" fill="#f7c59f" opacity="0.5691145836769405" rx="1"/><rect x="1580.8814430122984" y="692.2509105306236" width="8.291039045036547" height="9.276816187258069" fill="#ff6b35" opacity="0.2845572918384702" rx="1"/><rect x="1593.749224636582" y="768.4903709377372" width="7.8737172418911285" height="7.066741015079138" fill="#f7c59f" opacity="0.21718660677252027" rx="1"/><rect x="1581.0901039138712" y="772.0237414452768" width="7.8737172418911285" height="7.066741015079138" fill="#ff6b35" opacity="0.10859330338626014" rx="1"/><rect x="1594.988660047929" y="849.3682394384798" width="5.394846419197238" height="6.932402923920286" fill="#f7c59f" opacity="0.5167762436943073" rx="1"/><rect x="1582.329539325218" y="852.83444090044" width="5.394846419197238" height="6.932402923920286" fill="#ff6b35" opacity="0.25838812184715365" rx="1"/><rect x="1685.3633598773529" y="644.5865425268622" width="47.96519369305233" height="275.65956541236017" fill="#00346f" opacity="0.48044447395495243" rx="2"/><rect x="1704.6298684990443" y="654.5865425268622" width="9.432176449669566" height="9.201215233467803" fill="#f7c59f" opacity="0.27062715724358033" rx="1"/><rect x="1692.6385700757812" y="659.1871501435961" width="9.432176449669566" height="9.201215233467803" fill="#ff6b35" opacity="0.13531357862179016" rx="1"/><rect x="1706.7248671553727" y="723.5014338799523" width="5.2421791370124975" height="7.534458556569754" fill="#f7c59f" opacity="0.14543029401577784" rx="1"/><rect x="1694.7335687321097" y="727.2686631582371" width="5.2421791370124975" height="7.534458556569754" fill="#ff6b35" opacity="0.07271514700788892" rx="1"/><rect x="1704.5647598384205" y="792.4163252330422" width="9.562393770916945" height="9.307532870980802" fill="#f7c59f" opacity="0.4912898103919089" rx="1"/><rect x="1692.5734614151575" y="797.0700916685327" width="9.562393770916945" height="9.307532870980802" fill="#ff6b35" opacity="0.24564490519595444" rx="1"/><rect x="1706.4612756571748" y="861.3312165861323" width="5.769362133408283" height="8.912319162607268" fill="#f7c59f" opacity="0.2971244446926574" rx="1"/><rect x="1694.4699772339118" y="865.7873761674359" width="5.769362133408283" height="8.912319162607268" fill="#ff6b35" opacity="0.1485622223463287" rx="1"/><rect x="1752.050801301006" y="826.1786033111109" width="61.47942273679176" height="94.0675046281115" fill="#00346f" opacity="0.5429176116229308" rx="2"/><rect x="1777.5230956494079" y="836.1786033111109" width="10.534834039987725" height="8.807180717309746" fill="#f7c59f" opacity="0.22954486537015645" rx="1"/><rect x="1762.15323996521" y="840.5821936697658" width="10.534834039987725" height="8.807180717309746" fill="#ff6b35" opacity="0.11477243268507822" rx="1"/><rect x="1777.3309428726077" y="867.5344381871481" width="10.919139593587989" height="6.9549732284981225" fill="#f7c59f" opacity="0.507152536303539" rx="1"/><rect x="1761.96108718841" y="871.0119248013972" width="10.919139593587989" height="6.9549732284981225" fill="#ff6b35" opacity="0.2535762681517695" rx="1"/><rect x="1779.8064740433288" y="898.8902730631853" width="5.968077252145875" height="9.49577321472945" fill="#f7c59f" opacity="0.43609016270751366" rx="1"/><rect x="1764.436618359131" y="903.6381596705501" width="5.968077252145875" height="9.49577321472945" fill="#ff6b35" opacity="0.21804508135375683" rx="1"/><rect x="1861.8383774766746" y="690.8450723487989" width="32.17342486655652" height="229.4010355904235" fill="#004e89" opacity="0.49155716157787416" rx="2"/><rect x="1872.0828753153946" y="700.8450723487989" width="11.684429189116795" height="9.086648224640323" fill="#f7c59f" opacity="0.3627664792264733" rx="1"/><rect x="1864.0395190987554" y="705.3883964611191" width="11.684429189116795" height="9.086648224640323" fill="#ff6b35" opacity="0.18138323961323666" rx="1"/><rect x="1873.0984036788066" y="733.6166488617165" width="9.653372462292522" height="6.7842080045454685" fill="#f7c59f" opacity="0.584116139468764" rx="1"/><rect x="1865.0550474621673" y="737.0087528639892" width="9.653372462292522" height="6.7842080045454685" fill="#ff6b35" opacity="0.292058069734382" rx="1"/><rect x="1872.3374588949418" y="766.3882253746342" width="11.175262030022047" height="9.314585409898912" fill="#f7c59f" opacity="0.4846036715862816" rx="1"/><rect x="1864.2941026783026" y="771.0455180795836" width="11.175262030022047" height="9.314585409898912" fill="#ff6b35" opacity="0.2423018357931408" rx="1"/><rect x="1874.7112031364566" y="799.1598018875518" width="6.427773546992748" height="9.084347219924524" fill="#f7c59f" opacity="0.2917548964712198" rx="1"/><rect x="1866.6678469198173" y="803.701975497514" width="6.427773546992748" height="9.084347219924524" fill="#ff6b35" opacity="0.1458774482356099" rx="1"/><rect x="1875.4748166707943" y="831.9313784004695" width="4.9005464783172465" height="9.576106552867245" fill="#f7c59f" opacity="0.5169940138042425" rx="1"/><rect x="1867.431460454155" y="836.7194316769031" width="4.9005464783172465" height="9.576106552867245" fill="#ff6b35" opacity="0.25849700690212124" rx="1"/><rect x="1875.308072384561" y="864.7029549133871" width="5.23403505078378" height="6.293233632178333" fill="#f7c59f" opacity="0.13102705325722394" rx="1"/><rect x="1867.2647161679217" y="867.8495717294762" width="5.23403505078378" height="6.293233632178333" fill="#ff6b35" opacity="0.06551352662861197" rx="1"/><rect x="1875.7096345165958" y="897.4745314263048" width="4.4309107867141515" height="9.377789353806943" fill="#f7c59f" opacity="0.37278439811728536" rx="1"/><rect x="1867.6662782999565" y="902.1634261032083" width="4.4309107867141515" height="9.377789353806943" fill="#ff6b35" opacity="0.18639219905864268" rx="1"/><path d="M1256.481021190174 936.1311062323234 Q1268.1081694383424 821.2780338004878 1270.433599087976 706.4249613686522" stroke="#00013c" stroke-width="5.912425565047289" fill="none" stroke-linecap="round"/><path d="M1270.433599087976 706.4249613686522 Q1306.5985094845755 686.4249613686522 1306.2274014712839 706.4249613686522" stroke="#001b56" stroke-width="2.84480908579305" fill="none" stroke-linecap="round" opacity="0.6"/><path d="M1270.433599087976 706.4249613686522 Q1306.512722875947 694.4981568257333 1313.3546560230986 722.5713522828142" stroke="#001b56" stroke-width="3.5326991308323805" fill="none" stroke-linecap="round" opacity="0.6"/><path d="M1270.433599087976 706.4249613686522 Q1273.9759067302007 692.8821801793156 1260.6081453796878 719.3393989899789" stroke="#001b56" stroke-width="2.627498673421214" fill="none" stroke-linecap="round" opacity="0.6"/><path d="M1270.433599087976 706.4249613686522 Q1258.2236922640836 688.7163049286723 1238.7134395594435 711.0076484886923" stroke="#001b56" stroke-width="3.964808805371823" fill="none" stroke-linecap="round" opacity="0.6"/><path d="M1270.433599087976 706.4249613686522 Q1272.895813513552 684.1102860193118 1238.3904464944826 701.7956106699713" stroke="#001b56" stroke-width="2.025013464508814" fill="none" stroke-linecap="round" opacity="0.6"/><path d="M1270.433599087976 706.4249613686522 Q1280.7523187888323 676.3643535168445 1255.12514515082 686.3037456650368" stroke="#001b56" stroke-width="3.2379253802909345" fill="none" stroke-linecap="round" opacity="0.6"/><path d="M894.3623272176744 966.620224590092 Q898.034164681573 853.3900548711861 898.7685321743527 740.1598851522803" stroke="#00013c" stroke-width="4.344853231763666" fill="none" stroke-linecap="round"/><path d="M898.7685321743527 740.1598851522803 Q939.9454465075269 720.1598851522803 970.6303656880349 740.1598851522803" stroke="#001b56" stroke-width="3.857501632966451" fill="none" stroke-linecap="round" opacity="0.6"/><path d="M898.7685321743527 740.1598851522803 Q921.747003985218 728.2656181950342 941.8625748342264 756.3713512377881" stroke="#001b56" stroke-width="3.411628141862254" fill="none" stroke-linecap="round" opacity="0.6"/><path d="M898.7685321743527 740.1598851522803 Q894.0100267694722 727.6622188773206 887.3528074047687 755.1645526023609" stroke="#001b56" stroke-width="3.963004381852924" fill="none" stroke-linecap="round" opacity="0.6"/><path d="M898.7685321743527 740.1598851522803 Q873.6704984392363 725.1264035694126 830.0146537767146 750.0929219865448" stroke="#001b56" stroke-width="3.820113998330225" fill="none" stroke-linecap="round" opacity="0.6"/><path d="M898.7685321743527 740.1598851522803 Q872.1921042805089 715.8998478634612 839.7948083048279 731.6398105746422" stroke="#001b56" stroke-width="3.5001893666340482" fill="none" stroke-linecap="round" opacity="0.6"/><path d="M229.40150772905943 830.1676439424435 Q247.24685027898448 719.9274696223268 250.8159187889695 609.6872953022101" stroke="#00013c" stroke-width="7.431312958577488" fill="none" stroke-linecap="round"/><path d="M250.8159187889695 609.6872953022101 Q291.59432893050706 589.6872953022101 320.35144283071895 609.6872953022101" stroke="#001b56" stroke-width="3.9506399687264673" fill="none" stroke-linecap="round" opacity="0.6"/><path d="M250.8159187889695 609.6872953022101 Q280.76607711479977 594.4454467459839 276.1125798335156 619.2035981897575" stroke="#001b56" stroke-width="3.4629003269278678" fill="none" stroke-linecap="round" opacity="0.6"/><path d="M250.8159187889695 609.6872953022101 Q248.13434734972952 596.1099083682926 241.0431219831946 622.5325214343751" stroke="#001b56" stroke-width="3.4967400658635284" fill="none" stroke-linecap="round" opacity="0.6"/><path d="M250.8159187889695 609.6872953022101 Q224.66907159436673 594.6335289330982 182.3428523424035 619.5797625639864" stroke="#001b56" stroke-width="2.1172341634792353" fill="none" stroke-linecap="round" opacity="0.6"/><path d="M250.8159187889695 609.6872953022101 Q234.61071882780357 584.7995014979078 183.151862677854 599.9117076936056" stroke="#001b56" stroke-width="2.5466058632700252" fill="none" stroke-linecap="round" opacity="0.6"/><path d="M250.8159187889695 609.6872953022101 Q250.2643642187243 580.630210343105 237.03444852954996 591.5731253839998" stroke="#001b56" stroke-width="3.0813374433390184" fill="none" stroke-linecap="round" opacity="0.6"/><path d="M250.8159187889695 609.6872953022101 Q275.2144659890118 582.4017900214171 289.549229362267 595.1162847406242" stroke="#001b56" stroke-width="2.244949904327502" fill="none" stroke-linecap="round" opacity="0.6"/><path d="M483.0104663602566 869.0641072041038 Q491.33515083029283 799.6198343170387 493.00008772430004 730.1755614299735" stroke="#00013c" stroke-width="7.225495267479097" fill="none" stroke-linecap="round"/><path d="M493.00008772430004 730.1755614299735 Q530.0706796588075 710.1755614299735 553.786255980792 730.1755614299735" stroke="#001b56" stroke-width="2.9534371404334525" fill="none" stroke-linecap="round" opacity="0.6"/><path d="M493.00008772430004 730.1755614299735 Q505.3663782732989 713.8852881646575 512.7228100638738 737.5950148993414" stroke="#001b56" stroke-width="2.475401943660202" fill="none" stroke-linecap="round" opacity="0.6"/><path d="M493.00008772430004 730.1755614299735 Q490.84798859186395 719.4955067610001 478.818643034435 748.8154520920266" stroke="#001b56" stroke-width="3.587479119093036" fill="none" stroke-linecap="round" opacity="0.6"/><path d="M493.00008772430004 730.1755614299735 Q464.6689380965193 715.0215773785548 425.9143823552352 739.867593327136" stroke="#001b56" stroke-width="2.947195359726249" fill="none" stroke-linecap="round" opacity="0.6"/><path d="M493.00008772430004 730.1755614299735 Q477.31154437035366 706.254639437112 438.72089830784626 722.3337174442504" stroke="#001b56" stroke-width="3.3898840433428727" fill="none" stroke-linecap="round" opacity="0.6"/><path d="M493.00008772430004 730.1755614299735 Q498.40978302614815 704.3011996987786 484.06152284861696 718.4268379675837" stroke="#001b56" stroke-width="3.969901632044907" fill="none" stroke-linecap="round" opacity="0.6"/><path d="M493.00008772430004 730.1755614299735 Q516.1620493471953 705.0480331964386 520.2605365042157 719.9205049629036" stroke="#001b56" stroke-width="2.023681666707546" fill="none" stroke-linecap="round" opacity="0.6"/><rect x="0" y="1000" width="1920" height="80" fill="#002863" opacity="0.8"/><line x1="0" y1="1040" x2="1920" y2="1040" stroke="#f7c59f" stroke-opacity="0.15" stroke-width="2" stroke-dasharray="30,20"/><rect x="0" y="930" width="1920" height="150" fill="url(#glow61)"/><rect x="0" y="980" width="1920" height="100" fill="#f7c59f" opacity="0.04"/><rect x="1340.493115200776" y="1024.4325693055132" width="68.81204346865695" height="2" fill="#ff6b35" opacity="0.03751318535243934" rx="1"/><rect x="1735.532491611208" y="1048.642945785225" width="119.80634176167807" height="2" fill="#ff6b35" opacity="0.0599316485505392" rx="1"/><rect x="1881.9896842450812" y="1026.9472178181045" width="77.77679201163743" height="2" fill="#ff6b35" opacity="0.05965109898700638" rx="1"/><rect x="137.65462520943362" y="1037.7008349629355" width="26.364903181410604" height="2" fill="#ff6b35" opacity="0.04135668165547696" rx="1"/><rect x="693.2053856675525" y="1040.19612784502" width="24.16636134129166" height="2" fill="#ff6b35" opacity="0.031095530560960885" rx="1"/><rect x="606.4546695273497" y="1001.4476326018217" width="77.22893966763023" height="2" fill="#ff6b35" opacity="0.0346899626531382" rx="1"/><rect x="1881.414973577814" y="1027.0287642784017" width="73.86347597322042" height="2" fill="#ff6b35" opacity="0.059217030601393675" rx="1"/><rect x="472.0716128852385" y="1000.7053882816587" width="102.16789473829975" height="2" fill="#ff6b35" opacity="0.03976900464384095" rx="1"/><rect x="1528.0507577043145" y="1033.570069743686" width="31.984702970829026" height="2" fill="#ff6b35" opacity="0.05473033510957154" rx="1"/><rect x="667.8796033626141" y="1054.9119498010054" width="60.784472772102916" height="2" fill="#ff6b35" opacity="0.04942859100863072" rx="1"/><rect x="874.2210354456262" y="1029.0462178525156" width="24.436433572423745" height="2" fill="#ff6b35" opacity="0.03043178752307589" rx="1"/><rect x="431.46616111310806" y="1041.9643303011462" width="35.3277982294857" height="2" fill="#ff6b35" opacity="0.027503335095826382" rx="1"/><rect x="1344.1005249470707" y="1049.4937353044502" width="49.869862955498945" height="2" fill="#ff6b35" opacity="0.03685433711317702" rx="1"/><rect x="56.93316982521983" y="1059.5449829100503" width="58.179907374591544" height="2" fill="#ff6b35" opacity="0.022030778015505237" rx="1"/><rect x="655.0208506023095" y="1007.5110770779455" width="31.063779008356804" height="2" fill="#ff6b35" opacity="0.02716880808751304" rx="1"/><rect x="1271.9920839350652" y="1043.1799253223417" width="53.97685881563855" height="2" fill="#ff6b35" opacity="0.030166079711673337" rx="1"/><rect x="484.92340978349637" y="1013.1666300103922" width="116.88905358707743" height="2" fill="#ff6b35" opacity="0.04656220941491476" rx="1"/><rect x="654.2533628675745" y="1022.3802689887538" width="60.10290131906581" height="2" fill="#ff6b35" opacity="0.0409139233876285" rx="1"/><rect x="532.778304343293" y="1036.7299056418076" width="60.82078909054883" height="2" fill="#ff6b35" opacity="0.022759156590970036" rx="1"/><rect x="1878.4752939544794" y="1006.9574839032622" width="76.19836304248273" height="2" fill="#ff6b35" opacity="0.046483513756302074" rx="1"/><rect x="427.5425712269597" y="1005.6707526477219" width="23.63109929105991" height="2" fill="#ff6b35" opacity="0.028176712013822214" rx="1"/><rect x="1815.7752249892278" y="1013.6396301103848" width="36.76478253602161" height="2" fill="#ff6b35" opacity="0.05300484204501958" rx="1"/><rect x="1085.5263137364589" y="1028.8061436612172" width="100.29157982214623" height="2" fill="#ff6b35" opacity="0.024408424227593567" rx="1"/><rect x="622.4105757433946" y="1037.7802624781104" width="54.1058222423554" height="2" fill="#ff6b35" opacity="0.05158264009086011" rx="1"/><rect x="1312.4808707908915" y="1023.1864538190855" width="99.1541151886699" height="2" fill="#ff6b35" opacity="0.04743913337295855" rx="1"/><rect x="1398.3875820316346" y="1054.6641825872157" width="112.1959809009442" height="2" fill="#ff6b35" opacity="0.04223393840301641" rx="1"/><rect x="45.28633521061538" y="1020.423685466038" width="87.98969187494127" height="2" fill="#ff6b35" opacity="0.03763681945801639" rx="1"/><rect x="1573.65115768594" y="1046.959475876521" width="28.332456766705135" height="2" fill="#ff6b35" opacity="0.04625900009327079" rx="1"/><rect x="632.1877206843783" y="1027.7190446405948" width="40.007700780408385" height="2" fill="#ff6b35" opacity="0.021042627394442126" rx="1"/><rect x="11.40153944757803" y="1008.936255804481" width="34.12070033003592" height="2" fill="#ff6b35" opacity="0.028140786422449347" rx="1"/><text x="1900" y="1060" font-family="Arial, sans-serif" font-size="11" fill="#fff" opacity="0.08" text-anchor="end" letter-spacing="2">GTA 6 REWARDS · WALLPAPER 062</text>
</svg>