<?xml version="1.0" encoding="UTF-8"?>
<svg xmlns="http://www.w3.org/2000/svg" width="1920" height="1080" viewBox="0 0 1920 1080">
<defs>
    <linearGradient id="bg72" x1="0%" y1="0%" x2="0%" y2="100%">
      <stop offset="0%" stop-color="#3a0ca3"/>
      <stop offset="50%" stop-color="#070070"/>
      <stop offset="100%" stop-color="#3a0ca3"/>
    </linearGradient>
    <linearGradient id="sun72" x1="0%" y1="0%" x2="100%" y2="100%">
      <stop offset="0%" stop-color="#f72585"/>
      <stop offset="100%" stop-color="#b5179e"/>
    </linearGradient>
    <radialGradient id="glow72" cx="50%" cy="70%" r="50%">
      <stop offset="0%" stop-color="#f72585" stop-opacity="0.3"/>
      <stop offset="100%" stop-color="#3a0ca3" stop-opacity="0"/>
    </radialGradient>
  </defs><rect width="1920" height="1080" fill="url(#bg72)"/><circle cx="484.8915221600075" cy="308.3078145301686" r="636.3635713784871" fill="#f72585" opacity="0.05702755095135131"/><circle cx="684.8915221600075" cy="208.30781453016863" r="466.3536439338591" fill="#b5179e" opacity="0.11637170035074737"/><line x1="0" y1="980" x2="1920" y2="980" stroke="#b5179e" stroke-opacity="0.05" stroke-width="2"/><line x1="0" y1="935" x2="1920" y2="935" stroke="#b5179e" stroke-opacity="0.049" stroke-width="0.5"/><line x1="0" y1="890" x2="1920" y2="890" stroke="#b5179e" stroke-opacity="0.048" stroke-width="0.5"/><line x1="0" y1="845" x2="1920" y2="845" stroke="#b5179e" stroke-opacity="0.047" stroke-width="0.5"/><line x1="0" y1="800" x2="1920" y2="800" stroke="#b5179e" stroke-opacity="0.046" stroke-width="0.5"/><line x1="0" y1="755" x2="1920" y2="755" stroke="#b5179e" stroke-opacity="0.045" stroke-width="0.5"/><line x1="0" y1="710" x2="1920" y2="710" stroke="#b5179e" stroke-opacity="0.044" stroke-width="0.5"/><line x1="0" y1="665" x2="1920" y2="665" stroke="#b5179e" stroke-opacity="0.043" stroke-width="0.5"/><line x1="0" y1="620" x2="1920" y2="620" stroke="#b5179e" stroke-opacity="0.041999999999999996" stroke-width="0.5"/><line x1="0" y1="575" x2="1920" y2="575" stroke="#b5179e" stroke-opacity="0.041" stroke-width="0.5"/><line x1="0" y1="530" x2="1920" y2="530" stroke="#b5179e" stroke-opacity="0.04" stroke-width="0.5"/><line x1="0" y1="485" x2="1920" y2="485" stroke="#b5179e" stroke-opacity="0.039" stroke-width="0.5"/><line x1="0" y1="440" x2="1920" y2="440" stroke="#b5179e" stroke-opacity="0.038" stroke-width="0.5"/><line x1="0" y1="395" x2="1920" y2="395" stroke="#b5179e" stroke-opacity="0.037" stroke-width="0.5"/><line x1="0" y1="350" x2="1920" y2="350" stroke="#b5179e" stroke-opacity="0.036" stroke-width="0.5"/><line x1="0" y1="305" x2="1920" y2="305" stroke="#b5179e" stroke-opacity="0.034999999999999996" stroke-width="0.5"/><line x1="0" y1="260" x2="1920" y2="260" stroke="#b5179e" stroke-opacity="0.033999999999999996" stroke-width="0.5"/><line x1="0" y1="215" x2="1920" y2="215" stroke="#b5179e" stroke-opacity="0.033" stroke-width="0.5"/><line x1="0" y1="170" x2="1920" y2="170" stroke="#b5179e" stroke-opacity="0.032" stroke-width="0.5"/><line x1="0" y1="125" x2="1920" y2="125" stroke="#b5179e" stroke-opacity="0.031" stroke-width="0.5"/><line x1="560" y1="1080" x2="860" y2="580" stroke="#f72585" stroke-opacity="0.04" stroke-width="1"/><line x1="640" y1="1080" x2="880" y2="590" stroke="#f72585" stroke-opacity="0.04" stroke-width="1"/><line x1="720" y1="1080" x2="900" y2="600" stroke="#f72585" stroke-opacity="0.04" stroke-width="1"/><line x1="800" y1="1080" x2="920" y2="610" stroke="#f72585" stroke-opacity="0.04" stroke-width="1"/><line x1="880" y1="1080" x2="940" y2="620" stroke="#f72585" stroke-opacity="0.04" stroke-width="1"/><line x1="960" y1="1080" x2="960" y2="630" stroke="#f72585" stroke-opacity="0.04" stroke-width="1"/><line x1="1040" y1="1080" x2="980" y2="620" stroke="#f72585" stroke-opacity="0.04" stroke-width="1"/><line x1="1120" y1="1080" x2="1000" y2="610" stroke="#f72585" stroke-opacity="0.04" stroke-width="1"/><line x1="1200" y1="1080" x2="1020" y2="600" stroke="#f72585" stroke-opacity="0.04" stroke-width="1"/><line x1="1280" y1="1080" x2="1040" y2="590" stroke="#f72585" stroke-opacity="0.04" stroke-width="1"/><line x1="1360" y1="1080" x2="1060" y2="580" stroke="#f72585" stroke-opacity="0.04" stroke-width="1"/><circle cx="1292.7896101476601" cy="248.17036262205113" r="96.48382802412003" fill="url(#sun72)" opacity="0.7708167693509759"/><circle cx="1292.7896101476601" cy="248.17036262205113" r="91.48382802412003" fill="#3a0ca3" opacity="0.3"/><circle cx="1283.8031072923454" cy="54.30309171003827" r="1.2209964603467371" fill="#fff" opacity="0.490442513183328"/><circle cx="1397.3568855499282" cy="276.6775384779734" r="1.1427565043891679" fill="#fff" opacity="0.3045951404386654"/><circle cx="1180.1539280778156" cy="92.28798858362435" r="1.448157006513364" fill="#fff" opacity="0.20533264251550024"/><circle cx="394.2768427157488" cy="83.63620298067951" r="1.6727722403995626" fill="#fff" opacity="0.7220973017909791"/><circle cx="1825.4981012422354" cy="147.5894157559586" r="0.7247217179333609" fill="#fff" opacity="0.5367118571271914"/><circle cx="33.37554485382874" cy="167.3650584461552" r="0.9347611567784941" fill="#fff" opacity="0.77868179757583"/><circle cx="0.8348840477026264" cy="325.4597126369969" r="1.6308308114835133" fill="#fff" opacity="0.6040121064996375"/><circle cx="1842.6424647687568" cy="270.5188545208701" r="1.467928311663663" fill="#fff" opacity="0.7268224748146772"/><circle cx="679.4818547459976" cy="412.5318657002719" r="1.513720654070778" fill="#fff" opacity="0.6391289753930478"/><circle cx="1383.909440660828" cy="281.28628113337004" r="1.7273276261350436" fill="#fff" opacity="0.5934578735831795"/><circle cx="1132.893799062095" cy="270.95618145888585" r="1.6457866168687554" fill="#fff" opacity="0.35069428578733797"/><circle cx="1622.736485680271" cy="22.338642267123483" r="0.9827989813598802" fill="#fff" opacity="0.7566851375058026"/><circle cx="637.1419087045691" cy="393.3003268785077" r="1.9879534948822002" fill="#fff" opacity="0.2864233148951138"/><circle cx="387.1356190152316" cy="163.18216461762373" r="0.6749270132684444" fill="#fff" opacity="0.269026207008638"/><circle cx="1347.384806291057" cy="407.3274507576897" r="1.8250522100890643" fill="#fff" opacity="0.2412095566841796"/><circle cx="1753.4128219991485" cy="279.71136028499143" r="1.628103798750812" fill="#fff" opacity="0.4313652771132452"/><circle cx="1322.2425527969008" cy="56.12173845435533" r="1.6220300125707943" fill="#fff" opacity="0.7924320532457045"/><circle cx="164.06353671198326" cy="112.26534633344629" r="1.8286744666585406" fill="#fff" opacity="0.3590478343793768"/><circle cx="319.3443641810083" cy="269.0101476565493" r="1.0790404881301896" fill="#fff" opacity="0.44010777884165475"/><circle cx="1067.6674606901752" cy="364.0197072764904" r="0.9392184848988472" fill="#fff" opacity="0.590361198175317"/><circle cx="1174.8728105181065" cy="287.0091820990222" r="1.7040953601720032" fill="#fff" opacity="0.5808370743367908"/><circle cx="1520.5690056645706" cy="140.71585828734464" r="0.511856737083722" fill="#fff" opacity="0.7864521533219264"/><circle cx="269.73074651084164" cy="302.53468781303025" r="0.7932371166053315" fill="#fff" opacity="0.20610040528841794"/><circle cx="1605.4514827591952" cy="395.7708664861905" r="1.0768345056746236" fill="#fff" opacity="0.271281187066641"/><circle cx="679.293349096387" cy="101.53111698607242" r="1.5589923807557189" fill="#fff" opacity="0.2657255384292746"/><circle cx="316.69830016714945" cy="273.1878028291249" r="0.6503634489258666" fill="#fff" opacity="0.5370565673655496"/><circle cx="1868.0263937888728" cy="357.71158287062116" r="1.8085953123654694" fill="#fff" opacity="0.44149042210576367"/><circle cx="360.3198856954277" cy="175.118545964155" r="1.3953811354924417" fill="#fff" opacity="0.2826393760933167"/><circle cx="650.297561886324" cy="127.00421046814981" r="1.8613911623510977" fill="#fff" opacity="0.4705628259737424"/><circle cx="1561.7585290134323" cy="7.750806381867921" r="1.8343928301088495" fill="#fff" opacity="0.29782674650145385"/><circle cx="1632.964864902423" cy="314.08516137536736" r="1.7718204683092935" fill="#fff" opacity="0.5843079172038259"/><circle cx="1841.3361677344274" cy="194.65004584254933" r="1.5992559269301723" fill="#fff" opacity="0.7274425294546976"/><circle cx="267.1371634926501" cy="189.18924162471416" r="0.6369504051136203" fill="#fff" opacity="0.21850772193132614"/><circle cx="667.0258803728562" cy="74.79676591111271" r="0.9864947639839945" fill="#fff" opacity="0.500480091315806"/><rect x="7.381690004230871" y="610.4669750692478" width="74.17171988267725" height="334.30854525284576" fill="#200089" opacity="0.48283338355432115" rx="2"/><rect x="42.01762239099891" y="620.4669750692478" width="4.899855109141175" height="8.137974642714944" fill="#b5179e" opacity="0.5590131473864925" rx="1"/><rect x="23.474692420329596" y="624.5359623906053" width="4.899855109141175" height="8.137974642714944" fill="#f72585" opacity="0.2795065736932463" rx="1"/><rect x="38.83622315289365" y="676.1850659447222" width="11.26265358535169" height="8.582814909187801" fill="#b5179e" opacity="0.4110508436362843" rx="1"/><rect x="20.29329318222434" y="680.4764733993161" width="11.26265358535169" height="8.582814909187801" fill="#f72585" opacity="0.20552542181814215" rx="1"/><rect x="42.11504054095481" y="731.9031568201964" width="4.705018809229372" height="9.393618225910146" fill="#b5179e" opacity="0.16140995807047234" rx="1"/><rect x="23.572110570285496" y="736.5999659331515" width="4.705018809229372" height="9.393618225910146" fill="#f72585" opacity="0.08070497903523617" rx="1"/><rect x="41.44375337111851" y="787.6212476956707" width="6.047593148901964" height="8.76943694305826" fill="#b5179e" opacity="0.5748208242177081" rx="1"/><rect x="22.900823400449198" y="792.0059661671999" width="6.047593148901964" height="8.76943694305826" fill="#f72585" opacity="0.28741041210885404" rx="1"/><rect x="42.32994510730029" y="843.339338571145" width="4.27520967653841" height="7.376249309018313" fill="#b5179e" opacity="0.12826759545790675" rx="1"/><rect x="23.787015136630977" y="847.0274632256542" width="4.27520967653841" height="7.376249309018313" fill="#f72585" opacity="0.06413379772895338" rx="1"/><rect x="39.55296565931127" y="899.0574294466194" width="9.829168572516453" height="8.349414436693632" fill="#b5179e" opacity="0.2570386259483729" rx="1"/><rect x="21.010035688641956" y="903.2321366649662" width="9.829168572516453" height="8.349414436693632" fill="#f72585" opacity="0.12851931297418645" rx="1"/><rect x="121.62560299542398" y="565.0597681908541" width="70.43142467281581" height="379.71575213123947" fill="#3a0ca3" opacity="0.638796652489993" rx="2"/><rect x="151.34055079341414" y="575.0597681908541" width="11.001529076835496" height="9.811573069498774" fill="#b5179e" opacity="0.12591273154269736" rx="1"/><rect x="133.73269462521017" y="579.9655547256035" width="11.001529076835496" height="9.811573069498774" fill="#f72585" opacity="0.06295636577134868" rx="1"/><rect x="154.26471337286398" y="638.3457268793941" width="5.153203917935771" height="9.190512538699087" fill="#b5179e" opacity="0.44691281019405293" rx="1"/><rect x="136.65685720466" y="642.9409831487436" width="5.153203917935771" height="9.190512538699087" fill="#f72585" opacity="0.22345640509702647" rx="1"/><rect x="153.3005991071231" y="701.6316855679339" width="7.081432449417522" height="6.446040139637431" fill="#b5179e" opacity="0.5401446608687157" rx="1"/><rect x="135.69274293891914" y="704.8547056377527" width="7.081432449417522" height="6.446040139637431" fill="#f72585" opacity="0.27007233043435785" rx="1"/><rect x="152.04839277012468" y="764.9176442564739" width="9.58584512341438" height="8.3828620934819" fill="#b5179e" opacity="0.41689059299344444" rx="1"/><rect x="134.4405366019207" y="769.1090753032148" width="9.58584512341438" height="8.3828620934819" fill="#f72585" opacity="0.20844529649672222" rx="1"/><rect x="153.57688977722472" y="828.2036029450138" width="6.528851109214325" height="9.49717428616648" fill="#b5179e" opacity="0.5447729477995944" rx="1"/><rect x="135.96903360902076" y="832.952190088097" width="6.528851109214325" height="9.49717428616648" fill="#f72585" opacity="0.2723864738997972" rx="1"/><rect x="153.82575663617482" y="891.4895616335536" width="6.031117391314152" height="8.888696093784807" fill="#b5179e" opacity="0.24592939863119495" rx="1"/><rect x="136.21790046797085" y="895.933909680446" width="6.031117391314152" height="8.888696093784807" fill="#f72585" opacity="0.12296469931559748" rx="1"/><rect x="265.3415121546345" y="733.5541226979237" width="46.154593726656074" height="211.2213976241698" fill="#3a0ca3" opacity="0.5344402325652633" rx="2"/><rect x="284.6013099387292" y="743.5541226979237" width="7.634998158466769" height="9.599669145326985" fill="#b5179e" opacity="0.5762149358811357" rx="1"/><rect x="273.0626615070651" y="748.3539572705872" width="7.634998158466769" height="9.599669145326985" fill="#f72585" opacity="0.28810746794056785" rx="1"/><rect x="284.375795820117" y="785.7984022227577" width="8.0860263956911" height="6.37832145308571" fill="#b5179e" opacity="0.23601269692555366" rx="1"/><rect x="272.83714738845293" y="788.9875629493005" width="8.0860263956911" height="6.37832145308571" fill="#f72585" opacity="0.11800634846277683" rx="1"/><rect x="286.14299901461766" y="828.0426817475917" width="4.5516200066897134" height="7.376606563426695" fill="#b5179e" opacity="0.4468714963753875" rx="1"/><rect x="274.6043505829536" y="831.7309850293051" width="4.5516200066897134" height="7.376606563426695" fill="#f72585" opacity="0.22343574818769374" rx="1"/><rect x="282.61423338847567" y="870.2869612724256" width="11.609151258973672" height="9.831984727604311" fill="#b5179e" opacity="0.2974257762072202" rx="1"/><rect x="271.0755849568116" y="875.2029536362278" width="11.609151258973672" height="9.831984727604311" fill="#f72585" opacity="0.1487128881036101" rx="1"/><rect x="284.63394765314507" y="912.5312407972596" width="7.569722729634895" height="9.145618321175132" fill="#b5179e" opacity="0.11471724873751338" rx="1"/><rect x="273.095299221481" y="917.1040499578471" width="7.569722729634895" height="9.145618321175132" fill="#f72585" opacity="0.05735862436875669" rx="1"/><rect x="379.739125906429" y="693.1676026184967" width="70.16180921815378" height="251.60791770359685" fill="#3a0ca3" opacity="0.4971558697980726" rx="2"/><rect x="411.42817043895553" y="703.1676026184967" width="6.783720153100724" height="6.111311028737415" fill="#b5179e" opacity="0.2742495113690965" rx="1"/><rect x="393.8877181344171" y="706.2232581328655" width="6.783720153100724" height="6.111311028737415" fill="#f72585" opacity="0.13712475568454824" rx="1"/><rect x="409.81612260518966" y="745.1022555690962" width="10.007815820632459" height="8.84703234276898" fill="#b5179e" opacity="0.18958724713641856" rx="1"/><rect x="392.27567030065126" y="749.5257717404806" width="10.007815820632459" height="8.84703234276898" fill="#f72585" opacity="0.09479362356820928" rx="1"/><rect x="412.4568381117323" y="787.0369085196957" width="4.726384807547178" height="6.424605015764154" fill="#b5179e" opacity="0.5810312021246719" rx="1"/><rect x="394.9163858071939" y="790.2492110275778" width="4.726384807547178" height="6.424605015764154" fill="#f72585" opacity="0.2905156010623359" rx="1"/><rect x="411.38948813369245" y="828.9715614702952" width="6.86108476362682" height="7.73416099365199" fill="#b5179e" opacity="0.21204688928836185" rx="1"/><rect x="393.8490358291541" y="832.8386419671212" width="6.86108476362682" height="7.73416099365199" fill="#f72585" opacity="0.10602344464418093" rx="1"/><rect x="411.3701196779427" y="870.9062144208947" width="6.899821675126399" height="6.585784463348283" fill="#b5179e" opacity="0.38265465918990194" rx="1"/><rect x="393.8296673734043" y="874.1991066525688" width="6.899821675126399" height="6.585784463348283" fill="#f72585" opacity="0.19132732959495097" rx="1"/><rect x="412.6554240774492" y="912.8408673714941" width="4.329212876113414" height="9.540873113912733" fill="#b5179e" opacity="0.11234110794317469" rx="1"/><rect x="395.1149717729108" y="917.6113039284505" width="4.329212876113414" height="9.540873113912733" fill="#f72585" opacity="0.05617055397158734" rx="1"/><rect x="509.9940296891132" y="836.4936316238003" width="31.581018143701606" height="108.28188869829333" fill="#3a0ca3" opacity="0.43087183649904837" rx="2"/><rect x="520.5886846011479" y="846.4936316238003" width="10.391708319632269" height="6.828652171611006" fill="#b5179e" opacity="0.2793401992598875" rx="1"/><rect x="512.6934300652224" y="849.9079577096059" width="10.391708319632269" height="6.828652171611006" fill="#f72585" opacity="0.13967009962994376" rx="1"/><rect x="522.2883392682505" y="873.5641037983736" width="6.992398985426966" height="9.50585014082162" fill="#b5179e" opacity="0.2903405248164992" rx="1"/><rect x="514.3930847323251" y="878.3170288687844" width="6.992398985426966" height="9.50585014082162" fill="#f72585" opacity="0.1451702624082496" rx="1"/><rect x="523.2430952536508" y="900.634575972947" width="5.082887014626266" height="6.263345040442269" fill="#b5179e" opacity="0.2824975605547655" rx="1"/><rect x="515.3478407177254" y="903.7662484931682" width="5.082887014626266" height="6.263345040442269" fill="#f72585" opacity="0.14124878027738275" rx="1"/><rect x="522.4971822350046" y="927.7050481475203" width="6.574713051918595" height="8.916905822911511" fill="#b5179e" opacity="0.23275520425121188" rx="1"/><rect x="514.6019276990792" y="932.1635010589761" width="6.574713051918595" height="8.916905822911511" fill="#f72585" opacity="0.11637760212560594" rx="1"/><rect x="601.3919348133244" y="808.5046784972084" width="38.57322845341946" height="136.2708418248852" fill="#200089" opacity="0.4596058281510151" rx="2"/><rect x="616.260392254512" y="818.5046784972084" width="8.836313571044318" height="9.737760077169575" fill="#b5179e" opacity="0.3095123854720761" rx="1"/><rect x="606.6170851411571" y="823.3735585357931" width="8.836313571044318" height="9.737760077169575" fill="#f72585" opacity="0.15475619273603805" rx="1"/><rect x="617.2943502995871" y="837.9719416150491" width="6.768397480893973" height="6.2733547390143745" fill="#b5179e" opacity="0.2163059474472669" rx="1"/><rect x="607.6510431862322" y="841.1086189845563" width="6.768397480893973" height="6.2733547390143745" fill="#f72585" opacity="0.10815297372363344" rx="1"/><rect x="617.4588707896087" y="857.4392047328898" width="6.43935650085084" height="7.780927631487355" fill="#b5179e" opacity="0.24218006286355204" rx="1"/><rect x="607.8155636762538" y="861.3296685486335" width="6.43935650085084" height="7.780927631487355" fill="#f72585" opacity="0.12109003143177602" rx="1"/><rect x="616.1353095390683" y="876.9064678507306" width="9.086479001931492" height="9.68827346332564" fill="#b5179e" opacity="0.47728035970993354" rx="1"/><rect x="606.4920024257134" y="881.7506045823934" width="9.086479001931492" height="9.68827346332564" fill="#f72585" opacity="0.23864017985496677" rx="1"/><rect x="618.5426847542503" y="896.3737309685713" width="4.271728571567621" height="7.165162221799875" fill="#b5179e" opacity="0.5556739776059226" rx="1"/><rect x="608.8993776408954" y="899.9563120794712" width="4.271728571567621" height="7.165162221799875" fill="#f72585" opacity="0.2778369888029613" rx="1"/><rect x="616.4089585946429" y="915.8409940864121" width="8.539180890782546" height="9.820036567705692" fill="#b5179e" opacity="0.43731294698950673" rx="1"/><rect x="606.7656514812879" y="920.751012370265" width="8.539180890782546" height="9.820036567705692" fill="#f72585" opacity="0.21865647349475337" rx="1"/><rect x="617.4202682884458" y="935.3082572042529" width="6.516561503176709" height="7.397445490909146" fill="#b5179e" opacity="0.5084001469678245" rx="1"/><rect x="607.7769611750908" y="939.0069799497074" width="6.516561503176709" height="7.397445490909146" fill="#f72585" opacity="0.25420007348391227" rx="1"/><rect x="749.8185416380452" y="772.3484581504829" width="76.18154783877114" height="172.42706217161077" fill="#3a0ca3" opacity="0.4137345606958807" rx="2"/><rect x="783.8831674183912" y="782.3484581504829" width="8.052296278079108" height="9.540706093316132" fill="#b5179e" opacity="0.44661263549854346" rx="1"/><rect x="764.8377804586984" y="787.118811197141" width="8.052296278079108" height="9.540706093316132" fill="#f72585" opacity="0.22330631774927173" rx="1"/><rect x="784.5900722582801" y="839.8241455410198" width="6.638486598301327" height="9.921287891436668" fill="#b5179e" opacity="0.1889282411869914" rx="1"/><rect x="765.5446852985873" y="844.7847894867381" width="6.638486598301327" height="9.921287891436668" fill="#f72585" opacity="0.0944641205934957" rx="1"/><rect x="782.4382127452265" y="897.2998329315567" width="10.942205624408603" height="6.950963514147085" fill="#b5179e" opacity="0.41826153358404095" rx="1"/><rect x="763.3928257855337" y="900.7753146886303" width="10.942205624408603" height="6.950963514147085" fill="#f72585" opacity="0.20913076679202047" rx="1"/><rect x="857.1339967188271" y="783.4088986468056" width="53.74650368554204" height="161.366621675288" fill="#200089" opacity="0.5553505481815316" rx="2"/><rect x="879.2369724838613" y="793.4088986468056" width="9.5405521554734" height="7.182605690598163" fill="#b5179e" opacity="0.33568879760235754" rx="1"/><rect x="865.8003465624759" y="797.0002014921047" width="9.5405521554734" height="7.182605690598163" fill="#f72585" opacity="0.16784439880117877" rx="1"/><rect x="880.0907893164759" y="833.7505540656276" width="7.832918490244289" height="8.832945316758227" fill="#b5179e" opacity="0.11171306916785266" rx="1"/><rect x="866.6541633950904" y="838.1670267240067" width="7.832918490244289" height="8.832945316758227" fill="#f72585" opacity="0.05585653458392633" rx="1"/><rect x="879.2114552278563" y="874.0922094844495" width="9.591586667483575" height="7.099407333205316" fill="#b5179e" opacity="0.5378094174754362" rx="1"/><rect x="865.7748293064708" y="877.6419131510522" width="9.591586667483575" height="7.099407333205316" fill="#f72585" opacity="0.2689047087377181" rx="1"/><rect x="880.2348229608579" y="914.4338649032716" width="7.544851201480453" height="6.548548018687533" fill="#b5179e" opacity="0.4503614124726414" rx="1"/><rect x="866.7981970394724" y="917.7081389126154" width="7.544851201480453" height="6.548548018687533" fill="#f72585" opacity="0.2251807062363207" rx="1"/><rect x="985.9939345614971" y="782.4328449513839" width="56.712948765306024" height="162.34267537070966" fill="#3a0ca3" opacity="0.5793885345057093" rx="2"/><rect x="1011.7504719492864" y="792.4328449513839" width="5.199873989727319" height="7.78607068811219" fill="#b5179e" opacity="0.3973502580535948" rx="1"/><rect x="997.5722347579599" y="796.32588029544" width="5.199873989727319" height="7.78607068811219" fill="#f72585" opacity="0.1986751290267974" rx="1"/><rect x="1009.8192716885403" y="815.6246557186281" width="9.062274511219531" height="6.899363320530244" fill="#b5179e" opacity="0.3636975765376579" rx="1"/><rect x="995.6410344972138" y="819.0743373788932" width="9.062274511219531" height="6.899363320530244" fill="#f72585" opacity="0.18184878826882894" rx="1"/><rect x="1011.5642389595891" y="838.8164664858724" width="5.572339969121931" height="7.901766515779721" fill="#b5179e" opacity="0.10343406049148973" rx="1"/><rect x="997.3860017682626" y="842.7673497437622" width="5.572339969121931" height="7.901766515779721" fill="#f72585" opacity="0.051717030245744866" rx="1"/><rect x="1011.7129012883438" y="862.0082772531166" width="5.275015311612519" height="7.490002906296868" fill="#b5179e" opacity="0.5431790272805791" rx="1"/><rect x="997.5346640970173" y="865.7532787062651" width="5.275015311612519" height="7.490002906296868" fill="#f72585" opacity="0.27158951364028955" rx="1"/><rect x="1009.3080578484359" y="885.2000880203609" width="10.084702191428445" height="7.240786288222481" fill="#b5179e" opacity="0.4962801297652256" rx="1"/><rect x="995.1298206571093" y="888.8204811644722" width="10.084702191428445" height="7.240786288222481" fill="#f72585" opacity="0.2481400648826128" rx="1"/><rect x="1010.0641250556951" y="908.3918987876051" width="8.572567776910162" height="8.088633345926327" fill="#b5179e" opacity="0.5582439015987897" rx="1"/><rect x="995.8858878643686" y="912.4362154605683" width="8.572567776910162" height="8.088633345926327" fill="#f72585" opacity="0.27912195079939484" rx="1"/><rect x="1009.9367516490018" y="931.5837095548493" width="8.827314590296549" height="8.313189103806668" fill="#b5179e" opacity="0.10596698699657968" rx="1"/><rect x="995.7585144576753" y="935.7403041067527" width="8.827314590296549" height="8.313189103806668" fill="#f72585" opacity="0.05298349349828984" rx="1"/><rect x="1107.4977092974582" y="610.9866203765819" width="42.31204930048251" height="333.78889994551173" fill="#200089" opacity="0.4917233539027449" rx="2"/><rect x="1124.25524016173" y="620.9866203765819" width="8.796987571939125" height="7.534961612321195" fill="#b5179e" opacity="0.5018291575838414" rx="1"/><rect x="1113.6772278366093" y="624.7541011827425" width="8.796987571939125" height="7.534961612321195" fill="#f72585" opacity="0.2509145787919207" rx="1"/><rect x="1122.9262503464536" y="676.6181037008338" width="11.454967202491819" height="6.090917761458764" fill="#b5179e" opacity="0.11548479416302518" rx="1"/><rect x="1112.348238021333" y="679.6635625815632" width="11.454967202491819" height="6.090917761458764" fill="#f72585" opacity="0.05774239708151259" rx="1"/><rect x="1123.9636997019322" y="732.2495870250858" width="9.380068491534345" height="7.262659826609926" fill="#b5179e" opacity="0.3272245867008401" rx="1"/><rect x="1113.3856873768116" y="735.8809169383908" width="9.380068491534345" height="7.262659826609926" fill="#f72585" opacity="0.16361229335042005" rx="1"/><rect x="1124.0168359649874" y="787.8810703493377" width="9.273795965424226" height="7.0662972016880055" fill="#b5179e" opacity="0.35139658764270054" rx="1"/><rect x="1113.4388236398668" y="791.4142189501817" width="9.273795965424226" height="7.0662972016880055" fill="#f72585" opacity="0.17569829382135027" rx="1"/><rect x="1126.1127472345515" y="843.5125536735897" width="5.081973426295904" height="7.9371780087093775" fill="#b5179e" opacity="0.5525092722504654" rx="1"/><rect x="1115.5347349094309" y="847.4811426779444" width="5.081973426295904" height="7.9371780087093775" fill="#f72585" opacity="0.2762546361252327" rx="1"/><rect x="1123.1313247620435" y="899.1440369978416" width="11.044818371311951" height="9.932916095464703" fill="#b5179e" opacity="0.598578250524257" rx="1"/><rect x="1112.5533124369229" y="904.1104950455739" width="11.044818371311951" height="9.932916095464703" fill="#f72585" opacity="0.2992891252621285" rx="1"/><rect x="1217.0418018747685" y="662.9172646819886" width="40.337643518656876" height="281.8582556401049" fill="#3a0ca3" opacity="0.4135087881967213" rx="2"/><rect x="1231.9954315575296" y="672.9172646819886" width="10.430384153134746" height="7.220118675665026" fill="#b5179e" opacity="0.18950731905398596" rx="1"/><rect x="1221.9110206778653" y="676.5273240198211" width="10.430384153134746" height="7.220118675665026" fill="#f72585" opacity="0.09475365952699298" rx="1"/><rect x="1232.4009429415225" y="708.1495466370018" width="9.619361385148801" height="7.808756384488372" fill="#b5179e" opacity="0.14094002024292482" rx="1"/><rect x="1222.3165320618582" y="712.053924829246" width="9.619361385148801" height="7.808756384488372" fill="#f72585" opacity="0.07047001012146241" rx="1"/><rect x="1233.6335680174254" y="743.3818285920148" width="7.154111233342931" height="7.068298440675321" fill="#b5179e" opacity="0.18427410109068132" rx="1"/><rect x="1223.549157137761" y="746.9159778123525" width="7.154111233342931" height="7.068298440675321" fill="#f72585" opacity="0.09213705054534066" rx="1"/><rect x="1232.5430641662197" y="778.614110547028" width="9.335118935754316" height="8.489165568372506" fill="#b5179e" opacity="0.288708489921109" rx="1"/><rect x="1222.4586532865553" y="782.8586933312142" width="9.335118935754316" height="8.489165568372506" fill="#f72585" opacity="0.1443542449605545" rx="1"/><rect x="1232.1763412526755" y="813.8463925020411" width="10.068564762842973" height="8.337342129633143" fill="#b5179e" opacity="0.2878800766281504" rx="1"/><rect x="1222.091930373011" y="818.0150635668576" width="10.068564762842973" height="8.337342129633143" fill="#f72585" opacity="0.1439400383140752" rx="1"/><rect x="1234.1496561419103" y="849.0786744570541" width="6.121934984373379" height="6.483870452382572" fill="#b5179e" opacity="0.40319080054834266" rx="1"/><rect x="1224.065245262246" y="852.3206096832454" width="6.121934984373379" height="6.483870452382572" fill="#f72585" opacity="0.20159540027417133" rx="1"/><rect x="1234.2672586467274" y="884.3109564120673" width="5.886729974738958" height="8.069226488952811" fill="#b5179e" opacity="0.34213019589477456" rx="1"/><rect x="1224.182847767063" y="888.3455696565437" width="5.886729974738958" height="8.069226488952811" fill="#f72585" opacity="0.17106509794738728" rx="1"/><rect x="1232.5084607623305" y="919.5432383670804" width="9.404325743532816" height="7.543908852511995" fill="#b5179e" opacity="0.3718912765318275" rx="1"/><rect x="1222.4240498826662" y="923.3151927933365" width="9.404325743532816" height="7.543908852511995" fill="#f72585" opacity="0.18594563826591376" rx="1"/><rect x="1331.957534344857" y="856.8199243063153" width="65.53096297558652" height="87.95559601577827" fill="#3a0ca3" opacity="0.5741983920974187" rx="2"/><rect x="1360.5230160936535" y="866.8199243063153" width="8.399999477993696" height="9.792910645667675" fill="#b5179e" opacity="0.5077220136317708" rx="1"/><rect x="1344.1402753497568" y="871.7163796291492" width="8.399999477993696" height="9.792910645667675" fill="#f72585" opacity="0.2538610068158854" rx="1"/><rect x="1359.7026426691336" y="879.3850094514265" width="10.040746327033439" height="6.59698963551712" fill="#b5179e" opacity="0.29769022967612613" rx="1"/><rect x="1343.319901925237" y="882.683504269185" width="10.040746327033439" height="6.59698963551712" fill="#f72585" opacity="0.14884511483806306" rx="1"/><rect x="1360.4532612025398" y="891.9500945965377" width="8.53950926022127" height="6.113915891413091" fill="#b5179e" opacity="0.5428427407850611" rx="1"/><rect x="1344.0705204586432" y="895.0070525422443" width="8.53950926022127" height="6.113915891413091" fill="#f72585" opacity="0.27142137039253056" rx="1"/><rect x="1358.9778322409788" y="904.5151797416489" width="11.490367183343128" height="9.226415053761196" fill="#b5179e" opacity="0.12956875949855168" rx="1"/><rect x="1342.5950914970822" y="909.1283872685295" width="11.490367183343128" height="9.226415053761196" fill="#f72585" opacity="0.06478437974927584" rx="1"/><rect x="1358.9755696020966" y="917.08026488676" width="11.494892461107785" height="6.037621117205736" fill="#b5179e" opacity="0.4208268013132799" rx="1"/><rect x="1342.5928288582" y="920.0990754453629" width="11.494892461107785" height="6.037621117205736" fill="#f72585" opacity="0.21041340065663994" rx="1"/><rect x="1360.3659238324888" y="929.6453500318712" width="8.714184000323105" height="8.193905187350211" fill="#b5179e" opacity="0.3010577053765435" rx="1"/><rect x="1343.983183088592" y="933.7423026255464" width="8.714184000323105" height="8.193905187350211" fill="#f72585" opacity="0.15052885268827176" rx="1"/><rect x="1360.0652472602821" y="942.2104351769824" width="9.315537144736279" height="6.904588000128182" fill="#b5179e" opacity="0.4350482966832463" rx="1"/><rect x="1343.6825065163855" y="945.6627291770465" width="9.315537144736279" height="6.904588000128182" fill="#f72585" opacity="0.21752414834162315" rx="1"/><rect x="1460.9077908962286" y="764.0811061170141" width="51.99833212001211" height="180.6944142050795" fill="#200089" opacity="0.49953251087561545" rx="2"/><rect x="1481.2121535134997" y="774.0811061170141" width="11.389606885469892" height="6.666039047917826" fill="#b5179e" opacity="0.3545291239522699" rx="1"/><rect x="1468.2125704834968" y="777.414125640973" width="11.389606885469892" height="6.666039047917826" fill="#f72585" opacity="0.17726456197613494" rx="1"/><rect x="1483.6529897890643" y="810.21998895803" width="6.50793433434049" height="9.831914775034393" fill="#b5179e" opacity="0.5585628260296217" rx="1"/><rect x="1470.6534067590615" y="815.1359463455472" width="6.50793433434049" height="9.831914775034393" fill="#f72585" opacity="0.27928141301481085" rx="1"/><rect x="1481.1647544172977" y="846.3588717990459" width="11.484405077873824" height="6.781235464099151" fill="#b5179e" opacity="0.37389722486815813" rx="1"/><rect x="1468.1651713872948" y="849.7494895310955" width="11.484405077873824" height="6.781235464099151" fill="#f72585" opacity="0.18694861243407906" rx="1"/><rect x="1482.401496764133" y="882.4977546400618" width="9.010920384202834" height="9.367450636664277" fill="#b5179e" opacity="0.4466102577155946" rx="1"/><rect x="1469.4019137341302" y="887.1814799583939" width="9.010920384202834" height="9.367450636664277" fill="#f72585" opacity="0.2233051288577973" rx="1"/><rect x="1482.8002012585757" y="918.6366374810777" width="8.213511395317855" height="9.305522368127836" fill="#b5179e" opacity="0.5300369029934604" rx="1"/><rect x="1469.8006182285728" y="923.2893986651417" width="8.213511395317855" height="9.305522368127836" fill="#f72585" opacity="0.2650184514967302" rx="1"/><rect x="1566.285127696182" y="759.2737392427571" width="89.17071711718354" height="185.50178107933647" fill="#3a0ca3" opacity="0.5308535585018931" rx="2"/><rect x="1606.6793699845855" y="769.2737392427571" width="8.382232540376073" height="9.747441017010118" fill="#b5179e" opacity="0.16405116642453968" rx="1"/><rect x="1584.3866907052898" y="774.1474597512621" width="8.382232540376073" height="9.747441017010118" fill="#f72585" opacity="0.08202558321226984" rx="1"/><rect x="1607.5069638990115" y="815.6491845125912" width="6.727044711524398" height="6.078603790159944" fill="#b5179e" opacity="0.46484685094674283" rx="1"/><rect x="1585.2142846197157" y="818.6884864076711" width="6.727044711524398" height="6.078603790159944" fill="#f72585" opacity="0.23242342547337141" rx="1"/><rect x="1607.4967278480754" y="862.0246297824253" width="6.747516813396364" height="7.201393814105865" fill="#b5179e" opacity="0.1423907302418702" rx="1"/><rect x="1585.2040485687796" y="865.6253266894782" width="6.747516813396364" height="7.201393814105865" fill="#f72585" opacity="0.0711953651209351" rx="1"/><rect x="1607.9634069062217" y="908.4000750522594" width="5.814158697103653" height="9.199874548055202" fill="#b5179e" opacity="0.4292365015552464" rx="1"/><rect x="1585.670727626926" y="913.000012326287" width="5.814158697103653" height="9.199874548055202" fill="#f72585" opacity="0.2146182507776232" rx="1"/><rect x="1681.757691067587" y="777.347729466238" width="76.95049720978143" height="167.42779085585562" fill="#3a0ca3" opacity="0.6630955934438612" rx="2"/><rect x="1718.1525532182197" y="787.347729466238" width="4.1607729085164085" height="6.365903327326733" fill="#b5179e" opacity="0.2678361721960446" rx="1"/><rect x="1698.9149289157742" y="790.5306811299014" width="4.1607729085164085" height="6.365903327326733" fill="#f72585" opacity="0.1339180860980223" rx="1"/><rect x="1716.3620288403151" y="843.1569930848565" width="7.741821664325386" height="8.758142687091171" fill="#b5179e" opacity="0.2532571675845555" rx="1"/><rect x="1697.1244045378696" y="847.536064428402" width="7.741821664325386" height="8.758142687091171" fill="#f72585" opacity="0.12662858379227776" rx="1"/><rect x="1717.0266209417086" y="898.9662567034751" width="6.412637461538575" height="8.474270034226187" fill="#b5179e" opacity="0.28718060785606053" rx="1"/><rect x="1697.7889966392631" y="903.2033917205882" width="6.412637461538575" height="8.474270034226187" fill="#f72585" opacity="0.14359030392803027" rx="1"/><rect x="1818.4775559437642" y="692.8671361163415" width="55.62038580552218" height="251.90838420575216" fill="#200089" opacity="0.5345452849135142" rx="2"/><rect x="1840.929114723096" y="702.8671361163415" width="10.717268246858676" height="6.201512863906452" fill="#b5179e" opacity="0.4811472394459758" rx="1"/><rect x="1827.0240182717155" y="705.9678925482947" width="10.717268246858676" height="6.201512863906452" fill="#f72585" opacity="0.2405736197229879" rx="1"/><rect x="1841.5465425510301" y="734.3556841420606" width="9.482412590990405" height="7.3723028622037505" fill="#b5179e" opacity="0.2605665976322644" rx="1"/><rect x="1827.6414460996496" y="738.0418355731624" width="9.482412590990405" height="7.3723028622037505" fill="#f72585" opacity="0.1302832988161322" rx="1"/><rect x="1843.5095487163658" y="765.8442321677795" width="5.556400260319095" height="8.373711995401818" fill="#b5179e" opacity="0.27993263508657285" rx="1"/><rect x="1829.6044522649852" y="770.0310881654805" width="5.556400260319095" height="8.373711995401818" fill="#f72585" opacity="0.13996631754328642" rx="1"/><rect x="1843.7335058368587" y="797.3327801934986" width="5.108486019333006" height="8.272144012682173" fill="#b5179e" opacity="0.38576478182472396" rx="1"/><rect x="1829.8284093854782" y="801.4688521998397" width="5.108486019333006" height="8.272144012682173" fill="#f72585" opacity="0.19288239091236198" rx="1"/><rect x="1841.909515811808" y="828.8213282192175" width="8.756466069434879" height="7.657027720859514" fill="#b5179e" opacity="0.11774407679162549" rx="1"/><rect x="1828.0044193604274" y="832.6498420796473" width="8.756466069434879" height="7.657027720859514" fill="#f72585" opacity="0.058872038395812745" rx="1"/><rect x="1841.4199032872962" y="860.3098762449366" width="9.735691118458213" height="7.7891687941246595" fill="#b5179e" opacity="0.5730140356051303" rx="1"/><rect x="1827.5148068359156" y="864.2044606419989" width="9.735691118458213" height="7.7891687941246595" fill="#f72585" opacity="0.28650701780256516" rx="1"/><rect x="1840.9213276183982" y="891.7984242706557" width="10.732842456254373" height="7.1404092649790485" fill="#b5179e" opacity="0.27631770988840554" rx="1"/><rect x="1827.0162311670176" y="895.3686289031452" width="10.732842456254373" height="7.1404092649790485" fill="#f72585" opacity="0.13815885494420277" rx="1"/><rect x="1841.3842809298972" y="923.2869722963746" width="9.806935833256443" height="9.754020078981766" fill="#b5179e" opacity="0.4784947178509307" rx="1"/><rect x="1827.4791844785166" y="928.1639823358655" width="9.806935833256443" height="9.754020078981766" fill="#f72585" opacity="0.23924735892546534" rx="1"/><rect x="0" y="1000" width="1920" height="80" fill="#14007d" opacity="0.8"/><line x1="0" y1="1040" x2="1920" y2="1040" stroke="#b5179e" stroke-opacity="0.15" stroke-width="2" stroke-dasharray="30,20"/><rect x="0" y="930" width="1920" height="150" fill="url(#glow72)"/><text x="1900" y="1060" font-family="Arial, sans-serif" font-size="11" fill="#fff" opacity="0.08" text-anchor="end" letter-spacing="2">GTA 6 REWARDS · WALLPAPER 073</text>
</svg>