<?xml version="1.0" encoding="UTF-8"?>
<svg xmlns="http://www.w3.org/2000/svg" width="1920" height="1080" viewBox="0 0 1920 1080">
<defs>
    <linearGradient id="bg6" x1="0%" y1="0%" x2="0%" y2="100%">
      <stop offset="0%" stop-color="#264653"/>
      <stop offset="50%" stop-color="#001320"/>
      <stop offset="100%" stop-color="#264653"/>
    </linearGradient>
    <linearGradient id="sun6" x1="0%" y1="0%" x2="100%" y2="100%">
      <stop offset="0%" stop-color="#f4a261"/>
      <stop offset="100%" stop-color="#e76f51"/>
    </linearGradient>
    <radialGradient id="glow6" cx="50%" cy="70%" r="50%">
      <stop offset="0%" stop-color="#f4a261" stop-opacity="0.3"/>
      <stop offset="100%" stop-color="#264653" stop-opacity="0"/>
    </radialGradient>
  </defs><rect width="1920" height="1080" fill="url(#bg6)"/><circle cx="302.8122559196344" cy="465.2685686632219" r="660.6488102955392" fill="#f4a261" opacity="0.10421195911574456"/><circle cx="502.8122559196344" cy="365.2685686632219" r="414.15277370581236" fill="#e76f51" opacity="0.050363027323121916"/><circle cx="1464.666768900274" cy="213.01585744670962" r="96.8370560642418" fill="url(#sun6)" opacity="0.8801989175798834"/><circle cx="1464.666768900274" cy="213.01585744670962" r="91.8370560642418" fill="#264653" opacity="0.3"/><rect x="13.5898762297793" y="702.8868417611548" width="77.05404636148691" height="269.382084386745" fill="#0c2c39" opacity="0.5219959384580134" rx="2"/><rect x="46.16538017177149" y="712.8868417611548" width="11.90303847750254" height="9.78052100440965" fill="#e76f51" opacity="0.23456386738330218" rx="1"/><rect x="26.901868581399757" y="717.7771022633596" width="11.90303847750254" height="9.78052100440965" fill="#f4a261" opacity="0.11728193369165109" rx="1"/><rect x="46.3373843490466" y="780.232362857841" width="11.55903012295231" height="9.413551240091573" fill="#e76f51" opacity="0.5919756966391522" rx="1"/><rect x="27.073872758674874" y="784.9391384778868" width="11.55903012295231" height="9.413551240091573" fill="#f4a261" opacity="0.2959878483195761" rx="1"/><rect x="47.32294610755587" y="847.5778839545272" width="9.587906605933771" height="9.777854748018518" fill="#e76f51" opacity="0.5808574522568046" rx="1"/><rect x="28.059434517184144" y="852.4668113285366" width="9.587906605933771" height="9.777854748018518" fill="#f4a261" opacity="0.2904287261284023" rx="1"/><rect x="46.33963783302802" y="914.9234050512135" width="11.554523154989472" height="6.873150930943235" fill="#e76f51" opacity="0.3762967552468872" rx="1"/><rect x="27.076126242656294" y="918.3599805166851" width="11.554523154989472" height="6.873150930943235" fill="#f4a261" opacity="0.1881483776234436" rx="1"/><rect x="134.16176028180908" y="828.3651368874976" width="47.50863462628532" height="143.90378926040228" fill="#264653" opacity="0.5214812296027042" rx="2"/><rect x="153.6028719005647" y="838.3651368874976" width="8.626411388774033" height="9.541901498926315" fill="#e76f51" opacity="0.3856307309785929" rx="1"/><rect x="141.7257132439934" y="843.1360876369607" width="8.626411388774033" height="9.541901498926315" fill="#f4a261" opacity="0.19281536548929645" rx="1"/><rect x="152.41433018432332" y="862.3491017642312" width="11.00349482125684" height="8.85415384332979" fill="#e76f51" opacity="0.3865288651749792" rx="1"/><rect x="140.537171527752" y="866.7761786858962" width="11.00349482125684" height="8.85415384332979" fill="#f4a261" opacity="0.1932644325874896" rx="1"/><rect x="154.8258036276851" y="886.333066640965" width="6.180547934533225" height="9.40864023831874" fill="#e76f51" opacity="0.5051814675110349" rx="1"/><rect x="142.9486449711138" y="891.0373867601243" width="6.180547934533225" height="9.40864023831874" fill="#f4a261" opacity="0.25259073375551744" rx="1"/><rect x="155.09865336634653" y="910.3170315176988" width="5.634848457210429" height="7.677248144912824" fill="#e76f51" opacity="0.28106708051196" rx="1"/><rect x="143.22149470977521" y="914.1556555901552" width="5.634848457210429" height="7.677248144912824" fill="#f4a261" opacity="0.14053354025598" rx="1"/><rect x="153.2840934629282" y="934.3009963944324" width="9.26396826404705" height="6.086805554127043" fill="#e76f51" opacity="0.26561051531825464" rx="1"/><rect x="141.4069348063569" y="937.344399171496" width="9.26396826404705" height="6.086805554127043" fill="#f4a261" opacity="0.13280525765912732" rx="1"/><rect x="154.74805141187926" y="958.2849612711661" width="6.336052366144967" height="7.026401013374888" fill="#e76f51" opacity="0.25128821964638504" rx="1"/><rect x="142.87089275530795" y="961.7981617778536" width="6.336052366144967" height="7.026401013374888" fill="#f4a261" opacity="0.12564410982319252" rx="1"/><rect x="263.9116562702487" y="865.1415898499874" width="52.37182716894239" height="107.12733629791236" fill="#0c2c39" opacity="0.42497549178660277" rx="2"/><rect x="286.09585939186996" y="875.1415898499874" width="8.00342092569997" height="6.4608401955247015" fill="#e76f51" opacity="0.34472923291491564" rx="1"/><rect x="273.00290259963435" y="878.3720099477498" width="8.00342092569997" height="6.4608401955247015" fill="#f4a261" opacity="0.17236461645745782" rx="1"/><rect x="286.2016918363985" y="888.5325068872265" width="7.791756036642882" height="6.221054196409195" fill="#e76f51" opacity="0.3216293891476536" rx="1"/><rect x="273.10873504416287" y="891.6430339854311" width="7.791756036642882" height="6.221054196409195" fill="#f4a261" opacity="0.1608146945738268" rx="1"/><rect x="285.4298744444805" y="901.9234239244655" width="9.335390820478878" height="7.178292854963404" fill="#e76f51" opacity="0.24467487161622264" rx="1"/><rect x="272.3369176522449" y="905.5125703519473" width="9.335390820478878" height="7.178292854963404" fill="#f4a261" opacity="0.12233743580811132" rx="1"/><rect x="284.3912779976128" y="915.3143409617046" width="11.41258371421429" height="6.4828234362608805" fill="#e76f51" opacity="0.18100742476084442" rx="1"/><rect x="271.2983212053772" y="918.555752679835" width="11.41258371421429" height="6.4828234362608805" fill="#f4a261" opacity="0.09050371238042221" rx="1"/><rect x="285.7505018368248" y="928.7052579989436" width="8.694136035790233" height="8.764923476326494" fill="#e76f51" opacity="0.4672721370512788" rx="1"/><rect x="272.6575450445892" y="933.0877197371068" width="8.694136035790233" height="8.764923476326494" fill="#f4a261" opacity="0.2336360685256394" rx="1"/><rect x="284.50594099227015" y="942.0961750361827" width="11.183257724899626" height="6.635249890534964" fill="#e76f51" opacity="0.39633998540144877" rx="1"/><rect x="271.41298420003454" y="945.4137999814501" width="11.183257724899626" height="6.635249890534964" fill="#f4a261" opacity="0.19816999270072438" rx="1"/><rect x="286.4128580208432" y="955.4870920734218" width="7.369423667753447" height="8.90439112458946" fill="#e76f51" opacity="0.17468764916404328" rx="1"/><rect x="273.3199012286076" y="959.9392876357165" width="7.369423667753447" height="8.90439112458946" fill="#f4a261" opacity="0.08734382458202164" rx="1"/><rect x="287.3337405012766" y="968.8780091106607" width="5.527658706886614" height="9.351845886407384" fill="#e76f51" opacity="0.13993235762229478" rx="1"/><rect x="274.240783709041" y="973.5539320538644" width="5.527658706886614" height="9.351845886407384" fill="#f4a261" opacity="0.06996617881114739" rx="1"/><rect x="387.0419748632801" y="802.3244611807924" width="64.66177861547604" height="169.9444649671075" fill="#264653" opacity="0.5509855047452695" rx="2"/><rect x="414.28580260958654" y="812.3244611807924" width="10.174123122863033" height="6.761760625234284" fill="#e76f51" opacity="0.2362260531485607" rx="1"/><rect x="398.12035795571757" y="815.7053414934095" width="10.174123122863033" height="6.761760625234284" fill="#f4a261" opacity="0.11811302657428036" rx="1"/><rect x="415.26800261118166" y="833.5675193016808" width="8.20972311967279" height="7.3428753710684544" fill="#e76f51" opacity="0.36683186862311135" rx="1"/><rect x="399.1025579573127" y="837.238956987215" width="8.20972311967279" height="7.3428753710684544" fill="#f4a261" opacity="0.18341593431155567" rx="1"/><rect x="416.7239383356003" y="854.8105774225693" width="5.297851670835598" height="6.489522089364361" fill="#e76f51" opacity="0.19567778617974319" rx="1"/><rect x="400.5584936817313" y="858.0553384672514" width="5.297851670835598" height="6.489522089364361" fill="#f4a261" opacity="0.09783889308987159" rx="1"/><rect x="415.7313675765719" y="876.0536355434576" width="7.282993188892257" height="6.582115210728281" fill="#e76f51" opacity="0.4707933694521881" rx="1"/><rect x="399.56592292270295" y="879.3446931488218" width="7.282993188892257" height="6.582115210728281" fill="#f4a261" opacity="0.23539668472609404" rx="1"/><rect x="414.4562835771256" y="897.2966936643461" width="9.833161187785016" height="6.0237440606634465" fill="#e76f51" opacity="0.41222299726498846" rx="1"/><rect x="398.2908389232566" y="900.3085656946778" width="9.833161187785016" height="6.0237440606634465" fill="#f4a261" opacity="0.20611149863249423" rx="1"/><rect x="417.15743198808224" y="918.5397517852346" width="4.430864365871731" height="9.609812432809223" fill="#e76f51" opacity="0.3111162909332468" rx="1"/><rect x="400.99198733421326" y="923.3446580016391" width="4.430864365871731" height="9.609812432809223" fill="#f4a261" opacity="0.1555581454666234" rx="1"/><rect x="414.0789085340404" y="939.782809906123" width="10.587911273955346" height="9.326683673850885" fill="#e76f51" opacity="0.5674559892079458" rx="1"/><rect x="397.91346388017143" y="944.4461517430485" width="10.587911273955346" height="9.326683673850885" fill="#f4a261" opacity="0.2837279946039729" rx="1"/><rect x="415.79774740869124" y="961.0258680270115" width="7.1502335246536495" height="8.788138444253276" fill="#e76f51" opacity="0.11124858111405014" rx="1"/><rect x="399.63230275482226" y="965.4199372491381" width="7.1502335246536495" height="8.788138444253276" fill="#f4a261" opacity="0.05562429055702507" rx="1"/><rect x="523.6421749260375" y="829.6301228179667" width="83.69270712921691" height="142.63880332993315" fill="#264653" opacity="0.42857457295259804" rx="2"/><rect x="563.1496864199055" y="839.6301228179667" width="4.677684141480756" height="6.769271330155728" fill="#e76f51" opacity="0.4877719125914788" rx="1"/><rect x="542.2265096376013" y="843.0147584830446" width="4.677684141480756" height="6.769271330155728" fill="#f4a261" opacity="0.2438859562957394" rx="1"/><rect x="561.126982378803" y="868.1578834839534" width="8.723092223685954" height="8.000587110873449" fill="#e76f51" opacity="0.2372970545518438" rx="1"/><rect x="540.2038055964988" y="872.1581770393901" width="8.723092223685954" height="8.000587110873449" fill="#f4a261" opacity="0.1186485272759219" rx="1"/><rect x="559.6392300526237" y="896.68564414994" width="11.69859687604443" height="9.72532322623891" fill="#e76f51" opacity="0.3690569648447114" rx="1"/><rect x="538.7160532703195" y="901.5483057630595" width="11.69859687604443" height="9.72532322623891" fill="#f4a261" opacity="0.1845284824223557" rx="1"/><rect x="561.104656402046" y="925.2134048159267" width="8.767744177199841" height="9.019260995792983" fill="#e76f51" opacity="0.24319578666314384" rx="1"/><rect x="540.1814796197418" y="929.7230353138232" width="8.767744177199841" height="9.019260995792983" fill="#f4a261" opacity="0.12159789333157192" rx="1"/><rect x="562.4395879333465" y="953.7411654819132" width="6.097881114598802" height="7.563846849269198" fill="#e76f51" opacity="0.3694778440681933" rx="1"/><rect x="541.5164111510423" y="957.5230889065477" width="6.097881114598802" height="7.563846849269198" fill="#f4a261" opacity="0.18473892203409664" rx="1"/><rect x="661.5592114281745" y="859.5592559570352" width="81.10115968415076" height="112.70967019086463" fill="#0c2c39" opacity="0.6602010646742306" rx="2"/><rect x="699.6010674402586" y="869.5592559570352" width="5.017447659982706" height="8.844895345821254" fill="#e76f51" opacity="0.36287260215330697" rx="1"/><rect x="679.3257775192209" y="873.9817036299459" width="5.017447659982706" height="8.844895345821254" fill="#f4a261" opacity="0.18143630107665348" rx="1"/><rect x="696.2789721524526" y="907.1291460206568" width="11.661638235594527" height="6.324554195703136" fill="#e76f51" opacity="0.5560367971323517" rx="1"/><rect x="676.0036822314149" y="910.2914231185083" width="11.661638235594527" height="6.324554195703136" fill="#f4a261" opacity="0.27801839856617583" rx="1"/><rect x="698.7628573285795" y="944.6990360842783" width="6.693867883340891" height="7.998439620714271" fill="#e76f51" opacity="0.34509464361357844" rx="1"/><rect x="678.4875674075417" y="948.6982558946354" width="6.693867883340891" height="7.998439620714271" fill="#f4a261" opacity="0.17254732180678922" rx="1"/><rect x="777.5473950262059" y="773.0660924276026" width="44.15424079963803" height="199.2028337202973" fill="#0c2c39" opacity="0.5055197020772658" rx="2"/><rect x="795.2594679836787" y="783.0660924276026" width="8.730094884692248" height="9.711151001907687" fill="#e76f51" opacity="0.33748077690542694" rx="1"/><rect x="784.2209077837692" y="787.9216679285564" width="8.730094884692248" height="9.711151001907687" fill="#f4a261" opacity="0.16874038845271347" rx="1"/><rect x="793.6517144457092" y="816.2665647143189" width="11.94560196063146" height="9.775549686461583" fill="#e76f51" opacity="0.48695225664110675" rx="1"/><rect x="782.6131542457997" y="821.1543395575496" width="11.94560196063146" height="9.775549686461583" fill="#f4a261" opacity="0.24347612832055338" rx="1"/><rect x="797.4869177980551" y="849.467037001035" width="4.2751952559396615" height="8.081843846030964" fill="#e76f51" opacity="0.3029260149465236" rx="1"/><rect x="786.4483575981455" y="853.5079589240505" width="4.2751952559396615" height="8.081843846030964" fill="#f4a261" opacity="0.1514630074732618" rx="1"/><rect x="795.0632652184142" y="882.6675092877513" width="9.122500415221438" height="7.729211274937077" fill="#e76f51" opacity="0.16554295461753918" rx="1"/><rect x="784.0247050185047" y="886.5321149252198" width="9.122500415221438" height="7.729211274937077" fill="#f4a261" opacity="0.08277147730876959" rx="1"/><rect x="794.0336019087196" y="915.8679815744674" width="11.181827034610748" height="6.102373634488875" fill="#e76f51" opacity="0.11244780340056118" rx="1"/><rect x="782.99504170881" y="918.9191683917119" width="11.181827034610748" height="6.102373634488875" fill="#f4a261" opacity="0.05622390170028059" rx="1"/><rect x="795.9051804051048" y="949.0684538611837" width="7.438670041840213" height="9.078406503209473" fill="#e76f51" opacity="0.18827571223682626" rx="1"/><rect x="784.8666202051953" y="953.6076571127884" width="7.438670041840213" height="9.078406503209473" fill="#f4a261" opacity="0.09413785611841313" rx="1"/><rect x="915.1196158735826" y="807.3820584587246" width="88.52192105690993" height="164.88686768917526" fill="#0c2c39" opacity="0.5060076451408695" rx="2"/><rect x="955.6802536013257" y="817.3820584587246" width="7.400645601423608" height="9.845931028911362" fill="#e76f51" opacity="0.3025842685724106" rx="1"/><rect x="933.5497733370983" y="822.3050239731803" width="7.400645601423608" height="9.845931028911362" fill="#f4a261" opacity="0.1512921342862053" rx="1"/><rect x="955.2793293740319" y="858.6037753810184" width="8.2024940560112" height="9.128057331575095" fill="#e76f51" opacity="0.23615951294455667" rx="1"/><rect x="933.1488491098045" y="863.1678040468059" width="8.2024940560112" height="9.128057331575095" fill="#f4a261" opacity="0.11807975647227834" rx="1"/><rect x="953.7844795204662" y="899.8254923033122" width="11.192193763142496" height="6.051650230784819" fill="#e76f51" opacity="0.3817768691530863" rx="1"/><rect x="931.6539992562388" y="902.8513174187046" width="11.192193763142496" height="6.051650230784819" fill="#f4a261" opacity="0.19088843457654314" rx="1"/><rect x="957.2192099746827" y="941.047209225606" width="4.322732854709665" height="7.565995782047043" fill="#e76f51" opacity="0.5485619922514451" rx="1"/><rect x="935.0887297104553" y="944.8302071166296" width="4.322732854709665" height="7.565995782047043" fill="#f4a261" opacity="0.27428099612572254" rx="1"/><rect x="1042.2570819878617" y="856.1220674091303" width="85.27352159267141" height="116.14685873876951" fill="#0c2c39" opacity="0.5732112820430686" rx="2"/><rect x="1079.6170651844277" y="866.1220674091303" width="10.553555199539652" height="9.924222585727513" fill="#e76f51" opacity="0.41036565774361733" rx="1"/><rect x="1058.2986847862599" y="871.084178701994" width="10.553555199539652" height="9.924222585727513" fill="#f4a261" opacity="0.20518282887180866" rx="1"/><rect x="1080.8181143058039" y="889.3514391568842" width="8.151456956786909" height="6.3375444729667025" fill="#e76f51" opacity="0.2958221652768138" rx="1"/><rect x="1059.499733907636" y="892.5202113933676" width="8.151456956786909" height="6.3375444729667025" fill="#f4a261" opacity="0.1479110826384069" rx="1"/><rect x="1079.257673329268" y="912.5808109046382" width="11.272338909858917" height="9.061099590515042" fill="#e76f51" opacity="0.4881445034379476" rx="1"/><rect x="1057.9392929311002" y="917.1113606998957" width="11.272338909858917" height="9.061099590515042" fill="#f4a261" opacity="0.2440722517189738" rx="1"/><rect x="1082.1737168145305" y="935.810182652392" width="5.4402519393340345" height="7.42545193653215" fill="#e76f51" opacity="0.5395910260359735" rx="1"/><rect x="1060.8553364163627" y="939.5229086206581" width="5.4402519393340345" height="7.42545193653215" fill="#f4a261" opacity="0.26979551301798677" rx="1"/><rect x="1080.135777517952" y="959.0395544001459" width="9.51613053249105" height="6.911753364119622" fill="#e76f51" opacity="0.26184556348292287" rx="1"/><rect x="1058.8173971197841" y="962.4954310822058" width="9.51613053249105" height="6.911753364119622" fill="#f4a261" opacity="0.13092278174146144" rx="1"/><rect x="1158.0646868278423" y="727.1355598180405" width="71.12922175813681" height="245.13336632985934" fill="#0c2c39" opacity="0.6710854636205094" rx="2"/><rect x="1190.1289511735386" y="737.1355598180405" width="7.0006930667442955" height="9.143967375891275" fill="#e76f51" opacity="0.19459962150887578" rx="1"/><rect x="1172.3466457340044" y="741.7075435059861" width="7.0006930667442955" height="9.143967375891275" fill="#f4a261" opacity="0.09729981075443789" rx="1"/><rect x="1187.8805498906597" y="777.991120873017" width="11.497495632501668" height="9.80003132666462" fill="#e76f51" opacity="0.20911116891287063" rx="1"/><rect x="1170.0982444511255" y="782.8911365363493" width="11.497495632501668" height="9.80003132666462" fill="#f4a261" opacity="0.10455558445643531" rx="1"/><rect x="1188.904657628365" y="818.8466819279936" width="9.449280157091394" height="9.7305084559439" fill="#e76f51" opacity="0.4487941964643063" rx="1"/><rect x="1171.1223521888307" y="823.7119361559655" width="9.449280157091394" height="9.7305084559439" fill="#f4a261" opacity="0.22439709823215315" rx="1"/><rect x="1189.242469727118" y="859.7022429829701" width="8.773655959585135" height="8.029158632743442" fill="#e76f51" opacity="0.13878154094302597" rx="1"/><rect x="1171.460164287584" y="863.7168222993419" width="8.773655959585135" height="8.029158632743442" fill="#f4a261" opacity="0.06939077047151299" rx="1"/><rect x="1191.3100047424225" y="900.5578040379468" width="4.638585928976207" height="9.130817773549541" fill="#e76f51" opacity="0.24715814442540476" rx="1"/><rect x="1173.5276993028883" y="905.1232129247215" width="4.638585928976207" height="9.130817773549541" fill="#f4a261" opacity="0.12357907221270238" rx="1"/><rect x="1187.9052410030051" y="941.4133650929233" width="11.448113407811176" height="7.823569824412365" fill="#e76f51" opacity="0.2688461893165591" rx="1"/><rect x="1170.122935563471" y="945.3251500051294" width="11.448113407811176" height="7.823569824412365" fill="#f4a261" opacity="0.13442309465827956" rx="1"/><rect x="1309.038144061118" y="704.0848101149511" width="89.16467373705578" height="268.18411603294874" fill="#264653" opacity="0.4048949926171673" rx="2"/><rect x="1350.5677585898823" y="714.0848101149511" width="6.105444679526949" height="8.477404181490979" fill="#e76f51" opacity="0.2947139953716458" rx="1"/><rect x="1328.2765901556184" y="718.3235122056966" width="6.105444679526949" height="8.477404181490979" fill="#f4a261" opacity="0.1473569976858229" rx="1"/><rect x="1350.4119113486752" y="781.1308391231883" width="6.417139161940929" height="9.270148103886784" fill="#e76f51" opacity="0.3754945919791922" rx="1"/><rect x="1328.1207429144113" y="785.7659131751317" width="6.417139161940929" height="9.270148103886784" fill="#f4a261" opacity="0.1877472959895961" rx="1"/><rect x="1350.9056400647166" y="848.1768681314254" width="5.429681729858201" height="6.175650465343066" fill="#e76f51" opacity="0.15620245718308784" rx="1"/><rect x="1328.6144716304527" y="851.264693364097" width="5.429681729858201" height="6.175650465343066" fill="#f4a261" opacity="0.07810122859154392" rx="1"/><rect x="1348.4738938821185" y="915.2228971396627" width="10.29317409505443" height="6.899431742937172" fill="#e76f51" opacity="0.5448953086847661" rx="1"/><rect x="1326.1827254478546" y="918.6726130111313" width="10.29317409505443" height="6.899431742937172" fill="#f4a261" opacity="0.27244765434238305" rx="1"/><rect x="1413.4770397687043" y="709.4267781263745" width="37.41441215095446" height="262.8421480215253" fill="#264653" opacity="0.5888179659584579" rx="2"/><rect x="1426.7536055445096" y="719.4267781263745" width="10.861280599343889" height="8.69228063307057" fill="#e76f51" opacity="0.5337425103722472" rx="1"/><rect x="1417.400002506771" y="723.7729184429098" width="10.861280599343889" height="8.69228063307057" fill="#f4a261" opacity="0.2668712551861236" rx="1"/><rect x="1427.3596179420965" y="763.2338027966288" width="9.649255804170217" height="7.55046974903682" fill="#e76f51" opacity="0.29992606986778" rx="1"/><rect x="1418.006014904358" y="767.0090376711472" width="9.649255804170217" height="7.55046974903682" fill="#f4a261" opacity="0.14996303493389" rx="1"/><rect x="1429.7748617899545" y="807.040827466883" width="4.818768108454246" height="8.270117445446113" fill="#e76f51" opacity="0.3069820844817399" rx="1"/><rect x="1420.4212587522159" y="811.1758861896061" width="4.818768108454246" height="8.270117445446113" fill="#f4a261" opacity="0.15349104224086996" rx="1"/><rect x="1426.6807944233715" y="850.8478521371371" width="11.006902841619892" height="7.040729309674522" fill="#e76f51" opacity="0.297667243820072" rx="1"/><rect x="1417.327191385633" y="854.3682167919744" width="11.006902841619892" height="7.040729309674522" fill="#f4a261" opacity="0.148833621910036" rx="1"/><rect x="1428.3481170016685" y="894.6548768073914" width="7.672257685026214" height="7.398357979347547" fill="#e76f51" opacity="0.5728345649719319" rx="1"/><rect x="1418.9945139639299" y="898.3540557970651" width="7.672257685026214" height="7.398357979347547" fill="#f4a261" opacity="0.28641728248596593" rx="1"/><rect x="1428.8387740174862" y="938.4619014776456" width="6.690943653390496" height="9.763553237487457" fill="#e76f51" opacity="0.5972784415579584" rx="1"/><rect x="1419.4851709797476" y="943.3436780963893" width="6.690943653390496" height="9.763553237487457" fill="#f4a261" opacity="0.2986392207789792" rx="1"/><rect x="1556.4483739148006" y="838.2254693396915" width="38.412083612850886" height="134.04345680820836" fill="#0c2c39" opacity="0.4294038258561408" rx="2"/><rect x="1571.2601919179456" y="848.2254693396915" width="8.78844760656088" height="8.995401710969256" fill="#e76f51" opacity="0.1630261121697319" rx="1"/><rect x="1561.6571710147327" y="852.7231701951761" width="8.78844760656088" height="8.995401710969256" fill="#f4a261" opacity="0.08151305608486595" rx="1"/><rect x="1572.4012245040856" y="864.9809014407175" width="6.506382434281144" height="9.950471343461068" fill="#e76f51" opacity="0.11379118743673694" rx="1"/><rect x="1562.7982036008727" y="869.956137112448" width="6.506382434281144" height="9.950471343461068" fill="#f4a261" opacity="0.05689559371836847" rx="1"/><rect x="1571.8514735351437" y="881.7363335417435" width="7.605884372164934" height="9.338679751227303" fill="#e76f51" opacity="0.2597781407553186" rx="1"/><rect x="1562.2484526319308" y="886.4056734173572" width="7.605884372164934" height="9.338679751227303" fill="#f4a261" opacity="0.1298890703776593" rx="1"/><rect x="1572.0784345723405" y="898.4917656427696" width="7.151962297771117" height="8.382628434892425" fill="#e76f51" opacity="0.5929440384714268" rx="1"/><rect x="1562.4754136691276" y="902.6830798602158" width="7.151962297771117" height="8.382628434892425" fill="#f4a261" opacity="0.2964720192357134" rx="1"/><rect x="1570.2657614697855" y="915.2471977437956" width="10.777308502881162" height="6.278748746094934" fill="#e76f51" opacity="0.37564800548731536" rx="1"/><rect x="1560.6627405665727" y="918.386572116843" width="10.777308502881162" height="6.278748746094934" fill="#f4a261" opacity="0.18782400274365768" rx="1"/><rect x="1571.6925142031844" y="932.0026298448217" width="7.923803036083422" height="6.017194997523259" fill="#e76f51" opacity="0.15926490832568727" rx="1"/><rect x="1562.0894932999715" y="935.0112273435834" width="7.923803036083422" height="6.017194997523259" fill="#f4a261" opacity="0.07963245416284363" rx="1"/><rect x="1571.1768954187112" y="948.7580619458478" width="8.955040605029799" height="9.192753892203969" fill="#e76f51" opacity="0.2278071179119421" rx="1"/><rect x="1561.5738745154983" y="953.3544388919497" width="8.955040605029799" height="9.192753892203969" fill="#f4a261" opacity="0.11390355895597105" rx="1"/><rect x="1569.7452121611557" y="965.5134940468738" width="11.81840712014083" height="9.861330448617537" fill="#e76f51" opacity="0.24019368568905483" rx="1"/><rect x="1560.1421912579428" y="970.4441592711826" width="11.81840712014083" height="9.861330448617537" fill="#f4a261" opacity="0.12009684284452742" rx="1"/><rect x="1692.8014611948286" y="631.8131230030706" width="74.80979558658083" height="340.4558031448293" fill="#264653" opacity="0.5929061661690721" rx="2"/><rect x="1728.048730835563" y="641.8131230030706" width="4.315256305112331" height="7.487735811967341" fill="#e76f51" opacity="0.1100780321541424" rx="1"/><rect x="1709.3462819389176" y="645.5569909090542" width="4.315256305112331" height="7.487735811967341" fill="#f4a261" opacity="0.0550390160770712" rx="1"/><rect x="1724.6880983304438" y="698.5557568605421" width="11.036521315350319" height="8.032890779439567" fill="#e76f51" opacity="0.5142042338881185" rx="1"/><rect x="1705.9856494337985" y="702.572202250262" width="11.036521315350319" height="8.032890779439567" fill="#f4a261" opacity="0.25710211694405927" rx="1"/><rect x="1724.6875271512401" y="755.2983907180137" width="11.037663673757962" height="8.672301472786884" fill="#e76f51" opacity="0.16737822249237871" rx="1"/><rect x="1705.9850782545948" y="759.6345414544071" width="11.037663673757962" height="8.672301472786884" fill="#f4a261" opacity="0.08368911124618936" rx="1"/><rect x="1727.9975708464622" y="812.0410245754853" width="4.417576283313701" height="7.139748113495239" fill="#e76f51" opacity="0.5661579022570881" rx="1"/><rect x="1709.2951219498168" y="815.6108986322329" width="4.417576283313701" height="7.139748113495239" fill="#f4a261" opacity="0.28307895112854403" rx="1"/><rect x="1725.581971877856" y="868.7836584329568" width="9.2487742205264" height="7.920758578442213" fill="#e76f51" opacity="0.328534935793964" rx="1"/><rect x="1706.8795229812106" y="872.744037722178" width="9.2487742205264" height="7.920758578442213" fill="#f4a261" opacity="0.164267467896982" rx="1"/><rect x="1726.823288526345" y="925.5262922904283" width="6.766140923548057" height="9.145796731846826" fill="#e76f51" opacity="0.32335160074833585" rx="1"/><rect x="1708.1208396296997" y="930.0991906563517" width="6.766140923548057" height="9.145796731846826" fill="#f4a261" opacity="0.16167580037416793" rx="1"/><rect x="1816.2822152921656" y="818.9927829822975" width="49.527327115537446" height="153.27614316560238" fill="#0c2c39" opacity="0.5442784794010871" rx="2"/><rect x="1837.5814569672991" y="828.9927829822975" width="6.9288437652701615" height="8.799418043997003" fill="#e76f51" opacity="0.5056044030947621" rx="1"/><rect x="1825.1996251884148" y="833.3924920042961" width="6.9288437652701615" height="8.799418043997003" fill="#f4a261" opacity="0.25280220154738103" rx="1"/><rect x="1837.136349499723" y="850.8893748630978" width="7.819058700422538" height="7.572544642158911" fill="#e76f51" opacity="0.5705841609906834" rx="1"/><rect x="1824.7545177208387" y="854.6756471841773" width="7.819058700422538" height="7.572544642158911" fill="#f4a261" opacity="0.2852920804953417" rx="1"/><rect x="1837.6050906392293" y="872.7859667438981" width="6.881576421410212" height="7.910906920654445" fill="#e76f51" opacity="0.1215638667628085" rx="1"/><rect x="1825.223258860345" y="876.7414202042254" width="6.881576421410212" height="7.910906920654445" fill="#f4a261" opacity="0.06078193338140425" rx="1"/><rect x="1838.3103707403202" y="894.6825586246986" width="5.471016219228277" height="9.941675691851804" fill="#e76f51" opacity="0.511872308680758" rx="1"/><rect x="1825.9285389614358" y="899.6533964706244" width="5.471016219228277" height="9.941675691851804" fill="#f4a261" opacity="0.255936154340379" rx="1"/><rect x="1835.6525312486692" y="916.5791505054989" width="10.786695202530058" height="9.086168714586218" fill="#e76f51" opacity="0.50897025852673" rx="1"/><rect x="1823.2706994697849" y="921.122234862792" width="10.786695202530058" height="9.086168714586218" fill="#f4a261" opacity="0.254485129263365" rx="1"/><rect x="1836.436757772564" y="938.4757423862992" width="9.21824215474032" height="6.5430165064854116" fill="#e76f51" opacity="0.5965641493901062" rx="1"/><rect x="1824.0549259936797" y="941.7472506395419" width="9.21824215474032" height="6.5430165064854116" fill="#f4a261" opacity="0.2982820746950531" rx="1"/><rect x="1838.856079618413" y="960.3723342670995" width="4.379598463042545" height="9.303218814382149" fill="#e76f51" opacity="0.5835133496633529" rx="1"/><rect x="1826.4742478395287" y="965.0239436742906" width="4.379598463042545" height="9.303218814382149" fill="#f4a261" opacity="0.29175667483167644" rx="1"/><path d="M502.07189050085657 944.2930648672145 Q492.2252059616673 876.5683308945895 490.2558690538295 808.8435969219645" stroke="#000006" stroke-width="7.306911242964424" fill="none" stroke-linecap="round"/><path d="M490.2558690538295 808.8435969219645 Q520.3362055340168 788.8435969219645 546.9829501036982 808.8435969219645" stroke="#001320" stroke-width="3.850349954294588" fill="none" stroke-linecap="round" opacity="0.6"/><path d="M490.2558690538295 808.8435969219645 Q520.4673250908958 792.8503557473992 511.55775931352235 816.857114572834" stroke="#001320" stroke-width="2.7088106225032385" fill="none" stroke-linecap="round" opacity="0.6"/><path d="M490.2558690538295 808.8435969219645 Q489.4939436752119 796.4316313752644 478.70974007107395 824.0196658285643" stroke="#001320" stroke-width="2.1573719927476187" fill="none" stroke-linecap="round" opacity="0.6"/><path d="M490.2558690538295 808.8435969219645 Q477.8962553781718 791.2116558293296 457.4737024572457 813.5797147366949" stroke="#001320" stroke-width="2.3233935400665255" fill="none" stroke-linecap="round" opacity="0.6"/><path d="M490.2558690538295 808.8435969219645 Q475.54904736312227 785.6245562892927 445.69315738597084 802.4055156566209" stroke="#001320" stroke-width="2.6617760659804977" fill="none" stroke-linecap="round" opacity="0.6"/><path d="M442.21639315649315 815.6082798530367 Q433.7353868348839 765.5706744793735 432.03918557056204 715.5330691057102" stroke="#000006" stroke-width="6.3233362078488184" fill="none" stroke-linecap="round"/><path d="M432.03918557056204 715.5330691057102 Q472.9893649339185 695.5330691057102 485.6346448812714 715.5330691057102" stroke="#001320" stroke-width="3.5601525124069657" fill="none" stroke-linecap="round" opacity="0.6"/><path d="M432.03918557056204 715.5330691057102 Q458.4252475154323 704.5759215853782 480.11541365139175 733.6187740650461" stroke="#001320" stroke-width="3.7545421048427334" fill="none" stroke-linecap="round" opacity="0.6"/><path d="M432.03918557056204 715.5330691057102 Q423.63995188318 707.2065877700795 414.27648918180256 738.8801064344489" stroke="#001320" stroke-width="2.6377637038560966" fill="none" stroke-linecap="round" opacity="0.6"/><path d="M432.03918557056204 715.5330691057102 Q413.1110369901761 700.3287774707738 365.6499120253914 725.1244858358375" stroke="#001320" stroke-width="3.295981015380468" fill="none" stroke-linecap="round" opacity="0.6"/><path d="M432.03918557056204 715.5330691057102 Q426.72306086828416 691.905695246307 381.82372268777664 708.2783213869039" stroke="#001320" stroke-width="3.753417527711349" fill="none" stroke-linecap="round" opacity="0.6"/><path d="M432.03918557056204 715.5330691057102 Q441.22637285079554 686.792551216072 418.73941109656005 698.0520333264337" stroke="#001320" stroke-width="3.7824197406373967" fill="none" stroke-linecap="round" opacity="0.6"/><path d="M301.7161668049442 975.9235036736176 Q292.49067763623094 917.8533084964969 290.6455798024883 859.7831133193763" stroke="#000006" stroke-width="6.830836738187549" fill="none" stroke-linecap="round"/><path d="M290.6455798024883 859.7831133193763 Q347.36252191834205 839.7831133193763 366.1002756222384 859.7831133193763" stroke="#001320" stroke-width="3.4369161071807417" fill="none" stroke-linecap="round" opacity="0.6"/><path d="M290.6455798024883 859.7831133193763 Q319.547210474873 848.313020060307 335.9947373727608 876.8429268012377" stroke="#001320" stroke-width="2.744439189961282" fill="none" stroke-linecap="round" opacity="0.6"/><path d="M290.6455798024883 859.7831133193763 Q300.71153417321517 846.3289834342656 280.6852322162951 872.8748535491549" stroke="#001320" stroke-width="2.29334228632351" fill="none" stroke-linecap="round" opacity="0.6"/><path d="M290.6455798024883 859.7831133193763 Q262.1520989995982 844.1494348610022 230.20051243248247 868.5157564026281" stroke="#001320" stroke-width="3.806608559053067" fill="none" stroke-linecap="round" opacity="0.6"/><path d="M290.6455798024883 859.7831133193763 Q266.7925797238514 835.9519668453388 237.60919562421108 852.1208203713012" stroke="#001320" stroke-width="2.1052676388307634" fill="none" stroke-linecap="round" opacity="0.6"/><path d="M290.6455798024883 859.7831133193763 Q287.3003336953879 833.2667432796762 280.73012021400154 846.7503732399762" stroke="#001320" stroke-width="2.264297676334227" fill="none" stroke-linecap="round" opacity="0.6"/><path d="M219.43105687839702 967.0412422779577 Q200.618523103329 892.3492554790222 196.8560163483154 817.6572686800866" stroke="#000006" stroke-width="7.157723403339675" fill="none" stroke-linecap="round"/><path d="M196.8560163483154 817.6572686800866 Q236.92537706273734 797.6572686800866 271.7040141838845 817.6572686800866" stroke="#001320" stroke-width="2.876613189204739" fill="none" stroke-linecap="round" opacity="0.6"/><path d="M196.8560163483154 817.6572686800866 Q230.05219053220503 802.6573573619655 223.43893412065168 827.6574460438443" stroke="#001320" stroke-width="2.1093384530649844" fill="none" stroke-linecap="round" opacity="0.6"/><path d="M196.8560163483154 817.6572686800866 Q193.92440090776648 805.6500269016136 184.6940503053704 833.6427851231406" stroke="#001320" stroke-width="3.5695848021585457" fill="none" stroke-linecap="round" opacity="0.6"/><path d="M196.8560163483154 817.6572686800866 Q170.20743617459866 802.7424178528324 126.45987593519087 827.8275670255781" stroke="#001320" stroke-width="3.6680158864865113" fill="none" stroke-linecap="round" opacity="0.6"/><path d="M196.8560163483154 817.6572686800866 Q187.7682595792249 794.0475384220899 146.88480223775088 810.4378081640933" stroke="#001320" stroke-width="2.971798158011352" fill="none" stroke-linecap="round" opacity="0.6"/><path d="M608.8154479788652 967.4088220734635 Q590.9855684663601 857.9073429417115 587.419592563859 748.4058638099594" stroke="#000006" stroke-width="5.582816339466445" fill="none" stroke-linecap="round"/><path d="M587.419592563859 748.4058638099594 Q629.1597918649576 728.4058638099594 637.5020605026516 748.4058638099594" stroke="#001320" stroke-width="3.0561935973950183" fill="none" stroke-linecap="round" opacity="0.6"/><path d="M587.419592563859 748.4058638099594 Q612.933566999276 732.0422125791986 606.752201738282 755.6785613484376" stroke="#001320" stroke-width="2.279857893073898" fill="none" stroke-linecap="round" opacity="0.6"/><path d="M587.419592563859 748.4058638099594 Q597.1014235836091 734.9717095258982 577.428849640422 761.537555241837" stroke="#001320" stroke-width="3.9293153374291294" fill="none" stroke-linecap="round" opacity="0.6"/><path d="M587.419592563859 748.4058638099594 Q561.9075470112039 732.5795570617549 529.6411702966393 756.7532503135504" stroke="#001320" stroke-width="3.180319601479061" fill="none" stroke-linecap="round" opacity="0.6"/><path d="M587.419592563859 748.4058638099594 Q570.5038010186585 724.6752596319061 535.7750632447254 740.9446554538526" stroke="#001320" stroke-width="2.486611073949982" fill="none" stroke-linecap="round" opacity="0.6"/><rect x="0" y="1000" width="1920" height="80" fill="#00202d" opacity="0.8"/><line x1="0" y1="1040" x2="1920" y2="1040" stroke="#e76f51" stroke-opacity="0.15" stroke-width="2" stroke-dasharray="30,20"/><rect x="0" y="930" width="1920" height="150" fill="url(#glow6)"/><rect x="0" y="980" width="1920" height="100" fill="#e76f51" opacity="0.04"/><rect x="512.8275088669797" y="1047.7155960322627" width="118.6137483032918" height="2" fill="#f4a261" opacity="0.029630632020912748" rx="1"/><rect x="1324.6926680311312" y="1007.1329139375903" width="62.15984769215804" height="2" fill="#f4a261" opacity="0.049001240047859315" rx="1"/><rect x="267.0461655284852" y="1008.0296818697894" width="92.78603005055014" height="2" fill="#f4a261" opacity="0.057376084708929076" rx="1"/><rect x="1223.7784425783386" y="1025.1777947054193" width="87.88394236189404" height="2" fill="#f4a261" opacity="0.036998395234578846" rx="1"/><rect x="1471.4601698963577" y="1047.7298839501407" width="42.92184397180608" height="2" fill="#f4a261" opacity="0.05814417285801474" rx="1"/><rect x="1189.100786724384" y="1024.4843680422018" width="109.39710701568916" height="2" fill="#f4a261" opacity="0.03415515761220715" rx="1"/><rect x="393.7277364157438" y="1046.1351256599032" width="94.13222900920833" height="2" fill="#f4a261" opacity="0.0560161377759688" rx="1"/><rect x="1084.7417063556475" y="1039.7644662018317" width="42.442440158324885" height="2" fill="#f4a261" opacity="0.051408411634948206" rx="1"/><rect x="1729.3140770050964" y="1011.4486755690185" width="99.13634771926709" height="2" fill="#f4a261" opacity="0.027567821118880023" rx="1"/><rect x="1313.273299940227" y="1047.2301314834576" width="86.29262756702784" height="2" fill="#f4a261" opacity="0.02869167120398294" rx="1"/><rect x="1450.8870965640265" y="1032.4722402385605" width="57.79244239856313" height="2" fill="#f4a261" opacity="0.030935722908688644" rx="1"/><rect x="1350.371117012196" y="1013.6141027867827" width="82.75315595854846" height="2" fill="#f4a261" opacity="0.03852464083082151" rx="1"/><rect x="1744.2405017801188" y="1052.8394463874492" width="38.18147793369867" height="2" fill="#f4a261" opacity="0.054423810568271155" rx="1"/><rect x="409.6016752183441" y="1004.6930335938681" width="109.46165451534597" height="2" fill="#f4a261" opacity="0.03126005438418594" rx="1"/><rect x="1435.582444555029" y="1014.7236435289317" width="108.4342740495769" height="2" fill="#f4a261" opacity="0.036930423317693736" rx="1"/><rect x="811.1395407121487" y="1047.5463062309534" width="38.2652593167185" height="2" fill="#f4a261" opacity="0.04793900170082668" rx="1"/><rect x="708.0530822435518" y="1029.1912158087807" width="33.16697977324179" height="2" fill="#f4a261" opacity="0.032752039929095665" rx="1"/><rect x="717.368368226422" y="1027.3042683553194" width="80.1505572116353" height="2" fill="#f4a261" opacity="0.023740613629049764" rx="1"/><rect x="1093.2748123568658" y="1033.198232313897" width="115.04989986192666" height="2" fill="#f4a261" opacity="0.04889246090056665" rx="1"/><rect x="1172.2033844637228" y="1028.235710754114" width="81.04809300998414" height="2" fill="#f4a261" opacity="0.04868619971645209" rx="1"/><rect x="1880.1335862186118" y="1003.8132690786881" width="114.5030641729252" height="2" fill="#f4a261" opacity="0.03158863222496319" rx="1"/><rect x="1315.6740683400244" y="1006.8447156778641" width="21.90724497705401" height="2" fill="#f4a261" opacity="0.04340035448395656" rx="1"/><rect x="1144.9473370297223" y="1056.43270375124" width="74.37527919522842" height="2" fill="#f4a261" opacity="0.04229506322701812" rx="1"/><rect x="91.48027899011045" y="1010.4983833316943" width="70.73592063289506" height="2" fill="#f4a261" opacity="0.055248332879331036" rx="1"/><rect x="1375.6269580348458" y="1057.33236119089" width="44.69058200360522" height="2" fill="#f4a261" opacity="0.029287436830179633" rx="1"/><rect x="1362.890779991376" y="1037.109964237807" width="55.04678975675413" height="2" fill="#f4a261" opacity="0.04366489332720286" rx="1"/><rect x="198.6620258257403" y="1053.7880620625308" width="55.233087403521196" height="2" fill="#f4a261" opacity="0.04962335902024605" rx="1"/><rect x="1369.7389857679927" y="1009.0523666769853" width="79.51821973070462" height="2" fill="#f4a261" opacity="0.023453716869338816" rx="1"/><rect x="1020.9940805428182" y="1011.0859467254686" width="102.235528803951" height="2" fill="#f4a261" opacity="0.058580925957900695" rx="1"/><rect x="1143.7433238010256" y="1053.097181877377" width="77.4568906932736" height="2" fill="#f4a261" opacity="0.054116990071282955" rx="1"/><text x="1900" y="1060" font-family="Arial, sans-serif" font-size="11" fill="#fff" opacity="0.08" text-anchor="end" letter-spacing="2">GTA 6 REWARDS · WALLPAPER 007</text>
</svg>