<?xml version="1.0" encoding="UTF-8"?>
<svg xmlns="http://www.w3.org/2000/svg" width="1920" height="1080" viewBox="0 0 1920 1080">
<defs>
    <linearGradient id="bg71" x1="0%" y1="0%" x2="0%" y2="100%">
      <stop offset="0%" stop-color="#3c096c"/>
      <stop offset="50%" stop-color="#090039"/>
      <stop offset="100%" stop-color="#3c096c"/>
    </linearGradient>
    <linearGradient id="sun71" x1="0%" y1="0%" x2="100%" y2="100%">
      <stop offset="0%" stop-color="#e0aaff"/>
      <stop offset="100%" stop-color="#c77dff"/>
    </linearGradient>
    <radialGradient id="glow71" cx="50%" cy="70%" r="50%">
      <stop offset="0%" stop-color="#e0aaff" stop-opacity="0.3"/>
      <stop offset="100%" stop-color="#3c096c" stop-opacity="0"/>
    </radialGradient>
  </defs><rect width="1920" height="1080" fill="url(#bg71)"/><circle cx="491.5289040169513" cy="441.98033656971074" r="803.5257930875583" fill="#e0aaff" opacity="0.09892836079209306"/><circle cx="691.5289040169513" cy="341.98033656971074" r="431.7881686221315" fill="#c77dff" opacity="0.06565012459076246"/><circle cx="664.8307538509441" cy="279.2283836820229" r="87.05937036011818" fill="url(#sun71)" opacity="0.8829367756571007"/><circle cx="664.8307538509441" cy="279.2283836820229" r="82.05937036011818" fill="#3c096c" opacity="0.3"/><pattern id="scan71" width="1920" height="4" patternUnits="userSpaceOnUse">
      <line x1="0" y1="0" x2="1920" y2="0" stroke="#000" stroke-opacity="0.05" stroke-width="1"/>
    </pattern>
    <rect width="1920" height="1080" fill="url(#scan71)"/><path d="M1046.0079939118605 814.1734327455455 Q1064.2207299834631 724.6853170391836 1067.8632771977836 635.1972013328218" stroke="#00001f" stroke-width="5.839561951775002" fill="none" stroke-linecap="round"/><path d="M1067.8632771977836 635.1972013328218 Q1110.9509419433193 615.1972013328218 1124.9400110498398 635.1972013328218" stroke="#090039" stroke-width="2.2142306399099136" fill="none" stroke-linecap="round" opacity="0.6"/><path d="M1067.8632771977836 635.1972013328218 Q1088.7880338209834 622.5440785814548 1106.9228711789194 649.8909558300877" stroke="#090039" stroke-width="2.011167063846059" fill="none" stroke-linecap="round" opacity="0.6"/><path d="M1067.8632771977836 635.1972013328218 Q1063.611760477243 624.5579375797952 1053.61976410539 653.9186738267687" stroke="#090039" stroke-width="3.7852568607277366" fill="none" stroke-linecap="round" opacity="0.6"/><path d="M1067.8632771977836 635.1972013328218 Q1049.2251754784738 618.3710118309427 1023.9267078110225 641.5448223290638" stroke="#090039" stroke-width="2.5046810625364726" fill="none" stroke-linecap="round" opacity="0.6"/><path d="M1067.8632771977836 635.1972013328218 Q1060.4065919470534 612.53223858612 1030.97092943382 629.8672758394181" stroke="#090039" stroke-width="2.498695361078413" fill="none" stroke-linecap="round" opacity="0.6"/><path d="M1067.8632771977836 635.1972013328218 Q1067.861208033924 606.4866385980988 1054.6090831813399 617.7760758633757" stroke="#090039" stroke-width="3.8320578736793385" fill="none" stroke-linecap="round" opacity="0.6"/><path d="M1067.8632771977836 635.1972013328218 Q1098.4244735523232 609.4854259858253 1098.229869481146 623.7736506388286" stroke="#090039" stroke-width="2.9543247299628157" fill="none" stroke-linecap="round" opacity="0.6"/><path d="M1679.761271271799 861.7008082013812 Q1682.4444634240224 795.4226108199038 1682.981101854467 729.1444134384265" stroke="#00001f" stroke-width="4.8234617767910155" fill="none" stroke-linecap="round"/><path d="M1682.981101854467 729.1444134384265 Q1733.3308358516847 709.1444134384265 1749.107986692597 729.1444134384265" stroke="#090039" stroke-width="2.584029811570428" fill="none" stroke-linecap="round" opacity="0.6"/><path d="M1682.981101854467 729.1444134384265 Q1700.192693114542 714.0075583029361 1708.8359592926445 738.8707031674459" stroke="#090039" stroke-width="3.452379285696051" fill="none" stroke-linecap="round" opacity="0.6"/><path d="M1682.981101854467 729.1444134384265 Q1679.7981610346683 717.6029284106667 1670.1104295514988 746.0614433829069" stroke="#090039" stroke-width="3.5651810042479033" fill="none" stroke-linecap="round" opacity="0.6"/><path d="M1682.981101854467 729.1444134384265 Q1677.6930584793422 711.6222710215188 1648.6789399281313 734.1001286046112" stroke="#090039" stroke-width="2.3668437936266056" fill="none" stroke-linecap="round" opacity="0.6"/><path d="M1682.981101854467 729.1444134384265 Q1666.3176315997298 705.8873665896788 1637.8922520473807 722.6303197409312" stroke="#090039" stroke-width="3.641592586329578" fill="none" stroke-linecap="round" opacity="0.6"/><path d="M1652.6843448850989 823.6014011138122 Q1667.384071472889 731.8736117523802 1670.3240167904469 640.145822390948" stroke="#00001f" stroke-width="5.146918314776132" fill="none" stroke-linecap="round"/><path d="M1670.3240167904469 640.145822390948 Q1712.1832064877226 620.145822390948 1735.362359358315 640.145822390948" stroke="#090039" stroke-width="3.5735065395882133" fill="none" stroke-linecap="round" opacity="0.6"/><path d="M1670.3240167904469 640.145822390948 Q1698.208007257562 627.7079375834256 1710.527920988209 655.2700527759033" stroke="#090039" stroke-width="3.9589669438914785" fill="none" stroke-linecap="round" opacity="0.6"/><path d="M1670.3240167904469 640.145822390948 Q1672.0242236130298 625.3846706433069 1662.3524639443058 650.6235188956658" stroke="#090039" stroke-width="3.647774062968738" fill="none" stroke-linecap="round" opacity="0.6"/><path d="M1670.3240167904469 640.145822390948 Q1664.4894026519426 622.1333622491952 1642.8095565091742 644.1209021074426" stroke="#090039" stroke-width="2.2177187968552388" fill="none" stroke-linecap="round" opacity="0.6"/><path d="M1670.3240167904469 640.145822390948 Q1652.669634779635 615.3348421571275 1603.7233274970154 630.5238619233071" stroke="#090039" stroke-width="3.926880131924264" fill="none" stroke-linecap="round" opacity="0.6"/><path d="M779.6161429909095 945.692046788915 Q795.7657650801738 847.7886616480044 798.9956894980266 749.8852765070939" stroke="#00001f" stroke-width="4.335358689617216" fill="none" stroke-linecap="round"/><path d="M798.9956894980266 749.8852765070939 Q853.5351247907464 729.8852765070939 870.7419414098238 749.8852765070939" stroke="#090039" stroke-width="3.7891741021976744" fill="none" stroke-linecap="round" opacity="0.6"/><path d="M798.9956894980266 749.8852765070939 Q837.2234776792305 738.8658611820333 846.7408714638226 767.8464458569729" stroke="#090039" stroke-width="2.7144703685106872" fill="none" stroke-linecap="round" opacity="0.6"/><path d="M798.9956894980266 749.8852765070939 Q803.0384930717753 740.3168992237474 783.1226907488519 770.7485219404009" stroke="#090039" stroke-width="3.281280957926363" fill="none" stroke-linecap="round" opacity="0.6"/><path d="M798.9956894980266 749.8852765070939 Q798.2433493626746 732.2729228800765 765.9423642917154 754.6605692530591" stroke="#090039" stroke-width="3.528275788186182" fill="none" stroke-linecap="round" opacity="0.6"/><path d="M798.9956894980266 749.8852765070939 Q786.7942262217458 726.1717834980088 747.5880382354484 742.4582904889239" stroke="#090039" stroke-width="2.51412370673244" fill="none" stroke-linecap="round" opacity="0.6"/><path d="M798.9956894980266 749.8852765070939 Q799.9206603141199 723.8486399449947 789.8102034809325 737.8120033828956" stroke="#090039" stroke-width="3.3484066173779796" fill="none" stroke-linecap="round" opacity="0.6"/><line x1="0" y1="0" x2="0" y2="1080" stroke="#e0aaff" stroke-opacity="0.05942623106516577" stroke-width="0.5"/><line x1="43" y1="0" x2="43" y2="1080" stroke="#e0aaff" stroke-opacity="0.05942623106516577" stroke-width="0.5"/><line x1="86" y1="0" x2="86" y2="1080" stroke="#e0aaff" stroke-opacity="0.05942623106516577" stroke-width="0.5"/><line x1="129" y1="0" x2="129" y2="1080" stroke="#e0aaff" stroke-opacity="0.05942623106516577" stroke-width="0.5"/><line x1="172" y1="0" x2="172" y2="1080" stroke="#e0aaff" stroke-opacity="0.05942623106516577" stroke-width="0.5"/><line x1="215" y1="0" x2="215" y2="1080" stroke="#e0aaff" stroke-opacity="0.05942623106516577" stroke-width="0.5"/><line x1="258" y1="0" x2="258" y2="1080" stroke="#e0aaff" stroke-opacity="0.05942623106516577" stroke-width="0.5"/><line x1="301" y1="0" x2="301" y2="1080" stroke="#e0aaff" stroke-opacity="0.05942623106516577" stroke-width="0.5"/><line x1="344" y1="0" x2="344" y2="1080" stroke="#e0aaff" stroke-opacity="0.05942623106516577" stroke-width="0.5"/><line x1="387" y1="0" x2="387" y2="1080" stroke="#e0aaff" stroke-opacity="0.05942623106516577" stroke-width="0.5"/><line x1="430" y1="0" x2="430" y2="1080" stroke="#e0aaff" stroke-opacity="0.05942623106516577" stroke-width="0.5"/><line x1="473" y1="0" x2="473" y2="1080" stroke="#e0aaff" stroke-opacity="0.05942623106516577" stroke-width="0.5"/><line x1="516" y1="0" x2="516" y2="1080" stroke="#e0aaff" stroke-opacity="0.05942623106516577" stroke-width="0.5"/><line x1="559" y1="0" x2="559" y2="1080" stroke="#e0aaff" stroke-opacity="0.05942623106516577" stroke-width="0.5"/><line x1="602" y1="0" x2="602" y2="1080" stroke="#e0aaff" stroke-opacity="0.05942623106516577" stroke-width="0.5"/><line x1="645" y1="0" x2="645" y2="1080" stroke="#e0aaff" stroke-opacity="0.05942623106516577" stroke-width="0.5"/><line x1="688" y1="0" x2="688" y2="1080" stroke="#e0aaff" stroke-opacity="0.05942623106516577" stroke-width="0.5"/><line x1="731" y1="0" x2="731" y2="1080" stroke="#e0aaff" stroke-opacity="0.05942623106516577" stroke-width="0.5"/><line x1="774" y1="0" x2="774" y2="1080" stroke="#e0aaff" stroke-opacity="0.05942623106516577" stroke-width="0.5"/><line x1="817" y1="0" x2="817" y2="1080" stroke="#e0aaff" stroke-opacity="0.05942623106516577" stroke-width="0.5"/><line x1="860" y1="0" x2="860" y2="1080" stroke="#e0aaff" stroke-opacity="0.05942623106516577" stroke-width="0.5"/><line x1="903" y1="0" x2="903" y2="1080" stroke="#e0aaff" stroke-opacity="0.05942623106516577" stroke-width="0.5"/><line x1="946" y1="0" x2="946" y2="1080" stroke="#e0aaff" stroke-opacity="0.05942623106516577" stroke-width="0.5"/><line x1="989" y1="0" x2="989" y2="1080" stroke="#e0aaff" stroke-opacity="0.05942623106516577" stroke-width="0.5"/><line x1="1032" y1="0" x2="1032" y2="1080" stroke="#e0aaff" stroke-opacity="0.05942623106516577" stroke-width="0.5"/><line x1="1075" y1="0" x2="1075" y2="1080" stroke="#e0aaff" stroke-opacity="0.05942623106516577" stroke-width="0.5"/><line x1="1118" y1="0" x2="1118" y2="1080" stroke="#e0aaff" stroke-opacity="0.05942623106516577" stroke-width="0.5"/><line x1="1161" y1="0" x2="1161" y2="1080" stroke="#e0aaff" stroke-opacity="0.05942623106516577" stroke-width="0.5"/><line x1="1204" y1="0" x2="1204" y2="1080" stroke="#e0aaff" stroke-opacity="0.05942623106516577" stroke-width="0.5"/><line x1="1247" y1="0" x2="1247" y2="1080" stroke="#e0aaff" stroke-opacity="0.05942623106516577" stroke-width="0.5"/><line x1="1290" y1="0" x2="1290" y2="1080" stroke="#e0aaff" stroke-opacity="0.05942623106516577" stroke-width="0.5"/><line x1="1333" y1="0" x2="1333" y2="1080" stroke="#e0aaff" stroke-opacity="0.05942623106516577" stroke-width="0.5"/><line x1="1376" y1="0" x2="1376" y2="1080" stroke="#e0aaff" stroke-opacity="0.05942623106516577" stroke-width="0.5"/><line x1="1419" y1="0" x2="1419" y2="1080" stroke="#e0aaff" stroke-opacity="0.05942623106516577" stroke-width="0.5"/><line x1="1462" y1="0" x2="1462" y2="1080" stroke="#e0aaff" stroke-opacity="0.05942623106516577" stroke-width="0.5"/><line x1="1505" y1="0" x2="1505" y2="1080" stroke="#e0aaff" stroke-opacity="0.05942623106516577" stroke-width="0.5"/><line x1="1548" y1="0" x2="1548" y2="1080" stroke="#e0aaff" stroke-opacity="0.05942623106516577" stroke-width="0.5"/><line x1="1591" y1="0" x2="1591" y2="1080" stroke="#e0aaff" stroke-opacity="0.05942623106516577" stroke-width="0.5"/><line x1="1634" y1="0" x2="1634" y2="1080" stroke="#e0aaff" stroke-opacity="0.05942623106516577" stroke-width="0.5"/><line x1="1677" y1="0" x2="1677" y2="1080" stroke="#e0aaff" stroke-opacity="0.05942623106516577" stroke-width="0.5"/><line x1="1720" y1="0" x2="1720" y2="1080" stroke="#e0aaff" stroke-opacity="0.05942623106516577" stroke-width="0.5"/><line x1="1763" y1="0" x2="1763" y2="1080" stroke="#e0aaff" stroke-opacity="0.05942623106516577" stroke-width="0.5"/><line x1="1806" y1="0" x2="1806" y2="1080" stroke="#e0aaff" stroke-opacity="0.05942623106516577" stroke-width="0.5"/><line x1="1849" y1="0" x2="1849" y2="1080" stroke="#e0aaff" stroke-opacity="0.05942623106516577" stroke-width="0.5"/><line x1="1892" y1="0" x2="1892" y2="1080" stroke="#e0aaff" stroke-opacity="0.05942623106516577" stroke-width="0.5"/><line x1="0" y1="0" x2="1920" y2="0" stroke="#e0aaff" stroke-opacity="0.05942623106516577" stroke-width="0.5"/><line x1="0" y1="43" x2="1920" y2="43" stroke="#e0aaff" stroke-opacity="0.05942623106516577" stroke-width="0.5"/><line x1="0" y1="86" x2="1920" y2="86" stroke="#e0aaff" stroke-opacity="0.05942623106516577" stroke-width="0.5"/><line x1="0" y1="129" x2="1920" y2="129" stroke="#e0aaff" stroke-opacity="0.05942623106516577" stroke-width="0.5"/><line x1="0" y1="172" x2="1920" y2="172" stroke="#e0aaff" stroke-opacity="0.05942623106516577" stroke-width="0.5"/><line x1="0" y1="215" x2="1920" y2="215" stroke="#e0aaff" stroke-opacity="0.05942623106516577" stroke-width="0.5"/><line x1="0" y1="258" x2="1920" y2="258" stroke="#e0aaff" stroke-opacity="0.05942623106516577" stroke-width="0.5"/><line x1="0" y1="301" x2="1920" y2="301" stroke="#e0aaff" stroke-opacity="0.05942623106516577" stroke-width="0.5"/><line x1="0" y1="344" x2="1920" y2="344" stroke="#e0aaff" stroke-opacity="0.05942623106516577" stroke-width="0.5"/><line x1="0" y1="387" x2="1920" y2="387" stroke="#e0aaff" stroke-opacity="0.05942623106516577" stroke-width="0.5"/><line x1="0" y1="430" x2="1920" y2="430" stroke="#e0aaff" stroke-opacity="0.05942623106516577" stroke-width="0.5"/><line x1="0" y1="473" x2="1920" y2="473" stroke="#e0aaff" stroke-opacity="0.05942623106516577" stroke-width="0.5"/><line x1="0" y1="516" x2="1920" y2="516" stroke="#e0aaff" stroke-opacity="0.05942623106516577" stroke-width="0.5"/><line x1="0" y1="559" x2="1920" y2="559" stroke="#e0aaff" stroke-opacity="0.05942623106516577" stroke-width="0.5"/><line x1="0" y1="602" x2="1920" y2="602" stroke="#e0aaff" stroke-opacity="0.05942623106516577" stroke-width="0.5"/><line x1="0" y1="645" x2="1920" y2="645" stroke="#e0aaff" stroke-opacity="0.05942623106516577" stroke-width="0.5"/><line x1="0" y1="688" x2="1920" y2="688" stroke="#e0aaff" stroke-opacity="0.05942623106516577" stroke-width="0.5"/><line x1="0" y1="731" x2="1920" y2="731" stroke="#e0aaff" stroke-opacity="0.05942623106516577" stroke-width="0.5"/><line x1="0" y1="774" x2="1920" y2="774" stroke="#e0aaff" stroke-opacity="0.05942623106516577" stroke-width="0.5"/><line x1="0" y1="817" x2="1920" y2="817" stroke="#e0aaff" stroke-opacity="0.05942623106516577" stroke-width="0.5"/><line x1="0" y1="860" x2="1920" y2="860" stroke="#e0aaff" stroke-opacity="0.05942623106516577" stroke-width="0.5"/><line x1="0" y1="903" x2="1920" y2="903" stroke="#e0aaff" stroke-opacity="0.05942623106516577" stroke-width="0.5"/><line x1="0" y1="946" x2="1920" y2="946" stroke="#e0aaff" stroke-opacity="0.05942623106516577" stroke-width="0.5"/><line x1="0" y1="989" x2="1920" y2="989" stroke="#e0aaff" stroke-opacity="0.05942623106516577" stroke-width="0.5"/><line x1="0" y1="1032" x2="1920" y2="1032" stroke="#e0aaff" stroke-opacity="0.05942623106516577" stroke-width="0.5"/><line x1="0" y1="1075" x2="1920" y2="1075" stroke="#e0aaff" stroke-opacity="0.05942623106516577" stroke-width="0.5"/><rect x="0" y="1000" width="1920" height="80" fill="#160046" opacity="0.8"/><line x1="0" y1="1040" x2="1920" y2="1040" stroke="#c77dff" stroke-opacity="0.15" stroke-width="2" stroke-dasharray="30,20"/><rect x="0" y="930" width="1920" height="150" fill="url(#glow71)"/><text x="1900" y="1060" font-family="Arial, sans-serif" font-size="11" fill="#fff" opacity="0.08" text-anchor="end" letter-spacing="2">GTA 6 REWARDS · WALLPAPER 072</text>
</svg>