<?xml version="1.0" encoding="UTF-8"?>
<svg xmlns="http://www.w3.org/2000/svg" width="1920" height="1080" viewBox="0 0 1920 1080">
<defs>
    <linearGradient id="bg65" x1="0%" y1="0%" x2="0%" y2="100%">
      <stop offset="0%" stop-color="#10002b"/>
      <stop offset="50%" stop-color="#000000"/>
      <stop offset="100%" stop-color="#10002b"/>
    </linearGradient>
    <linearGradient id="sun65" x1="0%" y1="0%" x2="100%" y2="100%">
      <stop offset="0%" stop-color="#7b2cbf"/>
      <stop offset="100%" stop-color="#c77dff"/>
    </linearGradient>
    <radialGradient id="glow65" cx="50%" cy="70%" r="50%">
      <stop offset="0%" stop-color="#7b2cbf" stop-opacity="0.3"/>
      <stop offset="100%" stop-color="#10002b" stop-opacity="0"/>
    </radialGradient>
  </defs><rect width="1920" height="1080" fill="url(#bg65)"/><circle cx="758.4611622752764" cy="440.4838034511739" r="818.9189877637939" fill="#7b2cbf" opacity="0.0839135276698306"/><circle cx="958.4611622752764" cy="340.4838034511739" r="440.0955138821377" fill="#c77dff" opacity="0.12929642358778426"/><line x1="0" y1="980" x2="1920" y2="980" stroke="#c77dff" stroke-opacity="0.05" stroke-width="2"/><line x1="0" y1="935" x2="1920" y2="935" stroke="#c77dff" stroke-opacity="0.049" stroke-width="0.5"/><line x1="0" y1="890" x2="1920" y2="890" stroke="#c77dff" stroke-opacity="0.048" stroke-width="0.5"/><line x1="0" y1="845" x2="1920" y2="845" stroke="#c77dff" stroke-opacity="0.047" stroke-width="0.5"/><line x1="0" y1="800" x2="1920" y2="800" stroke="#c77dff" stroke-opacity="0.046" stroke-width="0.5"/><line x1="0" y1="755" x2="1920" y2="755" stroke="#c77dff" stroke-opacity="0.045" stroke-width="0.5"/><line x1="0" y1="710" x2="1920" y2="710" stroke="#c77dff" stroke-opacity="0.044" stroke-width="0.5"/><line x1="0" y1="665" x2="1920" y2="665" stroke="#c77dff" stroke-opacity="0.043" stroke-width="0.5"/><line x1="0" y1="620" x2="1920" y2="620" stroke="#c77dff" stroke-opacity="0.041999999999999996" stroke-width="0.5"/><line x1="0" y1="575" x2="1920" y2="575" stroke="#c77dff" stroke-opacity="0.041" stroke-width="0.5"/><line x1="0" y1="530" x2="1920" y2="530" stroke="#c77dff" stroke-opacity="0.04" stroke-width="0.5"/><line x1="0" y1="485" x2="1920" y2="485" stroke="#c77dff" stroke-opacity="0.039" stroke-width="0.5"/><line x1="0" y1="440" x2="1920" y2="440" stroke="#c77dff" stroke-opacity="0.038" stroke-width="0.5"/><line x1="0" y1="395" x2="1920" y2="395" stroke="#c77dff" stroke-opacity="0.037" stroke-width="0.5"/><line x1="0" y1="350" x2="1920" y2="350" stroke="#c77dff" stroke-opacity="0.036" stroke-width="0.5"/><line x1="0" y1="305" x2="1920" y2="305" stroke="#c77dff" stroke-opacity="0.034999999999999996" stroke-width="0.5"/><line x1="0" y1="260" x2="1920" y2="260" stroke="#c77dff" stroke-opacity="0.033999999999999996" stroke-width="0.5"/><line x1="0" y1="215" x2="1920" y2="215" stroke="#c77dff" stroke-opacity="0.033" stroke-width="0.5"/><line x1="0" y1="170" x2="1920" y2="170" stroke="#c77dff" stroke-opacity="0.032" stroke-width="0.5"/><line x1="0" y1="125" x2="1920" y2="125" stroke="#c77dff" stroke-opacity="0.031" stroke-width="0.5"/><line x1="560" y1="1080" x2="860" y2="580" stroke="#7b2cbf" stroke-opacity="0.04" stroke-width="1"/><line x1="640" y1="1080" x2="880" y2="590" stroke="#7b2cbf" stroke-opacity="0.04" stroke-width="1"/><line x1="720" y1="1080" x2="900" y2="600" stroke="#7b2cbf" stroke-opacity="0.04" stroke-width="1"/><line x1="800" y1="1080" x2="920" y2="610" stroke="#7b2cbf" stroke-opacity="0.04" stroke-width="1"/><line x1="880" y1="1080" x2="940" y2="620" stroke="#7b2cbf" stroke-opacity="0.04" stroke-width="1"/><line x1="960" y1="1080" x2="960" y2="630" stroke="#7b2cbf" stroke-opacity="0.04" stroke-width="1"/><line x1="1040" y1="1080" x2="980" y2="620" stroke="#7b2cbf" stroke-opacity="0.04" stroke-width="1"/><line x1="1120" y1="1080" x2="1000" y2="610" stroke="#7b2cbf" stroke-opacity="0.04" stroke-width="1"/><line x1="1200" y1="1080" x2="1020" y2="600" stroke="#7b2cbf" stroke-opacity="0.04" stroke-width="1"/><line x1="1280" y1="1080" x2="1040" y2="590" stroke="#7b2cbf" stroke-opacity="0.04" stroke-width="1"/><line x1="1360" y1="1080" x2="1060" y2="580" stroke="#7b2cbf" stroke-opacity="0.04" stroke-width="1"/><circle cx="982.71403049182" cy="192.2856988250943" r="94.05448108773085" fill="url(#sun65)" opacity="0.6598763125855187"/><circle cx="982.71403049182" cy="192.2856988250943" r="89.05448108773085" fill="#10002b" opacity="0.3"/><pattern id="scan65" width="1920" height="4" patternUnits="userSpaceOnUse">
      <line x1="0" y1="0" x2="1920" y2="0" stroke="#000" stroke-opacity="0.05" stroke-width="1"/>
    </pattern>
    <rect width="1920" height="1080" fill="url(#scan65)"/><circle cx="730.8974085959833" cy="397.2212231339005" r="1.6528319840209633" fill="#fff" opacity="0.6480886059925166"/><circle cx="1643.9966689897694" cy="114.59496968672494" r="1.957815781225873" fill="#fff" opacity="0.3818031481890481"/><circle cx="640.7070825995661" cy="235.95607064942737" r="0.7697635125996926" fill="#fff" opacity="0.6458594399611138"/><circle cx="1560.2636382636297" cy="22.503468269133815" r="1.841915036747678" fill="#fff" opacity="0.6666630473143103"/><circle cx="882.2592032519773" cy="365.42337508067106" r="1.8982059245226455" fill="#fff" opacity="0.5360081702321787"/><circle cx="197.102040992375" cy="166.67271901077422" r="0.5170789662555509" fill="#fff" opacity="0.3847814952919216"/><circle cx="563.4209361494102" cy="301.04491385748724" r="1.23232050617978" fill="#fff" opacity="0.5238493874957435"/><circle cx="829.5490780914084" cy="249.54226551799624" r="0.5156142646483179" fill="#fff" opacity="0.32929861921102244"/><circle cx="1849.2114516927886" cy="281.4985032774272" r="1.2789149111553364" fill="#fff" opacity="0.4953295163100887"/><circle cx="1429.61135107782" cy="89.13898755822773" r="1.7036984955667747" fill="#fff" opacity="0.6105220144173414"/><circle cx="391.3020297305896" cy="196.7980563204731" r="1.5075950006739225" fill="#fff" opacity="0.3685858452153825"/><circle cx="957.2008182846943" cy="295.9641245771116" r="1.996091532170794" fill="#fff" opacity="0.3011127795793844"/><circle cx="1559.2965946251752" cy="116.81513949968274" r="1.1435563764869134" fill="#fff" opacity="0.6090009068625516"/><circle cx="513.0723096134775" cy="23.513436036071145" r="1.0052028240182445" fill="#fff" opacity="0.4200249559292628"/><circle cx="204.9257134378249" cy="414.35642822421073" r="1.0116044023334059" fill="#fff" opacity="0.3385124980794528"/><circle cx="1365.5389097532116" cy="279.91895853539904" r="1.235555417890557" fill="#fff" opacity="0.3416199813926639"/><circle cx="1846.3392300732294" cy="320.5154287518271" r="0.9342674759529223" fill="#fff" opacity="0.6077631678450302"/><circle cx="1669.7446913434528" cy="215.5308069604288" r="0.9564837878468642" fill="#fff" opacity="0.6617957254549944"/><circle cx="365.5881375925588" cy="187.54598026991496" r="0.7229165318941038" fill="#fff" opacity="0.5812276281372708"/><circle cx="1170.0881010038051" cy="426.4208123968963" r="0.522395629790238" fill="#fff" opacity="0.7412521256462792"/><circle cx="1910.1507443166688" cy="429.5061070689713" r="0.8041064826082687" fill="#fff" opacity="0.3237666297526487"/><circle cx="674.7518618485778" cy="275.4048544735193" r="1.1303259079880839" fill="#fff" opacity="0.6922790082852075"/><circle cx="878.236940260566" cy="169.71913559961112" r="1.6458967631091124" fill="#fff" opacity="0.7830560106744655"/><circle cx="1217.6529039297377" cy="348.7908046610632" r="1.0034885079375209" fill="#fff" opacity="0.2977664954256654"/><circle cx="304.74199987592687" cy="203.10314111297558" r="1.1548384750855245" fill="#fff" opacity="0.23910075045169815"/><circle cx="1023.0356090662619" cy="155.78516953340386" r="1.9844549447261857" fill="#fff" opacity="0.5937274263691454"/><circle cx="57.907743765485414" cy="124.34707631830756" r="1.7821450591511432" fill="#fff" opacity="0.2766815728220813"/><circle cx="257.97196275041716" cy="377.94772939988127" r="0.9935000761164119" fill="#fff" opacity="0.7504147965345567"/><circle cx="896.2835702896778" cy="238.83215593519438" r="1.390706434587647" fill="#fff" opacity="0.657413116902442"/><circle cx="965.4184898001649" cy="358.4890548154919" r="0.7264770871788443" fill="#fff" opacity="0.43633671897378207"/><circle cx="396.62960627969113" cy="182.33943960963268" r="1.0058341817943925" fill="#fff" opacity="0.41188353696183383"/><circle cx="0.8976441623870386" cy="333.47861875162425" r="1.047443289902863" fill="#fff" opacity="0.20348537429317026"/><circle cx="883.6204739482189" cy="405.0601680439571" r="1.950801305577811" fill="#fff" opacity="0.41554243928183393"/><circle cx="771.4375928350346" cy="75.31729728619506" r="1.3176820242818637" fill="#fff" opacity="0.40792691782301455"/><circle cx="1827.4158051394427" cy="115.96327266561876" r="0.7416174847729544" fill="#fff" opacity="0.5019359382106774"/><circle cx="649.3532454989277" cy="92.58734403098639" r="1.3402231817227377" fill="#fff" opacity="0.4231830452622807"/><circle cx="197.0710655015593" cy="210.1146805328584" r="1.4472850109327782" fill="#fff" opacity="0.49908846027662246"/><circle cx="604.0677891587997" cy="98.26185067050667" r="0.7060095577514753" fill="#fff" opacity="0.4416133244153143"/><circle cx="1375.6964469178804" cy="88.75482830609074" r="1.3714371883243874" fill="#fff" opacity="0.5275842239911631"/><circle cx="55.74929015146319" cy="222.27647314925593" r="0.8877127854823398" fill="#fff" opacity="0.7547241423639293"/><circle cx="631.5161317567146" cy="63.0561333520003" r="1.7383360332432984" fill="#fff" opacity="0.5455924758560937"/><circle cx="427.68222982708414" cy="429.38607321991265" r="0.9678277427954198" fill="#fff" opacity="0.7318772158892539"/><circle cx="1132.323463524767" cy="72.46279566932068" r="0.8749058978573666" fill="#fff" opacity="0.7534697831500019"/><circle cx="487.0746563018939" cy="330.682256630315" r="1.8364176097876432" fill="#fff" opacity="0.5630178550637834"/><circle cx="599.0287583970998" cy="182.223810685385" r="0.8301778790378427" fill="#fff" opacity="0.3941349890069419"/><circle cx="237.17089539327912" cy="326.15133562082224" r="1.0041816836465574" fill="#fff" opacity="0.7631514797832704"/><circle cx="126.78956288071106" cy="36.06982387697087" r="0.7279726659711387" fill="#fff" opacity="0.6522440036414758"/><circle cx="370.0785913434994" cy="232.04098737799583" r="0.6398501632827917" fill="#fff" opacity="0.39127427520958574"/><circle cx="588.3921894310955" cy="173.96738564175726" r="1.5162679546084878" fill="#fff" opacity="0.27345824741606095"/><circle cx="810.044106433644" cy="326.99813680141193" r="1.6255643964106135" fill="#fff" opacity="0.31983171205963745"/><circle cx="370.09809010897254" cy="267.13374956583925" r="1.8359846272123943" fill="#fff" opacity="0.3861345962588989"/><circle cx="1846.9621664115605" cy="303.3454198873009" r="1.1521297331555118" fill="#fff" opacity="0.2651722707937407"/><circle cx="961.0496970268549" cy="139.95397788937063" r="1.257715432382588" fill="#fff" opacity="0.6935859795877677"/><circle cx="295.30689559301993" cy="157.87815093944738" r="1.90274290726584" fill="#fff" opacity="0.45094204527580695"/><circle cx="651.9394922284268" cy="124.38445088928202" r="0.8712712280385362" fill="#fff" opacity="0.7140149864167942"/><circle cx="1373.5284178176728" cy="325.46564621978104" r="1.7470279833644227" fill="#fff" opacity="0.24595708382454634"/><circle cx="1866.8167492623481" cy="305.92795687586255" r="0.5709502643605113" fill="#fff" opacity="0.6913953061894037"/><circle cx="678.7502415568453" cy="88.15534101243954" r="1.2367524483093881" fill="#fff" opacity="0.2006448803005379"/><circle cx="20.523554389486915" cy="27.513414843825952" r="1.527252040227701" fill="#fff" opacity="0.5836593512407642"/><circle cx="1248.1829097792934" cy="281.24922832689464" r="0.5387698386420425" fill="#fff" opacity="0.46553081787785766"/><circle cx="942.504499774078" cy="132.32475996490678" r="0.5097504856553279" fill="#fff" opacity="0.5138369760275439"/><circle cx="1506.7811330190816" cy="300.09972133769185" r="0.9652000940323808" fill="#fff" opacity="0.7949739901337247"/><circle cx="35.664711900908664" cy="241.0159609282892" r="1.2483642791044816" fill="#fff" opacity="0.3631176611788379"/><circle cx="1764.6169517572544" cy="291.43760195454524" r="1.231374552527297" fill="#fff" opacity="0.4106814671332672"/><circle cx="1556.4450215446868" cy="75.50942408561461" r="1.2314604988162081" fill="#fff" opacity="0.6012702089737333"/><circle cx="103.83834155831448" cy="356.32384970139805" r="0.8833322087031166" fill="#fff" opacity="0.31916069139706915"/><circle cx="587.9957598326718" cy="135.198703238554" r="1.4558525470681145" fill="#fff" opacity="0.5020759500800809"/><circle cx="817.3940270062055" cy="428.0261637782739" r="1.2827614363708444" fill="#fff" opacity="0.6389693836772277"/><circle cx="41.612238148602714" cy="122.7273172500374" r="1.5000486104982087" fill="#fff" opacity="0.5538291253973332"/><circle cx="436.7283355716449" cy="112.99589869775713" r="1.0682807186544596" fill="#fff" opacity="0.616858162269196"/><circle cx="1322.4694538215335" cy="110.80942765595611" r="0.9913034691687914" fill="#fff" opacity="0.6688070043150351"/><circle cx="263.64887914239637" cy="122.46323016902042" r="1.6933020536539383" fill="#fff" opacity="0.5667181032166626"/><circle cx="1799.295445801526" cy="48.29830029986294" r="1.4051195648277923" fill="#fff" opacity="0.2792398794273008"/><circle cx="480.7965781914062" cy="306.04271756905194" r="1.4682970748907647" fill="#fff" opacity="0.4325500176363974"/><circle cx="168.68401367419492" cy="17.612930421161682" r="1.7673181244794554" fill="#fff" opacity="0.4931393310178861"/><circle cx="1747.5427400664294" cy="70.97413395880119" r="0.6310837958313253" fill="#fff" opacity="0.6599118220293689"/><circle cx="624.1457539759915" cy="277.8164927712214" r="0.7003858382116039" fill="#fff" opacity="0.6712361930104056"/><circle cx="196.56194020913958" cy="58.428780558153235" r="0.9421438668952659" fill="#fff" opacity="0.3332555866179186"/><circle cx="107.27224590891791" cy="388.429514833826" r="1.324621834984194" fill="#fff" opacity="0.7754110250099122"/><circle cx="1207.8939381073913" cy="32.14385764304173" r="1.2373666923347317" fill="#fff" opacity="0.256458448026436"/><circle cx="1280.5356487633044" cy="430.660017426745" r="1.5108907272831749" fill="#fff" opacity="0.7007802845679179"/><circle cx="12.88434773983535" cy="120.49824082676746" r="1.2607424446057394" fill="#fff" opacity="0.7109333678406975"/><rect x="22.60622559641633" y="724.1214749692291" width="79.22120138286175" height="249.16845572860177" fill="#000011" opacity="0.6239451699480287" rx="2"/><rect x="59.5645720890175" y="734.1214749692291" width="5.304508397659405" height="6.78678855504533" fill="#c77dff" opacity="0.3024156097793988" rx="1"/><rect x="39.759271743302065" y="737.5148692467518" width="5.304508397659405" height="6.78678855504533" fill="#7b2cbf" opacity="0.1512078048896994" rx="1"/><rect x="58.38639986826722" y="817.177626878763" width="7.660852839159977" height="6.099307686113591" fill="#c77dff" opacity="0.33191160155271915" rx="1"/><rect x="38.58109952255178" y="820.2272807218199" width="7.660852839159977" height="6.099307686113591" fill="#7b2cbf" opacity="0.16595580077635957" rx="1"/><rect x="57.647193436661546" y="900.233778788297" width="9.139265702371315" height="8.449401356850146" fill="#c77dff" opacity="0.503697736422461" rx="1"/><rect x="37.84189309094611" y="904.458479466722" width="9.139265702371315" height="8.449401356850146" fill="#7b2cbf" opacity="0.2518488682112305" rx="1"/><rect x="104.93407168815664" y="728.8237767128329" width="34.10864335114803" height="244.46615398499793" fill="#000011" opacity="0.41773995182424317" rx="2"/><rect x="116.8421670351318" y="738.8237767128329" width="10.292452657197707" height="6.783141822736511" fill="#c77dff" opacity="0.3246238866878264" rx="1"/><rect x="108.31500619734479" y="742.2153476242012" width="10.292452657197707" height="6.783141822736511" fill="#7b2cbf" opacity="0.1623119433439132" rx="1"/><rect x="119.2487860918201" y="799.9403152090824" width="5.479214543821107" height="9.889352304835187" fill="#c77dff" opacity="0.3047121988620405" rx="1"/><rect x="110.72162525403309" y="804.8849913615" width="5.479214543821107" height="9.889352304835187" fill="#7b2cbf" opacity="0.15235609943102024" rx="1"/><rect x="117.62625764553539" y="861.0568537053318" width="8.72427143639053" height="7.0424190762085885" fill="#c77dff" opacity="0.357281638508961" rx="1"/><rect x="109.09909680774838" y="864.5780632434361" width="8.72427143639053" height="7.0424190762085885" fill="#7b2cbf" opacity="0.1786408192544805" rx="1"/><rect x="119.67288278240969" y="922.1733922015814" width="4.631021162641938" height="9.859450915795623" fill="#c77dff" opacity="0.34236519232913043" rx="1"/><rect x="111.14572194462268" y="927.1031176594792" width="4.631021162641938" height="9.859450915795623" fill="#7b2cbf" opacity="0.17118259616456521" rx="1"/><rect x="195.52148356315632" y="729.1872200158396" width="61.250113703135895" height="244.10271068199134" fill="#10002b" opacity="0.45196768281794336" rx="2"/><rect x="221.4619160904778" y="739.1872200158396" width="9.36924864849291" height="9.57514463355186" fill="#c77dff" opacity="0.4195028844800551" rx="1"/><rect x="206.14938766469385" y="743.9747923326155" width="9.36924864849291" height="9.57514463355186" fill="#7b2cbf" opacity="0.20975144224002756" rx="1"/><rect x="223.88255875756008" y="779.8710051295047" width="4.527963314328334" height="7.041584699657183" fill="#c77dff" opacity="0.571345816382986" rx="1"/><rect x="208.5700303317761" y="783.3917974793334" width="4.527963314328334" height="7.041584699657183" fill="#7b2cbf" opacity="0.285672908191493" rx="1"/><rect x="222.4774271908947" y="820.55479024317" width="7.338226447659132" height="7.305693880958877" fill="#c77dff" opacity="0.14534286669114205" rx="1"/><rect x="207.16489876511073" y="824.2076371836495" width="7.338226447659132" height="7.305693880958877" fill="#7b2cbf" opacity="0.07267143334557102" rx="1"/><rect x="220.9940420197394" y="861.2385753568352" width="10.304996789969735" height="7.958641826631185" fill="#c77dff" opacity="0.33434293589888675" rx="1"/><rect x="205.68151359395543" y="865.2178962701508" width="10.304996789969735" height="7.958641826631185" fill="#7b2cbf" opacity="0.16717146794944338" rx="1"/><rect x="223.9710724075808" y="901.9223604705005" width="4.350936014286926" height="7.446360940450421" fill="#c77dff" opacity="0.4063279891634193" rx="1"/><rect x="208.65854398179684" y="905.6455409407257" width="4.350936014286926" height="7.446360940450421" fill="#7b2cbf" opacity="0.20316399458170964" rx="1"/><rect x="221.8437609547936" y="942.6061455841657" width="8.605558919861345" height="7.169829667818227" fill="#c77dff" opacity="0.5524547175859229" rx="1"/><rect x="206.53123252900963" y="946.1910604180748" width="8.605558919861345" height="7.169829667818227" fill="#7b2cbf" opacity="0.27622735879296145" rx="1"/><rect x="262.64670004092653" y="612.174434543628" width="31.580111515144843" height="361.11549615420296" fill="#000011" opacity="0.6361786906226023" rx="2"/><rect x="275.24408323636715" y="622.174434543628" width="6.38534512426363" height="8.104442153615981" fill="#c77dff" opacity="0.16840743102794686" rx="1"/><rect x="267.34905535758094" y="626.226655620436" width="6.38534512426363" height="8.104442153615981" fill="#7b2cbf" opacity="0.08420371551397343" rx="1"/><rect x="273.9272451112936" y="742.546266595029" width="9.019021374410721" height="8.7137654588357" fill="#c77dff" opacity="0.4430039869488692" rx="1"/><rect x="266.0322172325074" y="746.9031493244469" width="9.019021374410721" height="8.7137654588357" fill="#7b2cbf" opacity="0.2215019934744346" rx="1"/><rect x="273.51693396921536" y="862.9180986464299" width="9.839643658567137" height="7.963924649628793" fill="#c77dff" opacity="0.14333383299953628" rx="1"/><rect x="265.62190609042915" y="866.9000609712443" width="9.839643658567137" height="7.963924649628793" fill="#7b2cbf" opacity="0.07166691649976814" rx="1"/><rect x="376.1721312448953" y="644.174222704995" width="65.71646105864002" height="329.11570799283584" fill="#000011" opacity="0.6158558989911936" rx="2"/><rect x="404.069366669362" y="654.174222704995" width="9.92199020970659" height="8.605734110485235" fill="#c77dff" opacity="0.12425559913372985" rx="1"/><rect x="387.64025140470204" y="658.4770897602376" width="9.92199020970659" height="8.605734110485235" fill="#7b2cbf" opacity="0.06212779956686493" rx="1"/><rect x="406.4086803110972" y="763.8794587026069" width="5.243362926236205" height="9.771737386419376" fill="#c77dff" opacity="0.4038986000008645" rx="1"/><rect x="389.97956504643724" y="768.7653273958166" width="5.243362926236205" height="9.771737386419376" fill="#7b2cbf" opacity="0.20194930000043226" rx="1"/><rect x="405.3069750176696" y="873.584694700219" width="7.4467735130914425" height="9.123159307782343" fill="#c77dff" opacity="0.37338422398860205" rx="1"/><rect x="388.8778597530096" y="878.1462743541101" width="7.4467735130914425" height="9.123159307782343" fill="#7b2cbf" opacity="0.18669211199430102" rx="1"/><rect x="446.69887551241317" y="785.7153449174285" width="37.78687175544604" height="187.57458578040232" fill="#000011" opacity="0.6799843174591624" rx="2"/><rect x="461.4803658415496" y="795.7153449174285" width="8.22389109717307" height="9.137975659020706" fill="#c77dff" opacity="0.4181016534376195" rx="1"/><rect x="452.03364790268813" y="800.2843327469388" width="8.22389109717307" height="9.137975659020706" fill="#7b2cbf" opacity="0.20905082671880976" rx="1"/><rect x="460.966553414021" y="858.2402068442293" width="9.251515952230317" height="6.038104251035979" fill="#c77dff" opacity="0.3195476075214212" rx="1"/><rect x="451.51983547515954" y="861.2592589697473" width="9.251515952230317" height="6.038104251035979" fill="#7b2cbf" opacity="0.1597738037607106" rx="1"/><rect x="460.41538399702546" y="920.7650687710301" width="10.353854786221369" height="6.664469567282235" fill="#c77dff" opacity="0.29623263906599784" rx="1"/><rect x="450.968666058164" y="924.0973035546712" width="10.353854786221369" height="6.664469567282235" fill="#7b2cbf" opacity="0.14811631953299892" rx="1"/><rect x="534.8889183871909" y="815.8823563987116" width="30.62497343416907" height="157.4075742991193" fill="#10002b" opacity="0.5747499959251727" rx="2"/><rect x="546.8530940485099" y="825.8823563987116" width="6.69662211153112" height="7.717102217887785" fill="#c77dff" opacity="0.4234251127167198" rx="1"/><rect x="539.1968506899676" y="829.7409075076555" width="6.69662211153112" height="7.717102217887785" fill="#7b2cbf" opacity="0.2117125563583599" rx="1"/><rect x="546.166596554703" y="857.3638712585355" width="8.069617099144873" height="7.333787465778595" fill="#c77dff" opacity="0.16972303196548555" rx="1"/><rect x="538.5103531961607" y="861.0307649914248" width="8.069617099144873" height="7.333787465778595" fill="#7b2cbf" opacity="0.08486151598274277" rx="1"/><rect x="545.4936699674937" y="888.8453861183593" width="9.415470273563514" height="6.591367496315243" fill="#c77dff" opacity="0.500180258299266" rx="1"/><rect x="537.8374266089514" y="892.141069866517" width="9.415470273563514" height="6.591367496315243" fill="#7b2cbf" opacity="0.250090129149633" rx="1"/><rect x="545.907217379151" y="920.3269009781832" width="8.588375450248918" height="8.53335445526367" fill="#c77dff" opacity="0.2531586675329969" rx="1"/><rect x="538.2509740206087" y="924.593578205815" width="8.588375450248918" height="8.53335445526367" fill="#7b2cbf" opacity="0.12657933376649844" rx="1"/><rect x="546.2589217531886" y="951.808415838007" width="7.8849667021736884" height="8.263894924489756" fill="#c77dff" opacity="0.48769803356558505" rx="1"/><rect x="538.6026783946463" y="955.9403633002519" width="7.8849667021736884" height="8.263894924489756" fill="#7b2cbf" opacity="0.24384901678279253" rx="1"/><rect x="622.100084890804" y="818.312999493981" width="36.19136915220678" height="154.97693120384983" fill="#000011" opacity="0.4349681786110085" rx="2"/><rect x="637.1253200641024" y="828.312999493981" width="6.140898805610114" height="9.66969297632335" fill="#c77dff" opacity="0.4062955258195977" rx="1"/><rect x="628.0774777760507" y="833.1478459821427" width="6.140898805610114" height="9.66969297632335" fill="#7b2cbf" opacity="0.20314776290979886" rx="1"/><rect x="637.3864466280476" y="867.0572322949434" width="5.618645677719881" height="8.890284558499765" fill="#c77dff" opacity="0.3947544975426873" rx="1"/><rect x="628.3386043399959" y="871.5023745741934" width="5.618645677719881" height="8.890284558499765" fill="#7b2cbf" opacity="0.19737724877134366" rx="1"/><rect x="637.4017697128302" y="905.8014650959059" width="5.587999508154578" height="9.96025991811423" fill="#c77dff" opacity="0.3195301654794091" rx="1"/><rect x="628.3539274247785" y="910.781595054963" width="5.587999508154578" height="9.96025991811423" fill="#7b2cbf" opacity="0.15976508273970455" rx="1"/><rect x="637.7473127416974" y="944.5456978968684" width="4.896913450420115" height="7.484953091825581" fill="#c77dff" opacity="0.42230673307140976" rx="1"/><rect x="628.6994704536457" y="948.2881744427813" width="4.896913450420115" height="7.484953091825581" fill="#7b2cbf" opacity="0.21115336653570488" rx="1"/><rect x="706.4668236279424" y="744.0433959346366" width="79.46704949007068" height="229.2465347631943" fill="#10002b" opacity="0.6524000900453888" rx="2"/><rect x="743.9861623992985" y="754.0433959346366" width="4.428371947358449" height="8.256586119126665" fill="#c77dff" opacity="0.12581744781365095" rx="1"/><rect x="724.1194000267808" y="758.1716889941999" width="4.428371947358449" height="8.256586119126665" fill="#7b2cbf" opacity="0.06290872390682548" rx="1"/><rect x="742.7054888783608" y="811.3550296254351" width="6.989718989233887" height="6.738210169770338" fill="#c77dff" opacity="0.30872959452884496" rx="1"/><rect x="722.8387265058432" y="814.7241347103203" width="6.989718989233887" height="6.738210169770338" fill="#7b2cbf" opacity="0.15436479726442248" rx="1"/><rect x="741.131917752949" y="868.6666633162338" width="10.136861240057474" height="8.016532155223315" fill="#c77dff" opacity="0.18936132143469558" rx="1"/><rect x="721.2651553804313" y="872.6749293938454" width="10.136861240057474" height="8.016532155223315" fill="#7b2cbf" opacity="0.09468066071734779" rx="1"/><rect x="741.7208918629369" y="925.9782970070323" width="8.958913020081564" height="8.285019396404973" fill="#c77dff" opacity="0.5408235376330147" rx="1"/><rect x="721.8541294904193" y="930.1208067052348" width="8.958913020081564" height="8.285019396404973" fill="#7b2cbf" opacity="0.27041176881650736" rx="1"/><rect x="786.0850980720596" y="767.1336794428373" width="82.80911039393607" height="206.15625125499355" fill="#10002b" opacity="0.42148521673434536" rx="2"/><rect x="821.7563553203643" y="777.1336794428373" width="11.466595897326851" height="8.513691952106006" fill="#c77dff" opacity="0.28857630858863154" rx="1"/><rect x="801.0540777218802" y="781.3905254188903" width="11.466595897326851" height="8.513691952106006" fill="#7b2cbf" opacity="0.14428815429431577" rx="1"/><rect x="822.6091449805473" y="828.6727422565857" width="9.76101657696092" height="8.506836129004796" fill="#c77dff" opacity="0.36224500179808705" rx="1"/><rect x="801.9068673820632" y="832.9261603210881" width="9.76101657696092" height="8.506836129004796" fill="#7b2cbf" opacity="0.18112250089904353" rx="1"/><rect x="821.9469090349298" y="880.2118050703341" width="11.085488468195658" height="6.535294321490287" fill="#c77dff" opacity="0.5130334886519782" rx="1"/><rect x="801.2446314364457" y="883.4794522310792" width="11.085488468195658" height="6.535294321490287" fill="#7b2cbf" opacity="0.2565167443259891" rx="1"/><rect x="825.0268468205795" y="931.7508678840825" width="4.925612896896343" height="7.352369219379586" fill="#c77dff" opacity="0.10291132042252257" rx="1"/><rect x="804.3245692220954" y="935.4270524937723" width="4.925612896896343" height="7.352369219379586" fill="#7b2cbf" opacity="0.051455660211261287" rx="1"/><rect x="888.3035410629784" y="724.181190162008" width="65.6267294184367" height="249.10874053582288" fill="#10002b" opacity="0.5785218230864317" rx="2"/><rect x="918.034743333053" y="734.181190162008" width="6.1643248782875775" height="6.6483521742393155" fill="#c77dff" opacity="0.44373783852060744" rx="1"/><rect x="901.6280609784438" y="737.5053662491276" width="6.1643248782875775" height="6.6483521742393155" fill="#7b2cbf" opacity="0.22186891926030372" rx="1"/><rect x="915.2928899192425" y="765.3197827289858" width="11.648031705908485" height="9.77044067433347" fill="#c77dff" opacity="0.39697576253604516" rx="1"/><rect x="898.8862075646333" y="770.2050030661526" width="11.648031705908485" height="9.77044067433347" fill="#7b2cbf" opacity="0.19848788126802258" rx="1"/><rect x="917.0725505226884" y="796.4583752959637" width="8.088710499016734" height="6.010684935378536" fill="#c77dff" opacity="0.16428748184449216" rx="1"/><rect x="900.6658681680792" y="799.463717763653" width="8.088710499016734" height="6.010684935378536" fill="#7b2cbf" opacity="0.08214374092224608" rx="1"/><rect x="916.759960866054" y="827.5969678629415" width="8.71388981228552" height="7.321609849417957" fill="#c77dff" opacity="0.19595207767466832" rx="1"/><rect x="900.3532785114448" y="831.2577727876504" width="8.71388981228552" height="7.321609849417957" fill="#7b2cbf" opacity="0.09797603883733416" rx="1"/><rect x="915.8285197422398" y="858.7355604299194" width="10.576772059913903" height="8.26577527035628" fill="#c77dff" opacity="0.4869822090228513" rx="1"/><rect x="899.4218373876306" y="862.8684480650975" width="10.576772059913903" height="8.26577527035628" fill="#7b2cbf" opacity="0.24349110451142564" rx="1"/><rect x="916.9809684162408" y="889.8741529968972" width="8.271874711912096" height="8.363748422442876" fill="#c77dff" opacity="0.13793169896535848" rx="1"/><rect x="900.5742860616316" y="894.0560272081186" width="8.271874711912096" height="8.363748422442876" fill="#7b2cbf" opacity="0.06896584948267924" rx="1"/><rect x="917.1522140955399" y="921.0127455638751" width="7.929383353313753" height="6.33930820420834" fill="#c77dff" opacity="0.1268386399901562" rx="1"/><rect x="900.7455317409307" y="924.1823996659792" width="7.929383353313753" height="6.33930820420834" fill="#7b2cbf" opacity="0.0634193199950781" rx="1"/><rect x="916.9838171233808" y="952.151338130853" width="8.266177297631785" height="9.238058825777392" fill="#c77dff" opacity="0.3156262343552956" rx="1"/><rect x="900.5771347687717" y="956.7703675437417" width="8.266177297631785" height="9.238058825777392" fill="#7b2cbf" opacity="0.1578131171776478" rx="1"/><rect x="960.5336172065078" y="633.3645060270477" width="79.80958672003112" height="339.9254246707832" fill="#10002b" opacity="0.41028474306461515" rx="2"/><rect x="994.7365353213942" y="643.3645060270477" width="11.403750490258389" height="8.826707758667578" fill="#c77dff" opacity="0.22013729198838988" rx="1"/><rect x="974.7841386413864" y="647.7778599063815" width="11.403750490258389" height="8.826707758667578" fill="#7b2cbf" opacity="0.11006864599419494" rx="1"/><rect x="997.2420627242518" y="685.8551841108956" width="6.392695684543042" height="8.535454625854141" fill="#c77dff" opacity="0.4518729258449452" rx="1"/><rect x="977.2896660442441" y="690.1229114238226" width="6.392695684543042" height="8.535454625854141" fill="#7b2cbf" opacity="0.2259364629224726" rx="1"/><rect x="996.9560441216352" y="728.3458621947435" width="6.964732889776289" height="6.849601610761509" fill="#c77dff" opacity="0.36512166526287837" rx="1"/><rect x="977.0036474416274" y="731.7706630001243" width="6.964732889776289" height="6.849601610761509" fill="#7b2cbf" opacity="0.18256083263143918" rx="1"/><rect x="995.1550958720397" y="770.8365402785914" width="10.56662938896721" height="6.145577427965025" fill="#c77dff" opacity="0.44860731424964206" rx="1"/><rect x="975.202699192032" y="773.9093289925739" width="10.56662938896721" height="6.145577427965025" fill="#7b2cbf" opacity="0.22430365712482103" rx="1"/><rect x="994.6430985959347" y="813.3272183624392" width="11.590623941177181" height="9.055062829296817" fill="#c77dff" opacity="0.13510413284765188" rx="1"/><rect x="974.690701915927" y="817.8547497770876" width="11.590623941177181" height="9.055062829296817" fill="#7b2cbf" opacity="0.06755206642382594" rx="1"/><rect x="996.0750524408825" y="855.8178964462873" width="8.726716251281722" height="6.68736127593726" fill="#c77dff" opacity="0.1527459399431818" rx="1"/><rect x="976.1226557608747" y="859.1615770842559" width="8.726716251281722" height="6.68736127593726" fill="#7b2cbf" opacity="0.0763729699715909" rx="1"/><rect x="994.6798689061962" y="898.308574530135" width="11.51708332065425" height="9.199305966310042" fill="#c77dff" opacity="0.3063623947804706" rx="1"/><rect x="974.7274722261885" y="902.9082275132901" width="11.51708332065425" height="9.199305966310042" fill="#7b2cbf" opacity="0.1531811973902353" rx="1"/><rect x="996.7737159411828" y="940.799252613983" width="7.329389250681128" height="9.207609309630378" fill="#c77dff" opacity="0.2013082647932014" rx="1"/><rect x="976.8213192611751" y="945.4030572687982" width="7.329389250681128" height="9.207609309630378" fill="#7b2cbf" opacity="0.1006541323966007" rx="1"/><rect x="1063.903596321056" y="723.5155013677468" width="55.915525105296524" height="249.7744293300841" fill="#10002b" opacity="0.6027824034222361" rx="2"/><rect x="1089.6179402695122" y="733.5155013677468" width="4.486837208384377" height="7.970000434194226" fill="#c77dff" opacity="0.21936654129982147" rx="1"/><rect x="1075.639058993188" y="737.5005015848438" width="4.486837208384377" height="7.970000434194226" fill="#7b2cbf" opacity="0.10968327064991074" rx="1"/><rect x="1087.2626242456215" y="783.4703872337636" width="9.197469256165778" height="7.038330788034557" fill="#c77dff" opacity="0.3857382714948008" rx="1"/><rect x="1073.2837429692972" y="786.9895526277809" width="9.197469256165778" height="7.038330788034557" fill="#7b2cbf" opacity="0.1928691357474004" rx="1"/><rect x="1088.3710512256225" y="833.4252730997804" width="6.980615296163739" height="9.170004997209181" fill="#c77dff" opacity="0.3372430414513785" rx="1"/><rect x="1074.3921699492982" y="838.010275598385" width="6.980615296163739" height="9.170004997209181" fill="#7b2cbf" opacity="0.16862152072568926" rx="1"/><rect x="1085.998255448606" y="883.3801589657972" width="11.72620685019675" height="9.36507859066247" fill="#c77dff" opacity="0.5718374662268528" rx="1"/><rect x="1072.0193741722817" y="888.0626982611285" width="11.72620685019675" height="9.36507859066247" fill="#7b2cbf" opacity="0.2859187331134264" rx="1"/><rect x="1089.1828206321227" y="933.335044831814" width="5.357076483163302" height="7.156301408344019" fill="#c77dff" opacity="0.19897527717961355" rx="1"/><rect x="1075.2039393557984" y="936.913195535986" width="5.357076483163302" height="7.156301408344019" fill="#7b2cbf" opacity="0.09948763858980678" rx="1"/><rect x="1150.583265492278" y="845.5784468552048" width="63.56020890957681" height="127.7114838426261" fill="#10002b" opacity="0.5711151845220279" rx="2"/><rect x="1179.5301740798557" y="855.5784468552048" width="5.6663917344218095" height="6.9136677135046725" fill="#c77dff" opacity="0.3544342894699505" rx="1"/><rect x="1163.6401218524613" y="859.0352807119572" width="5.6663917344218095" height="6.9136677135046725" fill="#7b2cbf" opacity="0.17721714473497524" rx="1"/><rect x="1180.1780627283301" y="887.5063178158613" width="4.370614437472684" height="6.748177811677609" fill="#c77dff" opacity="0.5052008982759902" rx="1"/><rect x="1164.2880105009358" y="890.8804067217001" width="4.370614437472684" height="6.748177811677609" fill="#7b2cbf" opacity="0.2526004491379951" rx="1"/><rect x="1176.9676074328843" y="919.4341887765179" width="10.791525028364623" height="9.633138678882537" fill="#c77dff" opacity="0.26595909550459107" rx="1"/><rect x="1161.07755520549" y="924.2507581159591" width="10.791525028364623" height="9.633138678882537" fill="#7b2cbf" opacity="0.13297954775229553" rx="1"/><rect x="1179.4761119396687" y="951.3620597371744" width="5.774516014795405" height="7.651737066370374" fill="#c77dff" opacity="0.5133111969365998" rx="1"/><rect x="1163.5860597122744" y="955.1879282703595" width="5.774516014795405" height="7.651737066370374" fill="#7b2cbf" opacity="0.2566555984682999" rx="1"/><rect x="1221.8935794679792" y="609.5794138055247" width="46.46914375398055" height="363.71051689230615" fill="#10002b" opacity="0.6568967025393846" rx="2"/><rect x="1239.5304394531959" y="619.5794138055247" width="11.19542378354711" height="9.243673220100737" fill="#c77dff" opacity="0.28065454931479283" rx="1"/><rect x="1227.9131535147008" y="624.2012504155751" width="11.19542378354711" height="9.243673220100737" fill="#7b2cbf" opacity="0.14032727465739642" rx="1"/><rect x="1241.1442023565987" y="680.1978332875758" width="7.96789797674117" height="8.317832017857077" fill="#c77dff" opacity="0.5848595150943984" rx="1"/><rect x="1229.5269164181036" y="684.3567492965043" width="7.96789797674117" height="8.317832017857077" fill="#7b2cbf" opacity="0.2924297575471992" rx="1"/><rect x="1240.193934139015" y="740.8162527696268" width="9.868434411908602" height="8.826440681430148" fill="#c77dff" opacity="0.4993331206495253" rx="1"/><rect x="1228.57664820052" y="745.2294731103418" width="9.868434411908602" height="8.826440681430148" fill="#7b2cbf" opacity="0.24966656032476264" rx="1"/><rect x="1241.679953171437" y="801.4346722516777" width="6.896396347064617" height="9.523389991261855" fill="#c77dff" opacity="0.5886338764309497" rx="1"/><rect x="1230.062667232942" y="806.1963672473087" width="6.896396347064617" height="9.523389991261855" fill="#7b2cbf" opacity="0.29431693821547483" rx="1"/><rect x="1239.8481804766463" y="862.0530917337288" width="10.559941736645982" height="7.668533884377343" fill="#c77dff" opacity="0.1815258820265359" rx="1"/><rect x="1228.2308945381512" y="865.8873586759175" width="10.559941736645982" height="7.668533884377343" fill="#7b2cbf" opacity="0.09076294101326796" rx="1"/><rect x="1243.0623428028814" y="922.6715112157799" width="4.131617084176191" height="8.823960210854178" fill="#c77dff" opacity="0.49252388230350885" rx="1"/><rect x="1231.4450568643863" y="927.083491321207" width="4.131617084176191" height="8.823960210854178" fill="#7b2cbf" opacity="0.24626194115175443" rx="1"/><rect x="1333.3332627826849" y="654.4648820661159" width="57.2364181762646" height="318.82504863171494" fill="#10002b" opacity="0.40952676015662187" rx="2"/><rect x="1359.217104766399" y="664.4648820661159" width="5.468734208836391" height="6.055315217016106" fill="#c77dff" opacity="0.41946559222868307" rx="1"/><rect x="1344.908000222333" y="667.492539674624" width="5.468734208836391" height="6.055315217016106" fill="#7b2cbf" opacity="0.20973279611434154" rx="1"/><rect x="1356.144886222765" y="710.0113175849324" width="11.613171296104131" height="7.813670127143541" fill="#c77dff" opacity="0.1079908531643429" rx="1"/><rect x="1341.835781678699" y="713.9181526485041" width="11.613171296104131" height="7.813670127143541" fill="#7b2cbf" opacity="0.05399542658217145" rx="1"/><rect x="1358.348059326089" y="755.5577531037487" width="7.20682508945624" height="8.283140654275925" fill="#c77dff" opacity="0.4000389512861239" rx="1"/><rect x="1344.038954782023" y="759.6993234308867" width="7.20682508945624" height="8.283140654275925" fill="#7b2cbf" opacity="0.20001947564306194" rx="1"/><rect x="1358.2566356003583" y="801.1041886225652" width="7.38967254091745" height="7.76569377392663" fill="#c77dff" opacity="0.13460836294912928" rx="1"/><rect x="1343.9475310562923" y="804.9870355095285" width="7.38967254091745" height="7.76569377392663" fill="#7b2cbf" opacity="0.06730418147456464" rx="1"/><rect x="1358.6413001396957" y="846.6506241413816" width="6.620343462242825" height="9.361007966883715" fill="#c77dff" opacity="0.44877476732916544" rx="1"/><rect x="1344.3321955956296" y="851.3311281248235" width="6.620343462242825" height="9.361007966883715" fill="#7b2cbf" opacity="0.22438738366458272" rx="1"/><rect x="1358.083606818308" y="892.197059660198" width="7.73573010501818" height="7.2841142493495985" fill="#c77dff" opacity="0.20358714477708265" rx="1"/><rect x="1343.774502274242" y="895.8391167848728" width="7.73573010501818" height="7.2841142493495985" fill="#7b2cbf" opacity="0.10179357238854132" rx="1"/><rect x="1357.9797479683189" y="937.7434951790144" width="7.943447804996615" height="9.693148904408595" fill="#c77dff" opacity="0.1080574202602863" rx="1"/><rect x="1343.6706434242528" y="942.5900696312187" width="7.943447804996615" height="9.693148904408595" fill="#7b2cbf" opacity="0.05402871013014315" rx="1"/><rect x="1402.5712597862964" y="807.6967923221404" width="89.18545306175608" height="165.59313837569047" fill="#000011" opacity="0.6391588580652976" rx="2"/><rect x="1441.516262468325" y="817.6967923221404" width="11.295447697698942" height="9.789571854236902" fill="#c77dff" opacity="0.10303546991269931" rx="1"/><rect x="1419.219899202886" y="822.5915782492589" width="11.295447697698942" height="9.789571854236902" fill="#7b2cbf" opacity="0.051517734956349655" rx="1"/><rect x="1443.180165327916" y="838.3959346191017" width="7.967641978517092" height="7.354056658538537" fill="#c77dff" opacity="0.44098607600689543" rx="1"/><rect x="1420.883802062477" y="842.072962948371" width="7.967641978517092" height="7.354056658538537" fill="#7b2cbf" opacity="0.22049303800344772" rx="1"/><rect x="1445.098116332011" y="859.095076916063" width="4.131739970327295" height="9.3904621618312" fill="#c77dff" opacity="0.5926405958814175" rx="1"/><rect x="1422.8017530665718" y="863.7903079969786" width="4.131739970327295" height="9.3904621618312" fill="#7b2cbf" opacity="0.29632029794070874" rx="1"/><rect x="1441.5340404318706" y="879.7942192130242" width="11.259891770607766" height="8.686491278625674" fill="#c77dff" opacity="0.13866030358212542" rx="1"/><rect x="1419.2376771664315" y="884.1374648523371" width="11.259891770607766" height="8.686491278625674" fill="#7b2cbf" opacity="0.06933015179106271" rx="1"/><rect x="1444.4320911989837" y="900.4933615099856" width="5.463790236381765" height="9.802994461684253" fill="#c77dff" opacity="0.29135190748873907" rx="1"/><rect x="1422.1357279335446" y="905.3948587408277" width="5.463790236381765" height="9.802994461684253" fill="#7b2cbf" opacity="0.14567595374436954" rx="1"/><rect x="1442.7634138611274" y="921.1925038069469" width="8.801144912094145" height="7.8680616910262176" fill="#c77dff" opacity="0.32047375322330596" rx="1"/><rect x="1420.4670505956883" y="925.12653465246" width="8.801144912094145" height="7.8680616910262176" fill="#7b2cbf" opacity="0.16023687661165298" rx="1"/><rect x="1441.7741294498244" y="941.8916461039082" width="10.779713734700277" height="9.912470381686573" fill="#c77dff" opacity="0.3064955292051881" rx="1"/><rect x="1419.4777661843852" y="946.8478812947515" width="10.779713734700277" height="9.912470381686573" fill="#7b2cbf" opacity="0.15324776460259404" rx="1"/><rect x="1444.8164257930844" y="962.5907884008695" width="4.695121048180182" height="8.984306502850798" fill="#c77dff" opacity="0.3116144627126899" rx="1"/><rect x="1422.5200625276452" y="967.082941652295" width="4.695121048180182" height="8.984306502850798" fill="#7b2cbf" opacity="0.15580723135634494" rx="1"/><rect x="1488.1941370268125" y="758.4784111144204" width="56.036978714642345" height="214.81151958341047" fill="#10002b" opacity="0.6666108929474398" rx="2"/><rect x="1511.8818260970968" y="768.4784111144204" width="8.661600574073756" height="6.049410050746382" fill="#c77dff" opacity="0.24261303368085368" rx="1"/><rect x="1497.872581418436" y="771.5031161397936" width="8.661600574073756" height="6.049410050746382" fill="#7b2cbf" opacity="0.12130651684042684" rx="1"/><rect x="1511.5270786330652" y="799.1657710549076" width="9.371095502136995" height="9.211068997907235" fill="#c77dff" opacity="0.5275498279434512" rx="1"/><rect x="1497.5178339544045" y="803.7713055538612" width="9.371095502136995" height="9.211068997907235" fill="#7b2cbf" opacity="0.2637749139717256" rx="1"/><rect x="1511.163149764545" y="829.8531309953948" width="10.09895323917711" height="6.883897052352292" fill="#c77dff" opacity="0.37491101337943944" rx="1"/><rect x="1497.1539050858844" y="833.295079521571" width="10.09895323917711" height="6.883897052352292" fill="#7b2cbf" opacity="0.18745550668971972" rx="1"/><rect x="1511.3737851081607" y="860.540490935882" width="9.677682551945951" height="8.55124154187535" fill="#c77dff" opacity="0.33882638470708076" rx="1"/><rect x="1497.3645404295" y="864.8161117068196" width="9.677682551945951" height="8.55124154187535" fill="#7b2cbf" opacity="0.16941319235354038" rx="1"/><rect x="1511.1888276820764" y="891.2278508763692" width="10.047597404114807" height="9.312136560518326" fill="#c77dff" opacity="0.25727690890368005" rx="1"/><rect x="1497.1795830034157" y="895.8839191566284" width="10.047597404114807" height="9.312136560518326" fill="#7b2cbf" opacity="0.12863845445184002" rx="1"/><rect x="1511.633711933983" y="921.9152108168564" width="9.157828900301324" height="8.347628302487458" fill="#c77dff" opacity="0.2789392237968136" rx="1"/><rect x="1497.6244672553223" y="926.0890249681001" width="9.157828900301324" height="8.347628302487458" fill="#7b2cbf" opacity="0.1394696118984068" rx="1"/><rect x="1511.7597091308953" y="952.6025707573436" width="8.905834506476726" height="6.672022406168288" fill="#c77dff" opacity="0.1809921154475287" rx="1"/><rect x="1497.7504644522346" y="955.9385819604278" width="8.905834506476726" height="6.672022406168288" fill="#7b2cbf" opacity="0.09049605772376434" rx="1"/><rect x="1595.6514935075256" y="724.2709601354485" width="83.04918221036186" height="249.01897056238235" fill="#10002b" opacity="0.5742679094370147" rx="2"/><rect x="1632.7476912835787" y="734.2709601354485" width="8.856786658255565" height="9.908443026223324" fill="#c77dff" opacity="0.4055120805058424" rx="1"/><rect x="1611.9853957309883" y="739.2251816485601" width="8.856786658255565" height="9.908443026223324" fill="#7b2cbf" opacity="0.2027560402529212" rx="1"/><rect x="1635.0989837676348" y="775.7741218958455" width="4.154201690143487" height="8.754293937877355" fill="#c77dff" opacity="0.4496373725006444" rx="1"/><rect x="1614.3366882150444" y="780.1512688647841" width="4.154201690143487" height="8.754293937877355" fill="#7b2cbf" opacity="0.2248186862503222" rx="1"/><rect x="1634.9892813164547" y="817.2772836562426" width="4.373606592503751" height="7.627614732279353" fill="#c77dff" opacity="0.5899561541364426" rx="1"/><rect x="1614.2269857638644" y="821.0910910223823" width="4.373606592503751" height="7.627614732279353" fill="#7b2cbf" opacity="0.2949780770682213" rx="1"/><rect x="1634.3062437204721" y="858.7804454166396" width="5.739681784468629" height="6.122493207483202" fill="#c77dff" opacity="0.554686296627551" rx="1"/><rect x="1613.5439481678818" y="861.8416920203812" width="5.739681784468629" height="6.122493207483202" fill="#7b2cbf" opacity="0.2773431483137755" rx="1"/><rect x="1631.6605457918224" y="900.2836071770367" width="11.031077641768167" height="9.14105908180146" fill="#c77dff" opacity="0.268382022569045" rx="1"/><rect x="1610.898250239232" y="904.8541367179374" width="11.031077641768167" height="9.14105908180146" fill="#7b2cbf" opacity="0.1341910112845225" rx="1"/><rect x="1633.5672462292237" y="941.7867689374337" width="7.217676766965928" height="7.98525712592184" fill="#c77dff" opacity="0.38763420921462455" rx="1"/><rect x="1612.8049506766333" y="945.7793975003947" width="7.217676766965928" height="7.98525712592184" fill="#7b2cbf" opacity="0.19381710460731227" rx="1"/><rect x="1677.038917541873" y="662.2992872871224" width="43.62391914092561" height="310.99064341070846" fill="#10002b" opacity="0.4885897333707171" rx="2"/><rect x="1695.9355455947764" y="672.2992872871224" width="5.830663035118641" height="9.885836394477131" fill="#c77dff" opacity="0.18790496284791852" rx="1"/><rect x="1685.0295658095451" y="677.242205484361" width="5.830663035118641" height="9.885836394477131" fill="#7b2cbf" opacity="0.09395248142395926" rx="1"/><rect x="1694.78930677947" y="775.9628350906919" width="8.123140665731192" height="7.633973173246247" fill="#c77dff" opacity="0.5265482938910249" rx="1"/><rect x="1683.8833269942388" y="779.779821677315" width="8.123140665731192" height="7.633973173246247" fill="#7b2cbf" opacity="0.26327414694551243" rx="1"/><rect x="1696.3420780575573" y="879.6263828942614" width="5.017598109556734" height="9.214757440428892" fill="#c77dff" opacity="0.16817923639160098" rx="1"/><rect x="1685.436098272326" y="884.2337616144758" width="5.017598109556734" height="9.214757440428892" fill="#7b2cbf" opacity="0.08408961819580049" rx="1"/><rect x="1753.0861894203001" y="696.9350161489414" width="71.96470124227105" height="276.3549145488895" fill="#000011" opacity="0.6460293090776609" rx="2"/><rect x="1783.8467238836947" y="706.9350161489414" width="10.443632315481928" height="9.037436193562447" fill="#c77dff" opacity="0.11163651095974178" rx="1"/><rect x="1765.855548573127" y="711.4537342457226" width="10.443632315481928" height="9.037436193562447" fill="#7b2cbf" opacity="0.05581825547987089" rx="1"/><rect x="1785.4726258923386" y="741.4793804675526" width="7.191828298194293" height="6.060784789747741" fill="#c77dff" opacity="0.2448786137962897" rx="1"/><rect x="1767.4814505817708" y="744.5097728624264" width="7.191828298194293" height="6.060784789747741" fill="#7b2cbf" opacity="0.12243930689814485" rx="1"/><rect x="1785.449748295083" y="776.0237447861638" width="7.237583492705036" height="8.984962795624734" fill="#c77dff" opacity="0.48197067540184846" rx="1"/><rect x="1767.4585729845153" y="780.5162261839762" width="7.237583492705036" height="8.984962795624734" fill="#7b2cbf" opacity="0.24098533770092423" rx="1"/><rect x="1784.4792700404869" y="810.568109104775" width="9.178540001897733" height="8.351661844726573" fill="#c77dff" opacity="0.3594608198291298" rx="1"/><rect x="1766.488094729919" y="814.7439400271383" width="9.178540001897733" height="8.351661844726573" fill="#7b2cbf" opacity="0.1797304099145649" rx="1"/><rect x="1783.875178404441" y="845.1124734233861" width="10.386723273989446" height="6.461901841792721" fill="#c77dff" opacity="0.12069945657176419" rx="1"/><rect x="1765.8840030938732" y="848.3434243442824" width="10.386723273989446" height="6.461901841792721" fill="#7b2cbf" opacity="0.060349728285882094" rx="1"/><rect x="1785.6030581525915" y="879.6568377419974" width="6.93096377768809" height="6.892968927717993" fill="#c77dff" opacity="0.5992113829355713" rx="1"/><rect x="1767.6118828420238" y="883.1033222058563" width="6.93096377768809" height="6.892968927717993" fill="#7b2cbf" opacity="0.29960569146778565" rx="1"/><rect x="1785.4060325712828" y="914.2012020606085" width="7.325014940305849" height="8.37810519113627" fill="#c77dff" opacity="0.3563288447578272" rx="1"/><rect x="1767.414857260715" y="918.3902546561766" width="7.325014940305849" height="8.37810519113627" fill="#7b2cbf" opacity="0.1781644223789136" rx="1"/><rect x="1785.5874694266709" y="948.7455663792197" width="6.962141229529433" height="9.192066549135387" fill="#c77dff" opacity="0.1620320402230211" rx="1"/><rect x="1767.596294116103" y="953.3415996537874" width="6.962141229529433" height="9.192066549135387" fill="#7b2cbf" opacity="0.08101602011151054" rx="1"/><rect x="1854.08111036575" y="821.3160985664736" width="73.35231871887862" height="151.97383213135737" fill="#000011" opacity="0.5705115457695238" rx="2"/><rect x="1885.1469255854208" y="831.3160985664736" width="11.220688279536713" height="8.860011519598778" fill="#c77dff" opacity="0.33699753445968905" rx="1"/><rect x="1866.8088459057012" y="835.746104326273" width="11.220688279536713" height="8.860011519598778" fill="#7b2cbf" opacity="0.16849876722984453" rx="1"/><rect x="1885.7629462715574" y="850.3128275828932" width="9.988646907263586" height="6.882591829840697" fill="#c77dff" opacity="0.2978749924334406" rx="1"/><rect x="1867.4248665918378" y="853.7541234978136" width="9.988646907263586" height="6.882591829840697" fill="#7b2cbf" opacity="0.1489374962167203" rx="1"/><rect x="1886.1128733850303" y="869.3095565993129" width="9.28879268031772" height="7.008318953450844" fill="#c77dff" opacity="0.22979149006535102" rx="1"/><rect x="1867.7747937053107" y="872.8137160760384" width="9.28879268031772" height="7.008318953450844" fill="#7b2cbf" opacity="0.11489574503267551" rx="1"/><rect x="1885.2417372577877" y="888.3062856157326" width="11.031064934802956" height="6.501375991967827" fill="#c77dff" opacity="0.2582971396060421" rx="1"/><rect x="1866.903657578068" y="891.5569736117164" width="11.031064934802956" height="6.501375991967827" fill="#7b2cbf" opacity="0.12914856980302106" rx="1"/><rect x="1888.594144470006" y="907.3030146321522" width="4.3262505103662265" height="9.994180367326871" fill="#c77dff" opacity="0.10383783783853004" rx="1"/><rect x="1870.2560647902865" y="912.3001048158156" width="4.3262505103662265" height="9.994180367326871" fill="#7b2cbf" opacity="0.05191891891926502" rx="1"/><rect x="1885.479985510153" y="926.2997436485718" width="10.554568430072294" height="7.171660409581769" fill="#c77dff" opacity="0.16575941773265587" rx="1"/><rect x="1867.1419058304334" y="929.8855738533628" width="10.554568430072294" height="7.171660409581769" fill="#7b2cbf" opacity="0.08287970886632794" rx="1"/><rect x="1888.5983819514" y="945.2964726649916" width="4.317775547578413" height="9.841317996345767" fill="#c77dff" opacity="0.23430441150774817" rx="1"/><rect x="1870.2603022716803" y="950.2171316631645" width="4.317775547578413" height="9.841317996345767" fill="#7b2cbf" opacity="0.11715220575387408" rx="1"/><rect x="1886.0081409209383" y="964.2932016814112" width="9.498257608501767" height="6.393340849409192" fill="#c77dff" opacity="0.5344687616532828" rx="1"/><rect x="1867.6700612412187" y="967.4898721061159" width="9.498257608501767" height="6.393340849409192" fill="#7b2cbf" opacity="0.2672343808266414" rx="1"/><rect x="0" y="1000" width="1920" height="80" fill="#000005" opacity="0.8"/><line x1="0" y1="1040" x2="1920" y2="1040" stroke="#c77dff" stroke-opacity="0.15" stroke-width="2" stroke-dasharray="30,20"/><rect x="0" y="930" width="1920" height="150" fill="url(#glow65)"/><text x="1900" y="1060" font-family="Arial, sans-serif" font-size="11" fill="#fff" opacity="0.08" text-anchor="end" letter-spacing="2">GTA 6 REWARDS · WALLPAPER 066</text>
</svg>