<?xml version="1.0" encoding="UTF-8"?>
<svg xmlns="http://www.w3.org/2000/svg" width="1920" height="1080" viewBox="0 0 1920 1080">
<defs>
    <linearGradient id="bg56" x1="0%" y1="0%" x2="0%" y2="100%">
      <stop offset="0%" stop-color="#003d00"/>
      <stop offset="50%" stop-color="#000a00"/>
      <stop offset="100%" stop-color="#003d00"/>
    </linearGradient>
    <linearGradient id="sun56" x1="0%" y1="0%" x2="100%" y2="100%">
      <stop offset="0%" stop-color="#38b000"/>
      <stop offset="100%" stop-color="#008000"/>
    </linearGradient>
    <radialGradient id="glow56" cx="50%" cy="70%" r="50%">
      <stop offset="0%" stop-color="#38b000" stop-opacity="0.3"/>
      <stop offset="100%" stop-color="#003d00" stop-opacity="0"/>
    </radialGradient>
  </defs><rect width="1920" height="1080" fill="url(#bg56)"/><circle cx="857.0222269177955" cy="490.5303503131797" r="689.333093629529" fill="#38b000" opacity="0.09403620319069275"/><circle cx="1057.0222269177955" cy="390.5303503131797" r="518.261089436305" fill="#008000" opacity="0.12197815907932309"/><line x1="0" y1="980" x2="1920" y2="980" stroke="#008000" stroke-opacity="0.05" stroke-width="2"/><line x1="0" y1="935" x2="1920" y2="935" stroke="#008000" stroke-opacity="0.049" stroke-width="0.5"/><line x1="0" y1="890" x2="1920" y2="890" stroke="#008000" stroke-opacity="0.048" stroke-width="0.5"/><line x1="0" y1="845" x2="1920" y2="845" stroke="#008000" stroke-opacity="0.047" stroke-width="0.5"/><line x1="0" y1="800" x2="1920" y2="800" stroke="#008000" stroke-opacity="0.046" stroke-width="0.5"/><line x1="0" y1="755" x2="1920" y2="755" stroke="#008000" stroke-opacity="0.045" stroke-width="0.5"/><line x1="0" y1="710" x2="1920" y2="710" stroke="#008000" stroke-opacity="0.044" stroke-width="0.5"/><line x1="0" y1="665" x2="1920" y2="665" stroke="#008000" stroke-opacity="0.043" stroke-width="0.5"/><line x1="0" y1="620" x2="1920" y2="620" stroke="#008000" stroke-opacity="0.041999999999999996" stroke-width="0.5"/><line x1="0" y1="575" x2="1920" y2="575" stroke="#008000" stroke-opacity="0.041" stroke-width="0.5"/><line x1="0" y1="530" x2="1920" y2="530" stroke="#008000" stroke-opacity="0.04" stroke-width="0.5"/><line x1="0" y1="485" x2="1920" y2="485" stroke="#008000" stroke-opacity="0.039" stroke-width="0.5"/><line x1="0" y1="440" x2="1920" y2="440" stroke="#008000" stroke-opacity="0.038" stroke-width="0.5"/><line x1="0" y1="395" x2="1920" y2="395" stroke="#008000" stroke-opacity="0.037" stroke-width="0.5"/><line x1="0" y1="350" x2="1920" y2="350" stroke="#008000" stroke-opacity="0.036" stroke-width="0.5"/><line x1="0" y1="305" x2="1920" y2="305" stroke="#008000" stroke-opacity="0.034999999999999996" stroke-width="0.5"/><line x1="0" y1="260" x2="1920" y2="260" stroke="#008000" stroke-opacity="0.033999999999999996" stroke-width="0.5"/><line x1="0" y1="215" x2="1920" y2="215" stroke="#008000" stroke-opacity="0.033" stroke-width="0.5"/><line x1="0" y1="170" x2="1920" y2="170" stroke="#008000" stroke-opacity="0.032" stroke-width="0.5"/><line x1="0" y1="125" x2="1920" y2="125" stroke="#008000" stroke-opacity="0.031" stroke-width="0.5"/><line x1="560" y1="1080" x2="860" y2="580" stroke="#38b000" stroke-opacity="0.04" stroke-width="1"/><line x1="640" y1="1080" x2="880" y2="590" stroke="#38b000" stroke-opacity="0.04" stroke-width="1"/><line x1="720" y1="1080" x2="900" y2="600" stroke="#38b000" stroke-opacity="0.04" stroke-width="1"/><line x1="800" y1="1080" x2="920" y2="610" stroke="#38b000" stroke-opacity="0.04" stroke-width="1"/><line x1="880" y1="1080" x2="940" y2="620" stroke="#38b000" stroke-opacity="0.04" stroke-width="1"/><line x1="960" y1="1080" x2="960" y2="630" stroke="#38b000" stroke-opacity="0.04" stroke-width="1"/><line x1="1040" y1="1080" x2="980" y2="620" stroke="#38b000" stroke-opacity="0.04" stroke-width="1"/><line x1="1120" y1="1080" x2="1000" y2="610" stroke="#38b000" stroke-opacity="0.04" stroke-width="1"/><line x1="1200" y1="1080" x2="1020" y2="600" stroke="#38b000" stroke-opacity="0.04" stroke-width="1"/><line x1="1280" y1="1080" x2="1040" y2="590" stroke="#38b000" stroke-opacity="0.04" stroke-width="1"/><line x1="1360" y1="1080" x2="1060" y2="580" stroke="#38b000" stroke-opacity="0.04" stroke-width="1"/><circle cx="1251.9286837782545" cy="291.255839527877" r="77.40978722865921" fill="url(#sun56)" opacity="0.6077270157187541"/><circle cx="1251.9286837782545" cy="291.255839527877" r="72.40978722865921" fill="#003d00" opacity="0.3"/><circle cx="409.5622927904041" cy="62.91318944816319" r="0.8406144964603275" fill="#fff" opacity="0.7692327030862758"/><circle cx="935.4853702279472" cy="100.15525741971919" r="0.6746262087660437" fill="#fff" opacity="0.7432382361831231"/><circle cx="1338.4565523402896" cy="410.9029169815832" r="1.5487118556743282" fill="#fff" opacity="0.48617403332287773"/><circle cx="495.4624442419648" cy="278.80311254570336" r="1.6102756855800457" fill="#fff" opacity="0.2974689071293615"/><circle cx="680.6889766549433" cy="32.59037322564758" r="0.605941248733071" fill="#fff" opacity="0.5220172569905448"/><circle cx="1610.0373301678424" cy="314.16579561917246" r="1.9767720769105415" fill="#fff" opacity="0.6129430744827127"/><circle cx="72.2505006362336" cy="424.4627510999475" r="0.6887933675173654" fill="#fff" opacity="0.48488876444401424"/><circle cx="1767.5085255148608" cy="85.05078875018536" r="1.6824256143724605" fill="#fff" opacity="0.5402444306156235"/><circle cx="123.76357468864033" cy="180.61373714092505" r="1.7938308976110608" fill="#fff" opacity="0.3243865336581102"/><circle cx="634.4301475571539" cy="367.28867737559807" r="0.9761636492275083" fill="#fff" opacity="0.40288043501853954"/><circle cx="218.57608397923784" cy="243.80549297197848" r="1.917324781282182" fill="#fff" opacity="0.568584150115164"/><circle cx="995.4466436140813" cy="145.5475665408996" r="0.5904105743603806" fill="#fff" opacity="0.6366072355389146"/><circle cx="1832.0806999299864" cy="413.6749472091149" r="1.61075336186" fill="#fff" opacity="0.4840301583251055"/><circle cx="1526.5361075677295" cy="380.27373046341205" r="0.9799476705910516" fill="#fff" opacity="0.7781387656410548"/><circle cx="1673.9782708310472" cy="26.8976886521321" r="1.1371189519150926" fill="#fff" opacity="0.29719234274169254"/><circle cx="1832.6521338319062" cy="315.5813052420461" r="1.0416250267395808" fill="#fff" opacity="0.39929980556464284"/><circle cx="1776.6026374363812" cy="37.87768552589176" r="0.7918354029049713" fill="#fff" opacity="0.5977586894290892"/><circle cx="1856.575887039438" cy="48.66510478795159" r="1.8099472609604585" fill="#fff" opacity="0.22369174841411688"/><circle cx="1633.2100635099248" cy="413.7708814101691" r="1.2389201132438425" fill="#fff" opacity="0.24602472131280806"/><circle cx="1014.6447298803006" cy="85.61750585344096" r="0.7839660125980075" fill="#fff" opacity="0.6582813548059858"/><circle cx="1078.5023186631738" cy="266.27087635413534" r="1.6286217556634504" fill="#fff" opacity="0.559695486156199"/><circle cx="1894.649514550029" cy="130.61614199416155" r="1.1264321989441366" fill="#fff" opacity="0.6270027421012061"/><circle cx="1453.290831486995" cy="356.65887121964687" r="1.1438099828417903" fill="#fff" opacity="0.5109463403725406"/><circle cx="3.437159658278609" cy="229.35106493284718" r="1.9410344154902348" fill="#fff" opacity="0.542729951847049"/><circle cx="1646.5832456309774" cy="397.93351589095164" r="0.8780016168900769" fill="#fff" opacity="0.7201808559056793"/><circle cx="994.1085977186702" cy="346.4011223899203" r="0.7525022657943197" fill="#fff" opacity="0.769276415968611"/><circle cx="1778.696608957531" cy="239.08143621661733" r="0.8511460050593935" fill="#fff" opacity="0.5644503213382444"/><circle cx="773.4164846254085" cy="307.94345459433816" r="1.0805405634642906" fill="#fff" opacity="0.6516790498168392"/><circle cx="1773.0591813877827" cy="6.329211195541827" r="0.7508960629931875" fill="#fff" opacity="0.33257986594284417"/><circle cx="465.351481248008" cy="383.14644702876603" r="1.339776258645527" fill="#fff" opacity="0.47209908535520057"/><circle cx="803.0049778900586" cy="420.77764284349456" r="1.4796343861333174" fill="#fff" opacity="0.5491537158724744"/><circle cx="1209.921525402442" cy="363.5365089316705" r="0.7996279503683625" fill="#fff" opacity="0.25155915074319557"/><circle cx="924.2498027450056" cy="220.05279792380816" r="0.5022868433739727" fill="#fff" opacity="0.7956969403186107"/><circle cx="1534.0763921137147" cy="330.80271051330556" r="1.028046065598737" fill="#fff" opacity="0.4458214643518025"/><circle cx="773.8644658340758" cy="250.4239831255805" r="1.9080648611784132" fill="#fff" opacity="0.42659709822074443"/><circle cx="930.6915072283456" cy="77.2809337892758" r="1.5202524494426912" fill="#fff" opacity="0.33732687969164155"/><circle cx="22.670712774309962" cy="154.39140421021528" r="1.3750684442639045" fill="#fff" opacity="0.6717418413776304"/><circle cx="1191.8727835807654" cy="299.60587318139284" r="1.1350462790893032" fill="#fff" opacity="0.268538200172721"/><circle cx="609.4531172442839" cy="6.376411603385678" r="0.5066867023722005" fill="#fff" opacity="0.27999133995733955"/><circle cx="90.08358972381885" cy="395.21212057285294" r="1.3160818456243915" fill="#fff" opacity="0.7191672879548667"/><circle cx="1898.4671196291379" cy="79.90765973550911" r="1.737701242030063" fill="#fff" opacity="0.5013753635113536"/><circle cx="1618.0279450905575" cy="299.77782366699023" r="0.9579616424064064" fill="#fff" opacity="0.6839835099605804"/><circle cx="1088.9656455370052" cy="132.4340382899237" r="0.7952820048190845" fill="#fff" opacity="0.7475312479183849"/><circle cx="1041.8256267350691" cy="206.69920277937763" r="0.605940812874106" fill="#fff" opacity="0.23675781545153768"/><circle cx="540.7922522492689" cy="76.22420395450298" r="1.9314297295481502" fill="#fff" opacity="0.5537159434411945"/><circle cx="273.5944712799029" cy="395.4422510888992" r="0.8468414374736234" fill="#fff" opacity="0.38773246123169836"/><circle cx="1598.7055755403605" cy="323.59567768582974" r="0.7949916392785943" fill="#fff" opacity="0.7643871374345355"/><circle cx="839.2627056406957" cy="377.4071235008089" r="1.2486120394311406" fill="#fff" opacity="0.6689746493634243"/><circle cx="1155.7585490950753" cy="19.837085024415767" r="0.5765358151580523" fill="#fff" opacity="0.4168799967078678"/><circle cx="810.6715658704451" cy="318.1343779969342" r="1.2066389789587444" fill="#fff" opacity="0.7354777354596829"/><circle cx="150.77795017295935" cy="373.0582028117632" r="0.6218720315075181" fill="#fff" opacity="0.3890543696445074"/><circle cx="931.3625655256591" cy="347.17211951575524" r="1.9671528302056605" fill="#fff" opacity="0.5775497378729166"/><circle cx="294.96687821461046" cy="194.22669398463952" r="1.2885867130916069" fill="#fff" opacity="0.6510287103827643"/><circle cx="652.7825628250796" cy="228.9851208303555" r="1.0825594499666615" fill="#fff" opacity="0.6378569872206675"/><circle cx="630.512242165979" cy="120.82617457416518" r="1.5823708096478066" fill="#fff" opacity="0.21064807251343692"/><circle cx="613.1197975513339" cy="99.23870686889596" r="0.5483621668648818" fill="#fff" opacity="0.5594787987320402"/><circle cx="426.9907094042261" cy="143.1778999527865" r="0.8759228689307168" fill="#fff" opacity="0.36788112636839065"/><circle cx="27.5890342955452" cy="59.0993401881073" r="1.2933729174065807" fill="#fff" opacity="0.3074800275050756"/><circle cx="1533.1319009356973" cy="354.7635704955932" r="1.4252236772853004" fill="#fff" opacity="0.7098452181345423"/><circle cx="1823.792474247467" cy="115.74624356714689" r="1.4454989750975507" fill="#fff" opacity="0.452898668416985"/><circle cx="282.0796953798457" cy="184.54974113976343" r="0.9750187105906706" fill="#fff" opacity="0.30473294479416985"/><rect x="19.483743761545917" y="599.8671538196195" width="62.42240518620759" height="232.88731771355666" fill="#002300" opacity="0.6971336326788025" rx="2"/><rect x="47.7448175867891" y="609.8671538196195" width="5.900257535721235" height="8.49943346402129" fill="#008000" opacity="0.536235474524143" rx="1"/><rect x="32.139216290237194" y="614.1168705516301" width="5.900257535721235" height="8.49943346402129" fill="#38b000" opacity="0.2681177372620715" rx="1"/><rect x="48.4148685125203" y="643.1367706358419" width="4.560155684258826" height="8.24744936317379" fill="#008000" opacity="0.2461710746274728" rx="1"/><rect x="32.8092672159684" y="647.2604953174288" width="4.560155684258826" height="8.24744936317379" fill="#38b000" opacity="0.1230855373137364" rx="1"/><rect x="46.720057950289934" y="676.4063874520642" width="7.949776808719564" height="9.29480154889049" fill="#008000" opacity="0.39816196749409705" rx="1"/><rect x="31.11445665373803" y="681.0537882265095" width="7.949776808719564" height="9.29480154889049" fill="#38b000" opacity="0.19908098374704852" rx="1"/><rect x="48.43037047177329" y="709.6760042682866" width="4.529151765752852" height="7.066940138364895" fill="#008000" opacity="0.3897708645997967" rx="1"/><rect x="32.824769175221384" y="713.2094743374691" width="4.529151765752852" height="7.066940138364895" fill="#38b000" opacity="0.19488543229989835" rx="1"/><rect x="45.3213548330407" y="742.945621084509" width="10.747183043218028" height="6.283111019125933" fill="#008000" opacity="0.5866079457538687" rx="1"/><rect x="29.715753536488798" y="746.0871765940719" width="10.747183043218028" height="6.283111019125933" fill="#38b000" opacity="0.2933039728769343" rx="1"/><rect x="48.3713252053995" y="776.2152379007314" width="4.647242298500436" height="9.200283022411234" fill="#008000" opacity="0.1474164205480871" rx="1"/><rect x="32.7657239088476" y="780.815379411937" width="4.647242298500436" height="9.200283022411234" fill="#38b000" opacity="0.07370821027404355" rx="1"/><rect x="48.63924228624423" y="809.4848547169538" width="4.11140813681097" height="7.4467129384741915" fill="#008000" opacity="0.5915268425809981" rx="1"/><rect x="33.03364098969233" y="813.2082111861909" width="4.11140813681097" height="7.4467129384741915" fill="#38b000" opacity="0.29576342129049904" rx="1"/><rect x="116.1447357125494" y="541.1642487955196" width="86.57148099424586" height="291.5902227376565" fill="#003d00" opacity="0.55196168060693" rx="2"/><rect x="155.47860064550696" y="551.1642487955196" width="7.903751128330769" height="8.170616003258763" fill="#008000" opacity="0.12397102607040923" rx="1"/><rect x="133.83573039694548" y="555.249556797149" width="7.903751128330769" height="8.170616003258763" fill="#38b000" opacity="0.061985513035204616" rx="1"/><rect x="153.77828701645987" y="624.0618044799337" width="11.304378386424943" height="6.0174632435705195" fill="#008000" opacity="0.3300118691590642" rx="1"/><rect x="132.1354167678984" y="627.070536101719" width="11.304378386424943" height="6.0174632435705195" fill="#38b000" opacity="0.1650059345795321" rx="1"/><rect x="156.6516508780117" y="696.9593601643478" width="5.557650663321291" height="8.035205112312735" fill="#008000" opacity="0.5981310939179107" rx="1"/><rect x="135.00878062945023" y="700.9769627205042" width="5.557650663321291" height="8.035205112312735" fill="#38b000" opacity="0.2990655469589554" rx="1"/><rect x="155.68188053288037" y="769.856915848762" width="7.497191353583986" height="8.30925848295662" fill="#008000" opacity="0.42746227372611456" rx="1"/><rect x="134.03901028431886" y="774.0115450902404" width="7.497191353583986" height="8.30925848295662" fill="#38b000" opacity="0.21373113686305728" rx="1"/><rect x="186.06519461369646" y="597.8587920539684" width="87.52467930724953" height="234.89567947920776" fill="#003d00" opacity="0.6109198155605513" rx="2"/><rect x="227.0823639616647" y="607.8587920539684" width="5.4903406113130835" height="7.525253745151044" fill="#008000" opacity="0.5953568548651778" rx="1"/><rect x="205.2011941348523" y="611.6214189265439" width="5.4903406113130835" height="7.525253745151044" fill="#38b000" opacity="0.2976784274325889" rx="1"/><rect x="226.33225085143204" y="686.1573518803709" width="6.990566831778401" height="7.723801505221939" fill="#008000" opacity="0.18293359123238678" rx="1"/><rect x="204.45108102461964" y="690.0192526329819" width="6.990566831778401" height="7.723801505221939" fill="#38b000" opacity="0.09146679561619339" rx="1"/><rect x="223.84960324933894" y="764.4559117067736" width="11.955862035964582" height="6.824560248484966" fill="#008000" opacity="0.4327152723988321" rx="1"/><rect x="201.96843342252654" y="767.868191831016" width="11.955862035964582" height="6.824560248484966" fill="#38b000" opacity="0.21635763619941606" rx="1"/><rect x="278.3063026619518" y="744.5543432711983" width="30.084968931061443" height="88.20012826197784" fill="#002300" opacity="0.42943294912796304" rx="2"/><rect x="289.2847803569723" y="754.5543432711983" width="8.128013541020456" height="8.363588136239812" fill="#008000" opacity="0.15966394070062412" rx="1"/><rect x="281.76353812420695" y="758.7361373393181" width="8.128013541020456" height="8.363588136239812" fill="#38b000" opacity="0.07983197035031206" rx="1"/><rect x="288.28524035651697" y="769.2543646481946" width="10.12709354193115" height="8.599362976522968" fill="#008000" opacity="0.3461390684466201" rx="1"/><rect x="280.7639981237516" y="773.5540461364561" width="10.12709354193115" height="8.599362976522968" fill="#38b000" opacity="0.17306953422331006" rx="1"/><rect x="288.21197920075304" y="783.9543860251908" width="10.27361585345902" height="7.131292348990984" fill="#008000" opacity="0.5359200734030269" rx="1"/><rect x="280.6907369679877" y="787.5200321996863" width="10.27361585345902" height="7.131292348990984" fill="#38b000" opacity="0.26796003670151347" rx="1"/><rect x="291.1237375087985" y="798.6544074021872" width="4.450099237368" height="8.657304880827969" fill="#008000" opacity="0.5246115779794314" rx="1"/><rect x="283.60249527603315" y="802.9830598426012" width="4.450099237368" height="8.657304880827969" fill="#38b000" opacity="0.2623057889897157" rx="1"/><rect x="288.4827470460295" y="813.3544287791835" width="9.732080162906106" height="7.538143290564917" fill="#008000" opacity="0.4160266723288285" rx="1"/><rect x="280.9615048132641" y="817.123500424466" width="9.732080162906106" height="7.538143290564917" fill="#38b000" opacity="0.20801333616441425" rx="1"/><rect x="288.22088742784115" y="828.0544501561798" width="10.255799399282736" height="7.856549734681972" fill="#008000" opacity="0.17693770564555605" rx="1"/><rect x="280.6996451950758" y="831.9827250235207" width="10.255799399282736" height="7.856549734681972" fill="#38b000" opacity="0.08846885282277803" rx="1"/><rect x="356.12696185321545" y="549.2896430309139" width="70.2639932092894" height="283.4648285022622" fill="#002300" opacity="0.5073054293886072" rx="2"/><rect x="386.5269553821534" y="559.2896430309139" width="9.464006151413546" height="7.317723467321536" fill="#008000" opacity="0.29015442596053576" rx="1"/><rect x="368.960957079831" y="562.9485047645746" width="9.464006151413546" height="7.317723467321536" fill="#38b000" opacity="0.14507721298026788" rx="1"/><rect x="388.98483331577336" y="630.1558501564795" width="4.548250284173584" height="7.819037164984978" fill="#008000" opacity="0.12170246141536685" rx="1"/><rect x="371.418835013451" y="634.065368738972" width="4.548250284173584" height="7.819037164984978" fill="#38b000" opacity="0.060851230707683425" rx="1"/><rect x="386.375529917108" y="701.022057282045" width="9.766857081504273" height="8.121188560063295" fill="#008000" opacity="0.363547649552009" rx="1"/><rect x="368.8095316147856" y="705.0826515620766" width="9.766857081504273" height="8.121188560063295" fill="#38b000" opacity="0.1817738247760045" rx="1"/><rect x="389.2373954764359" y="771.8882644076106" width="4.043125962848571" height="8.335739034771859" fill="#008000" opacity="0.10730222743174579" rx="1"/><rect x="371.6713971741135" y="776.0561339249965" width="4.043125962848571" height="8.335739034771859" fill="#38b000" opacity="0.053651113715872896" rx="1"/><rect x="449.0880468297235" y="619.9616536311715" width="66.9895311670819" height="212.79281790200454" fill="#003d00" opacity="0.505852892856545" rx="2"/><rect x="476.817315250381" y="629.9616536311715" width="11.530994325767036" height="8.462642555698437" fill="#008000" opacity="0.18284814727558946" rx="1"/><rect x="460.0699324586105" y="634.1929749090208" width="11.530994325767036" height="8.462642555698437" fill="#38b000" opacity="0.09142407363779473" rx="1"/><rect x="479.0368727466855" y="700.8925929318398" width="7.091879333157996" height="7.96397976809274" fill="#008000" opacity="0.431054626575451" rx="1"/><rect x="462.289489954915" y="704.8745828158861" width="7.091879333157996" height="7.96397976809274" fill="#38b000" opacity="0.2155273132877255" rx="1"/><rect x="479.1337868229544" y="771.8235322325079" width="6.898051180620223" height="6.200934041338259" fill="#008000" opacity="0.39102599604312005" rx="1"/><rect x="462.3864040311839" y="774.923999253177" width="6.898051180620223" height="6.200934041338259" fill="#38b000" opacity="0.19551299802156002" rx="1"/><rect x="551.0510558476578" y="732.8414789011798" width="49.12000802790746" height="99.91299263199627" fill="#003d00" opacity="0.4189224135873193" rx="2"/><rect x="573.2135003118595" y="742.8414789011798" width="4.7951190995041095" height="8.274298384383856" fill="#008000" opacity="0.13765508195796403" rx="1"/><rect x="560.9334983048826" y="746.9786280933718" width="4.7951190995041095" height="8.274298384383856" fill="#38b000" opacity="0.06882754097898201" rx="1"/><rect x="573.1205327680868" y="767.8197270591788" width="4.981054187049404" height="8.291203348499536" fill="#008000" opacity="0.2056609608013325" rx="1"/><rect x="560.8405307611099" y="771.9653287334286" width="4.981054187049404" height="8.291203348499536" fill="#38b000" opacity="0.10283048040066625" rx="1"/><rect x="573.075826827666" y="792.797975217178" width="5.070466067891211" height="7.4899257508781565" fill="#008000" opacity="0.5968254457918987" rx="1"/><rect x="560.7958248206891" y="796.5429380926171" width="5.070466067891211" height="7.4899257508781565" fill="#38b000" opacity="0.29841272289594933" rx="1"/><rect x="569.7656944342132" y="817.776223375177" width="11.690730854796882" height="8.36365937962282" fill="#008000" opacity="0.44324193276540425" rx="1"/><rect x="557.4856924272362" y="821.9580530649883" width="11.690730854796882" height="8.36365937962282" fill="#38b000" opacity="0.22162096638270212" rx="1"/><rect x="617.6275676233588" y="534.5219828734458" width="77.05563248299427" height="298.2324886597303" fill="#003d00" opacity="0.6659079718091311" rx="2"/><rect x="654.0126026211632" y="544.5219828734458" width="4.285562487385599" height="7.027782013879107" fill="#008000" opacity="0.3408532937385266" rx="1"/><rect x="634.7486945004146" y="548.0358738803853" width="4.285562487385599" height="7.027782013879107" fill="#38b000" opacity="0.1704266468692633" rx="1"/><rect x="651.3828614519699" y="604.1684806053919" width="9.545044825772067" height="7.54778544454551" fill="#008000" opacity="0.11192399813139906" rx="1"/><rect x="632.1189533312213" y="607.9423733276647" width="9.545044825772067" height="7.54778544454551" fill="#38b000" opacity="0.05596199906569953" rx="1"/><rect x="652.3630448878021" y="663.814978337338" width="7.584677954107681" height="7.667392974176303" fill="#008000" opacity="0.47076810243790224" rx="1"/><rect x="633.0991367670534" y="667.648674824426" width="7.584677954107681" height="7.667392974176303" fill="#38b000" opacity="0.23538405121895112" rx="1"/><rect x="651.1007965949428" y="723.461476069284" width="10.109174539826153" height="9.244767242866747" fill="#008000" opacity="0.32848177788045296" rx="1"/><rect x="631.8368884741942" y="728.0838596907174" width="10.109174539826153" height="9.244767242866747" fill="#38b000" opacity="0.16424088894022648" rx="1"/><rect x="652.4426234076194" y="783.1079738012301" width="7.425520914472994" height="7.8201728737494385" fill="#008000" opacity="0.1270768867402982" rx="1"/><rect x="633.1787152868708" y="787.0180602381048" width="7.425520914472994" height="7.8201728737494385" fill="#38b000" opacity="0.0635384433701491" rx="1"/><rect x="700.2579875953504" y="492.00929128378846" width="81.30367216451644" height="340.74518024938766" fill="#002300" opacity="0.51221590044727" rx="2"/><rect x="738.7376176929761" y="502.00929128378846" width="4.344411969265066" height="7.249595984176173" fill="#008000" opacity="0.4624648539960535" rx="1"/><rect x="718.4116996518469" y="505.63408927587653" width="4.344411969265066" height="7.249595984176173" fill="#38b000" opacity="0.23123242699802676" rx="1"/><rect x="736.9807980774265" y="615.5910180335843" width="7.858051200364263" height="9.1065645532465" fill="#008000" opacity="0.3932161660383493" rx="1"/><rect x="716.6548800362973" y="620.1443003102075" width="7.858051200364263" height="9.1065645532465" fill="#38b000" opacity="0.19660808301917465" rx="1"/><rect x="736.045970054714" y="729.1727447833803" width="9.7277072457894" height="7.933334855812912" fill="#008000" opacity="0.49732637766220755" rx="1"/><rect x="715.7200520135848" y="733.1394122112868" width="9.7277072457894" height="7.933334855812912" fill="#38b000" opacity="0.24866318883110378" rx="1"/><rect x="788.5310161171702" y="593.2346864122046" width="66.94907728045925" height="239.51978512097145" fill="#002300" opacity="0.4948445540608011" rx="2"/><rect x="818.9068136104082" y="603.2346864122046" width="6.197482293983335" height="8.929544307042272" fill="#008000" opacity="0.11294854504823418" rx="1"/><rect x="802.1695442902934" y="607.6994585657258" width="6.197482293983335" height="8.929544307042272" fill="#38b000" opacity="0.05647427252411709" rx="1"/><rect x="816.8364588884173" y="633.174659552326" width="10.33819173796526" height="7.556018141460609" fill="#008000" opacity="0.3203510230687333" rx="1"/><rect x="800.0991895683024" y="636.9526686230563" width="10.33819173796526" height="7.556018141460609" fill="#38b000" opacity="0.16017551153436665" rx="1"/><rect x="818.8473208649576" y="663.1146326924475" width="6.316467784884495" height="9.114592643248521" fill="#008000" opacity="0.4147840919706002" rx="1"/><rect x="802.1100515448428" y="667.6719290140717" width="6.316467784884495" height="9.114592643248521" fill="#38b000" opacity="0.2073920459853001" rx="1"/><rect x="819.4406819447886" y="693.0546058325689" width="5.129745625222508" height="6.309372508970409" fill="#008000" opacity="0.1753394694941443" rx="1"/><rect x="802.7034126246738" y="696.2092920870541" width="5.129745625222508" height="6.309372508970409" fill="#38b000" opacity="0.08766973474707215" rx="1"/><rect x="817.0361638149247" y="722.9945789726903" width="9.938781884950302" height="7.744140630994025" fill="#008000" opacity="0.5301132435049194" rx="1"/><rect x="800.2988944948099" y="726.8666492881873" width="9.938781884950302" height="7.744140630994025" fill="#38b000" opacity="0.2650566217524597" rx="1"/><rect x="819.3862052580226" y="752.9345521128117" width="5.238698998754542" height="7.11793997630429" fill="#008000" opacity="0.2778209243616604" rx="1"/><rect x="802.6489359379078" y="756.4935221009639" width="5.238698998754542" height="7.11793997630429" fill="#38b000" opacity="0.1389104621808302" rx="1"/><rect x="819.4436193566787" y="782.8745252529332" width="5.123870801442273" height="8.8958998971842" fill="#008000" opacity="0.42890795388466396" rx="1"/><rect x="802.7063500365639" y="787.3224752015252" width="5.123870801442273" height="8.8958998971842" fill="#38b000" opacity="0.21445397694233198" rx="1"/><rect x="816.4428889997786" y="812.8144983930547" width="11.125331515242657" height="9.156524947648059" fill="#008000" opacity="0.23002481093397942" rx="1"/><rect x="799.7056196796638" y="817.3927608668787" width="11.125331515242657" height="9.156524947648059" fill="#38b000" opacity="0.11501240546698971" rx="1"/><rect x="876.4736866915263" y="706.134383987201" width="56.62791518183144" height="126.62008754597514" fill="#002300" opacity="0.5710527188077226" rx="2"/><rect x="900.4977518915384" y="716.134383987201" width="8.579784781807053" height="8.456487319072822" fill="#008000" opacity="0.5615148326758097" rx="1"/><rect x="886.3407730960805" y="720.3626276467373" width="8.579784781807053" height="8.456487319072822" fill="#38b000" opacity="0.28075741633790485" rx="1"/><rect x="901.7091567192439" y="758.3410798358593" width="6.15697512639616" height="7.591449006831145" fill="#008000" opacity="0.4823494505794601" rx="1"/><rect x="887.552177923786" y="762.1368043392749" width="6.15697512639616" height="7.591449006831145" fill="#38b000" opacity="0.24117472528973005" rx="1"/><rect x="899.5052813986986" y="800.5477756845178" width="10.564725767486898" height="9.607333113347956" fill="#008000" opacity="0.4762469901415163" rx="1"/><rect x="885.3483026032407" y="805.3514422411918" width="10.564725767486898" height="9.607333113347956" fill="#38b000" opacity="0.23812349507075814" rx="1"/><rect x="967.7421677549701" y="488.1806565421123" width="35.971524307032006" height="344.57381499106384" fill="#002300" opacity="0.4719952564155672" rx="2"/><rect x="981.0748922368687" y="498.1806565421123" width="9.306075343234948" height="7.209498366622603" fill="#008000" opacity="0.16832987677034222" rx="1"/><rect x="972.0820111601106" y="501.7854057254236" width="9.306075343234948" height="7.209498366622603" fill="#38b000" opacity="0.08416493838517111" rx="1"/><rect x="982.1686250579471" y="547.4054872551214" width="7.118609701078062" height="9.921447731536219" fill="#008000" opacity="0.3896383403077811" rx="1"/><rect x="973.175743981189" y="552.3662111208896" width="7.118609701078062" height="9.921447731536219" fill="#38b000" opacity="0.19481917015389055" rx="1"/><rect x="983.1445570807309" y="596.6303179681305" width="5.166745655510282" height="8.833444313805886" fill="#008000" opacity="0.5630786474941016" rx="1"/><rect x="974.1516760039729" y="601.0470401250334" width="5.166745655510282" height="8.833444313805886" fill="#38b000" opacity="0.2815393237470508" rx="1"/><rect x="980.1418851928651" y="645.8551486811397" width="11.172089431242107" height="6.134826698371867" fill="#008000" opacity="0.14820746894651265" rx="1"/><rect x="971.149004116107" y="648.9225620303256" width="11.172089431242107" height="6.134826698371867" fill="#38b000" opacity="0.07410373447325633" rx="1"/><rect x="982.4474356224406" y="695.0799793941487" width="6.5609885720910945" height="6.07156086435345" fill="#008000" opacity="0.1977062633255744" rx="1"/><rect x="973.4545545456825" y="698.1157598263254" width="6.5609885720910945" height="6.07156086435345" fill="#38b000" opacity="0.0988531316627872" rx="1"/><rect x="982.8835449614292" y="744.3048101071579" width="5.6887698941139435" height="7.611346184651215" fill="#008000" opacity="0.5957364365681392" rx="1"/><rect x="973.8906638846711" y="748.1104831994835" width="5.6887698941139435" height="7.611346184651215" fill="#38b000" opacity="0.2978682182840696" rx="1"/><rect x="980.5711334262908" y="793.5296408201671" width="10.313592964390665" height="9.97956509701432" fill="#008000" opacity="0.2613667781141975" rx="1"/><rect x="971.5782523495327" y="798.5194233686742" width="10.313592964390665" height="9.97956509701432" fill="#38b000" opacity="0.13068338905709875" rx="1"/><rect x="1049.557769899577" y="721.8037580423531" width="86.73786710871799" height="110.95071349082298" fill="#002300" opacity="0.5013215140442647" rx="2"/><rect x="1090.2493152346153" y="731.8037580423531" width="5.3547764386410766" height="9.788605678777351" fill="#008000" opacity="0.38522066766983376" rx="1"/><rect x="1068.5648484574358" y="736.6980608817419" width="5.3547764386410766" height="9.788605678777351" fill="#38b000" opacity="0.19261033383491688" rx="1"/><rect x="1088.9354242155687" y="759.5414364150589" width="7.982558476734571" height="9.93429902287533" fill="#008000" opacity="0.4479360724678114" rx="1"/><rect x="1067.2509574383892" y="764.5085859264966" width="7.982558476734571" height="9.93429902287533" fill="#38b000" opacity="0.2239680362339057" rx="1"/><rect x="1088.4676907363548" y="787.2791147877647" width="8.91802543516225" height="9.52181959793014" fill="#008000" opacity="0.5703845176776835" rx="1"/><rect x="1066.7832239591753" y="792.0400245867297" width="8.91802543516225" height="9.52181959793014" fill="#38b000" opacity="0.28519225883884175" rx="1"/><rect x="1087.9018099486643" y="815.0167931604703" width="10.049787010543465" height="7.248941298865001" fill="#008000" opacity="0.1549994597805197" rx="1"/><rect x="1066.2173431714848" y="818.6412638099029" width="10.049787010543465" height="7.248941298865001" fill="#38b000" opacity="0.07749972989025986" rx="1"/><rect x="1144.4331945358006" y="633.261689062524" width="88.51741761400305" height="199.4927824706521" fill="#003d00" opacity="0.6607489310812087" rx="2"/><rect x="1184.167984534708" y="643.261689062524" width="9.047837616188414" height="8.723414984234473" fill="#008000" opacity="0.5140967735820675" rx="1"/><rect x="1162.0386301312071" y="647.6233965546413" width="9.047837616188414" height="8.723414984234473" fill="#38b000" opacity="0.25704838679103376" rx="1"/><rect x="1183.1674065584791" y="693.134884680187" width="11.048993568646022" height="6.818334086988664" fill="#008000" opacity="0.5468765527584768" rx="1"/><rect x="1161.0380521549782" y="696.5440517236814" width="11.048993568646022" height="6.818334086988664" fill="#38b000" opacity="0.2734382763792384" rx="1"/><rect x="1184.8806354122974" y="743.0080802978501" width="7.622535861009391" height="6.122082931017988" fill="#008000" opacity="0.17111699077559567" rx="1"/><rect x="1162.7512810087965" y="746.0691217633591" width="7.622535861009391" height="6.122082931017988" fill="#38b000" opacity="0.08555849538779783" rx="1"/><rect x="1183.3616186114955" y="792.8812759155131" width="10.660569462613335" height="7.688337713873093" fill="#008000" opacity="0.19805295350916055" rx="1"/><rect x="1161.2322642079946" y="796.7254447724497" width="10.660569462613335" height="7.688337713873093" fill="#38b000" opacity="0.09902647675458028" rx="1"/><rect x="1249.634977757253" y="467.69110834405086" width="51.0506262865501" height="365.06336318912525" fill="#003d00" opacity="0.5675905954948605" rx="2"/><rect x="1271.9481493109843" y="477.69110834405086" width="6.424283179087631" height="8.571041999983379" fill="#008000" opacity="0.24098400614247287" rx="1"/><rect x="1259.1854927393467" y="481.9766293440425" width="6.424283179087631" height="8.571041999983379" fill="#38b000" opacity="0.12049200307123643" rx="1"/><rect x="1270.2903687694911" y="523.3240287426916" width="9.739844262073712" height="9.00209512072664" fill="#008000" opacity="0.1573387280007216" rx="1"/><rect x="1257.5277121978536" y="527.8250763030549" width="9.739844262073712" height="9.00209512072664" fill="#38b000" opacity="0.0786693640003608" rx="1"/><rect x="1269.4395433524376" y="568.9569491413322" width="11.441495096180937" height="7.812463705849941" fill="#008000" opacity="0.5387667736594488" rx="1"/><rect x="1256.6768867808" y="572.8631809942572" width="11.441495096180937" height="7.812463705849941" fill="#38b000" opacity="0.2693833868297244" rx="1"/><rect x="1271.3867669072563" y="614.5898695399728" width="7.547047986543516" height="9.076967421704197" fill="#008000" opacity="0.2805613091403063" rx="1"/><rect x="1258.6241103356188" y="619.128353250825" width="7.547047986543516" height="9.076967421704197" fill="#38b000" opacity="0.14028065457015315" rx="1"/><rect x="1271.6714434861497" y="660.2227899386135" width="6.977694828756548" height="7.190894339510914" fill="#008000" opacity="0.4202979841316813" rx="1"/><rect x="1258.9087869145121" y="663.8182371083689" width="6.977694828756548" height="7.190894339510914" fill="#38b000" opacity="0.21014899206584065" rx="1"/><rect x="1271.3562217237918" y="705.8557103372541" width="7.608138353472608" height="7.895897997053316" fill="#008000" opacity="0.3947500674740295" rx="1"/><rect x="1258.5935651521543" y="709.8036593357807" width="7.608138353472608" height="7.895897997053316" fill="#38b000" opacity="0.19737503373701476" rx="1"/><rect x="1273.0096264191586" y="751.4886307358947" width="4.3013289627389355" height="6.621916818577311" fill="#008000" opacity="0.2672390024567114" rx="1"/><rect x="1260.246969847521" y="754.7995891451834" width="4.3013289627389355" height="6.621916818577311" fill="#38b000" opacity="0.1336195012283557" rx="1"/><rect x="1271.0069383321006" y="797.1215511345355" width="8.30670513685483" height="9.219220171500748" fill="#008000" opacity="0.18348738718393431" rx="1"/><rect x="1258.244281760463" y="801.7311612202858" width="8.30670513685483" height="9.219220171500748" fill="#38b000" opacity="0.09174369359196716" rx="1"/><rect x="1333.457865556872" y="520.2206338337205" width="33.73631678142965" height="312.5338376994556" fill="#003d00" opacity="0.6999741588719128" rx="2"/><rect x="1347.6973616685648" y="530.2206338337205" width="5.257324558044161" height="6.587485321002893" fill="#008000" opacity="0.19437913694288095" rx="1"/><rect x="1339.2632824732073" y="533.514376494222" width="5.257324558044161" height="6.587485321002893" fill="#38b000" opacity="0.09718956847144047" rx="1"/><rect x="1347.6446981522993" y="582.3096067836298" width="5.36265159057515" height="8.522650866425282" fill="#008000" opacity="0.26741050399546756" rx="1"/><rect x="1339.2106189569417" y="586.5709322168424" width="5.36265159057515" height="8.522650866425282" fill="#38b000" opacity="0.13370525199773378" rx="1"/><rect x="1347.1721113388064" y="634.398579733539" width="6.307825217560824" height="8.908006379126572" fill="#008000" opacity="0.2820686255074266" rx="1"/><rect x="1338.738032143449" y="638.8525829231023" width="6.307825217560824" height="8.908006379126572" fill="#38b000" opacity="0.1410343127537133" rx="1"/><rect x="1344.6394395821058" y="686.4875526834483" width="11.373168730962362" height="7.040346564035943" fill="#008000" opacity="0.14748961365490446" rx="1"/><rect x="1336.2053603867482" y="690.0077259654662" width="11.373168730962362" height="7.040346564035943" fill="#38b000" opacity="0.07374480682745223" rx="1"/><rect x="1346.4426674076158" y="738.5765256333576" width="7.7667130799420905" height="6.706200510427868" fill="#008000" opacity="0.5747446693886874" rx="1"/><rect x="1338.0085882122582" y="741.9296258885715" width="7.7667130799420905" height="6.706200510427868" fill="#38b000" opacity="0.2873723346943437" rx="1"/><rect x="1348.1817596499934" y="790.6654985832669" width="4.288528595186893" height="8.919222620064211" fill="#008000" opacity="0.3151191888179442" rx="1"/><rect x="1339.7476804546359" y="795.1251098932989" width="4.288528595186893" height="8.919222620064211" fill="#38b000" opacity="0.1575595944089721" rx="1"/><rect x="1426.0490607854772" y="600.8849756561417" width="70.87689263766559" height="231.86949587703438" fill="#002300" opacity="0.5584655657779578" rx="2"/><rect x="1457.8637544661656" y="610.8849756561417" width="7.247505276288722" height="9.160525587191927" fill="#008000" opacity="0.10678625819431298" rx="1"/><rect x="1440.144531306749" y="615.4652384497376" width="7.247505276288722" height="9.160525587191927" fill="#38b000" opacity="0.05339312909715649" rx="1"/><rect x="1458.635141364468" y="644.0091893528609" width="5.704731479684061" height="8.16112581132006" fill="#008000" opacity="0.17394570975423457" rx="1"/><rect x="1440.9159182050514" y="648.0897522585209" width="5.704731479684061" height="8.16112581132006" fill="#38b000" opacity="0.08697285487711728" rx="1"/><rect x="1458.5611893806263" y="677.1334030495801" width="5.852635447367242" height="9.3125624627137" fill="#008000" opacity="0.44576636898465605" rx="1"/><rect x="1440.8419662212098" y="681.789684280937" width="5.852635447367242" height="9.3125624627137" fill="#38b000" opacity="0.22288318449232802" rx="1"/><rect x="1455.7817210978533" y="710.2576167462993" width="11.411572012913314" height="9.61310125598989" fill="#008000" opacity="0.26304895786173854" rx="1"/><rect x="1438.0624979384368" y="715.0641673742942" width="11.411572012913314" height="9.61310125598989" fill="#38b000" opacity="0.13152447893086927" rx="1"/><rect x="1456.371613064423" y="743.3818304430185" width="10.231788079773958" height="9.359379182420525" fill="#008000" opacity="0.19338617524909466" rx="1"/><rect x="1438.6523899050064" y="748.0615200342288" width="10.231788079773958" height="9.359379182420525" fill="#38b000" opacity="0.09669308762454733" rx="1"/><rect x="1459.26243528569" y="776.5060441397377" width="4.450143637240432" height="8.443114913637544" fill="#008000" opacity="0.5495328009243898" rx="1"/><rect x="1441.5432121262734" y="780.7276015965565" width="4.450143637240432" height="8.443114913637544" fill="#38b000" opacity="0.2747664004621949" rx="1"/><rect x="1459.1078150526619" y="809.6302578364568" width="4.759384103296181" height="6.813461376543497" fill="#008000" opacity="0.30676394428749665" rx="1"/><rect x="1441.3885918932453" y="813.0369885247286" width="4.759384103296181" height="6.813461376543497" fill="#38b000" opacity="0.15338197214374832" rx="1"/><rect x="1506.5432785608461" y="540.0150363659521" width="42.8449986439303" height="292.739435167224" fill="#003d00" opacity="0.548811640205982" rx="2"/><rect x="1524.386137027362" y="550.0150363659521" width="7.159281710898336" height="8.222128352667701" fill="#008000" opacity="0.5548836523794763" rx="1"/><rect x="1513.6748873663794" y="554.1261005422859" width="7.159281710898336" height="8.222128352667701" fill="#38b000" opacity="0.27744182618973817" rx="1"/><rect x="1521.9682451742417" y="598.8049422271562" width="11.995065417139573" height="6.560335114728737" fill="#008000" opacity="0.4603547522473044" rx="1"/><rect x="1511.256995513259" y="602.0851097845206" width="11.995065417139573" height="6.560335114728737" fill="#38b000" opacity="0.2301773761236522" rx="1"/><rect x="1525.0623819923428" y="647.5948480883601" width="5.806791780937182" height="7.76384502317846" fill="#008000" opacity="0.4501033954904655" rx="1"/><rect x="1514.35113233136" y="651.4767705999493" width="5.806791780937182" height="7.76384502317846" fill="#38b000" opacity="0.22505169774523276" rx="1"/><rect x="1525.366360565013" y="696.3847539495641" width="5.198834635596451" height="9.507118323703091" fill="#008000" opacity="0.1857146104298799" rx="1"/><rect x="1514.6551109040304" y="701.1383131114156" width="5.198834635596451" height="9.507118323703091" fill="#38b000" opacity="0.09285730521493996" rx="1"/><rect x="1522.7232231531834" y="745.1746598107682" width="10.48510945925608" height="7.384722589837556" fill="#008000" opacity="0.13940833430723482" rx="1"/><rect x="1512.0119734922007" y="748.867021105687" width="10.48510945925608" height="7.384722589837556" fill="#38b000" opacity="0.06970416715361741" rx="1"/><rect x="1524.1218469105734" y="793.9645656719722" width="7.6878619444761105" height="6.7841248290576335" fill="#008000" opacity="0.1806267901977121" rx="1"/><rect x="1513.4105972495906" y="797.356628086501" width="7.6878619444761105" height="6.7841248290576335" fill="#38b000" opacity="0.09031339509885605" rx="1"/><rect x="1594.7219000098876" y="563.8742791637485" width="87.28998223256552" height="268.88019236942756" fill="#002300" opacity="0.550710215873716" rx="2"/><rect x="1632.7317175279509" y="573.8742791637485" width="11.270347196438896" height="9.804481447628811" fill="#008000" opacity="0.1186251954917389" rx="1"/><rect x="1610.9092219698096" y="578.7765198875629" width="11.270347196438896" height="9.804481447628811" fill="#38b000" opacity="0.05931259774586945" rx="1"/><rect x="1634.7036896418851" y="618.6876445586531" width="7.326402968570218" height="7.588363216628405" fill="#008000" opacity="0.3904269963713426" rx="1"/><rect x="1612.8811940837438" y="622.4818261669673" width="7.326402968570218" height="7.588363216628405" fill="#38b000" opacity="0.1952134981856713" rx="1"/><rect x="1633.235734445267" y="663.5010099535577" width="10.262313361806402" height="6.924574951856531" fill="#008000" opacity="0.2422131207404223" rx="1"/><rect x="1611.4132388871258" y="666.963297429486" width="10.262313361806402" height="6.924574951856531" fill="#38b000" opacity="0.12110656037021116" rx="1"/><rect x="1634.1692060525288" y="708.3143753484622" width="8.395370147283042" height="9.57367062465606" fill="#008000" opacity="0.24581637204294474" rx="1"/><rect x="1612.3467104943875" y="713.1012106607902" width="8.395370147283042" height="9.57367062465606" fill="#38b000" opacity="0.12290818602147237" rx="1"/><rect x="1633.004849802873" y="753.1277407433669" width="10.724082646594402" height="8.289077587958676" fill="#008000" opacity="0.15795174780254062" rx="1"/><rect x="1611.1823542447316" y="757.2722795373462" width="10.724082646594402" height="8.289077587958676" fill="#38b000" opacity="0.07897587390127031" rx="1"/><rect x="1636.2319678664112" y="797.9411061382715" width="4.2698465195181425" height="6.898382333316464" fill="#008000" opacity="0.43605380503834545" rx="1"/><rect x="1614.4094723082699" y="801.3902973049297" width="4.2698465195181425" height="6.898382333316464" fill="#38b000" opacity="0.21802690251917273" rx="1"/><rect x="1671.1016808277107" y="657.1707289566218" width="37.803484114772516" height="175.58374257655436" fill="#002300" opacity="0.6023918815428373" rx="2"/><rect x="1684.0046324943075" y="667.1707289566218" width="11.997580781578455" height="8.60252850842721" fill="#008000" opacity="0.5993526943724958" rx="1"/><rect x="1674.5537614656146" y="671.4719932108354" width="11.997580781578455" height="8.60252850842721" fill="#38b000" opacity="0.2996763471862479" rx="1"/><rect x="1687.314154484975" y="725.6986431488066" width="5.378536800243551" height="8.898566666734071" fill="#008000" opacity="0.3347367344737837" rx="1"/><rect x="1677.863283456282" y="730.1479264821736" width="5.378536800243551" height="8.898566666734071" fill="#38b000" opacity="0.16736836723689186" rx="1"/><rect x="1687.6423578726099" y="784.2265573409913" width="4.722130024973799" height="9.229686238623618" fill="#008000" opacity="0.33145763104116954" rx="1"/><rect x="1678.191486843917" y="788.8414004603031" width="4.722130024973799" height="9.229686238623618" fill="#38b000" opacity="0.16572881552058477" rx="1"/><rect x="1770.8154951448505" y="668.3274128400551" width="76.5986994995267" height="164.42705869312096" fill="#003d00" opacity="0.5774525917548343" rx="2"/><rect x="1807.0837900309004" y="678.3274128400551" width="4.0621097274269236" height="9.668847013187792" fill="#008000" opacity="0.5057778311906796" rx="1"/><rect x="1787.9341151560186" y="683.161836346649" width="4.0621097274269236" height="9.668847013187792" fill="#38b000" opacity="0.2528889155953398" rx="1"/><rect x="1804.0892842857759" y="705.7319226222419" width="10.051121217676233" height="8.616471129147445" fill="#008000" opacity="0.46611385768421787" rx="1"/><rect x="1784.939609410894" y="710.0401581868156" width="10.051121217676233" height="8.616471129147445" fill="#38b000" opacity="0.23305692884210893" rx="1"/><rect x="1804.535925388313" y="733.1364324044288" width="9.15783901260184" height="6.804876180553082" fill="#008000" opacity="0.25094687641853164" rx="1"/><rect x="1785.3862505134312" y="736.5388704947053" width="9.15783901260184" height="6.804876180553082" fill="#38b000" opacity="0.12547343820926582" rx="1"/><rect x="1805.9818708881146" y="760.5409421866156" width="6.265948012998781" height="7.059295092024676" fill="#008000" opacity="0.4287263735730029" rx="1"/><rect x="1786.8321960132328" y="764.0705897326279" width="6.265948012998781" height="7.059295092024676" fill="#38b000" opacity="0.21436318678650146" rx="1"/><rect x="1804.6529912734445" y="787.9454519688024" width="8.92370724233885" height="7.137339435782596" fill="#008000" opacity="0.28286376869838303" rx="1"/><rect x="1785.5033163985627" y="791.5141216866938" width="8.92370724233885" height="7.137339435782596" fill="#38b000" opacity="0.14143188434919152" rx="1"/><rect x="1803.8369050741198" y="815.3499617509892" width="10.555879640988046" height="8.006363444497428" fill="#008000" opacity="0.4144336317932311" rx="1"/><rect x="1784.687230199238" y="819.353143473238" width="10.555879640988046" height="8.006363444497428" fill="#38b000" opacity="0.20721681589661556" rx="1"/><rect x="1844.891812895209" y="477.00850560260204" width="62.130426911667556" height="355.7459659305741" fill="#003d00" opacity="0.5916350479683921" rx="2"/><rect x="1871.8623003068017" y="487.00850560260204" width="8.189452088482085" height="7.170542960327711" fill="#008000" opacity="0.1745073395256203" rx="1"/><rect x="1856.3296935788846" y="490.5937770827659" width="8.189452088482085" height="7.170542960327711" fill="#38b000" opacity="0.08725366976281015" rx="1"/><rect x="1871.2126959693605" y="546.2994999243643" width="9.48866076336444" height="7.006465066458673" fill="#008000" opacity="0.11596455963234524" rx="1"/><rect x="1855.6800892414435" y="549.8027324575937" width="9.48866076336444" height="7.006465066458673" fill="#38b000" opacity="0.05798227981617262" rx="1"/><rect x="1871.0653919354656" y="605.5904942461267" width="9.78326883115416" height="9.020063086184688" fill="#008000" opacity="0.3426077511027939" rx="1"/><rect x="1855.5327852075486" y="610.1005257892191" width="9.78326883115416" height="9.020063086184688" fill="#38b000" opacity="0.17130387555139695" rx="1"/><rect x="1871.3257603469556" y="664.881488567889" width="9.262532008174464" height="7.645379766273633" fill="#008000" opacity="0.21847216568851663" rx="1"/><rect x="1855.7931536190385" y="668.7041784510259" width="9.262532008174464" height="7.645379766273633" fill="#38b000" opacity="0.10923608284425831" rx="1"/><rect x="1873.4906500090547" y="724.1724828896514" width="4.9327526839759095" height="8.847284891374242" fill="#008000" opacity="0.16383540948476535" rx="1"/><rect x="1857.9580432811376" y="728.5961253353386" width="4.9327526839759095" height="8.847284891374242" fill="#38b000" opacity="0.08191770474238268" rx="1"/><rect x="1871.1465236694385" y="783.4634772114138" width="9.621005363208475" height="7.218659381665908" fill="#008000" opacity="0.11901959348912808" rx="1"/><rect x="1855.6139169415214" y="787.0728069022467" width="9.621005363208475" height="7.218659381665908" fill="#38b000" opacity="0.05950979674456404" rx="1"/><rect x="0" y="1000" width="1920" height="80" fill="#001700" opacity="0.8"/><line x1="0" y1="1040" x2="1920" y2="1040" stroke="#008000" stroke-opacity="0.15" stroke-width="2" stroke-dasharray="30,20"/><rect x="0" y="930" width="1920" height="150" fill="url(#glow56)"/><text x="1900" y="1060" font-family="Arial, sans-serif" font-size="11" fill="#fff" opacity="0.08" text-anchor="end" letter-spacing="2">GTA 6 REWARDS · WALLPAPER 057</text>
</svg>