<?xml version="1.0" encoding="UTF-8"?>
<svg xmlns="http://www.w3.org/2000/svg" width="1920" height="1080" viewBox="0 0 1920 1080">
<defs>
    <linearGradient id="bg90" x1="0%" y1="0%" x2="0%" y2="100%">
      <stop offset="0%" stop-color="#2ec4b6"/>
      <stop offset="50%" stop-color="#009183"/>
      <stop offset="100%" stop-color="#2ec4b6"/>
    </linearGradient>
    <linearGradient id="sun90" x1="0%" y1="0%" x2="100%" y2="100%">
      <stop offset="0%" stop-color="#ff9f1c"/>
      <stop offset="100%" stop-color="#ffbf69"/>
    </linearGradient>
    <radialGradient id="glow90" cx="50%" cy="70%" r="50%">
      <stop offset="0%" stop-color="#ff9f1c" stop-opacity="0.3"/>
      <stop offset="100%" stop-color="#2ec4b6" stop-opacity="0"/>
    </radialGradient>
  </defs><rect width="1920" height="1080" fill="url(#bg90)"/><circle cx="555.1612188702359" cy="311.50429130334044" r="707.3476206062705" fill="#ff9f1c" opacity="0.12597082179877228"/><circle cx="755.1612188702359" cy="211.50429130334044" r="536.6001934131142" fill="#ffbf69" opacity="0.09043633728298273"/><line x1="0" y1="980" x2="1920" y2="980" stroke="#ffbf69" stroke-opacity="0.05" stroke-width="2"/><line x1="0" y1="935" x2="1920" y2="935" stroke="#ffbf69" stroke-opacity="0.049" stroke-width="0.5"/><line x1="0" y1="890" x2="1920" y2="890" stroke="#ffbf69" stroke-opacity="0.048" stroke-width="0.5"/><line x1="0" y1="845" x2="1920" y2="845" stroke="#ffbf69" stroke-opacity="0.047" stroke-width="0.5"/><line x1="0" y1="800" x2="1920" y2="800" stroke="#ffbf69" stroke-opacity="0.046" stroke-width="0.5"/><line x1="0" y1="755" x2="1920" y2="755" stroke="#ffbf69" stroke-opacity="0.045" stroke-width="0.5"/><line x1="0" y1="710" x2="1920" y2="710" stroke="#ffbf69" stroke-opacity="0.044" stroke-width="0.5"/><line x1="0" y1="665" x2="1920" y2="665" stroke="#ffbf69" stroke-opacity="0.043" stroke-width="0.5"/><line x1="0" y1="620" x2="1920" y2="620" stroke="#ffbf69" stroke-opacity="0.041999999999999996" stroke-width="0.5"/><line x1="0" y1="575" x2="1920" y2="575" stroke="#ffbf69" stroke-opacity="0.041" stroke-width="0.5"/><line x1="0" y1="530" x2="1920" y2="530" stroke="#ffbf69" stroke-opacity="0.04" stroke-width="0.5"/><line x1="0" y1="485" x2="1920" y2="485" stroke="#ffbf69" stroke-opacity="0.039" stroke-width="0.5"/><line x1="0" y1="440" x2="1920" y2="440" stroke="#ffbf69" stroke-opacity="0.038" stroke-width="0.5"/><line x1="0" y1="395" x2="1920" y2="395" stroke="#ffbf69" stroke-opacity="0.037" stroke-width="0.5"/><line x1="0" y1="350" x2="1920" y2="350" stroke="#ffbf69" stroke-opacity="0.036" stroke-width="0.5"/><line x1="0" y1="305" x2="1920" y2="305" stroke="#ffbf69" stroke-opacity="0.034999999999999996" stroke-width="0.5"/><line x1="0" y1="260" x2="1920" y2="260" stroke="#ffbf69" stroke-opacity="0.033999999999999996" stroke-width="0.5"/><line x1="0" y1="215" x2="1920" y2="215" stroke="#ffbf69" stroke-opacity="0.033" stroke-width="0.5"/><line x1="0" y1="170" x2="1920" y2="170" stroke="#ffbf69" stroke-opacity="0.032" stroke-width="0.5"/><line x1="0" y1="125" x2="1920" y2="125" stroke="#ffbf69" stroke-opacity="0.031" stroke-width="0.5"/><line x1="560" y1="1080" x2="860" y2="580" stroke="#ff9f1c" stroke-opacity="0.04" stroke-width="1"/><line x1="640" y1="1080" x2="880" y2="590" stroke="#ff9f1c" stroke-opacity="0.04" stroke-width="1"/><line x1="720" y1="1080" x2="900" y2="600" stroke="#ff9f1c" stroke-opacity="0.04" stroke-width="1"/><line x1="800" y1="1080" x2="920" y2="610" stroke="#ff9f1c" stroke-opacity="0.04" stroke-width="1"/><line x1="880" y1="1080" x2="940" y2="620" stroke="#ff9f1c" stroke-opacity="0.04" stroke-width="1"/><line x1="960" y1="1080" x2="960" y2="630" stroke="#ff9f1c" stroke-opacity="0.04" stroke-width="1"/><line x1="1040" y1="1080" x2="980" y2="620" stroke="#ff9f1c" stroke-opacity="0.04" stroke-width="1"/><line x1="1120" y1="1080" x2="1000" y2="610" stroke="#ff9f1c" stroke-opacity="0.04" stroke-width="1"/><line x1="1200" y1="1080" x2="1020" y2="600" stroke="#ff9f1c" stroke-opacity="0.04" stroke-width="1"/><line x1="1280" y1="1080" x2="1040" y2="590" stroke="#ff9f1c" stroke-opacity="0.04" stroke-width="1"/><line x1="1360" y1="1080" x2="1060" y2="580" stroke="#ff9f1c" stroke-opacity="0.04" stroke-width="1"/><circle cx="1326.4386391794399" cy="209.18879319429138" r="60.242165587898846" fill="url(#sun90)" opacity="0.7192134057449208"/><circle cx="1326.4386391794399" cy="209.18879319429138" r="55.242165587898846" fill="#2ec4b6" opacity="0.3"/><pattern id="scan90" width="1920" height="4" patternUnits="userSpaceOnUse">
      <line x1="0" y1="0" x2="1920" y2="0" stroke="#000" stroke-opacity="0.05" stroke-width="1"/>
    </pattern>
    <rect width="1920" height="1080" fill="url(#scan90)"/><circle cx="1748.1943474309971" cy="418.32283449227054" r="1.9500837430707374" fill="#fff" opacity="0.2131429377508217"/><circle cx="1919.8720675706566" cy="357.79533186317315" r="0.7299053906998376" fill="#fff" opacity="0.23982594684693637"/><circle cx="993.651639603463" cy="273.10308804016165" r="1.2614308765068256" fill="#fff" opacity="0.3796322984107845"/><circle cx="1393.3625255789054" cy="41.868843319329635" r="0.7501464236411607" fill="#fff" opacity="0.6277342937951289"/><circle cx="803.523707725928" cy="252.92988896670983" r="1.141535901613891" fill="#fff" opacity="0.5542793284529539"/><circle cx="470.5861174665825" cy="71.46976524765364" r="0.7459761446216088" fill="#fff" opacity="0.5342482369705681"/><circle cx="1774.5165744085136" cy="348.7216803125855" r="0.8048955776740088" fill="#fff" opacity="0.6962254361473549"/><circle cx="1577.9699978926149" cy="132.37547302720498" r="1.749331160622959" fill="#fff" opacity="0.43515555319263494"/><circle cx="860.6875274099148" cy="123.60070871086808" r="1.7823791877092745" fill="#fff" opacity="0.7743129332490062"/><circle cx="1413.78777298466" cy="149.94443144787672" r="1.3232889478847591" fill="#fff" opacity="0.7843002845030977"/><circle cx="1358.6326417510008" cy="359.0829614715378" r="1.8725326059787843" fill="#fff" opacity="0.39976638671936615"/><circle cx="1536.1629151404284" cy="96.86026493107441" r="1.64628136918095" fill="#fff" opacity="0.7138461088095434"/><circle cx="1416.799007686041" cy="236.84485359788988" r="0.563940772103132" fill="#fff" opacity="0.33208293042426995"/><circle cx="1791.787051826666" cy="371.53687561758255" r="1.0263640722321263" fill="#fff" opacity="0.5992532530332109"/><circle cx="926.5165429484371" cy="359.3279366063252" r="0.7130372226734267" fill="#fff" opacity="0.7629379062361406"/><circle cx="773.2182859194508" cy="109.71086622348774" r="1.5586063417276848" fill="#fff" opacity="0.5655406534125891"/><circle cx="770.5454883283343" cy="235.26123826840455" r="1.784988659267544" fill="#fff" opacity="0.5902262625261737"/><circle cx="1142.8801907279715" cy="237.6311640584914" r="1.7447823817480315" fill="#fff" opacity="0.36243186447826026"/><circle cx="1149.5516670936606" cy="124.96986654330274" r="1.8454479499127363" fill="#fff" opacity="0.5123929001186958"/><circle cx="1460.3007270815551" cy="318.4449925866083" r="0.912298889461043" fill="#fff" opacity="0.5847722172236005"/><circle cx="691.0821204006397" cy="59.501466753776526" r="0.5792668917168088" fill="#fff" opacity="0.33885770229130463"/><circle cx="1769.6839619822997" cy="294.88436630155996" r="1.3423330380679883" fill="#fff" opacity="0.39925292879325636"/><circle cx="1012.7707902464948" cy="169.53182259423934" r="1.4836222054398671" fill="#fff" opacity="0.6516473451283871"/><circle cx="820.9328101996641" cy="252.71030898688136" r="1.3252198017028207" fill="#fff" opacity="0.32860754414661963"/><circle cx="80.80235304329598" cy="27.411252855186174" r="1.8137163370413978" fill="#fff" opacity="0.6160539130717642"/><circle cx="525.9360137316249" cy="247.42399919578432" r="1.1330023006612906" fill="#fff" opacity="0.43056469932910163"/><circle cx="479.6748010440904" cy="145.87172742604085" r="1.3625930357637333" fill="#fff" opacity="0.4120178978918162"/><circle cx="863.2458518965276" cy="311.04396040901634" r="0.9743489870974675" fill="#fff" opacity="0.5519225084110914"/><circle cx="1127.5479441526224" cy="391.76923369424634" r="1.1862337469789743" fill="#fff" opacity="0.49448521823959546"/><circle cx="1871.962865430853" cy="412.88634496854763" r="1.7175786530639927" fill="#fff" opacity="0.78337575639211"/><circle cx="1771.738380308202" cy="364.46380726165694" r="1.7341385786966743" fill="#fff" opacity="0.34818796206921987"/><circle cx="1283.4927743681455" cy="126.99765035486726" r="0.6117557955700336" fill="#fff" opacity="0.7673527342656983"/><circle cx="907.2105263795729" cy="115.39323934619156" r="1.8820183775113009" fill="#fff" opacity="0.7862811594238228"/><circle cx="1653.8640452301745" cy="326.84048416624785" r="0.8250817294058115" fill="#fff" opacity="0.6942990194294366"/><circle cx="948.5444039824755" cy="401.7152223963559" r="0.6908292109591023" fill="#fff" opacity="0.5245683015148547"/><circle cx="1780.401314166468" cy="54.45972564221819" r="0.9409300265696203" fill="#fff" opacity="0.34234188970698554"/><circle cx="934.0666533201157" cy="348.677629756899" r="1.1039862508429183" fill="#fff" opacity="0.7766614876167526"/><circle cx="1125.0357862946196" cy="316.9595512368156" r="0.844903950776184" fill="#fff" opacity="0.6914481902707945"/><circle cx="1790.8322162625454" cy="275.0883425108828" r="0.9102925768611703" fill="#fff" opacity="0.24804440891557478"/><circle cx="1200.9260785395575" cy="197.60893745850979" r="1.725195033528189" fill="#fff" opacity="0.5652293376543627"/><circle cx="1740.5446631788614" cy="248.0831957813546" r="0.9222664045920284" fill="#fff" opacity="0.6356251991902536"/><circle cx="1602.292628661332" cy="151.27282697876748" r="1.7328774110024976" fill="#fff" opacity="0.7831386161463192"/><circle cx="1825.8624265868827" cy="111.34730846419635" r="0.7796119397458647" fill="#fff" opacity="0.6855009367422902"/><circle cx="607.6569750829733" cy="225.65853134953852" r="1.4070316732178982" fill="#fff" opacity="0.6640791700370794"/><circle cx="444.9752136610856" cy="292.4194797511258" r="0.9426561003650203" fill="#fff" opacity="0.4906790260436663"/><circle cx="955.6760700782006" cy="7.441760079805217" r="1.2963946616035873" fill="#fff" opacity="0.7808642703995259"/><circle cx="684.5009464129109" cy="248.53634017532139" r="1.7952720806457272" fill="#fff" opacity="0.7950241132162101"/><circle cx="1863.5898560154228" cy="125.53106235282753" r="1.6698423939919662" fill="#fff" opacity="0.35746596068084846"/><rect x="18.110096046726706" y="626.1099072583274" width="39.34039746628618" height="298.6589081349454" fill="#2ec4b6" opacity="0.413080634645438" rx="2"/><rect x="34.66494940679169" y="636.1099072583274" width="6.230690746156194" height="8.562860826627086" fill="#ffbf69" opacity="0.5630496047816821" rx="1"/><rect x="24.829850040220155" y="640.3913376716409" width="6.230690746156194" height="8.562860826627086" fill="#ff9f1c" opacity="0.28152480239084104" rx="1"/><rect x="32.591568828930974" y="710.7746342920638" width="10.377451901877638" height="9.089845064815563" fill="#ffbf69" opacity="0.2868956714605204" rx="1"/><rect x="22.756469462359433" y="715.3195568244715" width="10.377451901877638" height="9.089845064815563" fill="#ff9f1c" opacity="0.1434478357302602" rx="1"/><rect x="31.826104230439775" y="785.4393613258002" width="11.908381098860033" height="7.728364497825588" fill="#ffbf69" opacity="0.3899828474712518" rx="1"/><rect x="21.991004863868234" y="789.303543574713" width="11.908381098860033" height="7.728364497825588" fill="#ff9f1c" opacity="0.1949914237356259" rx="1"/><rect x="32.223329700814396" y="860.1040883595365" width="11.113930158110785" height="8.40707425549791" fill="#ffbf69" opacity="0.2345395208649662" rx="1"/><rect x="22.38823033424286" y="864.3076254872855" width="11.113930158110785" height="8.40707425549791" fill="#ff9f1c" opacity="0.1172697604324831" rx="1"/><rect x="110.9844532960524" y="802.0173318339552" width="89.63476453433623" height="122.75148355931776" fill="#14aa9c" opacity="0.6507808130818374" rx="2"/><rect x="152.46495739916918" y="812.0173318339552" width="6.67375632810261" height="7.5524619737529335" fill="#ffbf69" opacity="0.1321308877393908" rx="1"/><rect x="130.05626626558512" y="815.7935628208317" width="6.67375632810261" height="7.5524619737529335" fill="#ff9f1c" opacity="0.0660654438696954" rx="1"/><rect x="153.1464778818531" y="827.3612672788698" width="5.310715362734793" height="6.673711076535683" fill="#ffbf69" opacity="0.28182393272449824" rx="1"/><rect x="130.73778674826903" y="830.6981228171377" width="5.310715362734793" height="6.673711076535683" fill="#ff9f1c" opacity="0.14091196636224912" rx="1"/><rect x="150.12396204032095" y="842.7052027237846" width="11.355747045799099" height="7.083356828681044" fill="#ffbf69" opacity="0.12972985048073574" rx="1"/><rect x="127.71527090673689" y="846.2468811381251" width="11.355747045799099" height="7.083356828681044" fill="#ff9f1c" opacity="0.06486492524036787" rx="1"/><rect x="150.19675771547404" y="858.0491381686993" width="11.210155695492904" height="8.6308446746857" fill="#ffbf69" opacity="0.4885972165476059" rx="1"/><rect x="127.78806658188998" y="862.3645605060422" width="11.210155695492904" height="8.6308446746857" fill="#ff9f1c" opacity="0.24429860827380295" rx="1"/><rect x="150.8141575608901" y="873.393073613614" width="9.9753560046608" height="7.857783819981335" fill="#ffbf69" opacity="0.1252468084276763" rx="1"/><rect x="128.40546642730604" y="877.3219655236046" width="9.9753560046608" height="7.857783819981335" fill="#ff9f1c" opacity="0.06262340421383815" rx="1"/><rect x="153.03940541298113" y="888.7370090585288" width="5.524860300478726" height="9.016829148637324" fill="#ffbf69" opacity="0.27911610383985475" rx="1"/><rect x="130.63071427939707" y="893.2454236328474" width="5.524860300478726" height="9.016829148637324" fill="#ff9f1c" opacity="0.13955805191992737" rx="1"/><rect x="150.56685846335412" y="904.0809445034434" width="10.469954199732737" height="9.084550863850058" fill="#ffbf69" opacity="0.34352593551006305" rx="1"/><rect x="128.15816732977007" y="908.6232199353685" width="10.469954199732737" height="9.084550863850058" fill="#ff9f1c" opacity="0.17176296775503153" rx="1"/><rect x="150.10069432321484" y="919.4248799483582" width="11.402282480011294" height="9.619341174983266" fill="#ffbf69" opacity="0.22470272698549154" rx="1"/><rect x="127.69200318963078" y="924.2345505358498" width="11.402282480011294" height="9.619341174983266" fill="#ff9f1c" opacity="0.11235136349274577" rx="1"/><rect x="215.29233788496168" y="680.3522002721094" width="38.02840132453209" height="244.41661512116355" fill="#14aa9c" opacity="0.4600208160374362" rx="2"/><rect x="231.50069742614883" y="690.3522002721094" width="5.611682242157795" height="7.077249892306805" fill="#ffbf69" opacity="0.2971200354623422" rx="1"/><rect x="221.99359709501582" y="693.8908252182628" width="5.611682242157795" height="7.077249892306805" fill="#ff9f1c" opacity="0.1485600177311711" rx="1"/><rect x="229.5667283508383" y="751.4563540524002" width="9.4796203927788" height="8.927125798288529" fill="#ffbf69" opacity="0.25764832185992237" rx="1"/><rect x="220.0596280197053" y="755.9199169515445" width="9.4796203927788" height="8.927125798288529" fill="#ff9f1c" opacity="0.12882416092996118" rx="1"/><rect x="229.52539224748622" y="812.5605078326912" width="9.562292599482996" height="7.203273535054939" fill="#ffbf69" opacity="0.13660664242613285" rx="1"/><rect x="220.0182919163532" y="816.1621446002187" width="9.562292599482996" height="7.203273535054939" fill="#ff9f1c" opacity="0.06830332121306643" rx="1"/><rect x="231.92553170652255" y="873.6646616129821" width="4.762013681410349" height="6.98975389846362" fill="#ffbf69" opacity="0.5535543506391241" rx="1"/><rect x="222.41843137538953" y="877.1595385622139" width="4.762013681410349" height="6.98975389846362" fill="#ff9f1c" opacity="0.27677717531956203" rx="1"/><rect x="335.93207805089935" y="830.5523905392159" width="81.51498635567609" height="94.21642485405701" fill="#2ec4b6" opacity="0.6839453331157438" rx="2"/><rect x="372.169597459298" y="840.5523905392159" width="9.039947538878756" height="8.918311441996673" fill="#ffbf69" opacity="0.47955450939004185" rx="1"/><rect x="351.79085087037896" y="845.0115462602142" width="9.039947538878756" height="8.918311441996673" fill="#ff9f1c" opacity="0.23977725469502092" rx="1"/><rect x="372.78576399706907" y="854.0118798040812" width="7.807614463336677" height="8.481585145574432" fill="#ffbf69" opacity="0.3728850868933101" rx="1"/><rect x="352.40701740815" y="858.2526723768684" width="7.807614463336677" height="8.481585145574432" fill="#ff9f1c" opacity="0.18644254344665506" rx="1"/><rect x="372.61762840897256" y="867.4713690689465" width="8.14388563952965" height="9.906837390714054" fill="#ffbf69" opacity="0.4770546209712174" rx="1"/><rect x="352.2388818200535" y="872.4247877643036" width="8.14388563952965" height="9.906837390714054" fill="#ff9f1c" opacity="0.2385273104856087" rx="1"/><rect x="371.27627373586324" y="880.9308583338118" width="10.826594985748315" height="6.797012190520068" fill="#ffbf69" opacity="0.1547971843170927" rx="1"/><rect x="350.8975271469442" y="884.3293644290718" width="10.826594985748315" height="6.797012190520068" fill="#ff9f1c" opacity="0.07739859215854634" rx="1"/><rect x="373.3303601542326" y="894.3903475986771" width="6.718422149009635" height="6.68060638212613" fill="#ffbf69" opacity="0.15907336600568922" rx="1"/><rect x="352.95161356531355" y="897.7306507897401" width="6.718422149009635" height="6.68060638212613" fill="#ff9f1c" opacity="0.07953668300284461" rx="1"/><rect x="374.3438141828738" y="907.8498368635424" width="4.6915140917272105" height="7.115488067529045" fill="#ffbf69" opacity="0.48170818551017625" rx="1"/><rect x="353.96506759395476" y="911.4075808973068" width="4.6915140917272105" height="7.115488067529045" fill="#ff9f1c" opacity="0.24085409275508812" rx="1"/><rect x="371.8577127840505" y="921.3093261284076" width="9.663716889373891" height="6.197690551215245" fill="#ffbf69" opacity="0.32566965378952906" rx="1"/><rect x="351.4789661951314" y="924.4081714040152" width="9.663716889373891" height="6.197690551215245" fill="#ff9f1c" opacity="0.16283482689476453" rx="1"/><rect x="428.3447425692213" y="751.7695864899479" width="69.1412448089433" height="172.9992289033251" fill="#14aa9c" opacity="0.5077715045557757" rx="2"/><rect x="457.63999792622394" y="761.7695864899479" width="10.550734094937969" height="8.996612801914246" fill="#ffbf69" opacity="0.38359804157717103" rx="1"/><rect x="440.35468672398815" y="766.267892890905" width="10.550734094937969" height="8.996612801914246" fill="#ff9f1c" opacity="0.19179902078858552" rx="1"/><rect x="457.3950960045668" y="805.0193937157792" width="11.040537938252218" height="7.958834755690497" fill="#ffbf69" opacity="0.3139406140693325" rx="1"/><rect x="440.10978480233103" y="808.9988110936245" width="11.040537938252218" height="7.958834755690497" fill="#ff9f1c" opacity="0.15697030703466625" rx="1"/><rect x="459.8062494445606" y="848.2692009416104" width="6.218231058264671" height="6.6277894258098184" fill="#ffbf69" opacity="0.29407934653434886" rx="1"/><rect x="442.5209382423248" y="851.5830956545153" width="6.218231058264671" height="6.6277894258098184" fill="#ff9f1c" opacity="0.14703967326717443" rx="1"/><rect x="458.7473244023852" y="891.5190081674417" width="8.336081142615546" height="7.720153577094933" fill="#ffbf69" opacity="0.17579788579042022" rx="1"/><rect x="441.4620132001494" y="895.3790849559891" width="8.336081142615546" height="7.720153577094933" fill="#ff9f1c" opacity="0.08789894289521011" rx="1"/><rect x="539.558098006425" y="812.8765802511192" width="79.43850268363917" height="111.89223514215374" fill="#2ec4b6" opacity="0.43612482788416673" rx="2"/><rect x="577.0200172383385" y="822.8765802511192" width="4.514664219812179" height="9.087782418142954" fill="#ffbf69" opacity="0.1258757228790493" rx="1"/><rect x="557.1603915674287" y="827.4204714601907" width="4.514664219812179" height="9.087782418142954" fill="#ff9f1c" opacity="0.06293786143952465" rx="1"/><rect x="573.6099821265344" y="850.8496390366577" width="11.334734443420249" height="9.202828266472283" fill="#ffbf69" opacity="0.29764900922254867" rx="1"/><rect x="553.7503564556247" y="855.4510531698938" width="11.334734443420249" height="9.202828266472283" fill="#ff9f1c" opacity="0.14882450461127433" rx="1"/><rect x="576.7542187766531" y="878.8226978221961" width="5.046261143182931" height="7.641501611480839" fill="#ffbf69" opacity="0.33826905729674484" rx="1"/><rect x="556.8945931057434" y="882.6434486279366" width="5.046261143182931" height="7.641501611480839" fill="#ff9f1c" opacity="0.16913452864837242" rx="1"/><rect x="574.5168975660384" y="906.7957566077346" width="9.520903564412357" height="8.786609905489396" fill="#ffbf69" opacity="0.10366577960170476" rx="1"/><rect x="554.6572718951287" y="911.1890615604792" width="9.520903564412357" height="8.786609905489396" fill="#ff9f1c" opacity="0.05183288980085238" rx="1"/><rect x="663.1289460354319" y="587.9118471960331" width="38.64664393678462" height="336.8569681972398" fill="#14aa9c" opacity="0.4931149034279201" rx="2"/><rect x="679.1607909333335" y="597.9118471960331" width="6.582954140981416" height="7.7339009479000005" fill="#ffbf69" opacity="0.5377882805275238" rx="1"/><rect x="669.4991299491373" y="601.7787976699832" width="6.582954140981416" height="7.7339009479000005" fill="#ff9f1c" opacity="0.2688941402637619" rx="1"/><rect x="677.7002780490322" y="710.1975032617797" width="9.503979909583922" height="8.767562527853894" fill="#ffbf69" opacity="0.2529286696233155" rx="1"/><rect x="668.0386170648361" y="714.5812845257067" width="9.503979909583922" height="8.767562527853894" fill="#ff9f1c" opacity="0.12646433481165775" rx="1"/><rect x="676.5899065690091" y="822.4831593275263" width="11.72472286963014" height="6.811958454738361" fill="#ffbf69" opacity="0.2789142027681028" rx="1"/><rect x="666.928245584813" y="825.8891385548955" width="11.72472286963014" height="6.811958454738361" fill="#ff9f1c" opacity="0.1394571013840514" rx="1"/><rect x="769.0067182153012" y="548.8419418686167" width="49.481776193594975" height="375.9268735246563" fill="#2ec4b6" opacity="0.6789199904489611" rx="2"/><rect x="787.7592133350574" y="558.8419418686167" width="11.976785954082569" height="9.035293384230531" fill="#ffbf69" opacity="0.11002144546015688" rx="1"/><rect x="775.3887692866588" y="563.3595885607319" width="11.976785954082569" height="9.035293384230531" fill="#ff9f1c" opacity="0.05501072273007844" rx="1"/><rect x="789.8224910420416" y="684.1508997101688" width="7.850230540114043" height="8.957410516905927" fill="#ffbf69" opacity="0.5230503814581433" rx="1"/><rect x="777.452046993643" y="688.6296049686217" width="7.850230540114043" height="8.957410516905927" fill="#ff9f1c" opacity="0.26152519072907165" rx="1"/><rect x="791.242356089" y="809.4598575517209" width="5.010500446197228" height="8.141433588727711" fill="#ffbf69" opacity="0.4819863036931461" rx="1"/><rect x="778.8719120406014" y="813.5305743460848" width="5.010500446197228" height="8.141433588727711" fill="#ff9f1c" opacity="0.24099315184657305" rx="1"/><rect x="857.1172537368528" y="626.3721883940445" width="80.69972152139519" height="298.3966269992284" fill="#2ec4b6" opacity="0.4097594996238499" rx="2"/><rect x="894.6238212766181" y="636.3721883940445" width="5.686586441864861" height="6.71036794984489" fill="#ffbf69" opacity="0.46800810551922956" rx="1"/><rect x="874.4488908962692" y="639.7273723689669" width="5.686586441864861" height="6.71036794984489" fill="#ff9f1c" opacity="0.23400405275961478" rx="1"/><rect x="894.9252019845705" y="673.6717667689481" width="5.083825025959831" height="7.8025730256462875" fill="#ffbf69" opacity="0.18307940701094444" rx="1"/><rect x="874.7502716042217" y="677.5730532817713" width="5.083825025959831" height="7.8025730256462875" fill="#ff9f1c" opacity="0.09153970350547222" rx="1"/><rect x="893.1231848951716" y="710.9713451438516" width="8.687859204757926" height="9.045454920978624" fill="#ffbf69" opacity="0.47641066216780126" rx="1"/><rect x="872.9482545148227" y="715.494072604341" width="8.687859204757926" height="9.045454920978624" fill="#ff9f1c" opacity="0.23820533108390063" rx="1"/><rect x="892.8015915937259" y="748.2709235187551" width="9.33104580764916" height="8.341880471990882" fill="#ffbf69" opacity="0.3506393244840762" rx="1"/><rect x="872.626661213377" y="752.4418637547506" width="9.33104580764916" height="8.341880471990882" fill="#ff9f1c" opacity="0.1753196622420381" rx="1"/><rect x="892.6536239245099" y="785.5705018936587" width="9.626981146081114" height="7.881167785702545" fill="#ffbf69" opacity="0.3993327185510035" rx="1"/><rect x="872.478693544161" y="789.51108578651" width="9.626981146081114" height="7.881167785702545" fill="#ff9f1c" opacity="0.19966635927550175" rx="1"/><rect x="892.57484729485" y="822.8700802685623" width="9.7845344054011" height="6.81149994600832" fill="#ffbf69" opacity="0.3814551974370739" rx="1"/><rect x="872.3999169145011" y="826.2758302415665" width="9.7845344054011" height="6.81149994600832" fill="#ff9f1c" opacity="0.19072759871853695" rx="1"/><rect x="894.9387998110471" y="860.1696586434658" width="5.056629373006669" height="8.467426474780641" fill="#ffbf69" opacity="0.45530568085501566" rx="1"/><rect x="874.7638694306983" y="864.4033718808562" width="5.056629373006669" height="8.467426474780641" fill="#ff9f1c" opacity="0.22765284042750783" rx="1"/><rect x="892.0515982683402" y="897.4692370183693" width="10.831032458420617" height="6.959270613491365" fill="#ffbf69" opacity="0.23753865476174715" rx="1"/><rect x="871.8766678879913" y="900.948872325115" width="10.831032458420617" height="6.959270613491365" fill="#ff9f1c" opacity="0.11876932738087358" rx="1"/><rect x="971.0344613182905" y="548.0667339400543" width="52.6740995521364" height="376.7020814532186" fill="#2ec4b6" opacity="0.40467881893382385" rx="2"/><rect x="993.0085870032219" y="558.0667339400543" width="8.725848182273527" height="9.205253006705375" fill="#ffbf69" opacity="0.20181373697747795" rx="1"/><rect x="979.8400621151878" y="562.669360443407" width="8.725848182273527" height="9.205253006705375" fill="#ff9f1c" opacity="0.10090686848873898" rx="1"/><rect x="995.0025709345942" y="611.8813170047998" width="4.73788031952872" height="6.422106426307491" fill="#ffbf69" opacity="0.47221616561809" rx="1"/><rect x="981.8340460465602" y="615.0923702179535" width="4.73788031952872" height="6.422106426307491" fill="#ff9f1c" opacity="0.236108082809045" rx="1"/><rect x="992.9386125695748" y="665.6959000695454" width="8.865797049567522" height="9.630473511207494" fill="#ffbf69" opacity="0.4554420284590316" rx="1"/><rect x="979.7700876815408" y="670.5111368251492" width="8.865797049567522" height="9.630473511207494" fill="#ff9f1c" opacity="0.2277210142295158" rx="1"/><rect x="994.766967247186" y="719.5104831342908" width="5.209087694345295" height="7.795371078372787" fill="#ffbf69" opacity="0.3241696148934238" rx="1"/><rect x="981.5984423591519" y="723.4081686734771" width="5.209087694345295" height="7.795371078372787" fill="#ff9f1c" opacity="0.1620848074467119" rx="1"/><rect x="993.8080624935236" y="773.3250661990364" width="7.126897201670078" height="9.087773358236946" fill="#ffbf69" opacity="0.3296544691151135" rx="1"/><rect x="980.6395376054895" y="777.8689528781549" width="7.126897201670078" height="9.087773358236946" fill="#ff9f1c" opacity="0.16482723455755674" rx="1"/><rect x="994.979707822199" y="827.1396492637818" width="4.783606544319449" height="9.723195259394869" fill="#ffbf69" opacity="0.294944472097546" rx="1"/><rect x="981.8111829341649" y="832.0012468934793" width="4.783606544319449" height="9.723195259394869" fill="#ff9f1c" opacity="0.147472236048773" rx="1"/><rect x="994.0363618515051" y="880.9542323285274" width="6.670298485707095" height="6.663759568860699" fill="#ffbf69" opacity="0.5915200778030605" rx="1"/><rect x="980.8678369634711" y="884.2861121129578" width="6.670298485707095" height="6.663759568860699" fill="#ff9f1c" opacity="0.29576003890153024" rx="1"/><rect x="1094.69308726366" y="798.9473072460264" width="41.314056602146955" height="125.82150814724656" fill="#2ec4b6" opacity="0.4807371259389299" rx="2"/><rect x="1112.0917646510275" y="808.9473072460264" width="6.516701827411703" height="7.4431030520804" fill="#ffbf69" opacity="0.30967511744463705" rx="1"/><rect x="1101.7632505004906" y="812.6688587720666" width="6.516701827411703" height="7.4431030520804" fill="#ff9f1c" opacity="0.15483755872231852" rx="1"/><rect x="1112.499060879345" y="829.9175586039008" width="5.7021093707769435" height="9.7235075355795" fill="#ffbf69" opacity="0.5538105254652469" rx="1"/><rect x="1102.1705467288082" y="834.7793123716906" width="5.7021093707769435" height="9.7235075355795" fill="#ff9f1c" opacity="0.27690526273262345" rx="1"/><rect x="1110.1624733473088" y="850.8878099617752" width="10.375284434849231" height="8.242103453316284" fill="#ffbf69" opacity="0.5066137693372121" rx="1"/><rect x="1099.833959196772" y="855.0088616884334" width="10.375284434849231" height="8.242103453316284" fill="#ff9f1c" opacity="0.25330688466860607" rx="1"/><rect x="1112.1822312137072" y="871.8580613196497" width="6.33576870205248" height="8.537018471988155" fill="#ffbf69" opacity="0.30856696849422693" rx="1"/><rect x="1101.8537170631703" y="876.1265705556438" width="6.33576870205248" height="8.537018471988155" fill="#ff9f1c" opacity="0.15428348424711347" rx="1"/><rect x="1112.1374918835093" y="892.8283126775241" width="6.425247362448193" height="9.016204593474093" fill="#ffbf69" opacity="0.238554104403256" rx="1"/><rect x="1101.8089777329724" y="897.3364149742612" width="6.425247362448193" height="9.016204593474093" fill="#ff9f1c" opacity="0.119277052201628" rx="1"/><rect x="1109.4549752055796" y="913.7985640353986" width="11.790280718307542" height="6.210416149397012" fill="#ffbf69" opacity="0.23904180357676041" rx="1"/><rect x="1099.1264610550427" y="916.9037721100971" width="11.790280718307542" height="6.210416149397012" fill="#ff9f1c" opacity="0.11952090178838021" rx="1"/><rect x="1188.3897966096156" y="559.9060772475567" width="31.57598036843724" height="364.8627381457162" fill="#14aa9c" opacity="0.49274443462322104" rx="2"/><rect x="1202.0413268332002" y="569.9060772475567" width="4.272919921267992" height="9.417795967175111" fill="#ffbf69" opacity="0.2896516804559277" rx="1"/><rect x="1194.1473317410907" y="574.6149752311443" width="4.272919921267992" height="9.417795967175111" fill="#ff9f1c" opacity="0.14482584022796385" rx="1"/><rect x="1201.076219371538" y="661.1217617839858" width="6.2031348445925705" height="6.290264122255674" fill="#ffbf69" opacity="0.594896287563" rx="1"/><rect x="1193.1822242794285" y="664.2668938451136" width="6.2031348445925705" height="6.290264122255674" fill="#ff9f1c" opacity="0.2974481437815" rx="1"/><rect x="1198.8499945946621" y="752.3374463204148" width="10.655584398344063" height="6.834919627950275" fill="#ffbf69" opacity="0.57294272411916" rx="1"/><rect x="1190.9559995025527" y="755.7549061343899" width="10.655584398344063" height="6.834919627950275" fill="#ff9f1c" opacity="0.28647136205958" rx="1"/><rect x="1198.6221450980806" y="843.5531308568438" width="11.111283391507175" height="9.044044282996106" fill="#ffbf69" opacity="0.19785981548434584" rx="1"/><rect x="1190.7281500059712" y="848.0751529983419" width="11.111283391507175" height="9.044044282996106" fill="#ff9f1c" opacity="0.09892990774217292" rx="1"/><rect x="1304.8606183903432" y="818.2196084335957" width="78.27290222241378" height="106.5492069596772" fill="#2ec4b6" opacity="0.5563695202945661" rx="2"/><rect x="1338.6111338952583" y="828.2196084335957" width="10.771871212583935" height="9.213248751874373" fill="#ffbf69" opacity="0.5770454029732024" rx="1"/><rect x="1319.0429083396548" y="832.8262328095328" width="10.771871212583935" height="9.213248751874373" fill="#ff9f1c" opacity="0.2885227014866012" rx="1"/><rect x="1338.0968479367664" y="843.4409237135495" width="11.800443129567533" height="6.279779454758339" fill="#ffbf69" opacity="0.5013768450593057" rx="1"/><rect x="1318.528622381163" y="846.5808134409286" width="11.800443129567533" height="6.279779454758339" fill="#ff9f1c" opacity="0.25068842252965284" rx="1"/><rect x="1340.3587395314496" y="858.6622389935035" width="7.276659940201011" height="8.240706237554715" fill="#ffbf69" opacity="0.4769970282160204" rx="1"/><rect x="1320.7905139758461" y="862.7825921122808" width="7.276659940201011" height="8.240706237554715" fill="#ff9f1c" opacity="0.2384985141080102" rx="1"/><rect x="1338.656966503164" y="873.8835542734573" width="10.680205996772322" height="9.785269131833983" fill="#ffbf69" opacity="0.16316899451500946" rx="1"/><rect x="1319.0887409475606" y="878.7761888393743" width="10.680205996772322" height="9.785269131833983" fill="#ff9f1c" opacity="0.08158449725750473" rx="1"/><rect x="1339.900336089288" y="889.1048695534113" width="8.193466824524446" height="8.415615781772793" fill="#ffbf69" opacity="0.3279350534612162" rx="1"/><rect x="1320.3321105336845" y="893.3126774442977" width="8.193466824524446" height="8.415615781772793" fill="#ff9f1c" opacity="0.1639675267306081" rx="1"/><rect x="1339.4331664029587" y="904.3261848333651" width="9.127806197183162" height="7.463375619953353" fill="#ffbf69" opacity="0.22123383665951757" rx="1"/><rect x="1319.8649408473552" y="908.0578726433417" width="9.127806197183162" height="7.463375619953353" fill="#ff9f1c" opacity="0.11061691832975878" rx="1"/><rect x="1341.1447527399623" y="919.547500113319" width="5.704633523175641" height="7.999139999504932" fill="#ffbf69" opacity="0.5418209465085112" rx="1"/><rect x="1321.5765271843588" y="923.5470701130714" width="5.704633523175641" height="7.999139999504932" fill="#ff9f1c" opacity="0.2709104732542556" rx="1"/><rect x="1390.4231199716273" y="606.6503779628896" width="56.5397892069397" height="318.1184374303833" fill="#2ec4b6" opacity="0.6734215906992139" rx="2"/><rect x="1415.5596959811076" y="616.6503779628896" width="6.266637187978867" height="7.294070134240685" fill="#ffbf69" opacity="0.5544141848931122" rx="1"/><rect x="1401.4247486793727" y="620.2974130300099" width="6.266637187978867" height="7.294070134240685" fill="#ff9f1c" opacity="0.2772070924465561" rx="1"/><rect x="1415.5203329917324" y="696.1799873204855" width="6.345363166729306" height="9.728945488047074" fill="#ffbf69" opacity="0.24550164706201796" rx="1"/><rect x="1401.3853856899975" y="701.0444600645089" width="6.345363166729306" height="9.728945488047074" fill="#ff9f1c" opacity="0.12275082353100898" rx="1"/><rect x="1412.6960914832764" y="775.7095966780812" width="11.993846183641313" height="8.205519002444465" fill="#ffbf69" opacity="0.2574029070691678" rx="1"/><rect x="1398.5611441815415" y="779.8123561793034" width="11.993846183641313" height="8.205519002444465" fill="#ff9f1c" opacity="0.1287014535345839" rx="1"/><rect x="1416.2038877828056" y="855.2392060356771" width="4.978253584582883" height="7.689122885858902" fill="#ffbf69" opacity="0.31872558962058406" rx="1"/><rect x="1402.0689404810707" y="859.0837674786065" width="4.978253584582883" height="7.689122885858902" fill="#ff9f1c" opacity="0.15936279481029203" rx="1"/><rect x="1519.640099052256" y="578.7255951503118" width="64.25200564187298" height="346.0432202429611" fill="#2ec4b6" opacity="0.6747719598642485" rx="2"/><rect x="1548.8144063842049" y="588.7255951503118" width="5.903390977974839" height="6.6969281892983545" fill="#ffbf69" opacity="0.3458979418142461" rx="1"/><rect x="1532.7514049737367" y="592.0740592449611" width="5.903390977974839" height="6.6969281892983545" fill="#ff9f1c" opacity="0.17294897090712305" rx="1"/><rect x="1547.869531706178" y="675.2364002110521" width="7.793140334029016" height="6.071072998473205" fill="#ffbf69" opacity="0.2446175433566369" rx="1"/><rect x="1531.8065302957098" y="678.2719367102887" width="7.793140334029016" height="6.071072998473205" fill="#ff9f1c" opacity="0.12230877167831845" rx="1"/><rect x="1549.1901295078428" y="761.7472052717924" width="5.15194473069905" height="8.131071779441804" fill="#ffbf69" opacity="0.34499034270294715" rx="1"/><rect x="1533.1271280973747" y="765.8127411615133" width="5.15194473069905" height="8.131071779441804" fill="#ff9f1c" opacity="0.17249517135147358" rx="1"/><rect x="1548.129933661113" y="848.2580103325326" width="7.272336424158965" height="9.607621725557284" fill="#ffbf69" opacity="0.3379637945531783" rx="1"/><rect x="1532.0669322506449" y="853.0618211953113" width="7.272336424158965" height="9.607621725557284" fill="#ff9f1c" opacity="0.16898189727658916" rx="1"/><rect x="1617.018266643169" y="729.6067924889751" width="31.23671692824846" height="195.16202290429783" fill="#2ec4b6" opacity="0.4115935793406315" rx="2"/><rect x="1626.6604074173747" y="739.6067924889751" width="11.95243537983681" height="9.29256319051901" fill="#ffbf69" opacity="0.3610481659092587" rx="1"/><rect x="1618.8512281853127" y="744.2530740842346" width="11.95243537983681" height="9.29256319051901" fill="#ff9f1c" opacity="0.18052408295462935" rx="1"/><rect x="1628.961348351548" y="767.4870814753034" width="7.350553511490709" height="7.406232068642562" fill="#ffbf69" opacity="0.5888473056463635" rx="1"/><rect x="1621.152169119486" y="771.1901975096247" width="7.350553511490709" height="7.406232068642562" fill="#ff9f1c" opacity="0.2944236528231817" rx="1"/><rect x="1630.5936496694558" y="795.3673704616316" width="4.085950875674829" height="7.045068072398442" fill="#ffbf69" opacity="0.5002583304886377" rx="1"/><rect x="1622.7844704373938" y="798.8899044978308" width="4.085950875674829" height="7.045068072398442" fill="#ff9f1c" opacity="0.25012916524431883" rx="1"/><rect x="1629.2867163201531" y="823.2476594479599" width="6.699817574280272" height="6.962102568001044" fill="#ffbf69" opacity="0.3367569180756707" rx="1"/><rect x="1621.4775370880911" y="826.7287107319604" width="6.699817574280272" height="6.962102568001044" fill="#ff9f1c" opacity="0.16837845903783535" rx="1"/><rect x="1630.630350614812" y="851.1279484342881" width="4.012548984962644" height="9.231681044034586" fill="#ffbf69" opacity="0.5427843494207562" rx="1"/><rect x="1622.82117138275" y="855.7437889563054" width="4.012548984962644" height="9.231681044034586" fill="#ff9f1c" opacity="0.2713921747103781" rx="1"/><rect x="1629.4774799278186" y="879.0082374206164" width="6.318290358949055" height="6.916243276772146" fill="#ffbf69" opacity="0.3725157947914013" rx="1"/><rect x="1621.6683006957567" y="882.4663590590025" width="6.318290358949055" height="6.916243276772146" fill="#ff9f1c" opacity="0.18625789739570064" rx="1"/><rect x="1628.1968212316738" y="906.8885264069447" width="8.879607751239" height="8.875146976410212" fill="#ffbf69" opacity="0.48313394793847897" rx="1"/><rect x="1620.3876419996118" y="911.3260998951498" width="8.879607751239" height="8.875146976410212" fill="#ff9f1c" opacity="0.24156697396923948" rx="1"/><rect x="1711.4764691892722" y="768.519571986636" width="55.96152552076651" height="156.24924340663694" fill="#2ec4b6" opacity="0.4338369294381321" rx="2"/><rect x="1736.0239217404794" y="778.519571986636" width="6.866620418351754" height="6.2012981353796315" fill="#ffbf69" opacity="0.2399573076376592" rx="1"/><rect x="1722.0335403602878" y="781.6202210543258" width="6.866620418351754" height="6.2012981353796315" fill="#ff9f1c" opacity="0.1199786538188296" rx="1"/><rect x="1735.8442059682782" y="809.7694206679635" width="7.2260519627542354" height="6.8703983027651905" fill="#ffbf69" opacity="0.29190019233895004" rx="1"/><rect x="1721.8538245880866" y="813.204619819346" width="7.2260519627542354" height="6.8703983027651905" fill="#ff9f1c" opacity="0.14595009616947502" rx="1"/><rect x="1735.581294387714" y="841.0192693492908" width="7.7518751238826376" height="7.875360916805304" fill="#ffbf69" opacity="0.38101492761192257" rx="1"/><rect x="1721.5909130075224" y="844.9569498076934" width="7.7518751238826376" height="7.875360916805304" fill="#ff9f1c" opacity="0.19050746380596129" rx="1"/><rect x="1734.762244823333" y="872.2691180306182" width="9.389974252644453" height="7.016490787504355" fill="#ffbf69" opacity="0.47522445243672107" rx="1"/><rect x="1720.7718634431415" y="875.7773634243704" width="9.389974252644453" height="7.016490787504355" fill="#ff9f1c" opacity="0.23761222621836053" rx="1"/><rect x="1733.5698392685895" y="903.5189667119456" width="11.77478536213161" height="7.114599314777786" fill="#ffbf69" opacity="0.35188516493697775" rx="1"/><rect x="1719.5794578883979" y="907.0762663693345" width="11.77478536213161" height="7.114599314777786" fill="#ff9f1c" opacity="0.17594258246848887" rx="1"/><rect x="1834.0538048916621" y="802.2320967289228" width="40.150868089439086" height="122.53671866435016" fill="#14aa9c" opacity="0.6490282186653996" rx="2"/><rect x="1851.9098307352767" y="812.2320967289228" width="4.438816402209647" height="8.664804480659031" fill="#ffbf69" opacity="0.4043135675378874" rx="1"/><rect x="1841.872113712917" y="816.5644989692523" width="4.438816402209647" height="8.664804480659031" fill="#ff9f1c" opacity="0.2021567837689437" rx="1"/><rect x="1848.9833445684014" y="827.5491865619665" width="10.291788735960562" height="7.920325291790144" fill="#ffbf69" opacity="0.5410437844789223" rx="1"/><rect x="1838.9456275460418" y="831.5093492078615" width="10.291788735960562" height="7.920325291790144" fill="#ff9f1c" opacity="0.27052189223946116" rx="1"/><rect x="1849.7736718148863" y="842.8662763950103" width="8.711134242990784" height="9.997167943044838" fill="#ffbf69" opacity="0.325221951428154" rx="1"/><rect x="1839.7359547925266" y="847.8648603665328" width="8.711134242990784" height="9.997167943044838" fill="#ff9f1c" opacity="0.162610975714077" rx="1"/><rect x="1850.5408871368368" y="858.1833662280541" width="7.176703599089921" height="6.8860140007189505" fill="#ffbf69" opacity="0.24372283957053975" rx="1"/><rect x="1840.5031701144771" y="861.6263732284135" width="7.176703599089921" height="6.8860140007189505" fill="#ff9f1c" opacity="0.12186141978526988" rx="1"/><rect x="1850.4585746171554" y="873.5004560610979" width="7.341328638452415" height="8.454787181330563" fill="#ffbf69" opacity="0.4643388494067683" rx="1"/><rect x="1840.4208575947957" y="877.7278496517632" width="7.341328638452415" height="8.454787181330563" fill="#ff9f1c" opacity="0.23216942470338414" rx="1"/><rect x="1850.905428702921" y="888.8175458941416" width="6.44762046692139" height="6.520192998582543" fill="#ffbf69" opacity="0.3647028099197668" rx="1"/><rect x="1840.8677116805613" y="892.0776423934329" width="6.44762046692139" height="6.520192998582543" fill="#ff9f1c" opacity="0.1823514049598834" rx="1"/><rect x="1848.790421562686" y="904.1346357271855" width="10.677634747391016" height="7.119593637324775" fill="#ffbf69" opacity="0.5930186874682593" rx="1"/><rect x="1838.7527045403265" y="907.6944325458478" width="10.677634747391016" height="7.119593637324775" fill="#ff9f1c" opacity="0.2965093437341296" rx="1"/><rect x="1849.1527146320213" y="919.4517255602292" width="9.953048608720547" height="8.045975430413609" fill="#ffbf69" opacity="0.4706285663346361" rx="1"/><rect x="1839.1149976096617" y="923.474713275436" width="9.953048608720547" height="8.045975430413609" fill="#ff9f1c" opacity="0.23531428316731806" rx="1"/><rect x="0" y="1000" width="1920" height="80" fill="#089e90" opacity="0.8"/><line x1="0" y1="1040" x2="1920" y2="1040" stroke="#ffbf69" stroke-opacity="0.15" stroke-width="2" stroke-dasharray="30,20"/><rect x="0" y="930" width="1920" height="150" fill="url(#glow90)"/><rect x="0" y="980" width="1920" height="100" fill="#ffbf69" opacity="0.04"/><rect x="617.0386081880514" y="1052.7649932943202" width="86.46988612284649" height="2" fill="#ff9f1c" opacity="0.046903094292362946" rx="1"/><rect x="123.43695092094993" y="1004.4082718445939" width="76.91429056621024" height="2" fill="#ff9f1c" opacity="0.04136501263393206" rx="1"/><rect x="1656.1547715347622" y="1009.459248466757" width="24.577363516338487" height="2" fill="#ff9f1c" opacity="0.022797673699166084" rx="1"/><rect x="1503.7302887960639" y="1052.8274376906518" width="106.75375519943277" height="2" fill="#ff9f1c" opacity="0.05982151500876562" rx="1"/><rect x="1388.273207868513" y="1025.773904134001" width="37.39903686507583" height="2" fill="#ff9f1c" opacity="0.033489544199195115" rx="1"/><rect x="711.3139434324843" y="1049.9562292336384" width="89.35044524011911" height="2" fill="#ff9f1c" opacity="0.05212796993370354" rx="1"/><rect x="1031.097656579478" y="1023.0615150144001" width="95.7814275044439" height="2" fill="#ff9f1c" opacity="0.0232574576705828" rx="1"/><rect x="472.1748193707724" y="1016.3304385115231" width="110.97543970937268" height="2" fill="#ff9f1c" opacity="0.05902955244272705" rx="1"/><rect x="1840.6269022637575" y="1042.8799620975926" width="92.01720640808745" height="2" fill="#ff9f1c" opacity="0.05077708538406926" rx="1"/><rect x="670.6634627354014" y="1037.0716216548046" width="23.21022078935295" height="2" fill="#ff9f1c" opacity="0.024700145200989242" rx="1"/><rect x="81.83470847127836" y="1045.4222383968117" width="93.89408477439872" height="2" fill="#ff9f1c" opacity="0.04942785903565303" rx="1"/><rect x="902.4523050204041" y="1031.667175188583" width="73.83845666745641" height="2" fill="#ff9f1c" opacity="0.022100286717084305" rx="1"/><rect x="1592.2495015692546" y="1040.8187780810563" width="38.38447619657602" height="2" fill="#ff9f1c" opacity="0.026381245936821507" rx="1"/><rect x="1882.4014073522765" y="1047.6929423603447" width="37.182955894894654" height="2" fill="#ff9f1c" opacity="0.020276139378611963" rx="1"/><rect x="1018.0025864527566" y="1046.307424634301" width="81.04570849822966" height="2" fill="#ff9f1c" opacity="0.052980543503766075" rx="1"/><rect x="634.1714011119146" y="1039.5328820821674" width="107.94465136899255" height="2" fill="#ff9f1c" opacity="0.048823754309868385" rx="1"/><rect x="1544.8511064669235" y="1014.8400562058296" width="94.9269593215843" height="2" fill="#ff9f1c" opacity="0.04317922456729674" rx="1"/><rect x="1417.2575161180594" y="1041.9684267467746" width="32.643314458579596" height="2" fill="#ff9f1c" opacity="0.03246122326992015" rx="1"/><rect x="974.172127026639" y="1005.094779302621" width="26.269129669822085" height="2" fill="#ff9f1c" opacity="0.050313512093926205" rx="1"/><rect x="1304.2041763719646" y="1045.4599415523605" width="107.27456864138938" height="2" fill="#ff9f1c" opacity="0.029570216091715316" rx="1"/><rect x="449.5938466045991" y="1024.9579418834667" width="86.37919900621735" height="2" fill="#ff9f1c" opacity="0.05729584515963118" rx="1"/><rect x="414.4245409440306" y="1013.8791853361482" width="72.86904779562471" height="2" fill="#ff9f1c" opacity="0.04427821023023645" rx="1"/><rect x="1525.7423560893496" y="1004.4149895628018" width="64.87588772198089" height="2" fill="#ff9f1c" opacity="0.05466691016095386" rx="1"/><rect x="804.3122838820127" y="1023.4759015830876" width="119.71687099889779" height="2" fill="#ff9f1c" opacity="0.021739512756871877" rx="1"/><rect x="72.13457913886164" y="1015.438105011228" width="100.20604219758093" height="2" fill="#ff9f1c" opacity="0.032486298077853" rx="1"/><rect x="1404.3711889079705" y="1016.3345487314124" width="113.313892440245" height="2" fill="#ff9f1c" opacity="0.03741550533506449" rx="1"/><rect x="43.37993861254769" y="1028.503036119161" width="74.99049980542401" height="2" fill="#ff9f1c" opacity="0.03994677238630755" rx="1"/><rect x="606.9530999583549" y="1027.8909766832112" width="117.29059736646958" height="2" fill="#ff9f1c" opacity="0.043613038990556505" rx="1"/><rect x="935.1470596285413" y="1020.1419004239473" width="79.25622816645918" height="2" fill="#ff9f1c" opacity="0.053861798102469605" rx="1"/><rect x="222.31326972653932" y="1044.944458809901" width="93.42289189654936" height="2" fill="#ff9f1c" opacity="0.027992208266628956" rx="1"/><text x="1900" y="1060" font-family="Arial, sans-serif" font-size="11" fill="#fff" opacity="0.08" text-anchor="end" letter-spacing="2">GTA 6 REWARDS · WALLPAPER 091</text>
</svg>