<?xml version="1.0" encoding="UTF-8"?>
<svg xmlns="http://www.w3.org/2000/svg" width="1920" height="1080" viewBox="0 0 1920 1080">
<defs>
    <linearGradient id="bg29" x1="0%" y1="0%" x2="0%" y2="100%">
      <stop offset="0%" stop-color="#6930c3"/>
      <stop offset="50%" stop-color="#360090"/>
      <stop offset="100%" stop-color="#6930c3"/>
    </linearGradient>
    <linearGradient id="sun29" x1="0%" y1="0%" x2="100%" y2="100%">
      <stop offset="0%" stop-color="#80ffdb"/>
      <stop offset="100%" stop-color="#64dfdf"/>
    </linearGradient>
    <radialGradient id="glow29" cx="50%" cy="70%" r="50%">
      <stop offset="0%" stop-color="#80ffdb" stop-opacity="0.3"/>
      <stop offset="100%" stop-color="#6930c3" stop-opacity="0"/>
    </radialGradient>
  </defs><rect width="1920" height="1080" fill="url(#bg29)"/><circle cx="480.36288632554067" cy="325.33664324445107" r="674.7734446485465" fill="#80ffdb" opacity="0.08871832760952375"/><circle cx="680.3628863255407" cy="225.33664324445107" r="469.19110558675396" fill="#64dfdf" opacity="0.07864291670467773"/><line x1="0" y1="980" x2="1920" y2="980" stroke="#64dfdf" stroke-opacity="0.05" stroke-width="2"/><line x1="0" y1="935" x2="1920" y2="935" stroke="#64dfdf" stroke-opacity="0.049" stroke-width="0.5"/><line x1="0" y1="890" x2="1920" y2="890" stroke="#64dfdf" stroke-opacity="0.048" stroke-width="0.5"/><line x1="0" y1="845" x2="1920" y2="845" stroke="#64dfdf" stroke-opacity="0.047" stroke-width="0.5"/><line x1="0" y1="800" x2="1920" y2="800" stroke="#64dfdf" stroke-opacity="0.046" stroke-width="0.5"/><line x1="0" y1="755" x2="1920" y2="755" stroke="#64dfdf" stroke-opacity="0.045" stroke-width="0.5"/><line x1="0" y1="710" x2="1920" y2="710" stroke="#64dfdf" stroke-opacity="0.044" stroke-width="0.5"/><line x1="0" y1="665" x2="1920" y2="665" stroke="#64dfdf" stroke-opacity="0.043" stroke-width="0.5"/><line x1="0" y1="620" x2="1920" y2="620" stroke="#64dfdf" stroke-opacity="0.041999999999999996" stroke-width="0.5"/><line x1="0" y1="575" x2="1920" y2="575" stroke="#64dfdf" stroke-opacity="0.041" stroke-width="0.5"/><line x1="0" y1="530" x2="1920" y2="530" stroke="#64dfdf" stroke-opacity="0.04" stroke-width="0.5"/><line x1="0" y1="485" x2="1920" y2="485" stroke="#64dfdf" stroke-opacity="0.039" stroke-width="0.5"/><line x1="0" y1="440" x2="1920" y2="440" stroke="#64dfdf" stroke-opacity="0.038" stroke-width="0.5"/><line x1="0" y1="395" x2="1920" y2="395" stroke="#64dfdf" stroke-opacity="0.037" stroke-width="0.5"/><line x1="0" y1="350" x2="1920" y2="350" stroke="#64dfdf" stroke-opacity="0.036" stroke-width="0.5"/><line x1="0" y1="305" x2="1920" y2="305" stroke="#64dfdf" stroke-opacity="0.034999999999999996" stroke-width="0.5"/><line x1="0" y1="260" x2="1920" y2="260" stroke="#64dfdf" stroke-opacity="0.033999999999999996" stroke-width="0.5"/><line x1="0" y1="215" x2="1920" y2="215" stroke="#64dfdf" stroke-opacity="0.033" stroke-width="0.5"/><line x1="0" y1="170" x2="1920" y2="170" stroke="#64dfdf" stroke-opacity="0.032" stroke-width="0.5"/><line x1="0" y1="125" x2="1920" y2="125" stroke="#64dfdf" stroke-opacity="0.031" stroke-width="0.5"/><line x1="560" y1="1080" x2="860" y2="580" stroke="#80ffdb" stroke-opacity="0.04" stroke-width="1"/><line x1="640" y1="1080" x2="880" y2="590" stroke="#80ffdb" stroke-opacity="0.04" stroke-width="1"/><line x1="720" y1="1080" x2="900" y2="600" stroke="#80ffdb" stroke-opacity="0.04" stroke-width="1"/><line x1="800" y1="1080" x2="920" y2="610" stroke="#80ffdb" stroke-opacity="0.04" stroke-width="1"/><line x1="880" y1="1080" x2="940" y2="620" stroke="#80ffdb" stroke-opacity="0.04" stroke-width="1"/><line x1="960" y1="1080" x2="960" y2="630" stroke="#80ffdb" stroke-opacity="0.04" stroke-width="1"/><line x1="1040" y1="1080" x2="980" y2="620" stroke="#80ffdb" stroke-opacity="0.04" stroke-width="1"/><line x1="1120" y1="1080" x2="1000" y2="610" stroke="#80ffdb" stroke-opacity="0.04" stroke-width="1"/><line x1="1200" y1="1080" x2="1020" y2="600" stroke="#80ffdb" stroke-opacity="0.04" stroke-width="1"/><line x1="1280" y1="1080" x2="1040" y2="590" stroke="#80ffdb" stroke-opacity="0.04" stroke-width="1"/><line x1="1360" y1="1080" x2="1060" y2="580" stroke="#80ffdb" stroke-opacity="0.04" stroke-width="1"/><circle cx="596.7021788229938" cy="160.78164673195724" r="72.89043816106637" fill="url(#sun29)" opacity="0.7947010824910135"/><circle cx="596.7021788229938" cy="160.78164673195724" r="67.89043816106637" fill="#6930c3" opacity="0.3"/><circle cx="1420.6181769400412" cy="416.71713378669625" r="1.2277430786582975" fill="#fff" opacity="0.6175707198720357"/><circle cx="106.46099435781618" cy="398.8414142054602" r="1.7645660072482576" fill="#fff" opacity="0.652580336447009"/><circle cx="526.6743619476152" cy="247.34432984314495" r="0.6487548125788465" fill="#fff" opacity="0.37081059663808225"/><circle cx="164.59929589289226" cy="31.200268313102484" r="1.419646465782925" fill="#fff" opacity="0.3529700771330321"/><circle cx="666.7642125549643" cy="67.08362669569524" r="0.9697358683845345" fill="#fff" opacity="0.575077941309446"/><circle cx="600.0339193549086" cy="380.718450139444" r="1.615137986050718" fill="#fff" opacity="0.5716957552292607"/><circle cx="630.8385601618418" cy="358.41143041253355" r="1.2972877746907268" fill="#fff" opacity="0.6895431915506588"/><circle cx="157.60544750783717" cy="36.715631579215554" r="1.6711495577290538" fill="#fff" opacity="0.3745469772197648"/><circle cx="69.72893403603902" cy="322.9503600231722" r="1.1457306435671009" fill="#fff" opacity="0.3235642337527974"/><circle cx="315.2059056598707" cy="262.24420336406774" r="0.8364889436253553" fill="#fff" opacity="0.35042709474228956"/><circle cx="1225.7463565342468" cy="254.336231872052" r="0.6722870329796073" fill="#fff" opacity="0.6419887919076692"/><circle cx="1058.3478487511975" cy="203.9494644245015" r="1.1815556737551363" fill="#fff" opacity="0.32195436729163734"/><circle cx="1690.1796756149688" cy="59.78472733772004" r="1.8569198109574894" fill="#fff" opacity="0.3807750113729329"/><circle cx="1671.2427694516357" cy="122.60653596990893" r="1.6829991045368369" fill="#fff" opacity="0.7162380370116415"/><circle cx="741.0867844757361" cy="201.53076853079972" r="1.1664112343374666" fill="#fff" opacity="0.7360755339116034"/><circle cx="501.4946424638607" cy="194.00590157928082" r="0.7909618046346497" fill="#fff" opacity="0.4194012199573688"/><circle cx="1706.5917871395573" cy="404.93091899643906" r="1.2577864693612293" fill="#fff" opacity="0.4321895842049712"/><circle cx="100.24273084947903" cy="40.89259212671141" r="1.1404647499184275" fill="#fff" opacity="0.555159427028885"/><circle cx="853.100658704783" cy="247.45840757886376" r="0.8361086217537775" fill="#fff" opacity="0.33383465193534145"/><circle cx="1914.6898810553107" cy="268.2883826113046" r="0.764353371286847" fill="#fff" opacity="0.5955996089604683"/><circle cx="791.5955679471595" cy="191.63845877713487" r="1.5145480816752064" fill="#fff" opacity="0.6967688849421145"/><circle cx="1129.8630123980956" cy="392.0452413503186" r="1.2064813478399259" fill="#fff" opacity="0.6369464943271472"/><circle cx="1651.3020648926733" cy="108.71958604378615" r="0.6829253808089824" fill="#fff" opacity="0.5360970439706223"/><circle cx="1307.0181171658955" cy="135.08832463787132" r="1.758077479609772" fill="#fff" opacity="0.6987271901915612"/><circle cx="1711.5760127714777" cy="185.32848304354783" r="0.8565464191736063" fill="#fff" opacity="0.5236647443668137"/><circle cx="1249.9248891998839" cy="73.35071068847336" r="1.300836952240401" fill="#fff" opacity="0.3341622269093437"/><circle cx="625.8542013135399" cy="299.8655590591639" r="0.7754196589289745" fill="#fff" opacity="0.5421599053177424"/><circle cx="563.730113935594" cy="415.5461084543602" r="1.6373080567310816" fill="#fff" opacity="0.27925881135260194"/><circle cx="1108.1062373118723" cy="0.3520253487750947" r="1.366252489124018" fill="#fff" opacity="0.5537269177273212"/><circle cx="716.6243265747615" cy="370.24116618983476" r="1.1557593472897447" fill="#fff" opacity="0.20578792835720536"/><circle cx="1151.5355589686742" cy="108.20262445421018" r="0.9178507973947215" fill="#fff" opacity="0.7168323247034178"/><circle cx="544.209456272472" cy="129.676050834748" r="0.8880042483536537" fill="#fff" opacity="0.5954296505068033"/><circle cx="1183.7737157716822" cy="237.47790397644926" r="0.6599418303603171" fill="#fff" opacity="0.7950358983117705"/><circle cx="1056.0042663887152" cy="274.8308409906064" r="1.3598571968869904" fill="#fff" opacity="0.284865528970227"/><circle cx="1502.1781775872637" cy="46.65204489572254" r="0.6952553625906015" fill="#fff" opacity="0.5751137677987836"/><circle cx="1747.675677050761" cy="262.44761958123365" r="0.8585773214834224" fill="#fff" opacity="0.7732472445287852"/><circle cx="1475.0091861642452" cy="236.26694122242435" r="1.2876403015776632" fill="#fff" opacity="0.7313291833110453"/><circle cx="1415.1476645784333" cy="337.71504829863903" r="0.9447174527320819" fill="#fff" opacity="0.4601247669337608"/><circle cx="1743.4426652974082" cy="181.8349355063017" r="1.9806077276544198" fill="#fff" opacity="0.42730782465713746"/><circle cx="1215.628534391436" cy="418.70228837865926" r="0.6197189940418394" fill="#fff" opacity="0.3907082890138748"/><circle cx="1356.1092181680979" cy="153.5957388415923" r="0.7504647442257182" fill="#fff" opacity="0.3650769047823448"/><circle cx="1745.2636214683912" cy="419.5069626503407" r="1.7040750930793758" fill="#fff" opacity="0.381152919675492"/><circle cx="956.0776490708994" cy="373.03261966747993" r="1.6363870008234835" fill="#fff" opacity="0.7125669831672141"/><circle cx="1055.587249942028" cy="100.74638859293107" r="1.1911861777052253" fill="#fff" opacity="0.5175432423869015"/><circle cx="1918.3694726224917" cy="307.4648712918779" r="1.7718843694943665" fill="#fff" opacity="0.7211795116125559"/><circle cx="1050.2476387681083" cy="8.472035320585602" r="1.0256794195216334" fill="#fff" opacity="0.25704699034268197"/><circle cx="788.3901346075326" cy="183.7081035803324" r="1.6883065022268116" fill="#fff" opacity="0.3324968701536993"/><circle cx="470.7975971304806" cy="154.85475987448703" r="1.6699774407711758" fill="#fff" opacity="0.7933543873935367"/><circle cx="1438.833280987766" cy="152.27531530528222" r="0.807594742231908" fill="#fff" opacity="0.5827534005005736"/><circle cx="1722.297392292483" cy="423.7772637698281" r="0.8713596075240895" fill="#fff" opacity="0.2524871078907715"/><circle cx="94.56583278592812" cy="406.3370461515936" r="0.7397556335757849" fill="#fff" opacity="0.42555835438556"/><circle cx="1668.8676121246226" cy="142.57504092123708" r="0.6429628413503438" fill="#fff" opacity="0.449525553930906"/><circle cx="1718.710324419362" cy="369.1971083845005" r="1.1880510857300952" fill="#fff" opacity="0.7503388951882577"/><circle cx="736.4941273854333" cy="222.88483889002467" r="1.4003269818845034" fill="#fff" opacity="0.43813689193644956"/><circle cx="1075.1250719547097" cy="277.43447764344387" r="1.7624989021016515" fill="#fff" opacity="0.25355750430691"/><circle cx="632.1705013495337" cy="363.3893332060867" r="1.160724975322542" fill="#fff" opacity="0.4147349429351126"/><circle cx="457.54669870658466" cy="428.1077614045021" r="1.195965078588567" fill="#fff" opacity="0.3869966230324927"/><circle cx="9.30617764808847" cy="283.0341979253651" r="0.7090441227678778" fill="#fff" opacity="0.5030970016734435"/><circle cx="288.6852269546793" cy="118.0983175127996" r="0.8268738581861541" fill="#fff" opacity="0.23559358418816553"/><circle cx="502.7724821546051" cy="14.57778333466914" r="1.9747595819585861" fill="#fff" opacity="0.4722685146313786"/><circle cx="1065.5784432090768" cy="298.2052857266286" r="1.0555366561877393" fill="#fff" opacity="0.6787624068275937"/><circle cx="930.6379461965147" cy="184.03685084172452" r="1.0899619801412248" fill="#fff" opacity="0.5853089448496022"/><circle cx="1507.2601277165254" cy="3.976621762843947" r="0.9825032199692222" fill="#fff" opacity="0.2079589038640165"/><circle cx="10.14336973664895" cy="343.3742547797445" r="1.2035685586052873" fill="#fff" opacity="0.6336857667736909"/><circle cx="1689.4660949170277" cy="163.49233251891386" r="1.6532729915700093" fill="#fff" opacity="0.553365649877434"/><circle cx="1302.6212564163425" cy="395.2868425574356" r="1.2877320027415948" fill="#fff" opacity="0.5602257393207927"/><rect x="14.075226826610795" y="607.0287749653284" width="64.81750910981035" height="284.85946214871" fill="#4f16a9" opacity="0.41772968895214835" rx="2"/><rect x="43.43606127343049" y="617.0287749653284" width="6.095840216170959" height="8.753627783328675" fill="#64dfdf" opacity="0.5292861114789932" rx="1"/><rect x="27.231683995977903" y="621.4055888569927" width="6.095840216170959" height="8.753627783328675" fill="#80ffdb" opacity="0.2646430557394966" rx="1"/><rect x="40.56908305770929" y="674.0006673950703" width="11.829796647613355" height="9.10249479932303" fill="#64dfdf" opacity="0.13231672501012606" rx="1"/><rect x="24.364705780256703" y="678.5519147947318" width="11.829796647613355" height="9.10249479932303" fill="#80ffdb" opacity="0.06615836250506303" rx="1"/><rect x="40.79576420639543" y="730.9725598248124" width="11.376434350241077" height="9.218398698423616" fill="#64dfdf" opacity="0.18993744083911587" rx="1"/><rect x="24.591386928942843" y="735.5817591740242" width="11.376434350241077" height="9.218398698423616" fill="#80ffdb" opacity="0.09496872041955794" rx="1"/><rect x="42.746481140085145" y="787.9444522545543" width="7.475000482861651" height="7.872933000762233" fill="#64dfdf" opacity="0.2050827654788929" rx="1"/><rect x="26.542103862632555" y="791.8809187549355" width="7.475000482861651" height="7.872933000762233" fill="#80ffdb" opacity="0.10254138273944645" rx="1"/><rect x="44.13742406972158" y="844.9163446842963" width="4.6931146235887695" height="7.152659965947424" fill="#64dfdf" opacity="0.4362837511432086" rx="1"/><rect x="27.933046792268996" y="848.49267466727" width="4.6931146235887695" height="7.152659965947424" fill="#80ffdb" opacity="0.2181418755716043" rx="1"/><rect x="91.45264001364183" y="712.9346069444284" width="86.10024793914059" height="178.95363016960994" fill="#6930c3" opacity="0.6551982088375833" rx="2"/><rect x="132.34330499017221" y="722.9346069444284" width="4.318917986079798" height="7.917268023341258" fill="#64dfdf" opacity="0.4691791215374086" rx="1"/><rect x="110.81824300538706" y="726.893240956099" width="4.318917986079798" height="7.917268023341258" fill="#80ffdb" opacity="0.2345895607687043" rx="1"/><rect x="129.66114914944887" y="752.7602119726968" width="9.68322966752649" height="8.716101025863574" fill="#64dfdf" opacity="0.3496869784662703" rx="1"/><rect x="108.13608716466372" y="757.1182624856285" width="9.68322966752649" height="8.716101025863574" fill="#80ffdb" opacity="0.17484348923313514" rx="1"/><rect x="130.99907352961577" y="782.5858170009651" width="7.007380907192682" height="6.443010435542792" fill="#64dfdf" opacity="0.32640559094175825" rx="1"/><rect x="109.47401154483063" y="785.8073222187365" width="7.007380907192682" height="6.443010435542792" fill="#80ffdb" opacity="0.16320279547087913" rx="1"/><rect x="130.33530161607433" y="812.4114220292333" width="8.334924734275539" height="9.559656809912914" fill="#64dfdf" opacity="0.3156648960000986" rx="1"/><rect x="108.81023963128919" y="817.1912504341898" width="8.334924734275539" height="9.559656809912914" fill="#80ffdb" opacity="0.1578324480000493" rx="1"/><rect x="131.09371383024697" y="842.2370270575017" width="6.818100305930269" height="7.9412177721832915" fill="#64dfdf" opacity="0.12678212233045655" rx="1"/><rect x="109.56865184546183" y="846.2076359435933" width="6.818100305930269" height="7.9412177721832915" fill="#80ffdb" opacity="0.06339106116522827" rx="1"/><rect x="131.95261335022573" y="872.06263208577" width="5.100301265972737" height="8.994076343950368" fill="#64dfdf" opacity="0.1468401073121559" rx="1"/><rect x="110.42755136544059" y="876.5596702577452" width="5.100301265972737" height="8.994076343950368" fill="#80ffdb" opacity="0.07342005365607795" rx="1"/><rect x="161.64550486059056" y="786.9444943002761" width="46.77706056665095" height="104.94374281376221" fill="#4f16a9" opacity="0.6298189702047545" rx="2"/><rect x="182.36703067584128" y="796.9444943002761" width="5.3340089361495355" height="8.93259508696678" fill="#64dfdf" opacity="0.4025819524895824" rx="1"/><rect x="170.67276553417852" y="801.4107918437595" width="5.3340089361495355" height="8.93259508696678" fill="#80ffdb" opacity="0.2012909762447912" rx="1"/><rect x="182.17110808779745" y="823.1804300037167" width="5.725854112237192" height="7.876451030810468" fill="#64dfdf" opacity="0.12753166750248793" rx="1"/><rect x="170.4768429461347" y="827.1186555191218" width="5.725854112237192" height="7.876451030810468" fill="#80ffdb" opacity="0.06376583375124396" rx="1"/><rect x="182.38765510390226" y="849.4163657071572" width="5.292760080027571" height="6.964331580550487" fill="#64dfdf" opacity="0.5250184936507183" rx="1"/><rect x="170.6933899622395" y="852.8985314974324" width="5.292760080027571" height="6.964331580550487" fill="#80ffdb" opacity="0.26250924682535914" rx="1"/><rect x="179.49344658444016" y="875.6523014105978" width="11.081177118951729" height="8.733045885975717" fill="#64dfdf" opacity="0.16962088008169574" rx="1"/><rect x="167.7991814427774" y="880.0188243535857" width="11.081177118951729" height="8.733045885975717" fill="#80ffdb" opacity="0.08481044004084787" rx="1"/><rect x="269.68442449571666" y="581.5470446556683" width="38.58844085330806" height="310.3411924583701" fill="#6930c3" opacity="0.4545303063826939" rx="2"/><rect x="283.01290581282524" y="591.5470446556683" width="11.931478219090838" height="8.812319940610863" fill="#64dfdf" opacity="0.34304349865835243" rx="1"/><rect x="273.36579559949826" y="595.9532046259737" width="11.931478219090838" height="8.812319940610863" fill="#80ffdb" opacity="0.17152174932917622" rx="1"/><rect x="283.0431909542631" y="630.3396937129645" width="11.870907936215147" height="6.09211836943685" fill="#64dfdf" opacity="0.12662316791867445" rx="1"/><rect x="273.3960807409361" y="633.3857528976829" width="11.870907936215147" height="6.09211836943685" fill="#80ffdb" opacity="0.06331158395933723" rx="1"/><rect x="284.4580945254904" y="669.1323427702608" width="9.041100793760526" height="9.916861657965198" fill="#64dfdf" opacity="0.1803737569554648" rx="1"/><rect x="274.81098431216344" y="674.0907735992434" width="9.041100793760526" height="9.916861657965198" fill="#80ffdb" opacity="0.0901868784777324" rx="1"/><rect x="284.2168505967634" y="707.924991827557" width="9.52358865121463" height="8.943920267499966" fill="#64dfdf" opacity="0.4781418936276207" rx="1"/><rect x="274.5697403834364" y="712.3969519613071" width="9.52358865121463" height="8.943920267499966" fill="#80ffdb" opacity="0.23907094681381036" rx="1"/><rect x="285.77853928757327" y="746.7176408848534" width="6.400211269594778" height="8.670655819277897" fill="#64dfdf" opacity="0.39310109915516833" rx="1"/><rect x="276.1314290742463" y="751.0529687944924" width="6.400211269594778" height="8.670655819277897" fill="#80ffdb" opacity="0.19655054957758417" rx="1"/><rect x="284.4369531193368" y="785.5102899421496" width="9.083383606067716" height="7.83729959415209" fill="#64dfdf" opacity="0.27433413238598364" rx="1"/><rect x="274.7898429060098" y="789.4289397392256" width="9.083383606067716" height="7.83729959415209" fill="#80ffdb" opacity="0.13716706619299182" rx="1"/><rect x="283.2592764972381" y="824.3029389994458" width="11.43873685026512" height="9.20199893303262" fill="#64dfdf" opacity="0.28510903119694186" rx="1"/><rect x="273.6121662839111" y="828.9039384659621" width="11.43873685026512" height="9.20199893303262" fill="#80ffdb" opacity="0.14255451559847093" rx="1"/><rect x="285.18562018922194" y="863.0955880567421" width="7.586049466297508" height="6.325057666824446" fill="#64dfdf" opacity="0.5934757758149588" rx="1"/><rect x="275.53850997589495" y="866.2581168901544" width="7.586049466297508" height="6.325057666824446" fill="#80ffdb" opacity="0.2967378879074794" rx="1"/><rect x="328.7744864352919" y="794.8620956379134" width="51.72729161608203" height="97.02614147612502" fill="#6930c3" opacity="0.683396125953504" rx="2"/><rect x="349.96451977849114" y="804.8620956379134" width="9.347224929683662" height="9.275496048684115" fill="#64dfdf" opacity="0.2162063282952193" rx="1"/><rect x="337.0326968744706" y="809.4998436622554" width="9.347224929683662" height="9.275496048684115" fill="#80ffdb" opacity="0.10810316414760965" rx="1"/><rect x="349.39918658053483" y="816.9903633224291" width="10.477891325596229" height="8.422124184300687" fill="#64dfdf" opacity="0.33476067621604555" rx="1"/><rect x="336.4673636765143" y="821.2014254145794" width="10.477891325596229" height="8.422124184300687" fill="#80ffdb" opacity="0.16738033810802277" rx="1"/><rect x="349.8972373374033" y="829.1186310069446" width="9.481789811859324" height="7.3148509853786905" fill="#64dfdf" opacity="0.43404189134809235" rx="1"/><rect x="336.96541443338276" y="832.7760564996339" width="9.481789811859324" height="7.3148509853786905" fill="#80ffdb" opacity="0.21702094567404617" rx="1"/><rect x="349.0785774178986" y="841.2468986914603" width="11.119109650868715" height="8.562661130577945" fill="#64dfdf" opacity="0.5960556341093163" rx="1"/><rect x="336.1467545138781" y="845.5282292567492" width="11.119109650868715" height="8.562661130577945" fill="#80ffdb" opacity="0.29802781705465814" rx="1"/><rect x="349.02417252120193" y="853.3751663759759" width="11.227919444262032" height="8.131669557218363" fill="#64dfdf" opacity="0.17315971378077746" rx="1"/><rect x="336.0923496171814" y="857.4410011545851" width="11.227919444262032" height="8.131669557218363" fill="#80ffdb" opacity="0.08657985689038873" rx="1"/><rect x="352.2448959283635" y="865.5034340604915" width="4.78647262993885" height="9.690655765051641" fill="#64dfdf" opacity="0.23858193523217505" rx="1"/><rect x="339.313073024343" y="870.3487619430173" width="4.78647262993885" height="9.690655765051641" fill="#80ffdb" opacity="0.11929096761608753" rx="1"/><rect x="349.14594816140504" y="877.6317017450071" width="10.984368163855832" height="9.779910250515655" fill="#64dfdf" opacity="0.22961721365098312" rx="1"/><rect x="336.2141252573845" y="882.521656870265" width="10.984368163855832" height="9.779910250515655" fill="#80ffdb" opacity="0.11480860682549156" rx="1"/><rect x="350.4564474209809" y="889.7599694295228" width="8.363369644704129" height="7.689488212971363" fill="#64dfdf" opacity="0.2631967794762917" rx="1"/><rect x="337.5246245169604" y="893.6047135360085" width="8.363369644704129" height="7.689488212971363" fill="#80ffdb" opacity="0.13159838973814586" rx="1"/><rect x="404.5585189467665" y="541.2480689448416" width="37.26123451889987" height="350.6401681691967" fill="#6930c3" opacity="0.5159654237134301" rx="2"/><rect x="418.6303591005575" y="551.2480689448416" width="9.117554211317923" height="7.093299160966021" fill="#64dfdf" opacity="0.11842445345093135" rx="1"/><rect x="409.31505047083255" y="554.7947185253247" width="9.117554211317923" height="7.093299160966021" fill="#80ffdb" opacity="0.05921222672546567" rx="1"/><rect x="420.9875018848077" y="638.9081109871408" width="4.403268642817453" height="8.203264758503824" fill="#64dfdf" opacity="0.17897952957520719" rx="1"/><rect x="411.6721932550828" y="643.0097433663927" width="4.403268642817453" height="8.203264758503824" fill="#80ffdb" opacity="0.08948976478760359" rx="1"/><rect x="419.49444985075263" y="726.56815302944" width="7.389372710927709" height="7.007510351251697" fill="#64dfdf" opacity="0.25010714709062765" rx="1"/><rect x="410.1791412210277" y="730.0719082050659" width="7.389372710927709" height="7.007510351251697" fill="#80ffdb" opacity="0.12505357354531382" rx="1"/><rect x="419.8557283670771" y="814.2281950717392" width="6.66681567827864" height="6.413273868247232" fill="#64dfdf" opacity="0.3897204340644461" rx="1"/><rect x="410.5404197373522" y="817.4348320058627" width="6.66681567827864" height="6.413273868247232" fill="#80ffdb" opacity="0.19486021703222306" rx="1"/><rect x="492.3625657526689" y="704.9319030961328" width="40.06049313816719" height="186.95633401790548" fill="#6930c3" opacity="0.5552734730893917" rx="2"/><rect x="509.98466624202774" y="714.9319030961328" width="4.816292159449377" height="6.625750516686996" fill="#64dfdf" opacity="0.44014798021878765" rx="1"/><rect x="499.969542957486" y="718.2447783544764" width="4.816292159449377" height="6.625750516686996" fill="#80ffdb" opacity="0.22007399010939382" rx="1"/><rect x="508.3055681477546" y="761.6709866006092" width="8.174488347995673" height="9.349073688348074" fill="#64dfdf" opacity="0.20288343790520064" rx="1"/><rect x="498.2904448632129" y="766.3455234447832" width="8.174488347995673" height="9.349073688348074" fill="#80ffdb" opacity="0.10144171895260032" rx="1"/><rect x="509.5504001999623" y="808.4100701050855" width="5.684824243580183" height="8.545526331883279" fill="#64dfdf" opacity="0.5890323594419826" rx="1"/><rect x="499.5352769154206" y="812.6828332710272" width="5.684824243580183" height="8.545526331883279" fill="#80ffdb" opacity="0.2945161797209913" rx="1"/><rect x="509.35222160032765" y="855.149153609562" width="6.081181442849613" height="7.287376232744981" fill="#64dfdf" opacity="0.35504258024856505" rx="1"/><rect x="499.3370983157859" y="858.7928417259344" width="6.081181442849613" height="7.287376232744981" fill="#80ffdb" opacity="0.17752129012428253" rx="1"/><rect x="572.2640894265529" y="577.6957388216853" width="79.04076908459905" height="314.1924982923531" fill="#6930c3" opacity="0.6687088423102883" rx="2"/><rect x="607.3882327318165" y="587.6957388216853" width="8.792482474072017" height="7.978589795059197" fill="#64dfdf" opacity="0.47081037260843683" rx="1"/><rect x="587.6280404606666" y="591.6850337192149" width="8.792482474072017" height="7.978589795059197" fill="#80ffdb" opacity="0.23540518630421842" rx="1"/><rect x="606.1749725698436" y="632.5803814348785" width="11.219002798017813" height="6.88331336548629" fill="#64dfdf" opacity="0.16546712272462136" rx="1"/><rect x="586.4147802986938" y="636.0220381176217" width="11.219002798017813" height="6.88331336548629" fill="#80ffdb" opacity="0.08273356136231068" rx="1"/><rect x="608.993727595544" y="677.4650240480719" width="5.581492746617061" height="6.37062113833861" fill="#64dfdf" opacity="0.1425142800767241" rx="1"/><rect x="589.2335353243942" y="680.6503346172412" width="5.581492746617061" height="6.37062113833861" fill="#80ffdb" opacity="0.07125714003836205" rx="1"/><rect x="605.8170395951759" y="722.3496666612651" width="11.93486874735329" height="9.875918476813453" fill="#64dfdf" opacity="0.4262522319160058" rx="1"/><rect x="586.0568473240261" y="727.2876258996719" width="11.93486874735329" height="9.875918476813453" fill="#80ffdb" opacity="0.2131261159580029" rx="1"/><rect x="607.85942235935" y="767.2343092744585" width="7.850103219004838" height="7.22910122974522" fill="#64dfdf" opacity="0.11201953960396804" rx="1"/><rect x="588.0992300882002" y="770.8488598893312" width="7.850103219004838" height="7.22910122974522" fill="#80ffdb" opacity="0.05600976980198402" rx="1"/><rect x="607.4748172328051" y="812.1189518876517" width="8.619313472094785" height="7.803573473776591" fill="#64dfdf" opacity="0.4319492014897869" rx="1"/><rect x="587.7146249616553" y="816.0207386245401" width="8.619313472094785" height="7.803573473776591" fill="#80ffdb" opacity="0.21597460074489344" rx="1"/><rect x="607.702788501676" y="857.0035945008451" width="8.163370934353065" height="6.192293155051836" fill="#64dfdf" opacity="0.2929300812056591" rx="1"/><rect x="587.9425962305262" y="860.099741078371" width="8.163370934353065" height="6.192293155051836" fill="#80ffdb" opacity="0.14646504060282955" rx="1"/><rect x="659.0187266280452" y="638.0398051203321" width="56.80066682090998" height="253.84843199370627" fill="#6930c3" opacity="0.6534556399456821" rx="2"/><rect x="682.0649617978057" y="648.0398051203321" width="10.708196481389038" height="6.974425078596553" fill="#64dfdf" opacity="0.2441762638613992" rx="1"/><rect x="667.8647950925782" y="651.5270176596304" width="10.708196481389038" height="6.974425078596553" fill="#80ffdb" opacity="0.1220881319306996" rx="1"/><rect x="683.4436225924742" y="679.7708591195453" width="7.950874892052001" height="9.952751019958582" fill="#64dfdf" opacity="0.4066226233045157" rx="1"/><rect x="669.2434558872467" y="684.7472346295247" width="7.950874892052001" height="9.952751019958582" fill="#80ffdb" opacity="0.20331131165225785" rx="1"/><rect x="685.3489041925288" y="711.5019131187586" width="4.140311691942697" height="6.657132444124932" fill="#64dfdf" opacity="0.2665187975546622" rx="1"/><rect x="671.1487374873013" y="714.8304793408211" width="4.140311691942697" height="6.657132444124932" fill="#80ffdb" opacity="0.1332593987773311" rx="1"/><rect x="682.5261835673651" y="743.232967117972" width="9.785752942270076" height="8.987846795233862" fill="#64dfdf" opacity="0.14225855542865085" rx="1"/><rect x="668.3260168621376" y="747.7268905155889" width="9.785752942270076" height="8.987846795233862" fill="#80ffdb" opacity="0.07112927771432542" rx="1"/><rect x="684.0971224874019" y="774.9640211171852" width="6.643875102196791" height="8.6484920751882" fill="#64dfdf" opacity="0.35270012876780243" rx="1"/><rect x="669.8969557821744" y="779.2882671547793" width="6.643875102196791" height="8.6484920751882" fill="#80ffdb" opacity="0.17635006438390122" rx="1"/><rect x="683.6132353438561" y="806.6950751163985" width="7.611649389288306" height="8.797273876796773" fill="#64dfdf" opacity="0.13335921432202663" rx="1"/><rect x="669.4130686386286" y="811.0937120547968" width="7.611649389288306" height="8.797273876796773" fill="#80ffdb" opacity="0.06667960716101332" rx="1"/><rect x="683.7180037234718" y="838.4261291156117" width="7.40211263005671" height="6.42367663337469" fill="#64dfdf" opacity="0.4574689931370013" rx="1"/><rect x="669.5178370182443" y="841.6379674322991" width="7.40211263005671" height="6.42367663337469" fill="#80ffdb" opacity="0.22873449656850064" rx="1"/><rect x="683.5417239848854" y="870.1571831148251" width="7.754672107229632" height="8.012373100503435" fill="#64dfdf" opacity="0.4218492500767692" rx="1"/><rect x="669.3415572796579" y="874.1633696650769" width="7.754672107229632" height="8.012373100503435" fill="#80ffdb" opacity="0.2109246250383846" rx="1"/><rect x="724.3800279531581" y="615.4929632822734" width="74.75247689167793" height="276.395273831765" fill="#4f16a9" opacity="0.6520129719171703" rx="2"/><rect x="758.1798680501943" y="625.4929632822734" width="7.152796697605586" height="8.977459953859789" fill="#64dfdf" opacity="0.1889638555443296" rx="1"/><rect x="739.4917488272748" y="629.9816932592033" width="7.152796697605586" height="8.977459953859789" fill="#80ffdb" opacity="0.0944819277721648" rx="1"/><rect x="758.2014944016005" y="694.5917817402146" width="7.109543994793096" height="7.804919047701387" fill="#64dfdf" opacity="0.5099967208248556" rx="1"/><rect x="739.513375178681" y="698.4942412640653" width="7.109543994793096" height="7.804919047701387" fill="#80ffdb" opacity="0.2549983604124278" rx="1"/><rect x="759.7113969695547" y="763.690600198156" width="4.089738858884605" height="8.305348730251508" fill="#64dfdf" opacity="0.5936813653897683" rx="1"/><rect x="741.0232777466352" y="767.8432745632817" width="4.089738858884605" height="8.305348730251508" fill="#80ffdb" opacity="0.2968406826948842" rx="1"/><rect x="757.3391526565745" y="832.7894186560972" width="8.834227484845144" height="8.12492416755411" fill="#64dfdf" opacity="0.12110253891933304" rx="1"/><rect x="738.651033433655" y="836.8518807398742" width="8.834227484845144" height="8.12492416755411" fill="#80ffdb" opacity="0.06055126945966652" rx="1"/><rect x="806.9901422427479" y="591.3580130765582" width="79.74683794885567" height="300.53022403748014" fill="#6930c3" opacity="0.5443018766456056" rx="2"/><rect x="843.4545651451812" y="601.3580130765582" width="6.817992143989073" height="6.292102630318166" fill="#64dfdf" opacity="0.23044691519589325" rx="1"/><rect x="823.5178556579672" y="604.5040643917173" width="6.817992143989073" height="6.292102630318166" fill="#80ffdb" opacity="0.11522345759794662" rx="1"/><rect x="841.1291865432005" y="651.4463837494716" width="11.468749347950506" height="8.339747210578002" fill="#64dfdf" opacity="0.19811568309043434" rx="1"/><rect x="821.1924770559865" y="655.6162573547606" width="11.468749347950506" height="8.339747210578002" fill="#80ffdb" opacity="0.09905784154521717" rx="1"/><rect x="842.9101059511095" y="701.5347544223849" width="7.906910532132469" height="6.600775524182426" fill="#64dfdf" opacity="0.43451444593596145" rx="1"/><rect x="822.9733964638955" y="704.8351421844761" width="7.906910532132469" height="6.600775524182426" fill="#80ffdb" opacity="0.21725722296798072" rx="1"/><rect x="842.1981713909652" y="751.6231250952983" width="9.330779652421079" height="8.092369573677976" fill="#64dfdf" opacity="0.23482278623497646" rx="1"/><rect x="822.2614619037512" y="755.6693098821373" width="9.330779652421079" height="8.092369573677976" fill="#80ffdb" opacity="0.11741139311748823" rx="1"/><rect x="841.0023816847248" y="801.7114957682116" width="11.722359064901797" height="7.931931227895415" fill="#64dfdf" opacity="0.21318101620142837" rx="1"/><rect x="821.0656721975108" y="805.6774613821593" width="11.722359064901797" height="7.931931227895415" fill="#80ffdb" opacity="0.10659050810071419" rx="1"/><rect x="844.7430148063561" y="851.799866441125" width="4.241092821639286" height="7.11242069702419" fill="#64dfdf" opacity="0.4487617271833033" rx="1"/><rect x="824.8063053191421" y="855.3560767896371" width="4.241092821639286" height="7.11242069702419" fill="#80ffdb" opacity="0.22438086359165166" rx="1"/><rect x="896.0636533601357" y="546.7156863647317" width="35.211075820310754" height="345.17255074930665" fill="#4f16a9" opacity="0.6311904009969883" rx="2"/><rect x="909.4232838578575" y="556.7156863647317" width="8.491814824867019" height="8.773151136649108" fill="#64dfdf" opacity="0.3979157730699321" rx="1"/><rect x="900.6205149027799" y="561.1022619330563" width="8.491814824867019" height="8.773151136649108" fill="#80ffdb" opacity="0.19895788653496604" rx="1"/><rect x="908.604638328218" y="614.2444448229495" width="10.129105884146202" height="7.5101533628791" fill="#64dfdf" opacity="0.3534835163395581" rx="1"/><rect x="899.8018693731403" y="617.999521504389" width="10.129105884146202" height="7.5101533628791" fill="#80ffdb" opacity="0.17674175816977905" rx="1"/><rect x="908.709183208111" y="671.7732032811673" width="9.920016124360266" height="7.211871832891338" fill="#64dfdf" opacity="0.27827921737411043" rx="1"/><rect x="899.9064142530333" y="675.379139197613" width="9.920016124360266" height="7.211871832891338" fill="#80ffdb" opacity="0.13913960868705522" rx="1"/><rect x="910.4221679445873" y="729.301961739385" width="6.494046651407622" height="7.4072688914386715" fill="#64dfdf" opacity="0.39366635351759993" rx="1"/><rect x="901.6193989895096" y="733.0055961851043" width="6.494046651407622" height="7.4072688914386715" fill="#80ffdb" opacity="0.19683317675879997" rx="1"/><rect x="911.3356630234829" y="786.8307201976028" width="4.667056493616443" height="8.34463437421821" fill="#64dfdf" opacity="0.3027192538843302" rx="1"/><rect x="902.5328940684052" y="791.0030373847119" width="4.667056493616443" height="8.34463437421821" fill="#80ffdb" opacity="0.1513596269421651" rx="1"/><rect x="909.7756351881603" y="844.3594786558206" width="7.7871121642615435" height="8.924809007655085" fill="#64dfdf" opacity="0.26655724045507545" rx="1"/><rect x="900.9728662330826" y="848.8218831596481" width="7.7871121642615435" height="8.924809007655085" fill="#80ffdb" opacity="0.13327862022753773" rx="1"/><rect x="988.0603940081924" y="686.762367767925" width="39.630108002952795" height="205.12586934611338" fill="#6930c3" opacity="0.4818369168513075" rx="2"/><rect x="1003.6232893915436" y="696.762367767925" width="8.50431723625034" height="6.461593354228324" fill="#64dfdf" opacity="0.24468793970176203" rx="1"/><rect x="993.7157623908055" y="699.9931644450392" width="8.50431723625034" height="6.461593354228324" fill="#80ffdb" opacity="0.12234396985088102" rx="1"/><rect x="1004.282899192833" y="748.0438351044533" width="7.185097633671271" height="7.3386424196275515" fill="#64dfdf" opacity="0.24023538297979055" rx="1"/><rect x="994.3753721920949" y="751.713156314267" width="7.185097633671271" height="7.3386424196275515" fill="#80ffdb" opacity="0.12011769148989528" rx="1"/><rect x="1004.7710710376899" y="799.3253024409817" width="6.208753943957564" height="8.605081051263278" fill="#64dfdf" opacity="0.15536875421073493" rx="1"/><rect x="994.8635440369518" y="803.6278429666133" width="6.208753943957564" height="8.605081051263278" fill="#80ffdb" opacity="0.07768437710536746" rx="1"/><rect x="1005.8074648116733" y="850.60676977751" width="4.135966395990915" height="9.33602737713047" fill="#64dfdf" opacity="0.25085496396079077" rx="1"/><rect x="995.8999378109352" y="855.2747834660752" width="4.135966395990915" height="9.33602737713047" fill="#80ffdb" opacity="0.12542748198039538" rx="1"/><rect x="1066.4294622317957" y="780.635469937845" width="44.750200513459326" height="111.25276717619336" fill="#4f16a9" opacity="0.5310052580970818" rx="2"/><rect x="1082.9626793311822" y="790.635469937845" width="11.68376631468622" height="9.772305731608604" fill="#64dfdf" opacity="0.5116656216587093" rx="1"/><rect x="1071.7751292028174" y="795.5216228036493" width="11.68376631468622" height="9.772305731608604" fill="#80ffdb" opacity="0.25583281082935466" rx="1"/><rect x="1083.615471089402" y="818.4486617318933" width="10.37818279824643" height="8.516043020066816" fill="#64dfdf" opacity="0.5137977891168086" rx="1"/><rect x="1072.4279209610372" y="822.7066832419266" width="10.37818279824643" height="8.516043020066816" fill="#80ffdb" opacity="0.2568988945584043" rx="1"/><rect x="1085.2960217628386" y="846.2618535259417" width="7.017081451373427" height="7.208935933469081" fill="#64dfdf" opacity="0.39702508177073326" rx="1"/><rect x="1074.1084716344737" y="849.8663214926762" width="7.017081451373427" height="7.208935933469081" fill="#80ffdb" opacity="0.19851254088536663" rx="1"/><rect x="1086.15352779514" y="874.07504531999" width="5.3020693867704995" height="6.473948558902822" fill="#64dfdf" opacity="0.569193446559178" rx="1"/><rect x="1074.9659776667752" y="877.3120195994413" width="5.3020693867704995" height="6.473948558902822" fill="#80ffdb" opacity="0.284596723279589" rx="1"/><rect x="1136.468682239407" y="648.9950272368721" width="38.50843635585821" height="242.89320987716624" fill="#4f16a9" opacity="0.5245713905255709" rx="2"/><rect x="1153.229695451965" y="658.9950272368721" width="4.986409930741976" height="8.428543024330526" fill="#64dfdf" opacity="0.26967550715656846" rx="1"/><rect x="1143.6025863630005" y="663.2092987490374" width="4.986409930741976" height="8.428543024330526" fill="#80ffdb" opacity="0.13483775357828423" rx="1"/><rect x="1150.8059791083926" y="693.6940572193245" width="9.833842617886571" height="9.831993361895902" fill="#64dfdf" opacity="0.17567920234885048" rx="1"/><rect x="1141.1788700194281" y="698.6100539002724" width="9.833842617886571" height="9.831993361895902" fill="#80ffdb" opacity="0.08783960117442524" rx="1"/><rect x="1151.8664495844548" y="728.3930872017768" width="7.712901665762277" height="6.3221427826960905" fill="#64dfdf" opacity="0.5752043412242095" rx="1"/><rect x="1142.2393404954903" y="731.5541585931248" width="7.712901665762277" height="6.3221427826960905" fill="#80ffdb" opacity="0.28760217061210475" rx="1"/><rect x="1152.3128116087319" y="763.0921171842291" width="6.820177617208142" height="6.987041882469096" fill="#64dfdf" opacity="0.5964235041980687" rx="1"/><rect x="1142.6857025197673" y="766.5856381254637" width="6.820177617208142" height="6.987041882469096" fill="#80ffdb" opacity="0.29821175209903433" rx="1"/><rect x="1150.5665428656075" y="797.7911471666814" width="10.312715103456917" height="9.263914433136563" fill="#64dfdf" opacity="0.10034041726038335" rx="1"/><rect x="1140.939433776643" y="802.4231043832497" width="10.312715103456917" height="9.263914433136563" fill="#80ffdb" opacity="0.05017020863019168" rx="1"/><rect x="1153.4429719891498" y="832.4901771491337" width="4.559856856372174" height="6.350481996394341" fill="#64dfdf" opacity="0.2913398787591932" rx="1"/><rect x="1143.8158629001853" y="835.6654181473309" width="4.559856856372174" height="6.350481996394341" fill="#80ffdb" opacity="0.1456699393795966" rx="1"/><rect x="1151.3825805551332" y="867.189207131586" width="8.680639724405632" height="8.383171454626874" fill="#64dfdf" opacity="0.366824597904185" rx="1"/><rect x="1141.7554714661687" y="871.3807928588994" width="8.680639724405632" height="8.383171454626874" fill="#80ffdb" opacity="0.1834122989520925" rx="1"/><rect x="1229.8068532626626" y="682.481415076759" width="71.05635144772388" height="209.40682203727934" fill="#4f16a9" opacity="0.6742099453635071" rx="2"/><rect x="1261.9062551937313" y="692.481415076759" width="6.857547585586446" height="6.927911611489931" fill="#64dfdf" opacity="0.4781985571557187" rx="1"/><rect x="1244.1421673318002" y="695.945370882504" width="6.857547585586446" height="6.927911611489931" fill="#80ffdb" opacity="0.23909927857785934" rx="1"/><rect x="1261.643215740715" y="722.3966753677989" width="7.383626491619188" height="9.721872266317222" fill="#64dfdf" opacity="0.555143375428194" rx="1"/><rect x="1243.879127878784" y="727.2576115009575" width="7.383626491619188" height="9.721872266317222" fill="#80ffdb" opacity="0.277571687714097" rx="1"/><rect x="1262.7680430011283" y="752.3119356588388" width="5.133971970792388" height="9.756801406796278" fill="#64dfdf" opacity="0.29618736433242154" rx="1"/><rect x="1245.0039551391972" y="757.190336362237" width="5.133971970792388" height="9.756801406796278" fill="#80ffdb" opacity="0.14809368216621077" rx="1"/><rect x="1261.045179409451" y="782.2271959498787" width="8.579699154146876" height="6.492046862023893" fill="#64dfdf" opacity="0.40434627779860666" rx="1"/><rect x="1243.28109154752" y="785.4732193808907" width="8.579699154146876" height="6.492046862023893" fill="#80ffdb" opacity="0.20217313889930333" rx="1"/><rect x="1261.6133869519954" y="812.1424562409187" width="7.443284069058318" height="6.379669762304907" fill="#64dfdf" opacity="0.5451073389372573" rx="1"/><rect x="1243.8492990900643" y="815.3322911220712" width="7.443284069058318" height="6.379669762304907" fill="#80ffdb" opacity="0.27255366946862863" rx="1"/><rect x="1260.4969745402916" y="842.0577165319586" width="9.676108892465967" height="7.417612781146917" fill="#64dfdf" opacity="0.3391048522524314" rx="1"/><rect x="1242.7328866783605" y="845.7665229225321" width="9.676108892465967" height="7.417612781146917" fill="#80ffdb" opacity="0.1695524261262157" rx="1"/><rect x="1260.347678718471" y="871.9729768229985" width="9.974700536107342" height="8.312042402641858" fill="#64dfdf" opacity="0.32421526238886067" rx="1"/><rect x="1242.5835908565398" y="876.1289980243195" width="9.974700536107342" height="8.312042402641858" fill="#80ffdb" opacity="0.16210763119443033" rx="1"/><rect x="1293.562678623377" y="537.1368124236205" width="67.99914943939055" height="354.7514246904178" fill="#4f16a9" opacity="0.6231249372295861" rx="2"/><rect x="1323.6578889383604" y="547.1368124236205" width="7.808728809423915" height="6.334092798720601" fill="#64dfdf" opacity="0.37445800457486367" rx="1"/><rect x="1306.6581015785127" y="550.3038588229808" width="7.808728809423915" height="6.334092798720601" fill="#80ffdb" opacity="0.18722900228743183" rx="1"/><rect x="1324.1832230471036" y="618.0870973617041" width="6.7580605919375225" height="6.912047726314526" fill="#64dfdf" opacity="0.2658814250644952" rx="1"/><rect x="1307.183435687256" y="621.5431212248614" width="6.7580605919375225" height="6.912047726314526" fill="#80ffdb" opacity="0.1329407125322476" rx="1"/><rect x="1322.0866111789567" y="689.0373822997876" width="10.95128432823142" height="6.363596484149713" fill="#64dfdf" opacity="0.5394805938795862" rx="1"/><rect x="1305.086823819109" y="692.2191805418624" width="10.95128432823142" height="6.363596484149713" fill="#80ffdb" opacity="0.2697402969397931" rx="1"/><rect x="1323.3716062806482" y="759.9876672378713" width="8.38129412484851" height="8.978566481494012" fill="#64dfdf" opacity="0.2323167038225375" rx="1"/><rect x="1306.3718189208005" y="764.4769504786183" width="8.38129412484851" height="8.978566481494012" fill="#80ffdb" opacity="0.11615835191126875" rx="1"/><rect x="1324.7570127127126" y="830.9379521759548" width="5.6104812607193555" height="9.794342430260578" fill="#64dfdf" opacity="0.19708039453185172" rx="1"/><rect x="1307.757225352865" y="835.8351233910851" width="5.6104812607193555" height="9.794342430260578" fill="#80ffdb" opacity="0.09854019726592586" rx="1"/><rect x="1374.7293544827796" y="528.2567202179359" width="61.61599581865966" height="363.6315168961025" fill="#6930c3" opacity="0.49103741729423345" rx="2"/><rect x="1402.7698964545898" y="538.2567202179359" width="5.534911875039086" height="9.036378881669691" fill="#64dfdf" opacity="0.4923186958749589" rx="1"/><rect x="1387.365897499925" y="542.7749096587708" width="5.534911875039086" height="9.036378881669691" fill="#80ffdb" opacity="0.24615934793747946" rx="1"/><rect x="1402.8157015856857" y="598.8619730339531" width="5.443301612847322" height="9.408245861392526" fill="#64dfdf" opacity="0.23873849370021805" rx="1"/><rect x="1387.411702631021" y="603.5660959646493" width="5.443301612847322" height="9.408245861392526" fill="#80ffdb" opacity="0.11936924685010902" rx="1"/><rect x="1402.5859815724161" y="659.4672258499701" width="5.902741639386569" height="8.942899723291141" fill="#64dfdf" opacity="0.3092710928314531" rx="1"/><rect x="1387.1819826177514" y="663.9386757116157" width="5.902741639386569" height="8.942899723291141" fill="#80ffdb" opacity="0.15463554641572655" rx="1"/><rect x="1401.4656435038116" y="720.0724786659872" width="8.143417776595665" height="8.373884536878645" fill="#64dfdf" opacity="0.3499904193100497" rx="1"/><rect x="1386.0616445491469" y="724.2594209344265" width="8.143417776595665" height="8.373884536878645" fill="#80ffdb" opacity="0.17499520965502485" rx="1"/><rect x="1402.847414832061" y="780.6777314820042" width="5.379875120096811" height="7.322742635692177" fill="#64dfdf" opacity="0.35033558328876635" rx="1"/><rect x="1387.4434158773963" y="784.3391027998503" width="5.379875120096811" height="7.322742635692177" fill="#80ffdb" opacity="0.17516779164438318" rx="1"/><rect x="1399.9361546484138" y="841.2829842980213" width="11.202395487391016" height="6.038312481725195" fill="#64dfdf" opacity="0.4078909543826922" rx="1"/><rect x="1384.532155693749" y="844.3021405388839" width="11.202395487391016" height="6.038312481725195" fill="#80ffdb" opacity="0.2039454771913461" rx="1"/><rect x="1469.7091460110873" y="633.0368363375395" width="75.70956178142447" height="258.85140077649885" fill="#4f16a9" opacity="0.5000123971840396" rx="2"/><rect x="1504.5151887311401" y="643.0368363375395" width="6.097476341318683" height="7.574343349219846" fill="#64dfdf" opacity="0.3576285343984208" rx="1"/><rect x="1485.5877982857842" y="646.8240080121494" width="6.097476341318683" height="7.574343349219846" fill="#80ffdb" opacity="0.1788142671992104" rx="1"/><rect x="1504.2766926072716" y="694.8071164928393" width="6.574468589055927" height="9.064446165008574" fill="#64dfdf" opacity="0.5060156181003004" rx="1"/><rect x="1485.3493021619156" y="699.3393395753436" width="6.574468589055927" height="9.064446165008574" fill="#80ffdb" opacity="0.2530078090501502" rx="1"/><rect x="1501.6908127015201" y="746.577396648139" width="11.746228400558753" height="8.756986573049097" fill="#64dfdf" opacity="0.5525996183400507" rx="1"/><rect x="1482.7634222561642" y="750.9558899346636" width="11.746228400558753" height="8.756986573049097" fill="#80ffdb" opacity="0.27629980917002533" rx="1"/><rect x="1504.5678147029987" y="798.3476768034388" width="5.992224397601612" height="9.234383835279006" fill="#64dfdf" opacity="0.4103127044882422" rx="1"/><rect x="1485.6404242576427" y="802.9648687210783" width="5.992224397601612" height="9.234383835279006" fill="#80ffdb" opacity="0.2051563522441211" rx="1"/><rect x="1504.3619468946385" y="850.1179569587387" width="6.403960014321832" height="8.17988946525843" fill="#64dfdf" opacity="0.2227360108454563" rx="1"/><rect x="1485.4345564492826" y="854.2079016913679" width="6.403960014321832" height="8.17988946525843" fill="#80ffdb" opacity="0.11136800542272815" rx="1"/><rect x="1539.4067571962735" y="677.7801556228148" width="45.62672276879351" height="214.10808149122354" fill="#6930c3" opacity="0.454046057293668" rx="2"/><rect x="1558.4719967533538" y="687.7801556228148" width="7.496243654632998" height="7.960202324660542" fill="#64dfdf" opacity="0.11509205520038775" rx="1"/><rect x="1547.0653160611553" y="691.7602567851451" width="7.496243654632998" height="7.960202324660542" fill="#80ffdb" opacity="0.05754602760019387" rx="1"/><rect x="1556.9114194330555" y="741.3071759956207" width="10.617398295229627" height="9.763337691259416" fill="#64dfdf" opacity="0.5110404032773898" rx="1"/><rect x="1545.504738740857" y="746.1888448412504" width="10.617398295229627" height="9.763337691259416" fill="#80ffdb" opacity="0.2555202016386949" rx="1"/><rect x="1556.8577302046722" y="794.8341963684267" width="10.724776751996199" height="8.888562985437122" fill="#64dfdf" opacity="0.22085975290296128" rx="1"/><rect x="1545.4510495124737" y="799.2784778611452" width="10.724776751996199" height="8.888562985437122" fill="#80ffdb" opacity="0.11042987645148064" rx="1"/><rect x="1559.4575134526142" y="848.3612167412325" width="5.52521025611209" height="7.413614289232905" fill="#64dfdf" opacity="0.37409369772628265" rx="1"/><rect x="1548.0508327604157" y="852.068023885849" width="5.52521025611209" height="7.413614289232905" fill="#80ffdb" opacity="0.18704684886314132" rx="1"/><rect x="1625.998733194079" y="811.2307381376695" width="59.1367284509206" height="80.6574989763688" fill="#6930c3" opacity="0.6050719620438926" rx="2"/><rect x="1652.9040592279994" y="821.2307381376695" width="5.326076383079886" height="9.96451108715602" fill="#64dfdf" opacity="0.14006163101644759" rx="1"/><rect x="1638.1198771152692" y="826.2129936812476" width="5.326076383079886" height="9.96451108715602" fill="#80ffdb" opacity="0.07003081550822379" rx="1"/><rect x="1652.7412485875518" y="841.3951128817617" width="5.651697663974878" height="7.098500648769201" fill="#64dfdf" opacity="0.5530349218875716" rx="1"/><rect x="1637.9570664748217" y="844.9443632061464" width="5.651697663974878" height="7.098500648769201" fill="#80ffdb" opacity="0.2765174609437858" rx="1"/><rect x="1653.536984004671" y="861.5594876258539" width="4.060226829736546" height="6.264370013089937" fill="#64dfdf" opacity="0.4366835232211006" rx="1"/><rect x="1638.7528018919409" y="864.6916726323989" width="4.060226829736546" height="6.264370013089937" fill="#80ffdb" opacity="0.2183417616105503" rx="1"/><rect x="1649.6998128366424" y="881.7238623699461" width="11.734569165793847" height="6.72105522377441" fill="#64dfdf" opacity="0.5839497505416976" rx="1"/><rect x="1634.9156307239123" y="885.0843899818333" width="11.734569165793847" height="6.72105522377441" fill="#80ffdb" opacity="0.2919748752708488" rx="1"/><rect x="1703.8246823460386" y="538.7413582621937" width="75.5752400228696" height="353.1468788518447" fill="#4f16a9" opacity="0.6004746748601261" rx="2"/><rect x="1739.2957091723324" y="548.7413582621937" width="4.633186370281779" height="9.569727460753574" fill="#64dfdf" opacity="0.4034014948186002" rx="1"/><rect x="1720.401899166615" y="553.5262219925704" width="4.633186370281779" height="9.569727460753574" fill="#80ffdb" opacity="0.2017007474093001" rx="1"/><rect x="1736.936679013524" y="599.1909123838858" width="9.351246687898236" height="6.291416443020901" fill="#64dfdf" opacity="0.5981792682079085" rx="1"/><rect x="1718.0428690078068" y="602.3366206053962" width="9.351246687898236" height="6.291416443020901" fill="#80ffdb" opacity="0.2990896341039542" rx="1"/><rect x="1737.755724206277" y="649.6404665055778" width="7.713156302392752" height="8.376701075205743" fill="#64dfdf" opacity="0.2866063734485317" rx="1"/><rect x="1718.8619142005596" y="653.8288170431807" width="7.713156302392752" height="8.376701075205743" fill="#80ffdb" opacity="0.14330318672426584" rx="1"/><rect x="1737.6107560886558" y="700.09002062727" width="8.003092537634796" height="8.779946236587117" fill="#64dfdf" opacity="0.4847278530906718" rx="1"/><rect x="1718.7169460829384" y="704.4799937455635" width="8.003092537634796" height="8.779946236587117" fill="#80ffdb" opacity="0.2423639265453359" rx="1"/><rect x="1737.574291483167" y="750.5395747489621" width="8.07602174861264" height="9.14451976566215" fill="#64dfdf" opacity="0.5729326637398761" rx="1"/><rect x="1718.6804814774496" y="755.1118346317932" width="8.07602174861264" height="9.14451976566215" fill="#80ffdb" opacity="0.28646633186993803" rx="1"/><rect x="1738.3502189301303" y="800.9891288706542" width="6.524166854686142" height="9.570677177880583" fill="#64dfdf" opacity="0.3939493257538298" rx="1"/><rect x="1719.456408924413" y="805.7744674595945" width="6.524166854686142" height="9.570677177880583" fill="#80ffdb" opacity="0.1969746628769149" rx="1"/><rect x="1739.2739660824354" y="851.4386829923462" width="4.676672550075844" height="9.29119735939689" fill="#64dfdf" opacity="0.16008100732231537" rx="1"/><rect x="1720.380156076718" y="856.0842816720447" width="4.676672550075844" height="9.29119735939689" fill="#80ffdb" opacity="0.08004050366115768" rx="1"/><rect x="1761.012662516677" y="608.2879885584787" width="82.86010715012907" height="283.6002485555597" fill="#4f16a9" opacity="0.49947380842628747" rx="2"/><rect x="1797.762419117792" y="618.2879885584787" width="9.360593947898735" height="8.809917607998923" fill="#64dfdf" opacity="0.4391681769488305" rx="1"/><rect x="1777.0473923302598" y="622.6929473624781" width="9.360593947898735" height="8.809917607998923" fill="#80ffdb" opacity="0.21958408847441524" rx="1"/><rect x="1797.0098161743977" y="675.0080382695907" width="10.865799834687682" height="9.499258181894957" fill="#64dfdf" opacity="0.4077487633115958" rx="1"/><rect x="1776.2947893868654" y="679.7576673605381" width="10.865799834687682" height="9.499258181894957" fill="#80ffdb" opacity="0.2038743816557979" rx="1"/><rect x="1797.4773298270247" y="731.7280879807025" width="9.930772529433195" height="6.141108599524272" fill="#64dfdf" opacity="0.3016740729337731" rx="1"/><rect x="1776.7623030394925" y="734.7986422804646" width="9.930772529433195" height="6.141108599524272" fill="#80ffdb" opacity="0.15083703646688654" rx="1"/><rect x="1799.6556323214097" y="788.4481376918145" width="5.574167540663426" height="8.411169173757353" fill="#64dfdf" opacity="0.24328327696846874" rx="1"/><rect x="1778.9406055338775" y="792.6537222786932" width="5.574167540663426" height="8.411169173757353" fill="#80ffdb" opacity="0.12164163848423437" rx="1"/><rect x="1798.966984803315" y="845.1681874029264" width="6.951462576852986" height="6.321789508760392" fill="#64dfdf" opacity="0.3259436611146535" rx="1"/><rect x="1778.2519580157827" y="848.3290821573066" width="6.951462576852986" height="6.321789508760392" fill="#80ffdb" opacity="0.16297183055732675" rx="1"/><rect x="1852.2938826010316" y="656.7738481463804" width="34.673593348048996" height="235.11438896765802" fill="#6930c3" opacity="0.5740983331981344" rx="2"/><rect x="1865.6872938719316" y="666.7738481463804" width="7.886770806248945" height="9.021975451852654" fill="#64dfdf" opacity="0.24108857399343714" rx="1"/><rect x="1857.0188955349192" y="671.2848358723068" width="7.886770806248945" height="9.021975451852654" fill="#80ffdb" opacity="0.12054428699671857" rx="1"/><rect x="1865.4078492891063" y="713.796725939912" width="8.44565997189974" height="7.268556320403832" fill="#64dfdf" opacity="0.47176753111923286" rx="1"/><rect x="1856.7394509520939" y="717.4310041001139" width="8.44565997189974" height="7.268556320403832" fill="#80ffdb" opacity="0.23588376555961643" rx="1"/><rect x="1867.1775429659006" y="760.8196037334436" width="4.906272618311055" height="9.82612376190399" fill="#64dfdf" opacity="0.46862599602169963" rx="1"/><rect x="1858.5091446288882" y="765.7326656143956" width="4.906272618311055" height="9.82612376190399" fill="#80ffdb" opacity="0.23431299801084982" rx="1"/><rect x="1867.3154450525333" y="807.8424815269752" width="4.630468445045517" height="7.935544393475992" fill="#64dfdf" opacity="0.20717023492492043" rx="1"/><rect x="1858.647046715521" y="811.8102537237132" width="4.630468445045517" height="7.935544393475992" fill="#80ffdb" opacity="0.10358511746246021" rx="1"/><rect x="1866.0514620102597" y="854.8653593205067" width="7.158434529592849" height="7.672152875380626" fill="#64dfdf" opacity="0.549121922824793" rx="1"/><rect x="1857.3830636732473" y="858.701435758197" width="7.158434529592849" height="7.672152875380626" fill="#80ffdb" opacity="0.2745609614123965" rx="1"/><rect x="0" y="1000" width="1920" height="80" fill="#430a9d" opacity="0.8"/><line x1="0" y1="1040" x2="1920" y2="1040" stroke="#64dfdf" stroke-opacity="0.15" stroke-width="2" stroke-dasharray="30,20"/><rect x="0" y="930" width="1920" height="150" fill="url(#glow29)"/><text x="1900" y="1060" font-family="Arial, sans-serif" font-size="11" fill="#fff" opacity="0.08" text-anchor="end" letter-spacing="2">GTA 6 REWARDS · WALLPAPER 030</text>
</svg>