<?xml version="1.0" encoding="UTF-8"?>
<svg xmlns="http://www.w3.org/2000/svg" width="1920" height="1080" viewBox="0 0 1920 1080">
<defs>
    <linearGradient id="bg19" x1="0%" y1="0%" x2="0%" y2="100%">
      <stop offset="0%" stop-color="#00bbf9"/>
      <stop offset="50%" stop-color="#0088c6"/>
      <stop offset="100%" stop-color="#00bbf9"/>
    </linearGradient>
    <linearGradient id="sun19" x1="0%" y1="0%" x2="100%" y2="100%">
      <stop offset="0%" stop-color="#f15bb5"/>
      <stop offset="100%" stop-color="#fee440"/>
    </linearGradient>
    <radialGradient id="glow19" cx="50%" cy="70%" r="50%">
      <stop offset="0%" stop-color="#f15bb5" stop-opacity="0.3"/>
      <stop offset="100%" stop-color="#00bbf9" stop-opacity="0"/>
    </radialGradient>
  </defs><rect width="1920" height="1080" fill="url(#bg19)"/><circle cx="692.2658740524821" cy="381.00656386953926" r="827.0808712875194" fill="#f15bb5" opacity="0.1486580908528199"/><circle cx="892.2658740524821" cy="281.00656386953926" r="464.50467167061396" fill="#fee440" opacity="0.10228466247494442"/><line x1="0" y1="980" x2="1920" y2="980" stroke="#fee440" stroke-opacity="0.05" stroke-width="2"/><line x1="0" y1="935" x2="1920" y2="935" stroke="#fee440" stroke-opacity="0.049" stroke-width="0.5"/><line x1="0" y1="890" x2="1920" y2="890" stroke="#fee440" stroke-opacity="0.048" stroke-width="0.5"/><line x1="0" y1="845" x2="1920" y2="845" stroke="#fee440" stroke-opacity="0.047" stroke-width="0.5"/><line x1="0" y1="800" x2="1920" y2="800" stroke="#fee440" stroke-opacity="0.046" stroke-width="0.5"/><line x1="0" y1="755" x2="1920" y2="755" stroke="#fee440" stroke-opacity="0.045" stroke-width="0.5"/><line x1="0" y1="710" x2="1920" y2="710" stroke="#fee440" stroke-opacity="0.044" stroke-width="0.5"/><line x1="0" y1="665" x2="1920" y2="665" stroke="#fee440" stroke-opacity="0.043" stroke-width="0.5"/><line x1="0" y1="620" x2="1920" y2="620" stroke="#fee440" stroke-opacity="0.041999999999999996" stroke-width="0.5"/><line x1="0" y1="575" x2="1920" y2="575" stroke="#fee440" stroke-opacity="0.041" stroke-width="0.5"/><line x1="0" y1="530" x2="1920" y2="530" stroke="#fee440" stroke-opacity="0.04" stroke-width="0.5"/><line x1="0" y1="485" x2="1920" y2="485" stroke="#fee440" stroke-opacity="0.039" stroke-width="0.5"/><line x1="0" y1="440" x2="1920" y2="440" stroke="#fee440" stroke-opacity="0.038" stroke-width="0.5"/><line x1="0" y1="395" x2="1920" y2="395" stroke="#fee440" stroke-opacity="0.037" stroke-width="0.5"/><line x1="0" y1="350" x2="1920" y2="350" stroke="#fee440" stroke-opacity="0.036" stroke-width="0.5"/><line x1="0" y1="305" x2="1920" y2="305" stroke="#fee440" stroke-opacity="0.034999999999999996" stroke-width="0.5"/><line x1="0" y1="260" x2="1920" y2="260" stroke="#fee440" stroke-opacity="0.033999999999999996" stroke-width="0.5"/><line x1="0" y1="215" x2="1920" y2="215" stroke="#fee440" stroke-opacity="0.033" stroke-width="0.5"/><line x1="0" y1="170" x2="1920" y2="170" stroke="#fee440" stroke-opacity="0.032" stroke-width="0.5"/><line x1="0" y1="125" x2="1920" y2="125" stroke="#fee440" stroke-opacity="0.031" stroke-width="0.5"/><line x1="560" y1="1080" x2="860" y2="580" stroke="#f15bb5" stroke-opacity="0.04" stroke-width="1"/><line x1="640" y1="1080" x2="880" y2="590" stroke="#f15bb5" stroke-opacity="0.04" stroke-width="1"/><line x1="720" y1="1080" x2="900" y2="600" stroke="#f15bb5" stroke-opacity="0.04" stroke-width="1"/><line x1="800" y1="1080" x2="920" y2="610" stroke="#f15bb5" stroke-opacity="0.04" stroke-width="1"/><line x1="880" y1="1080" x2="940" y2="620" stroke="#f15bb5" stroke-opacity="0.04" stroke-width="1"/><line x1="960" y1="1080" x2="960" y2="630" stroke="#f15bb5" stroke-opacity="0.04" stroke-width="1"/><line x1="1040" y1="1080" x2="980" y2="620" stroke="#f15bb5" stroke-opacity="0.04" stroke-width="1"/><line x1="1120" y1="1080" x2="1000" y2="610" stroke="#f15bb5" stroke-opacity="0.04" stroke-width="1"/><line x1="1200" y1="1080" x2="1020" y2="600" stroke="#f15bb5" stroke-opacity="0.04" stroke-width="1"/><line x1="1280" y1="1080" x2="1040" y2="590" stroke="#f15bb5" stroke-opacity="0.04" stroke-width="1"/><line x1="1360" y1="1080" x2="1060" y2="580" stroke="#f15bb5" stroke-opacity="0.04" stroke-width="1"/><circle cx="935.6384993148126" cy="396.67591584070493" r="81.25108302134348" fill="url(#sun19)" opacity="0.6341288420684004"/><circle cx="935.6384993148126" cy="396.67591584070493" r="76.25108302134348" fill="#00bbf9" opacity="0.3"/><circle cx="763.9550437321782" cy="249.0973878263257" r="0.6273151095088839" fill="#fff" opacity="0.2571892165712056"/><circle cx="966.2825290128314" cy="308.41894738851556" r="1.752085380314869" fill="#fff" opacity="0.4802018630505078"/><circle cx="374.6838230767017" cy="32.535018868868946" r="0.7098933744034481" fill="#fff" opacity="0.5648725606884977"/><circle cx="551.2490170987437" cy="71.06648972422501" r="1.822272401843749" fill="#fff" opacity="0.36228262972139813"/><circle cx="1846.7781650849568" cy="407.13396106081404" r="1.2124529303313356" fill="#fff" opacity="0.29258584154131495"/><circle cx="506.28129479155905" cy="396.6572405762638" r="1.7980758590386428" fill="#fff" opacity="0.20087772565914266"/><circle cx="594.9357776238899" cy="403.4524538711301" r="1.9074708727205802" fill="#fff" opacity="0.4959354630894809"/><circle cx="752.1479149423884" cy="85.26382370415698" r="0.937584393759627" fill="#fff" opacity="0.7090433341704876"/><circle cx="124.78800687119085" cy="162.94146123596968" r="1.2644068614496864" fill="#fff" opacity="0.5130195756240328"/><circle cx="1785.5553164765136" cy="216.9381129464456" r="0.8364858789920075" fill="#fff" opacity="0.2617451691678132"/><circle cx="1327.8912899009629" cy="261.97486465190883" r="1.6527548998484283" fill="#fff" opacity="0.7330738880515737"/><circle cx="1.4501161876716924" cy="141.14469653674044" r="1.2047962552646165" fill="#fff" opacity="0.2869539892503419"/><circle cx="687.1734310796422" cy="350.08519725829484" r="0.7779429337889755" fill="#fff" opacity="0.5409654380150525"/><circle cx="43.79407034343902" cy="13.39953947379243" r="0.9428262505547205" fill="#fff" opacity="0.5877007358678851"/><circle cx="1565.3774977394794" cy="50.205543425447665" r="1.4107336022217605" fill="#fff" opacity="0.5899109062715227"/><circle cx="823.5347898731787" cy="253.90128723855628" r="0.8912532657597337" fill="#fff" opacity="0.2682682512021317"/><circle cx="25.183229154251336" cy="361.0665238371739" r="1.8995808828388296" fill="#fff" opacity="0.4665385901617209"/><circle cx="1761.6766512025326" cy="66.64985093536085" r="1.0844795892677455" fill="#fff" opacity="0.5308273294313874"/><circle cx="830.4675782170305" cy="39.54822434288175" r="0.5416123857818573" fill="#fff" opacity="0.7279770172964728"/><circle cx="1795.9856606731157" cy="189.94534907069647" r="1.2880863249972665" fill="#fff" opacity="0.5769496913945651"/><circle cx="557.3260703490408" cy="373.76424494892456" r="0.5414457144312201" fill="#fff" opacity="0.5489100151110697"/><circle cx="886.89986562517" cy="265.6902674533637" r="1.3169801233608696" fill="#fff" opacity="0.671176796190249"/><circle cx="1281.1162790658689" cy="367.0408250687273" r="0.6883072824422986" fill="#fff" opacity="0.7058245696373806"/><circle cx="1568.985043831399" cy="341.79303905502735" r="1.3945069442024702" fill="#fff" opacity="0.2506523748046375"/><circle cx="1607.134304718844" cy="174.34880632496177" r="1.7504185913713692" fill="#fff" opacity="0.5214028094246524"/><circle cx="511.86380681392365" cy="87.53944332700675" r="1.6833321996227215" fill="#fff" opacity="0.7728828615445837"/><circle cx="513.7975775901689" cy="412.2970465152285" r="0.8111120364188944" fill="#fff" opacity="0.2346900080411439"/><circle cx="1764.5614049966823" cy="310.77584619232823" r="1.2131529037638458" fill="#fff" opacity="0.6199676452251075"/><circle cx="1622.7354655467755" cy="223.24898718652523" r="1.321680036331918" fill="#fff" opacity="0.5526496456360095"/><circle cx="859.6553168212192" cy="82.8572434156335" r="0.8676515908138016" fill="#fff" opacity="0.2534150921398343"/><circle cx="1734.8481089935751" cy="105.79437710572834" r="0.9608109387245055" fill="#fff" opacity="0.25095721149140904"/><circle cx="713.9940567486906" cy="32.833897352412784" r="0.9987874836658098" fill="#fff" opacity="0.27503342229757305"/><circle cx="1754.0269459397593" cy="320.3478228413378" r="1.7293003664187387" fill="#fff" opacity="0.3538373332363175"/><circle cx="556.9283211037815" cy="431.0410020833465" r="1.2069201453605016" fill="#fff" opacity="0.5367339600661616"/><circle cx="1327.7413544169958" cy="297.6140827372703" r="0.7597903819428269" fill="#fff" opacity="0.499895199318392"/><circle cx="578.963649854754" cy="5.676911072264637" r="1.7817566103259468" fill="#fff" opacity="0.6360031798565768"/><circle cx="61.42323286771384" cy="419.90932276936" r="1.421185018243544" fill="#fff" opacity="0.7239801788525608"/><circle cx="0.4619765282752869" cy="415.5189432426167" r="0.8264278050806438" fill="#fff" opacity="0.5653285578743854"/><circle cx="1349.0743579131258" cy="234.14270822567462" r="1.99292410805191" fill="#fff" opacity="0.546474363828654"/><circle cx="1489.8036654782024" cy="418.9605141959527" r="0.9483995131329632" fill="#fff" opacity="0.6180810162839668"/><circle cx="723.568018545296" cy="213.4456319896145" r="1.317444723173381" fill="#fff" opacity="0.6572464934683513"/><circle cx="183.77572332131112" cy="155.8641175059285" r="1.7434852336867444" fill="#fff" opacity="0.5851310125517498"/><circle cx="1891.217858337615" cy="190.43677539342008" r="0.9303481849912434" fill="#fff" opacity="0.6914129875347514"/><circle cx="621.7642331080893" cy="157.64240810220187" r="1.3448773951607005" fill="#fff" opacity="0.24219526612250958"/><circle cx="359.7930681053067" cy="36.20266453647117" r="1.3344210051778753" fill="#fff" opacity="0.7839736133776545"/><circle cx="712.1710209716509" cy="419.2777963213804" r="0.6277485101315539" fill="#fff" opacity="0.7631025262556743"/><circle cx="460.9829061806628" cy="12.21394693018262" r="1.8973667849547617" fill="#fff" opacity="0.5169972797196818"/><circle cx="353.6307599473816" cy="175.32272852196422" r="1.7278979161586374" fill="#fff" opacity="0.7511121081540155"/><circle cx="647.639788689008" cy="239.94300879164206" r="0.6793835723491812" fill="#fff" opacity="0.48986592821075253"/><circle cx="32.55895570678612" cy="116.02684645075976" r="1.8283030516068224" fill="#fff" opacity="0.656731137879363"/><circle cx="984.8617384640645" cy="279.58208518651827" r="0.860515526579813" fill="#fff" opacity="0.2533171250143361"/><circle cx="1647.1237496396348" cy="276.0237825186979" r="1.8876164840505496" fill="#fff" opacity="0.5991777598855965"/><circle cx="57.025426192447874" cy="140.34961645965222" r="0.8361602305286006" fill="#fff" opacity="0.6760570956105498"/><circle cx="362.79775419337625" cy="84.95047366361844" r="0.6380508672767438" fill="#fff" opacity="0.7793720640659734"/><circle cx="117.77590203047168" cy="401.7290149186107" r="1.5614979209055888" fill="#fff" opacity="0.6457151667321368"/><circle cx="765.8364081675737" cy="72.9001661597053" r="0.7877735434537226" fill="#fff" opacity="0.6890294838438344"/><circle cx="1741.8937231185598" cy="191.68231098346467" r="1.338552121501079" fill="#fff" opacity="0.653475247801625"/><circle cx="1497.282890430019" cy="191.2852980492835" r="1.9201374361105583" fill="#fff" opacity="0.3992405351715257"/><circle cx="981.4556405743248" cy="339.0101863152837" r="0.9656899914764078" fill="#fff" opacity="0.5084646724417025"/><circle cx="807.1505469472963" cy="329.379555186578" r="0.8856268207043472" fill="#fff" opacity="0.3908406630137099"/><circle cx="752.4975887202885" cy="398.25824768428186" r="0.8733405819799147" fill="#fff" opacity="0.6477851980011411"/><circle cx="306.0883346912657" cy="215.27678731625824" r="1.4040470154499745" fill="#fff" opacity="0.2359430680600794"/><circle cx="15.454452488444387" cy="69.84420476244861" r="0.524799804791063" fill="#fff" opacity="0.3432095713315554"/><circle cx="144.66217610627928" cy="69.24723475548608" r="1.178433292936169" fill="#fff" opacity="0.4790891211198385"/><rect x="20.828598053387505" y="504.61398962759733" width="44.32950726112572" height="339.2075666317734" fill="#00a1df" opacity="0.6985479858700531" rx="2"/><rect x="37.74317393841761" y="514.6139896275973" width="10.500355491065502" height="6.666558284467682" fill="#fee440" opacity="0.44426342773816163" rx="1"/><rect x="26.660797123136184" y="517.9472687698312" width="10.500355491065502" height="6.666558284467682" fill="#f15bb5" opacity="0.22213171386908082" rx="1"/><rect x="37.53872506519284" y="599.4158812855406" width="10.909253237515049" height="9.530593830982827" fill="#fee440" opacity="0.1164446084565587" rx="1"/><rect x="26.456348249911414" y="604.181178201032" width="10.909253237515049" height="9.530593830982827" fill="#f15bb5" opacity="0.05822230422827935" rx="1"/><rect x="40.917190167102305" y="684.2177729434841" width="4.152323033696116" height="7.77073082834732" fill="#fee440" opacity="0.45662136118780383" rx="1"/><rect x="29.83481335182088" y="688.1031383576577" width="4.152323033696116" height="7.77073082834732" fill="#f15bb5" opacity="0.22831068059390192" rx="1"/><rect x="37.287529537521195" y="769.0196646014274" width="11.411644292858346" height="9.960035400455826" fill="#fee440" opacity="0.17286543738396498" rx="1"/><rect x="26.205152722239763" y="773.9996823016553" width="11.411644292858346" height="9.960035400455826" fill="#f15bb5" opacity="0.08643271869198249" rx="1"/><rect x="92.86493218297274" y="476.9862364574769" width="71.33297460650397" height="366.83531980189383" fill="#00a1df" opacity="0.44839960107309734" rx="2"/><rect x="124.08266569751862" y="486.9862364574769" width="8.897507577412181" height="7.637420559683214" fill="#fee440" opacity="0.5928791305266505" rx="1"/><rect x="106.24942204589264" y="490.80494673731846" width="8.897507577412181" height="7.637420559683214" fill="#f15bb5" opacity="0.29643956526332527" rx="1"/><rect x="124.27644547995581" y="609.2646763914415" width="8.509948012537777" height="7.152639429353327" fill="#fee440" opacity="0.5802421749290643" rx="1"/><rect x="106.44320182832985" y="612.8409961061182" width="8.509948012537777" height="7.152639429353327" fill="#f15bb5" opacity="0.29012108746453213" rx="1"/><rect x="123.61422674704228" y="731.5431163254061" width="9.834385478364858" height="9.614348836153361" fill="#fee440" opacity="0.38794146242736405" rx="1"/><rect x="105.7809830954163" y="736.3502907434828" width="9.834385478364858" height="9.614348836153361" fill="#f15bb5" opacity="0.19397073121368202" rx="1"/><rect x="182.10854608068016" y="513.5382200972033" width="37.17555885370252" height="330.2833361621674" fill="#00bbf9" opacity="0.40760820217142074" rx="2"/><rect x="197.86434402255946" y="523.5382200972033" width="5.6639629699438725" height="9.629471042107202" fill="#fee440" opacity="0.1961995346229988" rx="1"/><rect x="188.57045430913385" y="528.3529556182569" width="5.6639629699438725" height="9.629471042107202" fill="#f15bb5" opacity="0.0980997673114994" rx="1"/><rect x="195.08376451362983" y="564.8236371174742" width="11.225121987803169" height="9.62329722559622" fill="#fee440" opacity="0.29627244518983004" rx="1"/><rect x="185.78987480020422" y="569.6352857302722" width="11.225121987803169" height="9.62329722559622" fill="#f15bb5" opacity="0.14813622259491502" rx="1"/><rect x="196.79813177891072" y="606.1090541377451" width="7.796387457241394" height="9.53662547737747" fill="#fee440" opacity="0.11317135815349673" rx="1"/><rect x="187.5042420654851" y="610.8773668764338" width="7.796387457241394" height="9.53662547737747" fill="#f15bb5" opacity="0.056585679076748364" rx="1"/><rect x="196.27793247620568" y="647.3944711580161" width="8.836786062651496" height="8.118367054992905" fill="#fee440" opacity="0.18145451140158217" rx="1"/><rect x="186.98404276278006" y="651.4536546855126" width="8.836786062651496" height="8.118367054992905" fill="#f15bb5" opacity="0.09072725570079108" rx="1"/><rect x="196.6159710400127" y="688.679888178287" width="8.16070893503742" height="8.639822562839795" fill="#fee440" opacity="0.35326626742101885" rx="1"/><rect x="187.3220813265871" y="692.9997994597069" width="8.16070893503742" height="8.639822562839795" fill="#f15bb5" opacity="0.17663313371050943" rx="1"/><rect x="195.27762130619942" y="729.9653051985579" width="10.837408402663984" height="6.168262598143952" fill="#fee440" opacity="0.5155335388880999" rx="1"/><rect x="185.9837315927738" y="733.0494364976298" width="10.837408402663984" height="6.168262598143952" fill="#f15bb5" opacity="0.25776676944404997" rx="1"/><rect x="195.1387301521982" y="771.2507222188289" width="11.1151907106664" height="9.577665249718741" fill="#fee440" opacity="0.2988887507931536" rx="1"/><rect x="185.8448404387726" y="776.0395548436883" width="11.1151907106664" height="9.577665249718741" fill="#f15bb5" opacity="0.1494443753965768" rx="1"/><rect x="197.65951344770872" y="812.5361392390998" width="6.073624119645363" height="6.1647833930712155" fill="#fee440" opacity="0.59275160499214" rx="1"/><rect x="188.3656237342831" y="815.6185309356355" width="6.073624119645363" height="6.1647833930712155" fill="#f15bb5" opacity="0.29637580249607" rx="1"/><rect x="256.02497167205615" y="640.3420689958944" width="36.54195084388879" height="203.47948726347636" fill="#00a1df" opacity="0.6986706796797623" rx="2"/><rect x="269.73287744622576" y="650.3420689958944" width="9.126139295549631" height="7.897479771146895" fill="#fee440" opacity="0.19971012410235361" rx="1"/><rect x="260.59738973525356" y="654.2908088814678" width="9.126139295549631" height="7.897479771146895" fill="#f15bb5" opacity="0.09985506205117681" rx="1"/><rect x="270.1860835058542" y="684.2553168731404" width="8.219727176292736" height="8.153825661668979" fill="#fee440" opacity="0.4804903704161966" rx="1"/><rect x="261.050595794882" y="688.3322297039749" width="8.219727176292736" height="8.153825661668979" fill="#f15bb5" opacity="0.2402451852080983" rx="1"/><rect x="270.4875568180043" y="718.1685647503865" width="7.616780551992539" height="9.121177086402005" fill="#fee440" opacity="0.10087205949259738" rx="1"/><rect x="261.3520691070321" y="722.7291532935875" width="7.616780551992539" height="9.121177086402005" fill="#f15bb5" opacity="0.05043602974629869" rx="1"/><rect x="270.84152621511004" y="752.0818126276325" width="6.908841757781069" height="8.523331282316551" fill="#fee440" opacity="0.5199707156326554" rx="1"/><rect x="261.70603850413784" y="756.3434782687908" width="6.908841757781069" height="8.523331282316551" fill="#f15bb5" opacity="0.2599853578163277" rx="1"/><rect x="270.56238518383935" y="785.9950605048786" width="7.467123820322362" height="8.361729794731767" fill="#fee440" opacity="0.30320884957984295" rx="1"/><rect x="261.42689747286715" y="790.1759254022444" width="7.467123820322362" height="8.361729794731767" fill="#f15bb5" opacity="0.15160442478992148" rx="1"/><rect x="268.86932032710223" y="819.9083083821247" width="10.8532535337967" height="7.182638947195988" fill="#fee440" opacity="0.5355071424356446" rx="1"/><rect x="259.73383261613003" y="823.4996278557227" width="10.8532535337967" height="7.182638947195988" fill="#f15bb5" opacity="0.2677535712178223" rx="1"/><rect x="354.6695723216313" y="486.84875972961277" width="36.8853764019174" height="356.97279652975794" fill="#00a1df" opacity="0.41149262944503984" rx="2"/><rect x="367.9527710131361" y="496.84875972961277" width="10.318979018907756" height="9.573504495335161" fill="#fee440" opacity="0.3265703444663832" rx="1"/><rect x="358.7314269126568" y="501.6355119772804" width="10.318979018907756" height="9.573504495335161" fill="#f15bb5" opacity="0.1632851722331916" rx="1"/><rect x="367.6265806373372" y="568.2433190355644" width="10.97135977050554" height="6.836587570802445" fill="#fee440" opacity="0.47121528093032894" rx="1"/><rect x="358.4052365368579" y="571.6616128209656" width="10.97135977050554" height="6.836587570802445" fill="#f15bb5" opacity="0.23560764046516447" rx="1"/><rect x="368.92550144786225" y="639.637878341516" width="8.373518149455432" height="7.595737470685443" fill="#fee440" opacity="0.5353816079523838" rx="1"/><rect x="359.70415734738293" y="643.4357470768587" width="8.373518149455432" height="7.595737470685443" fill="#f15bb5" opacity="0.2676908039761919" rx="1"/><rect x="368.34035586993764" y="711.0324376474675" width="9.543809305304617" height="7.590711997260971" fill="#fee440" opacity="0.26081156922988863" rx="1"/><rect x="359.1190117694583" y="714.827793646098" width="9.543809305304617" height="7.590711997260971" fill="#f15bb5" opacity="0.13040578461494431" rx="1"/><rect x="368.3764339271979" y="782.4269969534191" width="9.471653190784075" height="7.7298294803429926" fill="#fee440" opacity="0.5502270672121614" rx="1"/><rect x="359.1550898267186" y="786.2919116935906" width="9.471653190784075" height="7.7298294803429926" fill="#f15bb5" opacity="0.2751135336060807" rx="1"/><rect x="425.7031393230444" y="540.9207086523344" width="74.10196572637696" height="302.9008476070363" fill="#00bbf9" opacity="0.4030611003057708" rx="2"/><rect x="457.8241100516469" y="550.9207086523344" width="9.860024269171996" height="6.8943376170690955" fill="#fee440" opacity="0.536202531782026" rx="1"/><rect x="439.29861862005265" y="554.367877460869" width="9.860024269171996" height="6.8943376170690955" fill="#f15bb5" opacity="0.268101265891013" rx="1"/><rect x="457.2548907761367" y="588.783314603214" width="10.99846282019244" height="7.606349657663691" fill="#fee440" opacity="0.4523720729519548" rx="1"/><rect x="438.7293993445424" y="592.5864894320458" width="10.99846282019244" height="7.606349657663691" fill="#f15bb5" opacity="0.2261860364759774" rx="1"/><rect x="458.36463087626475" y="626.6459205540934" width="8.778982619936341" height="9.01757227885946" fill="#fee440" opacity="0.5274309630103947" rx="1"/><rect x="439.8391394446705" y="631.1547066935232" width="8.778982619936341" height="9.01757227885946" fill="#f15bb5" opacity="0.26371548150519736" rx="1"/><rect x="457.7052933936961" y="664.508526504973" width="10.097657585073648" height="7.845587118958493" fill="#fee440" opacity="0.4596002193772235" rx="1"/><rect x="439.1798019621018" y="668.4313200644523" width="10.097657585073648" height="7.845587118958493" fill="#f15bb5" opacity="0.22980010968861175" rx="1"/><rect x="459.21333497052956" y="702.3711324558526" width="7.0815744314067" height="8.329544764554488" fill="#fee440" opacity="0.13926055006199994" rx="1"/><rect x="440.6878435389353" y="706.5359048381298" width="7.0815744314067" height="8.329544764554488" fill="#f15bb5" opacity="0.06963027503099997" rx="1"/><rect x="458.50788652356994" y="740.2337384067321" width="8.492471325325889" height="9.032650990186411" fill="#fee440" opacity="0.2875307232112463" rx="1"/><rect x="439.98239509197566" y="744.7500639018252" width="8.492471325325889" height="9.032650990186411" fill="#f15bb5" opacity="0.14376536160562314" rx="1"/><rect x="458.2870883607751" y="778.0963443576117" width="8.934067650915605" height="7.1761916915830675" fill="#fee440" opacity="0.24379486782564663" rx="1"/><rect x="439.7615969291808" y="781.6844402034031" width="8.934067650915605" height="7.1761916915830675" fill="#f15bb5" opacity="0.12189743391282332" rx="1"/><rect x="459.4790976219306" y="815.9589503084912" width="6.5500491286045985" height="8.253334130685156" fill="#fee440" opacity="0.5708654064384442" rx="1"/><rect x="440.95360619033636" y="820.0856173738338" width="6.5500491286045985" height="8.253334130685156" fill="#f15bb5" opacity="0.2854327032192221" rx="1"/><rect x="507.2726257603704" y="664.6111561950787" width="35.53351254796924" height="179.210400064292" fill="#00bbf9" opacity="0.44868405464773164" rx="2"/><rect x="521.0523399998475" y="674.6111561950787" width="7.974084069015012" height="7.598281613923209" fill="#fee440" opacity="0.14303506366979216" rx="1"/><rect x="512.1689618628552" y="678.4102970020404" width="7.974084069015012" height="7.598281613923209" fill="#f15bb5" opacity="0.07151753183489608" rx="1"/><rect x="521.2707952521359" y="704.4795562057941" width="7.53717356443805" height="6.80028285849846" fill="#fee440" opacity="0.498871056479139" rx="1"/><rect x="512.3874171151436" y="707.8796976350433" width="7.53717356443805" height="6.80028285849846" fill="#f15bb5" opacity="0.2494355282395695" rx="1"/><rect x="523.019164206829" y="734.3479562165094" width="4.040435655051944" height="8.616127968443587" fill="#fee440" opacity="0.34579569877725924" rx="1"/><rect x="514.1357860698367" y="738.6560202007312" width="4.040435655051944" height="8.616127968443587" fill="#f15bb5" opacity="0.17289784938862962" rx="1"/><rect x="522.8758800750228" y="764.2163562272247" width="4.327003918664298" height="6.741734452718341" fill="#fee440" opacity="0.5268661863000287" rx="1"/><rect x="513.9925019380305" y="767.5872234535839" width="4.327003918664298" height="6.741734452718341" fill="#f15bb5" opacity="0.26343309315001434" rx="1"/><rect x="519.4258343814851" y="794.08475623794" width="11.227095305739692" height="7.914759331828626" fill="#fee440" opacity="0.21924935507570611" rx="1"/><rect x="510.5424562444928" y="798.0421359038544" width="11.227095305739692" height="7.914759331828626" fill="#f15bb5" opacity="0.10962467753785306" rx="1"/><rect x="521.7024541935575" y="823.9531562486554" width="6.673855681594893" height="9.835195288023725" fill="#fee440" opacity="0.49137379112452595" rx="1"/><rect x="512.8190760565652" y="828.8707538926673" width="6.673855681594893" height="9.835195288023725" fill="#f15bb5" opacity="0.24568689556226297" rx="1"/><rect x="602.3161250446323" y="594.1746856654469" width="79.41491494640124" height="249.64687059392384" fill="#00bbf9" opacity="0.4746712191669902" rx="2"/><rect x="637.8335369975911" y="604.1746856654469" width="8.380091040483698" height="7.027210445382448" fill="#fee440" opacity="0.22990188217486765" rx="1"/><rect x="617.9798082609907" y="607.6882908881381" width="8.380091040483698" height="7.027210445382448" fill="#f15bb5" opacity="0.11495094108743382" rx="1"/><rect x="637.4535382837709" y="654.1040597842316" width="9.14008846812418" height="9.941662893616982" fill="#fee440" opacity="0.2725319875805946" rx="1"/><rect x="617.5998095471705" y="659.07489123104" width="9.14008846812418" height="9.941662893616982" fill="#f15bb5" opacity="0.1362659937902973" rx="1"/><rect x="638.5138648574566" y="704.0334339030164" width="7.0194353207525415" height="9.156414242264912" fill="#fee440" opacity="0.4604038210726352" rx="1"/><rect x="618.6601361208562" y="708.6116410241489" width="7.0194353207525415" height="9.156414242264912" fill="#f15bb5" opacity="0.2302019105363176" rx="1"/><rect x="636.5099709777478" y="753.9628080218012" width="11.02722308017016" height="9.15655242259534" fill="#fee440" opacity="0.19018458544513783" rx="1"/><rect x="616.6562422411474" y="758.5410842330988" width="11.02722308017016" height="9.15655242259534" fill="#f15bb5" opacity="0.09509229272256892" rx="1"/><rect x="638.3337694111186" y="803.8921821405859" width="7.379626213428477" height="9.598142923693672" fill="#fee440" opacity="0.5570535771681586" rx="1"/><rect x="618.4800406745182" y="808.6912536024327" width="7.379626213428477" height="9.598142923693672" fill="#f15bb5" opacity="0.2785267885840793" rx="1"/><rect x="676.5242526290499" y="590.518233585292" width="76.67075553598599" height="253.30332267407871" fill="#00a1df" opacity="0.4052736411116258" rx="2"/><rect x="712.4667253302302" y="600.518233585292" width="4.785810133625243" height="7.914894275813106" fill="#fee440" opacity="0.4404338199972254" rx="1"/><rect x="693.2990364462337" y="604.4756807231986" width="4.785810133625243" height="7.914894275813106" fill="#f15bb5" opacity="0.2202169099986127" rx="1"/><rect x="712.4249692180921" y="651.1788981201078" width="4.86932235790168" height="8.096489125419522" fill="#fee440" opacity="0.3291627645560454" rx="1"/><rect x="693.2572803340955" y="655.2271426828175" width="4.86932235790168" height="8.096489125419522" fill="#f15bb5" opacity="0.1645813822780227" rx="1"/><rect x="710.6955596198753" y="701.8395626549235" width="8.328141554335165" height="7.941659043063796" fill="#fee440" opacity="0.5007092988818673" rx="1"/><rect x="691.5278707358788" y="705.8103921764554" width="8.328141554335165" height="7.941659043063796" fill="#f15bb5" opacity="0.25035464944093366" rx="1"/><rect x="710.186745647172" y="752.5002271897392" width="9.345769499741905" height="9.887786317590574" fill="#fee440" opacity="0.33982148203994644" rx="1"/><rect x="691.0190567631754" y="757.4441203485345" width="9.345769499741905" height="9.887786317590574" fill="#f15bb5" opacity="0.16991074101997322" rx="1"/><rect x="710.4766509354962" y="803.160891724555" width="8.7659589230935" height="6.53942970385296" fill="#fee440" opacity="0.4391910153066718" rx="1"/><rect x="691.3089620514996" y="806.4306065764814" width="8.7659589230935" height="6.53942970385296" fill="#f15bb5" opacity="0.2195955076533359" rx="1"/><rect x="765.8407846768827" y="748.0726259290409" width="88.55082491844679" height="95.74893033032978" fill="#00a1df" opacity="0.5760755096739334" rx="2"/><rect x="805.5749079782802" y="758.0726259290409" width="9.082578315651645" height="6.798779899440421" fill="#fee440" opacity="0.5532789440018309" rx="1"/><rect x="783.4372017486685" y="761.4720158787611" width="9.082578315651645" height="6.798779899440421" fill="#f15bb5" opacity="0.27663947200091543" rx="1"/><rect x="804.9610836264466" y="782.0098585116233" width="10.310227019318898" height="9.16054454146897" fill="#fee440" opacity="0.1258391602024993" rx="1"/><rect x="782.8233773968349" y="786.5901307823577" width="10.310227019318898" height="9.16054454146897" fill="#f15bb5" opacity="0.06291958010124965" rx="1"/><rect x="806.8032159614729" y="805.9470910942058" width="6.6259623492662705" height="8.85434784992932" fill="#fee440" opacity="0.441102996105585" rx="1"/><rect x="784.6655097318612" y="810.3742650191705" width="6.6259623492662705" height="8.85434784992932" fill="#f15bb5" opacity="0.2205514980527925" rx="1"/><rect x="805.1503718934251" y="829.8843236767882" width="9.931650485361846" height="7.122399944142066" fill="#fee440" opacity="0.4419618224357166" rx="1"/><rect x="783.0126656638134" y="833.4455236488592" width="9.931650485361846" height="7.122399944142066" fill="#f15bb5" opacity="0.2209809112178583" rx="1"/><rect x="844.5162382948037" y="465.99065498821216" width="77.01519422862101" height="377.83090127115855" fill="#00a1df" opacity="0.4377588322008399" rx="2"/><rect x="879.8710338709595" y="475.99065498821216" width="6.305603076309339" height="9.003657057649376" fill="#fee440" opacity="0.5472393804339784" rx="1"/><rect x="860.6172353138043" y="480.4924835170368" width="6.305603076309339" height="9.003657057649376" fill="#f15bb5" opacity="0.2736196902169892" rx="1"/><rect x="878.9291426978394" y="551.5568352424439" width="8.189385422549533" height="8.584693947477428" fill="#fee440" opacity="0.559363668099829" rx="1"/><rect x="859.6753441406842" y="555.8491822161826" width="8.189385422549533" height="8.584693947477428" fill="#f15bb5" opacity="0.2796818340499145" rx="1"/><rect x="878.8747359859951" y="627.1230154966756" width="8.298198846238247" height="8.960775844510826" fill="#fee440" opacity="0.16784464269127805" rx="1"/><rect x="859.6209374288399" y="631.6034034189311" width="8.298198846238247" height="8.960775844510826" fill="#f15bb5" opacity="0.08392232134563903" rx="1"/><rect x="879.4279672701463" y="702.6891957509073" width="7.191736277935965" height="6.0287766549803266" fill="#fee440" opacity="0.46757621806291305" rx="1"/><rect x="860.174168712991" y="705.7035840783974" width="7.191736277935965" height="6.0287766549803266" fill="#f15bb5" opacity="0.23378810903145653" rx="1"/><rect x="878.4315711753536" y="778.2553760051389" width="9.184528467521194" height="9.474226047162485" fill="#fee440" opacity="0.41631336484949877" rx="1"/><rect x="859.1777726181983" y="782.9924890287202" width="9.184528467521194" height="9.474226047162485" fill="#f15bb5" opacity="0.20815668242474938" rx="1"/><rect x="926.7473330901975" y="543.0314908486398" width="86.66447772101138" height="300.7900654107309" fill="#00bbf9" opacity="0.6646750104764185" rx="2"/><rect x="966.4353413815388" y="553.0314908486398" width="7.288461138328644" height="6.594255197931606" fill="#fee440" opacity="0.3565756068231015" rx="1"/><rect x="944.769221951286" y="556.3286184476057" width="7.288461138328644" height="6.594255197931606" fill="#f15bb5" opacity="0.17828780341155076" rx="1"/><rect x="967.8755692201072" y="596.00150019303" width="4.40800546119176" height="6.116761164766913" fill="#fee440" opacity="0.44463758867807635" rx="1"/><rect x="946.2094497898544" y="599.0598807754135" width="4.40800546119176" height="6.116761164766913" fill="#f15bb5" opacity="0.22231879433903817" rx="1"/><rect x="966.742273166918" y="638.97150953742" width="6.6745975675700695" height="8.84396525259222" fill="#fee440" opacity="0.31216342917461026" rx="1"/><rect x="945.0761537366652" y="643.3934921637161" width="6.6745975675700695" height="8.84396525259222" fill="#f15bb5" opacity="0.15608171458730513" rx="1"/><rect x="965.3863639652858" y="681.9415188818102" width="9.386415970834534" height="6.24616140691707" fill="#fee440" opacity="0.11013799675510684" rx="1"/><rect x="943.720244535033" y="685.0645995852688" width="9.386415970834534" height="6.24616140691707" fill="#f15bb5" opacity="0.05506899837755342" rx="1"/><rect x="965.7702666576113" y="724.9115282262003" width="8.618610586183753" height="8.349674899678135" fill="#fee440" opacity="0.3815508639396985" rx="1"/><rect x="944.1041472273585" y="729.0863656760393" width="8.618610586183753" height="8.349674899678135" fill="#f15bb5" opacity="0.19077543196984925" rx="1"/><rect x="966.807652929024" y="767.8815375705905" width="6.543838043358139" height="6.91400140452059" fill="#fee440" opacity="0.4014201798479585" rx="1"/><rect x="945.1415334987712" y="771.3385382728508" width="6.543838043358139" height="6.91400140452059" fill="#f15bb5" opacity="0.20071008992397926" rx="1"/><rect x="964.6469189223172" y="810.8515469149806" width="10.865306056771733" height="6.68466039856073" fill="#fee440" opacity="0.5299480690224907" rx="1"/><rect x="942.9807994920644" y="814.193877114261" width="10.865306056771733" height="6.68466039856073" fill="#f15bb5" opacity="0.26497403451124535" rx="1"/><rect x="1013.7505234947616" y="724.2373879938939" width="83.21445470517838" height="119.58416826547688" fill="#00a1df" opacity="0.5239398969625915" rx="2"/><rect x="1052.5721335813178" y="734.2373879938939" width="5.571234532066443" height="6.393018750565364" fill="#fee440" opacity="0.20161526794582962" rx="1"/><rect x="1031.7685199050231" y="737.4338973691765" width="5.571234532066443" height="6.393018750565364" fill="#f15bb5" opacity="0.10080763397291481" rx="1"/><rect x="1053.220337379107" y="774.0987774157195" width="4.2748269364877665" height="8.841091539440932" fill="#fee440" opacity="0.257182963252343" rx="1"/><rect x="1032.4167237028123" y="778.5193231854399" width="4.2748269364877665" height="8.841091539440932" fill="#f15bb5" opacity="0.1285914816261715" rx="1"/><rect x="1052.5979975351897" y="813.9601668375451" width="5.51950662432227" height="6.117000124444487" fill="#fee440" opacity="0.27662122907969666" rx="1"/><rect x="1031.7943838588951" y="817.0186668997674" width="5.51950662432227" height="6.117000124444487" fill="#f15bb5" opacity="0.13831061453984833" rx="1"/><rect x="1109.6062271080439" y="569.7521434910018" width="85.28521457111584" height="274.0694127683689" fill="#00bbf9" opacity="0.6400321320258155" rx="2"/><rect x="1149.0576747873445" y="579.7521434910018" width="6.382319212514515" height="8.198356913914521" fill="#fee440" opacity="0.5765336121145016" rx="1"/><rect x="1127.7363711445655" y="583.851321947959" width="6.382319212514515" height="8.198356913914521" fill="#f15bb5" opacity="0.2882668060572508" rx="1"/><rect x="1148.452049944746" y="614.0108200870479" width="7.593568897711478" height="7.609661936203405" fill="#fee440" opacity="0.1855723015464778" rx="1"/><rect x="1127.130746301967" y="617.8156510551496" width="7.593568897711478" height="7.609661936203405" fill="#f15bb5" opacity="0.0927861507732389" rx="1"/><rect x="1147.7605769913996" y="648.2694966830941" width="8.97651480440435" height="6.477978657111055" fill="#fee440" opacity="0.5673365404520502" rx="1"/><rect x="1126.4392733486206" y="651.5084860116496" width="8.97651480440435" height="6.477978657111055" fill="#f15bb5" opacity="0.2836682702260251" rx="1"/><rect x="1146.4822263612582" y="682.5281732791401" width="11.53321606468717" height="8.416338046643961" fill="#fee440" opacity="0.3578559982957914" rx="1"/><rect x="1125.1609227184792" y="686.736342302462" width="11.53321606468717" height="8.416338046643961" fill="#f15bb5" opacity="0.1789279991478957" rx="1"/><rect x="1147.3209848291501" y="716.7868498751862" width="9.855699128903378" height="6.121241766987658" fill="#fee440" opacity="0.28784309206247405" rx="1"/><rect x="1125.9996811863712" y="719.8474707586801" width="9.855699128903378" height="6.121241766987658" fill="#f15bb5" opacity="0.14392154603123702" rx="1"/><rect x="1147.7333289105734" y="751.0455264712324" width="9.031010966056726" height="9.663741023201435" fill="#fee440" opacity="0.4119314597714533" rx="1"/><rect x="1126.4120252677944" y="755.8773969828331" width="9.031010966056726" height="9.663741023201435" fill="#f15bb5" opacity="0.20596572988572664" rx="1"/><rect x="1147.2153075215422" y="785.3042030672784" width="10.067053744119372" height="7.088646752081962" fill="#fee440" opacity="0.3990049229234003" rx="1"/><rect x="1125.8940038787632" y="788.8485264433194" width="10.067053744119372" height="7.088646752081962" fill="#f15bb5" opacity="0.19950246146170014" rx="1"/><rect x="1149.1539206443226" y="819.5628796633246" width="6.189827498558403" height="8.976170950330834" fill="#fee440" opacity="0.5316583479362675" rx="1"/><rect x="1127.8326170015437" y="824.05096513849" width="6.189827498558403" height="8.976170950330834" fill="#f15bb5" opacity="0.26582917396813377" rx="1"/><rect x="1187.9557905005308" y="699.8112412518382" width="68.83468593443621" height="144.01031500753254" fill="#00bbf9" opacity="0.5025601842912287" rx="2"/><rect x="1217.448196695675" y="709.8112412518382" width="9.849873544147673" height="8.224633329134582" fill="#fee440" opacity="0.34436598043990463" rx="1"/><rect x="1200.2395252120662" y="713.9235579164055" width="9.849873544147673" height="8.224633329134582" fill="#f15bb5" opacity="0.17218299021995231" rx="1"/><rect x="1219.5815603817423" y="745.8138200037213" width="5.583146172012935" height="7.216748105645354" fill="#fee440" opacity="0.3443845867515506" rx="1"/><rect x="1202.3728888981334" y="749.422194056544" width="5.583146172012935" height="7.216748105645354" fill="#f15bb5" opacity="0.1721922933757753" rx="1"/><rect x="1217.2220150786156" y="781.8163987556045" width="10.302236778266318" height="9.61045922050496" fill="#fee440" opacity="0.5365417405349533" rx="1"/><rect x="1200.0133435950067" y="786.621628365857" width="10.302236778266318" height="9.61045922050496" fill="#f15bb5" opacity="0.26827087026747665" rx="1"/><rect x="1218.879372359144" y="817.8189775074876" width="6.98752221720934" height="6.138495772177935" fill="#fee440" opacity="0.38456712532429194" rx="1"/><rect x="1201.6707008755352" y="820.8882253935766" width="6.98752221720934" height="6.138495772177935" fill="#f15bb5" opacity="0.19228356266214597" rx="1"/><rect x="1261.395477670084" y="524.3866991657733" width="87.2882611344774" height="319.4348570935975" fill="#00a1df" opacity="0.6612424564923258" rx="2"/><rect x="1301.5956289671615" y="534.3866991657733" width="6.887958540322249" height="7.14797064688708" fill="#fee440" opacity="0.3225672774302232" rx="1"/><rect x="1279.773563683542" y="537.9606844892169" width="6.887958540322249" height="7.14797064688708" fill="#f15bb5" opacity="0.1612836387151116" rx="1"/><rect x="1299.3168906216115" y="598.2736705844927" width="11.445435231422408" height="8.074843799247137" fill="#fee440" opacity="0.27743547276534036" rx="1"/><rect x="1277.494825337992" y="602.3110924841163" width="11.445435231422408" height="8.074843799247137" fill="#f15bb5" opacity="0.13871773638267018" rx="1"/><rect x="1301.63156850509" y="662.1606420032123" width="6.816079464465398" height="8.457970975539174" fill="#fee440" opacity="0.2175049580907228" rx="1"/><rect x="1279.8095032214705" y="666.3896274909819" width="6.816079464465398" height="8.457970975539174" fill="#f15bb5" opacity="0.1087524790453614" rx="1"/><rect x="1302.028079816825" y="726.0476134219318" width="6.023056840995107" height="9.987374716435413" fill="#fee440" opacity="0.30052370142669504" rx="1"/><rect x="1280.2060145332057" y="731.0413007801495" width="6.023056840995107" height="9.987374716435413" fill="#f15bb5" opacity="0.15026185071334752" rx="1"/><rect x="1301.4579345701195" y="789.9345848406513" width="7.163347334406186" height="9.838202047124087" fill="#fee440" opacity="0.3708559296491686" rx="1"/><rect x="1279.6358692865" y="794.8536858642133" width="7.163347334406186" height="9.838202047124087" fill="#f15bb5" opacity="0.1854279648245843" rx="1"/><rect x="1336.8787257510826" y="709.9418078688768" width="71.57872783056897" height="133.87974839049386" fill="#00bbf9" opacity="0.5688298579232837" rx="2"/><rect x="1368.787384441579" y="719.9418078688768" width="7.761410449575961" height="9.504102936830396" fill="#fee440" opacity="0.4478868404281994" rx="1"/><rect x="1350.8927024839368" y="724.693859337292" width="7.761410449575961" height="9.504102936830396" fill="#f15bb5" opacity="0.2239434202140997" rx="1"/><rect x="1369.2628130583178" y="764.5683906657081" width="6.810553216098471" height="8.146565333508551" fill="#fee440" opacity="0.5456108634931992" rx="1"/><rect x="1351.3681311006756" y="768.6416733324623" width="6.810553216098471" height="8.146565333508551" fill="#f15bb5" opacity="0.2728054317465996" rx="1"/><rect x="1366.9578650975907" y="809.1949734625393" width="11.420449137552746" height="7.098065416584272" fill="#fee440" opacity="0.5095154249597144" rx="1"/><rect x="1349.0631831399485" y="812.7440061708314" width="11.420449137552746" height="7.098065416584272" fill="#f15bb5" opacity="0.2547577124798572" rx="1"/><rect x="1445.3326906440236" y="520.8298278671758" width="73.93799644986586" height="322.9917283921949" fill="#00a1df" opacity="0.4543791668383356" rx="2"/><rect x="1477.4371361813674" y="530.8298278671758" width="9.729105375178417" height="9.557103123412723" fill="#fee440" opacity="0.5253035635746325" rx="1"/><rect x="1458.952637068901" y="535.6083794288821" width="9.729105375178417" height="9.557103123412723" fill="#f15bb5" opacity="0.26265178178731624" rx="1"/><rect x="1477.0898476854254" y="638.4937373312408" width="10.423682367062122" height="6.076108613069194" fill="#fee440" opacity="0.2469254336894782" rx="1"/><rect x="1458.605348572959" y="641.5317916377754" width="10.423682367062122" height="6.076108613069194" fill="#f15bb5" opacity="0.1234627168447391" rx="1"/><rect x="1479.4004786025812" y="746.1576467953057" width="5.80242053275053" height="9.235668887206277" fill="#fee440" opacity="0.179204580997863" rx="1"/><rect x="1460.9159794901148" y="750.7754812389088" width="5.80242053275053" height="9.235668887206277" fill="#f15bb5" opacity="0.0896022904989315" rx="1"/><rect x="1528.551309441041" y="589.449594854249" width="46.958590153827934" height="254.3719614051217" fill="#00bbf9" opacity="0.510465163670123" rx="2"/><rect x="1550.0155567488894" y="599.449594854249" width="4.030095538131449" height="6.720591534096886" fill="#fee440" opacity="0.19591042799779923" rx="1"/><rect x="1538.2759092104322" y="602.8098906212974" width="4.030095538131449" height="6.720591534096886" fill="#f15bb5" opacity="0.09795521399889962" rx="1"/><rect x="1549.7444207322412" y="684.2402486559562" width="4.572367571427573" height="7.5949430525291115" fill="#fee440" opacity="0.5512657718619485" rx="1"/><rect x="1538.004773193784" y="688.0377201822207" width="4.572367571427573" height="7.5949430525291115" fill="#f15bb5" opacity="0.27563288593097424" rx="1"/><rect x="1546.1891565574065" y="769.0309024576634" width="11.682895921096879" height="7.216847042836446" fill="#fee440" opacity="0.5607164915559619" rx="1"/><rect x="1534.4495090189494" y="772.6393259790816" width="11.682895921096879" height="7.216847042836446" fill="#f15bb5" opacity="0.28035824577798096" rx="1"/><rect x="1596.0136165593217" y="694.6126104902039" width="46.53013085865652" height="149.2089457691668" fill="#00a1df" opacity="0.5563383753076984" rx="2"/><rect x="1614.626316159168" y="704.6126104902039" width="9.304731658963657" height="8.567182982938174" fill="#fee440" opacity="0.10785080529932185" rx="1"/><rect x="1602.993783444504" y="708.896201981673" width="9.304731658963657" height="8.567182982938174" fill="#f15bb5" opacity="0.053925402649660927" rx="1"/><rect x="1615.8378249336488" y="754.3489257465928" width="6.881714110002321" height="7.345496982649317" fill="#fee440" opacity="0.2402434802475021" rx="1"/><rect x="1604.2052922189848" y="758.0216742379175" width="6.881714110002321" height="7.345496982649317" fill="#f15bb5" opacity="0.12012174012375106" rx="1"/><rect x="1613.9488537143695" y="804.0852410029818" width="10.659656548560516" height="6.969588493222741" fill="#fee440" opacity="0.5042635591244938" rx="1"/><rect x="1602.3163209997056" y="807.5700352495932" width="10.659656548560516" height="6.969588493222741" fill="#f15bb5" opacity="0.2521317795622469" rx="1"/><rect x="1674.8716307874045" y="465.4061170563581" width="74.81441633422263" height="378.4154392030126" fill="#00a1df" opacity="0.6061953490614415" rx="2"/><rect x="1709.284356171615" y="475.4061170563581" width="5.9889655658018235" height="6.489395123089057" fill="#fee440" opacity="0.4974518809461621" rx="1"/><rect x="1690.5807520880592" y="478.6508146179026" width="5.9889655658018235" height="6.489395123089057" fill="#f15bb5" opacity="0.24872594047308105" rx="1"/><rect x="1709.105245692032" y="529.4654655139313" width="6.347186524967474" height="8.59424554523878" fill="#fee440" opacity="0.35769605400452764" rx="1"/><rect x="1690.4016416084762" y="533.7625882865508" width="6.347186524967474" height="8.59424554523878" fill="#f15bb5" opacity="0.17884802700226382" rx="1"/><rect x="1709.1300755965867" y="583.5248139715045" width="6.297526715858264" height="7.309744989804399" fill="#fee440" opacity="0.19520226369965876" rx="1"/><rect x="1690.426471513031" y="587.1796864664067" width="6.297526715858264" height="7.309744989804399" fill="#f15bb5" opacity="0.09760113184982938" rx="1"/><rect x="1708.1928145979555" y="637.5841624290778" width="8.172048713120644" height="7.782060794015894" fill="#fee440" opacity="0.3149653618025978" rx="1"/><rect x="1689.4892105143997" y="641.4751928260857" width="8.172048713120644" height="7.782060794015894" fill="#f15bb5" opacity="0.1574826809012989" rx="1"/><rect x="1709.518946770983" y="691.643510886651" width="5.519784367065826" height="6.90870526267884" fill="#fee440" opacity="0.10104898610176728" rx="1"/><rect x="1690.8153426874271" y="695.0978635179905" width="5.519784367065826" height="6.90870526267884" fill="#f15bb5" opacity="0.05052449305088364" rx="1"/><rect x="1707.8726941812993" y="745.7028593442242" width="8.812289546432972" height="8.855811907643409" fill="#fee440" opacity="0.22139477897933563" rx="1"/><rect x="1689.1690900977435" y="750.1307652980458" width="8.812289546432972" height="8.855811907643409" fill="#f15bb5" opacity="0.11069738948966781" rx="1"/><rect x="1709.2973713272984" y="799.7622078017974" width="5.962935254434807" height="6.97435391623861" fill="#fee440" opacity="0.24790873803382477" rx="1"/><rect x="1690.5937672437426" y="803.2493847599168" width="5.962935254434807" height="6.97435391623861" fill="#f15bb5" opacity="0.12395436901691238" rx="1"/><rect x="1764.9651792991076" y="528.6095673634227" width="86.75552749930776" height="315.211988895948" fill="#00bbf9" opacity="0.5481464011008261" rx="2"/><rect x="1805.2982325651162" y="538.6095673634227" width="6.089420967290509" height="8.557500320150867" fill="#fee440" opacity="0.4373203962895368" rx="1"/><rect x="1783.6093506902891" y="542.8883175234981" width="6.089420967290509" height="8.557500320150867" fill="#f15bb5" opacity="0.2186601981447684" rx="1"/><rect x="1802.8581673575884" y="578.0110659754162" width="10.96955138234644" height="8.063775886330701" fill="#fee440" opacity="0.21054520509451286" rx="1"/><rect x="1781.1692854827613" y="582.0429539185815" width="10.96955138234644" height="8.063775886330701" fill="#f15bb5" opacity="0.10527260254725643" rx="1"/><rect x="1803.2358120008637" y="617.4125645874096" width="10.21426209579554" height="8.91217710145567" fill="#fee440" opacity="0.3080530593423296" rx="1"/><rect x="1781.5469301260366" y="621.8686531381375" width="10.21426209579554" height="8.91217710145567" fill="#f15bb5" opacity="0.1540265296711648" rx="1"/><rect x="1802.9031081933952" y="656.8140631994032" width="10.87966971073292" height="6.9627220809838555" fill="#fee440" opacity="0.39129776505085123" rx="1"/><rect x="1781.214226318568" y="660.2954242398952" width="10.87966971073292" height="6.9627220809838555" fill="#f15bb5" opacity="0.19564888252542562" rx="1"/><rect x="1806.1036090512252" y="696.2155618113967" width="4.478667995072591" height="8.064063623096809" fill="#fee440" opacity="0.4235097904278686" rx="1"/><rect x="1784.4147271763982" y="700.2475936229451" width="4.478667995072591" height="8.064063623096809" fill="#f15bb5" opacity="0.2117548952139343" rx="1"/><rect x="1805.9871898299236" y="735.6170604233902" width="4.711506437675912" height="9.075672596477826" fill="#fee440" opacity="0.3556409319526611" rx="1"/><rect x="1784.2983079550966" y="740.154896721629" width="4.711506437675912" height="9.075672596477826" fill="#f15bb5" opacity="0.17782046597633056" rx="1"/><rect x="1802.3608102786445" y="775.0185590353838" width="11.964265540233875" height="7.565865101657311" fill="#fee440" opacity="0.5228298888594913" rx="1"/><rect x="1780.6719284038174" y="778.8014915862124" width="11.964265540233875" height="7.565865101657311" fill="#f15bb5" opacity="0.26141494442974567" rx="1"/><rect x="1805.3262521600827" y="814.4200576473772" width="6.033381777357632" height="9.110429143325991" fill="#fee440" opacity="0.16829833985965195" rx="1"/><rect x="1783.6373702852557" y="818.9752722190402" width="6.033381777357632" height="9.110429143325991" fill="#f15bb5" opacity="0.08414916992982598" rx="1"/><rect x="1853.5430831614142" y="668.8748773697006" width="40.25568670831986" height="174.94667888967012" fill="#00a1df" opacity="0.6000221856404148" rx="2"/><rect x="1870.7106767896214" y="678.8748773697006" width="5.920499451905606" height="9.777339493803993" fill="#fee440" opacity="0.15714674982175855" rx="1"/><rect x="1860.6467551125413" y="683.7635471166026" width="5.920499451905606" height="9.777339493803993" fill="#f15bb5" opacity="0.07857337491087928" rx="1"/><rect x="1867.8739859086027" y="700.7432122309093" width="11.59388121394298" height="8.984452399188758" fill="#fee440" opacity="0.4124016227229502" rx="1"/><rect x="1857.8100642315226" y="705.2354384305037" width="11.59388121394298" height="8.984452399188758" fill="#f15bb5" opacity="0.2062008113614751" rx="1"/><rect x="1871.5602804315974" y="722.6115470921181" width="4.221292167953516" height="6.9136836223568965" fill="#fee440" opacity="0.34805201141816844" rx="1"/><rect x="1861.4963587545174" y="726.0683889032966" width="4.221292167953516" height="6.9136836223568965" fill="#f15bb5" opacity="0.17402600570908422" rx="1"/><rect x="1867.9397944581413" y="744.4798819533269" width="11.46226411486563" height="6.794664709082494" fill="#fee440" opacity="0.5631419993152706" rx="1"/><rect x="1857.8758727810612" y="747.8772143078681" width="11.46226411486563" height="6.794664709082494" fill="#f15bb5" opacity="0.2815709996576353" rx="1"/><rect x="1867.7347601387821" y="766.3482168145356" width="11.872332753583866" height="7.809950353067823" fill="#fee440" opacity="0.3492717020793985" rx="1"/><rect x="1857.670838461702" y="770.2531919910695" width="11.872332753583866" height="7.809950353067823" fill="#f15bb5" opacity="0.17463585103969925" rx="1"/><rect x="1871.2697024126558" y="788.2165516757444" width="4.802448205836687" height="7.025193745509068" fill="#fee440" opacity="0.555166595977537" rx="1"/><rect x="1861.2057807355757" y="791.729148548499" width="4.802448205836687" height="7.025193745509068" fill="#f15bb5" opacity="0.2775832979887685" rx="1"/><rect x="1867.7439636351735" y="810.0848865369531" width="11.853925760801399" height="8.961014872174946" fill="#fee440" opacity="0.5331796353061636" rx="1"/><rect x="1857.6800419580934" y="814.5653939730406" width="11.853925760801399" height="8.961014872174946" fill="#f15bb5" opacity="0.2665898176530818" rx="1"/><rect x="1869.2447122540289" y="831.953221398162" width="8.852428523090769" height="8.965929752906302" fill="#fee440" opacity="0.21539904938903615" rx="1"/><rect x="1859.1807905769488" y="836.4361862746151" width="8.852428523090769" height="8.965929752906302" fill="#f15bb5" opacity="0.10769952469451807" rx="1"/><rect x="0" y="1000" width="1920" height="80" fill="#0095d3" opacity="0.8"/><line x1="0" y1="1040" x2="1920" y2="1040" stroke="#fee440" stroke-opacity="0.15" stroke-width="2" stroke-dasharray="30,20"/><rect x="0" y="930" width="1920" height="150" fill="url(#glow19)"/><rect x="0" y="980" width="1920" height="100" fill="#fee440" opacity="0.04"/><rect x="1180.3487409419263" y="1055.7225952008093" width="84.68751227126631" height="2" fill="#f15bb5" opacity="0.026367566661529142" rx="1"/><rect x="1603.5866349198823" y="1015.5690018822366" width="60.869424827599296" height="2" fill="#f15bb5" opacity="0.04838604873707193" rx="1"/><rect x="551.8960088286307" y="1036.874006580765" width="35.06382620778489" height="2" fill="#f15bb5" opacity="0.04136377105055465" rx="1"/><rect x="200.73815752769312" y="1038.336281389542" width="27.69404403578817" height="2" fill="#f15bb5" opacity="0.026048663381032802" rx="1"/><rect x="1673.402137698932" y="1004.874864789861" width="34.47559944691034" height="2" fill="#f15bb5" opacity="0.020480277668796544" rx="1"/><rect x="1424.4456065037393" y="1028.0847061863367" width="101.30284035143043" height="2" fill="#f15bb5" opacity="0.03856250121690391" rx="1"/><rect x="67.33851985711104" y="1017.2805616858603" width="53.631959402382364" height="2" fill="#f15bb5" opacity="0.03376055785775198" rx="1"/><rect x="1678.4100137088471" y="1013.5706003321267" width="71.00744852121161" height="2" fill="#f15bb5" opacity="0.02437269803238397" rx="1"/><rect x="1799.7048555034457" y="1051.7958166570859" width="55.7180722140982" height="2" fill="#f15bb5" opacity="0.04493538072913312" rx="1"/><rect x="1450.263372550314" y="1037.1862722740477" width="65.55928256492115" height="2" fill="#f15bb5" opacity="0.025067174864250044" rx="1"/><rect x="229.33393260215732" y="1022.9480858759368" width="69.81834151545036" height="2" fill="#f15bb5" opacity="0.03419542946251934" rx="1"/><rect x="688.9184118921213" y="1051.1554531266809" width="84.15052268750745" height="2" fill="#f15bb5" opacity="0.05832043009771044" rx="1"/><rect x="760.6684856397725" y="1021.885175211794" width="88.36714860246683" height="2" fill="#f15bb5" opacity="0.03238820267198333" rx="1"/><rect x="1254.4308336019587" y="1024.963470502981" width="62.42806358785091" height="2" fill="#f15bb5" opacity="0.036639800885841206" rx="1"/><rect x="278.73057431511825" y="1009.961740949648" width="74.24629239231494" height="2" fill="#f15bb5" opacity="0.03454973662610858" rx="1"/><rect x="131.21378886774505" y="1026.6400785107724" width="101.96546213747129" height="2" fill="#f15bb5" opacity="0.042476980803179784" rx="1"/><rect x="1181.4086869129465" y="1003.2719911968503" width="52.90446559733349" height="2" fill="#f15bb5" opacity="0.05778876878269687" rx="1"/><rect x="1051.9621765082613" y="1028.3906913056016" width="109.51906454505377" height="2" fill="#f15bb5" opacity="0.03748917621036274" rx="1"/><rect x="1496.3960689810096" y="1007.7319474769132" width="86.12759904612963" height="2" fill="#f15bb5" opacity="0.05360485929846877" rx="1"/><rect x="137.38577980021614" y="1031.8462768178076" width="43.832012252843015" height="2" fill="#f15bb5" opacity="0.04422059468557607" rx="1"/><rect x="210.19405116564457" y="1058.9388749745997" width="66.52357584483073" height="2" fill="#f15bb5" opacity="0.031240314732128828" rx="1"/><rect x="518.0460630073319" y="1010.5563000474489" width="60.91215332525599" height="2" fill="#f15bb5" opacity="0.048796778765692564" rx="1"/><rect x="963.2735294856303" y="1033.6734257064932" width="69.34192736384969" height="2" fill="#f15bb5" opacity="0.056864065368860975" rx="1"/><rect x="259.4679219134776" y="1048.1847970346419" width="80.24598978931223" height="2" fill="#f15bb5" opacity="0.03583243070538911" rx="1"/><rect x="1279.6101127563998" y="1052.3759369208422" width="28.498312022653018" height="2" fill="#f15bb5" opacity="0.05359359174817652" rx="1"/><rect x="1604.4857328395558" y="1048.23817566229" width="114.28700143338344" height="2" fill="#f15bb5" opacity="0.02461899810578185" rx="1"/><rect x="1140.5349319848547" y="1056.6780556218414" width="87.42836846211654" height="2" fill="#f15bb5" opacity="0.03641021826686576" rx="1"/><rect x="1338.2193762199531" y="1041.7604958968611" width="93.63364451416619" height="2" fill="#f15bb5" opacity="0.0568540887992955" rx="1"/><rect x="729.3709522693816" y="1015.0953781407082" width="37.219283365928405" height="2" fill="#f15bb5" opacity="0.03943074156982609" rx="1"/><rect x="1394.9293272464838" y="1033.3724751214897" width="79.00484385411367" height="2" fill="#f15bb5" opacity="0.051955431772385596" rx="1"/><text x="1900" y="1060" font-family="Arial, sans-serif" font-size="11" fill="#fff" opacity="0.08" text-anchor="end" letter-spacing="2">GTA 6 REWARDS · WALLPAPER 020</text>
</svg>