<?xml version="1.0" encoding="UTF-8"?>
<svg xmlns="http://www.w3.org/2000/svg" width="1920" height="1080" viewBox="0 0 1920 1080">
<defs>
    <linearGradient id="bg83" x1="0%" y1="0%" x2="0%" y2="100%">
      <stop offset="0%" stop-color="#073b4c"/>
      <stop offset="50%" stop-color="#000819"/>
      <stop offset="100%" stop-color="#073b4c"/>
    </linearGradient>
    <linearGradient id="sun83" x1="0%" y1="0%" x2="100%" y2="100%">
      <stop offset="0%" stop-color="#06d6a0"/>
      <stop offset="100%" stop-color="#118ab2"/>
    </linearGradient>
    <radialGradient id="glow83" cx="50%" cy="70%" r="50%">
      <stop offset="0%" stop-color="#06d6a0" stop-opacity="0.3"/>
      <stop offset="100%" stop-color="#073b4c" stop-opacity="0"/>
    </radialGradient>
  </defs><rect width="1920" height="1080" fill="url(#bg83)"/><circle cx="609.4150029843242" cy="429.20577363791074" r="775.9273732257838" fill="#06d6a0" opacity="0.11728156687861346"/><circle cx="809.4150029843242" cy="329.20577363791074" r="474.3652898060077" fill="#118ab2" opacity="0.0667301178576262"/><circle cx="459.7848614118492" cy="422.9282151844651" r="74.18967462475172" fill="url(#sun83)" opacity="0.7519872811045467"/><circle cx="459.7848614118492" cy="422.9282151844651" r="69.18967462475172" fill="#073b4c" opacity="0.3"/><pattern id="scan83" width="1920" height="4" patternUnits="userSpaceOnUse">
      <line x1="0" y1="0" x2="1920" y2="0" stroke="#000" stroke-opacity="0.05" stroke-width="1"/>
    </pattern>
    <rect width="1920" height="1080" fill="url(#scan83)"/><rect x="2.2030118182774197" y="618.8787336738033" width="77.39084197380367" height="291.1871225552603" fill="#073b4c" opacity="0.5340701901200391" rx="2"/><rect x="38.09654013418978" y="628.8787336738033" width="5.603785341978955" height="7.976025704754522" fill="#118ab2" opacity="0.515818530580918" rx="1"/><rect x="18.74882964073886" y="632.8667465261805" width="5.603785341978955" height="7.976025704754522" fill="#06d6a0" opacity="0.257909265290459" rx="1"/><rect x="38.55595539686176" y="687.1161581848553" width="4.684954816634989" height="6.802107807435586" fill="#118ab2" opacity="0.3900381556921727" rx="1"/><rect x="19.208244903410844" y="690.517212088573" width="4.684954816634989" height="6.802107807435586" fill="#06d6a0" opacity="0.19501907784608635" rx="1"/><rect x="38.23739735857523" y="745.3535826959073" width="5.322070893208047" height="9.046320919656736" fill="#118ab2" opacity="0.5215196555996127" rx="1"/><rect x="18.889686865124315" y="749.8767431557357" width="5.322070893208047" height="9.046320919656736" fill="#06d6a0" opacity="0.26075982779980633" rx="1"/><rect x="36.037330200205865" y="803.5910072069594" width="9.722205209946774" height="9.804261652707183" fill="#118ab2" opacity="0.1547383694338469" rx="1"/><rect x="16.689619706754954" y="808.493138033313" width="9.722205209946774" height="9.804261652707183" fill="#06d6a0" opacity="0.07736918471692344" rx="1"/><rect x="34.97978839464015" y="861.8284317180115" width="11.837288821078205" height="6.904077312188241" fill="#118ab2" opacity="0.1375674343755393" rx="1"/><rect x="15.632077901189238" y="865.2804703741057" width="11.837288821078205" height="6.904077312188241" fill="#06d6a0" opacity="0.06878371718776966" rx="1"/><rect x="125.96147483819199" y="702.2578799869534" width="33.767103637514424" height="207.80797624211013" fill="#073b4c" opacity="0.5282330752881786" rx="2"/><rect x="137.31364229887575" y="712.2578799869534" width="11.062768716146882" height="7.481272945525421" fill="#118ab2" opacity="0.1718363953223071" rx="1"/><rect x="128.87186638949717" y="715.9985164597161" width="11.062768716146882" height="7.481272945525421" fill="#06d6a0" opacity="0.08591819766115355" rx="1"/><rect x="138.36748676592657" y="764.209874047481" width="8.955079782045232" height="9.952819798130733" fill="#118ab2" opacity="0.1948212939768148" rx="1"/><rect x="129.925710856548" y="769.1862839465464" width="8.955079782045232" height="9.952819798130733" fill="#06d6a0" opacity="0.0974106469884074" rx="1"/><rect x="138.00730853830632" y="816.1618681080084" width="9.675436237285714" height="7.723640478617428" fill="#118ab2" opacity="0.5345949742557935" rx="1"/><rect x="129.56553262892774" y="820.0236883473171" width="9.675436237285714" height="7.723640478617428" fill="#06d6a0" opacity="0.26729748712789675" rx="1"/><rect x="138.74394679762048" y="868.113862168536" width="8.202159718657416" height="6.058549384600145" fill="#118ab2" opacity="0.3088233656736145" rx="1"/><rect x="130.3021708882419" y="871.1431368608361" width="8.202159718657416" height="6.058549384600145" fill="#06d6a0" opacity="0.15441168283680726" rx="1"/><rect x="221.60595481554185" y="745.4894649902101" width="57.60949523365346" height="164.57639123885343" fill="#002132" opacity="0.5438615653533166" rx="2"/><rect x="247.21994419633873" y="755.4894649902101" width="6.381516472059655" height="6.3144377629073425" fill="#118ab2" opacity="0.5644722250440326" rx="1"/><rect x="232.81757038792537" y="758.6466838716638" width="6.381516472059655" height="6.3144377629073425" fill="#06d6a0" opacity="0.2822361125220163" rx="1"/><rect x="247.8875815921667" y="779.000378024332" width="5.046241680403762" height="8.738556264605968" fill="#118ab2" opacity="0.26610851550151327" rx="1"/><rect x="233.48520778375334" y="783.369656156635" width="5.046241680403762" height="8.738556264605968" fill="#06d6a0" opacity="0.13305425775075663" rx="1"/><rect x="247.66495091530143" y="802.5112910584539" width="5.491503034134279" height="9.277232757601244" fill="#118ab2" opacity="0.593861671302901" rx="1"/><rect x="233.26257710688807" y="807.1499074372546" width="5.491503034134279" height="9.277232757601244" fill="#06d6a0" opacity="0.2969308356514505" rx="1"/><rect x="244.88801024572177" y="826.0222040925759" width="11.04538437329358" height="8.23388385917849" fill="#118ab2" opacity="0.4555233537581571" rx="1"/><rect x="230.48563643730841" y="830.139146022165" width="11.04538437329358" height="8.23388385917849" fill="#06d6a0" opacity="0.22776167687907856" rx="1"/><rect x="244.5942292007604" y="849.5331171266978" width="11.632946463216317" height="7.327583296533577" fill="#118ab2" opacity="0.2700306729576622" rx="1"/><rect x="230.19185539234704" y="853.1969087749645" width="11.632946463216317" height="7.327583296533577" fill="#06d6a0" opacity="0.1350153364788311" rx="1"/><rect x="244.90039527600175" y="873.0440301608197" width="11.020614312733667" height="9.462262851060895" fill="#118ab2" opacity="0.5196621790574077" rx="1"/><rect x="230.4980214675884" y="877.7751615863501" width="11.020614312733667" height="9.462262851060895" fill="#06d6a0" opacity="0.2598310895287039" rx="1"/><rect x="245.88973023111225" y="896.5549431949416" width="9.041944402512616" height="6.745464754464446" fill="#118ab2" opacity="0.174356064334129" rx="1"/><rect x="231.4873564226989" y="899.9276755721738" width="9.041944402512616" height="6.745464754464446" fill="#06d6a0" opacity="0.0871780321670645" rx="1"/><rect x="291.34544508330185" y="604.5613979698535" width="31.865860275427313" height="305.5044582592101" fill="#073b4c" opacity="0.5513862826515423" rx="2"/><rect x="302.26226672140467" y="614.5613979698535" width="10.032216999221642" height="6.87609082667066" fill="#118ab2" opacity="0.3134142047058358" rx="1"/><rect x="294.2958016525479" y="617.9994433831888" width="10.032216999221642" height="6.87609082667066" fill="#06d6a0" opacity="0.1567071023529179" rx="1"/><rect x="303.0761585394098" y="652.7494552522547" width="8.404433363211442" height="6.66620792464032" fill="#118ab2" opacity="0.3421331398054336" rx="1"/><rect x="295.109693470553" y="656.0825592145749" width="8.404433363211442" height="6.66620792464032" fill="#06d6a0" opacity="0.1710665699027168" rx="1"/><rect x="303.4897428798698" y="690.937512534656" width="7.57726468229137" height="7.860637112022526" fill="#118ab2" opacity="0.3245752219400777" rx="1"/><rect x="295.52327781101303" y="694.8678310906672" width="7.57726468229137" height="7.860637112022526" fill="#06d6a0" opacity="0.16228761097003885" rx="1"/><rect x="301.81404844271344" y="729.1255698170572" width="10.92865355660409" height="9.669447049421596" fill="#118ab2" opacity="0.4071173585036577" rx="1"/><rect x="293.84758337385665" y="733.9602933417681" width="10.92865355660409" height="9.669447049421596" fill="#06d6a0" opacity="0.20355867925182886" rx="1"/><rect x="302.29791075999333" y="767.3136270994585" width="9.96092892204433" height="9.614036374635537" fill="#118ab2" opacity="0.23854963731452583" rx="1"/><rect x="294.33144569113654" y="772.1206452867763" width="9.96092892204433" height="9.614036374635537" fill="#06d6a0" opacity="0.11927481865726292" rx="1"/><rect x="304.50442498119185" y="805.5016843818598" width="5.547900479647308" height="6.0322096720412866" fill="#118ab2" opacity="0.5359314838507985" rx="1"/><rect x="296.53795991233505" y="808.5177892178805" width="5.547900479647308" height="6.0322096720412866" fill="#06d6a0" opacity="0.26796574192539924" rx="1"/><rect x="304.79587722518386" y="843.6897416642611" width="4.964995991663308" height="9.548509508266232" fill="#118ab2" opacity="0.22470292093341773" rx="1"/><rect x="296.82941215632707" y="848.4639964183942" width="4.964995991663308" height="9.548509508266232" fill="#06d6a0" opacity="0.11235146046670887" rx="1"/><rect x="301.4806639082918" y="881.8777989466623" width="11.595422625447489" height="6.677034698584358" fill="#118ab2" opacity="0.26719285169783813" rx="1"/><rect x="293.514198839435" y="885.2163162959545" width="11.595422625447489" height="6.677034698584358" fill="#06d6a0" opacity="0.13359642584891906" rx="1"/><rect x="395.73583853797425" y="760.0951855909301" width="60.79201418226399" height="149.97067063813347" fill="#073b4c" opacity="0.654665116442988" rx="2"/><rect x="422.7737478929976" y="770.0951855909301" width="6.71619547221721" height="8.191587531518095" fill="#118ab2" opacity="0.46162748557087674" rx="1"/><rect x="407.5757443474316" y="774.1909793566891" width="6.71619547221721" height="8.191587531518095" fill="#06d6a0" opacity="0.23081374278543837" rx="1"/><rect x="423.81156518049806" y="800.0893197185568" width="4.640560897216331" height="8.373684029647542" fill="#118ab2" opacity="0.5318921258514496" rx="1"/><rect x="408.61356163493207" y="804.2761617333806" width="4.640560897216331" height="8.373684029647542" fill="#06d6a0" opacity="0.2659460629257248" rx="1"/><rect x="421.1342519787453" y="830.0834538461835" width="9.995187300721925" height="9.724659106630053" fill="#118ab2" opacity="0.15879191950866764" rx="1"/><rect x="405.9362484331793" y="834.9457833994985" width="9.995187300721925" height="9.724659106630053" fill="#06d6a0" opacity="0.07939595975433382" rx="1"/><rect x="421.8763316978878" y="860.0775879738102" width="8.511027862436844" height="6.53087226313792" fill="#118ab2" opacity="0.3796558081823531" rx="1"/><rect x="406.6783281523218" y="863.3430241053792" width="8.511027862436844" height="6.53087226313792" fill="#06d6a0" opacity="0.18982790409117656" rx="1"/><rect x="420.83471744457137" y="890.0717221014369" width="10.594256369069743" height="9.7389379841599" fill="#118ab2" opacity="0.3754327477364412" rx="1"/><rect x="405.6367138990054" y="894.9411910935169" width="10.594256369069743" height="9.7389379841599" fill="#06d6a0" opacity="0.1877163738682206" rx="1"/><rect x="503.1043251797334" y="825.42993776161" width="38.75336105673419" height="84.63591846745366" fill="#002132" opacity="0.6555902929640353" rx="2"/><rect x="518.2066799912617" y="835.42993776161" width="8.548651433677565" height="7.29695443652965" fill="#118ab2" opacity="0.281360476343278" rx="1"/><rect x="508.5183397270781" y="839.0784149798748" width="8.548651433677565" height="7.29695443652965" fill="#06d6a0" opacity="0.140680238171639" rx="1"/><rect x="519.0741054294804" y="852.3571214551007" width="6.813800557240332" height="9.784161709198766" fill="#118ab2" opacity="0.48185264702929476" rx="1"/><rect x="509.38576516529673" y="857.2492023097001" width="6.813800557240332" height="9.784161709198766" fill="#06d6a0" opacity="0.24092632351464738" rx="1"/><rect x="519.9032695658746" y="869.2843051485914" width="5.155472284451935" height="7.926476703473943" fill="#118ab2" opacity="0.5907923046245221" rx="1"/><rect x="510.214929301691" y="873.2475435003284" width="5.155472284451935" height="7.926476703473943" fill="#06d6a0" opacity="0.2953961523122611" rx="1"/><rect x="519.8820981860351" y="886.2114888420822" width="5.197815044130621" height="8.564117682763403" fill="#118ab2" opacity="0.17985159616913915" rx="1"/><rect x="510.1937579218516" y="890.4935476834639" width="5.197815044130621" height="8.564117682763403" fill="#06d6a0" opacity="0.08992579808456957" rx="1"/><rect x="519.6863713210184" y="903.1386725355728" width="5.589268774164204" height="9.578063441342223" fill="#118ab2" opacity="0.4956867209392801" rx="1"/><rect x="509.9980310568348" y="907.9277042562439" width="5.589268774164204" height="9.578063441342223" fill="#06d6a0" opacity="0.24784336046964006" rx="1"/><rect x="595.1716532151149" y="819.9724754365097" width="85.1515296276546" height="90.09338079255386" fill="#073b4c" opacity="0.6308859401687249" rx="2"/><rect x="634.6082218199988" y="829.9724754365097" width="6.2783924178868515" height="8.461286487630868" fill="#118ab2" opacity="0.48753944248602243" rx="1"/><rect x="613.3203394130852" y="834.2031186803251" width="6.2783924178868515" height="8.461286487630868" fill="#06d6a0" opacity="0.24376972124301122" rx="1"/><rect x="635.6463719612561" y="847.9911515950205" width="4.202092135372127" height="8.02612259006736" fill="#118ab2" opacity="0.38367933858737335" rx="1"/><rect x="614.3584895543426" y="852.0042128900542" width="4.202092135372127" height="8.02612259006736" fill="#06d6a0" opacity="0.19183966929368668" rx="1"/><rect x="633.2891017916354" y="866.0098277535312" width="8.916632474613523" height="6.388466469102648" fill="#118ab2" opacity="0.3533268797568341" rx="1"/><rect x="612.0012193847218" y="869.2040609880826" width="8.916632474613523" height="6.388466469102648" fill="#06d6a0" opacity="0.17666343987841704" rx="1"/><rect x="632.3258137412663" y="884.0285039120421" width="10.84320857535191" height="7.983766989313011" fill="#118ab2" opacity="0.26314681727978095" rx="1"/><rect x="611.0379313343527" y="888.0203874066985" width="10.84320857535191" height="7.983766989313011" fill="#06d6a0" opacity="0.13157340863989048" rx="1"/><rect x="632.936385993831" y="902.0471800705528" width="9.622064070222448" height="6.719429016280786" fill="#118ab2" opacity="0.41449070044664915" rx="1"/><rect x="611.6485035869174" y="905.4068945786933" width="9.622064070222448" height="6.719429016280786" fill="#06d6a0" opacity="0.20724535022332458" rx="1"/><rect x="681.6463562454205" y="807.8238264210112" width="50.034578409985315" height="102.24202980805235" fill="#073b4c" opacity="0.6790192645925608" rx="2"/><rect x="704.6510189244642" y="817.8238264210112" width="4.025253051897803" height="7.59079421907449" fill="#118ab2" opacity="0.2512321177057997" rx="1"/><rect x="692.142374321968" y="821.6192235305484" width="4.025253051897803" height="7.59079421907449" fill="#06d6a0" opacity="0.12561605885289984" rx="1"/><rect x="701.788968288989" y="838.2722323826216" width="9.749354322848227" height="8.360801410479658" fill="#118ab2" opacity="0.390018803623975" rx="1"/><rect x="689.2803236864928" y="842.4526330878614" width="9.749354322848227" height="8.360801410479658" fill="#06d6a0" opacity="0.1950094018119875" rx="1"/><rect x="704.3232894943383" y="858.7206383442322" width="4.680711912149729" height="7.021936253882464" fill="#118ab2" opacity="0.24591751763269248" rx="1"/><rect x="691.814644891842" y="862.2316064711733" width="4.680711912149729" height="7.021936253882464" fill="#06d6a0" opacity="0.12295875881634624" rx="1"/><rect x="704.1350185892393" y="879.1690443058426" width="5.057253722347611" height="9.00425006239774" fill="#118ab2" opacity="0.44223194556362744" rx="1"/><rect x="691.626373986743" y="883.6711693370414" width="5.057253722347611" height="9.00425006239774" fill="#06d6a0" opacity="0.22111597278181372" rx="1"/><rect x="702.689648389744" y="899.617450267453" width="7.9479941213382395" height="8.766572311233396" fill="#118ab2" opacity="0.22334053547199362" rx="1"/><rect x="690.1810037872477" y="904.0007364230697" width="7.9479941213382395" height="8.766572311233396" fill="#06d6a0" opacity="0.11167026773599681" rx="1"/><rect x="796.7819926111918" y="794.5559953093892" width="41.97696021571219" height="115.50986091967437" fill="#073b4c" opacity="0.47518781108669655" rx="2"/><rect x="812.863055560706" y="804.5559953093892" width="9.814834316683662" height="9.34416241090376" fill="#118ab2" opacity="0.20946866709493767" rx="1"/><rect x="802.368815506778" y="809.2280765148411" width="9.814834316683662" height="9.34416241090376" fill="#06d6a0" opacity="0.10473433354746883" rx="1"/><rect x="814.3048248461691" y="821.0574040121999" width="6.931295745757245" height="6.625899787206645" fill="#118ab2" opacity="0.2532049017616559" rx="1"/><rect x="803.8105847922411" y="824.3703539058032" width="6.931295745757245" height="6.625899787206645" fill="#06d6a0" opacity="0.12660245088082794" rx="1"/><rect x="812.783435925791" y="837.5588127150105" width="9.974073586513772" height="9.247826806094457" fill="#118ab2" opacity="0.273454891930673" rx="1"/><rect x="802.289195871863" y="842.1827261180578" width="9.974073586513772" height="9.247826806094457" fill="#06d6a0" opacity="0.1367274459653365" rx="1"/><rect x="813.4912718367975" y="854.0602214178211" width="8.558401764500514" height="8.930737621833277" fill="#118ab2" opacity="0.4423139169677892" rx="1"/><rect x="802.9970317828695" y="858.5255902287378" width="8.558401764500514" height="8.930737621833277" fill="#06d6a0" opacity="0.2211569584838946" rx="1"/><rect x="814.7716742888492" y="870.5616301206318" width="5.9975968603970475" height="9.326409558608757" fill="#118ab2" opacity="0.25001889868872684" rx="1"/><rect x="804.2774342349212" y="875.2248348999361" width="5.9975968603970475" height="9.326409558608757" fill="#06d6a0" opacity="0.12500944934436342" rx="1"/><rect x="813.7428831897544" y="887.0630388234424" width="8.055179058586987" height="6.300003036926501" fill="#118ab2" opacity="0.2761423843391571" rx="1"/><rect x="803.2486431358263" y="890.2130403419056" width="8.055179058586987" height="6.300003036926501" fill="#06d6a0" opacity="0.13807119216957855" rx="1"/><rect x="814.350744019577" y="903.5644475262529" width="6.839457398941613" height="8.811988101064225" fill="#118ab2" opacity="0.3602571562771353" rx="1"/><rect x="803.8565039656489" y="907.970441576785" width="6.839457398941613" height="8.811988101064225" fill="#06d6a0" opacity="0.18012857813856764" rx="1"/><rect x="887.8249570140208" y="670.7062054124442" width="39.57144887409439" height="239.35965081661934" fill="#002132" opacity="0.6962471764293143" rx="2"/><rect x="903.6034938773614" y="680.7062054124442" width="8.014375147413084" height="7.0799002547468755" fill="#118ab2" opacity="0.17924395068065357" rx="1"/><rect x="893.7106316588379" y="684.2461555398177" width="8.014375147413084" height="7.0799002547468755" fill="#06d6a0" opacity="0.08962197534032679" rx="1"/><rect x="904.2686074933197" y="714.9004412433899" width="6.684147915496526" height="8.359399639619374" fill="#118ab2" opacity="0.48753417748667627" rx="1"/><rect x="894.3757452747961" y="719.0801410631996" width="6.684147915496526" height="8.359399639619374" fill="#06d6a0" opacity="0.24376708874333813" rx="1"/><rect x="904.5996697152964" y="749.0946770743354" width="6.022023471543106" height="8.084774302804092" fill="#118ab2" opacity="0.4807080171258906" rx="1"/><rect x="894.7068074967729" y="753.1370642257375" width="6.022023471543106" height="8.084774302804092" fill="#06d6a0" opacity="0.2403540085629453" rx="1"/><rect x="902.0363052871629" y="783.2889129052811" width="11.148752327810218" height="9.353245277738488" fill="#118ab2" opacity="0.16012205606329302" rx="1"/><rect x="892.1434430686394" y="787.9655355441504" width="11.148752327810218" height="9.353245277738488" fill="#06d6a0" opacity="0.08006102803164651" rx="1"/><rect x="901.9508053280765" y="817.4831487362267" width="11.31975224598305" height="7.024900509283157" fill="#118ab2" opacity="0.379716758937509" rx="1"/><rect x="892.057943109553" y="820.9955989908683" width="11.31975224598305" height="7.024900509283157" fill="#06d6a0" opacity="0.1898583794687545" rx="1"/><rect x="903.5610354781526" y="851.6773845671723" width="8.099291945830753" height="7.367586415579446" fill="#118ab2" opacity="0.31048828801384387" rx="1"/><rect x="893.668173259629" y="855.361177774962" width="8.099291945830753" height="7.367586415579446" fill="#06d6a0" opacity="0.15524414400692194" rx="1"/><rect x="902.1902052604571" y="885.871620398118" width="10.8409523812218" height="8.589798704392695" fill="#118ab2" opacity="0.38918016662103594" rx="1"/><rect x="892.2973430419336" y="890.1665197503144" width="10.8409523812218" height="8.589798704392695" fill="#06d6a0" opacity="0.19459008331051797" rx="1"/><rect x="961.6982645545384" y="626.3870811151311" width="80.89689215898906" height="283.6787751139325" fill="#002132" opacity="0.6973854595556356" rx="2"/><rect x="998.5034316790997" y="636.3870811151311" width="7.28655790986646" height="6.747598697605449" fill="#118ab2" opacity="0.31207773015184276" rx="1"/><rect x="978.2792086393524" y="639.7608804639339" width="7.28655790986646" height="6.747598697605449" fill="#06d6a0" opacity="0.15603886507592138" rx="1"/><rect x="996.3837317375893" y="676.9126204171214" width="11.525957792886988" height="7.155294905685656" fill="#118ab2" opacity="0.22502223512274733" rx="1"/><rect x="976.159508697842" y="680.4902678699642" width="11.525957792886988" height="7.155294905685656" fill="#06d6a0" opacity="0.11251111756137366" rx="1"/><rect x="997.4221956488727" y="717.4381597191118" width="9.449029970320183" height="6.849972305085969" fill="#118ab2" opacity="0.18632533987665673" rx="1"/><rect x="977.1979726091255" y="720.8631458716548" width="9.449029970320183" height="6.849972305085969" fill="#06d6a0" opacity="0.09316266993832836" rx="1"/><rect x="996.7249293410509" y="757.9636990211021" width="10.843562585963767" height="9.681373659447155" fill="#118ab2" opacity="0.13819983756127763" rx="1"/><rect x="976.5007063013037" y="762.8043858508257" width="10.843562585963767" height="9.681373659447155" fill="#06d6a0" opacity="0.06909991878063881" rx="1"/><rect x="997.0164681347125" y="798.4892383230925" width="10.260484998640717" height="7.436813607215139" fill="#118ab2" opacity="0.19320166162056887" rx="1"/><rect x="976.7922450949652" y="802.2076451267001" width="10.260484998640717" height="7.436813607215139" fill="#06d6a0" opacity="0.09660083081028444" rx="1"/><rect x="998.9162560808277" y="839.0147776250828" width="6.46090910641032" height="8.813288828081753" fill="#118ab2" opacity="0.11872959163010344" rx="1"/><rect x="978.6920330410804" y="843.4214220391237" width="6.46090910641032" height="8.813288828081753" fill="#06d6a0" opacity="0.05936479581505172" rx="1"/><rect x="1000.0390601640192" y="879.5403169270733" width="4.215300940027298" height="6.586876081439405" fill="#118ab2" opacity="0.4211556530606829" rx="1"/><rect x="979.814837124272" y="882.833754967793" width="4.215300940027298" height="6.586876081439405" fill="#06d6a0" opacity="0.21057782653034146" rx="1"/><rect x="1066.1561483601472" y="703.6919458777858" width="45.706401880762165" height="206.37391035127777" fill="#073b4c" opacity="0.6796028731110513" rx="2"/><rect x="1086.3479860563177" y="713.6919458777858" width="5.322726488421375" height="7.8075288901588715" fill="#118ab2" opacity="0.5036389260794126" rx="1"/><rect x="1074.9213855861271" y="717.5957103228652" width="5.322726488421375" height="7.8075288901588715" fill="#06d6a0" opacity="0.2518194630397063" rx="1"/><rect x="1083.4440801191247" y="782.4832493282117" width="11.130538362807254" height="8.854617532075991" fill="#118ab2" opacity="0.24795856984517503" rx="1"/><rect x="1072.017479648934" y="786.9105580942497" width="11.130538362807254" height="8.854617532075991" fill="#06d6a0" opacity="0.12397928492258752" rx="1"/><rect x="1086.0601716207016" y="851.2745527786376" width="5.898355359653559" height="6.939183212104063" fill="#118ab2" opacity="0.12312364196943204" rx="1"/><rect x="1074.633571150511" y="854.7441443846897" width="5.898355359653559" height="6.939183212104063" fill="#06d6a0" opacity="0.06156182098471602" rx="1"/><rect x="1166.6817391539648" y="807.0930762465795" width="41.325699624448475" height="102.97277998248413" fill="#073b4c" opacity="0.5294969807913288" rx="2"/><rect x="1185.227371301555" y="817.0930762465795" width="4.234435329268322" height="9.425646872125949" fill="#118ab2" opacity="0.47320299269007593" rx="1"/><rect x="1174.8959463954427" y="821.8058996826425" width="4.234435329268322" height="9.425646872125949" fill="#06d6a0" opacity="0.23660149634503796" rx="1"/><rect x="1182.6623849304538" y="837.6876322430763" width="9.364408071470542" height="9.716517017156937" fill="#118ab2" opacity="0.39741591711002777" rx="1"/><rect x="1172.3309600243415" y="842.5458907516548" width="9.364408071470542" height="9.716517017156937" fill="#06d6a0" opacity="0.19870795855501389" rx="1"/><rect x="1183.4620168028544" y="858.2821882395731" width="7.76514432666943" height="6.657288613882216" fill="#118ab2" opacity="0.3817129335090781" rx="1"/><rect x="1173.130591896742" y="861.6108325465142" width="7.76514432666943" height="6.657288613882216" fill="#06d6a0" opacity="0.19085646675453904" rx="1"/><rect x="1184.2207467097837" y="878.87674423607" width="6.247684512810708" height="8.924963359470704" fill="#118ab2" opacity="0.12237695956658036" rx="1"/><rect x="1173.8893218036715" y="883.3392259158053" width="6.247684512810708" height="8.924963359470704" fill="#06d6a0" opacity="0.06118847978329018" rx="1"/><rect x="1182.3447384930553" y="899.4713002325668" width="9.999700946267625" height="7.736852689119255" fill="#118ab2" opacity="0.561177775161615" rx="1"/><rect x="1172.013313586943" y="903.3397265771265" width="9.999700946267625" height="7.736852689119255" fill="#06d6a0" opacity="0.2805888875808075" rx="1"/><rect x="1257.51118055254" y="617.6643066847847" width="63.25685257866439" height="292.40154954427885" fill="#002132" opacity="0.4080907556712839" rx="2"/><rect x="1286.6330572626628" y="627.6643066847847" width="5.013099158418621" height="7.767719280386278" fill="#118ab2" opacity="0.20930902152538977" rx="1"/><rect x="1270.8188441179968" y="631.5481663249778" width="5.013099158418621" height="7.767719280386278" fill="#06d6a0" opacity="0.10465451076269489" rx="1"/><rect x="1283.532739269671" y="686.1446165936405" width="11.213735144402303" height="8.182899059304711" fill="#118ab2" opacity="0.571998549991287" rx="1"/><rect x="1267.7185261250052" y="690.2360661232929" width="11.213735144402303" height="8.182899059304711" fill="#06d6a0" opacity="0.2859992749956435" rx="1"/><rect x="1285.015161889143" y="744.6249265024962" width="8.248889905458523" height="8.620259811780477" fill="#118ab2" opacity="0.15260064302771367" rx="1"/><rect x="1269.200948744477" y="748.9350564083865" width="8.248889905458523" height="8.620259811780477" fill="#06d6a0" opacity="0.07630032151385684" rx="1"/><rect x="1284.2315552610044" y="803.105236411352" width="9.816103161735484" height="7.088041754692803" fill="#118ab2" opacity="0.2598862558975551" rx="1"/><rect x="1268.4173421163384" y="806.6492572886984" width="9.816103161735484" height="7.088041754692803" fill="#06d6a0" opacity="0.12994312794877755" rx="1"/><rect x="1285.1909780814756" y="861.5855463202079" width="7.897257520793298" height="8.425866317568781" fill="#118ab2" opacity="0.21879034075392184" rx="1"/><rect x="1269.3767649368096" y="865.7984794789922" width="7.897257520793298" height="8.425866317568781" fill="#06d6a0" opacity="0.10939517037696092" rx="1"/><rect x="1369.3390995355646" y="538.4610274663337" width="48.69191588803472" height="371.6048287627298" fill="#002132" opacity="0.5879252283805807" rx="2"/><rect x="1391.0839143782116" y="548.4610274663337" width="5.202286202740456" height="8.709750331637856" fill="#118ab2" opacity="0.46791239256689143" rx="1"/><rect x="1378.910935406203" y="552.8159026321526" width="5.202286202740456" height="8.709750331637856" fill="#06d6a0" opacity="0.23395619628344572" rx="1"/><rect x="1390.0560458845123" y="594.9116310616749" width="7.258023190139332" height="7.275135741865992" fill="#118ab2" opacity="0.16880856679491898" rx="1"/><rect x="1377.8830669125036" y="598.549198932608" width="7.258023190139332" height="7.275135741865992" fill="#06d6a0" opacity="0.08440428339745949" rx="1"/><rect x="1390.5054091414215" y="641.3622346570162" width="6.359296676320792" height="9.009460501142186" fill="#118ab2" opacity="0.28905677371403593" rx="1"/><rect x="1378.3324301694129" y="645.8669649075873" width="6.359296676320792" height="9.009460501142186" fill="#06d6a0" opacity="0.14452838685701797" rx="1"/><rect x="1389.7559620618717" y="687.8128382523573" width="7.858190835420553" height="8.812043142228397" fill="#118ab2" opacity="0.44124350439320403" rx="1"/><rect x="1377.582983089863" y="692.2188598234716" width="7.858190835420553" height="8.812043142228397" fill="#06d6a0" opacity="0.22062175219660202" rx="1"/><rect x="1389.454473879294" y="734.2634418476986" width="8.461167200575854" height="6.999217813135874" fill="#118ab2" opacity="0.5732943392529372" rx="1"/><rect x="1377.2814949072854" y="737.7630507542665" width="8.461167200575854" height="6.999217813135874" fill="#06d6a0" opacity="0.2866471696264686" rx="1"/><rect x="1387.819402480223" y="780.7140454430398" width="11.73130999871793" height="9.082876304882317" fill="#118ab2" opacity="0.5206169778296298" rx="1"/><rect x="1375.6464235082144" y="785.255483595481" width="11.73130999871793" height="9.082876304882317" fill="#06d6a0" opacity="0.2603084889148149" rx="1"/><rect x="1390.338209394677" y="827.1646490383811" width="6.693696169809833" height="7.162445674921024" fill="#118ab2" opacity="0.16625570474803814" rx="1"/><rect x="1378.1652304226684" y="830.7458718758415" width="6.693696169809833" height="7.162445674921024" fill="#06d6a0" opacity="0.08312785237401907" rx="1"/><rect x="1390.1306460968055" y="873.6152526337223" width="7.10882276555263" height="8.100833617639921" fill="#118ab2" opacity="0.3623798894375516" rx="1"/><rect x="1377.957667124797" y="877.6656694425423" width="7.10882276555263" height="8.100833617639921" fill="#06d6a0" opacity="0.1811899447187758" rx="1"/><rect x="1466.9907485966085" y="685.9426494189405" width="49.41827050862328" height="224.1232068101231" fill="#073b4c" opacity="0.521028254302458" rx="2"/><rect x="1488.011702210878" y="695.9426494189405" width="7.376363280084069" height="9.29731255101443" fill="#118ab2" opacity="0.5885326434132951" rx="1"/><rect x="1475.6571345837222" y="700.5913056944477" width="7.376363280084069" height="9.29731255101443" fill="#06d6a0" opacity="0.29426632170664757" rx="1"/><rect x="1485.8493495487724" y="740.7672907809651" width="11.70106860429539" height="6.943116221796515" fill="#118ab2" opacity="0.4774830684711885" rx="1"/><rect x="1473.4947819216165" y="744.2388488918634" width="11.70106860429539" height="6.943116221796515" fill="#06d6a0" opacity="0.23874153423559424" rx="1"/><rect x="1487.5160252574171" y="785.5919321429898" width="8.367717187005962" height="7.904857220571688" fill="#118ab2" opacity="0.4205116662011742" rx="1"/><rect x="1475.1614576302613" y="789.5443607532757" width="8.367717187005962" height="7.904857220571688" fill="#06d6a0" opacity="0.2102558331005871" rx="1"/><rect x="1486.9028574703036" y="830.4165735050144" width="9.594052761232959" height="9.26546285377477" fill="#118ab2" opacity="0.48742407373791186" rx="1"/><rect x="1474.5482898431478" y="835.0493049319018" width="9.594052761232959" height="9.26546285377477" fill="#06d6a0" opacity="0.24371203686895593" rx="1"/><rect x="1488.12412942879" y="875.2412148670389" width="7.151508844260012" height="9.051332014391974" fill="#118ab2" opacity="0.4593828880366364" rx="1"/><rect x="1475.7695618016342" y="879.766880874235" width="7.151508844260012" height="9.051332014391974" fill="#06d6a0" opacity="0.2296914440183182" rx="1"/><rect x="1560.053374045541" y="683.1554188586667" width="64.62251931769367" height="226.91043737039678" fill="#073b4c" opacity="0.5508182241699701" rx="2"/><rect x="1589.8670394268975" y="693.1554188586667" width="4.995188554980603" height="6.352040647611031" fill="#118ab2" opacity="0.2830943542726092" rx="1"/><rect x="1573.711409597474" y="696.3314391824722" width="4.995188554980603" height="6.352040647611031" fill="#06d6a0" opacity="0.1415471771363046" rx="1"/><rect x="1589.7752695555741" y="725.5711956258663" width="5.178728297627234" height="6.786597525884071" fill="#118ab2" opacity="0.4711502486539889" rx="1"/><rect x="1573.6196397261506" y="728.9644943888082" width="5.178728297627234" height="6.786597525884071" fill="#06d6a0" opacity="0.23557512432699446" rx="1"/><rect x="1588.6635797837898" y="757.9869723930658" width="7.402107841196029" height="9.583939986206577" fill="#118ab2" opacity="0.13140766896107414" rx="1"/><rect x="1572.5079499543663" y="762.7789423861691" width="7.402107841196029" height="9.583939986206577" fill="#06d6a0" opacity="0.06570383448053707" rx="1"/><rect x="1589.3361975034552" y="790.4027491602653" width="6.0568724018654025" height="8.42354855835986" fill="#118ab2" opacity="0.5279407565314185" rx="1"/><rect x="1573.1805676740316" y="794.6145234394453" width="6.0568724018654025" height="8.42354855835986" fill="#06d6a0" opacity="0.26397037826570924" rx="1"/><rect x="1587.9332631809948" y="822.8185259274649" width="8.862741046786015" height="8.027495560708338" fill="#118ab2" opacity="0.5015286272395236" rx="1"/><rect x="1571.7776333515712" y="826.832273707819" width="8.862741046786015" height="8.027495560708338" fill="#06d6a0" opacity="0.2507643136197618" rx="1"/><rect x="1587.2730952883776" y="855.2343026946644" width="10.18307683202044" height="6.4420397515506576" fill="#118ab2" opacity="0.3724080525274407" rx="1"/><rect x="1571.117465458954" y="858.4553225704398" width="10.18307683202044" height="6.4420397515506576" fill="#06d6a0" opacity="0.18620402626372035" rx="1"/><rect x="1586.9500344982255" y="887.6500794618639" width="10.82919841232458" height="7.470086888752432" fill="#118ab2" opacity="0.17443146095015843" rx="1"/><rect x="1570.794404668802" y="891.3851229062401" width="10.82919841232458" height="7.470086888752432" fill="#06d6a0" opacity="0.08721573047507922" rx="1"/><rect x="1633.0163845496756" y="586.5597757013886" width="36.85785526103756" height="323.5060805276749" fill="#002132" opacity="0.47988777462856097" rx="2"/><rect x="1646.89948683416" y="596.5597757013886" width="9.09165069206889" height="8.957585401590352" fill="#118ab2" opacity="0.3466736221096184" rx="1"/><rect x="1637.6850230189007" y="601.0385684021838" width="9.09165069206889" height="8.957585401590352" fill="#06d6a0" opacity="0.1733368110548092" rx="1"/><rect x="1646.3128338892275" y="636.998035767348" width="10.264956581933646" height="8.856447235414862" fill="#118ab2" opacity="0.3870234318047351" rx="1"/><rect x="1637.0983700739682" y="641.4262593850555" width="10.264956581933646" height="8.856447235414862" fill="#06d6a0" opacity="0.19351171590236754" rx="1"/><rect x="1647.5185215567515" y="677.4362958333073" width="7.853581246885839" height="7.08688348929558" fill="#118ab2" opacity="0.12002326492686367" rx="1"/><rect x="1638.3040577414922" y="680.9797375779551" width="7.853581246885839" height="7.08688348929558" fill="#06d6a0" opacity="0.06001163246343184" rx="1"/><rect x="1648.3487258277248" y="717.8745558992667" width="6.193172704939072" height="8.652674995049061" fill="#118ab2" opacity="0.5694497550300904" rx="1"/><rect x="1639.1342620124656" y="722.2008933967912" width="6.193172704939072" height="8.652674995049061" fill="#06d6a0" opacity="0.2847248775150452" rx="1"/><rect x="1645.9057862048285" y="758.312815965226" width="11.079051950732026" height="9.7344163227208" fill="#118ab2" opacity="0.4247997393656522" rx="1"/><rect x="1636.6913223895692" y="763.1800241265864" width="11.079051950732026" height="9.7344163227208" fill="#06d6a0" opacity="0.2123998696828261" rx="1"/><rect x="1646.257328268899" y="798.7510760311854" width="10.375967822590836" height="6.2202631999320035" fill="#118ab2" opacity="0.44957214441373294" rx="1"/><rect x="1637.0428644536398" y="801.8612076311515" width="10.375967822590836" height="6.2202631999320035" fill="#06d6a0" opacity="0.22478607220686647" rx="1"/><rect x="1646.364002564774" y="839.1893360971449" width="10.162619230840965" height="6.389652997346048" fill="#118ab2" opacity="0.31088632748250067" rx="1"/><rect x="1637.1495387495147" y="842.3841625958179" width="10.162619230840965" height="6.389652997346048" fill="#06d6a0" opacity="0.15544316374125033" rx="1"/><rect x="1646.3765686460251" y="879.6275961631042" width="10.137487068338665" height="8.34229488818494" fill="#118ab2" opacity="0.5145816454930654" rx="1"/><rect x="1637.1621048307659" y="883.7987436071967" width="10.137487068338665" height="8.34229488818494" fill="#06d6a0" opacity="0.2572908227465327" rx="1"/><rect x="1738.4690636928353" y="784.7105463232637" width="80.00088661676293" height="125.35530990579987" fill="#073b4c" opacity="0.6374600538838329" rx="2"/><rect x="1774.2328355399036" y="794.7105463232637" width="8.473342922626376" height="8.426237612596303" fill="#118ab2" opacity="0.49820462393066955" rx="1"/><rect x="1754.232613885713" y="798.9236651295618" width="8.473342922626376" height="8.426237612596303" fill="#06d6a0" opacity="0.24910231196533478" rx="1"/><rect x="1774.2124350977158" y="826.0493737997136" width="8.514143807001911" height="7.935999490771443" fill="#118ab2" opacity="0.47626641450362894" rx="1"/><rect x="1754.2122134435251" y="830.0173735450993" width="8.514143807001911" height="7.935999490771443" fill="#06d6a0" opacity="0.23813320725181447" rx="1"/><rect x="1773.0971114086212" y="857.3882012761636" width="10.744791185191087" height="9.907622511477122" fill="#118ab2" opacity="0.2694021949473308" rx="1"/><rect x="1753.0968897544305" y="862.3420125319021" width="10.744791185191087" height="9.907622511477122" fill="#06d6a0" opacity="0.1347010974736654" rx="1"/><rect x="1773.0334404232055" y="888.7270287526136" width="10.872133156022088" height="9.326810966089091" fill="#118ab2" opacity="0.27913522598779184" rx="1"/><rect x="1753.0332187690149" y="893.3904342356582" width="10.872133156022088" height="9.326810966089091" fill="#06d6a0" opacity="0.13956761299389592" rx="1"/><rect x="1842.8017596813854" y="753.1810577384152" width="61.135135519116915" height="156.88479849064834" fill="#073b4c" opacity="0.5053318684467422" rx="2"/><rect x="1869.1290934556464" y="763.1810577384152" width="8.480467970594873" height="7.000172899337525" fill="#118ab2" opacity="0.44536499282004427" rx="1"/><rect x="1853.8453095758673" y="766.681144188084" width="8.480467970594873" height="7.000172899337525" fill="#06d6a0" opacity="0.22268249641002213" rx="1"/><rect x="1869.908532246693" y="815.4759905686313" width="6.921590388501434" height="9.098124498291435" fill="#118ab2" opacity="0.17511760412601698" rx="1"/><rect x="1854.624748366914" y="820.025052817777" width="6.921590388501434" height="9.098124498291435" fill="#06d6a0" opacity="0.08755880206300849" rx="1"/><rect x="1869.3208450140246" y="867.7709233988475" width="8.096964853838312" height="8.748584876476922" fill="#118ab2" opacity="0.34604936904414774" rx="1"/><rect x="1854.0370611342455" y="872.145215837086" width="8.096964853838312" height="8.748584876476922" fill="#06d6a0" opacity="0.17302468452207387" rx="1"/><path d="M749.1228869811453 864.3034980549253 Q767.4400843185001 770.3230451315928 771.103523785971 676.3425922082604" stroke="#000000" stroke-width="7.2184987634463464" fill="none" stroke-linecap="round"/><path d="M771.103523785971 676.3425922082604 Q812.1298408885789 656.3425922082604 822.6519075787281 676.3425922082604" stroke="#000819" stroke-width="3.8857919671306833" fill="none" stroke-linecap="round" opacity="0.6"/><path d="M771.103523785971 676.3425922082604 Q802.2898839911813 661.7733598926413 799.9761418492795 687.2041275770222" stroke="#000819" stroke-width="3.920372863281605" fill="none" stroke-linecap="round" opacity="0.6"/><path d="M771.103523785971 676.3425922082604 Q784.0023983340643 663.2449941479058 760.6006691170245 690.1473960875511" stroke="#000819" stroke-width="2.244466807284501" fill="none" stroke-linecap="round" opacity="0.6"/><path d="M771.103523785971 676.3425922082604 Q775.287619460137 658.5125963732949 741.0631232570043 680.6826005383292" stroke="#000819" stroke-width="2.0804543965683444" fill="none" stroke-linecap="round" opacity="0.6"/><path d="M771.103523785971 676.3425922082604 Q750.0539591153741 651.5765225345151 705.1245527520595 666.8104528607697" stroke="#000819" stroke-width="2.6662823973843555" fill="none" stroke-linecap="round" opacity="0.6"/><path d="M771.103523785971 676.3425922082604 Q786.2735106789585 650.4725711275241 762.1715637445665 664.6025500467878" stroke="#000819" stroke-width="2.2758095754021337" fill="none" stroke-linecap="round" opacity="0.6"/><path d="M1621.0119133491562 868.0650802720489 Q1635.12755809704 761.5918000837769 1637.9506870466168 655.1185198955047" stroke="#000000" stroke-width="7.746815507241249" fill="none" stroke-linecap="round"/><path d="M1637.9506870466168 655.1185198955047 Q1661.5083245512815 635.1185198955047 1675.714980686017 655.1185198955047" stroke="#000819" stroke-width="3.629553589417961" fill="none" stroke-linecap="round" opacity="0.6"/><path d="M1637.9506870466168 655.1185198955047 Q1668.782079491172 642.6329975309549 1677.9013266841066 670.147475166405" stroke="#000819" stroke-width="2.4471683344913573" fill="none" stroke-linecap="round" opacity="0.6"/><path d="M1637.9506870466168 655.1185198955047 Q1638.1217137597912 644.7261388167223 1623.3315115586486 674.3337577379398" stroke="#000819" stroke-width="3.268139449243466" fill="none" stroke-linecap="round" opacity="0.6"/><path d="M1637.9506870466168 655.1185198955047 Q1624.7925829298015 639.2981688667322 1580.089816920514 663.4778178379597" stroke="#000819" stroke-width="3.405726208678849" fill="none" stroke-linecap="round" opacity="0.6"/><path d="M1637.9506870466168 655.1185198955047 Q1624.5232889859499 632.2949842259113 1598.8631388339775 649.4714485563179" stroke="#000819" stroke-width="3.469364954966438" fill="none" stroke-linecap="round" opacity="0.6"/><path d="M1637.9506870466168 655.1185198955047 Q1647.6712732509156 628.5530298499366 1627.960485319454 641.9875398043683" stroke="#000819" stroke-width="3.540432164804179" fill="none" stroke-linecap="round" opacity="0.6"/><path d="M644.4287531088173 871.5582748343139 Q626.0695262546813 762.2703155007376 622.397680883854 652.9823561671615" stroke="#000000" stroke-width="5.750235615705661" fill="none" stroke-linecap="round"/><path d="M622.397680883854 652.9823561671615 Q665.1126041426586 632.9823561671615 672.8874215862917 652.9823561671615" stroke="#000819" stroke-width="2.013149488720379" fill="none" stroke-linecap="round" opacity="0.6"/><path d="M622.397680883854 652.9823561671615 Q656.6138745502778 640.848270398115 664.2167294066329 668.7141846290685" stroke="#000819" stroke-width="3.479299104651273" fill="none" stroke-linecap="round" opacity="0.6"/><path d="M622.397680883854 652.9823561671615 Q626.8054406091067 640.4199311120441 611.0804945741398 667.8575060569267" stroke="#000819" stroke-width="3.35821079866919" fill="none" stroke-linecap="round" opacity="0.6"/><path d="M622.397680883854 652.9823561671615 Q593.1124897409244 637.4440842689651 560.6318550899668 661.9058123707686" stroke="#000819" stroke-width="2.5398850484145536" fill="none" stroke-linecap="round" opacity="0.6"/><path d="M622.397680883854 652.9823561671615 Q607.7975727156318 629.386894932122 572.6239996498148 645.7914336970825" stroke="#000819" stroke-width="3.9421553891017465" fill="none" stroke-linecap="round" opacity="0.6"/><path d="M1395.2194363147066 849.0899553403933 Q1407.6862031006456 746.9880180077133 1410.1795564578333 644.8860806750333" stroke="#000000" stroke-width="5.600093644484899" fill="none" stroke-linecap="round"/><path d="M1410.1795564578333 644.8860806750333 Q1428.2797593535577 624.8860806750333 1443.6555001436861 644.8860806750333" stroke="#000819" stroke-width="3.6840067374715595" fill="none" stroke-linecap="round" opacity="0.6"/><path d="M1410.1795564578333 644.8860806750333 Q1438.2068230347033 628.9222699158128 1431.6379132046004 652.9584591565922" stroke="#000819" stroke-width="3.078193085053515" fill="none" stroke-linecap="round" opacity="0.6"/><path d="M1410.1795564578333 644.8860806750333 Q1409.0875148811497 632.8243290469445 1398.1005338646537 660.7625774188557" stroke="#000819" stroke-width="2.663402809915925" fill="none" stroke-linecap="round" opacity="0.6"/><path d="M1410.1795564578333 644.8860806750333 Q1393.355146391722 627.3955795096315 1375.439369626391 649.9050783442295" stroke="#000819" stroke-width="3.836111440750796" fill="none" stroke-linecap="round" opacity="0.6"/><path d="M1410.1795564578333 644.8860806750333 Q1407.2587985314533 622.8942398109557 1382.6055553056715 640.9023989468781" stroke="#000819" stroke-width="3.954366991751447" fill="none" stroke-linecap="round" opacity="0.6"/><path d="M1410.1795564578333 644.8860806750333 Q1412.0388741086722 617.7291024678966 1399.2893326436235 630.5721242607598" stroke="#000819" stroke-width="2.4780782415713367" fill="none" stroke-linecap="round" opacity="0.6"/><path d="M943.4868190399108 870.9950380425423 Q925.2206879260998 766.0980312365801 921.5674617033376 661.201024430618" stroke="#000000" stroke-width="7.973877003410337" fill="none" stroke-linecap="round"/><path d="M921.5674617033376 661.201024430618 Q964.2215432182935 641.201024430618 997.7698612026334 661.201024430618" stroke="#000819" stroke-width="2.4847432883653657" fill="none" stroke-linecap="round" opacity="0.6"/><path d="M921.5674617033376 661.201024430618 Q943.6645793364044 647.5044781007202 955.0797054364017 673.8079317708224" stroke="#000819" stroke-width="3.3365999756698965" fill="none" stroke-linecap="round" opacity="0.6"/><path d="M921.5674617033376 661.201024430618 Q929.7196172493633 646.8452243277197 912.9791164055573 672.4894242248215" stroke="#000819" stroke-width="3.758005195240957" fill="none" stroke-linecap="round" opacity="0.6"/><path d="M921.5674617033376 661.201024430618 Q907.2997135408764 645.1981874843015 866.2328309929228 669.195350537985" stroke="#000819" stroke-width="3.6781185929845366" fill="none" stroke-linecap="round" opacity="0.6"/><path d="M921.5674617033376 661.201024430618 Q904.4248147359823 636.1146684588969 851.1546149975878 651.0283124871756" stroke="#000819" stroke-width="3.9322641831664984" fill="none" stroke-linecap="round" opacity="0.6"/><path d="M921.5674617033376 661.201024430618 Q932.7869759533419 635.9332347818761 913.5518709581021 650.6654451331342" stroke="#000819" stroke-width="3.261610864955376" fill="none" stroke-linecap="round" opacity="0.6"/><path d="M921.5674617033376 661.201024430618 Q951.7935253317676 636.4304427709819 946.9302078570057 651.6598611113459" stroke="#000819" stroke-width="2.4819760901112984" fill="none" stroke-linecap="round" opacity="0.6"/><rect x="0" y="1000" width="1920" height="80" fill="#001526" opacity="0.8"/><line x1="0" y1="1040" x2="1920" y2="1040" stroke="#118ab2" stroke-opacity="0.15" stroke-width="2" stroke-dasharray="30,20"/><rect x="0" y="930" width="1920" height="150" fill="url(#glow83)"/><text x="1900" y="1060" font-family="Arial, sans-serif" font-size="11" fill="#fff" opacity="0.08" text-anchor="end" letter-spacing="2">GTA 6 REWARDS · WALLPAPER 084</text>
</svg>