<?xml version="1.0" encoding="UTF-8"?>
<svg xmlns="http://www.w3.org/2000/svg" width="1920" height="1080" viewBox="0 0 1920 1080">
<defs>
    <linearGradient id="bg24" x1="0%" y1="0%" x2="0%" y2="100%">
      <stop offset="0%" stop-color="#26547c"/>
      <stop offset="50%" stop-color="#002149"/>
      <stop offset="100%" stop-color="#26547c"/>
    </linearGradient>
    <linearGradient id="sun24" x1="0%" y1="0%" x2="100%" y2="100%">
      <stop offset="0%" stop-color="#ffd166"/>
      <stop offset="100%" stop-color="#ef476f"/>
    </linearGradient>
    <radialGradient id="glow24" cx="50%" cy="70%" r="50%">
      <stop offset="0%" stop-color="#ffd166" stop-opacity="0.3"/>
      <stop offset="100%" stop-color="#26547c" stop-opacity="0"/>
    </radialGradient>
  </defs><rect width="1920" height="1080" fill="url(#bg24)"/><circle cx="1456.618015085491" cy="317.56423593442054" r="626.3181343037445" fill="#ffd166" opacity="0.1025155488989585"/><circle cx="1656.618015085491" cy="217.56423593442054" r="423.38742362879856" fill="#ef476f" opacity="0.07165887991470725"/><line x1="0" y1="980" x2="1920" y2="980" stroke="#ef476f" stroke-opacity="0.05" stroke-width="2"/><line x1="0" y1="935" x2="1920" y2="935" stroke="#ef476f" stroke-opacity="0.049" stroke-width="0.5"/><line x1="0" y1="890" x2="1920" y2="890" stroke="#ef476f" stroke-opacity="0.048" stroke-width="0.5"/><line x1="0" y1="845" x2="1920" y2="845" stroke="#ef476f" stroke-opacity="0.047" stroke-width="0.5"/><line x1="0" y1="800" x2="1920" y2="800" stroke="#ef476f" stroke-opacity="0.046" stroke-width="0.5"/><line x1="0" y1="755" x2="1920" y2="755" stroke="#ef476f" stroke-opacity="0.045" stroke-width="0.5"/><line x1="0" y1="710" x2="1920" y2="710" stroke="#ef476f" stroke-opacity="0.044" stroke-width="0.5"/><line x1="0" y1="665" x2="1920" y2="665" stroke="#ef476f" stroke-opacity="0.043" stroke-width="0.5"/><line x1="0" y1="620" x2="1920" y2="620" stroke="#ef476f" stroke-opacity="0.041999999999999996" stroke-width="0.5"/><line x1="0" y1="575" x2="1920" y2="575" stroke="#ef476f" stroke-opacity="0.041" stroke-width="0.5"/><line x1="0" y1="530" x2="1920" y2="530" stroke="#ef476f" stroke-opacity="0.04" stroke-width="0.5"/><line x1="0" y1="485" x2="1920" y2="485" stroke="#ef476f" stroke-opacity="0.039" stroke-width="0.5"/><line x1="0" y1="440" x2="1920" y2="440" stroke="#ef476f" stroke-opacity="0.038" stroke-width="0.5"/><line x1="0" y1="395" x2="1920" y2="395" stroke="#ef476f" stroke-opacity="0.037" stroke-width="0.5"/><line x1="0" y1="350" x2="1920" y2="350" stroke="#ef476f" stroke-opacity="0.036" stroke-width="0.5"/><line x1="0" y1="305" x2="1920" y2="305" stroke="#ef476f" stroke-opacity="0.034999999999999996" stroke-width="0.5"/><line x1="0" y1="260" x2="1920" y2="260" stroke="#ef476f" stroke-opacity="0.033999999999999996" stroke-width="0.5"/><line x1="0" y1="215" x2="1920" y2="215" stroke="#ef476f" stroke-opacity="0.033" stroke-width="0.5"/><line x1="0" y1="170" x2="1920" y2="170" stroke="#ef476f" stroke-opacity="0.032" stroke-width="0.5"/><line x1="0" y1="125" x2="1920" y2="125" stroke="#ef476f" stroke-opacity="0.031" stroke-width="0.5"/><line x1="560" y1="1080" x2="860" y2="580" stroke="#ffd166" stroke-opacity="0.04" stroke-width="1"/><line x1="640" y1="1080" x2="880" y2="590" stroke="#ffd166" stroke-opacity="0.04" stroke-width="1"/><line x1="720" y1="1080" x2="900" y2="600" stroke="#ffd166" stroke-opacity="0.04" stroke-width="1"/><line x1="800" y1="1080" x2="920" y2="610" stroke="#ffd166" stroke-opacity="0.04" stroke-width="1"/><line x1="880" y1="1080" x2="940" y2="620" stroke="#ffd166" stroke-opacity="0.04" stroke-width="1"/><line x1="960" y1="1080" x2="960" y2="630" stroke="#ffd166" stroke-opacity="0.04" stroke-width="1"/><line x1="1040" y1="1080" x2="980" y2="620" stroke="#ffd166" stroke-opacity="0.04" stroke-width="1"/><line x1="1120" y1="1080" x2="1000" y2="610" stroke="#ffd166" stroke-opacity="0.04" stroke-width="1"/><line x1="1200" y1="1080" x2="1020" y2="600" stroke="#ffd166" stroke-opacity="0.04" stroke-width="1"/><line x1="1280" y1="1080" x2="1040" y2="590" stroke="#ffd166" stroke-opacity="0.04" stroke-width="1"/><line x1="1360" y1="1080" x2="1060" y2="580" stroke="#ffd166" stroke-opacity="0.04" stroke-width="1"/><circle cx="1352.9730965041028" cy="384.9458282661964" r="78.37795621212058" fill="url(#sun24)" opacity="0.7931671683660632"/><circle cx="1352.9730965041028" cy="384.9458282661964" r="73.37795621212058" fill="#26547c" opacity="0.3"/><circle cx="841.2588055900435" cy="290.01100367727014" r="1.0392044368291284" fill="#fff" opacity="0.7625540160486832"/><circle cx="1756.694980821734" cy="220.2466818048262" r="0.9803299430013471" fill="#fff" opacity="0.6686605107199075"/><circle cx="738.8054839006637" cy="417.0391943010127" r="1.4499678272870293" fill="#fff" opacity="0.5950552660960367"/><circle cx="264.20260107708225" cy="81.52855760267204" r="1.6937749592340028" fill="#fff" opacity="0.7552148277767037"/><circle cx="1568.7249482350248" cy="83.10418011692916" r="0.8228453122598225" fill="#fff" opacity="0.6308869163111985"/><circle cx="1562.034195727211" cy="173.53645124601584" r="1.213110846167689" fill="#fff" opacity="0.239602283444163"/><circle cx="1497.195096811558" cy="364.49208240501866" r="1.1335101598253265" fill="#fff" opacity="0.49490201745529244"/><circle cx="714.3079990321556" cy="383.3820055982522" r="1.655262498454019" fill="#fff" opacity="0.599660129751931"/><circle cx="864.4558536038865" cy="140.72172206563914" r="1.4580577929639391" fill="#fff" opacity="0.28428811349074545"/><circle cx="1768.6521595364093" cy="235.25777147972437" r="1.0547430579445192" fill="#fff" opacity="0.7752362051921049"/><circle cx="1507.3316179745207" cy="315.01477431762373" r="0.5496013282215226" fill="#fff" opacity="0.7956570662082305"/><circle cx="1354.4051879817632" cy="388.315168240181" r="1.2437662310534545" fill="#fff" opacity="0.44378819513222856"/><circle cx="178.9286707758272" cy="398.97672075381894" r="1.4976745171001355" fill="#fff" opacity="0.7701897821785393"/><circle cx="507.78820764920397" cy="389.01616695267523" r="1.5986925767731603" fill="#fff" opacity="0.43127149535139825"/><circle cx="1550.720442298502" cy="48.72816399129297" r="1.9610743819412484" fill="#fff" opacity="0.37119404663592437"/><circle cx="1742.1496058586401" cy="179.52219035558454" r="0.8550343154592054" fill="#fff" opacity="0.28245163096172077"/><circle cx="1068.6549002930183" cy="112.70612487213363" r="1.7945316355429894" fill="#fff" opacity="0.4423592581977973"/><circle cx="663.2667300159267" cy="211.59529239768054" r="0.545564101088225" fill="#fff" opacity="0.5835608679297288"/><circle cx="187.04351802054873" cy="337.6263599846573" r="0.7137492042299707" fill="#fff" opacity="0.6772687319846052"/><circle cx="622.4647983867826" cy="21.255030260713546" r="0.9950807731354332" fill="#fff" opacity="0.5950697720970655"/><circle cx="528.5532752910054" cy="312.05750138127655" r="1.326096424443204" fill="#fff" opacity="0.37033507129418086"/><circle cx="562.4153227923474" cy="267.73574388672967" r="0.5918785344324723" fill="#fff" opacity="0.7684794345797226"/><circle cx="1072.984734427413" cy="218.24550718307623" r="1.9079461814621337" fill="#fff" opacity="0.3122922197711403"/><circle cx="405.5841043045707" cy="292.55157790811535" r="0.8343200744908117" fill="#fff" opacity="0.4487763985639383"/><circle cx="806.2436665981644" cy="350.36237972191594" r="0.8515513374823033" fill="#fff" opacity="0.5369237298464691"/><circle cx="929.0231338816283" cy="9.318307334864118" r="0.7126718534186184" fill="#fff" opacity="0.4606584197982816"/><circle cx="1705.6336345769544" cy="217.6918464362835" r="1.4395026153511141" fill="#fff" opacity="0.4547429856506044"/><circle cx="1062.1536547928474" cy="163.2166027732232" r="1.6105502271350822" fill="#fff" opacity="0.680240966025796"/><circle cx="1158.8838809446627" cy="175.50594488892378" r="1.8711394400734314" fill="#fff" opacity="0.5819612472276112"/><circle cx="1508.3008891875625" cy="208.74543961899946" r="1.6288833199368984" fill="#fff" opacity="0.3256161946164482"/><circle cx="168.85716412422647" cy="87.64456888838778" r="0.9452579304215633" fill="#fff" opacity="0.7585315647438475"/><circle cx="864.9255955742965" cy="284.52441122674486" r="1.495134645373359" fill="#fff" opacity="0.6392836914954902"/><circle cx="1740.1804616628635" cy="210.72219453815424" r="1.7863618039494291" fill="#fff" opacity="0.7880123476469918"/><circle cx="318.2474922384712" cy="308.3569823252868" r="0.5444312694120294" fill="#fff" opacity="0.5653612812434698"/><circle cx="890.5905333744806" cy="342.11871793636095" r="1.5056864095399358" fill="#fff" opacity="0.5613676478996332"/><rect x="28.571475036109675" y="681.1574686041934" width="38.660290750828636" height="210.59446514365135" fill="#26547c" opacity="0.4986057649130481" rx="2"/><rect x="42.142119597909534" y="691.1574686041934" width="11.51900162722892" height="8.686945114910356" fill="#ef476f" opacity="0.5635606445287262" rx="1"/><rect x="32.477046910202375" y="695.5009411616485" width="11.51900162722892" height="8.686945114910356" fill="#ffd166" opacity="0.2817803222643631" rx="1"/><rect x="42.97481230319822" y="761.3556236520772" width="9.85361621665154" height="6.564629014712905" fill="#ef476f" opacity="0.2093845068498944" rx="1"/><rect x="33.30973961549106" y="764.6379381594336" width="9.85361621665154" height="6.564629014712905" fill="#ffd166" opacity="0.1046922534249472" rx="1"/><rect x="45.76204567513476" y="831.553778699961" width="4.279149472778465" height="8.60113875442211" fill="#ef476f" opacity="0.34889679060990386" rx="1"/><rect x="36.0969729874276" y="835.8543480771721" width="4.279149472778465" height="8.60113875442211" fill="#ffd166" opacity="0.17444839530495193" rx="1"/><rect x="124.49213156348377" y="529.5026605086175" width="38.70513661501583" height="362.2492732392273" fill="#0c3a62" opacity="0.5430499427353614" rx="2"/><rect x="141.3496664055506" y="539.5026605086175" width="4.990066930882183" height="7.242636129549387" fill="#ef476f" opacity="0.5713537901340411" rx="1"/><rect x="131.67338225179665" y="543.1239785733922" width="4.990066930882183" height="7.242636129549387" fill="#ffd166" opacity="0.28567689506702054" rx="1"/><rect x="141.21861056616032" y="630.0649788184244" width="5.252178609662731" height="7.435122247188148" fill="#ef476f" opacity="0.5619615700705819" rx="1"/><rect x="131.54232641240637" y="633.7825399420185" width="5.252178609662731" height="7.435122247188148" fill="#ffd166" opacity="0.28098078503529095" rx="1"/><rect x="138.29173587758368" y="720.6272971282311" width="11.10592798681602" height="7.529187615385555" fill="#ef476f" opacity="0.4681160217076811" rx="1"/><rect x="128.61545172382972" y="724.3918909359239" width="11.10592798681602" height="7.529187615385555" fill="#ffd166" opacity="0.23405801085384054" rx="1"/><rect x="138.60700965523884" y="811.189615438038" width="10.475380431505707" height="8.557241287677838" fill="#ef476f" opacity="0.5389487287120308" rx="1"/><rect x="128.9307255014849" y="815.468236081877" width="10.475380431505707" height="8.557241287677838" fill="#ffd166" opacity="0.2694743643560154" rx="1"/><rect x="244.85680711103063" y="665.8900441755285" width="70.80701364688738" height="225.8618895723163" fill="#0c3a62" opacity="0.5674776026903366" rx="2"/><rect x="275.47978048596525" y="675.8900441755285" width="9.56106689701813" height="7.622684195084191" fill="#ef476f" opacity="0.3677152682486259" rx="1"/><rect x="257.7780270742434" y="679.7013862730706" width="9.56106689701813" height="7.622684195084191" fill="#ffd166" opacity="0.18385763412431294" rx="1"/><rect x="277.52421191859156" y="713.5336924375812" width="5.472204031765509" height="8.171333974732862" fill="#ef476f" opacity="0.3296600876677921" rx="1"/><rect x="259.82245850686974" y="717.6193594249476" width="5.472204031765509" height="8.171333974732862" fill="#ffd166" opacity="0.16483004383389604" rx="1"/><rect x="276.4845487665116" y="751.1773406996339" width="7.55153033592541" height="6.000141987577114" fill="#ef476f" opacity="0.3469590729444658" rx="1"/><rect x="258.78279535478976" y="754.1774116934224" width="7.55153033592541" height="6.000141987577114" fill="#ffd166" opacity="0.1734795364722329" rx="1"/><rect x="276.179434436648" y="788.8209889616867" width="8.161758995652608" height="6.326887584367508" fill="#ef476f" opacity="0.5558668498545575" rx="1"/><rect x="258.4776810249262" y="791.9844327538705" width="8.161758995652608" height="6.326887584367508" fill="#ffd166" opacity="0.27793342492727874" rx="1"/><rect x="275.15873057771444" y="826.4646372237394" width="10.20316671351976" height="7.054675672448863" fill="#ef476f" opacity="0.40095967378024" rx="1"/><rect x="257.4569771659926" y="829.9919750599638" width="10.20316671351976" height="7.054675672448863" fill="#ffd166" opacity="0.20047983689012" rx="1"/><rect x="277.75250665628175" y="864.1082854857921" width="5.015614556385114" height="8.245748788641242" fill="#ef476f" opacity="0.1552173116140108" rx="1"/><rect x="260.0507532445599" y="868.2311598801127" width="5.015614556385114" height="8.245748788641242" fill="#ffd166" opacity="0.0776086558070054" rx="1"/><rect x="346.4842024367499" y="706.492416771709" width="34.9540415184931" height="185.25951697613567" fill="#26547c" opacity="0.6139884689389701" rx="2"/><rect x="360.1588027368204" y="716.492416771709" width="7.604840918352092" height="6.795617005041711" fill="#ef476f" opacity="0.18092606837882802" rx="1"/><rect x="351.4202923571971" y="719.8902252742299" width="7.604840918352092" height="6.795617005041711" fill="#ffd166" opacity="0.09046303418941401" rx="1"/><rect x="359.0407696170828" y="742.9580620540141" width="9.840907157827381" height="7.596013606897559" fill="#ef476f" opacity="0.41105150045153027" rx="1"/><rect x="350.3022592374595" y="746.7560688574629" width="9.840907157827381" height="7.596013606897559" fill="#ffd166" opacity="0.20552575022576514" rx="1"/><rect x="358.358683125898" y="769.4237073363192" width="11.20508014019697" height="6.271662351738583" fill="#ef476f" opacity="0.10294011179426223" rx="1"/><rect x="349.6201727462747" y="772.5595385121885" width="11.20508014019697" height="6.271662351738583" fill="#ffd166" opacity="0.05147005589713111" rx="1"/><rect x="361.86771692216115" y="795.8893526186243" width="4.1870125476706335" height="8.378290441440951" fill="#ef476f" opacity="0.25105933513284184" rx="1"/><rect x="353.1292065425379" y="800.0784978393448" width="4.1870125476706335" height="8.378290441440951" fill="#ffd166" opacity="0.12552966756642092" rx="1"/><rect x="361.139467245466" y="822.3549979009294" width="5.643511901060937" height="9.96125354616932" fill="#ef476f" opacity="0.5369059895251194" rx="1"/><rect x="352.4009568658427" y="827.3356246740141" width="5.643511901060937" height="9.96125354616932" fill="#ffd166" opacity="0.2684529947625597" rx="1"/><rect x="358.03116907808726" y="848.8206431832346" width="11.860108235818359" height="8.88631416645048" fill="#ef476f" opacity="0.2179478171090474" rx="1"/><rect x="349.29265869846404" y="853.2638002664598" width="11.860108235818359" height="8.88631416645048" fill="#ffd166" opacity="0.1089739085545237" rx="1"/><rect x="361.8882150507738" y="875.2862884655397" width="4.14601629044535" height="6.924420768610299" fill="#ef476f" opacity="0.3791693910907883" rx="1"/><rect x="353.1497046711505" y="878.7484988498449" width="4.14601629044535" height="6.924420768610299" fill="#ffd166" opacity="0.18958469554539414" rx="1"/><rect x="463.6625691930909" y="684.8518357344092" width="46.483520995006785" height="206.90009801343552" fill="#26547c" opacity="0.4643890946089265" rx="2"/><rect x="483.8449334494874" y="694.8518357344092" width="6.118792482213767" height="6.839493853235499" fill="#ef476f" opacity="0.5658438069666373" rx="1"/><rect x="472.22405320073574" y="698.271582661027" width="6.118792482213767" height="6.839493853235499" fill="#ffd166" opacity="0.28292190348331864" rx="1"/><rect x="481.8048830141325" y="746.5768602377681" width="10.198893352923658" height="6.466702326309565" fill="#ef476f" opacity="0.10228032434877948" rx="1"/><rect x="470.1840027653808" y="749.8102114009229" width="10.198893352923658" height="6.466702326309565" fill="#ffd166" opacity="0.05114016217438974" rx="1"/><rect x="484.55721999368564" y="798.301884741127" width="4.694219393817294" height="7.9424247317813395" fill="#ef476f" opacity="0.376677770837368" rx="1"/><rect x="472.93633974493395" y="802.2730971070176" width="4.694219393817294" height="7.9424247317813395" fill="#ffd166" opacity="0.188338885418684" rx="1"/><rect x="481.76378007111225" y="850.0269092444858" width="10.281099238964053" height="6.002465131693162" fill="#ef476f" opacity="0.21833338779824168" rx="1"/><rect x="470.14289982236056" y="853.0281418103324" width="10.281099238964053" height="6.002465131693162" fill="#ffd166" opacity="0.10916669389912084" rx="1"/><rect x="588.0792007777094" y="699.5620854430744" width="47.39051477922837" height="192.1898483047704" fill="#0c3a62" opacity="0.6343684161394761" rx="2"/><rect x="608.003186955816" y="709.5620854430744" width="7.542542423015121" height="9.449924076779261" fill="#ef476f" opacity="0.14406342970767605" rx="1"/><rect x="596.1555582610089" y="714.287047481464" width="7.542542423015121" height="9.449924076779261" fill="#ffd166" opacity="0.07203171485383802" rx="1"/><rect x="608.1284417945726" y="737.0177780580416" width="7.292032745501965" height="6.184132968118445" fill="#ef476f" opacity="0.14310299550255365" rx="1"/><rect x="596.2808130997655" y="740.1098445421009" width="7.292032745501965" height="6.184132968118445" fill="#ffd166" opacity="0.07155149775127682" rx="1"/><rect x="605.7771287217683" y="764.4734706730087" width="11.994658891110369" height="6.139866001005253" fill="#ef476f" opacity="0.5640763869891121" rx="1"/><rect x="593.9295000269613" y="767.5434036735113" width="11.994658891110369" height="6.139866001005253" fill="#ffd166" opacity="0.28203819349455606" rx="1"/><rect x="606.1244372756046" y="791.9291632879759" width="11.300041783438074" height="8.061168931904522" fill="#ef476f" opacity="0.13185014427449793" rx="1"/><rect x="594.2768085807975" y="795.9597477539282" width="11.300041783438074" height="8.061168931904522" fill="#ffd166" opacity="0.06592507213724896" rx="1"/><rect x="609.4752406013374" y="819.3848559029432" width="4.598435131972291" height="9.338134255106127" fill="#ef476f" opacity="0.38217352293016704" rx="1"/><rect x="597.6276119065303" y="824.0539230304962" width="4.598435131972291" height="9.338134255106127" fill="#ffd166" opacity="0.19108676146508352" rx="1"/><rect x="606.7553863715743" y="846.8405485179103" width="10.038143591498525" height="6.5288052057215955" fill="#ef476f" opacity="0.4390385356822607" rx="1"/><rect x="594.9077576767672" y="850.104951120771" width="10.038143591498525" height="6.5288052057215955" fill="#ffd166" opacity="0.21951926784113035" rx="1"/><rect x="607.2494050055393" y="874.2962411328775" width="9.050106323568642" height="8.672761286299853" fill="#ef476f" opacity="0.5423340847581472" rx="1"/><rect x="595.4017763107322" y="878.6326217760275" width="9.050106323568642" height="8.672761286299853" fill="#ffd166" opacity="0.2711670423790736" rx="1"/><rect x="695.5831513380593" y="554.3672636976389" width="80.92008211904206" height="337.3846700502058" fill="#26547c" opacity="0.6234078761943169" rx="2"/><rect x="733.5291964799467" y="564.3672636976389" width="5.027991835267281" height="6.7499065913143355" fill="#ef476f" opacity="0.41024128927622017" rx="1"/><rect x="713.2991759501862" y="567.7422169932961" width="5.027991835267281" height="6.7499065913143355" fill="#ffd166" opacity="0.20512064463811008" rx="1"/><rect x="731.505059233053" y="631.8441977076801" width="9.076266329054782" height="7.482379376302096" fill="#ef476f" opacity="0.34352712678805164" rx="1"/><rect x="711.2750387032925" y="635.5853873958312" width="9.076266329054782" height="7.482379376302096" fill="#ffd166" opacity="0.17176356339402582" rx="1"/><rect x="733.335216428697" y="699.3211317177213" width="5.415951937766734" height="6.132330160618837" fill="#ef476f" opacity="0.2644946259130944" rx="1"/><rect x="713.1051958989365" y="702.3872967980308" width="5.415951937766734" height="6.132330160618837" fill="#ffd166" opacity="0.1322473129565472" rx="1"/><rect x="730.490141430751" y="766.7980657277624" width="11.106101933658612" height="7.191593040989617" fill="#ef476f" opacity="0.12741047449582502" rx="1"/><rect x="710.2601209009905" y="770.3938622482572" width="11.106101933658612" height="7.191593040989617" fill="#ffd166" opacity="0.06370523724791251" rx="1"/><rect x="731.4587584986489" y="834.2749997378036" width="9.16886779786294" height="6.420418541045025" fill="#ef476f" opacity="0.5350674722658162" rx="1"/><rect x="711.2287379688884" y="837.4852090083261" width="9.16886779786294" height="6.420418541045025" fill="#ffd166" opacity="0.2675337361329081" rx="1"/><rect x="816.8790930339319" y="663.2137796755912" width="73.82847899194539" height="228.53815407225355" fill="#0c3a62" opacity="0.6133309576691434" rx="2"/><rect x="850.2304317767802" y="673.2137796755912" width="7.125801506248722" height="7.30993162126046" fill="#ef476f" opacity="0.15249510252673532" rx="1"/><rect x="831.7733120287938" y="676.8687454862214" width="7.125801506248722" height="7.30993162126046" fill="#ffd166" opacity="0.07624755126336766" rx="1"/><rect x="850.5172594090731" y="701.781048934623" width="6.552146241663058" height="8.657519120410438" fill="#ef476f" opacity="0.1558692426550829" rx="1"/><rect x="832.0601396610867" y="706.1098084948281" width="6.552146241663058" height="8.657519120410438" fill="#ffd166" opacity="0.07793462132754145" rx="1"/><rect x="851.4967804584877" y="730.3483181936547" width="4.5931041428337585" height="7.5178426367970745" fill="#ef476f" opacity="0.3808802378785052" rx="1"/><rect x="833.0396607105014" y="734.1072395120532" width="4.5931041428337585" height="7.5178426367970745" fill="#ffd166" opacity="0.1904401189392526" rx="1"/><rect x="848.5409998743656" y="758.9155874526863" width="10.504665311077765" height="8.75534314074445" fill="#ef476f" opacity="0.5110078349269479" rx="1"/><rect x="830.0838801263793" y="763.2932590230585" width="10.504665311077765" height="8.75534314074445" fill="#ffd166" opacity="0.25550391746347395" rx="1"/><rect x="851.7683082499467" y="787.482856711718" width="4.050048559915751" height="8.810128207041446" fill="#ef476f" opacity="0.4040861123716659" rx="1"/><rect x="833.3111885019604" y="791.8879208152388" width="4.050048559915751" height="8.810128207041446" fill="#ffd166" opacity="0.20204305618583296" rx="1"/><rect x="851.6930511255499" y="816.0501259707497" width="4.20056280870935" height="8.104343954963689" fill="#ef476f" opacity="0.3126972430182382" rx="1"/><rect x="833.2359313775636" y="820.1022979482316" width="4.20056280870935" height="8.104343954963689" fill="#ffd166" opacity="0.1563486215091191" rx="1"/><rect x="848.8608378404426" y="844.6173952297814" width="9.86498937892378" height="8.825121833669282" fill="#ef476f" opacity="0.5626562576654033" rx="1"/><rect x="830.4037180924563" y="849.0299561466161" width="9.86498937892378" height="8.825121833669282" fill="#ffd166" opacity="0.28132812883270164" rx="1"/><rect x="849.5008080109257" y="873.184664488813" width="8.585049037957809" height="6.371668025937786" fill="#ef476f" opacity="0.10947305909578528" rx="1"/><rect x="831.0436882629393" y="876.370498501782" width="8.585049037957809" height="6.371668025937786" fill="#ffd166" opacity="0.05473652954789264" rx="1"/><rect x="916.9045960430299" y="768.8797932511382" width="32.26740582433236" height="122.87214049670662" fill="#0c3a62" opacity="0.645799375382671" rx="2"/><rect x="928.347299635724" y="778.8797932511382" width="9.381998638944236" height="9.196762488967916" fill="#ef476f" opacity="0.34715334625149924" rx="1"/><rect x="920.2804481796409" y="783.478174495622" width="9.381998638944236" height="9.196762488967916" fill="#ffd166" opacity="0.17357667312574962" rx="1"/><rect x="930.6457588951209" y="803.4542213504794" width="4.785080120150251" height="9.331711485826343" fill="#ef476f" opacity="0.37272852726111383" rx="1"/><rect x="922.5789074390378" y="808.1200770933926" width="4.785080120150251" height="9.331711485826343" fill="#ffd166" opacity="0.18636426363055691" rx="1"/><rect x="930.0592886915102" y="828.0286494498208" width="5.9580205273716755" height="9.874151871510351" fill="#ef476f" opacity="0.40489690504150855" rx="1"/><rect x="921.9924372354271" y="832.965725385576" width="5.9580205273716755" height="9.874151871510351" fill="#ffd166" opacity="0.20244845252075427" rx="1"/><rect x="929.5181133929915" y="852.6030775491621" width="7.0403711244092255" height="9.332605170861958" fill="#ef476f" opacity="0.38976294114016063" rx="1"/><rect x="921.4512619369084" y="857.2693801345931" width="7.0403711244092255" height="9.332605170861958" fill="#ffd166" opacity="0.19488147057008032" rx="1"/><rect x="928.4665955811428" y="877.1775056485035" width="9.143406748106564" height="9.273811074736019" fill="#ef476f" opacity="0.47585867985055286" rx="1"/><rect x="920.3997441250597" y="881.8144111858714" width="9.143406748106564" height="9.273811074736019" fill="#ffd166" opacity="0.23792933992527643" rx="1"/><rect x="1021.459951296323" y="799.9042352894098" width="83.43668867215438" height="91.84769845843495" fill="#26547c" opacity="0.44962716990840323" rx="2"/><rect x="1061.132729961102" y="809.9042352894098" width="4.091131342596173" height="8.649968281073955" fill="#ef476f" opacity="0.5480136487279119" rx="1"/><rect x="1040.2735577930634" y="814.2292194299469" width="4.091131342596173" height="8.649968281073955" fill="#ffd166" opacity="0.27400682436395596" rx="1"/><rect x="1059.9197022609692" y="840.5201347755548" width="6.517186742862032" height="9.295955804012706" fill="#ef476f" opacity="0.42382086089901183" rx="1"/><rect x="1039.0605300929305" y="845.1681126775611" width="6.517186742862032" height="9.295955804012706" fill="#ffd166" opacity="0.21191043044950592" rx="1"/><rect x="1060.712661348682" y="871.1360342616998" width="4.931268567436204" height="9.837993852756451" fill="#ef476f" opacity="0.48058538347961977" rx="1"/><rect x="1039.8534891806435" y="876.055031188078" width="4.931268567436204" height="9.837993852756451" fill="#ffd166" opacity="0.24029269173980988" rx="1"/><rect x="1131.3666414426098" y="765.4625838774868" width="66.66328764442898" height="126.28934987035797" fill="#26547c" opacity="0.5220458343909229" rx="2"/><rect x="1162.5456477458465" y="775.4625838774868" width="4.30527503795579" height="8.034400034238212" fill="#ef476f" opacity="0.44001423729118294" rx="1"/><rect x="1145.8798258347392" y="779.4797838946059" width="4.30527503795579" height="8.034400034238212" fill="#ffd166" opacity="0.22000711864559147" rx="1"/><rect x="1158.8025695485537" y="793.5039195732522" width="11.791431432541327" height="7.829193502159136" fill="#ef476f" opacity="0.22642932872437624" rx="1"/><rect x="1142.1367476374464" y="797.4185163243318" width="11.791431432541327" height="7.829193502159136" fill="#ffd166" opacity="0.11321466436218812" rx="1"/><rect x="1161.689027615518" y="811.5452552690177" width="6.018515298613002" height="7.264525671783957" fill="#ef476f" opacity="0.21642098569227872" rx="1"/><rect x="1145.0232057044107" y="815.1775181049097" width="6.018515298613002" height="7.264525671783957" fill="#ffd166" opacity="0.10821049284613936" rx="1"/><rect x="1159.9689689448498" y="829.5865909647831" width="9.458632639948892" height="8.307013258875118" fill="#ef476f" opacity="0.4613968509858001" rx="1"/><rect x="1143.3031470337426" y="833.7400975942206" width="9.458632639948892" height="8.307013258875118" fill="#ffd166" opacity="0.23069842549290004" rx="1"/><rect x="1159.8622763894646" y="847.6279266605485" width="9.672017750719565" height="9.030983400305496" fill="#ef476f" opacity="0.20831499649405363" rx="1"/><rect x="1143.1964544783573" y="852.1434183607013" width="9.672017750719565" height="9.030983400305496" fill="#ffd166" opacity="0.10415749824702682" rx="1"/><rect x="1160.2319084734731" y="865.669262356314" width="8.932753582702194" height="9.545734306691617" fill="#ef476f" opacity="0.21567551587141948" rx="1"/><rect x="1143.5660865623659" y="870.4421295096598" width="8.932753582702194" height="9.545734306691617" fill="#ffd166" opacity="0.10783775793570974" rx="1"/><rect x="1162.6792307784035" y="883.7105980520794" width="4.038108972841433" height="9.816276902290126" fill="#ef476f" opacity="0.5719906004546188" rx="1"/><rect x="1146.0134088672962" y="888.6187365032245" width="4.038108972841433" height="9.816276902290126" fill="#ffd166" opacity="0.2859953002273094" rx="1"/><rect x="1244.6796463603807" y="616.8312197590319" width="68.76851931651322" height="274.92071398881285" fill="#26547c" opacity="0.5105835856428798" rx="2"/><rect x="1274.9041060632803" y="626.8312197590319" width="8.319599910713638" height="7.412527515881818" fill="#ef476f" opacity="0.36546264620625013" rx="1"/><rect x="1257.7119762341522" y="630.5374835169728" width="8.319599910713638" height="7.412527515881818" fill="#ffd166" opacity="0.18273132310312507" rx="1"/><rect x="1276.9171716542724" y="661.1963090076335" width="4.293468728729866" height="6.105649075495463" fill="#ef476f" opacity="0.25949106511182407" rx="1"/><rect x="1259.7250418251442" y="664.2491335453813" width="4.293468728729866" height="6.105649075495463" fill="#ffd166" opacity="0.12974553255591204" rx="1"/><rect x="1273.2570828917105" y="695.5613982562352" width="11.613646253853489" height="9.490367039919452" fill="#ef476f" opacity="0.5861558774686781" rx="1"/><rect x="1256.0649530625824" y="700.3065817761949" width="11.613646253853489" height="9.490367039919452" fill="#ffd166" opacity="0.29307793873433907" rx="1"/><rect x="1274.3209697579316" y="729.9264875048367" width="9.485872521411132" height="6.927169064275727" fill="#ef476f" opacity="0.47853302547674004" rx="1"/><rect x="1257.1288399288035" y="733.3900720369745" width="9.485872521411132" height="6.927169064275727" fill="#ffd166" opacity="0.23926651273837002" rx="1"/><rect x="1274.863768143082" y="764.2915767534383" width="8.40027575111023" height="9.273361003788505" fill="#ef476f" opacity="0.5948867101908863" rx="1"/><rect x="1257.671638313954" y="768.9282572553326" width="8.40027575111023" height="9.273361003788505" fill="#ffd166" opacity="0.2974433550954432" rx="1"/><rect x="1275.8795498718694" y="798.65666600204" width="6.368712293535637" height="9.365782961101687" fill="#ef476f" opacity="0.24143360630642474" rx="1"/><rect x="1258.6874200427412" y="803.3395574825909" width="6.368712293535637" height="9.365782961101687" fill="#ffd166" opacity="0.12071680315321237" rx="1"/><rect x="1275.493577755637" y="833.0217552506415" width="7.140656526000392" height="7.928340536059891" fill="#ef476f" opacity="0.44724922055547345" rx="1"/><rect x="1258.301447926509" y="836.9859255186715" width="7.140656526000392" height="7.928340536059891" fill="#ffd166" opacity="0.22362461027773672" rx="1"/><rect x="1275.0216148416564" y="867.3868444992431" width="8.084582353961789" height="7.823552058502927" fill="#ef476f" opacity="0.2932464231954064" rx="1"/><rect x="1257.8294850125283" y="871.2986205284946" width="8.084582353961789" height="7.823552058502927" fill="#ffd166" opacity="0.1466232115977032" rx="1"/><rect x="1378.4573514569686" y="511.7842181147505" width="54.13650760523428" height="379.96771563309426" fill="#0c3a62" opacity="0.6772219479030981" rx="2"/><rect x="1403.398599287588" y="521.7842181147505" width="4.25401194399549" height="9.502437443356598" fill="#ef476f" opacity="0.18010435420556561" rx="1"/><rect x="1389.8644723862794" y="526.5354368364287" width="4.25401194399549" height="9.502437443356598" fill="#ffd166" opacity="0.09005217710278281" rx="1"/><rect x="1401.3884372148639" y="597.7777612413694" width="8.27433608944396" height="8.569306361155888" fill="#ef476f" opacity="0.4880551993819082" rx="1"/><rect x="1387.8543103135553" y="602.0624144219473" width="8.27433608944396" height="8.569306361155888" fill="#ffd166" opacity="0.2440275996909541" rx="1"/><rect x="1400.3144694057562" y="673.7713043679883" width="10.422271707659185" height="7.758081374167949" fill="#ef476f" opacity="0.5326527621440247" rx="1"/><rect x="1386.7803425044476" y="677.6503450550722" width="10.422271707659185" height="7.758081374167949" fill="#ffd166" opacity="0.26632638107201234" rx="1"/><rect x="1399.8985014951088" y="749.764847494607" width="11.254207528953955" height="6.045176328170387" fill="#ef476f" opacity="0.5794649643542862" rx="1"/><rect x="1386.3643745938002" y="752.7874356586922" width="11.254207528953955" height="6.045176328170387" fill="#ffd166" opacity="0.2897324821771431" rx="1"/><rect x="1401.8963108376827" y="825.7583906212259" width="7.258588843806319" height="9.670528734026135" fill="#ef476f" opacity="0.4996520892017642" rx="1"/><rect x="1388.362183936374" y="830.593654988239" width="7.258588843806319" height="9.670528734026135" fill="#ffd166" opacity="0.2498260446008821" rx="1"/><rect x="1472.1453931001352" y="603.7639675205024" width="71.21001140242674" height="287.9879662273423" fill="#0c3a62" opacity="0.6637897608018922" rx="2"/><rect x="1504.2905661122152" y="613.7639675205024" width="6.919665378266868" height="8.95547071261226" fill="#ef476f" opacity="0.5569382488161647" rx="1"/><rect x="1486.4880632616084" y="618.2417028768085" width="6.919665378266868" height="8.95547071261226" fill="#ffd166" opacity="0.27846912440808236" rx="1"/><rect x="1503.5561265052659" y="709.7599562629499" width="8.388544592165516" height="9.151808512199626" fill="#ef476f" opacity="0.5498881369246841" rx="1"/><rect x="1485.7536236546591" y="714.3358605190497" width="8.388544592165516" height="9.151808512199626" fill="#ffd166" opacity="0.27494406846234204" rx="1"/><rect x="1503.1809105063278" y="805.7559450053973" width="9.138976590041764" height="6.885533939321882" fill="#ef476f" opacity="0.16484354719632388" rx="1"/><rect x="1485.378407655721" y="809.1987119750582" width="9.138976590041764" height="6.885533939321882" fill="#ffd166" opacity="0.08242177359816194" rx="1"/><rect x="1603.3237946553443" y="734.371656233997" width="39.085093301042235" height="157.38027751384777" fill="#0c3a62" opacity="0.6499825694481802" rx="2"/><rect x="1619.1449996601195" y="744.371656233997" width="7.442683291491746" height="7.281262532174881" fill="#ef476f" opacity="0.4763995384509674" rx="1"/><rect x="1609.373726334859" y="748.0122875000844" width="7.442683291491746" height="7.281262532174881" fill="#ffd166" opacity="0.2381997692254837" rx="1"/><rect x="1620.089487082113" y="796.8317487386129" width="5.553708447505186" height="8.662950769686827" fill="#ef476f" opacity="0.5113857059067548" rx="1"/><rect x="1610.3182137568524" y="801.1632241234563" width="5.553708447505186" height="8.662950769686827" fill="#ffd166" opacity="0.2556928529533774" rx="1"/><rect x="1620.0403008235246" y="849.2918412432289" width="5.652080964681711" height="7.246523501641705" fill="#ef476f" opacity="0.16337201992593986" rx="1"/><rect x="1610.269027498264" y="852.9151029940497" width="5.652080964681711" height="7.246523501641705" fill="#ffd166" opacity="0.08168600996296993" rx="1"/><rect x="1710.9449334700928" y="808.8344950016668" width="33.12155711537263" height="82.91743874617792" fill="#26547c" opacity="0.47128120285255864" rx="2"/><rect x="1725.0909067690582" y="818.8344950016668" width="4.82961051744167" height="7.775853098783608" fill="#ef476f" opacity="0.4536267076510998" rx="1"/><rect x="1716.810517490215" y="822.7224215510586" width="4.82961051744167" height="7.775853098783608" fill="#ffd166" opacity="0.2268133538255499" rx="1"/><rect x="1723.7873918802445" y="846.4736412503928" width="7.436640295068882" height="8.686124032057386" fill="#ef476f" opacity="0.3577102423547093" rx="1"/><rect x="1715.5070026014014" y="850.8167032664215" width="7.436640295068882" height="8.686124032057386" fill="#ffd166" opacity="0.17885512117735464" rx="1"/><rect x="1724.125395152514" y="874.1127874991188" width="6.760633750530108" height="6.479358134902864" fill="#ef476f" opacity="0.4544823412910296" rx="1"/><rect x="1715.845005873671" y="877.3524665665702" width="6.760633750530108" height="6.479358134902864" fill="#ffd166" opacity="0.2272411706455148" rx="1"/><rect x="1825.2468313149286" y="774.3245004150841" width="82.76001366152428" height="117.42743333276069" fill="#26547c" opacity="0.4051532856433544" rx="2"/><rect x="1862.409619437859" y="784.3245004150841" width="8.43443741566372" height="9.398144567245186" fill="#ef476f" opacity="0.25461795629342504" rx="1"/><rect x="1841.719616022478" y="789.0235726987067" width="8.43443741566372" height="9.398144567245186" fill="#ffd166" opacity="0.12730897814671252" rx="1"/><rect x="1864.1570170007546" y="813.6813587482743" width="4.939642289872198" height="8.838970038769528" fill="#ef476f" opacity="0.5561644276734824" rx="1"/><rect x="1843.4670135853737" y="818.1008437676591" width="4.939642289872198" height="8.838970038769528" fill="#ffd166" opacity="0.2780822138367412" rx="1"/><rect x="1863.4291744535858" y="843.0382170814645" width="6.395327384210034" height="7.355470946374226" fill="#ef476f" opacity="0.3052181765216445" rx="1"/><rect x="1842.7391710382049" y="846.7159525546516" width="6.395327384210034" height="7.355470946374226" fill="#ffd166" opacity="0.15260908826082226" rx="1"/><rect x="1863.3158690878927" y="872.3950754146547" width="6.621938115596292" height="6.657972010937047" fill="#ef476f" opacity="0.14227112222981433" rx="1"/><rect x="1842.6258656725117" y="875.7240614201232" width="6.621938115596292" height="6.657972010937047" fill="#ffd166" opacity="0.07113556111490717" rx="1"/><path d="M212.8401232261304 869.212501023247 Q201.87879788267398 789.6319981291033 199.6865328139827 710.0514952349596" stroke="#00072f" stroke-width="4.364788294854757" fill="none" stroke-linecap="round"/><path d="M199.6865328139827 710.0514952349596 Q242.5012939564188 690.0514952349596 267.1397187875443 710.0514952349596" stroke="#002149" stroke-width="2.1859727292754623" fill="none" stroke-linecap="round" opacity="0.6"/><path d="M199.6865328139827 710.0514952349596 Q236.12613944183826 697.8281875347941 241.03123389828042 725.6048798346285" stroke="#002149" stroke-width="3.824039568617949" fill="none" stroke-linecap="round" opacity="0.6"/><path d="M199.6865328139827 710.0514952349596 Q206.51682971485002 699.9232169356387 184.66549241947837 729.7949386363179" stroke="#002149" stroke-width="2.5106822779659836" fill="none" stroke-linecap="round" opacity="0.6"/><path d="M199.6865328139827 710.0514952349596 Q183.36904618810556 692.7546852217669 162.26498716994666 715.4578752085741" stroke="#002149" stroke-width="2.314424449185474" fill="none" stroke-linecap="round" opacity="0.6"/><path d="M199.6865328139827 710.0514952349596 Q170.20142681830202 685.0460449532458 130.3937020842638 700.040594671532" stroke="#002149" stroke-width="2.132473969397245" fill="none" stroke-linecap="round" opacity="0.6"/><path d="M199.6865328139827 710.0514952349596 Q206.3405430149408 680.9293318252957 185.8060376768068 691.8071684156317" stroke="#002149" stroke-width="3.6023099188698247" fill="none" stroke-linecap="round" opacity="0.6"/><path d="M1000.5239638035474 948.461231740299 Q1010.0395444571133 825.328098633403 1011.9426605878264 702.1949655265071" stroke="#00072f" stroke-width="7.042183168009432" fill="none" stroke-linecap="round"/><path d="M1011.9426605878264 702.1949655265071 Q1036.2549742942801 682.1949655265071 1047.1877806440898 702.1949655265071" stroke="#002149" stroke-width="3.0356663523790584" fill="none" stroke-linecap="round" opacity="0.6"/><path d="M1011.9426605878264 702.1949655265071 Q1048.0458491308075 688.3346266739345 1044.58410313335 714.4742878213618" stroke="#002149" stroke-width="2.425323749991442" fill="none" stroke-linecap="round" opacity="0.6"/><path d="M1011.9426605878264 702.1949655265071 Q1011.1610639188607 687.4720059212548 1003.9129936931971 712.7490463160026" stroke="#002149" stroke-width="3.2006956914441416" fill="none" stroke-linecap="round" opacity="0.6"/><path d="M1011.9426605878264 702.1949655265071 Q1008.0907512844592 684.4212624394598 981.1229727553637 706.6475593524126" stroke="#002149" stroke-width="2.8135969491707153" fill="none" stroke-linecap="round" opacity="0.6"/><path d="M1011.9426605878264 702.1949655265071 Q1007.286838990732 678.9355502757863 966.8210238649211 695.6761350250656" stroke="#002149" stroke-width="2.1936996514428637" fill="none" stroke-linecap="round" opacity="0.6"/><path d="M1011.9426605878264 702.1949655265071 Q1012.719025230754 677.7710445163757 1005.2111199092932 693.3471235062443" stroke="#002149" stroke-width="3.2640138657912647" fill="none" stroke-linecap="round" opacity="0.6"/><path d="M1011.9426605878264 702.1949655265071 Q1031.797266672096 676.4762966505753 1042.3459022437307 690.7576277746434" stroke="#002149" stroke-width="3.439943777732538" fill="none" stroke-linecap="round" opacity="0.6"/><rect x="0" y="1000" width="1920" height="80" fill="#002e56" opacity="0.8"/><line x1="0" y1="1040" x2="1920" y2="1040" stroke="#ef476f" stroke-opacity="0.15" stroke-width="2" stroke-dasharray="30,20"/><rect x="0" y="930" width="1920" height="150" fill="url(#glow24)"/><text x="1900" y="1060" font-family="Arial, sans-serif" font-size="11" fill="#fff" opacity="0.08" text-anchor="end" letter-spacing="2">GTA 6 REWARDS · WALLPAPER 025</text>
</svg>