<?xml version="1.0" encoding="UTF-8"?>
<svg xmlns="http://www.w3.org/2000/svg" width="1920" height="1080" viewBox="0 0 1920 1080">
<defs>
    <linearGradient id="bg63" x1="0%" y1="0%" x2="0%" y2="100%">
      <stop offset="0%" stop-color="#073b4c"/>
      <stop offset="50%" stop-color="#000819"/>
      <stop offset="100%" stop-color="#073b4c"/>
    </linearGradient>
    <linearGradient id="sun63" x1="0%" y1="0%" x2="100%" y2="100%">
      <stop offset="0%" stop-color="#06d6a0"/>
      <stop offset="100%" stop-color="#118ab2"/>
    </linearGradient>
    <radialGradient id="glow63" cx="50%" cy="70%" r="50%">
      <stop offset="0%" stop-color="#06d6a0" stop-opacity="0.3"/>
      <stop offset="100%" stop-color="#073b4c" stop-opacity="0"/>
    </radialGradient>
  </defs><rect width="1920" height="1080" fill="url(#bg63)"/><circle cx="397.70065250287314" cy="312.95153287075266" r="615.6793979033081" fill="#06d6a0" opacity="0.08970632493489104"/><circle cx="597.7006525028731" cy="212.95153287075266" r="568.6008606964258" fill="#118ab2" opacity="0.07278937018075711"/><line x1="0" y1="980" x2="1920" y2="980" stroke="#118ab2" stroke-opacity="0.05" stroke-width="2"/><line x1="0" y1="935" x2="1920" y2="935" stroke="#118ab2" stroke-opacity="0.049" stroke-width="0.5"/><line x1="0" y1="890" x2="1920" y2="890" stroke="#118ab2" stroke-opacity="0.048" stroke-width="0.5"/><line x1="0" y1="845" x2="1920" y2="845" stroke="#118ab2" stroke-opacity="0.047" stroke-width="0.5"/><line x1="0" y1="800" x2="1920" y2="800" stroke="#118ab2" stroke-opacity="0.046" stroke-width="0.5"/><line x1="0" y1="755" x2="1920" y2="755" stroke="#118ab2" stroke-opacity="0.045" stroke-width="0.5"/><line x1="0" y1="710" x2="1920" y2="710" stroke="#118ab2" stroke-opacity="0.044" stroke-width="0.5"/><line x1="0" y1="665" x2="1920" y2="665" stroke="#118ab2" stroke-opacity="0.043" stroke-width="0.5"/><line x1="0" y1="620" x2="1920" y2="620" stroke="#118ab2" stroke-opacity="0.041999999999999996" stroke-width="0.5"/><line x1="0" y1="575" x2="1920" y2="575" stroke="#118ab2" stroke-opacity="0.041" stroke-width="0.5"/><line x1="0" y1="530" x2="1920" y2="530" stroke="#118ab2" stroke-opacity="0.04" stroke-width="0.5"/><line x1="0" y1="485" x2="1920" y2="485" stroke="#118ab2" stroke-opacity="0.039" stroke-width="0.5"/><line x1="0" y1="440" x2="1920" y2="440" stroke="#118ab2" stroke-opacity="0.038" stroke-width="0.5"/><line x1="0" y1="395" x2="1920" y2="395" stroke="#118ab2" stroke-opacity="0.037" stroke-width="0.5"/><line x1="0" y1="350" x2="1920" y2="350" stroke="#118ab2" stroke-opacity="0.036" stroke-width="0.5"/><line x1="0" y1="305" x2="1920" y2="305" stroke="#118ab2" stroke-opacity="0.034999999999999996" stroke-width="0.5"/><line x1="0" y1="260" x2="1920" y2="260" stroke="#118ab2" stroke-opacity="0.033999999999999996" stroke-width="0.5"/><line x1="0" y1="215" x2="1920" y2="215" stroke="#118ab2" stroke-opacity="0.033" stroke-width="0.5"/><line x1="0" y1="170" x2="1920" y2="170" stroke="#118ab2" stroke-opacity="0.032" stroke-width="0.5"/><line x1="0" y1="125" x2="1920" y2="125" stroke="#118ab2" stroke-opacity="0.031" stroke-width="0.5"/><line x1="560" y1="1080" x2="860" y2="580" stroke="#06d6a0" stroke-opacity="0.04" stroke-width="1"/><line x1="640" y1="1080" x2="880" y2="590" stroke="#06d6a0" stroke-opacity="0.04" stroke-width="1"/><line x1="720" y1="1080" x2="900" y2="600" stroke="#06d6a0" stroke-opacity="0.04" stroke-width="1"/><line x1="800" y1="1080" x2="920" y2="610" stroke="#06d6a0" stroke-opacity="0.04" stroke-width="1"/><line x1="880" y1="1080" x2="940" y2="620" stroke="#06d6a0" stroke-opacity="0.04" stroke-width="1"/><line x1="960" y1="1080" x2="960" y2="630" stroke="#06d6a0" stroke-opacity="0.04" stroke-width="1"/><line x1="1040" y1="1080" x2="980" y2="620" stroke="#06d6a0" stroke-opacity="0.04" stroke-width="1"/><line x1="1120" y1="1080" x2="1000" y2="610" stroke="#06d6a0" stroke-opacity="0.04" stroke-width="1"/><line x1="1200" y1="1080" x2="1020" y2="600" stroke="#06d6a0" stroke-opacity="0.04" stroke-width="1"/><line x1="1280" y1="1080" x2="1040" y2="590" stroke="#06d6a0" stroke-opacity="0.04" stroke-width="1"/><line x1="1360" y1="1080" x2="1060" y2="580" stroke="#06d6a0" stroke-opacity="0.04" stroke-width="1"/><circle cx="1094.9557326722322" cy="210.1987802563698" r="86.48278357146373" fill="url(#sun63)" opacity="0.6154855835753227"/><circle cx="1094.9557326722322" cy="210.1987802563698" r="81.48278357146373" fill="#073b4c" opacity="0.3"/><circle cx="1735.1596283482293" cy="199.66485358580593" r="1.0013449455148877" fill="#fff" opacity="0.546691615215198"/><circle cx="1486.237013686038" cy="55.84768552515834" r="0.532439442591844" fill="#fff" opacity="0.7669274894443636"/><circle cx="1053.727344519861" cy="89.60342579558572" r="0.6371950501662668" fill="#fff" opacity="0.5798360001714518"/><circle cx="104.20296775740641" cy="218.3548920253187" r="1.8889757182656266" fill="#fff" opacity="0.7118206456563949"/><circle cx="1873.7486202907162" cy="279.41602100977116" r="1.178709664540065" fill="#fff" opacity="0.5316503222406959"/><circle cx="1743.1027493959066" cy="425.8071700804418" r="0.7448235913749839" fill="#fff" opacity="0.6052999656659783"/><circle cx="1589.7802885597991" cy="393.15923701812494" r="1.7568495328903313" fill="#fff" opacity="0.672423268312687"/><circle cx="1667.267853260801" cy="422.0956502794511" r="1.2913781624034462" fill="#fff" opacity="0.640187788577794"/><circle cx="776.4755091388886" cy="53.26611735049312" r="0.7993257048771079" fill="#fff" opacity="0.4578594262846418"/><circle cx="662.6557147555648" cy="86.71946014620352" r="1.3839679530085922" fill="#fff" opacity="0.2039863679101659"/><circle cx="950.427111757553" cy="421.2770671111711" r="1.0969564076738796" fill="#fff" opacity="0.760808854075337"/><circle cx="379.39213478457935" cy="200.612477695712" r="0.8869416392145076" fill="#fff" opacity="0.21235661926035693"/><circle cx="1378.1391360094162" cy="121.60515164062501" r="1.993959913261691" fill="#fff" opacity="0.3612955307032204"/><circle cx="1652.5038697692808" cy="248.47042612928672" r="1.3824685499729747" fill="#fff" opacity="0.5807152734093171"/><circle cx="1087.7676073759253" cy="410.9913746591171" r="0.7300680223223912" fill="#fff" opacity="0.2601660240581646"/><circle cx="277.75953686743964" cy="398.91217473496505" r="1.0569217251746268" fill="#fff" opacity="0.43021068853098215"/><circle cx="1707.1864020328937" cy="251.46035328401726" r="0.6168228023724683" fill="#fff" opacity="0.6383657769855031"/><circle cx="1738.8991900856838" cy="130.85566010765163" r="1.1305682302058135" fill="#fff" opacity="0.7007237782470703"/><circle cx="771.0619360513664" cy="352.14362755421166" r="1.999525770777726" fill="#fff" opacity="0.6174689292017066"/><circle cx="1579.4967045587248" cy="178.61756953285484" r="0.8350768332218464" fill="#fff" opacity="0.7226729443582409"/><circle cx="1024.1266431808765" cy="204.90328644889019" r="1.651449907722755" fill="#fff" opacity="0.3930165286625308"/><circle cx="1026.6064920431484" cy="97.91045155048147" r="1.1248128355072842" fill="#fff" opacity="0.24745339477608294"/><circle cx="122.99157324316715" cy="84.2775068851834" r="1.3561725482242584" fill="#fff" opacity="0.45536486447215196"/><circle cx="798.4922099482483" cy="298.5775452243577" r="1.870341311411546" fill="#fff" opacity="0.42299477709992667"/><circle cx="780.2919778554449" cy="5.045446080399083" r="0.7692603308868735" fill="#fff" opacity="0.7363398056794748"/><circle cx="252.3639755538581" cy="269.62396820579283" r="0.6955983444805254" fill="#fff" opacity="0.25255417415233195"/><circle cx="425.70253113883143" cy="347.81930570579584" r="1.0873387053346584" fill="#fff" opacity="0.24527350134339032"/><circle cx="874.9432524095623" cy="257.0175224992022" r="1.991001615880756" fill="#fff" opacity="0.7123648166918113"/><circle cx="961.0370839389593" cy="166.61540791546352" r="1.1755913625647294" fill="#fff" opacity="0.6158965125251321"/><circle cx="36.276867100102095" cy="139.27169512847246" r="1.9748788498050716" fill="#fff" opacity="0.30412819327417023"/><circle cx="224.1954459771969" cy="102.49091242404909" r="1.1054025920120538" fill="#fff" opacity="0.21440325929187315"/><circle cx="505.4755690380641" cy="426.562513499186" r="0.8704068662762658" fill="#fff" opacity="0.3393617544647683"/><circle cx="1242.5336299749401" cy="190.1007741983283" r="1.611779480732926" fill="#fff" opacity="0.4914113684304551"/><rect x="6.959917861260455" y="680.7363207872809" width="45.16514941006088" height="270.4315080937072" fill="#002132" opacity="0.4720092201773099" rx="2"/><rect x="25.0863623013921" y="690.7363207872809" width="8.912260529797585" height="7.995895127299217" fill="#118ab2" opacity="0.4271713016617976" rx="1"/><rect x="13.79507494887688" y="694.7342683509305" width="8.912260529797585" height="7.995895127299217" fill="#06d6a0" opacity="0.2135856508308988" rx="1"/><rect x="25.784117571260808" y="729.3693933720962" width="7.516749990060169" height="7.482919431636789" fill="#118ab2" opacity="0.17545471111672342" rx="1"/><rect x="14.492830218745588" y="733.1108530879146" width="7.516749990060169" height="7.482919431636789" fill="#06d6a0" opacity="0.08772735555836171" rx="1"/><rect x="26.313638492793228" y="768.0024659569115" width="6.457708146995332" height="7.23885722487207" fill="#118ab2" opacity="0.19884599645129547" rx="1"/><rect x="15.022351140278008" y="771.6218945693475" width="6.457708146995332" height="7.23885722487207" fill="#06d6a0" opacity="0.09942299822564774" rx="1"/><rect x="25.250198664201935" y="806.6355385417268" width="8.584587804177913" height="7.30406197190845" fill="#118ab2" opacity="0.232245793736597" rx="1"/><rect x="13.958911311686716" y="810.287569527681" width="8.584587804177913" height="7.30406197190845" fill="#06d6a0" opacity="0.1161228968682985" rx="1"/><rect x="27.515626824115316" y="845.268611126542" width="4.053731484351151" height="6.495607935938893" fill="#118ab2" opacity="0.25573098292940555" rx="1"/><rect x="16.224339471600096" y="848.5164150945116" width="4.053731484351151" height="6.495607935938893" fill="#06d6a0" opacity="0.12786549146470277" rx="1"/><rect x="25.11889315958109" y="883.9016837113575" width="8.847198813419602" height="8.094816376011543" fill="#118ab2" opacity="0.32128771937482237" rx="1"/><rect x="13.827605807065872" y="887.9490918993632" width="8.847198813419602" height="8.094816376011543" fill="#06d6a0" opacity="0.16064385968741118" rx="1"/><rect x="24.401050479011857" y="922.5347562961728" width="10.282884174558074" height="7.101730929944136" fill="#118ab2" opacity="0.42302795928507764" rx="1"/><rect x="13.109763126496636" y="926.0856217611448" width="10.282884174558074" height="7.101730929944136" fill="#06d6a0" opacity="0.21151397964253882" rx="1"/><rect x="113.91360794560327" y="754.4676153348917" width="81.42496966091565" height="196.7002135460964" fill="#073b4c" opacity="0.44316705252117644" rx="2"/><rect x="152.2774006410259" y="764.4676153348917" width="4.697384270070443" height="8.435933752552591" fill="#118ab2" opacity="0.3472553648397455" rx="1"/><rect x="131.92115822579697" y="768.6855822111679" width="4.697384270070443" height="8.435933752552591" fill="#06d6a0" opacity="0.17362768241987275" rx="1"/><rect x="151.06922192589553" y="813.6426687214157" width="7.113741700331154" height="6.19677943927161" fill="#118ab2" opacity="0.35227652600786563" rx="1"/><rect x="130.7129795106666" y="816.7410584410516" width="7.113741700331154" height="6.19677943927161" fill="#06d6a0" opacity="0.17613826300393282" rx="1"/><rect x="152.3107301194987" y="862.8177221079399" width="4.630725313124882" height="6.1794500966042865" fill="#118ab2" opacity="0.5114403495126032" rx="1"/><rect x="131.95448770426975" y="865.907447156242" width="4.630725313124882" height="6.1794500966042865" fill="#06d6a0" opacity="0.2557201747563016" rx="1"/><rect x="150.6921936393507" y="911.992775494464" width="7.867798273420846" height="7.545096595200034" fill="#118ab2" opacity="0.36711718592958464" rx="1"/><rect x="130.33595122412174" y="915.765323792064" width="7.867798273420846" height="7.545096595200034" fill="#06d6a0" opacity="0.18355859296479232" rx="1"/><rect x="190.2881068233225" y="684.5770154810923" width="30.47381325635915" height="266.59081339989575" fill="#002132" opacity="0.40352042573586117" rx="2"/><rect x="201.0856905509071" y="694.5770154810923" width="8.878645801189972" height="7.222586711221977" fill="#118ab2" opacity="0.44983660579888074" rx="1"/><rect x="193.46723723681728" y="698.1883088367033" width="8.878645801189972" height="7.222586711221977" fill="#06d6a0" opacity="0.22491830289944037" rx="1"/><rect x="201.79865167626068" y="747.8951781610715" width="7.452723550482822" height="7.957537772589721" fill="#118ab2" opacity="0.11458662154958273" rx="1"/><rect x="194.18019836217087" y="751.8739470473664" width="7.452723550482822" height="7.957537772589721" fill="#06d6a0" opacity="0.05729331077479136" rx="1"/><rect x="201.87942462286816" y="801.2133408410506" width="7.291177657267818" height="7.532060011646724" fill="#118ab2" opacity="0.14115549766951135" rx="1"/><rect x="194.26097130877835" y="804.979370846874" width="7.291177657267818" height="7.532060011646724" fill="#06d6a0" opacity="0.07057774883475568" rx="1"/><rect x="201.45145103756522" y="854.5315035210298" width="8.14712482787369" height="7.795143667095141" fill="#118ab2" opacity="0.11188895385989198" rx="1"/><rect x="193.83299772347542" y="858.4290753545773" width="8.14712482787369" height="7.795143667095141" fill="#06d6a0" opacity="0.05594447692994599" rx="1"/><rect x="200.62146326090627" y="907.8496662010089" width="9.80710038119161" height="9.471810175914273" fill="#118ab2" opacity="0.35950922206032776" rx="1"/><rect x="193.00300994681646" y="912.585571288966" width="9.80710038119161" height="9.471810175914273" fill="#06d6a0" opacity="0.17975461103016388" rx="1"/><rect x="284.326811041632" y="834.7173125098267" width="32.14560569313951" height="116.45051637116134" fill="#002132" opacity="0.5385306639686531" rx="2"/><rect x="295.1312569569763" y="844.7173125098267" width="10.53671386245096" height="8.455237065082239" fill="#118ab2" opacity="0.4317606487152541" rx="1"/><rect x="287.09485553369143" y="848.9449310423678" width="10.53671386245096" height="8.455237065082239" fill="#06d6a0" opacity="0.21588032435762705" rx="1"/><rect x="297.8217073996263" y="859.2736270562218" width="5.155812977150971" height="6.383339531808938" fill="#118ab2" opacity="0.2431552579494089" rx="1"/><rect x="289.7853059763414" y="862.4652968221263" width="5.155812977150971" height="6.383339531808938" fill="#06d6a0" opacity="0.12157762897470445" rx="1"/><rect x="295.1802071746519" y="873.829941602617" width="10.438813427099682" height="7.362036621515182" fill="#118ab2" opacity="0.1356219553005933" rx="1"/><rect x="287.14380575136704" y="877.5109599133747" width="10.438813427099682" height="7.362036621515182" fill="#06d6a0" opacity="0.06781097765029664" rx="1"/><rect x="297.10423981760596" y="888.3862561490122" width="6.590748141191608" height="9.28645652515964" fill="#118ab2" opacity="0.48912440915338795" rx="1"/><rect x="289.0678383943211" y="893.029484411592" width="6.590748141191608" height="9.28645652515964" fill="#06d6a0" opacity="0.24456220457669398" rx="1"/><rect x="294.62091391838044" y="902.9425706954073" width="11.557399939642615" height="6.194059792951229" fill="#118ab2" opacity="0.3744370724015025" rx="1"/><rect x="286.58451249509557" y="906.039600591883" width="11.557399939642615" height="6.194059792951229" fill="#06d6a0" opacity="0.18721853620075124" rx="1"/><rect x="295.6496138475146" y="917.4988852418026" width="9.50000008137431" height="8.077489591687334" fill="#118ab2" opacity="0.23050334298296443" rx="1"/><rect x="287.61321242422974" y="921.5376300376462" width="9.50000008137431" height="8.077489591687334" fill="#06d6a0" opacity="0.11525167149148222" rx="1"/><rect x="295.06302831357283" y="932.0551997881977" width="10.673171149257843" height="8.561758376323096" fill="#118ab2" opacity="0.49920424923747875" rx="1"/><rect x="287.02662689028796" y="936.3360789763592" width="10.673171149257843" height="8.561758376323096" fill="#06d6a0" opacity="0.24960212461873937" rx="1"/><rect x="295.432990553297" y="946.6115143345928" width="9.933246669809623" height="7.969900963355299" fill="#118ab2" opacity="0.119176561739104" rx="1"/><rect x="287.3965891300121" y="950.5964648162704" width="9.933246669809623" height="7.969900963355299" fill="#06d6a0" opacity="0.059588280869552" rx="1"/><rect x="349.9875014781161" y="659.1440347393844" width="82.5653658929666" height="292.0237941416036" fill="#073b4c" opacity="0.5159628569651309" rx="2"/><rect x="386.31398493251453" y="669.1440347393844" width="9.91239898416968" height="7.137338772680922" fill="#118ab2" opacity="0.32539243351793673" rx="1"/><rect x="365.6726434592729" y="672.7127041257249" width="9.91239898416968" height="7.137338772680922" fill="#06d6a0" opacity="0.16269621675896836" rx="1"/><rect x="387.584628140055" y="766.4852994532523" width="7.371112569088841" height="7.760070632621662" fill="#118ab2" opacity="0.22600881783897264" rx="1"/><rect x="366.9432866668133" y="770.3653347695631" width="7.371112569088841" height="7.760070632621662" fill="#06d6a0" opacity="0.11300440891948632" rx="1"/><rect x="386.59172528722894" y="863.8265641671202" width="9.356918274740902" height="6.781695883903116" fill="#118ab2" opacity="0.26531184331171953" rx="1"/><rect x="365.9503838139873" y="867.2174121090717" width="9.356918274740902" height="6.781695883903116" fill="#06d6a0" opacity="0.13265592165585977" rx="1"/><rect x="446.34618513645535" y="652.7678495395854" width="55.7002627583454" height="298.3999793414026" fill="#073b4c" opacity="0.567382491418948" rx="2"/><rect x="469.0426015805298" y="662.7678495395854" width="10.307429870196486" height="9.346924356964166" fill="#118ab2" opacity="0.4779045601556787" rx="1"/><rect x="455.11753589094343" y="667.4413117180675" width="10.307429870196486" height="9.346924356964166" fill="#06d6a0" opacity="0.23895228007783936" rx="1"/><rect x="468.8700651868621" y="712.5011794298192" width="10.652502657531878" height="7.354558090063407" fill="#118ab2" opacity="0.4045839111564178" rx="1"/><rect x="454.9449994972758" y="716.1784584748509" width="10.652502657531878" height="7.354558090063407" fill="#06d6a0" opacity="0.2022919555782089" rx="1"/><rect x="469.7654986260124" y="762.234509320053" width="8.861635779231236" height="7.452603943052843" fill="#118ab2" opacity="0.38814114019929924" rx="1"/><rect x="455.84043293642605" y="765.9608112915794" width="8.861635779231236" height="7.452603943052843" fill="#06d6a0" opacity="0.19407057009964962" rx="1"/><rect x="471.64992224372475" y="811.9678392102867" width="5.092788543806595" height="8.10505500391709" fill="#118ab2" opacity="0.1103892899375384" rx="1"/><rect x="457.7248565541384" y="816.0203667122453" width="5.092788543806595" height="8.10505500391709" fill="#06d6a0" opacity="0.0551946449687692" rx="1"/><rect x="468.35642494318245" y="861.7011691005205" width="11.67978314489121" height="7.05357110524866" fill="#118ab2" opacity="0.5097692743897833" rx="1"/><rect x="454.4313592535961" y="865.2279546531448" width="11.67978314489121" height="7.05357110524866" fill="#06d6a0" opacity="0.25488463719489163" rx="1"/><rect x="469.5604523959689" y="911.4344989907543" width="9.271728239318293" height="6.688095320176355" fill="#118ab2" opacity="0.4903858531011236" rx="1"/><rect x="455.6353867063825" y="914.7785466508425" width="9.271728239318293" height="6.688095320176355" fill="#06d6a0" opacity="0.2451929265505618" rx="1"/><rect x="535.4559362345293" y="817.4579669994903" width="39.497652726596606" height="133.70986188149774" fill="#073b4c" opacity="0.4936665179426006" rx="2"/><rect x="550.1683495850482" y="827.4579669994903" width="10.072826025558829" height="8.279767929175815" fill="#118ab2" opacity="0.39547093035547787" rx="1"/><rect x="540.293936403399" y="831.5978509640781" width="10.072826025558829" height="8.279767929175815" fill="#06d6a0" opacity="0.19773546517773893" rx="1"/><rect x="552.9066466905213" y="872.0279209599895" width="4.596231814612689" height="6.2535400400528545" fill="#118ab2" opacity="0.321422673953097" rx="1"/><rect x="543.0322335088721" y="875.154690980016" width="4.596231814612689" height="6.2535400400528545" fill="#06d6a0" opacity="0.1607113369765485" rx="1"/><rect x="552.4884934845375" y="916.5978749204887" width="5.432538226580372" height="9.447340853383611" fill="#118ab2" opacity="0.48376731085213076" rx="1"/><rect x="542.6140803028883" y="921.3215453471805" width="5.432538226580372" height="9.447340853383611" fill="#06d6a0" opacity="0.24188365542606538" rx="1"/><rect x="626.7834177518987" y="772.2875481174066" width="57.51069240446917" height="178.88028076358148" fill="#002132" opacity="0.6147532488719452" rx="2"/><rect x="650.3094312017869" y="782.2875481174066" width="10.458665504692743" height="7.4822218319126925" fill="#118ab2" opacity="0.4824474633164815" rx="1"/><rect x="635.9317581006695" y="786.0286590333629" width="10.458665504692743" height="7.4822218319126925" fill="#06d6a0" opacity="0.24122373165824074" rx="1"/><rect x="652.611513277129" y="804.6475832128542" width="5.854501354008564" height="8.259740049545593" fill="#118ab2" opacity="0.5585119045708589" rx="1"/><rect x="638.2338401760117" y="808.777453237627" width="5.854501354008564" height="8.259740049545593" fill="#06d6a0" opacity="0.27925595228542943" rx="1"/><rect x="651.132812785185" y="827.007618308302" width="8.811902337896615" height="8.46658288651765" fill="#118ab2" opacity="0.3893659492929853" rx="1"/><rect x="636.7551396840677" y="831.2409097515608" width="8.811902337896615" height="8.46658288651765" fill="#06d6a0" opacity="0.19468297464649265" rx="1"/><rect x="653.1412519474674" y="849.3676534037496" width="4.795024013331864" height="9.185801705155942" fill="#118ab2" opacity="0.4771953066757869" rx="1"/><rect x="638.76357884635" y="853.9605542563276" width="4.795024013331864" height="9.185801705155942" fill="#06d6a0" opacity="0.23859765333789346" rx="1"/><rect x="651.2111262699912" y="871.7276884991973" width="8.655275368284265" height="9.071327514730237" fill="#118ab2" opacity="0.3233582180280607" rx="1"/><rect x="636.8334531688738" y="876.2633522565624" width="8.655275368284265" height="9.071327514730237" fill="#06d6a0" opacity="0.16167910901403035" rx="1"/><rect x="651.971857168176" y="894.087723594645" width="7.133813571914521" height="6.034374207266228" fill="#118ab2" opacity="0.25755178026332326" rx="1"/><rect x="637.5941840670587" y="897.1049106982781" width="7.133813571914521" height="6.034374207266228" fill="#06d6a0" opacity="0.12877589013166163" rx="1"/><rect x="650.1600842792278" y="916.4477586900927" width="10.757359349810834" height="9.327632644988512" fill="#118ab2" opacity="0.4625409832137034" rx="1"/><rect x="635.7824111781105" y="921.1115750125869" width="10.757359349810834" height="9.327632644988512" fill="#06d6a0" opacity="0.2312704916068517" rx="1"/><rect x="652.7293362474201" y="938.8077937855403" width="5.618855413426378" height="9.481210755994825" fill="#118ab2" opacity="0.4231361574314386" rx="1"/><rect x="638.3516631463027" y="943.5483991635377" width="5.618855413426378" height="9.481210755994825" fill="#06d6a0" opacity="0.2115680787157193" rx="1"/><rect x="713.5359220155705" y="702.1705192518818" width="63.91033033698572" height="248.99730962910627" fill="#002132" opacity="0.5392895999688864" rx="2"/><rect x="742.818214003547" y="712.1705192518818" width="5.345746361032535" height="8.051259985671207" fill="#118ab2" opacity="0.2343500860115397" rx="1"/><rect x="726.8406314193006" y="716.1961492447174" width="5.345746361032535" height="8.051259985671207" fill="#06d6a0" opacity="0.11717504300576985" rx="1"/><rect x="740.2734273671682" y="743.2951829555201" width="10.435319633790133" height="6.161805797405961" fill="#118ab2" opacity="0.49526435811893654" rx="1"/><rect x="724.2958447829218" y="746.3760858542231" width="10.435319633790133" height="6.161805797405961" fill="#06d6a0" opacity="0.24763217905946827" rx="1"/><rect x="741.9058623950582" y="774.4198466591585" width="7.170449578010116" height="6.153716119973389" fill="#118ab2" opacity="0.12801703499351094" rx="1"/><rect x="725.9282798108118" y="777.4967047191451" width="7.170449578010116" height="6.153716119973389" fill="#06d6a0" opacity="0.06400851749675547" rx="1"/><rect x="741.796497676834" y="805.5445103627967" width="7.389179014458596" height="9.227614695957772" fill="#118ab2" opacity="0.37319235093267455" rx="1"/><rect x="725.8189150925875" y="810.1583177107756" width="7.389179014458596" height="9.227614695957772" fill="#06d6a0" opacity="0.18659617546633728" rx="1"/><rect x="739.7579787129778" y="836.669174066435" width="11.466216942171151" height="7.481627351949371" fill="#118ab2" opacity="0.46170684240332494" rx="1"/><rect x="723.7803961287314" y="840.4099877424096" width="11.466216942171151" height="7.481627351949371" fill="#06d6a0" opacity="0.23085342120166247" rx="1"/><rect x="742.5605279286639" y="867.7938377700732" width="5.8611185107988115" height="6.739875017837592" fill="#118ab2" opacity="0.2730761481851982" rx="1"/><rect x="726.5829453444175" y="871.163775278992" width="5.8611185107988115" height="6.739875017837592" fill="#06d6a0" opacity="0.1365380740925991" rx="1"/><rect x="739.8122115785624" y="898.9185014737116" width="11.357751211001945" height="9.635643900287254" fill="#118ab2" opacity="0.4166307884540015" rx="1"/><rect x="723.834628994316" y="903.7363234238552" width="11.357751211001945" height="9.635643900287254" fill="#06d6a0" opacity="0.20831539422700074" rx="1"/><rect x="740.7575724703034" y="930.0431651773498" width="9.467029427519773" height="7.179415236501819" fill="#118ab2" opacity="0.5814226241971885" rx="1"/><rect x="724.779989886057" y="933.6328727956007" width="9.467029427519773" height="7.179415236501819" fill="#06d6a0" opacity="0.29071131209859424" rx="1"/><rect x="802.193493898622" y="751.7076037478885" width="64.55465581141289" height="199.46022513309964" fill="#002132" opacity="0.44860613039895103" rx="2"/><rect x="829.4474692309301" y="761.7076037478885" width="10.0467051467967" height="7.757769664227443" fill="#118ab2" opacity="0.1454429560446746" rx="1"/><rect x="813.3088052780769" y="765.5864885800022" width="10.0467051467967" height="7.757769664227443" fill="#06d6a0" opacity="0.0727214780223373" rx="1"/><rect x="831.5494231607097" y="801.5996487745084" width="5.84279728723755" height="8.36520461513782" fill="#118ab2" opacity="0.42543462056793147" rx="1"/><rect x="815.4107592078565" y="805.7822510820773" width="5.84279728723755" height="8.36520461513782" fill="#06d6a0" opacity="0.21271731028396573" rx="1"/><rect x="830.1829991698141" y="841.4916938011283" width="8.57564526902876" height="8.020264883064726" fill="#118ab2" opacity="0.40580304139428847" rx="1"/><rect x="814.0443352169609" y="845.5018262426607" width="8.57564526902876" height="8.020264883064726" fill="#06d6a0" opacity="0.20290152069714423" rx="1"/><rect x="832.3369379834506" y="881.3837388277483" width="4.2677676417556984" height="8.492598266921146" fill="#118ab2" opacity="0.42543469414241486" rx="1"/><rect x="816.1982740305974" y="885.6300379612088" width="4.2677676417556984" height="8.492598266921146" fill="#06d6a0" opacity="0.21271734707120743" rx="1"/><rect x="831.9170670489037" y="921.2757838543682" width="5.107509510849488" height="9.32492564323473" fill="#118ab2" opacity="0.5387025353356037" rx="1"/><rect x="815.7784030960505" y="925.9382466759856" width="5.107509510849488" height="9.32492564323473" fill="#06d6a0" opacity="0.2693512676678019" rx="1"/><rect x="893.6694129001935" y="772.7731183340711" width="58.87797439211933" height="178.394710546917" fill="#073b4c" opacity="0.6283596264497283" rx="2"/><rect x="917.5686923416217" y="782.7731183340711" width="11.079415509262917" height="9.74609213223357" fill="#118ab2" opacity="0.577330138086651" rx="1"/><rect x="902.849198743592" y="787.6461644001879" width="11.079415509262917" height="9.74609213223357" fill="#06d6a0" opacity="0.2886650690433255" rx="1"/><rect x="918.9588965126642" y="818.4520604434545" width="8.299007167177976" height="7.0286719112258105" fill="#118ab2" opacity="0.41989814895668487" rx="1"/><rect x="904.2394029146344" y="821.9663963990673" width="8.299007167177976" height="7.0286719112258105" fill="#06d6a0" opacity="0.20994907447834243" rx="1"/><rect x="918.1615732296705" y="854.1310025528379" width="9.893653733165388" height="6.915003518786981" fill="#118ab2" opacity="0.3567832855872771" rx="1"/><rect x="903.4420796316407" y="857.5885043122314" width="9.893653733165388" height="6.915003518786981" fill="#06d6a0" opacity="0.17839164279363856" rx="1"/><rect x="918.867420744628" y="889.8099446622214" width="8.48195870325015" height="6.9792262280777155" fill="#118ab2" opacity="0.502270393306918" rx="1"/><rect x="904.1479271465982" y="893.2995577762603" width="8.48195870325015" height="6.9792262280777155" fill="#06d6a0" opacity="0.251135196653459" rx="1"/><rect x="920.0935978599069" y="925.4888867716047" width="6.0296044726924976" height="6.915490204681523" fill="#118ab2" opacity="0.2089482483474883" rx="1"/><rect x="905.3741042618772" y="928.9466318739454" width="6.0296044726924976" height="6.915490204681523" fill="#06d6a0" opacity="0.10447412417374415" rx="1"/><rect x="960.1493855403153" y="651.5786121253806" width="74.11728199201573" height="299.5892167556075" fill="#073b4c" opacity="0.5244799141363427" rx="2"/><rect x="991.7173028324538" y="661.5786121253806" width="10.981447407738642" height="9.609983763566703" fill="#118ab2" opacity="0.2150068708497581" rx="1"/><rect x="973.1879823344499" y="666.383604007164" width="10.981447407738642" height="9.609983763566703" fill="#06d6a0" opacity="0.10750343542487906" rx="1"/><rect x="991.5686489377564" y="699.0272642198315" width="11.278755197133579" height="6.378210025927567" fill="#118ab2" opacity="0.5815273800588975" rx="1"/><rect x="973.0393284397525" y="702.2163692327953" width="11.278755197133579" height="6.378210025927567" fill="#06d6a0" opacity="0.29076369002944874" rx="1"/><rect x="992.0812692183724" y="736.4759163142825" width="10.253514635901318" height="6.1385540915975705" fill="#118ab2" opacity="0.24217745236637478" rx="1"/><rect x="973.5519487203685" y="739.5451933600813" width="10.253514635901318" height="6.1385540915975705" fill="#06d6a0" opacity="0.12108872618318739" rx="1"/><rect x="994.9312800601896" y="773.9245684087334" width="4.553492952267056" height="6.670956989906485" fill="#118ab2" opacity="0.39120764375925243" rx="1"/><rect x="976.4019595621857" y="777.2600469036867" width="4.553492952267056" height="6.670956989906485" fill="#06d6a0" opacity="0.19560382187962622" rx="1"/><rect x="992.7776615041722" y="811.3732205031843" width="8.860730064301922" height="8.740460173864957" fill="#118ab2" opacity="0.15797092524775558" rx="1"/><rect x="974.2483410061683" y="815.7434505901167" width="8.860730064301922" height="8.740460173864957" fill="#06d6a0" opacity="0.07898546262387779" rx="1"/><rect x="991.3855238525164" y="848.8218725976353" width="11.645005367613631" height="9.461733848662519" fill="#118ab2" opacity="0.2040767170731157" rx="1"/><rect x="972.8562033545124" y="853.5527395219666" width="11.645005367613631" height="9.461733848662519" fill="#06d6a0" opacity="0.10203835853655785" rx="1"/><rect x="994.697749806032" y="886.2705246920862" width="5.020553460582288" height="6.7510603723933595" fill="#118ab2" opacity="0.1430191384030085" rx="1"/><rect x="976.1684293080281" y="889.6460548782828" width="5.020553460582288" height="6.7510603723933595" fill="#06d6a0" opacity="0.07150956920150425" rx="1"/><rect x="991.3066769126585" y="923.7191767865371" width="11.802699247329194" height="9.662965878765789" fill="#118ab2" opacity="0.20147451309055894" rx="1"/><rect x="972.7773564146546" y="928.55065972592" width="11.802699247329194" height="9.662965878765789" fill="#06d6a0" opacity="0.10073725654527947" rx="1"/><rect x="1060.509519470466" y="613.944110789789" width="35.33541596153179" height="337.2237180911991" fill="#002132" opacity="0.6716323310443275" rx="2"/><rect x="1073.6676513646928" y="623.944110789789" width="9.019152173078421" height="8.220574531289882" fill="#118ab2" opacity="0.2754398910970054" rx="1"/><rect x="1064.8337973743098" y="628.0543980554339" width="9.019152173078421" height="8.220574531289882" fill="#06d6a0" opacity="0.1377199455485027" rx="1"/><rect x="1072.3514002326804" y="666.0970755511888" width="11.651654437103229" height="6.394113869498045" fill="#118ab2" opacity="0.5511961816929272" rx="1"/><rect x="1063.5175462422974" y="669.2941324859379" width="11.651654437103229" height="6.394113869498045" fill="#06d6a0" opacity="0.2755980908464636" rx="1"/><rect x="1072.4158309426236" y="708.2500403125887" width="11.522793017216678" height="7.327786076191763" fill="#118ab2" opacity="0.34148435267654353" rx="1"/><rect x="1063.5819769522407" y="711.9139333506846" width="11.522793017216678" height="7.327786076191763" fill="#06d6a0" opacity="0.17074217633827177" rx="1"/><rect x="1075.558599148499" y="750.4030050739887" width="5.2372566054661895" height="6.940510664354197" fill="#118ab2" opacity="0.3323812351637476" rx="1"/><rect x="1066.724745158116" y="753.8732604061657" width="5.2372566054661895" height="6.940510664354197" fill="#06d6a0" opacity="0.1661906175818738" rx="1"/><rect x="1076.0108851573498" y="792.5559698353885" width="4.332684587764713" height="7.6034297183164" fill="#118ab2" opacity="0.5085154708960362" rx="1"/><rect x="1067.1770311669668" y="796.3576846945467" width="4.332684587764713" height="7.6034297183164" fill="#06d6a0" opacity="0.2542577354480181" rx="1"/><rect x="1073.7122091037525" y="834.7089345967884" width="8.93003669495928" height="9.666507590484457" fill="#118ab2" opacity="0.35688842713294744" rx="1"/><rect x="1064.8783551133695" y="839.5421883920305" width="8.93003669495928" height="9.666507590484457" fill="#06d6a0" opacity="0.17844421356647372" rx="1"/><rect x="1073.8940987616572" y="876.8618993581883" width="8.566257379149611" height="9.712617379546309" fill="#118ab2" opacity="0.3154165645398704" rx="1"/><rect x="1065.0602447712743" y="881.7182080479615" width="8.566257379149611" height="9.712617379546309" fill="#06d6a0" opacity="0.1577082822699352" rx="1"/><rect x="1075.7090064283757" y="919.0148641195882" width="4.936442045712947" height="9.06605901174854" fill="#118ab2" opacity="0.5512815201774429" rx="1"/><rect x="1066.8751524379927" y="923.5478936254625" width="4.936442045712947" height="9.06605901174854" fill="#06d6a0" opacity="0.27564076008872146" rx="1"/><rect x="1137.5961847536341" y="863.6178406336387" width="76.92685056173403" height="87.54998824734939" fill="#002132" opacity="0.6019091603350615" rx="2"/><rect x="1171.5555468104296" y="873.6178406336387" width="9.008126448143303" height="9.127341987361978" fill="#118ab2" opacity="0.11773117436508909" rx="1"/><rect x="1152.323834169996" y="878.1815116273197" width="9.008126448143303" height="9.127341987361978" fill="#06d6a0" opacity="0.058865587182544546" rx="1"/><rect x="1173.0053054493949" y="895.5053376954761" width="6.108609170212552" height="8.529609387398141" fill="#118ab2" opacity="0.44733618524562013" rx="1"/><rect x="1153.7735928089612" y="899.7701423891751" width="6.108609170212552" height="8.529609387398141" fill="#06d6a0" opacity="0.22366809262281007" rx="1"/><rect x="1171.9934782987996" y="917.3928347573134" width="8.13226347140322" height="8.818944199667067" fill="#118ab2" opacity="0.45842276640665314" rx="1"/><rect x="1152.761765658366" y="921.802306857147" width="8.13226347140322" height="8.818944199667067" fill="#06d6a0" opacity="0.22921138320332657" rx="1"/><rect x="1172.4913132123481" y="939.2803318191508" width="7.136593644306202" height="7.242382546244744" fill="#118ab2" opacity="0.3397718312544217" rx="1"/><rect x="1153.2596005719145" y="942.9015230922731" width="7.136593644306202" height="7.242382546244744" fill="#06d6a0" opacity="0.16988591562721084" rx="1"/><rect x="1226.5107797346927" y="628.7881167439716" width="36.53823341395199" height="322.37971213701644" fill="#073b4c" opacity="0.6736419332617991" rx="2"/><rect x="1238.999485514931" y="638.7881167439716" width="11.560821853475836" height="9.440107365008469" fill="#118ab2" opacity="0.3509218293127887" rx="1"/><rect x="1229.864927161443" y="643.5081704264759" width="11.560821853475836" height="9.440107365008469" fill="#06d6a0" opacity="0.17546091465639435" rx="1"/><rect x="1241.720747973345" y="679.0855807610986" width="6.11829693664757" height="7.175277215702291" fill="#118ab2" opacity="0.49266417487353653" rx="1"/><rect x="1232.586189619857" y="682.6732193689497" width="6.11829693664757" height="7.175277215702291" fill="#06d6a0" opacity="0.24633208743676827" rx="1"/><rect x="1241.0435410843925" y="719.3830447782257" width="7.472710714552717" height="7.874513115238983" fill="#118ab2" opacity="0.5196180221437519" rx="1"/><rect x="1231.9089827309044" y="723.3203013358452" width="7.472710714552717" height="7.874513115238983" fill="#06d6a0" opacity="0.25980901107187593" rx="1"/><rect x="1241.545040362049" y="759.6805087953528" width="6.4697121592400855" height="8.453755685699582" fill="#118ab2" opacity="0.2067392622602031" rx="1"/><rect x="1232.4104820085608" y="763.9073866382026" width="6.4697121592400855" height="8.453755685699582" fill="#06d6a0" opacity="0.10336963113010154" rx="1"/><rect x="1240.2929845118772" y="799.9779728124798" width="8.97382385958308" height="8.255225785601704" fill="#118ab2" opacity="0.3612587469074081" rx="1"/><rect x="1231.1584261583891" y="804.1055857052806" width="8.97382385958308" height="8.255225785601704" fill="#06d6a0" opacity="0.18062937345370406" rx="1"/><rect x="1240.2291615411368" y="840.2754368296069" width="9.101469801063992" height="6.994043966986715" fill="#118ab2" opacity="0.5616252344477981" rx="1"/><rect x="1231.0946031876488" y="843.7724588131002" width="9.101469801063992" height="6.994043966986715" fill="#06d6a0" opacity="0.28081261722389905" rx="1"/><rect x="1240.1382251727844" y="880.572900846734" width="9.283342537768963" height="8.554142100399858" fill="#118ab2" opacity="0.2513937096231137" rx="1"/><rect x="1231.0036668192963" y="884.8499718969339" width="9.283342537768963" height="8.554142100399858" fill="#06d6a0" opacity="0.12569685481155685" rx="1"/><rect x="1242.696723052103" y="920.870364863861" width="4.166346779131877" height="7.5684889744893855" fill="#118ab2" opacity="0.5831721032930474" rx="1"/><rect x="1233.5621646986149" y="924.6546093511057" width="4.166346779131877" height="7.5684889744893855" fill="#06d6a0" opacity="0.2915860516465237" rx="1"/><rect x="1312.5711183086605" y="657.9093674099793" width="82.4027769482701" height="293.25846147100873" fill="#073b4c" opacity="0.461731727878035" rx="2"/><rect x="1347.7986448416652" y="667.9093674099793" width="11.947723882260668" height="9.979652935634286" fill="#118ab2" opacity="0.23377247823722952" rx="1"/><rect x="1327.1979506045977" y="672.8991938777964" width="11.947723882260668" height="9.979652935634286" fill="#06d6a0" opacity="0.11688623911861476" rx="1"/><rect x="1348.4659149890622" y="716.7857776551474" width="10.613183587466642" height="6.158796158656197" fill="#118ab2" opacity="0.15252556457475888" rx="1"/><rect x="1327.8652207519947" y="719.8651757344755" width="10.613183587466642" height="6.158796158656197" fill="#06d6a0" opacity="0.07626278228737944" rx="1"/><rect x="1348.88102025193" y="765.6621879003155" width="9.782973061730846" height="8.099315181863336" fill="#118ab2" opacity="0.30203056447255205" rx="1"/><rect x="1328.2803260148626" y="769.7118454912472" width="9.782973061730846" height="8.099315181863336" fill="#06d6a0" opacity="0.15101528223627603" rx="1"/><rect x="1348.008333358979" y="814.5385981454837" width="11.528346847632982" height="9.988566999321005" fill="#118ab2" opacity="0.30624614907574055" rx="1"/><rect x="1327.4076391219114" y="819.5328816451441" width="11.528346847632982" height="9.988566999321005" fill="#06d6a0" opacity="0.15312307453787027" rx="1"/><rect x="1348.5211613785461" y="863.4150083906518" width="10.502690808498926" height="9.850407406652906" fill="#118ab2" opacity="0.2444557361873928" rx="1"/><rect x="1327.9204671414786" y="868.3402120939783" width="10.502690808498926" height="9.850407406652906" fill="#06d6a0" opacity="0.1222278680936964" rx="1"/><rect x="1351.2569340885452" y="912.2914186358199" width="5.0311453885005655" height="9.888732353199444" fill="#118ab2" opacity="0.3040894531421572" rx="1"/><rect x="1330.6562398514777" y="917.2357848124196" width="5.0311453885005655" height="9.888732353199444" fill="#06d6a0" opacity="0.1520447265710786" rx="1"/><rect x="1414.424615875705" y="801.5237135583358" width="40.474327786470376" height="149.64411532265228" fill="#002132" opacity="0.5804440971884048" rx="2"/><rect x="1430.7556562318575" y="811.5237135583358" width="7.812247074165439" height="8.840389633281248" fill="#118ab2" opacity="0.32621172508835133" rx="1"/><rect x="1420.6370742852398" y="815.9439083749764" width="7.812247074165439" height="8.840389633281248" fill="#06d6a0" opacity="0.16310586254417567" rx="1"/><rect x="1431.7845591678927" y="836.4643994454445" width="5.754441202095347" height="6.634913153162905" fill="#118ab2" opacity="0.26366928109518933" rx="1"/><rect x="1421.665977221275" y="839.781856022026" width="5.754441202095347" height="6.634913153162905" fill="#06d6a0" opacity="0.13183464054759467" rx="1"/><rect x="1429.3462925901258" y="861.4050853325532" width="10.630974357628956" height="6.061057662605554" fill="#118ab2" opacity="0.20043735664813717" rx="1"/><rect x="1419.227710643508" y="864.435614163856" width="10.630974357628956" height="6.061057662605554" fill="#06d6a0" opacity="0.10021867832406858" rx="1"/><rect x="1428.746191322067" y="886.3457712196619" width="11.831176893746289" height="6.962902141959151" fill="#118ab2" opacity="0.26732964936348835" rx="1"/><rect x="1418.6276093754493" y="889.8272222906414" width="11.831176893746289" height="6.962902141959151" fill="#06d6a0" opacity="0.13366482468174418" rx="1"/><rect x="1431.8559864517179" y="911.2864571067706" width="5.611586634444908" height="7.033020761104538" fill="#118ab2" opacity="0.2507037758479602" rx="1"/><rect x="1421.7374045051001" y="914.8029674873229" width="5.611586634444908" height="7.033020761104538" fill="#06d6a0" opacity="0.1253518879239801" rx="1"/><rect x="1430.099880784329" y="936.2271429938794" width="9.123797969222952" height="7.559303491739394" fill="#118ab2" opacity="0.5464443364288761" rx="1"/><rect x="1419.9812988377112" y="940.0067947397491" width="9.123797969222952" height="7.559303491739394" fill="#06d6a0" opacity="0.27322216821443807" rx="1"/><rect x="1510.5557624696437" y="709.6706825331019" width="59.166137168455435" height="241.49714634788623" fill="#002132" opacity="0.6819155147257064" rx="2"/><rect x="1535.6884944498531" y="719.6706825331019" width="8.900673208036617" height="8.604088585498763" fill="#118ab2" opacity="0.42445484360783703" rx="1"/><rect x="1520.8969601577394" y="723.9727268258513" width="8.900673208036617" height="8.604088585498763" fill="#06d6a0" opacity="0.21222742180391851" rx="1"/><rect x="1538.056159283026" y="759.9202069244162" width="4.165343541690461" height="8.029882649432375" fill="#118ab2" opacity="0.333202955856268" rx="1"/><rect x="1523.2646249909124" y="763.9351482491325" width="4.165343541690461" height="8.029882649432375" fill="#06d6a0" opacity="0.166601477928134" rx="1"/><rect x="1535.5716062042582" y="800.1697313157306" width="9.134449699226405" height="8.90601329014311" fill="#118ab2" opacity="0.37063319163178865" rx="1"/><rect x="1520.7800719121444" y="804.6227379608022" width="9.134449699226405" height="8.90601329014311" fill="#06d6a0" opacity="0.18531659581589432" rx="1"/><rect x="1537.7243088510895" y="840.419255707045" width="4.829044405563978" height="8.389917797034121" fill="#118ab2" opacity="0.5258327780817246" rx="1"/><rect x="1522.9327745589758" y="844.614214605562" width="4.829044405563978" height="8.389917797034121" fill="#06d6a0" opacity="0.2629163890408623" rx="1"/><rect x="1536.3696654565347" y="880.6687800983593" width="7.538331194673276" height="8.619704827344908" fill="#118ab2" opacity="0.5932441818512147" rx="1"/><rect x="1521.578131164421" y="884.9786325120318" width="7.538331194673276" height="8.619704827344908" fill="#06d6a0" opacity="0.2966220909256074" rx="1"/><rect x="1535.5192169978814" y="920.9183044896737" width="9.239228111980303" height="6.395850282254594" fill="#118ab2" opacity="0.4141830124226825" rx="1"/><rect x="1520.7276827057676" y="924.116229630801" width="9.239228111980303" height="6.395850282254594" fill="#06d6a0" opacity="0.20709150621134126" rx="1"/><rect x="1571.734103442743" y="729.955901445345" width="77.91340303791534" height="221.21192743564302" fill="#073b4c" opacity="0.6193996544274035" rx="2"/><rect x="1605.4452579736649" y="739.955901445345" width="10.491093976071824" height="6.581981580839954" fill="#118ab2" opacity="0.1358519778903229" rx="1"/><rect x="1585.966907214186" y="743.246892235765" width="10.491093976071824" height="6.581981580839954" fill="#06d6a0" opacity="0.06792598894516146" rx="1"/><rect x="1606.6026848918598" y="776.8245560179522" width="8.176240139681902" height="6.246995663327862" fill="#118ab2" opacity="0.23448600916529214" rx="1"/><rect x="1587.124334132381" y="779.9480538496161" width="8.176240139681902" height="6.246995663327862" fill="#06d6a0" opacity="0.11724300458264607" rx="1"/><rect x="1607.8200301233558" y="813.6932105905594" width="5.74154967668968" height="8.602629378112645" fill="#118ab2" opacity="0.44072147329354694" rx="1"/><rect x="1588.341679363877" y="817.9945252796157" width="5.74154967668968" height="8.602629378112645" fill="#06d6a0" opacity="0.22036073664677347" rx="1"/><rect x="1607.0841989342152" y="850.5618651631665" width="7.213212054970956" height="8.597330990852166" fill="#118ab2" opacity="0.2779863787065229" rx="1"/><rect x="1587.6058481747364" y="854.8605306585927" width="7.213212054970956" height="8.597330990852166" fill="#06d6a0" opacity="0.13899318935326144" rx="1"/><rect x="1606.068030550097" y="887.4305197357737" width="9.245548823207045" height="7.232288262162425" fill="#118ab2" opacity="0.4692307943406586" rx="1"/><rect x="1586.5896797906182" y="891.0466638668549" width="9.245548823207045" height="7.232288262162425" fill="#06d6a0" opacity="0.2346153971703293" rx="1"/><rect x="1606.6664534733618" y="924.2991743083809" width="8.048702976677731" height="9.124715901707466" fill="#118ab2" opacity="0.1282214138489732" rx="1"/><rect x="1587.188102713883" y="928.8615322592347" width="8.048702976677731" height="9.124715901707466" fill="#06d6a0" opacity="0.0641107069244866" rx="1"/><rect x="1660.3343388123624" y="648.2248135954665" width="31.80954101071915" height="302.94301528552154" fill="#002132" opacity="0.6094629953870231" rx="2"/><rect x="1673.4081360201708" y="658.2248135954665" width="5.66194659510207" height="6.719519327562191" fill="#118ab2" opacity="0.30433799577977927" rx="1"/><rect x="1665.455750767491" y="661.5845732592476" width="5.66194659510207" height="6.719519327562191" fill="#06d6a0" opacity="0.15216899788988963" rx="1"/><rect x="1671.8693554227739" y="733.9605674168469" width="8.739507789895756" height="8.771868987654305" fill="#118ab2" opacity="0.34833140493098913" rx="1"/><rect x="1663.9169701700941" y="738.346501910674" width="8.739507789895756" height="8.771868987654305" fill="#06d6a0" opacity="0.17416570246549457" rx="1"/><rect x="1671.9697835365112" y="809.6963212382273" width="8.538651562421268" height="8.0314488434306" fill="#118ab2" opacity="0.2639172782106133" rx="1"/><rect x="1664.0173982838314" y="813.7120456599425" width="8.538651562421268" height="8.0314488434306" fill="#06d6a0" opacity="0.13195863910530664" rx="1"/><rect x="1673.5691998207742" y="885.4320750596075" width="5.339818993895273" height="9.36458846632498" fill="#118ab2" opacity="0.33157150408522496" rx="1"/><rect x="1665.6168145680945" y="890.11436929277" width="5.339818993895273" height="9.36458846632498" fill="#06d6a0" opacity="0.16578575204261248" rx="1"/><rect x="1755.204776453685" y="579.1682629797534" width="32.09307377741045" height="371.99956590123463" fill="#002132" opacity="0.5617519337129202" rx="2"/><rect x="1768.016890323111" y="589.1682629797534" width="6.468846038558717" height="9.121936743874553" fill="#118ab2" opacity="0.4676669847610563" rx="1"/><rect x="1759.9936218787584" y="593.7292313516907" width="6.468846038558717" height="9.121936743874553" fill="#06d6a0" opacity="0.23383349238052814" rx="1"/><rect x="1768.6541714123493" y="651.1681906299592" width="5.194283860082338" height="8.474631300772222" fill="#118ab2" opacity="0.2787470399119768" rx="1"/><rect x="1760.6309029679967" y="655.4055062803453" width="5.194283860082338" height="8.474631300772222" fill="#06d6a0" opacity="0.1393735199559884" rx="1"/><rect x="1768.4190068193207" y="713.168118280165" width="5.664613046139621" height="6.029309852055579" fill="#118ab2" opacity="0.5188554254171568" rx="1"/><rect x="1760.395738374968" y="716.1827732061928" width="5.664613046139621" height="6.029309852055579" fill="#06d6a0" opacity="0.2594277127085784" rx="1"/><rect x="1768.1821877568834" y="775.1680459303707" width="6.138251171013865" height="7.801049388433119" fill="#118ab2" opacity="0.4799651229940274" rx="1"/><rect x="1760.1589193125308" y="779.0685706245872" width="6.138251171013865" height="7.801049388433119" fill="#06d6a0" opacity="0.2399825614970137" rx="1"/><rect x="1767.4369027383627" y="837.1679735805765" width="7.628821208055323" height="6.293131937341097" fill="#118ab2" opacity="0.5743429023014248" rx="1"/><rect x="1759.41363429401" y="840.314539549247" width="7.628821208055323" height="6.293131937341097" fill="#06d6a0" opacity="0.2871714511507124" rx="1"/><rect x="1768.3031033057875" y="899.1679012307823" width="5.896420073205703" height="8.040408196402808" fill="#118ab2" opacity="0.4665422134489152" rx="1"/><rect x="1760.279834861435" y="903.1881053289836" width="5.896420073205703" height="8.040408196402808" fill="#06d6a0" opacity="0.2332711067244576" rx="1"/><rect x="1844.7463924840392" y="636.8795434564538" width="38.66177068759263" height="314.2882854245343" fill="#002132" opacity="0.6772884441253935" rx="2"/><rect x="1861.8390963969337" y="646.8795434564538" width="4.476362861803818" height="9.622567729005256" fill="#118ab2" opacity="0.48909422754987475" rx="1"/><rect x="1852.1736537250354" y="651.6908273209565" width="4.476362861803818" height="9.622567729005256" fill="#06d6a0" opacity="0.24454711377493737" rx="1"/><rect x="1858.6356351160953" y="751.6423052646319" width="10.88328542348074" height="9.799047274468245" fill="#118ab2" opacity="0.4329394500080821" rx="1"/><rect x="1848.970192444197" y="756.541828901866" width="10.88328542348074" height="9.799047274468245" fill="#06d6a0" opacity="0.21646972500404105" rx="1"/><rect x="1861.8159239569209" y="856.40506707281" width="4.522707741829266" height="7.808466657485922" fill="#118ab2" opacity="0.12190546435814013" rx="1"/><rect x="1852.1504812850226" y="860.309300401553" width="4.522707741829266" height="7.808466657485922" fill="#06d6a0" opacity="0.06095273217907007" rx="1"/><rect x="0" y="1000" width="1920" height="80" fill="#001526" opacity="0.8"/><line x1="0" y1="1040" x2="1920" y2="1040" stroke="#118ab2" stroke-opacity="0.15" stroke-width="2" stroke-dasharray="30,20"/><rect x="0" y="930" width="1920" height="150" fill="url(#glow63)"/><text x="1900" y="1060" font-family="Arial, sans-serif" font-size="11" fill="#fff" opacity="0.08" text-anchor="end" letter-spacing="2">GTA 6 REWARDS · WALLPAPER 064</text>
</svg>