<?xml version="1.0" encoding="UTF-8"?>
<svg xmlns="http://www.w3.org/2000/svg" width="1920" height="1080" viewBox="0 0 1920 1080">
<defs>
    <linearGradient id="bg3" x1="0%" y1="0%" x2="0%" y2="100%">
      <stop offset="0%" stop-color="#073b4c"/>
      <stop offset="50%" stop-color="#000819"/>
      <stop offset="100%" stop-color="#073b4c"/>
    </linearGradient>
    <linearGradient id="sun3" x1="0%" y1="0%" x2="100%" y2="100%">
      <stop offset="0%" stop-color="#06d6a0"/>
      <stop offset="100%" stop-color="#118ab2"/>
    </linearGradient>
    <radialGradient id="glow3" cx="50%" cy="70%" r="50%">
      <stop offset="0%" stop-color="#06d6a0" stop-opacity="0.3"/>
      <stop offset="100%" stop-color="#073b4c" stop-opacity="0"/>
    </radialGradient>
  </defs><rect width="1920" height="1080" fill="url(#bg3)"/><circle cx="346.39459262750916" cy="382.4768770910979" r="622.4784029001553" fill="#06d6a0" opacity="0.1263005390009611"/><circle cx="546.3945926275092" cy="282.4768770910979" r="496.2360835858239" fill="#118ab2" opacity="0.08893836597887296"/><circle cx="615.9075220851012" cy="315.782167405305" r="66.4720226653088" fill="url(#sun3)" opacity="0.6584748755578126"/><circle cx="615.9075220851012" cy="315.782167405305" r="61.4720226653088" fill="#073b4c" opacity="0.3"/><rect x="23.811961746265172" y="731.4036942742307" width="82.7863996272875" height="177.08709991469215" fill="#073b4c" opacity="0.4860241207494457" rx="2"/><rect x="61.09944724945804" y="741.4036942742307" width="8.211428620901756" height="9.326935393579056" fill="#118ab2" opacity="0.3699735579709461" rx="1"/><rect x="40.402847342636164" y="746.0671619710203" width="8.211428620901756" height="9.326935393579056" fill="#06d6a0" opacity="0.18498677898547305" rx="1"/><rect x="63.15873775588319" y="766.701851404901" width="4.09284760805146" height="9.509417466705063" fill="#118ab2" opacity="0.2551985058829185" rx="1"/><rect x="42.462137849061314" y="771.4565601382536" width="4.09284760805146" height="9.509417466705063" fill="#06d6a0" opacity="0.12759925294145924" rx="1"/><rect x="59.45787432567632" y="792.0000085355713" width="11.49457446846519" height="9.077476919413888" fill="#118ab2" opacity="0.31029013900791536" rx="1"/><rect x="38.76127441885445" y="796.5387469952782" width="11.49457446846519" height="9.077476919413888" fill="#06d6a0" opacity="0.15514506950395768" rx="1"/><rect x="60.346425234187954" y="817.2981656662416" width="9.717472651441923" height="6.617327843005147" fill="#118ab2" opacity="0.283961643065317" rx="1"/><rect x="39.64982532736608" y="820.6068295877442" width="9.717472651441923" height="6.617327843005147" fill="#06d6a0" opacity="0.1419808215326585" rx="1"/><rect x="60.31436427666674" y="842.596322796912" width="9.781594566484353" height="6.005762378686518" fill="#118ab2" opacity="0.10417790981106878" rx="1"/><rect x="39.61776436984486" y="845.5992039862552" width="9.781594566484353" height="6.005762378686518" fill="#06d6a0" opacity="0.05208895490553439" rx="1"/><rect x="61.291924775646045" y="867.8944799275822" width="7.826473568525741" height="9.452302267647418" fill="#118ab2" opacity="0.40148580933489975" rx="1"/><rect x="40.59532486882417" y="872.6206310614059" width="7.826473568525741" height="9.452302267647418" fill="#06d6a0" opacity="0.20074290466744987" rx="1"/><rect x="60.47690259653071" y="893.1926370582526" width="9.456517926756412" height="9.145250756094523" fill="#118ab2" opacity="0.3921800785214128" rx="1"/><rect x="39.78030268970883" y="897.7652624362998" width="9.456517926756412" height="9.145250756094523" fill="#06d6a0" opacity="0.1960900392607064" rx="1"/><rect x="104.72583154601605" y="716.8022460692567" width="34.25513729552159" height="191.68854811966617" fill="#073b4c" opacity="0.6515561666459675" rx="2"/><rect x="117.99753521588067" y="726.8022460692567" width="7.711729955792364" height="7.987042480611019" fill="#118ab2" opacity="0.3854406572378801" rx="1"/><rect x="109.43375089200026" y="730.7957673095623" width="7.711729955792364" height="7.987042480611019" fill="#06d6a0" opacity="0.19272032861894006" rx="1"/><rect x="116.74907593512147" y="765.13995569319" width="10.20864851731077" height="9.421777773513872" fill="#118ab2" opacity="0.4323011040529937" rx="1"/><rect x="108.18529161124107" y="769.850844579947" width="10.20864851731077" height="9.421777773513872" fill="#06d6a0" opacity="0.21615055202649686" rx="1"/><rect x="118.36424396028335" y="803.4776653171232" width="6.978312466987015" height="8.755822087348397" fill="#118ab2" opacity="0.4499248197418463" rx="1"/><rect x="109.80045963640295" y="807.8555763607974" width="6.978312466987015" height="8.755822087348397" fill="#06d6a0" opacity="0.22496240987092314" rx="1"/><rect x="117.98822347838582" y="841.8153749410565" width="7.730353430782062" height="9.915219138356676" fill="#118ab2" opacity="0.540374733982695" rx="1"/><rect x="109.42443915450542" y="846.7729845102348" width="7.730353430782062" height="9.915219138356676" fill="#06d6a0" opacity="0.2701873669913475" rx="1"/><rect x="117.00293188631096" y="880.1530845649897" width="9.700936614931779" height="8.70848407845676" fill="#118ab2" opacity="0.5763073594021395" rx="1"/><rect x="108.43914756243056" y="884.5073266042181" width="9.700936614931779" height="8.70848407845676" fill="#06d6a0" opacity="0.28815367970106975" rx="1"/><rect x="197.50054274712153" y="808.6452556910564" width="33.41336342119923" height="99.84553849786649" fill="#073b4c" opacity="0.6596515714096958" rx="2"/><rect x="210.04644223365068" y="818.6452556910564" width="8.321564448140926" height="7.15971969374449" fill="#118ab2" opacity="0.33164654551810735" rx="1"/><rect x="201.6931013783509" y="822.2251155379287" width="8.321564448140926" height="7.15971969374449" fill="#06d6a0" opacity="0.16582327275905367" rx="1"/><rect x="209.99931815979903" y="838.6143633906297" width="8.415812595844226" height="8.31131908258221" fill="#118ab2" opacity="0.2955534031604308" rx="1"/><rect x="201.64597730449924" y="842.7700229319208" width="8.415812595844226" height="8.31131908258221" fill="#06d6a0" opacity="0.1477767015802154" rx="1"/><rect x="209.18239062601208" y="858.5834710902029" width="10.049667663418145" height="6.691985395898108" fill="#118ab2" opacity="0.5763078035265924" rx="1"/><rect x="200.8290497707123" y="861.929463788152" width="10.049667663418145" height="6.691985395898108" fill="#06d6a0" opacity="0.2881539017632962" rx="1"/><rect x="209.63492560253277" y="878.5525787897762" width="9.144597710376743" height="9.002642171225194" fill="#118ab2" opacity="0.48498984949779456" rx="1"/><rect x="201.28158474723298" y="883.0538998753889" width="9.144597710376743" height="9.002642171225194" fill="#06d6a0" opacity="0.24249492474889728" rx="1"/><rect x="211.96277498188408" y="898.5216864893496" width="4.48889895167409" height="7.649907324847278" fill="#118ab2" opacity="0.17732930629917637" rx="1"/><rect x="203.6094341265843" y="902.3466401517733" width="4.48889895167409" height="7.649907324847278" fill="#06d6a0" opacity="0.08866465314958819" rx="1"/><rect x="282.53943488420776" y="642.1334844064278" width="76.4353878391989" height="266.3573097824951" fill="#073b4c" opacity="0.697092212875628" rx="2"/><rect x="316.4259017037415" y="652.1334844064278" width="8.662454200131458" height="9.546125393255178" fill="#118ab2" opacity="0.5751665323216391" rx="1"/><rect x="297.31705474394175" y="656.9065471030553" width="8.662454200131458" height="9.546125393255178" fill="#06d6a0" opacity="0.28758326616081953" rx="1"/><rect x="315.50295857245976" y="685.4281481292396" width="10.508340462694955" height="7.264384226236582" fill="#118ab2" opacity="0.41286030654163575" rx="1"/><rect x="296.39411161266" y="689.0603402423579" width="10.508340462694955" height="7.264384226236582" fill="#06d6a0" opacity="0.20643015327081787" rx="1"/><rect x="314.9813346814913" y="718.7228118520516" width="11.551588244631791" height="7.563837673879191" fill="#118ab2" opacity="0.3994327735620161" rx="1"/><rect x="295.8724877216916" y="722.5047306889911" width="11.551588244631791" height="7.563837673879191" fill="#06d6a0" opacity="0.19971638678100806" rx="1"/><rect x="318.19378904128644" y="752.0174755748635" width="5.126679525041645" height="8.524130147538179" fill="#118ab2" opacity="0.37366854047255327" rx="1"/><rect x="299.0849420814867" y="756.2795406486326" width="5.126679525041645" height="8.524130147538179" fill="#06d6a0" opacity="0.18683427023627663" rx="1"/><rect x="317.73152695647116" y="785.3121392976753" width="6.051203694672138" height="9.524976001941827" fill="#118ab2" opacity="0.12455402201147611" rx="1"/><rect x="298.6226799966714" y="790.0746272986463" width="6.051203694672138" height="9.524976001941827" fill="#06d6a0" opacity="0.062277011005738056" rx="1"/><rect x="315.3642670763235" y="818.6068030204872" width="10.785723454967542" height="6.353160362772914" fill="#118ab2" opacity="0.31219275209870956" rx="1"/><rect x="296.25542011652374" y="821.7833832018737" width="10.785723454967542" height="6.353160362772914" fill="#06d6a0" opacity="0.15609637604935478" rx="1"/><rect x="315.1992263988717" y="851.9014667432991" width="11.115804809871085" height="6.1161810085447925" fill="#118ab2" opacity="0.43515282518583187" rx="1"/><rect x="296.09037943907197" y="854.9595572475715" width="11.115804809871085" height="6.1161810085447925" fill="#06d6a0" opacity="0.21757641259291594" rx="1"/><rect x="318.3443579643031" y="885.1961304661111" width="4.825541679008292" height="7.1518781970143035" fill="#118ab2" opacity="0.5966835390070182" rx="1"/><rect x="299.23551100450334" y="888.7720695646183" width="4.825541679008292" height="7.1518781970143035" fill="#06d6a0" opacity="0.2983417695035091" rx="1"/><rect x="364.79199222104273" y="826.9431956291533" width="40.77301627741498" height="81.54759855976971" fill="#002132" opacity="0.5946247904781776" rx="2"/><rect x="379.8676134674206" y="836.9431956291533" width="10.621773784659284" height="8.755656097725884" fill="#118ab2" opacity="0.5037768101328465" rx="1"/><rect x="369.6743593980669" y="841.3210236780162" width="10.621773784659284" height="8.755656097725884" fill="#06d6a0" opacity="0.25188840506642324" rx="1"/><rect x="382.67651287348696" y="850.5344620557815" width="5.003974972526537" height="6.770628346309678" fill="#118ab2" opacity="0.16394111005681128" rx="1"/><rect x="372.48325880413324" y="853.9197762289364" width="5.003974972526537" height="6.770628346309678" fill="#06d6a0" opacity="0.08197055502840564" rx="1"/><rect x="380.7416831322514" y="864.1257284824098" width="8.873634454997637" height="8.702073117415903" fill="#118ab2" opacity="0.38876726813352835" rx="1"/><rect x="370.5484290628977" y="868.4767650411178" width="8.873634454997637" height="8.702073117415903" fill="#06d6a0" opacity="0.19438363406676418" rx="1"/><rect x="380.26575555944316" y="877.7169949090381" width="9.825489600614059" height="7.273813871963372" fill="#118ab2" opacity="0.5753673155734705" rx="1"/><rect x="370.07250149008945" y="881.3539018450198" width="9.825489600614059" height="7.273813871963372" fill="#06d6a0" opacity="0.28768365778673527" rx="1"/><rect x="382.8011508023073" y="891.3082613356664" width="4.75469911488581" height="9.858688823845863" fill="#118ab2" opacity="0.19746473494392464" rx="1"/><rect x="372.6078967329536" y="896.2376057475893" width="4.75469911488581" height="9.858688823845863" fill="#06d6a0" opacity="0.09873236747196232" rx="1"/><rect x="381.64526118569034" y="904.8995277622947" width="7.0664783481197615" height="7.990237073504887" fill="#118ab2" opacity="0.3186852311060497" rx="1"/><rect x="371.45200711633663" y="908.8946462990472" width="7.0664783481197615" height="7.990237073504887" fill="#06d6a0" opacity="0.15934261555302484" rx="1"/><rect x="452.906674319412" y="627.1696158398803" width="46.68089300782441" height="281.3211783490426" fill="#002132" opacity="0.5389504187831075" rx="2"/><rect x="472.90011900872713" y="637.1696158398803" width="6.694003629194108" height="7.797970914700527" fill="#118ab2" opacity="0.2845754598464294" rx="1"/><rect x="461.22989575677104" y="641.0686012972305" width="6.694003629194108" height="7.797970914700527" fill="#06d6a0" opacity="0.1422877299232147" rx="1"/><rect x="470.2897103201552" y="677.3583556040293" width="11.914821006337839" height="6.315324829964741" fill="#118ab2" opacity="0.15151745340589376" rx="1"/><rect x="458.61948706819913" y="680.5160180190117" width="11.914821006337839" height="6.315324829964741" fill="#06d6a0" opacity="0.07575872670294688" rx="1"/><rect x="473.5074265994127" y="717.5470953681781" width="5.479388447822861" height="6.5067810501220595" fill="#118ab2" opacity="0.5339048235988955" rx="1"/><rect x="461.83720334745664" y="720.8004858932392" width="5.479388447822861" height="6.5067810501220595" fill="#06d6a0" opacity="0.26695241179944773" rx="1"/><rect x="471.16333585122" y="757.7358351323271" width="10.167569944208388" height="9.356947135030513" fill="#118ab2" opacity="0.2928260361759053" rx="1"/><rect x="459.4931125992639" y="762.4143086998424" width="10.167569944208388" height="9.356947135030513" fill="#06d6a0" opacity="0.14641301808795265" rx="1"/><rect x="473.9892471241951" y="797.9245748964761" width="4.515747398258128" height="7.340713599077592" fill="#118ab2" opacity="0.2302653486212402" rx="1"/><rect x="462.31902387223903" y="801.5949316960149" width="4.515747398258128" height="7.340713599077592" fill="#06d6a0" opacity="0.1151326743106201" rx="1"/><rect x="473.7133968467368" y="838.1133146606251" width="5.067447953174693" height="6.509533705308459" fill="#118ab2" opacity="0.3060201195315505" rx="1"/><rect x="462.04317359478074" y="841.3680815132793" width="5.067447953174693" height="6.509533705308459" fill="#06d6a0" opacity="0.15301005976577525" rx="1"/><rect x="473.32075349460627" y="878.3020544247739" width="5.852734657435849" height="6.07594172192643" fill="#118ab2" opacity="0.3733703016474308" rx="1"/><rect x="461.6505302426502" y="881.3400252857372" width="5.852734657435849" height="6.07594172192643" fill="#06d6a0" opacity="0.1866851508237154" rx="1"/><rect x="537.5540853521002" y="540.4654524266872" width="53.06400557119959" height="368.0253417622357" fill="#073b4c" opacity="0.6707804712398864" rx="2"/><rect x="560.7915260509357" y="550.4654524266872" width="6.589124173528777" height="7.120823667645646" fill="#118ab2" opacity="0.20190065254035888" rx="1"/><rect x="547.5255246581357" y="554.02586426051" width="6.589124173528777" height="7.120823667645646" fill="#06d6a0" opacity="0.10095032627017944" rx="1"/><rect x="559.0184914611577" y="642.4717878672461" width="10.13519335308466" height="6.045240263465149" fill="#118ab2" opacity="0.19712701595787124" rx="1"/><rect x="545.7524900683578" y="645.4944079989787" width="10.13519335308466" height="6.045240263465149" fill="#06d6a0" opacity="0.09856350797893562" rx="1"/><rect x="560.5776546091043" y="734.478123307805" width="7.01686705719141" height="9.941393474103275" fill="#118ab2" opacity="0.25518378097451844" rx="1"/><rect x="547.3116532163044" y="739.4488200448567" width="7.01686705719141" height="9.941393474103275" fill="#06d6a0" opacity="0.12759189048725922" rx="1"/><rect x="559.8237283634331" y="826.484458748364" width="8.524719548533838" height="6.659093632516241" fill="#118ab2" opacity="0.3973508466494621" rx="1"/><rect x="546.5577269706332" y="829.8140055646221" width="8.524719548533838" height="6.659093632516241" fill="#06d6a0" opacity="0.19867542332473104" rx="1"/><rect x="635.306487164468" y="533.3303918557544" width="31.441592951640857" height="375.1604023331684" fill="#002132" opacity="0.42545574333645775" rx="2"/><rect x="647.1173957308858" y="543.3303918557544" width="7.819775818805159" height="8.7255589120848" fill="#118ab2" opacity="0.5333108075506312" rx="1"/><rect x="639.2569974929756" y="547.6931713117968" width="7.819775818805159" height="8.7255589120848" fill="#06d6a0" opacity="0.2666554037753156" rx="1"/><rect x="646.8621276488037" y="668.383859300144" width="8.33031198296936" height="8.281018507266655" fill="#118ab2" opacity="0.5355795900187408" rx="1"/><rect x="639.0017294108935" y="672.5243685537773" width="8.33031198296936" height="8.281018507266655" fill="#06d6a0" opacity="0.2677897950093704" rx="1"/><rect x="646.5062848385967" y="793.4373267445334" width="9.041997603383379" height="9.480567509187518" fill="#118ab2" opacity="0.5309593371420538" rx="1"/><rect x="638.6458866006865" y="798.1776104991271" width="9.041997603383379" height="9.480567509187518" fill="#06d6a0" opacity="0.2654796685710269" rx="1"/><rect x="716.226292364479" y="655.6663502486577" width="45.76702068461269" height="252.82444394026518" fill="#073b4c" opacity="0.5551979631081219" rx="2"/><rect x="736.4446017504647" y="665.6663502486577" width="5.33040191264134" height="8.211590067067089" fill="#118ab2" opacity="0.2055260782841421" rx="1"/><rect x="725.0028465793116" y="669.7721452821913" width="5.33040191264134" height="8.211590067067089" fill="#06d6a0" opacity="0.10276303914207105" rx="1"/><rect x="734.6408685865315" y="728.872461233724" width="8.937868240507754" height="9.442049666177958" fill="#118ab2" opacity="0.18866772488427064" rx="1"/><rect x="723.1991134153784" y="733.593486066813" width="8.937868240507754" height="9.442049666177958" fill="#06d6a0" opacity="0.09433386244213532" rx="1"/><rect x="733.8789227054045" y="792.0785722187903" width="10.461760002761558" height="8.663336708830515" fill="#118ab2" opacity="0.25847622711641627" rx="1"/><rect x="722.4371675342514" y="796.4102405732056" width="10.461760002761558" height="8.663336708830515" fill="#06d6a0" opacity="0.12923811355820813" rx="1"/><rect x="736.1836663814562" y="855.2846832038566" width="5.852272650658216" height="9.65943871430574" fill="#118ab2" opacity="0.46616325480075627" rx="1"/><rect x="724.7419112103031" y="860.1144025610095" width="5.852272650658216" height="9.65943871430574" fill="#06d6a0" opacity="0.23308162740037813" rx="1"/><rect x="798.8603176584523" y="702.1450500358234" width="83.28437447391552" height="206.34574415309953" fill="#073b4c" opacity="0.5352869781514833" rx="2"/><rect x="835.399204624063" y="712.1450500358234" width="10.206600542694005" height="7.53022583609685" fill="#118ab2" opacity="0.4349495036143226" rx="1"/><rect x="814.5781110055842" y="715.9101629538718" width="10.206600542694005" height="7.53022583609685" fill="#06d6a0" opacity="0.2174747518071613" rx="1"/><rect x="837.6023594688079" y="753.4141988664433" width="5.800290853204274" height="9.056836569462167" fill="#118ab2" opacity="0.3245816763547672" rx="1"/><rect x="816.7812658503292" y="757.9426171511743" width="5.800290853204274" height="9.056836569462167" fill="#06d6a0" opacity="0.1622908381773836" rx="1"/><rect x="835.755794080235" y="794.6833476970631" width="9.493421630350273" height="9.727024669695417" fill="#118ab2" opacity="0.5397061841887669" rx="1"/><rect x="814.9347004617562" y="799.5468600319108" width="9.493421630350273" height="9.727024669695417" fill="#06d6a0" opacity="0.26985309209438346" rx="1"/><rect x="835.0909832130313" y="835.952496527683" width="10.82304336475745" height="7.599958722852161" fill="#118ab2" opacity="0.20708754756652925" rx="1"/><rect x="814.2698895945525" y="839.7524758891091" width="10.82304336475745" height="7.599958722852161" fill="#06d6a0" opacity="0.10354377378326463" rx="1"/><rect x="838.261036011303" y="877.221645358303" width="4.482937768214135" height="6.813876770626259" fill="#118ab2" opacity="0.4407585635643356" rx="1"/><rect x="817.4399423928242" y="880.6285837436161" width="4.482937768214135" height="6.813876770626259" fill="#06d6a0" opacity="0.2203792817821678" rx="1"/><rect x="891.9931905577367" y="749.9300100607634" width="87.16118124247556" height="158.56078412815947" fill="#073b4c" opacity="0.4772594101906893" rx="2"/><rect x="932.6414650496616" y="759.9300100607634" width="5.864632258625848" height="7.870579118344602" fill="#118ab2" opacity="0.41679554081447323" rx="1"/><rect x="910.8511697390428" y="763.8652996199356" width="5.864632258625848" height="7.870579118344602" fill="#06d6a0" opacity="0.20839777040723662" rx="1"/><rect x="930.2120700933491" y="779.7501080767834" width="10.723422171250782" height="9.140589561113293" fill="#118ab2" opacity="0.13595678253005183" rx="1"/><rect x="908.4217747827303" y="784.32040285734" width="10.723422171250782" height="9.140589561113293" fill="#06d6a0" opacity="0.06797839126502592" rx="1"/><rect x="930.1929667339136" y="799.5702060928032" width="10.761628890121735" height="6.932021228813571" fill="#118ab2" opacity="0.5474673065001767" rx="1"/><rect x="908.4026714232948" y="803.03621670721" width="10.761628890121735" height="6.932021228813571" fill="#06d6a0" opacity="0.27373365325008836" rx="1"/><rect x="930.1516695458754" y="819.3903041088232" width="10.844223266198352" height="8.85065622321578" fill="#118ab2" opacity="0.4643067390342026" rx="1"/><rect x="908.3613742352566" y="823.8156322204311" width="10.844223266198352" height="8.85065622321578" fill="#06d6a0" opacity="0.2321533695171013" rx="1"/><rect x="931.9161694545993" y="839.2104021248431" width="7.315223448750382" height="6.277636014921041" fill="#118ab2" opacity="0.21616469619706383" rx="1"/><rect x="910.1258741439805" y="842.3492201323036" width="7.315223448750382" height="6.277636014921041" fill="#06d6a0" opacity="0.10808234809853191" rx="1"/><rect x="931.2340307339132" y="859.0305001408631" width="8.679500890122611" height="8.180267841131489" fill="#118ab2" opacity="0.3653336483671641" rx="1"/><rect x="909.4437354232944" y="863.1206340614289" width="8.679500890122611" height="8.180267841131489" fill="#06d6a0" opacity="0.18266682418358204" rx="1"/><rect x="931.1000599638285" y="878.8505981568829" width="8.947442430292126" height="6.250481903611329" fill="#118ab2" opacity="0.5470412477261949" rx="1"/><rect x="909.3097646532096" y="881.9758391086885" width="8.947442430292126" height="6.250481903611329" fill="#06d6a0" opacity="0.27352062386309745" rx="1"/><rect x="930.7654782384512" y="898.6706961729029" width="9.616605881046645" height="8.430438957742982" fill="#118ab2" opacity="0.5201412125071839" rx="1"/><rect x="908.9751829278324" y="902.8859156517744" width="9.616605881046645" height="8.430438957742982" fill="#06d6a0" opacity="0.26007060625359196" rx="1"/><rect x="988.0426660385082" y="532.2069057920498" width="88.57581859421353" height="376.2838883968731" fill="#073b4c" opacity="0.4099819151707883" rx="2"/><rect x="1028.1646692336453" y="542.2069057920498" width="8.33181220393903" height="6.395626735034312" fill="#118ab2" opacity="0.3905376252696239" rx="1"/><rect x="1006.020714585092" y="545.404719159567" width="8.33181220393903" height="6.395626735034312" fill="#06d6a0" opacity="0.19526881263481194" rx="1"/><rect x="1028.0037987364929" y="617.4636834714245" width="8.653553198243852" height="9.385151514640345" fill="#118ab2" opacity="0.4723171266895526" rx="1"/><rect x="1005.8598440879397" y="622.1562592287446" width="8.653553198243852" height="9.385151514640345" fill="#06d6a0" opacity="0.2361585633447763" rx="1"/><rect x="1029.3441752470899" y="692.7204611507991" width="5.97280017705001" height="8.235158532446986" fill="#118ab2" opacity="0.36306018285990227" rx="1"/><rect x="1007.2002205985366" y="696.8380404170226" width="5.97280017705001" height="8.235158532446986" fill="#06d6a0" opacity="0.18153009142995113" rx="1"/><rect x="1029.6679181751485" y="767.9772388301737" width="5.325314320932448" height="6.370219861243437" fill="#118ab2" opacity="0.2792354875195854" rx="1"/><rect x="1007.5239635265954" y="771.1623487607955" width="5.325314320932448" height="6.370219861243437" fill="#06d6a0" opacity="0.1396177437597927" rx="1"/><rect x="1027.3485137075995" y="843.2340165095484" width="9.964123256030522" height="7.2679799798103" fill="#118ab2" opacity="0.2958146052658126" rx="1"/><rect x="1005.2045590590463" y="846.8680064994535" width="9.964123256030522" height="7.2679799798103" fill="#06d6a0" opacity="0.1479073026329063" rx="1"/><rect x="1064.8079010789809" y="781.2757276537072" width="60.8952534410393" height="127.21506653521561" fill="#002132" opacity="0.5166717713039071" rx="2"/><rect x="1091.9475250255236" y="791.2757276537072" width="6.616005547953771" height="6.472098396269628" fill="#118ab2" opacity="0.2664167509103233" rx="1"/><rect x="1076.7237116652639" y="794.511776851842" width="6.616005547953771" height="6.472098396269628" fill="#06d6a0" opacity="0.13320837545516165" rx="1"/><rect x="1091.7734224052613" y="833.6807498321125" width="6.9642107884781925" height="9.086773299399479" fill="#118ab2" opacity="0.3028245813452696" rx="1"/><rect x="1076.5496090450015" y="838.2241364818123" width="6.9642107884781925" height="9.086773299399479" fill="#06d6a0" opacity="0.1514122906726348" rx="1"/><rect x="1090.3436320440753" y="876.0857720105176" width="9.823791510850143" height="7.83722722852538" fill="#118ab2" opacity="0.5973631870228245" rx="1"/><rect x="1075.1198186838155" y="880.0043856247803" width="9.823791510850143" height="7.83722722852538" fill="#06d6a0" opacity="0.29868159351141227" rx="1"/><rect x="1163.0101407334782" y="586.6955244999135" width="69.03347928054478" height="321.79526968900933" fill="#073b4c" opacity="0.6405666879705542" rx="2"/><rect x="1193.7705275305561" y="596.6955244999135" width="7.512705686388701" height="9.868405826359151" fill="#118ab2" opacity="0.23993284924419897" rx="1"/><rect x="1176.51215771042" y="601.6297274130931" width="7.512705686388701" height="9.868405826359151" fill="#06d6a0" opacity="0.11996642462209949" rx="1"/><rect x="1194.0473113797334" y="642.6662773126292" width="6.959137988034435" height="7.482291750023675" fill="#118ab2" opacity="0.23815534001639005" rx="1"/><rect x="1176.7889415595973" y="646.407423187641" width="6.959137988034435" height="7.482291750023675" fill="#06d6a0" opacity="0.11907767000819502" rx="1"/><rect x="1192.4596160862352" y="688.6370301253447" width="10.134528575030744" height="9.179380232277182" fill="#118ab2" opacity="0.3012517801954532" rx="1"/><rect x="1175.2012462660991" y="693.2267202414833" width="10.134528575030744" height="9.179380232277182" fill="#06d6a0" opacity="0.1506258900977266" rx="1"/><rect x="1193.3300274433489" y="734.6077829380604" width="8.393705860803301" height="7.584861761328034" fill="#118ab2" opacity="0.3052698727243742" rx="1"/><rect x="1176.0716576232128" y="738.4002138187244" width="8.393705860803301" height="7.584861761328034" fill="#06d6a0" opacity="0.1526349363621871" rx="1"/><rect x="1195.3303587171172" y="780.5785357507759" width="4.393043313266952" height="7.063701628955012" fill="#118ab2" opacity="0.3200206186901826" rx="1"/><rect x="1178.071988896981" y="784.1103865652534" width="4.393043313266952" height="7.063701628955012" fill="#06d6a0" opacity="0.1600103093450913" rx="1"/><rect x="1192.4540211220947" y="826.5492885634916" width="10.145718503311677" height="8.87996818751096" fill="#118ab2" opacity="0.5636004479750061" rx="1"/><rect x="1175.1956513019586" y="830.989272657247" width="10.145718503311677" height="8.87996818751096" fill="#06d6a0" opacity="0.28180022398750304" rx="1"/><rect x="1193.4796832856061" y="872.5200413762072" width="8.094394176289065" height="6.324378112406558" fill="#118ab2" opacity="0.4869740444670837" rx="1"/><rect x="1176.22131346547" y="875.6822304324105" width="8.094394176289065" height="6.324378112406558" fill="#06d6a0" opacity="0.24348702223354185" rx="1"/><rect x="1227.7748199839214" y="690.578190037184" width="59.86387277251666" height="217.91260415173895" fill="#073b4c" opacity="0.5618766062105719" rx="2"/><rect x="1254.894222591852" y="700.578190037184" width="5.625067556655283" height="9.360629678554979" fill="#118ab2" opacity="0.26357684244019375" rx="1"/><rect x="1239.9282543987229" y="705.2585048764614" width="5.625067556655283" height="9.360629678554979" fill="#06d6a0" opacity="0.13178842122009687" rx="1"/><rect x="1254.356997263341" y="736.8969573958071" width="6.699518213677107" height="8.8695140310725" fill="#118ab2" opacity="0.14739775696010277" rx="1"/><rect x="1239.391029070212" y="741.3317144113433" width="6.699518213677107" height="8.8695140310725" fill="#06d6a0" opacity="0.07369887848005138" rx="1"/><rect x="1254.593441488931" y="773.2157247544303" width="6.226629762497412" height="9.448084920516258" fill="#118ab2" opacity="0.2435752483419085" rx="1"/><rect x="1239.6274732958018" y="777.9397672146885" width="6.226629762497412" height="9.448084920516258" fill="#06d6a0" opacity="0.12178762417095425" rx="1"/><rect x="1252.2956193640712" y="809.5344921130534" width="10.822274012216896" height="7.501590371481513" fill="#118ab2" opacity="0.3817018922142922" rx="1"/><rect x="1237.329651170942" y="813.2852872987942" width="10.822274012216896" height="7.501590371481513" fill="#06d6a0" opacity="0.1908509461071461" rx="1"/><rect x="1255.6654814491328" y="845.8532594716766" width="4.082549842093734" height="6.528471239034197" fill="#118ab2" opacity="0.17351111482677775" rx="1"/><rect x="1240.6995132560037" y="849.1174950911936" width="4.082549842093734" height="6.528471239034197" fill="#06d6a0" opacity="0.08675555741338888" rx="1"/><rect x="1253.9298302192203" y="882.1720268302997" width="7.553852301918401" height="8.741422532764595" fill="#118ab2" opacity="0.12352302230976593" rx="1"/><rect x="1238.9638620260912" y="886.542738096682" width="7.553852301918401" height="8.741422532764595" fill="#06d6a0" opacity="0.061761511154882966" rx="1"/><rect x="1317.1398671447328" y="595.3640398675027" width="69.07547373303106" height="313.12675432142026" fill="#002132" opacity="0.4853513252887296" rx="2"/><rect x="1349.4198536313354" y="605.3640398675027" width="4.515500759825925" height="6.039781524809026" fill="#118ab2" opacity="0.27351304592413667" rx="1"/><rect x="1332.1509851980775" y="608.3839306299072" width="4.515500759825925" height="6.039781524809026" fill="#06d6a0" opacity="0.13675652296206833" rx="1"/><rect x="1345.887239268087" y="683.6457284478578" width="11.580729486323133" height="7.131688948984186" fill="#118ab2" opacity="0.12525038796599267" rx="1"/><rect x="1328.618370834829" y="687.2115729223499" width="11.580729486323133" height="7.131688948984186" fill="#06d6a0" opacity="0.06262519398299633" rx="1"/><rect x="1349.1177316781577" y="761.9274170282129" width="5.119744666181445" height="6.810233846495448" fill="#118ab2" opacity="0.4281936375024248" rx="1"/><rect x="1331.8488632448998" y="765.3325339514606" width="5.119744666181445" height="6.810233846495448" fill="#06d6a0" opacity="0.2140968187512124" rx="1"/><rect x="1347.547981716185" y="840.2091056085678" width="8.259244590126734" height="6.734022549524443" fill="#118ab2" opacity="0.36533567085055063" rx="1"/><rect x="1330.279113282927" y="843.5761168833301" width="8.259244590126734" height="6.734022549524443" fill="#06d6a0" opacity="0.18266783542527532" rx="1"/><rect x="1400.7490512332508" y="804.5989555666686" width="32.594727581039706" height="103.89183862225428" fill="#002132" opacity="0.5259006384121954" rx="2"/><rect x="1414.6962233252796" y="814.5989555666686" width="4.700383396982304" height="8.488515057249115" fill="#118ab2" opacity="0.18483022616357314" rx="1"/><rect x="1406.5475414300195" y="818.8432130952931" width="4.700383396982304" height="8.488515057249115" fill="#06d6a0" opacity="0.09241511308178657" rx="1"/><rect x="1411.937960242394" y="829.4406467984192" width="10.216909562753726" height="6.691162391726664" fill="#118ab2" opacity="0.13901038110233155" rx="1"/><rect x="1403.7892783471339" y="832.7862279942825" width="10.216909562753726" height="6.691162391726664" fill="#06d6a0" opacity="0.06950519055116577" rx="1"/><rect x="1411.6832349472156" y="844.2823380301697" width="10.726360153110317" height="7.458823102866026" fill="#118ab2" opacity="0.2626974566985614" rx="1"/><rect x="1403.5345530519555" y="848.0117495816028" width="10.726360153110317" height="7.458823102866026" fill="#06d6a0" opacity="0.1313487283492807" rx="1"/><rect x="1411.5858571468102" y="859.1240292619204" width="10.921115753921008" height="9.397459817909976" fill="#118ab2" opacity="0.500704788370222" rx="1"/><rect x="1403.4371752515501" y="863.8227591708754" width="10.921115753921008" height="9.397459817909976" fill="#06d6a0" opacity="0.250352394185111" rx="1"/><rect x="1413.7650384455587" y="873.965720493671" width="6.562753156424209" height="8.75566462864067" fill="#118ab2" opacity="0.48599633236555295" rx="1"/><rect x="1405.6163565502986" y="878.3435528079914" width="6.562753156424209" height="8.75566462864067" fill="#06d6a0" opacity="0.24299816618277648" rx="1"/><rect x="1414.284822025424" y="888.8074117254216" width="5.523185996693369" height="6.99373681866418" fill="#118ab2" opacity="0.5844360919633033" rx="1"/><rect x="1406.136140130164" y="892.3042801347538" width="5.523185996693369" height="6.99373681866418" fill="#06d6a0" opacity="0.29221804598165163" rx="1"/><rect x="1412.518085806307" y="903.6491029571722" width="9.056658434927616" height="9.365069434830236" fill="#118ab2" opacity="0.44923974444373505" rx="1"/><rect x="1404.369403911047" y="908.3316376745873" width="9.056658434927616" height="9.365069434830236" fill="#06d6a0" opacity="0.22461987222186752" rx="1"/><rect x="1495.734367516507" y="697.3137786722075" width="70.23321097722119" height="211.17701551671536" fill="#002132" opacity="0.4729735604424434" rx="2"/><rect x="1526.5432635816865" y="707.3137786722075" width="8.615418846862255" height="6.236582583802888" fill="#118ab2" opacity="0.15990006648001728" rx="1"/><rect x="1508.9849608373813" y="710.4320699641089" width="8.615418846862255" height="6.236582583802888" fill="#06d6a0" opacity="0.07995003324000864" rx="1"/><rect x="1527.0448776811718" y="733.7109056117969" width="7.612190647891767" height="8.786829976082508" fill="#118ab2" opacity="0.4492433480800231" rx="1"/><rect x="1509.4865749368666" y="738.1043205998382" width="7.612190647891767" height="8.786829976082508" fill="#06d6a0" opacity="0.22462167404001154" rx="1"/><rect x="1527.1499243641872" y="760.1080325513864" width="7.4020972818606765" height="8.935859063392472" fill="#118ab2" opacity="0.21012024889004421" rx="1"/><rect x="1509.591621619882" y="764.5759620830826" width="7.4020972818606765" height="8.935859063392472" fill="#06d6a0" opacity="0.10506012444502211" rx="1"/><rect x="1525.7562325307317" y="786.5051594909758" width="10.189480948771696" height="7.683751139250526" fill="#118ab2" opacity="0.10471717934234002" rx="1"/><rect x="1508.1979297864266" y="790.347035060601" width="10.189480948771696" height="7.683751139250526" fill="#06d6a0" opacity="0.05235858967117001" rx="1"/><rect x="1525.6909286425446" y="812.9022864305651" width="10.320088725145926" height="6.596599325676588" fill="#118ab2" opacity="0.36547504327387437" rx="1"/><rect x="1508.1326258982394" y="816.2005860934034" width="10.320088725145926" height="6.596599325676588" fill="#06d6a0" opacity="0.18273752163693718" rx="1"/><rect x="1525.3206783987648" y="839.2994133701545" width="11.06058921270552" height="8.190750846218027" fill="#118ab2" opacity="0.320780636584568" rx="1"/><rect x="1507.7623756544597" y="843.3947887932635" width="11.06058921270552" height="8.190750846218027" fill="#06d6a0" opacity="0.160390318292284" rx="1"/><rect x="1526.8690099429284" y="865.696540309744" width="7.963926124378091" height="9.970886473537163" fill="#118ab2" opacity="0.29938278715111843" rx="1"/><rect x="1509.3107071986233" y="870.6819835465126" width="7.963926124378091" height="9.970886473537163" fill="#06d6a0" opacity="0.14969139357555922" rx="1"/><rect x="1528.293672483927" y="892.0936672493334" width="5.114601042381162" height="7.692705371811218" fill="#118ab2" opacity="0.19304316169420332" rx="1"/><rect x="1510.7353697396218" y="895.940019935239" width="5.114601042381162" height="7.692705371811218" fill="#06d6a0" opacity="0.09652158084710166" rx="1"/><rect x="1572.1120314497593" y="805.1279945427384" width="65.11551211474358" height="103.3627996461845" fill="#073b4c" opacity="0.43178935726913376" rx="2"/><rect x="1600.9470909453637" y="815.1279945427384" width="7.445393123534832" height="8.632900414670097" fill="#118ab2" opacity="0.34005416215864337" rx="1"/><rect x="1584.668212916678" y="819.4444447500734" width="7.445393123534832" height="8.632900414670097" fill="#06d6a0" opacity="0.17002708107932168" rx="1"/><rect x="1601.0191340476151" y="832.3551278171025" width="7.301306919032081" height="8.10231784407569" fill="#118ab2" opacity="0.4562393773710912" rx="1"/><rect x="1584.7402560189294" y="836.4062867391403" width="7.301306919032081" height="8.10231784407569" fill="#06d6a0" opacity="0.2281196886855456" rx="1"/><rect x="1599.0043561362504" y="849.5822610914665" width="11.330862741761576" height="6.1859071329668875" fill="#118ab2" opacity="0.1858427528491809" rx="1"/><rect x="1582.7254781075646" y="852.6752146579499" width="11.330862741761576" height="6.1859071329668875" fill="#06d6a0" opacity="0.09292137642459045" rx="1"/><rect x="1599.712710508015" y="866.8093943658307" width="9.914153998232017" height="7.765577336253035" fill="#118ab2" opacity="0.30308762351122864" rx="1"/><rect x="1583.4338324793293" y="870.6921830339572" width="9.914153998232017" height="7.765577336253035" fill="#06d6a0" opacity="0.15154381175561432" rx="1"/><rect x="1600.5112275137192" y="884.0365276401948" width="8.317119986824022" height="7.842699517924967" fill="#118ab2" opacity="0.3761872620964859" rx="1"/><rect x="1584.2323494850334" y="887.9578773991573" width="8.317119986824022" height="7.842699517924967" fill="#06d6a0" opacity="0.18809363104824295" rx="1"/><rect x="1599.2883371457028" y="901.2636609145588" width="10.762900722856378" height="6.459428159626999" fill="#118ab2" opacity="0.5239402100033919" rx="1"/><rect x="1583.009459117017" y="904.4933749943723" width="10.762900722856378" height="6.459428159626999" fill="#06d6a0" opacity="0.26197010500169593" rx="1"/><rect x="1674.8648146561836" y="563.8340598935806" width="40.65455386197533" height="344.6567342953423" fill="#073b4c" opacity="0.6255054864393328" rx="2"/><rect x="1690.9846247608145" y="573.8340598935806" width="8.414933652713646" height="6.949063391645686" fill="#118ab2" opacity="0.27524407831375586" rx="1"/><rect x="1680.8209862953208" y="577.3085915894035" width="8.414933652713646" height="6.949063391645686" fill="#06d6a0" opacity="0.13762203915687793" rx="1"/><rect x="1692.5736003872285" y="642.765406752649" width="5.236982399885772" height="6.60395458820368" fill="#118ab2" opacity="0.38844069801001824" rx="1"/><rect x="1682.4099619217347" y="646.0673840467508" width="5.236982399885772" height="6.60395458820368" fill="#06d6a0" opacity="0.19422034900500912" rx="1"/><rect x="1690.6913127187258" y="711.6967536117176" width="9.001557736890753" height="9.36771432947547" fill="#118ab2" opacity="0.5242486649714989" rx="1"/><rect x="1680.5276742532321" y="716.3806107764553" width="9.001557736890753" height="9.36771432947547" fill="#06d6a0" opacity="0.26212433248574946" rx="1"/><rect x="1692.8044976732576" y="780.628100470786" width="4.77518782782722" height="8.889055805953465" fill="#118ab2" opacity="0.3326182096108371" rx="1"/><rect x="1682.640859207764" y="785.0726283737627" width="4.77518782782722" height="8.889055805953465" fill="#06d6a0" opacity="0.16630910480541855" rx="1"/><rect x="1691.8751089478424" y="849.5594473298545" width="6.633965278657611" height="6.440920425681612" fill="#118ab2" opacity="0.3734487101606673" rx="1"/><rect x="1681.7114704823487" y="852.7799075426954" width="6.633965278657611" height="6.440920425681612" fill="#06d6a0" opacity="0.18672435508033364" rx="1"/><rect x="1771.3481389749124" y="685.9703802820226" width="56.45453499780375" height="222.5204139069003" fill="#002132" opacity="0.672397817501891" rx="2"/><rect x="1794.1423497124358" y="695.9703802820226" width="10.866113522757336" height="7.572659754560482" fill="#118ab2" opacity="0.31490688335963224" rx="1"/><rect x="1780.0287159629847" y="699.7567101593028" width="10.866113522757336" height="7.572659754560482" fill="#06d6a0" opacity="0.15745344167981612" rx="1"/><rect x="1795.2342217240014" y="727.7590108401512" width="8.68236949962619" height="9.713851021536126" fill="#118ab2" opacity="0.16510428981043035" rx="1"/><rect x="1781.1205879745503" y="732.6159363509192" width="8.68236949962619" height="9.713851021536126" fill="#06d6a0" opacity="0.08255214490521517" rx="1"/><rect x="1795.3007322011201" y="759.5476413982798" width="8.549348545388632" height="8.25491670292218" fill="#118ab2" opacity="0.1855898891076422" rx="1"/><rect x="1781.187098451669" y="763.6750997497409" width="8.549348545388632" height="8.25491670292218" fill="#06d6a0" opacity="0.0927949445538211" rx="1"/><rect x="1796.5130485812847" y="791.3362719564084" width="6.124715785059314" height="9.178362241754858" fill="#118ab2" opacity="0.35319442193796724" rx="1"/><rect x="1782.3994148318336" y="795.9254530772859" width="6.124715785059314" height="9.178362241754858" fill="#06d6a0" opacity="0.17659721096898362" rx="1"/><rect x="1796.3643804224507" y="823.124902514537" width="6.422052102727362" height="9.959106657644526" fill="#118ab2" opacity="0.25209943082930975" rx="1"/><rect x="1782.2507466729996" y="828.1044558433592" width="6.422052102727362" height="9.959106657644526" fill="#06d6a0" opacity="0.12604971541465487" rx="1"/><rect x="1793.8695473361838" y="854.9135330726656" width="11.411718275261045" height="6.497088650357232" fill="#118ab2" opacity="0.5265207679538337" rx="1"/><rect x="1779.7559135867327" y="858.1620773978442" width="11.411718275261045" height="6.497088650357232" fill="#06d6a0" opacity="0.26326038397691687" rx="1"/><rect x="1797.172068331981" y="886.7021636307943" width="4.8066762836665555" height="8.030389167841149" fill="#118ab2" opacity="0.2007975755726913" rx="1"/><rect x="1783.05843458253" y="890.7173582147149" width="4.8066762836665555" height="8.030389167841149" fill="#06d6a0" opacity="0.10039878778634564" rx="1"/><rect x="1834.2200918827211" y="732.9953254160926" width="40.60687530567098" height="175.4954687728303" fill="#002132" opacity="0.49091914458920227" rx="2"/><rect x="1851.258072989164" y="742.9953254160926" width="6.530913092785262" height="7.383656729334885" fill="#118ab2" opacity="0.30835000840210125" rx="1"/><rect x="1841.1063541627461" y="746.68715378076" width="6.530913092785262" height="7.383656729334885" fill="#06d6a0" opacity="0.15417500420105062" rx="1"/><rect x="1849.2328943233972" y="768.066106669354" width="10.581270424318795" height="6.749263192701448" fill="#118ab2" opacity="0.5765339831301323" rx="1"/><rect x="1839.0811754969793" y="771.4407382657047" width="10.581270424318795" height="6.749263192701448" fill="#06d6a0" opacity="0.28826699156506613" rx="1"/><rect x="1851.2597093909146" y="793.1368879226155" width="6.527640289284205" height="9.023736018460182" fill="#118ab2" opacity="0.3618088269982973" rx="1"/><rect x="1841.1079905644967" y="797.6487559318456" width="6.527640289284205" height="9.023736018460182" fill="#06d6a0" opacity="0.18090441349914865" rx="1"/><rect x="1849.58736323816" y="818.207669175877" width="9.872332594793367" height="9.670120852922583" fill="#118ab2" opacity="0.4398967671300975" rx="1"/><rect x="1839.435644411742" y="823.0427296023382" width="9.872332594793367" height="9.670120852922583" fill="#06d6a0" opacity="0.21994838356504876" rx="1"/><rect x="1849.2108196062952" y="843.2784504291384" width="10.625419858523044" height="7.1215805488456" fill="#118ab2" opacity="0.5696450995909155" rx="1"/><rect x="1839.0591007798773" y="846.8392407035612" width="10.625419858523044" height="7.1215805488456" fill="#06d6a0" opacity="0.28482254979545774" rx="1"/><rect x="1849.58310204995" y="868.3492316823999" width="9.880854971213466" height="8.555464828050571" fill="#118ab2" opacity="0.4079863002775205" rx="1"/><rect x="1839.431383223532" y="872.6269640964252" width="9.880854971213466" height="8.555464828050571" fill="#06d6a0" opacity="0.20399315013876024" rx="1"/><rect x="1849.374421656727" y="893.4200129356614" width="10.298215757659221" height="6.19784365785258" fill="#118ab2" opacity="0.45960898370472925" rx="1"/><rect x="1839.2227028303091" y="896.5189347645877" width="10.298215757659221" height="6.19784365785258" fill="#06d6a0" opacity="0.22980449185236462" rx="1"/><path d="M1397.0251646910388 979.2556510025765 Q1392.0833945302488 898.4320663959794 1391.0950404980908 817.6084817893823" stroke="#000000" stroke-width="6.790988345348972" fill="none" stroke-linecap="round"/><path d="M1391.0950404980908 817.6084817893823 Q1423.2773249338563 797.6084817893823 1428.1726719588446 817.6084817893823" stroke="#000819" stroke-width="2.9578230993258354" fill="none" stroke-linecap="round" opacity="0.6"/><path d="M1391.0950404980908 817.6084817893823 Q1407.3399826229243 803.48096560663 1422.3160376374078 829.3534494238776" stroke="#000819" stroke-width="3.983086098447229" fill="none" stroke-linecap="round" opacity="0.6"/><path d="M1391.0950404980908 817.6084817893823 Q1401.4563143418075 804.5979211191695 1380.4597477202922 831.5873604489569" stroke="#000819" stroke-width="2.3536075210090743" fill="none" stroke-linecap="round" opacity="0.6"/><path d="M1391.0950404980908 817.6084817893823 Q1385.3434136567707 800.0421574539631 1357.4045098992942 822.475833118544" stroke="#000819" stroke-width="2.5454362068663903" fill="none" stroke-linecap="round" opacity="0.6"/><path d="M1391.0950404980908 817.6084817893823 Q1362.8400699496447 793.1274564310227 1329.0620735966443 808.6464310726631" stroke="#000819" stroke-width="3.4195944032211774" fill="none" stroke-linecap="round" opacity="0.6"/><path d="M1391.0950404980908 817.6084817893823 Q1403.0579217801917 790.9244856405894 1380.9245171393518 804.2404894917967" stroke="#000819" stroke-width="3.9026019582298126" fill="none" stroke-linecap="round" opacity="0.6"/><path d="M767.7383156418191 823.2354046132498 Q785.2555081446784 715.3421609989233 788.7589466452503 607.4489173845968" stroke="#000000" stroke-width="5.606071084180398" fill="none" stroke-linecap="round"/><path d="M788.7589466452503 607.4489173845968 Q814.2877673856652 587.4489173845968 832.8907865828114 607.4489173845968" stroke="#000819" stroke-width="3.100437512877499" fill="none" stroke-linecap="round" opacity="0.6"/><path d="M788.7589466452503 607.4489173845968 Q821.9975891826814 595.1799534723032 829.8609169681523 622.9109895600094" stroke="#000819" stroke-width="3.369811573850413" fill="none" stroke-linecap="round" opacity="0.6"/><path d="M788.7589466452503 607.4489173845968 Q796.6700043359938 595.5713179065212 776.3997138751675 623.6937184284458" stroke="#000819" stroke-width="3.3503834817908666" fill="none" stroke-linecap="round" opacity="0.6"/><path d="M788.7589466452503 607.4489173845968 Q775.1810417042528 591.3370290493895 734.93396621722 615.2251407141822" stroke="#000819" stroke-width="2.830329717795907" fill="none" stroke-linecap="round" opacity="0.6"/><path d="M788.7589466452503 607.4489173845968 Q779.1320702758463 584.8254928970489 752.4416327740171 602.2020684095011" stroke="#000819" stroke-width="2.544534581840163" fill="none" stroke-linecap="round" opacity="0.6"/><path d="M788.7589466452503 607.4489173845968 Q787.5360040256405 582.9521363208972 781.9165404215794 598.4553552571977" stroke="#000819" stroke-width="3.9342423598128935" fill="none" stroke-linecap="round" opacity="0.6"/><path d="M1594.909426345236 803.0814299134262 Q1582.643264262621 708.6438636839492 1580.190031846098 614.2062974544723" stroke="#000000" stroke-width="6.32287287486784" fill="none" stroke-linecap="round"/><path d="M1580.190031846098 614.2062974544723 Q1620.8192421611907 594.2062974544723 1638.9991475159766 614.2062974544723" stroke="#000819" stroke-width="3.597409343718879" fill="none" stroke-linecap="round" opacity="0.6"/><path d="M1580.190031846098 614.2062974544723 Q1600.708392802124 600.8723637394487 1615.630101651397 627.538430024425" stroke="#000819" stroke-width="3.359850446078892" fill="none" stroke-linecap="round" opacity="0.6"/><path d="M1580.190031846098 614.2062974544723 Q1573.1648899991992 603.7758838837858 1565.6287274787423 633.3454703130994" stroke="#000819" stroke-width="3.6712517569938794" fill="none" stroke-linecap="round" opacity="0.6"/><path d="M1580.190031846098 614.2062974544723 Q1562.0646120206939 596.9870229987907 1541.6951245742812 619.7677485431092" stroke="#000819" stroke-width="2.7593020295629516" fill="none" stroke-linecap="round" opacity="0.6"/><path d="M1580.190031846098 614.2062974544723 Q1566.6622332275704 590.7783200105921 1532.7349084515333 607.3503425667118" stroke="#000819" stroke-width="3.590458069366975" fill="none" stroke-linecap="round" opacity="0.6"/><path d="M1580.190031846098 614.2062974544723 Q1588.660523772042 587.2800927778768 1569.650958381275 600.3538881012813" stroke="#000819" stroke-width="2.551552377303958" fill="none" stroke-linecap="round" opacity="0.6"/><path d="M1018.3088714765173 872.055073215639 Q1004.8160261718594 763.7031995199395 1002.1174571109278 655.3513258242401" stroke="#000000" stroke-width="6.8802727635205425" fill="none" stroke-linecap="round"/><path d="M1002.1174571109278 655.3513258242401 Q1025.3059415298762 635.3513258242401 1048.3558631707813 655.3513258242401" stroke="#000819" stroke-width="3.480191712612331" fill="none" stroke-linecap="round" opacity="0.6"/><path d="M1002.1174571109278 655.3513258242401 Q1031.9887436829738 643.8228380327041 1047.1561607765445 672.2943502411682" stroke="#000819" stroke-width="2.3171579340279935" fill="none" stroke-linecap="round" opacity="0.6"/><path d="M1002.1174571109278 655.3513258242401 Q1016.0864955248302 640.250967787975 994.6620484104569 665.15060975171" stroke="#000819" stroke-width="2.5662991843573515" fill="none" stroke-linecap="round" opacity="0.6"/><path d="M1002.1174571109278 655.3513258242401 Q984.2906769482737 638.4914146011731 958.6477135613419 661.631503378106" stroke="#000819" stroke-width="3.32409412630929" fill="none" stroke-linecap="round" opacity="0.6"/><path d="M1002.1174571109278 655.3513258242401 Q980.5460173893817 631.7675064213138 952.5049393000772 648.1836870183874" stroke="#000819" stroke-width="2.2798341415542724" fill="none" stroke-linecap="round" opacity="0.6"/><path d="M1002.1174571109278 655.3513258242401 Q1003.071872209127 628.1629330997566 991.1794322394812 640.9745403752731" stroke="#000819" stroke-width="2.4213681520012598" fill="none" stroke-linecap="round" opacity="0.6"/><rect x="0" y="1000" width="1920" height="80" fill="#001526" opacity="0.8"/><line x1="0" y1="1040" x2="1920" y2="1040" stroke="#118ab2" stroke-opacity="0.15" stroke-width="2" stroke-dasharray="30,20"/><rect x="0" y="930" width="1920" height="150" fill="url(#glow3)"/><text x="1900" y="1060" font-family="Arial, sans-serif" font-size="11" fill="#fff" opacity="0.08" text-anchor="end" letter-spacing="2">GTA 6 REWARDS · WALLPAPER 004</text>
</svg>