<?xml version="1.0" encoding="UTF-8"?>
<svg xmlns="http://www.w3.org/2000/svg" width="1920" height="1080" viewBox="0 0 1920 1080">
<defs>
    <linearGradient id="bg13" x1="0%" y1="0%" x2="0%" y2="100%">
      <stop offset="0%" stop-color="#4361ee"/>
      <stop offset="50%" stop-color="#102ebb"/>
      <stop offset="100%" stop-color="#4361ee"/>
    </linearGradient>
    <linearGradient id="sun13" x1="0%" y1="0%" x2="100%" y2="100%">
      <stop offset="0%" stop-color="#4cc9f0"/>
      <stop offset="100%" stop-color="#4895ef"/>
    </linearGradient>
    <radialGradient id="glow13" cx="50%" cy="70%" r="50%">
      <stop offset="0%" stop-color="#4cc9f0" stop-opacity="0.3"/>
      <stop offset="100%" stop-color="#4361ee" stop-opacity="0"/>
    </radialGradient>
  </defs><rect width="1920" height="1080" fill="url(#bg13)"/><circle cx="732.140594076398" cy="228.23633813025344" r="614.4500555969892" fill="#4cc9f0" opacity="0.05367708681236885"/><circle cx="932.140594076398" cy="128.23633813025344" r="401.3547451238508" fill="#4895ef" opacity="0.05729659607803836"/><circle cx="969.9306471901784" cy="411.1794467925046" r="74.16695478702125" fill="url(#sun13)" opacity="0.7966700591604854"/><circle cx="969.9306471901784" cy="411.1794467925046" r="69.16695478702125" fill="#4361ee" opacity="0.3"/><pattern id="scan13" width="1920" height="4" patternUnits="userSpaceOnUse">
      <line x1="0" y1="0" x2="1920" y2="0" stroke="#000" stroke-opacity="0.05" stroke-width="1"/>
    </pattern>
    <rect width="1920" height="1080" fill="url(#scan13)"/><rect x="16.821524013490773" y="701.8470940184422" width="51.91557690545814" height="253.19354251334295" fill="#4361ee" opacity="0.43680142258219457" rx="2"/><rect x="39.041565829432" y="711.8470940184422" width="7.4754932735756725" height="8.62325655916316" fill="#4895ef" opacity="0.2695664017856043" rx="1"/><rect x="26.06267160306747" y="716.1587222980238" width="7.4754932735756725" height="8.62325655916316" fill="#4cc9f0" opacity="0.13478320089280216" rx="1"/><rect x="40.36616735983784" y="754.046017770666" width="4.826290212764007" height="8.983366856114792" fill="#4895ef" opacity="0.30171726802403975" rx="1"/><rect x="27.387273133473304" y="758.5377011987234" width="4.826290212764007" height="8.983366856114792" fill="#4cc9f0" opacity="0.15085863401201988" rx="1"/><rect x="40.42115094033563" y="796.2449415228899" width="4.7163230517684305" height="7.2592106995310655" fill="#4895ef" opacity="0.12014768275435728" rx="1"/><rect x="27.44225671397109" y="799.8745468726554" width="4.7163230517684305" height="7.2592106995310655" fill="#4cc9f0" opacity="0.06007384137717864" rx="1"/><rect x="40.533783664818344" y="838.4438652751137" width="4.491057602803004" height="7.158029791237327" fill="#4895ef" opacity="0.5573221270594099" rx="1"/><rect x="27.554889438453806" y="842.0228801707324" width="4.491057602803004" height="7.158029791237327" fill="#4cc9f0" opacity="0.27866106352970493" rx="1"/><rect x="39.31839838119187" y="880.6427890273376" width="6.921828170055949" height="8.899510631081535" fill="#4895ef" opacity="0.21021163061033274" rx="1"/><rect x="26.33950415482733" y="885.0925443428783" width="6.921828170055949" height="8.899510631081535" fill="#4cc9f0" opacity="0.10510581530516637" rx="1"/><rect x="39.31802146097599" y="922.8417127795614" width="6.922582010487696" height="7.176514719886825" fill="#4895ef" opacity="0.45096338515890844" rx="1"/><rect x="26.33912723461146" y="926.4299701395048" width="6.922582010487696" height="7.176514719886825" fill="#4cc9f0" opacity="0.22548169257945422" rx="1"/><rect x="113.50094796705547" y="850.2771059633877" width="61.789719381320694" height="104.7635305683975" fill="#2947d4" opacity="0.5242898233989929" rx="2"/><rect x="141.70876688619813" y="860.2771059633877" width="5.374081543035358" height="7.0488536313755565" fill="#4895ef" opacity="0.5618333099553905" rx="1"/><rect x="126.26133704086797" y="863.8015327790755" width="5.374081543035358" height="7.0488536313755565" fill="#4cc9f0" opacity="0.28091665497769525" rx="1"/><rect x="141.9308331052146" y="895.1982828195203" width="4.92994910500244" height="6.677788131096817" fill="#4895ef" opacity="0.47951657918270596" rx="1"/><rect x="126.48340325988443" y="898.5371768850687" width="4.92994910500244" height="6.677788131096817" fill="#4cc9f0" opacity="0.23975828959135298" rx="1"/><rect x="141.7558008359642" y="930.1194596756527" width="5.280013643503192" height="6.4243371850867605" fill="#4895ef" opacity="0.23163607640462835" rx="1"/><rect x="126.30837099063405" y="933.3316282681961" width="5.280013643503192" height="6.4243371850867605" fill="#4cc9f0" opacity="0.11581803820231418" rx="1"/><rect x="252.890382647256" y="645.1906648104057" width="89.74137457547275" height="309.8499717213796" fill="#2947d4" opacity="0.5130611636240644" rx="2"/><rect x="292.6466334652264" y="655.1906648104057" width="10.228872939531895" height="6.597390263480458" fill="#4895ef" opacity="0.22163568244353768" rx="1"/><rect x="270.2112898213582" y="658.4893599421459" width="10.228872939531895" height="6.597390263480458" fill="#4cc9f0" opacity="0.11081784122176884" rx="1"/><rect x="295.20560210389215" y="758.4739887175322" width="5.1109356622004265" height="8.78400425118953" fill="#4895ef" opacity="0.515864077959178" rx="1"/><rect x="272.77025846002397" y="762.865990843127" width="5.1109356622004265" height="8.78400425118953" fill="#4cc9f0" opacity="0.257932038979589" rx="1"/><rect x="291.8908243218648" y="861.7573126246588" width="11.740491226255077" height="7.4789983000324565" fill="#4895ef" opacity="0.30203911366454306" rx="1"/><rect x="269.4554806779966" y="865.4968117746749" width="11.740491226255077" height="7.4789983000324565" fill="#4cc9f0" opacity="0.15101955683227153" rx="1"/><rect x="359.7448428673076" y="682.2390971896796" width="84.26395493891648" height="272.80153934210574" fill="#4361ee" opacity="0.6150784285774171" rx="2"/><rect x="397.7292442919523" y="692.2390971896796" width="8.295152089627262" height="9.102976851887764" fill="#4895ef" opacity="0.36670548197969455" rx="1"/><rect x="376.6632555572231" y="696.7905856156234" width="8.295152089627262" height="9.102976851887764" fill="#4cc9f0" opacity="0.18335274098984727" rx="1"/><rect x="396.4897179099475" y="726.3392896074428" width="10.774204853636725" height="7.0831811048749795" fill="#4895ef" opacity="0.4233339777969136" rx="1"/><rect x="375.42372917521834" y="729.8808801598802" width="10.774204853636725" height="7.0831811048749795" fill="#4cc9f0" opacity="0.2116669888984568" rx="1"/><rect x="399.0437134397319" y="760.439482025206" width="5.6662137940680175" height="7.234288984265712" fill="#4895ef" opacity="0.4127448564192152" rx="1"/><rect x="377.97772470500274" y="764.0566265173388" width="5.6662137940680175" height="7.234288984265712" fill="#4cc9f0" opacity="0.2063724282096076" rx="1"/><rect x="398.2622155186866" y="794.5396744429693" width="7.229209636158592" height="6.449454980075698" fill="#4895ef" opacity="0.13622727725567002" rx="1"/><rect x="377.19622678395746" y="797.7644019330071" width="7.229209636158592" height="6.449454980075698" fill="#4cc9f0" opacity="0.06811363862783501" rx="1"/><rect x="396.77732452186234" y="828.6398668607325" width="10.198991629807043" height="6.473820330685428" fill="#4895ef" opacity="0.5632421157935732" rx="1"/><rect x="375.7113357871332" y="831.8767770260752" width="10.198991629807043" height="6.473820330685428" fill="#4cc9f0" opacity="0.2816210578967866" rx="1"/><rect x="396.72251647145555" y="862.7400592784957" width="10.308607730620682" height="7.4368412525944505" fill="#4895ef" opacity="0.5554482700665129" rx="1"/><rect x="375.6565277367264" y="866.4584799047929" width="10.308607730620682" height="7.4368412525944505" fill="#4cc9f0" opacity="0.27772413503325644" rx="1"/><rect x="396.26464155764904" y="896.8402516962589" width="11.224357558233747" height="6.588437473538433" fill="#4895ef" opacity="0.2738559874179438" rx="1"/><rect x="375.1986528229199" y="900.1344704330281" width="11.224357558233747" height="6.588437473538433" fill="#4cc9f0" opacity="0.1369279937089719" rx="1"/><rect x="399.334308901414" y="930.9404441140221" width="5.085022870703838" height="7.977555521292974" fill="#4895ef" opacity="0.2664056885443641" rx="1"/><rect x="378.2683201666848" y="934.9292218746685" width="5.085022870703838" height="7.977555521292974" fill="#4cc9f0" opacity="0.13320284427218204" rx="1"/><rect x="463.01344461110733" y="687.1695748034793" width="40.454164573562835" height="267.8710617283059" fill="#4361ee" opacity="0.4968548308119306" rx="2"/><rect x="477.4022030719561" y="697.1695748034793" width="11.676647651865299" height="8.296355990296313" fill="#4895ef" opacity="0.11950100576959108" rx="1"/><rect x="467.2886619285654" y="701.3177527986275" width="11.676647651865299" height="8.296355990296313" fill="#4cc9f0" opacity="0.05975050288479554" rx="1"/><rect x="480.86621236052974" y="730.6534575195176" width="4.748629074718019" height="8.02539494680832" fill="#4895ef" opacity="0.20111511827006823" rx="1"/><rect x="470.75267121713904" y="734.6661549929217" width="4.748629074718019" height="8.02539494680832" fill="#4cc9f0" opacity="0.10055755913503411" rx="1"/><rect x="477.87135510911963" y="764.1373402355558" width="10.738343577538231" height="8.320331735145377" fill="#4895ef" opacity="0.5328955738881825" rx="1"/><rect x="467.75781396572893" y="768.2975061031285" width="10.738343577538231" height="8.320331735145377" fill="#4cc9f0" opacity="0.26644778694409127" rx="1"/><rect x="478.2290194000185" y="797.6212229515941" width="10.023014995740496" height="9.520343973189672" fill="#4895ef" opacity="0.5396244773966318" rx="1"/><rect x="468.1154782566278" y="802.3813949381889" width="10.023014995740496" height="9.520343973189672" fill="#4cc9f0" opacity="0.2698122386983159" rx="1"/><rect x="481.10858120213" y="831.1051056676323" width="4.26389139151757" height="9.501881318982196" fill="#4895ef" opacity="0.47269196877551545" rx="1"/><rect x="470.9950400587393" y="835.8560463271234" width="4.26389139151757" height="9.501881318982196" fill="#4cc9f0" opacity="0.23634598438775772" rx="1"/><rect x="480.9831044571435" y="864.5889883836705" width="4.514844881490536" height="6.466841121312893" fill="#4895ef" opacity="0.11421823434397071" rx="1"/><rect x="470.8695633137528" y="867.822408944327" width="4.514844881490536" height="6.466841121312893" fill="#4cc9f0" opacity="0.05710911717198536" rx="1"/><rect x="478.00364768528465" y="898.0728710997088" width="10.473758425208217" height="6.6015419644772875" fill="#4895ef" opacity="0.2698585950466475" rx="1"/><rect x="467.89010654189394" y="901.3736420819474" width="10.473758425208217" height="6.6015419644772875" fill="#4cc9f0" opacity="0.13492929752332375" rx="1"/><rect x="480.6420521986769" y="931.556753815747" width="5.196949398423766" height="7.517709996904644" fill="#4895ef" opacity="0.14706601229195157" rx="1"/><rect x="470.5285110552862" y="935.3156088141993" width="5.196949398423766" height="7.517709996904644" fill="#4cc9f0" opacity="0.07353300614597578" rx="1"/><rect x="580.0018334086058" y="582.7258246677754" width="89.25577112456219" height="372.3148118640098" fill="#4361ee" opacity="0.5804969844130093" rx="2"/><rect x="622.5855662388694" y="592.7258246677754" width="4.088305464034971" height="6.8988610219440565" fill="#4895ef" opacity="0.4402381069819066" rx="1"/><rect x="600.2716234577289" y="596.1752551787474" width="4.088305464034971" height="6.8988610219440565" fill="#4cc9f0" opacity="0.2201190534909533" rx="1"/><rect x="619.503795502359" y="645.9136549340626" width="10.251846937055664" height="6.514824492976727" fill="#4895ef" opacity="0.36122955751168295" rx="1"/><rect x="597.1898527212185" y="649.171067180551" width="10.251846937055664" height="6.514824492976727" fill="#4cc9f0" opacity="0.18061477875584148" rx="1"/><rect x="620.1322663843474" y="699.1014852003497" width="8.994905173078855" height="9.037892739064501" fill="#4895ef" opacity="0.1834122253776091" rx="1"/><rect x="597.8183236032069" y="703.6204315698819" width="8.994905173078855" height="9.037892739064501" fill="#4cc9f0" opacity="0.09170611268880455" rx="1"/><rect x="619.342840132849" y="752.2893154666368" width="10.573757676075623" height="9.009824102513917" fill="#4895ef" opacity="0.31187563629631787" rx="1"/><rect x="597.0288973517085" y="756.7942275178938" width="10.573757676075623" height="9.009824102513917" fill="#4cc9f0" opacity="0.15593781814815894" rx="1"/><rect x="618.68489761131" y="805.4771457329239" width="11.889642719153699" height="8.103374072840293" fill="#4895ef" opacity="0.16924537733878137" rx="1"/><rect x="596.3709548301695" y="809.528832769344" width="11.889642719153699" height="8.103374072840293" fill="#4cc9f0" opacity="0.08462268866939068" rx="1"/><rect x="619.9608605687881" y="858.664975999211" width="9.337716804197457" height="9.093532446560808" fill="#4895ef" opacity="0.2513126413690189" rx="1"/><rect x="597.6469177876476" y="863.2117422224915" width="9.337716804197457" height="9.093532446560808" fill="#4cc9f0" opacity="0.12565632068450944" rx="1"/><rect x="619.3056880567003" y="911.8528062654982" width="10.648061828373015" height="7.395805527781091" fill="#4895ef" opacity="0.3866824346796336" rx="1"/><rect x="596.9917452755598" y="915.5507090293887" width="10.648061828373015" height="7.395805527781091" fill="#4cc9f0" opacity="0.1933412173398168" rx="1"/><rect x="686.3463692055891" y="588.1831390522847" width="74.45076394464141" height="366.8574974795006" fill="#2947d4" opacity="0.627988488769156" rx="2"/><rect x="718.2740498658443" y="598.1831390522847" width="10.59540262413104" height="8.468611920827211" fill="#4895ef" opacity="0.15937379076131009" rx="1"/><rect x="699.6613588796839" y="602.4174450126983" width="10.59540262413104" height="8.468611920827211" fill="#4cc9f0" opacity="0.07968689538065504" rx="1"/><rect x="721.0363448741931" y="650.5913529779276" width="5.07081260743337" height="8.739243467976163" fill="#4895ef" opacity="0.4268374346259137" rx="1"/><rect x="702.4236538880327" y="654.9609747119157" width="5.07081260743337" height="8.739243467976163" fill="#4cc9f0" opacity="0.21341871731295686" rx="1"/><rect x="721.0650339410793" y="702.9995669035706" width="5.013434473661109" height="8.892742174419748" fill="#4895ef" opacity="0.11513603155387939" rx="1"/><rect x="702.4523429549189" y="707.4459379907804" width="5.013434473661109" height="8.892742174419748" fill="#4cc9f0" opacity="0.05756801577693969" rx="1"/><rect x="718.1052959689652" y="755.4077808292135" width="10.932910417889456" height="9.47954541525793" fill="#4895ef" opacity="0.38555854241958787" rx="1"/><rect x="699.4926049828048" y="760.1475535368425" width="10.932910417889456" height="9.47954541525793" fill="#4cc9f0" opacity="0.19277927120979393" rx="1"/><rect x="720.3612639981699" y="807.8159947548564" width="6.42097435947996" height="6.600315152807235" fill="#4895ef" opacity="0.48970228328595455" rx="1"/><rect x="701.7485730120095" y="811.1161523312601" width="6.42097435947996" height="6.600315152807235" fill="#4cc9f0" opacity="0.24485114164297728" rx="1"/><rect x="717.9761238580049" y="860.2242086804994" width="11.191254639809777" height="9.772381855121903" fill="#4895ef" opacity="0.3994963684583773" rx="1"/><rect x="699.3634328718446" y="865.1103996080603" width="11.191254639809777" height="9.772381855121903" fill="#4cc9f0" opacity="0.19974818422918866" rx="1"/><rect x="720.5727936405626" y="912.6324226061423" width="5.997915074694417" height="8.011722243859367" fill="#4895ef" opacity="0.18053813247953965" rx="1"/><rect x="701.9601026544022" y="916.638283728072" width="5.997915074694417" height="8.011722243859367" fill="#4cc9f0" opacity="0.09026906623976982" rx="1"/><rect x="809.2684916475015" y="840.6579187001702" width="68.39381496850257" height="114.38271783161505" fill="#2947d4" opacity="0.6918206972749487" rx="2"/><rect x="837.9268955017734" y="850.6579187001702" width="11.077007259958659" height="6.721083562057718" fill="#4895ef" opacity="0.32662670706087416" rx="1"/><rect x="820.8284417596478" y="854.018460481199" width="11.077007259958659" height="6.721083562057718" fill="#4cc9f0" opacity="0.16331335353043708" rx="1"/><rect x="838.6416817045866" y="869.7217050054394" width="9.647434854332225" height="7.685265383144204" fill="#4895ef" opacity="0.23325967281899873" rx="1"/><rect x="821.5432279624611" y="873.5643376970115" width="9.647434854332225" height="7.685265383144204" fill="#4cc9f0" opacity="0.11662983640949937" rx="1"/><rect x="840.6386069994509" y="888.7854913107085" width="5.653584264603812" height="8.353948349681206" fill="#4895ef" opacity="0.2761734998263823" rx="1"/><rect x="823.5401532573253" y="892.962465485549" width="5.653584264603812" height="8.353948349681206" fill="#4cc9f0" opacity="0.13808674991319114" rx="1"/><rect x="840.6876136869395" y="907.8492776159777" width="5.55557088962653" height="9.924967892450507" fill="#4895ef" opacity="0.34227833008446695" rx="1"/><rect x="823.5891599448139" y="912.811761562203" width="5.55557088962653" height="9.924967892450507" fill="#4cc9f0" opacity="0.17113916504223348" rx="1"/><rect x="837.7919334878194" y="926.9130639212469" width="11.346931287866768" height="9.05045618281012" fill="#4895ef" opacity="0.28271797992818015" rx="1"/><rect x="820.6934797456938" y="931.438292012652" width="11.346931287866768" height="9.05045618281012" fill="#4cc9f0" opacity="0.14135898996409008" rx="1"/><rect x="837.9972893230143" y="945.976850226516" width="10.936219617476738" height="9.301780301914965" fill="#4895ef" opacity="0.11582280756342757" rx="1"/><rect x="820.8988355808888" y="950.6277403774735" width="10.936219617476738" height="9.301780301914965" fill="#4cc9f0" opacity="0.057911403781713784" rx="1"/><rect x="914.9710155569414" y="790.2228560508747" width="64.92909471851985" height="164.81778048091053" fill="#4361ee" opacity="0.4077557184984339" rx="2"/><rect x="945.3194643408802" y="800.2228560508747" width="4.232197150642098" height="6.932294844866799" fill="#4895ef" opacity="0.38694474412755686" rx="1"/><rect x="929.0871906612504" y="803.6890034733082" width="4.232197150642098" height="6.932294844866799" fill="#4cc9f0" opacity="0.19347237206377843" rx="1"/><rect x="944.2544081293172" y="827.6924861310265" width="6.362309573768245" height="6.538963391571064" fill="#4895ef" opacity="0.4240524715101469" rx="1"/><rect x="928.0221344496873" y="830.961967826812" width="6.362309573768245" height="6.538963391571064" fill="#4cc9f0" opacity="0.21202623575507346" rx="1"/><rect x="944.0090374590383" y="855.1621162111783" width="6.853050914325996" height="6.83655424156146" fill="#4895ef" opacity="0.3280151846883854" rx="1"/><rect x="927.7767637794084" y="858.580393331959" width="6.853050914325996" height="6.83655424156146" fill="#4cc9f0" opacity="0.1640075923441927" rx="1"/><rect x="944.3000958951422" y="882.63174629133" width="6.270934042118242" height="6.2896006471220405" fill="#4895ef" opacity="0.22806126780995664" rx="1"/><rect x="928.0678222155124" y="885.7765466148911" width="6.270934042118242" height="6.2896006471220405" fill="#4cc9f0" opacity="0.11403063390497832" rx="1"/><rect x="942.1672003765512" y="910.1013763714817" width="10.536725079300052" height="9.49042359541413" fill="#4895ef" opacity="0.5796912370900836" rx="1"/><rect x="925.9349266969214" y="914.8465881691887" width="10.536725079300052" height="9.49042359541413" fill="#4cc9f0" opacity="0.2898456185450418" rx="1"/><rect x="941.589141608353" y="937.5710064516335" width="11.692842615696797" height="9.594645727331436" fill="#4895ef" opacity="0.5229332598445317" rx="1"/><rect x="925.3568679287231" y="942.3683293152992" width="11.692842615696797" height="9.594645727331436" fill="#4cc9f0" opacity="0.2614666299222658" rx="1"/><rect x="1019.6356787555003" y="843.7816240693865" width="52.169166286981" height="111.25901246239874" fill="#2947d4" opacity="0.5081816111011854" rx="2"/><rect x="1043.2872625310645" y="853.7816240693865" width="4.865998735853005" height="9.691928405242955" fill="#4895ef" opacity="0.5689386540485869" rx="1"/><rect x="1030.244970959319" y="858.627588272008" width="4.865998735853005" height="9.691928405242955" fill="#4cc9f0" opacity="0.28446932702429345" rx="1"/><rect x="1040.455862553198" y="881.5963771849862" width="10.528798691585845" height="9.873598360427096" fill="#4895ef" opacity="0.1430334849616125" rx="1"/><rect x="1027.4135709814525" y="886.5331763651998" width="10.528798691585845" height="9.873598360427096" fill="#4cc9f0" opacity="0.07151674248080625" rx="1"/><rect x="1042.0198820817798" y="909.4111303005858" width="7.4007596344223145" height="6.2392992722427705" fill="#4895ef" opacity="0.5471112884225118" rx="1"/><rect x="1028.9775905100344" y="912.5307799367072" width="7.4007596344223145" height="6.2392992722427705" fill="#4cc9f0" opacity="0.2735556442112559" rx="1"/><rect x="1039.8429057013345" y="937.2258834161855" width="11.754712395312897" height="8.158578455950733" fill="#4895ef" opacity="0.5326810438494852" rx="1"/><rect x="1026.8006141295891" y="941.3051726441608" width="11.754712395312897" height="8.158578455950733" fill="#4cc9f0" opacity="0.2663405219247426" rx="1"/><rect x="1148.7331253752889" y="658.1222894038358" width="33.22054904029252" height="296.91834712794946" fill="#2947d4" opacity="0.6056271742111136" rx="2"/><rect x="1159.8284756412797" y="668.1222894038358" width="11.029848508310934" height="8.215970537209877" fill="#4895ef" opacity="0.3608822277423186" rx="1"/><rect x="1151.5233383812065" y="672.2302746724407" width="11.029848508310934" height="8.215970537209877" fill="#4cc9f0" opacity="0.1804411138711593" rx="1"/><rect x="1160.1751930874716" y="742.3518761858231" width="10.336413615927196" height="6.986565112366007" fill="#4895ef" opacity="0.29752830900194316" rx="1"/><rect x="1151.8700558273983" y="745.8451587420061" width="10.336413615927196" height="6.986565112366007" fill="#4cc9f0" opacity="0.14876415450097158" rx="1"/><rect x="1160.883012376233" y="816.5814629678105" width="8.920775038404571" height="9.583070110432587" fill="#4895ef" opacity="0.16028967736295652" rx="1"/><rect x="1152.5778751161597" y="821.3729980230268" width="8.920775038404571" height="9.583070110432587" fill="#4cc9f0" opacity="0.08014483868147826" rx="1"/><rect x="1162.3710861483987" y="890.8110497497979" width="5.944627494072687" height="8.208940477624754" fill="#4895ef" opacity="0.15683433556855525" rx="1"/><rect x="1154.0659488883255" y="894.9155199886103" width="5.944627494072687" height="8.208940477624754" fill="#4cc9f0" opacity="0.07841716778427762" rx="1"/><rect x="1271.15171832525" y="736.3543615528276" width="66.99013856169537" height="218.68627497895767" fill="#2947d4" opacity="0.447266666369342" rx="2"/><rect x="1301.6105869576827" y="746.3543615528276" width="6.072401296829899" height="9.807441594965626" fill="#4895ef" opacity="0.3443188555176181" rx="1"/><rect x="1284.8630523172587" y="751.2580823503105" width="6.072401296829899" height="9.807441594965626" fill="#4cc9f0" opacity="0.17215942775880905" rx="1"/><rect x="1301.4061984378861" y="773.6901459251974" width="6.481178336423165" height="7.459471375089947" fill="#4895ef" opacity="0.23194844013358198" rx="1"/><rect x="1284.6586637974622" y="777.4198816127423" width="6.481178336423165" height="7.459471375089947" fill="#4cc9f0" opacity="0.11597422006679099" rx="1"/><rect x="1300.7971304472997" y="801.025930297567" width="7.699314317595985" height="9.283946091142472" fill="#4895ef" opacity="0.5960343533884814" rx="1"/><rect x="1284.0495958068757" y="805.6679033431383" width="7.699314317595985" height="9.283946091142472" fill="#4cc9f0" opacity="0.2980171766942407" rx="1"/><rect x="1300.8851525145317" y="828.3617146699368" width="7.52327018313186" height="6.61287748548502" fill="#4895ef" opacity="0.24412229162271187" rx="1"/><rect x="1284.1376178741077" y="831.6681534126793" width="7.52327018313186" height="6.61287748548502" fill="#4cc9f0" opacity="0.12206114581135594" rx="1"/><rect x="1301.2203900418758" y="855.6974990423065" width="6.852795128443463" height="6.305313110422649" fill="#4895ef" opacity="0.5701157254097321" rx="1"/><rect x="1284.4728554014519" y="858.8501555975179" width="6.852795128443463" height="6.305313110422649" fill="#4cc9f0" opacity="0.28505786270486605" rx="1"/><rect x="1299.834569002696" y="883.0332834146761" width="9.624437206802991" height="7.763997069039381" fill="#4895ef" opacity="0.4686131931302634" rx="1"/><rect x="1283.087034362272" y="886.9152819491958" width="9.624437206802991" height="7.763997069039381" fill="#4cc9f0" opacity="0.2343065965651317" rx="1"/><rect x="1299.5441426840948" y="910.3690677870459" width="10.20528984400567" height="7.954841020040876" fill="#4895ef" opacity="0.27526258427539435" rx="1"/><rect x="1282.7966080436709" y="914.3464882970663" width="10.20528984400567" height="7.954841020040876" fill="#4cc9f0" opacity="0.13763129213769718" rx="1"/><rect x="1301.7843953563797" y="937.7048521594156" width="5.724784499435868" height="6.587944768506089" fill="#4895ef" opacity="0.13523662081808704" rx="1"/><rect x="1285.0368607159558" y="940.9988245436687" width="5.724784499435868" height="6.587944768506089" fill="#4cc9f0" opacity="0.06761831040904352" rx="1"/><rect x="1367.5276195321997" y="742.0955559103973" width="74.34775525805256" height="212.94508062138806" fill="#2947d4" opacity="0.402388768294451" rx="2"/><rect x="1400.9555612867596" y="752.0955559103973" width="7.491871748932607" height="9.440945135299337" fill="#4895ef" opacity="0.27609569737131145" rx="1"/><rect x="1382.3686224722464" y="756.816028478047" width="7.491871748932607" height="9.440945135299337" fill="#4cc9f0" opacity="0.13804784868565573" rx="1"/><rect x="1400.6660504806011" y="778.7136909880708" width="8.07089336124968" height="7.659754256172979" fill="#4895ef" opacity="0.3188938083636793" rx="1"/><rect x="1382.079111666088" y="782.5435681161573" width="8.07089336124968" height="7.659754256172979" fill="#4cc9f0" opacity="0.15944690418183965" rx="1"/><rect x="1399.921508030715" y="805.3318260657443" width="9.559978261021893" height="6.719377826135461" fill="#4895ef" opacity="0.23766971163863077" rx="1"/><rect x="1381.3345692162018" y="808.691514978812" width="9.559978261021893" height="6.719377826135461" fill="#4cc9f0" opacity="0.11883485581931538" rx="1"/><rect x="1400.0911576708527" y="831.9499611434178" width="9.220678980746465" height="9.225474609813066" fill="#4895ef" opacity="0.5626250992209243" rx="1"/><rect x="1381.5042188563395" y="836.5626984483243" width="9.220678980746465" height="9.225474609813066" fill="#4cc9f0" opacity="0.28131254961046215" rx="1"/><rect x="1399.1603393904309" y="858.5680962210913" width="11.082315541590173" height="6.479726617336209" fill="#4895ef" opacity="0.5913766796214918" rx="1"/><rect x="1380.5734005759177" y="861.8079595297594" width="11.082315541590173" height="6.479726617336209" fill="#4cc9f0" opacity="0.2956883398107459" rx="1"/><rect x="1401.3103188575037" y="885.1862312987648" width="6.782356607444202" height="7.927694977709953" fill="#4895ef" opacity="0.34704946175847423" rx="1"/><rect x="1382.7233800429906" y="889.1500787876198" width="6.782356607444202" height="7.927694977709953" fill="#4cc9f0" opacity="0.17352473087923712" rx="1"/><rect x="1399.640204082858" y="911.8043663764383" width="10.1225861567358" height="9.938255797125924" fill="#4895ef" opacity="0.37222994814445964" rx="1"/><rect x="1381.0532652683448" y="916.7734942750013" width="10.1225861567358" height="9.938255797125924" fill="#4cc9f0" opacity="0.18611497407222982" rx="1"/><rect x="1402.4850617194281" y="938.4225014541119" width="4.432870883595401" height="8.181117172860802" fill="#4895ef" opacity="0.38454030823999563" rx="1"/><rect x="1383.898122904915" y="942.5130600405422" width="4.432870883595401" height="8.181117172860802" fill="#4cc9f0" opacity="0.19227015411999782" rx="1"/><rect x="1481.4846266343918" y="795.0493654457501" width="55.65060242676423" height="159.9912710860351" fill="#2947d4" opacity="0.457675549960154" rx="2"/><rect x="1505.0113766575255" y="805.0493654457501" width="8.597102380496707" height="7.209634634016462" fill="#4895ef" opacity="0.36116491953403806" rx="1"/><rect x="1491.0987260508346" y="808.6541827627584" width="8.597102380496707" height="7.209634634016462" fill="#4cc9f0" opacity="0.18058245976701903" rx="1"/><rect x="1505.2885310799552" y="837.0476196629571" width="8.042793535637388" height="7.81734734350288" fill="#4895ef" opacity="0.13495811555417211" rx="1"/><rect x="1491.3758804732643" y="840.9562933347086" width="8.042793535637388" height="7.81734734350288" fill="#4cc9f0" opacity="0.06747905777708606" rx="1"/><rect x="1505.8600123070316" y="869.0458738801642" width="6.899831081484406" height="7.293978554497934" fill="#4895ef" opacity="0.5818474033339525" rx="1"/><rect x="1491.9473617003407" y="872.6928631574132" width="6.899831081484406" height="7.293978554497934" fill="#4cc9f0" opacity="0.29092370166697623" rx="1"/><rect x="1505.8451181326163" y="901.0441280973712" width="6.929619430315126" height="9.06895585615862" fill="#4895ef" opacity="0.4998908088309436" rx="1"/><rect x="1491.9324675259254" y="905.5786060254505" width="6.929619430315126" height="9.06895585615862" fill="#4cc9f0" opacity="0.2499454044154718" rx="1"/><rect x="1504.878752860212" y="933.0423823145783" width="8.862349975123617" height="6.653318629752221" fill="#4895ef" opacity="0.4732270000905793" rx="1"/><rect x="1490.966102253521" y="936.3690416294544" width="8.862349975123617" height="6.653318629752221" fill="#4cc9f0" opacity="0.23661350004528964" rx="1"/><rect x="1602.9535626813195" y="857.4519884673534" width="31.356367380674083" height="97.58864806443188" fill="#2947d4" opacity="0.5289582709150757" rx="2"/><rect x="1613.2242350937388" y="867.4519884673534" width="10.815022555835316" height="8.145716534495753" fill="#4895ef" opacity="0.33274833749345234" rx="1"/><rect x="1605.3851432485703" y="871.5248467346013" width="10.815022555835316" height="8.145716534495753" fill="#4cc9f0" opacity="0.16637416874672617" rx="1"/><rect x="1614.0464109338461" y="883.7167631447587" width="9.170670875620718" height="7.275972944981413" fill="#4895ef" opacity="0.3289484193848792" rx="1"/><rect x="1606.2073190886777" y="887.3547496172495" width="9.170670875620718" height="7.275972944981413" fill="#4cc9f0" opacity="0.1644742096924396" rx="1"/><rect x="1614.20384876784" y="899.981537822164" width="8.855795207632658" height="9.272228850813637" fill="#4895ef" opacity="0.10019694108054902" rx="1"/><rect x="1606.3647569226716" y="904.6176522475708" width="8.855795207632658" height="9.272228850813637" fill="#4cc9f0" opacity="0.05009847054027451" rx="1"/><rect x="1614.3737297438488" y="916.2463124995694" width="8.51603325561528" height="9.815597358116786" fill="#4895ef" opacity="0.27912863560000634" rx="1"/><rect x="1606.5346378986803" y="921.1541111786278" width="8.51603325561528" height="9.815597358116786" fill="#4cc9f0" opacity="0.13956431780000317" rx="1"/><rect x="1615.4147303282316" y="932.5110871769747" width="6.434032086849686" height="6.0764337647884235" fill="#4895ef" opacity="0.1523939224780523" rx="1"/><rect x="1607.5756384830631" y="935.5493040593689" width="6.434032086849686" height="6.0764337647884235" fill="#4cc9f0" opacity="0.07619696123902615" rx="1"/><rect x="1614.740431540585" y="948.77586185438" width="7.782629662142748" height="8.985331303203788" fill="#4895ef" opacity="0.3663738844605102" rx="1"/><rect x="1606.9013396954165" y="953.2685275059819" width="7.782629662142748" height="8.985331303203788" fill="#4cc9f0" opacity="0.1831869422302551" rx="1"/><rect x="1707.584007940624" y="753.815626621669" width="55.558215581243445" height="201.2250099101162" fill="#4361ee" opacity="0.6056979817351554" rx="2"/><rect x="1730.285279908051" y="763.815626621669" width="10.155671646389102" height="6.452880213142578" fill="#4895ef" opacity="0.4353088491911322" rx="1"/><rect x="1716.3957260127402" y="767.0420667282403" width="10.155671646389102" height="6.452880213142578" fill="#4cc9f0" opacity="0.2176544245955661" rx="1"/><rect x="1731.9632801080504" y="788.9687528604336" width="6.799671246390713" height="6.169763358349391" fill="#4895ef" opacity="0.4359305474059495" rx="1"/><rect x="1718.0737262127395" y="792.0536345396083" width="6.799671246390713" height="6.169763358349391" fill="#4cc9f0" opacity="0.21796527370297475" rx="1"/><rect x="1729.5392688239317" y="814.121879099198" width="11.647693814627754" height="7.860346381985663" fill="#4895ef" opacity="0.5477789276157923" rx="1"/><rect x="1715.6497149286208" y="818.0520522901909" width="11.647693814627754" height="7.860346381985663" fill="#4cc9f0" opacity="0.27388946380789614" rx="1"/><rect x="1731.376201323321" y="839.2750053379626" width="7.973828815848993" height="8.056527349645394" fill="#4895ef" opacity="0.4048045254090812" rx="1"/><rect x="1717.4866474280102" y="843.3032690127853" width="7.973828815848993" height="8.056527349645394" fill="#4cc9f0" opacity="0.2024022627045406" rx="1"/><rect x="1733.057946250322" y="864.4281315767271" width="4.610338961847671" height="9.812387179539629" fill="#4895ef" opacity="0.48530956997659747" rx="1"/><rect x="1719.168392355011" y="869.3343251664969" width="4.610338961847671" height="9.812387179539629" fill="#4cc9f0" opacity="0.24265478498829873" rx="1"/><rect x="1729.704606151838" y="889.5812578154917" width="11.31701915881527" height="8.523680285206922" fill="#4895ef" opacity="0.39371080670824987" rx="1"/><rect x="1715.8150522565272" y="893.8430979580951" width="11.31701915881527" height="8.523680285206922" fill="#4cc9f0" opacity="0.19685540335412494" rx="1"/><rect x="1730.4752744118393" y="914.7343840542562" width="9.775682638812736" height="6.682509713965121" fill="#4895ef" opacity="0.3675942982937196" rx="1"/><rect x="1716.5857205165285" y="918.0756389112388" width="9.775682638812736" height="6.682509713965121" fill="#4cc9f0" opacity="0.1837971491468598" rx="1"/><rect x="1732.3541248648787" y="939.8875102930207" width="6.017981732734009" height="8.232557686565574" fill="#4895ef" opacity="0.48936330305630416" rx="1"/><rect x="1718.4645709695678" y="944.0037891363035" width="6.017981732734009" height="8.232557686565574" fill="#4cc9f0" opacity="0.24468165152815208" rx="1"/><rect x="1823.3527333157492" y="606.0097937718988" width="40.00382005935624" height="349.03084275988647" fill="#2947d4" opacity="0.6045416482501993" rx="2"/><rect x="1839.648960112745" y="616.0097937718988" width="7.411366465364436" height="7.49587276240249" fill="#4895ef" opacity="0.22471523266861104" rx="1"/><rect x="1829.648005097906" y="619.7577301531" width="7.411366465364436" height="7.49587276240249" fill="#4cc9f0" opacity="0.11235761633430552" rx="1"/><rect x="1839.9187188774624" y="659.6386491168846" width="6.871848935930023" height="7.951973856881255" fill="#4895ef" opacity="0.14788431316797723" rx="1"/><rect x="1829.9177638626234" y="663.6146360453253" width="6.871848935930023" height="7.951973856881255" fill="#4cc9f0" opacity="0.07394215658398862" rx="1"/><rect x="1838.1979561110954" y="703.2675044618704" width="10.313374468664026" height="7.125512696133347" fill="#4895ef" opacity="0.5850246120442228" rx="1"/><rect x="1828.1970010962564" y="706.8302608099372" width="10.313374468664026" height="7.125512696133347" fill="#4cc9f0" opacity="0.2925123060221114" rx="1"/><rect x="1840.179180211662" y="746.8963598068563" width="6.350926267530519" height="9.574835484748435" fill="#4895ef" opacity="0.2284499201291357" rx="1"/><rect x="1830.178225196823" y="751.6837775492305" width="6.350926267530519" height="9.574835484748435" fill="#4cc9f0" opacity="0.11422496006456785" rx="1"/><rect x="1838.9472920698922" y="790.5252151518421" width="8.814702551070297" height="6.186893856196407" fill="#4895ef" opacity="0.2855859903585133" rx="1"/><rect x="1828.9463370550532" y="793.6186620799402" width="8.814702551070297" height="6.186893856196407" fill="#4cc9f0" opacity="0.14279299517925664" rx="1"/><rect x="1841.0443304586327" y="834.1540704968279" width="4.620625773589272" height="7.367796136384783" fill="#4895ef" opacity="0.26202087308327227" rx="1"/><rect x="1831.0433754437936" y="837.8379685650203" width="4.620625773589272" height="7.367796136384783" fill="#4cc9f0" opacity="0.13101043654163613" rx="1"/><rect x="1838.9488031864046" y="877.7829258418136" width="8.811680318045354" height="6.714248652736249" fill="#4895ef" opacity="0.345983285770282" rx="1"/><rect x="1828.9478481715655" y="881.1400501681817" width="8.811680318045354" height="6.714248652736249" fill="#4cc9f0" opacity="0.172991642885141" rx="1"/><rect x="1838.2733457403428" y="921.4117811867994" width="10.162595210169115" height="6.323241499327878" fill="#4895ef" opacity="0.4205278232508637" rx="1"/><rect x="1828.2723907255038" y="924.5734019364634" width="10.162595210169115" height="6.323241499327878" fill="#4cc9f0" opacity="0.21026391162543184" rx="1"/><path d="M1364.8098312515788 941.9896536604477 Q1378.1172236516413 862.6944699645262 1380.7787021316537 783.3992862686048" stroke="#0014a1" stroke-width="4.664229381984153" fill="none" stroke-linecap="round"/><path d="M1380.7787021316537 783.3992862686048 Q1416.6148041979445 763.3992862686048 1443.846067106781 783.3992862686048" stroke="#102ebb" stroke-width="3.281007717196133" fill="none" stroke-linecap="round" opacity="0.6"/><path d="M1380.7787021316537 783.3992862686048 Q1412.12979386513 768.8172990775353 1409.5835090366274 794.2353118864658" stroke="#102ebb" stroke-width="2.790786159874589" fill="none" stroke-linecap="round" opacity="0.6"/><path d="M1380.7787021316537 783.3992862686048 Q1376.8453807206643 771.3388869853511 1368.697621779249 799.2784877020974" stroke="#102ebb" stroke-width="3.0279317668238495" fill="none" stroke-linecap="round" opacity="0.6"/><path d="M1380.7787021316537 783.3992862686048 Q1362.8672523255357 767.8777879848543 1318.7806712091335 792.3562897011038" stroke="#102ebb" stroke-width="3.499375898740109" fill="none" stroke-linecap="round" opacity="0.6"/><path d="M1380.7787021316537 783.3992862686048 Q1355.7977038055585 759.1586292039798 1322.0732679301907 774.9179721393548" stroke="#102ebb" stroke-width="3.560575856724888" fill="none" stroke-linecap="round" opacity="0.6"/><path d="M1415.7074974793259 852.9088048154741 Q1400.7930286649598 738.3028075770249 1397.8101349020865 623.6968103385756" stroke="#0014a1" stroke-width="5.09366261705143" fill="none" stroke-linecap="round"/><path d="M1397.8101349020865 623.6968103385756 Q1426.5263404488858 603.6968103385756 1446.6354795430402 623.6968103385756" stroke="#102ebb" stroke-width="3.0097755261253973" fill="none" stroke-linecap="round" opacity="0.6"/><path d="M1397.8101349020865 623.6968103385756 Q1428.0173041687685 611.9847913710004 1441.873097041559 640.2727724034252" stroke="#102ebb" stroke-width="2.973127983737068" fill="none" stroke-linecap="round" opacity="0.6"/><path d="M1397.8101349020865 623.6968103385756 Q1393.028615418912 615.0653650202601 1380.5114787731393 646.4339197019444" stroke="#102ebb" stroke-width="2.1476109498524134" fill="none" stroke-linecap="round" opacity="0.6"/><path d="M1397.8101349020865 623.6968103385756 Q1391.6751964904847 605.6920281950095 1370.1893844373644 627.6872460514435" stroke="#102ebb" stroke-width="3.081760079851784" fill="none" stroke-linecap="round" opacity="0.6"/><path d="M1397.8101349020865 623.6968103385756 Q1390.6542162131007 600.4105619051056 1352.3170336584024 617.1243134716358" stroke="#102ebb" stroke-width="3.818485366138277" fill="none" stroke-linecap="round" opacity="0.6"/><path d="M1397.8101349020865 623.6968103385756 Q1393.519100022368 592.7851925835846 1381.206764584644 601.8735748285935" stroke="#102ebb" stroke-width="2.5551640136528677" fill="none" stroke-linecap="round" opacity="0.6"/><path d="M144.862867925517 937.8988437442805 Q161.29252796557094 815.3171213495818 164.57845997358172 692.7353989548831" stroke="#0014a1" stroke-width="4.422242821292542" fill="none" stroke-linecap="round"/><path d="M164.57845997358172 692.7353989548831 Q200.6243631810938 672.7353989548831 204.6021822380373 692.7353989548831" stroke="#102ebb" stroke-width="2.7185020704563945" fill="none" stroke-linecap="round" opacity="0.6"/><path d="M164.57845997358172 692.7353989548831 Q195.07720229532492 681.1309249049355 209.21318351250426 709.5264508549877" stroke="#102ebb" stroke-width="2.7295939425773903" fill="none" stroke-linecap="round" opacity="0.6"/><path d="M164.57845997358172 692.7353989548831 Q171.20655885329145 678.7052923444753 155.4945319137195 704.6751857340677" stroke="#102ebb" stroke-width="3.746480679080468" fill="none" stroke-linecap="round" opacity="0.6"/><path d="M164.57845997358172 692.7353989548831 Q170.224078943553 674.7755741698222 136.33534339639635 696.8157493847615" stroke="#102ebb" stroke-width="3.5502955945092944" fill="none" stroke-linecap="round" opacity="0.6"/><path d="M164.57845997358172 692.7353989548831 Q144.92662443045145 668.2375167424393 102.31213561757144 683.7396345299956" stroke="#102ebb" stroke-width="3.9156169509318697" fill="none" stroke-linecap="round" opacity="0.6"/><path d="M841.1502154639807 969.5670341303495 Q826.5969960593146 890.6607216027706 823.6863521783814 811.7544090751918" stroke="#0014a1" stroke-width="6.705909050699768" fill="none" stroke-linecap="round"/><path d="M823.6863521783814 811.7544090751918 Q862.4138355630948 791.7544090751918 898.3413587772152 811.7544090751918" stroke="#102ebb" stroke-width="3.56824411814293" fill="none" stroke-linecap="round" opacity="0.6"/><path d="M823.6863521783814 811.7544090751918 Q849.4585842494913 800.1294646252848 868.212245055788 828.5045201753776" stroke="#102ebb" stroke-width="2.7811260504604145" fill="none" stroke-linecap="round" opacity="0.6"/><path d="M823.6863521783814 811.7544090751918 Q818.5123910504697 799.8994435557084 811.2926790526435 828.0444780362251" stroke="#102ebb" stroke-width="3.3776506589207917" fill="none" stroke-linecap="round" opacity="0.6"/><path d="M823.6863521783814 811.7544090751918 Q807.3594075116207 796.5488962078432 757.3139847347722 821.3433833404946" stroke="#102ebb" stroke-width="3.519003220721847" fill="none" stroke-linecap="round" opacity="0.6"/><path d="M823.6863521783814 811.7544090751918 Q815.1877049798687 788.4475029469904 777.9072766339399 805.1405968187892" stroke="#102ebb" stroke-width="2.483193627671151" fill="none" stroke-linecap="round" opacity="0.6"/><path d="M326.61440409873944 873.0235227320863 Q345.1145407848792 796.5801603152836 348.8145681221072 720.1367978984808" stroke="#0014a1" stroke-width="5.973874882323173" fill="none" stroke-linecap="round"/><path d="M348.8145681221072 720.1367978984808 Q381.9365027141609 700.1367978984808 412.19660260626034 720.1367978984808" stroke="#102ebb" stroke-width="3.4441921276608927" fill="none" stroke-linecap="round" opacity="0.6"/><path d="M348.8145681221072 720.1367978984808 Q375.33910291720343 705.7995659857166 378.9206138353275 731.4623340729524" stroke="#102ebb" stroke-width="2.270809520564696" fill="none" stroke-linecap="round" opacity="0.6"/><path d="M348.8145681221072 720.1367978984808 Q357.1782303393977 706.6739688503665 338.8674573838356 733.2111398022521" stroke="#102ebb" stroke-width="3.3330250371557253" fill="none" stroke-linecap="round" opacity="0.6"/><path d="M348.8145681221072 720.1367978984808 Q331.5811869253033 704.1024757855873 293.91580155883787 728.0681536726938" stroke="#102ebb" stroke-width="3.0559116813950036" fill="none" stroke-linecap="round" opacity="0.6"/><path d="M348.8145681221072 720.1367978984808 Q341.8098781584459 696.8913047931796 303.8856622848673 713.6458116878783" stroke="#102ebb" stroke-width="3.6343532315535363" fill="none" stroke-linecap="round" opacity="0.6"/><rect x="0" y="1000" width="1920" height="80" fill="#1d3bc8" opacity="0.8"/><line x1="0" y1="1040" x2="1920" y2="1040" stroke="#4895ef" stroke-opacity="0.15" stroke-width="2" stroke-dasharray="30,20"/><rect x="0" y="930" width="1920" height="150" fill="url(#glow13)"/><text x="1900" y="1060" font-family="Arial, sans-serif" font-size="11" fill="#fff" opacity="0.08" text-anchor="end" letter-spacing="2">GTA 6 REWARDS · WALLPAPER 014</text>
</svg>