<?xml version="1.0" encoding="UTF-8"?>
<svg xmlns="http://www.w3.org/2000/svg" width="1920" height="1080" viewBox="0 0 1920 1080">
<defs>
    <linearGradient id="bg91" x1="0%" y1="0%" x2="0%" y2="100%">
      <stop offset="0%" stop-color="#3c096c"/>
      <stop offset="50%" stop-color="#090039"/>
      <stop offset="100%" stop-color="#3c096c"/>
    </linearGradient>
    <linearGradient id="sun91" x1="0%" y1="0%" x2="100%" y2="100%">
      <stop offset="0%" stop-color="#e0aaff"/>
      <stop offset="100%" stop-color="#c77dff"/>
    </linearGradient>
    <radialGradient id="glow91" cx="50%" cy="70%" r="50%">
      <stop offset="0%" stop-color="#e0aaff" stop-opacity="0.3"/>
      <stop offset="100%" stop-color="#3c096c" stop-opacity="0"/>
    </radialGradient>
  </defs><rect width="1920" height="1080" fill="url(#bg91)"/><circle cx="333.7166827250544" cy="589.5941946631284" r="729.591104884071" fill="#e0aaff" opacity="0.07898881866805926"/><circle cx="533.7166827250544" cy="489.5941946631284" r="555.7402620454645" fill="#c77dff" opacity="0.08754500237236382"/><circle cx="786.8814765677977" cy="236.033100491863" r="66.61454725233246" fill="url(#sun91)" opacity="0.8990442118605235"/><circle cx="786.8814765677977" cy="236.033100491863" r="61.61454725233246" fill="#3c096c" opacity="0.3"/><rect x="16.426458898099714" y="876.9353959190043" width="78.68269651399058" height="91.89902483297024" fill="#220052" opacity="0.6603353813896737" rx="2"/><rect x="51.90479324918818" y="886.9353959190043" width="7.7260278118136405" height="6.111745023194641" fill="#c77dff" opacity="0.3492734396944925" rx="1"/><rect x="32.23411912069054" y="889.9912684306016" width="7.7260278118136405" height="6.111745023194641" fill="#e0aaff" opacity="0.17463671984724624" rx="1"/><rect x="52.522170779184016" y="900.0638280380001" width="6.491272751821967" height="8.041808562828649" fill="#c77dff" opacity="0.5124985299800752" rx="1"/><rect x="32.85149665068638" y="904.0847323194145" width="6.491272751821967" height="8.041808562828649" fill="#e0aaff" opacity="0.2562492649900376" rx="1"/><rect x="53.386044108398735" y="913.1922601569959" width="4.763526093392523" height="9.728518331360192" fill="#c77dff" opacity="0.5913106964648027" rx="1"/><rect x="33.7153699799011" y="918.056519322676" width="4.763526093392523" height="9.728518331360192" fill="#e0aaff" opacity="0.29565534823240136" rx="1"/><rect x="50.90208586256534" y="926.3206922759916" width="9.731442585059312" height="6.482793220431263" fill="#c77dff" opacity="0.4337439914079718" rx="1"/><rect x="31.231411734067706" y="929.5620888862072" width="9.731442585059312" height="6.482793220431263" fill="#e0aaff" opacity="0.2168719957039859" rx="1"/><rect x="51.225178259011635" y="939.4491243949874" width="9.085257792166727" height="9.97148703876219" fill="#c77dff" opacity="0.4833099627828482" rx="1"/><rect x="31.554504130513997" y="944.4348679143685" width="9.085257792166727" height="9.97148703876219" fill="#e0aaff" opacity="0.2416549813914241" rx="1"/><rect x="50.08709563712755" y="952.5775565139832" width="11.361423035934898" height="8.695587223091998" fill="#c77dff" opacity="0.21516300742867472" rx="1"/><rect x="30.416421508629913" y="956.9253501255291" width="11.361423035934898" height="8.695587223091998" fill="#e0aaff" opacity="0.10758150371433736" rx="1"/><rect x="52.650846023962565" y="965.7059886329788" width="6.233922262264864" height="9.794668107245739" fill="#c77dff" opacity="0.5346918760413983" rx="1"/><rect x="32.98017189546493" y="970.6033226866017" width="6.233922262264864" height="9.794668107245739" fill="#e0aaff" opacity="0.26734593802069917" rx="1"/><rect x="114.06819751703445" y="854.9768780486139" width="67.50725500693248" height="113.85754270336068" fill="#3c096c" opacity="0.5518360710125035" rx="2"/><rect x="142.24330640549456" y="864.9768780486139" width="11.157037230012248" height="8.397195228002312" fill="#c77dff" opacity="0.580129649974436" rx="1"/><rect x="125.36649265376144" y="869.1754756626151" width="11.157037230012248" height="8.397195228002312" fill="#e0aaff" opacity="0.290064824987218" rx="1"/><rect x="142.70229589263104" y="893.4412637244541" width="10.239058255739291" height="9.308838570329556" fill="#c77dff" opacity="0.3653785056353962" rx="1"/><rect x="125.82548214089792" y="898.0956830096188" width="10.239058255739291" height="9.308838570329556" fill="#e0aaff" opacity="0.1826892528176981" rx="1"/><rect x="141.89201974080763" y="921.9056494002942" width="11.85961055938611" height="8.49541579151885" fill="#c77dff" opacity="0.26956127858012013" rx="1"/><rect x="125.0152059890745" y="926.1533572960536" width="11.85961055938611" height="8.49541579151885" fill="#e0aaff" opacity="0.13478063929006007" rx="1"/><rect x="145.03764234513528" y="950.3700350761344" width="5.568365350730803" height="9.425860030442909" fill="#c77dff" opacity="0.1404935820355298" rx="1"/><rect x="128.16082859340216" y="955.0829650913558" width="5.568365350730803" height="9.425860030442909" fill="#e0aaff" opacity="0.0702467910177649" rx="1"/><rect x="220.86848426642706" y="883.1273623935709" width="73.34724223319144" height="85.70705835840363" fill="#3c096c" opacity="0.6267111937344799" rx="2"/><rect x="255.5257459578691" y="893.1273623935709" width="4.032718850307334" height="6.3938673092969385" fill="#c77dff" opacity="0.3906689350005865" rx="1"/><rect x="237.18893539957125" y="896.3242960482194" width="4.032718850307334" height="6.3938673092969385" fill="#e0aaff" opacity="0.19533446750029326" rx="1"/><rect x="251.91001753402787" y="905.3712278733428" width="11.264175697989803" height="7.349822550394997" fill="#c77dff" opacity="0.34761524010626954" rx="1"/><rect x="233.57320697573002" y="909.0461391485403" width="11.264175697989803" height="7.349822550394997" fill="#e0aaff" opacity="0.17380762005313477" rx="1"/><rect x="253.83199336597656" y="917.6150933531148" width="7.420224034092441" height="7.935041474628971" fill="#c77dff" opacity="0.48742314532572006" rx="1"/><rect x="235.4951828076787" y="921.5826140904293" width="7.420224034092441" height="7.935041474628971" fill="#e0aaff" opacity="0.24371157266286003" rx="1"/><rect x="254.01468045672888" y="929.8589588328867" width="7.054849852587759" height="8.76028932043358" fill="#c77dff" opacity="0.46900622045365303" rx="1"/><rect x="235.67786989843103" y="934.2391034931036" width="7.054849852587759" height="8.76028932043358" fill="#e0aaff" opacity="0.23450311022682652" rx="1"/><rect x="252.62094035468698" y="942.1028243126588" width="9.842330056671596" height="7.787999692789279" fill="#c77dff" opacity="0.5532047004795644" rx="1"/><rect x="234.28412979638912" y="945.9968241590534" width="9.842330056671596" height="7.787999692789279" fill="#e0aaff" opacity="0.2766023502397822" rx="1"/><rect x="251.69714575522192" y="954.3466897924307" width="11.689919255601689" height="7.480833455333681" fill="#c77dff" opacity="0.12101245162100821" rx="1"/><rect x="233.36033519692407" y="958.0871065200974" width="11.689919255601689" height="7.480833455333681" fill="#e0aaff" opacity="0.060506225810504105" rx="1"/><rect x="253.41981100219908" y="966.5905552722027" width="8.244588761647368" height="9.689355215916725" fill="#c77dff" opacity="0.30914314622272343" rx="1"/><rect x="235.08300044390123" y="971.435232880161" width="8.244588761647368" height="9.689355215916725" fill="#e0aaff" opacity="0.15457157311136172" rx="1"/><rect x="317.79911232730103" y="818.4940942839007" width="79.91375393930677" height="150.34032646807384" fill="#220052" opacity="0.501234064321321" rx="2"/><rect x="353.6921820036325" y="828.4940942839007" width="8.127614586643784" height="6.024423509841883" fill="#c77dff" opacity="0.21940310840015373" rx="1"/><rect x="333.71374351880587" y="831.5063060388217" width="8.127614586643784" height="6.024423509841883" fill="#e0aaff" opacity="0.10970155420007686" rx="1"/><rect x="353.7075718772823" y="878.6075364399253" width="8.096834839344218" height="8.236102060935483" fill="#c77dff" opacity="0.4541002665539505" rx="1"/><rect x="333.72913339245565" y="882.7255874703931" width="8.096834839344218" height="8.236102060935483" fill="#e0aaff" opacity="0.22705013327697526" rx="1"/><rect x="353.9022739521906" y="928.72097859595" width="7.70743068952752" height="6.878546033259143" fill="#c77dff" opacity="0.1752254716528639" rx="1"/><rect x="333.923835467364" y="932.1602516125796" width="7.70743068952752" height="6.878546033259143" fill="#e0aaff" opacity="0.08761273582643195" rx="1"/><rect x="432.5973275801283" y="663.4688214313865" width="39.225808509910905" height="305.3655993205881" fill="#3c096c" opacity="0.5816494275074567" rx="2"/><rect x="450.13195362318874" y="673.4688214313865" width="4.156556423789951" height="8.155291166658348" fill="#c77dff" opacity="0.5959931410839765" rx="1"/><rect x="440.325501495711" y="677.5464670147156" width="4.156556423789951" height="8.155291166658348" fill="#e0aaff" opacity="0.29799657054198825" rx="1"/><rect x="449.3106174746908" y="734.5419412955041" width="5.79922872078587" height="8.46636626274939" fill="#c77dff" opacity="0.32502097271499714" rx="1"/><rect x="439.5041653472131" y="738.7751244268788" width="5.79922872078587" height="8.46636626274939" fill="#e0aaff" opacity="0.16251048635749857" rx="1"/><rect x="446.8137325367113" y="795.6150611596217" width="10.792998596744845" height="6.18743428033484" fill="#c77dff" opacity="0.36690068602722625" rx="1"/><rect x="437.0072804092336" y="798.7087782997892" width="10.792998596744845" height="6.18743428033484" fill="#e0aaff" opacity="0.18345034301361313" rx="1"/><rect x="448.15888684853246" y="856.6881810237394" width="8.102689973102578" height="9.111029413321761" fill="#c77dff" opacity="0.17940587717560258" rx="1"/><rect x="438.35243472105475" y="861.2436957304003" width="8.102689973102578" height="9.111029413321761" fill="#e0aaff" opacity="0.08970293858780129" rx="1"/><rect x="447.90936556690417" y="917.7613008878569" width="8.601732536359162" height="9.05662648357838" fill="#c77dff" opacity="0.2743200464812853" rx="1"/><rect x="438.10291343942646" y="922.2896141296461" width="8.601732536359162" height="9.05662648357838" fill="#e0aaff" opacity="0.13716002324064264" rx="1"/><rect x="525.0366263234412" y="848.4259278626241" width="52.984322128580956" height="120.40849288935038" fill="#3c096c" opacity="0.4278176769678988" rx="2"/><rect x="545.6065376105072" y="858.4259278626241" width="11.844499554448877" height="7.11021785091381" fill="#c77dff" opacity="0.3501927571720892" rx="1"/><rect x="532.360457078362" y="861.981036788081" width="11.844499554448877" height="7.11021785091381" fill="#e0aaff" opacity="0.1750963785860446" rx="1"/><rect x="549.1498308257353" y="875.6271411325313" width="4.757913123992717" height="9.150767063524286" fill="#c77dff" opacity="0.2001266573090401" rx="1"/><rect x="535.9037502935901" y="880.2025246642934" width="4.757913123992717" height="9.150767063524286" fill="#e0aaff" opacity="0.10006332865452006" rx="1"/><rect x="548.7883036816735" y="892.8283544024385" width="5.4809674121162315" height="6.957505550458446" fill="#c77dff" opacity="0.45251322338648914" rx="1"/><rect x="535.5422231495282" y="896.3071071776677" width="5.4809674121162315" height="6.957505550458446" fill="#e0aaff" opacity="0.22625661169324457" rx="1"/><rect x="548.4268378950056" y="910.0295676723457" width="6.203898985451995" height="9.223750056518183" fill="#c77dff" opacity="0.14659715237715215" rx="1"/><rect x="535.1807573628604" y="914.6414427006048" width="6.203898985451995" height="9.223750056518183" fill="#e0aaff" opacity="0.07329857618857608" rx="1"/><rect x="545.9570894747211" y="927.2307809422529" width="11.143395826021068" height="9.708709358169862" fill="#c77dff" opacity="0.5308797096439822" rx="1"/><rect x="532.7110089425759" y="932.0851356213378" width="11.143395826021068" height="9.708709358169862" fill="#e0aaff" opacity="0.2654398548219911" rx="1"/><rect x="549.1838939042063" y="944.4319942121601" width="4.689786967050701" height="8.197196406823862" fill="#c77dff" opacity="0.5564030966619968" rx="1"/><rect x="535.9378133720611" y="948.5305924155721" width="4.689786967050701" height="8.197196406823862" fill="#e0aaff" opacity="0.2782015483309984" rx="1"/><rect x="547.1178092552427" y="961.6332074820673" width="8.8219562649778" height="9.495450629735238" fill="#c77dff" opacity="0.156645753340946" rx="1"/><rect x="533.8717287230975" y="966.3809327969349" width="8.8219562649778" height="9.495450629735238" fill="#e0aaff" opacity="0.078322876670473" rx="1"/><rect x="634.7414286915027" y="768.0698990514666" width="63.55731248705585" height="200.76452170050806" fill="#220052" opacity="0.4704409533809966" rx="2"/><rect x="663.5245732474382" y="778.0698990514666" width="5.991023375184979" height="6.591304191525864" fill="#c77dff" opacity="0.249232453584958" rx="1"/><rect x="647.6352451256741" y="781.3655511472294" width="5.991023375184979" height="6.591304191525864" fill="#e0aaff" opacity="0.124616226792479" rx="1"/><rect x="664.27728792719" y="818.2228033915682" width="4.485594015681556" height="9.174917366163553" fill="#c77dff" opacity="0.5215528874009738" rx="1"/><rect x="648.3879598054259" y="822.8102620746499" width="4.485594015681556" height="9.174917366163553" fill="#e0aaff" opacity="0.2607764437004869" rx="1"/><rect x="661.0291552496162" y="858.3757077316698" width="10.981859370829039" height="8.646176916231909" fill="#c77dff" opacity="0.22084272041005146" rx="1"/><rect x="645.1398271278522" y="862.6987961897858" width="10.981859370829039" height="8.646176916231909" fill="#e0aaff" opacity="0.11042136020502573" rx="1"/><rect x="664.3983647215593" y="898.5286120717714" width="4.243440426942762" height="8.01311872201346" fill="#c77dff" opacity="0.23842552111913112" rx="1"/><rect x="648.5090365997953" y="902.535171432778" width="4.243440426942762" height="8.01311872201346" fill="#e0aaff" opacity="0.11921276055956556" rx="1"/><rect x="661.6343679829066" y="938.681516411873" width="9.771433904248159" height="9.682521673776797" fill="#c77dff" opacity="0.5499985440517773" rx="1"/><rect x="645.7450398611426" y="943.5227772487614" width="9.771433904248159" height="9.682521673776797" fill="#e0aaff" opacity="0.27499927202588864" rx="1"/><rect x="709.9370145510833" y="786.9815424520013" width="62.660645752367714" height="181.85287829997316" fill="#220052" opacity="0.5186736325544011" rx="2"/><rect x="736.0911314273097" y="796.9815424520013" width="10.352411999914892" height="7.747345238399539" fill="#c77dff" opacity="0.21140462397863263" rx="1"/><rect x="720.4259699892177" y="800.8552150712011" width="10.352411999914892" height="7.747345238399539" fill="#e0aaff" opacity="0.10570231198931632" rx="1"/><rect x="736.4008986335814" y="857.5991685519924" width="9.73287758737171" height="8.3358915435001" fill="#c77dff" opacity="0.37673668339306876" rx="1"/><rect x="720.7357371954894" y="861.7671143237425" width="9.73287758737171" height="8.3358915435001" fill="#e0aaff" opacity="0.18836834169653438" rx="1"/><rect x="736.7082046085387" y="918.2167946519835" width="9.118265637456968" height="9.441165119279447" fill="#c77dff" opacity="0.2507716225811214" rx="1"/><rect x="721.0430431704467" y="922.9373772116232" width="9.118265637456968" height="9.441165119279447" fill="#e0aaff" opacity="0.1253858112905607" rx="1"/><rect x="811.8579360572536" y="816.5120111118332" width="82.68393432551156" height="152.3224096401414" fill="#3c096c" opacity="0.5420283828494206" rx="2"/><rect x="848.7944687870098" y="826.5120111118332" width="8.81086886599913" height="9.966926130458463" fill="#c77dff" opacity="0.20235316495000227" rx="1"/><rect x="828.1234852056319" y="831.4954741770624" width="8.81086886599913" height="9.966926130458463" fill="#e0aaff" opacity="0.10117658247500114" rx="1"/><rect x="850.3727187736607" y="848.2723553461391" width="5.654368892697238" height="6.550669390836421" fill="#c77dff" opacity="0.3044033261957586" rx="1"/><rect x="829.7017351922829" y="851.5476900415573" width="5.654368892697238" height="6.550669390836421" fill="#e0aaff" opacity="0.1522016630978793" rx="1"/><rect x="850.027644368618" y="870.0326995804451" width="6.344517702782647" height="9.174348571145522" fill="#c77dff" opacity="0.17351483697386338" rx="1"/><rect x="829.3566607872401" y="874.6198738660179" width="6.344517702782647" height="9.174348571145522" fill="#e0aaff" opacity="0.08675741848693169" rx="1"/><rect x="849.718633814441" y="891.793043814751" width="6.962538811136628" height="6.481846938021911" fill="#c77dff" opacity="0.3543910013638416" rx="1"/><rect x="829.0476502330631" y="895.0339672837619" width="6.962538811136628" height="6.481846938021911" fill="#e0aaff" opacity="0.1771955006819208" rx="1"/><rect x="848.9076159601129" y="913.5533880490568" width="8.584574519792707" height="9.783656571941371" fill="#c77dff" opacity="0.18424596222682066" rx="1"/><rect x="828.2366323787351" y="918.4452163350275" width="8.584574519792707" height="9.783656571941371" fill="#e0aaff" opacity="0.09212298111341033" rx="1"/><rect x="848.0910685325964" y="935.3137322833627" width="10.217669374825821" height="7.372463617793392" fill="#c77dff" opacity="0.597953837504134" rx="1"/><rect x="827.4200849512185" y="938.9999640922593" width="10.217669374825821" height="7.372463617793392" fill="#e0aaff" opacity="0.298976918752067" rx="1"/><rect x="847.5836654092858" y="957.0740765176687" width="11.232475621447078" height="7.480554594071711" fill="#c77dff" opacity="0.5376638128742725" rx="1"/><rect x="826.9126818279079" y="960.8143538147045" width="11.232475621447078" height="7.480554594071711" fill="#e0aaff" opacity="0.2688319064371362" rx="1"/><rect x="935.9802159465263" y="662.5962303165803" width="31.3393313580517" height="306.23819043539424" fill="#3c096c" opacity="0.47196440332847756" rx="2"/><rect x="946.8939646895187" y="672.5962303165803" width="9.511833872066772" height="6.321297008619014" fill="#c77dff" opacity="0.5448317424265742" rx="1"/><rect x="939.0591318500059" y="675.7568788208898" width="9.511833872066772" height="6.321297008619014" fill="#e0aaff" opacity="0.2724158712132871" rx="1"/><rect x="948.7366988507808" y="749.1557779254289" width="5.826365549542561" height="8.34464016145669" fill="#c77dff" opacity="0.33536422772690755" rx="1"/><rect x="940.901866011268" y="753.3280980061572" width="5.826365549542561" height="8.34464016145669" fill="#e0aaff" opacity="0.16768211386345377" rx="1"/><rect x="946.1111928672714" y="825.7153255342774" width="11.077377516561508" height="7.2763060008353335" fill="#c77dff" opacity="0.5446654380170315" rx="1"/><rect x="938.2763600277585" y="829.3534785346951" width="11.077377516561508" height="7.2763060008353335" fill="#e0aaff" opacity="0.27233271900851574" rx="1"/><rect x="949.1871749375841" y="902.274873143126" width="4.925413375935847" height="8.949078654625705" fill="#c77dff" opacity="0.38870369174720343" rx="1"/><rect x="941.3523420980713" y="906.7494124704389" width="4.925413375935847" height="8.949078654625705" fill="#e0aaff" opacity="0.19435184587360171" rx="1"/><rect x="1022.5587523647561" y="732.4788758141173" width="57.89721260962477" height="236.3555449378573" fill="#220052" opacity="0.6402765215701136" rx="2"/><rect x="1048.570946039679" y="742.4788758141173" width="5.872825259778841" height="7.655367374805587" fill="#c77dff" opacity="0.19709274724523834" rx="1"/><rect x="1034.0966428872728" y="746.30655950152" width="5.872825259778841" height="7.655367374805587" fill="#e0aaff" opacity="0.09854637362261917" rx="1"/><rect x="1049.1752913158402" y="781.8714666370935" width="4.664134707456486" height="6.264710084596814" fill="#c77dff" opacity="0.3810721594796218" rx="1"/><rect x="1034.700988163434" y="785.0038216793919" width="4.664134707456486" height="6.264710084596814" fill="#e0aaff" opacity="0.1905360797398109" rx="1"/><rect x="1046.6624178752056" y="821.2640574600697" width="9.689881588725811" height="6.80527581386391" fill="#c77dff" opacity="0.43159909020913745" rx="1"/><rect x="1032.1881147227994" y="824.6666953670017" width="9.689881588725811" height="6.80527581386391" fill="#e0aaff" opacity="0.21579954510456872" rx="1"/><rect x="1047.346155871399" y="860.6566482830459" width="8.322405596338772" height="8.171868808141879" fill="#c77dff" opacity="0.28271404613803935" rx="1"/><rect x="1032.8718527189928" y="864.7425826871169" width="8.322405596338772" height="8.171868808141879" fill="#e0aaff" opacity="0.14135702306901968" rx="1"/><rect x="1048.3830320853774" y="900.0492391060221" width="6.248653168382275" height="6.066028197311337" fill="#c77dff" opacity="0.17254017961037815" rx="1"/><rect x="1033.9087289329711" y="903.0822532046778" width="6.248653168382275" height="6.066028197311337" fill="#e0aaff" opacity="0.08627008980518908" rx="1"/><rect x="1048.6537207524025" y="939.4418299289983" width="5.7072758343320515" height="8.943479689523457" fill="#c77dff" opacity="0.3274701184889931" rx="1"/><rect x="1034.1794175999962" y="943.9135697737601" width="5.7072758343320515" height="8.943479689523457" fill="#e0aaff" opacity="0.16373505924449655" rx="1"/><rect x="1112.1475235652276" y="637.7800457500341" width="55.06342834445262" height="331.05437500194046" fill="#220052" opacity="0.6394760343803736" rx="2"/><rect x="1133.8102653307617" y="647.7800457500341" width="11.737944813384196" height="7.674588551203391" fill="#c77dff" opacity="0.33683734301869694" rx="1"/><rect x="1120.0444082446486" y="651.6173400256358" width="11.737944813384196" height="7.674588551203391" fill="#e0aaff" opacity="0.16841867150934847" rx="1"/><rect x="1136.4906934721826" y="689.1618426252767" width="6.377088530542583" height="9.960556731550152" fill="#c77dff" opacity="0.36627709024266275" rx="1"/><rect x="1122.7248363860695" y="694.1421209910518" width="6.377088530542583" height="9.960556731550152" fill="#e0aaff" opacity="0.18313854512133138" rx="1"/><rect x="1136.6479506305284" y="730.5436395005192" width="6.062574213850912" height="6.118173453053034" fill="#c77dff" opacity="0.5819714059079931" rx="1"/><rect x="1122.8820935444153" y="733.6027262270458" width="6.062574213850912" height="6.118173453053034" fill="#e0aaff" opacity="0.29098570295399656" rx="1"/><rect x="1135.2031014650354" y="771.9254363757618" width="8.952272544836688" height="8.266571788645017" fill="#c77dff" opacity="0.5949644459399778" rx="1"/><rect x="1121.4372443789223" y="776.0587222700843" width="8.952272544836688" height="8.266571788645017" fill="#e0aaff" opacity="0.2974822229699889" rx="1"/><rect x="1134.283226058161" y="813.3072332510044" width="10.792023358585318" height="8.660476168305724" fill="#c77dff" opacity="0.40255900633115294" rx="1"/><rect x="1120.517368972048" y="817.6374713351572" width="10.792023358585318" height="8.660476168305724" fill="#e0aaff" opacity="0.20127950316557647" rx="1"/><rect x="1137.5972216819625" y="854.689030126247" width="4.164032110982582" height="6.733210938222057" fill="#c77dff" opacity="0.23284722963181492" rx="1"/><rect x="1123.8313645958494" y="858.055635595358" width="4.164032110982582" height="6.733210938222057" fill="#e0aaff" opacity="0.11642361481590746" rx="1"/><rect x="1134.3789468345403" y="896.0708270014894" width="10.600581805827233" height="7.516745952311146" fill="#c77dff" opacity="0.2959836753541566" rx="1"/><rect x="1120.6130897484272" y="899.829199977645" width="10.600581805827233" height="7.516745952311146" fill="#e0aaff" opacity="0.1479918376770783" rx="1"/><rect x="1135.0102582550385" y="937.452623876732" width="9.33795896483072" height="6.462657715301648" fill="#c77dff" opacity="0.13967054375439664" rx="1"/><rect x="1121.2444011689254" y="940.6839527343828" width="9.33795896483072" height="6.462657715301648" fill="#e0aaff" opacity="0.06983527187719832" rx="1"/><rect x="1225.3150460306724" y="766.7692021622252" width="36.126174108620305" height="202.06521858974946" fill="#220052" opacity="0.4698897574725304" rx="2"/><rect x="1238.0374618112564" y="776.7692021622252" width="10.68134254745239" height="9.721182525093012" fill="#c77dff" opacity="0.5199164642300262" rx="1"/><rect x="1229.0059182841012" y="781.6297934247716" width="10.68134254745239" height="9.721182525093012" fill="#e0aaff" opacity="0.2599582321150131" rx="1"/><rect x="1240.9037214184789" y="802.0273544859439" width="4.948823333007475" height="6.759897368205687" fill="#c77dff" opacity="0.36081297110319444" rx="1"/><rect x="1231.8721778913236" y="805.4073031700467" width="4.948823333007475" height="6.759897368205687" fill="#e0aaff" opacity="0.18040648555159722" rx="1"/><rect x="1238.8884647803025" y="827.2855068096625" width="8.979336609360608" height="6.636555128879043" fill="#c77dff" opacity="0.359643237516201" rx="1"/><rect x="1229.8569212531472" y="830.603784374102" width="8.979336609360608" height="6.636555128879043" fill="#e0aaff" opacity="0.1798216187581005" rx="1"/><rect x="1239.2780634303197" y="852.5436591333812" width="8.200139309326218" height="7.969891938839548" fill="#c77dff" opacity="0.3492266609913732" rx="1"/><rect x="1230.2465199031644" y="856.528605102801" width="8.200139309326218" height="7.969891938839548" fill="#e0aaff" opacity="0.1746133304956866" rx="1"/><rect x="1240.2863263814813" y="877.8018114570999" width="6.183613407002672" height="6.982767444332775" fill="#c77dff" opacity="0.32134785685253975" rx="1"/><rect x="1231.254782854326" y="881.2931951792663" width="6.183613407002672" height="6.982767444332775" fill="#e0aaff" opacity="0.16067392842626987" rx="1"/><rect x="1241.3311217579733" y="903.0599637808186" width="4.094022654018835" height="7.555246092741202" fill="#c77dff" opacity="0.1881224337704765" rx="1"/><rect x="1232.299578230818" y="906.8375868271893" width="4.094022654018835" height="7.555246092741202" fill="#e0aaff" opacity="0.09406121688523825" rx="1"/><rect x="1240.0685192710316" y="928.3181161045372" width="6.619227627902112" height="8.86343920204403" fill="#c77dff" opacity="0.48655047337211443" rx="1"/><rect x="1231.0369757438764" y="932.7498357055592" width="6.619227627902112" height="8.86343920204403" fill="#e0aaff" opacity="0.24327523668605722" rx="1"/><rect x="1238.1341188871982" y="953.576268428256" width="10.488028395568959" height="7.487501434396837" fill="#c77dff" opacity="0.318783950251244" rx="1"/><rect x="1229.102575360043" y="957.3200191454544" width="10.488028395568959" height="7.487501434396837" fill="#e0aaff" opacity="0.159391975125622" rx="1"/><rect x="1328.7825566779832" y="748.5233929121223" width="42.84776130524645" height="220.31102783985227" fill="#3c096c" opacity="0.6165869673287" rx="2"/><rect x="1347.142508391888" y="758.5233929121223" width="6.127857877436992" height="9.610312739296424" fill="#c77dff" opacity="0.2267372874139662" rx="1"/><rect x="1336.4305680655764" y="763.3285492817705" width="6.127857877436992" height="9.610312739296424" fill="#e0aaff" opacity="0.1133686437069831" rx="1"/><rect x="1347.5080013216775" y="813.6011498720853" width="5.396872017857822" height="9.665378070358507" fill="#c77dff" opacity="0.5081141705177991" rx="1"/><rect x="1336.796060995366" y="818.4338389072645" width="5.396872017857822" height="9.665378070358507" fill="#e0aaff" opacity="0.25405708525889953" rx="1"/><rect x="1344.986163283793" y="868.6789068320484" width="10.440548093626404" height="9.219738457170255" fill="#c77dff" opacity="0.562039623284256" rx="1"/><rect x="1334.2742229574815" y="873.2887760606335" width="10.440548093626404" height="9.219738457170255" fill="#e0aaff" opacity="0.281019811642128" rx="1"/><rect x="1345.273861741809" y="923.7566637920115" width="9.865151177594706" height="9.685232052506235" fill="#c77dff" opacity="0.4711975167671213" rx="1"/><rect x="1334.5619214154974" y="928.5992798182647" width="9.865151177594706" height="9.685232052506235" fill="#e0aaff" opacity="0.23559875838356065" rx="1"/><rect x="1441.193979530334" y="612.926522738516" width="76.84342821753663" height="355.9078980134586" fill="#220052" opacity="0.5349535498849474" rx="2"/><rect x="1476.4044132267798" y="622.926522738516" width="6.422560824645348" height="9.528764292488052" fill="#c77dff" opacity="0.3556774921844894" rx="1"/><rect x="1457.1935561723956" y="627.69090488476" width="6.422560824645348" height="9.528764292488052" fill="#e0aaff" opacity="0.1778387460922447" rx="1"/><rect x="1476.7197365927054" y="682.2445057407591" width="5.791914092794041" height="8.457873293770913" fill="#c77dff" opacity="0.5985601095246524" rx="1"/><rect x="1457.5088795383213" y="686.4734423876446" width="5.791914092794041" height="8.457873293770913" fill="#e0aaff" opacity="0.2992800547623262" rx="1"/><rect x="1474.8945498758878" y="741.5624887430022" width="9.442287526429233" height="9.781222041645371" fill="#c77dff" opacity="0.5249874224013154" rx="1"/><rect x="1455.6836928215037" y="746.4530997638249" width="9.442287526429233" height="9.781222041645371" fill="#e0aaff" opacity="0.2624937112006577" rx="1"/><rect x="1474.08142935875" y="800.8804717452454" width="11.068528560704674" height="8.772031796810225" fill="#c77dff" opacity="0.4673485059680763" rx="1"/><rect x="1454.8705723043659" y="805.2664876436505" width="11.068528560704674" height="8.772031796810225" fill="#e0aaff" opacity="0.23367425298403816" rx="1"/><rect x="1475.7903401168237" y="860.1984547474884" width="7.650707044557367" height="7.710186304922725" fill="#c77dff" opacity="0.2553889393469759" rx="1"/><rect x="1456.5794830624395" y="864.0535478999498" width="7.650707044557367" height="7.710186304922725" fill="#e0aaff" opacity="0.12769446967348794" rx="1"/><rect x="1477.0657544964342" y="919.5164377497315" width="5.099878285336279" height="6.735266207888552" fill="#c77dff" opacity="0.24115770059664682" rx="1"/><rect x="1457.85489744205" y="922.8840708536758" width="5.099878285336279" height="6.735266207888552" fill="#e0aaff" opacity="0.12057885029832341" rx="1"/><rect x="1532.8312835078173" y="720.2403345192411" width="70.1437795628197" height="248.59408623273347" fill="#3c096c" opacity="0.665786824320859" rx="2"/><rect x="1564.4115327695292" y="730.2403345192411" width="6.983281039396133" height="7.233587551217896" fill="#c77dff" opacity="0.430504622154521" rx="1"/><rect x="1546.8755878788243" y="733.85712829485" width="6.983281039396133" height="7.233587551217896" fill="#e0aaff" opacity="0.2152523110772605" rx="1"/><rect x="1562.8273303119408" y="779.9591517657877" width="10.15168595457256" height="9.835490949413622" fill="#c77dff" opacity="0.5578230811650453" rx="1"/><rect x="1545.2913854212359" y="784.8768972404946" width="10.15168595457256" height="9.835490949413622" fill="#e0aaff" opacity="0.27891154058252265" rx="1"/><rect x="1565.0435949990042" y="829.6779690123344" width="5.719156580446091" height="6.541801983616734" fill="#c77dff" opacity="0.3817799291298213" rx="1"/><rect x="1547.5076501082992" y="832.9488700041428" width="5.719156580446091" height="6.541801983616734" fill="#e0aaff" opacity="0.19088996456491064" rx="1"/><rect x="1565.8482004859943" y="879.3967862588811" width="4.109945606465905" height="6.022243401040845" fill="#c77dff" opacity="0.2925549663585971" rx="1"/><rect x="1548.3122555952893" y="882.4079079594015" width="4.109945606465905" height="6.022243401040845" fill="#e0aaff" opacity="0.14627748317929856" rx="1"/><rect x="1562.0354845384097" y="929.1156035054278" width="11.735377501634737" height="6.133582267010022" fill="#c77dff" opacity="0.5022346437913912" rx="1"/><rect x="1544.4995396477048" y="932.1823946389328" width="11.735377501634737" height="6.133582267010022" fill="#e0aaff" opacity="0.2511173218956956" rx="1"/><rect x="1639.4373563918398" y="810.2773586777685" width="41.16240896078814" height="158.5570620742061" fill="#220052" opacity="0.6202810211852847" rx="2"/><rect x="1654.9897269085516" y="820.2773586777685" width="10.057667927364275" height="8.474372312071354" fill="#c77dff" opacity="0.1419816786986733" rx="1"/><rect x="1644.6991246683547" y="824.5145448338042" width="10.057667927364275" height="8.474372312071354" fill="#e0aaff" opacity="0.07099083934933666" rx="1"/><rect x="1656.9934748006528" y="859.91662419632" width="6.050172143161802" height="7.794256914824773" fill="#c77dff" opacity="0.4151621778530912" rx="1"/><rect x="1646.702872560456" y="863.8137526537323" width="6.050172143161802" height="7.794256914824773" fill="#e0aaff" opacity="0.2075810889265456" rx="1"/><rect x="1655.6005864582983" y="899.5558897148715" width="8.83594882787111" height="6.532670641441985" fill="#c77dff" opacity="0.433502031474724" rx="1"/><rect x="1645.3099842181014" y="902.8222250355924" width="8.83594882787111" height="6.532670641441985" fill="#e0aaff" opacity="0.216751015737362" rx="1"/><rect x="1656.5602585593638" y="939.1951552334231" width="6.916604625740229" height="8.114549691349861" fill="#c77dff" opacity="0.3021045794715417" rx="1"/><rect x="1646.2696563191669" y="943.252430079098" width="6.916604625740229" height="8.114549691349861" fill="#e0aaff" opacity="0.15105228973577084" rx="1"/><rect x="1743.1898397120328" y="795.0961683865395" width="36.48270586190808" height="173.73825236543507" fill="#3c096c" opacity="0.40088796953225697" rx="2"/><rect x="1755.4855023678297" y="805.0961683865395" width="11.891380550314528" height="7.232448963735357" fill="#c77dff" opacity="0.47965149941846064" rx="1"/><rect x="1746.3648259023528" y="808.7123928684072" width="11.891380550314528" height="7.232448963735357" fill="#e0aaff" opacity="0.23982574970923032" rx="1"/><rect x="1758.6592625442736" y="834.0525437807787" width="5.543860197426719" height="8.364088281608208" fill="#c77dff" opacity="0.16651413581951385" rx="1"/><rect x="1749.5385860787967" y="838.2345879215828" width="5.543860197426719" height="8.364088281608208" fill="#e0aaff" opacity="0.08325706790975693" rx="1"/><rect x="1759.090934590335" y="863.0089191750178" width="4.680516105303661" height="9.263439074918498" fill="#c77dff" opacity="0.5938260775510749" rx="1"/><rect x="1749.9702581248582" y="867.6406387124771" width="4.680516105303661" height="9.263439074918498" fill="#e0aaff" opacity="0.29691303877553743" rx="1"/><rect x="1756.4129950043014" y="891.965294569257" width="10.03639527737079" height="9.819269022862256" fill="#c77dff" opacity="0.47376115596242274" rx="1"/><rect x="1747.2923185388245" y="896.8749290806882" width="10.03639527737079" height="9.819269022862256" fill="#e0aaff" opacity="0.23688057798121137" rx="1"/><rect x="1755.9047505120695" y="920.9216699634962" width="11.052884261834642" height="6.8236371820847594" fill="#c77dff" opacity="0.23879289830541073" rx="1"/><rect x="1746.7840740465927" y="924.3334885545386" width="11.052884261834642" height="6.8236371820847594" fill="#e0aaff" opacity="0.11939644915270536" rx="1"/><rect x="1758.3371693721997" y="949.8780453577353" width="6.188046541574423" height="6.308314941895268" fill="#c77dff" opacity="0.41038473891336114" rx="1"/><rect x="1749.2164929067228" y="953.032202828683" width="6.188046541574423" height="6.308314941895268" fill="#e0aaff" opacity="0.20519236945668057" rx="1"/><rect x="1846.0359703518386" y="757.1957845606831" width="57.61333242701677" height="211.63863619129143" fill="#3c096c" opacity="0.6254407697649302" rx="2"/><rect x="1872.3732583406636" y="767.1957845606831" width="4.93875644936663" height="9.430512942241158" fill="#c77dff" opacity="0.29745575839128713" rx="1"/><rect x="1857.9699252339094" y="771.9110410318037" width="4.93875644936663" height="9.430512942241158" fill="#e0aaff" opacity="0.14872787919564356" rx="1"/><rect x="1872.1748485681394" y="809.5235117989414" width="5.33557599441511" height="9.377707634907614" fill="#c77dff" opacity="0.1386495227084145" rx="1"/><rect x="1857.7715154613852" y="814.2123656163952" width="5.33557599441511" height="9.377707634907614" fill="#e0aaff" opacity="0.06932476135420725" rx="1"/><rect x="1871.9675422463808" y="851.8512390371997" width="5.750188637932341" height="8.302798609785455" fill="#c77dff" opacity="0.35500170671264686" rx="1"/><rect x="1857.5642091396267" y="856.0026383420924" width="5.750188637932341" height="8.302798609785455" fill="#e0aaff" opacity="0.17750085335632343" rx="1"/><rect x="1871.1832442919072" y="894.1789662754579" width="7.318784546879769" height="9.823799027088983" fill="#c77dff" opacity="0.4240565682817382" rx="1"/><rect x="1856.779911185153" y="899.0908657890025" width="7.318784546879769" height="9.823799027088983" fill="#e0aaff" opacity="0.2120282841408691" rx="1"/><rect x="1871.9364372253588" y="936.5066935137163" width="5.812398679976445" height="8.154125982465718" fill="#c77dff" opacity="0.2505570862559967" rx="1"/><rect x="1857.5331041186046" y="940.5837565049492" width="5.812398679976445" height="8.154125982465718" fill="#e0aaff" opacity="0.12527854312799835" rx="1"/><path d="M534.9225400143588 852.1500271633616 Q543.485494955323 784.3759979783501 545.1980859435158 716.6019687933385" stroke="#00001f" stroke-width="6.772305973519643" fill="none" stroke-linecap="round"/><path d="M545.1980859435158 716.6019687933385 Q572.4868504450392 696.6019687933385 598.8096365176162 716.6019687933385" stroke="#090039" stroke-width="2.4912661645773952" fill="none" stroke-linecap="round" opacity="0.6"/><path d="M545.1980859435158 716.6019687933385 Q562.9158493780706 701.3546109727463 570.4654570432343 726.107253152154" stroke="#090039" stroke-width="2.4381870782091717" fill="none" stroke-linecap="round" opacity="0.6"/><path d="M545.1980859435158 716.6019687933385 Q547.0368965717356 707.4682173235602 528.6637504893514 738.3344658537819" stroke="#090039" stroke-width="2.860011768727566" fill="none" stroke-linecap="round" opacity="0.6"/><path d="M545.1980859435158 716.6019687933385 Q537.2313890762376 698.7507671809635 515.4512470846934 720.8995655685884" stroke="#090039" stroke-width="2.1545306812400304" fill="none" stroke-linecap="round" opacity="0.6"/><path d="M545.1980859435158 716.6019687933385 Q531.3252063085304 692.9461278020344 494.5885390041209 709.2902868107303" stroke="#090039" stroke-width="3.3173885069129496" fill="none" stroke-linecap="round" opacity="0.6"/><path d="M545.1980859435158 716.6019687933385 Q547.838836314834 688.3205779312614 532.5969297892268 700.0391870691841" stroke="#090039" stroke-width="2.621918924297653" fill="none" stroke-linecap="round" opacity="0.6"/><path d="M460.13102408035917 914.4130055826188 Q478.7547330974496 849.2851656685316 482.4794749008677 784.1573257544444" stroke="#00001f" stroke-width="5.186432811707824" fill="none" stroke-linecap="round"/><path d="M482.4794749008677 784.1573257544444 Q523.187034473798 764.1573257544444 534.05117499457 784.1573257544444" stroke="#090039" stroke-width="2.070694530399212" fill="none" stroke-linecap="round" opacity="0.6"/><path d="M482.4794749008677 784.1573257544444 Q504.56404803169096 769.1500104867748 509.02302965495426 794.1426952191052" stroke="#090039" stroke-width="2.210190776784483" fill="none" stroke-linecap="round" opacity="0.6"/><path d="M482.4794749008677 784.1573257544444 Q484.36655267892854 774.6109438532873 466.57300746868333 805.0645619521301" stroke="#090039" stroke-width="2.8549665675626525" fill="none" stroke-linecap="round" opacity="0.6"/><path d="M482.4794749008677 784.1573257544444 Q469.8972315044738 766.8082949454456 445.78084658908136 789.4592641364467" stroke="#090039" stroke-width="3.429041627661568" fill="none" stroke-linecap="round" opacity="0.6"/><path d="M482.4794749008677 784.1573257544444 Q459.4411275326614 760.0441070740922 425.53823091065226 775.93088839374" stroke="#090039" stroke-width="2.9708104904207424" fill="none" stroke-linecap="round" opacity="0.6"/><path d="M482.4794749008677 784.1573257544444 Q493.4430283616441 756.6115829217749 470.99769782764736 769.0658400891056" stroke="#090039" stroke-width="2.962852549032041" fill="none" stroke-linecap="round" opacity="0.6"/><path d="M1251.9557000631362 964.4491020274463 Q1268.3815124743574 859.4280272685988 1271.6666749566016 754.4069525097514" stroke="#00001f" stroke-width="4.536818646950838" fill="none" stroke-linecap="round"/><path d="M1271.6666749566016 754.4069525097514 Q1299.2701004187738 734.4069525097514 1325.0264381303045 754.4069525097514" stroke="#090039" stroke-width="3.369238052370315" fill="none" stroke-linecap="round" opacity="0.6"/><path d="M1271.6666749566016 754.4069525097514 Q1298.8396522549103 739.8468619457637 1300.5878950442689 765.286771381776" stroke="#090039" stroke-width="3.5174325372831508" fill="none" stroke-linecap="round" opacity="0.6"/><path d="M1271.6666749566016 754.4069525097514 Q1270.6026836979358 745.7683125823511 1254.3789663114837 777.1296726549508" stroke="#090039" stroke-width="2.787077247348399" fill="none" stroke-linecap="round" opacity="0.6"/><path d="M1271.6666749566016 754.4069525097514 Q1252.371257623753 737.6920116083256 1226.1900382419742 760.9770707068999" stroke="#090039" stroke-width="2.4284167598067823" fill="none" stroke-linecap="round" opacity="0.6"/><path d="M1271.6666749566016 754.4069525097514 Q1255.4178494921732 729.8783487944036 1208.9750582131576 745.3497450790559" stroke="#090039" stroke-width="2.300636819168142" fill="none" stroke-linecap="round" opacity="0.6"/><path d="M1894.3968379437918 871.1232406485647 Q1886.708242042621 775.2187426318924 1885.1705228623866 679.31424461522" stroke="#00001f" stroke-width="5.56431456691686" fill="none" stroke-linecap="round"/><path d="M1885.1705228623866 679.31424461522 Q1935.1479766103785 659.31424461522 1956.5614309391383 679.31424461522" stroke="#090039" stroke-width="2.9802564701485115" fill="none" stroke-linecap="round" opacity="0.6"/><path d="M1885.1705228623866 679.31424461522 Q1915.5910882088208 664.8842798056373 1914.7835551256953 690.4543149960546" stroke="#090039" stroke-width="3.466178173075006" fill="none" stroke-linecap="round" opacity="0.6"/><path d="M1885.1705228623866 679.31424461522 Q1894.2979513170903 664.9404269122693 1876.6095935621806 690.5666092093187" stroke="#090039" stroke-width="2.8580047648535123" fill="none" stroke-linecap="round" opacity="0.6"/><path d="M1885.1705228623866 679.31424461522 Q1884.580049061566 661.5061541906712 1854.8268753105467 683.6980637661222" stroke="#090039" stroke-width="3.4124570259387736" fill="none" stroke-linecap="round" opacity="0.6"/><path d="M1885.1705228623866 679.31424461522 Q1873.3682621173696 655.8380452429344 1837.0478403603722 672.361845870649" stroke="#090039" stroke-width="3.0669401826027176" fill="none" stroke-linecap="round" opacity="0.6"/><path d="M1885.1705228623866 679.31424461522 Q1892.5195430987542 651.4614006332199 1873.2214535670835 663.6085566512199" stroke="#090039" stroke-width="2.8801697825268304" fill="none" stroke-linecap="round" opacity="0.6"/><path d="M934.6880764455274 823.256014129905 Q925.6769221149564 712.3641071113208 923.8746912488422 601.4722000927367" stroke="#00001f" stroke-width="7.67113646484705" fill="none" stroke-linecap="round"/><path d="M923.8746912488422 601.4722000927367 Q944.9773814591991 581.4722000927367 955.507320409526 601.4722000927367" stroke="#090039" stroke-width="2.1756089847012445" fill="none" stroke-linecap="round" opacity="0.6"/><path d="M923.8746912488422 601.4722000927367 Q945.5703392155075 586.6827713601831 951.5766374266003 611.8933426276294" stroke="#090039" stroke-width="2.7846838545018535" fill="none" stroke-linecap="round" opacity="0.6"/><path d="M923.8746912488422 601.4722000927367 Q917.3614173856809 592.7607443124309 906.6977808921099 624.049288532125" stroke="#090039" stroke-width="2.485148694013513" fill="none" stroke-linecap="round" opacity="0.6"/><path d="M923.8746912488422 601.4722000927367 Q901.9142413328764 585.1296222325742 873.2432557177091 608.7870443724117" stroke="#090039" stroke-width="2.4822389293653515" fill="none" stroke-linecap="round" opacity="0.6"/><path d="M923.8746912488422 601.4722000927367 Q904.6905294213917 577.875363780759 874.0819741702422 594.2785274687814" stroke="#090039" stroke-width="2.964323160463088" fill="none" stroke-linecap="round" opacity="0.6"/><path d="M923.8746912488422 601.4722000927367 Q931.9116236494584 571.1550920639656 908.1759407012074 580.8379840351946" stroke="#090039" stroke-width="3.7590597764959233" fill="none" stroke-linecap="round" opacity="0.6"/><rect x="0" y="1000" width="1920" height="80" fill="#160046" opacity="0.8"/><line x1="0" y1="1040" x2="1920" y2="1040" stroke="#c77dff" stroke-opacity="0.15" stroke-width="2" stroke-dasharray="30,20"/><rect x="0" y="930" width="1920" height="150" fill="url(#glow91)"/><text x="1900" y="1060" font-family="Arial, sans-serif" font-size="11" fill="#fff" opacity="0.08" text-anchor="end" letter-spacing="2">GTA 6 REWARDS · WALLPAPER 092</text>
</svg>