<?xml version="1.0" encoding="UTF-8"?>
<svg xmlns="http://www.w3.org/2000/svg" width="1920" height="1080" viewBox="0 0 1920 1080">
<defs>
    <linearGradient id="bg48" x1="0%" y1="0%" x2="0%" y2="100%">
      <stop offset="0%" stop-color="#352f44"/>
      <stop offset="50%" stop-color="#020011"/>
      <stop offset="100%" stop-color="#352f44"/>
    </linearGradient>
    <linearGradient id="sun48" x1="0%" y1="0%" x2="100%" y2="100%">
      <stop offset="0%" stop-color="#ff577f"/>
      <stop offset="100%" stop-color="#ff884b"/>
    </linearGradient>
    <radialGradient id="glow48" cx="50%" cy="70%" r="50%">
      <stop offset="0%" stop-color="#ff577f" stop-opacity="0.3"/>
      <stop offset="100%" stop-color="#352f44" stop-opacity="0"/>
    </radialGradient>
  </defs><rect width="1920" height="1080" fill="url(#bg48)"/><circle cx="941.707770862083" cy="300.26297105948044" r="620.9320908228243" fill="#ff577f" opacity="0.09636886339782944"/><circle cx="1141.707770862083" cy="200.26297105948044" r="560.8823413869558" fill="#ff884b" opacity="0.06130364936108321"/><circle cx="1239.616822763257" cy="376.627678546735" r="77.39294301192112" fill="url(#sun48)" opacity="0.6818813928360774"/><circle cx="1239.616822763257" cy="376.627678546735" r="72.39294301192112" fill="#352f44" opacity="0.3"/><path d="M1053.9961233208878 896.4202908325057 Q1067.1206454017947 839.8091958288126 1069.7455498179759 783.1981008251194" stroke="#000000" stroke-width="7.326663527480947" fill="none" stroke-linecap="round"/><path d="M1069.7455498179759 783.1981008251194 Q1101.3598163720126 763.1981008251194 1110.1607265882567 783.1981008251194" stroke="#020011" stroke-width="2.4588130406240962" fill="none" stroke-linecap="round" opacity="0.6"/><path d="M1069.7455498179759 783.1981008251194 Q1108.8149381621956 771.3002326436383 1112.820446607884 799.4023644621572" stroke="#020011" stroke-width="2.307416318056038" fill="none" stroke-linecap="round" opacity="0.6"/><path d="M1069.7455498179759 783.1981008251194 Q1072.3188947560966 768.3548550163749 1061.8989131967217 793.5116092076305" stroke="#020011" stroke-width="2.572248474362364" fill="none" stroke-linecap="round" opacity="0.6"/><path d="M1069.7455498179759 783.1981008251194 Q1046.28142623159 767.3887580490725 1011.732287209714 791.5794152730258" stroke="#020011" stroke-width="2.7893620205087033" fill="none" stroke-linecap="round" opacity="0.6"/><path d="M1069.7455498179759 783.1981008251194 Q1050.2126314475877 759.1774153948326 1014.0852876521278 775.1567299645458" stroke="#020011" stroke-width="3.0279452537717173" fill="none" stroke-linecap="round" opacity="0.6"/><path d="M1237.5094608863603 952.3060154291583 Q1241.3346361791096 866.2942578122705 1242.0996712376593 780.2825001953828" stroke="#000000" stroke-width="7.4652067710331655" fill="none" stroke-linecap="round"/><path d="M1242.0996712376593 780.2825001953828 Q1270.2550696526314 760.2825001953828 1289.5995581256223 780.2825001953828" stroke="#020011" stroke-width="3.803718172899382" fill="none" stroke-linecap="round" opacity="0.6"/><path d="M1242.0996712376593 780.2825001953828 Q1263.8991058442386 767.1525814918564 1278.6243846603022 794.0226627883301" stroke="#020011" stroke-width="3.336762859331621" fill="none" stroke-linecap="round" opacity="0.6"/><path d="M1242.0996712376593 780.2825001953828 Q1244.2358152891775 764.7450309380172 1235.3093810958478 789.2075616806516" stroke="#020011" stroke-width="2.35023684900958" fill="none" stroke-linecap="round" opacity="0.6"/><path d="M1242.0996712376593 780.2825001953828 Q1209.1250910364183 765.168325488013 1174.4628661705863 790.0541507806432" stroke="#020011" stroke-width="2.2761187833445424" fill="none" stroke-linecap="round" opacity="0.6"/><path d="M1242.0996712376593 780.2825001953828 Q1227.340641368062 757.8903474397496 1208.9839620313808 775.4981946841165" stroke="#020011" stroke-width="2.5115592625251875" fill="none" stroke-linecap="round" opacity="0.6"/><path d="M1242.0996712376593 780.2825001953828 Q1248.479214638936 752.1208447658634 1229.6807072909344 763.9591893363439" stroke="#020011" stroke-width="2.503105114796922" fill="none" stroke-linecap="round" opacity="0.6"/><path d="M1242.0996712376593 780.2825001953828 Q1261.0394895126926 754.8534625188302 1270.9630917329307 769.4244248422774" stroke="#020011" stroke-width="2.4758454888304335" fill="none" stroke-linecap="round" opacity="0.6"/><path d="M654.7218714688723 900.7079948207149 Q662.8133839561635 807.0784051336996 664.4316864536219 713.4488154466843" stroke="#000000" stroke-width="6.665602014089377" fill="none" stroke-linecap="round"/><path d="M664.4316864536219 713.4488154466843 Q711.5738996284954 693.4488154466843 740.2432410559253 713.4488154466843" stroke="#020011" stroke-width="2.4033184867359974" fill="none" stroke-linecap="round" opacity="0.6"/><path d="M664.4316864536219 713.4488154466843 Q694.4205432015021 697.5811544973956 686.4012226321674 721.713493548107" stroke="#020011" stroke-width="3.8628908218496694" fill="none" stroke-linecap="round" opacity="0.6"/><path d="M664.4316864536219 713.4488154466843 Q663.2480195630177 698.6188308156343 656.5648713172244 723.7888461845843" stroke="#020011" stroke-width="2.5256686477283177" fill="none" stroke-linecap="round" opacity="0.6"/><path d="M664.4316864536219 713.4488154466843 Q660.7415413809931 696.4766856893887 622.5154374868199 719.504555932093" stroke="#020011" stroke-width="2.8094381067923826" fill="none" stroke-linecap="round" opacity="0.6"/><path d="M664.4316864536219 713.4488154466843 Q646.6607979528566 689.8165612755743 614.1486630929614 706.1843071044643" stroke="#020011" stroke-width="2.8341853732322777" fill="none" stroke-linecap="round" opacity="0.6"/><path d="M431.2073069324734 794.1320048398645 Q439.59125697137586 715.4006682779641 441.26804697915634 636.6693317160637" stroke="#000000" stroke-width="7.65844619266187" fill="none" stroke-linecap="round"/><path d="M441.26804697915634 636.6693317160637 Q471.2167329411527 616.6693317160637 499.62302906290233 636.6693317160637" stroke="#020011" stroke-width="3.3192269712032814" fill="none" stroke-linecap="round" opacity="0.6"/><path d="M441.26804697915634 636.6693317160637 Q469.6029896883365 624.1973550933028 481.2907024073753 651.7253784705418" stroke="#020011" stroke-width="2.581938596112174" fill="none" stroke-linecap="round" opacity="0.6"/><path d="M441.26804697915634 636.6693317160637 Q452.8438408506355 626.1624732517412 426.8230629326198 655.6556147874187" stroke="#020011" stroke-width="3.411931173273346" fill="none" stroke-linecap="round" opacity="0.6"/><path d="M441.26804697915634 636.6693317160637 Q424.44042549836644 621.6006445728723 373.00153591012054 646.5319574296809" stroke="#020011" stroke-width="3.8392218625729955" fill="none" stroke-linecap="round" opacity="0.6"/><path d="M441.26804697915634 636.6693317160637 Q435.4426316358015 614.3644777196748 409.36085604931236 632.0596237232861" stroke="#020011" stroke-width="2.2697455632197077" fill="none" stroke-linecap="round" opacity="0.6"/><line x1="0" y1="0" x2="0" y2="1080" stroke="#ff577f" stroke-opacity="0.04020964865810463" stroke-width="0.5"/><line x1="51" y1="0" x2="51" y2="1080" stroke="#ff577f" stroke-opacity="0.04020964865810463" stroke-width="0.5"/><line x1="102" y1="0" x2="102" y2="1080" stroke="#ff577f" stroke-opacity="0.04020964865810463" stroke-width="0.5"/><line x1="153" y1="0" x2="153" y2="1080" stroke="#ff577f" stroke-opacity="0.04020964865810463" stroke-width="0.5"/><line x1="204" y1="0" x2="204" y2="1080" stroke="#ff577f" stroke-opacity="0.04020964865810463" stroke-width="0.5"/><line x1="255" y1="0" x2="255" y2="1080" stroke="#ff577f" stroke-opacity="0.04020964865810463" stroke-width="0.5"/><line x1="306" y1="0" x2="306" y2="1080" stroke="#ff577f" stroke-opacity="0.04020964865810463" stroke-width="0.5"/><line x1="357" y1="0" x2="357" y2="1080" stroke="#ff577f" stroke-opacity="0.04020964865810463" stroke-width="0.5"/><line x1="408" y1="0" x2="408" y2="1080" stroke="#ff577f" stroke-opacity="0.04020964865810463" stroke-width="0.5"/><line x1="459" y1="0" x2="459" y2="1080" stroke="#ff577f" stroke-opacity="0.04020964865810463" stroke-width="0.5"/><line x1="510" y1="0" x2="510" y2="1080" stroke="#ff577f" stroke-opacity="0.04020964865810463" stroke-width="0.5"/><line x1="561" y1="0" x2="561" y2="1080" stroke="#ff577f" stroke-opacity="0.04020964865810463" stroke-width="0.5"/><line x1="612" y1="0" x2="612" y2="1080" stroke="#ff577f" stroke-opacity="0.04020964865810463" stroke-width="0.5"/><line x1="663" y1="0" x2="663" y2="1080" stroke="#ff577f" stroke-opacity="0.04020964865810463" stroke-width="0.5"/><line x1="714" y1="0" x2="714" y2="1080" stroke="#ff577f" stroke-opacity="0.04020964865810463" stroke-width="0.5"/><line x1="765" y1="0" x2="765" y2="1080" stroke="#ff577f" stroke-opacity="0.04020964865810463" stroke-width="0.5"/><line x1="816" y1="0" x2="816" y2="1080" stroke="#ff577f" stroke-opacity="0.04020964865810463" stroke-width="0.5"/><line x1="867" y1="0" x2="867" y2="1080" stroke="#ff577f" stroke-opacity="0.04020964865810463" stroke-width="0.5"/><line x1="918" y1="0" x2="918" y2="1080" stroke="#ff577f" stroke-opacity="0.04020964865810463" stroke-width="0.5"/><line x1="969" y1="0" x2="969" y2="1080" stroke="#ff577f" stroke-opacity="0.04020964865810463" stroke-width="0.5"/><line x1="1020" y1="0" x2="1020" y2="1080" stroke="#ff577f" stroke-opacity="0.04020964865810463" stroke-width="0.5"/><line x1="1071" y1="0" x2="1071" y2="1080" stroke="#ff577f" stroke-opacity="0.04020964865810463" stroke-width="0.5"/><line x1="1122" y1="0" x2="1122" y2="1080" stroke="#ff577f" stroke-opacity="0.04020964865810463" stroke-width="0.5"/><line x1="1173" y1="0" x2="1173" y2="1080" stroke="#ff577f" stroke-opacity="0.04020964865810463" stroke-width="0.5"/><line x1="1224" y1="0" x2="1224" y2="1080" stroke="#ff577f" stroke-opacity="0.04020964865810463" stroke-width="0.5"/><line x1="1275" y1="0" x2="1275" y2="1080" stroke="#ff577f" stroke-opacity="0.04020964865810463" stroke-width="0.5"/><line x1="1326" y1="0" x2="1326" y2="1080" stroke="#ff577f" stroke-opacity="0.04020964865810463" stroke-width="0.5"/><line x1="1377" y1="0" x2="1377" y2="1080" stroke="#ff577f" stroke-opacity="0.04020964865810463" stroke-width="0.5"/><line x1="1428" y1="0" x2="1428" y2="1080" stroke="#ff577f" stroke-opacity="0.04020964865810463" stroke-width="0.5"/><line x1="1479" y1="0" x2="1479" y2="1080" stroke="#ff577f" stroke-opacity="0.04020964865810463" stroke-width="0.5"/><line x1="1530" y1="0" x2="1530" y2="1080" stroke="#ff577f" stroke-opacity="0.04020964865810463" stroke-width="0.5"/><line x1="1581" y1="0" x2="1581" y2="1080" stroke="#ff577f" stroke-opacity="0.04020964865810463" stroke-width="0.5"/><line x1="1632" y1="0" x2="1632" y2="1080" stroke="#ff577f" stroke-opacity="0.04020964865810463" stroke-width="0.5"/><line x1="1683" y1="0" x2="1683" y2="1080" stroke="#ff577f" stroke-opacity="0.04020964865810463" stroke-width="0.5"/><line x1="1734" y1="0" x2="1734" y2="1080" stroke="#ff577f" stroke-opacity="0.04020964865810463" stroke-width="0.5"/><line x1="1785" y1="0" x2="1785" y2="1080" stroke="#ff577f" stroke-opacity="0.04020964865810463" stroke-width="0.5"/><line x1="1836" y1="0" x2="1836" y2="1080" stroke="#ff577f" stroke-opacity="0.04020964865810463" stroke-width="0.5"/><line x1="1887" y1="0" x2="1887" y2="1080" stroke="#ff577f" stroke-opacity="0.04020964865810463" stroke-width="0.5"/><line x1="0" y1="0" x2="1920" y2="0" stroke="#ff577f" stroke-opacity="0.04020964865810463" stroke-width="0.5"/><line x1="0" y1="51" x2="1920" y2="51" stroke="#ff577f" stroke-opacity="0.04020964865810463" stroke-width="0.5"/><line x1="0" y1="102" x2="1920" y2="102" stroke="#ff577f" stroke-opacity="0.04020964865810463" stroke-width="0.5"/><line x1="0" y1="153" x2="1920" y2="153" stroke="#ff577f" stroke-opacity="0.04020964865810463" stroke-width="0.5"/><line x1="0" y1="204" x2="1920" y2="204" stroke="#ff577f" stroke-opacity="0.04020964865810463" stroke-width="0.5"/><line x1="0" y1="255" x2="1920" y2="255" stroke="#ff577f" stroke-opacity="0.04020964865810463" stroke-width="0.5"/><line x1="0" y1="306" x2="1920" y2="306" stroke="#ff577f" stroke-opacity="0.04020964865810463" stroke-width="0.5"/><line x1="0" y1="357" x2="1920" y2="357" stroke="#ff577f" stroke-opacity="0.04020964865810463" stroke-width="0.5"/><line x1="0" y1="408" x2="1920" y2="408" stroke="#ff577f" stroke-opacity="0.04020964865810463" stroke-width="0.5"/><line x1="0" y1="459" x2="1920" y2="459" stroke="#ff577f" stroke-opacity="0.04020964865810463" stroke-width="0.5"/><line x1="0" y1="510" x2="1920" y2="510" stroke="#ff577f" stroke-opacity="0.04020964865810463" stroke-width="0.5"/><line x1="0" y1="561" x2="1920" y2="561" stroke="#ff577f" stroke-opacity="0.04020964865810463" stroke-width="0.5"/><line x1="0" y1="612" x2="1920" y2="612" stroke="#ff577f" stroke-opacity="0.04020964865810463" stroke-width="0.5"/><line x1="0" y1="663" x2="1920" y2="663" stroke="#ff577f" stroke-opacity="0.04020964865810463" stroke-width="0.5"/><line x1="0" y1="714" x2="1920" y2="714" stroke="#ff577f" stroke-opacity="0.04020964865810463" stroke-width="0.5"/><line x1="0" y1="765" x2="1920" y2="765" stroke="#ff577f" stroke-opacity="0.04020964865810463" stroke-width="0.5"/><line x1="0" y1="816" x2="1920" y2="816" stroke="#ff577f" stroke-opacity="0.04020964865810463" stroke-width="0.5"/><line x1="0" y1="867" x2="1920" y2="867" stroke="#ff577f" stroke-opacity="0.04020964865810463" stroke-width="0.5"/><line x1="0" y1="918" x2="1920" y2="918" stroke="#ff577f" stroke-opacity="0.04020964865810463" stroke-width="0.5"/><line x1="0" y1="969" x2="1920" y2="969" stroke="#ff577f" stroke-opacity="0.04020964865810463" stroke-width="0.5"/><line x1="0" y1="1020" x2="1920" y2="1020" stroke="#ff577f" stroke-opacity="0.04020964865810463" stroke-width="0.5"/><line x1="0" y1="1071" x2="1920" y2="1071" stroke="#ff577f" stroke-opacity="0.04020964865810463" stroke-width="0.5"/><rect x="0" y="1000" width="1920" height="80" fill="#0f091e" opacity="0.8"/><line x1="0" y1="1040" x2="1920" y2="1040" stroke="#ff884b" stroke-opacity="0.15" stroke-width="2" stroke-dasharray="30,20"/><rect x="0" y="930" width="1920" height="150" fill="url(#glow48)"/><text x="1900" y="1060" font-family="Arial, sans-serif" font-size="11" fill="#fff" opacity="0.08" text-anchor="end" letter-spacing="2">GTA 6 REWARDS · WALLPAPER 049</text>
</svg>