<?xml version="1.0" encoding="UTF-8"?>
<svg xmlns="http://www.w3.org/2000/svg" width="1920" height="1080" viewBox="0 0 1920 1080">
<defs>
    <linearGradient id="bg76" x1="0%" y1="0%" x2="0%" y2="100%">
      <stop offset="0%" stop-color="#003d00"/>
      <stop offset="50%" stop-color="#000a00"/>
      <stop offset="100%" stop-color="#003d00"/>
    </linearGradient>
    <linearGradient id="sun76" x1="0%" y1="0%" x2="100%" y2="100%">
      <stop offset="0%" stop-color="#38b000"/>
      <stop offset="100%" stop-color="#008000"/>
    </linearGradient>
    <radialGradient id="glow76" cx="50%" cy="70%" r="50%">
      <stop offset="0%" stop-color="#38b000" stop-opacity="0.3"/>
      <stop offset="100%" stop-color="#003d00" stop-opacity="0"/>
    </radialGradient>
  </defs><rect width="1920" height="1080" fill="url(#bg76)"/><circle cx="1159.9473228817683" cy="524.3152849199985" r="658.5347283535019" fill="#38b000" opacity="0.14736848960103666"/><circle cx="1359.9473228817683" cy="424.3152849199985" r="502.70486411235873" fill="#008000" opacity="0.09590141519110218"/><circle cx="728.3257890558629" cy="247.23861510801095" r="98.14585213506265" fill="url(#sun76)" opacity="0.7782208346012562"/><circle cx="728.3257890558629" cy="247.23861510801095" r="93.14585213506265" fill="#003d00" opacity="0.3"/><circle cx="1578.1307520666464" cy="362.5462356867609" r="1.3123632390779356" fill="#fff" opacity="0.7610974124076537"/><circle cx="1136.0669734738922" cy="38.857935188072254" r="0.9653758300620541" fill="#fff" opacity="0.4888734248208053"/><circle cx="707.9679761985243" cy="371.18723870888056" r="0.5844735515034929" fill="#fff" opacity="0.5239973961198696"/><circle cx="1237.203453471233" cy="368.45984835188364" r="1.5584968817556502" fill="#fff" opacity="0.5199946397729205"/><circle cx="472.6828641799937" cy="156.98897853423586" r="1.4287209925075808" fill="#fff" opacity="0.5079363057641164"/><circle cx="1853.7124371374287" cy="250.4532561512788" r="0.5062137433575032" fill="#fff" opacity="0.23024417744722314"/><circle cx="638.2701902087476" cy="164.98385148611473" r="1.5708622107214438" fill="#fff" opacity="0.7584963668972478"/><circle cx="478.6644687872996" cy="31.056050225872557" r="1.3033103697940964" fill="#fff" opacity="0.5320961366715133"/><circle cx="1649.9248918262135" cy="112.79145744088837" r="1.5813462246631613" fill="#fff" opacity="0.7952777061600418"/><circle cx="1362.5337144924638" cy="38.436876115956544" r="1.5114843137589014" fill="#fff" opacity="0.41968306913498865"/><circle cx="1070.1677663135733" cy="431.2315862437784" r="1.9173398470546446" fill="#fff" opacity="0.4309242683069139"/><circle cx="763.9265086045318" cy="43.716359450415794" r="1.3521421205606643" fill="#fff" opacity="0.7325587181217408"/><circle cx="1715.2090040862581" cy="322.8093168332263" r="1.018032027412679" fill="#fff" opacity="0.280973874191049"/><circle cx="1453.8059631394704" cy="263.6217721345885" r="0.945801650859835" fill="#fff" opacity="0.5920804043282011"/><circle cx="1527.4815697054103" cy="201.6736550018363" r="1.5471549339236588" fill="#fff" opacity="0.23256407478651128"/><circle cx="312.51048631791735" cy="82.36077044959198" r="1.9232753622166987" fill="#fff" opacity="0.5178746367147832"/><circle cx="937.4232027627115" cy="151.95640172622083" r="1.157352171176428" fill="#fff" opacity="0.20210138182204715"/><circle cx="1618.1644775760742" cy="32.93728283069499" r="0.6989968398583579" fill="#fff" opacity="0.5544244704661947"/><circle cx="49.47588757832439" cy="315.11521975954884" r="1.9019437944288233" fill="#fff" opacity="0.22534554708407856"/><circle cx="187.68435720998895" cy="344.60866631022856" r="1.7793030372772605" fill="#fff" opacity="0.6145060472689816"/><circle cx="815.4602048209542" cy="165.20164511473888" r="1.98993336956248" fill="#fff" opacity="0.5717406253730275"/><circle cx="171.8157886368725" cy="0.053621012729970045" r="0.8985474437704652" fill="#fff" opacity="0.21607827982308303"/><circle cx="325.50893612334244" cy="414.90756655459" r="0.8001793681877152" fill="#fff" opacity="0.441661644829824"/><circle cx="1146.2934635268275" cy="349.74939743004495" r="1.94163980019317" fill="#fff" opacity="0.6360084615731632"/><circle cx="1756.6882247842589" cy="336.9560174124679" r="0.9052709720342585" fill="#fff" opacity="0.582377588791395"/><circle cx="806.6614903897656" cy="81.29840083450507" r="1.2210879090058357" fill="#fff" opacity="0.5251854423259351"/><circle cx="1908.9574603710691" cy="134.50226253795023" r="1.464364974285561" fill="#fff" opacity="0.5807815120976375"/><circle cx="114.1257660356643" cy="414.59342925217777" r="0.9579604919901956" fill="#fff" opacity="0.4322851799503633"/><circle cx="1643.0286566268253" cy="75.86674602606026" r="1.3204628841067811" fill="#fff" opacity="0.6886451629662527"/><circle cx="593.0452208111634" cy="117.59415981676294" r="1.3326871327200642" fill="#fff" opacity="0.2903294563969433"/><circle cx="1728.2723043412605" cy="95.17206980268752" r="0.5254011888814627" fill="#fff" opacity="0.48620211940403146"/><circle cx="445.22671724791326" cy="427.22481789328737" r="0.9504301783047686" fill="#fff" opacity="0.21639064471618988"/><circle cx="521.2637352666966" cy="27.12275965025713" r="0.654897948181" fill="#fff" opacity="0.7665466678716584"/><circle cx="271.50779715541466" cy="150.7634454124522" r="0.8345697958335676" fill="#fff" opacity="0.2338188726533714"/><circle cx="1642.5844291696753" cy="201.94810241692423" r="1.8906304288866536" fill="#fff" opacity="0.2687791656397235"/><rect x="6.099836485483646" y="716.7354037442094" width="52.847529105573784" height="125.65161151011745" fill="#002300" opacity="0.6495030858203543" rx="2"/><rect x="26.76056865038364" y="726.7354037442094" width="11.526064775773804" height="6.924408736853955" fill="#008000" opacity="0.4305377361435764" rx="1"/><rect x="13.54868637399019" y="730.1976081126364" width="11.526064775773804" height="6.924408736853955" fill="#38b000" opacity="0.2152688680717882" rx="1"/><rect x="27.466390672248416" y="768.6192742475819" width="10.114420732044248" height="6.030731409795287" fill="#008000" opacity="0.5830260933337328" rx="1"/><rect x="14.254508395854968" y="771.6346399524795" width="10.114420732044248" height="6.030731409795287" fill="#38b000" opacity="0.2915130466668664" rx="1"/><rect x="27.74583677312961" y="810.5031447509543" width="9.555528530281858" height="6.888383248096421" fill="#008000" opacity="0.3197794647002079" rx="1"/><rect x="14.533954496736163" y="813.9473363750026" width="9.555528530281858" height="6.888383248096421" fill="#38b000" opacity="0.15988973235010395" rx="1"/><rect x="124.88661601321925" y="598.6710097521243" width="89.86149928994978" height="243.71600550220256" fill="#003d00" opacity="0.5548188893717758" rx="2"/><rect x="166.87802189166612" y="608.6710097521243" width="5.878687533056058" height="8.203779418534548" fill="#008000" opacity="0.5026899451629002" rx="1"/><rect x="144.41264706917866" y="612.7728994613916" width="5.878687533056058" height="8.203779418534548" fill="#38b000" opacity="0.2513449725814501" rx="1"/><rect x="166.42104153088783" y="669.600011127675" width="6.792648254612612" height="6.8600889818882775" fill="#008000" opacity="0.21267728279639903" rx="1"/><rect x="143.95566670840037" y="673.0300556186191" width="6.792648254612612" height="6.8600889818882775" fill="#38b000" opacity="0.10633864139819951" rx="1"/><rect x="165.88760121746165" y="730.5290125032255" width="7.859528881464975" height="9.393377035715007" fill="#008000" opacity="0.25964070897541025" rx="1"/><rect x="143.4222263949742" y="735.2257010210831" width="7.859528881464975" height="9.393377035715007" fill="#38b000" opacity="0.12982035448770513" rx="1"/><rect x="164.2325224800111" y="791.4580138787762" width="11.169686356366073" height="6.2572410051378515" fill="#008000" opacity="0.13065427940586916" rx="1"/><rect x="141.76714765752365" y="794.5866343813451" width="11.169686356366073" height="6.2572410051378515" fill="#38b000" opacity="0.06532713970293458" rx="1"/><rect x="229.8137489659278" y="467.3090976237573" width="59.298907031607555" height="375.0779176305695" fill="#002300" opacity="0.4600766024924993" rx="2"/><rect x="255.86983548683807" y="477.3090976237573" width="7.186733989786993" height="7.085585870101486" fill="#008000" opacity="0.11153883571073853" rx="1"/><rect x="241.04510872893619" y="480.851890558808" width="7.186733989786993" height="7.085585870101486" fill="#38b000" opacity="0.05576941785536926" rx="1"/><rect x="255.17760032512655" y="602.3350701672805" width="8.571204313210027" height="8.979682617583238" fill="#008000" opacity="0.44497567949466776" rx="1"/><rect x="240.35287356722466" y="606.8249114760721" width="8.571204313210027" height="8.979682617583238" fill="#38b000" opacity="0.22248783974733388" rx="1"/><rect x="256.6790096009334" y="727.3610427108036" width="5.568385761596352" height="6.916817010593791" fill="#008000" opacity="0.15471416796900198" rx="1"/><rect x="241.8542828430315" y="730.8194512161006" width="5.568385761596352" height="6.916817010593791" fill="#38b000" opacity="0.07735708398450099" rx="1"/><rect x="329.5276826549153" y="504.0367630901831" width="32.2093107835877" height="338.3502521641437" fill="#002300" opacity="0.6298089301515857" rx="2"/><rect x="342.83846218368" y="514.0367630901831" width="5.587751726058254" height="6.333544202226574" fill="#008000" opacity="0.17462694509295443" rx="1"/><rect x="334.78613448778304" y="517.2035351912964" width="5.587751726058254" height="6.333544202226574" fill="#38b000" opacity="0.08731347254647721" rx="1"/><rect x="342.25126585020945" y="556.330544610701" width="6.762144392999389" height="7.093035292134862" fill="#008000" opacity="0.3520843833340529" rx="1"/><rect x="334.1989381543125" y="559.8770622567685" width="6.762144392999389" height="7.093035292134862" fill="#38b000" opacity="0.17604219166702645" rx="1"/><rect x="340.9585049496867" y="598.6243261312189" width="9.347666194044908" height="6.491969121734605" fill="#008000" opacity="0.2202013300778813" rx="1"/><rect x="332.90617725378974" y="601.8703106920863" width="9.347666194044908" height="6.491969121734605" fill="#38b000" opacity="0.11010066503894066" rx="1"/><rect x="341.1094164289789" y="640.9181076517369" width="9.04584323546054" height="7.7623743437608645" fill="#008000" opacity="0.5281916209562196" rx="1"/><rect x="333.0570887330819" y="644.7992948236174" width="9.04584323546054" height="7.7623743437608645" fill="#38b000" opacity="0.2640958104781098" rx="1"/><rect x="340.27189983876235" y="683.2118891722549" width="10.720876415893638" height="6.616052122930077" fill="#008000" opacity="0.3456941702975179" rx="1"/><rect x="332.2195721428654" y="686.51991523372" width="10.720876415893638" height="6.616052122930077" fill="#38b000" opacity="0.17284708514875896" rx="1"/><rect x="342.3173019851831" y="725.5056706927728" width="6.630072123052104" height="9.261307157404094" fill="#008000" opacity="0.3586775777765264" rx="1"/><rect x="334.26497428928616" y="730.1363242714749" width="6.630072123052104" height="9.261307157404094" fill="#38b000" opacity="0.1793387888882632" rx="1"/><rect x="342.5004236971728" y="767.7994522132908" width="6.263828699072783" height="7.652246481192355" fill="#008000" opacity="0.36166959625242034" rx="1"/><rect x="334.4480960012758" y="771.625575453887" width="6.263828699072783" height="7.652246481192355" fill="#38b000" opacity="0.18083479812621017" rx="1"/><rect x="340.3155113382534" y="810.0932337338088" width="10.633653416911525" height="8.304942546017688" fill="#008000" opacity="0.5080098966155224" rx="1"/><rect x="332.2631836423564" y="814.2457050068176" width="10.633653416911525" height="8.304942546017688" fill="#38b000" opacity="0.2540049483077612" rx="1"/><rect x="456.5009481149029" y="529.2408649295662" width="54.496276770833944" height="313.1461503247605" fill="#002300" opacity="0.6655546814355894" rx="2"/><rect x="480.4524285382247" y="539.2408649295662" width="6.593315924190291" height="8.277649185219232" fill="#008000" opacity="0.48864327242799177" rx="1"/><rect x="466.8283593455162" y="543.3796895221758" width="6.593315924190291" height="8.277649185219232" fill="#38b000" opacity="0.24432163621399589" rx="1"/><rect x="479.01988782594435" y="583.9760292616749" width="9.45839734875094" height="7.756959814056046" fill="#008000" opacity="0.5304727261025628" rx="1"/><rect x="465.3958186332359" y="587.8545091687029" width="9.45839734875094" height="7.756959814056046" fill="#38b000" opacity="0.2652363630512814" rx="1"/><rect x="480.4003918271978" y="628.7111935937835" width="6.697389346244137" height="9.258251649154875" fill="#008000" opacity="0.33256835649548294" rx="1"/><rect x="466.7763226344893" y="633.3403194183609" width="6.697389346244137" height="9.258251649154875" fill="#38b000" opacity="0.16628417824774147" rx="1"/><rect x="479.4929893367208" y="673.4463579258921" width="8.512194327198014" height="6.026276028721192" fill="#008000" opacity="0.4502750214772008" rx="1"/><rect x="465.86892014401235" y="676.4594959402527" width="8.512194327198014" height="6.026276028721192" fill="#38b000" opacity="0.2251375107386004" rx="1"/><rect x="478.57638702112627" y="718.1815222580008" width="10.345398958387179" height="7.602981338650682" fill="#008000" opacity="0.16779051131284575" rx="1"/><rect x="464.9523178284178" y="721.9830129273261" width="10.345398958387179" height="7.602981338650682" fill="#38b000" opacity="0.08389525565642288" rx="1"/><rect x="479.9893915399418" y="762.9166865901094" width="7.519389920756079" height="9.72749872406188" fill="#008000" opacity="0.2493729183332466" rx="1"/><rect x="466.3653223472333" y="767.7804359521404" width="7.519389920756079" height="9.72749872406188" fill="#38b000" opacity="0.1246864591666233" rx="1"/><rect x="481.54854876747083" y="807.651850922218" width="4.401075465698046" height="8.134529295874417" fill="#008000" opacity="0.59391190952014" rx="1"/><rect x="467.92447957476236" y="811.7191155701553" width="4.401075465698046" height="8.134529295874417" fill="#38b000" opacity="0.29695595476007" rx="1"/><rect x="547.2467260405531" y="492.0927171693399" width="72.45243936834214" height="350.2942980849869" fill="#003d00" opacity="0.4102882036730387" rx="2"/><rect x="577.5170312236336" y="502.0927171693399" width="11.91182900218103" height="9.565224544043938" fill="#008000" opacity="0.45944913464119874" rx="1"/><rect x="559.4039213815481" y="506.8753294413619" width="11.91182900218103" height="9.565224544043938" fill="#38b000" opacity="0.22972456732059937" rx="1"/><rect x="578.5551857402444" y="560.4751001835044" width="9.835519968959392" height="9.93273207450582" fill="#008000" opacity="0.1561508756494501" rx="1"/><rect x="560.4420758981589" y="565.4414662207573" width="9.835519968959392" height="9.93273207450582" fill="#38b000" opacity="0.07807543782472505" rx="1"/><rect x="580.8141057872713" y="618.8574831976689" width="5.317679874905776" height="6.283539007483874" fill="#008000" opacity="0.18013441555205137" rx="1"/><rect x="562.7009959451858" y="621.9992527014108" width="5.317679874905776" height="6.283539007483874" fill="#38b000" opacity="0.09006720777602568" rx="1"/><rect x="580.0036287696576" y="677.2398662118334" width="6.938633910133185" height="8.902470849198865" fill="#008000" opacity="0.48121899226243114" rx="1"/><rect x="561.8905189275721" y="681.6911016364328" width="6.938633910133185" height="8.902470849198865" fill="#38b000" opacity="0.24060949613121557" rx="1"/><rect x="579.4031619519003" y="735.6222492259978" width="8.139567545647633" height="9.76738643175163" fill="#008000" opacity="0.381872447762143" rx="1"/><rect x="561.2900521098148" y="740.5059424418737" width="8.139567545647633" height="9.76738643175163" fill="#38b000" opacity="0.1909362238810715" rx="1"/><rect x="579.6777418066463" y="794.0046322401623" width="7.590407836155595" height="6.863187922365775" fill="#008000" opacity="0.5625244071852705" rx="1"/><rect x="561.5646319645608" y="797.4362262013452" width="7.590407836155595" height="6.863187922365775" fill="#38b000" opacity="0.28126220359263526" rx="1"/><rect x="668.2892298415045" y="611.1769361331073" width="65.25476982240909" height="231.21007912121948" fill="#003d00" opacity="0.4776386846037672" rx="2"/><rect x="697.4989276436388" y="621.1769361331073" width="6.835374218140583" height="6.164608917237401" fill="#008000" opacity="0.14484646745138952" rx="1"/><rect x="681.1852351880365" y="624.2592405917261" width="6.835374218140583" height="6.164608917237401" fill="#38b000" opacity="0.07242323372569476" rx="1"/><rect x="697.0004148688168" y="678.9794559134123" width="7.832399767784494" height="9.620253274128832" fill="#008000" opacity="0.18815982066750522" rx="1"/><rect x="680.6867224132145" y="683.7895825504767" width="7.832399767784494" height="9.620253274128832" fill="#38b000" opacity="0.09407991033375261" rx="1"/><rect x="696.793033800971" y="736.7819756937171" width="8.247161903476147" height="8.249134036304692" fill="#008000" opacity="0.44444483668646884" rx="1"/><rect x="680.4793413453687" y="740.9065427118694" width="8.247161903476147" height="8.249134036304692" fill="#38b000" opacity="0.22222241834323442" rx="1"/><rect x="698.6675995191716" y="794.584495474022" width="4.4980304670748374" height="7.593928769601958" fill="#008000" opacity="0.43601514723524804" rx="1"/><rect x="682.3539070635693" y="798.381459858823" width="4.4980304670748374" height="7.593928769601958" fill="#38b000" opacity="0.21800757361762402" rx="1"/><rect x="769.0869347679165" y="712.4190283618912" width="74.77421665675337" height="129.9679868924357" fill="#002300" opacity="0.650568003265785" rx="2"/><rect x="803.311654083969" y="722.4190283618912" width="6.324778024648497" height="6.219877551360959" fill="#008000" opacity="0.32539520373693553" rx="1"/><rect x="784.6180999197805" y="725.5289671375716" width="6.324778024648497" height="6.219877551360959" fill="#38b000" opacity="0.16269760186846777" rx="1"/><rect x="800.5581288262173" y="765.7416906593697" width="11.8318285401519" height="6.869400647671288" fill="#008000" opacity="0.32937098581562074" rx="1"/><rect x="781.8645746620289" y="769.1763909832054" width="11.8318285401519" height="6.869400647671288" fill="#38b000" opacity="0.16468549290781037" rx="1"/><rect x="803.8797280627489" y="809.0643529568483" width="5.188630067088788" height="6.117666155127265" fill="#008000" opacity="0.2993475513764069" rx="1"/><rect x="785.1861738985605" y="812.1231860344119" width="5.188630067088788" height="6.117666155127265" fill="#38b000" opacity="0.14967377568820345" rx="1"/><rect x="873.2792857110684" y="590.1291232183876" width="86.57552237077047" height="252.25789203593925" fill="#002300" opacity="0.4896747667551215" rx="2"/><rect x="914.430749010162" y="600.1291232183876" width="4.272595772583176" height="8.820304576032866" fill="#008000" opacity="0.5272831150859788" rx="1"/><rect x="892.7868684174695" y="604.539275506404" width="4.272595772583176" height="8.820304576032866" fill="#38b000" opacity="0.2636415575429894" rx="1"/><rect x="912.2378644852986" y="663.1935962273724" width="8.658364822310014" height="9.824593793559957" fill="#008000" opacity="0.3374404646077753" rx="1"/><rect x="890.593983892606" y="668.1058931241523" width="8.658364822310014" height="9.824593793559957" fill="#38b000" opacity="0.16872023230388766" rx="1"/><rect x="910.8812262136211" y="726.2580692363572" width="11.371641365664928" height="7.082557322709485" fill="#008000" opacity="0.5457703624958569" rx="1"/><rect x="889.2373456209285" y="729.799347897712" width="11.371641365664928" height="7.082557322709485" fill="#38b000" opacity="0.27288518124792843" rx="1"/><rect x="913.3936048844813" y="789.322542245342" width="6.346884023944588" height="7.632432109125059" fill="#008000" opacity="0.21211235719083632" rx="1"/><rect x="891.7497242917888" y="793.1387582999046" width="6.346884023944588" height="7.632432109125059" fill="#38b000" opacity="0.10605617859541816" rx="1"/><rect x="965.8540455847639" y="697.4817090545505" width="66.60846938300145" height="144.9053061997763" fill="#003d00" opacity="0.619966079555444" rx="2"/><rect x="996.3567808804468" y="707.4817090545505" width="5.602998791635734" height="8.342754975506747" fill="#008000" opacity="0.2946279833080778" rx="1"/><rect x="979.7046635346965" y="711.6530865423039" width="5.602998791635734" height="8.342754975506747" fill="#38b000" opacity="0.1473139916540389" rx="1"/><rect x="996.4744344645818" y="725.5948723295226" width="5.367691623365435" height="6.7775815876148595" fill="#008000" opacity="0.3229720245168945" rx="1"/><rect x="979.8223171188315" y="728.98366312333" width="5.367691623365435" height="6.7775815876148595" fill="#38b000" opacity="0.16148601225844725" rx="1"/><rect x="996.172120457788" y="743.7080356044946" width="5.972319636953138" height="7.113878085537319" fill="#008000" opacity="0.37361748583466226" rx="1"/><rect x="979.5200031120377" y="747.2649746472633" width="5.972319636953138" height="7.113878085537319" fill="#38b000" opacity="0.18680874291733113" rx="1"/><rect x="996.5224336026056" y="761.8211988794666" width="5.271693347318027" height="9.063060764936512" fill="#008000" opacity="0.23890541627511974" rx="1"/><rect x="979.8703162568553" y="766.3527292619349" width="5.271693347318027" height="9.063060764936512" fill="#38b000" opacity="0.11945270813755987" rx="1"/><rect x="993.4098605807893" y="779.9343621544386" width="11.496839390950473" height="6.860305755599473" fill="#008000" opacity="0.17699324169126182" rx="1"/><rect x="976.757743235039" y="783.3645150322384" width="11.496839390950473" height="6.860305755599473" fill="#38b000" opacity="0.08849662084563091" rx="1"/><rect x="994.3212174874081" y="798.0475254294107" width="9.674125577712926" height="6.280963566219659" fill="#008000" opacity="0.24939981399788516" rx="1"/><rect x="977.6691001416579" y="801.1880072125206" width="9.674125577712926" height="6.280963566219659" fill="#38b000" opacity="0.12469990699894258" rx="1"/><rect x="994.5201288982108" y="816.1606887043827" width="9.276302756107484" height="6.389560859741075" fill="#008000" opacity="0.11325584308087264" rx="1"/><rect x="977.8680115524605" y="819.3554691342532" width="9.276302756107484" height="6.389560859741075" fill="#38b000" opacity="0.05662792154043632" rx="1"/><rect x="994.59082978023" y="834.2738519793547" width="9.134900992069138" height="8.591398213662067" fill="#008000" opacity="0.3570740739482162" rx="1"/><rect x="977.9387124344797" y="838.5695510861858" width="9.134900992069138" height="8.591398213662067" fill="#38b000" opacity="0.1785370369741081" rx="1"/><rect x="1073.908096012638" y="534.2553813905117" width="84.50193847401579" height="308.13163386381507" fill="#003d00" opacity="0.5421368941995635" rx="2"/><rect x="1113.1655375128998" y="544.2553813905117" width="5.987055473492261" height="8.104559648340699" fill="#008000" opacity="0.34157639982681176" rx="1"/><rect x="1092.0400528943958" y="548.3076612146821" width="5.987055473492261" height="8.104559648340699" fill="#38b000" opacity="0.17078819991340588" rx="1"/><rect x="1113.981363096503" y="646.9659260117834" width="4.355404306285876" height="6.777105429390703" fill="#008000" opacity="0.40691769574929904" rx="1"/><rect x="1092.8558784779989" y="650.3544787264788" width="4.355404306285876" height="6.777105429390703" fill="#38b000" opacity="0.20345884787464952" rx="1"/><rect x="1112.1918400542793" y="749.6764706330551" width="7.934450390733417" height="9.907501119167428" fill="#008000" opacity="0.4131535690774102" rx="1"/><rect x="1091.0663554357752" y="754.6302211926388" width="7.934450390733417" height="9.907501119167428" fill="#38b000" opacity="0.2065767845387051" rx="1"/><rect x="1202.7073617541948" y="701.4763714167001" width="47.72424564643862" height="140.9106438376267" fill="#003d00" opacity="0.6327027651091811" rx="2"/><rect x="1220.67367516823" y="711.4763714167001" width="11.791618818368674" height="6.980360778276893" fill="#008000" opacity="0.12708805446212368" rx="1"/><rect x="1208.7426137566201" y="714.9665518058385" width="11.791618818368674" height="6.980360778276893" fill="#38b000" opacity="0.06354402723106184" rx="1"/><rect x="1223.8442124097712" y="731.6064633935039" width="5.4505443352857945" height="9.716037978352055" fill="#008000" opacity="0.13168659774393" rx="1"/><rect x="1211.9131509981614" y="736.4644823826799" width="5.4505443352857945" height="9.716037978352055" fill="#38b000" opacity="0.065843298871965" rx="1"/><rect x="1222.3835723580291" y="751.7365553703078" width="8.371824438770261" height="8.766915066811935" fill="#008000" opacity="0.15266080856152364" rx="1"/><rect x="1210.4525109464194" y="756.1200129037137" width="8.371824438770261" height="8.766915066811935" fill="#38b000" opacity="0.07633040428076182" rx="1"/><rect x="1224.2100042577858" y="771.8666473471116" width="4.718960639256742" height="6.438104083863577" fill="#008000" opacity="0.5510362773321188" rx="1"/><rect x="1212.278942846176" y="775.0856993890434" width="4.718960639256742" height="6.438104083863577" fill="#38b000" opacity="0.2755181386660594" rx="1"/><rect x="1220.8837251225218" y="791.9967393239153" width="11.371518909784854" height="6.437639955533119" fill="#008000" opacity="0.5741776797394682" rx="1"/><rect x="1208.952663710912" y="795.2155593016819" width="11.371518909784854" height="6.437639955533119" fill="#38b000" opacity="0.2870888398697341" rx="1"/><rect x="1223.848986294784" y="812.1268313007191" width="5.440996565260225" height="8.352031491313138" fill="#008000" opacity="0.3557795355691993" rx="1"/><rect x="1211.9179248831742" y="816.3028470463756" width="5.440996565260225" height="8.352031491313138" fill="#38b000" opacity="0.17788976778459964" rx="1"/><rect x="1221.9555619109785" y="832.256923277523" width="9.227845332871155" height="8.031850728679414" fill="#008000" opacity="0.18157372301946714" rx="1"/><rect x="1210.0245004993687" y="836.2728486418628" width="9.227845332871155" height="8.031850728679414" fill="#38b000" opacity="0.09078686150973357" rx="1"/><rect x="1308.2706176927943" y="695.7737603564219" width="32.5632446917154" height="146.61325489790488" fill="#003d00" opacity="0.47033855900409133" rx="2"/><rect x="1321.714175803753" y="705.7737603564219" width="5.6761284697978125" height="6.100496508204494" fill="#008000" opacity="0.21043882500623326" rx="1"/><rect x="1313.5733646308242" y="708.8240086105242" width="5.6761284697978125" height="6.100496508204494" fill="#38b000" opacity="0.10521941250311663" rx="1"/><rect x="1319.6676912928622" y="754.6448453223902" width="9.769097491579386" height="8.170755725859374" fill="#008000" opacity="0.5454546691722829" rx="1"/><rect x="1311.5268801199334" y="758.7302231853199" width="9.769097491579386" height="8.170755725859374" fill="#38b000" opacity="0.27272733458614146" rx="1"/><rect x="1322.2051807290886" y="803.5159302883585" width="4.694118619126761" height="7.922775147930434" fill="#008000" opacity="0.28297621029964093" rx="1"/><rect x="1314.0643695561598" y="807.4773178623237" width="4.694118619126761" height="7.922775147930434" fill="#38b000" opacity="0.14148810514982046" rx="1"/><rect x="1402.8550314514096" y="527.2037049702377" width="73.33375649138674" height="315.1833102840891" fill="#002300" opacity="0.4560005417922513" rx="2"/><rect x="1435.0813814434414" y="537.2037049702377" width="8.881056507323184" height="6.844519096623296" fill="#008000" opacity="0.5450009808514735" rx="1"/><rect x="1416.7479423205946" y="540.6259645185494" width="8.881056507323184" height="6.844519096623296" fill="#38b000" opacity="0.27250049042573676" rx="1"/><rect x="1433.8760770254016" y="589.7342566842526" width="11.291665343402807" height="9.212740375477061" fill="#008000" opacity="0.1407179897978711" rx="1"/><rect x="1415.5426379025548" y="594.3406268719912" width="11.291665343402807" height="9.212740375477061" fill="#38b000" opacity="0.07035899489893555" rx="1"/><rect x="1436.9947397196654" y="642.2648083982674" width="5.054339954875023" height="6.643341354244235" fill="#008000" opacity="0.35431750348171165" rx="1"/><rect x="1418.6613005968186" y="645.5864790753895" width="5.054339954875023" height="6.643341354244235" fill="#38b000" opacity="0.17715875174085582" rx="1"/><rect x="1434.3007575853965" y="694.7953601122822" width="10.442304223413185" height="7.291524272712768" fill="#008000" opacity="0.40936931499963847" rx="1"/><rect x="1415.9673184625497" y="698.4411222486386" width="10.442304223413185" height="7.291524272712768" fill="#38b000" opacity="0.20468465749981923" rx="1"/><rect x="1436.8729876354043" y="747.3259118262971" width="5.297844123397452" height="8.914430030368834" fill="#008000" opacity="0.5480997597445035" rx="1"/><rect x="1418.5395485125575" y="751.7831268414815" width="5.297844123397452" height="8.914430030368834" fill="#38b000" opacity="0.27404987987225177" rx="1"/><rect x="1437.255226951152" y="799.856463540312" width="4.533365491901843" height="9.964188073753423" fill="#008000" opacity="0.17165649802695415" rx="1"/><rect x="1418.9217878283052" y="804.8385575771887" width="4.533365491901843" height="9.964188073753423" fill="#38b000" opacity="0.08582824901347708" rx="1"/><rect x="1495.8512277588832" y="728.2472201339544" width="87.76002684555948" height="114.13979512037238" fill="#003d00" opacity="0.5618240064852461" rx="2"/><rect x="1536.353362856282" y="738.2472201339544" width="6.755756650761644" height="9.757072110603813" fill="#008000" opacity="0.5122463813778587" rx="1"/><rect x="1514.4133561448923" y="743.1257561892563" width="6.755756650761644" height="9.757072110603813" fill="#38b000" opacity="0.25612319068892936" rx="1"/><rect x="1535.9636548512995" y="776.2938185074119" width="7.535172660726861" height="6.096520871877791" fill="#008000" opacity="0.1507383992780788" rx="1"/><rect x="1514.0236481399097" y="779.3420789433508" width="7.535172660726861" height="6.096520871877791" fill="#38b000" opacity="0.0753691996390394" rx="1"/><rect x="1536.2054520592105" y="814.3404168808694" width="7.051578244904889" height="8.176107117481555" fill="#008000" opacity="0.32958852251283555" rx="1"/><rect x="1514.2654453478208" y="818.4284704396101" width="7.051578244904889" height="8.176107117481555" fill="#38b000" opacity="0.16479426125641777" rx="1"/><rect x="1620.9647266569" y="535.4481192970294" width="54.73754569067097" height="306.9388959572974" fill="#003d00" opacity="0.5862672813670401" rx="2"/><rect x="1644.7071840776382" y="545.4481192970294" width="7.25263084919486" height="9.70952650059702" fill="#008000" opacity="0.3695210641877542" rx="1"/><rect x="1631.0227976549704" y="550.302882547328" width="7.25263084919486" height="9.70952650059702" fill="#38b000" opacity="0.1847605320938771" rx="1"/><rect x="1645.3261229224331" y="583.8154812916915" width="6.014753159604677" height="9.966519878238095" fill="#008000" opacity="0.12530434891239375" rx="1"/><rect x="1631.6417364997653" y="588.7987412308106" width="6.014753159604677" height="9.966519878238095" fill="#38b000" opacity="0.06265217445619688" rx="1"/><rect x="1644.9979437445286" y="622.1828432863538" width="6.671111515413763" height="9.446783167181254" fill="#008000" opacity="0.4750458722643195" rx="1"/><rect x="1631.3135573218608" y="626.9062348699445" width="6.671111515413763" height="9.446783167181254" fill="#38b000" opacity="0.23752293613215975" rx="1"/><rect x="1642.7214721217103" y="660.5502052810159" width="11.224054761050283" height="8.387662510012198" fill="#008000" opacity="0.1108152965574561" rx="1"/><rect x="1629.0370856990426" y="664.744036536022" width="11.224054761050283" height="8.387662510012198" fill="#38b000" opacity="0.05540764827872805" rx="1"/><rect x="1643.6340233284595" y="698.917567275678" width="9.39895234755216" height="8.374160911509339" fill="#008000" opacity="0.262756419429266" rx="1"/><rect x="1629.9496369057917" y="703.1046477314327" width="9.39895234755216" height="8.374160911509339" fill="#38b000" opacity="0.131378209714633" rx="1"/><rect x="1645.6772927415273" y="737.2849292703403" width="5.312413521416581" height="6.073292305710095" fill="#008000" opacity="0.2383337769979457" rx="1"/><rect x="1631.9929063188595" y="740.3215754231953" width="5.312413521416581" height="6.073292305710095" fill="#38b000" opacity="0.11916688849897285" rx="1"/><rect x="1644.9718001731608" y="775.6522912650024" width="6.723398658149735" height="6.448758958012042" fill="#008000" opacity="0.16312881982026828" rx="1"/><rect x="1631.287413750493" y="778.8766707440085" width="6.723398658149735" height="6.448758958012042" fill="#38b000" opacity="0.08156440991013414" rx="1"/><rect x="1644.4411655183512" y="814.0196532596647" width="7.7846679677685415" height="6.4303596207011395" fill="#008000" opacity="0.594735251994509" rx="1"/><rect x="1630.7567790956834" y="817.2348330700153" width="7.7846679677685415" height="6.4303596207011395" fill="#38b000" opacity="0.2973676259972545" rx="1"/><rect x="1733.8363485768987" y="559.8178125242277" width="82.99761094455552" height="282.569202730099" fill="#003d00" opacity="0.4883815875249872" rx="2"/><rect x="1772.6053137405788" y="569.8178125242277" width="5.459680617195479" height="6.707050531335885" fill="#008000" opacity="0.3871235113793806" rx="1"/><rect x="1751.8559110044398" y="573.1713377898957" width="5.459680617195479" height="6.707050531335885" fill="#38b000" opacity="0.1935617556896903" rx="1"/><rect x="1769.4706272493281" y="664.007546767594" width="11.72905359969685" height="6.894135371058745" fill="#008000" opacity="0.17778106585093334" rx="1"/><rect x="1748.721224513189" y="667.4546144531234" width="11.72905359969685" height="6.894135371058745" fill="#38b000" opacity="0.08889053292546667" rx="1"/><rect x="1770.7282406607942" y="758.1972810109604" width="9.21382677676478" height="7.949200947291497" fill="#008000" opacity="0.3785088868761689" rx="1"/><rect x="1749.9788379246552" y="762.1718814846062" width="9.21382677676478" height="7.949200947291497" fill="#38b000" opacity="0.18925444343808445" rx="1"/><rect x="1837.159245262658" y="551.029592263752" width="57.019462293716956" height="291.35742299057483" fill="#003d00" opacity="0.5865249132706143" rx="2"/><rect x="1862.6974125745933" y="561.029592263752" width="5.943127669846436" height="6.73340123070716" fill="#008000" opacity="0.3632364303020845" rx="1"/><rect x="1848.442547001164" y="564.3962928791055" width="5.943127669846436" height="6.73340123070716" fill="#38b000" opacity="0.18161821515104226" rx="1"/><rect x="1861.373002339707" y="658.1487332606102" width="8.59194813961907" height="9.922598625515262" fill="#008000" opacity="0.28800566454604404" rx="1"/><rect x="1847.1181367662778" y="663.1100325733679" width="8.59194813961907" height="9.922598625515262" fill="#38b000" opacity="0.14400283227302202" rx="1"/><rect x="1861.4713163484055" y="755.2678742574685" width="8.395320122222259" height="7.348780117311696" fill="#008000" opacity="0.17007529611468206" rx="1"/><rect x="1847.2164507749762" y="758.9422643161244" width="8.395320122222259" height="7.348780117311696" fill="#38b000" opacity="0.08503764805734103" rx="1"/><path d="M3.5460506387860633 780.1890337560766 Q14.021138715097013 710.4999020429095 16.116156330359203 640.8107703297424" stroke="#000000" stroke-width="5.362648909297457" fill="none" stroke-linecap="round"/><path d="M16.116156330359203 640.8107703297424 Q58.31485182473316 620.8107703297424 81.47662441280592 640.8107703297424" stroke="#000a00" stroke-width="2.3607613794414237" fill="none" stroke-linecap="round" opacity="0.6"/><path d="M16.116156330359203 640.8107703297424 Q49.96227876642038 627.5520278932712 51.95597976046917 654.2932854568" stroke="#000a00" stroke-width="2.1694524167500093" fill="none" stroke-linecap="round" opacity="0.6"/><path d="M16.116156330359203 640.8107703297424 Q28.85797832976701 626.253255483299 7.834744858595274 651.6957406368557" stroke="#000a00" stroke-width="3.587322635945706" fill="none" stroke-linecap="round" opacity="0.6"/><path d="M16.116156330359203 640.8107703297424 Q11.111728289238817 623.1541280381512 -16.324059811865446 645.4974857465601" stroke="#000a00" stroke-width="3.610263802951729" fill="none" stroke-linecap="round" opacity="0.6"/><path d="M16.116156330359203 640.8107703297424 Q17.086212891079413 618.1100115951385 -21.27173233220465 635.4092528605346" stroke="#000a00" stroke-width="3.1359105117469817" fill="none" stroke-linecap="round" opacity="0.6"/><path d="M16.116156330359203 640.8107703297424 Q28.237799824513264 614.2895509412517 6.193317860429113 627.7683315527611" stroke="#000a00" stroke-width="3.8560959216803536" fill="none" stroke-linecap="round" opacity="0.6"/><path d="M1127.1068316342091 797.0732559210326 Q1112.5592111266587 673.112027800668 1109.6496870251488 549.1507996803035" stroke="#000000" stroke-width="6.332356110758231" fill="none" stroke-linecap="round"/><path d="M1109.6496870251488 549.1507996803035 Q1156.2716561523898 529.1507996803035 1169.5266784051262 549.1507996803035" stroke="#000a00" stroke-width="3.8383430013988034" fill="none" stroke-linecap="round" opacity="0.6"/><path d="M1109.6496870251488 549.1507996803035 Q1137.079496434312 535.4765335929883 1143.2803834285958 561.8022675056731" stroke="#000a00" stroke-width="3.708697277053422" fill="none" stroke-linecap="round" opacity="0.6"/><path d="M1109.6496870251488 549.1507996803035 Q1120.0476133167012 533.960613066238 1102.3309635693224 558.7704264521725" stroke="#000a00" stroke-width="3.36766650512993" fill="none" stroke-linecap="round" opacity="0.6"/><path d="M1109.6496870251488 549.1507996803035 Q1088.7411388100259 532.6282039043763 1061.5103251863604 556.1056081284491" stroke="#000a00" stroke-width="3.335363032141552" fill="none" stroke-linecap="round" opacity="0.6"/><path d="M1109.6496870251488 549.1507996803035 Q1096.5457181138024 526.1032151176039 1067.4605233430868 543.0556305549043" stroke="#000a00" stroke-width="3.800333194388154" fill="none" stroke-linecap="round" opacity="0.6"/><path d="M1109.6496870251488 549.1507996803035 Q1104.2896462317608 519.5299722074703 1095.0104130990978 529.9091447346373" stroke="#000a00" stroke-width="3.449286002071874" fill="none" stroke-linecap="round" opacity="0.6"/><path d="M483.22016503736853 904.8667954757965 Q501.12325112361543 848.9799637170462 504.7038683408648 793.0931319582958" stroke="#000000" stroke-width="7.625430197367778" fill="none" stroke-linecap="round"/><path d="M504.7038683408648 793.0931319582958 Q552.4669307916116 773.0931319582958 574.2475787895378 793.0931319582958" stroke="#000a00" stroke-width="2.2719854019284216" fill="none" stroke-linecap="round" opacity="0.6"/><path d="M504.7038683408648 793.0931319582958 Q531.249655909815 782.2513825198957 553.3936090848204 811.4096330814958" stroke="#000a00" stroke-width="3.7126624485740116" fill="none" stroke-linecap="round" opacity="0.6"/><path d="M504.7038683408648 793.0931319582958 Q513.7457304879447 778.7370635308343 496.11593133195515 804.3809951033728" stroke="#000a00" stroke-width="2.9703080367693464" fill="none" stroke-linecap="round" opacity="0.6"/><path d="M504.7038683408648 793.0931319582958 Q490.77773612578505 777.2586227439962 447.0389967159863 801.4241135296966" stroke="#000a00" stroke-width="3.6135941822113455" fill="none" stroke-linecap="round" opacity="0.6"/><path d="M504.7038683408648 793.0931319582958 Q489.8265314297762 770.6401538524865 470.74612486062165 788.1871757466772" stroke="#000a00" stroke-width="3.3979896906292972" fill="none" stroke-linecap="round" opacity="0.6"/><path d="M504.7038683408648 793.0931319582958 Q503.86347341957986 761.8756087514431 487.63502520230355 770.6580855445904" stroke="#000a00" stroke-width="3.2745078572245565" fill="none" stroke-linecap="round" opacity="0.6"/><path d="M504.7038683408648 793.0931319582958 Q529.168366296056 764.3805270599883 551.0243387025096 775.6679221616807" stroke="#000a00" stroke-width="3.1970461758778073" fill="none" stroke-linecap="round" opacity="0.6"/><path d="M1490.0533317518546 848.3014746914389 Q1483.0612454523941 771.4216303071989 1481.662828192502 694.541785922959" stroke="#000000" stroke-width="5.985054076180107" fill="none" stroke-linecap="round"/><path d="M1481.662828192502 694.541785922959 Q1512.1225876107633 674.541785922959 1513.4755102841825 694.541785922959" stroke="#000a00" stroke-width="2.1637203307272217" fill="none" stroke-linecap="round" opacity="0.6"/><path d="M1481.662828192502 694.541785922959 Q1511.9209583465433 679.0151882215225 1505.4456234649676 703.4885905200862" stroke="#000a00" stroke-width="3.465441717641764" fill="none" stroke-linecap="round" opacity="0.6"/><path d="M1481.662828192502 694.541785922959 Q1487.0671742280658 680.6491817958598 1472.3696731691223 706.7565776687607" stroke="#000a00" stroke-width="2.130013529241554" fill="none" stroke-linecap="round" opacity="0.6"/><path d="M1481.662828192502 694.541785922959 Q1474.1577180480263 677.2974372242124 1443.5150356021995 700.053088525466" stroke="#000a00" stroke-width="2.412906459163154" fill="none" stroke-linecap="round" opacity="0.6"/><path d="M1481.662828192502 694.541785922959 Q1473.661840761447 671.0461313407973 1433.2708179599363 687.5504767586356" stroke="#000a00" stroke-width="3.2696016731834043" fill="none" stroke-linecap="round" opacity="0.6"/><path d="M1481.662828192502 694.541785922959 Q1478.7020655892143 665.1975225664733 1467.4443806318297 675.8532592099876" stroke="#000a00" stroke-width="3.370322199391742" fill="none" stroke-linecap="round" opacity="0.6"/><path d="M639.7948293387412 965.1931938867069 Q642.8508587607301 891.5754453143048 643.4620646451278 817.9576967419027" stroke="#000000" stroke-width="7.906266021520427" fill="none" stroke-linecap="round"/><path d="M643.4620646451278 817.9576967419027 Q694.7350520323346 797.9576967419027 711.8423487958131 817.9576967419027" stroke="#000a00" stroke-width="3.817419676998961" fill="none" stroke-linecap="round" opacity="0.6"/><path d="M643.4620646451278 817.9576967419027 Q670.7416296658013 803.4543574660299 672.6850023465049 828.9510181901572" stroke="#000a00" stroke-width="2.635765616930035" fill="none" stroke-linecap="round" opacity="0.6"/><path d="M643.4620646451278 817.9576967419027 Q657.5339177787647 805.6019933645362 631.8303258423362 833.2462899871697" stroke="#000a00" stroke-width="2.544863933824204" fill="none" stroke-linecap="round" opacity="0.6"/><path d="M643.4620646451278 817.9576967419027 Q615.3121749393408 802.6214241670468 578.8998660711745 827.285151592191" stroke="#000a00" stroke-width="2.384710761342363" fill="none" stroke-linecap="round" opacity="0.6"/><path d="M643.4620646451278 817.9576967419027 Q638.2037174449092 795.5705356150058 610.415456931346 813.1833744881088" stroke="#000a00" stroke-width="2.3803594825743604" fill="none" stroke-linecap="round" opacity="0.6"/><path d="M643.4620646451278 817.9576967419027 Q642.8461208019796 788.4753592608615 629.0335202983761 798.9930217798204" stroke="#000a00" stroke-width="2.632165359480345" fill="none" stroke-linecap="round" opacity="0.6"/><rect x="0" y="1000" width="1920" height="80" fill="#001700" opacity="0.8"/><line x1="0" y1="1040" x2="1920" y2="1040" stroke="#008000" stroke-opacity="0.15" stroke-width="2" stroke-dasharray="30,20"/><rect x="0" y="930" width="1920" height="150" fill="url(#glow76)"/><rect x="0" y="980" width="1920" height="100" fill="#008000" opacity="0.04"/><rect x="1490.5908321334493" y="1011.4962249601949" width="35.987195031714435" height="2" fill="#38b000" opacity="0.051507300555591315" rx="1"/><rect x="349.78699081339573" y="1054.2401272277907" width="90.48604769410707" height="2" fill="#38b000" opacity="0.02570618563464521" rx="1"/><rect x="1425.3446302156299" y="1027.3337534180223" width="100.38295143758482" height="2" fill="#38b000" opacity="0.0348672765341744" rx="1"/><rect x="952.3308677208449" y="1011.6311786024904" width="42.49085619637995" height="2" fill="#38b000" opacity="0.04651773377007752" rx="1"/><rect x="242.03487535986002" y="1028.1087406231343" width="48.563408001457205" height="2" fill="#38b000" opacity="0.043058589553241294" rx="1"/><rect x="1342.3695179965275" y="1051.3577326041082" width="60.941370986621216" height="2" fill="#38b000" opacity="0.047700754345324996" rx="1"/><rect x="1361.427456606512" y="1050.8831193230308" width="84.30800484128018" height="2" fill="#38b000" opacity="0.047221774996077125" rx="1"/><rect x="768.9861440958889" y="1056.0282870093426" width="51.54757545132832" height="2" fill="#38b000" opacity="0.05114004796164577" rx="1"/><rect x="1437.8611907730487" y="1042.9582512664977" width="86.15672255078255" height="2" fill="#38b000" opacity="0.045305754445797236" rx="1"/><rect x="651.4811152246504" y="1042.757074316674" width="77.19242160143153" height="2" fill="#38b000" opacity="0.032039841444240845" rx="1"/><rect x="9.87271249524148" y="1051.4182730651037" width="30.7275543293747" height="2" fill="#38b000" opacity="0.05585485861540186" rx="1"/><rect x="45.80457733147884" y="1039.8069461481196" width="117.81432454423381" height="2" fill="#38b000" opacity="0.05363899351880862" rx="1"/><rect x="981.9258353910236" y="1059.537607924905" width="31.63558273381451" height="2" fill="#38b000" opacity="0.04121562456274769" rx="1"/><rect x="794.4856365384733" y="1020.9681241775323" width="97.57519424836505" height="2" fill="#38b000" opacity="0.0339799613724416" rx="1"/><rect x="1375.7807456179942" y="1046.0312783359623" width="77.09540184053951" height="2" fill="#38b000" opacity="0.05728067650396393" rx="1"/><rect x="564.5914476934335" y="1034.8236599738764" width="46.62904754435388" height="2" fill="#38b000" opacity="0.04240162168219723" rx="1"/><rect x="1586.2786284802198" y="1034.453027680156" width="64.54104712804337" height="2" fill="#38b000" opacity="0.022276295656868325" rx="1"/><rect x="687.4336835852437" y="1033.286877938846" width="83.89954790098116" height="2" fill="#38b000" opacity="0.044254569435551436" rx="1"/><rect x="70.20976604665857" y="1006.6825395418989" width="29.87301403886476" height="2" fill="#38b000" opacity="0.03482051788243012" rx="1"/><rect x="1503.6561672910248" y="1002.2466038545236" width="101.70054831581669" height="2" fill="#38b000" opacity="0.038730361922348466" rx="1"/><rect x="1305.4508818745264" y="1052.0801497837715" width="76.48074430797266" height="2" fill="#38b000" opacity="0.04329295559397269" rx="1"/><rect x="1828.7541223849994" y="1039.6672497595816" width="99.15068736280098" height="2" fill="#38b000" opacity="0.030735167211558476" rx="1"/><rect x="321.34283609719546" y="1030.2833022154596" width="111.75373397109884" height="2" fill="#38b000" opacity="0.04761292262645739" rx="1"/><rect x="39.28010524233805" y="1024.906533729496" width="99.36042397733787" height="2" fill="#38b000" opacity="0.027220929629919337" rx="1"/><rect x="76.543230879247" y="1059.3879622452398" width="23.437755769919082" height="2" fill="#38b000" opacity="0.028178189836483958" rx="1"/><rect x="531.8144426988006" y="1034.4664074747047" width="81.42047898876959" height="2" fill="#38b000" opacity="0.05400607736641683" rx="1"/><rect x="634.3313993500386" y="1021.9336165631967" width="30.58692168690891" height="2" fill="#38b000" opacity="0.053482791612270014" rx="1"/><rect x="965.2593221527663" y="1056.2217555558825" width="30.827751041117068" height="2" fill="#38b000" opacity="0.024419472609744284" rx="1"/><rect x="292.8543569829441" y="1008.8682185553173" width="101.66464659889803" height="2" fill="#38b000" opacity="0.0323636461916295" rx="1"/><rect x="830.1138113881726" y="1057.0096569687616" width="27.917116630803122" height="2" fill="#38b000" opacity="0.05187878178243496" rx="1"/><text x="1900" y="1060" font-family="Arial, sans-serif" font-size="11" fill="#fff" opacity="0.08" text-anchor="end" letter-spacing="2">GTA 6 REWARDS · WALLPAPER 077</text>
</svg>