<?xml version="1.0" encoding="UTF-8"?>
<svg xmlns="http://www.w3.org/2000/svg" width="1920" height="1080" viewBox="0 0 1920 1080">
<defs>
    <linearGradient id="bg86" x1="0%" y1="0%" x2="0%" y2="100%">
      <stop offset="0%" stop-color="#264653"/>
      <stop offset="50%" stop-color="#001320"/>
      <stop offset="100%" stop-color="#264653"/>
    </linearGradient>
    <linearGradient id="sun86" x1="0%" y1="0%" x2="100%" y2="100%">
      <stop offset="0%" stop-color="#f4a261"/>
      <stop offset="100%" stop-color="#e76f51"/>
    </linearGradient>
    <radialGradient id="glow86" cx="50%" cy="70%" r="50%">
      <stop offset="0%" stop-color="#f4a261" stop-opacity="0.3"/>
      <stop offset="100%" stop-color="#264653" stop-opacity="0"/>
    </radialGradient>
  </defs><rect width="1920" height="1080" fill="url(#bg86)"/><circle cx="1438.2343634819226" cy="509.992428661788" r="845.7307845227725" fill="#f4a261" opacity="0.09577866628434945"/><circle cx="1638.2343634819226" cy="409.992428661788" r="404.65358328182566" fill="#e76f51" opacity="0.082613160357022"/><line x1="0" y1="980" x2="1920" y2="980" stroke="#e76f51" stroke-opacity="0.05" stroke-width="2"/><line x1="0" y1="935" x2="1920" y2="935" stroke="#e76f51" stroke-opacity="0.049" stroke-width="0.5"/><line x1="0" y1="890" x2="1920" y2="890" stroke="#e76f51" stroke-opacity="0.048" stroke-width="0.5"/><line x1="0" y1="845" x2="1920" y2="845" stroke="#e76f51" stroke-opacity="0.047" stroke-width="0.5"/><line x1="0" y1="800" x2="1920" y2="800" stroke="#e76f51" stroke-opacity="0.046" stroke-width="0.5"/><line x1="0" y1="755" x2="1920" y2="755" stroke="#e76f51" stroke-opacity="0.045" stroke-width="0.5"/><line x1="0" y1="710" x2="1920" y2="710" stroke="#e76f51" stroke-opacity="0.044" stroke-width="0.5"/><line x1="0" y1="665" x2="1920" y2="665" stroke="#e76f51" stroke-opacity="0.043" stroke-width="0.5"/><line x1="0" y1="620" x2="1920" y2="620" stroke="#e76f51" stroke-opacity="0.041999999999999996" stroke-width="0.5"/><line x1="0" y1="575" x2="1920" y2="575" stroke="#e76f51" stroke-opacity="0.041" stroke-width="0.5"/><line x1="0" y1="530" x2="1920" y2="530" stroke="#e76f51" stroke-opacity="0.04" stroke-width="0.5"/><line x1="0" y1="485" x2="1920" y2="485" stroke="#e76f51" stroke-opacity="0.039" stroke-width="0.5"/><line x1="0" y1="440" x2="1920" y2="440" stroke="#e76f51" stroke-opacity="0.038" stroke-width="0.5"/><line x1="0" y1="395" x2="1920" y2="395" stroke="#e76f51" stroke-opacity="0.037" stroke-width="0.5"/><line x1="0" y1="350" x2="1920" y2="350" stroke="#e76f51" stroke-opacity="0.036" stroke-width="0.5"/><line x1="0" y1="305" x2="1920" y2="305" stroke="#e76f51" stroke-opacity="0.034999999999999996" stroke-width="0.5"/><line x1="0" y1="260" x2="1920" y2="260" stroke="#e76f51" stroke-opacity="0.033999999999999996" stroke-width="0.5"/><line x1="0" y1="215" x2="1920" y2="215" stroke="#e76f51" stroke-opacity="0.033" stroke-width="0.5"/><line x1="0" y1="170" x2="1920" y2="170" stroke="#e76f51" stroke-opacity="0.032" stroke-width="0.5"/><line x1="0" y1="125" x2="1920" y2="125" stroke="#e76f51" stroke-opacity="0.031" stroke-width="0.5"/><line x1="560" y1="1080" x2="860" y2="580" stroke="#f4a261" stroke-opacity="0.04" stroke-width="1"/><line x1="640" y1="1080" x2="880" y2="590" stroke="#f4a261" stroke-opacity="0.04" stroke-width="1"/><line x1="720" y1="1080" x2="900" y2="600" stroke="#f4a261" stroke-opacity="0.04" stroke-width="1"/><line x1="800" y1="1080" x2="920" y2="610" stroke="#f4a261" stroke-opacity="0.04" stroke-width="1"/><line x1="880" y1="1080" x2="940" y2="620" stroke="#f4a261" stroke-opacity="0.04" stroke-width="1"/><line x1="960" y1="1080" x2="960" y2="630" stroke="#f4a261" stroke-opacity="0.04" stroke-width="1"/><line x1="1040" y1="1080" x2="980" y2="620" stroke="#f4a261" stroke-opacity="0.04" stroke-width="1"/><line x1="1120" y1="1080" x2="1000" y2="610" stroke="#f4a261" stroke-opacity="0.04" stroke-width="1"/><line x1="1200" y1="1080" x2="1020" y2="600" stroke="#f4a261" stroke-opacity="0.04" stroke-width="1"/><line x1="1280" y1="1080" x2="1040" y2="590" stroke="#f4a261" stroke-opacity="0.04" stroke-width="1"/><line x1="1360" y1="1080" x2="1060" y2="580" stroke="#f4a261" stroke-opacity="0.04" stroke-width="1"/><circle cx="1157.5459721632176" cy="373.28916162329006" r="91.3560853319606" fill="url(#sun86)" opacity="0.6001877306029637"/><circle cx="1157.5459721632176" cy="373.28916162329006" r="86.3560853319606" fill="#264653" opacity="0.3"/><circle cx="601.9778753728555" cy="163.17606457024254" r="0.6921627811836457" fill="#fff" opacity="0.5386581333676954"/><circle cx="1390.4929133016833" cy="56.06956553274523" r="1.8302489198581895" fill="#fff" opacity="0.3129567560537152"/><circle cx="1356.5185956835091" cy="322.8038901879461" r="1.1137219232306168" fill="#fff" opacity="0.4327961495688176"/><circle cx="1030.070661993248" cy="75.77848750254569" r="1.702082798164823" fill="#fff" opacity="0.3212963292191961"/><circle cx="443.8836743971062" cy="400.61071842923076" r="1.256061586494572" fill="#fff" opacity="0.43634138503958037"/><circle cx="1404.8221428982965" cy="341.4457506550117" r="1.2531453781419306" fill="#fff" opacity="0.2641553000696365"/><circle cx="299.04524676013864" cy="241.82906162781387" r="1.0855240648578675" fill="#fff" opacity="0.32289669549160094"/><circle cx="832.7843957098164" cy="364.74687321780874" r="1.7926230779366157" fill="#fff" opacity="0.6190054794352049"/><circle cx="477.0626562454418" cy="202.83513160302192" r="0.8735172658631385" fill="#fff" opacity="0.6065654725317298"/><circle cx="181.70909557996995" cy="38.87736678656129" r="1.0381274104672782" fill="#fff" opacity="0.6188229626554118"/><circle cx="339.07449789789376" cy="143.96640191226416" r="1.1836185914426154" fill="#fff" opacity="0.7295549167156115"/><circle cx="1058.7062146744474" cy="91.46939344598664" r="1.0672854245796999" fill="#fff" opacity="0.47276258437725777"/><circle cx="1139.6578634948603" cy="402.63529515700304" r="0.6473342720762207" fill="#fff" opacity="0.40572350574790583"/><circle cx="1792.0764442980467" cy="368.70051310972786" r="0.671015648094708" fill="#fff" opacity="0.6062309461660289"/><circle cx="1290.0915762805594" cy="36.05876801257459" r="1.7639815734615505" fill="#fff" opacity="0.7666606380060921"/><circle cx="1406.932129442443" cy="267.5890160565239" r="1.2931639073167844" fill="#fff" opacity="0.4287888591710452"/><circle cx="35.23077429161192" cy="153.22734494349623" r="0.7169200663261395" fill="#fff" opacity="0.4113280831862539"/><circle cx="479.4398386402614" cy="150.51468192565133" r="0.9348346283507614" fill="#fff" opacity="0.7373435158136634"/><circle cx="1717.085329992018" cy="428.6250183052907" r="1.4108063526011088" fill="#fff" opacity="0.27275995567272415"/><circle cx="1051.878272092873" cy="268.4161284483075" r="1.0794598770047212" fill="#fff" opacity="0.6305941480283146"/><circle cx="60.89580194579805" cy="377.62181887627156" r="1.6669688973731756" fill="#fff" opacity="0.5185907312013653"/><circle cx="699.1737616199939" cy="407.2702573442995" r="1.2778649586899822" fill="#fff" opacity="0.35089404358316545"/><circle cx="317.1845332526566" cy="133.1431973886544" r="1.1874691221601026" fill="#fff" opacity="0.260068287574702"/><circle cx="1774.6015239913486" cy="33.70134607742106" r="1.9241350884372683" fill="#fff" opacity="0.514233758699669"/><circle cx="535.5917256827447" cy="57.5286031834615" r="1.6673758684581554" fill="#fff" opacity="0.5647483375307052"/><circle cx="1646.0198914366822" cy="213.01210014266243" r="0.9030330939923956" fill="#fff" opacity="0.5427218297828739"/><circle cx="1867.5029589113553" cy="339.292434432379" r="0.8310611157983219" fill="#fff" opacity="0.6838517511924382"/><circle cx="1646.2939063567421" cy="223.66119506947257" r="1.195433914590495" fill="#fff" opacity="0.3145909414893461"/><circle cx="177.0093624705936" cy="284.69925185961165" r="0.8374446262227009" fill="#fff" opacity="0.6119198817321844"/><circle cx="1283.9405705043907" cy="115.68911794658963" r="0.8633095987288537" fill="#fff" opacity="0.49634643562518677"/><circle cx="1827.0417152128746" cy="22.09554722674553" r="1.55042762880922" fill="#fff" opacity="0.5284989551940231"/><circle cx="849.00260542729" cy="382.70135237991377" r="1.345111898110507" fill="#fff" opacity="0.2980823036045959"/><circle cx="677.2681047109114" cy="174.06822064101422" r="1.7691096406823745" fill="#fff" opacity="0.764955323740131"/><circle cx="1378.7829917899294" cy="424.0631861779986" r="1.5336381452003582" fill="#fff" opacity="0.3978132862126951"/><circle cx="1448.909088561523" cy="417.51804314216554" r="0.6921423101313744" fill="#fff" opacity="0.6893853875550873"/><circle cx="302.0072870659659" cy="193.27181624278236" r="0.8250823168375255" fill="#fff" opacity="0.5857755375992915"/><circle cx="941.7592225181309" cy="94.74943248525946" r="1.4373121883108542" fill="#fff" opacity="0.4679129099165818"/><circle cx="417.91701311662723" cy="391.78096346365777" r="0.658517167358314" fill="#fff" opacity="0.39629458901386116"/><circle cx="239.47827106329572" cy="221.23272795538247" r="0.5066906383742323" fill="#fff" opacity="0.651369387808109"/><circle cx="914.2885067207479" cy="366.52481529454815" r="1.3046376235561068" fill="#fff" opacity="0.657928920224758"/><circle cx="125.74155765719281" cy="131.3056443900116" r="1.332249873278721" fill="#fff" opacity="0.29034674071947736"/><circle cx="1321.9821912147995" cy="339.36301471743803" r="0.6290463772902839" fill="#fff" opacity="0.6584219624890066"/><circle cx="632.1559534948683" cy="430.0670143063336" r="1.103887517262224" fill="#fff" opacity="0.47545186785875165"/><circle cx="287.59587145587335" cy="133.34563493480573" r="1.1618063291911516" fill="#fff" opacity="0.4098364674974784"/><circle cx="1465.2487934067026" cy="256.82890181635247" r="1.2122988992399302" fill="#fff" opacity="0.4986124200044694"/><circle cx="1651.644340244039" cy="178.2684604828871" r="1.5029066917493257" fill="#fff" opacity="0.613478120419541"/><circle cx="1452.3363745613808" cy="134.49872091563853" r="1.1631387256000048" fill="#fff" opacity="0.502562665683814"/><circle cx="1779.8621298046462" cy="191.42068184526187" r="1.9920937453843872" fill="#fff" opacity="0.4158709491174367"/><circle cx="801.7823984105564" cy="289.5937655460075" r="1.320663611479258" fill="#fff" opacity="0.679083827808286"/><circle cx="1658.4799892591498" cy="5.012529944305432" r="1.1909872664117689" fill="#fff" opacity="0.7845137718563233"/><circle cx="102.86907883893444" cy="34.361154608978225" r="0.6142268417436226" fill="#fff" opacity="0.4428757011990239"/><circle cx="1292.8748191923078" cy="332.3369145235831" r="0.7119999366607517" fill="#fff" opacity="0.2600114037888151"/><circle cx="1527.0297104695417" cy="111.21372671034506" r="1.5351670155150738" fill="#fff" opacity="0.6678176737548358"/><circle cx="1778.5101060239854" cy="311.0390753017364" r="1.3002855829662376" fill="#fff" opacity="0.3644841648089896"/><circle cx="844.58186944122" cy="98.20640317401998" r="1.7953119400877766" fill="#fff" opacity="0.30236846299431486"/><circle cx="1274.1611032174344" cy="231.16310097071417" r="0.6604749686458322" fill="#fff" opacity="0.5725129080872314"/><circle cx="1030.0037529482515" cy="327.7827353421093" r="1.915815224618608" fill="#fff" opacity="0.7549443886044771"/><circle cx="1270.0117258704295" cy="197.64369456228886" r="1.2593031247982995" fill="#fff" opacity="0.7704418515717708"/><circle cx="660.1057820068919" cy="394.9787102516225" r="1.2651470959571067" fill="#fff" opacity="0.6727157152892825"/><circle cx="1735.5530024635498" cy="229.18570735053757" r="1.3296580068603294" fill="#fff" opacity="0.7811544050884327"/><circle cx="1523.8971429141" cy="11.111746611798123" r="1.2365489402405334" fill="#fff" opacity="0.7395020816334295"/><rect x="6.356438860845854" y="573.9361205659658" width="67.0508687330994" height="351.6294439676286" fill="#0c2c39" opacity="0.41214875413853413" rx="2"/><rect x="33.955095071102285" y="583.9361205659658" width="11.853556312586544" height="9.952347615722648" fill="#e76f51" opacity="0.1695164727674603" rx="1"/><rect x="17.192377887827433" y="588.9122943738271" width="11.853556312586544" height="9.952347615722648" fill="#f4a261" opacity="0.08475823638373015" rx="1"/><rect x="36.839666472244936" y="634.168898275627" width="6.084413510301246" height="8.161756059658192" fill="#e76f51" opacity="0.4862526411857113" rx="1"/><rect x="20.076949288970084" y="638.2497763054562" width="6.084413510301246" height="8.161756059658192" fill="#f4a261" opacity="0.24312632059285566" rx="1"/><rect x="37.7431646284515" y="684.4016759852882" width="4.2774171978881155" height="9.366799656154308" fill="#e76f51" opacity="0.19039645830411384" rx="1"/><rect x="20.98044744517665" y="689.0850758133654" width="4.2774171978881155" height="9.366799656154308" fill="#f4a261" opacity="0.09519822915205692" rx="1"/><rect x="35.86121221465553" y="734.6344536949495" width="8.041322025480056" height="7.110400536356122" fill="#e76f51" opacity="0.46141405484206366" rx="1"/><rect x="19.09849503138068" y="738.1896539631275" width="8.041322025480056" height="7.110400536356122" fill="#f4a261" opacity="0.23070702742103183" rx="1"/><rect x="34.53789767425925" y="784.8672314046107" width="10.687951106272626" height="6.6589847189977265" fill="#e76f51" opacity="0.3490195575517182" rx="1"/><rect x="17.775180490984393" y="788.1967237641096" width="10.687951106272626" height="6.6589847189977265" fill="#f4a261" opacity="0.1745097787758591" rx="1"/><rect x="36.90858834188166" y="835.1000091142719" width="5.946569771027791" height="9.175373175920772" fill="#e76f51" opacity="0.25126196030789566" rx="1"/><rect x="20.145871158606813" y="839.6876957022323" width="5.946569771027791" height="9.175373175920772" fill="#f4a261" opacity="0.12563098015394783" rx="1"/><rect x="35.93697686328949" y="885.3327868239331" width="7.889792728212148" height="8.726205350534572" fill="#e76f51" opacity="0.18742650320926368" rx="1"/><rect x="19.174259680014632" y="889.6958894992005" width="7.889792728212148" height="8.726205350534572" fill="#f4a261" opacity="0.09371325160463184" rx="1"/><rect x="146.5056780880563" y="556.746291207789" width="45.7099392674188" height="368.8192733258054" fill="#0c2c39" opacity="0.6500381126185036" rx="2"/><rect x="163.5219945270852" y="566.746291207789" width="11.677306389360993" height="6.291066956774114" fill="#e76f51" opacity="0.3653203021654208" rx="1"/><rect x="152.0945097102305" y="569.891824686176" width="11.677306389360993" height="6.291066956774114" fill="#f4a261" opacity="0.1826601510827104" rx="1"/><rect x="166.5510541818922" y="689.6860489830575" width="5.619187079747018" height="9.108102481604577" fill="#e76f51" opacity="0.11917755173500105" rx="1"/><rect x="155.1235693650375" y="694.2401002238598" width="5.619187079747018" height="9.108102481604577" fill="#f4a261" opacity="0.059588775867500526" rx="1"/><rect x="163.86549878000875" y="812.6258067583259" width="10.990297883513918" height="6.296625642175001" fill="#e76f51" opacity="0.327051670599508" rx="1"/><rect x="152.43801396315405" y="815.7741195794134" width="10.990297883513918" height="6.296625642175001" fill="#f4a261" opacity="0.163525835299754" rx="1"/><rect x="268.8689589707341" y="607.4093493766638" width="76.80312345894126" height="318.15621515693056" fill="#0c2c39" opacity="0.6034864739290174" rx="2"/><rect x="303.3750744597928" y="617.4093493766638" width="7.790892480823885" height="7.33094028135085" fill="#e76f51" opacity="0.14293399468132623" rx="1"/><rect x="284.17429359505746" y="621.0748195173393" width="7.790892480823885" height="7.33094028135085" fill="#f4a261" opacity="0.07146699734066311" rx="1"/><rect x="301.34541954573837" y="657.1788762712802" width="11.850202308932833" height="8.654744431994564" fill="#e76f51" opacity="0.25505028554588793" rx="1"/><rect x="282.144638681003" y="661.5062484872774" width="11.850202308932833" height="8.654744431994564" fill="#f4a261" opacity="0.12752514277294397" rx="1"/><rect x="304.94528347159394" y="696.9484031658965" width="4.650474457221682" height="9.720817923480835" fill="#e76f51" opacity="0.26009661908263726" rx="1"/><rect x="285.7445026068586" y="701.8088121276369" width="4.650474457221682" height="9.720817923480835" fill="#f4a261" opacity="0.13004830954131863" rx="1"/><rect x="304.70719123904297" y="736.7179300605128" width="5.126658922323645" height="9.577696687443577" fill="#e76f51" opacity="0.4550755043642306" rx="1"/><rect x="285.5064103743076" y="741.5067784042346" width="5.126658922323645" height="9.577696687443577" fill="#f4a261" opacity="0.2275377521821153" rx="1"/><rect x="304.0581223264006" y="776.4874569551291" width="6.424796747608296" height="9.970626900897042" fill="#e76f51" opacity="0.3134873479868955" rx="1"/><rect x="284.85734146166527" y="781.4727704055776" width="6.424796747608296" height="9.970626900897042" fill="#f4a261" opacity="0.15674367399344774" rx="1"/><rect x="304.7820234074681" y="816.2569838497454" width="4.976994585473322" height="9.918446684237209" fill="#e76f51" opacity="0.45111628818584515" rx="1"/><rect x="285.58124254273275" y="821.216207191864" width="4.976994585473322" height="9.918446684237209" fill="#f4a261" opacity="0.22555814409292257" rx="1"/><rect x="303.4405860347768" y="856.0265107443618" width="7.6598693308559875" height="8.531068483956872" fill="#e76f51" opacity="0.42720350342039104" rx="1"/><rect x="284.23980517004145" y="860.2920449863402" width="7.6598693308559875" height="8.531068483956872" fill="#f4a261" opacity="0.21360175171019552" rx="1"/><rect x="301.391882770786" y="895.7960376389781" width="11.757275858837478" height="6.838029467695865" fill="#e76f51" opacity="0.4358132901684878" rx="1"/><rect x="282.1911019060507" y="899.215052372826" width="11.757275858837478" height="6.838029467695865" fill="#f4a261" opacity="0.2179066450842439" rx="1"/><rect x="369.5759253761675" y="715.5379494804745" width="70.89734800180824" height="210.02761505311997" fill="#0c2c39" opacity="0.6875445970072283" rx="2"/><rect x="399.9858221767903" y="725.5379494804745" width="10.07755440056267" height="9.887389484766729" fill="#e76f51" opacity="0.3627520712005794" rx="1"/><rect x="382.2614851763382" y="730.4816442228579" width="10.07755440056267" height="9.887389484766729" fill="#f4a261" opacity="0.1813760356002897" rx="1"/><rect x="399.1137695899498" y="795.5471544981812" width="11.821659574243625" height="7.720217122165536" fill="#e76f51" opacity="0.5216019243285065" rx="1"/><rect x="381.38943258949774" y="799.4072630592639" width="11.821659574243625" height="7.720217122165536" fill="#f4a261" opacity="0.26080096216425325" rx="1"/><rect x="400.07799507702657" y="865.5563595158878" width="9.893208600090166" height="9.837028452157282" fill="#e76f51" opacity="0.48480580013357244" rx="1"/><rect x="382.3536580765745" y="870.4748737419665" width="9.893208600090166" height="9.837028452157282" fill="#f4a261" opacity="0.24240290006678622" rx="1"/><rect x="497.3266535199542" y="785.7727334685094" width="68.17414846228765" height="139.79283106508498" fill="#264653" opacity="0.6481236870512654" rx="2"/><rect x="526.1144325614707" y="795.7727334685094" width="10.598590379254563" height="9.935156226143045" fill="#e76f51" opacity="0.31618202368639925" rx="1"/><rect x="509.0708954458988" y="800.740311581581" width="10.598590379254563" height="9.935156226143045" fill="#f4a261" opacity="0.15809101184319962" rx="1"/><rect x="529.2453556322132" y="842.3703438235377" width="4.336744237769569" height="7.623861486470295" fill="#e76f51" opacity="0.41978114073159667" rx="1"/><rect x="512.2018185166413" y="846.1822745667729" width="4.336744237769569" height="7.623861486470295" fill="#f4a261" opacity="0.20989057036579833" rx="1"/><rect x="528.1366624196844" y="888.9679541785661" width="6.554130662827317" height="8.910745140842801" fill="#e76f51" opacity="0.49602679232974234" rx="1"/><rect x="511.09312530411245" y="893.4233267489875" width="6.554130662827317" height="8.910745140842801" fill="#f4a261" opacity="0.24801339616487117" rx="1"/><rect x="613.1097573584667" y="570.2158413408827" width="43.41709488383893" height="355.34972319271174" fill="#0c2c39" opacity="0.6028313436086363" rx="2"/><rect x="631.863175841715" y="580.2158413408827" width="5.910257917342302" height="9.681549620740476" fill="#e76f51" opacity="0.19460385658186952" rx="1"/><rect x="621.0089021207554" y="585.0566161512529" width="5.910257917342302" height="9.681549620740476" fill="#f4a261" opacity="0.09730192829093476" rx="1"/><rect x="628.8606416321967" y="624.6345567399717" width="11.915326336379007" height="7.804402275431063" fill="#e76f51" opacity="0.10969739048967543" rx="1"/><rect x="618.006367911237" y="628.5367578776873" width="11.915326336379007" height="7.804402275431063" fill="#f4a261" opacity="0.054848695244837715" rx="1"/><rect x="631.3931889362617" y="669.0532721390606" width="6.850231728248818" height="9.972916351624978" fill="#e76f51" opacity="0.4152287455311112" rx="1"/><rect x="620.538915215302" y="674.039730314873" width="6.850231728248818" height="9.972916351624978" fill="#f4a261" opacity="0.2076143727655556" rx="1"/><rect x="631.3277627691458" y="713.4719875381495" width="6.981084062480621" height="8.220019600871023" fill="#e76f51" opacity="0.4016430044783379" rx="1"/><rect x="620.4734890481861" y="717.581997338585" width="6.981084062480621" height="8.220019600871023" fill="#f4a261" opacity="0.20082150223916895" rx="1"/><rect x="629.6886051811018" y="757.8907029372385" width="10.25939923856859" height="6.521918464573547" fill="#e76f51" opacity="0.15792749336872425" rx="1"/><rect x="618.8343314601422" y="761.1516621695253" width="10.25939923856859" height="6.521918464573547" fill="#f4a261" opacity="0.07896374668436212" rx="1"/><rect x="628.9127298285981" y="802.3094183363276" width="11.811149943575996" height="9.576144715672392" fill="#e76f51" opacity="0.41060811686576537" rx="1"/><rect x="618.0584561076384" y="807.0974906941638" width="11.811149943575996" height="9.576144715672392" fill="#f4a261" opacity="0.20530405843288269" rx="1"/><rect x="630.5132895832679" y="846.7281337354165" width="8.610030434236403" height="7.40658467668262" fill="#e76f51" opacity="0.5320579668115959" rx="1"/><rect x="619.6590158623083" y="850.4314260737577" width="8.610030434236403" height="7.40658467668262" fill="#f4a261" opacity="0.26602898340579795" rx="1"/><rect x="632.7885781609892" y="891.1468491345054" width="4.059453278793826" height="7.36270298840541" fill="#e76f51" opacity="0.14248061788791805" rx="1"/><rect x="621.9343044400296" y="894.828200628708" width="4.059453278793826" height="7.36270298840541" fill="#f4a261" opacity="0.07124030894395902" rx="1"/><rect x="725.5480339996395" y="610.7972185967483" width="30.869674491898547" height="314.7683459368461" fill="#264653" opacity="0.43332988764935404" rx="2"/><rect x="736.4462814483434" y="620.7972185967483" width="9.073179594490952" height="7.158962844209504" fill="#e76f51" opacity="0.1758083483846412" rx="1"/><rect x="728.7288628253687" y="624.3767000188531" width="9.073179594490952" height="7.158962844209504" fill="#f4a261" opacity="0.0879041741923206" rx="1"/><rect x="736.0241053972915" y="660.1432618388541" width="9.917531696594676" height="8.43788217716801" fill="#e76f51" opacity="0.5224834425660044" rx="1"/><rect x="728.3066867743167" y="664.362202927438" width="9.917531696594676" height="8.43788217716801" fill="#f4a261" opacity="0.2612417212830022" rx="1"/><rect x="737.0837366967658" y="699.4893050809599" width="7.798269097646296" height="9.174737511941869" fill="#e76f51" opacity="0.21061391225331788" rx="1"/><rect x="729.366318073791" y="704.0766738369308" width="7.798269097646296" height="9.174737511941869" fill="#f4a261" opacity="0.10530695612665894" rx="1"/><rect x="738.1715426424452" y="738.8353483230655" width="5.622657206287295" height="7.299382917885525" fill="#e76f51" opacity="0.13882053448791162" rx="1"/><rect x="730.4541240194704" y="742.4850397820084" width="5.622657206287295" height="7.299382917885525" fill="#f4a261" opacity="0.06941026724395581" rx="1"/><rect x="736.6645805336685" y="778.1813915651713" width="8.63658142384062" height="8.878818174563072" fill="#e76f51" opacity="0.5513191203473413" rx="1"/><rect x="728.9471619106938" y="782.6208006524529" width="8.63658142384062" height="8.878818174563072" fill="#f4a261" opacity="0.27565956017367066" rx="1"/><rect x="738.5122357726824" y="817.5274348072771" width="4.941270945812871" height="9.676864392980203" fill="#e76f51" opacity="0.4779811592255675" rx="1"/><rect x="730.7948171497077" y="822.3658670037672" width="4.941270945812871" height="9.676864392980203" fill="#f4a261" opacity="0.23899057961278375" rx="1"/><rect x="738.7422319230955" y="856.8734780493828" width="4.481278644986748" height="9.635343535718356" fill="#e76f51" opacity="0.4050767255027492" rx="1"/><rect x="731.0248133001207" y="861.691149817242" width="4.481278644986748" height="9.635343535718356" fill="#f4a261" opacity="0.2025383627513746" rx="1"/><rect x="735.2921847282657" y="896.2195212914886" width="11.381373034646124" height="7.071290252979679" fill="#e76f51" opacity="0.45243884924623157" rx="1"/><rect x="727.574766105291" y="899.7551664179784" width="11.381373034646124" height="7.071290252979679" fill="#f4a261" opacity="0.22621942462311578" rx="1"/><rect x="864.6955350261869" y="588.436660435618" width="59.415344071904045" height="337.1289040979764" fill="#0c2c39" opacity="0.44011468678715515" rx="2"/><rect x="888.6687880348574" y="598.436660435618" width="11.468838054563115" height="8.492757755912086" fill="#e76f51" opacity="0.10746887363667341" rx="1"/><rect x="873.8149520168814" y="602.6830393135741" width="11.468838054563115" height="8.492757755912086" fill="#f4a261" opacity="0.05373443681833671" rx="1"/><rect x="891.8985765233865" y="646.5979324496146" width="5.009261077504899" height="7.3528656711226485" fill="#e76f51" opacity="0.12441849199226557" rx="1"/><rect x="877.0447405054106" y="650.2743652851759" width="5.009261077504899" height="7.3528656711226485" fill="#f4a261" opacity="0.062209245996132784" rx="1"/><rect x="890.4792341802919" y="694.7592044636112" width="7.84794576369411" height="8.115999774568714" fill="#e76f51" opacity="0.35988099276085406" rx="1"/><rect x="875.625398162316" y="698.8172043508956" width="7.84794576369411" height="8.115999774568714" fill="#f4a261" opacity="0.17994049638042703" rx="1"/><rect x="892.1494205419787" y="742.920476477608" width="4.507573040320438" height="8.44543978908226" fill="#e76f51" opacity="0.25226172659365964" rx="1"/><rect x="877.2955845240027" y="747.1431963721491" width="4.507573040320438" height="8.44543978908226" fill="#f4a261" opacity="0.12613086329682982" rx="1"/><rect x="889.7645502543925" y="791.0817484916045" width="9.27731361549285" height="8.400722108408978" fill="#e76f51" opacity="0.30527725729748545" rx="1"/><rect x="874.9107142364165" y="795.2821095458089" width="9.27731361549285" height="8.400722108408978" fill="#f4a261" opacity="0.15263862864874272" rx="1"/><rect x="889.4824319403809" y="839.2430205056012" width="9.841550243515883" height="6.321994711719918" fill="#e76f51" opacity="0.505180648994907" rx="1"/><rect x="874.628595922405" y="842.4040178614612" width="9.841550243515883" height="6.321994711719918" fill="#f4a261" opacity="0.2525903244974535" rx="1"/><rect x="889.8320096979922" y="887.4042925195978" width="9.142394728293269" height="6.867739956096686" fill="#e76f51" opacity="0.35315307377678185" rx="1"/><rect x="874.9781736800163" y="890.8381624976462" width="9.142394728293269" height="6.867739956096686" fill="#f4a261" opacity="0.17657653688839092" rx="1"/><rect x="987.8702908237162" y="739.730795726583" width="42.39781047506207" height="185.83476880701136" fill="#0c2c39" opacity="0.5038300876747421" rx="2"/><rect x="1006.5962601014403" y="749.730795726583" width="4.945871919613768" height="6.276213713985918" fill="#e76f51" opacity="0.23229308641336233" rx="1"/><rect x="995.9968074826749" y="752.868902583576" width="4.945871919613768" height="6.276213713985918" fill="#f4a261" opacity="0.11614654320668116" rx="1"/><rect x="1006.0716993862463" y="796.1894879283358" width="5.994993350001749" height="8.168810356913323" fill="#e76f51" opacity="0.511313841913667" rx="1"/><rect x="995.4722467674809" y="800.2738931067925" width="5.994993350001749" height="8.168810356913323" fill="#f4a261" opacity="0.2556569209568335" rx="1"/><rect x="1004.2993409096493" y="842.6481801300887" width="9.539710303195685" height="9.800582276610793" fill="#e76f51" opacity="0.5627784183162214" rx="1"/><rect x="993.6998882908839" y="847.5484712683941" width="9.539710303195685" height="9.800582276610793" fill="#f4a261" opacity="0.2813892091581107" rx="1"/><rect x="1004.8381042149472" y="889.1068723318415" width="8.462183692600156" height="8.209778626032588" fill="#e76f51" opacity="0.26940339588779105" rx="1"/><rect x="994.2386515961817" y="893.2117616448578" width="8.462183692600156" height="8.209778626032588" fill="#f4a261" opacity="0.13470169794389553" rx="1"/><rect x="1100.6003073301633" y="763.878985986551" width="45.88763332364327" height="161.68657854704338" fill="#264653" opacity="0.4979387508001967" rx="2"/><rect x="1121.2507550973098" y="773.878985986551" width="4.586737789350268" height="8.150297995226062" fill="#e76f51" opacity="0.42745972399773535" rx="1"/><rect x="1109.778846766399" y="777.954134984164" width="4.586737789350268" height="8.150297995226062" fill="#f4a261" opacity="0.21372986199886768" rx="1"/><rect x="1120.211715697593" y="814.3006306233119" width="6.664816588783827" height="9.987183100540932" fill="#e76f51" opacity="0.5408444922745331" rx="1"/><rect x="1108.7398073666823" y="819.2942221735824" width="6.664816588783827" height="9.987183100540932" fill="#f4a261" opacity="0.27042224613726656" rx="1"/><rect x="1121.0436922903275" y="854.7222752600727" width="5.000863403314925" height="9.028762574081487" fill="#e76f51" opacity="0.5047760949248392" rx="1"/><rect x="1109.5717839594167" y="859.2366565471134" width="5.000863403314925" height="9.028762574081487" fill="#f4a261" opacity="0.2523880474624196" rx="1"/><rect x="1118.7271192017306" y="895.1439198968335" width="9.634009580508343" height="6.326442866662155" fill="#e76f51" opacity="0.5346619965356454" rx="1"/><rect x="1107.2552108708198" y="898.3071413301645" width="9.634009580508343" height="6.326442866662155" fill="#f4a261" opacity="0.2673309982678227" rx="1"/><rect x="1218.3708206630245" y="634.3390503163307" width="61.572073710051384" height="291.2265142172637" fill="#264653" opacity="0.6362845086577079" rx="2"/><rect x="1245.8592857618023" y="644.3390503163307" width="6.595143512495595" height="6.504291824182563" fill="#e76f51" opacity="0.47349952475016466" rx="1"/><rect x="1230.4662673342893" y="647.591196228422" width="6.595143512495595" height="6.504291824182563" fill="#f4a261" opacity="0.23674976237508233" rx="1"/><rect x="1243.557291712276" y="717.1456788706466" width="11.199131611548161" height="8.311350905874594" fill="#e76f51" opacity="0.13914937773699626" rx="1"/><rect x="1228.164273284763" y="721.301354323584" width="11.199131611548161" height="8.311350905874594" fill="#f4a261" opacity="0.06957468886849813" rx="1"/><rect x="1243.2543598940258" y="789.9523074249626" width="11.804995248048797" height="6.544240660160836" fill="#e76f51" opacity="0.22300142485718277" rx="1"/><rect x="1227.8613414665128" y="793.2244277550429" width="11.804995248048797" height="6.544240660160836" fill="#f4a261" opacity="0.11150071242859139" rx="1"/><rect x="1245.359814708205" y="862.7589359792785" width="7.594085619690382" height="6.298023087973246" fill="#e76f51" opacity="0.26769571163870765" rx="1"/><rect x="1229.966796280692" y="865.9079475232651" width="7.594085619690382" height="6.298023087973246" fill="#f4a261" opacity="0.13384785581935382" rx="1"/><rect x="1333.3864043567764" y="759.4632374144771" width="88.24689812917424" height="166.1023271191172" fill="#264653" opacity="0.48134109738314085" rx="2"/><rect x="1372.298496942804" y="769.4632374144771" width="10.42271295711927" height="9.639925016006437" fill="#e76f51" opacity="0.4633855142079726" rx="1"/><rect x="1350.2367724105104" y="774.2831999224803" width="10.42271295711927" height="9.639925016006437" fill="#f4a261" opacity="0.2316927571039863" rx="1"/><rect x="1372.118500771727" y="797.1469586009966" width="10.78270529927283" height="9.262418139554192" fill="#e76f51" opacity="0.1736509346341833" rx="1"/><rect x="1350.0567762394335" y="801.7781676707738" width="10.78270529927283" height="9.262418139554192" fill="#f4a261" opacity="0.08682546731709165" rx="1"/><rect x="1372.8988094730066" y="824.8306797875161" width="9.222087896713543" height="6.693845230316241" fill="#e76f51" opacity="0.4953385696269894" rx="1"/><rect x="1350.837084940713" y="828.1776024026742" width="9.222087896713543" height="6.693845230316241" fill="#f4a261" opacity="0.2476692848134947" rx="1"/><rect x="1371.5408110615194" y="852.5144009740358" width="11.938084719688185" height="8.768065694432721" fill="#e76f51" opacity="0.18041051614107811" rx="1"/><rect x="1349.479086529226" y="856.8984338212522" width="11.938084719688185" height="8.768065694432721" fill="#f4a261" opacity="0.09020525807053906" rx="1"/><rect x="1373.8222664270602" y="880.1981221605553" width="7.375173988606589" height="8.176876416936722" fill="#e76f51" opacity="0.32554212988483305" rx="1"/><rect x="1351.7605418947667" y="884.2865603690236" width="7.375173988606589" height="8.176876416936722" fill="#f4a261" opacity="0.16277106494241653" rx="1"/><rect x="1372.3941452734625" y="907.8818433470748" width="10.231416295802084" height="8.143631429910574" fill="#e76f51" opacity="0.3457690467698893" rx="1"/><rect x="1350.332420741169" y="911.95365906203" width="10.231416295802084" height="8.143631429910574" fill="#f4a261" opacity="0.17288452338494464" rx="1"/><rect x="1458.0306579074893" y="747.9633933859792" width="48.51944596472183" height="177.60217114761522" fill="#264653" opacity="0.4535657624373133" rx="2"/><rect x="1479.0331321377384" y="757.9633933859792" width="6.514497504223719" height="6.672204997547018" fill="#e76f51" opacity="0.22459030692106818" rx="1"/><rect x="1466.903270646558" y="761.2994958847527" width="6.514497504223719" height="6.672204997547018" fill="#f4a261" opacity="0.11229515346053409" rx="1"/><rect x="1477.881603643969" y="783.3351321213528" width="8.817554491762433" height="6.4826115147403005" fill="#e76f51" opacity="0.23425273579411507" rx="1"/><rect x="1465.7517421527884" y="786.5764378787229" width="8.817554491762433" height="6.4826115147403005" fill="#f4a261" opacity="0.11712636789705753" rx="1"/><rect x="1476.9940436906168" y="808.7068708567264" width="10.592674398467102" height="8.409705035949523" fill="#e76f51" opacity="0.39753232253657944" rx="1"/><rect x="1464.8641821994363" y="812.9117233747012" width="10.592674398467102" height="8.409705035949523" fill="#f4a261" opacity="0.19876616126828972" rx="1"/><rect x="1477.333159434221" y="834.0786095921001" width="9.914442911258536" height="6.723316789773134" fill="#e76f51" opacity="0.47169137396190586" rx="1"/><rect x="1465.2032979430405" y="837.4402679869867" width="9.914442911258536" height="6.723316789773134" fill="#f4a261" opacity="0.23584568698095293" rx="1"/><rect x="1478.1890123074847" y="859.4503483274736" width="8.202737164730843" height="7.360596566777815" fill="#e76f51" opacity="0.4341230775309082" rx="1"/><rect x="1466.0591508163043" y="863.1306466108625" width="8.202737164730843" height="7.360596566777815" fill="#f4a261" opacity="0.2170615387654541" rx="1"/><rect x="1480.2679342798115" y="884.8220870628472" width="4.044893220077476" height="6.633364302253669" fill="#e76f51" opacity="0.5198676030896295" rx="1"/><rect x="1468.138072788631" y="888.1387692139741" width="4.044893220077476" height="6.633364302253669" fill="#f4a261" opacity="0.25993380154481477" rx="1"/><rect x="1477.9658121948517" y="910.1938257982208" width="8.649137389997286" height="6.08969492467346" fill="#e76f51" opacity="0.31457994280256796" rx="1"/><rect x="1465.8359507036712" y="913.2386732605576" width="8.649137389997286" height="6.08969492467346" fill="#f4a261" opacity="0.15728997140128398" rx="1"/><rect x="1586.9135965446276" y="591.4690529325671" width="68.11868452888882" height="334.0965116010272" fill="#264653" opacity="0.6920370529154403" rx="2"/><rect x="1615.334688550405" y="601.4690529325671" width="11.276500517333975" height="9.633154541168631" fill="#e76f51" opacity="0.4598066613450197" rx="1"/><rect x="1598.3050174181826" y="606.2856302031514" width="11.276500517333975" height="9.633154541168631" fill="#f4a261" opacity="0.22990333067250984" rx="1"/><rect x="1616.4866172632871" y="649.1971260184282" width="8.972643091569804" height="8.79596013734023" fill="#e76f51" opacity="0.46182973973029984" rx="1"/><rect x="1599.4569461310648" y="653.5951060870983" width="8.972643091569804" height="8.79596013734023" fill="#f4a261" opacity="0.23091486986514992" rx="1"/><rect x="1615.5126900380742" y="696.9251991042892" width="10.920497541995836" height="8.710632431020642" fill="#e76f51" opacity="0.4086252396015043" rx="1"/><rect x="1598.4830189058518" y="701.2805153197995" width="10.920497541995836" height="8.710632431020642" fill="#f4a261" opacity="0.20431261980075216" rx="1"/><rect x="1617.9017968440667" y="744.6532721901502" width="6.142283930010694" height="6.24684980238016" fill="#e76f51" opacity="0.34984003585992385" rx="1"/><rect x="1600.8721257118443" y="747.7766970913403" width="6.142283930010694" height="6.24684980238016" fill="#f4a261" opacity="0.17492001792996192" rx="1"/><rect x="1616.5619040586898" y="792.3813452760112" width="8.822069500764382" height="7.131288829522973" fill="#e76f51" opacity="0.1021326151914272" rx="1"/><rect x="1599.5322329264675" y="795.9469896907726" width="8.822069500764382" height="7.131288829522973" fill="#f4a261" opacity="0.0510663075957136" rx="1"/><rect x="1617.9343979491236" y="840.1094183618723" width="6.0770817198970075" height="7.033606542515011" fill="#e76f51" opacity="0.24820978060555873" rx="1"/><rect x="1600.9047268169013" y="843.6262216331297" width="6.0770817198970075" height="7.033606542515011" fill="#f4a261" opacity="0.12410489030277937" rx="1"/><rect x="1615.6295392416953" y="887.8374914477333" width="10.686799134753365" height="7.083856243892539" fill="#e76f51" opacity="0.5885460319902157" rx="1"/><rect x="1598.599868109473" y="891.3794195696796" width="10.686799134753365" height="7.083856243892539" fill="#f4a261" opacity="0.29427301599510786" rx="1"/><rect x="1694.3599403100927" y="587.2485504572392" width="82.85530310423471" height="338.3170140763552" fill="#0c2c39" opacity="0.6604820113304262" rx="2"/><rect x="1731.0337054329073" y="597.2485504572392" width="9.507772858605668" height="8.865832077075222" fill="#e76f51" opacity="0.24342344427561002" rx="1"/><rect x="1710.3198796568486" y="601.6814664957768" width="9.507772858605668" height="8.865832077075222" fill="#f4a261" opacity="0.12171172213780501" rx="1"/><rect x="1732.0016419340395" y="710.0208884826909" width="7.571899856341048" height="9.998948089778178" fill="#e76f51" opacity="0.1351983037626367" rx="1"/><rect x="1711.2878161579808" y="715.02036252758" width="7.571899856341048" height="9.998948089778178" fill="#f4a261" opacity="0.06759915188131835" rx="1"/><rect x="1730.5359922460132" y="822.7932265081427" width="10.50319923239369" height="7.22163542109114" fill="#e76f51" opacity="0.4013585345589925" rx="1"/><rect x="1709.8221664699545" y="826.4040442186882" width="10.50319923239369" height="7.22163542109114" fill="#f4a261" opacity="0.20067926727949625" rx="1"/><rect x="1801.7465008496647" y="778.2688671323165" width="57.777490855142815" height="147.29669740127787" fill="#264653" opacity="0.6339346952582557" rx="2"/><rect x="1825.4045990180234" y="788.2688671323165" width="10.461294518425431" height="9.568994653310858" fill="#e76f51" opacity="0.35018835888481425" rx="1"/><rect x="1810.9602263042377" y="793.0533644589719" width="10.461294518425431" height="9.568994653310858" fill="#f4a261" opacity="0.17509417944240713" rx="1"/><rect x="1828.3591177289743" y="825.093041482636" width="4.552257096523479" height="7.374668060190666" fill="#e76f51" opacity="0.5174356944666793" rx="1"/><rect x="1813.9147450151886" y="828.7803755127313" width="4.552257096523479" height="7.374668060190666" fill="#f4a261" opacity="0.2587178472333396" rx="1"/><rect x="1824.7301031774211" y="861.9172158329554" width="11.81028619962984" height="9.686884137728923" fill="#e76f51" opacity="0.2492578530798801" rx="1"/><rect x="1810.2857304636354" y="866.7606579018199" width="11.81028619962984" height="9.686884137728923" fill="#f4a261" opacity="0.12462892653994005" rx="1"/><rect x="1827.697266088961" y="898.7413901832749" width="5.8759603765504345" height="8.715154466851418" fill="#e76f51" opacity="0.5273203975584638" rx="1"/><rect x="1813.2528933751753" y="903.0989674167006" width="5.8759603765504345" height="8.715154466851418" fill="#f4a261" opacity="0.2636601987792319" rx="1"/><rect x="0" y="1000" width="1920" height="80" fill="#00202d" opacity="0.8"/><line x1="0" y1="1040" x2="1920" y2="1040" stroke="#e76f51" stroke-opacity="0.15" stroke-width="2" stroke-dasharray="30,20"/><rect x="0" y="930" width="1920" height="150" fill="url(#glow86)"/><text x="1900" y="1060" font-family="Arial, sans-serif" font-size="11" fill="#fff" opacity="0.08" text-anchor="end" letter-spacing="2">GTA 6 REWARDS · WALLPAPER 087</text>
</svg>