<?xml version="1.0" encoding="UTF-8"?>
<svg xmlns="http://www.w3.org/2000/svg" width="1920" height="1080" viewBox="0 0 1920 1080">
<defs>
    <linearGradient id="bg79" x1="0%" y1="0%" x2="0%" y2="100%">
      <stop offset="0%" stop-color="#00bbf9"/>
      <stop offset="50%" stop-color="#0088c6"/>
      <stop offset="100%" stop-color="#00bbf9"/>
    </linearGradient>
    <linearGradient id="sun79" x1="0%" y1="0%" x2="100%" y2="100%">
      <stop offset="0%" stop-color="#f15bb5"/>
      <stop offset="100%" stop-color="#fee440"/>
    </linearGradient>
    <radialGradient id="glow79" cx="50%" cy="70%" r="50%">
      <stop offset="0%" stop-color="#f15bb5" stop-opacity="0.3"/>
      <stop offset="100%" stop-color="#00bbf9" stop-opacity="0"/>
    </radialGradient>
  </defs><rect width="1920" height="1080" fill="url(#bg79)"/><circle cx="1493.590435197947" cy="499.97539089526407" r="717.967924014192" fill="#f15bb5" opacity="0.14233031784937028"/><circle cx="1693.590435197947" cy="399.97539089526407" r="449.5248072895978" fill="#fee440" opacity="0.05358508398839857"/><line x1="0" y1="980" x2="1920" y2="980" stroke="#fee440" stroke-opacity="0.05" stroke-width="2"/><line x1="0" y1="935" x2="1920" y2="935" stroke="#fee440" stroke-opacity="0.049" stroke-width="0.5"/><line x1="0" y1="890" x2="1920" y2="890" stroke="#fee440" stroke-opacity="0.048" stroke-width="0.5"/><line x1="0" y1="845" x2="1920" y2="845" stroke="#fee440" stroke-opacity="0.047" stroke-width="0.5"/><line x1="0" y1="800" x2="1920" y2="800" stroke="#fee440" stroke-opacity="0.046" stroke-width="0.5"/><line x1="0" y1="755" x2="1920" y2="755" stroke="#fee440" stroke-opacity="0.045" stroke-width="0.5"/><line x1="0" y1="710" x2="1920" y2="710" stroke="#fee440" stroke-opacity="0.044" stroke-width="0.5"/><line x1="0" y1="665" x2="1920" y2="665" stroke="#fee440" stroke-opacity="0.043" stroke-width="0.5"/><line x1="0" y1="620" x2="1920" y2="620" stroke="#fee440" stroke-opacity="0.041999999999999996" stroke-width="0.5"/><line x1="0" y1="575" x2="1920" y2="575" stroke="#fee440" stroke-opacity="0.041" stroke-width="0.5"/><line x1="0" y1="530" x2="1920" y2="530" stroke="#fee440" stroke-opacity="0.04" stroke-width="0.5"/><line x1="0" y1="485" x2="1920" y2="485" stroke="#fee440" stroke-opacity="0.039" stroke-width="0.5"/><line x1="0" y1="440" x2="1920" y2="440" stroke="#fee440" stroke-opacity="0.038" stroke-width="0.5"/><line x1="0" y1="395" x2="1920" y2="395" stroke="#fee440" stroke-opacity="0.037" stroke-width="0.5"/><line x1="0" y1="350" x2="1920" y2="350" stroke="#fee440" stroke-opacity="0.036" stroke-width="0.5"/><line x1="0" y1="305" x2="1920" y2="305" stroke="#fee440" stroke-opacity="0.034999999999999996" stroke-width="0.5"/><line x1="0" y1="260" x2="1920" y2="260" stroke="#fee440" stroke-opacity="0.033999999999999996" stroke-width="0.5"/><line x1="0" y1="215" x2="1920" y2="215" stroke="#fee440" stroke-opacity="0.033" stroke-width="0.5"/><line x1="0" y1="170" x2="1920" y2="170" stroke="#fee440" stroke-opacity="0.032" stroke-width="0.5"/><line x1="0" y1="125" x2="1920" y2="125" stroke="#fee440" stroke-opacity="0.031" stroke-width="0.5"/><line x1="560" y1="1080" x2="860" y2="580" stroke="#f15bb5" stroke-opacity="0.04" stroke-width="1"/><line x1="640" y1="1080" x2="880" y2="590" stroke="#f15bb5" stroke-opacity="0.04" stroke-width="1"/><line x1="720" y1="1080" x2="900" y2="600" stroke="#f15bb5" stroke-opacity="0.04" stroke-width="1"/><line x1="800" y1="1080" x2="920" y2="610" stroke="#f15bb5" stroke-opacity="0.04" stroke-width="1"/><line x1="880" y1="1080" x2="940" y2="620" stroke="#f15bb5" stroke-opacity="0.04" stroke-width="1"/><line x1="960" y1="1080" x2="960" y2="630" stroke="#f15bb5" stroke-opacity="0.04" stroke-width="1"/><line x1="1040" y1="1080" x2="980" y2="620" stroke="#f15bb5" stroke-opacity="0.04" stroke-width="1"/><line x1="1120" y1="1080" x2="1000" y2="610" stroke="#f15bb5" stroke-opacity="0.04" stroke-width="1"/><line x1="1200" y1="1080" x2="1020" y2="600" stroke="#f15bb5" stroke-opacity="0.04" stroke-width="1"/><line x1="1280" y1="1080" x2="1040" y2="590" stroke="#f15bb5" stroke-opacity="0.04" stroke-width="1"/><line x1="1360" y1="1080" x2="1060" y2="580" stroke="#f15bb5" stroke-opacity="0.04" stroke-width="1"/><circle cx="605.2342368069185" cy="230.5317253760369" r="67.63326532385155" fill="url(#sun79)" opacity="0.6720459693046393"/><circle cx="605.2342368069185" cy="230.5317253760369" r="62.633265323851546" fill="#00bbf9" opacity="0.3"/><circle cx="469.8075544437877" cy="341.82009614021985" r="1.563757709940839" fill="#fff" opacity="0.5746047214080124"/><circle cx="814.2733264375183" cy="422.999283881625" r="0.8844335425841701" fill="#fff" opacity="0.3131366020797604"/><circle cx="1519.6869800052807" cy="163.48445004305907" r="1.8574340365262314" fill="#fff" opacity="0.7546598954951995"/><circle cx="984.202147057327" cy="14.52972143481712" r="1.9702452055574966" fill="#fff" opacity="0.24014397706839816"/><circle cx="211.5434942141975" cy="285.03009677609197" r="1.8911406423177433" fill="#fff" opacity="0.22994764010187882"/><circle cx="1614.6798910979833" cy="280.77796564455565" r="1.4788588281904484" fill="#fff" opacity="0.748833827383079"/><circle cx="1826.6278521499196" cy="111.87293375653049" r="1.8453691691033005" fill="#fff" opacity="0.5003068857128515"/><circle cx="657.2107079665202" cy="102.68478343046382" r="0.8276190355717249" fill="#fff" opacity="0.7815212923059056"/><circle cx="376.93806463315576" cy="79.5925446673279" r="0.7732170955914113" fill="#fff" opacity="0.2814131774197829"/><circle cx="215.9623289611103" cy="340.5912541832289" r="1.2082837287355876" fill="#fff" opacity="0.28129181388795654"/><circle cx="1651.3422716528507" cy="4.6185022081757205" r="1.8300655692187289" fill="#fff" opacity="0.4904734919989653"/><circle cx="857.4090374022278" cy="180.03154818435002" r="0.9642889968734907" fill="#fff" opacity="0.34307618982695887"/><circle cx="1107.4871307209803" cy="306.1806350467216" r="1.4037117239562125" fill="#fff" opacity="0.2724165087268726"/><circle cx="920.3051078972186" cy="216.42108456986514" r="0.9691176963898162" fill="#fff" opacity="0.7345179991644151"/><circle cx="292.29932255398" cy="185.45718441751256" r="0.8992953327017127" fill="#fff" opacity="0.207183338517133"/><circle cx="260.65027898658303" cy="159.8261877484215" r="0.8072080179832894" fill="#fff" opacity="0.533722154780692"/><circle cx="468.97554706525415" cy="134.5639127768958" r="1.999562037526528" fill="#fff" opacity="0.7134661521095471"/><circle cx="286.80976382615273" cy="13.910092327257175" r="1.52979405597546" fill="#fff" opacity="0.23985695136707672"/><circle cx="151.58364463401577" cy="222.84251795682184" r="0.6257596263023465" fill="#fff" opacity="0.4671072814769827"/><circle cx="1734.195948646915" cy="25.512319984266608" r="0.8328315406881346" fill="#fff" opacity="0.2783638868663376"/><circle cx="721.3736403177896" cy="373.37517262747866" r="1.7286675232994995" fill="#fff" opacity="0.7956307779056091"/><circle cx="995.5821023219223" cy="205.98545649973335" r="1.6212478273364828" fill="#fff" opacity="0.4529591935810072"/><circle cx="570.9101858574222" cy="312.72349002415393" r="1.4599554160283774" fill="#fff" opacity="0.5976241320831757"/><circle cx="1196.0506419642015" cy="64.09948496522836" r="1.9065599128153548" fill="#fff" opacity="0.29837100359107627"/><circle cx="1076.7949947241682" cy="20.560379733461975" r="1.6614387984530625" fill="#fff" opacity="0.7840319658126758"/><circle cx="1272.0173481088173" cy="226.1210455377868" r="0.986328349329142" fill="#fff" opacity="0.2938489222651927"/><circle cx="1798.7050813154096" cy="307.18368774354076" r="1.0024991552351272" fill="#fff" opacity="0.6706056104206027"/><circle cx="1179.4128127161907" cy="174.48332380095573" r="1.6369433492973782" fill="#fff" opacity="0.2165341380090765"/><circle cx="1143.9013720731953" cy="150.36993074937953" r="0.5172467017586452" fill="#fff" opacity="0.7146144754985846"/><circle cx="1565.6014501223344" cy="16.507096145420125" r="0.5019765564943609" fill="#fff" opacity="0.3941204769988825"/><circle cx="546.5780618569297" cy="9.849912880419268" r="1.1037126337419525" fill="#fff" opacity="0.43616505578070996"/><circle cx="384.8274337651272" cy="398.21671743276914" r="1.3790416535639767" fill="#fff" opacity="0.40945465644110335"/><circle cx="1658.9273245024792" cy="387.06907863986424" r="1.5139610198126083" fill="#fff" opacity="0.7929774861766439"/><circle cx="1834.4679830769235" cy="42.0902845845768" r="0.8786191951666538" fill="#fff" opacity="0.20616866233902253"/><circle cx="1487.462462235117" cy="14.036635294099487" r="1.9258357029002708" fill="#fff" opacity="0.39513605884163083"/><circle cx="1470.9481656995947" cy="65.01392528810862" r="0.5981028878824094" fill="#fff" opacity="0.7106174371462821"/><circle cx="1288.1505510229968" cy="62.921291194605004" r="0.784084447492865" fill="#fff" opacity="0.45961426977524866"/><circle cx="1543.5239168125029" cy="163.94414167570514" r="1.0928960388044118" fill="#fff" opacity="0.4768634379089026"/><circle cx="1262.2186216670598" cy="88.64921733193314" r="1.2838027841140989" fill="#fff" opacity="0.5512563460393008"/><circle cx="1888.4152910039795" cy="183.21121782232336" r="1.6852184914018071" fill="#fff" opacity="0.7968183248296423"/><circle cx="1733.681519733202" cy="31.157654885006522" r="1.0500493046245651" fill="#fff" opacity="0.6827199159848316"/><circle cx="938.8073316912185" cy="243.4611316331339" r="0.8845579045323091" fill="#fff" opacity="0.3368477511072643"/><circle cx="1052.2000647550915" cy="132.10083390122765" r="0.7080236665690374" fill="#fff" opacity="0.21611867472904706"/><circle cx="852.2480819123443" cy="360.7637930309316" r="1.6574221247940841" fill="#fff" opacity="0.2240863108597897"/><circle cx="747.7609855187501" cy="277.48731803276746" r="1.7754775164126133" fill="#fff" opacity="0.7865095560873181"/><circle cx="1601.4234279844497" cy="77.67831254323904" r="1.2866479953021388" fill="#fff" opacity="0.6206848521299392"/><circle cx="911.3818804061464" cy="150.91295425754808" r="1.7604076871090588" fill="#fff" opacity="0.35019998190696355"/><circle cx="1421.8916665347972" cy="366.5942332443302" r="1.9574099588108738" fill="#fff" opacity="0.3751294264511972"/><circle cx="835.5668795564135" cy="420.9527309101431" r="0.9303229816561385" fill="#fff" opacity="0.2800485175289327"/><circle cx="1683.2107516571905" cy="8.010457055645634" r="1.4628678839567275" fill="#fff" opacity="0.2428475519741996"/><circle cx="301.5093523965937" cy="206.91640920539302" r="1.274351637874346" fill="#fff" opacity="0.7477587845986147"/><circle cx="1652.8464522335787" cy="181.61849793550059" r="1.303820806044112" fill="#fff" opacity="0.5132587983536672"/><circle cx="569.7318096295306" cy="304.9884780647672" r="1.7414353268084664" fill="#fff" opacity="0.6687731261990901"/><circle cx="459.33922972049083" cy="415.77828039968813" r="0.913067318944509" fill="#fff" opacity="0.7153664360091478"/><circle cx="823.075019014784" cy="11.870578545115556" r="0.9844626354715933" fill="#fff" opacity="0.5329664604116618"/><circle cx="1155.5883450516474" cy="430.8498330337111" r="1.0165109250267295" fill="#fff" opacity="0.6888555167449768"/><circle cx="511.06432792522577" cy="107.55435548991764" r="0.5804564811010977" fill="#fff" opacity="0.7193453016968783"/><circle cx="1231.7466212696738" cy="306.2080195290521" r="0.7426119794236989" fill="#fff" opacity="0.6460159374973774"/><circle cx="376.9358831031564" cy="389.8257355852578" r="1.1804956703401395" fill="#fff" opacity="0.6931817628660197"/><rect x="11.962096090885368" y="681.9531006114448" width="52.66690199791149" height="221.61108805369844" fill="#00bbf9" opacity="0.43200332944560876" rx="2"/><rect x="36.25798789534205" y="691.9531006114448" width="4.075118388998117" height="9.550701917044517" fill="#fee440" opacity="0.2767749832190515" rx="1"/><rect x="23.091262395864177" y="696.7284515699671" width="4.075118388998117" height="9.550701917044517" fill="#f15bb5" opacity="0.13838749160952574" rx="1"/><rect x="34.27993138024581" y="723.6118274762589" width="8.031231419190586" height="7.454141711223437" fill="#fee440" opacity="0.4820767987943433" rx="1"/><rect x="21.113205880767943" y="727.3388983318706" width="8.031231419190586" height="7.454141711223437" fill="#f15bb5" opacity="0.24103839939717164" rx="1"/><rect x="33.14212453508333" y="755.270554341073" width="10.306845109515555" height="9.830907296349972" fill="#fee440" opacity="0.487070860687427" rx="1"/><rect x="19.97539903560546" y="760.186007989248" width="10.306845109515555" height="9.830907296349972" fill="#f15bb5" opacity="0.2435354303437135" rx="1"/><rect x="33.97214041160702" y="786.929281205887" width="8.646813356468178" height="7.866313022064584" fill="#fee440" opacity="0.5811107197266796" rx="1"/><rect x="20.805414912129148" y="790.8624377169193" width="8.646813356468178" height="7.866313022064584" fill="#f15bb5" opacity="0.2905553598633398" rx="1"/><rect x="36.042719871979834" y="818.5880080707011" width="4.505654435722542" height="7.054078434839397" fill="#fee440" opacity="0.5860086905504597" rx="1"/><rect x="22.875994372501967" y="822.1150472881208" width="4.505654435722542" height="7.054078434839397" fill="#f15bb5" opacity="0.29300434527522984" rx="1"/><rect x="33.40539929326749" y="850.2467349355152" width="9.780295593147235" height="7.9571902020734715" fill="#fee440" opacity="0.4597807601000603" rx="1"/><rect x="20.23867379378962" y="854.2253300365519" width="9.780295593147235" height="7.9571902020734715" fill="#f15bb5" opacity="0.22989038005003015" rx="1"/><rect x="35.255632807560175" y="881.9054618003292" width="6.079828564561863" height="9.022202285710303" fill="#fee440" opacity="0.4714324562743848" rx="1"/><rect x="22.088907308082305" y="886.4165629431844" width="6.079828564561863" height="9.022202285710303" fill="#f15bb5" opacity="0.2357162281371924" rx="1"/><rect x="113.9386689066744" y="584.369201314256" width="37.4256249720756" height="319.19498735088735" fill="#00bbf9" opacity="0.4390330799247681" rx="2"/><rect x="128.2576252262242" y="594.369201314256" width="8.787712332975984" height="9.087180744644064" fill="#fee440" opacity="0.5865907132594359" rx="1"/><rect x="118.9012189832053" y="598.912791686578" width="8.787712332975984" height="9.087180744644064" fill="#f15bb5" opacity="0.29329535662971795" rx="1"/><rect x="128.2784170678999" y="674.1679481519778" width="8.74612864962456" height="6.044946223507855" fill="#fee440" opacity="0.1308620642244029" rx="1"/><rect x="118.92201082488101" y="677.1904212637318" width="8.74612864962456" height="6.044946223507855" fill="#f15bb5" opacity="0.06543103211220146" rx="1"/><rect x="129.61400618278745" y="753.9666949896996" width="6.074950419849472" height="7.410806640379784" fill="#fee440" opacity="0.15881655683247758" rx="1"/><rect x="120.25759993976855" y="757.6720983098895" width="6.074950419849472" height="7.410806640379784" fill="#f15bb5" opacity="0.07940827841623879" rx="1"/><rect x="128.0433614517197" y="833.7654418274215" width="9.216239881984945" height="7.90346064556005" fill="#fee440" opacity="0.3096017129275952" rx="1"/><rect x="118.68695520870082" y="837.7171721502015" width="9.216239881984945" height="7.90346064556005" fill="#f15bb5" opacity="0.1548008564637976" rx="1"/><rect x="215.66521138084707" y="760.7358874079623" width="63.412731516503904" height="142.82830125718107" fill="#00bbf9" opacity="0.475548265612579" rx="2"/><rect x="244.33428427934047" y="770.7358874079623" width="6.074585719517103" height="7.224353629449465" fill="#fee440" opacity="0.5050746891659392" rx="1"/><rect x="228.48110140021447" y="774.3480642226871" width="6.074585719517103" height="7.224353629449465" fill="#f15bb5" opacity="0.2525373445829696" rx="1"/><rect x="245.34370364070492" y="794.5406042841591" width="4.055746996788249" height="8.22110362495787" fill="#fee440" opacity="0.568177437658463" rx="1"/><rect x="229.49052076157892" y="798.651156096638" width="4.055746996788249" height="8.22110362495787" fill="#f15bb5" opacity="0.2840887188292315" rx="1"/><rect x="244.68376184433785" y="818.345321160356" width="5.375630589522335" height="7.052710219531486" fill="#fee440" opacity="0.5721419458445492" rx="1"/><rect x="228.83057896521186" y="821.8716762701217" width="5.375630589522335" height="7.052710219531486" fill="#f15bb5" opacity="0.2860709729222746" rx="1"/><rect x="242.89304905335723" y="842.1500380365528" width="8.957056171483607" height="7.526702145470004" fill="#fee440" opacity="0.14143777141381003" rx="1"/><rect x="227.03986617423124" y="845.9133891092878" width="8.957056171483607" height="7.526702145470004" fill="#f15bb5" opacity="0.07071888570690502" rx="1"/><rect x="243.72473730955383" y="865.9547549127496" width="7.293679659090396" height="7.303410385107484" fill="#fee440" opacity="0.5278591127199724" rx="1"/><rect x="227.87155443042784" y="869.6064601053034" width="7.293679659090396" height="7.303410385107484" fill="#f15bb5" opacity="0.2639295563599862" rx="1"/><rect x="242.0726992117876" y="889.7594717889465" width="10.59775585462287" height="8.698891348833891" fill="#fee440" opacity="0.5737461630659518" rx="1"/><rect x="226.2195163326616" y="894.1089174633635" width="10.59775585462287" height="8.698891348833891" fill="#f15bb5" opacity="0.2868730815329759" rx="1"/><rect x="335.1695948501978" y="638.9882832274279" width="37.7677677496727" height="264.57590543771533" fill="#00a1df" opacity="0.5452556072374004" rx="2"/><rect x="348.6081924474817" y="648.9882832274279" width="10.89057255510487" height="9.838702682368154" fill="#fee440" opacity="0.36031240221585903" rx="1"/><rect x="339.16625051006355" y="653.907634568612" width="10.89057255510487" height="9.838702682368154" fill="#f15bb5" opacity="0.18015620110792951" rx="1"/><rect x="350.5389681815959" y="737.1802517066664" width="7.029021086876519" height="7.310028104416567" fill="#fee440" opacity="0.5606661531051309" rx="1"/><rect x="341.09702624417775" y="740.8352657588746" width="7.029021086876519" height="7.310028104416567" fill="#f15bb5" opacity="0.28033307655256545" rx="1"/><rect x="351.9681671752986" y="825.3722201859048" width="4.170623099471122" height="9.02365254774309" fill="#fee440" opacity="0.4109460279370998" rx="1"/><rect x="342.52622523788045" y="829.8840464597763" width="4.170623099471122" height="9.02365254774309" fill="#f15bb5" opacity="0.2054730139685499" rx="1"/><rect x="444.56066538220284" y="734.2649801364786" width="47.76994019229197" height="169.2992085286647" fill="#00bbf9" opacity="0.4295783546123603" rx="2"/><rect x="466.21602937421204" y="744.2649801364786" width="4.459212208273637" height="9.802050922951207" fill="#fee440" opacity="0.5214690184270658" rx="1"/><rect x="454.273544326139" y="749.1660055979542" width="4.459212208273637" height="9.802050922951207" fill="#f15bb5" opacity="0.2607345092135329" rx="1"/><rect x="465.1008041408148" y="772.481514891256" width="6.68966267506817" height="9.048683857323761" fill="#fee440" opacity="0.17028044529032904" rx="1"/><rect x="453.15831909274175" y="777.0058568199179" width="6.68966267506817" height="9.048683857323761" fill="#f15bb5" opacity="0.08514022264516452" rx="1"/><rect x="465.7155547143695" y="800.6980496460335" width="5.460161527958736" height="6.4499048126046326" fill="#fee440" opacity="0.1930249797164055" rx="1"/><rect x="453.77306966629646" y="803.9230020523358" width="5.460161527958736" height="6.4499048126046326" fill="#f15bb5" opacity="0.09651248985820275" rx="1"/><rect x="464.40104053807465" y="828.9145844008109" width="8.089189880548322" height="9.988916085099083" fill="#fee440" opacity="0.3942229801076984" rx="1"/><rect x="452.45855549000163" y="833.9090424433605" width="8.089189880548322" height="9.988916085099083" fill="#f15bb5" opacity="0.1971114900538492" rx="1"/><rect x="463.3997826823964" y="857.1311191555884" width="10.091705591904862" height="9.925912557152545" fill="#fee440" opacity="0.5058158723418172" rx="1"/><rect x="451.45729763432337" y="862.0940754341647" width="10.091705591904862" height="9.925912557152545" fill="#f15bb5" opacity="0.2529079361709086" rx="1"/><rect x="462.89890313844637" y="885.3476539103658" width="11.09346467980497" height="6.059666061787788" fill="#fee440" opacity="0.5803090634477113" rx="1"/><rect x="450.95641809037335" y="888.3774869412597" width="11.09346467980497" height="6.059666061787788" fill="#f15bb5" opacity="0.29015453172385564" rx="1"/><rect x="542.7874966042087" y="566.0473464094214" width="39.9987564678301" height="337.516842255722" fill="#00a1df" opacity="0.552388238593095" rx="2"/><rect x="558.7821928425185" y="576.0473464094214" width="8.009363991210556" height="8.286723886217626" fill="#fee440" opacity="0.5549571935681061" rx="1"/><rect x="548.7825037255609" y="580.1907083525302" width="8.009363991210556" height="8.286723886217626" fill="#f15bb5" opacity="0.27747859678405307" rx="1"/><rect x="559.8828301399209" y="624.2640381602388" width="5.808089396405986" height="9.431626763993787" fill="#fee440" opacity="0.579092120188077" rx="1"/><rect x="549.8831410229633" y="628.9798515422357" width="5.808089396405986" height="9.431626763993787" fill="#f15bb5" opacity="0.2895460600940385" rx="1"/><rect x="557.8830681305573" y="672.4807299110562" width="9.807613415133119" height="9.478731154342817" fill="#fee440" opacity="0.5473214258782848" rx="1"/><rect x="547.8833790135997" y="677.2200954882276" width="9.807613415133119" height="9.478731154342817" fill="#f15bb5" opacity="0.2736607129391424" rx="1"/><rect x="559.7536818410163" y="720.6974216618737" width="6.0663859942151195" height="6.175780421163836" fill="#fee440" opacity="0.21970005047500601" rx="1"/><rect x="549.7539927240587" y="723.7853118724556" width="6.0663859942151195" height="6.175780421163836" fill="#f15bb5" opacity="0.10985002523750301" rx="1"/><rect x="558.6000235829503" y="768.9141134126911" width="8.373702510347055" height="6.3883139305720835" fill="#fee440" opacity="0.5681400498301117" rx="1"/><rect x="548.6003344659927" y="772.1082703779772" width="8.373702510347055" height="6.3883139305720835" fill="#f15bb5" opacity="0.28407002491505584" rx="1"/><rect x="558.8639037036021" y="817.1308051635085" width="7.845942269043517" height="7.611391908864349" fill="#fee440" opacity="0.22376298560382868" rx="1"/><rect x="548.8642145866445" y="820.9365011179407" width="7.845942269043517" height="7.611391908864349" fill="#f15bb5" opacity="0.11188149280191434" rx="1"/><rect x="557.1428249944335" y="865.3474969143259" width="11.28809968738074" height="6.7362972993255354" fill="#fee440" opacity="0.43175959992961954" rx="1"/><rect x="547.1431358774759" y="868.7156455639887" width="11.28809968738074" height="6.7362972993255354" fill="#f15bb5" opacity="0.21587979996480977" rx="1"/><rect x="650.7361045691036" y="706.9278554192111" width="59.63159755096575" height="196.6363332459322" fill="#00a1df" opacity="0.40221662495802546" rx="2"/><rect x="676.3367830443515" y="716.9278554192111" width="8.430240600470043" height="7.511421149948477" fill="#fee440" opacity="0.45023408973362156" rx="1"/><rect x="661.42888365661" y="720.6835659941854" width="8.430240600470043" height="7.511421149948477" fill="#f15bb5" opacity="0.22511704486681078" rx="1"/><rect x="677.4290385112234" y="741.5073970749527" width="6.245729666726135" height="9.871429072663055" fill="#fee440" opacity="0.29651500838727574" rx="1"/><rect x="662.5211391234819" y="746.4431116112842" width="6.245729666726135" height="9.871429072663055" fill="#f15bb5" opacity="0.14825750419363787" rx="1"/><rect x="677.3301323275851" y="766.0869387306942" width="6.443542034002846" height="6.8746562136510985" fill="#fee440" opacity="0.29538194748931146" rx="1"/><rect x="662.4222329398436" y="769.5242668375198" width="6.443542034002846" height="6.8746562136510985" fill="#f15bb5" opacity="0.14769097374465573" rx="1"/><rect x="677.7322438086226" y="790.6664803864358" width="5.639319071927881" height="8.86053116686189" fill="#fee440" opacity="0.1489572775664174" rx="1"/><rect x="662.8243444208811" y="795.0967459698667" width="5.639319071927881" height="8.86053116686189" fill="#f15bb5" opacity="0.0744786387832087" rx="1"/><rect x="675.250677400327" y="815.2460220421773" width="10.602451888518978" height="7.550398208561912" fill="#fee440" opacity="0.43849641257862015" rx="1"/><rect x="660.3427780125855" y="819.0212211464583" width="10.602451888518978" height="7.550398208561912" fill="#f15bb5" opacity="0.21924820628931008" rx="1"/><rect x="677.1718293191335" y="839.8255636979188" width="6.760148050906171" height="7.743547838587208" fill="#fee440" opacity="0.372792899462579" rx="1"/><rect x="662.263929931392" y="843.6973376172124" width="6.760148050906171" height="7.743547838587208" fill="#f15bb5" opacity="0.1863964497312895" rx="1"/><rect x="678.2244988398684" y="864.4051053536602" width="4.65480900943624" height="8.426115437044324" fill="#fee440" opacity="0.25215833511952274" rx="1"/><rect x="663.3165994521269" y="868.6181630721824" width="4.65480900943624" height="8.426115437044324" fill="#f15bb5" opacity="0.12607916755976137" rx="1"/><rect x="675.0279605863682" y="888.9846470094018" width="11.047885516436743" height="6.425821888359688" fill="#fee440" opacity="0.5036578270382382" rx="1"/><rect x="660.1200611986267" y="892.1975579535816" width="11.047885516436743" height="6.425821888359688" fill="#f15bb5" opacity="0.2518289135191191" rx="1"/><rect x="775.6661798422379" y="622.6843374252051" width="39.390718166108876" height="280.87985123993826" fill="#00a1df" opacity="0.6636249508624024" rx="2"/><rect x="789.4073577133024" y="632.6843374252051" width="11.908362423979762" height="7.635897810951783" fill="#fee440" opacity="0.4690063712114949" rx="1"/><rect x="779.5596781717752" y="636.5022863306809" width="11.908362423979762" height="7.635897810951783" fill="#f15bb5" opacity="0.23450318560574746" rx="1"/><rect x="789.7026472074684" y="672.8100304594819" width="11.31778343564779" height="7.932535172890065" fill="#fee440" opacity="0.3177901557222451" rx="1"/><rect x="779.8549676659412" y="676.776298045927" width="11.31778343564779" height="7.932535172890065" fill="#f15bb5" opacity="0.15889507786112256" rx="1"/><rect x="789.482936997079" y="712.9357234937588" width="11.757203856426571" height="9.357485913521955" fill="#fee440" opacity="0.2397276521054394" rx="1"/><rect x="779.6352574555518" y="717.6144664505198" width="11.757203856426571" height="9.357485913521955" fill="#f15bb5" opacity="0.1198638260527197" rx="1"/><rect x="792.2893963724582" y="753.0614165280357" width="6.144285105668075" height="8.231629126293498" fill="#fee440" opacity="0.5447718616446414" rx="1"/><rect x="782.441716830931" y="757.1772310911824" width="6.144285105668075" height="8.231629126293498" fill="#f15bb5" opacity="0.2723859308223207" rx="1"/><rect x="789.3989979029631" y="793.1871095623126" width="11.925082044658502" height="7.531310625730853" fill="#fee440" opacity="0.19549155367899024" rx="1"/><rect x="779.5513183614358" y="796.952764875178" width="11.925082044658502" height="7.531310625730853" fill="#f15bb5" opacity="0.09774577683949512" rx="1"/><rect x="789.9151836933836" y="833.3128025965896" width="10.892710463817398" height="8.384083791259696" fill="#fee440" opacity="0.279131245864353" rx="1"/><rect x="780.0675041518564" y="837.5048444922194" width="10.892710463817398" height="8.384083791259696" fill="#f15bb5" opacity="0.1395656229321765" rx="1"/><rect x="793.3087936295915" y="873.4384956308664" width="4.105490591401582" height="6.9351066315861205" fill="#fee440" opacity="0.5772002971678042" rx="1"/><rect x="783.4611140880643" y="876.9060489466596" width="4.105490591401582" height="6.9351066315861205" fill="#f15bb5" opacity="0.2886001485839021" rx="1"/><rect x="864.0900282291905" y="602.3451292776376" width="34.14568076006735" height="301.21905938750575" fill="#00bbf9" opacity="0.6623703507386078" rx="2"/><rect x="877.5864391589039" y="612.3451292776376" width="7.15285890064036" height="6.808131470533119" fill="#fee440" opacity="0.17958807553620731" rx="1"/><rect x="869.0500189688871" y="615.7491950129042" width="7.15285890064036" height="6.808131470533119" fill="#f15bb5" opacity="0.08979403776810366" rx="1"/><rect x="876.6311843450253" y="655.3764234758528" width="9.063368528397607" height="6.45250822148577" fill="#fee440" opacity="0.32855182660942706" rx="1"/><rect x="868.0947641550085" y="658.6026775865956" width="9.063368528397607" height="6.45250822148577" fill="#f15bb5" opacity="0.16427591330471353" rx="1"/><rect x="877.1212892858593" y="698.4077176740678" width="8.08315864672958" height="8.519028469575343" fill="#fee440" opacity="0.4167551456291124" rx="1"/><rect x="868.5848690958426" y="702.6672319088555" width="8.08315864672958" height="8.519028469575343" fill="#f15bb5" opacity="0.2083775728145562" rx="1"/><rect x="877.2266592803007" y="741.4390118722829" width="7.872418657846847" height="9.780342862890182" fill="#fee440" opacity="0.13670114326213978" rx="1"/><rect x="868.690239090284" y="746.329183303728" width="7.872418657846847" height="9.780342862890182" fill="#f15bb5" opacity="0.06835057163106989" rx="1"/><rect x="876.670698437763" y="784.470306070498" width="8.984340342922216" height="7.459744441662855" fill="#fee440" opacity="0.10815310341030199" rx="1"/><rect x="868.1342782477462" y="788.2001782913295" width="8.984340342922216" height="7.459744441662855" fill="#f15bb5" opacity="0.054076551705150994" rx="1"/><rect x="877.0320177823379" y="827.5016002687132" width="8.26170165377243" height="6.884689050001253" fill="#fee440" opacity="0.3307189030644295" rx="1"/><rect x="868.4955975923211" y="830.9439447937139" width="8.26170165377243" height="6.884689050001253" fill="#f15bb5" opacity="0.16535945153221476" rx="1"/><rect x="877.671924816601" y="870.5328944669283" width="6.981887585246444" height="7.440439335405928" fill="#fee440" opacity="0.5422346388320985" rx="1"/><rect x="869.1355046265842" y="874.2531141346312" width="6.981887585246444" height="7.440439335405928" fill="#f15bb5" opacity="0.2711173194160493" rx="1"/><rect x="963.8553104418925" y="717.0700353726443" width="79.84991723900892" height="186.49415329249905" fill="#00bbf9" opacity="0.6453935959947746" rx="2"/><rect x="998.1971910244779" y="727.0700353726443" width="11.166156073838042" height="9.328281073674624" fill="#fee440" opacity="0.3473714034416181" rx="1"/><rect x="978.2347117147257" y="731.7341759094816" width="11.166156073838042" height="9.328281073674624" fill="#f15bb5" opacity="0.17368570172080905" rx="1"/><rect x="1001.4404621395377" y="789.2347531368106" width="4.679613843718454" height="7.352329842129799" fill="#fee440" opacity="0.44236683564781376" rx="1"/><rect x="981.4779828297854" y="792.9109180578755" width="4.679613843718454" height="7.352329842129799" fill="#f15bb5" opacity="0.22118341782390688" rx="1"/><rect x="1000.3878474532132" y="851.399470900977" width="6.784843216367262" height="7.075944945466691" fill="#fee440" opacity="0.24381993006538133" rx="1"/><rect x="980.425368143461" y="854.9374433737104" width="6.784843216367262" height="7.075944945466691" fill="#f15bb5" opacity="0.12190996503269066" rx="1"/><rect x="1080.1108743320478" y="540.2100290149008" width="58.500526884687254" height="363.3541596502425" fill="#00a1df" opacity="0.5267168709371977" rx="2"/><rect x="1106.3403144155957" y="550.2100290149008" width="6.041646717591595" height="8.683531010216925" fill="#fee440" opacity="0.175337609875793" rx="1"/><rect x="1091.715182694424" y="554.5517945200093" width="6.041646717591595" height="8.683531010216925" fill="#f15bb5" opacity="0.0876688049378965" rx="1"/><rect x="1106.7117947502322" y="610.7690556232745" width="5.298686048318326" height="8.101435114187522" fill="#fee440" opacity="0.42160779445469565" rx="1"/><rect x="1092.0866630290604" y="614.8197731803683" width="5.298686048318326" height="8.101435114187522" fill="#f15bb5" opacity="0.21080389722734783" rx="1"/><rect x="1104.3444707084784" y="671.3280822316483" width="10.033334131826026" height="6.968771713080065" fill="#fee440" opacity="0.520495844194781" rx="1"/><rect x="1089.7193389873066" y="674.8124680881883" width="10.033334131826026" height="6.968771713080065" fill="#f15bb5" opacity="0.2602479220973905" rx="1"/><rect x="1106.9789928370108" y="731.887108840022" width="4.764289874761433" height="8.213988361464345" fill="#fee440" opacity="0.28925272724340967" rx="1"/><rect x="1092.353861115839" y="735.9941030207542" width="4.764289874761433" height="8.213988361464345" fill="#f15bb5" opacity="0.14462636362170483" rx="1"/><rect x="1105.8889620240984" y="792.4461354483958" width="6.944351500585757" height="6.23076026053884" fill="#fee440" opacity="0.2267471667674247" rx="1"/><rect x="1091.2638303029266" y="795.5615155786652" width="6.944351500585757" height="6.23076026053884" fill="#f15bb5" opacity="0.11337358338371235" rx="1"/><rect x="1105.5987409466409" y="853.0051620567694" width="7.5247936555009325" height="8.680659373914978" fill="#fee440" opacity="0.35996755057945096" rx="1"/><rect x="1090.973609225469" y="857.3454917437269" width="7.5247936555009325" height="8.680659373914978" fill="#f15bb5" opacity="0.17998377528972548" rx="1"/><rect x="1191.3565317102143" y="630.8705693997608" width="81.43512323299309" height="272.69361926538255" fill="#00bbf9" opacity="0.6043138948279233" rx="2"/><rect x="1226.3913967570738" y="640.8705693997608" width="11.365393139274184" height="8.721512076147253" fill="#fee440" opacity="0.35123130233288535" rx="1"/><rect x="1206.0326159488254" y="645.2313254378345" width="11.365393139274184" height="8.721512076147253" fill="#f15bb5" opacity="0.17561565116644268" rx="1"/><rect x="1226.3868951349025" y="731.7684424882217" width="11.3743963836167" height="8.98963484703322" fill="#fee440" opacity="0.43156598297217075" rx="1"/><rect x="1206.028114326654" y="736.2632599117383" width="11.3743963836167" height="8.98963484703322" fill="#f15bb5" opacity="0.21578299148608537" rx="1"/><rect x="1228.6022166203716" y="822.6663155766826" width="6.943753412678781" height="9.21990265027152" fill="#fee440" opacity="0.5997606633696148" rx="1"/><rect x="1208.2434358121232" y="827.2762669018183" width="6.943753412678781" height="9.21990265027152" fill="#f15bb5" opacity="0.2998803316848074" rx="1"/><rect x="1282.9124594765976" y="796.907373784787" width="31.223138636262888" height="106.65681488035638" fill="#00a1df" opacity="0.47646606179803286" rx="2"/><rect x="1295.6875253214237" y="806.907373784787" width="5.6730069466105215" height="9.485506372406498" fill="#fee440" opacity="0.13756226320694254" rx="1"/><rect x="1287.881740662358" y="811.6501269709902" width="5.6730069466105215" height="9.485506372406498" fill="#f15bb5" opacity="0.06878113160347127" rx="1"/><rect x="1293.733952884733" y="828.2387367608583" width="9.580151819991915" height="9.744928658880509" fill="#fee440" opacity="0.5321194689097161" rx="1"/><rect x="1285.9281682256674" y="833.1112010902986" width="9.580151819991915" height="9.744928658880509" fill="#f15bb5" opacity="0.26605973445485803" rx="1"/><rect x="1295.4868943073056" y="849.5700997369295" width="6.074268974846757" height="8.977478101611482" fill="#fee440" opacity="0.4893441052384079" rx="1"/><rect x="1287.68110964824" y="854.0588387877352" width="6.074268974846757" height="8.977478101611482" fill="#f15bb5" opacity="0.24467205261920394" rx="1"/><rect x="1295.4221081627584" y="870.9014627130008" width="6.203841263941452" height="9.532383770573041" fill="#fee440" opacity="0.3652076819830592" rx="1"/><rect x="1287.6163235036927" y="875.6676545982873" width="6.203841263941452" height="9.532383770573041" fill="#f15bb5" opacity="0.1826038409915296" rx="1"/><rect x="1293.32514147468" y="892.2328256890721" width="10.397774640097696" height="9.017002729470143" fill="#fee440" opacity="0.18524856555397823" rx="1"/><rect x="1285.5193568156144" y="896.7413270538071" width="10.397774640097696" height="9.017002729470143" fill="#f15bb5" opacity="0.09262428277698911" rx="1"/><rect x="1395.5239302910688" y="784.5732589565622" width="73.0756251521119" height="118.99092970858116" fill="#00bbf9" opacity="0.5965877592090023" rx="2"/><rect x="1429.1113551142887" y="794.5732589565622" width="5.90077550567239" height="7.815896048633357" fill="#fee440" opacity="0.5747950385731634" rx="1"/><rect x="1410.8424488262606" y="798.4812069808788" width="5.90077550567239" height="7.815896048633357" fill="#f15bb5" opacity="0.2873975192865817" rx="1"/><rect x="1426.9726275503574" y="814.4050805746591" width="10.17823063353501" height="6.692361688402565" fill="#fee440" opacity="0.27800834639417205" rx="1"/><rect x="1408.7037212623293" y="817.7512614188604" width="10.17823063353501" height="6.692361688402565" fill="#f15bb5" opacity="0.13900417319708602" rx="1"/><rect x="1430.0489735433482" y="834.2369021927559" width="4.025538647553311" height="9.007328574314556" fill="#fee440" opacity="0.18334461368698268" rx="1"/><rect x="1411.78006725532" y="838.7405664799132" width="4.025538647553311" height="9.007328574314556" fill="#f15bb5" opacity="0.09167230684349134" rx="1"/><rect x="1426.070494388014" y="854.0687238108528" width="11.98249695822189" height="8.35064946449144" fill="#fee440" opacity="0.5498997542424825" rx="1"/><rect x="1407.8015880999858" y="858.2440485430985" width="11.98249695822189" height="8.35064946449144" fill="#f15bb5" opacity="0.27494987712124125" rx="1"/><rect x="1427.8115556707635" y="873.9005454289496" width="8.50037439272282" height="6.405254630466284" fill="#fee440" opacity="0.36057560992440574" rx="1"/><rect x="1409.5426493827354" y="877.1031727441828" width="8.50037439272282" height="6.405254630466284" fill="#f15bb5" opacity="0.18028780496220287" rx="1"/><rect x="1427.445361752167" y="893.7323670470465" width="9.232762229915885" height="8.2265808131142" fill="#fee440" opacity="0.12533191571136282" rx="1"/><rect x="1409.1764554641388" y="897.8456574536036" width="9.232762229915885" height="8.2265808131142" fill="#f15bb5" opacity="0.06266595785568141" rx="1"/><rect x="1503.7941839624648" y="731.6146887796035" width="37.48095258778915" height="171.94949988553986" fill="#00a1df" opacity="0.6603643062897875" rx="2"/><rect x="1518.7509859748536" y="741.6146887796035" width="7.567348563011584" height="8.381382176275686" fill="#fee440" opacity="0.319072332191065" rx="1"/><rect x="1509.3807478279064" y="745.8053798677414" width="7.567348563011584" height="8.381382176275686" fill="#f15bb5" opacity="0.1595361660955325" rx="1"/><rect x="1517.2953479011298" y="776.0045887567114" width="10.478624710458941" height="7.8910808670080925" fill="#fee440" opacity="0.5926369721052789" rx="1"/><rect x="1507.9251097541826" y="779.9501291902154" width="10.478624710458941" height="7.8910808670080925" fill="#f15bb5" opacity="0.29631848605263944" rx="1"/><rect x="1519.3071576120115" y="810.3944887338195" width="6.455005288695685" height="6.510456415943442" fill="#fee440" opacity="0.36672177942626216" rx="1"/><rect x="1509.9369194650642" y="813.6497169417912" width="6.455005288695685" height="6.510456415943442" fill="#f15bb5" opacity="0.18336088971313108" rx="1"/><rect x="1519.8404171538632" y="844.7843887109275" width="5.388486204992161" height="9.800600087223714" fill="#fee440" opacity="0.15736923556713603" rx="1"/><rect x="1510.470179006916" y="849.6846887545394" width="5.388486204992161" height="9.800600087223714" fill="#f15bb5" opacity="0.07868461778356801" rx="1"/><rect x="1519.9958261211857" y="879.1742886880354" width="5.077668270347097" height="9.193956599383139" fill="#fee440" opacity="0.5660100270914868" rx="1"/><rect x="1510.6255879742384" y="883.771266987727" width="5.077668270347097" height="9.193956599383139" fill="#f15bb5" opacity="0.2830050135457434" rx="1"/><rect x="1604.137958638402" y="546.4054073431543" width="52.83208036395537" height="357.15878132198907" fill="#00a1df" opacity="0.45803510922892837" rx="2"/><rect x="1625.5794420476489" y="556.4054073431543" width="9.949113545461817" height="6.450972601876355" fill="#fee440" opacity="0.3186307696901799" rx="1"/><rect x="1612.37142195666" y="559.6308936440925" width="9.949113545461817" height="6.450972601876355" fill="#f15bb5" opacity="0.15931538484508995" rx="1"/><rect x="1627.7821712872903" y="627.837163607552" width="5.543655066179031" height="8.430304425403081" fill="#fee440" opacity="0.3628284406994535" rx="1"/><rect x="1614.5741511963015" y="632.0523158202536" width="5.543655066179031" height="8.430304425403081" fill="#f15bb5" opacity="0.18141422034972676" rx="1"/><rect x="1624.6347716729238" y="699.26891987195" width="11.838454294912157" height="9.897694407938442" fill="#fee440" opacity="0.24281425907807758" rx="1"/><rect x="1611.426751581935" y="704.2177670759191" width="11.838454294912157" height="9.897694407938442" fill="#f15bb5" opacity="0.12140712953903879" rx="1"/><rect x="1627.4891133761241" y="770.7006761363477" width="6.129770888511503" height="7.1966874807134005" fill="#fee440" opacity="0.5719759994121213" rx="1"/><rect x="1614.2810932851353" y="774.2990198767044" width="6.129770888511503" height="7.1966874807134005" fill="#f15bb5" opacity="0.28598799970606065" rx="1"/><rect x="1627.7881736687357" y="842.1324324007455" width="5.531650303288282" height="6.798420499264826" fill="#fee440" opacity="0.5922014421299568" rx="1"/><rect x="1614.5801535777468" y="845.531642650378" width="5.531650303288282" height="6.798420499264826" fill="#f15bb5" opacity="0.2961007210649784" rx="1"/><rect x="1730.052566237294" y="659.9922146438603" width="71.76669150632031" height="243.57197402128298" fill="#00bbf9" opacity="0.5575764687400256" rx="2"/><rect x="1762.7071528680872" y="669.9922146438603" width="6.457518244734388" height="7.8273631981172045" fill="#fee440" opacity="0.28050474805769154" rx="1"/><rect x="1744.765479991507" y="673.9058962429189" width="6.457518244734388" height="7.8273631981172045" fill="#f15bb5" opacity="0.14025237402884577" rx="1"/><rect x="1760.563609586927" y="710.5875436474074" width="10.744604807054765" height="9.435977769884275" fill="#fee440" opacity="0.45583820167366373" rx="1"/><rect x="1742.6219367103467" y="715.3055325323495" width="10.744604807054765" height="9.435977769884275" fill="#f15bb5" opacity="0.22791910083683187" rx="1"/><rect x="1763.7100998868025" y="751.1828726509546" width="4.451624207303772" height="7.341095828763464" fill="#fee440" opacity="0.20210151576951646" rx="1"/><rect x="1745.7684270102222" y="754.8534205653363" width="4.451624207303772" height="7.341095828763464" fill="#f15bb5" opacity="0.10105075788475823" rx="1"/><rect x="1760.4548260605554" y="791.7782016545018" width="10.962171859797596" height="8.971446805394127" fill="#fee440" opacity="0.27121040988043194" rx="1"/><rect x="1742.5131531839752" y="796.2639250571989" width="10.962171859797596" height="8.971446805394127" fill="#f15bb5" opacity="0.13560520494021597" rx="1"/><rect x="1763.0353687689721" y="832.3735306580489" width="5.8010864429644045" height="7.773494163009686" fill="#fee440" opacity="0.2822971301577746" rx="1"/><rect x="1745.093695892392" y="836.2602777395538" width="5.8010864429644045" height="7.773494163009686" fill="#f15bb5" opacity="0.1411485650788873" rx="1"/><rect x="1763.2774849129555" y="872.9688596615961" width="5.316854154997705" height="9.63480943712285" fill="#fee440" opacity="0.4819608429637646" rx="1"/><rect x="1745.3358120363753" y="877.7862643801575" width="5.316854154997705" height="9.63480943712285" fill="#f15bb5" opacity="0.2409804214818823" rx="1"/><rect x="1832.7990591602397" y="769.4716088751964" width="57.40010345992634" height="134.0925797899469" fill="#00a1df" opacity="0.5462040827251515" rx="2"/><rect x="1858.8944148323253" y="779.4716088751964" width="5.209392115755331" height="8.27093738742893" fill="#fee440" opacity="0.48069522261635755" rx="1"/><rect x="1844.5443889673436" y="783.6070775689108" width="5.209392115755331" height="8.27093738742893" fill="#f15bb5" opacity="0.24034761130817878" rx="1"/><rect x="1856.0519998369393" y="812.994753822683" width="10.894222106527124" height="9.993417919611888" fill="#fee440" opacity="0.29163435771866575" rx="1"/><rect x="1841.7019739719576" y="817.991462782489" width="10.894222106527124" height="9.993417919611888" fill="#f15bb5" opacity="0.14581717885933287" rx="1"/><rect x="1856.0924529747788" y="846.5178987701698" width="10.813315830848486" height="6.5118479105904346" fill="#fee440" opacity="0.23475810797763014" rx="1"/><rect x="1841.742427109797" y="849.773822725465" width="10.813315830848486" height="6.5118479105904346" fill="#f15bb5" opacity="0.11737905398881507" rx="1"/><rect x="1857.5271895892283" y="880.0410437176565" width="7.943842601949312" height="6.897948902309395" fill="#fee440" opacity="0.5349089653545313" rx="1"/><rect x="1843.1771637242466" y="883.4900181688113" width="7.943842601949312" height="6.897948902309395" fill="#f15bb5" opacity="0.2674544826772656" rx="1"/><rect x="0" y="1000" width="1920" height="80" fill="#0095d3" opacity="0.8"/><line x1="0" y1="1040" x2="1920" y2="1040" stroke="#fee440" stroke-opacity="0.15" stroke-width="2" stroke-dasharray="30,20"/><rect x="0" y="930" width="1920" height="150" fill="url(#glow79)"/><rect x="0" y="980" width="1920" height="100" fill="#fee440" opacity="0.04"/><rect x="551.6824120077497" y="1052.4749260238546" width="91.84094965267948" height="2" fill="#f15bb5" opacity="0.02623185461532135" rx="1"/><rect x="727.916525771822" y="1016.7608448250128" width="25.545488164188686" height="2" fill="#f15bb5" opacity="0.04714406278616378" rx="1"/><rect x="252.1145739248289" y="1028.1876597479422" width="116.93806464712557" height="2" fill="#f15bb5" opacity="0.025859231410049654" rx="1"/><rect x="451.32094870585036" y="1013.553736250278" width="30.796188379357613" height="2" fill="#f15bb5" opacity="0.02975181753042895" rx="1"/><rect x="185.5900955632306" y="1032.8217462526684" width="59.18911028634503" height="2" fill="#f15bb5" opacity="0.03531946509501884" rx="1"/><rect x="1420.0955784647017" y="1031.379908381817" width="25.65687827897651" height="2" fill="#f15bb5" opacity="0.03129178809264949" rx="1"/><rect x="938.4632641771955" y="1009.4729786248582" width="92.87239608654575" height="2" fill="#f15bb5" opacity="0.038135605551799664" rx="1"/><rect x="247.09275266320742" y="1046.925855140883" width="61.46273069583409" height="2" fill="#f15bb5" opacity="0.02608377471707849" rx="1"/><rect x="239.17806705440816" y="1051.099306026264" width="55.11233414409504" height="2" fill="#f15bb5" opacity="0.02248170624544884" rx="1"/><rect x="1876.3123865323867" y="1052.183216864286" width="34.05169696408596" height="2" fill="#f15bb5" opacity="0.04879857104010847" rx="1"/><rect x="548.8544432606675" y="1055.2886225411876" width="104.8356578230941" height="2" fill="#f15bb5" opacity="0.048636057942322466" rx="1"/><rect x="1480.7935974469392" y="1001.5267352344298" width="79.7478869277397" height="2" fill="#f15bb5" opacity="0.03062467552037553" rx="1"/><rect x="1505.915595345645" y="1032.9652841512498" width="21.637480780863548" height="2" fill="#f15bb5" opacity="0.05337864401596101" rx="1"/><rect x="1485.1733184338484" y="1019.6758736203601" width="75.37434454433954" height="2" fill="#f15bb5" opacity="0.03416735221030362" rx="1"/><rect x="438.1981038577385" y="1037.8326381551644" width="93.51419128792224" height="2" fill="#f15bb5" opacity="0.03628539625934451" rx="1"/><rect x="1644.3533750726733" y="1059.293476249858" width="105.90917228393005" height="2" fill="#f15bb5" opacity="0.04951510928327104" rx="1"/><rect x="169.7282955445648" y="1004.9619856348638" width="67.66880039769896" height="2" fill="#f15bb5" opacity="0.05597964499983463" rx="1"/><rect x="533.1160641957811" y="1000.6018888206692" width="78.82605997818197" height="2" fill="#f15bb5" opacity="0.05502986951615425" rx="1"/><rect x="722.361153681381" y="1014.5846680818555" width="83.39171371967339" height="2" fill="#f15bb5" opacity="0.0298319694236461" rx="1"/><rect x="1354.6070072228572" y="1004.8847198125172" width="73.94493237928137" height="2" fill="#f15bb5" opacity="0.05017982963243961" rx="1"/><rect x="1547.6106882718418" y="1002.4654197512347" width="52.16257498882771" height="2" fill="#f15bb5" opacity="0.04899212558497491" rx="1"/><rect x="152.80653301458958" y="1022.5050209747872" width="26.47089749259662" height="2" fill="#f15bb5" opacity="0.05998718907124996" rx="1"/><rect x="1308.7257321245795" y="1050.1267117797693" width="58.84326262372622" height="2" fill="#f15bb5" opacity="0.03553437407490201" rx="1"/><rect x="884.3774460825085" y="1056.6596362080097" width="43.92675893472665" height="2" fill="#f15bb5" opacity="0.05706020987524191" rx="1"/><rect x="1142.9068988242436" y="1051.9295359384105" width="49.32645865467528" height="2" fill="#f15bb5" opacity="0.053409823736504144" rx="1"/><rect x="1713.988574397282" y="1026.7573341556727" width="47.847917058469704" height="2" fill="#f15bb5" opacity="0.04707004927729025" rx="1"/><rect x="1422.8721323942002" y="1047.1184691384244" width="74.61601655804925" height="2" fill="#f15bb5" opacity="0.03084526739335742" rx="1"/><rect x="104.39815076636107" y="1058.2476234292258" width="72.70864235998798" height="2" fill="#f15bb5" opacity="0.04270981183804334" rx="1"/><rect x="439.6609802077666" y="1020.1952185482241" width="21.922765491046654" height="2" fill="#f15bb5" opacity="0.058337822472289635" rx="1"/><rect x="1546.3993874812497" y="1029.2163902123498" width="83.94325715115835" height="2" fill="#f15bb5" opacity="0.0549680143303629" rx="1"/><text x="1900" y="1060" font-family="Arial, sans-serif" font-size="11" fill="#fff" opacity="0.08" text-anchor="end" letter-spacing="2">GTA 6 REWARDS · WALLPAPER 080</text>
</svg>