<?xml version="1.0" encoding="UTF-8"?>
<svg xmlns="http://www.w3.org/2000/svg" width="1920" height="1080" viewBox="0 0 1920 1080">
<defs>
    <linearGradient id="bg64" x1="0%" y1="0%" x2="0%" y2="100%">
      <stop offset="0%" stop-color="#26547c"/>
      <stop offset="50%" stop-color="#002149"/>
      <stop offset="100%" stop-color="#26547c"/>
    </linearGradient>
    <linearGradient id="sun64" x1="0%" y1="0%" x2="100%" y2="100%">
      <stop offset="0%" stop-color="#ffd166"/>
      <stop offset="100%" stop-color="#ef476f"/>
    </linearGradient>
    <radialGradient id="glow64" cx="50%" cy="70%" r="50%">
      <stop offset="0%" stop-color="#ffd166" stop-opacity="0.3"/>
      <stop offset="100%" stop-color="#26547c" stop-opacity="0"/>
    </radialGradient>
  </defs><rect width="1920" height="1080" fill="url(#bg64)"/><circle cx="811.0438611616948" cy="464.563889211175" r="692.0531018851449" fill="#ffd166" opacity="0.13898504867427636"/><circle cx="1011.0438611616948" cy="364.563889211175" r="598.54925866205" fill="#ef476f" opacity="0.11289645965744194"/><circle cx="1352.009691170419" cy="346.7339535701866" r="78.32570995630829" fill="url(#sun64)" opacity="0.7847868849953605"/><circle cx="1352.009691170419" cy="346.7339535701866" r="73.32570995630829" fill="#26547c" opacity="0.3"/><pattern id="scan64" width="1920" height="4" patternUnits="userSpaceOnUse">
      <line x1="0" y1="0" x2="1920" y2="0" stroke="#000" stroke-opacity="0.05" stroke-width="1"/>
    </pattern>
    <rect width="1920" height="1080" fill="url(#scan64)"/><path d="M1089.3426076623944 972.8694130370556 Q1077.5789446890305 861.5625834934327 1075.2262120943578 750.2557539498098" stroke="#00072f" stroke-width="6.330517314917063" fill="none" stroke-linecap="round"/><path d="M1075.2262120943578 750.2557539498098 Q1121.3847948932987 730.2557539498098 1130.077227124031 750.2557539498098" stroke="#002149" stroke-width="3.6687150512981965" fill="none" stroke-linecap="round" opacity="0.6"/><path d="M1075.2262120943578 750.2557539498098 Q1111.300329569018 736.5031015674881 1108.4401686023334 762.7504491851664" stroke="#002149" stroke-width="2.5895477683724715" fill="none" stroke-linecap="round" opacity="0.6"/><path d="M1075.2262120943578 750.2557539498098 Q1084.0849964266845 739.8681103757809 1060.5998279094235 769.4804668017521" stroke="#002149" stroke-width="2.208916594322984" fill="none" stroke-linecap="round" opacity="0.6"/><path d="M1075.2262120943578 750.2557539498098 Q1062.2162805570872 732.5272606442733 1043.7806637376193 754.7987673387368" stroke="#002149" stroke-width="2.5229208922299837" fill="none" stroke-linecap="round" opacity="0.6"/><path d="M1075.2262120943578 750.2557539498098 Q1043.6708674622614 725.0803042349662 1003.5799982959786 739.9048545201226" stroke="#002149" stroke-width="2.300187723781026" fill="none" stroke-linecap="round" opacity="0.6"/><path d="M455.2493616508435 920.21042281301 Q465.4870424898079 856.5749932968931 467.5345786576007 792.9395637807761" stroke="#00072f" stroke-width="4.630776159612177" fill="none" stroke-linecap="round"/><path d="M467.5345786576007 792.9395637807761 Q500.3754051370489 772.9395637807761 517.8086072750875 792.9395637807761" stroke="#002149" stroke-width="2.3333032383428196" fill="none" stroke-linecap="round" opacity="0.6"/><path d="M467.5345786576007 792.9395637807761 Q485.9484688347622 778.6720505912409 498.0112832140345 804.4045374017057" stroke="#002149" stroke-width="2.966358791330447" fill="none" stroke-linecap="round" opacity="0.6"/><path d="M467.5345786576007 792.9395637807761 Q467.80341380351393 777.9869670427759 459.8543329431541 803.0343703047755" stroke="#002149" stroke-width="3.7117974957711524" fill="none" stroke-linecap="round" opacity="0.6"/><path d="M467.5345786576007 792.9395637807761 Q434.7793422305323 778.0269007708489 397.10815124786575 803.1142377609218" stroke="#002149" stroke-width="2.58356725670946" fill="none" stroke-linecap="round" opacity="0.6"/><path d="M467.5345786576007 792.9395637807761 Q438.74569225518565 768.360390273717 404.1429002174309 783.7812167666578" stroke="#002149" stroke-width="3.233034738160911" fill="none" stroke-linecap="round" opacity="0.6"/><line x1="0" y1="0" x2="0" y2="1080" stroke="#ffd166" stroke-opacity="0.052205224107533046" stroke-width="0.5"/><line x1="56" y1="0" x2="56" y2="1080" stroke="#ffd166" stroke-opacity="0.052205224107533046" stroke-width="0.5"/><line x1="112" y1="0" x2="112" y2="1080" stroke="#ffd166" stroke-opacity="0.052205224107533046" stroke-width="0.5"/><line x1="168" y1="0" x2="168" y2="1080" stroke="#ffd166" stroke-opacity="0.052205224107533046" stroke-width="0.5"/><line x1="224" y1="0" x2="224" y2="1080" stroke="#ffd166" stroke-opacity="0.052205224107533046" stroke-width="0.5"/><line x1="280" y1="0" x2="280" y2="1080" stroke="#ffd166" stroke-opacity="0.052205224107533046" stroke-width="0.5"/><line x1="336" y1="0" x2="336" y2="1080" stroke="#ffd166" stroke-opacity="0.052205224107533046" stroke-width="0.5"/><line x1="392" y1="0" x2="392" y2="1080" stroke="#ffd166" stroke-opacity="0.052205224107533046" stroke-width="0.5"/><line x1="448" y1="0" x2="448" y2="1080" stroke="#ffd166" stroke-opacity="0.052205224107533046" stroke-width="0.5"/><line x1="504" y1="0" x2="504" y2="1080" stroke="#ffd166" stroke-opacity="0.052205224107533046" stroke-width="0.5"/><line x1="560" y1="0" x2="560" y2="1080" stroke="#ffd166" stroke-opacity="0.052205224107533046" stroke-width="0.5"/><line x1="616" y1="0" x2="616" y2="1080" stroke="#ffd166" stroke-opacity="0.052205224107533046" stroke-width="0.5"/><line x1="672" y1="0" x2="672" y2="1080" stroke="#ffd166" stroke-opacity="0.052205224107533046" stroke-width="0.5"/><line x1="728" y1="0" x2="728" y2="1080" stroke="#ffd166" stroke-opacity="0.052205224107533046" stroke-width="0.5"/><line x1="784" y1="0" x2="784" y2="1080" stroke="#ffd166" stroke-opacity="0.052205224107533046" stroke-width="0.5"/><line x1="840" y1="0" x2="840" y2="1080" stroke="#ffd166" stroke-opacity="0.052205224107533046" stroke-width="0.5"/><line x1="896" y1="0" x2="896" y2="1080" stroke="#ffd166" stroke-opacity="0.052205224107533046" stroke-width="0.5"/><line x1="952" y1="0" x2="952" y2="1080" stroke="#ffd166" stroke-opacity="0.052205224107533046" stroke-width="0.5"/><line x1="1008" y1="0" x2="1008" y2="1080" stroke="#ffd166" stroke-opacity="0.052205224107533046" stroke-width="0.5"/><line x1="1064" y1="0" x2="1064" y2="1080" stroke="#ffd166" stroke-opacity="0.052205224107533046" stroke-width="0.5"/><line x1="1120" y1="0" x2="1120" y2="1080" stroke="#ffd166" stroke-opacity="0.052205224107533046" stroke-width="0.5"/><line x1="1176" y1="0" x2="1176" y2="1080" stroke="#ffd166" stroke-opacity="0.052205224107533046" stroke-width="0.5"/><line x1="1232" y1="0" x2="1232" y2="1080" stroke="#ffd166" stroke-opacity="0.052205224107533046" stroke-width="0.5"/><line x1="1288" y1="0" x2="1288" y2="1080" stroke="#ffd166" stroke-opacity="0.052205224107533046" stroke-width="0.5"/><line x1="1344" y1="0" x2="1344" y2="1080" stroke="#ffd166" stroke-opacity="0.052205224107533046" stroke-width="0.5"/><line x1="1400" y1="0" x2="1400" y2="1080" stroke="#ffd166" stroke-opacity="0.052205224107533046" stroke-width="0.5"/><line x1="1456" y1="0" x2="1456" y2="1080" stroke="#ffd166" stroke-opacity="0.052205224107533046" stroke-width="0.5"/><line x1="1512" y1="0" x2="1512" y2="1080" stroke="#ffd166" stroke-opacity="0.052205224107533046" stroke-width="0.5"/><line x1="1568" y1="0" x2="1568" y2="1080" stroke="#ffd166" stroke-opacity="0.052205224107533046" stroke-width="0.5"/><line x1="1624" y1="0" x2="1624" y2="1080" stroke="#ffd166" stroke-opacity="0.052205224107533046" stroke-width="0.5"/><line x1="1680" y1="0" x2="1680" y2="1080" stroke="#ffd166" stroke-opacity="0.052205224107533046" stroke-width="0.5"/><line x1="1736" y1="0" x2="1736" y2="1080" stroke="#ffd166" stroke-opacity="0.052205224107533046" stroke-width="0.5"/><line x1="1792" y1="0" x2="1792" y2="1080" stroke="#ffd166" stroke-opacity="0.052205224107533046" stroke-width="0.5"/><line x1="1848" y1="0" x2="1848" y2="1080" stroke="#ffd166" stroke-opacity="0.052205224107533046" stroke-width="0.5"/><line x1="1904" y1="0" x2="1904" y2="1080" stroke="#ffd166" stroke-opacity="0.052205224107533046" stroke-width="0.5"/><line x1="0" y1="0" x2="1920" y2="0" stroke="#ffd166" stroke-opacity="0.052205224107533046" stroke-width="0.5"/><line x1="0" y1="56" x2="1920" y2="56" stroke="#ffd166" stroke-opacity="0.052205224107533046" stroke-width="0.5"/><line x1="0" y1="112" x2="1920" y2="112" stroke="#ffd166" stroke-opacity="0.052205224107533046" stroke-width="0.5"/><line x1="0" y1="168" x2="1920" y2="168" stroke="#ffd166" stroke-opacity="0.052205224107533046" stroke-width="0.5"/><line x1="0" y1="224" x2="1920" y2="224" stroke="#ffd166" stroke-opacity="0.052205224107533046" stroke-width="0.5"/><line x1="0" y1="280" x2="1920" y2="280" stroke="#ffd166" stroke-opacity="0.052205224107533046" stroke-width="0.5"/><line x1="0" y1="336" x2="1920" y2="336" stroke="#ffd166" stroke-opacity="0.052205224107533046" stroke-width="0.5"/><line x1="0" y1="392" x2="1920" y2="392" stroke="#ffd166" stroke-opacity="0.052205224107533046" stroke-width="0.5"/><line x1="0" y1="448" x2="1920" y2="448" stroke="#ffd166" stroke-opacity="0.052205224107533046" stroke-width="0.5"/><line x1="0" y1="504" x2="1920" y2="504" stroke="#ffd166" stroke-opacity="0.052205224107533046" stroke-width="0.5"/><line x1="0" y1="560" x2="1920" y2="560" stroke="#ffd166" stroke-opacity="0.052205224107533046" stroke-width="0.5"/><line x1="0" y1="616" x2="1920" y2="616" stroke="#ffd166" stroke-opacity="0.052205224107533046" stroke-width="0.5"/><line x1="0" y1="672" x2="1920" y2="672" stroke="#ffd166" stroke-opacity="0.052205224107533046" stroke-width="0.5"/><line x1="0" y1="728" x2="1920" y2="728" stroke="#ffd166" stroke-opacity="0.052205224107533046" stroke-width="0.5"/><line x1="0" y1="784" x2="1920" y2="784" stroke="#ffd166" stroke-opacity="0.052205224107533046" stroke-width="0.5"/><line x1="0" y1="840" x2="1920" y2="840" stroke="#ffd166" stroke-opacity="0.052205224107533046" stroke-width="0.5"/><line x1="0" y1="896" x2="1920" y2="896" stroke="#ffd166" stroke-opacity="0.052205224107533046" stroke-width="0.5"/><line x1="0" y1="952" x2="1920" y2="952" stroke="#ffd166" stroke-opacity="0.052205224107533046" stroke-width="0.5"/><line x1="0" y1="1008" x2="1920" y2="1008" stroke="#ffd166" stroke-opacity="0.052205224107533046" stroke-width="0.5"/><line x1="0" y1="1064" x2="1920" y2="1064" stroke="#ffd166" stroke-opacity="0.052205224107533046" stroke-width="0.5"/><rect x="0" y="1000" width="1920" height="80" fill="#002e56" opacity="0.8"/><line x1="0" y1="1040" x2="1920" y2="1040" stroke="#ef476f" stroke-opacity="0.15" stroke-width="2" stroke-dasharray="30,20"/><rect x="0" y="930" width="1920" height="150" fill="url(#glow64)"/><text x="1900" y="1060" font-family="Arial, sans-serif" font-size="11" fill="#fff" opacity="0.08" text-anchor="end" letter-spacing="2">GTA 6 REWARDS · WALLPAPER 065</text>
</svg>