<?xml version="1.0" encoding="UTF-8"?>
<svg xmlns="http://www.w3.org/2000/svg" width="1920" height="1080" viewBox="0 0 1920 1080">
<defs>
    <linearGradient id="bg78" x1="0%" y1="0%" x2="0%" y2="100%">
      <stop offset="0%" stop-color="#03045e"/>
      <stop offset="50%" stop-color="#00002b"/>
      <stop offset="100%" stop-color="#03045e"/>
    </linearGradient>
    <linearGradient id="sun78" x1="0%" y1="0%" x2="100%" y2="100%">
      <stop offset="0%" stop-color="#00f5d4"/>
      <stop offset="100%" stop-color="#00bbf9"/>
    </linearGradient>
    <radialGradient id="glow78" cx="50%" cy="70%" r="50%">
      <stop offset="0%" stop-color="#00f5d4" stop-opacity="0.3"/>
      <stop offset="100%" stop-color="#03045e" stop-opacity="0"/>
    </radialGradient>
  </defs><rect width="1920" height="1080" fill="url(#bg78)"/><circle cx="661.4922099657106" cy="356.77778500988563" r="785.5305351283239" fill="#00f5d4" opacity="0.14833984738177153"/><circle cx="861.4922099657106" cy="256.77778500988563" r="593.9946840037579" fill="#00bbf9" opacity="0.07225217134278551"/><circle cx="882.2205624967396" cy="404.57543559711786" r="79.26152163633647" fill="url(#sun78)" opacity="0.7046090750732945"/><circle cx="882.2205624967396" cy="404.57543559711786" r="74.26152163633647" fill="#03045e" opacity="0.3"/><rect x="21.314448064964836" y="592.131019847498" width="47.890012436055116" height="270.1671730424667" fill="#000044" opacity="0.5283029033868347" rx="2"/><rect x="41.29574650765763" y="602.131019847498" width="7.927415550669519" height="8.869571612884656" fill="#00bbf9" opacity="0.4100973515096348" rx="1"/><rect x="29.323243398643854" y="606.5658056539403" width="7.927415550669519" height="8.869571612884656" fill="#00f5d4" opacity="0.2050486757548174" rx="1"/><rect x="42.47311119536709" y="640.7263302821361" width="5.572686175250608" height="8.894915989342824" fill="#00bbf9" opacity="0.2619041483294927" rx="1"/><rect x="30.50060808635331" y="645.1737882768075" width="5.572686175250608" height="8.894915989342824" fill="#00f5d4" opacity="0.13095207416474636" rx="1"/><rect x="41.55812675192909" y="679.3216407167743" width="7.402655062126614" height="9.952437551681054" fill="#00bbf9" opacity="0.3322296008309884" rx="1"/><rect x="29.58562364291531" y="684.2978594926147" width="7.402655062126614" height="9.952437551681054" fill="#00f5d4" opacity="0.1661148004154942" rx="1"/><rect x="40.819860438308645" y="717.9169511514124" width="8.879187689367493" height="9.053674091364647" fill="#00bbf9" opacity="0.5424498622404528" rx="1"/><rect x="28.84735732929487" y="722.4437881970947" width="8.879187689367493" height="9.053674091364647" fill="#00f5d4" opacity="0.2712249311202264" rx="1"/><rect x="41.981457360783004" y="756.5122615860504" width="6.555993844418785" height="8.890792985188494" fill="#00bbf9" opacity="0.5186284444105412" rx="1"/><rect x="30.00895425176922" y="760.9576580786446" width="6.555993844418785" height="8.890792985188494" fill="#00f5d4" opacity="0.2593142222052706" rx="1"/><rect x="41.12184659347913" y="795.1075720206885" width="8.275215379026536" height="6.882816779632777" fill="#00bbf9" opacity="0.3349469153524719" rx="1"/><rect x="29.149343484465348" y="798.5489804105049" width="8.275215379026536" height="6.882816779632777" fill="#00f5d4" opacity="0.16747345767623595" rx="1"/><rect x="41.14567787995229" y="833.7028824553266" width="8.227552806080215" height="7.002683856757983" fill="#00bbf9" opacity="0.1962012983151249" rx="1"/><rect x="29.17317477093851" y="837.2042243837057" width="8.227552806080215" height="7.002683856757983" fill="#00f5d4" opacity="0.09810064915756245" rx="1"/><rect x="110.79219386122547" y="734.2922046627599" width="54.15231871049672" height="128.00598822720488" fill="#03045e" opacity="0.4770112881150589" rx="2"/><rect x="133.45233799603662" y="744.2922046627599" width="8.832030440874405" height="6.195282732182015" fill="#00bbf9" opacity="0.2640644693197833" rx="1"/><rect x="119.91425831841245" y="747.3898460288509" width="8.832030440874405" height="6.195282732182015" fill="#00f5d4" opacity="0.13203223465989164" rx="1"/><rect x="132.1269252464152" y="769.8934023082008" width="11.482855940117235" height="7.803002817976056" fill="#00bbf9" opacity="0.3596683877659189" rx="1"/><rect x="118.58884556879103" y="773.7949037171888" width="11.482855940117235" height="7.803002817976056" fill="#00f5d4" opacity="0.17983419388295946" rx="1"/><rect x="134.6850898584696" y="795.4945999536419" width="6.36652671600844" height="9.006236934803017" fill="#00bbf9" opacity="0.579056801059995" rx="1"/><rect x="121.14701018084543" y="799.9977184210434" width="6.36652671600844" height="9.006236934803017" fill="#00f5d4" opacity="0.2895284005299975" rx="1"/><rect x="135.2826479686298" y="821.0957975990829" width="5.17141049568807" height="8.22225706051622" fill="#00bbf9" opacity="0.1852807513636725" rx="1"/><rect x="121.74456829100562" y="825.206926129341" width="5.17141049568807" height="8.22225706051622" fill="#00f5d4" opacity="0.09264037568183625" rx="1"/><rect x="132.32827101615058" y="846.6969952445238" width="11.080164400646503" height="8.935180323881838" fill="#00bbf9" opacity="0.371388061407811" rx="1"/><rect x="118.7901913385264" y="851.1645854064648" width="11.080164400646503" height="8.935180323881838" fill="#00f5d4" opacity="0.1856940307039055" rx="1"/><rect x="229.70597194280296" y="646.8919590457557" width="54.622019916917665" height="215.40623384420905" fill="#000044" opacity="0.6002031924203511" rx="2"/><rect x="251.05146642741227" y="656.8919590457557" width="11.931030947698986" height="7.104361422617073" fill="#00bbf9" opacity="0.13064360912671397" rx="1"/><rect x="237.3959614481829" y="660.4441397570642" width="11.931030947698986" height="7.104361422617073" fill="#00f5d4" opacity="0.06532180456335698" rx="1"/><rect x="254.5604371805877" y="728.6940369938254" width="4.913089441348121" height="9.61907297457081" fill="#00bbf9" opacity="0.2871917058451082" rx="1"/><rect x="240.90493220135832" y="733.5035734811108" width="4.913089441348121" height="9.61907297457081" fill="#00f5d4" opacity="0.1435958529225541" rx="1"/><rect x="251.36135579712865" y="800.496114941895" width="11.311252208266232" height="8.543300851840364" fill="#00bbf9" opacity="0.5997287640580276" rx="1"/><rect x="237.70585081789926" y="804.7677653678152" width="11.311252208266232" height="8.543300851840364" fill="#00f5d4" opacity="0.2998643820290138" rx="1"/><rect x="316.0635633212172" y="489.87705344098555" width="60.741896226709216" height="372.4211394489792" fill="#000044" opacity="0.41136128076151046" rx="2"/><rect x="343.230443988" y="499.87705344098555" width="6.408134893143581" height="6.115901676033601" fill="#00bbf9" opacity="0.5428138169326852" rx="1"/><rect x="328.0449699313227" y="502.9350042790023" width="6.408134893143581" height="6.115901676033601" fill="#00f5d4" opacity="0.2714069084663426" rx="1"/><rect x="340.57242294805167" y="553.0800733622683" width="11.724176973040258" height="6.316566787733828" fill="#00bbf9" opacity="0.14224191770009742" rx="1"/><rect x="325.3869488913744" y="556.2383567561352" width="11.724176973040258" height="6.316566787733828" fill="#00f5d4" opacity="0.07112095885004871" rx="1"/><rect x="341.9068734680061" y="606.283093283551" width="9.055275933131407" height="7.1153037457529695" fill="#00bbf9" opacity="0.19230013787567152" rx="1"/><rect x="326.72139941132883" y="609.8407451564275" width="9.055275933131407" height="7.1153037457529695" fill="#00f5d4" opacity="0.09615006893783576" rx="1"/><rect x="341.22401024448067" y="659.4861132048338" width="10.42100238018227" height="7.122304684743822" fill="#00bbf9" opacity="0.44235449422671336" rx="1"/><rect x="326.0385361878034" y="663.0472655472057" width="10.42100238018227" height="7.122304684743822" fill="#00f5d4" opacity="0.22117724711335668" rx="1"/><rect x="341.69410752097224" y="712.6891331261165" width="9.480807827199065" height="6.003398559988336" fill="#00bbf9" opacity="0.4821347449864575" rx="1"/><rect x="326.508633464295" y="715.6908324061106" width="9.480807827199065" height="6.003398559988336" fill="#00f5d4" opacity="0.24106737249322874" rx="1"/><rect x="343.81584031055803" y="765.8921530473992" width="5.237342248027526" height="7.0667281050856054" fill="#00bbf9" opacity="0.1987596793795842" rx="1"/><rect x="328.63036625388077" y="769.425517099942" width="5.237342248027526" height="7.0667281050856054" fill="#00f5d4" opacity="0.0993798396897921" rx="1"/><rect x="342.1361189668359" y="819.0951729686819" width="8.596784935471785" height="9.44812735622938" fill="#00bbf9" opacity="0.4520905051501679" rx="1"/><rect x="326.95064491015864" y="823.8192366467966" width="8.596784935471785" height="9.44812735622938" fill="#00f5d4" opacity="0.22604525257508395" rx="1"/><rect x="434.07915454011686" y="499.8439710819731" width="31.735837329583205" height="362.45422180799164" fill="#03045e" opacity="0.5914442246527049" rx="2"/><rect x="447.50562699827327" y="509.8439710819731" width="4.882892413270402" height="8.886847401709959" fill="#00bbf9" opacity="0.3170048690673441" rx="1"/><rect x="439.5716676658775" y="514.2873947828281" width="4.882892413270402" height="8.886847401709959" fill="#00f5d4" opacity="0.15850243453367205" rx="1"/><rect x="444.11351669350785" y="582.3348154435714" width="11.66711302280126" height="8.87560589212822" fill="#00bbf9" opacity="0.5640970099633785" rx="1"/><rect x="436.1795573611121" y="586.7726183896356" width="11.66711302280126" height="8.87560589212822" fill="#00f5d4" opacity="0.28204850498168926" rx="1"/><rect x="447.7027242346097" y="654.8256598051698" width="4.488697940597473" height="6.906389533753132" fill="#00bbf9" opacity="0.5944653310800123" rx="1"/><rect x="439.76876490221395" y="658.2788545720464" width="4.488697940597473" height="6.906389533753132" fill="#00f5d4" opacity="0.29723266554000616" rx="1"/><rect x="446.73710521608353" y="727.3165041667681" width="6.41993597764986" height="7.14715915013737" fill="#00bbf9" opacity="0.10068950571601501" rx="1"/><rect x="438.80314588368776" y="730.8900837418369" width="6.41993597764986" height="7.14715915013737" fill="#00f5d4" opacity="0.050344752858007505" rx="1"/><rect x="445.2491763027622" y="799.8073485283664" width="9.39579380429252" height="9.86310078666152" fill="#00bbf9" opacity="0.18437609907341565" rx="1"/><rect x="437.3152169703664" y="804.7388989216972" width="9.39579380429252" height="9.86310078666152" fill="#00f5d4" opacity="0.09218804953670783" rx="1"/><rect x="530.6327780911113" y="624.6081376272739" width="82.57447766432875" height="237.69005526269086" fill="#000044" opacity="0.4694146538780571" rx="2"/><rect x="567.2048167452496" y="634.6081376272739" width="9.430400356052072" height="6.062012621216013" fill="#00bbf9" opacity="0.28742654162631986" rx="1"/><rect x="546.5611973291674" y="637.639143937882" width="9.430400356052072" height="6.062012621216013" fill="#00f5d4" opacity="0.14371327081315993" rx="1"/><rect x="568.279970350581" y="713.8381560481708" width="7.280093145389131" height="6.444380296497695" fill="#00bbf9" opacity="0.3424272399494488" rx="1"/><rect x="547.6363509344989" y="717.0603461964197" width="7.280093145389131" height="6.444380296497695" fill="#00f5d4" opacity="0.1712136199747244" rx="1"/><rect x="566.9114204911111" y="793.0681744690678" width="10.017192864328901" height="8.011639817154883" fill="#00bbf9" opacity="0.49020442482787285" rx="1"/><rect x="546.267801075029" y="797.0739943776452" width="10.017192864328901" height="8.011639817154883" fill="#00f5d4" opacity="0.24510221241393643" rx="1"/><rect x="624.5205039708175" y="568.4301376036439" width="86.8398175800312" height="293.8680552863209" fill="#000044" opacity="0.6082247693809273" rx="2"/><rect x="665.264202783779" y="578.4301376036439" width="5.352419954108172" height="7.166463039155691" fill="#00bbf9" opacity="0.13735640005612662" rx="1"/><rect x="643.5542483887712" y="582.0133691232217" width="5.352419954108172" height="7.166463039155691" fill="#00f5d4" opacity="0.06867820002806331" rx="1"/><rect x="662.1348111286558" y="637.203748660908" width="11.611203264354543" height="9.350215202977466" fill="#00bbf9" opacity="0.20831751513954194" rx="1"/><rect x="640.424856733648" y="641.8788562623968" width="11.611203264354543" height="9.350215202977466" fill="#00f5d4" opacity="0.10415875756977097" rx="1"/><rect x="662.0227490813941" y="695.9773597181722" width="11.835327358878061" height="6.238597654793085" fill="#00bbf9" opacity="0.22351498336613063" rx="1"/><rect x="640.3127946863863" y="699.0966585455687" width="11.835327358878061" height="6.238597654793085" fill="#00f5d4" opacity="0.11175749168306531" rx="1"/><rect x="662.7404211399422" y="754.7509707754364" width="10.399983241781587" height="8.492694986633186" fill="#00bbf9" opacity="0.5665496563461027" rx="1"/><rect x="641.0304667449344" y="758.997318268753" width="10.399983241781587" height="8.492694986633186" fill="#00f5d4" opacity="0.28327482817305133" rx="1"/><rect x="664.4785177938307" y="813.5245818327005" width="6.923789934004608" height="9.843004523739918" fill="#00bbf9" opacity="0.5265741219107467" rx="1"/><rect x="642.768563398823" y="818.4460840945704" width="6.923789934004608" height="9.843004523739918" fill="#00f5d4" opacity="0.26328706095537335" rx="1"/><rect x="708.1822917668671" y="672.0186520535542" width="75.96136313536236" height="190.2795408364105" fill="#000044" opacity="0.6033165529145199" rx="2"/><rect x="740.3540877695651" y="682.0186520535542" width="11.617771129966194" height="6.443703344195081" fill="#00bbf9" opacity="0.1495586823787444" rx="1"/><rect x="721.3637469857246" y="685.2405037256517" width="11.617771129966194" height="6.443703344195081" fill="#00f5d4" opacity="0.0747793411893722" rx="1"/><rect x="743.8187407240413" y="729.5885372626568" width="4.688465221013982" height="6.417651378646878" fill="#00bbf9" opacity="0.2731128940994648" rx="1"/><rect x="724.8283999402007" y="732.7973629519803" width="4.688465221013982" height="6.417651378646878" fill="#00f5d4" opacity="0.1365564470497324" rx="1"/><rect x="742.5349692600726" y="777.1584224717594" width="7.256008148951458" height="6.895755745679083" fill="#00bbf9" opacity="0.2156268612518038" rx="1"/><rect x="723.544628476232" y="780.6063003445989" width="7.256008148951458" height="6.895755745679083" fill="#00f5d4" opacity="0.1078134306259019" rx="1"/><rect x="741.9905042359215" y="824.7283076808621" width="8.34493819725349" height="7.502323560766485" fill="#00bbf9" opacity="0.3560131394434751" rx="1"/><rect x="723.000163452081" y="828.4794694612453" width="8.34493819725349" height="7.502323560766485" fill="#00f5d4" opacity="0.17800656972173756" rx="1"/><rect x="818.8001180907956" y="497.75331132061626" width="50.06934428123509" height="364.5448815693485" fill="#000044" opacity="0.6332593560296249" rx="2"/><rect x="838.7847079885867" y="507.75331132061626" width="10.10016448565297" height="6.010969932193628" fill="#00bbf9" opacity="0.5993865243157807" rx="1"/><rect x="826.267371918278" y="510.75879628671305" width="10.10016448565297" height="6.010969932193628" fill="#00f5d4" opacity="0.2996932621578903" rx="1"/><rect x="839.5036433107706" y="580.662287634486" width="8.662293841285233" height="6.718768360260587" fill="#00bbf9" opacity="0.3262957779984679" rx="1"/><rect x="826.9863072404619" y="584.0216718146163" width="8.662293841285233" height="6.718768360260587" fill="#00f5d4" opacity="0.16314788899923394" rx="1"/><rect x="838.673994608172" y="653.5712639483556" width="10.321591246482356" height="8.882608380839836" fill="#00bbf9" opacity="0.3246420756505435" rx="1"/><rect x="826.1566585378633" y="658.0125681387756" width="10.321591246482356" height="8.882608380839836" fill="#00f5d4" opacity="0.16232103782527174" rx="1"/><rect x="840.7631605225308" y="726.4802402622254" width="6.1432594177646695" height="9.715684859015905" fill="#00bbf9" opacity="0.10341896619727346" rx="1"/><rect x="828.2458244522221" y="731.3380826917333" width="6.1432594177646695" height="9.715684859015905" fill="#00f5d4" opacity="0.05170948309863673" rx="1"/><rect x="840.9541744538722" y="799.3892165760951" width="5.76123155508219" height="7.7400208128942225" fill="#00bbf9" opacity="0.10298275635647186" rx="1"/><rect x="828.4368383835633" y="803.2592269825423" width="5.76123155508219" height="7.7400208128942225" fill="#00f5d4" opacity="0.05149137817823593" rx="1"/><rect x="927.8671896213748" y="679.9824265716557" width="34.19280496523548" height="182.31576631830904" fill="#03045e" opacity="0.5428680650058361" rx="2"/><rect x="942.9324927891838" y="689.9824265716557" width="4.062198629617272" height="8.557331638074789" fill="#00bbf9" opacity="0.47168153093002774" rx="1"/><rect x="934.384291547875" y="694.2610923906931" width="4.062198629617272" height="8.557331638074789" fill="#00f5d4" opacity="0.23584076546501387" rx="1"/><rect x="940.3919956960622" y="720.3683876247071" width="9.143192815860544" height="6.04163058755026" fill="#00bbf9" opacity="0.5726533441507847" rx="1"/><rect x="931.8437944547534" y="723.3892029184823" width="9.143192815860544" height="6.04163058755026" fill="#00f5d4" opacity="0.28632667207539236" rx="1"/><rect x="939.0022514" y="750.7543486777587" width="11.922681407984971" height="7.55713985989735" fill="#00bbf9" opacity="0.18146795818616357" rx="1"/><rect x="930.4540501586912" y="754.5329186077074" width="11.922681407984971" height="7.55713985989735" fill="#00f5d4" opacity="0.09073397909308178" rx="1"/><rect x="941.8334402284122" y="781.1403097308101" width="6.260303751160461" height="6.214346364190417" fill="#00bbf9" opacity="0.12162797237318661" rx="1"/><rect x="933.2852389871034" y="784.2474829129053" width="6.260303751160461" height="6.214346364190417" fill="#00f5d4" opacity="0.060813986186593304" rx="1"/><rect x="940.1942252764856" y="811.5262707838617" width="9.53873365501378" height="6.863602625407186" fill="#00bbf9" opacity="0.43980716807763265" rx="1"/><rect x="931.6460240351768" y="814.9580720965653" width="9.53873365501378" height="6.863602625407186" fill="#00f5d4" opacity="0.21990358403881632" rx="1"/><rect x="940.8560044484269" y="841.9122318369132" width="8.215175311131212" height="6.44189538258172" fill="#00bbf9" opacity="0.5463420258710026" rx="1"/><rect x="932.3078032071181" y="845.133179528204" width="8.215175311131212" height="6.44189538258172" fill="#00f5d4" opacity="0.2731710129355013" rx="1"/><rect x="1019.3207122832425" y="620.0638531986773" width="30.33673379578086" height="242.23433969128743" fill="#03045e" opacity="0.523893646668618" rx="2"/><rect x="1032.3083152733602" y="630.0638531986773" width="4.361527815545333" height="9.873499634646228" fill="#00bbf9" opacity="0.2390386482558769" rx="1"/><rect x="1024.724131824415" y="635.0006030160004" width="4.361527815545333" height="9.873499634646228" fill="#00f5d4" opacity="0.11951932412793845" rx="1"/><rect x="1029.3452495878973" y="710.8086330957731" width="10.287659186471174" height="8.993031018179149" fill="#00bbf9" opacity="0.42662938903705905" rx="1"/><rect x="1021.7610661389521" y="715.3051486048627" width="10.287659186471174" height="8.993031018179149" fill="#00f5d4" opacity="0.21331469451852952" rx="1"/><rect x="1029.799859425386" y="791.553412992869" width="9.378439511493417" height="8.653256575263399" fill="#00bbf9" opacity="0.322585800155668" rx="1"/><rect x="1022.2156759764409" y="795.8800412805007" width="9.378439511493417" height="8.653256575263399" fill="#00f5d4" opacity="0.161292900077834" rx="1"/><rect x="1123.0374605327222" y="677.8261059145038" width="44.54071245960442" height="184.4720869754609" fill="#000044" opacity="0.6036598514308361" rx="2"/><rect x="1141.0420635561313" y="687.8261059145038" width="8.531506412786317" height="6.0381696755155385" fill="#00bbf9" opacity="0.537919047879502" rx="1"/><rect x="1129.90688544123" y="690.8451907522616" width="8.531506412786317" height="6.0381696755155385" fill="#00f5d4" opacity="0.268959523939751" rx="1"/><rect x="1139.5421931074088" y="733.9441276583691" width="11.531247310231265" height="9.961978094643442" fill="#00bbf9" opacity="0.4777322303219075" rx="1"/><rect x="1128.4070149925076" y="738.9251167056908" width="11.531247310231265" height="9.961978094643442" fill="#00f5d4" opacity="0.23886611516095374" rx="1"/><rect x="1141.7334495649275" y="780.0621494022344" width="7.1487343951940385" height="8.32716923540625" fill="#00bbf9" opacity="0.3686965163491426" rx="1"/><rect x="1130.5982714500262" y="784.2257340199375" width="7.1487343951940385" height="8.32716923540625" fill="#00f5d4" opacity="0.1843482581745713" rx="1"/><rect x="1140.5595240130683" y="826.1801711460995" width="9.496585498912395" height="9.392065361931936" fill="#00bbf9" opacity="0.5564187999247617" rx="1"/><rect x="1129.424345898167" y="830.8762038270654" width="9.496585498912395" height="9.392065361931936" fill="#00f5d4" opacity="0.27820939996238087" rx="1"/><rect x="1235.142561941943" y="599.0898394489404" width="71.23115352383608" height="263.2083534410243" fill="#000044" opacity="0.5089284183478282" rx="2"/><rect x="1265.145225300291" y="609.0898394489404" width="11.225826807139867" height="6.11356972346864" fill="#00bbf9" opacity="0.1995341263710368" rx="1"/><rect x="1247.337436919332" y="612.1466243106747" width="11.225826807139867" height="6.11356972346864" fill="#00f5d4" opacity="0.0997670631855184" rx="1"/><rect x="1265.7518398118925" y="696.8259572626152" width="10.012597783937258" height="6.975489692989618" fill="#00bbf9" opacity="0.49113223177640053" rx="1"/><rect x="1247.9440514309335" y="700.3137021091101" width="10.012597783937258" height="6.975489692989618" fill="#00f5d4" opacity="0.24556611588820026" rx="1"/><rect x="1266.2192229592185" y="784.56207507629" width="9.07783148928495" height="8.634910914729096" fill="#00bbf9" opacity="0.5636788408885893" rx="1"/><rect x="1248.4114345782596" y="788.8795305336545" width="9.07783148928495" height="8.634910914729096" fill="#00f5d4" opacity="0.28183942044429466" rx="1"/><rect x="1335.8733330630453" y="674.7279321017508" width="61.56307744131496" height="187.570260788214" fill="#03045e" opacity="0.6757074007242236" rx="2"/><rect x="1364.3989580641082" y="684.7279321017508" width="4.511827439188917" height="6.0958905229568225" fill="#00bbf9" opacity="0.3519566774722088" rx="1"/><rect x="1349.0081887037795" y="687.7758773632291" width="4.511827439188917" height="6.0958905229568225" fill="#00f5d4" opacity="0.1759783387361044" rx="1"/><rect x="1361.375571122113" y="731.6204972988043" width="10.558601323179575" height="9.430828025432032" fill="#00bbf9" opacity="0.4100308359856789" rx="1"/><rect x="1345.9848017617842" y="736.3359113115202" width="10.558601323179575" height="9.430828025432032" fill="#00f5d4" opacity="0.20501541799283945" rx="1"/><rect x="1361.4897750017492" y="778.5130624958578" width="10.330193563906986" height="8.964010676127861" fill="#00bbf9" opacity="0.18113323864087771" rx="1"/><rect x="1346.0990056414205" y="782.9950678339217" width="10.330193563906986" height="8.964010676127861" fill="#00f5d4" opacity="0.09056661932043886" rx="1"/><rect x="1364.0534535826823" y="825.4056276929113" width="5.202836402040635" height="7.034403864535132" fill="#00bbf9" opacity="0.13137887467895143" rx="1"/><rect x="1348.6626842223536" y="828.9228296251788" width="5.202836402040635" height="7.034403864535132" fill="#00f5d4" opacity="0.06568943733947571" rx="1"/><rect x="1432.7886863277463" y="745.1004230056658" width="31.068174052300904" height="117.19776988429896" fill="#03045e" opacity="0.5597112484648152" rx="2"/><rect x="1444.795660246508" y="755.1004230056658" width="7.054226214777265" height="8.392208233101343" fill="#00bbf9" opacity="0.13730205587048597" rx="1"/><rect x="1437.0286167334327" y="759.2965271222165" width="7.054226214777265" height="8.392208233101343" fill="#00f5d4" opacity="0.06865102793524298" rx="1"/><rect x="1444.5754718559933" y="784.3998654767405" width="7.4946029958069795" height="6.061003548107344" fill="#00bbf9" opacity="0.3760118793873144" rx="1"/><rect x="1436.808428342918" y="787.4303672507941" width="7.4946029958069795" height="6.061003548107344" fill="#00f5d4" opacity="0.1880059396936572" rx="1"/><rect x="1443.3484054030926" y="813.6993079478152" width="9.948735901608302" height="9.176057206274955" fill="#00bbf9" opacity="0.4231453288633249" rx="1"/><rect x="1435.5813618900172" y="818.2873365509527" width="9.948735901608302" height="9.176057206274955" fill="#00f5d4" opacity="0.21157266443166245" rx="1"/><rect x="1443.262440701934" y="842.99875041889" width="10.120665303925207" height="8.632107396291595" fill="#00bbf9" opacity="0.3440146150169928" rx="1"/><rect x="1435.4953971888588" y="847.3148041170358" width="10.120665303925207" height="8.632107396291595" fill="#00f5d4" opacity="0.1720073075084964" rx="1"/><rect x="1518.0907219944145" y="581.7017004782572" width="84.32696991933672" height="280.59649241170763" fill="#03045e" opacity="0.47151434569887685" rx="2"/><rect x="1556.5418908271215" y="591.7017004782572" width="7.4246322539226695" height="6.3794329921667075" fill="#00bbf9" opacity="0.23870699369318482" rx="1"/><rect x="1535.4601483472875" y="594.8914169743406" width="7.4246322539226695" height="6.3794329921667075" fill="#00f5d4" opacity="0.11935349684659241" rx="1"/><rect x="1556.089698227131" y="685.2338646154931" width="8.32901745390357" height="7.193223243857087" fill="#00bbf9" opacity="0.3458809924418761" rx="1"/><rect x="1535.007955747297" y="688.8304762374216" width="8.32901745390357" height="7.193223243857087" fill="#00f5d4" opacity="0.17294049622093804" rx="1"/><rect x="1557.5340505683519" y="778.766028752729" width="5.440312771461977" height="7.838285713884581" fill="#00bbf9" opacity="0.2341948277862265" rx="1"/><rect x="1536.4523080885178" y="782.6851716096712" width="5.440312771461977" height="7.838285713884581" fill="#00f5d4" opacity="0.11709741389311325" rx="1"/><rect x="1619.5558738274888" y="747.5097251468128" width="52.1484104735191" height="114.78846774315193" fill="#000044" opacity="0.6636571945072285" rx="2"/><rect x="1641.5278217933928" y="757.5097251468128" width="8.204514541710846" height="8.651460341795222" fill="#00bbf9" opacity="0.22818946284898312" rx="1"/><rect x="1628.490719175013" y="761.8354553177104" width="8.204514541710846" height="8.651460341795222" fill="#00f5d4" opacity="0.11409473142449156" rx="1"/><rect x="1640.4581360527475" y="780.4674186954431" width="10.343886023001719" height="9.204886821844822" fill="#00bbf9" opacity="0.5839850160023162" rx="1"/><rect x="1627.4210334343677" y="785.0698621063656" width="10.343886023001719" height="9.204886821844822" fill="#00f5d4" opacity="0.2919925080011581" rx="1"/><rect x="1640.0867154875998" y="803.4251122440736" width="11.086727153297218" height="9.543109584493354" fill="#00bbf9" opacity="0.31775471971318003" rx="1"/><rect x="1627.04961286922" y="808.1966670363203" width="11.086727153297218" height="9.543109584493354" fill="#00f5d4" opacity="0.15887735985659002" rx="1"/><rect x="1640.5639185364764" y="826.382805792704" width="10.132321055543684" height="7.622000136790332" fill="#00bbf9" opacity="0.41499063906143197" rx="1"/><rect x="1627.5268159180966" y="830.1938058610991" width="10.132321055543684" height="7.622000136790332" fill="#00f5d4" opacity="0.20749531953071598" rx="1"/><rect x="1643.5109677730877" y="849.3404993413343" width="4.2382225823212005" height="6.029190192937197" fill="#00bbf9" opacity="0.10334505771830331" rx="1"/><rect x="1630.473865154708" y="852.3550944378029" width="4.2382225823212005" height="6.029190192937197" fill="#00f5d4" opacity="0.051672528859151655" rx="1"/><rect x="1723.5427533958612" y="708.3077710374043" width="61.35302573241131" height="153.99042185256036" fill="#000044" opacity="0.5112013323957104" rx="2"/><rect x="1751.4079708391525" y="718.3077710374043" width="5.622590845828547" height="6.946426559459983" fill="#00bbf9" opacity="0.42538406837856957" rx="1"/><rect x="1736.0697144060496" y="721.7809843171343" width="5.622590845828547" height="6.946426559459983" fill="#00f5d4" opacity="0.21269203418928478" rx="1"/><rect x="1749.950594339153" y="756.8053765005444" width="8.537343845827817" height="6.125179485447048" fill="#00bbf9" opacity="0.3446733264356557" rx="1"/><rect x="1734.61233790605" y="759.8679662432679" width="8.537343845827817" height="6.125179485447048" fill="#00f5d4" opacity="0.17233666321782784" rx="1"/><rect x="1748.4634309618123" y="795.3029819636845" width="11.511670600509195" height="8.87849278628791" fill="#00bbf9" opacity="0.20827298825799323" rx="1"/><rect x="1733.1251745287093" y="799.7422283568285" width="11.511670600509195" height="8.87849278628791" fill="#00f5d4" opacity="0.10413649412899662" rx="1"/><rect x="1750.3927913305506" y="833.8005874268246" width="7.652949863032659" height="9.96366000547159" fill="#00bbf9" opacity="0.32312488644922266" rx="1"/><rect x="1735.0545348974476" y="838.7824174295604" width="7.652949863032659" height="9.96366000547159" fill="#00f5d4" opacity="0.16156244322461133" rx="1"/><rect x="1821.8206794016428" y="649.7534091234564" width="61.55871668633975" height="212.5447837665083" fill="#03045e" opacity="0.4058738888953519" rx="2"/><rect x="1850.3187596020416" y="659.7534091234564" width="4.5625562855421" height="6.9995347375514765" fill="#00bbf9" opacity="0.47431865461969713" rx="1"/><rect x="1834.9290804304567" y="663.2531764922322" width="4.5625562855421" height="6.9995347375514765" fill="#00f5d4" opacity="0.23715932730984857" rx="1"/><rect x="1849.0800244232678" y="695.1775397512079" width="7.040026643089956" height="9.828392074403444" fill="#00bbf9" opacity="0.42616358479162764" rx="1"/><rect x="1833.6903452516829" y="700.0917357884096" width="7.040026643089956" height="9.828392074403444" fill="#00f5d4" opacity="0.21308179239581382" rx="1"/><rect x="1847.89047756503" y="730.6016703789592" width="9.419120359564927" height="7.482340222569727" fill="#00bbf9" opacity="0.17720922063505493" rx="1"/><rect x="1832.5007983934452" y="734.342840490244" width="9.419120359564927" height="7.482340222569727" fill="#00f5d4" opacity="0.08860461031752746" rx="1"/><rect x="1850.3701017019587" y="766.0258010067106" width="4.459872085708164" height="7.465721092528133" fill="#00bbf9" opacity="0.4240515953684346" rx="1"/><rect x="1834.9804225303737" y="769.7586615529747" width="4.459872085708164" height="7.465721092528133" fill="#00f5d4" opacity="0.2120257976842173" rx="1"/><rect x="1850.174824673196" y="801.449931634462" width="4.850426143233298" height="7.152788503363912" fill="#00bbf9" opacity="0.11455211872573759" rx="1"/><rect x="1834.7851455016112" y="805.0263258861439" width="4.850426143233298" height="7.152788503363912" fill="#00f5d4" opacity="0.057276059362868795" rx="1"/><rect x="1848.8597807745905" y="836.8740622622133" width="7.480513940444336" height="8.1412251354524" fill="#00bbf9" opacity="0.38915211390451343" rx="1"/><rect x="1833.4701016030056" y="840.9446748299396" width="7.480513940444336" height="8.1412251354524" fill="#00f5d4" opacity="0.19457605695225672" rx="1"/><path d="M649.5438803754616 973.165668703887 Q663.3167195793513 914.397115007601 666.0712874201292 855.6285613113149" stroke="#000011" stroke-width="5.472731403418056" fill="none" stroke-linecap="round"/><path d="M666.0712874201292 855.6285613113149 Q709.3624670680991 835.6285613113149 722.1531215194038 855.6285613113149" stroke="#00002b" stroke-width="2.891642298291354" fill="none" stroke-linecap="round" opacity="0.6"/><path d="M666.0712874201292 855.6285613113149 Q698.6206155592121 841.5145846939267 697.3642675132797 867.4006080765387" stroke="#00002b" stroke-width="3.888231444146538" fill="none" stroke-linecap="round" opacity="0.6"/><path d="M666.0712874201292 855.6285613113149 Q666.9833828742891 842.5244201364553 655.5783889057691 869.4202789615957" stroke="#00002b" stroke-width="2.924143962311592" fill="none" stroke-linecap="round" opacity="0.6"/><path d="M666.0712874201292 855.6285613113149 Q638.3565084034606 840.5712765104998 597.6469282983239 865.5139917096848" stroke="#00002b" stroke-width="3.5877316243917985" fill="none" stroke-linecap="round" opacity="0.6"/><path d="M666.0712874201292 855.6285613113149 Q661.3269110946737 833.3127337812455 634.0121846403938 850.9969062511761" stroke="#00002b" stroke-width="3.1277056352998374" fill="none" stroke-linecap="round" opacity="0.6"/><path d="M666.0712874201292 855.6285613113149 Q665.3134804777501 828.6593425784927 655.4667627710342 841.6901238456705" stroke="#00002b" stroke-width="3.377088819485411" fill="none" stroke-linecap="round" opacity="0.6"/><path d="M666.0712874201292 855.6285613113149 Q675.9708145855542 831.9310204291572 685.7292238056327 848.2334795469995" stroke="#00002b" stroke-width="2.6665748955371265" fill="none" stroke-linecap="round" opacity="0.6"/><path d="M332.8849756002624 839.6956497662924 Q318.59760609888417 772.6683883107427 315.74013219860853 705.641126855193" stroke="#000011" stroke-width="7.726125163893711" fill="none" stroke-linecap="round"/><path d="M315.74013219860853 705.641126855193 Q352.971623744809 685.641126855193 388.8855371742709 705.641126855193" stroke="#00002b" stroke-width="3.3907440084476823" fill="none" stroke-linecap="round" opacity="0.6"/><path d="M315.74013219860853 705.641126855193 Q335.33225337858823 689.7301106618288 337.4791706876965 713.8190944684648" stroke="#00002b" stroke-width="3.989756255408227" fill="none" stroke-linecap="round" opacity="0.6"/><path d="M315.74013219860853 705.641126855193 Q313.66033602128 690.9523911047462 307.6583894937937 716.2636553542994" stroke="#00002b" stroke-width="2.3083317857953563" fill="none" stroke-linecap="round" opacity="0.6"/><path d="M315.74013219860853 705.641126855193 Q286.2772332185885 690.5365818315524 247.97001883616218 715.4320368079119" stroke="#00002b" stroke-width="3.822691917378151" fill="none" stroke-linecap="round" opacity="0.6"/><path d="M315.74013219860853 705.641126855193 Q298.7071280561427 682.4312700251855 271.30455628231266 699.221413195178" stroke="#00002b" stroke-width="3.285551499874692" fill="none" stroke-linecap="round" opacity="0.6"/><path d="M315.74013219860853 705.641126855193 Q327.96173149249927 679.6853948689618 306.67775245811544 693.7296628827305" stroke="#00002b" stroke-width="3.3619752827477587" fill="none" stroke-linecap="round" opacity="0.6"/><path d="M1874.253871579248 887.2494046080973 Q1862.6166584069415 779.5922139670216 1860.28921577248 671.935023325946" stroke="#000011" stroke-width="7.040421625375846" fill="none" stroke-linecap="round"/><path d="M1860.28921577248 671.935023325946 Q1903.0220212093607 651.935023325946 1932.0856786021232 671.935023325946" stroke="#00002b" stroke-width="2.604361463944512" fill="none" stroke-linecap="round" opacity="0.6"/><path d="M1860.28921577248 671.935023325946 Q1886.2483976491737 660.5533949518149 1906.1086959533443 689.1717665776838" stroke="#00002b" stroke-width="3.5168984186642103" fill="none" stroke-linecap="round" opacity="0.6"/><path d="M1860.28921577248 671.935023325946 Q1871.3517806551515 660.1357926969445 1847.8107351464198 688.3365620679431" stroke="#00002b" stroke-width="2.7473848212387844" fill="none" stroke-linecap="round" opacity="0.6"/><path d="M1860.28921577248 671.935023325946 Q1862.8865746646172 654.3977543027845 1826.196458656436 676.8604852796229" stroke="#00002b" stroke-width="2.4591496089611087" fill="none" stroke-linecap="round" opacity="0.6"/><path d="M1860.28921577248 671.935023325946 Q1852.9796826309994 649.1098267731195 1821.178675162704 666.2846302202931" stroke="#00002b" stroke-width="3.851378782617715" fill="none" stroke-linecap="round" opacity="0.6"/><path d="M1827.4339726351745 812.5473400374286 Q1836.147602623363 747.3739357659067 1837.8903286210004 682.2005314943848" stroke="#000011" stroke-width="7.019460434797095" fill="none" stroke-linecap="round"/><path d="M1837.8903286210004 682.2005314943848 Q1870.1431315751147 662.2005314943848 1880.0591194778817 682.2005314943848" stroke="#00002b" stroke-width="2.746118902868153" fill="none" stroke-linecap="round" opacity="0.6"/><path d="M1837.8903286210004 682.2005314943848 Q1856.098625016371 666.1596100411557 1858.9387271913008 690.1186885879266" stroke="#00002b" stroke-width="2.5300989152235207" fill="none" stroke-linecap="round" opacity="0.6"/><path d="M1837.8903286210004 682.2005314943848 Q1845.6546165872142 667.4519413850678 1829.8996616950253 692.7033512757507" stroke="#00002b" stroke-width="2.667633514541116" fill="none" stroke-linecap="round" opacity="0.6"/><path d="M1837.8903286210004 682.2005314943848 Q1816.5391514419712 667.0253689193706 1771.09780763456 691.8502063443565" stroke="#00002b" stroke-width="3.173464426578364" fill="none" stroke-linecap="round" opacity="0.6"/><path d="M1837.8903286210004 682.2005314943848 Q1811.9638673552597 657.2283424276691 1769.0579487220793 672.2561533609535" stroke="#00002b" stroke-width="3.6778974681342715" fill="none" stroke-linecap="round" opacity="0.6"/><path d="M1837.8903286210004 682.2005314943848 Q1831.204720997124 652.5667271288723 1823.23130875447 662.93292276336" stroke="#00002b" stroke-width="2.495658744707624" fill="none" stroke-linecap="round" opacity="0.6"/><path d="M1837.8903286210004 682.2005314943848 Q1871.5036567561115 656.8334026294781 1866.4246115841056 671.4662737645713" stroke="#00002b" stroke-width="3.798527429299086" fill="none" stroke-linecap="round" opacity="0.6"/><rect x="0" y="1000" width="1920" height="80" fill="#000038" opacity="0.8"/><line x1="0" y1="1040" x2="1920" y2="1040" stroke="#00bbf9" stroke-opacity="0.15" stroke-width="2" stroke-dasharray="30,20"/><rect x="0" y="930" width="1920" height="150" fill="url(#glow78)"/><text x="1900" y="1060" font-family="Arial, sans-serif" font-size="11" fill="#fff" opacity="0.08" text-anchor="end" letter-spacing="2">GTA 6 REWARDS · WALLPAPER 079</text>
</svg>