<?xml version="1.0" encoding="UTF-8"?>
<svg xmlns="http://www.w3.org/2000/svg" width="1920" height="1080" viewBox="0 0 1920 1080">
<defs>
    <linearGradient id="bg39" x1="0%" y1="0%" x2="0%" y2="100%">
      <stop offset="0%" stop-color="#00bbf9"/>
      <stop offset="50%" stop-color="#0088c6"/>
      <stop offset="100%" stop-color="#00bbf9"/>
    </linearGradient>
    <linearGradient id="sun39" x1="0%" y1="0%" x2="100%" y2="100%">
      <stop offset="0%" stop-color="#f15bb5"/>
      <stop offset="100%" stop-color="#fee440"/>
    </linearGradient>
    <radialGradient id="glow39" cx="50%" cy="70%" r="50%">
      <stop offset="0%" stop-color="#f15bb5" stop-opacity="0.3"/>
      <stop offset="100%" stop-color="#00bbf9" stop-opacity="0"/>
    </radialGradient>
  </defs><rect width="1920" height="1080" fill="url(#bg39)"/><circle cx="1203.595988942216" cy="416.4121869524038" r="611.1876540377707" fill="#f15bb5" opacity="0.13497150411945105"/><circle cx="1403.595988942216" cy="316.4121869524038" r="520.7768364624998" fill="#fee440" opacity="0.050244417153355765"/><line x1="0" y1="980" x2="1920" y2="980" stroke="#fee440" stroke-opacity="0.05" stroke-width="2"/><line x1="0" y1="935" x2="1920" y2="935" stroke="#fee440" stroke-opacity="0.049" stroke-width="0.5"/><line x1="0" y1="890" x2="1920" y2="890" stroke="#fee440" stroke-opacity="0.048" stroke-width="0.5"/><line x1="0" y1="845" x2="1920" y2="845" stroke="#fee440" stroke-opacity="0.047" stroke-width="0.5"/><line x1="0" y1="800" x2="1920" y2="800" stroke="#fee440" stroke-opacity="0.046" stroke-width="0.5"/><line x1="0" y1="755" x2="1920" y2="755" stroke="#fee440" stroke-opacity="0.045" stroke-width="0.5"/><line x1="0" y1="710" x2="1920" y2="710" stroke="#fee440" stroke-opacity="0.044" stroke-width="0.5"/><line x1="0" y1="665" x2="1920" y2="665" stroke="#fee440" stroke-opacity="0.043" stroke-width="0.5"/><line x1="0" y1="620" x2="1920" y2="620" stroke="#fee440" stroke-opacity="0.041999999999999996" stroke-width="0.5"/><line x1="0" y1="575" x2="1920" y2="575" stroke="#fee440" stroke-opacity="0.041" stroke-width="0.5"/><line x1="0" y1="530" x2="1920" y2="530" stroke="#fee440" stroke-opacity="0.04" stroke-width="0.5"/><line x1="0" y1="485" x2="1920" y2="485" stroke="#fee440" stroke-opacity="0.039" stroke-width="0.5"/><line x1="0" y1="440" x2="1920" y2="440" stroke="#fee440" stroke-opacity="0.038" stroke-width="0.5"/><line x1="0" y1="395" x2="1920" y2="395" stroke="#fee440" stroke-opacity="0.037" stroke-width="0.5"/><line x1="0" y1="350" x2="1920" y2="350" stroke="#fee440" stroke-opacity="0.036" stroke-width="0.5"/><line x1="0" y1="305" x2="1920" y2="305" stroke="#fee440" stroke-opacity="0.034999999999999996" stroke-width="0.5"/><line x1="0" y1="260" x2="1920" y2="260" stroke="#fee440" stroke-opacity="0.033999999999999996" stroke-width="0.5"/><line x1="0" y1="215" x2="1920" y2="215" stroke="#fee440" stroke-opacity="0.033" stroke-width="0.5"/><line x1="0" y1="170" x2="1920" y2="170" stroke="#fee440" stroke-opacity="0.032" stroke-width="0.5"/><line x1="0" y1="125" x2="1920" y2="125" stroke="#fee440" stroke-opacity="0.031" stroke-width="0.5"/><line x1="560" y1="1080" x2="860" y2="580" stroke="#f15bb5" stroke-opacity="0.04" stroke-width="1"/><line x1="640" y1="1080" x2="880" y2="590" stroke="#f15bb5" stroke-opacity="0.04" stroke-width="1"/><line x1="720" y1="1080" x2="900" y2="600" stroke="#f15bb5" stroke-opacity="0.04" stroke-width="1"/><line x1="800" y1="1080" x2="920" y2="610" stroke="#f15bb5" stroke-opacity="0.04" stroke-width="1"/><line x1="880" y1="1080" x2="940" y2="620" stroke="#f15bb5" stroke-opacity="0.04" stroke-width="1"/><line x1="960" y1="1080" x2="960" y2="630" stroke="#f15bb5" stroke-opacity="0.04" stroke-width="1"/><line x1="1040" y1="1080" x2="980" y2="620" stroke="#f15bb5" stroke-opacity="0.04" stroke-width="1"/><line x1="1120" y1="1080" x2="1000" y2="610" stroke="#f15bb5" stroke-opacity="0.04" stroke-width="1"/><line x1="1200" y1="1080" x2="1020" y2="600" stroke="#f15bb5" stroke-opacity="0.04" stroke-width="1"/><line x1="1280" y1="1080" x2="1040" y2="590" stroke="#f15bb5" stroke-opacity="0.04" stroke-width="1"/><line x1="1360" y1="1080" x2="1060" y2="580" stroke="#f15bb5" stroke-opacity="0.04" stroke-width="1"/><circle cx="1439.157073558112" cy="383.90889589998613" r="71.29036899918931" fill="url(#sun39)" opacity="0.8722761519421535"/><circle cx="1439.157073558112" cy="383.90889589998613" r="66.29036899918931" fill="#00bbf9" opacity="0.3"/><pattern id="scan39" width="1920" height="4" patternUnits="userSpaceOnUse">
      <line x1="0" y1="0" x2="1920" y2="0" stroke="#000" stroke-opacity="0.05" stroke-width="1"/>
    </pattern>
    <rect width="1920" height="1080" fill="url(#scan39)"/><circle cx="1023.5578235386772" cy="121.36363746071319" r="1.034727032304445" fill="#fff" opacity="0.5032000447398052"/><circle cx="1165.8704006406176" cy="41.05733776303412" r="0.6679495723610627" fill="#fff" opacity="0.7277698253113241"/><circle cx="1718.8415863641633" cy="390.5921697706432" r="1.2211214002969493" fill="#fff" opacity="0.6687722335264021"/><circle cx="1844.2109897556275" cy="270.7818410244728" r="0.7182828265284846" fill="#fff" opacity="0.6184375915253622"/><circle cx="905.8295418941019" cy="23.647593123756256" r="1.225891062227518" fill="#fff" opacity="0.2598827656032245"/><circle cx="1408.7043185831756" cy="250.2913073213518" r="1.2404065281712464" fill="#fff" opacity="0.7365138679129337"/><circle cx="558.1183600235074" cy="5.969139722634372" r="0.7395079465907785" fill="#fff" opacity="0.2724311055318525"/><circle cx="661.239298288999" cy="311.8936702441177" r="1.4973210484016037" fill="#fff" opacity="0.2927260718989945"/><circle cx="314.5127200322488" cy="175.14458062479844" r="1.0975278523046357" fill="#fff" opacity="0.4683375944076892"/><circle cx="1858.275365964108" cy="217.7962124966542" r="0.9137170666162198" fill="#fff" opacity="0.6700792776118216"/><circle cx="1003.4958826851788" cy="299.30782410393186" r="1.9996840731472902" fill="#fff" opacity="0.5244342669203026"/><circle cx="1300.1061208592976" cy="185.96475408458264" r="0.5676087425247787" fill="#fff" opacity="0.561463480852885"/><circle cx="1321.1394862926425" cy="232.7647359168075" r="1.2195735868810615" fill="#fff" opacity="0.6715743906496965"/><circle cx="829.1791992329944" cy="245.86132712426158" r="1.4183034627740978" fill="#fff" opacity="0.5546572322851646"/><circle cx="1077.1925481681697" cy="211.71117177319508" r="0.6839948330735776" fill="#fff" opacity="0.6144533480085557"/><circle cx="956.3911894700469" cy="107.21653505303351" r="1.8064448879581048" fill="#fff" opacity="0.20384424477905136"/><circle cx="389.1919537794758" cy="185.30680804543823" r="0.5592536017203829" fill="#fff" opacity="0.40196820511528486"/><circle cx="225.28959503054844" cy="288.0098233222984" r="1.106592302235447" fill="#fff" opacity="0.4578297725081979"/><circle cx="686.6659540046626" cy="195.61820947090587" r="0.9408243436927033" fill="#fff" opacity="0.5847099572850182"/><circle cx="1852.665311231433" cy="270.860493585202" r="1.5567992313431573" fill="#fff" opacity="0.6880382783915937"/><circle cx="493.8725451784843" cy="190.53502631898388" r="1.9879398411111766" fill="#fff" opacity="0.36708211502225185"/><circle cx="1805.2817491919923" cy="399.02115996159176" r="0.7879316436098729" fill="#fff" opacity="0.232142626129124"/><circle cx="270.4799196753837" cy="41.30623039819911" r="0.8263753284295963" fill="#fff" opacity="0.784854502506753"/><circle cx="172.34768051941592" cy="310.67408995485727" r="1.3775428865052626" fill="#fff" opacity="0.5224112232035052"/><circle cx="213.48929782712116" cy="270.2421371522923" r="1.9973343459417425" fill="#fff" opacity="0.4910206847104758"/><circle cx="1819.7559731965316" cy="202.4788511978646" r="0.7594673234875005" fill="#fff" opacity="0.6391967719977714"/><circle cx="355.54584600858993" cy="154.61220164471592" r="1.3291753842097649" fill="#fff" opacity="0.7318655436699897"/><circle cx="998.1662131189756" cy="262.8272717163962" r="1.5650185605196791" fill="#fff" opacity="0.7386582937414428"/><circle cx="228.12423264331284" cy="363.8833990236473" r="1.8098683027340725" fill="#fff" opacity="0.4855505184935291"/><circle cx="169.12733588580213" cy="398.4354936551385" r="0.9342322443691623" fill="#fff" opacity="0.41381452377275907"/><circle cx="15.048383924888535" cy="281.5676130413934" r="1.9207342017723095" fill="#fff" opacity="0.36188787225677815"/><circle cx="490.7860369632919" cy="3.5126195520890455" r="0.5558095974977616" fill="#fff" opacity="0.5995170006527373"/><circle cx="624.2848095261223" cy="426.2729669907766" r="1.902764252830009" fill="#fff" opacity="0.6221256083860355"/><circle cx="1554.0637666625119" cy="32.37422814973961" r="0.6442285181591819" fill="#fff" opacity="0.2532645275940338"/><circle cx="746.5004822859775" cy="221.61684546564166" r="1.2556430064736965" fill="#fff" opacity="0.2510558146636597"/><circle cx="327.6193442213394" cy="253.67171103453072" r="1.9484083019076865" fill="#fff" opacity="0.5372675122081458"/><circle cx="704.5039859564286" cy="42.011608386880624" r="1.870077279715351" fill="#fff" opacity="0.32672207456238617"/><circle cx="1259.276879872027" cy="339.0370086401321" r="0.5390821850251132" fill="#fff" opacity="0.7174512698588547"/><circle cx="559.4647596588974" cy="206.23750562552306" r="1.8556583781856248" fill="#fff" opacity="0.5938719444893934"/><circle cx="1583.5670041254643" cy="150.13721002408704" r="0.6584745900841603" fill="#fff" opacity="0.7275664753111932"/><circle cx="1402.4255059944526" cy="112.64132920667561" r="1.4468958203091509" fill="#fff" opacity="0.32112478183608617"/><circle cx="1356.7158949553773" cy="41.38762193019214" r="1.6579543050979157" fill="#fff" opacity="0.2754579440400605"/><circle cx="586.9702364380868" cy="380.6336704745501" r="1.790977531878971" fill="#fff" opacity="0.20734517630360677"/><circle cx="829.4047274136461" cy="124.67813276049638" r="1.8866620224170996" fill="#fff" opacity="0.5353221667779894"/><circle cx="981.5037866731882" cy="183.40714262970891" r="1.4204843424773972" fill="#fff" opacity="0.7038469910397769"/><circle cx="15.828453008045548" cy="277.11529249071964" r="1.9624329951969983" fill="#fff" opacity="0.7937535777673483"/><circle cx="404.56207180501946" cy="309.3685505663437" r="1.7584317648453711" fill="#fff" opacity="0.2718654615971878"/><circle cx="160.46776194136305" cy="83.23727706150089" r="1.9837675975830684" fill="#fff" opacity="0.2456582515141131"/><circle cx="1201.9752442655094" cy="268.30801296148167" r="1.4634911395757206" fill="#fff" opacity="0.283526783688815"/><circle cx="254.0669476087361" cy="235.02068847674425" r="1.0179501327262144" fill="#fff" opacity="0.737081613609819"/><circle cx="341.0142441887907" cy="339.88608409927366" r="0.8576997466985369" fill="#fff" opacity="0.4413778404335905"/><circle cx="1760.9412252532645" cy="330.371875593991" r="1.3333650414909621" fill="#fff" opacity="0.6530339502387292"/><circle cx="1574.708091536236" cy="188.48314225591793" r="0.7635894718728004" fill="#fff" opacity="0.33090522958219637"/><circle cx="1419.7702126530396" cy="78.600459623756" r="1.0715421517546155" fill="#fff" opacity="0.5868537409200458"/><circle cx="410.64968804145457" cy="229.03888919694324" r="1.951240568643259" fill="#fff" opacity="0.48009711915629383"/><circle cx="607.4145749135442" cy="24.332665650251478" r="1.0343075009375595" fill="#fff" opacity="0.3775369019660952"/><circle cx="373.4069176887644" cy="349.58756416979884" r="1.6604099802580685" fill="#fff" opacity="0.23021359774987532"/><circle cx="1690.0956335128508" cy="396.334373991083" r="0.6703230175586238" fill="#fff" opacity="0.7327310355223555"/><circle cx="1357.4175925733098" cy="133.1129954804464" r="1.8041639332203576" fill="#fff" opacity="0.6824562373763081"/><circle cx="1520.018009748314" cy="265.90822462968254" r="0.6530207755633213" fill="#fff" opacity="0.5533389135620881"/><circle cx="661.6265104761409" cy="244.8866019744628" r="0.8119459966691085" fill="#fff" opacity="0.3359688104912566"/><circle cx="1782.2422845340898" cy="250.7499558093841" r="0.710406678661333" fill="#fff" opacity="0.6722521245182147"/><circle cx="369.45474171299827" cy="235.65487111631197" r="0.6643332889453353" fill="#fff" opacity="0.31124883403797843"/><circle cx="1849.6580207184093" cy="234.9042940165159" r="0.7087090586332393" fill="#fff" opacity="0.49332532293473497"/><circle cx="401.8373234015511" cy="81.04589526379618" r="0.6897568575082712" fill="#fff" opacity="0.7965793328817421"/><circle cx="1200.821630638284" cy="57.568689266584975" r="1.3553648027254652" fill="#fff" opacity="0.4231865970937504"/><circle cx="242.6524378924287" cy="174.92683386777688" r="1.6143987926455212" fill="#fff" opacity="0.6871796763239381"/><circle cx="911.6642749942057" cy="80.36920480811251" r="0.5811352692733368" fill="#fff" opacity="0.37064746272998106"/><circle cx="297.5801490940108" cy="142.1257885801899" r="1.7702374002594123" fill="#fff" opacity="0.4589881547398372"/><circle cx="1088.978924706806" cy="187.36991916489086" r="0.7143990528337655" fill="#fff" opacity="0.2366683788682959"/><circle cx="1732.848031328257" cy="357.0564676348717" r="1.3933614073072937" fill="#fff" opacity="0.7359060139711726"/><circle cx="1376.2372003719763" cy="177.28628596693423" r="1.283708326002515" fill="#fff" opacity="0.49417837436641066"/><circle cx="771.8674713680211" cy="25.07943568962613" r="1.4262009555069266" fill="#fff" opacity="0.5842574971225711"/><circle cx="1602.4787663674165" cy="308.75215791276474" r="0.9090509327149603" fill="#fff" opacity="0.3515382607354639"/><circle cx="719.3490995651458" cy="4.830133930973274" r="1.8564403734301311" fill="#fff" opacity="0.3883801248828834"/><circle cx="861.8456507245651" cy="280.60767910084866" r="0.8670019056571185" fill="#fff" opacity="0.5161696507400297"/><circle cx="95.05935656257425" cy="219.5685829882437" r="0.6898479178058561" fill="#fff" opacity="0.5353385240620325"/><circle cx="532.298378472286" cy="352.95831032119656" r="0.8788725734639151" fill="#fff" opacity="0.2919380312068244"/><circle cx="177.60555003248285" cy="221.6395881505775" r="1.571234426594161" fill="#fff" opacity="0.5972420922008441"/><circle cx="1358.4183497909498" cy="306.19267662293106" r="1.5156254660141713" fill="#fff" opacity="0.36219223885848006"/><rect x="8.03525430570246" y="738.1776628755447" width="74.9416346254157" height="184.41405703416422" fill="#00a1df" opacity="0.47687811273543124" rx="2"/><rect x="39.90234185357167" y="748.1776628755447" width="11.20745952967728" height="8.321384290773743" fill="#fee440" opacity="0.23988672223405139" rx="1"/><rect x="21.166933197217745" y="752.3383550209315" width="11.20745952967728" height="8.321384290773743" fill="#f15bb5" opacity="0.11994336111702569" rx="1"/><rect x="39.99377532652434" y="774.5225281661395" width="11.024592583771934" height="8.321109508704652" fill="#fee440" opacity="0.39702489550621833" rx="1"/><rect x="21.258366670170417" y="778.6830829204919" width="11.024592583771934" height="8.321109508704652" fill="#f15bb5" opacity="0.19851244775310917" rx="1"/><rect x="43.49684541730603" y="800.8673934567345" width="4.018452402208571" height="7.205420817529182" fill="#fee440" opacity="0.5439304418498488" rx="1"/><rect x="24.761436760952098" y="804.470103865499" width="4.018452402208571" height="7.205420817529182" fill="#f15bb5" opacity="0.2719652209249244" rx="1"/><rect x="40.19562627542662" y="827.2122587473293" width="10.620890685967378" height="9.832543590998403" fill="#fee440" opacity="0.59812732834791" rx="1"/><rect x="21.460217619072694" y="832.1285305428286" width="10.620890685967378" height="9.832543590998403" fill="#f15bb5" opacity="0.299063664173955" rx="1"/><rect x="43.306905462012374" y="853.5571240379243" width="4.398332312795876" height="6.166863495522845" fill="#fee440" opacity="0.4737269199624953" rx="1"/><rect x="24.571496805658448" y="856.6405557856857" width="4.398332312795876" height="6.166863495522845" fill="#f15bb5" opacity="0.23686345998124764" rx="1"/><rect x="42.27278086572717" y="879.9019893285191" width="6.466581505366271" height="8.884110117071334" fill="#fee440" opacity="0.3472435265656662" rx="1"/><rect x="23.53737220937325" y="884.3440443870547" width="6.466581505366271" height="8.884110117071334" fill="#f15bb5" opacity="0.1736217632828331" rx="1"/><rect x="42.80912357797127" y="906.246854619114" width="5.393896080878074" height="7.551747654925973" fill="#fee440" opacity="0.4399956064159041" rx="1"/><rect x="24.07371492161735" y="910.0227284465769" width="5.393896080878074" height="7.551747654925973" fill="#f15bb5" opacity="0.21999780320795204" rx="1"/><rect x="102.30057518151268" y="642.2173132170498" width="58.71426200697065" height="280.37440669265914" fill="#00bbf9" opacity="0.5608193498246417" rx="2"/><rect x="127.3854210089592" y="652.2173132170498" width="8.544570352077617" height="6.962629251406209" fill="#fee440" opacity="0.5284895551224448" rx="1"/><rect x="112.70685550721655" y="655.6986278427529" width="8.544570352077617" height="6.962629251406209" fill="#f15bb5" opacity="0.2642447775612224" rx="1"/><rect x="126.58203731194783" y="745.6754487812694" width="10.151337746100346" height="7.234089677509407" fill="#fee440" opacity="0.1754514519533728" rx="1"/><rect x="111.90347181020518" y="749.2924936200242" width="10.151337746100346" height="7.234089677509407" fill="#f15bb5" opacity="0.0877257259766864" rx="1"/><rect x="126.89610475026578" y="839.1335843454892" width="9.523202869464457" height="8.798356431256597" fill="#fee440" opacity="0.4430235645135454" rx="1"/><rect x="112.21753924852312" y="843.5327625611176" width="9.523202869464457" height="8.798356431256597" fill="#f15bb5" opacity="0.2215117822567727" rx="1"/><rect x="184.4594671281592" y="745.3993310675489" width="35.12223727189056" height="177.19238884215997" fill="#00bbf9" opacity="0.6493582661611397" rx="2"/><rect x="196.21063194791367" y="755.3993310675489" width="11.619907632381633" height="6.875077060627536" fill="#fee440" opacity="0.45313326384712316" rx="1"/><rect x="187.430072629941" y="758.8368695978627" width="11.619907632381633" height="6.875077060627536" fill="#f15bb5" opacity="0.22656663192356158" rx="1"/><rect x="196.70491867518896" y="780.7125294735717" width="10.631334177831032" height="6.847813831839667" fill="#fee440" opacity="0.4199303235905083" rx="1"/><rect x="187.9243593572163" y="784.1364363894916" width="10.631334177831032" height="6.847813831839667" fill="#f15bb5" opacity="0.20996516179525415" rx="1"/><rect x="199.857180757315" y="806.0257278795947" width="4.326810013578927" height="8.28068588075244" fill="#fee440" opacity="0.1387707454009845" rx="1"/><rect x="191.07662143934235" y="810.1660708199709" width="4.326810013578927" height="8.28068588075244" fill="#f15bb5" opacity="0.06938537270049225" rx="1"/><rect x="198.28844577303616" y="831.3389262856175" width="7.4642799821366275" height="6.694057834496269" fill="#fee440" opacity="0.4048799199296348" rx="1"/><rect x="189.5078864550635" y="834.6859552028657" width="7.4642799821366275" height="6.694057834496269" fill="#f15bb5" opacity="0.2024399599648174" rx="1"/><rect x="196.10522464003333" y="856.6521246916403" width="11.830722248142287" height="8.140742395571607" fill="#fee440" opacity="0.5646782699191659" rx="1"/><rect x="187.32466532206067" y="860.7224958894261" width="11.830722248142287" height="8.140742395571607" fill="#f15bb5" opacity="0.28233913495958296" rx="1"/><rect x="196.8377667750253" y="881.9653230976631" width="10.365637978158341" height="8.26494946476653" fill="#fee440" opacity="0.2972832456690453" rx="1"/><rect x="188.05720745705264" y="886.0977978300464" width="10.365637978158341" height="8.26494946476653" fill="#f15bb5" opacity="0.14864162283452265" rx="1"/><rect x="199.87058275366246" y="907.2785215036861" width="4.300006020884031" height="7.392744198765779" fill="#fee440" opacity="0.1661875858358544" rx="1"/><rect x="191.0900234356898" y="910.974893603069" width="4.300006020884031" height="7.392744198765779" fill="#f15bb5" opacity="0.0830937929179272" rx="1"/><rect x="300.61081142245513" y="632.6619922841578" width="45.16279504521815" height="289.9297276255511" fill="#00bbf9" opacity="0.6041207173150314" rx="2"/><rect x="318.09567328401675" y="642.6619922841578" width="10.193071322094898" height="6.739838736304044" fill="#fee440" opacity="0.25335827533932365" rx="1"/><rect x="306.80497452271226" y="646.0319116523099" width="10.193071322094898" height="6.739838736304044" fill="#f15bb5" opacity="0.12667913766966182" rx="1"/><rect x="317.49824375970184" y="684.0805248020937" width="11.387930370724744" height="8.361868666103545" fill="#fee440" opacity="0.35756609178091536" rx="1"/><rect x="306.20754499839734" y="688.2614591351455" width="11.387930370724744" height="8.361868666103545" fill="#f15bb5" opacity="0.17878304589045768" rx="1"/><rect x="317.87520047131284" y="725.4990573200296" width="10.63401694750274" height="9.75991577928884" fill="#fee440" opacity="0.4958545963735913" rx="1"/><rect x="306.58450171000834" y="730.379015209674" width="10.63401694750274" height="9.75991577928884" fill="#f15bb5" opacity="0.24792729818679565" rx="1"/><rect x="317.94878078387256" y="766.9175898379655" width="10.486856322383241" height="9.241468843827366" fill="#fee440" opacity="0.1752463878773261" rx="1"/><rect x="306.65808202256807" y="771.5383242598791" width="10.486856322383241" height="9.241468843827366" fill="#f15bb5" opacity="0.08762319393866305" rx="1"/><rect x="320.67260810186383" y="808.3361223559014" width="5.039201686400734" height="6.181245323312758" fill="#fee440" opacity="0.19836994532923446" rx="1"/><rect x="309.38190934055933" y="811.4267450175578" width="5.039201686400734" height="6.181245323312758" fill="#f15bb5" opacity="0.09918497266461723" rx="1"/><rect x="318.3616869324396" y="849.7546548738371" width="9.66104402524909" height="7.6800386900268585" fill="#fee440" opacity="0.44687392270352555" rx="1"/><rect x="307.0709881711351" y="853.5946742188505" width="9.66104402524909" height="7.6800386900268585" fill="#f15bb5" opacity="0.22343696135176278" rx="1"/><rect x="319.5835809929857" y="891.173187391773" width="7.217255904157007" height="6.9082572369157" fill="#fee440" opacity="0.517269518230406" rx="1"/><rect x="308.2928822316812" y="894.6273160102309" width="7.217255904157007" height="6.9082572369157" fill="#f15bb5" opacity="0.258634759115203" rx="1"/><rect x="378.89105937816987" y="815.0709741667545" width="67.95645632733508" height="107.52074574295449" fill="#00bbf9" opacity="0.4638329415730743" rx="2"/><rect x="407.53278098340974" y="825.0709741667545" width="10.67301311685541" height="8.978236208431944" fill="#fee440" opacity="0.5400589371658999" rx="1"/><rect x="390.54366690157593" y="829.5600922709705" width="10.67301311685541" height="8.978236208431944" fill="#f15bb5" opacity="0.27002946858294996" rx="1"/><rect x="407.40808503784956" y="838.5110673846237" width="10.922405007975737" height="9.071400429837265" fill="#fee440" opacity="0.14865143239699571" rx="1"/><rect x="390.41897095601576" y="843.0467675995424" width="10.922405007975737" height="9.071400429837265" fill="#f15bb5" opacity="0.07432571619849786" rx="1"/><rect x="408.3224464479054" y="851.9511606024931" width="9.093682187864017" height="6.843883733461584" fill="#fee440" opacity="0.13349886986741305" rx="1"/><rect x="391.3333323660716" y="855.3731024692239" width="9.093682187864017" height="6.843883733461584" fill="#f15bb5" opacity="0.06674943493370653" rx="1"/><rect x="408.3674826725643" y="865.3912538203624" width="9.003609738546333" height="9.590981601642207" fill="#fee440" opacity="0.3253948887170746" rx="1"/><rect x="391.3783685907305" y="870.1867446211835" width="9.003609738546333" height="9.590981601642207" fill="#f15bb5" opacity="0.1626974443585373" rx="1"/><rect x="407.5887846787766" y="878.8313470382317" width="10.5610057261216" height="7.634556829378604" fill="#fee440" opacity="0.29199607374425884" rx="1"/><rect x="390.5996705969428" y="882.648625452921" width="10.5610057261216" height="7.634556829378604" fill="#f15bb5" opacity="0.14599803687212942" rx="1"/><rect x="408.45652392706813" y="892.271440256101" width="8.825527229538544" height="9.335062521355008" fill="#fee440" opacity="0.22077260800189633" rx="1"/><rect x="391.46740984523433" y="896.9389715167785" width="8.825527229538544" height="9.335062521355008" fill="#f15bb5" opacity="0.11038630400094816" rx="1"/><rect x="410.12205672316827" y="905.7115334739703" width="5.494461637338265" height="9.482890642127696" fill="#fee440" opacity="0.3812390201215723" rx="1"/><rect x="393.13294264133447" y="910.4529787950341" width="5.494461637338265" height="9.482890642127696" fill="#f15bb5" opacity="0.19061951006078615" rx="1"/><rect x="407.9294448243622" y="919.1516266918396" width="9.879685434950442" height="7.776615589339429" fill="#fee440" opacity="0.4807124928293546" rx="1"/><rect x="390.9403307425284" y="923.0399344865093" width="9.879685434950442" height="7.776615589339429" fill="#f15bb5" opacity="0.2403562464146773" rx="1"/><rect x="466.2836068537347" y="751.8820306290597" width="42.96805020723679" height="170.70968928064912" fill="#00bbf9" opacity="0.4562829141403276" rx="2"/><rect x="485.63278783300456" y="761.8820306290597" width="4.26968824869713" height="7.511551761420339" fill="#fee440" opacity="0.48737354494802965" rx="1"/><rect x="474.8907752811953" y="765.6378065097699" width="4.26968824869713" height="7.511551761420339" fill="#f15bb5" opacity="0.24368677247401482" rx="1"/><rect x="483.3697356036394" y="796.0239684851896" width="8.795792707427356" height="8.985545455241937" fill="#fee440" opacity="0.3300401190831419" rx="1"/><rect x="472.6277230518302" y="800.5167412128105" width="8.795792707427356" height="8.985545455241937" fill="#f15bb5" opacity="0.16502005954157095" rx="1"/><rect x="482.91647993338876" y="830.1659063413193" width="9.702304047928727" height="7.740332482787858" fill="#fee440" opacity="0.4795725811225299" rx="1"/><rect x="472.1744673815795" y="834.0360725827132" width="9.702304047928727" height="7.740332482787858" fill="#f15bb5" opacity="0.23978629056126494" rx="1"/><rect x="483.91114714144254" y="864.3078441974492" width="7.712969631821142" height="6.764700232251711" fill="#fee440" opacity="0.3753063898476089" rx="1"/><rect x="473.1691345896333" y="867.690194313575" width="7.712969631821142" height="6.764700232251711" fill="#f15bb5" opacity="0.18765319492380444" rx="1"/><rect x="483.57276647770806" y="898.449782053579" width="8.38973095929011" height="9.45250029290386" fill="#fee440" opacity="0.1754157459771763" rx="1"/><rect x="472.8307539258988" y="903.1760322000309" width="8.38973095929011" height="9.45250029290386" fill="#f15bb5" opacity="0.08770787298858815" rx="1"/><rect x="574.6536818426958" y="829.7439045691267" width="89.01645577489782" height="92.84781534058224" fill="#00a1df" opacity="0.5182129994775665" rx="2"/><rect x="617.1166105344497" y="839.7439045691267" width="4.090598391390079" height="6.066027815469082" fill="#fee440" opacity="0.44692972138219744" rx="1"/><rect x="594.8624965907252" y="842.7769184768613" width="4.090598391390079" height="6.066027815469082" fill="#f15bb5" opacity="0.22346486069109872" rx="1"/><rect x="613.9480272384039" y="853.0078781892099" width="10.427764983481673" height="7.449471256101846" fill="#fee440" opacity="0.570783577410221" rx="1"/><rect x="591.6939132946794" y="856.7326138172608" width="10.427764983481673" height="7.449471256101846" fill="#f15bb5" opacity="0.2853917887051105" rx="1"/><rect x="615.6175262803052" y="866.271851809293" width="7.088766899679035" height="8.612538160433186" fill="#fee440" opacity="0.3517717787417983" rx="1"/><rect x="593.3634123365807" y="870.5781208895096" width="7.088766899679035" height="8.612538160433186" fill="#f15bb5" opacity="0.17588588937089916" rx="1"/><rect x="615.4086578316341" y="879.5358254293762" width="7.506503797021346" height="8.464681941658418" fill="#fee440" opacity="0.5166307754154854" rx="1"/><rect x="593.1545438879095" y="883.7681664002055" width="7.506503797021346" height="8.464681941658418" fill="#f15bb5" opacity="0.2583153877077427" rx="1"/><rect x="613.5116436519254" y="892.7997990494594" width="11.300532156438692" height="8.990117377366433" fill="#fee440" opacity="0.5458977689374932" rx="1"/><rect x="591.2575297082009" y="897.2948577381426" width="11.300532156438692" height="8.990117377366433" fill="#f15bb5" opacity="0.2729488844687466" rx="1"/><rect x="615.0956435570981" y="906.0637726695426" width="8.132532346093221" height="6.966477549859899" fill="#fee440" opacity="0.416103071979271" rx="1"/><rect x="592.8415296133736" y="909.5470114444726" width="8.132532346093221" height="6.966477549859899" fill="#f15bb5" opacity="0.2080515359896355" rx="1"/><rect x="615.5762539613737" y="919.3277462896258" width="7.17131153754222" height="8.080604062900088" fill="#fee440" opacity="0.4737927408362256" rx="1"/><rect x="593.3221400176492" y="923.3680483210759" width="7.17131153754222" height="8.080604062900088" fill="#f15bb5" opacity="0.2368963704181128" rx="1"/><rect x="659.9461930361451" y="777.7019076579488" width="46.389682543554734" height="144.88981225176013" fill="#00a1df" opacity="0.48250380726123787" rx="2"/><rect x="677.1926782336535" y="787.7019076579488" width="11.896712148538025" height="6.818409121785874" fill="#fee440" opacity="0.2929163148610192" rx="1"/><rect x="665.5952575977649" y="791.1111122188418" width="11.896712148538025" height="6.818409121785874" fill="#f15bb5" opacity="0.1464581574305096" rx="1"/><rect x="678.4107073092392" y="823.9243607208889" width="9.46065399736647" height="6.361309584314308" fill="#fee440" opacity="0.25299060932663053" rx="1"/><rect x="666.8132866733506" y="827.105015513046" width="9.46065399736647" height="6.361309584314308" fill="#f15bb5" opacity="0.12649530466331527" rx="1"/><rect x="679.1424239832309" y="860.1468137838289" width="7.997220649383316" height="6.922889262652697" fill="#fee440" opacity="0.5630963781296966" rx="1"/><rect x="667.5450033473422" y="863.6082584151552" width="7.997220649383316" height="6.922889262652697" fill="#f15bb5" opacity="0.2815481890648483" rx="1"/><rect x="679.0814841813598" y="896.3692668467689" width="8.119100253125442" height="8.825683912920226" fill="#fee440" opacity="0.5991709599269487" rx="1"/><rect x="667.4840635454711" y="900.782108803229" width="8.119100253125442" height="8.825683912920226" fill="#f15bb5" opacity="0.29958547996347434" rx="1"/><rect x="735.9210920380909" y="643.8896104679186" width="74.87307194268169" height="278.7021094417903" fill="#00bbf9" opacity="0.5231662889297973" rx="2"/><rect x="767.4384385153473" y="653.8896104679186" width="11.838378988168756" height="6.647857239620727" fill="#fee440" opacity="0.279085193942088" rx="1"/><rect x="748.720170529677" y="657.2135390877289" width="11.838378988168756" height="6.647857239620727" fill="#f15bb5" opacity="0.139542596971044" rx="1"/><rect x="770.0996386258363" y="688.7273741481424" width="6.515978767191054" height="7.110459197571142" fill="#fee440" opacity="0.3404999483238207" rx="1"/><rect x="751.3813706401659" y="692.282603746928" width="6.515978767191054" height="7.110459197571142" fill="#f15bb5" opacity="0.17024997416191034" rx="1"/><rect x="768.2737041631618" y="723.5651378283662" width="10.16784769253988" height="6.472500152064604" fill="#fee440" opacity="0.2414129364167836" rx="1"/><rect x="749.5554361774914" y="726.8013879043986" width="10.16784769253988" height="6.472500152064604" fill="#f15bb5" opacity="0.1207064682083918" rx="1"/><rect x="770.0546785666003" y="758.4029015085899" width="6.60589888566311" height="8.345619653897737" fill="#fee440" opacity="0.5624761397630154" rx="1"/><rect x="751.3364105809299" y="762.5757113355388" width="6.60589888566311" height="8.345619653897737" fill="#f15bb5" opacity="0.2812380698815077" rx="1"/><rect x="770.098703733502" y="793.2406651888138" width="6.517848551859578" height="8.93825491679326" fill="#fee440" opacity="0.3123996409849263" rx="1"/><rect x="751.3804357478316" y="797.7097926472104" width="6.517848551859578" height="8.93825491679326" fill="#f15bb5" opacity="0.15619982049246314" rx="1"/><rect x="768.5293425763526" y="828.0784288690376" width="9.656570866158365" height="6.965553185196024" fill="#fee440" opacity="0.1385122122332715" rx="1"/><rect x="749.8110745906822" y="831.5612054616356" width="9.656570866158365" height="6.965553185196024" fill="#f15bb5" opacity="0.06925610611663575" rx="1"/><rect x="767.8232700026382" y="862.9161925492613" width="11.068716013587245" height="8.058618912021307" fill="#fee440" opacity="0.18845343186716862" rx="1"/><rect x="749.1050020169678" y="866.9455020052719" width="11.068716013587245" height="8.058618912021307" fill="#f15bb5" opacity="0.09422671593358431" rx="1"/><rect x="769.0965926866936" y="897.7539562294851" width="8.522070645476242" height="6.686562841917985" fill="#fee440" opacity="0.291452398824378" rx="1"/><rect x="750.3783247010232" y="901.0972376504441" width="8.522070645476242" height="6.686562841917985" fill="#f15bb5" opacity="0.145726199412189" rx="1"/><rect x="823.3051641522619" y="705.4453782400687" width="53.28372404521418" height="217.14634166964012" fill="#00bbf9" opacity="0.6573782118636599" rx="2"/><rect x="845.8844475167468" y="715.4453782400687" width="8.125157316244476" height="8.090051915051893" fill="#fee440" opacity="0.5990422867701953" rx="1"/><rect x="832.5635165054432" y="719.4904041975947" width="8.125157316244476" height="8.090051915051893" fill="#f15bb5" opacity="0.29952114338509767" rx="1"/><rect x="846.4645387176508" y="787.8274921299488" width="6.964974914436455" height="9.033048093093804" fill="#fee440" opacity="0.19153128755081708" rx="1"/><rect x="833.1436077063472" y="792.3440161764958" width="6.964974914436455" height="9.033048093093804" fill="#f15bb5" opacity="0.09576564377540854" rx="1"/><rect x="846.2612367821469" y="860.2096060198288" width="7.371578785444512" height="8.095805377256081" fill="#fee440" opacity="0.37946287830813386" rx="1"/><rect x="832.9403057708432" y="864.2575087084568" width="7.371578785444512" height="8.095805377256081" fill="#f15bb5" opacity="0.18973143915406693" rx="1"/><rect x="914.5276259438564" y="783.914676549359" width="43.57765090967939" height="138.67704336034996" fill="#00a1df" opacity="0.6276981126814378" rx="2"/><rect x="931.0548257587736" y="793.914676549359" width="10.523251279844729" height="7.031621609123336" fill="#fee440" opacity="0.462336439746976" rx="1"/><rect x="920.1604130313539" y="797.4304873539206" width="10.523251279844729" height="7.031621609123336" fill="#f15bb5" opacity="0.231168219873488" rx="1"/><rect x="932.287717449978" y="811.2493069694027" width="8.057467897435991" height="7.405863842322925" fill="#fee440" opacity="0.3866298902748688" rx="1"/><rect x="921.3933047225582" y="814.9522388905642" width="8.057467897435991" height="7.405863842322925" fill="#f15bb5" opacity="0.1933149451374344" rx="1"/><rect x="932.1359496605564" y="828.5839373894465" width="8.361003476279091" height="6.156136062963897" fill="#fee440" opacity="0.5017655547712384" rx="1"/><rect x="921.2415369331367" y="831.6620054209285" width="8.361003476279091" height="6.156136062963897" fill="#f15bb5" opacity="0.2508827773856192" rx="1"/><rect x="931.3899155904646" y="845.9185678094902" width="9.853071616462682" height="8.244697797634801" fill="#fee440" opacity="0.5443276752588171" rx="1"/><rect x="920.4955028630449" y="850.0409167083077" width="9.853071616462682" height="8.244697797634801" fill="#f15bb5" opacity="0.27216383762940854" rx="1"/><rect x="931.0373313391799" y="863.253198229534" width="10.558240119032153" height="7.150842379115252" fill="#fee440" opacity="0.4624870243627781" rx="1"/><rect x="920.1429186117601" y="866.8286194190915" width="10.558240119032153" height="7.150842379115252" fill="#f15bb5" opacity="0.23124351218138905" rx="1"/><rect x="931.4347057028886" y="880.5878286495777" width="9.763491391614892" height="6.9080511799333735" fill="#fee440" opacity="0.5696639664400518" rx="1"/><rect x="920.5402929754688" y="884.0418542395444" width="9.763491391614892" height="6.9080511799333735" fill="#f15bb5" opacity="0.2848319832200259" rx="1"/><rect x="930.664122451218" y="897.9224590696215" width="11.304657894956101" height="8.725440153555349" fill="#fee440" opacity="0.29365403188710426" rx="1"/><rect x="919.7697097237982" y="902.2851791463992" width="11.304657894956101" height="8.725440153555349" fill="#f15bb5" opacity="0.14682701594355213" rx="1"/><rect x="932.6663373761165" y="915.2570894896652" width="7.300228045159073" height="9.685375659653307" fill="#fee440" opacity="0.29358769273236107" rx="1"/><rect x="921.7719246486968" y="920.0997773194919" width="7.300228045159073" height="9.685375659653307" fill="#f15bb5" opacity="0.14679384636618054" rx="1"/><rect x="1008.3620721813071" y="762.4874464498105" width="37.05194874830822" height="160.10427345989837" fill="#00bbf9" opacity="0.6692222418424725" rx="2"/><rect x="1024.6555089039725" y="772.4874464498105" width="4.4650753029773655" height="9.994044870136783" fill="#fee440" opacity="0.3812487654809954" rx="1"/><rect x="1015.3925217168955" y="777.4844688848789" width="4.4650753029773655" height="9.994044870136783" fill="#f15bb5" opacity="0.1906243827404977" rx="1"/><rect x="1023.7847344204615" y="825.85553760311" width="6.206624269999244" height="8.753796226054849" fill="#fee440" opacity="0.2961257518725763" rx="1"/><rect x="1014.5217472333845" y="830.2324357161374" width="6.206624269999244" height="8.753796226054849" fill="#f15bb5" opacity="0.14806287593628814" rx="1"/><rect x="1023.398686492709" y="879.2236287564094" width="6.978720125504472" height="9.890863082346241" fill="#fee440" opacity="0.4275590572337524" rx="1"/><rect x="1014.135699305632" y="884.1690602975825" width="6.978720125504472" height="9.890863082346241" fill="#f15bb5" opacity="0.2137795286168762" rx="1"/><rect x="1102.9031454549013" y="748.8129798785814" width="74.45290033809209" height="173.77874003112754" fill="#00a1df" opacity="0.6837903654165078" rx="2"/><rect x="1134.9424140964102" y="758.8129798785814" width="10.374363055074205" height="8.939569151713412" fill="#fee440" opacity="0.5630449809979287" rx="1"/><rect x="1116.3291890118871" y="763.282764454438" width="10.374363055074205" height="8.939569151713412" fill="#f15bb5" opacity="0.28152249049896433" rx="1"/><rect x="1136.5894119620832" y="793.5687278848069" width="7.080367323728364" height="7.614096648435597" fill="#fee440" opacity="0.2080163734983691" rx="1"/><rect x="1117.9761868775602" y="797.3757762090247" width="7.080367323728364" height="7.614096648435597" fill="#f15bb5" opacity="0.10400818674918455" rx="1"/><rect x="1134.8730995597555" y="828.3244758910324" width="10.5129921283836" height="7.241076260162768" fill="#fee440" opacity="0.4440194102805153" rx="1"/><rect x="1116.2598744752324" y="831.9450140211138" width="10.5129921283836" height="7.241076260162768" fill="#f15bb5" opacity="0.22200970514025764" rx="1"/><rect x="1135.5609875041969" y="863.0802238972578" width="9.137216239501074" height="6.417800704114558" fill="#fee440" opacity="0.3192244057588336" rx="1"/><rect x="1116.9477624196738" y="866.2891242493151" width="9.137216239501074" height="6.417800704114558" fill="#f15bb5" opacity="0.1596122028794168" rx="1"/><rect x="1134.5298141853323" y="897.8359719034834" width="11.199562877230244" height="8.955712525862202" fill="#fee440" opacity="0.32736238670241147" rx="1"/><rect x="1115.9165891008092" y="902.3138281664145" width="11.199562877230244" height="8.955712525862202" fill="#f15bb5" opacity="0.16368119335120573" rx="1"/><rect x="1206.3198699504217" y="665.4326878291165" width="88.73239228006742" height="257.15903208059234" fill="#00bbf9" opacity="0.5010337711314284" rx="2"/><rect x="1246.8399954306788" y="675.4326878291165" width="7.6921413195534" height="9.865598635716736" fill="#fee440" opacity="0.3526608395279992" rx="1"/><rect x="1224.6568973606618" y="680.3654871469748" width="7.6921413195534" height="9.865598635716736" fill="#f15bb5" opacity="0.1763304197639996" rx="1"/><rect x="1247.3111578244775" y="739.7224458492645" width="6.7498165319556875" height="7.1432259886393386" fill="#fee440" opacity="0.4627473472996493" rx="1"/><rect x="1225.1280597544605" y="743.2940588435843" width="6.7498165319556875" height="7.1432259886393386" fill="#f15bb5" opacity="0.23137367364982464" rx="1"/><rect x="1244.876173009535" y="804.0122038694127" width="11.619786161840842" height="7.934214307445617" fill="#fee440" opacity="0.41301519177225776" rx="1"/><rect x="1222.693074939518" y="807.9793110231356" width="11.619786161840842" height="7.934214307445617" fill="#f15bb5" opacity="0.20650759588612888" rx="1"/><rect x="1246.799345007053" y="868.3019618895607" width="7.773442166804672" height="7.041472911145881" fill="#fee440" opacity="0.2818481500218269" rx="1"/><rect x="1224.616246937036" y="871.8226983451336" width="7.773442166804672" height="7.041472911145881" fill="#f15bb5" opacity="0.14092407501091345" rx="1"/><rect x="1304.9054135789409" y="736.8493345535476" width="37.82234179038144" height="185.74238535616138" fill="#00bbf9" opacity="0.47421371274958685" rx="2"/><rect x="1321.3418654208867" y="746.8493345535476" width="4.949438106489703" height="8.501680915826391" fill="#fee440" opacity="0.36401658478752164" rx="1"/><rect x="1311.8862799732915" y="751.1001750114608" width="4.949438106489703" height="8.501680915826391" fill="#f15bb5" opacity="0.18200829239376082" rx="1"/><rect x="1318.1252060372208" y="793.2849308925879" width="11.382756873821549" height="6.1619055811692744" fill="#fee440" opacity="0.5978154306294898" rx="1"/><rect x="1308.6696205896255" y="796.3658836831726" width="11.382756873821549" height="6.1619055811692744" fill="#f15bb5" opacity="0.2989077153147449" rx="1"/><rect x="1318.5694752623256" y="839.7205272316282" width="10.494218423612" height="9.152415979456254" fill="#fee440" opacity="0.4533031453502605" rx="1"/><rect x="1309.1138898147303" y="844.2967352213564" width="10.494218423612" height="9.152415979456254" fill="#f15bb5" opacity="0.22665157267513025" rx="1"/><rect x="1320.2972567866782" y="886.1561235706686" width="7.038655374906645" height="9.575747826037869" fill="#fee440" opacity="0.1203249503440049" rx="1"/><rect x="1310.841671339083" y="890.9439974836876" width="7.038655374906645" height="9.575747826037869" fill="#f15bb5" opacity="0.06016247517200245" rx="1"/><rect x="1371.9043579665456" y="684.8979535593879" width="73.07498836495796" height="237.69376635032094" fill="#00bbf9" opacity="0.6742492648014448" rx="2"/><rect x="1404.463119837397" y="694.8979535593879" width="7.957464623255065" height="6.330911911169745" fill="#fee440" opacity="0.5748465786629465" rx="1"/><rect x="1386.1943727461576" y="698.0634095149728" width="7.957464623255065" height="6.330911911169745" fill="#f15bb5" opacity="0.28742328933147326" rx="1"/><rect x="1403.6832890908627" y="734.5135812844414" width="9.517126116323547" height="7.870686052802644" fill="#fee440" opacity="0.40066033960335434" rx="1"/><rect x="1385.4145419996232" y="738.4489243108428" width="9.517126116323547" height="7.870686052802644" fill="#f15bb5" opacity="0.20033016980167717" rx="1"/><rect x="1403.9771600689885" y="774.129209009495" width="8.929384160071933" height="8.74871478014363" fill="#fee440" opacity="0.13941778664929275" rx="1"/><rect x="1385.708412977749" y="778.5035663995668" width="8.929384160071933" height="8.74871478014363" fill="#f15bb5" opacity="0.06970889332464637" rx="1"/><rect x="1402.844535881218" y="813.7448367345485" width="11.194632535612824" height="9.64686515639696" fill="#fee440" opacity="0.4327908658731707" rx="1"/><rect x="1384.5757887899786" y="818.5682693127469" width="11.194632535612824" height="9.64686515639696" fill="#f15bb5" opacity="0.21639543293658536" rx="1"/><rect x="1406.220683574096" y="853.3604644596019" width="4.442337149857156" height="9.354031323304874" fill="#fee440" opacity="0.2353896797251398" rx="1"/><rect x="1387.9519364828566" y="858.0374801212544" width="4.442337149857156" height="9.354031323304874" fill="#f15bb5" opacity="0.1176948398625699" rx="1"/><rect x="1405.6673726441695" y="892.9760921846554" width="5.548959009709991" height="8.131332300168307" fill="#fee440" opacity="0.20749444321438076" rx="1"/><rect x="1387.39862555293" y="897.0417583347395" width="5.548959009709991" height="8.131332300168307" fill="#f15bb5" opacity="0.10374722160719038" rx="1"/><rect x="1485.5714514814647" y="584.1084866165436" width="72.48016884142538" height="338.48323329316526" fill="#00a1df" opacity="0.4956481733582095" rx="2"/><rect x="1518.4528981945532" y="594.1084866165436" width="6.717275415248535" height="6.961598895714059" fill="#fee440" opacity="0.22904133196665005" rx="1"/><rect x="1500.3328559841968" y="597.5892860644007" width="6.717275415248535" height="6.961598895714059" fill="#f15bb5" opacity="0.11452066598332503" rx="1"/><rect x="1519.231002065074" y="706.9362310475987" width="5.1610676742068184" height="6.949830724147574" fill="#fee440" opacity="0.38752414493065424" rx="1"/><rect x="1501.1109598547177" y="710.4111464096725" width="5.1610676742068184" height="6.949830724147574" fill="#f15bb5" opacity="0.19376207246532712" rx="1"/><rect x="1519.6323107134556" y="819.7639754786537" width="4.358450377443445" height="9.298758466564761" fill="#fee440" opacity="0.5636491394982788" rx="1"/><rect x="1501.5122685030992" y="824.4133547119361" width="4.358450377443445" height="9.298758466564761" fill="#f15bb5" opacity="0.2818245697491394" rx="1"/><rect x="1575.6403925522457" y="735.8135907412072" width="61.044244061001635" height="186.7781291685016" fill="#00bbf9" opacity="0.46533777084325856" rx="2"/><rect x="1601.19689388458" y="745.8135907412072" width="9.931241396332915" height="7.972603689407139" fill="#fee440" opacity="0.3827669096372013" rx="1"/><rect x="1585.9358328693295" y="749.7998925859108" width="9.931241396332915" height="7.972603689407139" fill="#f15bb5" opacity="0.19138345481860064" rx="1"/><rect x="1603.001633081785" y="783.1692165749075" width="6.321763001922928" height="6.271079315867061" fill="#fee440" opacity="0.49091365851715996" rx="1"/><rect x="1587.7405720665345" y="786.3047562328411" width="6.321763001922928" height="6.271079315867061" fill="#f15bb5" opacity="0.24545682925857998" rx="1"/><rect x="1600.9272174469158" y="820.5248424086079" width="10.470594271661387" height="7.297186719555684" fill="#fee440" opacity="0.3824199689278426" rx="1"/><rect x="1585.6661564316653" y="824.1734357683857" width="10.470594271661387" height="7.297186719555684" fill="#f15bb5" opacity="0.1912099844639213" rx="1"/><rect x="1603.560960110607" y="857.8804682423082" width="5.2031089442789344" height="6.301184749300868" fill="#fee440" opacity="0.419009672691815" rx="1"/><rect x="1588.2998990953565" y="861.0310606169586" width="5.2031089442789344" height="6.301184749300868" fill="#f15bb5" opacity="0.2095048363459075" rx="1"/><rect x="1604.016860612173" y="895.2360940760085" width="4.2913079411469655" height="7.658185390210288" fill="#fee440" opacity="0.20418589590214797" rx="1"/><rect x="1588.7557995969225" y="899.0651867711136" width="4.2913079411469655" height="7.658185390210288" fill="#f15bb5" opacity="0.10209294795107399" rx="1"/><rect x="1667.5735195224909" y="788.522618249646" width="83.23606467648318" height="134.0691016600628" fill="#00bbf9" opacity="0.616271226973336" rx="2"/><rect x="1703.4911918941964" y="798.522618249646" width="11.400719933072272" height="8.620164769380391" fill="#fee440" opacity="0.3568717091942373" rx="1"/><rect x="1682.6821757250755" y="802.8327006343362" width="11.400719933072272" height="8.620164769380391" fill="#f15bb5" opacity="0.17843585459711864" rx="1"/><rect x="1706.9132082995623" y="817.6753470582264" width="4.556687122340474" height="8.66885915460737" fill="#fee440" opacity="0.17745654812954753" rx="1"/><rect x="1686.1041921304413" y="822.0097766355301" width="4.556687122340474" height="8.66885915460737" fill="#f15bb5" opacity="0.08872827406477377" rx="1"/><rect x="1707.0158455141723" y="836.8280758668068" width="4.351412693120403" height="8.201871334156458" fill="#fee440" opacity="0.38364907234992107" rx="1"/><rect x="1686.2068293450513" y="840.929011533885" width="4.351412693120403" height="8.201871334156458" fill="#f15bb5" opacity="0.19182453617496054" rx="1"/><rect x="1705.750419336346" y="855.9808046753873" width="6.882265048772624" height="8.801366108190587" fill="#fee440" opacity="0.49043233284969634" rx="1"/><rect x="1684.9414031672252" y="860.3814877294826" width="6.882265048772624" height="8.801366108190587" fill="#f15bb5" opacity="0.24521616642484817" rx="1"/><rect x="1706.2825240978098" y="875.1335334839677" width="5.818055525845395" height="7.789316913529606" fill="#fee440" opacity="0.3332174793661613" rx="1"/><rect x="1685.4735079286888" y="879.0281919407324" width="5.818055525845395" height="7.789316913529606" fill="#f15bb5" opacity="0.16660873968308065" rx="1"/><rect x="1705.5939857223389" y="894.286262292548" width="7.195132276787221" height="7.189885427521049" fill="#fee440" opacity="0.1226835847186585" rx="1"/><rect x="1684.784969553218" y="897.8812050063085" width="7.195132276787221" height="7.189885427521049" fill="#f15bb5" opacity="0.06134179235932925" rx="1"/><rect x="1704.3555277358969" y="913.4389911011284" width="9.672048249671246" height="8.617275940863713" fill="#fee440" opacity="0.30080532219745343" rx="1"/><rect x="1683.546511566776" y="917.7476290715603" width="9.672048249671246" height="8.617275940863713" fill="#f15bb5" opacity="0.15040266109872671" rx="1"/><rect x="1747.267459330311" y="743.0550877221523" width="88.98311949311362" height="179.53663218755662" fill="#00bbf9" opacity="0.4094513582320538" rx="2"/><rect x="1788.5882606057023" y="753.0550877221523" width="6.341516942330989" height="6.8552153634036" fill="#fee440" opacity="0.2541973929047113" rx="1"/><rect x="1766.342480732424" y="756.4826954038541" width="6.341516942330989" height="6.8552153634036" fill="#f15bb5" opacity="0.12709869645235564" rx="1"/><rect x="1786.9560106800368" y="778.7031780346604" width="9.60601679366222" height="8.06139110356136" fill="#fee440" opacity="0.2852800720802695" rx="1"/><rect x="1764.7102308067585" y="782.7338735864411" width="9.60601679366222" height="8.06139110356136" fill="#f15bb5" opacity="0.14264003604013475" rx="1"/><rect x="1786.192046079929" y="804.3512683471685" width="11.133945993877468" height="6.702634507953802" fill="#fee440" opacity="0.16254138624354764" rx="1"/><rect x="1763.9462662066508" y="807.7025856011453" width="11.133945993877468" height="6.702634507953802" fill="#f15bb5" opacity="0.08127069312177382" rx="1"/><rect x="1789.1745390555827" y="829.9993586596765" width="5.16896004257001" height="9.45442620931529" fill="#fee440" opacity="0.5860655750348386" rx="1"/><rect x="1766.9287591823045" y="834.7265717643342" width="5.16896004257001" height="9.45442620931529" fill="#f15bb5" opacity="0.2930327875174193" rx="1"/><rect x="1788.712244647355" y="855.6474489721846" width="6.093548859025713" height="6.708052101709892" fill="#fee440" opacity="0.4417316410554879" rx="1"/><rect x="1766.4664647740767" y="859.0014750230396" width="6.093548859025713" height="6.708052101709892" fill="#f15bb5" opacity="0.22086582052774395" rx="1"/><rect x="1785.8823163277261" y="881.2955392846927" width="11.75340549828331" height="8.479188958760162" fill="#fee440" opacity="0.523232810553916" rx="1"/><rect x="1763.6365364544479" y="885.5351337640728" width="11.75340549828331" height="8.479188958760162" fill="#f15bb5" opacity="0.261616405276958" rx="1"/><rect x="1786.2366162269993" y="906.9436295972008" width="11.044805699737" height="8.089257896432946" fill="#fee440" opacity="0.42588050778160813" rx="1"/><rect x="1763.990836353721" y="910.9882585454172" width="11.044805699737" height="8.089257896432946" fill="#f15bb5" opacity="0.21294025389080407" rx="1"/><rect x="1830.6674609650813" y="758.949944262614" width="64.78729491932022" height="163.6417756470949" fill="#00a1df" opacity="0.62850544620969" rx="2"/><rect x="1858.6734464204374" y="768.949944262614" width="8.77532400860808" height="9.841436621696092" fill="#fee440" opacity="0.556569183142057" rx="1"/><rect x="1842.4766226906074" y="773.8706625734621" width="8.77532400860808" height="9.841436621696092" fill="#f15bb5" opacity="0.2782845915710285" rx="1"/><rect x="1858.4240282725398" y="809.8603881743878" width="9.274160304403434" height="6.914205040995545" fill="#fee440" opacity="0.31192753622586084" rx="1"/><rect x="1842.2272045427098" y="813.3174906948856" width="9.274160304403434" height="6.914205040995545" fill="#f15bb5" opacity="0.15596376811293042" rx="1"/><rect x="1860.234261995402" y="850.7708320861615" width="5.653692858678683" height="6.4161672062278186" fill="#fee440" opacity="0.33853700264322967" rx="1"/><rect x="1844.037438265572" y="853.9789156892754" width="5.653692858678683" height="6.4161672062278186" fill="#f15bb5" opacity="0.16926850132161483" rx="1"/><rect x="1857.487174606463" y="891.6812759979352" width="11.147867636556708" height="6.741717433729609" fill="#fee440" opacity="0.3640075714476424" rx="1"/><rect x="1841.290350876633" y="895.0521347148001" width="11.147867636556708" height="6.741717433729609" fill="#f15bb5" opacity="0.1820037857238212" rx="1"/><rect x="0" y="1000" width="1920" height="80" fill="#0095d3" opacity="0.8"/><line x1="0" y1="1040" x2="1920" y2="1040" stroke="#fee440" stroke-opacity="0.15" stroke-width="2" stroke-dasharray="30,20"/><rect x="0" y="930" width="1920" height="150" fill="url(#glow39)"/><text x="1900" y="1060" font-family="Arial, sans-serif" font-size="11" fill="#fff" opacity="0.08" text-anchor="end" letter-spacing="2">GTA 6 REWARDS · WALLPAPER 040</text>
</svg>