<?xml version="1.0" encoding="UTF-8"?>
<svg xmlns="http://www.w3.org/2000/svg" width="1920" height="1080" viewBox="0 0 1920 1080">
<defs>
    <linearGradient id="bg94" x1="0%" y1="0%" x2="0%" y2="100%">
      <stop offset="0%" stop-color="#003566"/>
      <stop offset="50%" stop-color="#000233"/>
      <stop offset="100%" stop-color="#003566"/>
    </linearGradient>
    <linearGradient id="sun94" x1="0%" y1="0%" x2="100%" y2="100%">
      <stop offset="0%" stop-color="#ffd60a"/>
      <stop offset="100%" stop-color="#ffc300"/>
    </linearGradient>
    <radialGradient id="glow94" cx="50%" cy="70%" r="50%">
      <stop offset="0%" stop-color="#ffd60a" stop-opacity="0.3"/>
      <stop offset="100%" stop-color="#003566" stop-opacity="0"/>
    </radialGradient>
  </defs><rect width="1920" height="1080" fill="url(#bg94)"/><circle cx="431.65643851544155" cy="547.168757195391" r="785.1026687270735" fill="#ffd60a" opacity="0.14097698072227116"/><circle cx="631.6564385154416" cy="447.168757195391" r="552.3842553962917" fill="#ffc300" opacity="0.07796274347881851"/><line x1="0" y1="980" x2="1920" y2="980" stroke="#ffc300" stroke-opacity="0.05" stroke-width="2"/><line x1="0" y1="935" x2="1920" y2="935" stroke="#ffc300" stroke-opacity="0.049" stroke-width="0.5"/><line x1="0" y1="890" x2="1920" y2="890" stroke="#ffc300" stroke-opacity="0.048" stroke-width="0.5"/><line x1="0" y1="845" x2="1920" y2="845" stroke="#ffc300" stroke-opacity="0.047" stroke-width="0.5"/><line x1="0" y1="800" x2="1920" y2="800" stroke="#ffc300" stroke-opacity="0.046" stroke-width="0.5"/><line x1="0" y1="755" x2="1920" y2="755" stroke="#ffc300" stroke-opacity="0.045" stroke-width="0.5"/><line x1="0" y1="710" x2="1920" y2="710" stroke="#ffc300" stroke-opacity="0.044" stroke-width="0.5"/><line x1="0" y1="665" x2="1920" y2="665" stroke="#ffc300" stroke-opacity="0.043" stroke-width="0.5"/><line x1="0" y1="620" x2="1920" y2="620" stroke="#ffc300" stroke-opacity="0.041999999999999996" stroke-width="0.5"/><line x1="0" y1="575" x2="1920" y2="575" stroke="#ffc300" stroke-opacity="0.041" stroke-width="0.5"/><line x1="0" y1="530" x2="1920" y2="530" stroke="#ffc300" stroke-opacity="0.04" stroke-width="0.5"/><line x1="0" y1="485" x2="1920" y2="485" stroke="#ffc300" stroke-opacity="0.039" stroke-width="0.5"/><line x1="0" y1="440" x2="1920" y2="440" stroke="#ffc300" stroke-opacity="0.038" stroke-width="0.5"/><line x1="0" y1="395" x2="1920" y2="395" stroke="#ffc300" stroke-opacity="0.037" stroke-width="0.5"/><line x1="0" y1="350" x2="1920" y2="350" stroke="#ffc300" stroke-opacity="0.036" stroke-width="0.5"/><line x1="0" y1="305" x2="1920" y2="305" stroke="#ffc300" stroke-opacity="0.034999999999999996" stroke-width="0.5"/><line x1="0" y1="260" x2="1920" y2="260" stroke="#ffc300" stroke-opacity="0.033999999999999996" stroke-width="0.5"/><line x1="0" y1="215" x2="1920" y2="215" stroke="#ffc300" stroke-opacity="0.033" stroke-width="0.5"/><line x1="0" y1="170" x2="1920" y2="170" stroke="#ffc300" stroke-opacity="0.032" stroke-width="0.5"/><line x1="0" y1="125" x2="1920" y2="125" stroke="#ffc300" stroke-opacity="0.031" stroke-width="0.5"/><line x1="560" y1="1080" x2="860" y2="580" stroke="#ffd60a" stroke-opacity="0.04" stroke-width="1"/><line x1="640" y1="1080" x2="880" y2="590" stroke="#ffd60a" stroke-opacity="0.04" stroke-width="1"/><line x1="720" y1="1080" x2="900" y2="600" stroke="#ffd60a" stroke-opacity="0.04" stroke-width="1"/><line x1="800" y1="1080" x2="920" y2="610" stroke="#ffd60a" stroke-opacity="0.04" stroke-width="1"/><line x1="880" y1="1080" x2="940" y2="620" stroke="#ffd60a" stroke-opacity="0.04" stroke-width="1"/><line x1="960" y1="1080" x2="960" y2="630" stroke="#ffd60a" stroke-opacity="0.04" stroke-width="1"/><line x1="1040" y1="1080" x2="980" y2="620" stroke="#ffd60a" stroke-opacity="0.04" stroke-width="1"/><line x1="1120" y1="1080" x2="1000" y2="610" stroke="#ffd60a" stroke-opacity="0.04" stroke-width="1"/><line x1="1200" y1="1080" x2="1020" y2="600" stroke="#ffd60a" stroke-opacity="0.04" stroke-width="1"/><line x1="1280" y1="1080" x2="1040" y2="590" stroke="#ffd60a" stroke-opacity="0.04" stroke-width="1"/><line x1="1360" y1="1080" x2="1060" y2="580" stroke="#ffd60a" stroke-opacity="0.04" stroke-width="1"/><circle cx="883.8481635283325" cy="263.8021324560517" r="83.77779407049012" fill="url(#sun94)" opacity="0.7263908047756158"/><circle cx="883.8481635283325" cy="263.8021324560517" r="78.77779407049012" fill="#003566" opacity="0.3"/><pattern id="scan94" width="1920" height="4" patternUnits="userSpaceOnUse">
      <line x1="0" y1="0" x2="1920" y2="0" stroke="#000" stroke-opacity="0.05" stroke-width="1"/>
    </pattern>
    <rect width="1920" height="1080" fill="url(#scan94)"/><circle cx="30.383766002576746" cy="189.61759757940135" r="0.8640393851939681" fill="#fff" opacity="0.3698174442094326"/><circle cx="1797.333149732401" cy="96.31283971674574" r="0.6819544302257603" fill="#fff" opacity="0.740444769696436"/><circle cx="221.30965238001886" cy="96.08368093149822" r="1.8267289954998365" fill="#fff" opacity="0.6449657108739404"/><circle cx="862.5881670933655" cy="410.02277731756277" r="0.8782113254718044" fill="#fff" opacity="0.2794131789075707"/><circle cx="839.899744139961" cy="31.128253917938153" r="1.9419512343457788" fill="#fff" opacity="0.4698857112484718"/><circle cx="177.35787127571132" cy="292.62095089736886" r="1.0780722564268093" fill="#fff" opacity="0.32574642075359506"/><circle cx="1058.7670865139849" cy="291.1865467883615" r="1.2663957519145672" fill="#fff" opacity="0.7720205516023608"/><circle cx="649.9513494991584" cy="166.3935613013789" r="1.8314800695123803" fill="#fff" opacity="0.3796316091389469"/><circle cx="660.7480253327517" cy="415.45713448511833" r="1.4426104168972491" fill="#fff" opacity="0.35697832711901945"/><circle cx="1680.3440156021024" cy="400.83025747184416" r="1.5900108759733875" fill="#fff" opacity="0.3400410462496898"/><circle cx="1358.5073164288203" cy="426.0232942351194" r="1.5271433877123388" fill="#fff" opacity="0.20893499017901138"/><circle cx="438.99043465940986" cy="162.41187096815833" r="0.7375272627075965" fill="#fff" opacity="0.45707861638094266"/><circle cx="510.8544343409256" cy="411.10093873997704" r="1.2308688227159132" fill="#fff" opacity="0.3491043235522472"/><circle cx="766.0236697192358" cy="309.38111809021353" r="1.450720166659616" fill="#fff" opacity="0.7317903254487994"/><circle cx="1383.7605883422682" cy="259.85487745792017" r="1.3340615731044816" fill="#fff" opacity="0.3603888485022795"/><circle cx="485.1346963283454" cy="102.65020848220452" r="1.7853811324540017" fill="#fff" opacity="0.4507750257967913"/><circle cx="59.23623697348783" cy="110.38859258182082" r="1.6093255916166411" fill="#fff" opacity="0.7217243893821081"/><circle cx="42.9044276575801" cy="146.6705703071017" r="1.3585816294324076" fill="#fff" opacity="0.40238927099909383"/><circle cx="435.82863504901263" cy="418.55019415229333" r="1.518930306546141" fill="#fff" opacity="0.6185927883299517"/><circle cx="1676.7227383881627" cy="9.357077392134135" r="1.4533945378971738" fill="#fff" opacity="0.33703897235380464"/><circle cx="1429.2132746030607" cy="16.077655907738407" r="1.2271502877648803" fill="#fff" opacity="0.33924562333599795"/><circle cx="1766.119130068952" cy="134.644274240044" r="1.307438474569339" fill="#fff" opacity="0.21692399988344965"/><circle cx="565.7231025224838" cy="4.298137922840691" r="1.8018285596747483" fill="#fff" opacity="0.30366525028451935"/><circle cx="675.9763300502618" cy="45.83432281711938" r="1.294376448447438" fill="#fff" opacity="0.6755510463089568"/><circle cx="1602.2276615356625" cy="365.4120502577657" r="1.3770309139222445" fill="#fff" opacity="0.2629782893375909"/><circle cx="1892.1624165708577" cy="191.5001471153228" r="0.7166162565622051" fill="#fff" opacity="0.5848974811343703"/><circle cx="1542.9737975315595" cy="232.71786542067252" r="1.729237812973847" fill="#fff" opacity="0.29543215215565455"/><circle cx="186.23204965755156" cy="6.3505884684507246" r="1.0717494893054824" fill="#fff" opacity="0.5329692070216334"/><circle cx="293.6811179606433" cy="22.561950349845446" r="1.0394318871059065" fill="#fff" opacity="0.22704939325969886"/><circle cx="1651.7235333592919" cy="307.35918437767754" r="0.9884531125399407" fill="#fff" opacity="0.3314670978885766"/><circle cx="420.16454736240314" cy="9.786621934218942" r="1.7046038563606802" fill="#fff" opacity="0.6258450009454612"/><circle cx="1287.5076094287233" cy="422.97389345405946" r="1.433835631570275" fill="#fff" opacity="0.7417600868599863"/><circle cx="1810.3687226517052" cy="218.36478233578725" r="0.8465037924112994" fill="#fff" opacity="0.5914074389243982"/><circle cx="412.1479646331044" cy="289.72621312777653" r="1.4431222358120424" fill="#fff" opacity="0.30782110307082095"/><circle cx="1750.5530798040688" cy="184.96074826478977" r="1.6892877793147434" fill="#fff" opacity="0.4520691673392591"/><circle cx="51.74086780560688" cy="253.42014732151762" r="1.0792310035506336" fill="#fff" opacity="0.43287172751335234"/><circle cx="140.15555087014928" cy="55.31060505456072" r="1.8198179699992336" fill="#fff" opacity="0.5418614729637888"/><circle cx="372.48510682314753" cy="319.49231168988445" r="0.8434222789582383" fill="#fff" opacity="0.3570581887748694"/><circle cx="417.29497129500265" cy="296.15595103617665" r="1.5541755346474646" fill="#fff" opacity="0.3258678018874181"/><circle cx="894.5318920012871" cy="237.53589802923048" r="1.4885739383726786" fill="#fff" opacity="0.6481000837516273"/><circle cx="62.9914610234535" cy="12.820839333539093" r="0.6375774088403158" fill="#fff" opacity="0.325899829837936"/><circle cx="1711.0765850057537" cy="430.977601904184" r="1.6137093419939534" fill="#fff" opacity="0.7118187720216389"/><circle cx="1280.592787861962" cy="135.78207806679004" r="0.8416105393184374" fill="#fff" opacity="0.6964309562222173"/><circle cx="377.28657254420375" cy="53.87487355383925" r="1.0539141467432291" fill="#fff" opacity="0.744021135834982"/><circle cx="1352.9614246061449" cy="105.4290097452302" r="1.586100238977489" fill="#fff" opacity="0.2479626350682142"/><circle cx="222.8916259628934" cy="38.27995009121484" r="1.9911336319034765" fill="#fff" opacity="0.6577575490013132"/><circle cx="1211.1056773204136" cy="240.7170220950425" r="1.6789030046618785" fill="#fff" opacity="0.6497033757273348"/><circle cx="598.2346184454473" cy="366.8931666461037" r="1.8130530232594007" fill="#fff" opacity="0.29725114891707227"/><circle cx="939.5370919209759" cy="337.65262618699404" r="0.9300818140455712" fill="#fff" opacity="0.5325035093195046"/><circle cx="139.2007577743383" cy="390.0364346033978" r="1.3896325929997566" fill="#fff" opacity="0.47284249171447995"/><circle cx="599.6006424630993" cy="290.0939349313485" r="1.1134455341644225" fill="#fff" opacity="0.532410687984063"/><circle cx="469.4330697854592" cy="72.58400673991629" r="0.8976580389769883" fill="#fff" opacity="0.5228360756120729"/><circle cx="606.9124756676407" cy="402.4112987859201" r="1.5001554406481226" fill="#fff" opacity="0.37064774771468895"/><circle cx="252.7391692094363" cy="141.1090787456159" r="1.1805528565730325" fill="#fff" opacity="0.2802241748385653"/><circle cx="997.3442000982687" cy="87.5441408472937" r="1.388087595903335" fill="#fff" opacity="0.2404873073660972"/><circle cx="1876.6921014982954" cy="317.42595003485354" r="1.7246908812608317" fill="#fff" opacity="0.3839251819029276"/><circle cx="23.473924850922526" cy="145.00807610550152" r="1.9461483452343726" fill="#fff" opacity="0.3628273186187323"/><circle cx="775.6975804585259" cy="262.7263106868431" r="0.5041692930981911" fill="#fff" opacity="0.41536510056242465"/><circle cx="8.386639954612273" cy="8.404735142459332" r="1.6774333937041073" fill="#fff" opacity="0.5059947991059149"/><circle cx="194.82091297274943" cy="101.5148950865294" r="1.9173848072340212" fill="#fff" opacity="0.7081459585363385"/><circle cx="62.02277676715115" cy="296.6609126908381" r="1.9736060365041732" fill="#fff" opacity="0.4439117876915056"/><circle cx="811.3250843089365" cy="126.15044342310875" r="1.8039675103044062" fill="#fff" opacity="0.29447541714051634"/><circle cx="1766.1183651923477" cy="399.5321631244226" r="0.9199395295977452" fill="#fff" opacity="0.7735343386823159"/><circle cx="871.717130744764" cy="106.82262087492799" r="0.8907127538441477" fill="#fff" opacity="0.5358352287988726"/><circle cx="63.73494164639501" cy="111.33957736551287" r="1.604936011276426" fill="#fff" opacity="0.2412129762212776"/><rect x="19.11665106171664" y="544.698714847839" width="82.92931871789725" height="344.1657516742511" fill="#003566" opacity="0.5315337183027374" rx="2"/><rect x="54.79463722132952" y="554.698714847839" width="11.573346398671472" height="7.246258515223455" fill="#ffc300" opacity="0.31040611590966727" rx="1"/><rect x="34.06230754185522" y="558.3218441054507" width="11.573346398671472" height="7.246258515223455" fill="#ffd60a" opacity="0.15520305795483363" rx="1"/><rect x="56.508151263815385" y="623.5318651826892" width="8.146318313699755" height="7.657803228510963" fill="#ffc300" opacity="0.20374107924377105" rx="1"/><rect x="35.77582158434108" y="627.3607667969447" width="8.146318313699755" height="7.657803228510963" fill="#ffd60a" opacity="0.10187053962188553" rx="1"/><rect x="55.793732844943584" y="692.3650155175394" width="9.575155151443358" height="7.209061960039907" fill="#ffc300" opacity="0.20486571993792096" rx="1"/><rect x="35.06140316546928" y="695.9695464975593" width="9.575155151443358" height="7.209061960039907" fill="#ffd60a" opacity="0.10243285996896048" rx="1"/><rect x="57.74598291813069" y="761.1981658523897" width="5.670655005069136" height="9.455701867923072" fill="#ffc300" opacity="0.1988196160408714" rx="1"/><rect x="37.01365323865639" y="765.9260167863513" width="5.670655005069136" height="9.455701867923072" fill="#ffd60a" opacity="0.0994098080204357" rx="1"/><rect x="57.382001048974224" y="830.0313161872399" width="6.398618743382073" height="6.569213796539515" fill="#ffc300" opacity="0.26561796717942177" rx="1"/><rect x="36.64967136949992" y="833.3159230855097" width="6.398618743382073" height="6.569213796539515" fill="#ffd60a" opacity="0.13280898358971088" rx="1"/><rect x="120.64451917089626" y="664.5351278978715" width="45.561385176973744" height="224.3293386242188" fill="#003566" opacity="0.6431664547517818" rx="2"/><rect x="140.46893320965322" y="674.5351278978715" width="5.912557099459822" height="7.615731228519168" fill="#ffc300" opacity="0.5780925934850454" rx="1"/><rect x="129.07858691540977" y="678.3429935121311" width="5.912557099459822" height="7.615731228519168" fill="#ffd60a" opacity="0.2890462967425227" rx="1"/><rect x="138.86046844950422" y="719.4009956227152" width="9.129486619757834" height="9.166743544667668" fill="#ffc300" opacity="0.3936321210101321" rx="1"/><rect x="127.47012215526077" y="723.984367395049" width="9.129486619757834" height="9.166743544667668" fill="#ffd60a" opacity="0.19681606050506606" rx="1"/><rect x="137.5794241429724" y="764.266863347559" width="11.691575232821418" height="7.43013777430871" fill="#ffc300" opacity="0.19038547777812592" rx="1"/><rect x="126.18907784872899" y="767.9819322347133" width="11.691575232821418" height="7.43013777430871" fill="#ffd60a" opacity="0.09519273888906296" rx="1"/><rect x="140.61756741898543" y="809.1327310724027" width="5.615288680795414" height="9.92256930189267" fill="#ffc300" opacity="0.5624859284289382" rx="1"/><rect x="129.227221124742" y="814.0940157233491" width="5.615288680795414" height="9.92256930189267" fill="#ffd60a" opacity="0.2812429642144691" rx="1"/><rect x="140.70502071634516" y="853.9985987972465" width="5.440382086075932" height="7.1318687119362565" fill="#ffc300" opacity="0.5271413695363192" rx="1"/><rect x="129.31467442210172" y="857.5645331532146" width="5.440382086075932" height="7.1318687119362565" fill="#ffd60a" opacity="0.2635706847681596" rx="1"/><rect x="220.04938613391698" y="642.5371666072256" width="45.09851723329595" height="246.32729991486465" fill="#001b4c" opacity="0.6374805562285428" rx="2"/><rect x="239.00281535741007" y="652.5371666072256" width="7.191658786309803" height="7.787792072116349" fill="#ffc300" opacity="0.2475111252273226" rx="1"/><rect x="227.72818604908608" y="656.4310626432838" width="7.191658786309803" height="7.787792072116349" fill="#ffd60a" opacity="0.1237555626136613" rx="1"/><rect x="238.91198014931567" y="687.7267808807777" width="7.373329202498619" height="6.8186940040482895" fill="#ffc300" opacity="0.4445842648727317" rx="1"/><rect x="227.63735084099167" y="691.1361278828018" width="7.373329202498619" height="6.8186940040482895" fill="#ffd60a" opacity="0.22229213243636586" rx="1"/><rect x="237.61600021333805" y="722.9163951543297" width="9.965289074453825" height="9.382726713871287" fill="#ffc300" opacity="0.12025017887825384" rx="1"/><rect x="226.34137090501406" y="727.6077585112654" width="9.965289074453825" height="9.382726713871287" fill="#ffd60a" opacity="0.06012508943912692" rx="1"/><rect x="239.50780308724097" y="758.1060094278819" width="6.181683326648009" height="8.898331633512473" fill="#ffc300" opacity="0.5786335616322779" rx="1"/><rect x="228.23317377891698" y="762.5551752446381" width="6.181683326648009" height="8.898331633512473" fill="#ffd60a" opacity="0.28931678081613893" rx="1"/><rect x="236.76246301684586" y="793.2956237014339" width="11.672363467438231" height="7.203293192480526" fill="#ffc300" opacity="0.491998628129251" rx="1"/><rect x="225.48783370852186" y="796.8972702976741" width="11.672363467438231" height="7.203293192480526" fill="#ffd60a" opacity="0.2459993140646255" rx="1"/><rect x="239.34486641184074" y="828.485237974986" width="6.50755667744846" height="9.31107276289516" fill="#ffc300" opacity="0.4241397754345415" rx="1"/><rect x="228.07023710351675" y="833.1407743564337" width="6.50755667744846" height="9.31107276289516" fill="#ffd60a" opacity="0.21206988771727076" rx="1"/><rect x="238.19605902749953" y="863.6748522485382" width="8.805171446130885" height="6.994435489409239" fill="#ffc300" opacity="0.5337614395035807" rx="1"/><rect x="226.92142971917553" y="867.1720699932428" width="8.805171446130885" height="6.994435489409239" fill="#ffd60a" opacity="0.26688071975179034" rx="1"/><rect x="331.227159449185" y="748.8911660967607" width="32.74659144756072" height="139.97330042532954" fill="#003566" opacity="0.6123014229611264" rx="2"/><rect x="343.5498326384811" y="758.8911660967607" width="8.101245068968563" height="7.185617329828817" fill="#ffc300" opacity="0.41088520698502784" rx="1"/><rect x="335.3631847765909" y="762.4839747616751" width="8.101245068968563" height="7.185617329828817" fill="#ffd60a" opacity="0.20544260349251392" rx="1"/><rect x="342.45288289511876" y="778.8873518718077" width="10.295144555693293" height="9.726000189717393" fill="#ffc300" opacity="0.1626127112336952" rx="1"/><rect x="334.26623503322855" y="783.7503519666664" width="10.295144555693293" height="9.726000189717393" fill="#ffd60a" opacity="0.0813063556168476" rx="1"/><rect x="342.7482420103038" y="798.8835376468548" width="9.704426325323158" height="6.918591517237618" fill="#ffc300" opacity="0.23900211072503638" rx="1"/><rect x="334.5615941484136" y="802.3428334054737" width="9.704426325323158" height="6.918591517237618" fill="#ffd60a" opacity="0.11950105536251819" rx="1"/><rect x="344.85280681630894" y="818.8797234219019" width="5.495296713312924" height="7.607667674684819" fill="#ffc300" opacity="0.5337752518322727" rx="1"/><rect x="336.66615895441873" y="822.6835572592443" width="5.495296713312924" height="7.607667674684819" fill="#ffd60a" opacity="0.26688762591613635" rx="1"/><rect x="342.82554404712874" y="838.875909196949" width="9.54982225167328" height="9.698369800974236" fill="#ffc300" opacity="0.15955170748279238" rx="1"/><rect x="334.63889618523854" y="843.7250940974361" width="9.54982225167328" height="9.698369800974236" fill="#ffd60a" opacity="0.07977585374139619" rx="1"/><rect x="343.233200115206" y="858.872094971996" width="8.73451011551882" height="6.122213360881949" fill="#ffc300" opacity="0.39880784796523117" rx="1"/><rect x="335.0465522533158" y="861.933201652437" width="8.73451011551882" height="6.122213360881949" fill="#ffd60a" opacity="0.19940392398261558" rx="1"/><rect x="344.10519900105544" y="878.8682807470432" width="6.990512343819838" height="6.43882362647886" fill="#ffc300" opacity="0.39227153707581375" rx="1"/><rect x="335.91855113916523" y="882.0876925602826" width="6.990512343819838" height="6.43882362647886" fill="#ffd60a" opacity="0.19613576853790687" rx="1"/><rect x="447.91382894104197" y="580.3093562788118" width="57.2784901473854" height="308.55511024327836" fill="#003566" opacity="0.6801059721922749" rx="2"/><rect x="470.8076826766616" y="590.3093562788118" width="11.490782676146083" height="8.09827336904087" fill="#ffc300" opacity="0.21477322099143015" rx="1"/><rect x="456.4880601398153" y="594.3584929633323" width="11.490782676146083" height="8.09827336904087" fill="#ffd60a" opacity="0.10738661049571507" rx="1"/><rect x="471.3042199728787" y="693.1610596932379" width="10.497708083711963" height="6.63427116643504" fill="#ffc300" opacity="0.4308920571186794" rx="1"/><rect x="456.98459743603235" y="696.4781952764554" width="10.497708083711963" height="6.63427116643504" fill="#ffd60a" opacity="0.2154460285593397" rx="1"/><rect x="472.34016649595924" y="796.0127631076641" width="8.425815037550827" height="7.216661631412958" fill="#ffc300" opacity="0.33929598618748036" rx="1"/><rect x="458.0205439591129" y="799.6210939233706" width="8.425815037550827" height="7.216661631412958" fill="#ffd60a" opacity="0.16964799309374018" rx="1"/><rect x="541.0169933785259" y="719.8578746337112" width="46.79168212618485" height="169.00659188837898" fill="#001b4c" opacity="0.6266666339306781" rx="2"/><rect x="561.3568397947487" y="729.8578746337112" width="6.111989293739198" height="9.833093901125968" fill="#ffc300" opacity="0.1837218734863498" rx="1"/><rect x="549.6589192632024" y="734.7744215842741" width="6.111989293739198" height="9.833093901125968" fill="#ffd60a" opacity="0.0918609367431749" rx="1"/><rect x="559.1711818087314" y="754.0016734749081" width="10.483305265773858" height="7.273961610457386" fill="#ffc300" opacity="0.4439827391048853" rx="1"/><rect x="547.4732612771851" y="757.6386542801368" width="10.483305265773858" height="7.273961610457386" fill="#ffd60a" opacity="0.22199136955244264" rx="1"/><rect x="559.4006051165985" y="778.1454723161052" width="10.024458650039616" height="9.894888705549503" fill="#ffc300" opacity="0.1235408338540096" rx="1"/><rect x="547.7026845850522" y="783.0929166688799" width="10.024458650039616" height="9.894888705549503" fill="#ffd60a" opacity="0.0617704169270048" rx="1"/><rect x="560.3562551530442" y="802.2892711573022" width="8.113158577148141" height="7.647307580720472" fill="#ffc300" opacity="0.31156472147246006" rx="1"/><rect x="548.6583346214979" y="806.1129249476625" width="8.113158577148141" height="7.647307580720472" fill="#ffd60a" opacity="0.15578236073623003" rx="1"/><rect x="560.8739938325887" y="826.4330699984991" width="7.077681218059194" height="6.474538110307077" fill="#ffc300" opacity="0.5007058087505181" rx="1"/><rect x="549.1760733010424" y="829.6703390536527" width="7.077681218059194" height="6.474538110307077" fill="#ffd60a" opacity="0.25035290437525903" rx="1"/><rect x="561.7821543218527" y="850.5768688396961" width="5.26136023953123" height="8.262711400692982" fill="#ffc300" opacity="0.48267736995655053" rx="1"/><rect x="550.0842337903064" y="854.7082245400426" width="5.26136023953123" height="8.262711400692982" fill="#ffd60a" opacity="0.24133868497827526" rx="1"/><rect x="559.4081436792408" y="874.7206676808931" width="10.00938152475501" height="8.4664987079954" fill="#ffc300" opacity="0.5427732502675553" rx="1"/><rect x="547.7102231476945" y="878.9539170348909" width="10.00938152475501" height="8.4664987079954" fill="#ffd60a" opacity="0.27138662513377765" rx="1"/><rect x="641.010124308758" y="739.8336458345487" width="33.47518683026433" height="149.03082068754145" fill="#001b4c" opacity="0.5582557150531224" rx="2"/><rect x="655.0197838558862" y="749.8336458345487" width="5.4558677360079875" height="7.021757754735127" fill="#ffc300" opacity="0.34538420169739614" rx="1"/><rect x="646.65098714832" y="753.3445247119163" width="5.4558677360079875" height="7.021757754735127" fill="#ffd60a" opacity="0.17269210084869807" rx="1"/><rect x="652.1012297317156" y="774.672115949139" width="11.292975984349143" height="7.467652310958982" fill="#ffc300" opacity="0.4196179694076111" rx="1"/><rect x="643.7324330241495" y="778.4059421046185" width="11.292975984349143" height="7.467652310958982" fill="#ffd60a" opacity="0.20980898470380555" rx="1"/><rect x="652.2004522651436" y="799.5105860637292" width="11.094530917493284" height="6.887744722163245" fill="#ffc300" opacity="0.22406242234261298" rx="1"/><rect x="643.8316555575774" y="802.9544584248108" width="11.094530917493284" height="6.887744722163245" fill="#ffd60a" opacity="0.11203121117130649" rx="1"/><rect x="654.0417527940688" y="824.3490561783194" width="7.4119298596428544" height="8.38909354954704" fill="#ffc300" opacity="0.22613616327898023" rx="1"/><rect x="645.6729560865026" y="828.5436029530929" width="7.4119298596428544" height="8.38909354954704" fill="#ffd60a" opacity="0.11306808163949011" rx="1"/><rect x="655.6110698130474" y="849.1875262929098" width="4.273295821685646" height="8.765470346148469" fill="#ffc300" opacity="0.31019081368814005" rx="1"/><rect x="647.2422731054812" y="853.570261465984" width="4.273295821685646" height="8.765470346148469" fill="#ffd60a" opacity="0.15509540684407003" rx="1"/><rect x="655.2830526601251" y="874.0259964075" width="4.929330127530109" height="7.473908102483001" fill="#ffc300" opacity="0.11693360135353488" rx="1"/><rect x="646.914255952559" y="877.7629504587414" width="4.929330127530109" height="7.473908102483001" fill="#ffd60a" opacity="0.05846680067676744" rx="1"/><rect x="775.5449473474978" y="516.0525538763153" width="72.42065804135535" height="372.8119126457749" fill="#003566" opacity="0.6879093146389139" rx="2"/><rect x="806.344909290165" y="526.0525538763153" width="10.82073415602109" height="9.12378121053888" fill="#ffc300" opacity="0.11309507014534788" rx="1"/><rect x="788.2397447798261" y="530.6144444815848" width="10.82073415602109" height="9.12378121053888" fill="#ffd60a" opacity="0.05654753507267394" rx="1"/><rect x="809.7548930553614" y="600.6149364054703" width="4.000766625628054" height="9.579883020273382" fill="#ffc300" opacity="0.15626620924013346" rx="1"/><rect x="791.6497285450225" y="605.404877915607" width="4.000766625628054" height="9.579883020273382" fill="#ffd60a" opacity="0.07813310462006673" rx="1"/><rect x="807.9378805176676" y="675.1773189346252" width="7.634791701015735" height="9.873429995000695" fill="#ffc300" opacity="0.2969849388573749" rx="1"/><rect x="789.8327160073287" y="680.1140339321255" width="7.634791701015735" height="9.873429995000695" fill="#ffd60a" opacity="0.14849246942868746" rx="1"/><rect x="808.8216279754" y="749.7397014637802" width="5.86729678555096" height="6.98679258790491" fill="#ffc300" opacity="0.11771098107977561" rx="1"/><rect x="790.7164634650611" y="753.2330977577326" width="5.86729678555096" height="6.98679258790491" fill="#ffd60a" opacity="0.058855490539887804" rx="1"/><rect x="806.7555874338736" y="824.3020839929352" width="9.99937786860377" height="7.5741440340816375" fill="#ffc300" opacity="0.15631729833695976" rx="1"/><rect x="788.6504229235347" y="828.089156009976" width="9.99937786860377" height="7.5741440340816375" fill="#ffd60a" opacity="0.07815864916847988" rx="1"/><rect x="859.3901545483129" y="765.735908938976" width="59.48538269602819" height="123.12855758311426" fill="#001b4c" opacity="0.4536254664542213" rx="2"/><rect x="885.7626219165423" y="775.735908938976" width="6.740447959569387" height="8.505652870634956" fill="#ffc300" opacity="0.566461591414749" rx="1"/><rect x="870.8912762425354" y="779.9887353742935" width="6.740447959569387" height="8.505652870634956" fill="#ffd60a" opacity="0.2832307957073745" rx="1"/><rect x="886.7538854171879" y="800.3616204555988" width="4.757920958278216" height="9.192090337907917" fill="#ffc300" opacity="0.5157513431077244" rx="1"/><rect x="871.8825397431809" y="804.9576656245528" width="4.757920958278216" height="9.192090337907917" fill="#ffd60a" opacity="0.2578756715538622" rx="1"/><rect x="884.4504662746214" y="824.9873319722217" width="9.36475924341119" height="6.213412650910535" fill="#ffc300" opacity="0.2942246354171598" rx="1"/><rect x="869.5791206006144" y="828.094038297677" width="9.36475924341119" height="6.213412650910535" fill="#ffd60a" opacity="0.1471123177085799" rx="1"/><rect x="886.4650694242363" y="849.6130434888445" width="5.335552944181383" height="7.668193160013341" fill="#ffc300" opacity="0.19387440061985384" rx="1"/><rect x="871.5937237502293" y="853.4471400688511" width="5.335552944181383" height="7.668193160013341" fill="#ffd60a" opacity="0.09693720030992692" rx="1"/><rect x="886.2046592466543" y="874.2387550054674" width="5.856373299345461" height="8.751256074465639" fill="#ffc300" opacity="0.15502627535141686" rx="1"/><rect x="871.3333135726473" y="878.6143830427002" width="5.856373299345461" height="8.751256074465639" fill="#ffd60a" opacity="0.07751313767570843" rx="1"/><rect x="979.9594965064804" y="600.0735477078877" width="82.87675108129082" height="288.79091881420254" fill="#001b4c" opacity="0.50677623870009" rx="2"/><rect x="1016.8113067661905" y="610.0735477078877" width="9.173130561870785" height="6.833489528119911" fill="#ffc300" opacity="0.26979595103063525" rx="1"/><rect x="996.0921189958677" y="613.4902924719476" width="9.173130561870785" height="6.833489528119911" fill="#ffd60a" opacity="0.13489797551531763" rx="1"/><rect x="1017.0908427918541" y="682.2712774114383" width="8.614058510543327" height="8.52967342700103" fill="#ffc300" opacity="0.4646431242499135" rx="1"/><rect x="996.3716550215314" y="686.5361141249388" width="8.614058510543327" height="8.52967342700103" fill="#ffd60a" opacity="0.23232156212495675" rx="1"/><rect x="1018.0422317108704" y="754.4690071149889" width="6.711280672510918" height="9.962341031050855" fill="#ffc300" opacity="0.42593345626395507" rx="1"/><rect x="997.3230439405477" y="759.4501776305143" width="6.711280672510918" height="9.962341031050855" fill="#ffd60a" opacity="0.21296672813197753" rx="1"/><rect x="1018.0801774414908" y="826.6667368185396" width="6.635389211269885" height="9.882975793416374" fill="#ffc300" opacity="0.5114485404946488" rx="1"/><rect x="997.3609896711681" y="831.6082247152477" width="6.635389211269885" height="9.882975793416374" fill="#ffd60a" opacity="0.2557242702473244" rx="1"/><rect x="1071.1705754676766" y="700.8057928645997" width="69.65081870082086" height="188.05867365749057" fill="#003566" opacity="0.4362157995431255" rx="2"/><rect x="1103.3828440812376" y="710.8057928645997" width="5.226281473698625" height="7.867965750831171" fill="#ffc300" opacity="0.4781369764772563" rx="1"/><rect x="1085.9701394060326" y="714.7397757400153" width="5.226281473698625" height="7.867965750831171" fill="#ffd60a" opacity="0.23906848823862814" rx="1"/><rect x="1100.885697924971" y="742.1489051408481" width="10.220573786231823" height="7.781467595552436" fill="#ffc300" opacity="0.20509017275299185" rx="1"/><rect x="1083.472993249766" y="746.0396389386243" width="10.220573786231823" height="7.781467595552436" fill="#ffd60a" opacity="0.10254508637649593" rx="1"/><rect x="1101.7223472517735" y="773.4920174170965" width="8.547275132627057" height="8.426625974110008" fill="#ffc300" opacity="0.41828155061655714" rx="1"/><rect x="1084.3096425765684" y="777.7053304041515" width="8.547275132627057" height="8.426625974110008" fill="#ffd60a" opacity="0.20914077530827857" rx="1"/><rect x="1100.27376724623" y="804.8351296933449" width="11.44443514371394" height="8.017499632671825" fill="#ffc300" opacity="0.14477674002870378" rx="1"/><rect x="1082.8610625710248" y="808.8438795096808" width="11.44443514371394" height="8.017499632671825" fill="#ffd60a" opacity="0.07238837001435189" rx="1"/><rect x="1103.0705746514886" y="836.1782419695934" width="5.850820333196507" height="8.267360281727129" fill="#ffc300" opacity="0.5034755248351664" rx="1"/><rect x="1085.6578699762836" y="840.311922110457" width="5.850820333196507" height="8.267360281727129" fill="#ffd60a" opacity="0.2517377624175832" rx="1"/><rect x="1101.7165018540613" y="867.5213542458418" width="8.55896592805138" height="8.093366989421977" fill="#ffc300" opacity="0.1441879159873789" rx="1"/><rect x="1084.3037971788563" y="871.5680377405529" width="8.55896592805138" height="8.093366989421977" fill="#ffd60a" opacity="0.07209395799368945" rx="1"/><rect x="1177.524350794853" y="631.9749578908027" width="86.2751637017995" height="256.8895086312875" fill="#001b4c" opacity="0.4874841165466896" rx="2"/><rect x="1216.613936165258" y="641.9749578908027" width="8.095992960989474" height="8.587089557803024" fill="#ffc300" opacity="0.28863176267795077" rx="1"/><rect x="1195.045145239808" y="646.2685026697042" width="8.095992960989474" height="8.587089557803024" fill="#ffd60a" opacity="0.14431588133897538" rx="1"/><rect x="1218.2597901637807" y="674.0861464697136" width="4.8042849639440615" height="7.4432336104668755" fill="#ffc300" opacity="0.18800994991045678" rx="1"/><rect x="1196.6909992383307" y="677.8077632749471" width="4.8042849639440615" height="7.4432336104668755" fill="#ffd60a" opacity="0.09400497495522839" rx="1"/><rect x="1217.9090910546738" y="706.1973350486246" width="5.505683182157968" height="7.197337411622828" fill="#ffc300" opacity="0.37351740381529497" rx="1"/><rect x="1196.3403001292238" y="709.796003754436" width="5.505683182157968" height="7.197337411622828" fill="#ffd60a" opacity="0.18675870190764748" rx="1"/><rect x="1218.279494451657" y="738.3085236275355" width="4.76487638819145" height="6.6248312845418305" fill="#ffc300" opacity="0.5534350978102152" rx="1"/><rect x="1196.710703526207" y="741.6209392698064" width="4.76487638819145" height="6.6248312845418305" fill="#ffd60a" opacity="0.2767175489051076" rx="1"/><rect x="1218.5764220332674" y="770.4197122064464" width="4.171021224970701" height="8.39605422653166" fill="#ffc300" opacity="0.5718804925149028" rx="1"/><rect x="1197.0076311078174" y="774.6177393197123" width="4.171021224970701" height="8.39605422653166" fill="#ffd60a" opacity="0.2859402462574514" rx="1"/><rect x="1216.5525623596166" y="802.5309007853574" width="8.218740572272507" height="9.90003505067435" fill="#ffc300" opacity="0.3160910403393421" rx="1"/><rect x="1194.9837714341666" y="807.4809183106946" width="8.218740572272507" height="9.90003505067435" fill="#ffd60a" opacity="0.15804552016967105" rx="1"/><rect x="1215.3760929495043" y="834.6420893642683" width="10.57167939249698" height="8.564626271502261" fill="#ffc300" opacity="0.48653617070208677" rx="1"/><rect x="1193.8073020240543" y="838.9244025000194" width="10.57167939249698" height="8.564626271502261" fill="#ffd60a" opacity="0.24326808535104338" rx="1"/><rect x="1217.3142757938047" y="866.7532779431792" width="6.695313703896318" height="6.783722268599952" fill="#ffc300" opacity="0.4200038263620818" rx="1"/><rect x="1195.7454848683547" y="870.1451390774793" width="6.695313703896318" height="6.783722268599952" fill="#ffd60a" opacity="0.2100019131810409" rx="1"/><rect x="1288.76922815311" y="713.0160299392919" width="36.82905364474958" height="175.84843658279823" fill="#003566" opacity="0.6304776327988313" rx="2"/><rect x="1301.8910991155753" y="723.0160299392919" width="10.585311719818346" height="9.174866092199196" fill="#ffc300" opacity="0.42931539517112904" rx="1"/><rect x="1292.683835704388" y="727.6034629853915" width="10.585311719818346" height="9.174866092199196" fill="#ffd60a" opacity="0.21465769758556452" rx="1"/><rect x="1302.9440765809138" y="781.6321754668913" width="8.479356789141743" height="6.094297674506507" fill="#ffc300" opacity="0.3038710285452826" rx="1"/><rect x="1293.7368131697265" y="784.6793243041446" width="8.479356789141743" height="6.094297674506507" fill="#ffd60a" opacity="0.1519355142726413" rx="1"/><rect x="1304.816235599531" y="840.2483209944908" width="4.735038751907423" height="8.477297167870518" fill="#ffc300" opacity="0.4378617112380131" rx="1"/><rect x="1295.6089721883436" y="844.486969578426" width="4.735038751907423" height="8.477297167870518" fill="#ffd60a" opacity="0.21893085561900655" rx="1"/><rect x="1407.796588194975" y="528.250119539036" width="59.28393059626313" height="360.61434698305425" fill="#003566" opacity="0.4895686679961087" rx="2"/><rect x="1433.4843784059594" y="538.250119539036" width="7.908350174293934" height="7.033900657909434" fill="#ffc300" opacity="0.22696801105676406" rx="1"/><rect x="1418.6633957568938" y="541.7670698679907" width="7.908350174293934" height="7.033900657909434" fill="#ffd60a" opacity="0.11348400552838203" rx="1"/><rect x="1434.7001530643786" y="610.3729889356468" width="5.476800857455656" height="8.870927801092837" fill="#ffc300" opacity="0.4196720007852819" rx="1"/><rect x="1419.879170415313" y="614.8084528361933" width="5.476800857455656" height="8.870927801092837" fill="#ffd60a" opacity="0.20983600039264094" rx="1"/><rect x="1432.122753578034" y="682.4958583322576" width="10.631599830144923" height="9.41659918786413" fill="#ffc300" opacity="0.32636430867164495" rx="1"/><rect x="1417.3017709289684" y="687.2041579261897" width="10.631599830144923" height="9.41659918786413" fill="#ffd60a" opacity="0.16318215433582248" rx="1"/><rect x="1434.5638724904422" y="754.6187277288685" width="5.749362005328146" height="8.960140146072987" fill="#ffc300" opacity="0.27210303949473963" rx="1"/><rect x="1419.7428898413766" y="759.098797801905" width="5.749362005328146" height="8.960140146072987" fill="#ffd60a" opacity="0.13605151974736981" rx="1"/><rect x="1433.6176057394168" y="826.7415971254793" width="7.641895507378945" height="9.01634500525341" fill="#ffc300" opacity="0.39900625436543635" rx="1"/><rect x="1418.7966230903512" y="831.249769628106" width="7.641895507378945" height="9.01634500525341" fill="#ffd60a" opacity="0.19950312718271818" rx="1"/><rect x="1520.3548792773752" y="711.519157470092" width="71.97678787679803" height="177.34530905199824" fill="#001b4c" opacity="0.6522145367116235" rx="2"/><rect x="1552.765101397821" y="721.519157470092" width="7.156343635906545" height="7.218956974618825" fill="#ffc300" opacity="0.25635839306198954" rx="1"/><rect x="1534.7709044286214" y="725.1286359574013" width="7.156343635906545" height="7.218956974618825" fill="#ffd60a" opacity="0.12817919653099477" rx="1"/><rect x="1551.4939911897511" y="751.0767089787583" width="9.698564052045942" height="9.323619646794075" fill="#ffc300" opacity="0.527872473124385" rx="1"/><rect x="1533.4997942205516" y="755.7385188021553" width="9.698564052045942" height="9.323619646794075" fill="#ffd60a" opacity="0.2639362365621925" rx="1"/><rect x="1552.9320858851847" y="780.6342604874247" width="6.8223746611788805" height="9.523533553705441" fill="#ffc300" opacity="0.13694550624046137" rx="1"/><rect x="1534.9378889159852" y="785.3960272642774" width="6.8223746611788805" height="9.523533553705441" fill="#ffd60a" opacity="0.06847275312023068" rx="1"/><rect x="1551.8825711982515" y="810.191811996091" width="8.92140403504516" height="7.746588997018195" fill="#ffc300" opacity="0.15301260448829565" rx="1"/><rect x="1533.888374229052" y="814.0651064946002" width="8.92140403504516" height="7.746588997018195" fill="#ffd60a" opacity="0.07650630224414783" rx="1"/><rect x="1552.965856648508" y="839.7493635047574" width="6.7548331345326345" height="8.262436243300893" fill="#ffc300" opacity="0.3181972268079867" rx="1"/><rect x="1534.9716596793085" y="843.8805816264079" width="6.7548331345326345" height="8.262436243300893" fill="#ffd60a" opacity="0.15909861340399334" rx="1"/><rect x="1551.5003535255091" y="869.3069150134238" width="9.685839380530137" height="9.488498664341982" fill="#ffc300" opacity="0.2769496699974289" rx="1"/><rect x="1533.5061565563096" y="874.0511643455948" width="9.685839380530137" height="9.488498664341982" fill="#ffd60a" opacity="0.13847483499871446" rx="1"/><rect x="1611.4469041585567" y="780.9018823040886" width="58.153116765467715" height="107.9625842180016" fill="#001b4c" opacity="0.41647706255700373" rx="2"/><rect x="1637.7162169038122" y="790.9018823040886" width="5.614491274956262" height="6.0704060923472065" fill="#ffc300" opacity="0.33749606375058555" rx="1"/><rect x="1623.1779377124453" y="793.9370853502622" width="5.614491274956262" height="6.0704060923472065" fill="#ffd60a" opacity="0.16874803187529278" rx="1"/><rect x="1634.561936378377" y="817.8925283585891" width="11.923052325826848" height="8.072584987169268" fill="#ffc300" opacity="0.3020925400317862" rx="1"/><rect x="1620.02365718701" y="821.9288208521737" width="11.923052325826848" height="8.072584987169268" fill="#ffd60a" opacity="0.1510462700158931" rx="1"/><rect x="1635.529533673201" y="844.8831744130895" width="9.98785773617864" height="9.09353435390944" fill="#ffc300" opacity="0.5903046756494569" rx="1"/><rect x="1620.9912544818342" y="849.4299415900442" width="9.98785773617864" height="9.09353435390944" fill="#ffd60a" opacity="0.29515233782472844" rx="1"/><rect x="1637.543180199932" y="871.8738204675899" width="5.960564682716635" height="9.051171865093329" fill="#ffc300" opacity="0.240894456682935" rx="1"/><rect x="1623.0049010085652" y="876.3994064001365" width="5.960564682716635" height="9.051171865093329" fill="#ffd60a" opacity="0.1204472283414675" rx="1"/><rect x="1718.0002662697807" y="548.3170053102813" width="68.2389486623553" height="340.54746121180887" fill="#003566" opacity="0.4728964138945789" rx="2"/><rect x="1748.2590246301281" y="558.3170053102813" width="7.721431941660454" height="8.604350112053648" fill="#ffc300" opacity="0.3768665451502582" rx="1"/><rect x="1731.1992874645393" y="562.6191803663081" width="7.721431941660454" height="8.604350112053648" fill="#ffd60a" opacity="0.1884332725751291" rx="1"/><rect x="1746.8359558800782" y="615.0749155122494" width="10.567569441759858" height="8.719235081858756" fill="#ffc300" opacity="0.5893048274073063" rx="1"/><rect x="1729.7762187144895" y="619.4345330531787" width="10.567569441759858" height="8.719235081858756" fill="#ffd60a" opacity="0.29465241370365314" rx="1"/><rect x="1749.4051538604322" y="671.8328257142175" width="5.429173481052083" height="8.955239591876799" fill="#ffc300" opacity="0.16484474289809464" rx="1"/><rect x="1732.3454166948434" y="676.3104455101559" width="5.429173481052083" height="8.955239591876799" fill="#ffd60a" opacity="0.08242237144904732" rx="1"/><rect x="1747.1794836423776" y="728.5907359161857" width="9.88051391716127" height="8.976190816372677" fill="#ffc300" opacity="0.22361740265591476" rx="1"/><rect x="1730.1197464767888" y="733.0788313243721" width="9.88051391716127" height="8.976190816372677" fill="#ffd60a" opacity="0.11180870132795738" rx="1"/><rect x="1746.9000323400599" y="785.3486461181539" width="10.43941652179682" height="7.045142076221561" fill="#ffc300" opacity="0.5667806066495321" rx="1"/><rect x="1729.840295174471" y="788.8712171562646" width="10.43941652179682" height="7.045142076221561" fill="#ffd60a" opacity="0.28339030332476606" rx="1"/><rect x="1749.2427633340103" y="842.106556320122" width="5.753954533895933" height="7.844337302689519" fill="#ffc300" opacity="0.16234052406212793" rx="1"/><rect x="1732.1830261684215" y="846.0287249714668" width="5.753954533895933" height="7.844337302689519" fill="#ffd60a" opacity="0.08117026203106396" rx="1"/><rect x="1826.4968194524981" y="747.3222578054579" width="87.63640121967447" height="141.5422087166324" fill="#001b4c" opacity="0.6332488585340904" rx="2"/><rect x="1866.9529019715153" y="757.3222578054579" width="6.724236181640121" height="8.121379356393913" fill="#ffc300" opacity="0.1452577709325724" rx="1"/><rect x="1845.0438016665967" y="761.3829474836548" width="6.724236181640121" height="8.121379356393913" fill="#ffd60a" opacity="0.0726288854662862" rx="1"/><rect x="1867.1059204209841" y="775.0150338950369" width="6.41819928270257" height="6.733326099983725" fill="#ffc300" opacity="0.26249624317570036" rx="1"/><rect x="1845.1968201160655" y="778.3816969450288" width="6.41819928270257" height="6.733326099983725" fill="#ffd60a" opacity="0.13124812158785018" rx="1"/><rect x="1864.880363704143" y="792.707809984616" width="10.869312716384723" height="6.895311874545951" fill="#ffc300" opacity="0.12367091388992754" rx="1"/><rect x="1842.9712633992244" y="796.155465921889" width="10.869312716384723" height="6.895311874545951" fill="#ffd60a" opacity="0.06183545694496377" rx="1"/><rect x="1867.5997171040158" y="810.400586074195" width="5.430605916639466" height="9.997115978970452" fill="#ffc300" opacity="0.3300592512427967" rx="1"/><rect x="1845.6906167990971" y="815.3991440636802" width="5.430605916639466" height="9.997115978970452" fill="#ffd60a" opacity="0.16502962562139836" rx="1"/><rect x="1865.9170770521548" y="828.093362163774" width="8.795886020361419" height="9.160792358024231" fill="#ffc300" opacity="0.14799877189751687" rx="1"/><rect x="1844.0079767472362" y="832.6737583427862" width="8.795886020361419" height="9.160792358024231" fill="#ffd60a" opacity="0.07399938594875843" rx="1"/><rect x="1866.4042393880438" y="845.7861382533531" width="7.821561348582982" height="8.250416080991368" fill="#ffc300" opacity="0.23306644631853943" rx="1"/><rect x="1844.4951390831252" y="849.9113462938487" width="7.821561348582982" height="8.250416080991368" fill="#ffd60a" opacity="0.11653322315926971" rx="1"/><rect x="1868.1314007353808" y="863.4789143429322" width="4.367238653909237" height="8.106801440498513" fill="#ffc300" opacity="0.5354714297073594" rx="1"/><rect x="1846.2223004304622" y="867.5323150631814" width="4.367238653909237" height="8.106801440498513" fill="#ffd60a" opacity="0.2677357148536797" rx="1"/><rect x="1865.1799188876012" y="881.1716904325112" width="10.270202349468647" height="7.15878317811498" fill="#ffc300" opacity="0.3135545281259237" rx="1"/><rect x="1843.2708185826825" y="884.7510820215688" width="10.270202349468647" height="7.15878317811498" fill="#ffd60a" opacity="0.15677726406296186" rx="1"/><rect x="0" y="1000" width="1920" height="80" fill="#000f40" opacity="0.8"/><line x1="0" y1="1040" x2="1920" y2="1040" stroke="#ffc300" stroke-opacity="0.15" stroke-width="2" stroke-dasharray="30,20"/><rect x="0" y="930" width="1920" height="150" fill="url(#glow94)"/><rect x="0" y="980" width="1920" height="100" fill="#ffc300" opacity="0.04"/><rect x="1697.3640649992424" y="1010.4488986568639" width="26.981170155802083" height="2" fill="#ffd60a" opacity="0.022270751279376156" rx="1"/><rect x="1294.3215177986588" y="1037.509998767057" width="30.61665765257009" height="2" fill="#ffd60a" opacity="0.02156744670159357" rx="1"/><rect x="505.4901696428401" y="1042.364607137247" width="21.52257401531622" height="2" fill="#ffd60a" opacity="0.03764729573802261" rx="1"/><rect x="137.6567218028141" y="1025.3942749429016" width="95.19362388998123" height="2" fill="#ffd60a" opacity="0.0357687558829246" rx="1"/><rect x="347.8120981966639" y="1021.3969546094064" width="54.44173287936527" height="2" fill="#ffd60a" opacity="0.046566918312238276" rx="1"/><rect x="1341.3679646098446" y="1003.0768451381188" width="29.405303026876716" height="2" fill="#ffd60a" opacity="0.054264812943121604" rx="1"/><rect x="1473.7321591828327" y="1043.9312157276859" width="106.25156115420431" height="2" fill="#ffd60a" opacity="0.035281646823343275" rx="1"/><rect x="1894.4563557148113" y="1038.9946991342574" width="49.39892807728586" height="2" fill="#ffd60a" opacity="0.03284237649590764" rx="1"/><rect x="1758.5011754554" y="1003.899355974025" width="34.52548513527156" height="2" fill="#ffd60a" opacity="0.04752244401432631" rx="1"/><rect x="669.6265859970886" y="1013.9983991472978" width="71.77396283293469" height="2" fill="#ffd60a" opacity="0.05176726582268422" rx="1"/><rect x="1161.9687440716589" y="1036.4557031487245" width="86.50527239928611" height="2" fill="#ffd60a" opacity="0.059527860777342664" rx="1"/><rect x="28.646461672300116" y="1018.9706213909599" width="41.606006594748706" height="2" fill="#ffd60a" opacity="0.04365179180718302" rx="1"/><rect x="416.2188533917579" y="1023.867976587235" width="52.6153429766687" height="2" fill="#ffd60a" opacity="0.0467717291663335" rx="1"/><rect x="492.9145794764428" y="1001.3842589737345" width="94.78462301073237" height="2" fill="#ffd60a" opacity="0.02943976027179504" rx="1"/><rect x="819.5882304430912" y="1020.2558206441477" width="54.87502626024071" height="2" fill="#ffd60a" opacity="0.026995955707271573" rx="1"/><rect x="1463.2823220322102" y="1018.4687488755371" width="104.41462069386957" height="2" fill="#ffd60a" opacity="0.021024619741603877" rx="1"/><rect x="1055.6585859730046" y="1058.4758102378053" width="76.44461730412314" height="2" fill="#ffd60a" opacity="0.058286539632428094" rx="1"/><rect x="14.232663366532108" y="1013.9567100475441" width="115.58108008829437" height="2" fill="#ffd60a" opacity="0.03467254841110495" rx="1"/><rect x="1337.4630031123438" y="1022.7717868058877" width="38.97492416179155" height="2" fill="#ffd60a" opacity="0.057403377321875504" rx="1"/><rect x="1807.9419658817217" y="1025.7809114749034" width="32.36370695111428" height="2" fill="#ffd60a" opacity="0.04400226251781039" rx="1"/><rect x="255.3961024282957" y="1046.2292217431193" width="113.7677031834069" height="2" fill="#ffd60a" opacity="0.044516672162459386" rx="1"/><rect x="767.148097336094" y="1028.4180792440702" width="68.62944333549343" height="2" fill="#ffd60a" opacity="0.05438505078535179" rx="1"/><rect x="915.6835155830913" y="1055.4659955286108" width="64.6449787925568" height="2" fill="#ffd60a" opacity="0.02855718479691008" rx="1"/><rect x="1232.357847530478" y="1047.688366260307" width="41.786737610070674" height="2" fill="#ffd60a" opacity="0.03523993760702199" rx="1"/><rect x="1605.1107800763823" y="1053.6256375847445" width="93.49437297636047" height="2" fill="#ffd60a" opacity="0.03536732935704462" rx="1"/><rect x="507.280821322296" y="1055.2734623186461" width="39.451373424253276" height="2" fill="#ffd60a" opacity="0.035857093188878406" rx="1"/><rect x="1135.1627766748802" y="1050.042135918057" width="110.93607587063129" height="2" fill="#ffd60a" opacity="0.050983409898118906" rx="1"/><rect x="1054.4023291241383" y="1007.2792598994633" width="33.91036585297211" height="2" fill="#ffd60a" opacity="0.042254688651825925" rx="1"/><rect x="1376.3523851559387" y="1025.289229928816" width="106.5689470401427" height="2" fill="#ffd60a" opacity="0.055742624866716245" rx="1"/><rect x="1523.1218056946811" y="1039.7188447741137" width="20.716382311823867" height="2" fill="#ffd60a" opacity="0.02300402031350043" rx="1"/><text x="1900" y="1060" font-family="Arial, sans-serif" font-size="11" fill="#fff" opacity="0.08" text-anchor="end" letter-spacing="2">GTA 6 REWARDS · WALLPAPER 095</text>
</svg>