<?xml version="1.0" encoding="UTF-8"?>
<svg xmlns="http://www.w3.org/2000/svg" width="1920" height="1080" viewBox="0 0 1920 1080">
<defs>
    <linearGradient id="bg62" x1="0%" y1="0%" x2="0%" y2="100%">
      <stop offset="0%" stop-color="#1d3557"/>
      <stop offset="50%" stop-color="#000224"/>
      <stop offset="100%" stop-color="#1d3557"/>
    </linearGradient>
    <linearGradient id="sun62" x1="0%" y1="0%" x2="100%" y2="100%">
      <stop offset="0%" stop-color="#e63946"/>
      <stop offset="100%" stop-color="#457b9d"/>
    </linearGradient>
    <radialGradient id="glow62" cx="50%" cy="70%" r="50%">
      <stop offset="0%" stop-color="#e63946" stop-opacity="0.3"/>
      <stop offset="100%" stop-color="#1d3557" stop-opacity="0"/>
    </radialGradient>
  </defs><rect width="1920" height="1080" fill="url(#bg62)"/><circle cx="535.9851304059814" cy="270.660924182893" r="725.7428414015432" fill="#e63946" opacity="0.05458309217462854"/><circle cx="735.9851304059814" cy="170.66092418289298" r="455.6230372413115" fill="#457b9d" opacity="0.11499043302261049"/><circle cx="1291.8854704573482" cy="243.49005038232775" r="99.51832732174506" fill="url(#sun62)" opacity="0.7845282457965724"/><circle cx="1291.8854704573482" cy="243.49005038232775" r="94.51832732174506" fill="#1d3557" opacity="0.3"/><rect x="12.668185113619126" y="689.593238567373" width="62.59271215940656" height="263.54802657467036" fill="#1d3557" opacity="0.4955243292719881" rx="2"/><rect x="41.111860018249565" y="699.593238567373" width="5.705362350145672" height="9.799635802348991" fill="#457b9d" opacity="0.5527637035243129" rx="1"/><rect x="25.463681978397933" y="704.4930564685475" width="5.705362350145672" height="9.799635802348991" fill="#e63946" opacity="0.27638185176215646" rx="1"/><rect x="41.334018387909516" y="765.4802452110406" width="5.261045610825775" height="8.992780735481713" fill="#457b9d" opacity="0.15121640920434531" rx="1"/><rect x="25.68584034805788" y="769.9766355787815" width="5.261045610825775" height="8.992780735481713" fill="#e63946" opacity="0.07560820460217266" rx="1"/><rect x="38.745034600083024" y="831.3672518547081" width="10.439013186478757" height="6.27899365692376" fill="#457b9d" opacity="0.5904626395996806" rx="1"/><rect x="23.096856560231387" y="834.50674868317" width="10.439013186478757" height="6.27899365692376" fill="#e63946" opacity="0.2952313197998403" rx="1"/><rect x="39.566833315083485" y="897.2542584983757" width="8.795415756477837" height="7.667251207322639" fill="#457b9d" opacity="0.29849685525952296" rx="1"/><rect x="23.91865527523185" y="901.087884102037" width="8.795415756477837" height="7.667251207322639" fill="#e63946" opacity="0.14924842762976148" rx="1"/><rect x="137.5556349608944" y="849.5293218757793" width="42.35420592882535" height="103.61194326626415" fill="#031b3d" opacity="0.5905222266890393" rx="2"/><rect x="153.17361515065974" y="859.5293218757793" width="11.118245549294688" height="6.149807776359331" fill="#457b9d" opacity="0.1475819794339086" rx="1"/><rect x="142.5850636684534" y="862.6042257639589" width="11.118245549294688" height="6.149807776359331" fill="#e63946" opacity="0.0737909897169543" rx="1"/><rect x="156.51262176817113" y="894.0666362978673" width="4.440232314271906" height="9.47833212173505" fill="#457b9d" opacity="0.4077407457883797" rx="1"/><rect x="145.92407028596477" y="898.8058023587348" width="4.440232314271906" height="9.47833212173505" fill="#e63946" opacity="0.20387037289418986" rx="1"/><rect x="153.23502959921842" y="928.6039507199554" width="10.995416652177326" height="6.98420446761516" fill="#457b9d" opacity="0.4557165111079152" rx="1"/><rect x="142.64647811701207" y="932.096052953763" width="10.995416652177326" height="6.98420446761516" fill="#e63946" opacity="0.2278582555539576" rx="1"/><rect x="239.01566214836566" y="802.0930001284212" width="88.95297084910632" height="151.04826501362217" fill="#031b3d" opacity="0.48511606712944716" rx="2"/><rect x="278.9882167931619" y="812.0930001284212" width="9.007861559513923" height="8.151631098741579" fill="#457b9d" opacity="0.17913668350762146" rx="1"/><rect x="256.7499740808853" y="816.1688156777919" width="9.007861559513923" height="8.151631098741579" fill="#e63946" opacity="0.08956834175381073" rx="1"/><rect x="279.01867228374323" y="842.3026531311456" width="8.94695057835126" height="6.345075014127668" fill="#457b9d" opacity="0.499916729284431" rx="1"/><rect x="256.78042957146664" y="845.4751906382094" width="8.94695057835126" height="6.345075014127668" fill="#e63946" opacity="0.2499583646422155" rx="1"/><rect x="280.4016492481813" y="872.5123061338701" width="6.180996649475069" height="8.460505677028678" fill="#457b9d" opacity="0.37844755812046293" rx="1"/><rect x="258.1634065359047" y="876.7425589723845" width="6.180996649475069" height="8.460505677028678" fill="#e63946" opacity="0.18922377906023147" rx="1"/><rect x="278.75342655176144" y="902.7219591365945" width="9.477442042314784" height="9.521373075321637" fill="#457b9d" opacity="0.39492228589833767" rx="1"/><rect x="256.51518383948485" y="907.4826456742553" width="9.477442042314784" height="9.521373075321637" fill="#e63946" opacity="0.19746114294916883" rx="1"/><rect x="280.51484687661633" y="932.9316121393189" width="5.954601392605016" height="9.682424100973277" fill="#457b9d" opacity="0.14011051998010615" rx="1"/><rect x="258.27660416433974" y="937.7728241898055" width="5.954601392605016" height="9.682424100973277" fill="#e63946" opacity="0.07005525999005308" rx="1"/><rect x="348.71139112131476" y="584.8086398059522" width="69.60372999301268" height="368.33262533609116" fill="#031b3d" opacity="0.5275088633474682" rx="2"/><rect x="378.2735418140129" y="594.8086398059522" width="10.479428607616441" height="6.781890232298032" fill="#457b9d" opacity="0.43629520105577424" rx="1"/><rect x="360.8726093157597" y="598.1995849221013" width="10.479428607616441" height="6.781890232298032" fill="#e63946" opacity="0.21814760052788712" rx="1"/><rect x="381.0623725699407" y="656.1974106953007" width="4.901767095760854" height="9.320082412874346" fill="#457b9d" opacity="0.379773783120274" rx="1"/><rect x="363.6614400716875" y="660.8574519017379" width="4.901767095760854" height="9.320082412874346" fill="#e63946" opacity="0.189886891560137" rx="1"/><rect x="378.0063586256017" y="717.5861815846492" width="11.013794984438874" height="7.063185381950621" fill="#457b9d" opacity="0.15618989049833965" rx="1"/><rect x="360.6054261273485" y="721.1177742756246" width="11.013794984438874" height="7.063185381950621" fill="#e63946" opacity="0.07809494524916982" rx="1"/><rect x="378.74262696358915" y="778.9749524739977" width="9.541258308464023" height="9.235346122466806" fill="#457b9d" opacity="0.4673120507428683" rx="1"/><rect x="361.3416944653359" y="783.5926255352312" width="9.541258308464023" height="9.235346122466806" fill="#e63946" opacity="0.23365602537143415" rx="1"/><rect x="380.2551928952466" y="840.3637233633464" width="6.516126445149101" height="7.142518918295977" fill="#457b9d" opacity="0.5306612512866643" rx="1"/><rect x="362.85426039699337" y="843.9349828224944" width="6.516126445149101" height="7.142518918295977" fill="#e63946" opacity="0.26533062564333215" rx="1"/><rect x="377.9005260721084" y="901.7524942526949" width="11.225460091425447" height="8.572474043483956" fill="#457b9d" opacity="0.16273879927181145" rx="1"/><rect x="360.4995935738552" y="906.0387312744368" width="11.225460091425447" height="8.572474043483956" fill="#e63946" opacity="0.08136939963590573" rx="1"/><rect x="469.55176903157303" y="578.9110811145304" width="48.6476966269891" height="374.2301840275131" fill="#031b3d" opacity="0.4142349464851979" rx="2"/><rect x="488.5342806693013" y="588.9110811145304" width="10.682673351532472" height="9.902541905618865" fill="#457b9d" opacity="0.45271841132843826" rx="1"/><rect x="476.37235651255406" y="593.8623520673398" width="10.682673351532472" height="9.902541905618865" fill="#e63946" opacity="0.22635920566421913" rx="1"/><rect x="490.92620653005457" y="663.757117920033" width="5.89882163002594" height="9.567368963632585" fill="#457b9d" opacity="0.37642123337751754" rx="1"/><rect x="478.7642823733073" y="668.5408024018493" width="5.89882163002594" height="9.567368963632585" fill="#e63946" opacity="0.18821061668875877" rx="1"/><rect x="490.2875376062671" y="738.6031547255357" width="7.176159477600865" height="9.811765802980347" fill="#457b9d" opacity="0.20379101128871344" rx="1"/><rect x="478.12561344951985" y="743.5090376270258" width="7.176159477600865" height="9.811765802980347" fill="#e63946" opacity="0.10189550564435672" rx="1"/><rect x="490.0099769940157" y="813.4491915310382" width="7.731280702103693" height="8.91156854827692" fill="#457b9d" opacity="0.38168754379304304" rx="1"/><rect x="477.8480528372684" y="817.9049758051766" width="7.731280702103693" height="8.91156854827692" fill="#e63946" opacity="0.19084377189652152" rx="1"/><rect x="490.2255925338775" y="888.2952283365408" width="7.300049622380186" height="7.904220019910536" fill="#457b9d" opacity="0.5133564373276561" rx="1"/><rect x="478.06366837713017" y="892.2473383464961" width="7.300049622380186" height="7.904220019910536" fill="#e63946" opacity="0.25667821866382806" rx="1"/><rect x="573.3308971727572" y="871.3256457288111" width="67.95134607654795" height="81.81561941323234" fill="#031b3d" opacity="0.4388523157310794" rx="2"/><rect x="601.7171251193428" y="881.3256457288111" width="11.178890183376822" height="7.174636022461261" fill="#457b9d" opacity="0.1907768997342272" rx="1"/><rect x="584.7292886002058" y="884.9129637400417" width="11.178890183376822" height="7.174636022461261" fill="#e63946" opacity="0.0953884498671136" rx="1"/><rect x="602.8935189284136" y="893.0135913592728" width="8.826102565235017" height="6.044383379641078" fill="#457b9d" opacity="0.3795422140694089" rx="1"/><rect x="585.9056824092767" y="896.0357830490933" width="8.826102565235017" height="6.044383379641078" fill="#e63946" opacity="0.18977110703470446" rx="1"/><rect x="604.8307318011836" y="904.7015369897346" width="4.951676819695084" height="7.042339734044471" fill="#457b9d" opacity="0.22087021491510567" rx="1"/><rect x="587.8428952820466" y="908.2227068567568" width="4.951676819695084" height="7.042339734044471" fill="#e63946" opacity="0.11043510745755283" rx="1"/><rect x="602.4061668113354" y="916.3894826201964" width="9.800806799391474" height="9.799913588864708" fill="#457b9d" opacity="0.3162667086152981" rx="1"/><rect x="585.4183302921984" y="921.2894394146288" width="9.800806799391474" height="9.799913588864708" fill="#e63946" opacity="0.15813335430764905" rx="1"/><rect x="603.9168583715607" y="928.0774282506582" width="6.779423678940959" height="9.173999226459767" fill="#457b9d" opacity="0.5573987497616091" rx="1"/><rect x="586.9290218524237" y="932.664427863888" width="6.779423678940959" height="9.173999226459767" fill="#e63946" opacity="0.27869937488080454" rx="1"/><rect x="602.6073762605915" y="939.7653738811199" width="9.398387900879232" height="8.701228865119916" fill="#457b9d" opacity="0.19080925644161395" rx="1"/><rect x="585.6195397414546" y="944.1159883136798" width="9.398387900879232" height="8.701228865119916" fill="#e63946" opacity="0.09540462822080698" rx="1"/><rect x="601.777860055393" y="951.4533195115816" width="11.0574203112762" height="9.46923918823461" fill="#457b9d" opacity="0.24154129443726066" rx="1"/><rect x="584.7900235362561" y="956.1879391056989" width="11.0574203112762" height="9.46923918823461" fill="#e63946" opacity="0.12077064721863033" rx="1"/><rect x="686.0960664730744" y="771.8121454985375" width="84.94091165134239" height="181.32911964350592" fill="#031b3d" opacity="0.6372660279826415" rx="2"/><rect x="723.9694878540398" y="781.8121454985375" width="9.194068889411648" height="8.048953707806987" fill="#457b9d" opacity="0.1940488882116156" rx="1"/><rect x="702.7342599412042" y="785.8366223524409" width="9.194068889411648" height="8.048953707806987" fill="#e63946" opacity="0.0970244441058078" rx="1"/><rect x="724.9480334967255" y="812.0336654391218" width="7.236977604040172" height="6.702751316293783" fill="#457b9d" opacity="0.23047473566384863" rx="1"/><rect x="703.7128055838899" y="815.3850410972688" width="7.236977604040172" height="6.702751316293783" fill="#e63946" opacity="0.11523736783192431" rx="1"/><rect x="723.8614067842398" y="842.2551853797061" width="9.410231029011829" height="8.187714986081168" fill="#457b9d" opacity="0.22585378976675072" rx="1"/><rect x="702.6261788714041" y="846.3490428727466" width="9.410231029011829" height="8.187714986081168" fill="#e63946" opacity="0.11292689488337536" rx="1"/><rect x="722.6223338361883" y="872.4767053202904" width="11.888376925114631" height="9.366297479571378" fill="#457b9d" opacity="0.39661521392329946" rx="1"/><rect x="701.3871059233527" y="877.1598540600761" width="11.888376925114631" height="9.366297479571378" fill="#e63946" opacity="0.19830760696164973" rx="1"/><rect x="722.8942296909855" y="902.6982252608748" width="11.344585215520251" height="8.049241419427386" fill="#457b9d" opacity="0.11426930213679311" rx="1"/><rect x="701.6590017781499" y="906.7228459705884" width="11.344585215520251" height="8.049241419427386" fill="#e63946" opacity="0.057134651068396554" rx="1"/><rect x="723.0940779377927" y="932.919745201459" width="10.944888721905855" height="8.745430741167029" fill="#457b9d" opacity="0.5479318050313582" rx="1"/><rect x="701.8588500249571" y="937.2924605720425" width="10.944888721905855" height="8.745430741167029" fill="#e63946" opacity="0.2739659025156791" rx="1"/><rect x="810.2300137002555" y="654.6369969739198" width="42.410647401681786" height="298.50426816812353" fill="#1d3557" opacity="0.6956080964057725" rx="2"/><rect x="828.3936161164644" y="664.6369969739198" width="6.083442569264081" height="6.664267836293268" fill="#457b9d" opacity="0.17350393351481852" rx="1"/><rect x="817.790954266044" y="667.9691308920665" width="6.083442569264081" height="6.664267836293268" fill="#e63946" opacity="0.08675196675740926" rx="1"/><rect x="829.4264554978408" y="714.3877083352738" width="4.017763806511128" height="8.1634470862717" fill="#457b9d" opacity="0.4673581700696047" rx="1"/><rect x="818.8237936474204" y="718.4694318784096" width="4.017763806511128" height="8.1634470862717" fill="#e63946" opacity="0.23367908503480234" rx="1"/><rect x="828.3736249393255" y="764.1384196966277" width="6.123424923541822" height="7.457161653194847" fill="#457b9d" opacity="0.4859169522500404" rx="1"/><rect x="817.7709630889051" y="767.8670005232251" width="6.123424923541822" height="7.457161653194847" fill="#e63946" opacity="0.2429584761250202" rx="1"/><rect x="828.0376886117824" y="813.8891310579816" width="6.795297578628011" height="7.6286829881436855" fill="#457b9d" opacity="0.1482164983517063" rx="1"/><rect x="817.435026761362" y="817.7034725520534" width="6.795297578628011" height="7.6286829881436855" fill="#e63946" opacity="0.07410824917585315" rx="1"/><rect x="826.2277129090454" y="863.6398424193355" width="10.415248984101986" height="6.565607660581732" fill="#457b9d" opacity="0.5645466728751889" rx="1"/><rect x="815.625051058625" y="866.9226462496264" width="10.415248984101986" height="6.565607660581732" fill="#e63946" opacity="0.28227333643759445" rx="1"/><rect x="829.300989720109" y="913.3905537806895" width="4.268695361974811" height="6.834672503367688" fill="#457b9d" opacity="0.3138610868048531" rx="1"/><rect x="818.6983278696886" y="916.8078900323734" width="4.268695361974811" height="6.834672503367688" fill="#e63946" opacity="0.15693054340242654" rx="1"/><rect x="909.1132513617895" y="647.1776788465627" width="52.9219187057861" height="305.96358629548075" fill="#1d3557" opacity="0.6726881395961829" rx="2"/><rect x="932.8539387341249" y="657.1776788465627" width="5.440543961115308" height="9.268693849274118" fill="#457b9d" opacity="0.5269081995419479" rx="1"/><rect x="919.6234590576784" y="661.8120257711997" width="5.440543961115308" height="9.268693849274118" fill="#e63946" opacity="0.26345409977097395" rx="1"/><rect x="932.9079862879375" y="700.8867626030599" width="5.332448853490048" height="6.0096960561372565" fill="#457b9d" opacity="0.3098980695497939" rx="1"/><rect x="919.677506611491" y="703.8916106311285" width="5.332448853490048" height="6.0096960561372565" fill="#e63946" opacity="0.15494903477489694" rx="1"/><rect x="933.0683202333908" y="744.5958463595572" width="5.011780962583558" height="7.010568852771671" fill="#457b9d" opacity="0.14344071122897806" rx="1"/><rect x="919.8378405569442" y="748.101130785943" width="5.011780962583558" height="7.010568852771671" fill="#e63946" opacity="0.07172035561448903" rx="1"/><rect x="932.5876249921479" y="788.3049301160545" width="5.973171445069176" height="9.489955068447152" fill="#457b9d" opacity="0.42523395605972825" rx="1"/><rect x="919.3571453157014" y="793.0499076502781" width="5.973171445069176" height="9.489955068447152" fill="#e63946" opacity="0.21261697802986412" rx="1"/><rect x="930.5358465242981" y="832.0140138725517" width="10.07672838076873" height="9.419345832294631" fill="#457b9d" opacity="0.29117960501256857" rx="1"/><rect x="917.3053668478516" y="836.723686788699" width="10.07672838076873" height="9.419345832294631" fill="#e63946" opacity="0.14558980250628428" rx="1"/><rect x="930.0078126473836" y="875.7230976290489" width="11.132796134597807" height="6.843910826566608" fill="#457b9d" opacity="0.44146112968247875" rx="1"/><rect x="916.7773329709371" y="879.1450530423322" width="11.132796134597807" height="6.843910826566608" fill="#e63946" opacity="0.22073056484123937" rx="1"/><rect x="930.41407271135" y="919.4321813855462" width="10.320276006665145" height="8.507822429413865" fill="#457b9d" opacity="0.17665461513135922" rx="1"/><rect x="917.1835930349034" y="923.6860926002531" width="10.320276006665145" height="8.507822429413865" fill="#e63946" opacity="0.08832730756567961" rx="1"/><rect x="1033.1804379106454" y="853.4195258173671" width="54.78907993640496" height="99.72173932467628" fill="#031b3d" opacity="0.42376048504928143" rx="2"/><rect x="1057.4148548302276" y="863.4195258173671" width="6.320246097240654" height="6.654479047435913" fill="#457b9d" opacity="0.46010022749195345" rx="1"/><rect x="1043.7175848461263" y="866.746765341085" width="6.320246097240654" height="6.654479047435913" fill="#e63946" opacity="0.23005011374597673" rx="1"/><rect x="1054.8917077299886" y="888.3499606485362" width="11.366540297718378" height="9.770412137678456" fill="#457b9d" opacity="0.21352574571816385" rx="1"/><rect x="1041.1944377458874" y="893.2351667173755" width="11.366540297718378" height="9.770412137678456" fill="#e63946" opacity="0.10676287285908193" rx="1"/><rect x="1057.2994462261674" y="913.2803954797052" width="6.551063305360978" height="7.563242460965003" fill="#457b9d" opacity="0.36515844191078994" rx="1"/><rect x="1043.6021762420662" y="917.0620167101878" width="6.551063305360978" height="7.563242460965003" fill="#e63946" opacity="0.18257922095539497" rx="1"/><rect x="1055.9658720798245" y="938.2108303108744" width="9.21821159804664" height="7.486771848398906" fill="#457b9d" opacity="0.43284406639468953" rx="1"/><rect x="1042.2686020957233" y="941.9542162350738" width="9.21821159804664" height="7.486771848398906" fill="#e63946" opacity="0.21642203319734477" rx="1"/><rect x="1141.5233035016627" y="864.4696503562084" width="56.08336683504362" height="88.67161478583506" fill="#031b3d" opacity="0.4416505668874948" rx="2"/><rect x="1166.4029342120987" y="874.4696503562084" width="6.3241054141717274" height="9.358360864072656" fill="#457b9d" opacity="0.43266214987557894" rx="1"/><rect x="1152.3820925033376" y="879.1488307882447" width="6.3241054141717274" height="9.358360864072656" fill="#e63946" opacity="0.21633107493778947" rx="1"/><rect x="1166.6240772557503" y="887.1370238970419" width="5.881819326868705" height="9.693670231777633" fill="#457b9d" opacity="0.336921272062911" rx="1"/><rect x="1152.6032355469893" y="891.9838590129307" width="5.881819326868705" height="9.693670231777633" fill="#e63946" opacity="0.1684606360314555" rx="1"/><rect x="1165.5962616099503" y="899.8043974378755" width="7.937450618468563" height="8.984235373089145" fill="#457b9d" opacity="0.39474014853936157" rx="1"/><rect x="1151.5754199011892" y="904.2965151244201" width="7.937450618468563" height="8.984235373089145" fill="#e63946" opacity="0.19737007426968078" rx="1"/><rect x="1166.6174604845276" y="912.4717709787092" width="5.8950528693141075" height="8.750801374844928" fill="#457b9d" opacity="0.5834092732014622" rx="1"/><rect x="1152.5966187757665" y="916.8471716661317" width="5.8950528693141075" height="8.750801374844928" fill="#e63946" opacity="0.2917046366007311" rx="1"/><rect x="1164.9546767226316" y="925.1391445195427" width="9.220620393105927" height="6.64096075125061" fill="#457b9d" opacity="0.25044973829073125" rx="1"/><rect x="1150.9338350138705" y="928.459624895168" width="9.220620393105927" height="6.64096075125061" fill="#e63946" opacity="0.12522486914536562" rx="1"/><rect x="1167.158311742395" y="937.8065180603762" width="4.813350353579351" height="9.7588674369638" fill="#457b9d" opacity="0.35276763486973184" rx="1"/><rect x="1153.137470033634" y="942.6859517788581" width="4.813350353579351" height="9.7588674369638" fill="#e63946" opacity="0.17638381743486592" rx="1"/><rect x="1163.7359127282948" y="950.4738916012099" width="11.65814838177947" height="6.776240013720524" fill="#457b9d" opacity="0.5304452458001778" rx="1"/><rect x="1149.7150710195338" y="953.8620116080701" width="11.65814838177947" height="6.776240013720524" fill="#e63946" opacity="0.2652226229000889" rx="1"/><rect x="1264.2380366204861" y="659.8147106961846" width="39.07791651996735" height="293.32655444585873" fill="#1d3557" opacity="0.5398407185542957" rx="2"/><rect x="1281.4106143741894" y="669.8147106961846" width="4.732761012560865" height="9.208889555933162" fill="#457b9d" opacity="0.4326643148513195" rx="1"/><rect x="1271.6411352441976" y="674.4191554741512" width="4.732761012560865" height="9.208889555933162" fill="#e63946" opacity="0.21633215742565975" rx="1"/><rect x="1280.4267166367329" y="718.7024697704944" width="6.700556487473788" height="6.170676395336789" fill="#457b9d" opacity="0.43531660070533784" rx="1"/><rect x="1270.657237506741" y="721.7878079681628" width="6.700556487473788" height="6.170676395336789" fill="#e63946" opacity="0.21765830035266892" rx="1"/><rect x="1279.1187480972426" y="767.5902288448042" width="9.316493566454504" height="9.140979766645696" fill="#457b9d" opacity="0.4910331354455634" rx="1"/><rect x="1269.3492689672507" y="772.160718728127" width="9.316493566454504" height="9.140979766645696" fill="#e63946" opacity="0.2455165677227817" rx="1"/><rect x="1281.5555674965856" y="816.477987919114" width="4.442854767768377" height="8.622804534300883" fill="#457b9d" opacity="0.3746366159465715" rx="1"/><rect x="1271.7860883665937" y="820.7893901862644" width="4.442854767768377" height="8.622804534300883" fill="#e63946" opacity="0.18731830797328575" rx="1"/><rect x="1280.1432637775185" y="865.3657469934238" width="7.267462205902548" height="6.364116891372045" fill="#457b9d" opacity="0.3025431290274819" rx="1"/><rect x="1270.3737846475267" y="868.5478054391099" width="7.267462205902548" height="6.364116891372045" fill="#e63946" opacity="0.15127156451374096" rx="1"/><rect x="1278.2231250501293" y="914.2535060677336" width="11.107739660681165" height="7.742949242178106" fill="#457b9d" opacity="0.2966831961638954" rx="1"/><rect x="1268.4536459201374" y="918.1249806888227" width="11.107739660681165" height="7.742949242178106" fill="#e63946" opacity="0.1483415980819477" rx="1"/><rect x="1380.4060161557065" y="785.2338182705532" width="71.04238926457296" height="167.9074468714901" fill="#1d3557" opacity="0.437483065770353" rx="2"/><rect x="1411.8094948159555" y="795.2338182705532" width="8.235431944074907" height="6.985441595545375" fill="#457b9d" opacity="0.193599572450295" rx="1"/><rect x="1394.0488974998123" y="798.7265390683259" width="8.235431944074907" height="6.985441595545375" fill="#e63946" opacity="0.0967997862251475" rx="1"/><rect x="1411.7552742214773" y="837.2106799884258" width="8.343873133031622" height="9.895771924382021" fill="#457b9d" opacity="0.5724052820756113" rx="1"/><rect x="1393.994676905334" y="842.1585659506168" width="8.343873133031622" height="9.895771924382021" fill="#e63946" opacity="0.2862026410378056" rx="1"/><rect x="1411.3225851069028" y="879.1875417062982" width="9.209251362180629" height="8.183139519342951" fill="#457b9d" opacity="0.4074644564901163" rx="1"/><rect x="1393.5619877907595" y="883.2791114659698" width="9.209251362180629" height="8.183139519342951" fill="#e63946" opacity="0.20373222824505816" rx="1"/><rect x="1413.1567799165282" y="921.1644034241708" width="5.540861742929756" height="9.263861958697406" fill="#457b9d" opacity="0.2848193718317941" rx="1"/><rect x="1395.396182600385" y="925.7963344035195" width="5.540861742929756" height="9.263861958697406" fill="#e63946" opacity="0.14240968591589706" rx="1"/><rect x="1479.7868353360766" y="720.5157229258948" width="81.96528961694924" height="232.6255422161486" fill="#031b3d" opacity="0.6958697058716485" rx="2"/><rect x="1518.5833470932166" y="730.5157229258948" width="4.372266102668891" height="8.762843570383929" fill="#457b9d" opacity="0.47294952847830707" rx="1"/><rect x="1498.0920246889793" y="734.8971447110868" width="4.372266102668891" height="8.762843570383929" fill="#e63946" opacity="0.23647476423915353" rx="1"/><rect x="1518.189263066088" y="759.5939157029134" width="5.16043415692645" height="8.929469450127677" fill="#457b9d" opacity="0.39390582565541976" rx="1"/><rect x="1497.6979406618507" y="764.0586504279772" width="5.16043415692645" height="8.929469450127677" fill="#e63946" opacity="0.19695291282770988" rx="1"/><rect x="1516.1309278963902" y="788.6721084799319" width="9.277104496321897" height="8.498080792487151" fill="#457b9d" opacity="0.516331002585667" rx="1"/><rect x="1495.639605492153" y="792.9211488761755" width="9.277104496321897" height="8.498080792487151" fill="#e63946" opacity="0.2581655012928335" rx="1"/><rect x="1517.8074903289803" y="817.7503012569505" width="5.923979631141755" height="8.328953301144985" fill="#457b9d" opacity="0.38886827379205924" rx="1"/><rect x="1497.316167924743" y="821.914777907523" width="5.923979631141755" height="8.328953301144985" fill="#e63946" opacity="0.19443413689602962" rx="1"/><rect x="1518.1675033334566" y="846.8284940339692" width="5.203953622189339" height="9.602899474930693" fill="#457b9d" opacity="0.5074307438934759" rx="1"/><rect x="1497.6761809292193" y="851.6299437714345" width="5.203953622189339" height="9.602899474930693" fill="#e63946" opacity="0.25371537194673793" rx="1"/><rect x="1515.7087623441378" y="875.9066868109877" width="10.121435600826851" height="9.194529603979209" fill="#457b9d" opacity="0.27644378512083645" rx="1"/><rect x="1495.2174399399005" y="880.5039516129773" width="10.121435600826851" height="9.194529603979209" fill="#e63946" opacity="0.13822189256041822" rx="1"/><rect x="1516.8941181371672" y="904.9848795880063" width="7.75072401476808" height="8.327509738115479" fill="#457b9d" opacity="0.348895274416752" rx="1"/><rect x="1496.40279573293" y="909.148634457064" width="7.75072401476808" height="8.327509738115479" fill="#e63946" opacity="0.174447637208376" rx="1"/><rect x="1516.1800992379847" y="934.0630723650248" width="9.178761813132734" height="6.74439471418606" fill="#457b9d" opacity="0.5336584117109092" rx="1"/><rect x="1495.6887768337474" y="937.4352697221178" width="9.178761813132734" height="6.74439471418606" fill="#e63946" opacity="0.2668292058554546" rx="1"/><rect x="1585.741502574119" y="781.1088897476691" width="59.77910437848864" height="172.03237539437424" fill="#031b3d" opacity="0.48529374363955435" rx="2"/><rect x="1612.9099781145133" y="791.1088897476691" width="5.442153297700489" height="8.198697682982008" fill="#457b9d" opacity="0.4165752816285415" rx="1"/><rect x="1597.965202019891" y="795.20823858916" width="5.442153297700489" height="8.198697682982008" fill="#e63946" opacity="0.20828764081427076" rx="1"/><rect x="1613.020499912561" y="819.7809523133981" width="5.22110970160484" height="6.180390751031318" fill="#457b9d" opacity="0.15085087184581228" rx="1"/><rect x="1598.0757238179388" y="822.8711476889138" width="5.22110970160484" height="6.180390751031318" fill="#e63946" opacity="0.07542543592290614" rx="1"/><rect x="1613.274325185985" y="848.4530148791272" width="4.713459154757079" height="7.5426555046678185" fill="#457b9d" opacity="0.27191778593042815" rx="1"/><rect x="1598.3295490913627" y="852.2243426314611" width="4.713459154757079" height="7.5426555046678185" fill="#e63946" opacity="0.13595889296521407" rx="1"/><rect x="1612.6658430047487" y="877.1250774448562" width="5.9304235172296" height="6.371774292637541" fill="#457b9d" opacity="0.48546123818621534" rx="1"/><rect x="1597.7210669101264" y="880.310964591175" width="5.9304235172296" height="6.371774292637541" fill="#e63946" opacity="0.24273061909310767" rx="1"/><rect x="1612.5755469327735" y="905.7971400105853" width="6.11101566117979" height="7.076901522715786" fill="#457b9d" opacity="0.2311386813482127" rx="1"/><rect x="1597.6307708381512" y="909.3355907719432" width="6.11101566117979" height="7.076901522715786" fill="#e63946" opacity="0.11556934067410635" rx="1"/><rect x="1612.5846032224558" y="934.4692025763143" width="6.092903081814969" height="6.777761032985933" fill="#457b9d" opacity="0.5226604414690892" rx="1"/><rect x="1597.6398271278335" y="937.8580830928072" width="6.092903081814969" height="6.777761032985933" fill="#e63946" opacity="0.2613302207345446" rx="1"/><rect x="1721.2789747191775" y="628.0880754878949" width="81.10473200937378" height="325.05318965414847" fill="#031b3d" opacity="0.5461367844944207" rx="2"/><rect x="1759.668403574421" y="638.0880754878949" width="4.325874298886832" height="7.778111409809932" fill="#457b9d" opacity="0.5378638688795883" rx="1"/><rect x="1739.3922205720776" y="641.9771311927999" width="4.325874298886832" height="7.778111409809932" fill="#e63946" opacity="0.26893193443979413" rx="1"/><rect x="1757.730185132178" y="692.2636070969197" width="8.202311183373052" height="7.616139900315586" fill="#457b9d" opacity="0.5535389267731315" rx="1"/><rect x="1737.4540021298344" y="696.0716770470775" width="8.202311183373052" height="7.616139900315586" fill="#e63946" opacity="0.2767694633865658" rx="1"/><rect x="1759.692035193716" y="746.4391387059444" width="4.278611060296793" height="7.109999499542173" fill="#457b9d" opacity="0.12092473465505167" rx="1"/><rect x="1739.4158521913726" y="749.9941384557155" width="4.278611060296793" height="7.109999499542173" fill="#e63946" opacity="0.060462367327525836" rx="1"/><rect x="1758.6036910395146" y="800.6146703149691" width="6.455299368699849" height="8.101493711141286" fill="#457b9d" opacity="0.4618183746845038" rx="1"/><rect x="1738.3275080371711" y="804.6654171705397" width="6.455299368699849" height="8.101493711141286" fill="#e63946" opacity="0.2309091873422519" rx="1"/><rect x="1757.492582104749" y="854.7902019239939" width="8.677517238230799" height="9.460622981996421" fill="#457b9d" opacity="0.13443147790022927" rx="1"/><rect x="1737.2163991024056" y="859.5205134149921" width="8.677517238230799" height="9.460622981996421" fill="#e63946" opacity="0.06721573895011464" rx="1"/><rect x="1756.8719085291661" y="908.9657335330187" width="9.91886438939694" height="9.898805883689505" fill="#457b9d" opacity="0.3395532925705317" rx="1"/><rect x="1736.5957255268227" y="913.9151364748634" width="9.91886438939694" height="9.898805883689505" fill="#e63946" opacity="0.16977664628526584" rx="1"/><rect x="1831.465098853564" y="825.1108447846749" width="66.47654736332515" height="128.0304203573685" fill="#1d3557" opacity="0.5367788573812644" rx="2"/><rect x="1859.9960006924803" y="835.1108447846749" width="9.414743685492954" height="7.6829061707674775" fill="#457b9d" opacity="0.2300139854732002" rx="1"/><rect x="1843.376863851649" y="838.9522978700586" width="9.414743685492954" height="7.6829061707674775" fill="#e63946" opacity="0.1150069927366001" rx="1"/><rect x="1860.1449443421197" y="860.7169288561486" width="9.116856386213762" height="7.337054341411464" fill="#457b9d" opacity="0.2302466993523405" rx="1"/><rect x="1843.5258075012885" y="864.3854560268543" width="9.116856386213762" height="7.337054341411464" fill="#e63946" opacity="0.11512334967617024" rx="1"/><rect x="1859.1048859991377" y="886.3230129276224" width="11.196973072177958" height="6.720667991954989" fill="#457b9d" opacity="0.5784849715601851" rx="1"/><rect x="1842.4857491583064" y="889.6833469235999" width="11.196973072177958" height="6.720667991954989" fill="#e63946" opacity="0.28924248578009254" rx="1"/><rect x="1860.8894071974532" y="911.929096999096" width="7.627930675546622" height="8.831391402248151" fill="#457b9d" opacity="0.1739603871651833" rx="1"/><rect x="1844.270270356622" y="916.3447927002201" width="7.627930675546622" height="8.831391402248151" fill="#e63946" opacity="0.08698019358259165" rx="1"/><rect x="1860.7841373136696" y="937.5351810705697" width="7.838470443114282" height="6.158502711020062" fill="#457b9d" opacity="0.24235398758723262" rx="1"/><rect x="1844.1650004728383" y="940.6144324260797" width="7.838470443114282" height="6.158502711020062" fill="#e63946" opacity="0.12117699379361631" rx="1"/><path d="M1300.8807499755362 966.794171199853 Q1297.2387143311182 861.8480822564679 1296.5103072022346 756.9019933130829" stroke="#00000a" stroke-width="7.2824373578844686" fill="none" stroke-linecap="round"/><path d="M1296.5103072022346 756.9019933130829 Q1348.9377124428138 736.9019933130829 1371.5372026282216 756.9019933130829" stroke="#000224" stroke-width="2.360110989389967" fill="none" stroke-linecap="round" opacity="0.6"/><path d="M1296.5103072022346 756.9019933130829 Q1327.054150719263 742.4570776769658 1326.0438535568564 768.0121620408486" stroke="#000224" stroke-width="3.7709117615062073" fill="none" stroke-linecap="round" opacity="0.6"/><path d="M1296.5103072022346 756.9019933130829 Q1299.1590435538833 746.8042171329375 1281.4428540766846 776.706440952792" stroke="#000224" stroke-width="2.4837035197959523" fill="none" stroke-linecap="round" opacity="0.6"/><path d="M1296.5103072022346 756.9019933130829 Q1281.829279431628 739.6488738936041 1258.4839318736924 762.3957544741254" stroke="#000224" stroke-width="3.6372730675240215" fill="none" stroke-linecap="round" opacity="0.6"/><path d="M1296.5103072022346 756.9019933130829 Q1271.8264361068502 732.8740249978597 1240.7492245937246 748.8460566826365" stroke="#000224" stroke-width="2.366679762575468" fill="none" stroke-linecap="round" opacity="0.6"/><path d="M418.36778471674023 826.7193327487258 Q438.2164683887308 718.2633554489033 442.1862051231289 609.8073781490808" stroke="#00000a" stroke-width="6.437413569175968" fill="none" stroke-linecap="round"/><path d="M442.1862051231289 609.8073781490808 Q468.4527790738392 589.8073781490808 491.97507055848257 609.8073781490808" stroke="#000224" stroke-width="2.126222579303715" fill="none" stroke-linecap="round" opacity="0.6"/><path d="M442.1862051231289 609.8073781490808 Q483.7811223962823 599.1241206008077 491.71856629861696 628.4408630525346" stroke="#000224" stroke-width="2.887508304064979" fill="none" stroke-linecap="round" opacity="0.6"/><path d="M442.1862051231289 609.8073781490808 Q438.0490189569732 597.4262666227064 430.5931279483863 625.0451550963321" stroke="#000224" stroke-width="2.3557785685071204" fill="none" stroke-linecap="round" opacity="0.6"/><path d="M442.1862051231289 609.8073781490808 Q441.49535394055425 592.2503698023625 408.36670885855006 614.693361455644" stroke="#000224" stroke-width="3.218518230416467" fill="none" stroke-linecap="round" opacity="0.6"/><path d="M442.1862051231289 609.8073781490808 Q418.6737736843163 586.2581606281713 393.05269763474183 602.7089431072618" stroke="#000224" stroke-width="2.611933571894638" fill="none" stroke-linecap="round" opacity="0.6"/><path d="M1808.8201573232236 819.3980403988152 Q1812.2146207821124 748.9821186636067 1812.8935134738902 678.5661969283983" stroke="#00000a" stroke-width="7.282173651103436" fill="none" stroke-linecap="round"/><path d="M1812.8935134738902 678.5661969283983 Q1855.7794862575315 658.5661969283983 1862.3094141833274 678.5661969283983" stroke="#000224" stroke-width="2.2143403222352127" fill="none" stroke-linecap="round" opacity="0.6"/><path d="M1812.8935134738902 678.5661969283983 Q1826.092438191875 662.2956098059144 1832.7208969803867 686.0250226834306" stroke="#000224" stroke-width="2.7540895041902758" fill="none" stroke-linecap="round" opacity="0.6"/><path d="M1812.8935134738902 678.5661969283983 Q1806.9153631857264 668.1731873363844 1798.2752943462128 697.7801777443705" stroke="#000224" stroke-width="3.9491281341642903" fill="none" stroke-linecap="round" opacity="0.6"/><path d="M1812.8935134738902 678.5661969283983 Q1802.0741593591756 660.947669821164 1779.9256506926565 683.3291427139297" stroke="#000224" stroke-width="3.3046334565860764" fill="none" stroke-linecap="round" opacity="0.6"/><path d="M1812.8935134738902 678.5661969283983 Q1799.5431922972007 656.5660895167966 1785.2050745696645 674.5659821051948" stroke="#000224" stroke-width="3.0844190756521233" fill="none" stroke-linecap="round" opacity="0.6"/><path d="M993.1157029497241 886.8660022008387 Q980.138736330005 764.029726907385 977.5433430060613 641.1934516139313" stroke="#00000a" stroke-width="7.117165194618787" fill="none" stroke-linecap="round"/><path d="M977.5433430060613 641.1934516139313 Q1014.0245742688478 621.1934516139313 1047.722536012 641.1934516139313" stroke="#000224" stroke-width="3.9828166603070723" fill="none" stroke-linecap="round" opacity="0.6"/><path d="M977.5433430060613 641.1934516139313 Q990.4200773171431 625.6309710009832 1001.1353671648859 650.0684903880352" stroke="#000224" stroke-width="2.67741541626803" fill="none" stroke-linecap="round" opacity="0.6"/><path d="M977.5433430060613 641.1934516139313 Q980.9994447155708 627.4996897201731 967.9476250347267 653.8059278264149" stroke="#000224" stroke-width="2.9092539290220603" fill="none" stroke-linecap="round" opacity="0.6"/><path d="M977.5433430060613 641.1934516139313 Q958.2520021285465 626.299072968937 906.8637964296199 651.4046943239429" stroke="#000224" stroke-width="2.5874836860661126" fill="none" stroke-linecap="round" opacity="0.6"/><path d="M977.5433430060613 641.1934516139313 Q959.2839260765156 617.75774659585 929.9812431236835 634.3220415777688" stroke="#000224" stroke-width="2.442549465792847" fill="none" stroke-linecap="round" opacity="0.6"/><path d="M977.5433430060613 641.1934516139313 Q977.4964541094675 613.7703740726938 966.2482162815311 626.3472965314564" stroke="#000224" stroke-width="3.741682434394416" fill="none" stroke-linecap="round" opacity="0.6"/><path d="M977.5433430060613 641.1934516139313 Q1001.3430025483037 613.2905763508634 1019.5588944590862 625.3877010877953" stroke="#000224" stroke-width="2.435998302985914" fill="none" stroke-linecap="round" opacity="0.6"/><rect x="0" y="1000" width="1920" height="80" fill="#000f31" opacity="0.8"/><line x1="0" y1="1040" x2="1920" y2="1040" stroke="#457b9d" stroke-opacity="0.15" stroke-width="2" stroke-dasharray="30,20"/><rect x="0" y="930" width="1920" height="150" fill="url(#glow62)"/><rect x="0" y="980" width="1920" height="100" fill="#457b9d" opacity="0.04"/><rect x="201.14047859821943" y="1021.1291510847232" width="29.354397214333154" height="2" fill="#e63946" opacity="0.037172196464886" rx="1"/><rect x="1716.529298228335" y="1000.8090598510599" width="82.19726169067371" height="2" fill="#e63946" opacity="0.03273358779324535" rx="1"/><rect x="1201.3039485926981" y="1034.327261623537" width="74.22992786723886" height="2" fill="#e63946" opacity="0.02922722707717382" rx="1"/><rect x="1402.8645004618131" y="1045.4741489061794" width="27.539714921158673" height="2" fill="#e63946" opacity="0.024991521817862877" rx="1"/><rect x="946.9957715987684" y="1051.3992085380944" width="79.52303089656006" height="2" fill="#e63946" opacity="0.029497311303740673" rx="1"/><rect x="1325.7968646394547" y="1016.8082726506535" width="43.890457540724995" height="2" fill="#e63946" opacity="0.02983457351332404" rx="1"/><rect x="850.9311673536271" y="1028.850930866052" width="92.81760565769338" height="2" fill="#e63946" opacity="0.0589402370431787" rx="1"/><rect x="1686.760050898129" y="1017.5653872214177" width="36.44775595433259" height="2" fill="#e63946" opacity="0.03804351120675996" rx="1"/><rect x="1413.4036493611998" y="1038.7266513469458" width="35.07916548640448" height="2" fill="#e63946" opacity="0.040692830956702314" rx="1"/><rect x="939.1122322480921" y="1053.53252821917" width="20.922005274547733" height="2" fill="#e63946" opacity="0.05678579810000625" rx="1"/><rect x="111.78592177848004" y="1006.1743570040386" width="24.654643452878727" height="2" fill="#e63946" opacity="0.04511821807015646" rx="1"/><rect x="548.9485329177576" y="1056.1645439397926" width="29.96653468114476" height="2" fill="#e63946" opacity="0.04253569914552749" rx="1"/><rect x="466.1914610458053" y="1001.8942307405858" width="97.19995071580632" height="2" fill="#e63946" opacity="0.049048473748622576" rx="1"/><rect x="1284.6935014437636" y="1022.0681509566652" width="65.94583447229718" height="2" fill="#e63946" opacity="0.038205709191552764" rx="1"/><rect x="1576.497675249469" y="1009.2364744258198" width="61.757941651567336" height="2" fill="#e63946" opacity="0.021232209215227563" rx="1"/><rect x="1564.5026215083205" y="1059.5407776812885" width="93.86320574997534" height="2" fill="#e63946" opacity="0.05873114733927212" rx="1"/><rect x="1184.0707494095132" y="1038.295768326683" width="64.82099182084693" height="2" fill="#e63946" opacity="0.05147503047983046" rx="1"/><rect x="1075.111623805741" y="1018.7776557865501" width="46.170316391198504" height="2" fill="#e63946" opacity="0.033080563157117125" rx="1"/><rect x="794.0488902093025" y="1006.3147882899071" width="78.44162103218065" height="2" fill="#e63946" opacity="0.04665508265296349" rx="1"/><rect x="363.2124822687387" y="1043.3172882449155" width="21.47494000882724" height="2" fill="#e63946" opacity="0.03681293040905449" rx="1"/><rect x="1095.0656245218279" y="1050.2959712525587" width="52.919209877243084" height="2" fill="#e63946" opacity="0.04590162745348682" rx="1"/><rect x="319.5786278693887" y="1054.563538435512" width="107.85417705957177" height="2" fill="#e63946" opacity="0.025949463296204216" rx="1"/><rect x="464.99653022386985" y="1051.7942208125708" width="71.68113262664554" height="2" fill="#e63946" opacity="0.05682308189496936" rx="1"/><rect x="1420.2142706839868" y="1006.0715683284383" width="103.63376585385616" height="2" fill="#e63946" opacity="0.036775899542676266" rx="1"/><rect x="177.7324672457139" y="1052.948273455945" width="51.78579703247775" height="2" fill="#e63946" opacity="0.049908526183550364" rx="1"/><rect x="1538.8110288090097" y="1046.61736115036" width="57.54701494182158" height="2" fill="#e63946" opacity="0.053515887799094414" rx="1"/><rect x="1848.8718527389858" y="1004.4240191216636" width="99.89258716811719" height="2" fill="#e63946" opacity="0.024895917951337974" rx="1"/><rect x="667.4509653512973" y="1046.831286318328" width="39.515248229614286" height="2" fill="#e63946" opacity="0.021169830523703675" rx="1"/><rect x="1417.0630492589119" y="1009.5324798276491" width="78.42385924384553" height="2" fill="#e63946" opacity="0.0349851436761639" rx="1"/><rect x="53.19293485330253" y="1002.2446245798479" width="87.54510061991054" height="2" fill="#e63946" opacity="0.05980948385778104" rx="1"/><text x="1900" y="1060" font-family="Arial, sans-serif" font-size="11" fill="#fff" opacity="0.08" text-anchor="end" letter-spacing="2">GTA 6 REWARDS · WALLPAPER 063</text>
</svg>