<?xml version="1.0" encoding="UTF-8"?>
<svg xmlns="http://www.w3.org/2000/svg" width="1920" height="1080" viewBox="0 0 1920 1080">
<defs>
    <linearGradient id="bg81" x1="0%" y1="0%" x2="0%" y2="100%">
      <stop offset="0%" stop-color="#004e89"/>
      <stop offset="50%" stop-color="#001b56"/>
      <stop offset="100%" stop-color="#004e89"/>
    </linearGradient>
    <linearGradient id="sun81" x1="0%" y1="0%" x2="100%" y2="100%">
      <stop offset="0%" stop-color="#ff6b35"/>
      <stop offset="100%" stop-color="#f7c59f"/>
    </linearGradient>
    <radialGradient id="glow81" cx="50%" cy="70%" r="50%">
      <stop offset="0%" stop-color="#ff6b35" stop-opacity="0.3"/>
      <stop offset="100%" stop-color="#004e89" stop-opacity="0"/>
    </radialGradient>
  </defs><rect width="1920" height="1080" fill="url(#bg81)"/><circle cx="675.2423309663409" cy="348.6884016889819" r="766.561559370384" fill="#ff6b35" opacity="0.05067381958958549"/><circle cx="875.2423309663409" cy="248.6884016889819" r="439.04463896505644" fill="#f7c59f" opacity="0.12701411217381575"/><circle cx="587.2918340115091" cy="226.3831297812013" r="94.47680871805102" fill="url(#sun81)" opacity="0.613030146810466"/><circle cx="587.2918340115091" cy="226.3831297812013" r="89.47680871805102" fill="#004e89" opacity="0.3"/><path d="M1803.0762791361371 846.0703920913093 Q1788.8902984114575 750.1668043318593 1786.0531022665214 654.2632165724093" stroke="#00013c" stroke-width="5.146634082576873" fill="none" stroke-linecap="round"/><path d="M1786.0531022665214 654.2632165724093 Q1810.360719598448 634.2632165724093 1831.6225424408033 654.2632165724093" stroke="#001b56" stroke-width="2.3355426095276006" fill="none" stroke-linecap="round" opacity="0.6"/><path d="M1786.0531022665214 654.2632165724093 Q1825.1801515687894 642.858216218015 1831.7483255653494 671.4532158636206" stroke="#001b56" stroke-width="3.3450912342744625" fill="none" stroke-linecap="round" opacity="0.6"/><path d="M1786.0531022665214 654.2632165724093 Q1787.8247619457604 639.5222673979142 1778.0508087171372 664.7813182234192" stroke="#001b56" stroke-width="3.821727602701105" fill="none" stroke-linecap="round" opacity="0.6"/><path d="M1786.0531022665214 654.2632165724093 Q1765.4985267150955 638.1582112144112 1732.1328375088451 662.053205856413" stroke="#001b56" stroke-width="2.6113951081902242" fill="none" stroke-linecap="round" opacity="0.6"/><path d="M1786.0531022665214 654.2632165724093 Q1772.9948196349544 630.8146716916472 1738.3132540535696 647.3661268108849" stroke="#001b56" stroke-width="3.2118705304367166" fill="none" stroke-linecap="round" opacity="0.6"/><path d="M1786.0531022665214 654.2632165724093 Q1782.1049663387423 625.5528502916964 1772.7992071790497 636.8424840109833" stroke="#001b56" stroke-width="3.991879054808961" fill="none" stroke-linecap="round" opacity="0.6"/><path d="M1511.652225309902 959.6717265107836 Q1508.0474505778514 839.1772426290385 1507.326495631441 718.6827587472933" stroke="#00013c" stroke-width="6.6474395791644785" fill="none" stroke-linecap="round"/><path d="M1507.326495631441 718.6827587472933 Q1548.8709422475356 698.6827587472933 1559.3073437067928 718.6827587472933" stroke="#001b56" stroke-width="3.9210245348329247" fill="none" stroke-linecap="round" opacity="0.6"/><path d="M1507.326495631441 718.6827587472933 Q1518.9640180447607 702.6695397098745 1528.5221737978504 726.6563206724555" stroke="#001b56" stroke-width="2.814319536745157" fill="none" stroke-linecap="round" opacity="0.6"/><path d="M1507.326495631441 718.6827587472933 Q1511.7648206255394 708.3778895241564 1492.5741600769204 738.0730203010195" stroke="#001b56" stroke-width="3.36098088076361" fill="none" stroke-linecap="round" opacity="0.6"/><path d="M1507.326495631441 718.6827587472933 Q1490.3473488430081 702.2285199631639 1458.24083541883 725.7742811790345" stroke="#001b56" stroke-width="2.607764508251046" fill="none" stroke-linecap="round" opacity="0.6"/><path d="M1507.326495631441 718.6827587472933 Q1500.1508737515942 694.968758686647 1455.9118250127542 711.2547586260007" stroke="#001b56" stroke-width="3.836092001720353" fill="none" stroke-linecap="round" opacity="0.6"/><path d="M1507.326495631441 718.6827587472933 Q1513.0606373781866 689.4075752024108 1493.2131615121723 700.1323916575284" stroke="#001b56" stroke-width="2.252421810350479" fill="none" stroke-linecap="round" opacity="0.6"/><path d="M1507.326495631441 718.6827587472933 Q1540.243947800631 693.426843762863 1535.2695111935175 708.1709287784327" stroke="#001b56" stroke-width="2.5278248247988113" fill="none" stroke-linecap="round" opacity="0.6"/><path d="M1299.9705830262906 950.4578608671338 Q1283.5215488969166 867.0055788166369 1280.2317420710417 783.55329676614" stroke="#00013c" stroke-width="5.990870186591258" fill="none" stroke-linecap="round"/><path d="M1280.2317420710417 783.55329676614 Q1315.0892599662973 763.55329676614 1333.6041606030435 783.55329676614" stroke="#001b56" stroke-width="2.005193122198152" fill="none" stroke-linecap="round" opacity="0.6"/><path d="M1280.2317420710417 783.55329676614 Q1296.5674362313732 768.755661957056 1307.8900607310657 793.9580271479718" stroke="#001b56" stroke-width="2.078306483123057" fill="none" stroke-linecap="round" opacity="0.6"/><path d="M1280.2317420710417 783.55329676614 Q1289.300387418652 771.891565140643 1267.5440397764146 800.229833515146" stroke="#001b56" stroke-width="2.8248889070993495" fill="none" stroke-linecap="round" opacity="0.6"/><path d="M1280.2317420710417 783.55329676614 Q1252.7975729566265 768.4756227067585 1212.089641160393 793.3979486473769" stroke="#001b56" stroke-width="3.0061059759478335" fill="none" stroke-linecap="round" opacity="0.6"/><path d="M1280.2317420710417 783.55329676614 Q1251.5938489085952 758.9387356768289 1216.3501764860766 774.3241745875176" stroke="#001b56" stroke-width="2.373853665397934" fill="none" stroke-linecap="round" opacity="0.6"/><path d="M1280.2317420710417 783.55329676614 Q1287.8513012174449 759.0351334195165 1273.3568000704045 774.516970072893" stroke="#001b56" stroke-width="3.9831399647479735" fill="none" stroke-linecap="round" opacity="0.6"/><path d="M1262.7673497755936 859.5387281755774 Q1275.1075501030095 795.0212206621703 1277.575590168493 730.5037131487633" stroke="#00013c" stroke-width="5.9083552933084675" fill="none" stroke-linecap="round"/><path d="M1277.575590168493 730.5037131487633 Q1294.9898455650523 710.5037131487633 1310.1743940087442 730.5037131487633" stroke="#001b56" stroke-width="3.9951445353206116" fill="none" stroke-linecap="round" opacity="0.6"/><path d="M1277.575590168493 730.5037131487633 Q1306.9197082807143 714.345274612524 1297.9992104291953 738.1868360762849" stroke="#001b56" stroke-width="3.7528778500279594" fill="none" stroke-linecap="round" opacity="0.6"/><path d="M1277.575590168493 730.5037131487633 Q1293.4172685623187 715.4602571469878 1270.0335980143434 740.4168011452124" stroke="#001b56" stroke-width="2.5417521071019005" fill="none" stroke-linecap="round" opacity="0.6"/><path d="M1277.575590168493 730.5037131487633 Q1244.5183438576862 715.467087479962 1208.8652368489459 740.4304618111607" stroke="#001b56" stroke-width="2.933639793408485" fill="none" stroke-linecap="round" opacity="0.6"/><path d="M1277.575590168493 730.5037131487633 Q1256.0463400247909 705.5902998531269 1209.5568712445463 720.6768865574904" stroke="#001b56" stroke-width="3.0542638211171758" fill="none" stroke-linecap="round" opacity="0.6"/><line x1="0" y1="0" x2="0" y2="1080" stroke="#ff6b35" stroke-opacity="0.03526081074151695" stroke-width="0.5"/><line x1="63" y1="0" x2="63" y2="1080" stroke="#ff6b35" stroke-opacity="0.03526081074151695" stroke-width="0.5"/><line x1="126" y1="0" x2="126" y2="1080" stroke="#ff6b35" stroke-opacity="0.03526081074151695" stroke-width="0.5"/><line x1="189" y1="0" x2="189" y2="1080" stroke="#ff6b35" stroke-opacity="0.03526081074151695" stroke-width="0.5"/><line x1="252" y1="0" x2="252" y2="1080" stroke="#ff6b35" stroke-opacity="0.03526081074151695" stroke-width="0.5"/><line x1="315" y1="0" x2="315" y2="1080" stroke="#ff6b35" stroke-opacity="0.03526081074151695" stroke-width="0.5"/><line x1="378" y1="0" x2="378" y2="1080" stroke="#ff6b35" stroke-opacity="0.03526081074151695" stroke-width="0.5"/><line x1="441" y1="0" x2="441" y2="1080" stroke="#ff6b35" stroke-opacity="0.03526081074151695" stroke-width="0.5"/><line x1="504" y1="0" x2="504" y2="1080" stroke="#ff6b35" stroke-opacity="0.03526081074151695" stroke-width="0.5"/><line x1="567" y1="0" x2="567" y2="1080" stroke="#ff6b35" stroke-opacity="0.03526081074151695" stroke-width="0.5"/><line x1="630" y1="0" x2="630" y2="1080" stroke="#ff6b35" stroke-opacity="0.03526081074151695" stroke-width="0.5"/><line x1="693" y1="0" x2="693" y2="1080" stroke="#ff6b35" stroke-opacity="0.03526081074151695" stroke-width="0.5"/><line x1="756" y1="0" x2="756" y2="1080" stroke="#ff6b35" stroke-opacity="0.03526081074151695" stroke-width="0.5"/><line x1="819" y1="0" x2="819" y2="1080" stroke="#ff6b35" stroke-opacity="0.03526081074151695" stroke-width="0.5"/><line x1="882" y1="0" x2="882" y2="1080" stroke="#ff6b35" stroke-opacity="0.03526081074151695" stroke-width="0.5"/><line x1="945" y1="0" x2="945" y2="1080" stroke="#ff6b35" stroke-opacity="0.03526081074151695" stroke-width="0.5"/><line x1="1008" y1="0" x2="1008" y2="1080" stroke="#ff6b35" stroke-opacity="0.03526081074151695" stroke-width="0.5"/><line x1="1071" y1="0" x2="1071" y2="1080" stroke="#ff6b35" stroke-opacity="0.03526081074151695" stroke-width="0.5"/><line x1="1134" y1="0" x2="1134" y2="1080" stroke="#ff6b35" stroke-opacity="0.03526081074151695" stroke-width="0.5"/><line x1="1197" y1="0" x2="1197" y2="1080" stroke="#ff6b35" stroke-opacity="0.03526081074151695" stroke-width="0.5"/><line x1="1260" y1="0" x2="1260" y2="1080" stroke="#ff6b35" stroke-opacity="0.03526081074151695" stroke-width="0.5"/><line x1="1323" y1="0" x2="1323" y2="1080" stroke="#ff6b35" stroke-opacity="0.03526081074151695" stroke-width="0.5"/><line x1="1386" y1="0" x2="1386" y2="1080" stroke="#ff6b35" stroke-opacity="0.03526081074151695" stroke-width="0.5"/><line x1="1449" y1="0" x2="1449" y2="1080" stroke="#ff6b35" stroke-opacity="0.03526081074151695" stroke-width="0.5"/><line x1="1512" y1="0" x2="1512" y2="1080" stroke="#ff6b35" stroke-opacity="0.03526081074151695" stroke-width="0.5"/><line x1="1575" y1="0" x2="1575" y2="1080" stroke="#ff6b35" stroke-opacity="0.03526081074151695" stroke-width="0.5"/><line x1="1638" y1="0" x2="1638" y2="1080" stroke="#ff6b35" stroke-opacity="0.03526081074151695" stroke-width="0.5"/><line x1="1701" y1="0" x2="1701" y2="1080" stroke="#ff6b35" stroke-opacity="0.03526081074151695" stroke-width="0.5"/><line x1="1764" y1="0" x2="1764" y2="1080" stroke="#ff6b35" stroke-opacity="0.03526081074151695" stroke-width="0.5"/><line x1="1827" y1="0" x2="1827" y2="1080" stroke="#ff6b35" stroke-opacity="0.03526081074151695" stroke-width="0.5"/><line x1="1890" y1="0" x2="1890" y2="1080" stroke="#ff6b35" stroke-opacity="0.03526081074151695" stroke-width="0.5"/><line x1="0" y1="0" x2="1920" y2="0" stroke="#ff6b35" stroke-opacity="0.03526081074151695" stroke-width="0.5"/><line x1="0" y1="63" x2="1920" y2="63" stroke="#ff6b35" stroke-opacity="0.03526081074151695" stroke-width="0.5"/><line x1="0" y1="126" x2="1920" y2="126" stroke="#ff6b35" stroke-opacity="0.03526081074151695" stroke-width="0.5"/><line x1="0" y1="189" x2="1920" y2="189" stroke="#ff6b35" stroke-opacity="0.03526081074151695" stroke-width="0.5"/><line x1="0" y1="252" x2="1920" y2="252" stroke="#ff6b35" stroke-opacity="0.03526081074151695" stroke-width="0.5"/><line x1="0" y1="315" x2="1920" y2="315" stroke="#ff6b35" stroke-opacity="0.03526081074151695" stroke-width="0.5"/><line x1="0" y1="378" x2="1920" y2="378" stroke="#ff6b35" stroke-opacity="0.03526081074151695" stroke-width="0.5"/><line x1="0" y1="441" x2="1920" y2="441" stroke="#ff6b35" stroke-opacity="0.03526081074151695" stroke-width="0.5"/><line x1="0" y1="504" x2="1920" y2="504" stroke="#ff6b35" stroke-opacity="0.03526081074151695" stroke-width="0.5"/><line x1="0" y1="567" x2="1920" y2="567" stroke="#ff6b35" stroke-opacity="0.03526081074151695" stroke-width="0.5"/><line x1="0" y1="630" x2="1920" y2="630" stroke="#ff6b35" stroke-opacity="0.03526081074151695" stroke-width="0.5"/><line x1="0" y1="693" x2="1920" y2="693" stroke="#ff6b35" stroke-opacity="0.03526081074151695" stroke-width="0.5"/><line x1="0" y1="756" x2="1920" y2="756" stroke="#ff6b35" stroke-opacity="0.03526081074151695" stroke-width="0.5"/><line x1="0" y1="819" x2="1920" y2="819" stroke="#ff6b35" stroke-opacity="0.03526081074151695" stroke-width="0.5"/><line x1="0" y1="882" x2="1920" y2="882" stroke="#ff6b35" stroke-opacity="0.03526081074151695" stroke-width="0.5"/><line x1="0" y1="945" x2="1920" y2="945" stroke="#ff6b35" stroke-opacity="0.03526081074151695" stroke-width="0.5"/><line x1="0" y1="1008" x2="1920" y2="1008" stroke="#ff6b35" stroke-opacity="0.03526081074151695" stroke-width="0.5"/><line x1="0" y1="1071" x2="1920" y2="1071" stroke="#ff6b35" stroke-opacity="0.03526081074151695" stroke-width="0.5"/><rect x="0" y="1000" width="1920" height="80" fill="#002863" opacity="0.8"/><line x1="0" y1="1040" x2="1920" y2="1040" stroke="#f7c59f" stroke-opacity="0.15" stroke-width="2" stroke-dasharray="30,20"/><rect x="0" y="930" width="1920" height="150" fill="url(#glow81)"/><text x="1900" y="1060" font-family="Arial, sans-serif" font-size="11" fill="#fff" opacity="0.08" text-anchor="end" letter-spacing="2">GTA 6 REWARDS · WALLPAPER 082</text>
</svg>