<?xml version="1.0" encoding="UTF-8"?>
<svg xmlns="http://www.w3.org/2000/svg" width="1920" height="1080" viewBox="0 0 1920 1080">
<defs>
    <linearGradient id="bg2" x1="0%" y1="0%" x2="0%" y2="100%">
      <stop offset="0%" stop-color="#1d3557"/>
      <stop offset="50%" stop-color="#000224"/>
      <stop offset="100%" stop-color="#1d3557"/>
    </linearGradient>
    <linearGradient id="sun2" x1="0%" y1="0%" x2="100%" y2="100%">
      <stop offset="0%" stop-color="#e63946"/>
      <stop offset="100%" stop-color="#457b9d"/>
    </linearGradient>
    <radialGradient id="glow2" cx="50%" cy="70%" r="50%">
      <stop offset="0%" stop-color="#e63946" stop-opacity="0.3"/>
      <stop offset="100%" stop-color="#1d3557" stop-opacity="0"/>
    </radialGradient>
  </defs><rect width="1920" height="1080" fill="url(#bg2)"/><circle cx="689.9981188564557" cy="314.11842212875337" r="761.3865472752104" fill="#e63946" opacity="0.13752879472159055"/><circle cx="889.9981188564557" cy="214.11842212875337" r="526.1666684239559" fill="#457b9d" opacity="0.08993612590244415"/><circle cx="1237.906687086892" cy="184.20951711810415" r="74.28978623223719" fill="url(#sun2)" opacity="0.835760096911285"/><circle cx="1237.906687086892" cy="184.20951711810415" r="69.28978623223719" fill="#1d3557" opacity="0.3"/><rect x="17.439612286966202" y="573.0822141103172" width="38.46040193188479" height="281.66816874446073" fill="#031b3d" opacity="0.6914840345018274" rx="2"/><rect x="31.00902210641862" y="583.0822141103172" width="11.32158229297995" height="6.248732355481184" fill="#457b9d" opacity="0.16401223702449635" rx="1"/><rect x="21.393921623447426" y="586.2065802880578" width="11.32158229297995" height="6.248732355481184" fill="#e63946" opacity="0.08200611851224818" rx="1"/><rect x="33.90207876798279" y="676.9716036918041" width="5.535468969851609" height="6.028422255075635" fill="#457b9d" opacity="0.5700512486673079" rx="1"/><rect x="24.286978285011596" y="679.985814819342" width="5.535468969851609" height="6.028422255075635" fill="#e63946" opacity="0.28502562433365397" rx="1"/><rect x="32.86151574409136" y="770.860993273291" width="7.61659501763447" height="8.53860873043039" fill="#457b9d" opacity="0.594205200112007" rx="1"/><rect x="23.246415261120163" y="775.1302976385062" width="7.61659501763447" height="8.53860873043039" fill="#e63946" opacity="0.2971026000560035" rx="1"/><rect x="108.03661237547635" y="670.2779096831284" width="58.07778200788371" height="184.4724731716496" fill="#031b3d" opacity="0.556365949883211" rx="2"/><rect x="134.84423082906457" y="680.2779096831284" width="4.462545100707222" height="9.841171000115846" fill="#457b9d" opacity="0.5025133480090912" rx="1"/><rect x="120.32478532709366" y="685.1984951831863" width="4.462545100707222" height="9.841171000115846" fill="#e63946" opacity="0.2512566740045456" rx="1"/><rect x="135.07299889468962" y="741.7687340736783" width="4.005008969457124" height="9.928317308409213" fill="#457b9d" opacity="0.1362592239482932" rx="1"/><rect x="120.55355339271871" y="746.7328927278829" width="4.005008969457124" height="9.928317308409213" fill="#e63946" opacity="0.0681296119741466" rx="1"/><rect x="131.18601122811648" y="803.2595584642281" width="11.778984302603403" height="8.10956476491633" fill="#457b9d" opacity="0.19737927480539758" rx="1"/><rect x="116.66656572614558" y="807.3143408466863" width="11.778984302603403" height="8.10956476491633" fill="#e63946" opacity="0.09868963740269879" rx="1"/><rect x="222.4420258921963" y="541.3589910351111" width="33.08871635773422" height="313.3913918196669" fill="#1d3557" opacity="0.6481391297998231" rx="2"/><rect x="233.19103017419513" y="551.3589910351111" width="11.59070779373653" height="6.284592050193947" fill="#457b9d" opacity="0.4570485063495693" rx="1"/><rect x="224.9188510847616" y="554.501287060208" width="11.59070779373653" height="6.284592050193947" fill="#e63946" opacity="0.22852425317478464" rx="1"/><rect x="233.06626545605076" y="614.0372693990445" width="11.840237230025288" height="9.355508020928946" fill="#457b9d" opacity="0.4207927156055329" rx="1"/><rect x="224.79408636661722" y="618.715023409509" width="11.840237230025288" height="9.355508020928946" fill="#e63946" opacity="0.21039635780276644" rx="1"/><rect x="234.88870430933662" y="676.7155477629778" width="8.1953595234536" height="6.132541952685579" fill="#457b9d" opacity="0.5243873511265003" rx="1"/><rect x="226.61652521990308" y="679.7818187393207" width="8.1953595234536" height="6.132541952685579" fill="#e63946" opacity="0.26219367556325013" rx="1"/><rect x="233.63105401004603" y="739.3938261269113" width="10.71066012203476" height="8.19194014607741" fill="#457b9d" opacity="0.25625118654134016" rx="1"/><rect x="225.3588749206125" y="743.4897961999501" width="10.71066012203476" height="8.19194014607741" fill="#e63946" opacity="0.12812559327067008" rx="1"/><rect x="233.376073494298" y="802.0721044908446" width="11.22062115353081" height="9.713427029483352" fill="#457b9d" opacity="0.32347658225881787" rx="1"/><rect x="225.10389440486446" y="806.9288180055863" width="11.22062115353081" height="9.713427029483352" fill="#e63946" opacity="0.16173829112940893" rx="1"/><rect x="313.6359613480571" y="489.0511853245672" width="31.10688416778736" height="365.69919753021077" fill="#031b3d" opacity="0.5314760294350507" rx="2"/><rect x="323.71989568101924" y="499.0511853245672" width="10.939015501863093" height="9.678069068043975" fill="#457b9d" opacity="0.3159056958546642" rx="1"/><rect x="315.94317463907237" y="503.8902198585892" width="10.939015501863093" height="9.678069068043975" fill="#e63946" opacity="0.1579528479273321" rx="1"/><rect x="326.36101899881623" y="551.293927828883" width="5.656768866269097" height="8.584897124810354" fill="#457b9d" opacity="0.4120860766647584" rx="1"/><rect x="318.58429795686936" y="555.5863763912882" width="5.656768866269097" height="8.584897124810354" fill="#e63946" opacity="0.2060430383323792" rx="1"/><rect x="324.33656985478615" y="603.5366703331988" width="9.705667154329285" height="9.752099501842656" fill="#457b9d" opacity="0.202569830278533" rx="1"/><rect x="316.5598488128393" y="608.4127200841201" width="9.705667154329285" height="9.752099501842656" fill="#e63946" opacity="0.1012849151392665" rx="1"/><rect x="326.07402057500167" y="655.7794128375147" width="6.230765713898178" height="7.381216693991147" fill="#457b9d" opacity="0.3686259808877078" rx="1"/><rect x="318.2972995330548" y="659.4700211845102" width="6.230765713898178" height="7.381216693991147" fill="#e63946" opacity="0.1843129904438539" rx="1"/><rect x="327.07948353743853" y="708.0221553418305" width="4.219839789024517" height="7.1523525652364714" fill="#457b9d" opacity="0.5153376200504921" rx="1"/><rect x="319.30276249549166" y="711.5983316244487" width="4.219839789024517" height="7.1523525652364714" fill="#e63946" opacity="0.25766881002524605" rx="1"/><rect x="326.52056636226126" y="760.2648978461464" width="5.337674139378982" height="9.107883814514587" fill="#457b9d" opacity="0.297246513258956" rx="1"/><rect x="318.7438453203144" y="764.8188397534036" width="5.337674139378982" height="9.107883814514587" fill="#e63946" opacity="0.148623256629478" rx="1"/><rect x="325.51287477563653" y="812.5076403504621" width="7.353057312628501" height="7.580928697618872" fill="#457b9d" opacity="0.5218809482226803" rx="1"/><rect x="317.73615373368966" y="816.2981046992716" width="7.353057312628501" height="7.580928697618872" fill="#e63946" opacity="0.26094047411134014" rx="1"/><rect x="418.4800993370667" y="696.7697638894361" width="89.37042631194238" height="157.98061896534185" fill="#031b3d" opacity="0.6124163196451069" rx="2"/><rect x="458.2283248892708" y="706.7697638894361" width="9.873975207534148" height="9.127757506241966" fill="#457b9d" opacity="0.42373859927145263" rx="1"/><rect x="435.8857183112852" y="711.3336426425572" width="9.873975207534148" height="9.127757506241966" fill="#e63946" opacity="0.21186929963572632" rx="1"/><rect x="460.0187511234711" y="759.4299702112168" width="6.293122739133686" height="7.306868071040807" fill="#457b9d" opacity="0.42574638266250175" rx="1"/><rect x="437.67614454548544" y="763.0834042467371" width="6.293122739133686" height="7.306868071040807" fill="#e63946" opacity="0.21287319133125088" rx="1"/><rect x="460.73525857431537" y="812.0901765329974" width="4.860107837445128" height="6.751601948577818" fill="#457b9d" opacity="0.4662168219141236" rx="1"/><rect x="438.39265199632973" y="815.4659775072863" width="4.860107837445128" height="6.751601948577818" fill="#e63946" opacity="0.2331084109570618" rx="1"/><rect x="534.5272918047483" y="740.5431595841756" width="67.82816744358934" height="114.20722327060236" fill="#1d3557" opacity="0.6836755029586319" rx="2"/><rect x="564.1287581262748" y="750.5431595841756" width="8.625234800536473" height="8.066009824645242" fill="#457b9d" opacity="0.4588878087138031" rx="1"/><rect x="547.1717162653774" y="754.5761644964982" width="8.625234800536473" height="8.066009824645242" fill="#e63946" opacity="0.22944390435690154" rx="1"/><rect x="563.0549138533814" y="788.6122340077097" width="10.772923346323175" height="7.7008535828676195" fill="#457b9d" opacity="0.3555258392252787" rx="1"/><rect x="546.0978719924841" y="792.4626607991436" width="10.772923346323175" height="7.7008535828676195" fill="#e63946" opacity="0.17776291961263935" rx="1"/><rect x="566.1690575674838" y="826.6813084312438" width="4.544635918118208" height="9.450805355666859" fill="#457b9d" opacity="0.32266814606792016" rx="1"/><rect x="549.2120157065865" y="831.4067111090773" width="4.544635918118208" height="9.450805355666859" fill="#e63946" opacity="0.16133407303396008" rx="1"/><rect x="613.1187595437973" y="636.475529960933" width="64.947329702542" height="218.27485289384492" fill="#1d3557" opacity="0.5562905312646858" rx="2"/><rect x="642.7318574984815" y="646.475529960933" width="5.721133793173622" height="9.625778360205185" fill="#457b9d" opacity="0.39998037237673545" rx="1"/><rect x="626.495025072846" y="651.2884191410357" width="5.721133793173622" height="9.625778360205185" fill="#e63946" opacity="0.19999018618836772" rx="1"/><rect x="641.5136452131188" y="701.0442431843943" width="8.157558363899021" height="6.8152075588738565" fill="#457b9d" opacity="0.1778624017438531" rx="1"/><rect x="625.2768127874833" y="704.4518469638313" width="8.157558363899021" height="6.8152075588738565" fill="#e63946" opacity="0.08893120087192655" rx="1"/><rect x="642.5876761323693" y="755.6129564078556" width="6.009496525397873" height="9.287622668614523" fill="#457b9d" opacity="0.19458465841472722" rx="1"/><rect x="626.3508437067338" y="760.2567677421629" width="6.009496525397873" height="9.287622668614523" fill="#e63946" opacity="0.09729232920736361" rx="1"/><rect x="639.6820941004578" y="810.1816696313167" width="11.820660589221088" height="6.910769196439248" fill="#457b9d" opacity="0.5083932662402264" rx="1"/><rect x="623.4452616748223" y="813.6370542295364" width="11.820660589221088" height="6.910769196439248" fill="#e63946" opacity="0.2541966331201132" rx="1"/><rect x="717.0417256615785" y="552.8049267136504" width="48.88361973662013" height="301.9454561411276" fill="#1d3557" opacity="0.5116842218003432" rx="2"/><rect x="736.1993852928377" y="562.8049267136504" width="10.568300474101747" height="9.575099107710436" fill="#457b9d" opacity="0.2687613381465807" rx="1"/><rect x="723.9784803586826" y="567.5924762675056" width="10.568300474101747" height="9.575099107710436" fill="#e63946" opacity="0.13438066907329035" rx="1"/><rect x="737.7686063902478" y="623.1940179418759" width="7.429858279281729" height="9.609031558877097" fill="#457b9d" opacity="0.5613766719031559" rx="1"/><rect x="725.5477014560927" y="627.9985337213145" width="7.429858279281729" height="9.609031558877097" fill="#e63946" opacity="0.28068833595157794" rx="1"/><rect x="737.3299409517022" y="683.5831091701015" width="8.307189156372843" height="9.336678239362472" fill="#457b9d" opacity="0.17204193635192744" rx="1"/><rect x="725.109036017547" y="688.2514482897827" width="8.307189156372843" height="9.336678239362472" fill="#e63946" opacity="0.08602096817596372" rx="1"/><rect x="737.9877032502159" y="743.972200398327" width="6.991664559345614" height="7.2348450071259505" fill="#457b9d" opacity="0.1695695422053266" rx="1"/><rect x="725.7667983160608" y="747.5896229018899" width="6.991664559345614" height="7.2348450071259505" fill="#e63946" opacity="0.0847847711026633" rx="1"/><rect x="738.2401040285085" y="804.3612916265524" width="6.486863002760071" height="9.608012627718974" fill="#457b9d" opacity="0.23048479243425765" rx="1"/><rect x="726.0191990943534" y="809.165297940412" width="6.486863002760071" height="9.608012627718974" fill="#e63946" opacity="0.11524239621712883" rx="1"/><rect x="816.8812984295624" y="739.1299125247472" width="82.8414798231892" height="115.62047033003077" fill="#031b3d" opacity="0.4177999670891557" rx="2"/><rect x="853.5737912428285" y="749.1299125247472" width="9.456494196657207" height="8.352152786765282" fill="#457b9d" opacity="0.4945171886343782" rx="1"/><rect x="832.8634212870312" y="753.3059889181299" width="9.456494196657207" height="8.352152786765282" fill="#e63946" opacity="0.2472585943171891" rx="1"/><rect x="854.8167271120293" y="765.6471225718944" width="6.970622458255529" height="9.433323276097262" fill="#457b9d" opacity="0.12857374889510073" rx="1"/><rect x="834.106357156232" y="770.3637842099431" width="6.970622458255529" height="9.433323276097262" fill="#e63946" opacity="0.06428687444755037" rx="1"/><rect x="853.6053437727296" y="782.1643326190417" width="9.393389136854882" height="8.746119520335021" fill="#457b9d" opacity="0.5285132026831884" rx="1"/><rect x="832.8949738169323" y="786.5373923792092" width="9.393389136854882" height="8.746119520335021" fill="#e63946" opacity="0.2642566013415942" rx="1"/><rect x="855.6448141189177" y="798.6815426661889" width="5.314448444478784" height="8.204325153074302" fill="#457b9d" opacity="0.1919936810601488" rx="1"/><rect x="834.9344441631204" y="802.783705242726" width="5.314448444478784" height="8.204325153074302" fill="#e63946" opacity="0.0959968405300744" rx="1"/><rect x="854.7107526082118" y="815.1987527133361" width="7.182571465890522" height="7.47939236496561" fill="#457b9d" opacity="0.5413565300501316" rx="1"/><rect x="834.0003826524145" y="818.938448895819" width="7.182571465890522" height="7.47939236496561" fill="#e63946" opacity="0.2706782650250658" rx="1"/><rect x="853.9483922307971" y="831.7159627604834" width="8.707292220719925" height="8.993703267302761" fill="#457b9d" opacity="0.10944711163394319" rx="1"/><rect x="833.2380222749998" y="836.2128143941349" width="8.707292220719925" height="8.993703267302761" fill="#e63946" opacity="0.054723555816971595" rx="1"/><rect x="853.5950261956781" y="848.2331728076307" width="9.41402429095796" height="6.363545209254032" fill="#457b9d" opacity="0.5465427874695842" rx="1"/><rect x="832.8846562398808" y="851.4149454122577" width="9.41402429095796" height="6.363545209254032" fill="#e63946" opacity="0.2732713937347921" rx="1"/><rect x="909.8243340121564" y="743.4712787609247" width="45.50010469171687" height="111.27910409385318" fill="#1d3557" opacity="0.4314698408663901" rx="2"/><rect x="928.4365281483169" y="753.4712787609247" width="8.275716419395923" height="8.000442037824644" fill="#457b9d" opacity="0.11327410026296836" rx="1"/><rect x="917.0615019753877" y="757.471499779837" width="8.275716419395923" height="8.000442037824644" fill="#e63946" opacity="0.05663705013148418" rx="1"/><rect x="929.1302925342457" y="772.0177961099002" width="6.888187647538303" height="8.045270232959947" fill="#457b9d" opacity="0.5575468295853461" rx="1"/><rect x="917.7552663613164" y="776.0404312263802" width="6.888187647538303" height="8.045270232959947" fill="#e63946" opacity="0.27877341479267304" rx="1"/><rect x="929.9999592319057" y="790.5643134588759" width="5.1488542522184675" height="8.653586098610793" fill="#457b9d" opacity="0.4018743464029102" rx="1"/><rect x="918.6249330589765" y="794.8911065081812" width="5.1488542522184675" height="8.653586098610793" fill="#e63946" opacity="0.2009371732014551" rx="1"/><rect x="929.8790204781683" y="809.1108308078514" width="5.390731759693178" height="6.18347742785315" fill="#457b9d" opacity="0.3461666873996534" rx="1"/><rect x="918.5039943052391" y="812.202569521778" width="5.390731759693178" height="6.18347742785315" fill="#e63946" opacity="0.1730833436998267" rx="1"/><rect x="927.2552484375478" y="827.6573481568269" width="10.638275840933964" height="8.135802901847242" fill="#457b9d" opacity="0.4188926752933517" rx="1"/><rect x="915.8802222646186" y="831.7252496077505" width="10.638275840933964" height="8.135802901847242" fill="#e63946" opacity="0.20944633764667586" rx="1"/><rect x="928.0005269749948" y="846.2038655058024" width="9.147718766040104" height="7.8250926709326665" fill="#457b9d" opacity="0.44262667022240965" rx="1"/><rect x="916.6255008020656" y="850.1164118412687" width="9.147718766040104" height="7.8250926709326665" fill="#e63946" opacity="0.22131333511120482" rx="1"/><rect x="1014.2253803617454" y="726.2245951630698" width="57.43276455147023" height="128.52578769170813" fill="#1d3557" opacity="0.40673668526735546" rx="2"/><rect x="1037.5477283208584" y="736.2245951630698" width="10.78806863324439" height="6.90007390847897" fill="#457b9d" opacity="0.17534885885551313" rx="1"/><rect x="1023.1895371829906" y="739.6746321173093" width="10.78806863324439" height="6.90007390847897" fill="#e63946" opacity="0.08767442942775656" rx="1"/><rect x="1039.489701390993" y="754.585421976171" width="6.904122492974652" height="9.74081972514764" fill="#457b9d" opacity="0.2885485104724179" rx="1"/><rect x="1025.1315102531255" y="759.4558318387449" width="6.904122492974652" height="9.74081972514764" fill="#e63946" opacity="0.14427425523620896" rx="1"/><rect x="1039.2086063127126" y="772.9462487892721" width="7.466312649535554" height="8.036246406388527" fill="#457b9d" opacity="0.43873258026752915" rx="1"/><rect x="1024.850415174845" y="776.9643719924663" width="7.466312649535554" height="8.036246406388527" fill="#e63946" opacity="0.21936629013376457" rx="1"/><rect x="1039.2498464879768" y="791.3070756023733" width="7.383832299007064" height="6.2598570818686525" fill="#457b9d" opacity="0.38550461639778333" rx="1"/><rect x="1024.8916553501092" y="794.4370041433076" width="7.383832299007064" height="6.2598570818686525" fill="#e63946" opacity="0.19275230819889166" rx="1"/><rect x="1038.2133063175354" y="809.6679024154745" width="9.456912639890078" height="7.387847874636726" fill="#457b9d" opacity="0.3394773050303285" rx="1"/><rect x="1023.8551151796678" y="813.3618263527928" width="9.456912639890078" height="7.387847874636726" fill="#e63946" opacity="0.16973865251516426" rx="1"/><rect x="1038.511739705257" y="828.0287292285757" width="8.86004586444703" height="9.121349835563766" fill="#457b9d" opacity="0.12721144329458742" rx="1"/><rect x="1024.1535485673894" y="832.5894041463575" width="8.86004586444703" height="9.121349835563766" fill="#e63946" opacity="0.06360572164729371" rx="1"/><rect x="1037.1253158591587" y="846.3895560416768" width="11.632893556643484" height="9.523149429709452" fill="#457b9d" opacity="0.17458509669513095" rx="1"/><rect x="1022.7671247212911" y="851.1511307565315" width="11.632893556643484" height="9.523149429709452" fill="#e63946" opacity="0.08729254834756547" rx="1"/><rect x="1122.5947605936065" y="769.6570533839188" width="54.19375016451668" height="85.09332947085922" fill="#031b3d" opacity="0.6915112223223576" rx="2"/><rect x="1146.9038456370583" y="779.6570533839188" width="5.575580077612675" height="6.105379029201664" fill="#457b9d" opacity="0.10441204023184536" rx="1"/><rect x="1133.3554080959293" y="782.7097428985196" width="5.575580077612675" height="6.105379029201664" fill="#e63946" opacity="0.05220602011592268" rx="1"/><rect x="1145.4602375464408" y="800.9303857516336" width="8.462796258847881" height="7.85364038540368" fill="#457b9d" opacity="0.34922351801051377" rx="1"/><rect x="1131.9118000053118" y="804.8572059443354" width="8.462796258847881" height="7.85364038540368" fill="#e63946" opacity="0.17461175900525688" rx="1"/><rect x="1144.622956070471" y="822.2037181193484" width="10.137359210787658" height="6.918459642892345" fill="#457b9d" opacity="0.36193083607636645" rx="1"/><rect x="1131.074518529342" y="825.6629479407947" width="10.137359210787658" height="6.918459642892345" fill="#e63946" opacity="0.18096541803818322" rx="1"/><rect x="1144.4935527698574" y="843.4770504870631" width="10.39616581201464" height="9.08332810808982" fill="#457b9d" opacity="0.15123889063280982" rx="1"/><rect x="1130.9451152287284" y="848.018714541108" width="10.39616581201464" height="9.08332810808982" fill="#e63946" opacity="0.07561944531640491" rx="1"/><rect x="1231.1718566725797" y="752.2388143702966" width="68.79476720439149" height="102.51156848448133" fill="#031b3d" opacity="0.49731203750644626" rx="2"/><rect x="1262.2000824386155" y="762.2388143702966" width="6.738315672319922" height="6.6262407257748395" fill="#457b9d" opacity="0.5507364915801995" rx="1"/><rect x="1245.0013906375175" y="765.551934733184" width="6.738315672319922" height="6.6262407257748395" fill="#e63946" opacity="0.2753682457900998" rx="1"/><rect x="1260.6332679523134" y="775.0527604308568" width="9.871944644924241" height="7.678054369445437" fill="#457b9d" opacity="0.4652359129314394" rx="1"/><rect x="1243.4345761512154" y="778.8917876155795" width="9.871944644924241" height="7.678054369445437" fill="#e63946" opacity="0.2326179564657197" rx="1"/><rect x="1262.5566750892237" y="787.866706491417" width="6.025130371103327" height="6.287464066475505" fill="#457b9d" opacity="0.4729640901724259" rx="1"/><rect x="1245.3579832881258" y="791.0104385246547" width="6.025130371103327" height="6.287464066475505" fill="#e63946" opacity="0.23648204508621296" rx="1"/><rect x="1261.4241516472728" y="800.6806525519771" width="8.290177255005151" height="9.238130886861619" fill="#457b9d" opacity="0.5299201383092255" rx="1"/><rect x="1244.2254598461748" y="805.299717995408" width="8.290177255005151" height="9.238130886861619" fill="#e63946" opacity="0.26496006915461273" rx="1"/><rect x="1263.1863344161175" y="813.4945986125373" width="4.765811717315999" height="9.126072994229867" fill="#457b9d" opacity="0.47871831210300286" rx="1"/><rect x="1245.9876426150195" y="818.0576351096522" width="4.765811717315999" height="9.126072994229867" fill="#e63946" opacity="0.23935915605150143" rx="1"/><rect x="1261.6318044582822" y="826.3085446730975" width="7.874871632986439" height="7.48900831618556" fill="#457b9d" opacity="0.2275001952023013" rx="1"/><rect x="1244.4331126571842" y="830.0530488311903" width="7.874871632986439" height="7.48900831618556" fill="#e63946" opacity="0.11375009760115065" rx="1"/><rect x="1261.3740600174133" y="839.1224907336576" width="8.390360514724247" height="8.675847097923013" fill="#457b9d" opacity="0.25616703211706293" rx="1"/><rect x="1244.1753682163153" y="843.4604142826191" width="8.390360514724247" height="8.675847097923013" fill="#e63946" opacity="0.12808351605853147" rx="1"/><rect x="1262.7265257301935" y="851.9364367942178" width="5.685429089163763" height="6.459922739411686" fill="#457b9d" opacity="0.33080645867874997" rx="1"/><rect x="1245.5278339290956" y="855.1663981639236" width="5.685429089163763" height="6.459922739411686" fill="#e63946" opacity="0.16540322933937499" rx="1"/><rect x="1324.3506909424373" y="772.1363252080363" width="69.91923713589068" height="82.61405764674164" fill="#031b3d" opacity="0.48615449503673114" rx="2"/><rect x="1354.0850650406223" y="782.1363252080363" width="10.45048893952055" height="9.887498119819792" fill="#457b9d" opacity="0.16214804995389379" rx="1"/><rect x="1336.6052557566495" y="787.0800742679462" width="10.45048893952055" height="9.887498119819792" fill="#e63946" opacity="0.08107402497694689" rx="1"/><rect x="1357.0361593594907" y="792.463082413879" width="4.548300301783788" height="6.536571910729765" fill="#457b9d" opacity="0.5206493767957784" rx="1"/><rect x="1339.556350075518" y="795.7313683692438" width="4.548300301783788" height="6.536571910729765" fill="#e63946" opacity="0.2603246883978892" rx="1"/><rect x="1356.2882088594392" y="802.7898396197216" width="6.044201301886747" height="7.287946930455032" fill="#457b9d" opacity="0.40644714909290136" rx="1"/><rect x="1338.8083995754664" y="806.4338130849492" width="6.044201301886747" height="7.287946930455032" fill="#e63946" opacity="0.20322357454645068" rx="1"/><rect x="1356.8107372592742" y="813.1165968255644" width="4.999144502216751" height="8.266369251130701" fill="#457b9d" opacity="0.3264350476270623" rx="1"/><rect x="1339.3309279753014" y="817.2497814511298" width="4.999144502216751" height="8.266369251130701" fill="#e63946" opacity="0.16321752381353116" rx="1"/><rect x="1355.3303420638554" y="823.4433540314071" width="7.959934893054872" height="7.519328848812573" fill="#457b9d" opacity="0.38699533519963625" rx="1"/><rect x="1337.8505327798825" y="827.2030184558134" width="7.959934893054872" height="7.519328848812573" fill="#e63946" opacity="0.19349766759981812" rx="1"/><rect x="1356.015828497111" y="833.7701112372498" width="6.588962026543208" height="9.108590713494594" fill="#457b9d" opacity="0.5082931735106495" rx="1"/><rect x="1338.5360192131382" y="838.3244065939971" width="6.588962026543208" height="9.108590713494594" fill="#e63946" opacity="0.25414658675532475" rx="1"/><rect x="1355.5095652912116" y="844.0968684430925" width="7.601488438342113" height="6.300174527871463" fill="#457b9d" opacity="0.14807023379208292" rx="1"/><rect x="1338.0297560072388" y="847.2469557070282" width="7.601488438342113" height="6.300174527871463" fill="#e63946" opacity="0.07403511689604146" rx="1"/><rect x="1354.4701606807978" y="854.4236256489352" width="9.680297659169952" height="7.240891523016824" fill="#457b9d" opacity="0.30231221551129417" rx="1"/><rect x="1336.990351396825" y="858.0440714104436" width="9.680297659169952" height="7.240891523016824" fill="#e63946" opacity="0.15115610775564708" rx="1"/><rect x="1421.6752324591762" y="754.7923492977378" width="78.76365594769914" height="99.95803355704015" fill="#1d3557" opacity="0.5178823238280328" rx="2"/><rect x="1457.8235960408365" y="764.7923492977378" width="6.466928784378554" height="9.365497668126014" fill="#457b9d" opacity="0.22334042033724033" rx="1"/><rect x="1438.1326820539118" y="769.4750981318008" width="6.466928784378554" height="9.365497668126014" fill="#e63946" opacity="0.11167021016862017" rx="1"/><rect x="1458.2694624645992" y="779.072068377315" width="5.575195936852879" height="7.906008697558662" fill="#457b9d" opacity="0.41148231269593405" rx="1"/><rect x="1438.5785484776748" y="783.0250727260943" width="5.575195936852879" height="7.906008697558662" fill="#e63946" opacity="0.20574115634796702" rx="1"/><rect x="1457.6481351378216" y="793.3517874568921" width="6.817850590408279" height="8.127286566916688" fill="#457b9d" opacity="0.5105556871300926" rx="1"/><rect x="1437.9572211508969" y="797.4154307403504" width="6.817850590408279" height="8.127286566916688" fill="#e63946" opacity="0.2552778435650463" rx="1"/><rect x="1457.2146646408128" y="807.6315065364693" width="7.68479158442579" height="8.304046679824602" fill="#457b9d" opacity="0.41190366596260664" rx="1"/><rect x="1437.523750653888" y="811.7835298763815" width="7.68479158442579" height="8.304046679824602" fill="#e63946" opacity="0.20595183298130332" rx="1"/><rect x="1458.4351516759766" y="821.9112256160465" width="5.243817514098207" height="9.70965479959493" fill="#457b9d" opacity="0.15109495787208316" rx="1"/><rect x="1438.744237689052" y="826.766053015844" width="5.243817514098207" height="9.70965479959493" fill="#e63946" opacity="0.07554747893604158" rx="1"/><rect x="1456.7143046239853" y="836.1909446956237" width="8.685511618080902" height="9.632536707360423" fill="#457b9d" opacity="0.4318882258217521" rx="1"/><rect x="1437.0233906370606" y="841.0072130493039" width="8.685511618080902" height="9.632536707360423" fill="#e63946" opacity="0.21594411291087606" rx="1"/><rect x="1457.489586227614" y="850.4706637752008" width="7.1349484108236965" height="8.917739446022953" fill="#457b9d" opacity="0.5398189629287968" rx="1"/><rect x="1437.7986722406893" y="854.9295334982123" width="7.1349484108236965" height="8.917739446022953" fill="#e63946" opacity="0.2699094814643984" rx="1"/><rect x="1527.5537471022694" y="673.0998212758218" width="69.61802485390055" height="181.65056157895611" fill="#031b3d" opacity="0.41819831410380975" rx="2"/><rect x="1556.8462060510167" y="683.0998212758218" width="11.033106956405824" height="6.5168531072598075" fill="#457b9d" opacity="0.14712274380659748" rx="1"/><rect x="1539.4416998375416" y="686.3582478294517" width="11.033106956405824" height="6.5168531072598075" fill="#e63946" opacity="0.07356137190329874" rx="1"/><rect x="1559.487844922914" y="709.049901501387" width="5.7498292126110355" height="8.891582513901309" fill="#457b9d" opacity="0.3532701712924219" rx="1"/><rect x="1542.083338709439" y="713.4956927583377" width="5.7498292126110355" height="8.891582513901309" fill="#e63946" opacity="0.17663508564621094" rx="1"/><rect x="1558.1456058630938" y="734.9999817269521" width="8.434307332251759" height="6.24239631468486" fill="#457b9d" opacity="0.33355799895561256" rx="1"/><rect x="1540.7410996496187" y="738.1211798842945" width="8.434307332251759" height="6.24239631468486" fill="#e63946" opacity="0.16677899947780628" rx="1"/><rect x="1559.0091332562633" y="760.9500619525172" width="6.707252545912576" height="6.777659301827117" fill="#457b9d" opacity="0.3494959837639462" rx="1"/><rect x="1541.6046270427883" y="764.3388916034307" width="6.707252545912576" height="6.777659301827117" fill="#e63946" opacity="0.1747479918819731" rx="1"/><rect x="1557.7137447706566" y="786.9001421780824" width="9.298029517125812" height="7.0312240712883005" fill="#457b9d" opacity="0.5982061333717327" rx="1"/><rect x="1540.3092385571815" y="790.4157542137266" width="9.298029517125812" height="7.0312240712883005" fill="#e63946" opacity="0.29910306668586634" rx="1"/><rect x="1557.6986970323246" y="812.8502224036476" width="9.32812499378997" height="9.683006304242417" fill="#457b9d" opacity="0.42840027143908677" rx="1"/><rect x="1540.2941908188495" y="817.6917255557688" width="9.32812499378997" height="9.683006304242417" fill="#e63946" opacity="0.21420013571954338" rx="1"/><rect x="1557.4136594392735" y="838.8003026292128" width="9.898200179892173" height="7.5418536415188235" fill="#457b9d" opacity="0.20606588588703095" rx="1"/><rect x="1540.0091532257984" y="842.5712294499722" width="9.898200179892173" height="7.5418536415188235" fill="#e63946" opacity="0.10303294294351548" rx="1"/><rect x="1621.7052546739383" y="538.8246465448348" width="41.12193263860465" height="315.9257363099432" fill="#031b3d" opacity="0.6297658040723217" rx="2"/><rect x="1636.7728906823284" y="548.8246465448348" width="10.986660621824363" height="8.71529810286949" fill="#457b9d" opacity="0.3571182532136138" rx="1"/><rect x="1626.4924075226772" y="553.1822955962695" width="10.986660621824363" height="8.71529810286949" fill="#e63946" opacity="0.1785591266068069" rx="1"/><rect x="1636.2891385498222" y="588.3153635835777" width="11.954164886836466" height="7.47252342977387" fill="#457b9d" opacity="0.1979409072543357" rx="1"/><rect x="1626.008655390171" y="592.0516252984646" width="11.954164886836466" height="7.47252342977387" fill="#e63946" opacity="0.09897045362716785" rx="1"/><rect x="1638.0134654085207" y="627.8060806223206" width="8.505511169439533" height="7.2153034799767894" fill="#457b9d" opacity="0.5861118316152394" rx="1"/><rect x="1627.7329822488696" y="631.4137323623089" width="8.505511169439533" height="7.2153034799767894" fill="#e63946" opacity="0.2930559158076197" rx="1"/><rect x="1639.9731936844028" y="667.2967976610635" width="4.5860546176755" height="8.816247503928897" fill="#457b9d" opacity="0.5025607426656784" rx="1"/><rect x="1629.6927105247516" y="671.7049214130279" width="4.5860546176755" height="8.816247503928897" fill="#e63946" opacity="0.2512803713328392" rx="1"/><rect x="1640.0305312991238" y="706.7875146998064" width="4.471379388233502" height="7.95054319266941" fill="#457b9d" opacity="0.31894465659720467" rx="1"/><rect x="1629.7500481394727" y="710.762786296141" width="4.471379388233502" height="7.95054319266941" fill="#e63946" opacity="0.15947232829860233" rx="1"/><rect x="1640.1422743730602" y="746.2782317385493" width="4.2478932403605185" height="9.798510106233532" fill="#457b9d" opacity="0.4825545755407201" rx="1"/><rect x="1629.861791213409" y="751.1774867916661" width="4.2478932403605185" height="9.798510106233532" fill="#e63946" opacity="0.24127728777036006" rx="1"/><rect x="1637.2936028988343" y="785.7689487772922" width="9.94523618881247" height="8.654224725126806" fill="#457b9d" opacity="0.5587289565146736" rx="1"/><rect x="1627.0131197391831" y="790.0960611398556" width="9.94523618881247" height="8.654224725126806" fill="#e63946" opacity="0.2793644782573368" rx="1"/><rect x="1639.9461493248018" y="825.2596658160351" width="4.64014333687726" height="7.095561652699383" fill="#457b9d" opacity="0.3073812523641114" rx="1"/><rect x="1629.6656661651507" y="828.8074466423848" width="4.64014333687726" height="7.095561652699383" fill="#e63946" opacity="0.1536906261820557" rx="1"/><rect x="1733.886086634211" y="664.8666845203533" width="57.6585898845593" height="189.88369833442468" fill="#1d3557" opacity="0.4240800286932104" rx="2"/><rect x="1759.989707035586" y="674.8666845203533" width="5.4513490818094805" height="7.8791449055725575" fill="#457b9d" opacity="0.10007557263599606" rx="1"/><rect x="1745.5750595644463" y="678.8062569731395" width="5.4513490818094805" height="7.8791449055725575" fill="#e63946" opacity="0.05003778631799803" rx="1"/><rect x="1759.1769674405573" y="698.6021468121563" width="7.076828271866969" height="6.11420304982788" fill="#457b9d" opacity="0.42215164190208343" rx="1"/><rect x="1744.7623199694176" y="701.6592483370703" width="7.076828271866969" height="6.11420304982788" fill="#e63946" opacity="0.21107582095104171" rx="1"/><rect x="1760.301769041171" y="722.3376091039594" width="4.827225070639333" height="9.010909771316431" fill="#457b9d" opacity="0.4399430192867161" rx="1"/><rect x="1745.8871215700312" y="726.8430639896176" width="4.827225070639333" height="9.010909771316431" fill="#e63946" opacity="0.21997150964335804" rx="1"/><rect x="1758.5481852770367" y="746.0730713957626" width="8.334392598908021" height="8.79714813334801" fill="#457b9d" opacity="0.24268624925582816" rx="1"/><rect x="1744.133537805897" y="750.4716454624365" width="8.334392598908021" height="8.79714813334801" fill="#e63946" opacity="0.12134312462791408" rx="1"/><rect x="1760.3990258506667" y="769.8085336875656" width="4.632711451647969" height="7.116241980603952" fill="#457b9d" opacity="0.2944815667100441" rx="1"/><rect x="1745.984378379527" y="773.3666546778676" width="4.632711451647969" height="7.116241980603952" fill="#e63946" opacity="0.14724078335502205" rx="1"/><rect x="1760.0063156249187" y="793.5439959793687" width="5.418131903144096" height="8.102494754386715" fill="#457b9d" opacity="0.5850521933951071" rx="1"/><rect x="1745.591668153779" y="797.595243356562" width="5.418131903144096" height="8.102494754386715" fill="#e63946" opacity="0.29252609669755353" rx="1"/><rect x="1759.8331304384178" y="817.2794582711717" width="5.76450227614597" height="8.586465650840305" fill="#457b9d" opacity="0.3912588576533037" rx="1"/><rect x="1745.4184829672781" y="821.5726910965919" width="5.76450227614597" height="8.586465650840305" fill="#e63946" opacity="0.19562942882665185" rx="1"/><rect x="1760.585343973492" y="841.0149205629748" width="4.260075205997581" height="8.411297979394742" fill="#457b9d" opacity="0.36350002951535865" rx="1"/><rect x="1746.1706965023523" y="845.2205695526721" width="4.260075205997581" height="8.411297979394742" fill="#e63946" opacity="0.18175001475767932" rx="1"/><rect x="1842.6816409820267" y="616.0617135153296" width="81.01166400849159" height="238.68866933944835" fill="#1d3557" opacity="0.5594942579650074" rx="2"/><rect x="1878.0444529628803" y="626.0617135153296" width="10.28604004678457" height="9.398726521851199" fill="#457b9d" opacity="0.5268542040201961" rx="1"/><rect x="1857.7915369607574" y="630.7610767762552" width="10.28604004678457" height="9.398726521851199" fill="#e63946" opacity="0.26342710201009806" rx="1"/><rect x="1880.8168931614034" y="705.6246032951458" width="4.74115964973838" height="6.645790860207237" fill="#457b9d" opacity="0.4923492341750183" rx="1"/><rect x="1860.5639771592805" y="708.9474987252494" width="4.74115964973838" height="6.645790860207237" fill="#e63946" opacity="0.24617461708750915" rx="1"/><rect x="1878.0149660021418" y="785.1874930749618" width="10.345013968261195" height="9.77689395932874" fill="#457b9d" opacity="0.5054485689628517" rx="1"/><rect x="1857.762050000019" y="790.0759400546262" width="10.345013968261195" height="9.77689395932874" fill="#e63946" opacity="0.25272428448142586" rx="1"/><path d="M979.975577522995 808.8991333052746 Q998.8991985979723 748.9522651766781 1002.6839228129677 689.0053970480816" stroke="#00000a" stroke-width="7.1123122617398185" fill="none" stroke-linecap="round"/><path d="M1002.6839228129677 689.0053970480816 Q1024.0516794759435 669.0053970480816 1038.5895923926937 689.0053970480816" stroke="#000224" stroke-width="2.0105440388458184" fill="none" stroke-linecap="round" opacity="0.6"/><path d="M1002.6839228129677 689.0053970480816 Q1031.1350855269577 676.7631484745539 1043.9279249474755 704.5208999010262" stroke="#000224" stroke-width="3.493772553627792" fill="none" stroke-linecap="round" opacity="0.6"/><path d="M1002.6839228129677 689.0053970480816 Q1006.0167608088713 674.1758714685691 994.8164091731178 699.3463458890567" stroke="#000224" stroke-width="3.3416207324111884" fill="none" stroke-linecap="round" opacity="0.6"/><path d="M1002.6839228129677 689.0053970480816 Q1006.1374524343996 671.1130118443579 973.5072080116337 693.2206266406341" stroke="#000224" stroke-width="3.339776806845278" fill="none" stroke-linecap="round" opacity="0.6"/><path d="M1002.6839228129677 689.0053970480816 Q989.307291631745 664.8846362044733 945.6382690668996 680.7638753608649" stroke="#000224" stroke-width="3.220187447783581" fill="none" stroke-linecap="round" opacity="0.6"/><path d="M1002.6839228129677 689.0053970480816 Q1001.3253421826385 663.5129893205262 994.3265479962707 678.0205815929709" stroke="#000224" stroke-width="2.0271577085431565" fill="none" stroke-linecap="round" opacity="0.6"/><path d="M890.8610243189291 924.8557229584213 Q894.6128763059651 836.2867606247978 895.3632467033723 747.7177982911742" stroke="#00000a" stroke-width="5.065770891743194" fill="none" stroke-linecap="round"/><path d="M895.3632467033723 747.7177982911742 Q943.58184510483 727.7177982911742 972.1445565945806 747.7177982911742" stroke="#000224" stroke-width="3.7337289559034934" fill="none" stroke-linecap="round" opacity="0.6"/><path d="M895.3632467033723 747.7177982911742 Q924.840420911769 735.5292204292831 936.8925885998308 763.340642567392" stroke="#000224" stroke-width="3.992941745555248" fill="none" stroke-linecap="round" opacity="0.6"/><path d="M895.3632467033723 747.7177982911742 Q907.0012729383584 736.7421468670275 881.6315888829685 765.7664954428809" stroke="#000224" stroke-width="2.267643177478491" fill="none" stroke-linecap="round" opacity="0.6"/><path d="M895.3632467033723 747.7177982911742 Q883.1267143517861 730.9109711523952 851.1586349081749 754.1041440136163" stroke="#000224" stroke-width="2.2783457977414003" fill="none" stroke-linecap="round" opacity="0.6"/><path d="M895.3632467033723 747.7177982911742 Q874.6893474683432 724.6256856484147 852.5576596146931 741.5335730056553" stroke="#000224" stroke-width="3.8074165484419598" fill="none" stroke-linecap="round" opacity="0.6"/><path d="M895.3632467033723 747.7177982911742 Q906.6462562909135 719.8461830778647 883.3856146677182 731.9745678645553" stroke="#000224" stroke-width="2.6919232976371243" fill="none" stroke-linecap="round" opacity="0.6"/><path d="M895.3632467033723 747.7177982911742 Q923.5442269695168 718.4863031579741 944.4423914255351 729.2548080247742" stroke="#000224" stroke-width="2.0117994979982727" fill="none" stroke-linecap="round" opacity="0.6"/><path d="M982.4151852034067 896.8714267939496 Q962.4937245954046 792.8575595707767 958.5094324738042 688.8436923476038" stroke="#00000a" stroke-width="6.679520656047277" fill="none" stroke-linecap="round"/><path d="M958.5094324738042 688.8436923476038 Q1002.6038366664675 668.8436923476038 1009.82734165942 688.8436923476038" stroke="#000224" stroke-width="2.480026977248496" fill="none" stroke-linecap="round" opacity="0.6"/><path d="M958.5094324738042 688.8436923476038 Q981.579052128898 676.5793300328316 999.635867140505 704.3149677180596" stroke="#000224" stroke-width="2.2236770736574374" fill="none" stroke-linecap="round" opacity="0.6"/><path d="M958.5094324738042 688.8436923476038 Q969.4124693233183 675.3174114224196 948.6588715813926 701.7911304972353" stroke="#000224" stroke-width="3.057654370800046" fill="none" stroke-linecap="round" opacity="0.6"/><path d="M958.5094324738042 688.8436923476038 Q929.4299629139863 673.50193239296 894.023198310121 698.1601724383164" stroke="#000224" stroke-width="3.645373177166417" fill="none" stroke-linecap="round" opacity="0.6"/><path d="M958.5094324738042 688.8436923476038 Q945.7758215843501 664.3047258587371 895.6743589240945 679.7657593698705" stroke="#000224" stroke-width="3.9937343504265264" fill="none" stroke-linecap="round" opacity="0.6"/><rect x="0" y="1000" width="1920" height="80" fill="#000f31" opacity="0.8"/><line x1="0" y1="1040" x2="1920" y2="1040" stroke="#457b9d" stroke-opacity="0.15" stroke-width="2" stroke-dasharray="30,20"/><rect x="0" y="930" width="1920" height="150" fill="url(#glow2)"/><text x="1900" y="1060" font-family="Arial, sans-serif" font-size="11" fill="#fff" opacity="0.08" text-anchor="end" letter-spacing="2">GTA 6 REWARDS · WALLPAPER 003</text>
</svg>