<?xml version="1.0" encoding="UTF-8"?>
<svg xmlns="http://www.w3.org/2000/svg" width="1920" height="1080" viewBox="0 0 1920 1080">
<defs>
    <linearGradient id="bg5" x1="0%" y1="0%" x2="0%" y2="100%">
      <stop offset="0%" stop-color="#10002b"/>
      <stop offset="50%" stop-color="#000000"/>
      <stop offset="100%" stop-color="#10002b"/>
    </linearGradient>
    <linearGradient id="sun5" x1="0%" y1="0%" x2="100%" y2="100%">
      <stop offset="0%" stop-color="#7b2cbf"/>
      <stop offset="100%" stop-color="#c77dff"/>
    </linearGradient>
    <radialGradient id="glow5" cx="50%" cy="70%" r="50%">
      <stop offset="0%" stop-color="#7b2cbf" stop-opacity="0.3"/>
      <stop offset="100%" stop-color="#10002b" stop-opacity="0"/>
    </radialGradient>
  </defs><rect width="1920" height="1080" fill="url(#bg5)"/><circle cx="1227.2919281682214" cy="287.9052041303146" r="786.9536467098989" fill="#7b2cbf" opacity="0.05851372012601088"/><circle cx="1427.2919281682214" cy="187.9052041303146" r="518.4329880677241" fill="#c77dff" opacity="0.10760817966833902"/><circle cx="1386.7458005172075" cy="218.82869172115545" r="78.32416850568823" fill="url(#sun5)" opacity="0.8339590243608594"/><circle cx="1386.7458005172075" cy="218.82869172115545" r="73.32416850568823" fill="#10002b" opacity="0.3"/><pattern id="scan5" width="1920" height="4" patternUnits="userSpaceOnUse">
      <line x1="0" y1="0" x2="1920" y2="0" stroke="#000" stroke-opacity="0.05" stroke-width="1"/>
    </pattern>
    <rect width="1920" height="1080" fill="url(#scan5)"/><rect x="13.962042244142397" y="628.9618519784328" width="48.027304294059824" height="348.9649349471938" fill="#000011" opacity="0.6265891510589489" rx="2"/><rect x="34.961381997904134" y="638.9618519784328" width="6.028624786536355" height="6.07607346122993" fill="#c77dff" opacity="0.4967541230136422" rx="1"/><rect x="22.954555924389176" y="641.9998887090478" width="6.028624786536355" height="6.07607346122993" fill="#7b2cbf" opacity="0.2483770615068211" rx="1"/><rect x="35.14254453595321" y="688.8139855423177" width="5.6662997104381905" height="7.090477253564279" fill="#c77dff" opacity="0.16163096312937117" rx="1"/><rect x="23.13571846243826" y="692.3592241690999" width="5.6662997104381905" height="7.090477253564279" fill="#7b2cbf" opacity="0.08081548156468558" rx="1"/><rect x="34.09538387020477" y="738.6661191062025" width="7.760621041935082" height="9.966573555946018" fill="#c77dff" opacity="0.2227362536878177" rx="1"/><rect x="22.088557796689813" y="743.6494058841755" width="7.760621041935082" height="9.966573555946018" fill="#7b2cbf" opacity="0.11136812684390884" rx="1"/><rect x="35.651914901251885" y="788.5182526700873" width="4.647558979840847" height="9.394372377403633" fill="#c77dff" opacity="0.2585121204048656" rx="1"/><rect x="23.64508882773693" y="793.2154388587892" width="4.647558979840847" height="9.394372377403633" fill="#7b2cbf" opacity="0.1292560602024328" rx="1"/><rect x="34.34544626421888" y="838.3703862339721" width="7.260496253906865" height="9.942949566045531" fill="#c77dff" opacity="0.23598794050886948" rx="1"/><rect x="22.33862019070392" y="843.3418610169949" width="7.260496253906865" height="9.942949566045531" fill="#7b2cbf" opacity="0.11799397025443474" rx="1"/><rect x="34.43128465754709" y="888.222519797857" width="7.088819467250449" height="6.869034657457153" fill="#c77dff" opacity="0.5346121944102021" rx="1"/><rect x="22.42445858403213" y="891.6570371265856" width="7.088819467250449" height="6.869034657457153" fill="#7b2cbf" opacity="0.26730609720510107" rx="1"/><rect x="33.086248658151895" y="938.0746533617419" width="9.778891466040838" height="9.51524986687937" fill="#c77dff" opacity="0.3557764542884604" rx="1"/><rect x="21.079422584636934" y="942.8322782951816" width="9.778891466040838" height="9.51524986687937" fill="#7b2cbf" opacity="0.1778882271442302" rx="1"/><rect x="115.58063006956742" y="856.0379436253659" width="68.94934021377688" height="121.8888433002608" fill="#10002b" opacity="0.5732857023769258" rx="2"/><rect x="144.93975785892115" y="866.0379436253659" width="10.23108463506938" height="8.437672398620673" fill="#c77dff" opacity="0.10406345189643638" rx="1"/><rect x="127.70242280547696" y="870.2567798246762" width="10.23108463506938" height="8.437672398620673" fill="#7b2cbf" opacity="0.05203172594821819" rx="1"/><rect x="144.3272590091482" y="896.5101544504311" width="11.45608233461531" height="7.366077188720479" fill="#c77dff" opacity="0.2750547200616111" rx="1"/><rect x="127.089923955704" y="900.1931930447913" width="11.45608233461531" height="7.366077188720479" fill="#7b2cbf" opacity="0.13752736003080554" rx="1"/><rect x="144.5568903847231" y="926.9823652754962" width="10.996819583465536" height="6.996780237415056" fill="#c77dff" opacity="0.18761013953192396" rx="1"/><rect x="127.31955533127888" y="930.4807553942038" width="10.996819583465536" height="6.996780237415056" fill="#7b2cbf" opacity="0.09380506976596198" rx="1"/><rect x="144.72063638316612" y="957.4545761005614" width="10.669327586579445" height="7.115562274380485" fill="#c77dff" opacity="0.5991432783424723" rx="1"/><rect x="127.48330132972193" y="961.0123572377516" width="10.669327586579445" height="7.115562274380485" fill="#7b2cbf" opacity="0.29957163917123614" rx="1"/><rect x="183.2689084186778" y="670.375021924352" width="51.063732607537816" height="307.5517650012746" fill="#000011" opacity="0.5982275539539353" rx="2"/><rect x="206.48102719524232" y="680.375021924352" width="4.6394950544087905" height="8.939839236191435" fill="#c77dff" opacity="0.362362026204905" rx="1"/><rect x="193.71509404335788" y="684.8449415424477" width="4.6394950544087905" height="8.939839236191435" fill="#7b2cbf" opacity="0.1811810131024525" rx="1"/><rect x="205.78702841404785" y="782.8922769247769" width="6.027492616797679" height="9.720162041420155" fill="#c77dff" opacity="0.12476475516445115" rx="1"/><rect x="193.0210952621634" y="787.7523579454869" width="6.027492616797679" height="9.720162041420155" fill="#7b2cbf" opacity="0.062382377582225576" rx="1"/><rect x="203.86193395811907" y="885.4095319252018" width="9.877681528655273" height="9.815495212519423" fill="#c77dff" opacity="0.24261188815408663" rx="1"/><rect x="191.09600080623463" y="890.3172795314615" width="9.877681528655273" height="9.815495212519423" fill="#7b2cbf" opacity="0.12130594407704332" rx="1"/><rect x="290.2808322811355" y="643.8820608877302" width="81.39055900075253" height="334.0447260378964" fill="#10002b" opacity="0.686945629629061" rx="2"/><rect x="326.8153860971035" y="653.8820608877302" width="8.321451368816536" height="6.4396163049246224" fill="#c77dff" opacity="0.2470242027768456" rx="1"/><rect x="306.46774634691536" y="657.1018690401925" width="8.321451368816536" height="6.4396163049246224" fill="#7b2cbf" opacity="0.1235121013884228" rx="1"/><rect x="326.85828281117494" y="701.602736036001" width="8.235657940673562" height="6.620004915776664" fill="#c77dff" opacity="0.22605476463820198" rx="1"/><rect x="306.5106430609868" y="704.9127384938894" width="8.235657940673562" height="6.620004915776664" fill="#7b2cbf" opacity="0.11302738231910099" rx="1"/><rect x="325.90866253053906" y="749.323411184272" width="10.134898501945404" height="6.554309563840346" fill="#c77dff" opacity="0.14002648348455005" rx="1"/><rect x="305.5610227803509" y="752.6005659661922" width="10.134898501945404" height="6.554309563840346" fill="#7b2cbf" opacity="0.07001324174227502" rx="1"/><rect x="327.66933766601755" y="797.044086332543" width="6.613548230988334" height="9.22249163948523" fill="#c77dff" opacity="0.42158148680384777" rx="1"/><rect x="307.3216979158294" y="801.6553321522856" width="6.613548230988334" height="9.22249163948523" fill="#7b2cbf" opacity="0.21079074340192389" rx="1"/><rect x="327.3259815567134" y="844.7647614808138" width="7.300260449596742" height="6.390412326993051" fill="#c77dff" opacity="0.245257031113202" rx="1"/><rect x="306.97834180652524" y="847.9599676443104" width="7.300260449596742" height="6.390412326993051" fill="#7b2cbf" opacity="0.122628515556601" rx="1"/><rect x="325.1484644894967" y="892.4854366290847" width="11.655294584030122" height="7.305820123596541" fill="#c77dff" opacity="0.4513897113388846" rx="1"/><rect x="304.80082473930855" y="896.1383466908829" width="11.655294584030122" height="7.305820123596541" fill="#7b2cbf" opacity="0.2256948556694423" rx="1"/><rect x="325.999502307702" y="940.2061117773557" width="9.953218947619483" height="6.408852887435083" fill="#c77dff" opacity="0.49175333126721754" rx="1"/><rect x="305.6518625575139" y="943.4105382210732" width="9.953218947619483" height="6.408852887435083" fill="#7b2cbf" opacity="0.24587666563360877" rx="1"/><rect x="393.6658201601376" y="864.5093393313022" width="66.34330980394579" height="113.41744759432447" fill="#000011" opacity="0.5208938530694912" rx="2"/><rect x="423.1522700603341" y="874.5093393313022" width="7.370410003552775" height="9.67121623448823" fill="#c77dff" opacity="0.2556342122274531" rx="1"/><rect x="406.5664426093477" y="879.3449474485462" width="7.370410003552775" height="9.67121623448823" fill="#7b2cbf" opacity="0.12781710611372654" rx="1"/><rect x="421.7702276361904" y="912.315155196077" width="10.134494851840309" height="6.208056351218386" fill="#c77dff" opacity="0.5082107100189223" rx="1"/><rect x="405.18440018520397" y="915.4191833716861" width="10.134494851840309" height="6.208056351218386" fill="#7b2cbf" opacity="0.25410535500946113" rx="1"/><rect x="424.4348479925137" y="950.1209710608518" width="4.805254139193625" height="8.047773070178874" fill="#c77dff" opacity="0.5134298069201013" rx="1"/><rect x="407.8490205415273" y="954.1448575959413" width="4.805254139193625" height="8.047773070178874" fill="#7b2cbf" opacity="0.25671490346005066" rx="1"/><rect x="463.4345550357511" y="867.6546403247991" width="65.78889745189551" height="110.27214660082761" fill="#000011" opacity="0.5990335666339457" rx="2"/><rect x="491.60378828785207" y="877.6546403247991" width="9.450430947693631" height="6.959339207261647" fill="#c77dff" opacity="0.22665605710974338" rx="1"/><rect x="475.1565639248782" y="881.1343099284298" width="9.450430947693631" height="6.959339207261647" fill="#7b2cbf" opacity="0.11332802855487169" rx="1"/><rect x="490.3903263436674" y="905.2226769750059" width="11.877354836062842" height="8.572508829313449" fill="#c77dff" opacity="0.3264567893525718" rx="1"/><rect x="473.94310198069354" y="909.5089313896626" width="11.877354836062842" height="8.572508829313449" fill="#7b2cbf" opacity="0.1632283946762859" rx="1"/><rect x="491.3598306341535" y="932.7907136252129" width="9.938346255090634" height="6.154697395897167" fill="#c77dff" opacity="0.4092224479907245" rx="1"/><rect x="474.91260627117964" y="935.8680623231614" width="9.938346255090634" height="6.154697395897167" fill="#7b2cbf" opacity="0.20461122399536225" rx="1"/><rect x="491.70634262406617" y="960.3587502754198" width="9.245322275265428" height="6.077306466195105" fill="#c77dff" opacity="0.17232671279281536" rx="1"/><rect x="475.2591182610923" y="963.3974035085173" width="9.245322275265428" height="6.077306466195105" fill="#7b2cbf" opacity="0.08616335639640768" rx="1"/><rect x="558.580401294002" y="705.2128252701864" width="50.094633377179186" height="272.71396165544024" fill="#10002b" opacity="0.5780465720403116" rx="2"/><rect x="578.5341678120308" y="715.2128252701864" width="10.187100341121457" height="7.133734732198933" fill="#c77dff" opacity="0.13188088804760037" rx="1"/><rect x="566.0105094677359" y="718.7796926362859" width="10.187100341121457" height="7.133734732198933" fill="#7b2cbf" opacity="0.06594044402380018" rx="1"/><rect x="580.9474970683599" y="749.3020704771164" width="5.36044182846333" height="6.166319574268144" fill="#c77dff" opacity="0.21351625798584806" rx="1"/><rect x="568.423838724065" y="752.3852302642505" width="5.36044182846333" height="6.166319574268144" fill="#7b2cbf" opacity="0.10675812899292403" rx="1"/><rect x="578.064034226066" y="783.3913156840465" width="11.127367513051109" height="7.808085013601949" fill="#c77dff" opacity="0.12108262759192909" rx="1"/><rect x="565.5403758817712" y="787.2953581908474" width="11.127367513051109" height="7.808085013601949" fill="#7b2cbf" opacity="0.060541313795964544" rx="1"/><rect x="578.5188437996509" y="817.4805608909764" width="10.217748365881327" height="8.344879177013617" fill="#c77dff" opacity="0.24304025032162674" rx="1"/><rect x="565.995185455356" y="821.6530004794832" width="10.217748365881327" height="8.344879177013617" fill="#7b2cbf" opacity="0.12152012516081337" rx="1"/><rect x="578.0504672049462" y="851.5698060979065" width="11.154501555290656" height="9.098265443718589" fill="#c77dff" opacity="0.5851710286422566" rx="1"/><rect x="565.5268088606514" y="856.1189388197658" width="11.154501555290656" height="9.098265443718589" fill="#7b2cbf" opacity="0.2925855143211283" rx="1"/><rect x="580.8954478608466" y="885.6590513048366" width="5.464540243489793" height="7.089558120139306" fill="#c77dff" opacity="0.5024883677257431" rx="1"/><rect x="568.3717895165518" y="889.2038303649063" width="5.464540243489793" height="7.089558120139306" fill="#7b2cbf" opacity="0.25124418386287156" rx="1"/><rect x="580.5312122984894" y="919.7482965117665" width="6.193011368204144" height="7.174927695927892" fill="#c77dff" opacity="0.4829072430690069" rx="1"/><rect x="568.0075539541946" y="923.3357603597304" width="6.193011368204144" height="7.174927695927892" fill="#7b2cbf" opacity="0.24145362153450345" rx="1"/><rect x="581.6120351260356" y="953.8375417186966" width="4.031365713111908" height="8.633327711055365" fill="#c77dff" opacity="0.36517221849997816" rx="1"/><rect x="569.0883767817407" y="958.1542055742243" width="4.031365713111908" height="8.633327711055365" fill="#7b2cbf" opacity="0.18258610924998908" rx="1"/><rect x="648.1186863100432" y="698.3444589768407" width="44.589521580978655" height="279.582327948786" fill="#10002b" opacity="0.5692908369631718" rx="2"/><rect x="665.7282304979694" y="708.3444589768407" width="9.370433205126421" height="7.704896981293544" fill="#c77dff" opacity="0.38447239002782674" rx="1"/><rect x="654.5808501027248" y="712.1969074674874" width="9.370433205126421" height="7.704896981293544" fill="#7b2cbf" opacity="0.19223619501391337" rx="1"/><rect x="667.6164507881311" y="754.9415136349717" width="5.593992624802979" height="6.4256096092112385" fill="#c77dff" opacity="0.285817020290023" rx="1"/><rect x="656.4690703928865" y="758.1543184395773" width="5.593992624802979" height="6.4256096092112385" fill="#7b2cbf" opacity="0.1429085101450115" rx="1"/><rect x="666.4291658265118" y="801.5385682931027" width="7.968562548041475" height="6.2515599467446" fill="#c77dff" opacity="0.4045234819419038" rx="1"/><rect x="655.2817854312672" y="804.664348266475" width="7.968562548041475" height="6.2515599467446" fill="#7b2cbf" opacity="0.2022617409709519" rx="1"/><rect x="666.5969524657347" y="848.1356229512337" width="7.632989269595823" height="7.860899555930146" fill="#c77dff" opacity="0.2920468331528937" rx="1"/><rect x="655.44957207049" y="852.0660727291988" width="7.632989269595823" height="7.860899555930146" fill="#7b2cbf" opacity="0.14602341657644685" rx="1"/><rect x="666.4114539673113" y="894.7326776093646" width="8.00398626644257" height="7.429203850549926" fill="#c77dff" opacity="0.22617993346093687" rx="1"/><rect x="655.2640735720666" y="898.4472795346396" width="8.00398626644257" height="7.429203850549926" fill="#7b2cbf" opacity="0.11308996673046844" rx="1"/><rect x="666.673628199304" y="941.3297322674956" width="7.479637802457352" height="8.105019639736279" fill="#c77dff" opacity="0.43057392885223356" rx="1"/><rect x="655.5262478040593" y="945.3822420873638" width="7.479637802457352" height="8.105019639736279" fill="#7b2cbf" opacity="0.21528696442611678" rx="1"/><rect x="742.1940633902511" y="660.9246559000865" width="44.713747868014906" height="317.00213102554017" fill="#000011" opacity="0.5099738843995085" rx="2"/><rect x="762.0317103921709" y="670.9246559000865" width="5.038453864175466" height="6.546154692896212" fill="#c77dff" opacity="0.596143969240632" rx="1"/><rect x="750.8532734251671" y="674.1977332465345" width="5.038453864175466" height="6.546154692896212" fill="#7b2cbf" opacity="0.298071984620316" rx="1"/><rect x="762.2279184082321" y="716.2106746180208" width="4.646037832052921" height="8.067986882773225" fill="#c77dff" opacity="0.2958232125490492" rx="1"/><rect x="751.0494814412283" y="720.2446680594074" width="4.646037832052921" height="8.067986882773225" fill="#7b2cbf" opacity="0.1479116062745246" rx="1"/><rect x="762.0177409456352" y="761.4966933359551" width="5.0663927572468275" height="6.834689025961489" fill="#c77dff" opacity="0.5916288668735952" rx="1"/><rect x="750.8393039786314" y="764.9140378489359" width="5.0663927572468275" height="6.834689025961489" fill="#7b2cbf" opacity="0.2958144334367976" rx="1"/><rect x="760.9800765235595" y="806.7827120538893" width="7.141721601398132" height="6.123130124090968" fill="#c77dff" opacity="0.4066108555781215" rx="1"/><rect x="749.8016395565558" y="809.8442771159348" width="7.141721601398132" height="6.123130124090968" fill="#7b2cbf" opacity="0.20330542778906074" rx="1"/><rect x="759.8012984597792" y="852.0687307718238" width="9.49927772895882" height="9.072781253390197" fill="#c77dff" opacity="0.35914096791742856" rx="1"/><rect x="748.6228614927754" y="856.6051213985189" width="9.49927772895882" height="9.072781253390197" fill="#7b2cbf" opacity="0.17957048395871428" rx="1"/><rect x="761.645211652138" y="897.354749489758" width="5.81145134424126" height="6.752840903762924" fill="#c77dff" opacity="0.5328593520756949" rx="1"/><rect x="750.4667746851342" y="900.7311699416395" width="5.81145134424126" height="6.752840903762924" fill="#7b2cbf" opacity="0.26642967603784745" rx="1"/><rect x="758.7144458484836" y="942.6407682076923" width="11.672982951550042" height="8.031829179737677" fill="#c77dff" opacity="0.1531377209241357" rx="1"/><rect x="747.5360088814798" y="946.6566827975612" width="11.672982951550042" height="8.031829179737677" fill="#7b2cbf" opacity="0.07656886046206784" rx="1"/><rect x="843.2502005067238" y="805.0082811282501" width="59.673884741420366" height="172.9185057973765" fill="#000011" opacity="0.5460240947655458" rx="2"/><rect x="869.0121634850705" y="815.0082811282501" width="8.149958784726905" height="6.726700656285207" fill="#c77dff" opacity="0.21583944808594868" rx="1"/><rect x="854.0936922997154" y="818.3716314563927" width="8.149958784726905" height="6.726700656285207" fill="#7b2cbf" opacity="0.10791972404297434" rx="1"/><rect x="867.2670946253553" y="836.6230943529222" width="11.64009650415743" height="6.812768463234596" fill="#c77dff" opacity="0.4942414143574986" rx="1"/><rect x="852.3486234400002" y="840.0294785845394" width="11.64009650415743" height="6.812768463234596" fill="#7b2cbf" opacity="0.2471207071787493" rx="1"/><rect x="868.183940755612" y="858.2379075775942" width="9.806404243643955" height="8.375738350296333" fill="#c77dff" opacity="0.10262748787706427" rx="1"/><rect x="853.2654695702569" y="862.4257767527424" width="9.806404243643955" height="8.375738350296333" fill="#7b2cbf" opacity="0.051313743938532136" rx="1"/><rect x="869.3583660402636" y="879.8527208022663" width="7.45755367434061" height="9.68456376243489" fill="#c77dff" opacity="0.10068510638100214" rx="1"/><rect x="854.4398948549085" y="884.6950026834837" width="7.45755367434061" height="9.68456376243489" fill="#7b2cbf" opacity="0.05034255319050107" rx="1"/><rect x="868.0249259503549" y="901.4675340269384" width="10.124433854158138" height="7.985235607713749" fill="#c77dff" opacity="0.37818771993699196" rx="1"/><rect x="853.1064547649999" y="905.4601518307953" width="10.124433854158138" height="7.985235607713749" fill="#7b2cbf" opacity="0.18909385996849598" rx="1"/><rect x="869.3166522222775" y="923.0823472516105" width="7.540981310312865" height="7.274200898891827" fill="#c77dff" opacity="0.42840428113201734" rx="1"/><rect x="854.3981810369224" y="926.7194477010564" width="7.540981310312865" height="7.274200898891827" fill="#7b2cbf" opacity="0.21420214056600867" rx="1"/><rect x="867.6466259260703" y="944.6971604762825" width="10.881033902727308" height="7.077889482741684" fill="#c77dff" opacity="0.28104206984421287" rx="1"/><rect x="852.7281547407152" y="948.2361052176534" width="10.881033902727308" height="7.077889482741684" fill="#7b2cbf" opacity="0.14052103492210644" rx="1"/><rect x="871.0719533796988" y="966.3119737009546" width="4.0303789954703255" height="7.122776759118488" fill="#c77dff" opacity="0.5073507517826163" rx="1"/><rect x="856.1534821943437" y="969.8733620805139" width="4.0303789954703255" height="7.122776759118488" fill="#7b2cbf" opacity="0.2536753758913082" rx="1"/><rect x="929.1710469969613" y="604.5654868368445" width="81.18405695799368" height="373.3613000887822" fill="#10002b" opacity="0.5941621268852991" rx="2"/><rect x="967.3272662724331" y="614.5654868368445" width="4.871618407050059" height="8.01086215256035" fill="#c77dff" opacity="0.35467272772329694" rx="1"/><rect x="947.0312520329346" y="618.5709179131246" width="4.871618407050059" height="8.01086215256035" fill="#7b2cbf" opacity="0.17733636386164847" rx="1"/><rect x="965.6330271874299" y="739.0192535331051" width="8.260096577056707" height="8.532376003109938" fill="#c77dff" opacity="0.30875329983158817" rx="1"/><rect x="945.3370129479314" y="743.2854415346601" width="8.260096577056707" height="8.532376003109938" fill="#7b2cbf" opacity="0.15437664991579408" rx="1"/><rect x="967.7448958693077" y="863.4730202293659" width="4.036359213301064" height="8.24347446911118" fill="#c77dff" opacity="0.5922302656323254" rx="1"/><rect x="947.4488816298092" y="867.5947574639215" width="4.036359213301064" height="8.24347446911118" fill="#7b2cbf" opacity="0.2961151328161627" rx="1"/><rect x="1008.9018912208371" y="789.8561671003365" width="39.115643857306715" height="188.07061982529018" fill="#10002b" opacity="0.6801674098661559" rx="2"/><rect x="1024.6058335166306" y="799.8561671003365" width="7.707759265719857" height="6.08511101829007" fill="#c77dff" opacity="0.48073847346956344" rx="1"/><rect x="1014.8269225523038" y="802.8987226094815" width="7.707759265719857" height="6.08511101829007" fill="#7b2cbf" opacity="0.24036923673478172" rx="1"/><rect x="1025.1286593548189" y="823.3649945784978" width="6.6621075893431225" height="9.491615279459305" fill="#c77dff" opacity="0.4474296272842748" rx="1"/><rect x="1015.3497483904922" y="828.1108022182274" width="6.6621075893431225" height="9.491615279459305" fill="#7b2cbf" opacity="0.2237148136421374" rx="1"/><rect x="1026.2236513212245" y="846.873822056659" width="4.472123656531824" height="8.36272847334918" fill="#c77dff" opacity="0.5296156209729649" rx="1"/><rect x="1016.4447403568979" y="851.0551862933336" width="4.472123656531824" height="8.36272847334918" fill="#7b2cbf" opacity="0.26480781048648244" rx="1"/><rect x="1022.6020202708302" y="870.3826495348203" width="11.715385757320417" height="7.788136982775326" fill="#c77dff" opacity="0.13332734958579004" rx="1"/><rect x="1012.8231093065035" y="874.276718026208" width="11.715385757320417" height="7.788136982775326" fill="#7b2cbf" opacity="0.06666367479289502" rx="1"/><rect x="1023.6870891069598" y="893.8914770129816" width="9.54524808506138" height="8.295834380736537" fill="#c77dff" opacity="0.49474925070413134" rx="1"/><rect x="1013.9081781426331" y="898.0393942033498" width="9.54524808506138" height="8.295834380736537" fill="#7b2cbf" opacity="0.24737462535206567" rx="1"/><rect x="1025.6306884581627" y="917.4003044911428" width="5.6580493826554275" height="8.38828759323533" fill="#c77dff" opacity="0.28566556605176663" rx="1"/><rect x="1015.851777493836" y="921.5944482877605" width="5.6580493826554275" height="8.38828759323533" fill="#7b2cbf" opacity="0.14283278302588331" rx="1"/><rect x="1024.0055193379867" y="940.9091319693041" width="8.9083876230075" height="8.211228209131217" fill="#c77dff" opacity="0.2902421780839195" rx="1"/><rect x="1014.22660837366" y="945.0147460738697" width="8.9083876230075" height="8.211228209131217" fill="#7b2cbf" opacity="0.14512108904195975" rx="1"/><rect x="1025.838388236701" y="964.4179594474654" width="5.242649825579172" height="7.564721431947481" fill="#c77dff" opacity="0.29464384303303526" rx="1"/><rect x="1016.0594772723742" y="968.2003201634391" width="5.242649825579172" height="7.564721431947481" fill="#7b2cbf" opacity="0.14732192151651763" rx="1"/><rect x="1103.0996529442557" y="782.3469235637101" width="49.453386394179745" height="195.57986336191647" fill="#10002b" opacity="0.5391274317258801" rx="2"/><rect x="1124.876690262767" y="792.3469235637101" width="5.899311757157396" height="8.76844463468726" fill="#c77dff" opacity="0.24532338656609026" rx="1"/><rect x="1112.513343664222" y="796.7311458810537" width="5.899311757157396" height="8.76844463468726" fill="#7b2cbf" opacity="0.12266169328304513" rx="1"/><rect x="1122.6122992627884" y="841.2418894041892" width="10.428093757114395" height="7.825420871802005" fill="#c77dff" opacity="0.15966259051572126" rx="1"/><rect x="1110.2489526642435" y="845.1545998400902" width="10.428093757114395" height="7.825420871802005" fill="#7b2cbf" opacity="0.07983129525786063" rx="1"/><rect x="1123.5035141049725" y="890.1368552446684" width="8.645664072745866" height="9.573313210991516" fill="#c77dff" opacity="0.1712528345340986" rx="1"/><rect x="1111.1401675064276" y="894.9235118501641" width="8.645664072745866" height="9.573313210991516" fill="#7b2cbf" opacity="0.0856264172670493" rx="1"/><rect x="1122.9306861807963" y="939.0318210851474" width="9.791319921098491" height="8.232731909079648" fill="#c77dff" opacity="0.46611726632484174" rx="1"/><rect x="1110.5673395822514" y="943.1481870396872" width="9.791319921098491" height="8.232731909079648" fill="#7b2cbf" opacity="0.23305863316242087" rx="1"/><rect x="1203.8451951950694" y="641.2824628621531" width="53.461403097831976" height="336.64432406347345" fill="#000011" opacity="0.46079116616416516" rx="2"/><rect x="1228.5563545006491" y="651.2824628621531" width="4.039084486672442" height="7.158402852983773" fill="#c77dff" opacity="0.5090773446739366" rx="1"/><rect x="1215.1910037261912" y="654.861664288645" width="4.039084486672442" height="7.158402852983773" fill="#7b2cbf" opacity="0.2545386723369683" rx="1"/><rect x="1226.8913290564915" y="763.4972375499776" width="7.369135374987762" height="8.620031953467995" fill="#c77dff" opacity="0.11602194772940641" rx="1"/><rect x="1213.5259782820335" y="767.8072535267116" width="7.369135374987762" height="8.620031953467995" fill="#7b2cbf" opacity="0.058010973864703205" rx="1"/><rect x="1225.285362839233" y="875.7120122378021" width="10.581067809504706" height="6.539297451390722" fill="#c77dff" opacity="0.39583096685722263" rx="1"/><rect x="1211.920012064775" y="878.9816609634975" width="10.581067809504706" height="6.539297451390722" fill="#7b2cbf" opacity="0.19791548342861132" rx="1"/><rect x="1296.3841646668463" y="826.3694838332872" width="54.10991784746524" height="151.5573030923394" fill="#000011" opacity="0.61416773284184" rx="2"/><rect x="1318.9274519453586" y="836.3694838332872" width="9.023343290440586" height="7.337459737746385" fill="#c77dff" opacity="0.26375063538172994" rx="1"/><rect x="1305.3999724834923" y="840.0382137021604" width="9.023343290440586" height="7.337459737746385" fill="#7b2cbf" opacity="0.13187531769086497" rx="1"/><rect x="1320.4629417982562" y="866.6809444517551" width="5.952363584645177" height="7.5981088461349975" fill="#c77dff" opacity="0.5431916894258912" rx="1"/><rect x="1306.93546233639" y="870.4799988748225" width="5.952363584645177" height="7.5981088461349975" fill="#7b2cbf" opacity="0.2715958447129456" rx="1"/><rect x="1318.409434490234" y="896.992405070223" width="10.059378200690118" height="7.766495119260274" fill="#c77dff" opacity="0.4130309321715103" rx="1"/><rect x="1304.8819550283677" y="900.8756526298531" width="10.059378200690118" height="7.766495119260274" fill="#7b2cbf" opacity="0.20651546608575516" rx="1"/><rect x="1317.9589501956846" y="927.3038656886908" width="10.960346789788534" height="7.028888118692881" fill="#c77dff" opacity="0.28855702776661074" rx="1"/><rect x="1304.4314707338183" y="930.8183097480373" width="10.960346789788534" height="7.028888118692881" fill="#7b2cbf" opacity="0.14427851388330537" rx="1"/><rect x="1319.1292627840603" y="957.6153263071587" width="8.619721613037335" height="6.068443999641678" fill="#c77dff" opacity="0.3854921110639098" rx="1"/><rect x="1305.601783322194" y="960.6495483069796" width="8.619721613037335" height="6.068443999641678" fill="#7b2cbf" opacity="0.1927460555319549" rx="1"/><rect x="1371.5374629958123" y="642.8838385950969" width="32.92076418244298" height="335.0429483305297" fill="#10002b" opacity="0.5145115284050144" rx="2"/><rect x="1382.5145547016991" y="652.8838385950969" width="10.966580770669175" height="6.941123304176406" fill="#c77dff" opacity="0.20735242956023486" rx="1"/><rect x="1374.2843636560885" y="656.3544002471851" width="10.966580770669175" height="6.941123304176406" fill="#7b2cbf" opacity="0.10367621478011743" rx="1"/><rect x="1383.50065004192" y="719.8924282612029" width="8.994390090227682" height="7.075222203758364" fill="#c77dff" opacity="0.45635546312116915" rx="1"/><rect x="1375.2704589963093" y="723.4300393630821" width="8.994390090227682" height="7.075222203758364" fill="#7b2cbf" opacity="0.22817773156058457" rx="1"/><rect x="1384.5681859668937" y="786.9010179273088" width="6.859318240280104" height="6.2355255261611955" fill="#c77dff" opacity="0.5836392141840512" rx="1"/><rect x="1376.337994921283" y="790.0187806903893" width="6.859318240280104" height="6.2355255261611955" fill="#7b2cbf" opacity="0.2918196070920256" rx="1"/><rect x="1383.382942232459" y="853.9096075934148" width="9.229805709149177" height="9.152358180645937" fill="#c77dff" opacity="0.49041078041550024" rx="1"/><rect x="1375.1527511868485" y="858.4857866837377" width="9.229805709149177" height="9.152358180645937" fill="#7b2cbf" opacity="0.24520539020775012" rx="1"/><rect x="1383.9191453664575" y="920.9181972595206" width="8.157399441152204" height="8.04444140429712" fill="#c77dff" opacity="0.2831048169832455" rx="1"/><rect x="1375.688954320847" y="924.9404179616693" width="8.157399441152204" height="8.04444140429712" fill="#7b2cbf" opacity="0.14155240849162276" rx="1"/><rect x="1473.0228353202328" y="624.2411575452986" width="76.36535111497281" height="353.685629380328" fill="#10002b" opacity="0.4478589352098897" rx="2"/><rect x="1508.9623807236862" y="634.2411575452986" width="4.486260308065978" height="6.4343445525584615" fill="#c77dff" opacity="0.5156637452346421" rx="1"/><rect x="1489.8710429449432" y="637.4583298215779" width="4.486260308065978" height="6.4343445525584615" fill="#7b2cbf" opacity="0.25783187261732105" rx="1"/><rect x="1505.3326325572336" y="684.7676760282026" width="11.745756640971116" height="8.707215632942322" fill="#c77dff" opacity="0.3564708220903927" rx="1"/><rect x="1486.2412947784906" y="689.1212838446737" width="11.745756640971116" height="8.707215632942322" fill="#7b2cbf" opacity="0.17823541104519636" rx="1"/><rect x="1507.2761849511523" y="735.2941945111066" width="7.85865185313361" height="7.5470055075238935" fill="#c77dff" opacity="0.3703024019185226" rx="1"/><rect x="1488.1848471724093" y="739.0676972648686" width="7.85865185313361" height="7.5470055075238935" fill="#7b2cbf" opacity="0.1851512009592613" rx="1"/><rect x="1505.3437713065452" y="785.8207129940106" width="11.723479142348161" height="6.254455302901206" fill="#c77dff" opacity="0.17468707232612352" rx="1"/><rect x="1486.2524335278022" y="788.9479406454612" width="11.723479142348161" height="6.254455302901206" fill="#7b2cbf" opacity="0.08734353616306176" rx="1"/><rect x="1506.7815079792292" y="836.3472314769147" width="8.848005796980114" height="9.53825332120486" fill="#c77dff" opacity="0.19560604838086432" rx="1"/><rect x="1487.6901702004861" y="841.1163581375171" width="8.848005796980114" height="9.53825332120486" fill="#7b2cbf" opacity="0.09780302419043216" rx="1"/><rect x="1506.5022545242853" y="886.8737499598186" width="9.406512706868003" height="9.540537643139375" fill="#c77dff" opacity="0.1227258940047412" rx="1"/><rect x="1487.4109167455422" y="891.6440187813884" width="9.406512706868003" height="9.540537643139375" fill="#7b2cbf" opacity="0.0613629470023706" rx="1"/><rect x="1506.0134530336559" y="937.4002684427226" width="10.384115688126561" height="9.088792686138486" fill="#c77dff" opacity="0.5208088809207102" rx="1"/><rect x="1486.9221152549128" y="941.9446647857918" width="10.384115688126561" height="9.088792686138486" fill="#7b2cbf" opacity="0.2604044404603551" rx="1"/><rect x="1567.5253510289783" y="853.740988044008" width="46.422178609394976" height="124.18579888161872" fill="#000011" opacity="0.48789618124437895" rx="2"/><rect x="1585.7447758609433" y="863.740988044008" width="9.98332894546523" height="6.836860817120611" fill="#c77dff" opacity="0.51392456260834" rx="1"/><rect x="1574.1392312085945" y="867.1594184525683" width="9.98332894546523" height="6.836860817120611" fill="#7b2cbf" opacity="0.25696228130417" rx="1"/><rect x="1588.0181361976718" y="888.5781478203317" width="5.436608272007808" height="9.38231226228697" fill="#c77dff" opacity="0.5145804926321331" rx="1"/><rect x="1576.412591545323" y="893.2693039514751" width="5.436608272007808" height="9.38231226228697" fill="#7b2cbf" opacity="0.25729024631606656" rx="1"/><rect x="1586.9771571566428" y="913.4153075966555" width="7.5185663540658" height="6.975670409616006" fill="#c77dff" opacity="0.19218520824615498" rx="1"/><rect x="1575.371612504294" y="916.9031428014634" width="7.5185663540658" height="6.975670409616006" fill="#7b2cbf" opacity="0.09609260412307749" rx="1"/><rect x="1588.6616410381434" y="938.2524673729793" width="4.149598591064475" height="9.277595676313526" fill="#c77dff" opacity="0.5535179879640969" rx="1"/><rect x="1577.0560963857947" y="942.891265211136" width="4.149598591064475" height="9.277595676313526" fill="#7b2cbf" opacity="0.27675899398204845" rx="1"/><rect x="1588.4859803282523" y="963.0896271493029" width="4.500920010847254" height="9.780674777873948" fill="#c77dff" opacity="0.27536427864696933" rx="1"/><rect x="1576.8804356759035" y="967.9799645382399" width="4.500920010847254" height="9.780674777873948" fill="#7b2cbf" opacity="0.13768213932348466" rx="1"/><rect x="1657.706841571454" y="756.1194816618504" width="50.89742349481616" height="221.8073052637762" fill="#000011" opacity="0.4100453885295534" rx="2"/><rect x="1680.9757762023055" y="766.1194816618504" width="4.3595542331132" height="7.160776447775023" fill="#c77dff" opacity="0.3117140787215238" rx="1"/><rect x="1668.2514203286016" y="769.6998698857379" width="4.3595542331132" height="7.160776447775023" fill="#7b2cbf" opacity="0.1558570393607619" rx="1"/><rect x="1680.3118563034695" y="840.0552500831091" width="5.687394030785047" height="7.673118774237372" fill="#c77dff" opacity="0.3661774308109138" rx="1"/><rect x="1667.5875004297657" y="843.8918094702277" width="5.687394030785047" height="7.673118774237372" fill="#7b2cbf" opacity="0.1830887154054569" rx="1"/><rect x="1677.3569416938112" y="913.9910185043678" width="11.597223250101605" height="7.515028405355995" fill="#c77dff" opacity="0.5459186732875925" rx="1"/><rect x="1664.6325858201074" y="917.7485327070458" width="11.597223250101605" height="7.515028405355995" fill="#7b2cbf" opacity="0.27295933664379624" rx="1"/><rect x="1762.5276684071766" y="748.3849403910303" width="82.38431684029855" height="229.54184653459626" fill="#10002b" opacity="0.5795024989125092" rx="2"/><rect x="1800.8746426089908" y="758.3849403910303" width="5.690368436670482" height="9.93606361931564" fill="#c77dff" opacity="0.1808577066242829" rx="1"/><rect x="1780.278563398916" y="763.3529722006882" width="5.690368436670482" height="9.93606361931564" fill="#7b2cbf" opacity="0.09042885331214146" rx="1"/><rect x="1800.5904583989222" y="787.0776712078549" width="6.25873685680766" height="6.820695279357185" fill="#c77dff" opacity="0.20262434710809596" rx="1"/><rect x="1779.9943791888475" y="790.4880188475335" width="6.25873685680766" height="6.820695279357185" fill="#7b2cbf" opacity="0.10131217355404798" rx="1"/><rect x="1799.247979446239" y="815.7704020246794" width="8.943694762173969" height="6.1543851262317935" fill="#c77dff" opacity="0.38697963787405276" rx="1"/><rect x="1778.6519002361642" y="818.8475945877952" width="8.943694762173969" height="6.1543851262317935" fill="#7b2cbf" opacity="0.19348981893702638" rx="1"/><rect x="1799.6328822057837" y="844.4631328415039" width="8.173889243084446" height="8.91372877520363" fill="#c77dff" opacity="0.22500155137968286" rx="1"/><rect x="1779.036802995709" y="848.9199972291058" width="8.173889243084446" height="8.91372877520363" fill="#7b2cbf" opacity="0.11250077568984143" rx="1"/><rect x="1799.346827143751" y="873.1558636583285" width="8.745999367150013" height="7.673066813888276" fill="#c77dff" opacity="0.2892631570085099" rx="1"/><rect x="1778.7507479336762" y="876.9923970652726" width="8.745999367150013" height="7.673066813888276" fill="#7b2cbf" opacity="0.14463157850425495" rx="1"/><rect x="1798.8174047049242" y="901.848594475153" width="9.804844244803498" height="8.841170515595277" fill="#c77dff" opacity="0.3588476359981223" rx="1"/><rect x="1778.2213254948495" y="906.2691797329506" width="9.804844244803498" height="8.841170515595277" fill="#7b2cbf" opacity="0.17942381799906115" rx="1"/><rect x="1798.6467882942118" y="930.5413252919775" width="10.146077066228276" height="8.852783331380408" fill="#c77dff" opacity="0.10464118167400388" rx="1"/><rect x="1778.050709084137" y="934.9677169576677" width="10.146077066228276" height="8.852783331380408" fill="#7b2cbf" opacity="0.05232059083700194" rx="1"/><rect x="1799.49776383022" y="959.2340561088021" width="8.444125994212023" height="7.092401258901786" fill="#c77dff" opacity="0.37127782296651923" rx="1"/><rect x="1778.9016846201453" y="962.780256738253" width="8.444125994212023" height="7.092401258901786" fill="#7b2cbf" opacity="0.18563891148325962" rx="1"/><rect x="1855.9863163325238" y="823.823348938912" width="87.53202720487769" height="154.10343798671465" fill="#10002b" opacity="0.6322530296939083" rx="2"/><rect x="1896.0588762668829" y="833.823348938912" width="7.386907336159355" height="8.84875041312742" fill="#c77dff" opacity="0.29938121193539846" rx="1"/><rect x="1874.1758694656635" y="838.2477241454757" width="7.386907336159355" height="8.84875041312742" fill="#7b2cbf" opacity="0.14969060596769923" rx="1"/><rect x="1895.62309105609" y="864.6440365362549" width="8.258477757745068" height="8.662582726837737" fill="#c77dff" opacity="0.32764419769580577" rx="1"/><rect x="1873.7400842548707" y="868.9753278996737" width="8.258477757745068" height="8.662582726837737" fill="#7b2cbf" opacity="0.16382209884790289" rx="1"/><rect x="1896.217783211016" y="895.4647241335979" width="7.069093447893181" height="7.629209529056496" fill="#c77dff" opacity="0.39719573417613185" rx="1"/><rect x="1874.3347764097966" y="899.2793288981261" width="7.069093447893181" height="7.629209529056496" fill="#7b2cbf" opacity="0.19859786708806593" rx="1"/><rect x="1896.2896078519996" y="926.2854117309407" width="6.925444165925832" height="9.072058679319932" fill="#c77dff" opacity="0.3830942311051987" rx="1"/><rect x="1874.4066010507802" y="930.8214410706007" width="6.925444165925832" height="9.072058679319932" fill="#7b2cbf" opacity="0.19154711555259935" rx="1"/><rect x="1897.4782369663453" y="957.1060993282837" width="4.548185937234244" height="9.411290395867846" fill="#c77dff" opacity="0.1715036745116822" rx="1"/><rect x="1875.595230165126" y="961.8117445262176" width="4.548185937234244" height="9.411290395867846" fill="#7b2cbf" opacity="0.0857518372558411" rx="1"/><path d="M1522.1015313831394 783.7422505681734 Q1503.9280654312875 710.9449066305405 1500.293372240917 638.1475626929075" stroke="#000000" stroke-width="5.989329155997683" fill="none" stroke-linecap="round"/><path d="M1500.293372240917 638.1475626929075 Q1535.2003521624022 618.1475626929075 1559.877192168468 638.1475626929075" stroke="#000000" stroke-width="2.6334884401023126" fill="none" stroke-linecap="round" opacity="0.6"/><path d="M1500.293372240917 638.1475626929075 Q1531.7045224747858 626.4589006768415 1544.4805113622165 654.7702386607756" stroke="#000000" stroke-width="3.292756698395302" fill="none" stroke-linecap="round" opacity="0.6"/><path d="M1500.293372240917 638.1475626929075 Q1501.9026834510425 628.072410864439 1485.1914933778166 657.9972590359705" stroke="#000000" stroke-width="3.495334455160269" fill="none" stroke-linecap="round" opacity="0.6"/><path d="M1500.293372240917 638.1475626929075 Q1478.447842874569 623.3267336818994 1428.5956430732601 648.5059046708915" stroke="#000000" stroke-width="3.882340536891096" fill="none" stroke-linecap="round" opacity="0.6"/><path d="M1500.293372240917 638.1475626929075 Q1495.682190355537 614.8771939395406 1455.0201009672626 631.6068251861735" stroke="#000000" stroke-width="3.3035110200996303" fill="none" stroke-linecap="round" opacity="0.6"/><path d="M1865.1216387620943 902.9374605051562 Q1882.8827965312828 819.4988880002636 1886.4350280851206 736.060315495371" stroke="#000000" stroke-width="6.288421459097513" fill="none" stroke-linecap="round"/><path d="M1886.4350280851206 736.060315495371 Q1905.0786818128727 716.060315495371 1921.1355135517974 736.060315495371" stroke="#000000" stroke-width="3.795823043630417" fill="none" stroke-linecap="round" opacity="0.6"/><path d="M1886.4350280851206 736.060315495371 Q1900.1750236498183 720.6811738042727 1911.0017716527555 745.3020321131743" stroke="#000000" stroke-width="2.8252436352952484" fill="none" stroke-linecap="round" opacity="0.6"/><path d="M1886.4350280851206 736.060315495371 Q1890.4442625788852 725.079540531234 1872.7111663618407 754.0987655670971" stroke="#000000" stroke-width="2.144893166642844" fill="none" stroke-linecap="round" opacity="0.6"/><path d="M1886.4350280851206 736.060315495371 Q1865.4761613096448 719.6320955473611 1836.9891767397355 743.2038755993512" stroke="#000000" stroke-width="3.44535312555855" fill="none" stroke-linecap="round" opacity="0.6"/><path d="M1886.4350280851206 736.060315495371 Q1871.0651101105384 712.5606223648432 1837.9871103052656 729.0609292343154" stroke="#000000" stroke-width="2.048879256483372" fill="none" stroke-linecap="round" opacity="0.6"/><path d="M1886.4350280851206 736.060315495371 Q1886.1681451889133 705.7916940272443 1870.8100558112371 715.5230725591175" stroke="#000000" stroke-width="2.2487892956120867" fill="none" stroke-linecap="round" opacity="0.6"/><path d="M279.7578330989363 836.0765495654374 Q277.0036823621494 779.1006175577875 276.452852214792 722.1246855501377" stroke="#000000" stroke-width="4.803598780372087" fill="none" stroke-linecap="round"/><path d="M276.452852214792 722.1246855501377 Q318.99012743285624 702.1246855501377 330.3267435176127 722.1246855501377" stroke="#000000" stroke-width="2.6916981466793684" fill="none" stroke-linecap="round" opacity="0.6"/><path d="M276.452852214792 722.1246855501377 Q305.13394993910487 709.7692683013959 317.09519430304425 737.413851052654" stroke="#000000" stroke-width="3.5965195325195136" fill="none" stroke-linecap="round" opacity="0.6"/><path d="M276.452852214792 722.1246855501377 Q289.77495682423734 707.0322247080076 268.98542696080585 731.9397638658774" stroke="#000000" stroke-width="2.300813594903055" fill="none" stroke-linecap="round" opacity="0.6"/><path d="M276.452852214792 722.1246855501377 Q254.7614073701386 705.6891576962034 227.10816768951312 729.2536298422693" stroke="#000000" stroke-width="3.60841978751319" fill="none" stroke-linecap="round" opacity="0.6"/><path d="M276.452852214792 722.1246855501377 Q266.5777433974997 699.4398666069235 239.28562567141194 716.7550476637092" stroke="#000000" stroke-width="2.1599723208136794" fill="none" stroke-linecap="round" opacity="0.6"/><path d="M276.452852214792 722.1246855501377 Q291.51702523324246 697.2886382001346 269.0942105515922 712.4525908501316" stroke="#000000" stroke-width="2.7619473214172636" fill="none" stroke-linecap="round" opacity="0.6"/><path d="M276.452852214792 722.1246855501377 Q309.7976580104215 693.0413941678618 324.74407328699124 703.9581027855859" stroke="#000000" stroke-width="2.9406582095987766" fill="none" stroke-linecap="round" opacity="0.6"/><path d="M871.7605928126166 856.1489853905861 Q859.5266773829998 765.902174122376 857.0798942970764 675.6553628541658" stroke="#000000" stroke-width="4.10028691126506" fill="none" stroke-linecap="round"/><path d="M857.0798942970764 675.6553628541658 Q895.5951746573195 655.6553628541658 894.8167657835448 675.6553628541658" stroke="#000000" stroke-width="2.737252691466653" fill="none" stroke-linecap="round" opacity="0.6"/><path d="M857.0798942970764 675.6553628541658 Q882.3224932912242 662.5976646262393 893.9885671025417 689.5399663983128" stroke="#000000" stroke-width="3.988201535304124" fill="none" stroke-linecap="round" opacity="0.6"/><path d="M857.0798942970764 675.6553628541658 Q871.3361668982731 660.3215276446947 849.9797498712943 684.9876924352237" stroke="#000000" stroke-width="2.0615277765462006" fill="none" stroke-linecap="round" opacity="0.6"/><path d="M857.0798942970764 675.6553628541658 Q845.6663478573315 659.8872364761771 798.4960534724315 684.1191100981886" stroke="#000000" stroke-width="3.76587455993655" fill="none" stroke-linecap="round" opacity="0.6"/><path d="M857.0798942970764 675.6553628541658 Q855.2980254735477 653.182933322238 822.8528754666403 670.7105037903102" stroke="#000000" stroke-width="2.754179993354292" fill="none" stroke-linecap="round" opacity="0.6"/><path d="M857.0798942970764 675.6553628541658 Q861.9049665712965 644.3808719715282 839.9243678235213 653.1063810888907" stroke="#000000" stroke-width="2.797136882505644" fill="none" stroke-linecap="round" opacity="0.6"/><rect x="0" y="1000" width="1920" height="80" fill="#000005" opacity="0.8"/><line x1="0" y1="1040" x2="1920" y2="1040" stroke="#c77dff" stroke-opacity="0.15" stroke-width="2" stroke-dasharray="30,20"/><rect x="0" y="930" width="1920" height="150" fill="url(#glow5)"/><rect x="0" y="980" width="1920" height="100" fill="#c77dff" opacity="0.04"/><rect x="972.4341324745756" y="1019.515064963958" width="45.06428422058566" height="2" fill="#7b2cbf" opacity="0.02567907204052412" rx="1"/><rect x="635.7578745474475" y="1041.0817561021731" width="27.571832092379182" height="2" fill="#7b2cbf" opacity="0.04419863205035185" rx="1"/><rect x="1223.8825708497043" y="1019.3719497507839" width="55.83325425531558" height="2" fill="#7b2cbf" opacity="0.05093547770542453" rx="1"/><rect x="1452.9591982469333" y="1046.5265193270814" width="37.57672825306112" height="2" fill="#7b2cbf" opacity="0.032969808944726786" rx="1"/><rect x="1861.6862913830407" y="1008.0620988523732" width="104.72207304665868" height="2" fill="#7b2cbf" opacity="0.04868010318574498" rx="1"/><rect x="462.1064303401174" y="1000.1298985863407" width="91.28847212793504" height="2" fill="#7b2cbf" opacity="0.046823737972142114" rx="1"/><rect x="1738.181287454949" y="1047.7889868588627" width="70.69942398711561" height="2" fill="#7b2cbf" opacity="0.039316714112487786" rx="1"/><rect x="1095.677780168056" y="1008.9822631070815" width="33.32615614247652" height="2" fill="#7b2cbf" opacity="0.02087414653992144" rx="1"/><rect x="1057.1194824057443" y="1000.0295528164203" width="21.943201106494108" height="2" fill="#7b2cbf" opacity="0.05179347390117903" rx="1"/><rect x="1136.3173988126957" y="1030.1663402165673" width="22.8092354076936" height="2" fill="#7b2cbf" opacity="0.04986356460253326" rx="1"/><rect x="346.5892916234651" y="1015.9932840000822" width="116.05828164984898" height="2" fill="#7b2cbf" opacity="0.03989317963362979" rx="1"/><rect x="276.28825939174004" y="1008.3252184717742" width="54.24504379142193" height="2" fill="#7b2cbf" opacity="0.023408759721417156" rx="1"/><rect x="110.02528625308193" y="1057.3787914582945" width="80.16717438124287" height="2" fill="#7b2cbf" opacity="0.057405084464094855" rx="1"/><rect x="523.1463464822496" y="1041.5735007919309" width="33.28879592783954" height="2" fill="#7b2cbf" opacity="0.0361313089393385" rx="1"/><rect x="1819.5944054190986" y="1044.8847160965402" width="23.84396971292886" height="2" fill="#7b2cbf" opacity="0.04546137448061755" rx="1"/><rect x="1389.2950374142488" y="1059.6207550772515" width="58.08760236438541" height="2" fill="#7b2cbf" opacity="0.023332303604886938" rx="1"/><rect x="955.7843960066756" y="1026.320086588692" width="29.205242923741515" height="2" fill="#7b2cbf" opacity="0.04866497498673037" rx="1"/><rect x="471.05106409430766" y="1042.9876737722632" width="35.863262446565386" height="2" fill="#7b2cbf" opacity="0.04017985010989472" rx="1"/><rect x="558.9826290120795" y="1019.7993770380968" width="52.285251266389444" height="2" fill="#7b2cbf" opacity="0.03768628703842086" rx="1"/><rect x="1599.65952821068" y="1009.2433014300752" width="57.27813177678691" height="2" fill="#7b2cbf" opacity="0.020591273345190862" rx="1"/><rect x="1548.4261915712677" y="1019.0065094174366" width="110.73821084823884" height="2" fill="#7b2cbf" opacity="0.05602296882216422" rx="1"/><rect x="1773.7381285088459" y="1026.7686494176203" width="117.1430790371129" height="2" fill="#7b2cbf" opacity="0.026762070582891366" rx="1"/><rect x="709.9434034689198" y="1016.1865981938752" width="96.42617157577214" height="2" fill="#7b2cbf" opacity="0.02076510594244234" rx="1"/><rect x="1372.423698625626" y="1001.9519097315967" width="55.889431027669794" height="2" fill="#7b2cbf" opacity="0.027411967461791815" rx="1"/><rect x="1441.730806567178" y="1058.874062313436" width="42.52230728569494" height="2" fill="#7b2cbf" opacity="0.035714691806518165" rx="1"/><rect x="1784.6268944127082" y="1047.1739264082103" width="36.5720845145574" height="2" fill="#7b2cbf" opacity="0.04854787927785606" rx="1"/><rect x="455.96712883002294" y="1027.4067752872145" width="84.39066714709408" height="2" fill="#7b2cbf" opacity="0.05528601848410583" rx="1"/><rect x="1349.4797729117518" y="1043.1275729749184" width="42.672489616710806" height="2" fill="#7b2cbf" opacity="0.046321688496116946" rx="1"/><rect x="1303.9686171766296" y="1008.475853383652" width="93.10772644661081" height="2" fill="#7b2cbf" opacity="0.047806890455029644" rx="1"/><rect x="681.2282441652446" y="1003.339623069237" width="46.3920289292913" height="2" fill="#7b2cbf" opacity="0.05921463397313251" rx="1"/><text x="1900" y="1060" font-family="Arial, sans-serif" font-size="11" fill="#fff" opacity="0.08" text-anchor="end" letter-spacing="2">GTA 6 REWARDS · WALLPAPER 006</text>
</svg>