<?xml version="1.0" encoding="UTF-8"?>
<svg xmlns="http://www.w3.org/2000/svg" width="1920" height="1080" viewBox="0 0 1920 1080">
<defs>
    <linearGradient id="bg43" x1="0%" y1="0%" x2="0%" y2="100%">
      <stop offset="0%" stop-color="#073b4c"/>
      <stop offset="50%" stop-color="#000819"/>
      <stop offset="100%" stop-color="#073b4c"/>
    </linearGradient>
    <linearGradient id="sun43" x1="0%" y1="0%" x2="100%" y2="100%">
      <stop offset="0%" stop-color="#06d6a0"/>
      <stop offset="100%" stop-color="#118ab2"/>
    </linearGradient>
    <radialGradient id="glow43" cx="50%" cy="70%" r="50%">
      <stop offset="0%" stop-color="#06d6a0" stop-opacity="0.3"/>
      <stop offset="100%" stop-color="#073b4c" stop-opacity="0"/>
    </radialGradient>
  </defs><rect width="1920" height="1080" fill="url(#bg43)"/><circle cx="631.6828125928721" cy="411.7663406328686" r="617.7336971083968" fill="#06d6a0" opacity="0.05633518404940497"/><circle cx="831.6828125928721" cy="311.7663406328686" r="548.8833613109038" fill="#118ab2" opacity="0.05348575351840951"/><circle cx="1355.5580994709296" cy="206.95749739114137" r="62.481104005705824" fill="url(#sun43)" opacity="0.6778638675757367"/><circle cx="1355.5580994709296" cy="206.95749739114137" r="57.481104005705824" fill="#073b4c" opacity="0.3"/><pattern id="scan43" width="1920" height="4" patternUnits="userSpaceOnUse">
      <line x1="0" y1="0" x2="1920" y2="0" stroke="#000" stroke-opacity="0.05" stroke-width="1"/>
    </pattern>
    <rect width="1920" height="1080" fill="url(#scan43)"/><line x1="0" y1="0" x2="0" y2="1080" stroke="#06d6a0" stroke-opacity="0.032274656845786294" stroke-width="0.5"/><line x1="77" y1="0" x2="77" y2="1080" stroke="#06d6a0" stroke-opacity="0.032274656845786294" stroke-width="0.5"/><line x1="154" y1="0" x2="154" y2="1080" stroke="#06d6a0" stroke-opacity="0.032274656845786294" stroke-width="0.5"/><line x1="231" y1="0" x2="231" y2="1080" stroke="#06d6a0" stroke-opacity="0.032274656845786294" stroke-width="0.5"/><line x1="308" y1="0" x2="308" y2="1080" stroke="#06d6a0" stroke-opacity="0.032274656845786294" stroke-width="0.5"/><line x1="385" y1="0" x2="385" y2="1080" stroke="#06d6a0" stroke-opacity="0.032274656845786294" stroke-width="0.5"/><line x1="462" y1="0" x2="462" y2="1080" stroke="#06d6a0" stroke-opacity="0.032274656845786294" stroke-width="0.5"/><line x1="539" y1="0" x2="539" y2="1080" stroke="#06d6a0" stroke-opacity="0.032274656845786294" stroke-width="0.5"/><line x1="616" y1="0" x2="616" y2="1080" stroke="#06d6a0" stroke-opacity="0.032274656845786294" stroke-width="0.5"/><line x1="693" y1="0" x2="693" y2="1080" stroke="#06d6a0" stroke-opacity="0.032274656845786294" stroke-width="0.5"/><line x1="770" y1="0" x2="770" y2="1080" stroke="#06d6a0" stroke-opacity="0.032274656845786294" stroke-width="0.5"/><line x1="847" y1="0" x2="847" y2="1080" stroke="#06d6a0" stroke-opacity="0.032274656845786294" stroke-width="0.5"/><line x1="924" y1="0" x2="924" y2="1080" stroke="#06d6a0" stroke-opacity="0.032274656845786294" stroke-width="0.5"/><line x1="1001" y1="0" x2="1001" y2="1080" stroke="#06d6a0" stroke-opacity="0.032274656845786294" stroke-width="0.5"/><line x1="1078" y1="0" x2="1078" y2="1080" stroke="#06d6a0" stroke-opacity="0.032274656845786294" stroke-width="0.5"/><line x1="1155" y1="0" x2="1155" y2="1080" stroke="#06d6a0" stroke-opacity="0.032274656845786294" stroke-width="0.5"/><line x1="1232" y1="0" x2="1232" y2="1080" stroke="#06d6a0" stroke-opacity="0.032274656845786294" stroke-width="0.5"/><line x1="1309" y1="0" x2="1309" y2="1080" stroke="#06d6a0" stroke-opacity="0.032274656845786294" stroke-width="0.5"/><line x1="1386" y1="0" x2="1386" y2="1080" stroke="#06d6a0" stroke-opacity="0.032274656845786294" stroke-width="0.5"/><line x1="1463" y1="0" x2="1463" y2="1080" stroke="#06d6a0" stroke-opacity="0.032274656845786294" stroke-width="0.5"/><line x1="1540" y1="0" x2="1540" y2="1080" stroke="#06d6a0" stroke-opacity="0.032274656845786294" stroke-width="0.5"/><line x1="1617" y1="0" x2="1617" y2="1080" stroke="#06d6a0" stroke-opacity="0.032274656845786294" stroke-width="0.5"/><line x1="1694" y1="0" x2="1694" y2="1080" stroke="#06d6a0" stroke-opacity="0.032274656845786294" stroke-width="0.5"/><line x1="1771" y1="0" x2="1771" y2="1080" stroke="#06d6a0" stroke-opacity="0.032274656845786294" stroke-width="0.5"/><line x1="1848" y1="0" x2="1848" y2="1080" stroke="#06d6a0" stroke-opacity="0.032274656845786294" stroke-width="0.5"/><line x1="0" y1="0" x2="1920" y2="0" stroke="#06d6a0" stroke-opacity="0.032274656845786294" stroke-width="0.5"/><line x1="0" y1="77" x2="1920" y2="77" stroke="#06d6a0" stroke-opacity="0.032274656845786294" stroke-width="0.5"/><line x1="0" y1="154" x2="1920" y2="154" stroke="#06d6a0" stroke-opacity="0.032274656845786294" stroke-width="0.5"/><line x1="0" y1="231" x2="1920" y2="231" stroke="#06d6a0" stroke-opacity="0.032274656845786294" stroke-width="0.5"/><line x1="0" y1="308" x2="1920" y2="308" stroke="#06d6a0" stroke-opacity="0.032274656845786294" stroke-width="0.5"/><line x1="0" y1="385" x2="1920" y2="385" stroke="#06d6a0" stroke-opacity="0.032274656845786294" stroke-width="0.5"/><line x1="0" y1="462" x2="1920" y2="462" stroke="#06d6a0" stroke-opacity="0.032274656845786294" stroke-width="0.5"/><line x1="0" y1="539" x2="1920" y2="539" stroke="#06d6a0" stroke-opacity="0.032274656845786294" stroke-width="0.5"/><line x1="0" y1="616" x2="1920" y2="616" stroke="#06d6a0" stroke-opacity="0.032274656845786294" stroke-width="0.5"/><line x1="0" y1="693" x2="1920" y2="693" stroke="#06d6a0" stroke-opacity="0.032274656845786294" stroke-width="0.5"/><line x1="0" y1="770" x2="1920" y2="770" stroke="#06d6a0" stroke-opacity="0.032274656845786294" stroke-width="0.5"/><line x1="0" y1="847" x2="1920" y2="847" stroke="#06d6a0" stroke-opacity="0.032274656845786294" stroke-width="0.5"/><line x1="0" y1="924" x2="1920" y2="924" stroke="#06d6a0" stroke-opacity="0.032274656845786294" stroke-width="0.5"/><line x1="0" y1="1001" x2="1920" y2="1001" stroke="#06d6a0" stroke-opacity="0.032274656845786294" stroke-width="0.5"/><line x1="0" y1="1078" x2="1920" y2="1078" stroke="#06d6a0" stroke-opacity="0.032274656845786294" stroke-width="0.5"/><rect x="0" y="1000" width="1920" height="80" fill="#001526" opacity="0.8"/><line x1="0" y1="1040" x2="1920" y2="1040" stroke="#118ab2" stroke-opacity="0.15" stroke-width="2" stroke-dasharray="30,20"/><rect x="0" y="930" width="1920" height="150" fill="url(#glow43)"/><text x="1900" y="1060" font-family="Arial, sans-serif" font-size="11" fill="#fff" opacity="0.08" text-anchor="end" letter-spacing="2">GTA 6 REWARDS · WALLPAPER 044</text>
</svg>