<?xml version="1.0" encoding="UTF-8"?>
<svg xmlns="http://www.w3.org/2000/svg" width="1920" height="1080" viewBox="0 0 1920 1080">
<defs>
    <linearGradient id="bg70" x1="0%" y1="0%" x2="0%" y2="100%">
      <stop offset="0%" stop-color="#2ec4b6"/>
      <stop offset="50%" stop-color="#009183"/>
      <stop offset="100%" stop-color="#2ec4b6"/>
    </linearGradient>
    <linearGradient id="sun70" x1="0%" y1="0%" x2="100%" y2="100%">
      <stop offset="0%" stop-color="#ff9f1c"/>
      <stop offset="100%" stop-color="#ffbf69"/>
    </linearGradient>
    <radialGradient id="glow70" cx="50%" cy="70%" r="50%">
      <stop offset="0%" stop-color="#ff9f1c" stop-opacity="0.3"/>
      <stop offset="100%" stop-color="#2ec4b6" stop-opacity="0"/>
    </radialGradient>
  </defs><rect width="1920" height="1080" fill="url(#bg70)"/><circle cx="630.6869086648074" cy="327.49181746679636" r="745.8628031997622" fill="#ff9f1c" opacity="0.14842415959537592"/><circle cx="830.6869086648074" cy="227.49181746679636" r="570.5872848095809" fill="#ffbf69" opacity="0.053999271915294064"/><circle cx="1040.0412643188706" cy="442.95794747140206" r="88.0557550182696" fill="url(#sun70)" opacity="0.8781536256377942"/><circle cx="1040.0412643188706" cy="442.95794747140206" r="83.0557550182696" fill="#2ec4b6" opacity="0.3"/><pattern id="scan70" width="1920" height="4" patternUnits="userSpaceOnUse">
      <line x1="0" y1="0" x2="1920" y2="0" stroke="#000" stroke-opacity="0.05" stroke-width="1"/>
    </pattern>
    <rect width="1920" height="1080" fill="url(#scan70)"/><path d="M31.12033636102461 915.4573482031602 Q14.451154580910494 806.1914092118832 11.117318224887672 696.9254702206063" stroke="#007769" stroke-width="6.311684469299317" fill="none" stroke-linecap="round"/><path d="M11.117318224887672 696.9254702206063 Q52.38918731719935 676.9254702206063 65.80009623426015 696.9254702206063" stroke="#009183" stroke-width="2.298756976215811" fill="none" stroke-linecap="round" opacity="0.6"/><path d="M11.117318224887672 696.9254702206063 Q40.9649492345653 681.6818265310405 36.40443546231626 706.4381828414749" stroke="#009183" stroke-width="2.12450554085069" fill="none" stroke-linecap="round" opacity="0.6"/><path d="M11.117318224887672 696.9254702206063 Q23.603125291267084 685.8663360006908 -2.4873102397956828 714.8072017807755" stroke="#009183" stroke-width="2.123720438714074" fill="none" stroke-linecap="round" opacity="0.6"/><path d="M11.117318224887672 696.9254702206063 Q5.811155660739567 680.353921483533 -36.344364472265184 703.7823727464598" stroke="#009183" stroke-width="2.4175749845843706" fill="none" stroke-linecap="round" opacity="0.6"/><path d="M11.117318224887672 696.9254702206063 Q-2.8597489877167668 673.7865656545094 -32.336031730436204 690.6476610884126" stroke="#009183" stroke-width="3.2880111716892597" fill="none" stroke-linecap="round" opacity="0.6"/><path d="M145.4176082055591 799.7149156638689 Q155.64809843330832 716.0961750408393 157.69419647885817 632.4774344178097" stroke="#007769" stroke-width="7.5390143086060455" fill="none" stroke-linecap="round"/><path d="M157.69419647885817 632.4774344178097 Q198.35258338282642 612.4774344178097 214.8626146146242 632.4774344178097" stroke="#009183" stroke-width="3.2683754589567835" fill="none" stroke-linecap="round" opacity="0.6"/><path d="M157.69419647885817 632.4774344178097 Q195.3362582132554 620.2958919200855 199.2609418133449 648.1143494223614" stroke="#009183" stroke-width="3.5304544199096166" fill="none" stroke-linecap="round" opacity="0.6"/><path d="M157.69419647885817 632.4774344178097 Q157.24668305113775 618.9570098105849 147.8347244773921 645.43658520336" stroke="#009183" stroke-width="3.6230661854201616" fill="none" stroke-linecap="round" opacity="0.6"/><path d="M157.69419647885817 632.4774344178097 Q145.4734718409313 616.7165734227947 99.00977749955292 640.9557124277798" stroke="#009183" stroke-width="3.164753903440375" fill="none" stroke-linecap="round" opacity="0.6"/><path d="M157.69419647885817 632.4774344178097 Q150.78183730822067 610.0750507269278 124.43685556623949 627.6726670360458" stroke="#009183" stroke-width="3.6903072874272027" fill="none" stroke-linecap="round" opacity="0.6"/><path d="M1053.7206644783078 783.2757951419977 Q1041.6019495254386 706.822093211073 1039.178206534865 630.3683912801482" stroke="#007769" stroke-width="4.062736335225109" fill="none" stroke-linecap="round"/><path d="M1039.178206534865 630.3683912801482 Q1080.8186106336814 610.3683912801482 1094.8315241813734 630.3683912801482" stroke="#009183" stroke-width="2.7675777517183633" fill="none" stroke-linecap="round" opacity="0.6"/><path d="M1039.178206534865 630.3683912801482 Q1064.8426562392285 618.7588536432088 1083.7860095679325 647.1493160062693" stroke="#009183" stroke-width="3.379790116422761" fill="none" stroke-linecap="round" opacity="0.6"/><path d="M1039.178206534865 630.3683912801482 Q1051.1992583183578 618.5760001823128 1026.6893187197613 646.7836090844773" stroke="#009183" stroke-width="2.2618721533245107" fill="none" stroke-linecap="round" opacity="0.6"/><path d="M1039.178206534865 630.3683912801482 Q1030.612034708398 613.7583056849135 992.2500079079063 637.1482200896787" stroke="#009183" stroke-width="3.9674521959310987" fill="none" stroke-linecap="round" opacity="0.6"/><path d="M1039.178206534865 630.3683912801482 Q1014.8140325667118 606.670009129339 987.9797420758205 622.9716269785297" stroke="#009183" stroke-width="3.412895219263829" fill="none" stroke-linecap="round" opacity="0.6"/><line x1="0" y1="0" x2="0" y2="1080" stroke="#ff9f1c" stroke-opacity="0.05770369242590472" stroke-width="0.5"/><line x1="47" y1="0" x2="47" y2="1080" stroke="#ff9f1c" stroke-opacity="0.05770369242590472" stroke-width="0.5"/><line x1="94" y1="0" x2="94" y2="1080" stroke="#ff9f1c" stroke-opacity="0.05770369242590472" stroke-width="0.5"/><line x1="141" y1="0" x2="141" y2="1080" stroke="#ff9f1c" stroke-opacity="0.05770369242590472" stroke-width="0.5"/><line x1="188" y1="0" x2="188" y2="1080" stroke="#ff9f1c" stroke-opacity="0.05770369242590472" stroke-width="0.5"/><line x1="235" y1="0" x2="235" y2="1080" stroke="#ff9f1c" stroke-opacity="0.05770369242590472" stroke-width="0.5"/><line x1="282" y1="0" x2="282" y2="1080" stroke="#ff9f1c" stroke-opacity="0.05770369242590472" stroke-width="0.5"/><line x1="329" y1="0" x2="329" y2="1080" stroke="#ff9f1c" stroke-opacity="0.05770369242590472" stroke-width="0.5"/><line x1="376" y1="0" x2="376" y2="1080" stroke="#ff9f1c" stroke-opacity="0.05770369242590472" stroke-width="0.5"/><line x1="423" y1="0" x2="423" y2="1080" stroke="#ff9f1c" stroke-opacity="0.05770369242590472" stroke-width="0.5"/><line x1="470" y1="0" x2="470" y2="1080" stroke="#ff9f1c" stroke-opacity="0.05770369242590472" stroke-width="0.5"/><line x1="517" y1="0" x2="517" y2="1080" stroke="#ff9f1c" stroke-opacity="0.05770369242590472" stroke-width="0.5"/><line x1="564" y1="0" x2="564" y2="1080" stroke="#ff9f1c" stroke-opacity="0.05770369242590472" stroke-width="0.5"/><line x1="611" y1="0" x2="611" y2="1080" stroke="#ff9f1c" stroke-opacity="0.05770369242590472" stroke-width="0.5"/><line x1="658" y1="0" x2="658" y2="1080" stroke="#ff9f1c" stroke-opacity="0.05770369242590472" stroke-width="0.5"/><line x1="705" y1="0" x2="705" y2="1080" stroke="#ff9f1c" stroke-opacity="0.05770369242590472" stroke-width="0.5"/><line x1="752" y1="0" x2="752" y2="1080" stroke="#ff9f1c" stroke-opacity="0.05770369242590472" stroke-width="0.5"/><line x1="799" y1="0" x2="799" y2="1080" stroke="#ff9f1c" stroke-opacity="0.05770369242590472" stroke-width="0.5"/><line x1="846" y1="0" x2="846" y2="1080" stroke="#ff9f1c" stroke-opacity="0.05770369242590472" stroke-width="0.5"/><line x1="893" y1="0" x2="893" y2="1080" stroke="#ff9f1c" stroke-opacity="0.05770369242590472" stroke-width="0.5"/><line x1="940" y1="0" x2="940" y2="1080" stroke="#ff9f1c" stroke-opacity="0.05770369242590472" stroke-width="0.5"/><line x1="987" y1="0" x2="987" y2="1080" stroke="#ff9f1c" stroke-opacity="0.05770369242590472" stroke-width="0.5"/><line x1="1034" y1="0" x2="1034" y2="1080" stroke="#ff9f1c" stroke-opacity="0.05770369242590472" stroke-width="0.5"/><line x1="1081" y1="0" x2="1081" y2="1080" stroke="#ff9f1c" stroke-opacity="0.05770369242590472" stroke-width="0.5"/><line x1="1128" y1="0" x2="1128" y2="1080" stroke="#ff9f1c" stroke-opacity="0.05770369242590472" stroke-width="0.5"/><line x1="1175" y1="0" x2="1175" y2="1080" stroke="#ff9f1c" stroke-opacity="0.05770369242590472" stroke-width="0.5"/><line x1="1222" y1="0" x2="1222" y2="1080" stroke="#ff9f1c" stroke-opacity="0.05770369242590472" stroke-width="0.5"/><line x1="1269" y1="0" x2="1269" y2="1080" stroke="#ff9f1c" stroke-opacity="0.05770369242590472" stroke-width="0.5"/><line x1="1316" y1="0" x2="1316" y2="1080" stroke="#ff9f1c" stroke-opacity="0.05770369242590472" stroke-width="0.5"/><line x1="1363" y1="0" x2="1363" y2="1080" stroke="#ff9f1c" stroke-opacity="0.05770369242590472" stroke-width="0.5"/><line x1="1410" y1="0" x2="1410" y2="1080" stroke="#ff9f1c" stroke-opacity="0.05770369242590472" stroke-width="0.5"/><line x1="1457" y1="0" x2="1457" y2="1080" stroke="#ff9f1c" stroke-opacity="0.05770369242590472" stroke-width="0.5"/><line x1="1504" y1="0" x2="1504" y2="1080" stroke="#ff9f1c" stroke-opacity="0.05770369242590472" stroke-width="0.5"/><line x1="1551" y1="0" x2="1551" y2="1080" stroke="#ff9f1c" stroke-opacity="0.05770369242590472" stroke-width="0.5"/><line x1="1598" y1="0" x2="1598" y2="1080" stroke="#ff9f1c" stroke-opacity="0.05770369242590472" stroke-width="0.5"/><line x1="1645" y1="0" x2="1645" y2="1080" stroke="#ff9f1c" stroke-opacity="0.05770369242590472" stroke-width="0.5"/><line x1="1692" y1="0" x2="1692" y2="1080" stroke="#ff9f1c" stroke-opacity="0.05770369242590472" stroke-width="0.5"/><line x1="1739" y1="0" x2="1739" y2="1080" stroke="#ff9f1c" stroke-opacity="0.05770369242590472" stroke-width="0.5"/><line x1="1786" y1="0" x2="1786" y2="1080" stroke="#ff9f1c" stroke-opacity="0.05770369242590472" stroke-width="0.5"/><line x1="1833" y1="0" x2="1833" y2="1080" stroke="#ff9f1c" stroke-opacity="0.05770369242590472" stroke-width="0.5"/><line x1="1880" y1="0" x2="1880" y2="1080" stroke="#ff9f1c" stroke-opacity="0.05770369242590472" stroke-width="0.5"/><line x1="0" y1="0" x2="1920" y2="0" stroke="#ff9f1c" stroke-opacity="0.05770369242590472" stroke-width="0.5"/><line x1="0" y1="47" x2="1920" y2="47" stroke="#ff9f1c" stroke-opacity="0.05770369242590472" stroke-width="0.5"/><line x1="0" y1="94" x2="1920" y2="94" stroke="#ff9f1c" stroke-opacity="0.05770369242590472" stroke-width="0.5"/><line x1="0" y1="141" x2="1920" y2="141" stroke="#ff9f1c" stroke-opacity="0.05770369242590472" stroke-width="0.5"/><line x1="0" y1="188" x2="1920" y2="188" stroke="#ff9f1c" stroke-opacity="0.05770369242590472" stroke-width="0.5"/><line x1="0" y1="235" x2="1920" y2="235" stroke="#ff9f1c" stroke-opacity="0.05770369242590472" stroke-width="0.5"/><line x1="0" y1="282" x2="1920" y2="282" stroke="#ff9f1c" stroke-opacity="0.05770369242590472" stroke-width="0.5"/><line x1="0" y1="329" x2="1920" y2="329" stroke="#ff9f1c" stroke-opacity="0.05770369242590472" stroke-width="0.5"/><line x1="0" y1="376" x2="1920" y2="376" stroke="#ff9f1c" stroke-opacity="0.05770369242590472" stroke-width="0.5"/><line x1="0" y1="423" x2="1920" y2="423" stroke="#ff9f1c" stroke-opacity="0.05770369242590472" stroke-width="0.5"/><line x1="0" y1="470" x2="1920" y2="470" stroke="#ff9f1c" stroke-opacity="0.05770369242590472" stroke-width="0.5"/><line x1="0" y1="517" x2="1920" y2="517" stroke="#ff9f1c" stroke-opacity="0.05770369242590472" stroke-width="0.5"/><line x1="0" y1="564" x2="1920" y2="564" stroke="#ff9f1c" stroke-opacity="0.05770369242590472" stroke-width="0.5"/><line x1="0" y1="611" x2="1920" y2="611" stroke="#ff9f1c" stroke-opacity="0.05770369242590472" stroke-width="0.5"/><line x1="0" y1="658" x2="1920" y2="658" stroke="#ff9f1c" stroke-opacity="0.05770369242590472" stroke-width="0.5"/><line x1="0" y1="705" x2="1920" y2="705" stroke="#ff9f1c" stroke-opacity="0.05770369242590472" stroke-width="0.5"/><line x1="0" y1="752" x2="1920" y2="752" stroke="#ff9f1c" stroke-opacity="0.05770369242590472" stroke-width="0.5"/><line x1="0" y1="799" x2="1920" y2="799" stroke="#ff9f1c" stroke-opacity="0.05770369242590472" stroke-width="0.5"/><line x1="0" y1="846" x2="1920" y2="846" stroke="#ff9f1c" stroke-opacity="0.05770369242590472" stroke-width="0.5"/><line x1="0" y1="893" x2="1920" y2="893" stroke="#ff9f1c" stroke-opacity="0.05770369242590472" stroke-width="0.5"/><line x1="0" y1="940" x2="1920" y2="940" stroke="#ff9f1c" stroke-opacity="0.05770369242590472" stroke-width="0.5"/><line x1="0" y1="987" x2="1920" y2="987" stroke="#ff9f1c" stroke-opacity="0.05770369242590472" stroke-width="0.5"/><line x1="0" y1="1034" x2="1920" y2="1034" stroke="#ff9f1c" stroke-opacity="0.05770369242590472" stroke-width="0.5"/><rect x="0" y="1000" width="1920" height="80" fill="#089e90" opacity="0.8"/><line x1="0" y1="1040" x2="1920" y2="1040" stroke="#ffbf69" stroke-opacity="0.15" stroke-width="2" stroke-dasharray="30,20"/><rect x="0" y="930" width="1920" height="150" fill="url(#glow70)"/><text x="1900" y="1060" font-family="Arial, sans-serif" font-size="11" fill="#fff" opacity="0.08" text-anchor="end" letter-spacing="2">GTA 6 REWARDS · WALLPAPER 071</text>
</svg>