<?xml version="1.0" encoding="UTF-8"?>
<svg xmlns="http://www.w3.org/2000/svg" width="1920" height="1080" viewBox="0 0 1920 1080">
<defs>
    <linearGradient id="bg96" x1="0%" y1="0%" x2="0%" y2="100%">
      <stop offset="0%" stop-color="#003d00"/>
      <stop offset="50%" stop-color="#000a00"/>
      <stop offset="100%" stop-color="#003d00"/>
    </linearGradient>
    <linearGradient id="sun96" x1="0%" y1="0%" x2="100%" y2="100%">
      <stop offset="0%" stop-color="#38b000"/>
      <stop offset="100%" stop-color="#008000"/>
    </linearGradient>
    <radialGradient id="glow96" cx="50%" cy="70%" r="50%">
      <stop offset="0%" stop-color="#38b000" stop-opacity="0.3"/>
      <stop offset="100%" stop-color="#003d00" stop-opacity="0"/>
    </radialGradient>
  </defs><rect width="1920" height="1080" fill="url(#bg96)"/><circle cx="414.9246393039181" cy="311.3492111934696" r="847.6697831059969" fill="#38b000" opacity="0.12994170381686226"/><circle cx="614.9246393039182" cy="211.3492111934696" r="553.7014275681463" fill="#008000" opacity="0.09503930884530751"/><line x1="0" y1="980" x2="1920" y2="980" stroke="#008000" stroke-opacity="0.05" stroke-width="2"/><line x1="0" y1="935" x2="1920" y2="935" stroke="#008000" stroke-opacity="0.049" stroke-width="0.5"/><line x1="0" y1="890" x2="1920" y2="890" stroke="#008000" stroke-opacity="0.048" stroke-width="0.5"/><line x1="0" y1="845" x2="1920" y2="845" stroke="#008000" stroke-opacity="0.047" stroke-width="0.5"/><line x1="0" y1="800" x2="1920" y2="800" stroke="#008000" stroke-opacity="0.046" stroke-width="0.5"/><line x1="0" y1="755" x2="1920" y2="755" stroke="#008000" stroke-opacity="0.045" stroke-width="0.5"/><line x1="0" y1="710" x2="1920" y2="710" stroke="#008000" stroke-opacity="0.044" stroke-width="0.5"/><line x1="0" y1="665" x2="1920" y2="665" stroke="#008000" stroke-opacity="0.043" stroke-width="0.5"/><line x1="0" y1="620" x2="1920" y2="620" stroke="#008000" stroke-opacity="0.041999999999999996" stroke-width="0.5"/><line x1="0" y1="575" x2="1920" y2="575" stroke="#008000" stroke-opacity="0.041" stroke-width="0.5"/><line x1="0" y1="530" x2="1920" y2="530" stroke="#008000" stroke-opacity="0.04" stroke-width="0.5"/><line x1="0" y1="485" x2="1920" y2="485" stroke="#008000" stroke-opacity="0.039" stroke-width="0.5"/><line x1="0" y1="440" x2="1920" y2="440" stroke="#008000" stroke-opacity="0.038" stroke-width="0.5"/><line x1="0" y1="395" x2="1920" y2="395" stroke="#008000" stroke-opacity="0.037" stroke-width="0.5"/><line x1="0" y1="350" x2="1920" y2="350" stroke="#008000" stroke-opacity="0.036" stroke-width="0.5"/><line x1="0" y1="305" x2="1920" y2="305" stroke="#008000" stroke-opacity="0.034999999999999996" stroke-width="0.5"/><line x1="0" y1="260" x2="1920" y2="260" stroke="#008000" stroke-opacity="0.033999999999999996" stroke-width="0.5"/><line x1="0" y1="215" x2="1920" y2="215" stroke="#008000" stroke-opacity="0.033" stroke-width="0.5"/><line x1="0" y1="170" x2="1920" y2="170" stroke="#008000" stroke-opacity="0.032" stroke-width="0.5"/><line x1="0" y1="125" x2="1920" y2="125" stroke="#008000" stroke-opacity="0.031" stroke-width="0.5"/><line x1="560" y1="1080" x2="860" y2="580" stroke="#38b000" stroke-opacity="0.04" stroke-width="1"/><line x1="640" y1="1080" x2="880" y2="590" stroke="#38b000" stroke-opacity="0.04" stroke-width="1"/><line x1="720" y1="1080" x2="900" y2="600" stroke="#38b000" stroke-opacity="0.04" stroke-width="1"/><line x1="800" y1="1080" x2="920" y2="610" stroke="#38b000" stroke-opacity="0.04" stroke-width="1"/><line x1="880" y1="1080" x2="940" y2="620" stroke="#38b000" stroke-opacity="0.04" stroke-width="1"/><line x1="960" y1="1080" x2="960" y2="630" stroke="#38b000" stroke-opacity="0.04" stroke-width="1"/><line x1="1040" y1="1080" x2="980" y2="620" stroke="#38b000" stroke-opacity="0.04" stroke-width="1"/><line x1="1120" y1="1080" x2="1000" y2="610" stroke="#38b000" stroke-opacity="0.04" stroke-width="1"/><line x1="1200" y1="1080" x2="1020" y2="600" stroke="#38b000" stroke-opacity="0.04" stroke-width="1"/><line x1="1280" y1="1080" x2="1040" y2="590" stroke="#38b000" stroke-opacity="0.04" stroke-width="1"/><line x1="1360" y1="1080" x2="1060" y2="580" stroke="#38b000" stroke-opacity="0.04" stroke-width="1"/><circle cx="393.6357689308086" cy="258.95292402919216" r="87.03452044796072" fill="url(#sun96)" opacity="0.7703595926916132"/><circle cx="393.6357689308086" cy="258.95292402919216" r="82.03452044796072" fill="#003d00" opacity="0.3"/><circle cx="1265.737445649164" cy="334.22812534827466" r="1.7284196826462679" fill="#fff" opacity="0.32991956275187423"/><circle cx="264.7007704397432" cy="60.91910662057789" r="0.8779206264014171" fill="#fff" opacity="0.2882769990452279"/><circle cx="1564.9445172317662" cy="57.02503973083222" r="1.986950305054651" fill="#fff" opacity="0.6513953141522117"/><circle cx="1670.4400625243877" cy="281.3789926602922" r="1.7485551678688627" fill="#fff" opacity="0.6802254880033958"/><circle cx="825.0992638303663" cy="139.26132252329523" r="1.5362381375246303" fill="#fff" opacity="0.2599591989209781"/><circle cx="557.5039084063619" cy="214.01843043184337" r="0.9824828222586035" fill="#fff" opacity="0.4139089206266005"/><circle cx="1126.9130277277234" cy="349.2048103616584" r="1.5645601266446896" fill="#fff" opacity="0.6205645994796801"/><circle cx="1263.4628836772085" cy="37.2449120518856" r="1.1943260152345352" fill="#fff" opacity="0.287861671971125"/><circle cx="1387.431646908501" cy="363.05517599616553" r="1.056463253231827" fill="#fff" opacity="0.6347222624427458"/><circle cx="502.04605456954937" cy="224.19287202884274" r="1.080334598450068" fill="#fff" opacity="0.6822801240911428"/><circle cx="142.56386164169848" cy="44.69487114173707" r="0.8229842793249954" fill="#fff" opacity="0.3477834213869142"/><circle cx="1007.4687371513502" cy="72.83854046297225" r="1.4776966804586575" fill="#fff" opacity="0.6542856841008844"/><circle cx="889.9877261207411" cy="233.77952904481896" r="1.5776421505905787" fill="#fff" opacity="0.5788018651257273"/><circle cx="1779.1966406673184" cy="221.47449077607004" r="0.9452261322748907" fill="#fff" opacity="0.6440627968972695"/><circle cx="1811.1063730463168" cy="108.39708678713" r="0.594017547227912" fill="#fff" opacity="0.42474124231951804"/><circle cx="698.3679151670933" cy="70.11892415353071" r="1.749607711040789" fill="#fff" opacity="0.6201295401482213"/><circle cx="1500.5845086790118" cy="250.24484921485296" r="1.6525232498889144" fill="#fff" opacity="0.4456976221515093"/><circle cx="411.6580779318833" cy="55.63001319943695" r="1.3476526684471528" fill="#fff" opacity="0.6065111629680058"/><circle cx="959.107667282016" cy="43.59294048594147" r="1.1105360816257392" fill="#fff" opacity="0.7254134704650876"/><circle cx="443.02376489225395" cy="372.5967300582204" r="1.3627872793848597" fill="#fff" opacity="0.38513159313824297"/><circle cx="1705.866105208608" cy="324.0857617305791" r="1.572587037359501" fill="#fff" opacity="0.3605114923698156"/><circle cx="1392.4710826837625" cy="162.9278817481659" r="1.2753395006934505" fill="#fff" opacity="0.6803260764294132"/><circle cx="1234.1760960114598" cy="92.31930575434102" r="1.2007946362022297" fill="#fff" opacity="0.43593199863935167"/><circle cx="1644.719105000775" cy="380.2006266555285" r="0.9396345056452868" fill="#fff" opacity="0.31088463014710804"/><circle cx="1792.6344881655264" cy="111.81845255936925" r="1.4051639263995839" fill="#fff" opacity="0.6818638618760424"/><circle cx="406.3661291651349" cy="29.03336646711299" r="1.4923844381683469" fill="#fff" opacity="0.3642484429209141"/><circle cx="1183.9430002644524" cy="362.79181381566264" r="0.9663244928154919" fill="#fff" opacity="0.3059138953001038"/><circle cx="214.86795951958464" cy="412.18753896192356" r="1.5397007439843613" fill="#fff" opacity="0.5291768614503501"/><circle cx="1772.087817604674" cy="62.40331311486739" r="0.5615050018675404" fill="#fff" opacity="0.2227973484952928"/><circle cx="1693.6345570752478" cy="44.86909781696021" r="1.5251704742026446" fill="#fff" opacity="0.7167249199740413"/><circle cx="1085.9148858035717" cy="417.7475356612698" r="0.8864462645460027" fill="#fff" opacity="0.6132293870237724"/><circle cx="488.26947447105067" cy="378.40188696477605" r="0.8857257984079714" fill="#fff" opacity="0.347710089093938"/><circle cx="388.5978614698625" cy="94.41935491525088" r="0.9374954111262912" fill="#fff" opacity="0.4939313290859413"/><circle cx="1049.991410917135" cy="327.3780479373825" r="0.9569578351119901" fill="#fff" opacity="0.4628370662831788"/><circle cx="1040.0673229433753" cy="92.45742309010993" r="1.57430369199121" fill="#fff" opacity="0.3386311471319364"/><circle cx="441.22944931528286" cy="289.0771129469101" r="1.170242826144733" fill="#fff" opacity="0.32494195488396616"/><circle cx="1736.7219422330897" cy="425.68439957352456" r="1.6924960564804485" fill="#fff" opacity="0.34103095446271614"/><circle cx="1040.1269359328148" cy="335.44598627450085" r="1.7891590811286957" fill="#fff" opacity="0.6181415383746246"/><circle cx="957.2898680710443" cy="269.9180838907878" r="1.33825024341658" fill="#fff" opacity="0.46803222728614513"/><circle cx="601.2536592691331" cy="219.05465226132765" r="1.5555270610040814" fill="#fff" opacity="0.6720972764007973"/><circle cx="1166.63021189315" cy="398.13471656994307" r="1.4136890790922774" fill="#fff" opacity="0.7691538216940019"/><circle cx="1394.3556988505543" cy="191.73778161400412" r="1.2513209255997373" fill="#fff" opacity="0.37605668748171456"/><circle cx="1893.1915479836034" cy="28.01675721537712" r="0.7231915917301531" fill="#fff" opacity="0.38811644655375654"/><circle cx="807.0363340170674" cy="0.3995063827371938" r="1.8421960271294684" fill="#fff" opacity="0.7084700881290413"/><circle cx="1151.5067569612306" cy="315.9600343285035" r="0.8061704497798743" fill="#fff" opacity="0.3465756514450944"/><circle cx="84.07847242524812" cy="226.66851842838074" r="1.1032268133953276" fill="#fff" opacity="0.30588031083016665"/><circle cx="95.99155651777787" cy="256.103518806422" r="1.3839015299184019" fill="#fff" opacity="0.6108671651247114"/><circle cx="79.82700662683393" cy="117.99742890288992" r="1.064163971358017" fill="#fff" opacity="0.5490763943523812"/><circle cx="1246.4435942392897" cy="145.1807015019424" r="1.0008171852679963" fill="#fff" opacity="0.2531201096375287"/><circle cx="1339.3573597211757" cy="75.31984927396286" r="1.8094519484577356" fill="#fff" opacity="0.26581311017875864"/><circle cx="1728.4307325930406" cy="416.4726533183066" r="0.729861474765898" fill="#fff" opacity="0.22992854752343347"/><circle cx="874.608473832395" cy="131.9737604604973" r="0.8858789144749472" fill="#fff" opacity="0.24641105440594513"/><circle cx="873.8474171408097" cy="161.10706895243075" r="1.8645304372451572" fill="#fff" opacity="0.40894404053896294"/><circle cx="1523.826913294342" cy="280.97704965830246" r="1.3737263304353053" fill="#fff" opacity="0.47588306550771997"/><circle cx="685.5300322281033" cy="275.3125713289046" r="1.7124710844858715" fill="#fff" opacity="0.5594005503131544"/><circle cx="1842.3342923639188" cy="246.43787096963214" r="1.7242723211469764" fill="#fff" opacity="0.459084847816053"/><circle cx="1403.6213045110044" cy="278.96802806643956" r="0.66174038666341" fill="#fff" opacity="0.3839284022301269"/><circle cx="521.1856704673696" cy="52.896657475479095" r="0.747727794397559" fill="#fff" opacity="0.23322482524281946"/><circle cx="1230.428645450256" cy="374.09092804931356" r="1.395463822618002" fill="#fff" opacity="0.5239522340064757"/><circle cx="1168.8261024395065" cy="87.42617176273515" r="0.9545238090107506" fill="#fff" opacity="0.5491803891838483"/><circle cx="1624.9895716516742" cy="381.57484068665065" r="1.4130518571271216" fill="#fff" opacity="0.3925896619429322"/><circle cx="343.76486741559694" cy="118.51370210352208" r="1.31049982849753" fill="#fff" opacity="0.45499650818644943"/><circle cx="874.5327617774095" cy="100.88565498704222" r="0.9847954476682459" fill="#fff" opacity="0.5029954093748228"/><circle cx="971.600232350547" cy="215.3597951138764" r="1.3766499071793281" fill="#fff" opacity="0.2607551943186566"/><circle cx="161.31860692084734" cy="389.9562799385647" r="0.9234730752472471" fill="#fff" opacity="0.3696013498049232"/><circle cx="1027.491801173308" cy="381.38922220035204" r="1.4767123935689945" fill="#fff" opacity="0.37910374719163026"/><circle cx="1410.201032341039" cy="246.6298914529918" r="1.370688071095079" fill="#fff" opacity="0.3396797658269479"/><circle cx="364.3201563610509" cy="353.8413666863556" r="1.9308847717314226" fill="#fff" opacity="0.4873086307866752"/><circle cx="1131.047780777106" cy="249.40285559217514" r="1.1873254290985236" fill="#fff" opacity="0.725580871041301"/><circle cx="6.489914061150028" cy="307.1171762354479" r="0.9854540728231552" fill="#fff" opacity="0.5464024427687755"/><circle cx="1091.9284225562421" cy="381.5088748404544" r="0.6004880569177885" fill="#fff" opacity="0.746469973806867"/><circle cx="298.08440930631116" cy="309.6062549700975" r="1.1820877859560046" fill="#fff" opacity="0.278936450062072"/><circle cx="843.3581898089867" cy="28.676119460881715" r="1.8678476463229972" fill="#fff" opacity="0.6733594032640939"/><circle cx="1541.7146966470673" cy="143.83307624231864" r="0.853423906339664" fill="#fff" opacity="0.7323343435144829"/><circle cx="1598.6291701343443" cy="328.8888619115783" r="1.0785163820438357" fill="#fff" opacity="0.35738060329048443"/><circle cx="962.3728477215332" cy="329.1239781177425" r="1.2504460749333832" fill="#fff" opacity="0.6539307640059691"/><circle cx="1492.0254916446343" cy="46.547606616874134" r="1.0666574073412125" fill="#fff" opacity="0.6158218454140756"/><circle cx="1691.6635263924636" cy="105.59060633405824" r="0.5282568103932442" fill="#fff" opacity="0.23648722456686366"/><circle cx="473.54469012318754" cy="47.1736019140048" r="1.5578044195561214" fill="#fff" opacity="0.6244459632375384"/><rect x="18.103900604905537" y="689.8515806626183" width="31.920649297982607" height="269.56288504171255" fill="#002300" opacity="0.6550525460986077" rx="2"/><rect x="30.486905932306986" y="699.8515806626183" width="7.1546386431797035" height="7.102539533074605" fill="#008000" opacity="0.2847868022007837" rx="1"/><rect x="22.506743607811337" y="703.4028504291556" width="7.1546386431797035" height="7.102539533074605" fill="#38b000" opacity="0.14239340110039184" rx="1"/><rect x="30.474975087557677" y="753.7641576709608" width="7.178500332678319" height="6.851764609304202" fill="#008000" opacity="0.13753581888450678" rx="1"/><rect x="22.49481276306203" y="757.1900399756129" width="7.178500332678319" height="6.851764609304202" fill="#38b000" opacity="0.06876790944225339" rx="1"/><rect x="28.12280963201141" y="807.6767346793033" width="11.882831243770855" height="6.558055956046576" fill="#008000" opacity="0.33826344514690887" rx="1"/><rect x="20.14264730751576" y="810.9557626573265" width="11.882831243770855" height="6.558055956046576" fill="#38b000" opacity="0.16913172257345443" rx="1"/><rect x="29.48518684750543" y="861.5893116876458" width="9.15807681278281" height="7.099375705490675" fill="#008000" opacity="0.3255254209101026" rx="1"/><rect x="21.505024523009784" y="865.1389995403912" width="9.15807681278281" height="7.099375705490675" fill="#38b000" opacity="0.1627627104550513" rx="1"/><rect x="30.106333941944484" y="915.5018886959883" width="7.915782623904707" height="7.262949389699601" fill="#008000" opacity="0.2222870552731415" rx="1"/><rect x="22.126171617448836" y="919.1333633908381" width="7.915782623904707" height="7.262949389699601" fill="#38b000" opacity="0.11114352763657075" rx="1"/><rect x="113.33595639870873" y="589.2920465765735" width="86.43215008462596" height="370.1224191277573" fill="#002300" opacity="0.5624120692867814" rx="2"/><rect x="153.71043917460145" y="599.2920465765735" width="5.683184532840547" height="6.420990483933359" fill="#008000" opacity="0.21544340805044476" rx="1"/><rect x="132.10240165344496" y="602.5025418185402" width="5.683184532840547" height="6.420990483933359" fill="#38b000" opacity="0.10772170402522238" rx="1"/><rect x="153.6785781655178" y="722.6661862858259" width="5.746906551007858" height="8.811042227505483" fill="#008000" opacity="0.5282038518991796" rx="1"/><rect x="132.0705406443613" y="727.0717073995787" width="5.746906551007858" height="8.811042227505483" fill="#38b000" opacity="0.2641019259495898" rx="1"/><rect x="154.06394477865285" y="846.0403259950784" width="4.976173324737738" height="7.427185367193815" fill="#008000" opacity="0.3432917758690407" rx="1"/><rect x="132.45590725749636" y="849.7539186786753" width="4.976173324737738" height="7.427185367193815" fill="#38b000" opacity="0.17164588793452035" rx="1"/><rect x="194.10410385907258" y="771.2267016575734" width="53.73035513882766" height="188.18776404675742" fill="#002300" opacity="0.6724543067795351" rx="2"/><rect x="215.83185437061633" y="781.2267016575734" width="10.27485411574013" height="7.938257316578705" fill="#008000" opacity="0.518973400122247" rx="1"/><rect x="202.39926558590943" y="785.1958303158627" width="10.27485411574013" height="7.938257316578705" fill="#38b000" opacity="0.2594867000611235" rx="1"/><rect x="217.59191369232533" y="828.2736426692627" width="6.754735472322148" height="9.900408802530823" fill="#008000" opacity="0.2884062941391967" rx="1"/><rect x="204.15932490761844" y="833.2238470705281" width="6.754735472322148" height="9.900408802530823" fill="#38b000" opacity="0.14420314706959836" rx="1"/><rect x="216.48718372953292" y="875.320583680952" width="8.964195397906982" height="6.082003887761851" fill="#008000" opacity="0.4850880764390081" rx="1"/><rect x="203.05459494482602" y="878.361585624833" width="8.964195397906982" height="6.082003887761851" fill="#38b000" opacity="0.24254403821950404" rx="1"/><rect x="218.55389869295848" y="922.3675246926414" width="4.830765471055816" height="7.765603821204417" fill="#008000" opacity="0.4968228305216932" rx="1"/><rect x="205.1213099082516" y="926.2503266032436" width="4.830765471055816" height="7.765603821204417" fill="#38b000" opacity="0.2484114152608466" rx="1"/><rect x="311.4788318894521" y="874.21653497131" width="61.1046565303357" height="85.19793073302087" fill="#002300" opacity="0.5865498620054103" rx="2"/><rect x="338.60309061678197" y="884.21653497131" width="6.856139075676012" height="6.072219197655148" fill="#008000" opacity="0.3790908695382743" rx="1"/><rect x="323.32692648419805" y="887.2526445701376" width="6.856139075676012" height="6.072219197655148" fill="#38b000" opacity="0.18954543476913716" rx="1"/><rect x="336.26171543944196" y="896.3876679331702" width="11.538889430355955" height="8.635753644312675" fill="#008000" opacity="0.4698284042463239" rx="1"/><rect x="320.98555130685804" y="900.7055447553265" width="11.538889430355955" height="8.635753644312675" fill="#38b000" opacity="0.23491420212316194" rx="1"/><rect x="339.95646008219484" y="908.5588008950302" width="4.14940014485023" height="7.434989564454879" fill="#008000" opacity="0.5449682923604194" rx="1"/><rect x="324.6802959496109" y="912.2762956772576" width="4.14940014485023" height="7.434989564454879" fill="#38b000" opacity="0.2724841461802097" rx="1"/><rect x="336.1232987263061" y="920.7299338568904" width="11.815722856627712" height="7.851711812860265" fill="#008000" opacity="0.42063413034673647" rx="1"/><rect x="320.84713459372216" y="924.6557897633205" width="11.815722856627712" height="7.851711812860265" fill="#38b000" opacity="0.21031706517336823" rx="1"/><rect x="339.5769144586699" y="932.9010668187505" width="4.90849139190011" height="8.399102864414244" fill="#008000" opacity="0.24122584919473758" rx="1"/><rect x="324.30075032608596" y="937.1006182509576" width="4.90849139190011" height="8.399102864414244" fill="#38b000" opacity="0.12061292459736879" rx="1"/><rect x="336.44841449275805" y="945.0721997806106" width="11.165491323723806" height="8.988074606048892" fill="#008000" opacity="0.5918263656999512" rx="1"/><rect x="321.17225036017413" y="949.5662370836351" width="11.165491323723806" height="8.988074606048892" fill="#38b000" opacity="0.2959131828499756" rx="1"/><rect x="337.1821680586278" y="957.2433327424708" width="9.6979841919844" height="9.819590137298123" fill="#008000" opacity="0.49476714630023744" rx="1"/><rect x="321.90600392604387" y="962.1531278111198" width="9.6979841919844" height="9.819590137298123" fill="#38b000" opacity="0.24738357315011872" rx="1"/><rect x="397.6866655302436" y="616.2103752294114" width="44.07918314777295" height="343.20409047491944" fill="#002300" opacity="0.4794645503348356" rx="2"/><rect x="416.02931910684083" y="626.2103752294114" width="7.3938759945784405" height="6.912194059442774" fill="#008000" opacity="0.37486953576441606" rx="1"/><rect x="405.0095233198976" y="629.6664722591328" width="7.3938759945784405" height="6.912194059442774" fill="#38b000" opacity="0.18743476788220803" rx="1"/><rect x="416.35517888268345" y="712.0113978481413" width="6.74215644289324" height="7.823031130671276" fill="#008000" opacity="0.23493430547763927" rx="1"/><rect x="405.3353830957402" y="715.922913413477" width="6.74215644289324" height="7.823031130671276" fill="#38b000" opacity="0.11746715273881964" rx="1"/><rect x="417.5004600674148" y="797.8124204668711" width="4.451594073430541" height="6.889743888957832" fill="#008000" opacity="0.49247216537885186" rx="1"/><rect x="406.48066428047156" y="801.25729241135" width="4.451594073430541" height="6.889743888957832" fill="#38b000" opacity="0.24623608268942593" rx="1"/><rect x="414.34005993961824" y="883.6134430856009" width="10.77239432902364" height="9.809777329631563" fill="#008000" opacity="0.5648930817993575" rx="1"/><rect x="403.320264152675" y="888.5183317504167" width="10.77239432902364" height="9.809777329631563" fill="#38b000" opacity="0.28244654089967874" rx="1"/><rect x="485.01632271916986" y="644.7421866456843" width="41.84978951975931" height="314.6722790586465" fill="#003d00" opacity="0.5299138046637908" rx="2"/><rect x="501.953947512655" y="654.7421866456843" width="7.974539932788941" height="9.046652115659475" fill="#008000" opacity="0.21898302580671922" rx="1"/><rect x="491.4915001327152" y="659.2655127035141" width="7.974539932788941" height="9.046652115659475" fill="#38b000" opacity="0.10949151290335961" rx="1"/><rect x="502.36170988282225" y="694.0762215280151" width="7.159015192454452" height="7.341512221224027" fill="#008000" opacity="0.4591789054589297" rx="1"/><rect x="491.89926250288244" y="697.7469776386272" width="7.159015192454452" height="7.341512221224027" fill="#38b000" opacity="0.22958945272946485" rx="1"/><rect x="503.36416406518873" y="733.4102564103459" width="5.15410682772149" height="7.660410832068979" fill="#008000" opacity="0.5584881774984506" rx="1"/><rect x="492.9017166852489" y="737.2404618263804" width="5.15410682772149" height="7.660410832068979" fill="#38b000" opacity="0.2792440887492253" rx="1"/><rect x="500.1603277174663" y="772.7442912926767" width="11.561779523166312" height="9.968938888043384" fill="#008000" opacity="0.38808689345328296" rx="1"/><rect x="489.6978803375265" y="777.7287607366984" width="11.561779523166312" height="9.968938888043384" fill="#38b000" opacity="0.19404344672664148" rx="1"/><rect x="503.9165594016473" y="812.0783261750075" width="4.049316154804387" height="7.1867226914471765" fill="#008000" opacity="0.3962884979313911" rx="1"/><rect x="493.4541120217075" y="815.6716875207311" width="4.049316154804387" height="7.1867226914471765" fill="#38b000" opacity="0.19814424896569555" rx="1"/><rect x="500.9163670819058" y="851.4123610573383" width="10.049700794287421" height="7.858679415159552" fill="#008000" opacity="0.589016538716158" rx="1"/><rect x="490.45391970196596" y="855.3417007649181" width="10.049700794287421" height="7.858679415159552" fill="#38b000" opacity="0.294508269358079" rx="1"/><rect x="502.70100373162444" y="890.7463959396692" width="6.480427494850109" height="7.467024209319387" fill="#008000" opacity="0.2268970456735457" rx="1"/><rect x="492.2385563516846" y="894.4799080443289" width="6.480427494850109" height="7.467024209319387" fill="#38b000" opacity="0.11344852283677286" rx="1"/><rect x="503.4744108138779" y="930.080430822" width="4.933613330343182" height="9.964801456771045" fill="#008000" opacity="0.4404459959921534" rx="1"/><rect x="493.0119634339381" y="935.0628315503856" width="4.933613330343182" height="9.964801456771045" fill="#38b000" opacity="0.2202229979960767" rx="1"/><rect x="584.3387892689414" y="828.4706961313427" width="82.52677383658634" height="130.9437695729881" fill="#003d00" opacity="0.6700160802272186" rx="2"/><rect x="621.7723025038773" y="838.4706961313427" width="7.659747366714233" height="7.070632441218624" fill="#008000" opacity="0.401529762405327" rx="1"/><rect x="601.1406090447308" y="842.006012351952" width="7.659747366714233" height="7.070632441218624" fill="#38b000" opacity="0.2007648812026635" rx="1"/><rect x="621.2663780786717" y="857.1769489274839" width="8.671596217125561" height="8.91918880374152" fill="#008000" opacity="0.5357978938929266" rx="1"/><rect x="600.6346846195252" y="861.6365433293546" width="8.671596217125561" height="8.91918880374152" fill="#38b000" opacity="0.2678989469464633" rx="1"/><rect x="621.404283414689" y="875.883201723625" width="8.395785545091094" height="8.170155046081671" fill="#008000" opacity="0.2924389414937326" rx="1"/><rect x="600.7725899555425" y="879.9682792466658" width="8.395785545091094" height="8.170155046081671" fill="#38b000" opacity="0.1462194707468663" rx="1"/><rect x="621.4419468307034" y="894.5894545197662" width="8.320458713062214" height="7.010304300349742" fill="#008000" opacity="0.211905463764422" rx="1"/><rect x="600.8102533715569" y="898.0946066699411" width="8.320458713062214" height="7.010304300349742" fill="#38b000" opacity="0.105952731882211" rx="1"/><rect x="621.6897606683638" y="913.2957073159073" width="7.8248310377413475" height="8.553503770975746" fill="#008000" opacity="0.5597987619833552" rx="1"/><rect x="601.0580672092173" y="917.5724592013952" width="7.8248310377413475" height="8.553503770975746" fill="#38b000" opacity="0.2798993809916776" rx="1"/><rect x="619.8237325481194" y="932.0019601120484" width="11.556887278230136" height="7.173224094596977" fill="#008000" opacity="0.5313831631865779" rx="1"/><rect x="599.1920390889729" y="935.5885721593469" width="11.556887278230136" height="7.173224094596977" fill="#38b000" opacity="0.26569158159328893" rx="1"/><rect x="622.7884745667196" y="950.7082129081896" width="5.627403241029802" height="7.60520671811076" fill="#008000" opacity="0.529724722385808" rx="1"/><rect x="602.1567811075731" y="954.510816267245" width="5.627403241029802" height="7.60520671811076" fill="#38b000" opacity="0.264862361192904" rx="1"/><rect x="696.6174684736453" y="668.7493840741807" width="45.95156844145422" height="290.6650816301501" fill="#003d00" opacity="0.5670348082592327" rx="2"/><rect x="715.2922503627586" y="678.7493840741807" width="8.602004663227593" height="7.951019500836502" fill="#008000" opacity="0.1720197356008039" rx="1"/><rect x="703.8043582523951" y="682.724893824599" width="8.602004663227593" height="7.951019500836502" fill="#38b000" opacity="0.08600986780040196" rx="1"/><rect x="716.1015457341218" y="775.6377446175641" width="6.9834139205011105" height="8.961462774072183" fill="#008000" opacity="0.47639614331452085" rx="1"/><rect x="704.6136536237583" y="780.1184760046002" width="6.9834139205011105" height="8.961462774072183" fill="#38b000" opacity="0.23819807165726042" rx="1"/><rect x="713.6562312069946" y="872.5261051609475" width="11.874042974755643" height="6.925778065092344" fill="#008000" opacity="0.22170495992100447" rx="1"/><rect x="702.168339096631" y="875.9889941934937" width="11.874042974755643" height="6.925778065092344" fill="#38b000" opacity="0.11085247996050224" rx="1"/><rect x="776.5603842764535" y="654.5529829581624" width="39.22020434150943" height="304.8614827461684" fill="#003d00" opacity="0.4661314624050007" rx="2"/><rect x="790.7010294840908" y="664.5529829581624" width="10.938913926235148" height="6.618437049123095" fill="#008000" opacity="0.4545483393488797" rx="1"/><rect x="780.8959783987134" y="667.8622014827239" width="10.938913926235148" height="6.618437049123095" fill="#38b000" opacity="0.22727416967443986" rx="1"/><rect x="791.5426634923888" y="708.1046233504721" width="9.255645909638993" height="8.899290037085137" fill="#008000" opacity="0.11789536595295541" rx="1"/><rect x="781.7376124070114" y="712.5542683690147" width="9.255645909638993" height="8.899290037085137" fill="#38b000" opacity="0.058947682976477705" rx="1"/><rect x="793.7298896272505" y="751.6562637427819" width="4.881193639915715" height="9.981463829982435" fill="#008000" opacity="0.2688783012025241" rx="1"/><rect x="783.9248385418731" y="756.6469956577731" width="4.881193639915715" height="9.981463829982435" fill="#38b000" opacity="0.13443915060126205" rx="1"/><rect x="793.1932920036357" y="795.2079041350917" width="5.954388887145181" height="7.740140869687345" fill="#008000" opacity="0.3437784076304591" rx="1"/><rect x="783.3882409182584" y="799.0779745699353" width="5.954388887145181" height="7.740140869687345" fill="#38b000" opacity="0.17188920381522954" rx="1"/><rect x="793.8434697582488" y="838.7595445274014" width="4.654033377918888" height="7.3562023624210156" fill="#008000" opacity="0.32231033356448413" rx="1"/><rect x="784.0384186728714" y="842.437645708612" width="4.654033377918888" height="7.3562023624210156" fill="#38b000" opacity="0.16115516678224207" rx="1"/><rect x="791.0717900339682" y="882.3111849197112" width="10.197392826480183" height="8.818115478106336" fill="#008000" opacity="0.533821815283462" rx="1"/><rect x="781.2667389485908" y="886.7202426587644" width="10.197392826480183" height="8.818115478106336" fill="#38b000" opacity="0.266910907641731" rx="1"/><rect x="790.2315573541522" y="925.862825312021" width="11.877858186112217" height="8.093117855976596" fill="#008000" opacity="0.26714117121117686" rx="1"/><rect x="780.4265062687748" y="929.9093842400092" width="11.877858186112217" height="8.093117855976596" fill="#38b000" opacity="0.13357058560558843" rx="1"/><rect x="867.5808746944138" y="712.8671608778805" width="81.23477389831905" height="246.54730482645036" fill="#003d00" opacity="0.43796748612960046" rx="2"/><rect x="905.8808691564204" y="722.8671608778805" width="4.6347849743056075" height="7.735385360600284" fill="#008000" opacity="0.5933154993907818" rx="1"/><rect x="885.5721756818407" y="726.7348535581806" width="4.6347849743056075" height="7.735385360600284" fill="#38b000" opacity="0.2966577496953909" rx="1"/><rect x="904.4031748886694" y="805.0495958200306" width="7.590173509807832" height="6.920752297369939" fill="#008000" opacity="0.17854650439195022" rx="1"/><rect x="884.0944814140896" y="808.5099719687156" width="7.590173509807832" height="6.920752297369939" fill="#38b000" opacity="0.08927325219597511" rx="1"/><rect x="906.1488202929378" y="887.2320307621807" width="4.098882701270954" height="9.739078619456635" fill="#008000" opacity="0.2755853490148637" rx="1"/><rect x="885.840126818358" y="892.101570071909" width="4.098882701270954" height="9.739078619456635" fill="#38b000" opacity="0.13779267450743185" rx="1"/><rect x="966.9888209754109" y="619.7755242161861" width="41.321700255228606" height="339.63894148814467" fill="#003d00" opacity="0.6529490803258841" rx="2"/><rect x="985.1874939669359" y="629.7755242161861" width="4.924354272178457" height="8.086239354239368" fill="#008000" opacity="0.43077829746314755" rx="1"/><rect x="974.8570689031288" y="633.8186438933058" width="4.924354272178457" height="8.086239354239368" fill="#38b000" opacity="0.21538914873157378" rx="1"/><rect x="982.7265395637895" y="714.6852595882223" width="9.846263078471242" height="8.693075177886774" fill="#008000" opacity="0.4922011869475714" rx="1"/><rect x="972.3961144999824" y="719.0317971771657" width="9.846263078471242" height="8.693075177886774" fill="#38b000" opacity="0.2461005934737857" rx="1"/><rect x="981.7313621371824" y="799.5949949602584" width="11.836617931685554" height="8.048183271206959" fill="#008000" opacity="0.29826327478472686" rx="1"/><rect x="971.4009370733753" y="803.6190865958619" width="11.836617931685554" height="8.048183271206959" fill="#38b000" opacity="0.14913163739236343" rx="1"/><rect x="985.189553892284" y="884.5047303322947" width="4.920234421482364" height="7.956631851838117" fill="#008000" opacity="0.4887231915464446" rx="1"/><rect x="974.859128828477" y="888.4830462582138" width="4.920234421482364" height="7.956631851838117" fill="#38b000" opacity="0.2443615957732223" rx="1"/><rect x="1080.4256681144298" y="698.4065873195433" width="86.35930733670465" height="261.00787838478755" fill="#002300" opacity="0.4206966581802575" rx="2"/><rect x="1120.9873863616929" y="708.4065873195433" width="5.235870842178322" height="6.662811479685551" fill="#008000" opacity="0.3423661366902213" rx="1"/><rect x="1099.3975595275167" y="711.7379930593861" width="5.235870842178322" height="6.662811479685551" fill="#38b000" opacity="0.17118306834511066" rx="1"/><rect x="1119.6758431295575" y="741.0325721176417" width="7.858957306449058" height="8.34673990829539" fill="#008000" opacity="0.11023858716018466" rx="1"/><rect x="1098.0860162953813" y="745.2059420717894" width="7.858957306449058" height="8.34673990829539" fill="#38b000" opacity="0.05511929358009233" rx="1"/><rect x="1118.1118972741795" y="773.6585569157402" width="10.98684901720538" height="8.200012439442801" fill="#008000" opacity="0.467647458884783" rx="1"/><rect x="1096.5220704400033" y="777.7585631354616" width="10.98684901720538" height="8.200012439442801" fill="#38b000" opacity="0.2338237294423915" rx="1"/><rect x="1118.8652181564516" y="806.2845417138386" width="9.480207252660815" height="7.357387110906976" fill="#008000" opacity="0.4004132803297633" rx="1"/><rect x="1097.2753913222755" y="809.9632352692921" width="9.480207252660815" height="7.357387110906976" fill="#38b000" opacity="0.20020664016488166" rx="1"/><rect x="1118.3992072114254" y="838.9105265119371" width="10.412229142713414" height="9.099065533629402" fill="#008000" opacity="0.49022738937992305" rx="1"/><rect x="1096.8093803772492" y="843.4600592787517" width="10.412229142713414" height="9.099065533629402" fill="#38b000" opacity="0.24511369468996153" rx="1"/><rect x="1117.8169370230328" y="871.5365113100355" width="11.57676951949875" height="7.836483587938473" fill="#008000" opacity="0.5551934121305108" rx="1"/><rect x="1096.2271101888566" y="875.4547531040048" width="11.57676951949875" height="7.836483587938473" fill="#38b000" opacity="0.2775967060652554" rx="1"/><rect x="1119.8647143167595" y="904.162496108134" width="7.481214932045251" height="8.265105599133555" fill="#008000" opacity="0.5011763235091177" rx="1"/><rect x="1098.2748874825834" y="908.2950489077007" width="7.481214932045251" height="8.265105599133555" fill="#38b000" opacity="0.25058816175455884" rx="1"/><rect x="1117.8280062006852" y="936.7884809062324" width="11.554631164193765" height="9.506565147895962" fill="#008000" opacity="0.38309028020200564" rx="1"/><rect x="1096.238179366509" y="941.5417634801804" width="11.554631164193765" height="9.506565147895962" fill="#38b000" opacity="0.19154514010100282" rx="1"/><rect x="1155.1565631910125" y="647.3070316941727" width="34.770708620727696" height="312.10743401015816" fill="#002300" opacity="0.5100862957094997" rx="2"/><rect x="1169.9265909495127" y="657.3070316941727" width="5.2306531037275334" height="7.085162493652935" fill="#008000" opacity="0.28825383232632973" rx="1"/><rect x="1161.2339137943306" y="660.8496129409991" width="5.2306531037275334" height="7.085162493652935" fill="#38b000" opacity="0.14412691616316486" rx="1"/><rect x="1169.1177200116492" y="735.3338901967122" width="6.848394979454669" height="9.780178108201405" fill="#008000" opacity="0.43869541269696677" rx="1"/><rect x="1160.4250428564671" y="740.2239792508129" width="6.848394979454669" height="9.780178108201405" fill="#38b000" opacity="0.21934770634848338" rx="1"/><rect x="1167.6540341830473" y="813.3607486992518" width="9.775766636658407" height="8.843018183215293" fill="#008000" opacity="0.32305805543974464" rx="1"/><rect x="1158.9613570278652" y="817.7822577908594" width="9.775766636658407" height="8.843018183215293" fill="#38b000" opacity="0.16152902771987232" rx="1"/><rect x="1167.0043640718807" y="891.3876072017913" width="11.07510685899181" height="7.151538795128357" fill="#008000" opacity="0.2890685812544703" rx="1"/><rect x="1158.3116869166986" y="894.9633765993555" width="11.07510685899181" height="7.151538795128357" fill="#38b000" opacity="0.14453429062723516" rx="1"/><rect x="1277.8999718483306" y="632.7143517981084" width="72.29932078679542" height="326.70011390622244" fill="#002300" opacity="0.5912102223819146" rx="2"/><rect x="1309.3572640559537" y="642.7143517981084" width="9.384736371549018" height="8.156245708967617" fill="#008000" opacity="0.11130576059485454" rx="1"/><rect x="1291.282433859255" y="646.7924746525922" width="9.384736371549018" height="8.156245708967617" fill="#38b000" opacity="0.05565288029742727" rx="1"/><rect x="1311.5941287033713" y="683.5518660363862" width="4.911007076713957" height="8.197372372773795" fill="#008000" opacity="0.5077322563174489" rx="1"/><rect x="1293.5192985066726" y="687.6505522227731" width="4.911007076713957" height="8.197372372773795" fill="#38b000" opacity="0.25386612815872445" rx="1"/><rect x="1310.8016078019984" y="724.3893802746641" width="6.4960488794595115" height="8.034746105325116" fill="#008000" opacity="0.47344468649789806" rx="1"/><rect x="1292.7267776052997" y="728.4067533273267" width="6.4960488794595115" height="8.034746105325116" fill="#38b000" opacity="0.23672234324894903" rx="1"/><rect x="1310.6780879110281" y="765.2268945129418" width="6.743088661400389" height="8.07536753129106" fill="#008000" opacity="0.2959609310598953" rx="1"/><rect x="1292.6032577143294" y="769.2645782785874" width="6.743088661400389" height="8.07536753129106" fill="#38b000" opacity="0.14798046552994765" rx="1"/><rect x="1311.1958769658106" y="806.0644087512196" width="5.707510551835297" height="8.061889051008478" fill="#008000" opacity="0.141323191728751" rx="1"/><rect x="1293.121046769112" y="810.0953532767238" width="5.707510551835297" height="8.061889051008478" fill="#38b000" opacity="0.0706615958643755" rx="1"/><rect x="1309.7640719834633" y="846.9019229894974" width="8.571120516530033" height="7.930383035431239" fill="#008000" opacity="0.2413252309759439" rx="1"/><rect x="1291.6892417867646" y="850.867114507213" width="8.571120516530033" height="7.930383035431239" fill="#38b000" opacity="0.12066261548797196" rx="1"/><rect x="1311.3508259715397" y="887.7394372277752" width="5.397612540376748" height="9.554019948363774" fill="#008000" opacity="0.14083970667348236" rx="1"/><rect x="1293.275995774841" y="892.516447201957" width="5.397612540376748" height="9.554019948363774" fill="#38b000" opacity="0.07041985333674118" rx="1"/><rect x="1309.6028691131164" y="928.5769514660531" width="8.893526257223805" height="6.107227190422646" fill="#008000" opacity="0.40523160561109695" rx="1"/><rect x="1291.5280389164177" y="931.6305650612644" width="8.893526257223805" height="6.107227190422646" fill="#38b000" opacity="0.20261580280554847" rx="1"/><rect x="1365.5898159499257" y="722.6326883473976" width="47.661079987338994" height="236.78177735693328" fill="#003d00" opacity="0.6003118574387188" rx="2"/><rect x="1383.5365784136895" y="732.6326883473976" width="11.767555059810997" height="7.692927576064348" fill="#008000" opacity="0.4716936203119563" rx="1"/><rect x="1371.6213084168548" y="736.4791521354298" width="11.767555059810997" height="7.692927576064348" fill="#38b000" opacity="0.23584681015597814" rx="1"/><rect x="1383.6338883393057" y="779.9890438187842" width="11.572935208578812" height="8.135145333161379" fill="#008000" opacity="0.18873111477325" rx="1"/><rect x="1371.718618342471" y="784.0566164853649" width="11.572935208578812" height="8.135145333161379" fill="#38b000" opacity="0.094365557386625" rx="1"/><rect x="1385.6286492339866" y="827.3453992901709" width="7.583413419216734" height="9.96915719936815" fill="#008000" opacity="0.3865490156194542" rx="1"/><rect x="1373.713379237152" y="832.329977889855" width="7.583413419216734" height="9.96915719936815" fill="#38b000" opacity="0.1932745078097271" rx="1"/><rect x="1386.2456393747696" y="874.7017547615576" width="6.349433137650935" height="8.65373988231964" fill="#008000" opacity="0.37464079036718256" rx="1"/><rect x="1374.3303693779349" y="879.0286247027174" width="6.349433137650935" height="8.65373988231964" fill="#38b000" opacity="0.18732039518359128" rx="1"/><rect x="1385.565893172418" y="922.0581102329442" width="7.708925542353867" height="6.111667449612093" fill="#008000" opacity="0.15047986087167634" rx="1"/><rect x="1373.6506231755834" y="925.1139439577502" width="7.708925542353867" height="6.111667449612093" fill="#38b000" opacity="0.07523993043583817" rx="1"/><rect x="1449.1014304266082" y="727.1439740613904" width="47.61708101667861" height="232.27049164294044" fill="#002300" opacity="0.5713039787186552" rx="2"/><rect x="1468.297285398305" y="737.1439740613904" width="9.225371073285437" height="6.7482454610868" fill="#008000" opacity="0.4458835023562153" rx="1"/><rect x="1456.3930151441352" y="740.5180967919338" width="9.225371073285437" height="6.7482454610868" fill="#38b000" opacity="0.22294175117810766" rx="1"/><rect x="1468.2828944780126" y="766.1777855167579" width="9.25415291386986" height="9.900714943162331" fill="#008000" opacity="0.5546934947033165" rx="1"/><rect x="1456.378624223843" y="771.128142988339" width="9.25415291386986" height="9.900714943162331" fill="#38b000" opacity="0.27734674735165826" rx="1"/><rect x="1468.8661494105743" y="795.2115969721256" width="8.087643048746429" height="9.128659312410434" fill="#008000" opacity="0.29355344532373207" rx="1"/><rect x="1456.9618791564046" y="799.7759266283308" width="8.087643048746429" height="9.128659312410434" fill="#38b000" opacity="0.14677672266186603" rx="1"/><rect x="1470.7136188740176" y="824.2454084274931" width="4.392704121859908" height="7.824185799300714" fill="#008000" opacity="0.5183965009680009" rx="1"/><rect x="1458.809348619848" y="828.1575013271434" width="4.392704121859908" height="7.824185799300714" fill="#38b000" opacity="0.25919825048400047" rx="1"/><rect x="1469.7638863904317" y="853.2792198828606" width="6.292169089031445" height="9.452286969742804" fill="#008000" opacity="0.1725845458387827" rx="1"/><rect x="1457.859616136262" y="858.005363367732" width="6.292169089031445" height="9.452286969742804" fill="#38b000" opacity="0.08629227291939134" rx="1"/><rect x="1469.5207826878225" y="882.3130313382281" width="6.778376494249882" height="9.177904499503295" fill="#008000" opacity="0.519155839811814" rx="1"/><rect x="1457.6165124336528" y="886.9019835879798" width="6.778376494249882" height="9.177904499503295" fill="#38b000" opacity="0.259577919905907" rx="1"/><rect x="1468.6939889527146" y="911.3468427935957" width="8.431963964465996" height="7.879849653197417" fill="#008000" opacity="0.35082738226066046" rx="1"/><rect x="1456.789718698545" y="915.2867676201944" width="8.431963964465996" height="7.879849653197417" fill="#38b000" opacity="0.17541369113033023" rx="1"/><rect x="1467.157480198461" y="940.3806542489633" width="11.504981472973009" height="9.283901446332202" fill="#008000" opacity="0.5307203469636664" rx="1"/><rect x="1455.2532099442913" y="945.0226049721294" width="11.504981472973009" height="9.283901446332202" fill="#38b000" opacity="0.2653601734818332" rx="1"/><rect x="1539.8954781074765" y="667.0501336262213" width="46.06257089322027" height="292.36433207810956" fill="#002300" opacity="0.5572206876839559" rx="2"/><rect x="1559.6564771790654" y="677.0501336262213" width="6.540572750042326" height="6.189574966251286" fill="#008000" opacity="0.24816266441442136" rx="1"/><rect x="1548.1408344557603" y="680.1449211093469" width="6.540572750042326" height="6.189574966251286" fill="#38b000" opacity="0.12408133220721068" rx="1"/><rect x="1557.7905259916536" y="750.1412166457487" width="10.272475124865881" height="8.573450680489989" fill="#008000" opacity="0.5638927295952786" rx="1"/><rect x="1546.2748832683485" y="754.4279419859937" width="10.272475124865881" height="8.573450680489989" fill="#38b000" opacity="0.2819463647976393" rx="1"/><rect x="1560.3019445518269" y="823.2322996652761" width="5.249638004519427" height="9.393566981748112" fill="#008000" opacity="0.23680369305349974" rx="1"/><rect x="1548.7863018285218" y="827.9290831561501" width="5.249638004519427" height="9.393566981748112" fill="#38b000" opacity="0.11840184652674987" rx="1"/><rect x="1558.1763739085702" y="896.3233826848034" width="9.500779291032995" height="8.488896299733057" fill="#008000" opacity="0.5905690927967823" rx="1"/><rect x="1546.6607311852651" y="900.56783083467" width="9.500779291032995" height="8.488896299733057" fill="#38b000" opacity="0.29528454639839113" rx="1"/><rect x="1654.9409028782836" y="850.7923548577336" width="65.97530891093783" height="108.62211084659725" fill="#002300" opacity="0.5823694203473557" rx="2"/><rect x="1684.928361862881" y="860.7923548577336" width="6.000390941742898" height="9.178613311419872" fill="#008000" opacity="0.4570091025570895" rx="1"/><rect x="1668.4345346351467" y="865.3816615134435" width="6.000390941742898" height="9.178613311419872" fill="#38b000" opacity="0.22850455127854474" rx="1"/><rect x="1684.9159071733977" y="876.3097992643903" width="6.025300320709427" height="8.26545101922598" fill="#008000" opacity="0.5107137920592711" rx="1"/><rect x="1668.4220799456634" y="880.4425247740033" width="6.025300320709427" height="8.26545101922598" fill="#38b000" opacity="0.25535689602963557" rx="1"/><rect x="1684.3321196975492" y="891.8272436710471" width="7.192875272406469" height="8.527968018904321" fill="#008000" opacity="0.5318742679739078" rx="1"/><rect x="1667.8382924698149" y="896.0912276804993" width="7.192875272406469" height="8.527968018904321" fill="#38b000" opacity="0.2659371339869539" rx="1"/><rect x="1683.6893592259587" y="907.3446880777038" width="8.47839621558748" height="6.015612444844007" fill="#008000" opacity="0.2968659310827185" rx="1"/><rect x="1667.1955319982244" y="910.3524943001258" width="8.47839621558748" height="6.015612444844007" fill="#38b000" opacity="0.14843296554135926" rx="1"/><rect x="1682.2706287515512" y="922.8621324843606" width="11.315857164402459" height="6.888669490089796" fill="#008000" opacity="0.3359193002888745" rx="1"/><rect x="1665.7768015238169" y="926.3064672294055" width="11.315857164402459" height="6.888669490089796" fill="#38b000" opacity="0.16795965014443726" rx="1"/><rect x="1685.598237693449" y="938.3795768910173" width="4.660639280607142" height="7.527811383252919" fill="#008000" opacity="0.26367776847064445" rx="1"/><rect x="1669.1044104657146" y="942.1434825826437" width="4.660639280607142" height="7.527811383252919" fill="#38b000" opacity="0.13183888423532222" rx="1"/><rect x="1685.5369007458296" y="953.8970212976741" width="4.7833131758457315" height="9.728993312392614" fill="#008000" opacity="0.5763207322629915" rx="1"/><rect x="1669.0430735180953" y="958.7615179538703" width="4.7833131758457315" height="9.728993312392614" fill="#38b000" opacity="0.28816036613149576" rx="1"/><rect x="1738.3783213767172" y="715.5291245238691" width="70.78519527353001" height="243.88534118046178" fill="#003d00" opacity="0.41134274683691163" rx="2"/><rect x="1771.7522156682685" y="725.5291245238691" width="4.03740669042743" height="6.087583686245509" fill="#008000" opacity="0.47233684476752225" rx="1"/><rect x="1754.055916849886" y="728.5729163669919" width="4.03740669042743" height="6.087583686245509" fill="#38b000" opacity="0.23616842238376112" rx="1"/><rect x="1769.3030372225453" y="786.5004598189845" width="8.935763581873793" height="8.419170975317055" fill="#008000" opacity="0.12074452583229742" rx="1"/><rect x="1751.6067384041628" y="790.710045306643" width="8.935763581873793" height="8.419170975317055" fill="#38b000" opacity="0.06037226291614871" rx="1"/><rect x="1771.1088034170932" y="847.4717951141" width="5.324231192777918" height="9.159564338428797" fill="#008000" opacity="0.3577652430063498" rx="1"/><rect x="1753.4125045987107" y="852.0515772833144" width="5.324231192777918" height="9.159564338428797" fill="#38b000" opacity="0.1788826215031749" rx="1"/><rect x="1769.662820001287" y="908.4431304092154" width="8.216198024390312" height="6.220937142200055" fill="#008000" opacity="0.30427790556668255" rx="1"/><rect x="1751.9665211829044" y="911.5535989803154" width="8.216198024390312" height="6.220937142200055" fill="#38b000" opacity="0.15213895278334127" rx="1"/><rect x="1835.90832595851" y="788.6445890503574" width="40.49581404088433" height="170.76987665397345" fill="#003d00" opacity="0.5993143853264196" rx="2"/><rect x="1854.132638248413" y="798.6445890503574" width="4.047189461078306" height="8.943562428221004" fill="#008000" opacity="0.20716004055160098" rx="1"/><rect x="1844.008684738192" y="803.1163702644678" width="4.047189461078306" height="8.943562428221004" fill="#38b000" opacity="0.10358002027580049" rx="1"/><rect x="1851.3480529692833" y="819.990823632104" width="9.61636001933747" height="9.482048363304242" fill="#008000" opacity="0.20457163318166782" rx="1"/><rect x="1841.2240994590622" y="824.7318478137562" width="9.61636001933747" height="9.482048363304242" fill="#38b000" opacity="0.10228581659083391" rx="1"/><rect x="1850.7753044142796" y="841.3370582138507" width="10.761857129345149" height="8.04312029435372" fill="#008000" opacity="0.1672994073404231" rx="1"/><rect x="1840.6513509040585" y="845.3586183610275" width="10.761857129345149" height="8.04312029435372" fill="#38b000" opacity="0.08364970367021154" rx="1"/><rect x="1850.5501784420455" y="862.6832927955974" width="11.2121090738131" height="6.4487094889508345" fill="#008000" opacity="0.13912369477076542" rx="1"/><rect x="1840.4262249318244" y="865.9076475400727" width="11.2121090738131" height="6.4487094889508345" fill="#38b000" opacity="0.06956184738538271" rx="1"/><rect x="1850.3489073830071" y="884.029527377344" width="11.614651191889926" height="6.774925735959533" fill="#008000" opacity="0.5850277955376142" rx="1"/><rect x="1840.224953872786" y="887.4169902453239" width="11.614651191889926" height="6.774925735959533" fill="#38b000" opacity="0.2925138977688071" rx="1"/><rect x="1850.9526545675362" y="905.3757619590908" width="10.407156822832105" height="7.884462341173659" fill="#008000" opacity="0.3453733742575565" rx="1"/><rect x="1840.8287010573151" y="909.3179931296777" width="10.407156822832105" height="7.884462341173659" fill="#38b000" opacity="0.17268668712877824" rx="1"/><rect x="1851.9587380478529" y="926.7219965408374" width="8.394989862198706" height="8.097947408002323" fill="#008000" opacity="0.22781982790395147" rx="1"/><rect x="1841.8347845376318" y="930.7709702448385" width="8.394989862198706" height="8.097947408002323" fill="#38b000" opacity="0.11390991395197574" rx="1"/><rect x="1850.756263729128" y="948.0682311225842" width="10.79993849964811" height="6.210376310211228" fill="#008000" opacity="0.35323271326563155" rx="1"/><rect x="1840.632310218907" y="951.1734192776897" width="10.79993849964811" height="6.210376310211228" fill="#38b000" opacity="0.17661635663281577" rx="1"/><rect x="0" y="1000" width="1920" height="80" fill="#001700" opacity="0.8"/><line x1="0" y1="1040" x2="1920" y2="1040" stroke="#008000" stroke-opacity="0.15" stroke-width="2" stroke-dasharray="30,20"/><rect x="0" y="930" width="1920" height="150" fill="url(#glow96)"/><rect x="0" y="980" width="1920" height="100" fill="#008000" opacity="0.04"/><rect x="1612.5469618319876" y="1017.268682657105" width="93.14939414457172" height="2" fill="#38b000" opacity="0.05186769714389641" rx="1"/><rect x="7.304615827115397" y="1028.626183892746" width="87.22938254643915" height="2" fill="#38b000" opacity="0.05725194788473936" rx="1"/><rect x="322.2001268719789" y="1056.0327180326062" width="50.00245264964235" height="2" fill="#38b000" opacity="0.03596319083496072" rx="1"/><rect x="750.9255285819354" y="1030.6005596394186" width="29.349127930903137" height="2" fill="#38b000" opacity="0.027891178756926947" rx="1"/><rect x="1056.7258110122582" y="1015.3699414467835" width="28.524481255683227" height="2" fill="#38b000" opacity="0.02360236634584199" rx="1"/><rect x="1844.8566506628079" y="1014.3731769906294" width="47.5961683661668" height="2" fill="#38b000" opacity="0.03576096862921514" rx="1"/><rect x="41.5223394430993" y="1024.9077053658916" width="54.66652814174689" height="2" fill="#38b000" opacity="0.04066281604130352" rx="1"/><rect x="1086.9255229381206" y="1049.1999332954176" width="103.47603792405594" height="2" fill="#38b000" opacity="0.030175603472202925" rx="1"/><rect x="546.3521644255036" y="1031.7902799769747" width="115.90452369207156" height="2" fill="#38b000" opacity="0.03374691031261974" rx="1"/><rect x="27.259325540452107" y="1016.5170834205386" width="97.87570731664908" height="2" fill="#38b000" opacity="0.05196600941754087" rx="1"/><rect x="895.2418682573461" y="1009.4773014237819" width="109.87111651568466" height="2" fill="#38b000" opacity="0.04607960465971371" rx="1"/><rect x="647.1945795433583" y="1059.4434430821434" width="58.55906343985327" height="2" fill="#38b000" opacity="0.05787789614821735" rx="1"/><rect x="1185.983870305583" y="1000.4964406091013" width="93.78563153878451" height="2" fill="#38b000" opacity="0.047045073506200005" rx="1"/><rect x="809.6143405534361" y="1012.4130362440862" width="70.87901653043903" height="2" fill="#38b000" opacity="0.0206162652095352" rx="1"/><rect x="368.72310617210417" y="1027.0624934199877" width="105.42739031497095" height="2" fill="#38b000" opacity="0.04391269561460072" rx="1"/><rect x="1644.030058468699" y="1020.7554779901997" width="104.72785364946533" height="2" fill="#38b000" opacity="0.04400453637912975" rx="1"/><rect x="1508.5032859976645" y="1023.177883546608" width="27.81681058179047" height="2" fill="#38b000" opacity="0.045214293027579386" rx="1"/><rect x="19.88851503000793" y="1003.9520092876517" width="64.81356047205944" height="2" fill="#38b000" opacity="0.04977711116657059" rx="1"/><rect x="360.6245430653506" y="1034.9764504458235" width="80.64880261212792" height="2" fill="#38b000" opacity="0.022723618727811524" rx="1"/><rect x="1596.1832315465863" y="1055.1294443884701" width="27.478335920599832" height="2" fill="#38b000" opacity="0.04173768090590316" rx="1"/><rect x="533.3970372130623" y="1035.1256685925475" width="79.37541738603623" height="2" fill="#38b000" opacity="0.05970570743077103" rx="1"/><rect x="26.979320353590726" y="1038.0823083264013" width="40.28087862308158" height="2" fill="#38b000" opacity="0.04837067920443851" rx="1"/><rect x="206.27970014845016" y="1042.714614556803" width="118.27690015041198" height="2" fill="#38b000" opacity="0.056875208941492075" rx="1"/><rect x="555.6732860011219" y="1058.8021392698404" width="82.6621339383214" height="2" fill="#38b000" opacity="0.04254876534979529" rx="1"/><rect x="1844.263349604854" y="1058.21955222595" width="50.55905579369494" height="2" fill="#38b000" opacity="0.04215938507163883" rx="1"/><rect x="86.71977864734824" y="1027.65557038776" width="82.02107504057257" height="2" fill="#38b000" opacity="0.021984183341726703" rx="1"/><rect x="254.7249998745334" y="1004.593053540353" width="54.8769842961051" height="2" fill="#38b000" opacity="0.054610553326693026" rx="1"/><rect x="825.5057709350963" y="1055.4300503235845" width="21.859880332336733" height="2" fill="#38b000" opacity="0.02957082641533828" rx="1"/><rect x="462.2861504140976" y="1043.1205876644517" width="94.64599396908795" height="2" fill="#38b000" opacity="0.02015773401599325" rx="1"/><rect x="671.4576697422792" y="1046.1123417332099" width="98.9107662343678" height="2" fill="#38b000" opacity="0.025851369482896146" rx="1"/><text x="1900" y="1060" font-family="Arial, sans-serif" font-size="11" fill="#fff" opacity="0.08" text-anchor="end" letter-spacing="2">GTA 6 REWARDS · WALLPAPER 097</text>
</svg>