<?xml version="1.0" encoding="UTF-8"?>
<svg xmlns="http://www.w3.org/2000/svg" width="1920" height="1080" viewBox="0 0 1920 1080">
<defs>
    <linearGradient id="bg77" x1="0%" y1="0%" x2="0%" y2="100%">
      <stop offset="0%" stop-color="#2d1600"/>
      <stop offset="50%" stop-color="#000000"/>
      <stop offset="100%" stop-color="#2d1600"/>
    </linearGradient>
    <linearGradient id="sun77" x1="0%" y1="0%" x2="100%" y2="100%">
      <stop offset="0%" stop-color="#ff8700"/>
      <stop offset="100%" stop-color="#ff5e00"/>
    </linearGradient>
    <radialGradient id="glow77" cx="50%" cy="70%" r="50%">
      <stop offset="0%" stop-color="#ff8700" stop-opacity="0.3"/>
      <stop offset="100%" stop-color="#2d1600" stop-opacity="0"/>
    </radialGradient>
  </defs><rect width="1920" height="1080" fill="url(#bg77)"/><circle cx="350.6637093729022" cy="478.40269195810026" r="745.7694688918464" fill="#ff8700" opacity="0.06157626323671459"/><circle cx="550.6637093729022" cy="378.40269195810026" r="565.2216371533511" fill="#ff5e00" opacity="0.12065187981134558"/><circle cx="367.15944736897" cy="204.2240644698553" r="91.35980604015286" fill="url(#sun77)" opacity="0.8727687698725538"/><circle cx="367.15944736897" cy="204.2240644698553" r="86.35980604015286" fill="#2d1600" opacity="0.3"/><pattern id="scan77" width="1920" height="4" patternUnits="userSpaceOnUse">
      <line x1="0" y1="0" x2="1920" y2="0" stroke="#000" stroke-opacity="0.05" stroke-width="1"/>
    </pattern>
    <rect width="1920" height="1080" fill="url(#scan77)"/><circle cx="1323.581664423361" cy="182.35187989621232" r="0.580533725228285" fill="#fff" opacity="0.2781764363586382"/><circle cx="143.6778237260128" cy="179.96421310397895" r="1.259880536645623" fill="#fff" opacity="0.785928967498692"/><circle cx="110.44505151697552" cy="124.5229933887075" r="0.8742109441371194" fill="#fff" opacity="0.28166419725903874"/><circle cx="399.0513982807871" cy="94.1787966746322" r="0.5123867021203942" fill="#fff" opacity="0.6893751989326847"/><circle cx="1000.4623051826989" cy="205.6476217800862" r="1.4090765572406996" fill="#fff" opacity="0.382267358243062"/><circle cx="497.40057271379055" cy="258.3303133068444" r="0.9137035797847676" fill="#fff" opacity="0.6258447765898529"/><circle cx="851.7887656883776" cy="270.08610017925645" r="1.3827276241226885" fill="#fff" opacity="0.4398290446586509"/><circle cx="223.54213719804355" cy="132.07256569808175" r="1.342143835812375" fill="#fff" opacity="0.20411770199521392"/><circle cx="1786.9703498172971" cy="54.55228639546602" r="1.8600622028717917" fill="#fff" opacity="0.49335413656508414"/><circle cx="1566.8249066841847" cy="137.2216168290986" r="1.0650407156359964" fill="#fff" opacity="0.363933139472253"/><circle cx="1248.788683109169" cy="366.0916820573834" r="1.1208439799074186" fill="#fff" opacity="0.43349295799468945"/><circle cx="1088.532524213319" cy="128.5820346401497" r="1.6426032884378459" fill="#fff" opacity="0.4247202649304458"/><circle cx="788.6238189387657" cy="146.09964501906643" r="1.2120055378675474" fill="#fff" opacity="0.5788011352016593"/><circle cx="1047.1328032964684" cy="349.1711498119801" r="1.2664600030440978" fill="#fff" opacity="0.5126902806834994"/><circle cx="995.8513362044122" cy="154.3086029091637" r="1.205646530190866" fill="#fff" opacity="0.5654363446788482"/><circle cx="1162.5493082130677" cy="151.45282288441732" r="1.1828677269357415" fill="#fff" opacity="0.24486405613014103"/><circle cx="224.04324000329785" cy="15.25976686162403" r="1.1080561544764918" fill="#fff" opacity="0.3857745855547894"/><circle cx="837.1212585729363" cy="105.488303630028" r="0.9672312184626309" fill="#fff" opacity="0.5717269635693466"/><circle cx="107.39407005426335" cy="195.16067352964558" r="1.7226884672936724" fill="#fff" opacity="0.6062244508895613"/><circle cx="1046.2383827022832" cy="256.4211735912648" r="0.9767393602469795" fill="#fff" opacity="0.6844591775174391"/><circle cx="1010.5055444805198" cy="428.340516730291" r="0.9360171902077312" fill="#fff" opacity="0.20589719414848304"/><circle cx="1522.0296691921608" cy="64.14108119908279" r="0.5530457993859997" fill="#fff" opacity="0.4444802689003945"/><circle cx="22.794759129824758" cy="353.60871264748477" r="1.2105968249287915" fill="#fff" opacity="0.25031839885057844"/><circle cx="1268.9851501558408" cy="154.9980143781281" r="0.6393607058886812" fill="#fff" opacity="0.32903909593099706"/><circle cx="183.26610182022353" cy="111.51334055501812" r="1.7179398407968551" fill="#fff" opacity="0.682684628032773"/><circle cx="303.9949505738902" cy="219.182827084135" r="1.9298080408316591" fill="#fff" opacity="0.507586223424316"/><circle cx="1570.4485755344967" cy="260.0277878055414" r="1.2880942525314387" fill="#fff" opacity="0.3393548442840937"/><circle cx="18.958678995016655" cy="101.71353361888639" r="0.7883624846088613" fill="#fff" opacity="0.48008040312679495"/><circle cx="1390.2664163965421" cy="331.04333393160334" r="1.6476957730827144" fill="#fff" opacity="0.2453633811896116"/><circle cx="371.6761798531926" cy="337.3928798589373" r="1.013905205068622" fill="#fff" opacity="0.527415198722718"/><circle cx="913.3737965564649" cy="7.420439736782675" r="1.8858693699319544" fill="#fff" opacity="0.33657741559124027"/><circle cx="732.1882355427808" cy="344.33120724380274" r="0.6831274555723945" fill="#fff" opacity="0.6657022363193571"/><circle cx="1739.456406044647" cy="350.7816339355851" r="1.0767684831695559" fill="#fff" opacity="0.36910467719871193"/><circle cx="1224.808500694299" cy="404.3871252248965" r="1.5800885225367007" fill="#fff" opacity="0.20962139009722075"/><circle cx="1093.2143088740331" cy="32.11863498765012" r="1.093018393286741" fill="#fff" opacity="0.761848017704172"/><circle cx="939.3309055965699" cy="274.81271002879663" r="1.0579904778995528" fill="#fff" opacity="0.6459377918965039"/><circle cx="806.8687759728332" cy="418.9551517225232" r="1.9834252492253261" fill="#fff" opacity="0.7214298564292094"/><circle cx="1140.7044033381865" cy="127.6630669831445" r="1.1424170034337828" fill="#fff" opacity="0.49236242624287546"/><circle cx="1100.2807633160337" cy="386.65505795242615" r="1.5701920230803528" fill="#fff" opacity="0.5766736908295829"/><circle cx="1082.735930784311" cy="97.32295091481016" r="1.5490744086096702" fill="#fff" opacity="0.29381642702357297"/><circle cx="1390.7990713675504" cy="127.52177505184007" r="0.6109935040844123" fill="#fff" opacity="0.6145852678489372"/><circle cx="1546.7460661257492" cy="210.618978642537" r="1.20936937518636" fill="#fff" opacity="0.5068742698772983"/><circle cx="1537.1027920248691" cy="196.06510726829643" r="1.159643532396211" fill="#fff" opacity="0.5901411540783339"/><circle cx="406.8587843530948" cy="410.5201563338098" r="0.9572311829443162" fill="#fff" opacity="0.759510126793643"/><circle cx="352.19458767031193" cy="46.31908240875208" r="0.8225377617223509" fill="#fff" opacity="0.4850991306558948"/><circle cx="521.9284724914302" cy="262.08672353021956" r="0.9278333877278104" fill="#fff" opacity="0.46649482433369727"/><circle cx="1551.2678570186877" cy="268.8986867845288" r="1.4180903410115488" fill="#fff" opacity="0.32427551912243374"/><circle cx="93.23551075841196" cy="207.07446889930276" r="1.8799544498044891" fill="#fff" opacity="0.30521413295185523"/><circle cx="152.13423151339734" cy="89.54895143805746" r="0.902894843579944" fill="#fff" opacity="0.611229644159607"/><circle cx="37.942894855035206" cy="391.91437030395366" r="0.5860759548577656" fill="#fff" opacity="0.2811568952820164"/><circle cx="1794.4841944879117" cy="252.80316404551343" r="0.9696952758752031" fill="#fff" opacity="0.6408360261099497"/><circle cx="1868.479859220907" cy="140.68663706180794" r="1.7400327672343776" fill="#fff" opacity="0.43419087199358986"/><circle cx="1433.9637618125332" cy="286.3754636492523" r="1.9895785318197632" fill="#fff" opacity="0.27319063657736187"/><circle cx="351.95140250771107" cy="201.65516526104304" r="1.888480380617194" fill="#fff" opacity="0.587319946565507"/><circle cx="1301.8191950073976" cy="247.8561246934943" r="1.770809009035772" fill="#fff" opacity="0.6431065646566233"/><circle cx="968.7180834283861" cy="402.0079649244454" r="1.5603924474121054" fill="#fff" opacity="0.3447518786752485"/><circle cx="363.6124796521879" cy="38.436228563644974" r="0.5693904131346825" fill="#fff" opacity="0.5206697182545135"/><circle cx="188.87071479784106" cy="274.3284655218778" r="1.5429374375480547" fill="#fff" opacity="0.6382402416407691"/><circle cx="1105.8955668997708" cy="107.77768137580196" r="1.6097563246986262" fill="#fff" opacity="0.35785097879307604"/><rect x="22.57904081432592" y="686.0329108163791" width="52.77474230685615" height="233.4619103077478" fill="#130000" opacity="0.4666968298067099" rx="2"/><rect x="45.19862812436154" y="696.0329108163791" width="7.535567686784912" height="8.04052088177775" fill="#ff5e00" opacity="0.17744163916852362" rx="1"/><rect x="32.0049425476475" y="700.0531712572679" width="7.535567686784912" height="8.04052088177775" fill="#ff8700" opacity="0.08872081958426181" rx="1"/><rect x="44.70369600823701" y="734.9432292010036" width="8.525431919033974" height="8.159354333337246" fill="#ff5e00" opacity="0.1772742348670201" rx="1"/><rect x="31.51001043152297" y="739.0229063676722" width="8.525431919033974" height="8.159354333337246" fill="#ff8700" opacity="0.08863711743351005" rx="1"/><rect x="44.274526823608795" y="773.8535475856283" width="9.383770288290403" height="9.204530278035563" fill="#ff5e00" opacity="0.49360406584888794" rx="1"/><rect x="31.080841246894757" y="778.4558127246461" width="9.383770288290403" height="9.204530278035563" fill="#ff8700" opacity="0.24680203292444397" rx="1"/><rect x="43.79417307600244" y="812.7638659702529" width="10.344477783503123" height="8.63150146757986" fill="#ff5e00" opacity="0.5377371979499556" rx="1"/><rect x="30.6004874992884" y="817.0796167040429" width="10.344477783503123" height="8.63150146757986" fill="#ff8700" opacity="0.2688685989749778" rx="1"/><rect x="45.46252470893379" y="851.6741843548775" width="7.007774517640419" height="6.643360083141215" fill="#ff5e00" opacity="0.5789929733329902" rx="1"/><rect x="32.26883913221975" y="854.9958643964482" width="7.007774517640419" height="6.643360083141215" fill="#ff8700" opacity="0.2894964866664951" rx="1"/><rect x="43.04640003387966" y="890.5845027395022" width="11.840023867748684" height="9.68473787132761" fill="#ff5e00" opacity="0.41388768747306603" rx="1"/><rect x="29.852714457165618" y="895.426871675166" width="11.840023867748684" height="9.68473787132761" fill="#ff8700" opacity="0.20694384373653302" rx="1"/><rect x="99.2836280627047" y="764.2400322049483" width="56.55631333276544" height="155.25478891917848" fill="#130000" opacity="0.46645845797994606" rx="2"/><rect x="124.84548352614658" y="774.2400322049483" width="5.432602405881649" height="9.260016962713566" fill="#ff5e00" opacity="0.3990853858178215" rx="1"/><rect x="110.70640519295523" y="778.8700406863051" width="5.432602405881649" height="9.260016962713566" fill="#ff8700" opacity="0.19954269290891075" rx="1"/><rect x="123.67629283129637" y="796.419287764831" width="7.77098379558208" height="6.3823393733199545" fill="#ff5e00" opacity="0.1670890766352157" rx="1"/><rect x="109.53721449810502" y="799.610457451491" width="7.77098379558208" height="6.3823393733199545" fill="#ff8700" opacity="0.08354453831760784" rx="1"/><rect x="121.79935064796828" y="818.5985433247135" width="11.524868162238242" height="9.624455014156283" fill="#ff5e00" opacity="0.4091704489917426" rx="1"/><rect x="107.66027231477693" y="823.4107708317916" width="11.524868162238242" height="9.624455014156283" fill="#ff8700" opacity="0.2045852244958713" rx="1"/><rect x="123.84888796254754" y="840.7777988845962" width="7.4257935330797435" height="7.0371714208827285" fill="#ff5e00" opacity="0.16608372893326073" rx="1"/><rect x="109.70980962935619" y="844.2963845950376" width="7.4257935330797435" height="7.0371714208827285" fill="#ff8700" opacity="0.08304186446663037" rx="1"/><rect x="123.10132311013578" y="862.9570544444789" width="8.92092323790326" height="9.804244982964416" fill="#ff5e00" opacity="0.15650371104863092" rx="1"/><rect x="108.96224477694443" y="867.8591769359612" width="8.92092323790326" height="9.804244982964416" fill="#ff8700" opacity="0.07825185552431546" rx="1"/><rect x="124.18577830713397" y="885.1363100043616" width="6.752012843906883" height="6.7786651274139675" fill="#ff5e00" opacity="0.35264103972647365" rx="1"/><rect x="110.04669997394262" y="888.5256425680685" width="6.752012843906883" height="6.7786651274139675" fill="#ff8700" opacity="0.17632051986323682" rx="1"/><rect x="124.55426335842701" y="907.3155655642441" width="6.015042741320805" height="9.677723003476327" fill="#ff5e00" opacity="0.24651704105700298" rx="1"/><rect x="110.41518502523566" y="912.1544270659823" width="6.015042741320805" height="9.677723003476327" fill="#ff8700" opacity="0.12325852052850149" rx="1"/><rect x="182.91822735905646" y="591.8423312813608" width="52.423757040506175" height="327.65248984276604" fill="#2d1600" opacity="0.4767888956183542" rx="2"/><rect x="203.37057037206654" y="601.8423312813608" width="11.519071014486038" height="8.741108235609975" fill="#ff5e00" opacity="0.3621498145773424" rx="1"/><rect x="190.26463111194" y="606.2128853991658" width="11.519071014486038" height="8.741108235609975" fill="#ff8700" opacity="0.1810749072886712" rx="1"/><rect x="206.40423061696953" y="683.7554537420523" width="5.451750524680072" height="7.33629049391865" fill="#ff5e00" opacity="0.4705447665114293" rx="1"/><rect x="193.29829135684298" y="687.4235989890116" width="5.451750524680072" height="7.33629049391865" fill="#ff8700" opacity="0.23527238325571465" rx="1"/><rect x="206.9825836523679" y="765.6685762027438" width="4.295044453883321" height="9.775701996818116" fill="#ff5e00" opacity="0.5818352272226092" rx="1"/><rect x="193.87664439224136" y="770.5564272011528" width="4.295044453883321" height="9.775701996818116" fill="#ff8700" opacity="0.2909176136113046" rx="1"/><rect x="206.16680134639344" y="847.5816986634353" width="5.926609065832246" height="7.0370765330821925" fill="#ff5e00" opacity="0.494138151755123" rx="1"/><rect x="193.0608620862669" y="851.1002369299764" width="5.926609065832246" height="7.0370765330821925" fill="#ff8700" opacity="0.2470690758775615" rx="1"/><rect x="259.8701743838966" y="646.7155940590229" width="45.97204832266365" height="272.7792270651039" fill="#2d1600" opacity="0.5918259752196786" rx="2"/><rect x="277.8540508457545" y="656.7155940590229" width="10.004295398947852" height="8.800695980619802" fill="#ff5e00" opacity="0.45238414754913747" rx="1"/><rect x="266.36103876508855" y="661.1159420493328" width="10.004295398947852" height="8.800695980619802" fill="#ff8700" opacity="0.22619207377456874" rx="1"/><rect x="277.5574016252859" y="747.6420030807242" width="10.597593839885107" height="8.788791209177298" fill="#ff5e00" opacity="0.30627544592280764" rx="1"/><rect x="266.0643895446199" y="752.0363986853129" width="10.597593839885107" height="8.788791209177298" fill="#ff8700" opacity="0.15313772296140382" rx="1"/><rect x="277.268578907254" y="838.5684121024256" width="11.175239275948899" height="8.302635451383571" fill="#ff5e00" opacity="0.5739729786463951" rx="1"/><rect x="265.77556682658803" y="842.7197298281174" width="11.175239275948899" height="8.302635451383571" fill="#ff8700" opacity="0.28698648932319754" rx="1"/><rect x="357.3451614008259" y="567.4661680631027" width="80.77862411988401" height="352.02865306102404" fill="#2d1600" opacity="0.6309496568820787" rx="2"/><rect x="395.1380828277165" y="577.4661680631027" width="5.192781266102749" height="6.746664445089797" fill="#ff5e00" opacity="0.5957360319084805" rx="1"/><rect x="374.9434267977455" y="580.8395002856477" width="5.192781266102749" height="6.746664445089797" fill="#ff8700" opacity="0.29786801595424023" rx="1"/><rect x="392.7889910384157" y="665.4733313283588" width="9.890964844704364" height="8.288887885932086" fill="#ff5e00" opacity="0.5732380830620504" rx="1"/><rect x="372.59433500844466" y="669.6177752713248" width="9.890964844704364" height="8.288887885932086" fill="#ff8700" opacity="0.2866190415310252" rx="1"/><rect x="393.1587919916963" y="753.4804945936147" width="9.151362938143166" height="7.9332151026309505" fill="#ff5e00" opacity="0.48855377337628836" rx="1"/><rect x="372.9641359617253" y="757.4471021449302" width="9.151362938143166" height="7.9332151026309505" fill="#ff8700" opacity="0.24427688668814418" rx="1"/><rect x="391.9741790737067" y="841.4876578588708" width="11.520588774122434" height="9.153449869517575" fill="#ff5e00" opacity="0.39386911548065695" rx="1"/><rect x="371.77952304373565" y="846.0643827936295" width="11.520588774122434" height="9.153449869517575" fill="#ff8700" opacity="0.19693455774032848" rx="1"/><rect x="447.23895880825427" y="758.1821796736173" width="42.144382556934" height="161.31264145050957" fill="#2d1600" opacity="0.5096678881462822" rx="2"/><rect x="465.64767810561506" y="768.1821796736173" width="5.326943962212406" height="7.239884303240078" fill="#ff5e00" opacity="0.13472648294054124" rx="1"/><rect x="455.11158246638155" y="771.8021218252374" width="5.326943962212406" height="7.239884303240078" fill="#ff8700" opacity="0.06736324147027062" rx="1"/><rect x="466.09342510309017" y="788.346259854931" width="4.435449967262207" height="7.070933508936068" fill="#ff5e00" opacity="0.4417444297442549" rx="1"/><rect x="455.55732946385666" y="791.881726609399" width="4.435449967262207" height="7.070933508936068" fill="#ff8700" opacity="0.22087221487212744" rx="1"/><rect x="465.68338588298946" y="808.5103400362447" width="5.255528407463694" height="6.478657350986883" fill="#ff5e00" opacity="0.17889591042857989" rx="1"/><rect x="455.14729024375595" y="811.7496687117381" width="5.255528407463694" height="6.478657350986883" fill="#ff8700" opacity="0.08944795521428994" rx="1"/><rect x="465.6507331156067" y="828.6744202175583" width="5.320833942229123" height="6.352997596457833" fill="#ff5e00" opacity="0.5218572636418644" rx="1"/><rect x="455.1146374763732" y="831.8509190157872" width="5.320833942229123" height="6.352997596457833" fill="#ff8700" opacity="0.2609286318209322" rx="1"/><rect x="465.6261722710753" y="848.838500398872" width="5.369955631291949" height="7.910111541373215" fill="#ff5e00" opacity="0.47354953828583224" rx="1"/><rect x="455.0900766318418" y="852.7935561695587" width="5.369955631291949" height="7.910111541373215" fill="#ff8700" opacity="0.23677476914291612" rx="1"/><rect x="465.7972180298766" y="869.0025805801857" width="5.027864113689368" height="6.843282309557144" fill="#ff5e00" opacity="0.17923377633076948" rx="1"/><rect x="455.2611223906431" y="872.4242217349644" width="5.027864113689368" height="6.843282309557144" fill="#ff8700" opacity="0.08961688816538474" rx="1"/><rect x="465.67433295631287" y="889.1666607614994" width="5.2736342608168805" height="9.891971029316068" fill="#ff5e00" opacity="0.5642624992328376" rx="1"/><rect x="455.13823731707936" y="894.1126462761574" width="5.2736342608168805" height="9.891971029316068" fill="#ff8700" opacity="0.2821312496164188" rx="1"/><rect x="464.381012467827" y="909.3307409428131" width="7.86027523778851" height="8.488820192983566" fill="#ff5e00" opacity="0.37180944913341885" rx="1"/><rect x="453.8449168285935" y="913.575151039305" width="7.86027523778851" height="8.488820192983566" fill="#ff8700" opacity="0.18590472456670942" rx="1"/><rect x="530.5942042544856" y="652.5547460426005" width="44.79596665473561" height="266.9400750815263" fill="#130000" opacity="0.5548958710755445" rx="2"/><rect x="547.9822066036397" y="662.5547460426005" width="10.019961956427423" height="8.263692020034346" fill="#ff5e00" opacity="0.40434707338091613" rx="1"/><rect x="536.7832149399559" y="666.6865920526177" width="10.019961956427423" height="8.263692020034346" fill="#ff8700" opacity="0.20217353669045807" rx="1"/><rect x="549.0943248666962" y="729.2897648129821" width="7.795725430314365" height="7.445661872961946" fill="#ff5e00" opacity="0.4187568499284696" rx="1"/><rect x="537.8953332030123" y="733.012595749463" width="7.795725430314365" height="7.445661872961946" fill="#ff8700" opacity="0.2093784249642348" rx="1"/><rect x="550.4679289131968" y="796.0247835833636" width="5.048517337313042" height="7.278583712242214" fill="#ff5e00" opacity="0.5909864066846171" rx="1"/><rect x="539.268937249513" y="799.6640754394847" width="5.048517337313042" height="7.278583712242214" fill="#ff8700" opacity="0.29549320334230855" rx="1"/><rect x="550.052175178802" y="862.7598023537453" width="5.880024806102743" height="8.481750448812207" fill="#ff5e00" opacity="0.3265108340015893" rx="1"/><rect x="538.8531835151182" y="867.0006775781513" width="5.880024806102743" height="8.481750448812207" fill="#ff8700" opacity="0.16325541700079466" rx="1"/><rect x="592.6391475346092" y="820.920889352197" width="35.21394120185029" height="98.57393177192982" fill="#130000" opacity="0.5126804636588042" rx="2"/><rect x="605.3916700948537" y="830.920889352197" width="9.708896081361196" height="6.187866886190108" fill="#ff5e00" opacity="0.4290920171023095" rx="1"/><rect x="596.5881847943912" y="834.014822795292" width="9.708896081361196" height="6.187866886190108" fill="#ff8700" opacity="0.21454600855115474" rx="1"/><rect x="605.8608612056559" y="847.349877980852" width="8.770513859756877" height="8.863634294565681" fill="#ff5e00" opacity="0.43970131313886995" rx="1"/><rect x="597.0573759051933" y="851.7816951281349" width="8.770513859756877" height="8.863634294565681" fill="#ff8700" opacity="0.21985065656943498" rx="1"/><rect x="605.998826946324" y="863.778866609507" width="8.494582378420649" height="7.679101924802898" fill="#ff5e00" opacity="0.4251670928032061" rx="1"/><rect x="597.1953416458615" y="867.6184175719084" width="8.494582378420649" height="7.679101924802898" fill="#ff8700" opacity="0.21258354640160304" rx="1"/><rect x="606.8741462076316" y="880.207855238162" width="6.743943855805309" height="9.18440011217827" fill="#ff5e00" opacity="0.3396401687850338" rx="1"/><rect x="598.0706609071691" y="884.8000552942511" width="6.743943855805309" height="9.18440011217827" fill="#ff8700" opacity="0.1698200843925169" rx="1"/><rect x="604.3721653388809" y="896.6368438668169" width="11.747905593306736" height="8.737046149265264" fill="#ff5e00" opacity="0.17712303243510497" rx="1"/><rect x="595.5686800384184" y="901.0053669414496" width="11.747905593306736" height="8.737046149265264" fill="#ff8700" opacity="0.08856151621755248" rx="1"/><rect x="604.844616199767" y="913.0658324954719" width="10.80300387153472" height="8.799718270730162" fill="#ff5e00" opacity="0.5522484802762625" rx="1"/><rect x="596.0411308993044" y="917.465691630837" width="10.80300387153472" height="8.799718270730162" fill="#ff8700" opacity="0.27612424013813125" rx="1"/><rect x="697.4588185091377" y="719.8782696551359" width="43.56525955106254" height="199.61655146899088" fill="#2d1600" opacity="0.55507672816866" rx="2"/><rect x="715.5767392154467" y="729.8782696551359" width="7.329418138444754" height="9.300612798729123" fill="#ff5e00" opacity="0.23548411734762698" rx="1"/><rect x="704.685424327681" y="734.5285760545005" width="7.329418138444754" height="9.300612798729123" fill="#ff8700" opacity="0.11774205867381349" rx="1"/><rect x="717.0637266212494" y="754.8303385887598" width="4.355443326839116" height="8.306116746344165" fill="#ff5e00" opacity="0.21295621891342015" rx="1"/><rect x="706.1724117334837" y="758.9833969619318" width="4.355443326839116" height="8.306116746344165" fill="#ff8700" opacity="0.10647810945671007" rx="1"/><rect x="714.4862740849082" y="779.7824075223837" width="9.510348399521398" height="7.73067116405132" fill="#ff5e00" opacity="0.13581097385282884" rx="1"/><rect x="703.5949591971425" y="783.6477431044093" width="9.510348399521398" height="7.73067116405132" fill="#ff8700" opacity="0.06790548692641442" rx="1"/><rect x="717.1754498393886" y="804.7344764560075" width="4.131996890560723" height="8.3409901629996" fill="#ff5e00" opacity="0.13805388371414828" rx="1"/><rect x="706.284134951623" y="808.9049715375073" width="4.131996890560723" height="8.3409901629996" fill="#ff8700" opacity="0.06902694185707414" rx="1"/><rect x="716.8838341045126" y="829.6865453896313" width="4.715228360312811" height="8.238889420926313" fill="#ff5e00" opacity="0.24278085719393122" rx="1"/><rect x="705.9925192167469" y="833.8059901000945" width="4.715228360312811" height="8.238889420926313" fill="#ff8700" opacity="0.12139042859696561" rx="1"/><rect x="715.6904466405459" y="854.6386143232552" width="7.102003288246227" height="9.606439070684472" fill="#ff5e00" opacity="0.10741315679797278" rx="1"/><rect x="704.7991317527802" y="859.4418338585974" width="7.102003288246227" height="9.606439070684472" fill="#ff8700" opacity="0.05370657839898639" rx="1"/><rect x="715.141069373169" y="879.5906832568791" width="8.200757822999908" height="7.431032610459027" fill="#ff5e00" opacity="0.4413640493157702" rx="1"/><rect x="704.2497544854033" y="883.3061995621085" width="8.200757822999908" height="7.431032610459027" fill="#ff8700" opacity="0.2206820246578851" rx="1"/><rect x="715.4903068310995" y="904.5427521905029" width="7.50228290713911" height="7.249367066949924" fill="#ff5e00" opacity="0.5655766716379618" rx="1"/><rect x="704.5989919433338" y="908.1674357239779" width="7.50228290713911" height="7.249367066949924" fill="#ff8700" opacity="0.2827883358189809" rx="1"/><rect x="764.7710327173395" y="719.1541951077884" width="88.51530957932474" height="200.3406260163385" fill="#2d1600" opacity="0.5485452611578036" rx="2"/><rect x="803.063757430858" y="729.1541951077884" width="11.92986015228784" height="7.788170218884053" fill="#ff5e00" opacity="0.3905825502915733" rx="1"/><rect x="780.9349300360268" y="733.0482802172304" width="11.92986015228784" height="7.788170218884053" fill="#ff8700" opacity="0.19529127514578665" rx="1"/><rect x="805.6140123761637" y="762.5442994438448" width="6.829350261676439" height="7.804639563384615" fill="#ff5e00" opacity="0.2491684930280709" rx="1"/><rect x="783.4851849813325" y="766.4466192255371" width="6.829350261676439" height="7.804639563384615" fill="#ff8700" opacity="0.12458424651403545" rx="1"/><rect x="805.0942044906417" y="795.9344037799012" width="7.868966032720396" height="8.257981507633342" fill="#ff5e00" opacity="0.5779596575484517" rx="1"/><rect x="782.9653770958105" y="800.0633945337179" width="7.868966032720396" height="8.257981507633342" fill="#ff8700" opacity="0.28897982877422584" rx="1"/><rect x="804.4067202335584" y="829.3245081159577" width="9.243934546886928" height="9.714365405895366" fill="#ff5e00" opacity="0.49785697448483135" rx="1"/><rect x="782.2778928387272" y="834.1816908189054" width="9.243934546886928" height="9.714365405895366" fill="#ff8700" opacity="0.24892848724241567" rx="1"/><rect x="803.9137740156758" y="862.7146124520141" width="10.229826982652263" height="9.423218721389588" fill="#ff5e00" opacity="0.10046734244107906" rx="1"/><rect x="781.7849466208446" y="867.4262218127088" width="10.229826982652263" height="9.423218721389588" fill="#ff8700" opacity="0.05023367122053953" rx="1"/><rect x="805.0170236132958" y="896.1047167880705" width="8.023327787412175" height="7.188121524916059" fill="#ff5e00" opacity="0.48436392412622553" rx="1"/><rect x="782.8881962184646" y="899.6987775505286" width="8.023327787412175" height="7.188121524916059" fill="#ff8700" opacity="0.24218196206311277" rx="1"/><rect x="848.6902169676728" y="570.978167611402" width="53.82560209925882" height="348.5166535127248" fill="#130000" opacity="0.5371393262262315" rx="2"/><rect x="870.1278518810254" y="580.978167611402" width="10.950332272553428" height="9.425050574220961" fill="#ff5e00" opacity="0.4610522327621124" rx="1"/><rect x="856.6714513562108" y="585.6906928985125" width="10.950332272553428" height="9.425050574220961" fill="#ff8700" opacity="0.2305261163810562" rx="1"/><rect x="873.0701910012119" y="668.1073309895833" width="5.065654032180471" height="9.126937425492084" fill="#ff5e00" opacity="0.2980546882138715" rx="1"/><rect x="859.6137904763973" y="672.6707997023293" width="5.065654032180471" height="9.126937425492084" fill="#ff8700" opacity="0.14902734410693574" rx="1"/><rect x="871.1007205733818" y="755.2364943677644" width="9.0045948878407" height="9.448907712346154" fill="#ff5e00" opacity="0.5319805962573692" rx="1"/><rect x="857.6443200485671" y="759.9609482239375" width="9.0045948878407" height="9.448907712346154" fill="#ff8700" opacity="0.2659902981286846" rx="1"/><rect x="870.8014930329308" y="842.3656577459456" width="9.603049968742544" height="6.533304111224902" fill="#ff5e00" opacity="0.3387054247638922" rx="1"/><rect x="857.3450925081162" y="845.632309801558" width="9.603049968742544" height="6.533304111224902" fill="#ff8700" opacity="0.1693527123819461" rx="1"/><rect x="920.5562655747462" y="832.5652669376146" width="51.65975571648678" height="86.92955418651215" fill="#2d1600" opacity="0.6920093251606472" rx="2"/><rect x="943.9752549221378" y="842.5652669376146" width="4.821777021703724" height="6.469217644182318" fill="#ff5e00" opacity="0.13934810299876801" rx="1"/><rect x="931.060315993016" y="845.7998757597057" width="4.821777021703724" height="6.469217644182318" fill="#ff8700" opacity="0.06967405149938401" rx="1"/><rect x="940.7103861003602" y="854.9837746785449" width="11.351514665258936" height="9.346340454031328" fill="#ff5e00" opacity="0.3624074002407508" rx="1"/><rect x="927.7954471712385" y="859.6569449055606" width="11.351514665258936" height="9.346340454031328" fill="#ff8700" opacity="0.1812037001203754" rx="1"/><rect x="943.2805467795465" y="867.4022824194752" width="6.211193306886403" height="7.299309759703304" fill="#ff5e00" opacity="0.12912427054930578" rx="1"/><rect x="930.3656078504248" y="871.0519372993268" width="6.211193306886403" height="7.299309759703304" fill="#ff8700" opacity="0.06456213527465289" rx="1"/><rect x="941.4640043706944" y="879.8207901604055" width="9.844278124590469" height="7.914466813652419" fill="#ff5e00" opacity="0.545614127429578" rx="1"/><rect x="928.5490654415727" y="883.7780235672317" width="9.844278124590469" height="7.914466813652419" fill="#ff8700" opacity="0.272807063714789" rx="1"/><rect x="944.2070221463397" y="892.2392979013358" width="4.358242573299967" height="6.970979130121641" fill="#ff5e00" opacity="0.5806810608088693" rx="1"/><rect x="931.292083217218" y="895.7247874663966" width="4.358242573299967" height="6.970979130121641" fill="#ff8700" opacity="0.29034053040443464" rx="1"/><rect x="941.990643545487" y="904.6578056422662" width="8.790999775005272" height="6.004394853488634" fill="#ff5e00" opacity="0.23888473555885367" rx="1"/><rect x="929.0757046163653" y="907.6600030690106" width="8.790999775005272" height="6.004394853488634" fill="#ff8700" opacity="0.11944236777942684" rx="1"/><rect x="942.4041405940135" y="917.0763133831965" width="7.964005677952432" height="8.47303498128267" fill="#ff5e00" opacity="0.26166138839015307" rx="1"/><rect x="929.4892016648918" y="921.3128308738378" width="7.964005677952432" height="8.47303498128267" fill="#ff8700" opacity="0.13083069419507654" rx="1"/><rect x="1001.7854487898098" y="728.7936018264837" width="31.685323664379613" height="190.7012192976431" fill="#130000" opacity="0.4582387533640114" rx="2"/><rect x="1015.1095271732752" y="738.7936018264837" width="5.037166897448983" height="8.131662454021084" fill="#ff5e00" opacity="0.3199653890496039" rx="1"/><rect x="1007.1881962571803" y="742.8594330534943" width="5.037166897448983" height="8.131662454021084" fill="#ff8700" opacity="0.15998269452480196" rx="1"/><rect x="1014.1807749472352" y="766.0366331547184" width="6.894671349528867" height="9.759802943970962" fill="#ff5e00" opacity="0.3447448084700724" rx="1"/><rect x="1006.2594440311403" y="770.9165346267039" width="6.894671349528867" height="9.759802943970962" fill="#ff8700" opacity="0.1723724042350362" rx="1"/><rect x="1015.4132256627884" y="793.2796644829532" width="4.429769918422627" height="6.537782451263112" fill="#ff5e00" opacity="0.4022435449069002" rx="1"/><rect x="1007.4918947466934" y="796.5485557085848" width="4.429769918422627" height="6.537782451263112" fill="#ff8700" opacity="0.2011217724534501" rx="1"/><rect x="1013.2472905342881" y="820.5226958111879" width="8.761640175423036" height="9.106994969562393" fill="#ff5e00" opacity="0.36934515004263846" rx="1"/><rect x="1005.3259596181932" y="825.0761932959691" width="8.761640175423036" height="9.106994969562393" fill="#ff8700" opacity="0.18467257502131923" rx="1"/><rect x="1014.8320624909743" y="847.7657271394227" width="5.592096262050815" height="6.2302287817537385" fill="#ff5e00" opacity="0.5223245708091009" rx="1"/><rect x="1006.9107315748794" y="850.8808415302996" width="5.592096262050815" height="6.2302287817537385" fill="#ff8700" opacity="0.26116228540455044" rx="1"/><rect x="1013.8138177958187" y="875.0087584676573" width="7.62858565236176" height="6.930595541589566" fill="#ff5e00" opacity="0.26340345637020735" rx="1"/><rect x="1005.8924868797238" y="878.4740562384521" width="7.62858565236176" height="6.930595541589566" fill="#ff8700" opacity="0.13170172818510367" rx="1"/><rect x="1014.0797472033208" y="902.2517897958921" width="7.096726837357675" height="9.868600604093773" fill="#ff5e00" opacity="0.5687826418012341" rx="1"/><rect x="1006.1584162872259" y="907.186090097939" width="7.096726837357675" height="9.868600604093773" fill="#ff8700" opacity="0.28439132090061703" rx="1"/><rect x="1098.3399857570723" y="606.3448670917062" width="88.0919679668946" height="313.1499540324206" fill="#130000" opacity="0.49276744937355804" rx="2"/><rect x="1138.2358579436846" y="616.3448670917062" width="8.300223593669996" height="9.992511803282543" fill="#ff5e00" opacity="0.13942933795960372" rx="1"/><rect x="1116.212865951961" y="621.3411229933474" width="8.300223593669996" height="9.992511803282543" fill="#ff8700" opacity="0.06971466897980186" rx="1"/><rect x="1138.6386214660085" y="668.5365260971096" width="7.494696549022267" height="6.313716293385652" fill="#ff5e00" opacity="0.4821010038680632" rx="1"/><rect x="1116.615629474285" y="671.6933842438024" width="7.494696549022267" height="6.313716293385652" fill="#ff8700" opacity="0.2410505019340316" rx="1"/><rect x="1137.0003698657713" y="720.7281851025131" width="10.771199749496578" height="9.436098976860777" fill="#ff5e00" opacity="0.3418028227383743" rx="1"/><rect x="1114.9773778740478" y="725.4462345909435" width="10.771199749496578" height="9.436098976860777" fill="#ff8700" opacity="0.17090141136918716" rx="1"/><rect x="1137.924568662028" y="772.9198441079166" width="8.922802156983597" height="6.10426926335885" fill="#ff5e00" opacity="0.320486294180268" rx="1"/><rect x="1115.9015766703044" y="775.971978739596" width="8.922802156983597" height="6.10426926335885" fill="#ff8700" opacity="0.160243147090134" rx="1"/><rect x="1139.8759618541849" y="825.1115031133199" width="5.02001577266958" height="9.540593257066933" fill="#ff5e00" opacity="0.5525992900488431" rx="1"/><rect x="1117.8529698624614" y="829.8817997418535" width="5.02001577266958" height="9.540593257066933" fill="#ff8700" opacity="0.27629964502442156" rx="1"/><rect x="1136.405785476043" y="877.3031621187233" width="11.960368528952909" height="9.571201521803438" fill="#ff5e00" opacity="0.3443066392429887" rx="1"/><rect x="1114.3827934843196" y="882.088762879625" width="11.960368528952909" height="9.571201521803438" fill="#ff8700" opacity="0.17215331962149436" rx="1"/><rect x="1189.0822073735144" y="641.3997964447829" width="51.93052148957051" height="278.09502467934396" fill="#2d1600" opacity="0.45229510964180697" rx="2"/><rect x="1209.669795649201" y="651.3997964447829" width="10.75534493819702" height="7.779046552669966" fill="#ff5e00" opacity="0.11320710429297925" rx="1"/><rect x="1196.6871652768084" y="655.2893197211179" width="10.75534493819702" height="7.779046552669966" fill="#ff8700" opacity="0.05660355214648963" rx="1"/><rect x="1211.9688977214091" y="697.7489672246735" width="6.157140793781062" height="9.35403623416881" fill="#ff5e00" opacity="0.11899571286491019" rx="1"/><rect x="1198.9862673490165" y="702.425985341758" width="6.157140793781062" height="9.35403623416881" fill="#ff8700" opacity="0.059497856432455094" rx="1"/><rect x="1212.6071793826434" y="744.0981380045641" width="4.88057747131227" height="6.973048054839729" fill="#ff5e00" opacity="0.26427262387337924" rx="1"/><rect x="1199.6245490102508" y="747.584662031984" width="4.88057747131227" height="6.973048054839729" fill="#ff8700" opacity="0.13213631193668962" rx="1"/><rect x="1211.5517004817266" y="790.4473087844549" width="6.991535273145776" height="7.176603668643303" fill="#ff5e00" opacity="0.5507785261261227" rx="1"/><rect x="1198.569070109334" y="794.0356106187766" width="6.991535273145776" height="7.176603668643303" fill="#ff8700" opacity="0.27538926306306133" rx="1"/><rect x="1210.490368746487" y="836.7964795643455" width="9.114198743625124" height="9.891318392914561" fill="#ff5e00" opacity="0.21322064502472537" rx="1"/><rect x="1197.5077383740945" y="841.7421387608028" width="9.114198743625124" height="9.891318392914561" fill="#ff8700" opacity="0.10661032251236269" rx="1"/><rect x="1212.7760294031882" y="883.1456503442362" width="4.542877430222667" height="6.5286628139504845" fill="#ff5e00" opacity="0.5901055111526757" rx="1"/><rect x="1199.7933990307956" y="886.4099817512114" width="4.542877430222667" height="6.5286628139504845" fill="#ff8700" opacity="0.29505275557633787" rx="1"/><rect x="1266.042838329439" y="723.0079726253189" width="82.71905114704721" height="196.48684849880794" fill="#2d1600" opacity="0.5305338617485329" rx="2"/><rect x="1304.5639567513663" y="733.0079726253189" width="5.6768143031925" height="9.790707976508585" fill="#ff5e00" opacity="0.4519752387311252" rx="1"/><rect x="1283.8841939646045" y="737.9033266135732" width="5.6768143031925" height="9.790707976508585" fill="#ff8700" opacity="0.2259876193655626" rx="1"/><rect x="1303.9962298914113" y="772.3053423250805" width="6.8122680231026065" height="7.282455612272596" fill="#ff5e00" opacity="0.5908031256615192" rx="1"/><rect x="1283.3164671046495" y="775.9465701312167" width="6.8122680231026065" height="7.282455612272596" fill="#ff8700" opacity="0.2954015628307596" rx="1"/><rect x="1303.202028781668" y="811.602712024842" width="8.400670242589122" height="8.366518383465362" fill="#ff5e00" opacity="0.35835284340622664" rx="1"/><rect x="1282.5222659949063" y="815.7859712165747" width="8.400670242589122" height="8.366518383465362" fill="#ff8700" opacity="0.17917642170311332" rx="1"/><rect x="1303.8900174737914" y="850.9000817246036" width="7.0246928583422426" height="7.276717248669993" fill="#ff5e00" opacity="0.4448599427577248" rx="1"/><rect x="1283.2102546870296" y="854.5384403489386" width="7.0246928583422426" height="7.276717248669993" fill="#ff8700" opacity="0.2224299713788624" rx="1"/><rect x="1305.3421412213368" y="890.1974514243652" width="4.120445363251596" height="9.176959606627225" fill="#ff5e00" opacity="0.5318250806377793" rx="1"/><rect x="1284.662378434575" y="894.7859312276788" width="4.120445363251596" height="9.176959606627225" fill="#ff8700" opacity="0.26591254031888967" rx="1"/><rect x="1353.6178489368856" y="653.6340017811474" width="34.01446258277038" height="265.8608193429794" fill="#2d1600" opacity="0.694311967793459" rx="2"/><rect x="1368.0828875529712" y="663.6340017811474" width="5.084385350599043" height="8.66626368152589" fill="#ff5e00" opacity="0.36533533755348424" rx="1"/><rect x="1359.5792719072788" y="667.9671336219103" width="5.084385350599043" height="8.66626368152589" fill="#ff8700" opacity="0.18266766877674212" rx="1"/><rect x="1365.3783570887874" y="696.8666041990198" width="10.493446278966369" height="7.4584573864607275" fill="#ff5e00" opacity="0.3477809988771987" rx="1"/><rect x="1356.874741443095" y="700.5958328922501" width="10.493446278966369" height="7.4584573864607275" fill="#ff8700" opacity="0.17389049943859936" rx="1"/><rect x="1365.8044371788806" y="730.0992066168923" width="9.641286098780409" height="9.247024814422947" fill="#ff5e00" opacity="0.16872346428426063" rx="1"/><rect x="1357.3008215331881" y="734.7227190241038" width="9.641286098780409" height="9.247024814422947" fill="#ff8700" opacity="0.08436173214213032" rx="1"/><rect x="1366.836223532448" y="763.3318090347647" width="7.577713391645279" height="7.429051057768299" fill="#ff5e00" opacity="0.24020023544789298" rx="1"/><rect x="1358.3326078867556" y="767.0463345636488" width="7.577713391645279" height="7.429051057768299" fill="#ff8700" opacity="0.12010011772394649" rx="1"/><rect x="1365.9633019005732" y="796.5644114526372" width="9.323556655394741" height="8.874655708408602" fill="#ff5e00" opacity="0.27466441918505924" rx="1"/><rect x="1357.4596862548808" y="801.0017393068415" width="9.323556655394741" height="8.874655708408602" fill="#ff8700" opacity="0.13733220959252962" rx="1"/><rect x="1366.847260476095" y="829.7970138705095" width="7.55563950435157" height="9.19349012318847" fill="#ff5e00" opacity="0.2557371607412904" rx="1"/><rect x="1358.3436448304026" y="834.3937589321038" width="7.55563950435157" height="9.19349012318847" fill="#ff8700" opacity="0.1278685803706452" rx="1"/><rect x="1366.1446294633947" y="863.0296162883819" width="8.96090152975193" height="6.998425247380143" fill="#ff5e00" opacity="0.5930813193770781" rx="1"/><rect x="1357.6410138177023" y="866.528828912072" width="8.96090152975193" height="6.998425247380143" fill="#ff8700" opacity="0.29654065968853904" rx="1"/><rect x="1366.4152649789091" y="896.2622187062543" width="8.419630498723041" height="7.161766387792715" fill="#ff5e00" opacity="0.13080168879376763" rx="1"/><rect x="1357.9116493332167" y="899.8431019001507" width="8.419630498723041" height="7.161766387792715" fill="#ff8700" opacity="0.06540084439688382" rx="1"/><rect x="1428.1812451776618" y="689.8620950616574" width="75.17021393058127" height="229.63272606246935" fill="#130000" opacity="0.6720186294922649" rx="2"/><rect x="1462.06684057822" y="699.8620950616574" width="7.399023129464831" height="7.705570959883176" fill="#ff5e00" opacity="0.3638402728512511" rx="1"/><rect x="1443.274287095575" y="703.7148805415991" width="7.399023129464831" height="7.705570959883176" fill="#ff8700" opacity="0.18192013642562554" rx="1"/><rect x="1463.4321320454744" y="776.4063370824806" width="4.66844019495613" height="6.6257229933109425" fill="#ff5e00" opacity="0.3979748458131158" rx="1"/><rect x="1444.6395785628292" y="779.7191985791361" width="4.66844019495613" height="6.6257229933109425" fill="#ff8700" opacity="0.1989874229065579" rx="1"/><rect x="1460.9733010317216" y="852.9505791033037" width="9.586102222461744" height="6.2444266724038" fill="#ff5e00" opacity="0.3939703737604363" rx="1"/><rect x="1442.1807475490764" y="856.0727924395055" width="9.586102222461744" height="6.2444266724038" fill="#ff8700" opacity="0.19698518688021815" rx="1"/><rect x="1512.1019299283619" y="571.3649754695047" width="49.49716103717153" height="348.12984565462216" fill="#130000" opacity="0.47708845065838856" rx="2"/><rect x="1531.2887424293406" y="581.3649754695047" width="11.123536035214443" height="6.420826632627478" fill="#ff5e00" opacity="0.23165489855028104" rx="1"/><rect x="1518.9144521700475" y="584.5753887858184" width="11.123536035214443" height="6.420826632627478" fill="#ff8700" opacity="0.11582744927514052" rx="1"/><rect x="1530.8983027298457" y="650.9909446004291" width="11.90441543420414" height="9.89916171689964" fill="#ff5e00" opacity="0.42314997779278785" rx="1"/><rect x="1518.5240124705526" y="655.9405254588789" width="11.90441543420414" height="9.89916171689964" fill="#ff8700" opacity="0.21157498889639392" rx="1"/><rect x="1533.7470351693787" y="720.6169137313535" width="6.206950555138046" height="7.440630427897123" fill="#ff5e00" opacity="0.11064513693811492" rx="1"/><rect x="1521.3727449100857" y="724.3372289453021" width="6.206950555138046" height="7.440630427897123" fill="#ff8700" opacity="0.05532256846905746" rx="1"/><rect x="1532.4236213434767" y="790.242882862278" width="8.853778206942085" height="9.378898676340212" fill="#ff5e00" opacity="0.11175992749905213" rx="1"/><rect x="1520.0493310841837" y="794.9323322004481" width="8.853778206942085" height="9.378898676340212" fill="#ff8700" opacity="0.055879963749526064" rx="1"/><rect x="1533.1833263563178" y="859.8688519932024" width="7.334368181259922" height="6.796375712565234" fill="#ff5e00" opacity="0.30833262596473393" rx="1"/><rect x="1520.8090360970248" y="863.267039849485" width="7.334368181259922" height="6.796375712565234" fill="#ff8700" opacity="0.15416631298236697" rx="1"/><rect x="1607.3261348726887" y="624.8531856748399" width="78.7922130499017" height="294.6416354492869" fill="#2d1600" opacity="0.49487755102917497" rx="2"/><rect x="1644.1361288209664" y="634.8531856748399" width="5.172225153346599" height="7.270758639385635" fill="#ff5e00" opacity="0.29929194920679836" rx="1"/><rect x="1624.438075558491" y="638.4885649945327" width="5.172225153346599" height="7.270758639385635" fill="#ff8700" opacity="0.14964597460339918" rx="1"/><rect x="1642.0861958889393" y="676.9448478818808" width="9.272091017400868" height="9.72933620394425" fill="#ff5e00" opacity="0.43757157014626347" rx="1"/><rect x="1622.3881426264638" y="681.809515983853" width="9.272091017400868" height="9.72933620394425" fill="#ff8700" opacity="0.21878578507313173" rx="1"/><rect x="1643.5519508201419" y="719.0365100889219" width="6.340581154995734" height="6.568852730227833" fill="#ff5e00" opacity="0.2542465605666504" rx="1"/><rect x="1623.8538975576664" y="722.3209364540359" width="6.340581154995734" height="6.568852730227833" fill="#ff8700" opacity="0.1271232802833252" rx="1"/><rect x="1642.8644790902786" y="761.1281722959628" width="7.715524614722357" height="6.38411852726343" fill="#ff5e00" opacity="0.23575536691019205" rx="1"/><rect x="1623.166425827803" y="764.3202315595945" width="7.715524614722357" height="6.38411852726343" fill="#ff8700" opacity="0.11787768345509603" rx="1"/><rect x="1644.081191086685" y="803.2198345030039" width="5.282100621909392" height="7.7877468917955985" fill="#ff5e00" opacity="0.5451077118155332" rx="1"/><rect x="1624.3831378242096" y="807.1137079489017" width="5.282100621909392" height="7.7877468917955985" fill="#ff8700" opacity="0.2725538559077666" rx="1"/><rect x="1643.2322707653952" y="845.3114967100448" width="6.979941264488721" height="8.060247717904916" fill="#ff5e00" opacity="0.15029098341481084" rx="1"/><rect x="1623.5342175029198" y="849.3416205689973" width="6.979941264488721" height="8.060247717904916" fill="#ff8700" opacity="0.07514549170740542" rx="1"/><rect x="1642.1534560285768" y="887.4031589170859" width="9.137570738125959" height="7.416940353209371" fill="#ff5e00" opacity="0.46948928036016624" rx="1"/><rect x="1622.4554027661013" y="891.1116290936906" width="9.137570738125959" height="7.416940353209371" fill="#ff8700" opacity="0.23474464018008312" rx="1"/><rect x="1686.7196305123941" y="720.6718339516483" width="45.22255987283368" height="198.82298717247858" fill="#130000" opacity="0.40223987978003917" rx="2"/><rect x="1705.7415653518306" y="730.6718339516483" width="7.178690193961069" height="8.499349436373299" fill="#ff5e00" opacity="0.2892253475238628" rx="1"/><rect x="1694.4359253836221" y="734.9215086698349" width="7.178690193961069" height="8.499349436373299" fill="#ff8700" opacity="0.1446126737619314" rx="1"/><rect x="1705.6834168662085" y="770.436431386144" width="7.294987165204945" height="9.41932536648105" fill="#ff5e00" opacity="0.4010500479259179" rx="1"/><rect x="1694.377776898" y="775.1460940693845" width="7.294987165204945" height="9.41932536648105" fill="#ff8700" opacity="0.20052502396295896" rx="1"/><rect x="1704.7764833134117" y="810.2010288206397" width="9.108854270798354" height="8.074452400690516" fill="#ff5e00" opacity="0.40371808779978147" rx="1"/><rect x="1693.4708433452033" y="814.238255020985" width="9.108854270798354" height="8.074452400690516" fill="#ff8700" opacity="0.20185904389989073" rx="1"/><rect x="1707.1210627526366" y="849.9656262551355" width="4.419695392348733" height="6.363195047798379" fill="#ff5e00" opacity="0.46067207072877137" rx="1"/><rect x="1695.8154227844282" y="853.1472237790347" width="4.419695392348733" height="6.363195047798379" fill="#ff8700" opacity="0.23033603536438568" rx="1"/><rect x="1704.3178137868026" y="889.7302236896312" width="10.026193324016917" height="9.301032635220567" fill="#ff5e00" opacity="0.2149143139167955" rx="1"/><rect x="1693.0121738185942" y="894.3807400072415" width="10.026193324016917" height="9.301032635220567" fill="#ff8700" opacity="0.10745715695839775" rx="1"/><rect x="1768.6784243681832" y="566.0728514231911" width="72.41229710690963" height="353.42196970093573" fill="#2d1600" opacity="0.4531673642930499" rx="2"/><rect x="1802.5886024993533" y="576.0728514231911" width="4.591940844569342" height="8.365009066268104" fill="#ff5e00" opacity="0.5686307537994885" rx="1"/><rect x="1784.485528222626" y="580.2553559563252" width="4.591940844569342" height="8.365009066268104" fill="#ff8700" opacity="0.28431537689974423" rx="1"/><rect x="1799.6488046781456" y="693.8801746568363" width="10.471536486985054" height="8.601648148754995" fill="#ff5e00" opacity="0.17503064572229765" rx="1"/><rect x="1781.5457304014183" y="698.1809987312138" width="10.471536486985054" height="8.601648148754995" fill="#ff8700" opacity="0.08751532286114883" rx="1"/><rect x="1800.1647764338745" y="811.6874978904816" width="9.439592975526953" height="6.826493489748447" fill="#ff5e00" opacity="0.18044333653069178" rx="1"/><rect x="1782.0617021571472" y="815.1007446353558" width="9.439592975526953" height="6.826493489748447" fill="#ff8700" opacity="0.09022166826534589" rx="1"/><rect x="1865.6040709436272" y="554.3532140563133" width="46.66886296511369" height="365.14160706781354" fill="#130000" opacity="0.48319845210835305" rx="2"/><rect x="1883.2650506123907" y="564.3532140563133" width="11.346903627586297" height="6.007301522420557" fill="#ff5e00" opacity="0.1153519401828181" rx="1"/><rect x="1871.5978348711124" y="567.3568648175235" width="11.346903627586297" height="6.007301522420557" fill="#ff8700" opacity="0.05767597009140905" rx="1"/><rect x="1883.0424308515574" y="637.381535469876" width="11.792143149253015" height="9.333551727080147" fill="#ff5e00" opacity="0.558513708426271" rx="1"/><rect x="1871.375215110279" y="642.0483113334161" width="11.792143149253015" height="9.333551727080147" fill="#ff8700" opacity="0.2792568542131355" rx="1"/><rect x="1884.6988557589793" y="710.4098568834387" width="8.47929333440943" height="9.757005418594229" fill="#ff5e00" opacity="0.35149291002924854" rx="1"/><rect x="1873.031640017701" y="715.2883595927358" width="8.47929333440943" height="9.757005418594229" fill="#ff8700" opacity="0.17574645501462427" rx="1"/><rect x="1885.5923399800274" y="783.4381782970014" width="6.692324892313295" height="7.62689414844543" fill="#ff5e00" opacity="0.49053290823719764" rx="1"/><rect x="1873.925124238749" y="787.2516253712241" width="6.692324892313295" height="7.62689414844543" fill="#ff8700" opacity="0.24526645411859882" rx="1"/><rect x="1884.1838727930844" y="856.4664997105641" width="9.509259266198907" height="6.833148982569843" fill="#ff5e00" opacity="0.44706443917170735" rx="1"/><rect x="1872.516657051806" y="859.883074201849" width="9.509259266198907" height="6.833148982569843" fill="#ff8700" opacity="0.22353221958585368" rx="1"/><path d="M1465.3523141577261 801.908714580794 Q1474.5613312382625 729.0171074806752 1476.4031346543698 656.1255003805564" stroke="#000000" stroke-width="7.942959003137182" fill="none" stroke-linecap="round"/><path d="M1476.4031346543698 656.1255003805564 Q1508.7989056272893 636.1255003805564 1523.983299534298 656.1255003805564" stroke="#000000" stroke-width="2.4160993556529515" fill="none" stroke-linecap="round" opacity="0.6"/><path d="M1476.4031346543698 656.1255003805564 Q1496.693558665268 642.5721942483699 1510.6769133600542 669.0188881161835" stroke="#000000" stroke-width="3.4701548943925076" fill="none" stroke-linecap="round" opacity="0.6"/><path d="M1476.4031346543698 656.1255003805564 Q1480.223291981536 646.3689561487284 1460.8164550924405 676.6124119169004" stroke="#000000" stroke-width="3.1519092333391097" fill="none" stroke-linecap="round" opacity="0.6"/><path d="M1476.4031346543698 656.1255003805564 Q1478.6065618473085 638.6188470423712 1441.8865500388333 661.1121937041859" stroke="#000000" stroke-width="2.2596119428657953" fill="none" stroke-linecap="round" opacity="0.6"/><path d="M1476.4031346543698 656.1255003805564 Q1461.4742237719256 633.9325756988399 1446.0454345033293 651.7396510171233" stroke="#000000" stroke-width="3.9897235617948983" fill="none" stroke-linecap="round" opacity="0.6"/><path d="M1476.4031346543698 656.1255003805564 Q1483.6879259050777 625.9624302650163 1460.938771763426 635.7993601494763" stroke="#000000" stroke-width="2.645963772350448" fill="none" stroke-linecap="round" opacity="0.6"/><path d="M1476.4031346543698 656.1255003805564 Q1507.9904354532791 631.4337420211856 1501.3468175788018 646.7419836618147" stroke="#000000" stroke-width="3.8576563773345334" fill="none" stroke-linecap="round" opacity="0.6"/><path d="M159.89301908758773 858.8147241991978 Q151.4723390646913 763.1269579783843 149.788203060112 667.4391917575707" stroke="#000000" stroke-width="6.9276789284608515" fill="none" stroke-linecap="round"/><path d="M149.788203060112 667.4391917575707 Q202.89676695896702 647.4391917575707 229.45268462632146 667.4391917575707" stroke="#000000" stroke-width="3.5373129610757603" fill="none" stroke-linecap="round" opacity="0.6"/><path d="M149.788203060112 667.4391917575707 Q174.63605243183616 656.716049085149 199.10851540146197 685.9929064127275" stroke="#000000" stroke-width="3.9429652425327726" fill="none" stroke-linecap="round" opacity="0.6"/><path d="M149.788203060112 667.4391917575707 Q162.77724182162754 654.1479932303807 139.57993534579248 680.8567947031909" stroke="#000000" stroke-width="2.8665340721762123" fill="none" stroke-linecap="round" opacity="0.6"/><path d="M149.788203060112 667.4391917575707 Q136.49086921753124 649.4889271749621 121.41274004994207 671.5386625923536" stroke="#000000" stroke-width="3.6076705305854952" fill="none" stroke-linecap="round" opacity="0.6"/><path d="M149.788203060112 667.4391917575707 Q127.14168498770835 643.0587002639465 89.14697430002192 658.6782087703225" stroke="#000000" stroke-width="3.0347178054588655" fill="none" stroke-linecap="round" opacity="0.6"/><path d="M149.788203060112 667.4391917575707 Q158.66026704989036 642.8205801774848 142.76041670079596 658.2019685973987" stroke="#000000" stroke-width="2.6886694675052234" fill="none" stroke-linecap="round" opacity="0.6"/><path d="M149.788203060112 667.4391917575707 Q169.6138258776839 642.442576135018 176.35265634984398 657.4459605124655" stroke="#000000" stroke-width="3.6287981531649827" fill="none" stroke-linecap="round" opacity="0.6"/><path d="M1278.2462148364275 804.28302560567 Q1271.8351069865364 729.8925935243938 1270.5528854165582 655.5021614431176" stroke="#000000" stroke-width="5.044938049522447" fill="none" stroke-linecap="round"/><path d="M1270.5528854165582 655.5021614431176 Q1310.899904241762 635.5021614431176 1322.854918196065 655.5021614431176" stroke="#000000" stroke-width="3.079861825117809" fill="none" stroke-linecap="round" opacity="0.6"/><path d="M1270.5528854165582 655.5021614431176 Q1294.8695672724637 640.6278368529943 1297.803483679395 665.7535122628708" stroke="#000000" stroke-width="2.6537656706417367" fill="none" stroke-linecap="round" opacity="0.6"/><path d="M1270.5528854165582 655.5021614431176 Q1279.7331268796997 645.2558442723733 1255.711455702899 675.009527101629" stroke="#000000" stroke-width="2.818219585069041" fill="none" stroke-linecap="round" opacity="0.6"/><path d="M1270.5528854165582 655.5021614431176 Q1236.0115757058131 640.5909908096471 1200.105798329197 665.6798201761767" stroke="#000000" stroke-width="2.3884205162498215" fill="none" stroke-linecap="round" opacity="0.6"/><path d="M1270.5528854165582 655.5021614431176 Q1251.3826220788446 632.1103607927245 1223.598574593562 648.7185601423313" stroke="#000000" stroke-width="3.3871868819434168" fill="none" stroke-linecap="round" opacity="0.6"/><path d="M1270.5528854165582 655.5021614431176 Q1269.7714051890605 630.401797128645 1262.792052937953 645.3014328141722" stroke="#000000" stroke-width="3.4566176448614843" fill="none" stroke-linecap="round" opacity="0.6"/><path d="M1257.459566587922 979.3492241481666 Q1241.8947234614507 892.8801063606236 1238.7817548361563 806.4109885730807" stroke="#000000" stroke-width="7.613269820719322" fill="none" stroke-linecap="round"/><path d="M1238.7817548361563 806.4109885730807 Q1274.8572273712737 786.4109885730807 1274.4616907179498 806.4109885730807" stroke="#000000" stroke-width="2.0374775710602937" fill="none" stroke-linecap="round" opacity="0.6"/><path d="M1238.7817548361563 806.4109885730807 Q1261.3780340350017 792.6669212695851 1272.041353823501 818.9228539660896" stroke="#000000" stroke-width="3.781243913756042" fill="none" stroke-linecap="round" opacity="0.6"/><path d="M1238.7817548361563 806.4109885730807 Q1253.713885450843 791.141370406023 1231.5838962712041 815.8717522389655" stroke="#000000" stroke-width="2.2904307903466816" fill="none" stroke-linecap="round" opacity="0.6"/><path d="M1238.7817548361563 806.4109885730807 Q1210.052220277529 790.678997880181 1179.697670523064 814.9470071872814" stroke="#000000" stroke-width="3.884854933220161" fill="none" stroke-linecap="round" opacity="0.6"/><path d="M1238.7817548361563 806.4109885730807 Q1225.1107084237578 783.761110298362 1202.0982285977202 801.1112320236434" stroke="#000000" stroke-width="3.112528308088083" fill="none" stroke-linecap="round" opacity="0.6"/><path d="M1238.7817548361563 806.4109885730807 Q1254.1081080940485 780.4831081780414 1229.7617547219363 794.5552277830024" stroke="#000000" stroke-width="3.722479658602383" fill="none" stroke-linecap="round" opacity="0.6"/><path d="M1238.7817548361563 806.4109885730807 Q1262.6504988799838 778.8675982320085 1278.8861085625404 791.3242078909363" stroke="#000000" stroke-width="2.02939964505597" fill="none" stroke-linecap="round" opacity="0.6"/><rect x="0" y="1000" width="1920" height="80" fill="#070000" opacity="0.8"/><line x1="0" y1="1040" x2="1920" y2="1040" stroke="#ff5e00" stroke-opacity="0.15" stroke-width="2" stroke-dasharray="30,20"/><rect x="0" y="930" width="1920" height="150" fill="url(#glow77)"/><text x="1900" y="1060" font-family="Arial, sans-serif" font-size="11" fill="#fff" opacity="0.08" text-anchor="end" letter-spacing="2">GTA 6 REWARDS · WALLPAPER 078</text>
</svg>