<?xml version="1.0" encoding="UTF-8"?>
<svg xmlns="http://www.w3.org/2000/svg" width="1920" height="1080" viewBox="0 0 1920 1080">
<defs>
    <linearGradient id="bg50" x1="0%" y1="0%" x2="0%" y2="100%">
      <stop offset="0%" stop-color="#2ec4b6"/>
      <stop offset="50%" stop-color="#009183"/>
      <stop offset="100%" stop-color="#2ec4b6"/>
    </linearGradient>
    <linearGradient id="sun50" x1="0%" y1="0%" x2="100%" y2="100%">
      <stop offset="0%" stop-color="#ff9f1c"/>
      <stop offset="100%" stop-color="#ffbf69"/>
    </linearGradient>
    <radialGradient id="glow50" cx="50%" cy="70%" r="50%">
      <stop offset="0%" stop-color="#ff9f1c" stop-opacity="0.3"/>
      <stop offset="100%" stop-color="#2ec4b6" stop-opacity="0"/>
    </radialGradient>
  </defs><rect width="1920" height="1080" fill="url(#bg50)"/><circle cx="431.49038351408444" cy="334.467517802135" r="622.1595756295509" fill="#ff9f1c" opacity="0.058138687538015356"/><circle cx="631.4903835140844" cy="234.46751780213498" r="595.6992089272708" fill="#ffbf69" opacity="0.06342896130248647"/><circle cx="1377.3227747244116" cy="213.16043584681125" r="70.11315107581046" fill="url(#sun50)" opacity="0.6718501931223669"/><circle cx="1377.3227747244116" cy="213.16043584681125" r="65.11315107581046" fill="#2ec4b6" opacity="0.3"/><rect x="1.5553057127528138" y="620.727740687022" width="77.18908941074952" height="218.34097486416366" fill="#14aa9c" opacity="0.5912095915738516" rx="2"/><rect x="36.34503434024403" y="630.727740687022" width="7.609632155767091" height="7.645192169967385" fill="#ffbf69" opacity="0.58587850678849" rx="1"/><rect x="17.047761987556648" y="634.5503367720057" width="7.609632155767091" height="7.645192169967385" fill="#ff9f1c" opacity="0.292939253394245" rx="1"/><rect x="34.556791169931365" y="685.312984403063" width="11.186118496392416" height="8.78360666026911" fill="#ffbf69" opacity="0.3367372457489225" rx="1"/><rect x="15.259518817243983" y="689.7047877331975" width="11.186118496392416" height="8.78360666026911" fill="#ff9f1c" opacity="0.16836862287446125" rx="1"/><rect x="35.630274404452706" y="739.8982281191038" width="9.039152027349722" height="6.74829057248968" fill="#ffbf69" opacity="0.3143735809285132" rx="1"/><rect x="16.33300205176533" y="743.2723734053486" width="9.039152027349722" height="6.74829057248968" fill="#ff9f1c" opacity="0.1571867904642566" rx="1"/><rect x="36.85352028251009" y="794.4834718351448" width="6.592660271234964" height="7.094078379006609" fill="#ffbf69" opacity="0.5995744876795389" rx="1"/><rect x="17.55624792982271" y="798.030511024648" width="6.592660271234964" height="7.094078379006609" fill="#ff9f1c" opacity="0.29978724383976946" rx="1"/><rect x="141.7479263599375" y="669.6042518642741" width="36.85249187677458" height="169.4644636869115" fill="#2ec4b6" opacity="0.5707363993326986" rx="2"/><rect x="156.85954014953683" y="679.6042518642741" width="6.629264297575984" height="9.72711205010468" fill="#ffbf69" opacity="0.4498351669055026" rx="1"/><rect x="147.64641718034318" y="684.4678078893265" width="6.629264297575984" height="9.72711205010468" fill="#ff9f1c" opacity="0.2249175834527513" rx="1"/><rect x="154.8107802434384" y="736.092406426578" width="10.726784109772831" height="8.998992557404328" fill="#ffbf69" opacity="0.13275913163850994" rx="1"/><rect x="145.59765727424474" y="740.5919027052802" width="10.726784109772831" height="8.998992557404328" fill="#ff9f1c" opacity="0.06637956581925497" rx="1"/><rect x="155.6558286162689" y="792.5805609888819" width="9.036687364111813" height="9.191770640013686" fill="#ffbf69" opacity="0.20901625841134608" rx="1"/><rect x="146.44270564707526" y="797.1764463088887" width="9.036687364111813" height="9.191770640013686" fill="#ff9f1c" opacity="0.10450812920567304" rx="1"/><rect x="254.59325135326787" y="756.664552285025" width="35.439645612016236" height="82.40416326616057" fill="#2ec4b6" opacity="0.5236546128112018" rx="2"/><rect x="269.7779781806231" y="766.664552285025" width="5.0701919573056955" height="8.437259378479155" fill="#ffbf69" opacity="0.5643691141308214" rx="1"/><rect x="260.91806677761906" y="770.8831819742646" width="5.0701919573056955" height="8.437259378479155" fill="#ff9f1c" opacity="0.2821845570654107" rx="1"/><rect x="269.5376551613532" y="776.965072693295" width="5.550837995845554" height="6.477932654432471" fill="#ffbf69" opacity="0.3164370796448638" rx="1"/><rect x="260.67774375834915" y="780.2040390205112" width="5.550837995845554" height="6.477932654432471" fill="#ff9f1c" opacity="0.1582185398224319" rx="1"/><rect x="269.8376819246536" y="787.2655931015652" width="4.950784469244718" height="6.948687372950066" fill="#ffbf69" opacity="0.364766874668367" rx="1"/><rect x="260.9777705216496" y="790.7399367880402" width="4.950784469244718" height="6.948687372950066" fill="#ff9f1c" opacity="0.1823834373341835" rx="1"/><rect x="269.2989423513177" y="797.5661135098352" width="6.028263615916544" height="9.265805341132406" fill="#ffbf69" opacity="0.4404243865144496" rx="1"/><rect x="260.43903094831364" y="802.1990161804014" width="6.028263615916544" height="9.265805341132406" fill="#ff9f1c" opacity="0.2202121932572248" rx="1"/><rect x="268.09210074904655" y="807.8666339181053" width="8.44194682045885" height="9.40504812621629" fill="#ffbf69" opacity="0.5649190772243121" rx="1"/><rect x="259.2321893460425" y="812.5691579812135" width="8.44194682045885" height="9.40504812621629" fill="#ff9f1c" opacity="0.28245953861215606" rx="1"/><rect x="266.31616444683544" y="818.1671543263753" width="11.993819424881092" height="6.2739048368003925" fill="#ffbf69" opacity="0.4036779302180926" rx="1"/><rect x="257.4562530438314" y="821.3041067447755" width="11.993819424881092" height="6.2739048368003925" fill="#ff9f1c" opacity="0.2018389651090463" rx="1"/><rect x="268.95545550295043" y="828.4676747346455" width="6.715237312651062" height="8.732011116745884" fill="#ffbf69" opacity="0.4885144513073644" rx="1"/><rect x="260.0955440999464" y="832.8336802930185" width="6.715237312651062" height="8.732011116745884" fill="#ff9f1c" opacity="0.2442572256536822" rx="1"/><rect x="268.26598042372285" y="838.7681951429155" width="8.094187471106228" height="6.034408132553661" fill="#ffbf69" opacity="0.36802929718234323" rx="1"/><rect x="259.4060690207188" y="841.7853992091923" width="8.094187471106228" height="6.034408132553661" fill="#ff9f1c" opacity="0.18401464859117161" rx="1"/><rect x="385.9371692328568" y="687.649874514353" width="68.97835397603417" height="151.41884103683265" fill="#14aa9c" opacity="0.5177749927895552" rx="2"/><rect x="417.8629019378831" y="697.649874514353" width="5.126888565981502" height="6.803890786320877" fill="#ffbf69" opacity="0.5250846566690794" rx="1"/><rect x="400.61831344387457" y="701.0518199075134" width="5.126888565981502" height="6.803890786320877" fill="#ff9f1c" opacity="0.2625423283345397" rx="1"/><rect x="415.8741159515628" y="716.577229643957" width="9.1044605386221" height="9.23312890698042" fill="#ffbf69" opacity="0.20261580280554847" rx="1"/><rect x="398.6295274575543" y="721.1937940974473" width="9.1044605386221" height="9.23312890698042" fill="#ff9f1c" opacity="0.10130790140277424" rx="1"/><rect x="415.40378632499" y="735.5045847735612" width="10.04511979176782" height="7.997793125453823" fill="#ffbf69" opacity="0.20186663284009942" rx="1"/><rect x="398.15919783098144" y="739.5034813362881" width="10.04511979176782" height="7.997793125453823" fill="#ff9f1c" opacity="0.10093331642004971" rx="1"/><rect x="415.76135315950063" y="754.4319399031652" width="9.329986122746483" height="7.146088207407409" fill="#ffbf69" opacity="0.2724891559389627" rx="1"/><rect x="398.5167646654921" y="758.004984006869" width="9.329986122746483" height="7.146088207407409" fill="#ff9f1c" opacity="0.13624457796948136" rx="1"/><rect x="417.719472371675" y="773.3592950327693" width="5.413747698397783" height="9.275992520916274" fill="#ffbf69" opacity="0.27468351537237956" rx="1"/><rect x="400.47488387766646" y="777.9972912932275" width="5.413747698397783" height="9.275992520916274" fill="#ff9f1c" opacity="0.13734175768618978" rx="1"/><rect x="417.5415363131421" y="792.2866501623733" width="5.769619815463577" height="8.095772098306513" fill="#ffbf69" opacity="0.39479005962954605" rx="1"/><rect x="400.29694781913355" y="796.3345362115266" width="5.769619815463577" height="8.095772098306513" fill="#ff9f1c" opacity="0.19739502981477303" rx="1"/><rect x="416.57450942359276" y="811.2140052919774" width="7.703673594562261" height="8.929898225453194" fill="#ffbf69" opacity="0.5635013090361611" rx="1"/><rect x="399.3299209295842" y="815.678954404704" width="7.703673594562261" height="8.929898225453194" fill="#ff9f1c" opacity="0.28175065451808057" rx="1"/><rect x="417.26616403699535" y="830.1413604215816" width="6.320364367757078" height="9.093665756074168" fill="#ffbf69" opacity="0.5188485041770265" rx="1"/><rect x="400.0215755429868" y="834.6881932996187" width="6.320364367757078" height="9.093665756074168" fill="#ff9f1c" opacity="0.2594242520885133" rx="1"/><rect x="495.2075854072365" y="488.4159131996371" width="83.16768059813596" height="350.65280235154853" fill="#14aa9c" opacity="0.5456693499222559" rx="2"/><rect x="533.9364370910769" y="498.4159131996371" width="5.709977230455255" height="8.461151585555903" fill="#ffbf69" opacity="0.4795110922957564" rx="1"/><rect x="513.1445169415429" y="502.646488992415" width="5.709977230455255" height="8.461151585555903" fill="#ff9f1c" opacity="0.2397555461478782" rx="1"/><rect x="533.4085160066394" y="586.0791137875242" width="6.765819399330257" height="8.433175249591743" fill="#ffbf69" opacity="0.35891719333802286" rx="1"/><rect x="512.6165958571054" y="590.2957014123201" width="6.765819399330257" height="8.433175249591743" fill="#ff9f1c" opacity="0.17945859666901143" rx="1"/><rect x="531.1869216110061" y="673.7423143754113" width="11.20900819059671" height="7.695483762234329" fill="#ffbf69" opacity="0.5136889166929035" rx="1"/><rect x="510.39500146147213" y="677.5900562565284" width="11.20900819059671" height="7.695483762234329" fill="#ff9f1c" opacity="0.25684445834645175" rx="1"/><rect x="534.0756699529187" y="761.4055149632985" width="5.431511506771555" height="9.204549170845317" fill="#ffbf69" opacity="0.3796369073399428" rx="1"/><rect x="513.2837498033847" y="766.0077895487211" width="5.431511506771555" height="9.204549170845317" fill="#ff9f1c" opacity="0.1898184536699714" rx="1"/><rect x="603.9040095996819" y="523.1686357579122" width="79.94207274400212" height="315.90007979327345" fill="#14aa9c" opacity="0.48726959633344546" rx="2"/><rect x="641.4854436764692" y="533.1686357579122" width="4.779204590427504" height="8.87025775268447" fill="#ffbf69" opacity="0.5382979692747579" rx="1"/><rect x="621.4999254904686" y="537.6037646342544" width="4.779204590427504" height="8.87025775268447" fill="#ff9f1c" opacity="0.26914898463737896" rx="1"/><rect x="641.0291258315624" y="596.3486517165669" width="5.691840280241296" height="9.974995689460775" fill="#ffbf69" opacity="0.44979181151133774" rx="1"/><rect x="621.0436076455618" y="601.3361495612972" width="5.691840280241296" height="9.974995689460775" fill="#ff9f1c" opacity="0.22489590575566887" rx="1"/><rect x="640.7974896686611" y="659.5286676752215" width="6.155112606043721" height="9.375899330567545" fill="#ffbf69" opacity="0.2194774884775927" rx="1"/><rect x="620.8119714826605" y="664.2166173405053" width="6.155112606043721" height="9.375899330567545" fill="#ff9f1c" opacity="0.10973874423879636" rx="1"/><rect x="639.0809613950739" y="722.7086836338763" width="9.588169153218196" height="7.3955760564179105" fill="#ffbf69" opacity="0.17116692072506223" rx="1"/><rect x="619.0954432090733" y="726.4064716620852" width="9.588169153218196" height="7.3955760564179105" fill="#ff9f1c" opacity="0.08558346036253112" rx="1"/><rect x="639.8577748855711" y="785.8886995925309" width="8.034542172223922" height="9.547197217016294" fill="#ffbf69" opacity="0.35287329457999983" rx="1"/><rect x="619.8722566995705" y="790.662298201039" width="8.034542172223922" height="9.547197217016294" fill="#ff9f1c" opacity="0.17643664728999991" rx="1"/><rect x="731.4660435150065" y="727.6416460698567" width="73.19372711777541" height="111.42706948132884" fill="#14aa9c" opacity="0.6123939841781729" rx="2"/><rect x="763.6428077450587" y="737.6416460698567" width="8.840198657671035" height="6.003617314622648" fill="#ffbf69" opacity="0.3192764443390249" rx="1"/><rect x="745.3443759656149" y="740.6434547271681" width="8.840198657671035" height="6.003617314622648" fill="#ff9f1c" opacity="0.15963822216951246" rx="1"/><rect x="762.0879005214869" y="753.5597988529037" width="11.950013104814573" height="9.914917949567297" fill="#ffbf69" opacity="0.18553054406902067" rx="1"/><rect x="743.789468742043" y="758.5172578276873" width="11.950013104814573" height="9.914917949567297" fill="#ff9f1c" opacity="0.09276527203451033" rx="1"/><rect x="765.5547110113674" y="769.4779516359507" width="5.0163921250534225" height="7.950656968623087" fill="#ffbf69" opacity="0.5875272794131952" rx="1"/><rect x="747.2562792319236" y="773.4532801202622" width="5.0163921250534225" height="7.950656968623087" fill="#ff9f1c" opacity="0.2937636397065976" rx="1"/><rect x="762.873338061821" y="785.3961044189977" width="10.379138024146467" height="7.695231215491712" fill="#ffbf69" opacity="0.29302764143632437" rx="1"/><rect x="744.5749062823771" y="789.2437200267435" width="10.379138024146467" height="7.695231215491712" fill="#ff9f1c" opacity="0.14651382071816219" rx="1"/><rect x="763.8637071705571" y="801.3142572020447" width="8.398399806674197" height="9.128888185864522" fill="#ffbf69" opacity="0.17294996887746966" rx="1"/><rect x="745.5652753911132" y="805.878701294977" width="8.398399806674197" height="9.128888185864522" fill="#ff9f1c" opacity="0.08647498443873483" rx="1"/><rect x="765.3445522730109" y="817.2324099850916" width="5.436709601766595" height="8.593308745555884" fill="#ffbf69" opacity="0.2703211553791354" rx="1"/><rect x="747.0461204935671" y="821.5290643578696" width="5.436709601766595" height="8.593308745555884" fill="#ff9f1c" opacity="0.1351605776895677" rx="1"/><rect x="765.7366855444238" y="833.1505627681386" width="4.652443058940685" height="9.538142257262521" fill="#ffbf69" opacity="0.3651532602648142" rx="1"/><rect x="747.43825376498" y="837.9196338967698" width="4.652443058940685" height="9.538142257262521" fill="#ff9f1c" opacity="0.1825766301324071" rx="1"/><rect x="853.6631257584465" y="680.8084250266684" width="51.0289172411498" height="158.26029052451725" fill="#14aa9c" opacity="0.6092061705210261" rx="2"/><rect x="875.721181155816" y="690.8084250266684" width="6.912806446410903" height="7.96001611602493" fill="#ffbf69" opacity="0.30364553497723434" rx="1"/><rect x="862.9639518455285" y="694.7884330846808" width="6.912806446410903" height="7.96001611602493" fill="#ff9f1c" opacity="0.15182276748861717" rx="1"/><rect x="876.4899566610088" y="710.5909613422331" width="5.375255436025387" height="7.972357809071513" fill="#ffbf69" opacity="0.2604480678589195" rx="1"/><rect x="863.7327273507213" y="714.5771402467689" width="5.375255436025387" height="7.972357809071513" fill="#ff9f1c" opacity="0.13022403392945975" rx="1"/><rect x="873.5971934545313" y="730.3734976577977" width="11.160781848980296" height="8.882972871624625" fill="#ffbf69" opacity="0.2578028184962" rx="1"/><rect x="860.8399641442438" y="734.81498409361" width="11.160781848980296" height="8.882972871624625" fill="#ff9f1c" opacity="0.1289014092481" rx="1"/><rect x="873.5702210712643" y="750.1560339733624" width="11.214726615514309" height="6.873354687558803" fill="#ffbf69" opacity="0.2986386133820374" rx="1"/><rect x="860.8129917609768" y="753.5927113171417" width="11.214726615514309" height="6.873354687558803" fill="#ff9f1c" opacity="0.1493193066910187" rx="1"/><rect x="876.4439874327379" y="769.9385702889269" width="5.467193892567231" height="7.544749730626296" fill="#ffbf69" opacity="0.21024594297871133" rx="1"/><rect x="863.6867581224504" y="773.7109451542401" width="5.467193892567231" height="7.544749730626296" fill="#ff9f1c" opacity="0.10512297148935566" rx="1"/><rect x="875.8728783025576" y="789.7211066044916" width="6.609412152927698" height="6.336420292113075" fill="#ffbf69" opacity="0.14941639165613252" rx="1"/><rect x="863.1156489922702" y="792.8893167505481" width="6.609412152927698" height="6.336420292113075" fill="#ff9f1c" opacity="0.07470819582806626" rx="1"/><rect x="876.4546512140554" y="809.5036429200563" width="5.445866329932088" height="7.525173091684741" fill="#ffbf69" opacity="0.3183653209866875" rx="1"/><rect x="863.6974219037679" y="813.2662294658987" width="5.445866329932088" height="7.525173091684741" fill="#ff9f1c" opacity="0.15918266049334376" rx="1"/><rect x="874.0885403698983" y="829.2861792356209" width="10.17808801824648" height="8.437083314740352" fill="#ffbf69" opacity="0.2763671730124315" rx="1"/><rect x="861.3313110596108" y="833.5047208929911" width="10.17808801824648" height="8.437083314740352" fill="#ff9f1c" opacity="0.13818358650621576" rx="1"/><rect x="960.1579068974028" y="524.099998682295" width="69.4048415961221" height="314.9687168688906" fill="#14aa9c" opacity="0.42342032688283837" rx="2"/><rect x="989.6673948784982" y="534.099998682295" width="10.385865633931445" height="6.226678326778737" fill="#ffbf69" opacity="0.44780231312564633" rx="1"/><rect x="972.3161844794676" y="537.2133378456844" width="10.385865633931445" height="6.226678326778737" fill="#ff9f1c" opacity="0.22390115656282317" rx="1"/><rect x="990.498236201121" y="597.0937420560731" width="8.724182988685598" height="7.054135524913234" fill="#ffbf69" opacity="0.11736687228953627" rx="1"/><rect x="973.1470258020904" y="600.6208098185297" width="8.724182988685598" height="7.054135524913234" fill="#ff9f1c" opacity="0.058683436144768134" rx="1"/><rect x="991.0275846528885" y="660.0874854298512" width="7.665486085150737" height="7.780159436580762" fill="#ffbf69" opacity="0.1542779746591761" rx="1"/><rect x="973.676374253858" y="663.9775651481416" width="7.665486085150737" height="7.780159436580762" fill="#ff9f1c" opacity="0.07713898732958804" rx="1"/><rect x="992.634671004404" y="723.0812288036293" width="4.451313382119712" height="6.195951726333227" fill="#ffbf69" opacity="0.1728872901696915" rx="1"/><rect x="975.2834606053734" y="726.179204666796" width="4.451313382119712" height="6.195951726333227" fill="#ff9f1c" opacity="0.08644364508484575" rx="1"/><rect x="990.9658539383593" y="786.0749721774075" width="7.788947514209186" height="6.2400569981522995" fill="#ffbf69" opacity="0.41817432989323844" rx="1"/><rect x="973.6146435393287" y="789.1950006764837" width="7.788947514209186" height="6.2400569981522995" fill="#ff9f1c" opacity="0.20908716494661922" rx="1"/><rect x="1098.262568886453" y="541.7945617325126" width="53.67630707651291" height="297.27415381867297" fill="#14aa9c" opacity="0.4273364667378684" rx="2"/><rect x="1121.492317719034" y="551.7945617325126" width="7.216809411350827" height="7.07184601600092" fill="#ffbf69" opacity="0.2090095832732063" rx="1"/><rect x="1108.0732409499058" y="555.3304847405132" width="7.216809411350827" height="7.07184601600092" fill="#ff9f1c" opacity="0.10450479163660314" rx="1"/><rect x="1120.2083016972076" y="594.262297992323" width="9.784841455003441" height="8.695977371813724" fill="#ffbf69" opacity="0.2600228591496178" rx="1"/><rect x="1106.7892249280794" y="598.61028667823" width="9.784841455003441" height="8.695977371813724" fill="#ff9f1c" opacity="0.1300114295748089" rx="1"/><rect x="1121.3759555309955" y="636.7300342521335" width="7.449533787427827" height="6.981599012618325" fill="#ffbf69" opacity="0.13664335295014163" rx="1"/><rect x="1107.9568787618673" y="640.2208337584426" width="7.449533787427827" height="6.981599012618325" fill="#ff9f1c" opacity="0.06832167647507081" rx="1"/><rect x="1121.6620635871454" y="679.1977705119439" width="6.877317675127955" height="8.560912785716567" fill="#ffbf69" opacity="0.5574008325481323" rx="1"/><rect x="1108.2429868180172" y="683.4782269048021" width="6.877317675127955" height="8.560912785716567" fill="#ff9f1c" opacity="0.27870041627406617" rx="1"/><rect x="1119.6712143981529" y="721.6655067717543" width="10.859016053112926" height="8.127813088271724" fill="#ffbf69" opacity="0.4330641248806063" rx="1"/><rect x="1106.2521376290247" y="725.7294133158902" width="10.859016053112926" height="8.127813088271724" fill="#ff9f1c" opacity="0.21653206244030315" rx="1"/><rect x="1120.934918340746" y="764.1332430315647" width="8.331608167926689" height="8.77992827882523" fill="#ffbf69" opacity="0.24668644432599807" rx="1"/><rect x="1107.5158415716178" y="768.5232071709773" width="8.331608167926689" height="8.77992827882523" fill="#ff9f1c" opacity="0.12334322216299903" rx="1"/><rect x="1119.9167158419539" y="806.6009792913752" width="10.368013165511194" height="7.975088172120762" fill="#ffbf69" opacity="0.20630583358144058" rx="1"/><rect x="1106.4976390728257" y="810.5885233774355" width="10.368013165511194" height="7.975088172120762" fill="#ff9f1c" opacity="0.10315291679072029" rx="1"/><rect x="1228.0058875535628" y="579.0117298553259" width="39.40532560213593" height="260.0569856958597" fill="#2ec4b6" opacity="0.6648680229356672" rx="2"/><rect x="1243.6295270553394" y="589.0117298553259" width="8.158046598583006" height="8.388633463156557" fill="#ffbf69" opacity="0.1232079582110066" rx="1"/><rect x="1233.7781956548054" y="593.2060465869042" width="8.158046598583006" height="8.388633463156557" fill="#ff9f1c" opacity="0.0616039791055033" rx="1"/><rect x="1243.3990860735996" y="675.6973917539458" width="8.618928562062543" height="9.020444822269596" fill="#ffbf69" opacity="0.17536701452344822" rx="1"/><rect x="1233.5477546730656" y="680.2076141650806" width="8.618928562062543" height="9.020444822269596" fill="#ff9f1c" opacity="0.08768350726172411" rx="1"/><rect x="1241.8645747902024" y="762.3830536525658" width="11.687951128857199" height="9.12691487537858" fill="#ffbf69" opacity="0.4313853325861007" rx="1"/><rect x="1232.0132433896683" y="766.9465110902551" width="11.687951128857199" height="9.12691487537858" fill="#ff9f1c" opacity="0.21569266629305034" rx="1"/><rect x="1323.681753637195" y="567.3384507692741" width="35.82822404937544" height="271.7302647819115" fill="#2ec4b6" opacity="0.6787465183014857" rx="2"/><rect x="1337.4463936389532" y="577.3384507692741" width="8.298944045859143" height="6.547412777447005" fill="#ffbf69" opacity="0.36159310218915186" rx="1"/><rect x="1328.4893376266093" y="580.6121571579977" width="8.298944045859143" height="6.547412777447005" fill="#ff9f1c" opacity="0.18079655109457593" rx="1"/><rect x="1336.794619612348" y="645.271016964752" width="9.60249209906964" height="7.441010989584264" fill="#ffbf69" opacity="0.2638950215801352" rx="1"/><rect x="1327.8375636000042" y="648.9915224595442" width="9.60249209906964" height="7.441010989584264" fill="#ff9f1c" opacity="0.1319475107900676" rx="1"/><rect x="1339.2423845879366" y="713.2035831602299" width="4.706962147892211" height="7.4353993473191275" fill="#ffbf69" opacity="0.31729154086608713" rx="1"/><rect x="1330.2853285755928" y="716.9212828338894" width="4.706962147892211" height="7.4353993473191275" fill="#ff9f1c" opacity="0.15864577043304356" rx="1"/><rect x="1335.8222487566113" y="781.1361493557077" width="11.547233810542904" height="7.177869742079142" fill="#ffbf69" opacity="0.5698004063614179" rx="1"/><rect x="1326.8651927442675" y="784.7250842267473" width="11.547233810542904" height="7.177869742079142" fill="#ff9f1c" opacity="0.28490020318070897" rx="1"/><rect x="1440.9398814036836" y="470.1795313554303" width="89.2490722237269" height="368.8891841957553" fill="#14aa9c" opacity="0.4372592512139257" rx="2"/><rect x="1481.4480341599435" y="480.1795313554303" width="8.232766711207285" height="7.2268476815025435" fill="#ffbf69" opacity="0.20595663709239026" rx="1"/><rect x="1459.1357661040117" y="483.7929551961816" width="8.232766711207285" height="7.2268476815025435" fill="#ff9f1c" opacity="0.10297831854619513" rx="1"/><rect x="1480.3505200267189" y="572.4018274043691" width="10.427794977656518" height="9.278949364851915" fill="#ffbf69" opacity="0.3293997956973966" rx="1"/><rect x="1458.038251970787" y="577.0413020867951" width="10.427794977656518" height="9.278949364851915" fill="#ff9f1c" opacity="0.1646998978486983" rx="1"/><rect x="1479.6433297951342" y="664.6241234533079" width="11.84217544082603" height="7.575928060704825" fill="#ffbf69" opacity="0.5823182186769131" rx="1"/><rect x="1457.3310617392024" y="668.4120874836603" width="11.84217544082603" height="7.575928060704825" fill="#ff9f1c" opacity="0.29115910933845657" rx="1"/><rect x="1481.4847162879269" y="756.8464195022468" width="8.159402455240349" height="7.126481283718366" fill="#ffbf69" opacity="0.15825743418146332" rx="1"/><rect x="1459.172448231995" y="760.409660144106" width="8.159402455240349" height="7.126481283718366" fill="#ff9f1c" opacity="0.07912871709073166" rx="1"/><rect x="1570.553952444008" y="713.706665757044" width="36.34620447325199" height="125.36204979414168" fill="#2ec4b6" opacity="0.49888570671875165" rx="2"/><rect x="1585.2009966378566" y="723.706665757044" width="7.0521160855545" height="6.631957292703902" fill="#ffbf69" opacity="0.5997061172033907" rx="1"/><rect x="1576.1144455195438" y="727.0226444033959" width="7.0521160855545" height="6.631957292703902" fill="#ff9f1c" opacity="0.29985305860169537" rx="1"/><rect x="1584.4552776472306" y="744.6003407227342" width="8.543554066806927" height="6.376131102530316" fill="#ffbf69" opacity="0.3626963306131531" rx="1"/><rect x="1575.3687265289177" y="747.7884062739994" width="8.543554066806927" height="6.376131102530316" fill="#ff9f1c" opacity="0.18134816530657655" rx="1"/><rect x="1585.8293263574199" y="765.4940156884245" width="5.795456646428317" height="6.104050437012699" fill="#ffbf69" opacity="0.25025878875755214" rx="1"/><rect x="1576.742775239107" y="768.5460409069309" width="5.795456646428317" height="6.104050437012699" fill="#ff9f1c" opacity="0.12512939437877607" rx="1"/><rect x="1584.9231975092373" y="786.3876906541149" width="7.607714342793383" height="6.180267640431474" fill="#ffbf69" opacity="0.3169734433332862" rx="1"/><rect x="1575.8366463909244" y="789.4778244743306" width="7.607714342793383" height="6.180267640431474" fill="#ff9f1c" opacity="0.1584867216666431" rx="1"/><rect x="1586.469290976289" y="807.2813656198051" width="4.515527408690081" height="7.773855987417944" fill="#ffbf69" opacity="0.11809102925893177" rx="1"/><rect x="1577.382739857976" y="811.168293613514" width="4.515527408690081" height="7.773855987417944" fill="#ff9f1c" opacity="0.05904551462946588" rx="1"/><rect x="1585.7560021641561" y="828.1750405854954" width="5.942105032955786" height="8.730490017386733" fill="#ffbf69" opacity="0.13243801475792147" rx="1"/><rect x="1576.6694510458433" y="832.5402855941887" width="5.942105032955786" height="8.730490017386733" fill="#ff9f1c" opacity="0.06621900737896073" rx="1"/><rect x="1700.3356170608513" y="569.1852267643403" width="70.0232070311958" height="269.88348878684536" fill="#14aa9c" opacity="0.5888508006671562" rx="2"/><rect x="1730.9759977948797" y="579.1852267643403" width="8.742445563139032" height="9.872017255023126" fill="#ffbf69" opacity="0.397965476358767" rx="1"/><rect x="1713.4701960370808" y="584.1212353918519" width="8.742445563139032" height="9.872017255023126" fill="#ff9f1c" opacity="0.1989827381793835" rx="1"/><rect x="1733.2481807517468" y="669.1463896932887" width="4.1980796494051065" height="7.884113690323223" fill="#ffbf69" opacity="0.13188664187488303" rx="1"/><rect x="1715.7423789939478" y="673.0884465384503" width="4.1980796494051065" height="7.884113690323223" fill="#ff9f1c" opacity="0.06594332093744151" rx="1"/><rect x="1732.6471998737304" y="759.1075526222372" width="5.400041405437523" height="9.3437388360835" fill="#ffbf69" opacity="0.13318141913814038" rx="1"/><rect x="1715.1413981159315" y="763.779422040279" width="5.400041405437523" height="9.3437388360835" fill="#ff9f1c" opacity="0.06659070956907019" rx="1"/><rect x="1813.5505290826668" y="499.97575286542434" width="74.59052748619358" height="339.0929626857613" fill="#14aa9c" opacity="0.4293363512561974" rx="2"/><rect x="1847.464301822815" y="509.97575286542434" width="6.762982005896741" height="9.473591129172963" fill="#ffbf69" opacity="0.4712737917367541" rx="1"/><rect x="1828.8166699512667" y="514.7125484300108" width="6.762982005896741" height="9.473591129172963" fill="#ff9f1c" opacity="0.23563689586837705" rx="1"/><rect x="1848.1677108242102" y="577.7943454025766" width="5.356164003106803" height="7.913243084660089" fill="#ffbf69" opacity="0.5873224906593847" rx="1"/><rect x="1829.5200789526618" y="581.7509669449066" width="5.356164003106803" height="7.913243084660089" fill="#ff9f1c" opacity="0.29366124532969234" rx="1"/><rect x="1846.9563339790227" y="645.6129379397289" width="7.778917693481528" height="8.804562868272086" fill="#ffbf69" opacity="0.5036243753283342" rx="1"/><rect x="1828.3087021074743" y="650.015219373865" width="7.778917693481528" height="8.804562868272086" fill="#ff9f1c" opacity="0.2518121876641671" rx="1"/><rect x="1845.4673974696705" y="713.4315304768811" width="10.75679071218632" height="6.5519275973904705" fill="#ffbf69" opacity="0.23957784048737443" rx="1"/><rect x="1826.819765598122" y="716.7074942755763" width="10.75679071218632" height="6.5519275973904705" fill="#ff9f1c" opacity="0.11978892024368722" rx="1"/><rect x="1846.9373230701167" y="781.2501230140333" width="7.816939511293764" height="9.030434899737694" fill="#ffbf69" opacity="0.17305580972997842" rx="1"/><rect x="1828.2896911985683" y="785.7653404639021" width="7.816939511293764" height="9.030434899737694" fill="#ff9f1c" opacity="0.08652790486498921" rx="1"/><path d="M909.3754240007548 854.486850452257 Q919.9414032557843 741.5194103183503 922.0545991067902 628.5519701844435" stroke="#007769" stroke-width="7.184182024370921" fill="none" stroke-linecap="round"/><path d="M922.0545991067902 628.5519701844435 Q962.6906362957532 608.5519701844435 988.2055410664076 628.5519701844435" stroke="#009183" stroke-width="3.6177892334800656" fill="none" stroke-linecap="round" opacity="0.6"/><path d="M922.0545991067902 628.5519701844435 Q943.9054010668245 612.9702168217943 945.5441598988333 637.3884634591451" stroke="#009183" stroke-width="3.3385293370435316" fill="none" stroke-linecap="round" opacity="0.6"/><path d="M922.0545991067902 628.5519701844435 Q926.6274044315331 617.3494083707332 908.6682133909812 646.1468465570229" stroke="#009183" stroke-width="3.8828424494440767" fill="none" stroke-linecap="round" opacity="0.6"/><path d="M922.0545991067902 628.5519701844435 Q912.7153994795661 611.48951572628 881.3887579665943 634.4270612681166" stroke="#009183" stroke-width="2.982102283970942" fill="none" stroke-linecap="round" opacity="0.6"/><path d="M922.0545991067902 628.5519701844435 Q905.1848502715677 604.4822646809387 865.7157287349518 620.412559177434" stroke="#009183" stroke-width="2.1030362346449487" fill="none" stroke-linecap="round" opacity="0.6"/><path d="M922.0545991067902 628.5519701844435 Q932.3073315888666 599.2984893164264 907.9742882833302 610.0450084484094" stroke="#009183" stroke-width="3.1706743541105356" fill="none" stroke-linecap="round" opacity="0.6"/><path d="M922.0545991067902 628.5519701844435 Q954.8449537454561 601.9062080206253 957.3867222700337 615.2604458568071" stroke="#009183" stroke-width="3.15993254845029" fill="none" stroke-linecap="round" opacity="0.6"/><path d="M53.98505733674045 886.4614304123589 Q41.62625426930056 806.9486640177082 39.15449365581258 727.4358976230575" stroke="#007769" stroke-width="7.885697714957804" fill="none" stroke-linecap="round"/><path d="M39.15449365581258 727.4358976230575 Q74.83988517751916 707.4358976230575 86.63763621371186 727.4358976230575" stroke="#009183" stroke-width="2.5305216607010275" fill="none" stroke-linecap="round" opacity="0.6"/><path d="M39.15449365581258 727.4358976230575 Q61.62108100097257 715.8287499061549 83.77500267308697 744.2216021892524" stroke="#009183" stroke-width="2.4703467400908345" fill="none" stroke-linecap="round" opacity="0.6"/><path d="M39.15449365581258 727.4358976230575 Q52.347673034920234 713.2107704026821 30.367313473261643 738.9856431823068" stroke="#009183" stroke-width="3.9909473173299217" fill="none" stroke-linecap="round" opacity="0.6"/><path d="M39.15449365581258 727.4358976230575 Q27.031986574028146 709.5995231780521 9.20239526169895 731.7631487330467" stroke="#009183" stroke-width="2.818536175139839" fill="none" stroke-linecap="round" opacity="0.6"/><path d="M39.15449365581258 727.4358976230575 Q24.90527488653164 702.8643985524219 -24.130943908089428 718.2928994817863" stroke="#009183" stroke-width="3.607604636253697" fill="none" stroke-linecap="round" opacity="0.6"/><path d="M234.38618084285088 923.5971035490737 Q232.88511939646796 863.1453171519436 232.58490710719138 802.6935307548133" stroke="#007769" stroke-width="7.158849155334488" fill="none" stroke-linecap="round"/><path d="M232.58490710719138 802.6935307548133 Q261.6176070185885 782.6935307548133 279.8809398584722 802.6935307548133" stroke="#009183" stroke-width="3.458809187044112" fill="none" stroke-linecap="round" opacity="0.6"/><path d="M232.58490710719138 802.6935307548133 Q259.58063455487235 791.6447917051825 280.1741898062688 820.5960526555516" stroke="#009183" stroke-width="2.874378635285976" fill="none" stroke-linecap="round" opacity="0.6"/><path d="M232.58490710719138 802.6935307548133 Q242.5748042231832 793.672450590948 215.87912838418933 824.6513704270826" stroke="#009183" stroke-width="3.135345517456379" fill="none" stroke-linecap="round" opacity="0.6"/><path d="M232.58490710719138 802.6935307548133 Q223.1429711283972 785.766584289694 190.04316432057726 808.8396378245748" stroke="#009183" stroke-width="3.0276409571589067" fill="none" stroke-linecap="round" opacity="0.6"/><path d="M232.58490710719138 802.6935307548133 Q200.03176131689628 777.8480068409579 165.50601320903218 793.0024829271023" stroke="#009183" stroke-width="2.268916204168675" fill="none" stroke-linecap="round" opacity="0.6"/><path d="M232.58490710719138 802.6935307548133 Q233.49134184741263 774.7210021855735 220.45372297173782 786.7484736163336" stroke="#009183" stroke-width="2.2871797299681185" fill="none" stroke-linecap="round" opacity="0.6"/><rect x="0" y="1000" width="1920" height="80" fill="#089e90" opacity="0.8"/><line x1="0" y1="1040" x2="1920" y2="1040" stroke="#ffbf69" stroke-opacity="0.15" stroke-width="2" stroke-dasharray="30,20"/><rect x="0" y="930" width="1920" height="150" fill="url(#glow50)"/><text x="1900" y="1060" font-family="Arial, sans-serif" font-size="11" fill="#fff" opacity="0.08" text-anchor="end" letter-spacing="2">GTA 6 REWARDS · WALLPAPER 051</text>
</svg>